<svg width="81" height="101" viewBox="0 0 81 101" fill="none" xmlns="http://www.w3.org/2000/svg">
<g opacity="0.2">
<path d="M78.8613 83.1683L40.0312 100.998L1.20125 83.1683C0.49125 82.8383 0.03125 82.1283 0.03125 81.3483V2.99829C0.03125 1.89829 0.93125 0.998291 2.03125 0.998291H78.0312C79.1313 0.998291 80.0312 1.89829 80.0312 2.99829V81.3583C80.0312 82.1383 79.5713 82.8483 78.8613 83.1783V83.1683Z" fill="#747474"/>
<path d="M67.4212 74.8583L40.0312 86.3983L12.6412 74.8583C12.2712 74.6983 12.0312 74.3383 12.0312 73.9383V13.9983C12.0312 13.4483 12.4812 12.9983 13.0312 12.9983H67.0312C67.5813 12.9983 68.0312 13.4483 68.0312 13.9983V73.9383C68.0312 74.3383 67.7912 74.7083 67.4212 74.8583Z" fill="#F5F5F5"/>
<path d="M24.5668 47.2874C24.5668 40.9807 25.7768 36.0124 28.1968 32.3824C30.6535 28.7524 34.5951 26.9373 40.0218 26.9373C45.4485 26.9373 49.3718 28.7524 51.7918 32.3824C54.2485 36.0124 55.4768 40.9807 55.4768 47.2874C55.4768 53.6674 54.2485 58.6724 51.7918 62.3024C49.3718 65.9324 45.4485 67.7474 40.0218 67.7474C34.5951 67.7474 30.6535 65.9324 28.1968 62.3024C25.7768 58.6724 24.5668 53.6674 24.5668 47.2874ZM46.2368 47.2874C46.2368 43.584 45.8335 40.7424 45.0268 38.7624C44.2201 36.7457 42.5518 35.7374 40.0218 35.7374C37.4918 35.7374 35.8235 36.7457 35.0168 38.7624C34.2101 40.7424 33.8068 43.584 33.8068 47.2874C33.8068 49.7807 33.9535 51.8524 34.2468 53.5024C34.5401 55.1157 35.1268 56.4357 36.0068 57.4624C36.9235 58.4524 38.2618 58.9474 40.0218 58.9474C41.7818 58.9474 43.1018 58.4524 43.9818 57.4624C44.8985 56.4357 45.5035 55.1157 45.7968 53.5024C46.0901 51.8524 46.2368 49.7807 46.2368 47.2874Z" fill="#2F2F2F"/>
</g>
</svg>
