<svg width="81" height="100" viewBox="0 0 81 100" fill="none" xmlns="http://www.w3.org/2000/svg">
<path d="M78.8925 82.17L40.0625 100L1.2325 82.17C0.5225 81.84 0.0625 81.13 0.0625 80.35V2C0.0625 0.9 0.9625 0 2.0625 0H78.0625C79.1625 0 80.0625 0.9 80.0625 2V80.36C80.0625 81.14 79.6025 81.85 78.8925 82.18V82.17Z" fill="#FFC710"/>
<path d="M67.4525 73.86L40.0625 85.4L12.6725 73.86C12.3025 73.7 12.0625 73.34 12.0625 72.94V13C12.0625 12.45 12.5125 12 13.0625 12H67.0625C67.6125 12 68.0625 12.45 68.0625 13V72.94C68.0625 73.34 67.8225 73.71 67.4525 73.86Z" fill="white"/>
<path d="M26.4971 59.379C27.7438 58.389 28.3121 57.9307 28.2021 58.004C31.7954 55.034 34.6188 52.5957 36.6721 50.689C38.7621 48.7824 40.5221 46.784 41.9521 44.694C43.3821 42.604 44.0971 40.569 44.0971 38.589C44.0971 37.0857 43.7488 35.9124 43.0521 35.069C42.3554 34.2257 41.3104 33.804 39.9171 33.804C38.5238 33.804 37.4238 34.3357 36.6171 35.399C35.8471 36.4257 35.4621 37.8924 35.4621 39.799H26.3871C26.4604 36.6824 27.1204 34.079 28.3671 31.989C29.6504 29.899 31.3188 28.359 33.3721 27.369C35.4621 26.379 37.7721 25.884 40.3021 25.884C44.6654 25.884 47.9471 27.0024 50.1471 29.239C52.3838 31.4757 53.5021 34.3907 53.5021 37.984C53.5021 41.9074 52.1638 45.5557 49.4871 48.929C46.8104 52.2657 43.4004 55.529 39.2571 58.719H54.1071V66.364H26.4971V59.379Z" fill="#2F2F2F"/>
</svg>
