<svg width="81" height="100" viewBox="0 0 81 100" fill="none" xmlns="http://www.w3.org/2000/svg">
<g opacity="0.2">
<path d="M78.955 82.17L40.125 100L1.295 82.17C0.585 81.84 0.125 81.13 0.125 80.35V2C0.125 0.9 1.025 0 2.125 0H78.125C79.225 0 80.125 0.9 80.125 2V80.36C80.125 81.14 79.665 81.85 78.955 82.18V82.17Z" fill="#747474"/>
<path d="M67.515 73.86L40.125 85.4L12.735 73.86C12.365 73.7 12.125 73.34 12.125 72.94V13C12.125 12.45 12.575 12 13.125 12H67.125C67.675 12 68.125 12.45 68.125 13V72.94C68.125 73.34 67.885 73.71 67.515 73.86Z" fill="white"/>
<path d="M26.2796 38.0941C26.4263 34.1707 27.7096 31.1457 30.1296 29.0191C32.5496 26.8924 35.8313 25.8291 39.9746 25.8291C42.7246 25.8291 45.0713 26.3057 47.0146 27.2591C48.9946 28.2124 50.4796 29.5141 51.4696 31.1641C52.4963 32.8141 53.0096 34.6657 53.0096 36.7191C53.0096 39.1391 52.4046 41.1191 51.1946 42.6591C49.9846 44.1624 48.5729 45.1891 46.9596 45.7391V45.9591C49.0496 46.6557 50.6996 47.8107 51.9096 49.4241C53.1196 51.0374 53.7246 53.1091 53.7246 55.6391C53.7246 57.9124 53.1929 59.9291 52.1296 61.6891C51.1029 63.4124 49.5813 64.7691 47.5646 65.7591C45.5846 66.7491 43.2196 67.2441 40.4696 67.2441C36.0696 67.2441 32.5496 66.1624 29.9096 63.9991C27.3063 61.8357 25.9313 58.5724 25.7846 54.2091H34.9146C34.9513 55.8224 35.4096 57.1057 36.2896 58.0591C37.1696 58.9757 38.4529 59.4341 40.1396 59.4341C41.5696 59.4341 42.6696 59.0307 43.4396 58.2241C44.2463 57.3807 44.6496 56.2807 44.6496 54.9241C44.6496 53.1641 44.0813 51.8991 42.9446 51.1291C41.8446 50.3224 40.0663 49.9191 37.6096 49.9191H35.8496V42.2741H37.6096C39.4796 42.2741 40.9829 41.9624 42.1196 41.3391C43.2929 40.6791 43.8796 39.5241 43.8796 37.8741C43.8796 36.5541 43.5129 35.5274 42.7796 34.7941C42.0463 34.0607 41.0379 33.6941 39.7546 33.6941C38.3613 33.6941 37.3163 34.1157 36.6196 34.9591C35.9596 35.8024 35.5746 36.8474 35.4646 38.0941H26.2796Z" fill="#2F2F2F"/>
</g>
</svg>
