<svg width="81" height="100" viewBox="0 0 81 100" fill="none" xmlns="http://www.w3.org/2000/svg">
<path d="M78.955 82.17L40.125 100L1.295 82.17C0.585 81.84 0.125 81.13 0.125 80.35V2C0.125 0.9 1.025 0 2.125 0H78.125C79.225 0 80.125 0.9 80.125 2V80.36C80.125 81.14 79.665 81.85 78.955 82.18V82.17Z" fill="#00ABEA"/>
<path d="M67.515 73.86L40.125 85.4L12.735 73.86C12.365 73.7 12.125 73.34 12.125 72.94V13C12.125 12.45 12.575 12 13.125 12H67.125C67.675 12 68.125 12.45 68.125 13V72.94C68.125 73.34 67.885 73.71 67.515 73.86Z" fill="white"/>
<path d="M24.2091 59.7641V52.1741L41.5891 27.3141H52.0941V51.6241H56.6041V59.7641H52.0941V66.9141H42.6891V59.7641H24.2091ZM43.3491 37.6541L34.1091 51.6241H43.3491V37.6541Z" fill="#2F2F2F"/>
</svg>
