<svg width="81" height="100" viewBox="0 0 81 100" fill="none" xmlns="http://www.w3.org/2000/svg">
<g opacity="0.2">
<path d="M78.9863 82.17L40.1562 100L1.32625 82.17C0.61625 81.84 0.15625 81.13 0.15625 80.35V2C0.15625 0.9 1.05625 0 2.15625 0H78.1562C79.2563 0 80.1562 0.9 80.1562 2V80.36C80.1562 81.14 79.6963 81.85 78.9863 82.18V82.17Z" fill="#747474"/>
<path d="M67.5462 73.86L40.1562 85.4L12.7662 73.86C12.3962 73.7 12.1562 73.34 12.1562 72.94V13C12.1562 12.45 12.6062 12 13.1562 12H67.1562C67.7063 12 68.1562 12.45 68.1562 13V72.94C68.1562 73.34 67.9162 73.71 67.5462 73.86Z" fill="white"/>
<path d="M24.2092 59.7641V52.1741L41.5892 27.3141H52.0942V51.6241H56.6042V59.7641H52.0942V66.9141H42.6892V59.7641H24.2092ZM43.3492 37.6541L34.1092 51.6241H43.3492V37.6541Z" fill="#2F2F2F"/>
</g>
</svg>
