<svg width="48" height="60" viewBox="0 0 48 60" fill="none" xmlns="http://www.w3.org/2000/svg">
<path d="M47.298 49.302L24 60L0.702 49.302C0.276 49.11 0 48.684 0 48.216V1.2C0 0.54 0.54 0 1.2 0H46.8C47.46 0 48 0.54 48 1.2V48.216C48 48.684 47.724 49.11 47.298 49.308V49.302Z" fill="#009400"/>
<path d="M40.4339 44.316L24 51.24L7.56595 44.316C7.34395 44.22 7.19995 44.004 7.19995 43.764V7.79995C7.19995 7.46995 7.46995 7.19995 7.79995 7.19995H40.1999C40.5299 7.19995 40.7999 7.46995 40.7999 7.79995V43.764C40.7999 44.004 40.6559 44.226 40.4339 44.316Z" fill="#00B400"/>
<path d="M16.0319 39.546V15.072H33.9839V20.07H21.2339V25.872C25.1939 22.914 32.1599 23.16 32.4659 23.178V27.906C32.4659 27.906 25.9379 27.828 22.7879 30.834C21.7439 31.83 21.2339 33.102 21.2339 34.584V39.546H16.0319Z" fill="white"/>
</svg>
