<svg width="48" height="60" viewBox="0 0 48 60" fill="none" xmlns="http://www.w3.org/2000/svg">
<path d="M47.298 49.302L24 60L0.702 49.302C0.276 49.11 0 48.684 0 48.216V1.2C0 0.54 0.54 0 1.2 0H46.8C47.46 0 48 0.54 48 1.2V48.216C48 48.684 47.724 49.11 47.298 49.308V49.302Z" fill="#009400"/>
<path d="M40.4341 44.3161L24.0001 51.2401L7.56607 44.3161C7.34407 44.2201 7.20007 44.0041 7.20007 43.7641V7.80007C7.20007 7.47007 7.47007 7.20007 7.80007 7.20007H40.2001C40.5301 7.20007 40.8001 7.47007 40.8001 7.80007V43.7641C40.8001 44.0041 40.6561 44.2261 40.4341 44.3161Z" fill="#00B400"/>
<path d="M16.0319 39.546V15.072H33.9839V20.07H21.2339V25.872C25.1939 22.914 32.1599 23.16 32.4659 23.178V27.906C32.4659 27.906 25.9379 27.828 22.7879 30.834C21.7439 31.83 21.2339 33.102 21.2339 34.584V39.546H16.0319Z" fill="white"/>
<path d="M47.298 49.302L24 60L0.702 49.302C0.276 49.11 0 48.684 0 48.216V1.2C0 0.54 0.54 0 1.2 0H46.8C47.46 0 48 0.54 48 1.2V48.216C48 48.684 47.724 49.11 47.298 49.308V49.302Z" fill="#DFDFDF"/>
<path d="M40.434 44.316L24 51.24L7.56601 44.316C7.34401 44.22 7.20001 44.004 7.20001 43.764V7.79995C7.20001 7.46995 7.47001 7.19995 7.80001 7.19995H40.2C40.53 7.19995 40.8 7.46995 40.8 7.79995V43.764C40.8 44.004 40.656 44.226 40.434 44.316Z" fill="#F5F5F5"/>
<path d="M16.032 39.546V15.072H33.984V20.07H21.234V25.872C25.194 22.914 32.16 23.16 32.466 23.178V27.906C32.466 27.906 25.938 27.828 22.788 30.834C21.744 31.83 21.234 33.102 21.234 34.584V39.546H16.032Z" fill="#C9C9C9"/>
</svg>
