<svg width="20" height="20" viewBox="0 0 20 20" fill="none" xmlns="http://www.w3.org/2000/svg">
<g clip-path="url(#clip0_849_833)">
<path d="M9.40341 4.23302V1.25006H10.5966V4.23302H9.40341ZM14.4943 6.34097L13.6591 5.50574L15.767 3.3779L16.6023 4.23302L14.4943 6.34097ZM15.767 10.5967V9.40347H18.75V10.5967H15.767ZM9.40341 18.7501V15.7671H10.5966V18.7501H9.40341ZM5.4858 6.32108L3.39773 4.23302L4.23295 3.39779L6.34091 5.50574L5.4858 6.32108ZM15.7869 16.6023L13.6591 14.4944L14.4744 13.679L16.6222 15.7472L15.7869 16.6023ZM1.25 10.5967V9.40347H4.23295V10.5967H1.25ZM4.25284 16.6023L3.39773 15.7671L5.4858 13.679L5.9233 14.0768L6.3608 14.4944L4.25284 16.6023ZM10 14.7728C8.67424 14.7728 7.54735 14.3088 6.61932 13.3807C5.69129 12.4527 5.22727 11.3258 5.22727 10.0001C5.22727 8.6743 5.69129 7.54741 6.61932 6.61938C7.54735 5.69135 8.67424 5.22733 10 5.22733C11.3258 5.22733 12.4527 5.69135 13.3807 6.61938C14.3087 7.54741 14.7727 8.6743 14.7727 10.0001C14.7727 11.3258 14.3087 12.4527 13.3807 13.3807C12.4527 14.3088 11.3258 14.7728 10 14.7728ZM10 13.5796C10.9943 13.5796 11.8395 13.2316 12.5355 12.5356C13.2315 11.8395 13.5795 10.9944 13.5795 10.0001C13.5795 9.00574 13.2315 8.16057 12.5355 7.46455C11.8395 6.76853 10.9943 6.42052 10 6.42052C9.00568 6.42052 8.16051 6.76853 7.46449 7.46455C6.76847 8.16057 6.42045 9.00574 6.42045 10.0001C6.42045 10.9944 6.76847 11.8395 7.46449 12.5356C8.16051 13.2316 9.00568 13.5796 10 13.5796ZM10 13.5796C9.00568 13.5796 8.16051 13.2316 7.46449 12.5356C6.76847 11.8395 6.42045 10.9944 6.42045 10.0001C6.42045 9.00574 6.76847 8.16057 7.46449 7.46455C8.16051 6.76853 9.00568 6.42052 10 6.42052C10.9943 6.42052 11.8395 6.76853 12.5355 7.46455C13.2315 8.16057 13.5795 9.00574 13.5795 10.0001C13.5795 10.9944 13.2315 11.8395 12.5355 12.5356C11.8395 13.2316 10.9943 13.5796 10 13.5796Z" fill="#9F9F9F"/>
</g>
<defs>
<clipPath id="clip0_849_833">
<rect width="20" height="20" fill="white"/>
</clipPath>
</defs>
</svg>
