<?xml version="1.0" standalone="no"?>
<svg id="멈춤화면" width="1120" height="1108" viewBox="0 0 1120 1108" fill="none" xmlns="http://www.w3.org/2000/svg" style="max-width: 100%; max-height: 100%;">
<g clip-path="url(#clip0_2763_30863)">
<rect width="1120" height="1108" fill="#141414" stroke-dasharray="0,0,0,0,0,4456"><animate attributeType="XML" attributeName="stroke-dasharray" repeatCount="indefinite" dur="4.946545637902412s" values="0,0,0,0,0,4456; 
          0,0,0,873.9337480221106,1834.1987559336683,1747.8674960442213; 
          0,0,1485.3333333333333,0,2970.6666666666665,4456; 
          0,0,2970.6666666666665,0,1485.3333333333333,4456; 
          0,0,3713.3333333333335,742.6666666666666,0,0; 
          0,4456,0,1485.3333333333333,0,4456" keyTimes="0; 0.16666666666666666; 0.3333; 0.6666; 0.8333; 1" begin="1.4618223180877594s"></animate></rect>
<g filter="url(#filter0_d_2763_30863)">
<path d="M394.156 840.2C394.256 839.7 394.556 839.3 394.556 839.3L394.856 838.9C395.256 838.9 395.756 838.5 395.756 838.5C396.156 838.5 397.256 837.8 397.656 837.8C398.156 837.6 402.456 835.9 402.856 835.6L404.156 835.4C404.956 835.1 407.156 834.3 407.456 834.3L408.156 834L411.556 832.9C411.556 832.9 412.556 832.6 412.856 832.6L414.356 832.3L415.356 832L415.956 831.7C416.256 831.7 418.056 831.1 418.456 831.1C418.756 831.1 420.256 830.4 420.656 830.4C420.956 830.4 423.356 829.8 423.656 829.8L424.656 829.5C425.056 829.5 426.856 829.2 427.256 829.2C427.456 829.2 428.756 828.7 429.056 828.7L429.956 828.5L433.356 827.8H433.956L434.856 827.5C435.456 827.5 439.256 826.4 439.756 826.4L441.056 826.2C441.356 826.2 442.356 826 442.656 826C443.256 826 444.956 825.6 444.956 825.6C444.956 825.6 445.756 826 446.056 826L446.356 826.2V826.4L445.956 827.9C445.756 828.2 444.456 828.7 444.456 828.7C444.156 828.7 443.056 829.4 442.656 829.7C442.656 829.7 441.056 830.4 440.756 830.4C440.556 830.4 438.856 830.8 438.656 830.8L437.756 831.3C435.056 832 433.956 832.8 431.156 833.1C430.956 833.1 429.756 833.9 429.356 833.9L427.756 834.1C427.456 834.1 426.356 834.8 425.856 834.8C425.556 834.8 424.056 835.4 423.656 835.4L422.856 835.7L421.556 835.9L420.956 836.4L420.056 836.7C420.056 836.7 418.756 837.3 418.456 837.3H417.856L417.156 837.5C416.956 837.5 415.656 838.2 415.656 838.2C415.356 838.2 413.756 838.7 413.456 838.7C413.256 838.7 410.756 840.1 410.456 840.1L409.056 840.2C408.856 840.2 406.556 841.4 406.156 841.3C405.956 841.7 401.856 842.7 401.456 843.2L400.856 843.3C400.456 843.6 398.956 843.9 398.956 843.9L396.156 843.8L395.556 843.5L394.756 842.3C394.756 842.1 394.156 841.2 394.156 840.8V840.2ZM394.556 823.6V818.1L394.956 814V813.1L395.456 812.1C395.456 811.8 395.856 809.4 395.856 809C395.856 808.7 396.656 806.6 396.656 806.3V805.5C396.856 804.7 397.856 801.2 398.156 800.4L398.556 798.7C398.556 798.5 399.156 797.2 399.156 797L399.356 795.7C399.356 795.3 400.256 793.4 400.256 793.2C400.256 793 401.056 791.8 401.056 791.8L402.156 790.9H403.456C403.756 790.9 404.456 791.6 404.456 791.8V795.1C404.456 795.1 404.156 797.8 403.756 798.7C403.756 798.7 403.456 799.9 403.456 800.4V801.2C403.456 801.6 403.256 802.8 403.256 802.8C403.256 803.1 402.756 804.3 402.756 804.7L402.456 805.2C402.456 805.5 401.956 807.7 401.956 808.5V809C401.956 809 401.556 809.9 401.556 810.3L401.256 811.2L401.056 812.7L400.556 814C400.556 814.3 400.056 816.9 399.756 817.8C399.756 817.8 399.356 818.9 399.356 819.3C399.356 820.3 398.556 824 398.556 825C398.556 825.2 397.856 825.9 397.856 826.1C397.856 826.1 397.256 826.9 396.856 826.9H395.856C395.656 826.9 394.756 825.9 394.756 825.4C394.756 825.4 394.556 824 394.556 823.6ZM405.956 810L406.156 808.6L406.556 807.6C406.856 807.4 409.156 806.4 409.856 806.3C410.356 806.3 411.256 805.8 411.456 805.8L412.556 805.5C413.156 805.6 415.356 804.9 415.456 805L416.956 804.9H417.856C418.056 804.8 420.056 804.7 420.256 804.7C420.656 804.8 423.356 804.5 423.656 804.7C424.456 804.7 425.656 804.5 426.056 804.5C426.656 804.7 430.856 804.9 431.756 805L433.756 805.2C433.756 805.2 434.656 805.5 434.856 806.1L435.556 806.6L435.456 807.5C435.456 807.5 434.556 808.1 434.256 808.5L433.556 808.7C433.556 808.7 432.956 809 432.656 808.9C432.356 808.9 431.756 809.2 431.356 809.2L431.156 809L426.456 809.4C425.856 809.3 424.756 809.4 424.456 809.3C424.156 809.3 422.356 809.8 420.456 809.8C418.656 809.8 412.456 810.5 411.556 810.9C411.356 810.8 409.156 811.4 408.956 811.2L406.856 811.1C406.356 811 405.856 810.4 405.956 810ZM488.288 806.7C488.288 806.2 488.588 802.1 488.588 801C488.588 800.5 489.188 799.5 489.188 798.8L489.788 797.8H492.088L492.588 798.4L493.088 799.5C493.088 800 494.188 807.2 494.188 808.4V809.9C494.188 811 494.488 818.4 494.488 819.5L496.288 818.6C496.788 818.1 500.388 816.5 500.988 816.5L502.488 816C502.488 816 505.588 814.8 506.088 814.8H507.688C507.688 814.8 508.688 815.3 508.688 815.9V816C508.688 816.4 508.088 817 507.688 817.6C506.988 818.2 502.188 821.5 501.188 821.9C500.588 822.6 497.388 824 496.788 824.7L495.688 825.1L494.788 825.7C494.788 826.7 494.488 834.8 494.488 835.9L494.288 841.7L493.788 842.8C493.788 843.5 492.588 843.9 492.588 843.9H490.988L490.488 843.5C489.988 842.3 489.388 841.3 489.388 840.1C489.388 839.1 488.688 834.3 488.688 833.1V827.8C488.688 826.1 488.288 821.8 488.288 821.3V806.7ZM446.888 804.2C447.488 803.6 449.188 802.1 449.788 801.7C450.288 801.1 454.788 799.2 456.388 798.1L458.488 797.2C459.188 797.2 460.788 795.6 461.488 795.6L462.988 795.2L464.088 794.8C465.188 794.3 468.588 793.3 469.088 793.3C469.588 793.3 471.788 792.7 472.288 792.8H474.488L474.988 793.3L475.488 794.5L474.888 795.4L473.788 796.3C473.288 797 468.888 798.3 468.288 798.8C467.688 798.8 463.788 801.1 463.188 801.1L460.988 802L460.488 802.5L452.787 805.8C452.288 805.6 450.588 806.7 449.988 806.7L448.988 806.6L447.288 806.1L446.688 805.4L446.888 804.2ZM451.888 841.6V840.8L453.088 839.7C453.088 839.7 454.088 838.6 454.788 838.6C455.188 838.1 462.888 834.2 463.488 833.6C464.088 833.1 464.888 833 465.288 832.6C465.288 832.2 464.888 827.3 464.888 826.2V814.2C464.888 814.2 465.288 811.6 465.288 810.4C465.288 809.4 465.988 807.2 465.988 807.2C465.988 806.7 466.988 805.5 466.988 805.5C466.988 805.5 467.288 805.2 467.788 805.2H468.388L468.988 805.6L469.388 806.8C469.388 808.5 469.988 814.3 469.988 816V830.6L470.788 830.3L472.188 829.5L473.588 828.9C475.788 827.8 477.988 826.7 480.588 826.7H481.588L483.288 827.3L483.788 827.8V828.7C483.788 828.7 482.788 830 482.288 830.4L481.188 830.9C480.588 830.9 478.988 832.6 478.388 832.6C476.288 833.6 464.988 839.6 462.288 840.7C461.788 840.7 459.088 842.3 458.388 842.3C457.988 842.3 455.788 843.3 455.188 843.3H454.088L453.088 842.6L451.888 841.6ZM452.288 815.5C452.288 815 452.688 812.2 452.688 811.8L453.188 810.7L454.188 809.6H454.888L455.888 810.7L456.388 812.2C456.388 814.4 457.088 824.1 457.088 826.3V832.3L456.388 833.4H454.188C454.188 833.4 453.788 832.8 453.788 832.3C453.788 831.8 453.188 830.6 453.188 830.6C453.188 830.2 452.688 828 452.688 827.4C452.688 826.3 452.288 823.1 452.288 822.6V815.5ZM531.632 814.9C531.032 814.9 527.332 817 526.732 817C526.732 817 524.132 818.3 523.532 818.3L519.032 820.3C519.032 820.3 516.832 820.8 516.232 820.8H515.532L514.332 820.2C513.532 820.2 513.132 818.8 513.132 818.8V817.3C513.132 817.3 514.532 815.4 515.032 815.4C515.032 815.4 518.232 814.1 519.032 813.6C519.632 813.6 524.232 811.9 525.532 811.2C526.232 811.2 529.432 809.6 530.132 809.6C530.732 809.6 531.932 809 531.932 809V796.6H531.232L522.232 801.1C521.532 801.1 518.232 802.5 517.732 803.1C517.032 803.1 515.732 803.8 515.732 803.8H513.132L511.932 803.1L511.232 802.5V800.5C511.232 800.5 513.132 799.3 513.832 798.6C514.532 798.6 519.032 796 520.232 795.4C521.032 794.8 525.532 793.4 526.232 792.8C527.432 792.2 531.232 790.8 531.232 790.8H535.232L536.432 792.2C536.432 792.8 537.232 795.4 537.232 796V808.5L538.932 808.9V810.3L538.532 811.6C538.532 812.2 537.232 812.7 536.732 813.1L536.432 818.1C536.432 819.3 535.832 823.8 535.832 824.3C535.832 824.3 535.232 825.8 535.232 826.3L534.632 827.6L533.532 828.3H533.032L532.332 827.6C532.332 827.1 531.632 825.8 531.632 825.8V814.9ZM509.232 840.5C509.232 840.5 509.432 839.5 509.432 839L510.632 837.5L512.032 836.9L513.832 836.4C514.532 836.3 517.932 835 518.632 835L520.432 834.3C521.832 833.6 525.632 832.5 526.232 832.5L527.332 832.2C527.932 832.2 531.832 830.6 532.532 830.5C533.132 830.5 535.132 829.8 535.732 829.7C537.732 829.6 540.932 827.9 542.932 827.9C543.432 827.9 547.932 826.5 548.732 826.5L549.432 826.4L550.632 827.1L551.432 827.8V829L550.132 830.3C550.132 830.3 547.632 831.8 547.032 831.8C541.932 833.9 539.732 834 534.632 836.2C533.332 836.8 524.632 839.4 523.532 840.1C522.732 840.1 520.032 841.3 518.832 841.4C518.032 841.4 515.532 842.4 515.532 842.4L512.332 842.3C511.632 842.3 510.332 841.8 510.332 841.8C509.732 841.8 509.232 840.5 509.232 840.5ZM568.994 866.1C568.994 865.9 569.194 865.2 569.194 865.2L571.194 862.9L571.694 861.9L572.494 860.7L573.294 859.7L574.194 858.9L576.294 855.6L580.294 850.5C579.994 850.5 579.094 851.6 578.794 851.6C578.494 851.6 573.494 854.2 573.294 854.2C572.794 854.2 571.694 854.8 571.394 854.8H568.694C568.294 854.8 567.794 854.2 567.794 854V851.8C567.794 851.6 568.494 850.6 568.494 850.4C569.094 849.7 570.594 848.5 570.794 847.9C570.794 847.9 571.594 847.3 571.594 847L571.794 846.3L572.394 845.7L572.994 844.8C572.994 844.6 573.594 843.8 573.994 843.6C573.994 843.4 575.094 842.5 575.094 842.1C576.294 840.6 578.794 836.5 578.794 836.5L579.194 835.9L573.994 838.4C573.594 838.4 572.694 839.3 572.394 839.3L570.694 839.9C570.494 840.2 569.094 840.8 569.094 840.8C568.894 840.8 568.694 841.3 568.094 841.7C567.094 841.9 565.994 841.8 565.494 841.6L564.794 841.2L564.594 840.9L564.494 840.1L564.594 838.6C564.594 838.6 565.194 838.1 565.194 837.7C565.494 837.5 566.894 836.4 567.094 836C567.394 835.8 568.294 835.4 568.694 835.4L572.094 833.8C572.394 833.6 573.594 833 573.994 833C574.494 832.6 578.094 831.1 579.094 830.7C579.394 830.7 580.694 830.2 580.994 830.2L582.094 829.9L582.894 829.5C583.094 829.3 584.594 829.1 584.594 829.1H586.094L586.694 829.3C587.194 829.3 587.394 829.9 587.394 829.9V831.7C587.394 832 586.094 833.2 586.094 833.6C586.094 833.6 585.494 834.7 585.194 835C585.194 835.4 583.994 836.7 583.994 837.2C583.994 837.2 583.094 838.4 583.094 838.6L582.894 839.3C582.894 839.6 582.094 840.6 581.894 840.8C581.594 841.2 580.294 843 579.794 843.5L579.394 844.4L578.894 845C578.894 845.3 577.694 846.5 577.694 847.1L579.394 846C579.694 846 580.994 845.2 581.194 845.2C581.194 845.2 581.894 844.8 582.094 844.8H582.294C582.894 844.8 583.994 843.8 584.194 843.8C584.194 843.8 585.494 843.6 585.894 843.6H586.094C586.394 843.6 587.594 843.8 587.594 843.8L588.094 844.2C588.294 844.6 588.494 845.4 588.494 845.4L588.294 847C588.294 847 588.094 847.3 588.094 847.6L585.494 851.4L584.494 852.5C584.494 852.7 583.294 854 583.294 854.3L580.294 858.6L576.594 862.9L575.894 863.8L575.694 864L575.194 864.7H575.894C579.594 864 585.194 862.2 588.494 861.3C588.894 861.3 590.094 860.7 590.394 860.7C590.694 860.7 593.094 859.7 593.394 859.7C593.694 859.7 594.394 859.5 594.394 859.5C594.694 859.5 597.194 858.3 597.394 858.3C597.694 858.3 598.294 857.9 598.694 857.9H599.794L600.494 858.3V859.2L600.194 859.7L598.694 861.3L597.394 862.2C597.194 862.2 594.694 863.6 594.094 863.8L593.094 864C592.894 864 591.594 864.9 591.194 864.9L589.894 865.7L589.194 865.9C588.294 866.1 585.194 867.3 584.994 867.8L582.294 868.7L579.694 869.3C579.394 869.3 578.594 870 578.094 870H577.894C577.194 870 576.094 870.2 575.794 870.2L574.894 870.5C573.994 870.9 572.994 871 571.694 870.5L571.194 870.2C570.794 870.2 570.094 869.5 570.094 869.5C569.894 869.3 569.194 868.4 569.194 868.1C569.194 868.1 568.994 867.1 568.994 866.6V866.1ZM552.694 826.2C552.694 826 553.594 825.2 554.094 825.1C554.394 825.1 556.294 824 556.894 823.7C557.194 823.2 560.794 822.3 560.994 822.2C561.394 822.3 563.194 821 563.394 821L564.394 820.8L565.294 820.4L566.894 819.8C567.094 819.8 569.594 818.5 569.894 818.5C570.094 818.5 572.794 817.9 573.294 817.9C573.494 817.7 575.594 817.3 575.894 817.1C576.194 817.1 577.394 816.1 577.694 816.1C577.994 816.1 579.094 815.8 579.594 815.8L579.994 815.6L581.094 815.4C581.894 815 585.994 814.1 586.394 813.8C586.794 813.8 588.294 813.2 588.594 813.2C589.594 813.1 593.094 812.4 593.594 812.2L595.194 811.9L596.494 811.7C597.094 811.4 599.394 811.3 599.394 811.3L599.994 811.4C599.994 811.4 600.694 811.7 600.694 811.9L600.994 812.4V812.7C600.994 813 600.494 813.3 600.294 813.5C599.794 813.5 599.394 814.1 599.394 814.1C597.494 815 595.594 815.2 593.694 816.1C593.294 816.1 591.894 816.9 591.394 816.9L590.494 817.2C590.294 817.2 588.394 818.2 588.094 818.2L587.194 818.5L585.894 819L584.194 819.5C583.894 819.5 581.994 820.6 581.794 820.5C581.394 820.4 579.794 821.3 579.594 821.3L578.494 821.9C578.094 821.8 576.394 822.7 576.094 822.7L575.094 823.2H574.194C573.994 823.2 572.094 824.4 571.894 824.4L570.494 824.5C570.194 824.5 569.094 825.5 568.794 825.5H567.794L566.494 826.3L565.494 826.5C565.094 826.9 561.494 827.7 561.294 828L560.294 828.1L558.894 828.7C558.894 828.7 557.494 829.3 556.694 829.2C556.494 829.2 555.594 829.4 555.594 829.4L554.094 829.3L553.394 828.9C553.294 828.6 552.594 828 552.594 828L552.694 826.2ZM554.794 787.4L555.094 785.9L555.294 785.3C555.594 785 556.294 784.2 556.594 784.4C556.894 784.4 559.994 782.3 561.094 781.7C561.394 781.7 562.394 781.3 562.594 781L564.794 779.9L565.694 779.8L566.594 779.5C567.094 779 569.494 778.4 569.494 778.4C569.994 778.1 575.094 777 576.794 776.5C576.994 776.5 578.694 776 578.994 776L579.894 775.8L580.294 775.9C580.894 775.9 584.394 774.9 585.194 774.9L586.594 775.3L587.394 775.9L587.194 776.7C587.194 776.7 586.494 777.7 586.094 777.6C586.094 777.6 585.094 778 584.294 778.2C584.094 778.6 581.194 779.2 580.894 779.5C580.294 780 578.694 780.8 578.294 780.6L577.394 781.2L575.794 781.5L575.394 781.7C575.194 781.7 573.994 782.5 573.594 782.7C573.394 782.7 571.194 783.8 570.694 783.8L569.994 784.1C569.694 783.9 567.994 785 567.794 784.9C567.094 785.2 565.194 786 564.894 786.5L563.294 786.8C563.094 786.8 561.194 787.9 560.894 787.9C560.694 787.9 558.994 788.2 558.794 788.4L558.094 788.7L556.394 788.6L555.494 788C555.194 788 554.794 787.4 554.794 787.4ZM556.594 809.9C556.594 809.6 557.894 808.8 558.194 808.5C558.494 808.5 561.394 807 562.494 806.5L563.394 806.2C563.494 806.2 563.794 806.2 564.294 806.1V805.8C564.294 805.6 563.694 804.4 563.694 804.1V802.5C563.694 802 563.294 796.1 563.294 795.4V795.1C563.294 795.1 563.494 794 563.494 793.7V792.1L563.794 791.1L564.294 789.7C564.294 789.3 564.794 788.5 564.794 788.5C564.794 788.5 565.394 788 565.594 788H566.994C566.994 788 567.494 788.5 567.494 788.7C567.494 788.7 567.894 789.3 567.894 789.7C567.894 789.9 568.494 791.1 568.494 791.1C568.794 794.5 568.494 800 568.094 804.9L569.194 804.4C570.494 804.1 571.994 803.2 575.894 802.2L579.394 801.1L579.094 799.6C579.094 799 578.694 795.9 578.694 795.4L578.494 787.8V787.1C578.494 786.7 578.694 784.4 578.694 783.8C578.694 783.5 579.394 782.8 579.594 782.8C579.994 782.6 580.794 782.3 580.794 782.3L582.294 782.5L582.894 782.8C582.894 782.8 583.294 783.2 583.294 783.5L584.094 785.8L584.194 787.6L583.894 793.7L583.794 798.8V799.6L583.994 799.5C584.894 799 585.694 798.7 586.694 798.4C586.994 798.4 588.694 797.8 588.894 797.8L589.594 797.5C589.894 797.5 591.494 797.2 591.894 797.2L592.894 796.8C593.094 796.8 593.394 797.2 593.894 797.3L594.394 797.7L594.294 798.7L594.194 799.4L593.394 799.8L591.594 801.1L589.994 801.8C589.694 801.8 588.194 803 587.694 802.9L587.294 803.2L586.694 803.4C586.494 803.8 583.394 804.3 583.094 804.6C582.794 804.9 581.394 805.5 581.394 805.5L574.694 808.3C574.394 808.1 573.094 808.8 572.394 809C572.194 809 569.594 810.3 569.394 810.3L568.694 810.5L564.494 811.8C564.294 811.8 562.594 812.5 562.394 812.5L561.394 812.8C559.794 812.9 558.794 813.2 557.794 812.8L556.794 811.7L556.594 811V809.9ZM609.652 839.6C609.652 839.2 610.052 837.5 610.052 837.5C610.652 837.1 613.252 831.9 613.852 830.4C613.852 830.4 614.852 828.3 615.352 827.8C615.752 826.9 618.452 823.1 618.852 822C619.452 821.6 620.952 819.5 620.952 819.1L621.452 818.5L621.952 817.4L623.252 815.5L621.952 816C621.952 816 617.352 818.1 615.652 819.1C613.652 820.2 612.152 821.6 609.652 821.6H608.952C608.952 821.6 607.952 821 607.952 820.6L607.552 819.5V818.5L607.952 817.4C608.552 817 610.052 814.3 610.652 813.9L611.052 813.3L612.152 811.8C612.652 811.4 615.652 806.6 616.352 806.2L616.752 805.1C617.752 803 619.452 800.9 620.352 798.8V798.4H619.852L614.252 800.9C613.652 800.9 611.052 802.6 610.652 802.6L609.652 803C608.952 803 607.952 803.6 607.552 803.6H605.952L604.952 802.6V800.5C604.952 800.5 605.952 798.8 606.452 798.8C607.052 798.8 610.652 797 611.752 796.3L613.152 795.9L614.252 795.3C614.652 795.3 616.352 794.2 616.752 794.2C617.752 793.8 620.352 792.8 620.952 792.8C621.452 792.2 624.052 791.7 624.052 791.7H625.552L626.552 792.2L627.152 792.8V794.2L627.252 795.3L626.252 797L625.752 797.9C625.152 798.8 620.552 806.2 620.052 807.2L619.652 808.2C619.652 808.7 617.252 811.4 617.252 811.8L615.752 813.7C616.452 813.7 618.452 812.1 618.852 812.1C619.452 812.1 622.452 810.8 623.052 810.8H627.152C627.652 810.8 628.652 812.3 628.652 812.8V814.3C628.652 814.9 627.152 817.4 626.552 818.5C626.152 819.5 620.452 828.7 619.952 829.8C619.552 830.4 617.652 833.5 617.652 834L616.752 835.6C617.352 835.6 618.252 835.1 618.252 835.1C618.752 835.1 621.352 834.1 621.852 834.1C622.252 834.1 627.352 832 627.852 832C628.852 831.5 631.452 830.9 631.452 830.9H633.052C633.552 830.9 634.852 831.1 634.852 831.1L635.052 831.9V832.9C635.052 833.5 633.752 834.8 633.152 834.8C630.752 836.2 625.952 838.4 624.352 839C623.852 839.4 618.752 841.5 617.152 841.9C615.552 842.5 614.352 843 612.852 843H611.852C611.852 843 610.652 842.2 610.052 841.7L609.652 840.7V839.6ZM631.652 819.2L631.752 817.8L632.552 816.7C633.052 816.3 634.252 814.9 634.852 814.9C634.852 814.9 637.052 814.2 637.452 813.7C638.052 813.8 641.952 811.5 642.552 811.5L644.152 810.7L645.252 810.1C645.752 809.8 647.552 809 647.552 809L648.652 808.6L648.452 798.4C648.452 797.9 649.052 795.9 649.052 795.3V794.2C649.052 793.8 649.452 792.2 649.452 791.7L650.052 790.7L651.152 790.2H652.252L653.052 790.7L653.552 791.7C653.552 792.2 654.052 793.2 654.052 793.8C654.052 794.2 654.552 797.9 654.552 798.8C654.552 800.9 654.852 806.6 654.852 807.2V818.5L654.952 830.4C654.952 831.5 654.652 837.1 654.652 838.6C654.652 839.2 654.152 841.3 654.152 841.7L653.652 842.7L653.152 843.3C653.152 843.3 652.552 843.8 652.152 843.8H651.652L650.552 842.7L650.152 841.7C650.152 841.3 649.552 838.1 649.552 837.5C649.552 837.1 649.052 829.4 649.052 826.9V822.4L648.852 813.8C648.152 813.8 646.252 815.1 645.752 815.1L645.152 815.5C645.152 815.5 643.952 816.4 643.452 816.4C642.352 816.7 636.152 820.2 635.152 820.5L633.952 820.8C633.952 820.8 633.052 820.5 632.652 820.5L631.652 819.2ZM666.813 840.2C666.913 839.7 667.213 839.3 667.213 839.3L667.513 838.9C667.913 838.9 668.412 838.5 668.412 838.5C668.813 838.5 669.913 837.8 670.313 837.8C670.813 837.6 675.113 835.9 675.513 835.6L676.813 835.4C677.613 835.1 679.813 834.3 680.113 834.3L680.813 834L684.213 832.9C684.213 832.9 685.213 832.6 685.513 832.6L687.013 832.3L688.013 832L688.613 831.7C688.913 831.7 690.713 831.1 691.113 831.1C691.413 831.1 692.913 830.4 693.313 830.4C693.613 830.4 696.013 829.8 696.313 829.8L697.313 829.5C697.713 829.5 699.513 829.2 699.913 829.2C700.113 829.2 701.413 828.7 701.713 828.7L702.613 828.5L706.013 827.8H706.613L707.513 827.5C708.113 827.5 711.913 826.4 712.413 826.4L713.713 826.2C714.013 826.2 715.013 826 715.313 826C715.913 826 717.613 825.6 717.613 825.6C717.613 825.6 718.413 826 718.713 826L719.013 826.2V826.4L718.613 827.9C718.413 828.2 717.113 828.7 717.113 828.7C716.813 828.7 715.713 829.4 715.313 829.7C715.313 829.7 713.713 830.4 713.413 830.4C713.212 830.4 711.513 830.8 711.313 830.8L710.413 831.3C707.713 832 706.613 832.8 703.813 833.1C703.613 833.1 702.413 833.9 702.013 833.9L700.413 834.1C700.113 834.1 699.013 834.8 698.513 834.8C698.213 834.8 696.713 835.4 696.313 835.4L695.513 835.7L694.213 835.9L693.613 836.4L692.713 836.7C692.713 836.7 691.413 837.3 691.113 837.3H690.513L689.813 837.5C689.613 837.5 688.313 838.2 688.313 838.2C688.013 838.2 686.413 838.7 686.113 838.7C685.913 838.7 683.413 840.1 683.113 840.1L681.713 840.2C681.513 840.2 679.213 841.4 678.813 841.3C678.613 841.7 674.513 842.7 674.113 843.2L673.513 843.3C673.113 843.6 671.613 843.9 671.613 843.9L668.813 843.8L668.213 843.5L667.413 842.3C667.413 842.1 666.813 841.2 666.813 840.8V840.2ZM667.213 823.6V818.1L667.613 814V813.1L668.113 812.1C668.113 811.8 668.513 809.4 668.513 809C668.513 808.7 669.313 806.6 669.313 806.3V805.5C669.513 804.7 670.513 801.2 670.813 800.4L671.213 798.7C671.213 798.5 671.813 797.2 671.813 797L672.013 795.7C672.013 795.3 672.913 793.4 672.913 793.2C672.913 793 673.713 791.8 673.713 791.8L674.813 790.9H676.113C676.413 790.9 677.113 791.6 677.113 791.8V795.1C677.113 795.1 676.813 797.8 676.413 798.7C676.413 798.7 676.113 799.9 676.113 800.4V801.2C676.113 801.6 675.913 802.8 675.913 802.8C675.913 803.1 675.413 804.3 675.413 804.7L675.113 805.2C675.113 805.5 674.613 807.7 674.613 808.5V809C674.613 809 674.213 809.9 674.213 810.3L673.913 811.2L673.713 812.7L673.213 814C673.213 814.3 672.713 816.9 672.413 817.8C672.413 817.8 672.013 818.9 672.013 819.3C672.013 820.3 671.213 824 671.213 825C671.213 825.2 670.513 825.9 670.513 826.1C670.513 826.1 669.913 826.9 669.513 826.9H668.513C668.313 826.9 667.413 825.9 667.413 825.4C667.413 825.4 667.213 824 667.213 823.6ZM678.613 810L678.813 808.6L679.213 807.6C679.513 807.4 681.813 806.4 682.513 806.3C683.013 806.3 683.913 805.8 684.113 805.8L685.213 805.5C685.813 805.6 688.013 804.9 688.113 805L689.613 804.9H690.513C690.713 804.8 692.713 804.7 692.913 804.7C693.313 804.8 696.013 804.5 696.313 804.7C697.113 804.7 698.313 804.5 698.713 804.5C699.313 804.7 703.513 804.9 704.413 805L706.413 805.2C706.413 805.2 707.313 805.5 707.513 806.1L708.213 806.6L708.113 807.5C708.113 807.5 707.213 808.1 706.913 808.5L706.213 808.7C706.213 808.7 705.613 809 705.313 808.9C705.013 808.9 704.413 809.2 704.013 809.2L703.813 809L699.113 809.4C698.513 809.3 697.413 809.4 697.113 809.3C696.813 809.3 695.013 809.8 693.113 809.8C691.313 809.8 685.113 810.5 684.213 810.9C684.013 810.8 681.813 811.4 681.613 811.2L679.513 811.1C679.013 811 678.513 810.4 678.613 810Z" fill="white" stroke-dasharray="0,0,0,0,0,2067.35400390625"><animate attributeType="XML" attributeName="stroke-dasharray" repeatCount="indefinite" dur="4.853654356548773s" values="0,0,0,0,0,2067.35400390625; 
          0,0,0,367.09748576969065,966.0615465971779,734.1949715393813; 
          0,0,689.1180013020834,0,1378.2360026041667,2067.35400390625; 
          0,0,1378.2360026041667,0,689.1180013020834,2067.35400390625; 
          0,0,1722.7950032552083,344.5590006510417,0,0; 
          0,2067.35400390625,0,689.1180013020834,0,2067.35400390625" keyTimes="0; 0.16666666666666666; 0.3333; 0.6666; 0.8333; 1" begin="1.1741057143685438s"></animate></path>
</g>
<rect x="267" y="744" width="574" height="160" rx="80" stroke="white" stroke-width="10" stroke-dasharray="0,0,0,0,0,1329.8428955078125"><animate attributeType="XML" attributeName="stroke-dasharray" repeatCount="indefinite" dur="4.308534584089409s" values="0,0,0,0,0,1329.8428955078125; 
          0,0,0,227.3504865668181,647.7914358073582,454.7009731336362; 
          0,0,443.2809651692708,0,886.5619303385416,1329.8428955078125; 
          0,0,886.5619303385416,0,443.2809651692708,1329.8428955078125; 
          0,0,1108.202412923177,221.6404825846354,0,0; 
          0,1329.8428955078125,0,443.2809651692708,0,1329.8428955078125" keyTimes="0; 0.16666666666666666; 0.3333; 0.6666; 0.8333; 1" begin="1.0460960116015272s"></animate></rect>
<rect x="267" y="744" width="574" height="160" rx="80" stroke="#AF7DFF" stroke-width="10" stroke-dasharray="0,0,0,0,0,1329.8428955078125"><animate attributeType="XML" attributeName="stroke-dasharray" repeatCount="indefinite" dur="4.667367947644687s" values="0,0,0,0,0,1329.8428955078125; 
          0,0,0,263.9534646342779,537.9825016049788,527.9069292685558; 
          0,0,443.2809651692708,0,886.5619303385416,1329.8428955078125; 
          0,0,886.5619303385416,0,443.2809651692708,1329.8428955078125; 
          0,0,1108.202412923177,221.6404825846354,0,0; 
          0,1329.8428955078125,0,443.2809651692708,0,1329.8428955078125" keyTimes="0; 0.16666666666666666; 0.3333; 0.6666; 0.8333; 1" begin="1.3289100601496733s"></animate></rect>
<rect x="267" y="744" width="574" height="160" rx="80" stroke="#2DCD6F" stroke-width="10" stroke-dasharray="0,0,0,0,0,1329.8428955078125"><animate attributeType="XML" attributeName="stroke-dasharray" repeatCount="indefinite" dur="4.9872606110590585s" values="0,0,0,0,0,1329.8428955078125; 
          0,0,0,229.66698553594478,640.8419388999782,459.33397107188955; 
          0,0,443.2809651692708,0,886.5619303385416,1329.8428955078125; 
          0,0,886.5619303385416,0,443.2809651692708,1329.8428955078125; 
          0,0,1108.202412923177,221.6404825846354,0,0; 
          0,1329.8428955078125,0,443.2809651692708,0,1329.8428955078125" keyTimes="0; 0.16666666666666666; 0.3333; 0.6666; 0.8333; 1" begin="0.9509506947201246s"></animate></rect>
<rect x="267" y="744" width="574" height="160" rx="80" stroke="#FFD53F" stroke-width="10" stroke-dasharray="0,0,0,0,0,1329.8428955078125"><animate attributeType="XML" attributeName="stroke-dasharray" repeatCount="indefinite" dur="4.7159488630826525s" values="0,0,0,0,0,1329.8428955078125; 
          0,0,0,254.1376767130504,567.4298653686612,508.2753534261008; 
          0,0,443.2809651692708,0,886.5619303385416,1329.8428955078125; 
          0,0,886.5619303385416,0,443.2809651692708,1329.8428955078125; 
          0,0,1108.202412923177,221.6404825846354,0,0; 
          0,1329.8428955078125,0,443.2809651692708,0,1329.8428955078125" keyTimes="0; 0.16666666666666666; 0.3333; 0.6666; 0.8333; 1" begin="0.9648888908968091s"></animate></rect>
<path opacity="0.4" fill-rule="evenodd" clip-rule="evenodd" d="M1045 3H695C655.236 3 623 35.2355 623 75C623 114.765 655.235 147 695 147H1045C1084.76 147 1117 114.765 1117 75C1117 35.2355 1084.76 3 1045 3ZM695 0C653.579 0 620 33.5786 620 75C620 116.421 653.579 150 695 150H1045C1086.42 150 1120 116.421 1120 75C1120 33.5786 1086.42 0 1045 0H695Z" fill="#2DCD6F" stroke-dasharray="0,0,0,0,0,2323.756591796875"><animate attributeType="XML" attributeName="stroke-dasharray" repeatCount="indefinite" dur="4.382742031108255s" values="0,0,0,0,0,2323.756591796875; 
          0,0,0,404.1866855996507,1111.196534997923,808.3733711993013; 
          0,0,774.5855305989584,0,1549.1710611979167,2323.756591796875; 
          0,0,1549.1710611979167,0,774.5855305989584,2323.756591796875; 
          0,0,1936.4638264973958,387.2927652994792,0,0; 
          0,2323.756591796875,0,774.5855305989584,0,2323.756591796875" keyTimes="0; 0.16666666666666666; 0.3333; 0.6666; 0.8333; 1" begin="0.6059558725139342s"></animate></path>
<path opacity="0.4" fill-rule="evenodd" clip-rule="evenodd" d="M1045 752H946C906.236 752 874 784.236 874 824C874 863.765 906.235 896 946 896H1045C1084.76 896 1117 863.765 1117 824C1117 784.236 1084.76 752 1045 752ZM946 749C904.579 749 871 782.579 871 824C871 865.421 904.579 899 946 899H1045C1086.42 899 1120 865.421 1120 824C1120 782.579 1086.42 749 1045 749H946Z" fill="#2DCD6F" stroke-dasharray="0,0,0,0,0,1319.7562255859375"><animate attributeType="XML" attributeName="stroke-dasharray" repeatCount="indefinite" dur="5.183278400172699s" values="0,0,0,0,0,1319.7562255859375; 
          0,0,0,263.0006182877793,530.7543707225997,526.0012365755586; 
          0,0,439.9187418619792,0,879.8374837239584,1319.7562255859375; 
          0,0,879.8374837239584,0,439.9187418619792,1319.7562255859375; 
          0,0,1099.796854654948,219.9593709309896,0,0; 
          0,1319.7562255859375,0,439.9187418619792,0,1319.7562255859375" keyTimes="0; 0.16666666666666666; 0.3333; 0.6666; 0.8333; 1" begin="0.46599826986798804s"></animate></path>
<g opacity="0.4">
<path fill-rule="evenodd" clip-rule="evenodd" d="M398 75C398 114.765 430.236 147 470 147C509.765 147 542 114.765 542 75C542 35.2355 509.765 3 470 3C430.236 3 398 35.2355 398 75ZM470 0C428.579 0 395 33.5786 395 75C395 116.421 428.579 150 470 150C511.421 150 545 116.421 545 75C545 33.5786 511.421 0 470 0Z" fill="white" stroke-dasharray="0,0,0,0,0,923.7592163085938"><animate attributeType="XML" attributeName="stroke-dasharray" repeatCount="indefinite" dur="4.853800953750781s" values="0,0,0,0,0,923.7592163085938; 
          0,0,0,179.44211984522917,385.4328567729062,358.88423969045834; 
          0,0,307.91973876953125,0,615.8394775390625,923.7592163085938; 
          0,0,615.8394775390625,0,307.91973876953125,923.7592163085938; 
          0,0,769.7993469238281,153.95986938476562,0,0; 
          0,923.7592163085938,0,307.91973876953125,0,923.7592163085938" keyTimes="0; 0.16666666666666666; 0.3333; 0.6666; 0.8333; 1" begin="0.2704403945062413s"></animate></path>
<path fill-rule="evenodd" clip-rule="evenodd" d="M486.153 87.7222L450.431 52L445 57.4306L480.836 93.2669L454.974 93.6046L455.075 101.284L494.267 100.772L492.94 60.4854L485.264 60.7383L486.153 87.7222Z" fill="white" stroke-dasharray="0,0,0,0,0,256.605712890625"><animate attributeType="XML" attributeName="stroke-dasharray" repeatCount="indefinite" dur="5.194913344936965s" values="0,0,0,0,0,256.605712890625; 
          0,0,0,49.65000101479766,107.65570984623201,99.30000202959532; 
          0,0,85.53523763020833,0,171.07047526041666,256.605712890625; 
          0,0,171.07047526041666,0,85.53523763020833,256.605712890625; 
          0,0,213.83809407552084,42.767618815104164,0,0; 
          0,256.605712890625,0,85.53523763020833,0,256.605712890625" keyTimes="0; 0.16666666666666666; 0.3333; 0.6666; 0.8333; 1" begin="0.264168795343269s"></animate></path>
</g>
<g opacity="0.4">
<path fill-rule="evenodd" clip-rule="evenodd" d="M3 824C3 863.765 35.2355 896 75 896C114.765 896 147 863.765 147 824C147 784.236 114.765 752 75 752C35.2355 752 3 784.236 3 824ZM75 749C33.5786 749 0 782.579 0 824C0 865.421 33.5786 899 75 899C116.421 899 150 865.421 150 824C150 782.579 116.421 749 75 749Z" fill="white" stroke-dasharray="0,0,0,0,0,923.759033203125"><animate attributeType="XML" attributeName="stroke-dasharray" repeatCount="indefinite" dur="4.9705899173219015s" values="0,0,0,0,0,923.759033203125; 
          0,0,0,179.89491578272325,384.0742858549552,359.7898315654465; 
          0,0,307.919677734375,0,615.83935546875,923.759033203125; 
          0,0,615.83935546875,0,307.919677734375,923.759033203125; 
          0,0,769.7991943359375,153.9598388671875,0,0; 
          0,923.759033203125,0,307.919677734375,0,923.759033203125" keyTimes="0; 0.16666666666666666; 0.3333; 0.6666; 0.8333; 1" begin="1.026474796751158s"></animate></path>
<path fill-rule="evenodd" clip-rule="evenodd" d="M94.1494 821.796L43.6305 821.796L43.6305 829.476L94.3108 829.476L76.2624 848.002L81.7634 853.361L109.115 825.286L79.6891 797.738L74.4403 803.344L94.1494 821.796Z" fill="white" stroke-dasharray="0,0,0,0,0,256.60595703125"><animate attributeType="XML" attributeName="stroke-dasharray" repeatCount="indefinite" dur="4.951833728891344s" values="0,0,0,0,0,256.60595703125; 
          0,0,0,43.46004325333723,126.22582727123829,86.92008650667447; 
          0,0,85.53531901041667,0,171.07063802083334,256.60595703125; 
          0,0,171.07063802083334,0,85.53531901041667,256.60595703125; 
          0,0,213.83829752604166,42.767659505208336,0,0; 
          0,256.60595703125,0,85.53531901041667,0,256.60595703125" keyTimes="0; 0.16666666666666666; 0.3333; 0.6666; 0.8333; 1" begin="1.0673568299043927s"></animate></path>
</g>
<g opacity="0.4">
<path fill-rule="evenodd" clip-rule="evenodd" d="M335 1033C335 1072.76 367.236 1105 407 1105C446.765 1105 479 1072.76 479 1033C479 993.236 446.765 961 407 961C367.236 961 335 993.236 335 1033ZM407 958C365.579 958 332 991.579 332 1033C332 1074.42 365.579 1108 407 1108C448.421 1108 482 1074.42 482 1033C482 991.579 448.421 958 407 958Z" fill="white" stroke-dasharray="0,0,0,0,0,923.7562255859375"><animate attributeType="XML" attributeName="stroke-dasharray" repeatCount="indefinite" dur="4.7023847747505165s" values="0,0,0,0,0,923.7562255859375; 
          0,0,0,170.5254824764054,412.17977815672134,341.0509649528108; 
          0,0,307.9187418619792,0,615.8374837239584,923.7562255859375; 
          0,0,615.8374837239584,0,307.9187418619792,923.7562255859375; 
          0,0,769.7968546549479,153.9593709309896,0,0; 
          0,923.7562255859375,0,307.9187418619792,0,923.7562255859375" keyTimes="0; 0.16666666666666666; 0.3333; 0.6666; 0.8333; 1" begin="0.9260291512070169s"></animate></path>
<rect x="378.5" y="1027.4" width="56" height="11.2" fill="white" stroke-dasharray="0,0,0,0,0,134.39990234375"><animate attributeType="XML" attributeName="stroke-dasharray" repeatCount="indefinite" dur="5.074582034648606s" values="0,0,0,0,0,134.39990234375; 
          0,0,0,22.943497384494258,65.56941019026722,45.886994768988515; 
          0,0,44.799967447916664,0,89.59993489583333,134.39990234375; 
          0,0,89.59993489583333,0,44.799967447916664,134.39990234375; 
          0,0,111.99991861979167,22.399983723958332,0,0; 
          0,134.39990234375,0,44.799967447916664,0,134.39990234375" keyTimes="0; 0.16666666666666666; 0.3333; 0.6666; 0.8333; 1" begin="0.38757996868549704s"></animate></rect>
<rect x="412.102" y="1005" width="56" height="11.2" transform="rotate(90 412.102 1005)" fill="white" stroke-dasharray="0,0,0,0,0,134.4000244140625"><animate attributeType="XML" attributeName="stroke-dasharray" repeatCount="indefinite" dur="4.878477029303973s" values="0,0,0,0,0,134.4000244140625; 
          0,0,0,23.500607239410773,63.898202695830186,47.001214478821545; 
          0,0,44.800008138020836,0,89.60001627604167,134.4000244140625; 
          0,0,89.60001627604167,0,44.800008138020836,134.4000244140625; 
          0,0,112.00002034505208,22.400004069010418,0,0; 
          0,134.4000244140625,0,44.800008138020836,0,134.4000244140625" keyTimes="0; 0.16666666666666666; 0.3333; 0.6666; 0.8333; 1" begin="1.224333037920824s"></animate></rect>
</g>
<g opacity="0.4">
<path fill-rule="evenodd" clip-rule="evenodd" d="M291 3H75C35.2355 3 3 35.2355 3 75C3 114.765 35.2355 147 75 147H291C330.764 147 363 114.765 363 75C363 35.2355 330.764 3 291 3ZM75 0C33.5786 0 0 33.5786 0 75C0 116.421 33.5786 150 75 150H291C332.421 150 366 116.421 366 75C366 33.5786 332.421 0 291 0H75Z" fill="white" stroke-dasharray="0,0,0,0,0,1787.758544921875"><animate attributeType="XML" attributeName="stroke-dasharray" repeatCount="indefinite" dur="4.99974876687424s" values="0,0,0,0,0,1787.758544921875; 
          0,0,0,345.10343610391595,752.4482366101271,690.2068722078319; 
          0,0,595.9195149739584,0,1191.8390299479167,1787.758544921875; 
          0,0,1191.8390299479167,0,595.9195149739584,1787.758544921875; 
          0,0,1489.7987874348958,297.9597574869792,0,0; 
          0,1787.758544921875,0,595.9195149739584,0,1787.758544921875" keyTimes="0; 0.16666666666666666; 0.3333; 0.6666; 0.8333; 1" begin="0.40589093268500487s"></animate></path>
<path d="M115.433 98.0001V54.1548H123.29V74.3433H123.868L141.016 54.1548H150.672L133.673 73.8295L150.8 98.0001H141.294L128.192 79.1603L123.29 84.9407V98.0001H115.433Z" fill="white" stroke-dasharray="0,0,0,0,0,225.18701171875"><animate attributeType="XML" attributeName="stroke-dasharray" repeatCount="indefinite" dur="4.9981872167880415s" values="0,0,0,0,0,225.18701171875; 
          0,0,0,42.381927885093035,98.0412280634709,84.76385577018607; 
          0,0,75.06233723958333,0,150.12467447916666,225.18701171875; 
          0,0,150.12467447916666,0,75.06233723958333,225.18701171875; 
          0,0,187.65584309895834,37.531168619791664,0,0; 
          0,225.18701171875,0,75.06233723958333,0,225.18701171875" keyTimes="0; 0.16666666666666666; 0.3333; 0.6666; 0.8333; 1" begin="0.12488792133253716s"></animate></path>
<path d="M167.468 98.6424C157.556 98.6424 151.497 92.0484 151.497 81.7508C151.497 71.603 157.642 64.6879 167.04 64.6879C175.111 64.6879 182.069 69.7404 182.069 81.3012V83.6776H159.14C159.226 89.3295 162.544 92.6479 167.554 92.6479C170.915 92.6479 173.206 91.1707 174.212 89.2011H181.748C180.357 94.8958 175.111 98.6424 167.468 98.6424ZM159.162 78.4538H174.662C174.64 73.9794 171.622 70.7038 167.169 70.7038C162.523 70.7038 159.397 74.2577 159.162 78.4538Z" fill="white" stroke-dasharray="0,0,0,0,0,190.6484832763672"><animate attributeType="XML" attributeName="stroke-dasharray" repeatCount="indefinite" dur="4.732325129984275s" values="0,0,0,0,0,190.6484832763672; 
          0,0,0,35.173593261018205,85.12770349331258,70.34718652203641; 
          0,0,63.54949442545573,0,127.09898885091145,190.6484832763672; 
          0,0,127.09898885091145,0,63.54949442545573,190.6484832763672; 
          0,0,158.8737360636393,31.774747212727863,0,0; 
          0,190.6484832763672,0,63.54949442545573,0,190.6484832763672" keyTimes="0; 0.16666666666666666; 0.3333; 0.6666; 0.8333; 1" begin="0.07424108520426778s"></animate></path>
<path d="M202.646 98.6424C192.734 98.6424 186.675 92.0484 186.675 81.7508C186.675 71.603 192.82 64.6879 202.218 64.6879C210.289 64.6879 217.247 69.7404 217.247 81.3012V83.6776H194.318C194.404 89.3295 197.722 92.6479 202.732 92.6479C206.093 92.6479 208.384 91.1707 209.39 89.2011H216.926C215.534 94.8958 210.289 98.6424 202.646 98.6424ZM194.34 78.4538H209.84C209.818 73.9794 206.8 70.7038 202.346 70.7038C197.701 70.7038 194.575 74.2577 194.34 78.4538Z" fill="white" stroke-dasharray="0,0,0,0,0,190.6483154296875"><animate attributeType="XML" attributeName="stroke-dasharray" repeatCount="indefinite" dur="4.614634925349515s" values="0,0,0,0,0,190.6483154296875; 
          0,0,0,34.9364428440649,85.83898689749282,69.8728856881298; 
          0,0,63.5494384765625,0,127.098876953125,190.6483154296875; 
          0,0,127.098876953125,0,63.5494384765625,190.6483154296875; 
          0,0,158.87359619140625,31.77471923828125,0,0; 
          0,190.6483154296875,0,63.5494384765625,0,190.6483154296875" keyTimes="0; 0.16666666666666666; 0.3333; 0.6666; 0.8333; 1" begin="0.10837016157123111s"></animate></path>
<path d="M223.266 110.332V65.1161H230.823V70.5325H231.294C232.472 68.1776 234.891 64.6879 240.714 64.6879C248.314 64.6879 254.266 70.6396 254.266 81.6009C254.266 92.4124 248.464 98.5781 240.736 98.5781C235.062 98.5781 232.515 95.2169 231.294 92.8192H230.973V110.332H223.266ZM230.823 81.5581C230.823 87.9593 233.606 92.2625 238.595 92.2625C243.733 92.2625 246.43 87.7453 246.43 81.5581C246.43 75.4138 243.776 71.025 238.595 71.025C233.564 71.025 230.823 75.1569 230.823 81.5581Z" fill="white" stroke-dasharray="0,0,0,0,0,215.7536163330078"><animate attributeType="XML" attributeName="stroke-dasharray" repeatCount="indefinite" dur="4.560016827554642s" values="0,0,0,0,0,215.7536163330078; 
          0,0,0,41.597738478374865,90.96040089788322,83.19547695674973; 
          0,0,71.91787211100261,0,143.83574422200522,215.7536163330078; 
          0,0,143.83574422200522,0,71.91787211100261,215.7536163330078; 
          0,0,179.7946802775065,35.958936055501304,0,0; 
          0,215.7536163330078,0,71.91787211100261,0,215.7536163330078" keyTimes="0; 0.16666666666666666; 0.3333; 0.6666; 0.8333; 1" begin="0.7991317118127862s"></animate></path>
</g>
<g opacity="0.4">
<path fill-rule="evenodd" clip-rule="evenodd" d="M204 961H75C35.2355 961 3 993.236 3 1033C3 1072.76 35.2355 1105 75 1105H204C243.764 1105 276 1072.76 276 1033C276 993.236 243.765 961 204 961ZM75 958C33.5786 958 0 991.579 0 1033C0 1074.42 33.5786 1108 75 1108H204C245.421 1108 279 1074.42 279 1033C279 991.579 245.421 958 204 958H75Z" fill="#2DCD6F" stroke-dasharray="0,0,0,0,0,1439.756103515625"><animate attributeType="XML" attributeName="stroke-dasharray" repeatCount="indefinite" dur="5.210633553907792s" values="0,0,0,0,0,1439.756103515625; 
          0,0,0,248.27406954588895,694.9338948779581,496.5481390917779; 
          0,0,479.918701171875,0,959.83740234375,1439.756103515625; 
          0,0,959.83740234375,0,479.918701171875,1439.756103515625; 
          0,0,1199.7967529296875,239.9593505859375,0,0; 
          0,1439.756103515625,0,479.918701171875,0,1439.756103515625" keyTimes="0; 0.16666666666666666; 0.3333; 0.6666; 0.8333; 1" begin="1.2872315480279748s"></animate></path>
<path d="M106.973 1056V1012.15H135.018V1018.79H114.83V1030.74H133.091V1037.35H114.83V1056H106.973Z" fill="#2DCD6F" stroke-dasharray="0,0,0,0,0,180.31198120117188"><animate attributeType="XML" attributeName="stroke-dasharray" repeatCount="indefinite" dur="5.046251990016564s" values="0,0,0,0,0,180.31198120117188; 
          0,0,0,35.99744060856651,72.31965937547234,71.99488121713301; 
          0,0,60.10399373372396,0,120.20798746744792,180.31198120117188; 
          0,0,120.20798746744792,0,60.10399373372396,180.31198120117188; 
          0,0,150.2599843343099,30.05199686686198,0,0; 
          0,180.31198120117188,0,60.10399373372396,0,180.31198120117188" keyTimes="0; 0.16666666666666666; 0.3333; 0.6666; 0.8333; 1" begin="0.19264995425514153s"></animate></path>
<path d="M141.363 1056V1023.12H149.07V1056H141.363ZM140.742 1014.25C140.742 1011.92 142.754 1010.06 145.238 1010.06C147.657 1010.06 149.691 1011.92 149.691 1014.25C149.691 1016.56 147.657 1018.43 145.238 1018.43C142.754 1018.43 140.742 1016.56 140.742 1014.25Z" fill="#2DCD6F" stroke-dasharray="0,0,0,0,0,108.38191986083984"><animate attributeType="XML" attributeName="stroke-dasharray" repeatCount="indefinite" dur="4.427873571110322s" values="0,0,0,0,0,108.38191986083984; 
          0,0,0,20.736998079899816,46.1709256211404,41.47399615979963; 
          0,0,36.127306620279946,0,72.25461324055989,108.38191986083984; 
          0,0,72.25461324055989,0,36.127306620279946,108.38191986083984; 
          0,0,90.31826655069987,18.063653310139973,0,0; 
          0,108.38191986083984,0,36.127306620279946,0,108.38191986083984" keyTimes="0; 0.16666666666666666; 0.3333; 0.6666; 0.8333; 1" begin="1.2289633636634616s"></animate></path>
<path d="M172.856 1023.12V1029.07H166.39V1046.11C166.39 1049.28 167.953 1049.92 169.923 1049.96C170.822 1049.98 172.342 1049.88 173.305 1049.81V1056.13C172.385 1056.28 170.907 1056.45 168.938 1056.45C163.136 1056.45 158.662 1053.58 158.683 1047.39V1029.07H154.016V1023.12H158.683V1015.24H166.39V1023.12H172.856Z" fill="#2DCD6F" stroke-dasharray="0,0,0,0,0,128.62948608398438"><animate attributeType="XML" attributeName="stroke-dasharray" repeatCount="indefinite" dur="5.328570999516615s" values="0,0,0,0,0,128.62948608398438; 
          0,0,0,24.42647994450842,55.35004625045912,48.85295988901684; 
          0,0,42.876495361328125,0,85.75299072265625,128.62948608398438; 
          0,0,85.75299072265625,0,42.876495361328125,128.62948608398438; 
          0,0,107.19123840332031,21.438247680664062,0,0; 
          0,128.62948608398438,0,42.876495361328125,0,128.62948608398438" keyTimes="0; 0.16666666666666666; 0.3333; 0.6666; 0.8333; 1" begin="1.5554533754342301s"></animate></path>
</g>
<g opacity="0.4">
<path fill-rule="evenodd" clip-rule="evenodd" d="M1045 961H611C571.236 961 539 993.236 539 1033C539 1072.76 571.235 1105 611 1105H1045C1084.76 1105 1117 1072.76 1117 1033C1117 993.236 1084.76 961 1045 961ZM611 958C569.579 958 536 991.579 536 1033C536 1074.42 569.579 1108 611 1108H1045C1086.42 1108 1120 1074.42 1120 1033C1120 991.579 1086.42 958 1045 958H611Z" fill="#2DCD6F" stroke-dasharray="0,0,0,0,0,2659.75390625"><animate attributeType="XML" attributeName="stroke-dasharray" repeatCount="indefinite" dur="5.083507776196887s" values="0,0,0,0,0,2659.75390625; 
          0,0,0,516.4441309689414,1110.421513343176,1032.8882619378828; 
          0,0,886.5846354166666,0,1773.1692708333333,2659.75390625; 
          0,0,1773.1692708333333,0,886.5846354166666,2659.75390625; 
          0,0,2216.4615885416665,443.2923177083333,0,0; 
          0,2659.75390625,0,886.5846354166666,0,2659.75390625" keyTimes="0; 0.16666666666666666; 0.3333; 0.6666; 0.8333; 1" begin="0.9407652351216138s"></animate></path>
<path d="M698.946 1056V1012.15H727.42V1018.79H706.803V1030.74H725.921V1037.35H706.803V1049.36H727.57V1056H698.946Z" fill="#2DCD6F" stroke-dasharray="0,0,0,0,0,224.4180908203125"><animate attributeType="XML" attributeName="stroke-dasharray" repeatCount="indefinite" dur="4.92239750373386s" values="0,0,0,0,0,224.4180908203125; 
          0,0,0,41.09818290284728,101.12354211177067,82.19636580569455; 
          0,0,74.8060302734375,0,149.612060546875,224.4180908203125; 
          0,0,149.612060546875,0,74.8060302734375,224.4180908203125; 
          0,0,187.01507568359375,37.40301513671875,0,0; 
          0,224.4180908203125,0,74.8060302734375,0,224.4180908203125" keyTimes="0; 0.16666666666666666; 0.3333; 0.6666; 0.8333; 1" begin="0.027073580050316622s"></animate></path>
<path d="M764.02 1023.12L752.266 1056H743.767L732.056 1023.12H740.256L747.856 1047.57H748.199L755.82 1023.12H764.02Z" fill="#2DCD6F" stroke-dasharray="0,0,0,0,0,146.27708435058594"><animate attributeType="XML" attributeName="stroke-dasharray" repeatCount="indefinite" dur="4.953791846951781s" values="0,0,0,0,0,146.27708435058594; 
          0,0,0,24.968671779608638,71.37106901176003,49.937343559217275; 
          0,0,48.75902811686198,0,97.51805623372395,146.27708435058594; 
          0,0,97.51805623372395,0,48.75902811686198,146.27708435058594; 
          0,0,121.89757029215495,24.37951405843099,0,0; 
          0,146.27708435058594,0,48.75902811686198,0,146.27708435058594" keyTimes="0; 0.16666666666666666; 0.3333; 0.6666; 0.8333; 1" begin="0.21937557401069063s"></animate></path>
<path d="M782.285 1056.64C772.373 1056.64 766.314 1050.05 766.314 1039.75C766.314 1029.6 772.458 1022.69 781.857 1022.69C789.928 1022.69 796.886 1027.74 796.886 1039.3V1041.68H773.957C774.042 1047.33 777.361 1050.65 782.371 1050.65C785.732 1050.65 788.022 1049.17 789.029 1047.2H796.565C795.173 1052.9 789.928 1056.64 782.285 1056.64ZM773.978 1036.45H789.478C789.457 1031.98 786.438 1028.7 781.985 1028.7C777.339 1028.7 774.214 1032.26 773.978 1036.45Z" fill="#2DCD6F" stroke-dasharray="0,0,0,0,0,190.64796447753906"><animate attributeType="XML" attributeName="stroke-dasharray" repeatCount="indefinite" dur="5.035132387597201s" values="0,0,0,0,0,190.64796447753906; 
          0,0,0,37.02840650987447,79.56274494791565,74.05681301974894; 
          0,0,63.54932149251302,0,127.09864298502605,190.64796447753906; 
          0,0,127.09864298502605,0,63.54932149251302,190.64796447753906; 
          0,0,158.87330373128256,31.77466074625651,0,0; 
          0,190.64796447753906,0,63.54932149251302,0,190.64796447753906" keyTimes="0; 0.16666666666666666; 0.3333; 0.6666; 0.8333; 1" begin="0.9125549049378641s"></animate></path>
<path d="M802.905 1056V1023.12H810.376V1028.6H810.719C811.918 1024.79 815.086 1022.65 818.833 1022.65C819.689 1022.65 820.909 1022.73 821.637 1022.86V1029.95C820.952 1029.73 819.325 1029.5 818.041 1029.5C813.78 1029.5 810.612 1032.47 810.612 1036.63V1056H802.905Z" fill="#2DCD6F" stroke-dasharray="0,0,0,0,0,109.12491607666016"><animate attributeType="XML" attributeName="stroke-dasharray" repeatCount="indefinite" dur="4.51780814470834s" values="0,0,0,0,0,109.12491607666016; 
          0,0,0,20.545873807515097,47.487294654114855,41.091747615030194; 
          0,0,36.37497202555338,0,72.74994405110677,109.12491607666016; 
          0,0,72.74994405110677,0,36.37497202555338,109.12491607666016; 
          0,0,90.93743006388347,18.18748601277669,0,0; 
          0,109.12491607666016,0,36.37497202555338,0,109.12491607666016" keyTimes="0; 0.16666666666666666; 0.3333; 0.6666; 0.8333; 1" begin="1.4634677378131724s"></animate></path>
<path d="M831.869 1068.33C830.327 1068.33 828.872 1068.29 827.865 1068.18L827.887 1061.99C828.829 1062.08 830.135 1062.1 831.141 1062.1C833.025 1062.1 834.588 1061.95 835.894 1058.44L836.579 1056.69L824.633 1023.12H832.811L840.411 1047.97H840.753L848.396 1023.12H856.596L843.408 1060C841.524 1065.25 838.056 1068.33 831.869 1068.33Z" fill="#2DCD6F" stroke-dasharray="0,0,0,0,0,180.76478576660156"><animate attributeType="XML" attributeName="stroke-dasharray" repeatCount="indefinite" dur="4.749284674041421s" values="0,0,0,0,0,180.76478576660156; 
          0,0,0,31.054133818156235,87.60238431213286,62.10826763631247; 
          0,0,60.25492858886719,0,120.50985717773438,180.76478576660156; 
          0,0,120.50985717773438,0,60.25492858886719,180.76478576660156; 
          0,0,150.63732147216797,30.127464294433594,0,0; 
          0,180.76478576660156,0,60.25492858886719,0,180.76478576660156" keyTimes="0; 0.16666666666666666; 0.3333; 0.6666; 0.8333; 1" begin="1.2158319647726437s"></animate></path>
<path d="M872.527 1056.58C864.777 1056.58 858.954 1050.41 858.954 1039.6C858.954 1028.64 864.927 1022.69 872.549 1022.69C878.351 1022.69 880.77 1026.18 881.947 1028.53H882.247V1012.15H889.954V1056H882.397V1050.82H881.947C880.706 1053.22 878.179 1056.58 872.527 1056.58ZM866.811 1039.56C866.811 1045.75 869.53 1050.26 874.647 1050.26C879.614 1050.26 882.44 1045.96 882.44 1039.56C882.44 1033.16 879.657 1029.02 874.647 1029.02C869.466 1029.02 866.811 1033.41 866.811 1039.56Z" fill="#2DCD6F" stroke-dasharray="0,0,0,0,0,213.00685119628906"><animate attributeType="XML" attributeName="stroke-dasharray" repeatCount="indefinite" dur="4.5318223393720904s" values="0,0,0,0,0,213.00685119628906; 
          0,0,0,41.421787490300176,88.74148872538856,82.84357498060035; 
          0,0,71.00228373209636,0,142.00456746419272,213.00685119628906; 
          0,0,142.00456746419272,0,71.00228373209636,213.00685119628906; 
          0,0,177.50570933024088,35.50114186604818,0,0; 
          0,213.00685119628906,0,71.00228373209636,0,213.00685119628906" keyTimes="0; 0.16666666666666666; 0.3333; 0.6666; 0.8333; 1" begin="1.4116113054637505s"></animate></path>
<path d="M896.24 1046.77C896.24 1039.34 902.384 1037.18 908.486 1036.77C910.777 1036.63 915.465 1036.41 916.9 1036.35L916.878 1033.69C916.878 1030.46 914.802 1028.58 910.927 1028.58C907.48 1028.58 905.382 1030.14 904.804 1032.49H897.332C897.889 1026.93 902.898 1022.69 911.141 1022.69C917.371 1022.69 924.564 1025.26 924.564 1034.01V1056H917.178V1051.48H916.921C915.508 1054.22 912.425 1056.66 907.266 1056.66C900.993 1056.66 896.24 1053.24 896.24 1046.77ZM903.69 1046.67C903.69 1049.51 906.003 1050.99 909.235 1050.99C913.924 1050.99 916.921 1047.89 916.921 1044.2L916.9 1041.48C915.508 1041.55 911.226 1041.83 909.685 1041.98C906.003 1042.26 903.69 1043.8 903.69 1046.67Z" fill="#2DCD6F" stroke-dasharray="0,0,0,0,0,191.92691040039062"><animate attributeType="XML" attributeName="stroke-dasharray" repeatCount="indefinite" dur="5.318694877140938s" values="0,0,0,0,0,191.92691040039062; 
          0,0,0,33.609203752523094,91.09929914282137,67.21840750504619; 
          0,0,63.97563680013021,0,127.95127360026042,191.92691040039062; 
          0,0,127.95127360026042,0,63.97563680013021,191.92691040039062; 
          0,0,159.93909200032553,31.987818400065105,0,0; 
          0,191.92691040039062,0,63.97563680013021,0,191.92691040039062" keyTimes="0; 0.16666666666666666; 0.3333; 0.6666; 0.8333; 1" begin="0.3751803506409204s"></animate></path>
<path d="M935.283 1068.33C933.741 1068.33 932.286 1068.29 931.279 1068.18L931.301 1061.99C932.243 1062.08 933.549 1062.1 934.555 1062.1C936.439 1062.1 938.002 1061.95 939.308 1058.44L939.993 1056.69L928.047 1023.12H936.225L943.825 1047.97H944.168L951.81 1023.12H960.01L946.822 1060C944.938 1065.25 941.47 1068.33 935.283 1068.33Z" fill="#2DCD6F" stroke-dasharray="0,0,0,0,0,180.76548767089844"><animate attributeType="XML" attributeName="stroke-dasharray" repeatCount="indefinite" dur="5.200658196370811s" values="0,0,0,0,0,180.76548767089844; 
          0,0,0,35.01240034059606,75.72828664911026,70.02480068119212; 
          0,0,60.25516255696615,0,120.5103251139323,180.76548767089844; 
          0,0,120.5103251139323,0,60.25516255696615,180.76548767089844; 
          0,0,150.63790639241537,30.127581278483074,0,0; 
          0,180.76548767089844,0,60.25516255696615,0,180.76548767089844" keyTimes="0; 0.16666666666666666; 0.3333; 0.6666; 0.8333; 1" begin="0.4507144498827796s"></animate></path>
</g>
</g>
<defs>
<filter id="filter0_d_2763_30863" x="379.156" y="759.9" width="354.856" height="126.1" filterUnits="userSpaceOnUse" color-interpolation-filters="sRGB">
<feFlood flood-opacity="0" result="BackgroundImageFix"></feFlood>
<feColorMatrix in="SourceAlpha" type="matrix" values="0 0 0 0 0 0 0 0 0 0 0 0 0 0 0 0 0 0 127 0" result="hardAlpha"></feColorMatrix>
<feOffset></feOffset>
<feGaussianBlur stdDeviation="7.5"></feGaussianBlur>
<feComposite in2="hardAlpha" operator="out"></feComposite>
<feColorMatrix type="matrix" values="0 0 0 0 0.137255 0 0 0 0 0.141176 0 0 0 0 0.14902 0 0 0 0.05 0"></feColorMatrix>
<feBlend mode="normal" in2="BackgroundImageFix" result="effect1_dropShadow_2763_30863"></feBlend>
<feBlend mode="normal" in="SourceGraphic" in2="effect1_dropShadow_2763_30863" result="shape"></feBlend>
</filter>
<clipPath id="clip0_2763_30863">
<rect width="1120" height="1108" fill="white" stroke-dasharray="0,0,0,0,0,4456"><animate attributeType="XML" attributeName="stroke-dasharray" repeatCount="indefinite" dur="4.988482499138274s" values="0,0,0,0,0,4456; 
          0,0,0,776.8957221388719,2125.3128335833844,1553.7914442777437; 
          0,0,1485.3333333333333,0,2970.6666666666665,4456; 
          0,0,2970.6666666666665,0,1485.3333333333333,4456; 
          0,0,3713.3333333333335,742.6666666666666,0,0; 
          0,4456,0,1485.3333333333333,0,4456" keyTimes="0; 0.16666666666666666; 0.3333; 0.6666; 0.8333; 1" begin="0.5761427089725454s"></animate></rect>
</clipPath>
</defs>
<setting>{"type":"delay","speed":14,"random":0.8,"shift":0.5,"size":0.8,"rupture":50}</setting></svg>