<svg width="84" height="32" viewBox="0 0 84 32" fill="none" xmlns="http://www.w3.org/2000/svg">
<g clip-path="url(#clip0_30_24)">
<path d="M28.3456 16.1933V13.0938L25.1394 13.1007V9.18506H21.7627V13.1007H19.2202V16.2002H21.7156C21.6422 18.5987 21.9387 21.6719 23.7261 23.5216C24.6891 24.5178 25.9901 24.9986 27.5946 24.9986H27.6016L28.347 24.9945V21.6677H27.8939C27.2178 21.6677 26.658 21.4806 26.2285 21.0511C25.1422 19.9634 25.1449 17.6994 25.1463 16.8889L25.1532 16.2016L28.347 16.1947L28.3456 16.1933Z" fill="#2F2F2F"/>
<path d="M1 24.8337H4.40851V20.5634C4.40851 19.5921 4.75075 18.7663 5.42552 18.1067C7.39027 16.1891 11.6287 16.1822 11.6703 16.1849L11.7673 16.1877V13.0993C11.5678 13.0882 7.00092 12.9275 4.40851 14.8659V10.8214H12.6V7.54034H1V24.8337Z" fill="#2F2F2F"/>
<path d="M83.2005 18.7982C83.2005 13.357 79.3278 12.933 78.1209 12.933C77.6027 12.9233 75.8929 13.0148 74.7623 14.4253V13.0993H71.333V24.8282H74.7291V19.2332L74.7263 18.5723C74.7706 17.2048 75.9373 16.0935 77.327 16.0935C78.7167 16.0935 79.803 17.2048 79.803 18.5696L79.8058 24.8282H83.2018V18.7968L83.2005 18.7982Z" fill="#2F2F2F"/>
<path d="M58.9183 12.9344C57.3235 12.9344 55.9574 13.6175 55.1454 14.8146C54.3265 13.6008 53.0172 12.9344 51.4418 12.9344C50.0063 12.9344 48.8729 13.4374 48.0707 14.4308V13.1007H44.6372V24.8282H48.061V18.2605C48.0998 17.0648 49.096 16.0935 50.3097 16.0935C51.5235 16.0935 52.4505 17.0648 52.4505 18.2578V24.8282L52.4782 24.8337H55.877L55.9019 24.8282V18.2605C55.9407 17.0648 56.937 16.0935 58.1507 16.0935C59.3645 16.0935 60.2914 17.0648 60.2914 18.2578V24.8337H63.711V17.928C63.711 14.7592 61.8294 12.9358 58.9169 12.9358L58.9183 12.9344Z" fill="#2F2F2F"/>
<path d="M39.2916 13.1007V14.4239C39.2916 14.4239 37.9047 12.9275 35.3455 12.9275C31.8996 12.9275 29.479 15.6294 29.479 18.9644C29.479 22.2995 31.8996 25.0014 35.3455 25.0014C38.204 25.0014 39.2889 23.5202 39.2889 23.5202V24.8296H42.52V13.1007H39.2916ZM36.0064 21.9975C34.2745 21.9975 32.8695 20.6396 32.8695 18.9631C32.8695 17.2865 34.2731 15.9286 36.0064 15.9286C37.7398 15.9286 38.9674 17.2865 38.9674 18.9631C38.9674 20.6396 37.7384 21.9975 36.0064 21.9975V21.9975Z" fill="#2F2F2F"/>
<path d="M17.6681 13.0993H14.1543V24.8323H17.6681V13.0993Z" fill="#2F2F2F"/>
<path d="M15.9114 11.3604C17.1152 11.3604 18.091 10.3846 18.091 9.18091C18.091 7.9772 17.1152 7.0014 15.9114 7.0014C14.7077 7.0014 13.7319 7.9772 13.7319 9.18091C13.7319 10.3846 14.7077 11.3604 15.9114 11.3604Z" fill="#2F2F2F"/>
<path d="M69.2145 13.0993H65.7007V24.8323H69.2145V13.0993Z" fill="#2F2F2F"/>
<path d="M67.4578 11.359C68.6615 11.359 69.6373 10.3832 69.6373 9.17951C69.6373 7.9758 68.6615 7 67.4578 7C66.2541 7 65.2783 7.9758 65.2783 9.17951C65.2783 10.3832 66.2541 11.359 67.4578 11.359Z" fill="#2F2F2F"/>
</g>
<defs>
<clipPath id="clip0_30_24">
<rect width="82.202" height="18" fill="white" transform="translate(1 7)"/>
</clipPath>
</defs>
</svg>
