<svg width="24" height="24" viewBox="0 0 24 24" fill="none" xmlns="http://www.w3.org/2000/svg">
<g clip-path="url(#clip0_1932_6994)">
<path d="M19.99 9.6L12 4L5.71 8.41C4.64 9.16 4 10.38 4 11.69V20.01H10.04V13.61H13.95V20.01H19.99V9.6V9.6Z" fill="#C9C9C9"/>
</g>
<g clip-path="url(#clip1_1932_6994)">
<g clip-path="url(#clip2_1932_6994)">
<path d="M12 5.83L18.49 10.38V18.5H15.17V12.1H8.81V18.5H5.5V11.68C5.5 10.86 5.9 10.1 6.57 9.63L12 5.83ZM12 4L5.71 8.41C4.64 9.16 4 10.38 4 11.69V20.01H10.32V13.61H13.68V20.01H20V9.6L12 4Z" fill="#2F2F2F"/>
</g>
</g>
<defs>
<clipPath id="clip0_1932_6994">
<rect width="16" height="16" fill="white" transform="translate(4 4)"/>
</clipPath>
<clipPath id="clip1_1932_6994">
<rect width="16" height="16" fill="white" transform="translate(4 4)"/>
</clipPath>
<clipPath id="clip2_1932_6994">
<rect width="16" height="16" fill="white" transform="translate(4 4)"/>
</clipPath>
</defs>
</svg>
