<svg width="24" height="24" viewBox="0 0 24 24" fill="none" xmlns="http://www.w3.org/2000/svg">
<g clip-path="url(#clip0_1932_6338)">
<path fill-rule="evenodd" clip-rule="evenodd" d="M8 4H19.52V20L16.32 17.85H4V8C4 5.79 5.79 4 8 4ZM16.3402 8.67999H7.18018V7.17999H16.3402V8.67999ZM7.18018 12.25H11.5202V10.75H7.18018V12.25Z" fill="#F5F5F5"/>
</g>
<g clip-path="url(#clip1_1932_6338)">
<path d="M18.02 5.5V17.18L17.16 16.6L16.78 16.35H5.5V8C5.5 6.62 6.62 5.5 8 5.5H18.02ZM19.52 4H8C5.79 4 4 5.79 4 8V17.85H16.32L19.52 20V4Z" fill="#9F9F9F"/>
<path fill-rule="evenodd" clip-rule="evenodd" d="M16.3397 8.67999H7.17969V7.17999H16.3397V8.67999Z" fill="#9F9F9F"/>
<path fill-rule="evenodd" clip-rule="evenodd" d="M11.5197 12.25H7.17969V10.75H11.5197V12.25Z" fill="#9F9F9F"/>
</g>
<defs>
<clipPath id="clip0_1932_6338">
<rect width="15.52" height="16" fill="white" transform="translate(4 4)"/>
</clipPath>
<clipPath id="clip1_1932_6338">
<rect width="15.52" height="16" fill="white" transform="translate(4 4)"/>
</clipPath>
</defs>
</svg>
