<svg width="50" height="50" viewBox="0 0 50 50" fill="none" xmlns="http://www.w3.org/2000/svg">
<rect x="11.6027" y="11.6836" width="5.55175" height="26.636" rx="0.94215" fill="#00B400"/>
<rect x="16.2148" y="22.1295" width="18.5414" height="6.18046" rx="1.04884" fill="#00B400"/>
<rect width="5.55175" height="26.636" rx="0.94215" transform="matrix(-1 0 0 1 38.3983 11.6801)" fill="#00B400"/>
<path d="M43.9482 20.1838C43.9482 17.2166 41.5428 14.8112 38.5755 14.8112V14.8112C38.4766 14.8112 38.3964 14.8913 38.3964 14.9902V35.0107C38.3964 35.1096 38.4766 35.1898 38.5755 35.1898V35.1898C41.5428 35.1898 43.9482 32.7844 43.9482 29.8171V20.1838Z" fill="white"/>
<path d="M43.9482 20.1838C43.9482 17.2166 41.5428 14.8112 38.5755 14.8112V14.8112C38.4766 14.8112 38.3964 14.8913 38.3964 14.9902V35.0107C38.3964 35.1096 38.4766 35.1898 38.5755 35.1898V35.1898C41.5428 35.1898 43.9482 32.7844 43.9482 29.8171V20.1838Z" fill="#00B400" fill-opacity="0.3"/>
<path d="M49.5 24.9984C49.5 22.3823 47.3792 20.2615 44.763 20.2615H44.1273C44.0284 20.2615 43.9482 20.3417 43.9482 20.4406V29.5563C43.9482 29.6552 44.0284 29.7354 44.1273 29.7354H44.763C47.3792 29.7354 49.5 27.6146 49.5 24.9984V24.9984Z" fill="#00B400"/>
<path d="M6.05133 20.1866C6.05133 17.2194 8.45675 14.814 11.424 14.814V14.814C11.5229 14.814 11.6031 14.8941 11.6031 14.9931V35.0135C11.6031 35.1124 11.5229 35.1926 11.424 35.1926V35.1926C8.45675 35.1926 6.05133 32.7872 6.05133 29.8199V20.1866Z" fill="white"/>
<path d="M6.05133 20.1866C6.05133 17.2194 8.45675 14.814 11.424 14.814V14.814C11.5229 14.814 11.6031 14.8941 11.6031 14.9931V35.0135C11.6031 35.1124 11.5229 35.1926 11.424 35.1926V35.1926C8.45675 35.1926 6.05133 32.7872 6.05133 29.8199V20.1866Z" fill="#00B400" fill-opacity="0.3"/>
<path d="M0.5 25.001C0.5 22.3848 2.62081 20.264 5.23696 20.264H5.87266C5.97157 20.264 6.05175 20.3442 6.05175 20.4431V29.5589C6.05175 29.6578 5.97157 29.738 5.87266 29.738H5.23695C2.62081 29.738 0.5 27.6171 0.5 25.001V25.001Z" fill="#00B400"/>
</svg>
