<svg width="50" height="50" viewBox="0 0 50 50" fill="none" xmlns="http://www.w3.org/2000/svg">
<path d="M33.3901 10.6814C29.6369 7.29225 24.0075 7.40921 20.8139 10.9513L6.50058 26.7974C3.30699 30.3395 3.75844 35.949 7.51171 39.3381C11.265 42.7272 16.8943 42.6103 20.0879 39.0682L34.4013 23.2221C37.5948 19.68 37.1434 14.0704 33.3901 10.6814Z" fill="white"/>
<path d="M33.3901 10.6814C29.6369 7.29225 24.0075 7.40921 20.8139 10.9513L6.50058 26.7974C3.30699 30.3395 3.75844 35.949 7.51171 39.3381C11.265 42.7272 16.8943 42.6103 20.0879 39.0682L34.4013 23.2221C37.5948 19.68 37.1434 14.0704 33.3901 10.6814Z" fill="#00B400" fill-opacity="0.3"/>
<path d="M33.4138 10.6671C29.6712 7.28566 24.0571 7.40319 20.8717 10.9383L13.7364 18.8476L27.2812 31.0968L34.4164 23.1874C37.6018 19.6523 37.1525 14.0547 33.4099 10.6733L33.4138 10.6671Z" fill="#00B400"/>
<path d="M25.651 38.0613C30.2101 42.262 37.3146 41.9716 41.5174 37.4163C45.7201 32.8611 45.4281 25.7613 40.869 21.5605C36.31 17.3597 29.2055 17.6502 25.0027 22.2055C20.7999 26.7607 21.0919 33.8605 25.651 38.0613Z" fill="#FFC710"/>
<path d="M40.0437 34.9113L40.0441 34.9116C40.6709 35.4876 40.7089 36.4638 40.13 37.0929C39.5538 37.7192 38.5771 37.757 37.9474 37.1786C37.9474 37.1785 37.9473 37.1785 37.9473 37.1784L25.4687 25.6829L25.4684 25.6826C24.8415 25.1067 24.8035 24.1305 25.3824 23.5013C25.9586 22.8751 26.9353 22.8372 27.565 23.4157C27.5651 23.4157 27.5651 23.4158 27.5652 23.4158L40.0437 34.9113Z" fill="white" stroke="#FFC710" stroke-width="0.679887"/>
</svg>
