<svg width="48" height="48" viewBox="0 0 48 48" fill="none" xmlns="http://www.w3.org/2000/svg">
<g clip-path="url(#clip0_84_9547)">
<path d="M36 12H12C9.79086 12 8 13.7909 8 16V48C8 50.2092 9.79086 52 12 52H36C38.2092 52 40 50.2092 40 48V16C40 13.7909 38.2092 12 36 12Z" fill="#F9F9FB"/>
<path d="M20.98 24H13C12.4477 24 12 24.4477 12 25V27C12 27.5523 12.4477 28 13 28H20.98C21.5322 28 21.98 27.5523 21.98 27V25C21.98 24.4477 21.5322 24 20.98 24Z" fill="#E1E2E2"/>
<path fill-rule="evenodd" clip-rule="evenodd" d="M30.0001 25.1717L34.5859 20.5859L37.4143 23.4144L30.0001 30.8286L24.5859 25.4144L27.4143 22.5859L30.0001 25.1717Z" fill="#2DCD6F"/>
<path fill-rule="evenodd" clip-rule="evenodd" d="M30.0001 37.1717L34.5859 32.5859L37.4143 35.4143L30.0001 42.8285L24.5859 37.4143L27.4143 34.5859L30.0001 37.1717Z" fill="#2DCD6F"/>
<path d="M20.9996 36H13.0195C12.4672 36 12.0195 36.4478 12.0195 37V39.06C12.0195 39.6122 12.4672 40.06 13.0195 40.06H20.9996C21.5518 40.06 21.9996 39.6122 21.9996 39.06V37C21.9996 36.4478 21.5518 36 20.9996 36Z" fill="#E1E2E2"/>
</g>
<defs>
<clipPath id="clip0_84_9547">
<rect width="48" height="48" fill="white"/>
</clipPath>
</defs>
</svg>
