<svg width="36" height="36" viewBox="0 0 36 36" fill="none" xmlns="http://www.w3.org/2000/svg">
<path d="M27 3H9C7.34314 3 6 4.34314 6 6V30C6 31.6569 7.34314 33 9 33H27C28.6569 33 30 31.6569 30 30V6C30 4.34314 28.6569 3 27 3Z" fill="#F9F9FB"/>
<path d="M15.735 12H9.75C9.33579 12 9 12.3358 9 12.75V14.25C9 14.6642 9.33579 15 9.75 15H15.735C16.1491 15 16.485 14.6642 16.485 14.25V12.75C16.485 12.3358 16.1491 12 15.735 12Z" fill="#E1E2E2"/>
<path fill-rule="evenodd" clip-rule="evenodd" d="M22.5001 12.8788L25.9395 9.43945L28.0608 11.5608L22.5001 17.1214L18.4395 13.0608L20.5608 10.9395L22.5001 12.8788Z" fill="#88BFFF"/>
<path fill-rule="evenodd" clip-rule="evenodd" d="M22.5001 21.8788L25.9395 18.4395L28.0608 20.5608L22.5001 26.1214L18.4395 22.0608L20.5608 19.9395L22.5001 21.8788Z" fill="#88BFFF"/>
<path d="M15.7497 21H9.76465C9.35042 21 9.01465 21.3359 9.01465 21.75V23.295C9.01465 23.7091 9.35042 24.045 9.76465 24.045H15.7497C16.1638 24.045 16.4997 23.7091 16.4997 23.295V21.75C16.4997 21.3359 16.1638 21 15.7497 21Z" fill="#E1E2E2"/>
</svg>
