<svg width="64" height="64" viewBox="0 0 64 64" fill="none" xmlns="http://www.w3.org/2000/svg">
<path d="M32.9997 8.62779C18.0876 8.62779 5.99951 18.1841 5.99951 29.9728C5.99951 37.6464 11.1218 44.3702 18.8079 48.1329C18.2428 50.2422 16.7629 55.7715 16.4664 56.9549C16.1013 58.4236 17.0049 58.404 17.5966 58.0081C18.061 57.699 24.996 52.9852 27.988 50.95C29.6119 51.1906 31.2862 51.3179 32.9997 51.3179C47.9119 51.3179 59.9999 41.7602 59.9999 29.9728C59.9999 18.1855 47.9119 8.62779 32.9997 8.62779Z" fill="#391B1B"/>
<path d="M22.1345 23.6868H14.2386C13.4958 23.6868 12.8958 24.2883 12.8958 25.0296C12.8958 25.7709 13.4972 26.3724 14.2386 26.3724H16.8053V35.8308C16.8053 36.1749 16.9452 36.5134 17.1913 36.7582C17.4319 37.0016 17.769 37.1414 18.1145 37.1414H18.4013C18.7454 37.1414 19.0811 37.0016 19.323 36.7582C19.5692 36.5134 19.7091 36.1763 19.7091 35.8308V26.3724H22.1331C22.8759 26.3724 23.4774 25.7709 23.4774 25.0296C23.4774 24.2883 22.8759 23.6868 22.1331 23.6868H22.1345Z" fill="#FAE300"/>
<path d="M41.1103 34.6155H37.4386V24.9557C37.4386 24.15 36.7868 23.4982 35.9825 23.4982C35.1782 23.4982 34.5264 24.15 34.5264 24.9557V35.368C34.5264 35.4492 34.5362 35.5247 34.5487 35.6016C34.5348 35.6771 34.5264 35.7555 34.5264 35.8338C34.5264 36.508 35.0705 37.0535 35.7447 37.0535H41.1103C41.7859 37.0535 42.3286 36.508 42.3286 35.8338C42.3286 35.1596 41.7845 34.6155 41.1103 34.6155Z" fill="#FAE300"/>
<path d="M52.8435 35.0589L48.7522 29.6849L52.4491 25.9866C52.9498 25.4872 52.9498 24.6745 52.4491 24.1738C51.9483 23.673 51.137 23.673 50.6349 24.1738L46.0581 28.7505V24.9557C46.0581 24.15 45.4063 23.4982 44.602 23.4982C43.7978 23.4982 43.1445 24.15 43.1445 24.9557V35.6883C43.1445 36.494 43.7964 37.1458 44.602 37.1458C45.4077 37.1458 46.0581 36.4954 46.0581 35.6883V32.3775L46.8904 31.5466L50.7608 36.6255C51.1916 37.2004 52.0099 37.3193 52.5847 36.8843C53.1596 36.4521 53.2757 35.6352 52.8435 35.0589Z" fill="#FAE300"/>
<path d="M33.4357 35.4066L29.501 24.6417C29.501 24.6417 29.4912 24.6333 29.4884 24.6291C29.2367 23.9731 28.5107 23.4961 27.6449 23.4961C26.6839 23.4961 25.8894 24.0836 25.7314 24.8515C25.7048 24.9089 25.6782 24.9662 25.6558 25.0278L21.7869 35.4066C21.5477 36.0878 21.9058 36.8319 22.5842 37.0711C23.264 37.3103 24.0095 36.9522 24.2487 36.2724L24.9187 34.3617H30.3039L30.9725 36.2724C31.2117 36.9522 31.9572 37.3103 32.637 37.0711C33.3168 36.8319 33.6749 36.0878 33.4357 35.4066ZM25.7733 31.9209L27.5833 26.7566C27.6043 26.7566 27.6211 26.7622 27.6421 26.7622L29.4507 31.9209H25.7747H25.7733Z" fill="#FAE300"/>
</svg>
