<svg width="360" height="226" viewBox="0 0 360 226" fill="none" xmlns="http://www.w3.org/2000/svg">
<path d="M10.5952 42.2578V44.7461H6.93115V57.3789H3.896V32.7148H6.93115V42.2578H10.5952ZM-11.5532 51.2812V35.1211H-8.54541V48.7656C-5.25049 48.7109 -1.75049 48.4238 1.98193 47.6445L2.31006 50.2148C-1.85986 51.0488 -5.81104 51.2676 -9.4751 51.2812H-11.5532ZM33.0991 32.7148V57.4336H30.1733V32.7148H33.0991ZM12.0171 43.4062C12.0171 37.9648 14.1226 34.5879 17.3491 34.6016C20.3433 34.5879 22.3804 37.3906 22.7358 42.0117H25.1147V33.1523H28.0132V56.2305H25.1147V44.4727H22.7632C22.4761 49.2988 20.4116 52.252 17.3491 52.2383C14.1226 52.252 12.0171 48.8613 12.0171 43.4062ZM14.8335 43.4062C14.8198 47.2754 15.7769 49.3535 17.3491 49.3398C18.9897 49.3535 19.9604 47.2754 19.9741 43.4062C19.9604 39.5508 18.9897 37.459 17.3491 37.4727C15.7769 37.459 14.8198 39.5508 14.8335 43.4062ZM57.2983 32.7148V57.4336H54.3999V32.7148H57.2983ZM35.7788 50.0508C40.8921 47.0293 43.2437 43.1602 43.7085 38.1836H37.0366V35.7227H46.7163C46.7163 38.1152 46.4155 40.3574 45.7456 42.4492H49.1772V33.3164H52.0483V56.2578H49.1772V44.8828H44.7476C43.312 47.7129 40.9878 50.1875 37.5015 52.2109L35.7788 50.0508ZM87.4312 32.7148V45.457H84.396V32.7148H87.4312ZM67.2241 42.4219C68.1128 42.4219 69.0562 42.4082 70.0405 42.3945V36.6523H67.8804V34.3008H81.3062V36.6523H79.0913V42.0254C80.2124 41.9434 81.3062 41.834 82.3452 41.7109L82.4819 43.8984C77.5601 44.6777 71.8726 44.8281 67.5522 44.8281L67.2241 42.4219ZM70.8608 48.875V46.4961H87.4312V52.8672H73.9233V54.8086H88.2241V57.2148H70.9155V50.6523H84.4233V48.875H70.8608ZM72.9663 42.3262C74.0327 42.2988 75.1128 42.2578 76.1929 42.2031V36.6523H72.9663V42.3262ZM113.599 51.9375V54.4258H91.0132V51.9375H96.2358V45.6895C94.2671 44.5547 93.0776 42.7773 93.0913 40.5898C93.0776 36.6523 96.9331 34.0547 102.251 34.0547C107.597 34.0547 111.48 36.6523 111.466 40.5898C111.48 42.75 110.318 44.4863 108.404 45.6211V51.9375H113.599ZM96.0718 40.5898C96.0581 43.1191 98.5601 44.7324 102.251 44.7188C105.929 44.7324 108.486 43.1191 108.486 40.5898C108.486 38.0195 105.929 36.4473 102.251 36.4609C98.5601 36.4473 96.0581 38.0195 96.0718 40.5898ZM99.2437 51.9375H105.314V46.7832C104.371 46.9883 103.345 47.0977 102.251 47.0977C101.185 47.0977 100.173 46.9883 99.2437 46.7969V51.9375ZM134.708 32.7422V40.5078H138.154V43.0234H134.708V51.1992H131.673V32.7422H134.708ZM115.24 37.9102V35.4766H121.064V32.7148H124.099V35.4766H129.896V37.9102H115.24ZM116.498 43.6523C116.498 40.8086 118.972 38.9219 122.568 38.9219C126.136 38.9219 128.597 40.8086 128.611 43.6523C128.597 46.4824 126.136 48.3281 122.568 48.3281C118.972 48.3281 116.498 46.4824 116.498 43.6523ZM118.876 56.9414V49.75H121.912V54.4805H135.693V56.9414H118.876ZM119.451 43.6523C119.437 45.1426 120.695 45.9902 122.568 45.9766C124.441 45.9902 125.712 45.1426 125.712 43.6523C125.712 42.1484 124.441 41.2734 122.568 41.2734C120.695 41.2734 119.437 42.1484 119.451 43.6523Z" fill="#FF6067"/>
<rect x="-31.8286" y="15.5" width="189" height="59" rx="29.5" stroke="#FF6067" stroke-width="3"/>
<path d="M193.263 55H186.537V35.2031H193.373C199.279 35.2031 202.847 38.9082 202.861 45.0742C202.847 51.2676 199.279 55 193.263 55ZM190.091 51.9102H193.072C197.214 51.9238 199.306 49.6406 199.306 45.0742C199.306 40.5352 197.214 38.2793 193.181 38.293H190.091V51.9102ZM205.158 50.8164C205.158 47.4805 207.933 46.5098 210.681 46.332C211.72 46.25 213.839 46.1543 214.496 46.127L214.482 44.9375C214.482 43.4609 213.539 42.6133 211.802 42.6133C210.244 42.6133 209.287 43.3242 209.013 44.3906H205.65C205.896 41.8613 208.166 39.9609 211.884 39.9609C214.701 39.9609 217.955 41.123 217.955 45.0742V55H214.619V52.9492H214.509C213.853 54.207 212.472 55.3008 210.134 55.3008C207.304 55.3008 205.158 53.7559 205.158 50.8164ZM208.521 50.7891C208.521 52.0742 209.574 52.7305 211.037 52.7305C213.156 52.7305 214.509 51.3359 214.509 49.668L214.496 48.4512C213.867 48.4785 211.925 48.6016 211.228 48.6562C209.574 48.793 208.521 49.4902 208.521 50.7891ZM224.736 35.2031V55H221.236V35.2031H224.736ZM228.072 55V40.1523H231.572V55H228.072ZM227.826 36.1328C227.826 35.0938 228.742 34.2461 229.849 34.2461C230.957 34.2461 231.873 35.0938 231.873 36.1328C231.873 37.1855 230.957 38.0332 229.849 38.0469C228.742 38.0332 227.826 37.1855 227.826 36.1328ZM237.013 60.5781C236.316 60.5645 235.66 60.5508 235.208 60.4961V57.707C235.632 57.748 236.22 57.748 236.685 57.7617C237.533 57.748 238.244 57.6934 238.845 56.0938L239.146 55.3008L233.732 40.1523H237.423L240.869 51.3633H241.033L244.478 40.1523H248.169L242.208 56.8047C241.361 59.1699 239.802 60.5645 237.013 60.5781ZM257.166 55V35.2031H260.72V51.9922H269.47V55H257.166ZM272.15 55V40.1523H275.65V55H272.15ZM271.904 36.1328C271.904 35.0938 272.82 34.2461 273.927 34.2461C275.035 34.2461 275.951 35.0938 275.951 36.1328C275.951 37.1855 275.035 38.0332 273.927 38.0469C272.82 38.0332 271.904 37.1855 271.904 36.1328ZM286.505 40.1523V42.832H283.443V55H279.943V42.832H277.728V40.1523H279.943V38.7305C279.943 35.8457 281.734 34.2734 284.591 34.2734C285.398 34.2734 286.15 34.3555 286.806 34.4922V37.2539C286.232 37.1719 285.808 37.1582 285.548 37.1445C284.14 37.1582 283.429 37.7051 283.443 39.0586V40.1523H286.505ZM295.009 55.3008C290.539 55.3008 287.791 52.3203 287.791 47.6719C287.791 43.0781 290.58 39.9609 294.818 39.9609C298.455 39.9609 301.599 42.2441 301.599 47.4531V48.5469H291.236C291.291 51.0762 292.781 52.5801 295.037 52.5664C296.568 52.5801 297.593 51.9238 298.044 51.0352H301.462C300.833 53.6055 298.455 55.3008 295.009 55.3008ZM291.25 46.168H298.263C298.25 44.1445 296.882 42.668 294.873 42.668C292.781 42.668 291.373 44.2812 291.25 46.168Z" fill="#88BFFF"/>
<rect x="166.171" y="15.5" width="155" height="59" rx="29.5" stroke="#88BFFF" stroke-width="3"/>
<path d="M350.876 35.2031H355.251L361.13 49.5859H361.376L367.255 35.2031H371.63V55H368.212V41.3828H368.021L362.525 54.9453H359.982L354.486 41.3281H354.322V55H350.876V35.2031ZM386.068 40.6445C385.89 38.9355 384.455 37.9512 382.322 37.9648C380.066 37.9512 378.726 39.0449 378.712 40.5352C378.699 42.2031 380.462 42.8867 382.103 43.2695L383.962 43.7617C386.916 44.4453 389.759 46.0039 389.759 49.4492C389.759 52.9219 387.011 55.3008 382.267 55.3008C377.66 55.3008 374.734 53.0859 374.583 49.1758H378.083C378.248 51.2402 379.984 52.252 382.24 52.2656C384.578 52.252 386.191 51.1172 386.205 49.4219C386.191 47.8633 384.769 47.207 382.623 46.6602L380.38 46.0859C377.126 45.2383 375.103 43.5977 375.103 40.7539C375.103 37.2539 378.207 34.9297 382.376 34.9297C386.574 34.9297 389.431 37.2949 389.486 40.6445H386.068ZM392.712 35.2031H397.087L402.966 49.5859H403.212L409.091 35.2031H413.466V55H410.048V41.3828H409.857L404.361 54.9453H401.818L396.322 41.3281H396.158V55H392.712V35.2031Z" fill="#FFD53F"/>
<rect x="330.171" y="15.5" width="104" height="59" rx="29.5" stroke="#FFD53F" stroke-width="3"/>
<path d="M-37.3887 113.102C-37.375 119.5 -41.2852 123.273 -46.4668 123.273C-51.6758 123.273 -55.5586 119.486 -55.5449 113.102C-55.5586 106.703 -51.6758 102.93 -46.4668 102.93C-41.2852 102.93 -37.375 106.703 -37.3887 113.102ZM-51.9629 113.102C-51.9766 117.627 -49.6934 120.074 -46.4668 120.074C-43.2266 120.074 -40.957 117.627 -40.9707 113.102C-40.957 108.576 -43.2266 106.129 -46.4668 106.129C-49.6934 106.129 -51.9766 108.576 -51.9629 113.102ZM-34.3809 123V108.152H-31.0449V110.668H-30.8535C-30.2383 108.973 -28.748 107.961 -26.7793 107.961C-24.7695 107.961 -23.3203 108.986 -22.7598 110.668H-22.5957C-21.9531 109.027 -20.2988 107.961 -18.1387 107.961C-15.418 107.961 -13.5039 109.711 -13.5176 113.02V123H-16.9902V113.566C-16.9902 111.721 -18.1113 110.887 -19.5332 110.887C-21.2422 110.887 -22.2402 112.049 -22.2402 113.73V123H-25.6309V113.43C-25.6445 111.885 -26.6562 110.887 -28.1465 110.887C-29.6504 110.887 -30.8809 112.131 -30.8809 113.977V123H-34.3809ZM-3.5918 123.301C-8.0625 123.301 -10.8105 120.32 -10.8105 115.672C-10.8105 111.078 -8.02148 107.961 -3.7832 107.961C-0.146484 107.961 2.99805 110.244 2.99805 115.453V116.547H-7.36523C-7.31055 119.076 -5.82031 120.58 -3.56445 120.566C-2.0332 120.58 -1.00781 119.924 -0.556641 119.035H2.86133C2.23242 121.605 -0.146484 123.301 -3.5918 123.301ZM-7.35156 114.168H-0.337891C-0.351562 112.145 -1.71875 110.668 -3.72852 110.668C-5.82031 110.668 -7.22852 112.281 -7.35156 114.168ZM12.1855 128.879C8.24805 128.879 5.74609 127.129 5.51367 124.34H8.98633C9.23242 125.639 10.4492 126.24 12.2402 126.254C14.332 126.24 15.6855 125.338 15.6855 123.164V120.32H15.5215C14.9746 121.414 13.7852 122.781 11.2285 122.781C7.79688 122.781 5.10352 120.293 5.10352 115.453C5.10352 110.572 7.81055 107.961 11.2559 107.961C13.8672 107.961 14.9746 109.533 15.5215 110.586H15.6855V108.152H19.1309V123.246C19.1309 127.047 16.1914 128.879 12.1855 128.879ZM8.6582 115.508C8.6582 118.242 9.88867 120.047 12.1855 120.047C14.4414 120.047 15.7129 118.352 15.7129 115.508C15.7129 112.678 14.4551 110.818 12.1855 110.805C9.86133 110.818 8.6582 112.801 8.6582 115.508ZM21.7832 118.816C21.7832 115.48 24.5586 114.51 27.3066 114.332C28.3457 114.25 30.4648 114.154 31.1211 114.127L31.1074 112.938C31.1074 111.461 30.1641 110.613 28.4277 110.613C26.8691 110.613 25.9121 111.324 25.6387 112.391H22.2754C22.5215 109.861 24.791 107.961 28.5098 107.961C31.3262 107.961 34.5801 109.123 34.5801 113.074V123H31.2441V120.949H31.1348C30.4785 122.207 29.0977 123.301 26.7598 123.301C23.9297 123.301 21.7832 121.756 21.7832 118.816ZM25.1465 118.789C25.1465 120.074 26.1992 120.73 27.6621 120.73C29.7812 120.73 31.1348 119.336 31.1348 117.668L31.1211 116.451C30.4922 116.479 28.5508 116.602 27.8535 116.656C26.1992 116.793 25.1465 117.49 25.1465 118.789ZM45.0254 123.273C40.8008 123.273 37.7793 120.977 37.6973 117.641H41.2793C41.375 119.227 42.9609 120.279 45.0254 120.266C47.1992 120.279 48.7715 119.076 48.7715 117.312C48.7715 115.535 47.2402 114.264 44.6699 114.25H42.8926V111.516H44.6699C46.7754 111.516 48.2383 110.34 48.2246 108.617C48.2383 106.949 46.9805 105.828 45.0527 105.828C43.1934 105.828 41.5938 106.867 41.5254 108.535H38.1074C38.1895 105.213 41.2109 102.93 45.0801 102.93C49.0996 102.93 51.6973 105.391 51.6699 108.426C51.6973 110.641 50.2207 112.24 48.0605 112.691V112.855C50.8496 113.225 52.4355 115.016 52.4082 117.504C52.4355 120.854 49.3047 123.273 45.0254 123.273Z" fill="#FFD53F"/>
<rect x="-75.5" y="83.5" width="148" height="59" rx="29.5" stroke="#FFD53F" stroke-width="3"/>
<path d="M102.051 123V103.203H114.93V106.184H105.605V111.598H114.246V114.578H105.605V119.992H114.984V123H102.051ZM121.684 114.305V123H118.184V108.152H121.52V110.668H121.711C122.381 109.014 123.898 107.961 126.113 107.961C129.189 107.961 131.213 109.984 131.199 113.539V123H127.727V114.086C127.727 112.09 126.646 110.9 124.828 110.914C122.982 110.9 121.684 112.145 121.684 114.305ZM141.125 123.301C136.654 123.301 133.906 120.32 133.906 115.672C133.906 111.078 136.695 107.961 140.934 107.961C144.57 107.961 147.715 110.244 147.715 115.453V116.547H137.352C137.406 119.076 138.896 120.58 141.152 120.566C142.684 120.58 143.709 119.924 144.16 119.035H147.578C146.949 121.605 144.57 123.301 141.125 123.301ZM137.365 114.168H144.379C144.365 112.145 142.998 110.668 140.988 110.668C138.896 110.668 137.488 112.281 137.365 114.168ZM150.422 123V108.152H153.812V110.613H153.977C154.51 108.904 155.932 107.934 157.641 107.934C158.023 107.934 158.57 107.975 158.898 108.016V111.242C158.584 111.133 157.859 111.037 157.285 111.023C155.344 111.037 153.922 112.377 153.922 114.25V123H150.422ZM166.965 128.879C163.027 128.879 160.525 127.129 160.293 124.34H163.766C164.012 125.639 165.229 126.24 167.02 126.254C169.111 126.24 170.465 125.338 170.465 123.164V120.32H170.301C169.754 121.414 168.564 122.781 166.008 122.781C162.576 122.781 159.883 120.293 159.883 115.453C159.883 110.572 162.59 107.961 166.035 107.961C168.646 107.961 169.754 109.533 170.301 110.586H170.465V108.152H173.91V123.246C173.91 127.047 170.971 128.879 166.965 128.879ZM163.438 115.508C163.438 118.242 164.668 120.047 166.965 120.047C169.221 120.047 170.492 118.352 170.492 115.508C170.492 112.678 169.234 110.818 166.965 110.805C164.641 110.818 163.438 112.801 163.438 115.508ZM179.352 128.578C178.654 128.564 177.998 128.551 177.547 128.496V125.707C177.971 125.748 178.559 125.748 179.023 125.762C179.871 125.748 180.582 125.693 181.184 124.094L181.484 123.301L176.07 108.152H179.762L183.207 119.363H183.371L186.816 108.152H190.508L184.547 124.805C183.699 127.17 182.141 128.564 179.352 128.578ZM199.504 123V103.203H206.941C211.48 103.203 213.9 105.965 213.914 109.766C213.9 113.553 211.453 116.301 206.887 116.301H203.059V123H199.504ZM203.059 113.375H206.395C209.074 113.361 210.277 111.857 210.277 109.766C210.277 107.646 209.074 106.184 206.395 106.184H203.059V113.375ZM215.664 118.816C215.664 115.48 218.439 114.51 221.188 114.332C222.227 114.25 224.346 114.154 225.002 114.127L224.988 112.938C224.988 111.461 224.045 110.613 222.309 110.613C220.75 110.613 219.793 111.324 219.52 112.391H216.156C216.402 109.861 218.672 107.961 222.391 107.961C225.207 107.961 228.461 109.123 228.461 113.074V123H225.125V120.949H225.016C224.359 122.207 222.979 123.301 220.641 123.301C217.811 123.301 215.664 121.756 215.664 118.816ZM219.027 118.789C219.027 120.074 220.08 120.73 221.543 120.73C223.662 120.73 225.016 119.336 225.016 117.668L225.002 116.451C224.373 116.479 222.432 116.602 221.734 116.656C220.08 116.793 219.027 117.49 219.027 118.789ZM238.223 123.301C233.793 123.301 231.113 120.129 231.113 115.645C231.113 111.092 233.875 107.961 238.223 107.961C241.818 107.961 244.348 110.066 244.594 113.266H241.258C240.984 111.844 239.945 110.764 238.25 110.75C236.09 110.764 234.641 112.568 234.641 115.562C234.641 118.625 236.062 120.443 238.25 120.457C239.795 120.443 240.943 119.541 241.258 117.941H244.594C244.334 121.072 241.955 123.301 238.223 123.301ZM247.219 123V103.203H250.719V114.113H250.965L256.297 108.152H260.371L254.615 114.551L260.727 123H256.57L252.004 116.629L250.719 117.996V123H247.219Z" fill="#2DCD6F"/>
<rect x="81.5" y="83.5" width="198" height="59" rx="29.5" stroke="#2DCD6F" stroke-width="3"/>
<path d="M309.205 103.203H313.58L319.459 117.586H319.705L325.584 103.203H329.959V123H326.541V109.383H326.35L320.854 122.945H318.311L312.814 109.328H312.65V123H309.205V103.203ZM344.396 108.645C344.219 106.936 342.783 105.951 340.65 105.965C338.395 105.951 337.055 107.045 337.041 108.535C337.027 110.203 338.791 110.887 340.432 111.27L342.291 111.762C345.244 112.445 348.088 114.004 348.088 117.449C348.088 120.922 345.34 123.301 340.596 123.301C335.988 123.301 333.062 121.086 332.912 117.176H336.412C336.576 119.24 338.312 120.252 340.568 120.266C342.906 120.252 344.52 119.117 344.533 117.422C344.52 115.863 343.098 115.207 340.951 114.66L338.709 114.086C335.455 113.238 333.432 111.598 333.432 108.754C333.432 105.254 336.535 102.93 340.705 102.93C344.902 102.93 347.76 105.295 347.814 108.645H344.396ZM351.041 103.203H355.416L361.295 117.586H361.541L367.42 103.203H371.795V123H368.377V109.383H368.186L362.689 122.945H360.146L354.65 109.328H354.486V123H351.041V103.203Z" fill="#FFD53F"/>
<rect x="288.5" y="83.5" width="104" height="59" rx="29.5" stroke="#FFD53F" stroke-width="3"/>
<path d="M9.28271 181.102C9.29639 187.5 5.38623 191.273 0.20459 191.273C-5.00439 191.273 -8.88721 187.486 -8.87354 181.102C-8.88721 174.703 -5.00439 170.93 0.20459 170.93C5.38623 170.93 9.29639 174.703 9.28271 181.102ZM-5.2915 181.102C-5.30518 185.627 -3.02197 188.074 0.20459 188.074C3.44482 188.074 5.71436 185.627 5.70068 181.102C5.71436 176.576 3.44482 174.129 0.20459 174.129C-3.02197 174.129 -5.30518 176.576 -5.2915 181.102ZM12.2905 191V176.152H15.6265V178.668H15.8179C16.4331 176.973 17.9233 175.961 19.8921 175.961C21.9019 175.961 23.3511 176.986 23.9116 178.668H24.0757C24.7183 177.027 26.3726 175.961 28.5327 175.961C31.2534 175.961 33.1675 177.711 33.1538 181.02V191H29.6812V181.566C29.6812 179.721 28.5601 178.887 27.1382 178.887C25.4292 178.887 24.4312 180.049 24.4312 181.73V191H21.0405V181.43C21.0269 179.885 20.0151 178.887 18.5249 178.887C17.021 178.887 15.7905 180.131 15.7905 181.977V191H12.2905ZM43.0796 191.301C38.6089 191.301 35.8608 188.32 35.8608 183.672C35.8608 179.078 38.6499 175.961 42.8882 175.961C46.5249 175.961 49.6694 178.244 49.6694 183.453V184.547H39.3062C39.3608 187.076 40.8511 188.58 43.1069 188.566C44.6382 188.58 45.6636 187.924 46.1147 187.035H49.5327C48.9038 189.605 46.5249 191.301 43.0796 191.301ZM39.3198 182.168H46.3335C46.3198 180.145 44.9526 178.668 42.9429 178.668C40.8511 178.668 39.4429 180.281 39.3198 182.168ZM58.8569 196.879C54.9194 196.879 52.4175 195.129 52.1851 192.34H55.6577C55.9038 193.639 57.1206 194.24 58.9116 194.254C61.0034 194.24 62.3569 193.338 62.3569 191.164V188.32H62.1929C61.646 189.414 60.4565 190.781 57.8999 190.781C54.4683 190.781 51.7749 188.293 51.7749 183.453C51.7749 178.572 54.4819 175.961 57.9272 175.961C60.5386 175.961 61.646 177.533 62.1929 178.586H62.3569V176.152H65.8022V191.246C65.8022 195.047 62.8628 196.879 58.8569 196.879ZM55.3296 183.508C55.3296 186.242 56.5601 188.047 58.8569 188.047C61.1128 188.047 62.3843 186.352 62.3843 183.508C62.3843 180.678 61.1265 178.818 58.8569 178.805C56.5327 178.818 55.3296 180.801 55.3296 183.508ZM68.4546 186.816C68.4546 183.48 71.23 182.51 73.978 182.332C75.0171 182.25 77.1362 182.154 77.7925 182.127L77.7788 180.938C77.7788 179.461 76.8354 178.613 75.0991 178.613C73.5405 178.613 72.5835 179.324 72.3101 180.391H68.9468C69.1929 177.861 71.4624 175.961 75.1812 175.961C77.9976 175.961 81.2515 177.123 81.2515 181.074V191H77.9155V188.949H77.8062C77.1499 190.207 75.769 191.301 73.4312 191.301C70.6011 191.301 68.4546 189.756 68.4546 186.816ZM71.8179 186.789C71.8179 188.074 72.8706 188.73 74.3335 188.73C76.4526 188.73 77.8062 187.336 77.8062 185.668L77.7925 184.451C77.1636 184.479 75.2222 184.602 74.5249 184.656C72.8706 184.793 71.8179 185.49 71.8179 186.789ZM91.6968 191.273C87.4722 191.273 84.4507 188.977 84.3687 185.641H87.9507C88.0464 187.227 89.6323 188.279 91.6968 188.266C93.8706 188.279 95.4429 187.076 95.4429 185.312C95.4429 183.535 93.9116 182.264 91.3413 182.25H89.564V179.516H91.3413C93.4468 179.516 94.9097 178.34 94.896 176.617C94.9097 174.949 93.6519 173.828 91.7241 173.828C89.8647 173.828 88.2651 174.867 88.1968 176.535H84.7788C84.8608 173.213 87.8823 170.93 91.7515 170.93C95.771 170.93 98.3687 173.391 98.3413 176.426C98.3687 178.641 96.8921 180.24 94.7319 180.691V180.855C97.521 181.225 99.1069 183.016 99.0796 185.504C99.1069 188.854 95.9761 191.273 91.6968 191.273Z" fill="#FFD53F"/>
<rect x="-28.8286" y="151.5" width="148" height="59" rx="29.5" stroke="#FFD53F" stroke-width="3"/>
<path d="M170.595 178.258V180.746H166.931V193.379H163.896V168.715H166.931V178.258H170.595ZM148.447 187.281V171.121H151.455V184.766C154.75 184.711 158.25 184.424 161.982 183.645L162.31 186.215C158.14 187.049 154.189 187.268 150.525 187.281H148.447ZM193.099 168.715V193.434H190.173V168.715H193.099ZM172.017 179.406C172.017 173.965 174.123 170.588 177.349 170.602C180.343 170.588 182.38 173.391 182.736 178.012H185.115V169.152H188.013V192.23H185.115V180.473H182.763C182.476 185.299 180.412 188.252 177.349 188.238C174.123 188.252 172.017 184.861 172.017 179.406ZM174.833 179.406C174.82 183.275 175.777 185.354 177.349 185.34C178.99 185.354 179.96 183.275 179.974 179.406C179.96 175.551 178.99 173.459 177.349 173.473C175.777 173.459 174.82 175.551 174.833 179.406ZM217.298 168.715V193.434H214.4V168.715H217.298ZM195.779 186.051C200.892 183.029 203.244 179.16 203.708 174.184H197.037V171.723H206.716C206.716 174.115 206.416 176.357 205.746 178.449H209.177V169.316H212.048V192.258H209.177V180.883H204.748C203.312 183.713 200.988 186.188 197.501 188.211L195.779 186.051ZM247.431 168.715V181.457H244.396V168.715H247.431ZM227.224 178.422C228.113 178.422 229.056 178.408 230.041 178.395V172.652H227.88V170.301H241.306V172.652H239.091V178.025C240.212 177.943 241.306 177.834 242.345 177.711L242.482 179.898C237.56 180.678 231.873 180.828 227.552 180.828L227.224 178.422ZM230.861 184.875V182.496H247.431V188.867H233.923V190.809H248.224V193.215H230.916V186.652H244.423V184.875H230.861ZM232.966 178.326C234.033 178.299 235.113 178.258 236.193 178.203V172.652H232.966V178.326ZM273.599 187.938V190.426H251.013V187.938H256.236V181.689C254.267 180.555 253.078 178.777 253.091 176.59C253.078 172.652 256.933 170.055 262.251 170.055C267.597 170.055 271.48 172.652 271.466 176.59C271.48 178.75 270.318 180.486 268.404 181.621V187.938H273.599ZM256.072 176.59C256.058 179.119 258.56 180.732 262.251 180.719C265.929 180.732 268.486 179.119 268.486 176.59C268.486 174.02 265.929 172.447 262.251 172.461C258.56 172.447 256.058 174.02 256.072 176.59ZM259.244 187.938H265.314V182.783C264.371 182.988 263.345 183.098 262.251 183.098C261.185 183.098 260.173 182.988 259.244 182.797V187.938ZM294.708 168.742V176.508H298.154V179.023H294.708V187.199H291.673V168.742H294.708ZM275.24 173.91V171.477H281.064V168.715H284.099V171.477H289.896V173.91H275.24ZM276.498 179.652C276.498 176.809 278.972 174.922 282.568 174.922C286.136 174.922 288.597 176.809 288.611 179.652C288.597 182.482 286.136 184.328 282.568 184.328C278.972 184.328 276.498 182.482 276.498 179.652ZM278.876 192.941V185.75H281.912V190.48H295.693V192.941H278.876ZM279.451 179.652C279.437 181.143 280.695 181.99 282.568 181.977C284.441 181.99 285.712 181.143 285.712 179.652C285.712 178.148 284.441 177.273 282.568 177.273C280.695 177.273 279.437 178.148 279.451 179.652Z" fill="#FF6067"/>
<rect x="128.171" y="151.5" width="189" height="59" rx="29.5" stroke="#FF6067" stroke-width="3"/>
<path d="M346.876 171.203H351.251L357.13 185.586H357.376L363.255 171.203H367.63V191H364.212V177.383H364.021L358.525 190.945H355.982L350.486 177.328H350.322V191H346.876V171.203ZM382.068 176.645C381.89 174.936 380.455 173.951 378.322 173.965C376.066 173.951 374.726 175.045 374.712 176.535C374.699 178.203 376.462 178.887 378.103 179.27L379.962 179.762C382.916 180.445 385.759 182.004 385.759 185.449C385.759 188.922 383.011 191.301 378.267 191.301C373.66 191.301 370.734 189.086 370.583 185.176H374.083C374.248 187.24 375.984 188.252 378.24 188.266C380.578 188.252 382.191 187.117 382.205 185.422C382.191 183.863 380.769 183.207 378.623 182.66L376.38 182.086C373.126 181.238 371.103 179.598 371.103 176.754C371.103 173.254 374.207 170.93 378.376 170.93C382.574 170.93 385.431 173.295 385.486 176.645H382.068ZM388.712 171.203H393.087L398.966 185.586H399.212L405.091 171.203H409.466V191H406.048V177.383H405.857L400.361 190.945H397.818L392.322 177.328H392.158V191H388.712V171.203Z" fill="#2DCD6F"/>
<rect x="326.171" y="151.5" width="104" height="59" rx="29.5" stroke="#2DCD6F" stroke-width="3"/>
<rect x="20" y="220" width="10" height="2" fill="#3F3F3F"/>
<rect x="26" y="216" width="10" height="2" transform="rotate(90 26 216)" fill="#3F3F3F"/>
<rect x="175" y="220" width="10" height="2" fill="#3F3F3F"/>
<rect x="181" y="216" width="10" height="2" transform="rotate(90 181 216)" fill="#3F3F3F"/>
<rect x="330" y="220" width="10" height="2" fill="#3F3F3F"/>
<rect x="336" y="216" width="10" height="2" transform="rotate(90 336 216)" fill="#3F3F3F"/>
<rect x="20" y="4" width="10" height="2" fill="#3F3F3F"/>
<rect x="26" width="10" height="2" transform="rotate(90 26 0)" fill="#3F3F3F"/>
<rect x="175" y="4" width="10" height="2" fill="#3F3F3F"/>
<rect x="181" width="10" height="2" transform="rotate(90 181 0)" fill="#3F3F3F"/>
<rect x="330" y="4" width="10" height="2" fill="#3F3F3F"/>
<rect x="336" width="10" height="2" transform="rotate(90 336 0)" fill="#3F3F3F"/>
</svg>
