<svg width="73" height="17" viewBox="0 0 73 17" fill="none" xmlns="http://www.w3.org/2000/svg">
<g opacity="0.6">
<path d="M24.8809 8.93839V6.14963L21.9961 6.15586V2.63281H18.958V6.15586H16.6704V8.94463H18.9156C18.8496 11.1026 19.1163 13.8677 20.7245 15.532C21.591 16.4283 22.7616 16.8609 24.2052 16.8609H24.2114L24.8821 16.8571V13.8639H24.4745C23.8661 13.8639 23.3625 13.6956 22.976 13.3092C21.9986 12.3305 22.0011 10.2935 22.0024 9.56422L22.0086 8.94587L24.8821 8.93964L24.8809 8.93839Z" fill="white"/>
<path d="M0 16.7138H3.06677V12.8716C3.06677 11.9977 3.3747 11.2547 3.98182 10.6613C5.74957 8.93592 9.56309 8.92968 9.60049 8.93218L9.68776 8.93467V6.15588C9.50824 6.1459 5.39926 6.00129 3.06677 7.74536V4.10638H10.437V1.1543H0V16.7138Z" fill="white"/>
<path d="M72.9989 11.2835C72.9989 6.38788 69.5145 6.0064 68.4287 6.0064C67.9624 5.99767 66.424 6.07995 65.4068 7.34905V6.156H62.3213V16.7089H65.3768V11.6749L65.3743 11.0803C65.4142 9.84984 66.4639 8.85002 67.7143 8.85002C68.9647 8.85002 69.9421 9.84984 69.9421 11.0778L69.9446 16.7089H73.0001V11.2822L72.9989 11.2835Z" fill="white"/>
<path d="M51.776 6.00586C50.3411 6.00586 49.1119 6.62046 48.3814 7.69757C47.6446 6.6055 46.4665 6.00586 45.0491 6.00586C43.7575 6.00586 42.7378 6.4584 42.016 7.35225V6.15546H38.9268V16.7071H42.0072V10.798C42.0421 9.72214 42.9385 8.84823 44.0306 8.84823C45.1226 8.84823 45.9566 9.72214 45.9566 10.7955V16.7071L45.9816 16.7121H49.0396L49.0621 16.7071V10.798C49.097 9.72214 49.9933 8.84823 51.0854 8.84823C52.1775 8.84823 53.0115 9.72214 53.0115 10.7955V16.7121H56.0882V10.4988C56.0882 7.6477 54.3953 6.00711 51.7748 6.00711L51.776 6.00586Z" fill="white"/>
<path d="M34.8664 6.15583V7.34639C34.8664 7.34639 33.6185 6 31.3159 6C28.2155 6 26.0376 8.43098 26.0376 11.4317C26.0376 14.4324 28.2155 16.8634 31.3159 16.8634C33.8878 16.8634 34.8639 15.5307 34.8639 15.5307V16.7088H37.7711V6.15583H34.8664ZM31.9106 14.1606C30.3523 14.1606 29.0882 12.9389 29.0882 11.4304C29.0882 9.92198 30.351 8.70026 31.9106 8.70026C33.4702 8.70026 34.5747 9.92198 34.5747 11.4304C34.5747 12.9389 33.4689 14.1606 31.9106 14.1606V14.1606Z" fill="white"/>
<path d="M15.1347 6.1543H11.9731V16.711H15.1347V6.1543Z" fill="white"/>
<path d="M13.5538 4.58995C14.6368 4.58995 15.5148 3.71198 15.5148 2.62896C15.5148 1.54593 14.6368 0.667969 13.5538 0.667969C12.4707 0.667969 11.5928 1.54593 11.5928 2.62896C11.5928 3.71198 12.4707 4.58995 13.5538 4.58995Z" fill="white"/>
<path d="M60.7855 6.1543H57.624V16.711H60.7855V6.1543Z" fill="white"/>
<path d="M59.2046 4.58799C60.2877 4.58799 61.1656 3.71003 61.1656 2.627C61.1656 1.54398 60.2877 0.666016 59.2046 0.666016C58.1216 0.666016 57.2437 1.54398 57.2437 2.627C57.2437 3.71003 58.1216 4.58799 59.2046 4.58799Z" fill="white"/>
</g>
</svg>
