<svg width="74" height="18" viewBox="0 0 74 18" fill="none" xmlns="http://www.w3.org/2000/svg">
<mask id="mask0_168_8564" style="mask-type:alpha" maskUnits="userSpaceOnUse" x="0" y="0" width="74" height="18">
<rect width="74" height="18" fill="#D9D9D9"/>
</mask>
<g mask="url(#mask0_168_8564)">
<g opacity="0.6">
<path d="M25.8809 9.27238V6.48361L22.9961 6.48984V2.9668H19.958V6.48984H17.6704V9.27861H19.9156C19.8496 11.4366 20.1163 14.2017 21.7245 15.8659C22.591 16.7623 23.7616 17.1949 25.2052 17.1949H25.2114L25.8821 17.1911V14.1979H25.4745C24.8661 14.1979 24.3625 14.0296 23.976 13.6432C22.9986 12.6645 23.0011 10.6275 23.0024 9.8982L23.0086 9.27986L25.8821 9.27363L25.8809 9.27238Z" fill="white"/>
<path d="M1 17.0478H4.06677V13.2056C4.06677 12.3317 4.3747 11.5887 4.98182 10.9953C6.74957 9.2699 10.5631 9.26367 10.6005 9.26616L10.6878 9.26865V6.48986C10.5082 6.47989 6.39926 6.33528 4.06677 8.07935V4.44036H11.437V1.48828H1V17.0478Z" fill="white"/>
<path d="M73.9989 11.6175C73.9989 6.72186 70.5145 6.34038 69.4287 6.34038C68.9624 6.33166 67.424 6.41394 66.4068 7.68303V6.48998H63.3213V17.0429H66.3768V12.0089L66.3743 11.4143C66.4142 10.1838 67.4639 9.184 68.7143 9.184C69.9647 9.184 70.9421 10.1838 70.9421 11.4118L70.9446 17.0429H74.0001V11.6162L73.9989 11.6175Z" fill="white"/>
<path d="M52.776 6.33984C51.3411 6.33984 50.1119 6.95444 49.3814 8.03156C48.6446 6.93948 47.4665 6.33984 46.0491 6.33984C44.7575 6.33984 43.7378 6.79238 43.016 7.68623V6.48944H39.9268V17.0411H43.0072V11.132C43.0421 10.0561 43.9385 9.18222 45.0306 9.18222C46.1226 9.18222 46.9566 10.0561 46.9566 11.1295V17.0411L46.9816 17.0461H50.0396L50.0621 17.0411V11.132C50.097 10.0561 50.9933 9.18222 52.0854 9.18222C53.1775 9.18222 54.0115 10.0561 54.0115 11.1295V17.0461H57.0882V10.8328C57.0882 7.98169 55.3953 6.34109 52.7748 6.34109L52.776 6.33984Z" fill="white"/>
<path d="M35.8664 6.48982V7.68037C35.8664 7.68037 34.6185 6.33398 32.3159 6.33398C29.2155 6.33398 27.0376 8.76496 27.0376 11.7657C27.0376 14.7664 29.2155 17.1973 32.3159 17.1973C34.8878 17.1973 35.8639 15.8647 35.8639 15.8647V17.0428H38.7711V6.48982H35.8664ZM32.9106 14.4946C31.3523 14.4946 30.0882 13.2729 30.0882 11.7644C30.0882 10.256 31.351 9.03424 32.9106 9.03424C34.4702 9.03424 35.5747 10.256 35.5747 11.7644C35.5747 13.2729 34.4689 14.4946 32.9106 14.4946V14.4946Z" fill="white"/>
<path d="M16.1347 6.48828H12.9731V17.045H16.1347V6.48828Z" fill="white"/>
<path d="M14.5538 4.92393C15.6368 4.92393 16.5148 4.04597 16.5148 2.96294C16.5148 1.87992 15.6368 1.00195 14.5538 1.00195C13.4707 1.00195 12.5928 1.87992 12.5928 2.96294C12.5928 4.04597 13.4707 4.92393 14.5538 4.92393Z" fill="white"/>
<path d="M61.7855 6.48828H58.624V17.045H61.7855V6.48828Z" fill="white"/>
<path d="M60.2046 4.92198C61.2877 4.92198 62.1656 4.04401 62.1656 2.96099C62.1656 1.87796 61.2877 1 60.2046 1C59.1216 1 58.2437 1.87796 58.2437 2.96099C58.2437 4.04401 59.1216 4.92198 60.2046 4.92198Z" fill="white"/>
</g>
</g>
</svg>
