<svg width="529" height="44" viewBox="0 0 529 44" fill="none" xmlns="http://www.w3.org/2000/svg">
<path d="M21.8621 28V16.6851H24.2101V21.7017H24.3593L28.4698 16.6851H31.293L27.0775 21.7514L31.3427 28H28.525L25.398 23.326L24.2101 24.768V28H21.8621ZM35.642 28.1657C33.0398 28.1657 31.4431 26.4862 31.4431 23.7956C31.4431 21.1768 33.0619 19.4033 35.5481 19.4033C37.7746 19.4033 39.5315 20.8122 39.5315 23.7072V24.3536H33.7304C33.7304 25.6409 34.4928 26.4309 35.6807 26.4309C36.4763 26.4309 37.0398 26.0884 37.2718 25.5856H39.4707C39.1392 27.1492 37.7359 28.1657 35.642 28.1657ZM33.7304 22.9061H37.3492C37.3381 21.8785 36.6254 21.1326 35.5923 21.1326C34.526 21.1326 33.7857 21.9337 33.7304 22.9061ZM44.8295 28.1657C42.2273 28.1657 40.6306 26.4862 40.6306 23.7956C40.6306 21.1768 42.2494 19.4033 44.7356 19.4033C46.9621 19.4033 48.719 20.8122 48.719 23.7072V24.3536H42.9179C42.9179 25.6409 43.6803 26.4309 44.8682 26.4309C45.6638 26.4309 46.2273 26.0884 46.4593 25.5856H48.6582C48.3267 27.1492 46.9234 28.1657 44.8295 28.1657ZM42.9179 22.9061H46.5367C46.5256 21.8785 45.8129 21.1326 44.7798 21.1326C43.7135 21.1326 42.9732 21.9337 42.9179 22.9061ZM50.1662 31.1823V19.5138H52.4479V20.9392H52.5529C52.8678 20.2541 53.5419 19.4033 54.9673 19.4033C56.8457 19.4033 58.4148 20.8619 58.4148 23.768C58.4148 26.6022 56.9065 28.1381 54.9673 28.1381C53.5861 28.1381 52.8789 27.3425 52.5529 26.6464H52.4811V31.1823H50.1662ZM52.4314 23.7569C52.4314 25.2818 53.0888 26.2928 54.2435 26.2928C55.4148 26.2928 56.0502 25.2541 56.0502 23.7569C56.0502 22.2707 55.4258 21.2541 54.2435 21.2541C53.0778 21.2541 52.4314 22.2265 52.4314 23.7569Z" fill="#2DCD6F"/>
<rect x="1" y="1" width="77" height="42" rx="21" stroke="#2DCD6F" stroke-width="2"/>
<rect x="85" width="59" height="44" rx="22" fill="#2DCD6F"/>
<path d="M106.915 28V16.6851H113.942V18.1657H108.633V21.5967H113.434V23.0718H108.633V28H106.915ZM115.72 28V19.5138H117.388V28H115.72ZM115.51 17.221C115.51 16.674 115.985 16.232 116.565 16.232C117.134 16.232 117.609 16.674 117.609 17.221C117.609 17.768 117.134 18.2099 116.565 18.2099C115.985 18.2099 115.51 17.768 115.51 17.221ZM123.39 19.5138V20.8453H121.66V25.5028C121.66 26.4586 122.136 26.6298 122.677 26.6354C122.915 26.6354 123.285 26.6133 123.506 26.6022V28.0387C123.285 28.0773 122.926 28.1105 122.473 28.1105C121.163 28.1105 119.986 27.3923 119.992 25.8453V20.8453H118.749V19.5138H119.992V17.4807H121.66V19.5138H123.39Z" fill="white"/>
<path d="M171.003 28V16.6851H178.594V18.6298H173.351V21.3702H178.202V23.3094H173.351V26.0552H178.616V28H171.003ZM188.242 19.5138L185.27 28H182.668L179.695 19.5138H182.143L183.927 25.6133H184.016L185.795 19.5138H188.242ZM192.939 28.1657C190.337 28.1657 188.74 26.4862 188.74 23.7956C188.74 21.1768 190.359 19.4033 192.845 19.4033C195.071 19.4033 196.828 20.8122 196.828 23.7072V24.3536H191.027C191.027 25.6409 191.79 26.4309 192.978 26.4309C193.773 26.4309 194.337 26.0884 194.569 25.5856H196.768C196.436 27.1492 195.033 28.1657 192.939 28.1657ZM191.027 22.9061H194.646C194.635 21.8785 193.922 21.1326 192.889 21.1326C191.823 21.1326 191.083 21.9337 191.027 22.9061ZM198.276 28V19.5138H200.519V20.9889H200.607C200.916 19.9448 201.701 19.3923 202.651 19.3923C202.889 19.3923 203.187 19.4254 203.392 19.4641V21.5304C203.176 21.4641 202.729 21.4033 202.403 21.4033C201.358 21.4033 200.59 22.1326 200.59 23.1768V28H198.276ZM206.156 31.1823C205.708 31.1823 205.283 31.1713 204.979 31.1436L204.985 29.3425C205.277 29.3646 205.631 29.3702 205.918 29.3702C206.382 29.3702 206.753 29.3315 207.034 28.5967L207.167 28.2376L204.117 19.5138H206.554L208.333 25.768H208.421L210.217 19.5138H212.664L209.355 28.9337C208.874 30.3039 207.946 31.1823 206.156 31.1823ZM216.643 28.1381C214.698 28.1381 213.189 26.6022 213.189 23.768C213.189 20.8619 214.764 19.4033 216.637 19.4033C218.068 19.4033 218.742 20.2541 219.057 20.9392H219.123V16.6851H221.433V28H219.156V26.6464H219.057C218.725 27.3425 218.024 28.1381 216.643 28.1381ZM215.554 23.7569C215.554 25.2541 216.189 26.2928 217.366 26.2928C218.51 26.2928 219.173 25.2818 219.173 23.7569C219.173 22.2265 218.521 21.2541 217.366 21.2541C216.178 21.2541 215.554 22.2707 215.554 23.7569ZM222.893 25.6298C222.893 23.7293 224.418 23.116 226.048 23.011C226.65 22.9724 227.799 22.9227 228.153 22.9116V22.2265C228.148 21.5083 227.661 21.0994 226.805 21.0994C226.009 21.0994 225.512 21.4586 225.385 22.0387H223.192C223.324 20.5635 224.606 19.4033 226.86 19.4033C228.711 19.4033 230.457 20.2376 230.457 22.2818V28H228.264V26.8232H228.197C227.788 27.6077 226.976 28.1602 225.717 28.1602C224.098 28.1602 222.893 27.3039 222.893 25.6298ZM225.109 25.558C225.109 26.2155 225.634 26.5525 226.374 26.5525C227.429 26.5525 228.17 25.8619 228.164 24.9669V24.3481C227.822 24.3646 226.822 24.4199 226.424 24.4586C225.617 24.5249 225.109 24.9061 225.109 25.558ZM233.265 31.1823C232.818 31.1823 232.392 31.1713 232.088 31.1436L232.094 29.3425C232.387 29.3646 232.74 29.3702 233.028 29.3702C233.492 29.3702 233.862 29.3315 234.144 28.5967L234.276 28.2376L231.227 19.5138H233.663L235.442 25.768H235.53L237.326 19.5138H239.773L236.464 28.9337C235.983 30.3039 235.055 31.1823 233.265 31.1823Z" fill="#2DCD6F"/>
<rect x="151" y="1" width="108" height="42" rx="21" stroke="#2DCD6F" stroke-width="2"/>
<rect x="266" width="77" height="44" rx="22" fill="#2DCD6F"/>
<path d="M287.243 28V16.6851H288.961V22.0829H289.11L293.84 16.6851H296L291.442 21.779L296.016 28H293.939L290.304 22.9503L288.961 24.4917V28H287.243ZM300.32 28.1713C297.817 28.1713 296.276 26.4475 296.276 23.8122C296.276 21.2044 297.84 19.4033 300.199 19.4033C302.132 19.4033 303.972 20.6022 303.972 23.6685V24.2597H297.933C297.978 25.8785 298.928 26.8011 300.331 26.8011C301.276 26.8011 301.889 26.3923 302.171 25.8674H303.862C303.486 27.2541 302.182 28.1713 300.32 28.1713ZM297.939 23.011H302.331C302.326 21.7238 301.491 20.7735 300.221 20.7735C298.884 20.7735 298.016 21.8177 297.939 23.011ZM309.289 28.1713C306.786 28.1713 305.245 26.4475 305.245 23.8122C305.245 21.2044 306.808 19.4033 309.167 19.4033C311.101 19.4033 312.941 20.6022 312.941 23.6685V24.2597H306.902C306.946 25.8785 307.897 26.8011 309.3 26.8011C310.245 26.8011 310.858 26.3923 311.14 25.8674H312.83C312.455 27.2541 311.151 28.1713 309.289 28.1713ZM306.908 23.011H311.3C311.294 21.7238 310.46 20.7735 309.189 20.7735C307.852 20.7735 306.985 21.8177 306.908 23.011ZM314.595 31.1823V19.5138H316.225V20.8895H316.363C316.655 20.3591 317.23 19.4033 318.799 19.4033C320.849 19.4033 322.357 21.0166 322.357 23.7735C322.357 26.5193 320.871 28.1657 318.816 28.1657C317.274 28.1657 316.661 27.2265 316.363 26.6796H316.263V31.1823H314.595ZM316.23 23.7569C316.23 25.5304 317.02 26.7459 318.44 26.7459C319.91 26.7459 320.672 25.4586 320.672 23.7569C320.672 22.0773 319.926 20.8232 318.44 20.8232C316.998 20.8232 316.23 21.989 316.23 23.7569Z" fill="white"/>
<path d="M370.925 28V16.6851H378.383V18.6298H373.273V21.3702H377.886V23.3094H373.273V28H370.925ZM379.869 28V19.5138H382.184V28H379.869ZM379.77 17.2265C379.77 16.5801 380.339 16.0497 381.03 16.0497C381.72 16.0497 382.289 16.5801 382.289 17.2265C382.289 17.8785 381.72 18.4033 381.03 18.4033C380.339 18.4033 379.77 17.8785 379.77 17.2265ZM388.459 19.5138V21.2541H386.857V25.3978C386.857 26.0718 387.189 26.232 387.664 26.2486C387.89 26.2541 388.294 26.2265 388.57 26.2099V28.0331C388.327 28.0718 387.912 28.116 387.349 28.116C385.669 28.116 384.531 27.3646 384.542 25.7127V21.2541H383.376V19.5138H384.542V17.4807H386.857V19.5138H388.459Z" fill="#2DCD6F"/>
<rect x="350" y="1" width="58" height="42" rx="21" stroke="#2DCD6F" stroke-width="2"/>
<rect x="415" width="108" height="44" rx="22" fill="#2DCD6F"/>
<path d="M436.649 28V16.6851H443.754V18.1657H438.367V21.5967H443.384V23.0718H438.367V26.5193H443.815V28H436.649ZM452.98 19.5138L449.897 28H448.113L445.036 19.5138H446.826L448.964 26.0331H449.052L451.196 19.5138H452.98ZM457.711 28.1713C455.208 28.1713 453.667 26.4475 453.667 23.8122C453.667 21.2044 455.23 19.4033 457.589 19.4033C459.523 19.4033 461.363 20.6022 461.363 23.6685V24.2597H455.324C455.368 25.8785 456.319 26.8011 457.722 26.8011C458.667 26.8011 459.28 26.3923 459.562 25.8674H461.252C460.877 27.2541 459.573 28.1713 457.711 28.1713ZM455.33 23.011H459.722C459.716 21.7238 458.882 20.7735 457.611 20.7735C456.274 20.7735 455.407 21.8177 455.33 23.011ZM463.017 28V19.5138H464.63V20.8674H464.718C465.028 19.9503 465.878 19.3867 466.867 19.3867C467.077 19.3867 467.409 19.4033 467.58 19.4254V21.0166C467.442 20.9834 467.05 20.9171 466.713 20.9171C465.547 20.9171 464.685 21.7182 464.685 22.8287V28H463.017ZM470.122 31.1823C469.78 31.1823 469.448 31.1713 469.227 31.1492L469.238 29.7514C469.426 29.768 469.747 29.7735 469.984 29.7735C470.498 29.7735 470.934 29.7403 471.327 28.6685L471.537 28.116L468.426 19.5138H470.211L472.349 26.0939H472.437L474.586 19.5138H476.371L472.874 29.1271C472.382 30.4696 471.52 31.1823 470.122 31.1823ZM480.615 28.1657C478.56 28.1657 477.063 26.5193 477.063 23.7735C477.063 21.0166 478.582 19.4033 480.632 19.4033C482.206 19.4033 482.775 20.3591 483.074 20.8895H483.162V16.6851H484.831V28H483.201V26.6796H483.074C482.764 27.2265 482.162 28.1657 480.615 28.1657ZM478.759 23.7569C478.759 25.4586 479.521 26.7459 480.991 26.7459C482.405 26.7459 483.201 25.5304 483.201 23.7569C483.201 21.989 482.422 20.8232 480.991 20.8232C479.505 20.8232 478.759 22.0773 478.759 23.7569ZM486.603 25.6022C486.603 23.674 488.25 23.1768 489.774 23.0663C490.349 23.0276 491.642 22.9613 492.006 22.9503V22.2597C492.006 21.3039 491.415 20.7514 490.277 20.7514C489.299 20.7514 488.703 21.1989 488.531 21.8287H486.868C487.023 20.4254 488.338 19.4033 490.338 19.4033C491.692 19.4033 493.669 19.9006 493.669 22.3646V28H492.045V26.8398H491.979C491.658 27.4807 490.874 28.1878 489.471 28.1878C487.857 28.1878 486.603 27.2652 486.603 25.6022ZM488.239 25.6243C488.239 26.442 488.907 26.8564 489.841 26.8564C491.205 26.8564 492.012 25.9448 492.012 24.9392V24.1657C491.631 24.1878 490.415 24.2707 490.012 24.2983C488.924 24.3757 488.239 24.7901 488.239 25.6243ZM496.404 31.1823C496.061 31.1823 495.73 31.1713 495.509 31.1492L495.52 29.7514C495.707 29.768 496.028 29.7735 496.265 29.7735C496.779 29.7735 497.216 29.7403 497.608 28.6685L497.818 28.116L494.707 19.5138H496.492L498.63 26.0939H498.718L500.868 19.5138H502.652L499.155 29.1271C498.663 30.4696 497.801 31.1823 496.404 31.1823Z" fill="white"/>
</svg>
