<svg width="529" height="44" viewBox="0 0 529 44" fill="none" xmlns="http://www.w3.org/2000/svg">
<path d="M20.9558 28V16.6851H23.3039V21.7017H23.453L27.5635 16.6851H30.3867L26.1713 21.7514L30.4365 28H27.6188L24.4917 23.326L23.3039 24.768V28H20.9558ZM34.7358 28.1657C32.1335 28.1657 30.5369 26.4862 30.5369 23.7956C30.5369 21.1768 32.1556 19.4033 34.6418 19.4033C36.8684 19.4033 38.6253 20.8122 38.6253 23.7072V24.3536H32.8242C32.8242 25.6409 33.5866 26.4309 34.7744 26.4309C35.57 26.4309 36.1335 26.0884 36.3656 25.5856H38.5645C38.233 27.1492 36.8297 28.1657 34.7358 28.1657ZM32.8242 22.9061H36.4429C36.4319 21.8785 35.7192 21.1326 34.686 21.1326C33.6197 21.1326 32.8794 21.9337 32.8242 22.9061ZM43.9233 28.1657C41.321 28.1657 39.7244 26.4862 39.7244 23.7956C39.7244 21.1768 41.3431 19.4033 43.8293 19.4033C46.0559 19.4033 47.8128 20.8122 47.8128 23.7072V24.3536H42.0117C42.0117 25.6409 42.7741 26.4309 43.9619 26.4309C44.7575 26.4309 45.321 26.0884 45.5531 25.5856H47.752C47.4205 27.1492 46.0172 28.1657 43.9233 28.1657ZM42.0117 22.9061H45.6304C45.6194 21.8785 44.9067 21.1326 43.8735 21.1326C42.8072 21.1326 42.0669 21.9337 42.0117 22.9061ZM49.2599 31.1823V19.5138H51.5417V20.9392H51.6467C51.9616 20.2541 52.6356 19.4033 54.061 19.4033C55.9395 19.4033 57.5085 20.8619 57.5085 23.768C57.5085 26.6022 56.0003 28.1381 54.061 28.1381C52.6798 28.1381 51.9726 27.3425 51.6467 26.6464H51.5748V31.1823H49.2599ZM51.5251 23.7569C51.5251 25.2818 52.1826 26.2928 53.3373 26.2928C54.5085 26.2928 55.1439 25.2541 55.1439 23.7569C55.1439 22.2707 54.5196 21.2541 53.3373 21.2541C52.1715 21.2541 51.5251 22.2265 51.5251 23.7569Z" fill="#88BFFF"/>
<rect x="1" y="1" width="77" height="42" rx="21" stroke="#88BFFF" stroke-width="2"/>
<rect x="85" width="59" height="44" rx="22" fill="#88BFFF"/>
<path d="M106.149 28V16.6851H113.177V18.1657H107.867V21.5967H112.669V23.0718H107.867V28H106.149ZM114.954 28V19.5138H116.623V28H114.954ZM114.744 17.221C114.744 16.674 115.219 16.232 115.799 16.232C116.368 16.232 116.844 16.674 116.844 17.221C116.844 17.768 116.368 18.2099 115.799 18.2099C115.219 18.2099 114.744 17.768 114.744 17.221ZM122.624 19.5138V20.8453H120.895V25.5028C120.895 26.4586 121.37 26.6298 121.911 26.6354C122.149 26.6354 122.519 26.6133 122.74 26.6022V28.0387C122.519 28.0773 122.16 28.1105 121.707 28.1105C120.398 28.1105 119.221 27.3923 119.226 25.8453V20.8453H117.983V19.5138H119.226V17.4807H120.895V19.5138H122.624Z" fill="white"/>
<path d="M170.956 28V16.6851H178.547V18.6298H173.304V21.3702H178.155V23.3094H173.304V26.0552H178.569V28H170.956ZM188.195 19.5138L185.223 28H182.621L179.648 19.5138H182.096L183.88 25.6133H183.969L185.748 19.5138H188.195ZM192.892 28.1657C190.29 28.1657 188.693 26.4862 188.693 23.7956C188.693 21.1768 190.312 19.4033 192.798 19.4033C195.025 19.4033 196.782 20.8122 196.782 23.7072V24.3536H190.98C190.98 25.6409 191.743 26.4309 192.931 26.4309C193.726 26.4309 194.29 26.0884 194.522 25.5856H196.721C196.389 27.1492 194.986 28.1657 192.892 28.1657ZM190.98 22.9061H194.599C194.588 21.8785 193.875 21.1326 192.842 21.1326C191.776 21.1326 191.036 21.9337 190.98 22.9061ZM198.229 28V19.5138H200.472V20.9889H200.56C200.87 19.9448 201.654 19.3923 202.604 19.3923C202.842 19.3923 203.14 19.4254 203.345 19.4641V21.5304C203.129 21.4641 202.682 21.4033 202.356 21.4033C201.312 21.4033 200.544 22.1326 200.544 23.1768V28H198.229ZM206.109 31.1823C205.661 31.1823 205.236 31.1713 204.932 31.1436L204.938 29.3425C205.23 29.3646 205.584 29.3702 205.871 29.3702C206.335 29.3702 206.706 29.3315 206.987 28.5967L207.12 28.2376L204.07 19.5138H206.507L208.286 25.768H208.374L210.17 19.5138H212.617L209.308 28.9337C208.827 30.3039 207.899 31.1823 206.109 31.1823ZM216.596 28.1381C214.651 28.1381 213.143 26.6022 213.143 23.768C213.143 20.8619 214.717 19.4033 216.59 19.4033C218.021 19.4033 218.695 20.2541 219.01 20.9392H219.076V16.6851H221.386V28H219.109V26.6464H219.01C218.679 27.3425 217.977 28.1381 216.596 28.1381ZM215.507 23.7569C215.507 25.2541 216.143 26.2928 217.319 26.2928C218.463 26.2928 219.126 25.2818 219.126 23.7569C219.126 22.2265 218.474 21.2541 217.319 21.2541C216.132 21.2541 215.507 22.2707 215.507 23.7569ZM222.847 25.6298C222.847 23.7293 224.371 23.116 226.001 23.011C226.603 22.9724 227.753 22.9227 228.106 22.9116V22.2265C228.101 21.5083 227.614 21.0994 226.758 21.0994C225.963 21.0994 225.465 21.4586 225.338 22.0387H223.145C223.277 20.5635 224.559 19.4033 226.813 19.4033C228.664 19.4033 230.41 20.2376 230.41 22.2818V28H228.217V26.8232H228.15C227.742 27.6077 226.929 28.1602 225.67 28.1602C224.051 28.1602 222.847 27.3039 222.847 25.6298ZM225.062 25.558C225.062 26.2155 225.587 26.5525 226.327 26.5525C227.382 26.5525 228.123 25.8619 228.117 24.9669V24.3481C227.775 24.3646 226.775 24.4199 226.377 24.4586C225.57 24.5249 225.062 24.9061 225.062 25.558ZM233.218 31.1823C232.771 31.1823 232.345 31.1713 232.042 31.1436L232.047 29.3425C232.34 29.3646 232.693 29.3702 232.981 29.3702C233.445 29.3702 233.815 29.3315 234.097 28.5967L234.229 28.2376L231.18 19.5138H233.616L235.395 25.768H235.484L237.279 19.5138H239.727L236.417 28.9337C235.937 30.3039 235.008 31.1823 233.218 31.1823Z" fill="#88BFFF"/>
<rect x="151" y="1" width="108" height="42" rx="21" stroke="#88BFFF" stroke-width="2"/>
<rect x="266" width="77" height="44" rx="22" fill="#88BFFF"/>
<path d="M287.149 28V16.6851H288.867V22.0829H289.017L293.746 16.6851H295.906L291.348 21.779L295.923 28H293.845L290.21 22.9503L288.867 24.4917V28H287.149ZM300.226 28.1713C297.724 28.1713 296.182 26.4475 296.182 23.8122C296.182 21.2044 297.746 19.4033 300.105 19.4033C302.039 19.4033 303.878 20.6022 303.878 23.6685V24.2597H297.84C297.884 25.8785 298.834 26.8011 300.237 26.8011C301.182 26.8011 301.795 26.3923 302.077 25.8674H303.768C303.392 27.2541 302.088 28.1713 300.226 28.1713ZM297.845 23.011H302.237C302.232 21.7238 301.398 20.7735 300.127 20.7735C298.79 20.7735 297.923 21.8177 297.845 23.011ZM309.195 28.1713C306.692 28.1713 305.151 26.4475 305.151 23.8122C305.151 21.2044 306.715 19.4033 309.074 19.4033C311.007 19.4033 312.847 20.6022 312.847 23.6685V24.2597H306.808C306.853 25.8785 307.803 26.8011 309.206 26.8011C310.151 26.8011 310.764 26.3923 311.046 25.8674H312.737C312.361 27.2541 311.057 28.1713 309.195 28.1713ZM306.814 23.011H311.206C311.201 21.7238 310.366 20.7735 309.096 20.7735C307.759 20.7735 306.891 21.8177 306.814 23.011ZM314.501 31.1823V19.5138H316.131V20.8895H316.269C316.562 20.3591 317.136 19.4033 318.705 19.4033C320.755 19.4033 322.263 21.0166 322.263 23.7735C322.263 26.5193 320.777 28.1657 318.722 28.1657C317.181 28.1657 316.567 27.2265 316.269 26.6796H316.169V31.1823H314.501ZM316.136 23.7569C316.136 25.5304 316.926 26.7459 318.346 26.7459C319.816 26.7459 320.578 25.4586 320.578 23.7569C320.578 22.0773 319.832 20.8232 318.346 20.8232C316.904 20.8232 316.136 21.989 316.136 23.7569Z" fill="white"/>
<path d="M369.956 28V16.6851H377.414V18.6298H372.304V21.3702H376.917V23.3094H372.304V28H369.956ZM378.901 28V19.5138H381.215V28H378.901ZM378.801 17.2265C378.801 16.5801 379.37 16.0497 380.061 16.0497C380.751 16.0497 381.32 16.5801 381.32 17.2265C381.32 17.8785 380.751 18.4033 380.061 18.4033C379.37 18.4033 378.801 17.8785 378.801 17.2265ZM387.491 19.5138V21.2541H385.888V25.3978C385.888 26.0718 386.22 26.232 386.695 26.2486C386.922 26.2541 387.325 26.2265 387.601 26.2099V28.0331C387.358 28.0718 386.944 28.116 386.38 28.116C384.701 28.116 383.562 27.3646 383.573 25.7127V21.2541H382.408V19.5138H383.573V17.4807H385.888V19.5138H387.491Z" fill="#88BFFF"/>
<rect x="350" y="1" width="58" height="42" rx="21" stroke="#88BFFF" stroke-width="2"/>
<rect x="415" width="108" height="44" rx="22" fill="#88BFFF"/>
<path d="M436.149 28V16.6851H443.254V18.1657H437.867V21.5967H442.884V23.0718H437.867V26.5193H443.315V28H436.149ZM452.48 19.5138L449.397 28H447.613L444.536 19.5138H446.326L448.464 26.0331H448.552L450.696 19.5138H452.48ZM457.211 28.1713C454.708 28.1713 453.167 26.4475 453.167 23.8122C453.167 21.2044 454.73 19.4033 457.089 19.4033C459.023 19.4033 460.863 20.6022 460.863 23.6685V24.2597H454.824C454.868 25.8785 455.819 26.8011 457.222 26.8011C458.167 26.8011 458.78 26.3923 459.062 25.8674H460.752C460.377 27.2541 459.073 28.1713 457.211 28.1713ZM454.83 23.011H459.222C459.216 21.7238 458.382 20.7735 457.111 20.7735C455.774 20.7735 454.907 21.8177 454.83 23.011ZM462.517 28V19.5138H464.13V20.8674H464.218C464.528 19.9503 465.378 19.3867 466.367 19.3867C466.577 19.3867 466.909 19.4033 467.08 19.4254V21.0166C466.942 20.9834 466.55 20.9171 466.213 20.9171C465.047 20.9171 464.185 21.7182 464.185 22.8287V28H462.517ZM469.622 31.1823C469.28 31.1823 468.948 31.1713 468.727 31.1492L468.738 29.7514C468.926 29.768 469.247 29.7735 469.484 29.7735C469.998 29.7735 470.434 29.7403 470.827 28.6685L471.037 28.116L467.926 19.5138H469.711L471.849 26.0939H471.937L474.086 19.5138H475.871L472.374 29.1271C471.882 30.4696 471.02 31.1823 469.622 31.1823ZM480.115 28.1657C478.06 28.1657 476.563 26.5193 476.563 23.7735C476.563 21.0166 478.082 19.4033 480.132 19.4033C481.706 19.4033 482.275 20.3591 482.574 20.8895H482.662V16.6851H484.331V28H482.701V26.6796H482.574C482.264 27.2265 481.662 28.1657 480.115 28.1657ZM478.259 23.7569C478.259 25.4586 479.021 26.7459 480.491 26.7459C481.905 26.7459 482.701 25.5304 482.701 23.7569C482.701 21.989 481.922 20.8232 480.491 20.8232C479.005 20.8232 478.259 22.0773 478.259 23.7569ZM486.103 25.6022C486.103 23.674 487.75 23.1768 489.274 23.0663C489.849 23.0276 491.142 22.9613 491.506 22.9503V22.2597C491.506 21.3039 490.915 20.7514 489.777 20.7514C488.799 20.7514 488.203 21.1989 488.031 21.8287H486.368C486.523 20.4254 487.838 19.4033 489.838 19.4033C491.192 19.4033 493.169 19.9006 493.169 22.3646V28H491.545V26.8398H491.479C491.158 27.4807 490.374 28.1878 488.971 28.1878C487.357 28.1878 486.103 27.2652 486.103 25.6022ZM487.739 25.6243C487.739 26.442 488.407 26.8564 489.341 26.8564C490.705 26.8564 491.512 25.9448 491.512 24.9392V24.1657C491.131 24.1878 489.915 24.2707 489.512 24.2983C488.424 24.3757 487.739 24.7901 487.739 25.6243ZM495.904 31.1823C495.561 31.1823 495.23 31.1713 495.009 31.1492L495.02 29.7514C495.207 29.768 495.528 29.7735 495.765 29.7735C496.279 29.7735 496.716 29.7403 497.108 28.6685L497.318 28.116L494.207 19.5138H495.992L498.13 26.0939H498.218L500.368 19.5138H502.152L498.655 29.1271C498.163 30.4696 497.301 31.1823 495.904 31.1823Z" fill="white"/>
</svg>
