<svg width="32" height="32" viewBox="0 0 32 32" fill="none" xmlns="http://www.w3.org/2000/svg">
<path d="M22.6667 12L14.6667 20M14.6667 12L22.6667 20M3.62667 17.28L9.38667 24.96C9.856 25.5858 10.0907 25.8987 10.3881 26.1243C10.6515 26.3242 10.9498 26.4733 11.2677 26.5641C11.6267 26.6667 12.0178 26.6667 12.8 26.6667H22.9333C25.1735 26.6667 26.2936 26.6667 27.1493 26.2307C27.9019 25.8472 28.5139 25.2353 28.8974 24.4826C29.3333 23.627 29.3333 22.5069 29.3333 20.2667V11.7333C29.3333 9.49313 29.3333 8.37302 28.8974 7.51737C28.5139 6.76473 27.9019 6.1528 27.1493 5.76931C26.2936 5.33334 25.1735 5.33334 22.9333 5.33334H12.8C12.0178 5.33334 11.6267 5.33334 11.2677 5.43586C10.9498 5.52666 10.6515 5.6758 10.3881 5.87567C10.0907 6.10134 9.856 6.41423 9.38667 7.04L3.62667 14.72C3.28241 15.179 3.11028 15.4085 3.04393 15.6606C2.98536 15.8831 2.98536 16.1169 3.04393 16.3394C3.11028 16.5915 3.28241 16.821 3.62667 17.28Z" stroke="#232426" stroke-width="2.5" stroke-linecap="round" stroke-linejoin="round"/>
</svg>
