<svg width="360" height="26" viewBox="0 0 360 26" fill="none" xmlns="http://www.w3.org/2000/svg">
<path fill-rule="evenodd" clip-rule="evenodd" d="M6 0L0 6V26H360V6L354 0L348 6L342 0L336 6L330 0L324 6L318 0L312 6L306 0L300 6L294 0L288 6L282 0L276 6L270 0L264 6L258 0L252 6L246 0L240 6L234 0L228 6L222 0L216 6L210 0L204 6L198 0L192 6L186 0L180 6L174 0L168 6L162 0L156 6L150 0L144 6L138 0L132 6L126 0L120 6L114 0L108 6L102 0L96 6L90 0L84 6L78 0L72 6L66 0L60 6L54 0L48 6L42 0L36 6L30 0L24 6L18 0L12 6L6 0Z" fill="white"/>
</svg>
