<svg width="36" height="36" viewBox="0 0 36 36" fill="none" xmlns="http://www.w3.org/2000/svg">
<path d="M25.5 3.85742L26.4267 5.7108C26.8249 6.50726 27.024 6.9055 27.29 7.25059C27.5261 7.55681 27.8006 7.83133 28.1068 8.06738C28.4519 8.33338 28.8502 8.5325 29.6466 8.93073L31.5 9.85742L29.6466 10.7841C28.8502 11.1823 28.4519 11.3815 28.1068 11.6475C27.8006 11.8835 27.5261 12.158 27.29 12.4643C27.024 12.8093 26.8249 13.2076 26.4267 14.004L25.5 15.8574L24.5733 14.004C24.1751 13.2076 23.976 12.8093 23.71 12.4643C23.4739 12.158 23.1994 11.8835 22.8932 11.6475C22.5481 11.3815 22.1498 11.1823 21.3534 10.7841L19.5 9.85742L21.3534 8.93074C22.1498 8.5325 22.5481 8.33338 22.8932 8.06738C23.1994 7.83133 23.4739 7.55681 23.71 7.25059C23.976 6.9055 24.1751 6.50726 24.5733 5.7108L25.5 3.85742Z" fill="#FFD53F"/>
<path d="M30.393 24.3927C30.8633 23.3074 31.0985 22.7648 31.0044 22.5319C30.9208 22.3252 30.7467 22.1905 30.5256 22.1617C30.2765 22.1293 29.7168 22.5667 28.5976 23.4416C26.6588 24.957 24.2184 25.8601 21.5669 25.8601C15.2566 25.8601 10.1411 20.7447 10.1411 14.4344C10.1411 11.7827 11.0445 9.34191 12.5602 7.40309C13.4352 6.28387 13.8727 5.72426 13.8403 5.47518C13.8115 5.25408 13.6769 5.07988 13.4701 4.99633C13.2372 4.9022 12.6946 5.13731 11.6093 5.60753C6.54376 7.80227 3 12.8466 3 18.7187C3 26.6065 9.39438 33.0009 17.2822 33.0009C23.1539 33.0009 28.1981 29.4576 30.393 24.3927Z" fill="#FFD53F"/>
</svg>
