<svg width="36" height="36" viewBox="0 0 36 36" fill="none" xmlns="http://www.w3.org/2000/svg">
<mask id="mask0_888_27770" style="mask-type:alpha" maskUnits="userSpaceOnUse" x="0" y="0" width="36" height="36">
<rect width="36" height="36" fill="#D9D9D9"/>
</mask>
<g mask="url(#mask0_888_27770)">
<path d="M18 4.5C14.7179 4.5 11.5703 5.80391 9.24955 8.12489C6.92879 10.4459 5.625 13.5938 5.625 16.8761C5.625 17.1745 5.74353 17.4607 5.9545 17.6717C6.16548 17.8827 6.45163 18.0012 6.75 18.0012H29.25C29.5484 18.0012 29.8345 17.8827 30.0455 17.6717C30.2565 17.4607 30.375 17.1745 30.375 16.8761C30.375 13.5938 29.0712 10.4459 26.7504 8.12489C24.4297 5.80391 21.282 4.5 18 4.5Z" fill="#F9EDE1"/>
<path d="M30.7237 21.3736H21.375C21.0766 21.3736 20.7905 21.255 20.5795 21.044C20.3685 20.833 20.25 20.5469 20.25 20.2485C20.25 19.9501 20.3685 19.6639 20.5795 19.4529C20.7905 19.2419 21.0766 19.1234 21.375 19.1234H31.3087C31.4352 18.3799 31.4992 17.6272 31.5 16.8732C31.5 16.5748 31.3815 16.2886 31.1705 16.0776C30.9595 15.8666 30.6734 15.748 30.375 15.748H5.625C5.32663 15.748 5.04048 15.8666 4.8295 16.0776C4.61853 16.2886 4.5 16.5748 4.5 16.8732C4.50151 19.503 5.27099 22.0752 6.71394 24.2738C8.15689 26.4724 10.2105 28.2017 12.6225 29.2493H12.375C12.0766 29.2493 11.7905 29.3678 11.5795 29.5788C11.3685 29.7898 11.25 30.076 11.25 30.3744C11.25 30.6728 11.3685 30.959 11.5795 31.17C11.7905 31.381 12.0766 31.4995 12.375 31.4995H23.625C23.9234 31.4995 24.2095 31.381 24.4205 31.17C24.6315 30.959 24.75 30.6728 24.75 30.3744C24.75 30.076 24.6315 29.7898 24.4205 29.5788C24.2095 29.3678 23.9234 29.2493 23.625 29.2493H23.3775C25.0743 28.507 26.6014 27.4253 27.8647 26.0709C29.1281 24.7165 30.101 23.118 30.7237 21.3736Z" fill="#2DCD6F"/>
<path d="M5.27626 21.3736H14.625C14.9234 21.3736 15.2095 21.255 15.4205 21.044C15.6315 20.833 15.75 20.5469 15.75 20.2485C15.75 19.9501 15.6315 19.6639 15.4205 19.4529C15.2095 19.2419 14.9234 19.1234 14.625 19.1234H4.69127C4.56479 18.3799 4.50082 17.6272 4.50002 16.8732C4.50001 16.5748 4.61854 16.2886 4.82952 16.0776C5.0405 15.8666 5.32664 15.748 5.62501 15.748H30.375C30.6734 15.748 30.9595 15.8666 31.1705 16.0776C31.3815 16.2886 31.5 16.5748 31.5 16.8732C31.4985 19.503 30.729 22.0752 29.2861 24.2738C27.8431 26.4724 25.7895 28.2017 23.3775 29.2493H23.625C23.9234 29.2493 24.2095 29.3678 24.4205 29.5788C24.6315 29.7898 24.75 30.076 24.75 30.3744C24.75 30.6728 24.6315 30.959 24.4205 31.17C24.2095 31.381 23.9234 31.4995 23.625 31.4995H12.375C12.0766 31.4995 11.7905 31.381 11.5795 31.17C11.3685 30.959 11.25 30.6728 11.25 30.3744C11.25 30.076 11.3685 29.7898 11.5795 29.5788C11.7905 29.3678 12.0766 29.2493 12.375 29.2493H12.6225C10.9257 28.507 9.39864 27.4253 8.13529 26.0709C6.87193 24.7165 5.89898 23.118 5.27626 21.3736Z" fill="#2DCD6F"/>
</g>
</svg>
