<svg width="37" height="37" viewBox="0 0 37 37" fill="none" xmlns="http://www.w3.org/2000/svg">
<path d="M18.8867 26.2227C23.0289 26.2227 26.3867 22.8648 26.3867 18.7227C26.3867 14.5805 23.0289 11.2227 18.8867 11.2227C14.7446 11.2227 11.3867 14.5805 11.3867 18.7227C11.3867 22.8648 14.7446 26.2227 18.8867 26.2227Z" fill="#FFD53F"/>
<path d="M18.8867 3.72266V6.72266M18.8867 30.7227V33.7227M6.88672 18.7227H3.88672M10.3579 10.1938L8.23657 8.07251M27.4156 10.1938L29.5369 8.07251M10.3579 27.2577L8.23657 29.379M27.4156 27.2577L29.5369 29.379M33.8867 18.7227H30.8867M26.3867 18.7227C26.3867 22.8648 23.0289 26.2227 18.8867 26.2227C14.7446 26.2227 11.3867 22.8648 11.3867 18.7227C11.3867 14.5805 14.7446 11.2227 18.8867 11.2227C23.0289 11.2227 26.3867 14.5805 26.3867 18.7227Z" stroke="#FFD53F" stroke-width="1.6875" stroke-linecap="round" stroke-linejoin="round"/>
</svg>
