<svg width="36" height="35" viewBox="0 0 36 35" fill="none" xmlns="http://www.w3.org/2000/svg">
<path d="M21.2154 9.99805V2.49805C21.2154 2.16653 21.0799 1.84858 20.8388 1.61416C20.5977 1.37974 20.2707 1.24805 19.9297 1.24805H16.0725C15.7316 1.24805 15.4045 1.37974 15.1634 1.61416C14.9223 1.84858 14.7868 2.16653 14.7868 2.49805V9.99805C13.6 10.7651 12.6267 11.8056 11.9537 13.0269C11.2807 14.2483 10.9289 15.6125 10.9297 16.998V31.248C10.9297 31.9111 11.2006 32.547 11.6828 33.0158C12.1651 33.4847 12.8191 33.748 13.5011 33.748H22.5011C23.1831 33.748 23.8372 33.4847 24.3194 33.0158C24.8016 32.547 25.0725 31.9111 25.0725 31.248V16.998C25.0733 15.6125 24.7215 14.2483 24.0485 13.0269C23.3756 11.8056 22.4023 10.7651 21.2154 9.99805Z" fill="#2DCD6F" stroke="#2DCD6F" stroke-width="1.1413" stroke-linecap="round" stroke-linejoin="round"/>
<path d="M10.9297 18.748H25.0725" stroke="#2DCD6F" stroke-width="1.4" stroke-linecap="round" stroke-linejoin="round"/>
<path d="M25.0725 27.498H10.9297" stroke="#2DCD6F" stroke-width="1.4" stroke-linecap="round" stroke-linejoin="round"/>
<rect x="10.0801" y="18.9023" width="15.84" height="8.4" fill="white"/>
</svg>
