<svg width="25" height="24" viewBox="0 0 25 24" fill="none" xmlns="http://www.w3.org/2000/svg">
<path d="M9.031 13.359L15.178 16.941M15.169 7.059L9.031 10.641M20.2 5.7C20.2 7.19117 18.9912 8.4 17.5 8.4C16.0088 8.4 14.8 7.19117 14.8 5.7C14.8 4.20883 16.0088 3 17.5 3C18.9912 3 20.2 4.20883 20.2 5.7ZM9.4 12C9.4 13.4912 8.19117 14.7 6.7 14.7C5.20883 14.7 4 13.4912 4 12C4 10.5088 5.20883 9.3 6.7 9.3C8.19117 9.3 9.4 10.5088 9.4 12ZM20.2 18.3C20.2 19.7912 18.9912 21 17.5 21C16.0088 21 14.8 19.7912 14.8 18.3C14.8 16.8088 16.0088 15.6 17.5 15.6C18.9912 15.6 20.2 16.8088 20.2 18.3Z" stroke="#424347" stroke-width="2" stroke-linecap="round" stroke-linejoin="round"/>
</svg>
