<svg width="80" height="80" viewBox="0 0 80 80" fill="none" xmlns="http://www.w3.org/2000/svg">
<g id="Frame 54908">
<path id="Icon" d="M26.6667 31.6667H40M26.6667 43.3333H50M40 70C56.5685 70 70 56.5685 70 40C70 23.4315 56.5685 10 40 10C23.4315 10 10 23.4315 10 40C10 43.9905 10.7791 47.799 12.1935 51.2817C12.4642 51.9483 12.5996 52.2815 12.66 52.5509C12.7191 52.8145 12.7407 53.0095 12.7407 53.2796C12.7407 53.5557 12.6906 53.8564 12.5904 54.4578L10.6138 66.3175C10.4068 67.5594 10.3033 68.1804 10.4959 68.6294C10.6644 69.0224 10.9776 69.3356 11.3706 69.5041C11.8196 69.6967 12.4406 69.5932 13.6825 69.3862L25.5422 67.4096C26.1436 67.3094 26.4444 67.2593 26.7204 67.2593C26.9905 67.2593 27.1855 67.281 27.4491 67.34C27.7185 67.4004 28.0517 67.5358 28.7183 67.8065C32.201 69.2209 36.0095 70 40 70Z" stroke="white" stroke-width="3" stroke-linecap="round" stroke-linejoin="round"/>
</g>
</svg>
