<svg width="40" height="40" viewBox="0 0 40 40" fill="none" xmlns="http://www.w3.org/2000/svg">
<path opacity="0.2" d="M20 3.75C16.6848 3.75 13.5054 5.06696 11.1612 7.41117C8.81696 9.75537 7.5 12.9348 7.5 16.25C7.5 27.5 20 36.25 20 36.25C20 36.25 32.5 27.5 32.5 16.25C32.5 12.9348 31.183 9.75537 28.8388 7.41117C26.4946 5.06696 23.3152 3.75 20 3.75ZM20 21.25C19.0111 21.25 18.0444 20.9568 17.2221 20.4073C16.3999 19.8579 15.759 19.077 15.3806 18.1634C15.0022 17.2498 14.9031 16.2445 15.0961 15.2745C15.289 14.3046 15.7652 13.4137 16.4645 12.7145C17.1637 12.0152 18.0546 11.539 19.0245 11.3461C19.9945 11.1531 20.9998 11.2522 21.9134 11.6306C22.827 12.009 23.6079 12.6499 24.1573 13.4721C24.7068 14.2944 25 15.2611 25 16.25C25 17.5761 24.4732 18.8479 23.5355 19.7855C22.5979 20.7232 21.3261 21.25 20 21.25Z" fill="#2F2B3D" fill-opacity="0.9"/>
<path d="M20 21.25C22.7614 21.25 25 19.0114 25 16.25C25 13.4886 22.7614 11.25 20 11.25C17.2386 11.25 15 13.4886 15 16.25C15 19.0114 17.2386 21.25 20 21.25Z" stroke="#2F2B3D" stroke-opacity="0.9" stroke-width="2" stroke-linecap="round" stroke-linejoin="round"/>
<path d="M32.5 16.25C32.5 27.5 20 36.25 20 36.25C20 36.25 7.5 27.5 7.5 16.25C7.5 12.9348 8.81696 9.75537 11.1612 7.41117C13.5054 5.06696 16.6848 3.75 20 3.75C23.3152 3.75 26.4946 5.06696 28.8388 7.41117C31.183 9.75537 32.5 12.9348 32.5 16.25Z" stroke="#2F2B3D" stroke-opacity="0.9" stroke-width="2" stroke-linecap="round" stroke-linejoin="round"/>
</svg>
