<svg width="40" height="40" viewBox="0 0 40 40" fill="none" xmlns="http://www.w3.org/2000/svg">
<path opacity="0.2" d="M3.75 15.1406H36.25V30C36.25 30.3315 36.1183 30.6495 35.8839 30.8839C35.6495 31.1183 35.3315 31.25 35 31.25H5C4.66848 31.25 4.35054 31.1183 4.11612 30.8839C3.8817 30.6495 3.75 30.3315 3.75 30V15.1406Z" fill="#2F2B3D" fill-opacity="0.9"/>
<path d="M26.25 26.25H31.25M18.75 26.25H21.25M3.75 15.1406H36.25M5 8.75H35C35.6904 8.75 36.25 9.30964 36.25 10V30C36.25 30.6904 35.6904 31.25 35 31.25H5C4.30964 31.25 3.75 30.6904 3.75 30V10C3.75 9.30964 4.30964 8.75 5 8.75Z" stroke="#2F2B3D" stroke-opacity="0.9" stroke-width="2" stroke-linecap="round" stroke-linejoin="round"/>
</svg>
