<svg width="40" height="40" viewBox="0 0 40 40" fill="none" xmlns="http://www.w3.org/2000/svg">
<path opacity="0.2" d="M28.75 6.25H20L12.3281 16.25L20 35L37.5 16.25L28.75 6.25Z" fill="#2F2B3D" fill-opacity="0.9"/>
<path d="M11.25 6.25H28.75L37.5 16.25L20 35L2.5 16.25L11.25 6.25Z" stroke="#2F2B3D" stroke-opacity="0.9" stroke-width="2" stroke-linecap="round" stroke-linejoin="round"/>
<path d="M20 5.25C20.3109 5.25 20.6037 5.39493 20.793 5.6416L28.1641 15.25H37.5C38.0523 15.25 38.5 15.6977 38.5 16.25C38.5 16.8023 38.0523 17.25 37.5 17.25H28.3438L20.9258 35.3789C20.772 35.7546 20.406 36 20 36C19.594 36 19.228 35.7546 19.0742 35.3789L11.6562 17.25H2.5C1.94772 17.25 1.5 16.8023 1.5 16.25C1.5 15.6977 1.94772 15.25 2.5 15.25H11.8359L19.207 5.6416L19.2822 5.55371C19.4694 5.36074 19.7279 5.25 20 5.25ZM13.8184 17.25L20 32.3584L26.1807 17.25H13.8184ZM14.3545 15.25H25.6455L20 7.8916L14.3545 15.25Z" fill="#2F2B3D" fill-opacity="0.9"/>
</svg>
