<svg width="40" height="40" viewBox="0 0 40 40" fill="none" xmlns="http://www.w3.org/2000/svg">
<path opacity="0.2" d="M15.7812 28.4531L13.8906 32.2031C13.7689 32.4589 13.562 32.6642 13.3054 32.784C13.0488 32.9038 12.7585 32.9304 12.4843 32.8594C8.65621 31.9219 5.34371 30.2969 2.93746 28.2031C2.75605 28.0431 2.62431 27.8344 2.55785 27.6018C2.49139 27.3692 2.49299 27.1224 2.56246 26.8906L7.85934 9.20313C7.91089 9.02212 8.00418 8.85573 8.13173 8.71733C8.25927 8.57893 8.41751 8.47239 8.59371 8.40626C10.0902 7.79231 11.6379 7.31128 13.2187 6.96876C13.5225 6.90222 13.8402 6.94988 14.1111 7.10262C14.382 7.25536 14.5872 7.5025 14.6875 7.79688L15.9218 11.5313C18.6277 11.1562 21.3723 11.1562 24.0781 11.5313L25.3125 7.79688C25.4128 7.5025 25.6179 7.25536 25.8889 7.10262C26.1598 6.94988 26.4774 6.90222 26.7812 6.96876C28.3621 7.31128 29.9097 7.79231 31.4062 8.40626C31.5824 8.47239 31.7407 8.57893 31.8682 8.71733C31.9957 8.85573 32.089 9.02212 32.1406 9.20313L37.4375 26.8906C37.5069 27.1224 37.5085 27.3692 37.4421 27.6018C37.3756 27.8344 37.2439 28.0431 37.0625 28.2031C34.6562 30.2969 31.3437 31.9219 27.5156 32.8594C27.2415 32.9304 26.9511 32.9038 26.6945 32.784C26.4379 32.6642 26.231 32.4589 26.1093 32.2031L24.2187 28.4531C22.821 28.6497 21.4114 28.7489 20 28.75C18.5885 28.7489 17.1789 28.6497 15.7812 28.4531Z" fill="#2F2B3D" fill-opacity="0.9"/>
<path d="M15 20.625C16.0355 20.625 16.875 21.4645 16.875 22.5C16.875 23.5355 16.0355 24.375 15 24.375C13.9645 24.375 13.125 23.5355 13.125 22.5C13.125 21.4645 13.9645 20.625 15 20.625ZM25 20.625C26.0355 20.625 26.875 21.4645 26.875 22.5C26.875 23.5355 26.0355 24.375 25 24.375C23.9645 24.375 23.125 23.5355 23.125 22.5C23.125 21.4645 23.9645 20.625 25 20.625Z" fill="#2F2B3D" fill-opacity="0.9"/>
<path d="M11.625 12.5C14.3347 11.6507 17.1603 11.229 20 11.25C22.8396 11.229 25.6652 11.6507 28.375 12.5M28.375 27.5C25.6652 28.3493 22.8396 28.771 20 28.75C17.1603 28.771 14.3347 28.3493 11.625 27.5M24.2187 28.4531L26.1093 32.2031C26.231 32.4589 26.4379 32.6642 26.6945 32.784C26.9511 32.9038 27.2415 32.9304 27.5156 32.8594C31.3437 31.9219 34.6562 30.2969 37.0625 28.2031C37.2439 28.0431 37.3756 27.8344 37.4421 27.6018C37.5085 27.3692 37.5069 27.1224 37.4375 26.8906L32.1406 9.20313C32.089 9.02212 31.9957 8.85573 31.8682 8.71733C31.7407 8.57893 31.5824 8.47239 31.4062 8.40626C29.9097 7.79231 28.3621 7.31128 26.7812 6.96876C26.4774 6.90222 26.1598 6.94988 25.8889 7.10262C25.6179 7.25536 25.4128 7.5025 25.3125 7.79688L24.0781 11.5313M15.7812 28.4531L13.8906 32.2031C13.7689 32.4589 13.562 32.6642 13.3054 32.784C13.0488 32.9038 12.7585 32.9304 12.4843 32.8594C8.65621 31.9219 5.34371 30.2969 2.93746 28.2031C2.75605 28.0431 2.62431 27.8344 2.55785 27.6018C2.49139 27.3692 2.49299 27.1224 2.56246 26.8906L7.85934 9.20313C7.91089 9.02212 8.00418 8.85573 8.13173 8.71733C8.25927 8.57893 8.41751 8.47239 8.59371 8.40626C10.0902 7.79231 11.6379 7.31128 13.2187 6.96876C13.5225 6.90222 13.8402 6.94988 14.1111 7.10262C14.382 7.25536 14.5872 7.5025 14.6875 7.79688L15.9218 11.5313" stroke="#2F2B3D" stroke-opacity="0.9" stroke-width="2" stroke-linecap="round" stroke-linejoin="round"/>
</svg>
