<svg width="34" height="34" viewBox="0 0 34 34" fill="none" xmlns="http://www.w3.org/2000/svg">
<g clip-path="url(#clip0_320_106042)">
<mask id="mask0_320_106042" style="mask-type:alpha" maskUnits="userSpaceOnUse" x="0" y="0" width="34" height="34">
<path d="M17 34C26.3888 34 34 26.3888 34 17C34 7.61116 26.3888 0 17 0C7.61116 0 0 7.61116 0 17C0 26.3888 7.61116 34 17 34Z" fill="white"/>
</mask>
<g mask="url(#mask0_320_106042)">
<mask id="mask1_320_106042" style="mask-type:alpha" maskUnits="userSpaceOnUse" x="-6" y="0" width="46" height="34">
<path d="M39.6667 0H-5.66666V34H39.6667V0Z" fill="white"/>
</mask>
<g mask="url(#mask1_320_106042)">
<path d="M5.66669 0H39.6667V34H5.66669V0Z" fill="#EF0000"/>
<path d="M-5.66666 0H11.3333V34H-5.66666V0Z" fill="#2F8D00"/>
<mask id="mask2_320_106042" style="mask-type:alpha" maskUnits="userSpaceOnUse" x="0" y="5" width="23" height="24">
<path d="M11.1984 28.0603C5.16272 28.0603 0.269836 23.1085 0.269836 17.0001C0.269836 10.8917 5.16272 5.93982 11.1984 5.93982C17.2341 5.93982 22.127 10.8917 22.127 17.0001C22.127 23.1085 17.2341 28.0603 11.1984 28.0603Z" fill="white"/>
</mask>
<g mask="url(#mask2_320_106042)">
<path d="M10.5238 5.66675H11.9405V9.49004H10.5238V5.66675Z" fill="#FFE017"/>
</g>
<mask id="mask3_320_106042" style="mask-type:alpha" maskUnits="userSpaceOnUse" x="0" y="5" width="23" height="24">
<path d="M11.1984 28.0603C5.16272 28.0603 0.269836 23.1085 0.269836 17.0001C0.269836 10.8917 5.16272 5.93982 11.1984 5.93982C17.2341 5.93982 22.127 10.8917 22.127 17.0001C22.127 23.1085 17.2341 28.0603 11.1984 28.0603Z" fill="white"/>
</mask>
<g mask="url(#mask3_320_106042)">
<path d="M10.5238 24.7832H11.9405V28.3334H10.5238V24.7832Z" fill="#FFE017"/>
</g>
<mask id="mask4_320_106042" style="mask-type:alpha" maskUnits="userSpaceOnUse" x="0" y="5" width="23" height="24">
<path d="M11.1984 28.0603C5.16272 28.0603 0.269836 23.1085 0.269836 17.0001C0.269836 10.8917 5.16272 5.93982 11.1984 5.93982C17.2341 5.93982 22.127 10.8917 22.127 17.0001C22.127 23.1085 17.2341 28.0603 11.1984 28.0603Z" fill="white"/>
</mask>
<g mask="url(#mask4_320_106042)">
<path d="M0.445484 17.5721L0.049408 16.5559C4.42009 14.811 7.71888 13.6858 9.9572 13.1786C13.2412 12.4346 16.8496 11.8841 20.7825 11.5267L20.879 12.6147C16.9912 12.968 13.4291 13.5114 10.193 14.2446C8.02132 14.7367 4.76834 15.8463 0.445484 17.5721Z" fill="#FFE017"/>
</g>
<mask id="mask5_320_106042" style="mask-type:alpha" maskUnits="userSpaceOnUse" x="0" y="5" width="23" height="24">
<path d="M11.1984 28.0603C5.16272 28.0603 0.269836 23.1085 0.269836 17.0001C0.269836 10.8917 5.16272 5.93982 11.1984 5.93982C17.2341 5.93982 22.127 10.8917 22.127 17.0001C22.127 23.1085 17.2341 28.0603 11.1984 28.0603Z" fill="white"/>
</mask>
<g mask="url(#mask5_320_106042)">
<path d="M21.4495 10.8573L21.1281 11.9001C17.8249 10.8573 15.134 10.409 13.0656 10.5479L12.9942 9.45789C15.215 9.30882 18.0301 9.77777 21.4495 10.8573Z" fill="#FFE017"/>
</g>
<mask id="mask6_320_106042" style="mask-type:alpha" maskUnits="userSpaceOnUse" x="0" y="5" width="23" height="24">
<path d="M11.1984 28.0603C5.16272 28.0603 0.269836 23.1085 0.269836 17.0001C0.269836 10.8917 5.16272 5.93982 11.1984 5.93982C17.2341 5.93982 22.127 10.8917 22.127 17.0001C22.127 23.1085 17.2341 28.0603 11.1984 28.0603Z" fill="white"/>
</mask>
<g mask="url(#mask6_320_106042)">
<path d="M22.5925 16.6881L21.9819 17.5889C20.2979 16.4197 18.2233 15.8325 15.7439 15.8325V14.7401C18.4318 14.7401 20.7194 15.3876 22.5925 16.6881Z" fill="#FFE017"/>
</g>
<mask id="mask7_320_106042" style="mask-type:alpha" maskUnits="userSpaceOnUse" x="0" y="5" width="23" height="24">
<path d="M11.1984 28.0603C5.16272 28.0603 0.269836 23.1085 0.269836 17.0001C0.269836 10.8917 5.16272 5.93982 11.1984 5.93982C17.2341 5.93982 22.127 10.8917 22.127 17.0001C22.127 23.1085 17.2341 28.0603 11.1984 28.0603Z" fill="white"/>
</mask>
<g mask="url(#mask7_320_106042)">
<path d="M21.6778 17.015L21.9569 18.0702C18.3265 19.0536 14.9181 19.6115 11.7314 19.7429C8.52268 19.8752 4.78288 19.3153 0.508759 18.0674L0.807935 17.0178C4.97818 18.2354 8.60575 18.7785 11.6874 18.6514C14.7911 18.5235 18.1213 17.9784 21.6778 17.015Z" fill="#FFE017"/>
</g>
<mask id="mask8_320_106042" style="mask-type:alpha" maskUnits="userSpaceOnUse" x="0" y="5" width="23" height="24">
<path d="M11.1984 28.0603C5.16272 28.0603 0.269836 23.1085 0.269836 17.0001C0.269836 10.8917 5.16272 5.93982 11.1984 5.93982C17.2341 5.93982 22.127 10.8917 22.127 17.0001C22.127 23.1085 17.2341 28.0603 11.1984 28.0603Z" fill="white"/>
</mask>
<g mask="url(#mask8_320_106042)">
<path d="M21.2666 22.1509L19.5605 23.9C16.3182 20.6607 13.4637 18.3445 11.0146 16.9528C8.52365 15.5374 5.27525 14.1001 1.27441 12.6467L2.09487 10.3334C6.2137 11.8296 9.58159 13.3198 12.2036 14.8097C14.8674 16.3235 17.8826 18.77 21.2666 22.1509Z" fill="#FFE017"/>
</g>
<mask id="mask9_320_106042" style="mask-type:alpha" maskUnits="userSpaceOnUse" x="0" y="5" width="23" height="24">
<path d="M11.1984 28.0603C5.16272 28.0603 0.269836 23.1085 0.269836 17.0001C0.269836 10.8917 5.16272 5.93982 11.1984 5.93982C17.2341 5.93982 22.127 10.8917 22.127 17.0001C22.127 23.1085 17.2341 28.0603 11.1984 28.0603Z" fill="white"/>
</mask>
<g mask="url(#mask9_320_106042)">
<path d="M2.06594 23.1417L1.42014 22.2664C1.51032 22.1983 1.67123 22.0846 1.89294 21.9406C2.25901 21.7028 2.6655 21.4653 3.10286 21.2435C4.30746 20.6324 5.51579 20.2509 6.66827 20.2158C6.72464 20.2141 6.78076 20.2133 6.83665 20.2133V21.3056C6.79163 21.3056 6.74631 21.3063 6.70069 21.3077C5.72947 21.3372 4.6629 21.674 3.58653 22.22C3.18533 22.4236 2.81151 22.6419 2.47602 22.8598C2.35924 22.9357 2.25592 23.0059 2.16739 23.0684C2.11577 23.1049 2.08151 23.1299 2.06594 23.1417Z" fill="#FFE017"/>
</g>
<mask id="mask10_320_106042" style="mask-type:alpha" maskUnits="userSpaceOnUse" x="0" y="5" width="23" height="24">
<path d="M11.1984 28.0603C5.16272 28.0603 0.269836 23.1085 0.269836 17.0001C0.269836 10.8917 5.16272 5.93982 11.1984 5.93982C17.2341 5.93982 22.127 10.8917 22.127 17.0001C22.127 23.1085 17.2341 28.0603 11.1984 28.0603Z" fill="white"/>
</mask>
<g mask="url(#mask10_320_106042)">
<path d="M2.5672 23.5204L2.83902 22.4632C6.43752 23.4109 9.21176 23.8831 11.1479 23.8831C13.0768 23.8831 15.9478 23.3261 19.7423 22.2081L20.044 23.257C16.1598 24.4013 13.2006 24.9755 11.1479 24.9755C9.1024 24.9755 6.24678 24.4894 2.5672 23.5204Z" fill="#FFE017"/>
</g>
<mask id="mask11_320_106042" style="mask-type:alpha" maskUnits="userSpaceOnUse" x="0" y="5" width="23" height="24">
<path d="M11.1984 28.0603C5.16272 28.0603 0.269836 23.1085 0.269836 17.0001C0.269836 10.8917 5.16272 5.93982 11.1984 5.93982C17.2341 5.93982 22.127 10.8917 22.127 17.0001C22.127 23.1085 17.2341 28.0603 11.1984 28.0603Z" fill="white"/>
</mask>
<g mask="url(#mask11_320_106042)">
<path d="M1.16513 13.7338L2.87516 11.9885L5.37886 14.5012L3.66884 16.2464L1.16513 13.7338Z" fill="#FFE017"/>
</g>
<mask id="mask12_320_106042" style="mask-type:alpha" maskUnits="userSpaceOnUse" x="0" y="5" width="23" height="24">
<path d="M11.1984 28.0603C5.16272 28.0603 0.269836 23.1085 0.269836 17.0001C0.269836 10.8917 5.16272 5.93982 11.1984 5.93982C17.2341 5.93982 22.127 10.8917 22.127 17.0001C22.127 23.1085 17.2341 28.0603 11.1984 28.0603Z" fill="white"/>
</mask>
<g mask="url(#mask12_320_106042)">
<path d="M15.3509 22.4511L16.6228 20.3573L20.5946 22.8286L19.3227 24.9224L15.3509 22.4511Z" fill="#FFE017"/>
</g>
<path d="M11.1984 5.93982C17.2341 5.93982 22.127 10.8917 22.127 17.0001C22.127 23.1085 17.2341 28.0603 11.1984 28.0603C5.16272 28.0603 0.269836 23.1085 0.269836 17.0001C0.269836 10.8917 5.16272 5.93982 11.1984 5.93982ZM11.3333 7.57837C6.11731 7.57837 1.88888 11.8577 1.88888 17.1366C1.88888 22.4155 6.11731 26.6948 11.3333 26.6948C16.5494 26.6948 20.7778 22.4155 20.7778 17.1366C20.7778 11.8577 16.5494 7.57837 11.3333 7.57837Z" fill="#F9E813"/>
<path d="M5.1803 10.1792V19.0485C5.76415 22.5591 7.73114 24.3145 11.0813 24.3145C14.4314 24.3145 16.3984 22.5591 16.9822 19.0485V10.1792H5.1803Z" fill="white"/>
<path d="M4.37079 9.35986H17.7918V19.1169L17.7805 19.1845C17.1322 23.0827 14.8339 25.1337 11.0813 25.1337C7.32868 25.1337 5.03034 23.0827 4.38202 19.1845L4.37079 19.1169V9.35986Z" fill="#C51918"/>
<path d="M7.44064 12.3402H14.7219V18.6315C14.3617 20.7974 13.1482 21.8803 11.0813 21.8803C9.0144 21.8803 7.80086 20.7974 7.44064 18.6315V12.3402Z" fill="#F7FCFF"/>
<path d="M5.66666 10.0361H6.69075V10.7189H5.66666V10.0361Z" fill="#F9E813"/>
<path d="M5.12698 10.3092H7.01587V10.6506H5.12698V10.3092Z" fill="#060101"/>
<path d="M5.12698 10.5823H6.15108V10.9236H5.12698V10.5823Z" fill="#F9E813"/>
<path d="M6.20636 10.5823H7.23046V10.9236H6.20636V10.5823Z" fill="#F9E813"/>
<path d="M5.12698 11.4016H5.80971V12.4257H5.12698V11.4016Z" fill="#F9E813"/>
<path d="M6.4762 11.4016H7.15893V12.4257H6.4762V11.4016Z" fill="#F9E813"/>
<path d="M5.93649 11.4016H6.27786V12.4257H5.93649V11.4016Z" fill="#F9E813"/>
<path d="M5.12698 11.1285H7.01587V11.4699H5.12698V11.1285Z" fill="#060101"/>
<path d="M5.12698 11.9478H7.01587V12.2891H5.12698V11.9478Z" fill="#060101"/>
<path d="M5.39682 10.8555H5.73819V11.1968H5.39682V10.8555Z" fill="#F9E813"/>
<path d="M6.4762 10.8555H6.81756V11.1968H6.4762V10.8555Z" fill="#F9E813"/>
<path d="M5.93649 10.5823H6.27786V11.265H5.93649V10.5823Z" fill="#F9E813"/>
<path d="M10.7936 10.0361H11.8177V10.7189H10.7936V10.0361Z" fill="#F9E813"/>
<path d="M10.254 10.3092H12.1429V10.6506H10.254V10.3092Z" fill="#060101"/>
<path d="M10.254 10.5823H11.2781V10.9236H10.254V10.5823Z" fill="#F9E813"/>
<path d="M11.3333 10.5823H12.3574V10.9236H11.3333V10.5823Z" fill="#F9E813"/>
<path d="M10.254 11.4016H10.9367V12.4257H10.254V11.4016Z" fill="#F9E813"/>
<path d="M11.6032 11.4016H12.2859V12.4257H11.6032V11.4016Z" fill="#F9E813"/>
<path d="M11.0635 11.4016H11.4048V12.4257H11.0635V11.4016Z" fill="#F9E813"/>
<path d="M10.254 11.1285H12.1429V11.4699H10.254V11.1285Z" fill="#060101"/>
<path d="M10.254 11.9478H12.1429V12.2891H10.254V11.9478Z" fill="#060101"/>
<path d="M10.5238 10.8555H10.8652V11.1968H10.5238V10.8555Z" fill="#F9E813"/>
<path d="M11.6032 10.8555H11.9445V11.1968H11.6032V10.8555Z" fill="#F9E813"/>
<path d="M11.0635 10.5823H11.4048V11.265H11.0635V10.5823Z" fill="#F9E813"/>
<path d="M15.6508 10.0361H16.6749V10.7189H15.6508V10.0361Z" fill="#F9E813"/>
<path d="M15.1111 10.3092H17V10.6506H15.1111V10.3092Z" fill="#060101"/>
<path d="M15.1111 10.5823H16.1352V10.9236H15.1111V10.5823Z" fill="#F9E813"/>
<path d="M16.1905 10.5823H17.2146V10.9236H16.1905V10.5823Z" fill="#F9E813"/>
<path d="M15.1111 11.4016H15.7938V12.4257H15.1111V11.4016Z" fill="#F9E813"/>
<path d="M16.4603 11.4016H17.1431V12.4257H16.4603V11.4016Z" fill="#F9E813"/>
<path d="M15.9206 11.4016H16.262V12.4257H15.9206V11.4016Z" fill="#F9E813"/>
<path d="M15.1111 11.1285H17V11.4699H15.1111V11.1285Z" fill="#060101"/>
<path d="M15.1111 11.9478H17V12.2891H15.1111V11.9478Z" fill="#060101"/>
<path d="M15.381 10.8555H15.7223V11.1968H15.381V10.8555Z" fill="#F9E813"/>
<path d="M16.4603 10.8555H16.8017V11.1968H16.4603V10.8555Z" fill="#F9E813"/>
<path d="M15.9206 10.5823H16.262V11.265H15.9206V10.5823Z" fill="#F9E813"/>
<path d="M15.6508 14.9518H16.6749V15.6345H15.6508V14.9518Z" fill="#F9E813"/>
<path d="M15.1111 15.2249H17V15.5662H15.1111V15.2249Z" fill="#060101"/>
<path d="M15.1111 15.4979H16.1352V15.8393H15.1111V15.4979Z" fill="#F9E813"/>
<path d="M16.1905 15.4979H17.2146V15.8393H16.1905V15.4979Z" fill="#F9E813"/>
<path d="M15.1111 16.3173H15.7938V17.3414H15.1111V16.3173Z" fill="#F9E813"/>
<path d="M16.4603 16.3173H17.1431V17.3414H16.4603V16.3173Z" fill="#F9E813"/>
<path d="M15.9206 16.3173H16.262V17.3414H15.9206V16.3173Z" fill="#F9E813"/>
<path d="M15.1111 16.0442H17V16.3856H15.1111V16.0442Z" fill="#060101"/>
<path d="M15.1111 16.8634H17V17.2048H15.1111V16.8634Z" fill="#060101"/>
<path d="M15.381 15.7711H15.7223V16.1125H15.381V15.7711Z" fill="#F9E813"/>
<path d="M16.4603 15.7711H16.8017V16.1125H16.4603V15.7711Z" fill="#F9E813"/>
<path d="M15.9206 15.4979H16.262V16.1807H15.9206V15.4979Z" fill="#F9E813"/>
<path d="M5.66666 14.9518H6.69075V15.6345H5.66666V14.9518Z" fill="#F9E813"/>
<path d="M5.12698 15.2249H7.01587V15.5662H5.12698V15.2249Z" fill="#060101"/>
<path d="M5.12698 15.4979H6.15108V15.8393H5.12698V15.4979Z" fill="#F9E813"/>
<path d="M6.20636 15.4979H7.23046V15.8393H6.20636V15.4979Z" fill="#F9E813"/>
<path d="M5.12698 16.3173H5.80971V17.3414H5.12698V16.3173Z" fill="#F9E813"/>
<path d="M6.4762 16.3173H7.15893V17.3414H6.4762V16.3173Z" fill="#F9E813"/>
<path d="M5.93649 16.3173H6.27786V17.3414H5.93649V16.3173Z" fill="#F9E813"/>
<path d="M5.12698 16.0442H7.01587V16.3856H5.12698V16.0442Z" fill="#060101"/>
<path d="M5.12698 16.8634H7.01587V17.2048H5.12698V16.8634Z" fill="#060101"/>
<path d="M5.39682 15.7711H5.73819V16.1125H5.39682V15.7711Z" fill="#F9E813"/>
<path d="M6.4762 15.7711H6.81756V16.1125H6.4762V15.7711Z" fill="#F9E813"/>
<path d="M5.93649 15.4979H6.27786V16.1807H5.93649V15.4979Z" fill="#F9E813"/>
<path d="M6.32364 21.1139L6.98192 20.3294L7.50492 20.7682L6.84664 21.5527L6.32364 21.1139Z" fill="#F9E813"/>
<path d="M6.18594 21.7029L7.4001 20.2559L7.6616 20.4753L6.44744 21.9223L6.18594 21.7029Z" fill="#060101"/>
<path d="M6.39514 21.8784L7.05342 21.0939L7.31492 21.3133L6.65664 22.0978L6.39514 21.8784Z" fill="#F9E813"/>
<path d="M7.08896 21.0516L7.74724 20.2671L8.00874 20.4866L7.35046 21.2711L7.08896 21.0516Z" fill="#F9E813"/>
<path d="M7.02274 22.405L7.46159 21.882L8.24609 22.5403L7.80724 23.0633L7.02274 22.405Z" fill="#F9E813"/>
<path d="M7.89001 21.3715L8.32887 20.8485L9.11337 21.5067L8.67452 22.0297L7.89001 21.3715Z" fill="#F9E813"/>
<path d="M7.54309 21.7849L7.76252 21.5234L8.54702 22.1817L8.32759 22.4432L7.54309 21.7849Z" fill="#F9E813"/>
<path d="M6.81354 22.2295L8.02769 20.7825L8.28919 21.0019L7.07504 22.4489L6.81354 22.2295Z" fill="#060101"/>
<path d="M7.44116 22.7561L8.65532 21.3091L8.91682 21.5286L7.70266 22.9755L7.44116 22.7561Z" fill="#060101"/>
<path d="M6.7778 21.8473L6.99723 21.5858L7.25873 21.8052L7.0393 22.0667L6.7778 21.8473Z" fill="#F9E813"/>
<path d="M7.47159 21.0204L7.69101 20.7589L7.95251 20.9783L7.73309 21.2398L7.47159 21.0204Z" fill="#F9E813"/>
<path d="M6.9155 21.2583L7.13492 20.9968L7.65792 21.4357L7.4385 21.6972L6.9155 21.2583Z" fill="#F9E813"/>
<path d="M15.5528 20.4938L16.2111 21.2783L15.6881 21.7171L15.0298 20.9326L15.5528 20.4938Z" fill="#F9E813"/>
<path d="M14.9967 20.2559L16.2109 21.7028L15.9494 21.9223L14.7352 20.4753L14.9967 20.2559Z" fill="#060101"/>
<path d="M14.7875 20.4314L15.4458 21.2159L15.1843 21.4353L14.526 20.6508L14.7875 20.4314Z" fill="#F9E813"/>
<path d="M15.4813 21.2583L16.1396 22.0428L15.8781 22.2622L15.2198 21.4777L15.4813 21.2583Z" fill="#F9E813"/>
<path d="M14.1599 20.958L14.5988 21.481L13.8143 22.1393L13.3754 21.6163L14.1599 20.958Z" fill="#F9E813"/>
<path d="M15.0272 21.9916L15.466 22.5146L14.6815 23.1729L14.2427 22.6499L15.0272 21.9916Z" fill="#F9E813"/>
<path d="M14.6802 21.5781L14.8997 21.8396L14.1152 22.4979L13.8957 22.2364L14.6802 21.5781Z" fill="#F9E813"/>
<path d="M14.3691 20.7825L15.5833 22.2294L15.3218 22.4489L14.1076 21.0019L14.3691 20.7825Z" fill="#060101"/>
<path d="M13.7415 21.3091L14.9556 22.7561L14.6941 22.9755L13.48 21.5285L13.7415 21.3091Z" fill="#060101"/>
<path d="M14.7517 20.8136L14.9712 21.0751L14.7097 21.2945L14.4902 21.033L14.7517 20.8136Z" fill="#F9E813"/>
<path d="M15.4456 21.6405L15.665 21.902L15.4035 22.1214L15.1841 21.8599L15.4456 21.6405Z" fill="#F9E813"/>
<path d="M15.3079 21.0515L15.5273 21.313L15.0043 21.7519L14.7849 21.4904L15.3079 21.0515Z" fill="#F9E813"/>
<path d="M12.1244 13.0402V14.4022C12.0319 14.8712 11.7202 15.1056 11.1892 15.1056C10.6582 15.1056 10.3465 14.8712 10.254 14.4022V13.0402H12.1244ZM10.7936 14.4056C10.6446 14.4056 10.5238 14.5279 10.5238 14.6787C10.5238 14.8295 10.6446 14.9518 10.7936 14.9518C10.9427 14.9518 11.0635 14.8295 11.0635 14.6787C11.0635 14.5279 10.9427 14.4056 10.7936 14.4056ZM11.6032 14.4056C11.4541 14.4056 11.3333 14.5279 11.3333 14.6787C11.3333 14.8295 11.4541 14.9518 11.6032 14.9518C11.7522 14.9518 11.873 14.8295 11.873 14.6787C11.873 14.5279 11.7522 14.4056 11.6032 14.4056ZM11.1984 13.8594C11.0494 13.8594 10.9286 13.9817 10.9286 14.1325C10.9286 14.2834 11.0494 14.4056 11.1984 14.4056C11.3474 14.4056 11.4683 14.2834 11.4683 14.1325C11.4683 13.9817 11.3474 13.8594 11.1984 13.8594ZM10.7936 13.3133C10.6446 13.3133 10.5238 13.4355 10.5238 13.5863C10.5238 13.7372 10.6446 13.8594 10.7936 13.8594C10.9427 13.8594 11.0635 13.7372 11.0635 13.5863C11.0635 13.4355 10.9427 13.3133 10.7936 13.3133ZM11.6032 13.3133C11.4541 13.3133 11.3333 13.4355 11.3333 13.5863C11.3333 13.7372 11.4541 13.8594 11.6032 13.8594C11.7522 13.8594 11.873 13.7372 11.873 13.5863C11.873 13.4355 11.7522 13.3133 11.6032 13.3133Z" fill="#013399"/>
<path d="M12.1244 16.0442V17.4063C12.0319 17.8752 11.7202 18.1097 11.1892 18.1097C10.6582 18.1097 10.3465 17.8752 10.254 17.4063V16.0442H12.1244ZM10.7936 17.4097C10.6446 17.4097 10.5238 17.5319 10.5238 17.6827C10.5238 17.8336 10.6446 17.9558 10.7936 17.9558C10.9427 17.9558 11.0635 17.8336 11.0635 17.6827C11.0635 17.5319 10.9427 17.4097 10.7936 17.4097ZM11.6032 17.4097C11.4541 17.4097 11.3333 17.5319 11.3333 17.6827C11.3333 17.8336 11.4541 17.9558 11.6032 17.9558C11.7522 17.9558 11.873 17.8336 11.873 17.6827C11.873 17.5319 11.7522 17.4097 11.6032 17.4097ZM11.1984 16.8635C11.0494 16.8635 10.9286 16.9857 10.9286 17.1366C10.9286 17.2874 11.0494 17.4097 11.1984 17.4097C11.3474 17.4097 11.4683 17.2874 11.4683 17.1366C11.4683 16.9857 11.3474 16.8635 11.1984 16.8635ZM10.7936 16.3173C10.6446 16.3173 10.5238 16.4395 10.5238 16.5904C10.5238 16.7412 10.6446 16.8635 10.7936 16.8635C10.9427 16.8635 11.0635 16.7412 11.0635 16.5904C11.0635 16.4395 10.9427 16.3173 10.7936 16.3173ZM11.6032 16.3173C11.4541 16.3173 11.3333 16.4395 11.3333 16.5904C11.3333 16.7412 11.4541 16.8635 11.6032 16.8635C11.7522 16.8635 11.873 16.7412 11.873 16.5904C11.873 16.4395 11.7522 16.3173 11.6032 16.3173Z" fill="#013399"/>
<path d="M14.553 16.0442V17.4063C14.4605 17.8752 14.1487 18.1097 13.6178 18.1097C13.0868 18.1097 12.7751 17.8752 12.6825 17.4063V16.0442H14.553ZM13.2222 17.4097C13.0732 17.4097 12.9524 17.5319 12.9524 17.6827C12.9524 17.8336 13.0732 17.9558 13.2222 17.9558C13.3712 17.9558 13.492 17.8336 13.492 17.6827C13.492 17.5319 13.3712 17.4097 13.2222 17.4097ZM14.0317 17.4097C13.8827 17.4097 13.7619 17.5319 13.7619 17.6827C13.7619 17.8336 13.8827 17.9558 14.0317 17.9558C14.1808 17.9558 14.3016 17.8336 14.3016 17.6827C14.3016 17.5319 14.1808 17.4097 14.0317 17.4097ZM13.627 16.8635C13.4779 16.8635 13.3571 16.9857 13.3571 17.1366C13.3571 17.2874 13.4779 17.4097 13.627 17.4097C13.776 17.4097 13.8968 17.2874 13.8968 17.1366C13.8968 16.9857 13.776 16.8635 13.627 16.8635ZM13.2222 16.3173C13.0732 16.3173 12.9524 16.4395 12.9524 16.5904C12.9524 16.7412 13.0732 16.8635 13.2222 16.8635C13.3712 16.8635 13.492 16.7412 13.492 16.5904C13.492 16.4395 13.3712 16.3173 13.2222 16.3173ZM14.0317 16.3173C13.8827 16.3173 13.7619 16.4395 13.7619 16.5904C13.7619 16.7412 13.8827 16.8635 14.0317 16.8635C14.1808 16.8635 14.3016 16.7412 14.3016 16.5904C14.3016 16.4395 14.1808 16.3173 14.0317 16.3173Z" fill="#013399"/>
<path d="M9.69585 16.0442V17.4063C9.60331 17.8752 9.29157 18.1097 8.76061 18.1097C8.22966 18.1097 7.91791 17.8752 7.82538 17.4063V16.0442H9.69585ZM8.36506 17.4097C8.21603 17.4097 8.09522 17.5319 8.09522 17.6827C8.09522 17.8336 8.21603 17.9558 8.36506 17.9558C8.51409 17.9558 8.6349 17.8336 8.6349 17.6827C8.6349 17.5319 8.51409 17.4097 8.36506 17.4097ZM9.17458 17.4097C9.02556 17.4097 8.90474 17.5319 8.90474 17.6827C8.90474 17.8336 9.02556 17.9558 9.17458 17.9558C9.32361 17.9558 9.44443 17.8336 9.44443 17.6827C9.44443 17.5319 9.32361 17.4097 9.17458 17.4097ZM8.76982 16.8635C8.62079 16.8635 8.49998 16.9857 8.49998 17.1366C8.49998 17.2874 8.62079 17.4097 8.76982 17.4097C8.91885 17.4097 9.03966 17.2874 9.03966 17.1366C9.03966 16.9857 8.91885 16.8635 8.76982 16.8635ZM8.36506 16.3173C8.21603 16.3173 8.09522 16.4395 8.09522 16.5904C8.09522 16.7412 8.21603 16.8635 8.36506 16.8635C8.51409 16.8635 8.6349 16.7412 8.6349 16.5904C8.6349 16.4395 8.51409 16.3173 8.36506 16.3173ZM9.17458 16.3173C9.02556 16.3173 8.90474 16.4395 8.90474 16.5904C8.90474 16.7412 9.02556 16.8635 9.17458 16.8635C9.32361 16.8635 9.44443 16.7412 9.44443 16.5904C9.44443 16.4395 9.32361 16.3173 9.17458 16.3173Z" fill="#013399"/>
<path d="M12.1244 19.0482V20.4103C12.0319 20.8792 11.7202 21.1137 11.1892 21.1137C10.6582 21.1137 10.3465 20.8792 10.254 20.4103V19.0482H12.1244ZM10.7936 20.4137C10.6446 20.4137 10.5238 20.5359 10.5238 20.6868C10.5238 20.8376 10.6446 20.9599 10.7936 20.9599C10.9427 20.9599 11.0635 20.8376 11.0635 20.6868C11.0635 20.5359 10.9427 20.4137 10.7936 20.4137ZM11.6032 20.4137C11.4541 20.4137 11.3333 20.5359 11.3333 20.6868C11.3333 20.8376 11.4541 20.9599 11.6032 20.9599C11.7522 20.9599 11.873 20.8376 11.873 20.6868C11.873 20.5359 11.7522 20.4137 11.6032 20.4137ZM11.1984 19.8675C11.0494 19.8675 10.9286 19.9898 10.9286 20.1406C10.9286 20.2914 11.0494 20.4137 11.1984 20.4137C11.3474 20.4137 11.4683 20.2914 11.4683 20.1406C11.4683 19.9898 11.3474 19.8675 11.1984 19.8675ZM10.7936 19.3213C10.6446 19.3213 10.5238 19.4436 10.5238 19.5944C10.5238 19.7452 10.6446 19.8675 10.7936 19.8675C10.9427 19.8675 11.0635 19.7452 11.0635 19.5944C11.0635 19.4436 10.9427 19.3213 10.7936 19.3213ZM11.6032 19.3213C11.4541 19.3213 11.3333 19.4436 11.3333 19.5944C11.3333 19.7452 11.4541 19.8675 11.6032 19.8675C11.7522 19.8675 11.873 19.7452 11.873 19.5944C11.873 19.4436 11.7522 19.3213 11.6032 19.3213Z" fill="#013399"/>
</g>
</g>
<mask id="mask13_320_106042" style="mask-type:alpha" maskUnits="userSpaceOnUse" x="0" y="0" width="34" height="34">
<path d="M17 34C26.3888 34 34 26.3888 34 17C34 7.61116 26.3888 0 17 0C7.61116 0 0 7.61116 0 17C0 26.3888 7.61116 34 17 34Z" fill="white"/>
</mask>
<g mask="url(#mask13_320_106042)">
<path d="M37.9667 0H-3.96666C-4.90554 0 -5.66666 0.761116 -5.66666 1.7V32.3C-5.66666 33.2389 -4.90554 34 -3.96666 34H37.9667C38.9056 34 39.6667 33.2389 39.6667 32.3V1.7C39.6667 0.761116 38.9056 0 37.9667 0Z" fill="black"/>
<mask id="mask14_320_106042" style="mask-type:alpha" maskUnits="userSpaceOnUse" x="-6" y="0" width="46" height="34">
<path d="M37.9667 0H-3.96666C-4.90554 0 -5.66666 0.761116 -5.66666 1.7V32.3C-5.66666 33.2389 -4.90554 34 -3.96666 34H37.9667C38.9056 34 39.6667 33.2389 39.6667 32.3V1.7C39.6667 0.761116 38.9056 0 37.9667 0Z" fill="white"/>
</mask>
<g mask="url(#mask14_320_106042)">
<mask id="mask15_320_106042" style="mask-type:alpha" maskUnits="userSpaceOnUse" x="-6" y="0" width="46" height="34">
<path d="M39.6667 0H-5.66666V34H39.6667V0Z" fill="white"/>
</mask>
<g mask="url(#mask15_320_106042)">
<path d="M39.6667 0H-5.66666V34H39.6667V0Z" fill="#F7FCFF"/>
<mask id="mask16_320_106042" style="mask-type:alpha" maskUnits="userSpaceOnUse" x="-6" y="0" width="46" height="34">
<path d="M39.6667 0H-5.66666V34H39.6667V0Z" fill="white"/>
</mask>
<g mask="url(#mask16_320_106042)">
<path d="M39.6667 0H-5.66666V11.3333H39.6667V0Z" fill="#FF8C1A"/>
</g>
<mask id="mask17_320_106042" style="mask-type:alpha" maskUnits="userSpaceOnUse" x="-6" y="0" width="46" height="34">
<path d="M39.6667 0H-5.66666V34H39.6667V0Z" fill="white"/>
</mask>
<g mask="url(#mask17_320_106042)">
<path d="M39.6667 22.6666H-5.66666V34H39.6667V22.6666Z" fill="#5EAA22"/>
</g>
<mask id="mask18_320_106042" style="mask-type:alpha" maskUnits="userSpaceOnUse" x="-6" y="0" width="46" height="34">
<path d="M39.6667 0H-5.66666V34H39.6667V0Z" fill="white"/>
</mask>
<g mask="url(#mask18_320_106042)">
<path d="M17 21.25C19.3472 21.25 21.25 19.3473 21.25 17C21.25 14.6528 19.3472 12.75 17 12.75C14.6528 12.75 12.75 14.6528 12.75 17C12.75 19.3473 14.6528 21.25 17 21.25ZM17 22.6667C13.8704 22.6667 11.3333 20.1297 11.3333 17C11.3333 13.8704 13.8704 11.3334 17 11.3334C20.1296 11.3334 22.6667 13.8704 22.6667 17C22.6667 20.1297 20.1296 22.6667 17 22.6667Z" fill="#3D58DB"/>
<path d="M16.9922 18.2194L16.1835 22.6402L16.6531 18.1706L14.6317 22.1845L16.3414 18.0283L13.2711 21.3101L16.0825 17.804L12.2119 20.0878L15.8973 17.5157L11.54 18.6166L15.8008 17.187L11.3099 17.0157L15.8008 16.8444L11.54 15.4148L15.8973 16.5157L12.2119 13.9436L16.0825 16.2275L13.2711 12.7213L16.3414 16.0031L14.6317 11.8469L16.6531 15.8608L16.1835 11.3912L16.9922 15.812L17.8009 11.3912L17.3313 15.8608L19.3527 11.8469L17.643 16.0031L20.7133 12.7213L17.9019 16.2275L21.7725 13.9436L18.0871 16.5157L22.4443 15.4148L18.1836 16.8444L22.6745 17.0157L18.1836 17.187L22.4443 18.6166L18.0871 17.5157L21.7725 20.0878L17.9019 17.804L20.7133 21.3101L17.643 18.0283L19.3527 22.1845L17.3313 18.1706L17.8009 22.6402L16.9922 18.2194Z" fill="#3D58DB"/>
</g>
</g>
</g>
<mask id="mask19_320_106042" style="mask-type:alpha" maskUnits="userSpaceOnUse" x="-6" y="0" width="46" height="34">
<path d="M37.9667 0H-3.96666C-4.90554 0 -5.66666 0.761116 -5.66666 1.7V32.3C-5.66666 33.2389 -4.90554 34 -3.96666 34H37.9667C38.9056 34 39.6667 33.2389 39.6667 32.3V1.7C39.6667 0.761116 38.9056 0 37.9667 0Z" fill="white"/>
</mask>
<g mask="url(#mask19_320_106042)">
<path d="M37.2584 0.708374H-3.25831C-4.1972 0.708374 -4.95831 1.46949 -4.95831 2.40837V31.5917C-4.95831 32.5306 -4.1972 33.2917 -3.25831 33.2917H37.2584C38.1972 33.2917 38.9584 32.5306 38.9584 31.5917V2.40837C38.9584 1.46949 38.1972 0.708374 37.2584 0.708374Z" stroke="black" stroke-opacity="0.1"/>
</g>
</g>
</g>
<defs>
<clipPath id="clip0_320_106042">
<rect width="34" height="34" fill="white"/>
</clipPath>
</defs>
</svg>
