<svg width="34" height="34" viewBox="0 0 34 34" fill="none" xmlns="http://www.w3.org/2000/svg">
<rect width="34" height="34" fill="#1E1E1E"/>
<g clip-path="url(#clip0_1_2502)">
<rect width="1440" height="1856" transform="translate(-308 -967)" fill="#F8F7FA"/>
<g filter="url(#filter0_d_1_2502)">
<path d="M-24 -154C-24 -157.314 -21.3137 -160 -18 -160H331.333C334.647 -160 337.333 -157.314 337.333 -154V288C337.333 291.314 334.647 294 331.333 294H-18C-21.3137 294 -24 291.314 -24 288V-154Z" fill="white" shape-rendering="crispEdges"/>
<g clip-path="url(#clip1_1_2502)">
<mask id="mask0_1_2502" style="mask-type:alpha" maskUnits="userSpaceOnUse" x="0" y="0" width="34" height="34">
<path d="M17 34C26.3888 34 34 26.3888 34 17C34 7.61116 26.3888 0 17 0C7.61116 0 0 7.61116 0 17C0 26.3888 7.61116 34 17 34Z" fill="white"/>
</mask>
<g mask="url(#mask0_1_2502)">
<mask id="mask1_1_2502" style="mask-type:alpha" maskUnits="userSpaceOnUse" x="-6" y="0" width="46" height="34">
<path d="M39.6667 0H-5.66666V34H39.6667V0Z" fill="white"/>
</mask>
<g mask="url(#mask1_1_2502)">
<path d="M5.66669 0H39.6667V34H5.66669V0Z" fill="#EF0000"/>
<path d="M-5.66666 0H11.3333V34H-5.66666V0Z" fill="#2F8D00"/>
<mask id="mask2_1_2502" style="mask-type:alpha" maskUnits="userSpaceOnUse" x="0" y="5" width="23" height="24">
<path d="M11.1984 28.0603C5.16276 28.0603 0.269867 23.1085 0.269867 17.0001C0.269867 10.8917 5.16276 5.93982 11.1984 5.93982C17.2341 5.93982 22.127 10.8917 22.127 17.0001C22.127 23.1085 17.2341 28.0603 11.1984 28.0603Z" fill="white"/>
</mask>
<g mask="url(#mask2_1_2502)">
<path d="M10.5238 5.66675H11.9405V9.49004H10.5238V5.66675Z" fill="#FFE017"/>
</g>
<mask id="mask3_1_2502" style="mask-type:alpha" maskUnits="userSpaceOnUse" x="0" y="5" width="23" height="24">
<path d="M11.1984 28.0603C5.16276 28.0603 0.269867 23.1085 0.269867 17.0001C0.269867 10.8917 5.16276 5.93982 11.1984 5.93982C17.2341 5.93982 22.127 10.8917 22.127 17.0001C22.127 23.1085 17.2341 28.0603 11.1984 28.0603Z" fill="white"/>
</mask>
<g mask="url(#mask3_1_2502)">
<path d="M10.5238 24.7832H11.9405V28.3334H10.5238V24.7832Z" fill="#FFE017"/>
</g>
<mask id="mask4_1_2502" style="mask-type:alpha" maskUnits="userSpaceOnUse" x="0" y="5" width="23" height="24">
<path d="M11.1984 28.0603C5.16276 28.0603 0.269867 23.1085 0.269867 17.0001C0.269867 10.8917 5.16276 5.93982 11.1984 5.93982C17.2341 5.93982 22.127 10.8917 22.127 17.0001C22.127 23.1085 17.2341 28.0603 11.1984 28.0603Z" fill="white"/>
</mask>
<g mask="url(#mask4_1_2502)">
<path d="M0.445514 17.5721L0.0494385 16.5559C4.42012 14.811 7.71891 13.6858 9.95723 13.1786C13.2412 12.4346 16.8496 11.8841 20.7825 11.5267L20.879 12.6147C16.9912 12.968 13.4291 13.5114 10.193 14.2446C8.02135 14.7367 4.76837 15.8463 0.445514 17.5721Z" fill="#FFE017"/>
</g>
<mask id="mask5_1_2502" style="mask-type:alpha" maskUnits="userSpaceOnUse" x="0" y="5" width="23" height="24">
<path d="M11.1984 28.0603C5.16276 28.0603 0.269867 23.1085 0.269867 17.0001C0.269867 10.8917 5.16276 5.93982 11.1984 5.93982C17.2341 5.93982 22.127 10.8917 22.127 17.0001C22.127 23.1085 17.2341 28.0603 11.1984 28.0603Z" fill="white"/>
</mask>
<g mask="url(#mask5_1_2502)">
<path d="M21.4496 10.8573L21.1281 11.9001C17.8249 10.8573 15.134 10.409 13.0657 10.5479L12.9942 9.45789C15.215 9.30882 18.0301 9.77777 21.4496 10.8573Z" fill="#FFE017"/>
</g>
<mask id="mask6_1_2502" style="mask-type:alpha" maskUnits="userSpaceOnUse" x="0" y="5" width="23" height="24">
<path d="M11.1984 28.0603C5.16276 28.0603 0.269867 23.1085 0.269867 17.0001C0.269867 10.8917 5.16276 5.93982 11.1984 5.93982C17.2341 5.93982 22.127 10.8917 22.127 17.0001C22.127 23.1085 17.2341 28.0603 11.1984 28.0603Z" fill="white"/>
</mask>
<g mask="url(#mask6_1_2502)">
<path d="M22.5925 16.6881L21.9819 17.5889C20.298 16.4197 18.2233 15.8325 15.7439 15.8325V14.7401C18.4319 14.7401 20.7194 15.3876 22.5925 16.6881Z" fill="#FFE017"/>
</g>
<mask id="mask7_1_2502" style="mask-type:alpha" maskUnits="userSpaceOnUse" x="0" y="5" width="23" height="24">
<path d="M11.1984 28.0603C5.16276 28.0603 0.269867 23.1085 0.269867 17.0001C0.269867 10.8917 5.16276 5.93982 11.1984 5.93982C17.2341 5.93982 22.127 10.8917 22.127 17.0001C22.127 23.1085 17.2341 28.0603 11.1984 28.0603Z" fill="white"/>
</mask>
<g mask="url(#mask7_1_2502)">
<path d="M21.6779 17.015L21.9569 18.0702C18.3265 19.0536 14.9181 19.6115 11.7314 19.7429C8.52271 19.8752 4.78291 19.3153 0.508789 18.0674L0.807966 17.0178C4.97821 18.2354 8.60578 18.7785 11.6875 18.6514C14.7911 18.5235 18.1214 17.9784 21.6779 17.015Z" fill="#FFE017"/>
</g>
<mask id="mask8_1_2502" style="mask-type:alpha" maskUnits="userSpaceOnUse" x="0" y="5" width="23" height="24">
<path d="M11.1984 28.0603C5.16276 28.0603 0.269867 23.1085 0.269867 17.0001C0.269867 10.8917 5.16276 5.93982 11.1984 5.93982C17.2341 5.93982 22.127 10.8917 22.127 17.0001C22.127 23.1085 17.2341 28.0603 11.1984 28.0603Z" fill="white"/>
</mask>
<g mask="url(#mask8_1_2502)">
<path d="M21.2666 22.1509L19.5605 23.9C16.3182 20.6607 13.4637 18.3445 11.0146 16.9528C8.52368 15.5374 5.27528 14.1001 1.27444 12.6467L2.0949 10.3334C6.21373 11.8296 9.58162 13.3198 12.2036 14.8097C14.8675 16.3235 17.8826 18.77 21.2666 22.1509Z" fill="#FFE017"/>
</g>
<mask id="mask9_1_2502" style="mask-type:alpha" maskUnits="userSpaceOnUse" x="0" y="5" width="23" height="24">
<path d="M11.1984 28.0603C5.16276 28.0603 0.269867 23.1085 0.269867 17.0001C0.269867 10.8917 5.16276 5.93982 11.1984 5.93982C17.2341 5.93982 22.127 10.8917 22.127 17.0001C22.127 23.1085 17.2341 28.0603 11.1984 28.0603Z" fill="white"/>
</mask>
<g mask="url(#mask9_1_2502)">
<path d="M2.06597 23.1417L1.42017 22.2664C1.51035 22.1983 1.67127 22.0846 1.89298 21.9406C2.25904 21.7028 2.66553 21.4653 3.10289 21.2435C4.30749 20.6324 5.51582 20.2509 6.6683 20.2158C6.72467 20.2141 6.78079 20.2133 6.83668 20.2133V21.3056C6.79166 21.3056 6.74634 21.3063 6.70072 21.3077C5.7295 21.3372 4.66294 21.674 3.58656 22.22C3.18536 22.4236 2.81154 22.6419 2.47605 22.8598C2.35928 22.9357 2.25595 23.0059 2.16742 23.0684C2.1158 23.1049 2.08154 23.1299 2.06597 23.1417Z" fill="#FFE017"/>
</g>
<mask id="mask10_1_2502" style="mask-type:alpha" maskUnits="userSpaceOnUse" x="0" y="5" width="23" height="24">
<path d="M11.1984 28.0603C5.16276 28.0603 0.269867 23.1085 0.269867 17.0001C0.269867 10.8917 5.16276 5.93982 11.1984 5.93982C17.2341 5.93982 22.127 10.8917 22.127 17.0001C22.127 23.1085 17.2341 28.0603 11.1984 28.0603Z" fill="white"/>
</mask>
<g mask="url(#mask10_1_2502)">
<path d="M2.56723 23.5204L2.83905 22.4632C6.43755 23.4109 9.21178 23.8831 11.1479 23.8831C13.0768 23.8831 15.9478 23.3261 19.7423 22.2081L20.044 23.257C16.1598 24.4013 13.2007 24.9755 11.1479 24.9755C9.10243 24.9755 6.24681 24.4894 2.56723 23.5204Z" fill="#FFE017"/>
</g>
<mask id="mask11_1_2502" style="mask-type:alpha" maskUnits="userSpaceOnUse" x="0" y="5" width="23" height="24">
<path d="M11.1984 28.0603C5.16276 28.0603 0.269867 23.1085 0.269867 17.0001C0.269867 10.8917 5.16276 5.93982 11.1984 5.93982C17.2341 5.93982 22.127 10.8917 22.127 17.0001C22.127 23.1085 17.2341 28.0603 11.1984 28.0603Z" fill="white"/>
</mask>
<g mask="url(#mask11_1_2502)">
<path d="M1.16516 13.7338L2.87519 11.9885L5.37889 14.5012L3.66887 16.2464L1.16516 13.7338Z" fill="#FFE017"/>
</g>
<mask id="mask12_1_2502" style="mask-type:alpha" maskUnits="userSpaceOnUse" x="0" y="5" width="23" height="24">
<path d="M11.1984 28.0603C5.16276 28.0603 0.269867 23.1085 0.269867 17.0001C0.269867 10.8917 5.16276 5.93982 11.1984 5.93982C17.2341 5.93982 22.127 10.8917 22.127 17.0001C22.127 23.1085 17.2341 28.0603 11.1984 28.0603Z" fill="white"/>
</mask>
<g mask="url(#mask12_1_2502)">
<path d="M15.3509 22.4511L16.6229 20.3573L20.5947 22.8286L19.3227 24.9224L15.3509 22.4511Z" fill="#FFE017"/>
</g>
<path d="M11.1984 5.93982C17.2341 5.93982 22.127 10.8917 22.127 17.0001C22.127 23.1085 17.2341 28.0603 11.1984 28.0603C5.16276 28.0603 0.269867 23.1085 0.269867 17.0001C0.269867 10.8917 5.16276 5.93982 11.1984 5.93982ZM11.3334 7.57837C6.11734 7.57837 1.88891 11.8577 1.88891 17.1366C1.88891 22.4155 6.11734 26.6948 11.3334 26.6948C16.5494 26.6948 20.7778 22.4155 20.7778 17.1366C20.7778 11.8577 16.5494 7.57837 11.3334 7.57837Z" fill="#F9E813"/>
<path d="M5.18036 10.1792V19.0485C5.76422 22.5591 7.7312 24.3145 11.0813 24.3145C14.4314 24.3145 16.3984 22.5591 16.9823 19.0485V10.1792H5.18036Z" fill="white"/>
<path d="M4.37082 9.35986H17.7918V19.1169L17.7806 19.1845C17.1323 23.0827 14.8339 25.1337 11.0813 25.1337C7.32872 25.1337 5.03037 23.0827 4.38205 19.1845L4.37082 19.1169V9.35986Z" fill="#C51918"/>
<path d="M7.44067 12.3402H14.7219V18.6315C14.3617 20.7974 13.1482 21.8803 11.0813 21.8803C9.01443 21.8803 7.80089 20.7974 7.44067 18.6315V12.3402Z" fill="#F7FCFF"/>
<path d="M5.66669 10.0361H6.69078V10.7189H5.66669V10.0361Z" fill="#F9E813"/>
<path d="M5.12701 10.3092H7.0159V10.6506H5.12701V10.3092Z" fill="#060101"/>
<path d="M5.12701 10.5823H6.15111V10.9236H5.12701V10.5823Z" fill="#F9E813"/>
<path d="M6.20639 10.5823H7.23049V10.9236H6.20639V10.5823Z" fill="#F9E813"/>
<path d="M5.12701 11.4016H5.80975V12.4257H5.12701V11.4016Z" fill="#F9E813"/>
<path d="M6.47623 11.4016H7.15896V12.4257H6.47623V11.4016Z" fill="#F9E813"/>
<path d="M5.93652 11.4016H6.27789V12.4257H5.93652V11.4016Z" fill="#F9E813"/>
<path d="M5.12701 11.1285H7.0159V11.4699H5.12701V11.1285Z" fill="#060101"/>
<path d="M5.12701 11.9478H7.0159V12.2891H5.12701V11.9478Z" fill="#060101"/>
<path d="M5.39685 10.8555H5.73822V11.1968H5.39685V10.8555Z" fill="#F9E813"/>
<path d="M6.47623 10.8555H6.81759V11.1968H6.47623V10.8555Z" fill="#F9E813"/>
<path d="M5.93652 10.5823H6.27789V11.265H5.93652V10.5823Z" fill="#F9E813"/>
<path d="M10.7937 10.0361H11.8178V10.7189H10.7937V10.0361Z" fill="#F9E813"/>
<path d="M10.254 10.3092H12.1429V10.6506H10.254V10.3092Z" fill="#060101"/>
<path d="M10.254 10.5823H11.2781V10.9236H10.254V10.5823Z" fill="#F9E813"/>
<path d="M11.3334 10.5823H12.3575V10.9236H11.3334V10.5823Z" fill="#F9E813"/>
<path d="M10.254 11.4016H10.9367V12.4257H10.254V11.4016Z" fill="#F9E813"/>
<path d="M11.6032 11.4016H12.2859V12.4257H11.6032V11.4016Z" fill="#F9E813"/>
<path d="M11.0635 11.4016H11.4049V12.4257H11.0635V11.4016Z" fill="#F9E813"/>
<path d="M10.254 11.1285H12.1429V11.4699H10.254V11.1285Z" fill="#060101"/>
<path d="M10.254 11.9478H12.1429V12.2891H10.254V11.9478Z" fill="#060101"/>
<path d="M10.5238 10.8555H10.8652V11.1968H10.5238V10.8555Z" fill="#F9E813"/>
<path d="M11.6032 10.8555H11.9446V11.1968H11.6032V10.8555Z" fill="#F9E813"/>
<path d="M11.0635 10.5823H11.4049V11.265H11.0635V10.5823Z" fill="#F9E813"/>
<path d="M15.6508 10.0361H16.6749V10.7189H15.6508V10.0361Z" fill="#F9E813"/>
<path d="M15.1111 10.3092H17V10.6506H15.1111V10.3092Z" fill="#060101"/>
<path d="M15.1111 10.5823H16.1352V10.9236H15.1111V10.5823Z" fill="#F9E813"/>
<path d="M16.1905 10.5823H17.2146V10.9236H16.1905V10.5823Z" fill="#F9E813"/>
<path d="M15.1111 11.4016H15.7939V12.4257H15.1111V11.4016Z" fill="#F9E813"/>
<path d="M16.4604 11.4016H17.1431V12.4257H16.4604V11.4016Z" fill="#F9E813"/>
<path d="M15.9207 11.4016H16.262V12.4257H15.9207V11.4016Z" fill="#F9E813"/>
<path d="M15.1111 11.1285H17V11.4699H15.1111V11.1285Z" fill="#060101"/>
<path d="M15.1111 11.9478H17V12.2891H15.1111V11.9478Z" fill="#060101"/>
<path d="M15.381 10.8555H15.7223V11.1968H15.381V10.8555Z" fill="#F9E813"/>
<path d="M16.4604 10.8555H16.8017V11.1968H16.4604V10.8555Z" fill="#F9E813"/>
<path d="M15.9207 10.5823H16.262V11.265H15.9207V10.5823Z" fill="#F9E813"/>
<path d="M15.6508 14.9518H16.6749V15.6345H15.6508V14.9518Z" fill="#F9E813"/>
<path d="M15.1111 15.2249H17V15.5662H15.1111V15.2249Z" fill="#060101"/>
<path d="M15.1111 15.4979H16.1352V15.8393H15.1111V15.4979Z" fill="#F9E813"/>
<path d="M16.1905 15.4979H17.2146V15.8393H16.1905V15.4979Z" fill="#F9E813"/>
<path d="M15.1111 16.3173H15.7939V17.3414H15.1111V16.3173Z" fill="#F9E813"/>
<path d="M16.4604 16.3173H17.1431V17.3414H16.4604V16.3173Z" fill="#F9E813"/>
<path d="M15.9207 16.3173H16.262V17.3414H15.9207V16.3173Z" fill="#F9E813"/>
<path d="M15.1111 16.0442H17V16.3856H15.1111V16.0442Z" fill="#060101"/>
<path d="M15.1111 16.8634H17V17.2048H15.1111V16.8634Z" fill="#060101"/>
<path d="M15.381 15.7711H15.7223V16.1125H15.381V15.7711Z" fill="#F9E813"/>
<path d="M16.4604 15.7711H16.8017V16.1125H16.4604V15.7711Z" fill="#F9E813"/>
<path d="M15.9207 15.4979H16.262V16.1807H15.9207V15.4979Z" fill="#F9E813"/>
<path d="M5.66669 14.9518H6.69078V15.6345H5.66669V14.9518Z" fill="#F9E813"/>
<path d="M5.12701 15.2249H7.0159V15.5662H5.12701V15.2249Z" fill="#060101"/>
<path d="M5.12701 15.4979H6.15111V15.8393H5.12701V15.4979Z" fill="#F9E813"/>
<path d="M6.20639 15.4979H7.23049V15.8393H6.20639V15.4979Z" fill="#F9E813"/>
<path d="M5.12701 16.3173H5.80975V17.3414H5.12701V16.3173Z" fill="#F9E813"/>
<path d="M6.47623 16.3173H7.15896V17.3414H6.47623V16.3173Z" fill="#F9E813"/>
<path d="M5.93652 16.3173H6.27789V17.3414H5.93652V16.3173Z" fill="#F9E813"/>
<path d="M5.12701 16.0442H7.0159V16.3856H5.12701V16.0442Z" fill="#060101"/>
<path d="M5.12701 16.8634H7.0159V17.2048H5.12701V16.8634Z" fill="#060101"/>
<path d="M5.39685 15.7711H5.73822V16.1125H5.39685V15.7711Z" fill="#F9E813"/>
<path d="M6.47623 15.7711H6.81759V16.1125H6.47623V15.7711Z" fill="#F9E813"/>
<path d="M5.93652 15.4979H6.27789V16.1807H5.93652V15.4979Z" fill="#F9E813"/>
<path d="M6.32367 21.1139L6.98195 20.3294L7.50495 20.7682L6.84667 21.5527L6.32367 21.1139Z" fill="#F9E813"/>
<path d="M6.18597 21.7029L7.40013 20.2559L7.66163 20.4753L6.44748 21.9223L6.18597 21.7029Z" fill="#060101"/>
<path d="M6.39517 21.8784L7.05345 21.0939L7.31495 21.3133L6.65667 22.0978L6.39517 21.8784Z" fill="#F9E813"/>
<path d="M7.08899 21.0516L7.74727 20.2671L8.00877 20.4866L7.35049 21.2711L7.08899 21.0516Z" fill="#F9E813"/>
<path d="M7.02277 22.405L7.46162 21.882L8.24612 22.5403L7.80727 23.0633L7.02277 22.405Z" fill="#F9E813"/>
<path d="M7.89005 21.3715L8.3289 20.8485L9.1134 21.5067L8.67455 22.0297L7.89005 21.3715Z" fill="#F9E813"/>
<path d="M7.54312 21.7849L7.76255 21.5234L8.54705 22.1817L8.32762 22.4432L7.54312 21.7849Z" fill="#F9E813"/>
<path d="M6.81357 22.2295L8.02772 20.7825L8.28922 21.0019L7.07507 22.4489L6.81357 22.2295Z" fill="#060101"/>
<path d="M7.44119 22.7561L8.65535 21.3091L8.91685 21.5286L7.70269 22.9755L7.44119 22.7561Z" fill="#060101"/>
<path d="M6.77783 21.8473L6.99726 21.5858L7.25876 21.8052L7.03933 22.0667L6.77783 21.8473Z" fill="#F9E813"/>
<path d="M7.47162 21.0204L7.69104 20.7589L7.95255 20.9783L7.73312 21.2398L7.47162 21.0204Z" fill="#F9E813"/>
<path d="M6.91553 21.2583L7.13495 20.9968L7.65795 21.4357L7.43853 21.6972L6.91553 21.2583Z" fill="#F9E813"/>
<path d="M15.5528 20.4938L16.2111 21.2783L15.6881 21.7171L15.0298 20.9326L15.5528 20.4938Z" fill="#F9E813"/>
<path d="M14.9967 20.2559L16.2109 21.7028L15.9494 21.9223L14.7352 20.4753L14.9967 20.2559Z" fill="#060101"/>
<path d="M14.7875 20.4314L15.4458 21.2159L15.1843 21.4353L14.526 20.6508L14.7875 20.4314Z" fill="#F9E813"/>
<path d="M15.4813 21.2583L16.1396 22.0428L15.8781 22.2622L15.2198 21.4777L15.4813 21.2583Z" fill="#F9E813"/>
<path d="M14.1599 20.958L14.5988 21.481L13.8143 22.1393L13.3754 21.6163L14.1599 20.958Z" fill="#F9E813"/>
<path d="M15.0272 21.9916L15.466 22.5146L14.6815 23.1729L14.2427 22.6499L15.0272 21.9916Z" fill="#F9E813"/>
<path d="M14.6803 21.5781L14.8997 21.8396L14.1152 22.4979L13.8958 22.2364L14.6803 21.5781Z" fill="#F9E813"/>
<path d="M14.3691 20.7825L15.5833 22.2294L15.3218 22.4489L14.1076 21.0019L14.3691 20.7825Z" fill="#060101"/>
<path d="M13.7415 21.3091L14.9557 22.7561L14.6942 22.9755L13.48 21.5285L13.7415 21.3091Z" fill="#060101"/>
<path d="M14.7518 20.8136L14.9712 21.0751L14.7097 21.2945L14.4903 21.033L14.7518 20.8136Z" fill="#F9E813"/>
<path d="M15.4456 21.6405L15.665 21.902L15.4035 22.1214L15.1841 21.8599L15.4456 21.6405Z" fill="#F9E813"/>
<path d="M15.3079 21.0515L15.5273 21.313L15.0043 21.7519L14.7849 21.4904L15.3079 21.0515Z" fill="#F9E813"/>
<path d="M12.1245 13.0402V14.4022C12.0319 14.8712 11.7202 15.1056 11.1892 15.1056C10.6583 15.1056 10.3465 14.8712 10.254 14.4022V13.0402H12.1245ZM10.7937 14.4056C10.6447 14.4056 10.5238 14.5279 10.5238 14.6787C10.5238 14.8295 10.6447 14.9518 10.7937 14.9518C10.9427 14.9518 11.0635 14.8295 11.0635 14.6787C11.0635 14.5279 10.9427 14.4056 10.7937 14.4056ZM11.6032 14.4056C11.4542 14.4056 11.3334 14.5279 11.3334 14.6787C11.3334 14.8295 11.4542 14.9518 11.6032 14.9518C11.7522 14.9518 11.873 14.8295 11.873 14.6787C11.873 14.5279 11.7522 14.4056 11.6032 14.4056ZM11.1984 13.8594C11.0494 13.8594 10.9286 13.9817 10.9286 14.1325C10.9286 14.2834 11.0494 14.4056 11.1984 14.4056C11.3475 14.4056 11.4683 14.2834 11.4683 14.1325C11.4683 13.9817 11.3475 13.8594 11.1984 13.8594ZM10.7937 13.3133C10.6447 13.3133 10.5238 13.4355 10.5238 13.5863C10.5238 13.7372 10.6447 13.8594 10.7937 13.8594C10.9427 13.8594 11.0635 13.7372 11.0635 13.5863C11.0635 13.4355 10.9427 13.3133 10.7937 13.3133ZM11.6032 13.3133C11.4542 13.3133 11.3334 13.4355 11.3334 13.5863C11.3334 13.7372 11.4542 13.8594 11.6032 13.8594C11.7522 13.8594 11.873 13.7372 11.873 13.5863C11.873 13.4355 11.7522 13.3133 11.6032 13.3133Z" fill="#013399"/>
<path d="M12.1245 16.0442V17.4063C12.0319 17.8752 11.7202 18.1097 11.1892 18.1097C10.6583 18.1097 10.3465 17.8752 10.254 17.4063V16.0442H12.1245ZM10.7937 17.4097C10.6447 17.4097 10.5238 17.5319 10.5238 17.6827C10.5238 17.8336 10.6447 17.9558 10.7937 17.9558C10.9427 17.9558 11.0635 17.8336 11.0635 17.6827C11.0635 17.5319 10.9427 17.4097 10.7937 17.4097ZM11.6032 17.4097C11.4542 17.4097 11.3334 17.5319 11.3334 17.6827C11.3334 17.8336 11.4542 17.9558 11.6032 17.9558C11.7522 17.9558 11.873 17.8336 11.873 17.6827C11.873 17.5319 11.7522 17.4097 11.6032 17.4097ZM11.1984 16.8635C11.0494 16.8635 10.9286 16.9857 10.9286 17.1366C10.9286 17.2874 11.0494 17.4097 11.1984 17.4097C11.3475 17.4097 11.4683 17.2874 11.4683 17.1366C11.4683 16.9857 11.3475 16.8635 11.1984 16.8635ZM10.7937 16.3173C10.6447 16.3173 10.5238 16.4395 10.5238 16.5904C10.5238 16.7412 10.6447 16.8635 10.7937 16.8635C10.9427 16.8635 11.0635 16.7412 11.0635 16.5904C11.0635 16.4395 10.9427 16.3173 10.7937 16.3173ZM11.6032 16.3173C11.4542 16.3173 11.3334 16.4395 11.3334 16.5904C11.3334 16.7412 11.4542 16.8635 11.6032 16.8635C11.7522 16.8635 11.873 16.7412 11.873 16.5904C11.873 16.4395 11.7522 16.3173 11.6032 16.3173Z" fill="#013399"/>
<path d="M14.553 16.0442V17.4063C14.4605 17.8752 14.1487 18.1097 13.6178 18.1097C13.0868 18.1097 12.7751 17.8752 12.6826 17.4063V16.0442H14.553ZM13.2222 17.4097C13.0732 17.4097 12.9524 17.5319 12.9524 17.6827C12.9524 17.8336 13.0732 17.9558 13.2222 17.9558C13.3713 17.9558 13.4921 17.8336 13.4921 17.6827C13.4921 17.5319 13.3713 17.4097 13.2222 17.4097ZM14.0318 17.4097C13.8827 17.4097 13.7619 17.5319 13.7619 17.6827C13.7619 17.8336 13.8827 17.9558 14.0318 17.9558C14.1808 17.9558 14.3016 17.8336 14.3016 17.6827C14.3016 17.5319 14.1808 17.4097 14.0318 17.4097ZM13.627 16.8635C13.478 16.8635 13.3572 16.9857 13.3572 17.1366C13.3572 17.2874 13.478 17.4097 13.627 17.4097C13.776 17.4097 13.8968 17.2874 13.8968 17.1366C13.8968 16.9857 13.776 16.8635 13.627 16.8635ZM13.2222 16.3173C13.0732 16.3173 12.9524 16.4395 12.9524 16.5904C12.9524 16.7412 13.0732 16.8635 13.2222 16.8635C13.3713 16.8635 13.4921 16.7412 13.4921 16.5904C13.4921 16.4395 13.3713 16.3173 13.2222 16.3173ZM14.0318 16.3173C13.8827 16.3173 13.7619 16.4395 13.7619 16.5904C13.7619 16.7412 13.8827 16.8635 14.0318 16.8635C14.1808 16.8635 14.3016 16.7412 14.3016 16.5904C14.3016 16.4395 14.1808 16.3173 14.0318 16.3173Z" fill="#013399"/>
<path d="M9.69588 16.0442V17.4063C9.60334 17.8752 9.2916 18.1097 8.76064 18.1097C8.22969 18.1097 7.91794 17.8752 7.82541 17.4063V16.0442H9.69588ZM8.36509 17.4097C8.21606 17.4097 8.09525 17.5319 8.09525 17.6827C8.09525 17.8336 8.21606 17.9558 8.36509 17.9558C8.51412 17.9558 8.63493 17.8336 8.63493 17.6827C8.63493 17.5319 8.51412 17.4097 8.36509 17.4097ZM9.17462 17.4097C9.02559 17.4097 8.90477 17.5319 8.90477 17.6827C8.90477 17.8336 9.02559 17.9558 9.17462 17.9558C9.32364 17.9558 9.44446 17.8336 9.44446 17.6827C9.44446 17.5319 9.32364 17.4097 9.17462 17.4097ZM8.76985 16.8635C8.62082 16.8635 8.50001 16.9857 8.50001 17.1366C8.50001 17.2874 8.62082 17.4097 8.76985 17.4097C8.91888 17.4097 9.03969 17.2874 9.03969 17.1366C9.03969 16.9857 8.91888 16.8635 8.76985 16.8635ZM8.36509 16.3173C8.21606 16.3173 8.09525 16.4395 8.09525 16.5904C8.09525 16.7412 8.21606 16.8635 8.36509 16.8635C8.51412 16.8635 8.63493 16.7412 8.63493 16.5904C8.63493 16.4395 8.51412 16.3173 8.36509 16.3173ZM9.17462 16.3173C9.02559 16.3173 8.90477 16.4395 8.90477 16.5904C8.90477 16.7412 9.02559 16.8635 9.17462 16.8635C9.32364 16.8635 9.44446 16.7412 9.44446 16.5904C9.44446 16.4395 9.32364 16.3173 9.17462 16.3173Z" fill="#013399"/>
<path d="M12.1245 19.0482V20.4103C12.0319 20.8792 11.7202 21.1137 11.1892 21.1137C10.6583 21.1137 10.3465 20.8792 10.254 20.4103V19.0482H12.1245ZM10.7937 20.4137C10.6447 20.4137 10.5238 20.5359 10.5238 20.6868C10.5238 20.8376 10.6447 20.9599 10.7937 20.9599C10.9427 20.9599 11.0635 20.8376 11.0635 20.6868C11.0635 20.5359 10.9427 20.4137 10.7937 20.4137ZM11.6032 20.4137C11.4542 20.4137 11.3334 20.5359 11.3334 20.6868C11.3334 20.8376 11.4542 20.9599 11.6032 20.9599C11.7522 20.9599 11.873 20.8376 11.873 20.6868C11.873 20.5359 11.7522 20.4137 11.6032 20.4137ZM11.1984 19.8675C11.0494 19.8675 10.9286 19.9898 10.9286 20.1406C10.9286 20.2914 11.0494 20.4137 11.1984 20.4137C11.3475 20.4137 11.4683 20.2914 11.4683 20.1406C11.4683 19.9898 11.3475 19.8675 11.1984 19.8675ZM10.7937 19.3213C10.6447 19.3213 10.5238 19.4436 10.5238 19.5944C10.5238 19.7452 10.6447 19.8675 10.7937 19.8675C10.9427 19.8675 11.0635 19.7452 11.0635 19.5944C11.0635 19.4436 10.9427 19.3213 10.7937 19.3213ZM11.6032 19.3213C11.4542 19.3213 11.3334 19.4436 11.3334 19.5944C11.3334 19.7452 11.4542 19.8675 11.6032 19.8675C11.7522 19.8675 11.873 19.7452 11.873 19.5944C11.873 19.4436 11.7522 19.3213 11.6032 19.3213Z" fill="#013399"/>
</g>
</g>
<mask id="mask13_1_2502" style="mask-type:alpha" maskUnits="userSpaceOnUse" x="0" y="0" width="34" height="34">
<path d="M17 34C26.3888 34 34 26.3888 34 17C34 7.61116 26.3888 0 17 0C7.61116 0 0 7.61116 0 17C0 26.3888 7.61116 34 17 34Z" fill="white"/>
</mask>
<g mask="url(#mask13_1_2502)">
<path d="M37.9667 0H-3.96666C-4.90554 0 -5.66666 0.761116 -5.66666 1.7V32.3C-5.66666 33.2389 -4.90554 34 -3.96666 34H37.9667C38.9056 34 39.6667 33.2389 39.6667 32.3V1.7C39.6667 0.761116 38.9056 0 37.9667 0Z" fill="black"/>
<mask id="mask14_1_2502" style="mask-type:alpha" maskUnits="userSpaceOnUse" x="-6" y="0" width="46" height="34">
<path d="M37.9667 0H-3.96666C-4.90554 0 -5.66666 0.761116 -5.66666 1.7V32.3C-5.66666 33.2389 -4.90554 34 -3.96666 34H37.9667C38.9056 34 39.6667 33.2389 39.6667 32.3V1.7C39.6667 0.761116 38.9056 0 37.9667 0Z" fill="white"/>
</mask>
<g mask="url(#mask14_1_2502)">
<mask id="mask15_1_2502" style="mask-type:alpha" maskUnits="userSpaceOnUse" x="-6" y="0" width="46" height="34">
<path d="M39.6667 0H-5.66666V34H39.6667V0Z" fill="white"/>
</mask>
<g mask="url(#mask15_1_2502)">
<path d="M39.6667 0H-5.66666V34H39.6667V0Z" fill="#009933"/>
<mask id="mask16_1_2502" style="mask-type:alpha" maskUnits="userSpaceOnUse" x="-6" y="0" width="46" height="34">
<path d="M39.6667 0H-5.66666V34H39.6667V0Z" fill="white"/>
</mask>
<g mask="url(#mask16_1_2502)">
<path d="M16.8963 5.24744L34.1823 17.294L16.6612 28.576L-0.27066 17.0605L16.8963 5.24744Z" fill="black"/>
<path fill-rule="evenodd" clip-rule="evenodd" d="M16.8963 5.24744L34.1823 17.294L16.6612 28.576L-0.27066 17.0605L16.8963 5.24744Z" fill="#FFD221"/>
<path fill-rule="evenodd" clip-rule="evenodd" d="M16.8963 5.24744L34.1823 17.294L16.6612 28.576L-0.27066 17.0605L16.8963 5.24744Z" fill="url(#paint0_linear_1_2502)"/>
<path d="M17 24.3667C20.912 24.3667 24.0834 21.1954 24.0834 17.2834C24.0834 13.3714 20.912 10.2001 17 10.2001C13.088 10.2001 9.91669 13.3714 9.91669 17.2834C9.91669 21.1954 13.088 24.3667 17 24.3667Z" fill="#2E42A5"/>
<mask id="mask17_1_2502" style="mask-type:alpha" maskUnits="userSpaceOnUse" x="9" y="10" width="16" height="15">
<path d="M17 24.3667C20.912 24.3667 24.0834 21.1954 24.0834 17.2834C24.0834 13.3714 20.912 10.2001 17 10.2001C13.088 10.2001 9.91669 13.3714 9.91669 17.2834C9.91669 21.1954 13.088 24.3667 17 24.3667Z" fill="white"/>
</mask>
<g mask="url(#mask17_1_2502)">
<path d="M14.705 20.6409L14.3886 20.8072L14.449 20.4549L14.193 20.2054L14.5468 20.1539L14.705 19.8334L14.8632 20.1539L15.217 20.2054L14.961 20.4549L15.0214 20.8072L14.705 20.6409Z" fill="#F7FCFF"/>
</g>
<mask id="mask18_1_2502" style="mask-type:alpha" maskUnits="userSpaceOnUse" x="9" y="10" width="16" height="15">
<path d="M17 24.3667C20.912 24.3667 24.0834 21.1954 24.0834 17.2834C24.0834 13.3714 20.912 10.2001 17 10.2001C13.088 10.2001 9.91669 13.3714 9.91669 17.2834C9.91669 21.1954 13.088 24.3667 17 24.3667Z" fill="white"/>
</mask>
<g mask="url(#mask18_1_2502)">
<path d="M17.5384 20.6409L17.2219 20.8072L17.2824 20.4549L17.0264 20.2054L17.3801 20.1539L17.5384 19.8334L17.6966 20.1539L18.0503 20.2054L17.7943 20.4549L17.8548 20.8072L17.5384 20.6409Z" fill="#F7FCFF"/>
</g>
<mask id="mask19_1_2502" style="mask-type:alpha" maskUnits="userSpaceOnUse" x="9" y="10" width="16" height="15">
<path d="M17 24.3667C20.912 24.3667 24.0834 21.1954 24.0834 17.2834C24.0834 13.3714 20.912 10.2001 17 10.2001C13.088 10.2001 9.91669 13.3714 9.91669 17.2834C9.91669 21.1954 13.088 24.3667 17 24.3667Z" fill="white"/>
</mask>
<g mask="url(#mask19_1_2502)">
<path d="M17.5384 22.3409L17.2219 22.5073L17.2824 22.155L17.0264 21.9054L17.3801 21.854L17.5384 21.5334L17.6966 21.854L18.0503 21.9054L17.7943 22.155L17.8548 22.5073L17.5384 22.3409Z" fill="#F7FCFF"/>
</g>
<mask id="mask20_1_2502" style="mask-type:alpha" maskUnits="userSpaceOnUse" x="9" y="10" width="16" height="15">
<path d="M17 24.3667C20.912 24.3667 24.0834 21.1954 24.0834 17.2834C24.0834 13.3714 20.912 10.2001 17 10.2001C13.088 10.2001 9.91669 13.3714 9.91669 17.2834C9.91669 21.1954 13.088 24.3667 17 24.3667Z" fill="white"/>
</mask>
<g mask="url(#mask20_1_2502)">
<path d="M16.1217 16.3909L15.8053 16.5572L15.8657 16.2049L15.6097 15.9554L15.9635 15.9039L16.1217 15.5834L16.2799 15.9039L16.6337 15.9554L16.3777 16.2049L16.4381 16.5572L16.1217 16.3909Z" fill="#F7FCFF"/>
</g>
<mask id="mask21_1_2502" style="mask-type:alpha" maskUnits="userSpaceOnUse" x="9" y="10" width="16" height="15">
<path d="M17 24.3667C20.912 24.3667 24.0834 21.1954 24.0834 17.2834C24.0834 13.3714 20.912 10.2001 17 10.2001C13.088 10.2001 9.91669 13.3714 9.91669 17.2834C9.91669 21.1954 13.088 24.3667 17 24.3667Z" fill="white"/>
</mask>
<g mask="url(#mask21_1_2502)">
<path d="M16.1217 19.2242L15.8053 19.3906L15.8657 19.0383L15.6097 18.7887L15.9635 18.7373L16.1217 18.4167L16.2799 18.7373L16.6337 18.7887L16.3777 19.0383L16.4381 19.3906L16.1217 19.2242Z" fill="#F7FCFF"/>
</g>
<mask id="mask22_1_2502" style="mask-type:alpha" maskUnits="userSpaceOnUse" x="9" y="10" width="16" height="15">
<path d="M17 24.3667C20.912 24.3667 24.0834 21.1954 24.0834 17.2834C24.0834 13.3714 20.912 10.2001 17 10.2001C13.088 10.2001 9.91669 13.3714 9.91669 17.2834C9.91669 21.1954 13.088 24.3667 17 24.3667Z" fill="white"/>
</mask>
<g mask="url(#mask22_1_2502)">
<path d="M14.1383 17.8075L13.8219 17.9739L13.8823 17.6215L13.6263 17.372L13.9801 17.3206L14.1383 17L14.2965 17.3206L14.6503 17.372L14.3943 17.6215L14.4548 17.9739L14.1383 17.8075Z" fill="#F7FCFF"/>
</g>
<mask id="mask23_1_2502" style="mask-type:alpha" maskUnits="userSpaceOnUse" x="9" y="10" width="16" height="15">
<path d="M17 24.3667C20.912 24.3667 24.0834 21.1954 24.0834 17.2834C24.0834 13.3714 20.912 10.2001 17 10.2001C13.088 10.2001 9.91669 13.3714 9.91669 17.2834C9.91669 21.1954 13.088 24.3667 17 24.3667Z" fill="white"/>
</mask>
<g mask="url(#mask23_1_2502)">
<path d="M12.155 18.9409L11.8385 19.1073L11.899 18.7549L11.643 18.5054L11.9967 18.454L12.155 18.1334L12.3132 18.454L12.6669 18.5054L12.411 18.7549L12.4714 19.1073L12.155 18.9409Z" fill="#F7FCFF"/>
</g>
<mask id="mask24_1_2502" style="mask-type:alpha" maskUnits="userSpaceOnUse" x="9" y="10" width="16" height="15">
<path d="M17 24.3667C20.912 24.3667 24.0834 21.1954 24.0834 17.2834C24.0834 13.3714 20.912 10.2001 17 10.2001C13.088 10.2001 9.91669 13.3714 9.91669 17.2834C9.91669 21.1954 13.088 24.3667 17 24.3667Z" fill="white"/>
</mask>
<g mask="url(#mask24_1_2502)">
<path d="M18.6717 14.1243L18.3553 14.2906L18.4158 13.9383L18.1598 13.6888L18.5135 13.6373L18.6717 13.3168L18.83 13.6373L19.1837 13.6888L18.9277 13.9383L18.9882 14.2906L18.6717 14.1243Z" fill="#F7FCFF"/>
</g>
<mask id="mask25_1_2502" style="mask-type:alpha" maskUnits="userSpaceOnUse" x="9" y="10" width="16" height="15">
<path d="M17 24.3667C20.912 24.3667 24.0834 21.1954 24.0834 17.2834C24.0834 13.3714 20.912 10.2001 17 10.2001C13.088 10.2001 9.91669 13.3714 9.91669 17.2834C9.91669 21.1954 13.088 24.3667 17 24.3667Z" fill="white"/>
</mask>
<g mask="url(#mask25_1_2502)">
<path d="M8.39349 15.5793L8.60653 12.754C15.4036 13.2666 20.7684 15.5014 24.6333 19.4769L22.6018 21.452C19.252 18.0063 14.5384 16.0427 8.39349 15.5793Z" fill="#F7FCFF"/>
</g>
<mask id="mask26_1_2502" style="mask-type:alpha" maskUnits="userSpaceOnUse" x="9" y="10" width="16" height="15">
<path d="M17 24.3667C20.912 24.3667 24.0834 21.1954 24.0834 17.2834C24.0834 13.3714 20.912 10.2001 17 10.2001C13.088 10.2001 9.91669 13.3714 9.91669 17.2834C9.91669 21.1954 13.088 24.3667 17 24.3667Z" fill="white"/>
</mask>
<g mask="url(#mask26_1_2502)">
<path d="M11.7434 15.0206L11.8164 14.316C16.1981 14.7699 19.9564 16.4482 23.0799 19.3473L22.5981 19.8665C19.5881 17.0729 15.9737 15.4588 11.7434 15.0206Z" fill="#009933"/>
</g>
</g>
</g>
</g>
<mask id="mask27_1_2502" style="mask-type:alpha" maskUnits="userSpaceOnUse" x="-6" y="0" width="46" height="34">
<path d="M37.9667 0H-3.96666C-4.90554 0 -5.66666 0.761116 -5.66666 1.7V32.3C-5.66666 33.2389 -4.90554 34 -3.96666 34H37.9667C38.9056 34 39.6667 33.2389 39.6667 32.3V1.7C39.6667 0.761116 38.9056 0 37.9667 0Z" fill="white"/>
</mask>
<g mask="url(#mask27_1_2502)">
<path d="M37.2583 0.708374H-3.25831C-4.1972 0.708374 -4.95831 1.46949 -4.95831 2.40837V31.5917C-4.95831 32.5306 -4.1972 33.2917 -3.25831 33.2917H37.2583C38.1972 33.2917 38.9583 32.5306 38.9583 31.5917V2.40837C38.9583 1.46949 38.1972 0.708374 37.2583 0.708374Z" stroke="black" stroke-opacity="0.1"/>
</g>
</g>
</g>
</g>
</g>
<defs>
<filter id="filter0_d_1_2502" x="-36" y="-169" width="385.333" height="478" filterUnits="userSpaceOnUse" color-interpolation-filters="sRGB">
<feFlood flood-opacity="0" result="BackgroundImageFix"/>
<feColorMatrix in="SourceAlpha" type="matrix" values="0 0 0 0 0 0 0 0 0 0 0 0 0 0 0 0 0 0 127 0" result="hardAlpha"/>
<feOffset dy="3"/>
<feGaussianBlur stdDeviation="6"/>
<feComposite in2="hardAlpha" operator="out"/>
<feColorMatrix type="matrix" values="0 0 0 0 0.184314 0 0 0 0 0.168627 0 0 0 0 0.239216 0 0 0 0.14 0"/>
<feBlend mode="normal" in2="BackgroundImageFix" result="effect1_dropShadow_1_2502"/>
<feBlend mode="normal" in="SourceGraphic" in2="effect1_dropShadow_1_2502" result="shape"/>
</filter>
<linearGradient id="paint0_linear_1_2502" x1="16.9558" y1="28.576" x2="16.9558" y2="5.24744" gradientUnits="userSpaceOnUse">
<stop stop-color="#FFC600"/>
<stop offset="1" stop-color="#FFDE42"/>
</linearGradient>
<clipPath id="clip0_1_2502">
<rect width="1440" height="1856" fill="white" transform="translate(-308 -967)"/>
</clipPath>
<clipPath id="clip1_1_2502">
<rect width="34" height="34" fill="white"/>
</clipPath>
</defs>
</svg>
