<svg width="34" height="34" viewBox="0 0 34 34" fill="none" xmlns="http://www.w3.org/2000/svg">
<rect width="34" height="34" fill="#1E1E1E"/>
<g clip-path="url(#clip0_1_2502)">
<rect width="1440" height="1856" transform="translate(-308 -909)" fill="#F8F7FA"/>
<g filter="url(#filter0_d_1_2502)">
<path d="M-24 -96C-24 -99.3137 -21.3137 -102 -18 -102H331.333C334.647 -102 337.333 -99.3137 337.333 -96V346C337.333 349.314 334.647 352 331.333 352H-18C-21.3137 352 -24 349.314 -24 346V-96Z" fill="white" shape-rendering="crispEdges"/>
<g clip-path="url(#clip1_1_2502)">
<mask id="mask0_1_2502" style="mask-type:alpha" maskUnits="userSpaceOnUse" x="0" y="0" width="34" height="34">
<path d="M17 34C26.3888 34 34 26.3888 34 17C34 7.61116 26.3888 0 17 0C7.61116 0 0 7.61116 0 17C0 26.3888 7.61116 34 17 34Z" fill="white"/>
</mask>
<g mask="url(#mask0_1_2502)">
<mask id="mask1_1_2502" style="mask-type:alpha" maskUnits="userSpaceOnUse" x="-6" y="0" width="46" height="34">
<path d="M39.1 0H-5.95001V34H39.1V0Z" fill="white"/>
</mask>
<g mask="url(#mask1_1_2502)">
<path fill-rule="evenodd" clip-rule="evenodd" d="M-5.95001 0H39.1V34H-5.95001V0Z" fill="#F7FCFF"/>
<path d="M39.1 20.7778H-5.95001V23.6112H39.1V20.7778Z" fill="#E31D1C"/>
<path d="M39.1 25.9722H-5.95001V28.8055H39.1V25.9722Z" fill="#E31D1C"/>
<path d="M39.1 10.3889H-5.95001V13.2222H39.1V10.3889Z" fill="#E31D1C"/>
<path d="M39.1 31.1666H-5.95001V34H39.1V31.1666Z" fill="#E31D1C"/>
<path d="M39.1 15.5834H-5.95001V18.4167H39.1V15.5834Z" fill="#E31D1C"/>
<path d="M39.1 0H-5.95001V2.83333H39.1V0Z" fill="#E31D1C"/>
<path d="M39.1 5.19446H-5.95001V8.02779H39.1V5.19446Z" fill="#E31D1C"/>
<path d="M22.2062 0H-5.95001V18.4167H22.2062V0Z" fill="#2E42A5"/>
<path fill-rule="evenodd" clip-rule="evenodd" d="M-3.52712 13.0744L-3.06089 14.1214H-2.05029L-2.84434 14.9345L-2.53693 16.2174L-3.52569 15.4965L-4.5476 16.2174L-4.20259 14.9345L-5.11023 14.1214H-3.92473L-3.52712 13.0744ZM2.10413 13.0744L2.57035 14.1214H3.58096L2.7869 14.9345L3.09432 16.2174L2.10556 15.4965L1.08365 16.2174L1.42866 14.9345L0.52102 14.1214H1.70652L2.10413 13.0744ZM7.73538 13.0744L8.2016 14.1214H9.21221L8.41815 14.9345L8.72557 16.2174L7.73681 15.4965L6.7149 16.2174L7.05991 14.9345L6.15227 14.1214H7.33777L7.73538 13.0744ZM13.3666 13.0744L13.8329 14.1214H14.8435L14.0494 14.9345L14.3568 16.2174L13.3681 15.4965L12.3462 16.2174L12.6912 14.9345L11.7835 14.1214H12.969L13.3666 13.0744ZM18.9979 13.0744L19.4641 14.1214H20.4747L19.6807 14.9345L19.9881 16.2174L18.9993 15.4965L17.9774 16.2174L18.3224 14.9345L17.4148 14.1214H18.6003L18.9979 13.0744ZM-0.711496 10.2411L-0.245269 11.2881H0.765337L-0.02872 12.1011L0.278692 13.3841L-0.710068 12.6632L-1.73197 13.3841L-1.38697 12.1011L-2.2946 11.2881H-1.1091L-0.711496 10.2411ZM4.91975 10.2411L5.38598 11.2881H6.39659L5.60253 12.1011L5.90994 13.3841L4.92118 12.6632L3.89928 13.3841L4.24428 12.1011L3.33664 11.2881H4.52215L4.91975 10.2411ZM10.551 10.2411L11.0172 11.2881H12.0278L11.2338 12.1011L11.5412 13.3841L10.5524 12.6632L9.53053 13.3841L9.87553 12.1011L8.96789 11.2881H10.1534L10.551 10.2411ZM16.1823 10.2411L16.6485 11.2881H17.6591L16.865 12.1011L17.1724 13.3841L16.1837 12.6632L15.1618 13.3841L15.5068 12.1011L14.5991 11.2881H15.7846L16.1823 10.2411ZM7.73538 7.40776L8.2016 8.45477H9.21221L8.41815 9.26781L8.72557 10.5508L7.73681 9.82983L6.7149 10.5508L7.05991 9.26781L6.15227 8.45477H7.33777L7.73538 7.40776ZM13.3666 7.40776L13.8329 8.45477H14.8435L14.0494 9.26781L14.3568 10.5508L13.3681 9.82983L12.3462 10.5508L12.6912 9.26781L11.7835 8.45477H12.969L13.3666 7.40776ZM-3.52712 7.40776L-3.06089 8.45477H-2.05029L-2.84434 9.26781L-2.53693 10.5508L-3.52569 9.82983L-4.5476 10.5508L-4.20259 9.26781L-5.11023 8.45477H-3.92473L-3.52712 7.40776ZM2.10413 7.40776L2.57035 8.45477H3.58096L2.7869 9.26781L3.09432 10.5508L2.10556 9.82983L1.08365 10.5508L1.42866 9.26781L0.52102 8.45477H1.70652L2.10413 7.40776ZM18.9979 7.40776L19.4641 8.45477H20.4747L19.6807 9.26781L19.9881 10.5508L18.9993 9.82983L17.9774 10.5508L18.3224 9.26781L17.4148 8.45477H18.6003L18.9979 7.40776ZM-0.711496 4.57442L-0.245269 5.62143H0.765337L-0.02872 6.43448L0.278692 7.71742L-0.710068 6.9965L-1.73197 7.71742L-1.38697 6.43448L-2.2946 5.62143H-1.1091L-0.711496 4.57442ZM4.91975 4.57442L5.38598 5.62143H6.39659L5.60253 6.43448L5.90994 7.71742L4.92118 6.9965L3.89928 7.71742L4.24428 6.43448L3.33664 5.62143H4.52215L4.91975 4.57442ZM10.551 4.57442L11.0172 5.62143H12.0278L11.2338 6.43448L11.5412 7.71742L10.5524 6.9965L9.53053 7.71742L9.87553 6.43448L8.96789 5.62143H10.1534L10.551 4.57442ZM16.1823 4.57442L16.6485 5.62143H17.6591L16.865 6.43448L17.1724 7.71742L16.1837 6.9965L15.1618 7.71742L15.5068 6.43448L14.5991 5.62143H15.7846L16.1823 4.57442ZM-3.52712 1.74109L-3.06089 2.7881H-2.05029L-2.84434 3.60114L-2.53693 4.88409L-3.52569 4.16317L-4.5476 4.88409L-4.20259 3.60114L-5.11023 2.7881H-3.92473L-3.52712 1.74109ZM2.10413 1.74109L2.57035 2.7881H3.58096L2.7869 3.60114L3.09432 4.88409L2.10556 4.16317L1.08365 4.88409L1.42866 3.60114L0.52102 2.7881H1.70652L2.10413 1.74109ZM7.73538 1.74109L8.2016 2.7881H9.21221L8.41815 3.60114L8.72557 4.88409L7.73681 4.16317L6.7149 4.88409L7.05991 3.60114L6.15227 2.7881H7.33777L7.73538 1.74109ZM13.3666 1.74109L13.8329 2.7881H14.8435L14.0494 3.60114L14.3568 4.88409L13.3681 4.16317L12.3462 4.88409L12.6912 3.60114L11.7835 2.7881H12.969L13.3666 1.74109ZM18.9979 1.74109L19.4641 2.7881H20.4747L19.6807 3.60114L19.9881 4.88409L18.9993 4.16317L17.9774 4.88409L18.3224 3.60114L17.4148 2.7881H18.6003L18.9979 1.74109Z" fill="#F7FCFF"/>
</g>
</g>
</g>
</g>
</g>
<defs>
<filter id="filter0_d_1_2502" x="-36" y="-111" width="385.333" height="478" filterUnits="userSpaceOnUse" color-interpolation-filters="sRGB">
<feFlood flood-opacity="0" result="BackgroundImageFix"/>
<feColorMatrix in="SourceAlpha" type="matrix" values="0 0 0 0 0 0 0 0 0 0 0 0 0 0 0 0 0 0 127 0" result="hardAlpha"/>
<feOffset dy="3"/>
<feGaussianBlur stdDeviation="6"/>
<feComposite in2="hardAlpha" operator="out"/>
<feColorMatrix type="matrix" values="0 0 0 0 0.184314 0 0 0 0 0.168627 0 0 0 0 0.239216 0 0 0 0.14 0"/>
<feBlend mode="normal" in2="BackgroundImageFix" result="effect1_dropShadow_1_2502"/>
<feBlend mode="normal" in="SourceGraphic" in2="effect1_dropShadow_1_2502" result="shape"/>
</filter>
<clipPath id="clip0_1_2502">
<rect width="1440" height="1856" fill="white" transform="translate(-308 -909)"/>
</clipPath>
<clipPath id="clip1_1_2502">
<rect width="34" height="34" fill="white"/>
</clipPath>
</defs>
</svg>
