<svg width="34" height="34" viewBox="0 0 34 34" fill="none" xmlns="http://www.w3.org/2000/svg">
<g clip-path="url(#clip0_320_106319)">
<mask id="mask0_320_106319" style="mask-type:alpha" maskUnits="userSpaceOnUse" x="0" y="0" width="34" height="34">
<path d="M17 34C26.3888 34 34 26.3888 34 17C34 7.61116 26.3888 0 17 0C7.61116 0 0 7.61116 0 17C0 26.3888 7.61116 34 17 34Z" fill="white"/>
</mask>
<g mask="url(#mask0_320_106319)">
<mask id="mask1_320_106319" style="mask-type:alpha" maskUnits="userSpaceOnUse" x="-6" y="0" width="46" height="34">
<path d="M39.6667 0H-5.66666V34H39.6667V0Z" fill="white"/>
</mask>
<g mask="url(#mask1_320_106319)">
<path d="M25.5 0H39.6667V34H25.5V0Z" fill="#F50100"/>
<path d="M-5.66666 0H11.3333V34H-5.66666V0Z" fill="#2E42A5"/>
<path d="M8.5 0H25.5V34H8.5V0Z" fill="#F7FCFF"/>
</g>
</g>
</g>
<defs>
<clipPath id="clip0_320_106319">
<rect width="34" height="34" fill="white"/>
</clipPath>
</defs>
</svg>
