<svg width="34" height="34" viewBox="0 0 34 34" fill="none" xmlns="http://www.w3.org/2000/svg">
<g clip-path="url(#clip0_320_106348)">
<mask id="mask0_320_106348" style="mask-type:alpha" maskUnits="userSpaceOnUse" x="0" y="0" width="34" height="34">
<path d="M17 34C26.3888 34 34 26.3888 34 17C34 7.61116 26.3888 0 17 0C7.61116 0 0 7.61116 0 17C0 26.3888 7.61116 34 17 34Z" fill="white"/>
</mask>
<g mask="url(#mask0_320_106348)">
<path d="M38.0182 0H-3.9409C-4.87978 0 -5.6409 0.761116 -5.6409 1.7V32.3C-5.6409 33.2389 -4.87978 34 -3.9409 34H38.0182C38.9571 34 39.7182 33.2389 39.7182 32.3V1.7C39.7182 0.761116 38.9571 0 38.0182 0Z" fill="black"/>
<mask id="mask1_320_106348" style="mask-type:alpha" maskUnits="userSpaceOnUse" x="-6" y="0" width="46" height="34">
<path d="M38.0182 0H-3.9409C-4.87978 0 -5.6409 0.761116 -5.6409 1.7V32.3C-5.6409 33.2389 -4.87978 34 -3.9409 34H38.0182C38.9571 34 39.7182 33.2389 39.7182 32.3V1.7C39.7182 0.761116 38.9571 0 38.0182 0Z" fill="white"/>
</mask>
<g mask="url(#mask1_320_106348)">
<mask id="mask2_320_106348" style="mask-type:alpha" maskUnits="userSpaceOnUse" x="-6" y="0" width="46" height="34">
<path d="M39.7182 0H-5.6409V34H39.7182V0Z" fill="white"/>
</mask>
<g mask="url(#mask2_320_106348)">
<path d="M-5.6409 0H39.7182V34H-5.6409V0Z" fill="#E31D1C"/>
<path d="M15.6435 6.44348L14.2116 7.30741L14.5382 5.62153L13.3458 4.35982L14.9604 4.2916L15.6435 2.71741L16.3266 4.2916H17.9384L16.7487 5.62153L17.1069 7.30741L15.6435 6.44348Z" fill="#FECA00"/>
<path d="M4.30624 13.6102L0.222736 15.8074L1.15416 11.5198L-2.2464 8.31103L2.35814 8.13753L4.30624 4.13403L6.25433 8.13753H10.851L7.45832 11.5198L8.47973 15.8074L4.30624 13.6102Z" fill="#FECA00"/>
<path d="M18.4784 12.1101L17.0465 12.974L17.3731 11.2882L16.1807 10.0264L17.7953 9.95822L18.4784 8.38403L19.1615 9.95822H20.7733L19.5837 11.2882L19.9418 12.974L18.4784 12.1101Z" fill="#FECA00"/>
<path d="M17.0609 17.7768L15.629 18.6408L15.9556 16.9549L14.7632 15.6932L16.3778 15.625L17.0609 14.0508L17.744 15.625H19.3559L18.1662 16.9549L18.5244 18.6408L17.0609 17.7768Z" fill="#FECA00"/>
<path d="M12.8085 22.0269L11.3766 22.8908L11.7032 21.2049L10.5108 19.9432L12.1254 19.875L12.8085 18.3008L13.4916 19.875H15.1034L13.9138 21.2049L14.2719 22.8908L12.8085 22.0269Z" fill="#FECA00"/>
</g>
</g>
<mask id="mask3_320_106348" style="mask-type:alpha" maskUnits="userSpaceOnUse" x="-6" y="0" width="46" height="34">
<path d="M38.0182 0H-3.9409C-4.87978 0 -5.6409 0.761116 -5.6409 1.7V32.3C-5.6409 33.2389 -4.87978 34 -3.9409 34H38.0182C38.9571 34 39.7182 33.2389 39.7182 32.3V1.7C39.7182 0.761116 38.9571 0 38.0182 0Z" fill="white"/>
</mask>
<g mask="url(#mask3_320_106348)">
<path d="M37.3095 0.708374H-3.23216C-4.17104 0.708374 -4.93216 1.46949 -4.93216 2.40837V31.5917C-4.93216 32.5306 -4.17104 33.2917 -3.23216 33.2917H37.3095C38.2483 33.2917 39.0095 32.5306 39.0095 31.5917V2.40837C39.0095 1.46949 38.2483 0.708374 37.3095 0.708374Z" stroke="black" stroke-opacity="0.1"/>
</g>
</g>
</g>
<defs>
<clipPath id="clip0_320_106348">
<rect width="34" height="34" fill="white"/>
</clipPath>
</defs>
</svg>
