<svg width="34" height="34" viewBox="0 0 34 34" fill="none" xmlns="http://www.w3.org/2000/svg">
<g clip-path="url(#clip0_320_106252)">
<mask id="mask0_320_106252" style="mask-type:alpha" maskUnits="userSpaceOnUse" x="0" y="0" width="34" height="34">
<path d="M17 34C26.3888 34 34 26.3888 34 17C34 7.61116 26.3888 0 17 0C7.61116 0 0 7.61116 0 17C0 26.3888 7.61116 34 17 34Z" fill="white"/>
</mask>
<g mask="url(#mask0_320_106252)">
<path d="M38.0182 0H-3.9409C-4.87978 0 -5.6409 0.761116 -5.6409 1.7V32.3C-5.6409 33.2389 -4.87978 34 -3.9409 34H38.0182C38.9571 34 39.7182 33.2389 39.7182 32.3V1.7C39.7182 0.761116 38.9571 0 38.0182 0Z" fill="black"/>
<mask id="mask1_320_106252" style="mask-type:alpha" maskUnits="userSpaceOnUse" x="-6" y="0" width="46" height="34">
<path d="M38.0182 0H-3.9409C-4.87978 0 -5.6409 0.761116 -5.6409 1.7V32.3C-5.6409 33.2389 -4.87978 34 -3.9409 34H38.0182C38.9571 34 39.7182 33.2389 39.7182 32.3V1.7C39.7182 0.761116 38.9571 0 38.0182 0Z" fill="white"/>
</mask>
<g mask="url(#mask1_320_106252)">
<mask id="mask2_320_106252" style="mask-type:alpha" maskUnits="userSpaceOnUse" x="-6" y="0" width="46" height="34">
<path d="M39.7182 0H-5.6409V34H39.7182V0Z" fill="white"/>
</mask>
<g mask="url(#mask2_320_106252)">
<path d="M39.7182 0H-5.6409V34H39.7182V0Z" fill="#2E42A5"/>
<mask id="mask3_320_106252" style="mask-type:alpha" maskUnits="userSpaceOnUse" x="-6" y="0" width="46" height="34">
<path d="M39.7182 0H-5.6409V34H39.7182V0Z" fill="white"/>
</mask>
<g mask="url(#mask3_320_106252)">
<path d="M19.8736 0H-5.6409V19.8333H19.8736V0Z" fill="#2B409A"/>
<mask id="mask4_320_106252" style="mask-type:alpha" maskUnits="userSpaceOnUse" x="-6" y="0" width="26" height="20">
<path d="M19.8736 0H-5.6409V19.8333H19.8736V0Z" fill="white"/>
</mask>
<g mask="url(#mask4_320_106252)">
<path d="M-8.48187 18.4164L-2.86734 20.8774L20.001 2.67572L22.9625 -0.981454L16.9586 -1.804L7.63116 6.03964L0.123518 11.3244L-8.48187 18.4164Z" fill="#F7FCFF"/>
<path d="M-7.71323 20.1407L-4.85288 21.5688L21.8991 -1.32125H17.8828L-7.71323 20.1407Z" fill="#F50100"/>
<path d="M22.7146 18.4164L17.1001 20.8774L-5.76828 2.67572L-8.72982 -0.981454L-2.72588 -1.804L6.60157 6.03964L14.1092 11.3244L22.7146 18.4164Z" fill="#F7FCFF"/>
<path d="M22.523 19.654L19.6627 21.0822L8.2714 11.2817L4.89414 10.1867L-9.0148 -0.968853H-4.99854L8.90258 9.92195L12.595 11.2349L22.523 19.654Z" fill="#F50100"/>
<path d="M9.57505 -1.0625L9.57433 7.4375H20.9367V12.3958H9.57433L9.57505 20.8958H4.6139L4.61317 12.3958H-6.70401V7.4375H4.61317L4.6139 -1.0625H9.57505Z" fill="#F50100" stroke="#F7FCFF" stroke-width="1.5"/>
</g>
</g>
<mask id="mask5_320_106252" style="mask-type:alpha" maskUnits="userSpaceOnUse" x="-6" y="0" width="46" height="34">
<path d="M39.7182 0H-5.6409V34H39.7182V0Z" fill="white"/>
</mask>
<g mask="url(#mask5_320_106252)">
<path d="M7.11635 29.0417L5.27129 30.7459L5.45401 28.2417L2.97055 27.8625L5.04345 26.4439L3.79168 24.2669L6.19382 25.0022L7.11635 22.6667L8.03888 25.0022L10.441 24.2669L9.18925 26.4439L11.2621 27.8625L8.77868 28.2417L8.9614 30.7459L7.11635 29.0417Z" fill="#F7FCFF"/>
<path d="M25.5435 18.4167L24.3134 19.5528L24.4352 17.8834L22.7796 17.6306L24.1615 16.6848L23.327 15.2335L24.9284 15.7237L25.5435 14.1667L26.1585 15.7237L27.7599 15.2335L26.9254 16.6848L28.3073 17.6306L26.6517 17.8834L26.7735 19.5528L25.5435 18.4167Z" fill="#F7FCFF"/>
<path d="M28.3784 7.08337L27.1484 8.21945L27.2702 6.54998L25.6146 6.29718L26.9965 5.35147L26.162 3.90015L27.7634 4.39033L28.3784 2.83337L28.9934 4.39033L30.5949 3.90015L29.7604 5.35147L31.1423 6.29718L29.4867 6.54998L29.6085 8.21945L28.3784 7.08337Z" fill="#F7FCFF"/>
<path d="M35.4658 12.75L34.2357 13.8861L34.3575 12.2166L32.7019 11.9638L34.0838 11.0181L33.2493 9.56678L34.8508 10.057L35.4658 8.5L36.0808 10.057L37.6822 9.56678L36.8477 11.0181L38.2296 11.9638L36.574 12.2166L36.6958 13.8861L35.4658 12.75Z" fill="#F7FCFF"/>
<path d="M29.7959 31.1667L28.5659 32.3028L28.6877 30.6334L27.032 30.3806L28.414 29.4348L27.5795 27.9835L29.1809 28.4737L29.7959 26.9167L30.4109 28.4737L32.0124 27.9835L31.1778 29.4348L32.5598 30.3806L30.9041 30.6334L31.0259 32.3028L29.7959 31.1667Z" fill="#F7FCFF"/>
<path d="M34.757 20.1875L33.5073 20.8442L33.746 19.4533L32.7349 18.4683L34.1322 18.2654L34.757 17L35.3819 18.2654L36.7792 18.4683L35.7681 19.4533L36.0068 20.8442L34.757 20.1875Z" fill="#F7FCFF"/>
</g>
</g>
</g>
<mask id="mask6_320_106252" style="mask-type:alpha" maskUnits="userSpaceOnUse" x="-6" y="0" width="46" height="34">
<path d="M38.0182 0H-3.9409C-4.87978 0 -5.6409 0.761116 -5.6409 1.7V32.3C-5.6409 33.2389 -4.87978 34 -3.9409 34H38.0182C38.9571 34 39.7182 33.2389 39.7182 32.3V1.7C39.7182 0.761116 38.9571 0 38.0182 0Z" fill="white"/>
</mask>
<g mask="url(#mask6_320_106252)">
<path d="M37.3095 0.708374H-3.23216C-4.17104 0.708374 -4.93216 1.46949 -4.93216 2.40837V31.5917C-4.93216 32.5306 -4.17104 33.2917 -3.23216 33.2917H37.3095C38.2483 33.2917 39.0095 32.5306 39.0095 31.5917V2.40837C39.0095 1.46949 38.2483 0.708374 37.3095 0.708374Z" stroke="black" stroke-opacity="0.1"/>
</g>
</g>
</g>
<defs>
<clipPath id="clip0_320_106252">
<rect width="34" height="34" fill="white"/>
</clipPath>
</defs>
</svg>
