<svg width="40" height="40" viewBox="0 0 40 40" fill="none" xmlns="http://www.w3.org/2000/svg">
<path d="M24.4219 3.32162C25.6834 3.32162 26.8931 3.82316 27.7852 4.71518C28.6771 5.60718 29.1787 6.81704 29.1787 8.07846C29.1786 9.33984 28.6771 10.5498 27.7852 11.4417L27.0781 10.7347L27.7822 11.4447C27.7626 11.4641 27.7408 11.4813 27.7207 11.5003H33.75C34.9926 11.5003 36 12.5077 36 13.7503V18.7503C35.9998 19.9928 34.9925 21.0003 33.75 21.0003H33.5V31.2503C33.4999 31.8469 33.2627 32.4193 32.8408 32.8412C32.4189 33.263 31.8467 33.5003 31.25 33.5003H8.75C8.15334 33.5003 7.58112 33.263 7.15918 32.8412C6.7373 32.4193 6.50009 31.847 6.5 31.2503V21.0003H6.25C5.00747 21.0003 4.00018 19.9928 4 18.7503V13.7503C4 12.5077 5.00736 11.5003 6.25 11.5003H12.2793C12.2592 11.4814 12.2374 11.4641 12.2178 11.4447L12.9219 10.7347L12.2148 11.4417C11.323 10.5498 10.8214 9.33979 10.8213 8.07846C10.8213 6.81702 11.3229 5.60719 12.2148 4.71518C13.1068 3.82322 14.3167 3.32169 15.5781 3.32162C16.7607 3.32171 17.8981 3.76211 18.7705 4.55209L18.9414 4.71518L18.9443 4.71811C19.4071 5.18507 19.746 5.78911 20 6.41147C20.254 5.78906 20.5928 5.18511 21.0557 4.71811L21.0586 4.71518C21.9506 3.82316 23.1604 3.32162 24.4219 3.32162ZM8.5 31.2503C8.50009 31.3165 8.52644 31.3803 8.57324 31.4271C8.62011 31.4739 8.68377 31.5003 8.75 31.5003H19V21.0003H8.5V31.2503ZM21 31.5003H31.25C31.3162 31.5003 31.3799 31.4739 31.4268 31.4271C31.4736 31.3803 31.4999 31.3165 31.5 31.2503V21.0003H21V31.5003ZM6.25 13.5003C6.11193 13.5003 6 13.6123 6 13.7503V18.7503C6.00018 18.8883 6.11204 19.0003 6.25 19.0003H19V13.5003H6.25ZM21 19.0003H33.75C33.888 19.0003 33.9998 18.8883 34 18.7503V13.7503C34 13.6123 33.8881 13.5003 33.75 13.5003H21V19.0003ZM15.5781 5.32162C14.8471 5.32169 14.1458 5.61235 13.6289 6.12924C13.112 6.64617 12.8213 7.34745 12.8213 8.07846C12.8214 8.80767 13.1104 9.50726 13.625 10.0238C13.9108 10.307 14.4077 10.5777 15.0947 10.806C15.7647 11.0286 16.5299 11.1838 17.2695 11.2894C17.895 11.3786 18.4855 11.4286 18.958 11.4583C18.9282 10.9858 18.8783 10.3954 18.7891 9.76987C18.6835 9.03013 18.5283 8.26507 18.3057 7.59506C18.0773 6.90801 17.8067 6.41211 17.5234 6.12631V6.12534C17.0069 5.61078 16.3073 5.32171 15.5781 5.32162ZM24.4219 5.32162C23.6908 5.32162 22.9896 5.6123 22.4727 6.12924C22.1906 6.41555 21.9208 6.91059 21.6934 7.59506C21.4707 8.26502 21.3165 9.0302 21.2109 9.76987C21.1217 10.3954 21.0708 10.9858 21.041 11.4583C21.5135 11.4286 22.1038 11.3787 22.7295 11.2894C23.4694 11.1838 24.2351 11.0287 24.9053 10.806C25.5924 10.5776 26.0882 10.3071 26.374 10.0238C26.8889 9.50722 27.1786 8.80788 27.1787 8.07846C27.1787 7.34747 26.8879 6.64617 26.3711 6.12924C25.8541 5.6123 25.1529 5.32162 24.4219 5.32162Z" fill="#2F2B3D" fill-opacity="0.9"/>
<path opacity="0.2" d="M32.5 20V31.25C32.5 31.5815 32.3683 31.8995 32.1339 32.1339C31.8995 32.3683 31.5815 32.5 31.25 32.5H8.75C8.41848 32.5 8.10054 32.3683 7.86612 32.1339C7.6317 31.8995 7.5 31.5815 7.5 31.25V20H32.5Z" fill="#2F2B3D" fill-opacity="0.9"/>
</svg>
