<svg width="40" height="40" viewBox="0 0 40 40" fill="none" xmlns="http://www.w3.org/2000/svg">
<path opacity="0.2" d="M23.75 33.75V23.75H16.25V33.75H6.25002V18.0469C6.2491 17.8733 6.28481 17.7015 6.35482 17.5426C6.42482 17.3838 6.52754 17.2415 6.65627 17.125L19.1563 5.76562C19.3841 5.5559 19.6825 5.43948 19.9922 5.43948C20.3019 5.43948 20.6003 5.5559 20.8281 5.76562L33.3438 17.125C33.4696 17.2438 33.5703 17.3866 33.6401 17.5449C33.7098 17.7032 33.7472 17.8739 33.75 18.0469V33.75H23.75Z" fill="#2F2B3D" fill-opacity="0.9"/>
<path d="M33.75 33.75V18.0469C33.7472 17.8739 33.7098 17.7032 33.64 17.5449C33.5703 17.3866 33.4695 17.2438 33.3437 17.125L20.8281 5.76562C20.6003 5.5559 20.3019 5.43948 19.9922 5.43948C19.6825 5.43948 19.3841 5.5559 19.1562 5.76562L6.65625 17.125C6.52752 17.2415 6.4248 17.3838 6.3548 17.5426C6.2848 17.7015 6.24909 17.8733 6.25 18.0469V33.75M2.5 33.75H37.5M23.75 33.75V25C23.75 24.6685 23.6183 24.3505 23.3839 24.1161C23.1495 23.8817 22.8315 23.75 22.5 23.75H17.5C17.1685 23.75 16.8505 23.8817 16.6161 24.1161C16.3817 24.3505 16.25 24.6685 16.25 25V33.75" stroke="#2F2B3D" stroke-opacity="0.9" stroke-width="2" stroke-linecap="round" stroke-linejoin="round"/>
</svg>
