<svg width="40" height="40" viewBox="0 0 40 40" fill="none" xmlns="http://www.w3.org/2000/svg">
<path opacity="0.2" d="M6.25 27.5V11.25C6.25 10.587 6.51339 9.95107 6.98223 9.48223C7.45107 9.01339 8.08696 8.75 8.75 8.75H31.25C31.913 8.75 32.5489 9.01339 33.0178 9.48223C33.4866 9.95107 33.75 10.587 33.75 11.25V27.5H6.25Z" fill="#2F2B3D" fill-opacity="0.9"/>
<path d="M6.25 27.5V11.25C6.25 10.587 6.51339 9.95107 6.98223 9.48223C7.45107 9.01339 8.08696 8.75 8.75 8.75H31.25C31.913 8.75 32.5489 9.01339 33.0178 9.48223C33.4866 9.95107 33.75 10.587 33.75 11.25V27.5M22.5 13.75H17.5M3.75 27.5H36.25V30C36.25 30.663 35.9866 31.2989 35.5178 31.7678C35.0489 32.2366 34.413 32.5 33.75 32.5H6.25C5.58696 32.5 4.95107 32.2366 4.48223 31.7678C4.01339 31.2989 3.75 30.663 3.75 30V27.5Z" stroke="#2F2B3D" stroke-opacity="0.9" stroke-width="2" stroke-linecap="round" stroke-linejoin="round"/>
</svg>
