<svg width="40" height="40" viewBox="0 0 40 40" fill="none" xmlns="http://www.w3.org/2000/svg">
<path opacity="0.2" d="M12.2969 26.0937C10.8087 24.9366 9.60348 23.456 8.77239 21.7641C7.9413 20.0721 7.50618 18.2132 7.50001 16.3281C7.46876 9.54687 12.9219 3.90625 19.7031 3.75C22.3276 3.68778 24.9051 4.45344 27.0699 5.93838C29.2348 7.42333 30.8772 9.55217 31.7642 12.023C32.6512 14.4938 32.7378 17.1812 32.0117 19.704C31.2856 22.2268 29.7836 24.4569 27.7188 26.0781C27.2626 26.4307 26.8932 26.8829 26.6386 27.4001C26.384 27.9174 26.2511 28.486 26.25 29.0625V30C26.25 30.3315 26.1183 30.6495 25.8839 30.8839C25.6495 31.1183 25.3315 31.25 25 31.25H15C14.6685 31.25 14.3505 31.1183 14.1161 30.8839C13.8817 30.6495 13.75 30.3315 13.75 30V29.0625C13.7461 28.4903 13.6135 27.9264 13.3619 27.4125C13.1104 26.8985 12.7463 26.4478 12.2969 26.0937Z" fill="#2F2B3D" fill-opacity="0.9"/>
<path d="M26.2498 35.2504C26.802 35.2504 27.2498 35.6981 27.2498 36.2504C27.2496 36.8025 26.8019 37.2504 26.2498 37.2504H13.7498C13.1977 37.2502 12.75 36.8024 12.7498 36.2504C12.7498 35.6982 13.1976 35.2505 13.7498 35.2504H26.2498ZM19.6794 2.75037C22.5138 2.6832 25.2975 3.50994 27.6355 5.11365C29.9735 6.71733 31.7468 9.01657 32.7048 11.6849C33.6628 14.3534 33.7566 17.2562 32.9724 19.9808C32.1882 22.7052 30.5664 25.1138 28.3367 26.8646L28.3298 26.8695C27.9945 27.1288 27.7231 27.4618 27.5359 27.8422C27.3488 28.2225 27.2506 28.6409 27.2498 29.0648V30.0004C27.2497 30.597 27.0124 31.1693 26.5906 31.5912C26.1686 32.013 25.5964 32.2504 24.9998 32.2504H14.9998C14.4031 32.2503 13.8308 32.013 13.4089 31.5912C12.9871 31.1693 12.7499 30.597 12.7498 30.0004V29.0697L12.7449 28.9115C12.7217 28.5439 12.626 28.1837 12.4636 27.8519C12.2781 27.4729 12.009 27.1405 11.6775 26.8793V26.8783C10.0722 25.6287 8.77168 24.0305 7.87476 22.2045C6.97687 20.3764 6.50643 18.3681 6.49976 16.3314L6.50073 16.3304C6.46821 9.00876 12.3508 2.92051 19.6794 2.75134V2.75037ZM19.7263 4.74939C13.6883 4.88851 8.78586 9.7643 8.51147 15.7416L8.49976 16.3236V16.3246C8.50543 18.0579 8.90549 19.7679 9.66968 21.3236C10.4339 22.8792 11.5426 24.2402 12.9109 25.3041L12.2966 26.0941L12.9158 25.308C13.4831 25.7549 13.942 26.3243 14.2595 26.973C14.5771 27.6217 14.7448 28.3338 14.7498 29.056V30.0004C14.7499 30.0665 14.7762 30.1303 14.823 30.1771C14.8698 30.2239 14.9336 30.2503 14.9998 30.2504H24.9998C25.0659 30.2504 25.1297 30.2238 25.1765 30.1771C25.2233 30.1303 25.2497 30.0665 25.2498 30.0004V29.0609C25.2512 28.332 25.4191 27.6124 25.741 26.9584C26.0629 26.3043 26.5304 25.7323 27.1072 25.2865C29.0036 23.7954 30.3832 21.7456 31.0505 19.4271C31.7185 17.1062 31.639 14.6338 30.823 12.3607C30.007 10.0877 28.4961 8.12918 26.5046 6.76306C24.6373 5.48223 22.4359 4.78259 20.1785 4.74744L19.7263 4.74939ZM20.2791 8.70837C20.3713 8.16398 20.888 7.79697 21.4324 7.88904C23.1643 8.18262 24.7629 9.00691 26.0066 10.2474C27.2501 11.4879 28.0777 13.0839 28.3757 14.8148C28.4692 15.3589 28.1043 15.8763 27.5603 15.9701C27.0163 16.0636 26.499 15.6985 26.405 15.1547C26.1773 13.8316 25.544 12.6115 24.5935 11.6635C23.6431 10.7155 22.4219 10.0861 21.0984 9.86169C20.5542 9.76934 20.1871 9.25261 20.2791 8.70837Z" fill="#2F2B3D" fill-opacity="0.9"/>
</svg>
