<svg width="19" height="22" viewBox="0 0 19 22" fill="none" xmlns="http://www.w3.org/2000/svg">
<path d="M6.35586 18.94C6.27877 19.4257 5.85999 19.7833 5.36822 19.7833H1.53647C0.689727 19.7851 0.00183667 19.1001 3.27312e-06 18.2534C-0.000173328 18.1679 0.00679667 18.0825 0.0208567 17.9981L2.6107 1.5918C2.75795 0.67638 3.54679 0.00247 4.47398 0H10.6878C13.2484 0 15.096 0.62012 16.18 1.84277C17.2267 3.04862 17.6287 4.68467 17.2601 6.23828C17.2386 6.37305 17.2171 6.50879 17.1849 6.65628C16.3617 10.8741 13.5296 13.1133 8.99937 13.1133H7.28062L6.35586 18.94Z" fill="#FFA2A5"/>
<path d="M17.9104 6.10444C17.7443 5.91847 17.5617 5.74867 17.3654 5.59644C17.3435 5.81104 17.3105 6.0254 17.26 6.23822C17.2385 6.37299 17.217 6.50873 17.1848 6.65619C16.3616 10.874 13.5295 13.1132 8.99926 13.1132H7.28052L6.35578 18.9399C6.27869 19.4257 5.85987 19.7832 5.36811 19.7832H4.20044L4.11841 20.3037C4.10645 20.3793 4.10034 20.4559 4.10034 20.5325C4.10004 21.3427 4.75653 21.9996 5.56665 22H8.80103C9.66669 22.0073 10.4092 21.384 10.5521 20.5302L11.1927 16.499L11.2034 16.4443H11.5023C15.5345 16.4443 18.053 14.4511 18.7874 10.6816C19.2418 9.10334 18.916 7.40303 17.9104 6.10444Z" fill="#FF4C51"/>
</svg>
