<svg width="40" height="40" viewBox="0 0 40 40" fill="none" xmlns="http://www.w3.org/2000/svg">
<path opacity="0.2" d="M22.5 33.75V6.25C22.5 5.91848 22.3683 5.60054 22.1339 5.36612C21.8995 5.1317 21.5815 5 21.25 5H6.25C5.91848 5 5.60054 5.1317 5.36612 5.36612C5.1317 5.60054 5 5.91848 5 6.25V33.75" fill="#2F2B3D" fill-opacity="0.9"/>
<path d="M2.5 33.75H37.5M22.5 33.75V6.25C22.5 5.91848 22.3683 5.60054 22.1339 5.36612C21.8995 5.1317 21.5815 5 21.25 5H6.25C5.91848 5 5.60054 5.1317 5.36612 5.36612C5.1317 5.60054 5 5.91848 5 6.25V33.75M35 33.75V16.25C35 15.9185 34.8683 15.6005 34.6339 15.3661C34.3995 15.1317 34.0815 15 33.75 15H22.5M10 11.25H15M12.5 21.25H17.5M10 27.5H15M27.5 27.5H30M27.5 21.25H30" stroke="#2F2B3D" stroke-opacity="0.9" stroke-width="2" stroke-linecap="round" stroke-linejoin="round"/>
</svg>
