<svg width="41" height="41" viewBox="0 0 41 41" fill="none" xmlns="http://www.w3.org/2000/svg">
<path opacity="0.2" d="M33.6809 5.7496L3.82775 14.1578C3.57363 14.2273 3.3471 14.3734 3.17902 14.5763C3.01094 14.7792 2.90949 15.0289 2.88848 15.2915C2.86747 15.5541 2.92793 15.8168 3.06161 16.0439C3.1953 16.2709 3.39572 16.4512 3.63557 16.5602L17.3449 23.0465C17.6135 23.1708 17.8292 23.3865 17.9535 23.6551L24.4399 37.3644C24.5489 37.6043 24.7291 37.8047 24.9562 37.9384C25.1832 38.0721 25.4459 38.1325 25.7085 38.1115C25.9711 38.0905 26.2209 37.9891 26.4237 37.821C26.6266 37.6529 26.7727 37.4264 26.8422 37.1723L35.2504 7.31914C35.3141 7.10129 35.3181 6.87031 35.2618 6.65041C35.2056 6.43052 35.0912 6.2298 34.9307 6.06931C34.7702 5.90881 34.5695 5.79445 34.3496 5.7382C34.1297 5.68195 33.8987 5.68589 33.6809 5.7496Z" fill="#2F2B3D" fill-opacity="0.9"/>
<path d="M33.4093 4.78767C33.7964 4.6763 34.2065 4.66938 34.5968 4.76912C34.9902 4.86976 35.3496 5.07486 35.6368 5.36189C35.9242 5.64923 36.1299 6.00922 36.2306 6.40291C36.3312 6.7965 36.3241 7.21025 36.2101 7.60017L36.2091 7.5992L27.8058 37.4351C27.6821 37.8875 27.4227 38.2922 27.0616 38.5914C26.7006 38.8904 26.2555 39.0705 25.7882 39.108C25.3208 39.1453 24.8524 39.0382 24.4484 38.8004C24.0486 38.5649 23.7309 38.2124 23.5363 37.7916L23.5353 37.7926L17.049 24.0826L17.046 24.0758C17.0212 24.0222 16.9775 23.9785 16.924 23.9537L16.9171 23.9508L3.20715 17.4644V17.4625C2.78681 17.2677 2.43455 16.9508 2.19934 16.5513C1.96141 16.1472 1.85337 15.679 1.89075 15.2115C1.9282 14.7441 2.10926 14.2992 2.40833 13.9381C2.70581 13.579 3.10662 13.3195 3.55579 13.1949L33.4093 4.7867V4.78767ZM33.9513 6.71248L4.09875 15.1207L4.09094 15.1226C4.03535 15.1379 3.98515 15.17 3.94836 15.2144C3.91167 15.2589 3.88949 15.3142 3.88489 15.3717C3.88038 15.4291 3.89375 15.487 3.92297 15.5367C3.93756 15.5614 3.95562 15.5841 3.97668 15.6031L4.04895 15.65L4.06262 15.6558L17.549 22.0357L24.2931 15.2926C24.6836 14.9022 25.3166 14.9023 25.7072 15.2926C26.0975 15.6831 26.0975 16.3161 25.7072 16.7066L18.962 23.4508L25.3429 36.9371L25.3497 36.9508C25.3736 37.0033 25.4134 37.0474 25.463 37.0767C25.5127 37.106 25.5706 37.1193 25.6281 37.1148C25.6855 37.1102 25.7408 37.088 25.7853 37.0513C25.8297 37.0145 25.8618 36.9644 25.8771 36.9088L25.879 36.901L34.2872 7.04842L34.2902 7.03865C34.3035 6.99299 34.3039 6.94413 34.2921 6.89803C34.2803 6.85211 34.2563 6.81047 34.2228 6.77693C34.1892 6.74343 34.1476 6.71841 34.1017 6.70662C34.0557 6.69493 34.0066 6.69623 33.9611 6.70955L33.6808 5.74959L33.9513 6.71248Z" fill="#2F2B3D" fill-opacity="0.9"/>
</svg>
