<svg width="40" height="40" viewBox="0 0 40 40" fill="none" xmlns="http://www.w3.org/2000/svg">
<path opacity="0.2" d="M11.5471 17.4062C11.3596 21.0156 12.2502 25.2187 15.0002 30L10.3127 33.75C10.1472 33.8823 9.95041 33.9704 9.74146 34.0059C9.53243 34.0413 9.31744 34.0234 9.11743 33.9531C8.91744 33.8828 8.73874 33.762 8.5979 33.6035C8.45717 33.4451 8.3591 33.2536 8.31274 33.0469L6.39087 24.3438C6.34455 24.1596 6.34254 23.967 6.38599 23.7822C6.42949 23.5974 6.51727 23.4255 6.64087 23.2812L11.5471 17.4062ZM33.2659 23.1875C33.3894 23.3317 33.4763 23.5037 33.5198 23.6885C33.5632 23.8733 33.5622 24.0659 33.5159 24.25L31.594 32.9375C31.5497 33.1456 31.4526 33.3387 31.3127 33.499C31.1728 33.6593 30.9944 33.7815 30.7942 33.8535C30.5939 33.9255 30.3782 33.9457 30.1682 33.9111C29.9583 33.8766 29.7606 33.7885 29.594 33.6562L24.9065 29.9062C27.6564 25.1094 28.5471 20.9062 28.3596 17.2969L33.2659 23.1875Z" fill="#2F2B3D" fill-opacity="0.9"/>
<path d="M22.5002 33.9999C23.0524 34 23.5002 34.4477 23.5002 34.9999C23.5002 35.5521 23.0524 35.9997 22.5002 35.9999H17.5002C16.948 35.9999 16.5002 35.5522 16.5002 34.9999C16.5003 34.4477 16.948 33.9999 17.5002 33.9999H22.5002ZM20.0002 1.81042C20.5157 1.8105 21.014 1.9913 21.4114 2.31921L21.4124 2.31824C22.946 3.56635 26.2748 6.66797 28.1135 11.4471C28.7425 13.0821 29.1897 14.9016 29.3391 16.8944L34.1282 22.6405H34.1262C34.3495 22.9041 34.508 23.2163 34.5872 23.5526C34.665 23.8835 34.6636 24.228 34.5852 24.5585L32.6643 33.2626L32.6633 33.2655C32.5799 33.6378 32.4031 33.9833 32.1497 34.2684C31.8962 34.5535 31.5739 34.7698 31.2141 34.8964C30.8544 35.0228 30.468 35.0557 30.092 34.9921C29.7159 34.9283 29.3618 34.7692 29.0637 34.5311H29.0627L24.6487 30.9999H15.3508L10.9368 34.5311C10.6386 34.7693 10.2847 34.9282 9.90845 34.9921C9.53242 35.0558 9.14621 35.0228 8.78638 34.8964C8.42652 34.7698 8.1043 34.5535 7.85083 34.2684C7.59736 33.9832 7.42064 33.6378 7.33716 33.2655L7.33618 33.2626L5.41431 24.5594L5.41528 24.5585C5.3369 24.228 5.33547 23.8835 5.41333 23.5526C5.49347 23.2124 5.65369 22.8962 5.8811 22.6307L10.5667 17.0194C10.704 14.9745 11.1624 13.1101 11.8118 11.4384C13.6696 6.65546 17.0435 3.55379 18.594 2.31335V2.31433C18.9905 1.98925 19.4871 1.81042 20.0002 1.81042ZM7.40845 23.9218L7.39966 23.9315C7.38024 23.9542 7.36652 23.9816 7.35962 24.0106C7.35618 24.0252 7.35462 24.0406 7.35474 24.0555L7.3606 24.0995L7.36743 24.1278L9.28833 32.828L9.30981 32.8876C9.31933 32.9061 9.33106 32.9236 9.34497 32.9393C9.37313 32.971 9.40948 32.9956 9.44946 33.0096C9.48938 33.0236 9.53276 33.0265 9.57446 33.0194C9.61594 33.0123 9.65482 32.9948 9.68774 32.9686L13.7122 29.7479C11.8067 26.2427 10.873 23.0143 10.6067 20.0907L7.40845 23.9218ZM29.3245 20.0018C29.0795 22.9464 28.1672 26.2024 26.2805 29.743L30.3127 32.9686H30.3118C30.3448 32.995 30.3843 33.0123 30.426 33.0194C30.4677 33.0265 30.5111 33.0237 30.551 33.0096C30.5909 32.9956 30.6264 32.9709 30.6545 32.9393C30.6826 32.9077 30.7029 32.8693 30.7122 32.828L32.6331 24.1278C32.6351 24.1184 32.6376 24.1088 32.6399 24.0995C32.6471 24.0705 32.6477 24.0397 32.6409 24.0106C32.634 23.9816 32.6202 23.9542 32.6008 23.9315L32.5911 23.9218L29.3245 20.0018ZM20.0002 3.81042C19.949 3.81042 19.8989 3.82842 19.8596 3.86121C19.8544 3.8656 19.8493 3.87058 19.844 3.87488C18.4256 5.0096 15.3532 7.84487 13.676 12.163C12.0582 16.3285 11.6972 21.9749 15.5852 28.9999H24.4094C26.8007 24.5884 27.5438 20.7208 27.3694 17.4218C27.3619 17.3686 27.3585 17.3151 27.3596 17.2616C27.2422 15.3729 26.826 13.6727 26.2463 12.1659C24.5852 7.84796 21.5547 5.01171 20.1506 3.86902L20.1399 3.86121V3.86023C20.1008 3.82787 20.051 3.8105 20.0002 3.81042ZM20.0002 13.1249C21.0356 13.125 21.8752 13.9645 21.8752 14.9999C21.8752 16.0353 21.0357 16.8747 20.0002 16.8749C18.9647 16.8749 18.1252 16.0354 18.1252 14.9999C18.1253 13.9644 18.9648 13.1249 20.0002 13.1249Z" fill="#2F2B3D" fill-opacity="0.9"/>
</svg>
