<svg width="40" height="40" viewBox="0 0 40 40" fill="none" xmlns="http://www.w3.org/2000/svg">
<path opacity="0.2" d="M15 17.5C15 18.8261 14.4728 20.0975 13.5352 21.0352C12.5975 21.9728 11.3261 22.5 10 22.5C8.67392 22.5 7.40253 21.9728 6.46484 21.0352C5.52716 20.0975 5 18.8261 5 17.5V15L15 17.5ZM35 17.5C35 18.8261 34.4728 20.0975 33.5352 21.0352C32.5975 21.9728 31.3261 22.5 30 22.5C28.6739 22.5 27.4025 21.9728 26.4648 21.0352C25.5272 20.0975 25 18.8261 25 17.5V15L35 17.5Z" fill="#2F2B3D" fill-opacity="0.9"/>
<path d="M8.4375 6.25H31.5625C31.8337 6.25223 32.097 6.3415 32.3136 6.50466C32.5302 6.66782 32.6886 6.89623 32.7656 7.15625L35 15H5L7.23437 7.15625C7.31137 6.89623 7.46984 6.66782 7.68644 6.50466C7.90305 6.3415 8.16633 6.25223 8.4375 6.25V6.25Z" stroke="#2F2B3D" stroke-opacity="0.9" stroke-width="2" stroke-linecap="round" stroke-linejoin="round"/>
<path d="M35 14C35.5523 14 36 14.4477 36 15V17.5C36 19.0913 35.3674 20.617 34.2422 21.7422C34.0111 21.9732 33.7619 22.1818 33.5 22.3701V32.5C33.5 33.0967 33.2628 33.6689 32.8408 34.0908C32.4189 34.5128 31.8467 34.75 31.25 34.75H8.75C8.15326 34.75 7.58114 34.5128 7.15918 34.0908C6.73722 33.6689 6.5 33.0967 6.5 32.5V22.3701C6.23806 22.1818 5.98887 21.9732 5.75781 21.7422C4.63259 20.617 4 19.0913 4 17.5V15C4 14.4477 4.44772 14 5 14C5.55228 14 6 14.4477 6 15V17.5L6.00488 17.6982C6.0539 18.6869 6.46859 19.6248 7.17188 20.3281C7.38356 20.5398 7.61702 20.7246 7.86621 20.8818C7.9601 20.9188 8.04652 20.9702 8.12402 21.0322C8.69657 21.3364 9.33975 21.5 10 21.5C11.0609 21.5 12.078 21.0783 12.8281 20.3281C13.5314 19.6248 13.9461 18.6869 13.9951 17.6982L14 17.5V15C14 14.4477 14.4477 14 15 14C15.5523 14 16 14.4477 16 15V17.5L16.0049 17.6982C16.0539 18.6869 16.4686 19.6248 17.1719 20.3281C17.922 21.0783 18.9391 21.5 20 21.5C21.0609 21.5 22.078 21.0783 22.8281 20.3281C23.5783 19.578 24 18.5609 24 17.5V15C24 14.4477 24.4477 14 25 14C25.5523 14 26 14.4477 26 15V17.5C26 18.5609 26.4217 19.578 27.1719 20.3281C27.922 21.0783 28.9391 21.5 30 21.5C30.66 21.5 31.3026 21.3362 31.875 21.0322C31.9524 20.9701 32.039 20.9189 32.1328 20.8818C32.3823 20.7245 32.6162 20.54 32.8281 20.3281C33.5783 19.578 34 18.5609 34 17.5V15C34 14.4477 34.4477 14 35 14ZM15 20.8135C14.7803 21.1449 14.5276 21.4568 14.2422 21.7422C13.117 22.8674 11.5913 23.5 10 23.5C9.4895 23.5 8.98594 23.4342 8.5 23.3086V32.5C8.5 32.5663 8.52636 32.6299 8.57324 32.6768C8.62012 32.7236 8.68369 32.75 8.75 32.75H31.25C31.3163 32.75 31.3799 32.7236 31.4268 32.6768C31.4736 32.6299 31.5 32.5663 31.5 32.5V23.3086C31.0141 23.4342 30.5105 23.5 30 23.5C28.4087 23.5 26.883 22.8674 25.7578 21.7422C25.4724 21.4568 25.2197 21.1449 25 20.8135C24.7803 21.1449 24.5276 21.4568 24.2422 21.7422C23.117 22.8674 21.5913 23.5 20 23.5C18.4087 23.5 16.883 22.8674 15.7578 21.7422C15.4724 21.4568 15.2197 21.1449 15 20.8135Z" fill="#2F2B3D" fill-opacity="0.9"/>
</svg>
