<svg width="40" height="40" viewBox="0 0 40 40" fill="none" xmlns="http://www.w3.org/2000/svg">
<path opacity="0.2" d="M13.75 33.75H6.25C5.91848 33.75 5.60063 33.6182 5.36621 33.3838C5.13179 33.1494 5 32.8315 5 32.5V12.5C5 12.1685 5.13179 11.8506 5.36621 11.6162C5.60063 11.3818 5.91848 11.25 6.25 11.25H13.75V33.75ZM33.75 11.25C34.0815 11.25 34.3994 11.3818 34.6338 11.6162C34.8682 11.8506 35 12.1685 35 12.5V32.5C35 32.8315 34.8682 33.1494 34.6338 33.3838C34.3994 33.6182 34.0815 33.75 33.75 33.75H26.25V11.25H33.75Z" fill="#2F2B3D" fill-opacity="0.9"/>
<path d="M23.75 5.25C24.6783 5.25 25.5682 5.61901 26.2246 6.27539C26.881 6.93177 27.25 7.82174 27.25 8.75V10.25H33.75C34.9926 10.25 36 11.2574 36 12.5V32.5C36 33.7426 34.9926 34.75 33.75 34.75H6.25C5.00736 34.75 4 33.7426 4 32.5V12.5C4 11.2574 5.00736 10.25 6.25 10.25H12.75V8.75C12.75 7.82174 13.119 6.93177 13.7754 6.27539C14.4318 5.61901 15.3217 5.25 16.25 5.25H23.75ZM27.25 32.75H33.75C33.8881 32.75 34 32.6381 34 32.5V12.5C34 12.3619 33.8881 12.25 33.75 12.25H27.25V32.75ZM14.75 32.75H25.25V12.25H14.75V32.75ZM6.25 12.25C6.11193 12.25 6 12.3619 6 12.5V32.5C6 32.6381 6.11193 32.75 6.25 32.75H12.75V12.25H6.25ZM16.25 7.25C15.8522 7.25 15.4708 7.40815 15.1895 7.68945C14.9081 7.97076 14.75 8.35218 14.75 8.75V10.25H25.25V8.75C25.25 8.35218 25.0919 7.97076 24.8105 7.68945C24.5645 7.44337 24.2417 7.29195 23.8984 7.25781L23.75 7.25H16.25Z" fill="#2F2B3D" fill-opacity="0.9"/>
</svg>
