<svg width="40" height="40" viewBox="0 0 40 40" fill="none" xmlns="http://www.w3.org/2000/svg">
<path opacity="0.2" d="M20 13.75C20 10.3125 22.8906 7.45311 26.3281 7.49999C27.5319 7.51389 28.7061 7.87517 29.7095 8.54042C30.713 9.20566 31.5029 10.1466 31.9844 11.25H37.5L32.4531 16.2969C32.1274 21.3665 29.8832 26.1218 26.1768 29.596C22.4705 33.0702 17.5801 35.0025 12.5 35C7.49999 35 6.24999 33.125 6.24999 33.125C6.24999 33.125 11.25 31.25 13.75 27.5C13.75 27.5 3.74999 22.5 6.24999 8.74999C6.24999 8.74999 12.5 15 20 16.25V13.75Z" fill="#2F2B3D" fill-opacity="0.9"/>
<path d="M20 13.75C20 10.3125 22.8906 7.45311 26.3281 7.49999C27.5319 7.51389 28.7061 7.87517 29.7095 8.54042C30.713 9.20566 31.5029 10.1466 31.9844 11.25H37.5L32.4531 16.2969C32.1274 21.3665 29.8832 26.1218 26.1768 29.596C22.4705 33.0702 17.5801 35.0025 12.5 35C7.49999 35 6.24999 33.125 6.24999 33.125C6.24999 33.125 11.25 31.25 13.75 27.5C13.75 27.5 3.74999 22.5 6.24999 8.74999C6.24999 8.74999 12.5 15 20 16.25V13.75Z" stroke="#2F2B3D" stroke-opacity="0.9" stroke-width="2" stroke-linecap="round" stroke-linejoin="round"/>
</svg>
