<svg width="40" height="40" viewBox="0 0 40 40" fill="none" xmlns="http://www.w3.org/2000/svg">
<path opacity="0.2" d="M31.25 5H8.75C8.41848 5 8.10054 5.1317 7.86612 5.36612C7.6317 5.60054 7.5 5.91848 7.5 6.25V33.75C7.5 34.0815 7.6317 34.3995 7.86612 34.6339C8.10054 34.8683 8.41848 35 8.75 35H31.25C31.5815 35 31.8995 34.8683 32.1339 34.6339C32.3683 34.3995 32.5 34.0815 32.5 33.75V6.25C32.5 5.91848 32.3683 5.60054 32.1339 5.36612C31.8995 5.1317 31.5815 5 31.25 5ZM20 26.25C19.0111 26.25 18.0444 25.9568 17.2221 25.4073C16.3999 24.8579 15.759 24.077 15.3806 23.1634C15.0022 22.2498 14.9031 21.2445 15.0961 20.2745C15.289 19.3046 15.7652 18.4137 16.4645 17.7145C17.1637 17.0152 18.0546 16.539 19.0245 16.3461C19.9945 16.1531 20.9998 16.2522 21.9134 16.6306C22.827 17.009 23.6079 17.6499 24.1573 18.4721C24.7068 19.2944 25 20.2611 25 21.25C25 22.5761 24.4732 23.8479 23.5355 24.7855C22.5979 25.7232 21.3261 26.25 20 26.25Z" fill="#2F2B3D" fill-opacity="0.9"/>
<path d="M20 26.25C22.7614 26.25 25 24.0114 25 21.25C25 18.4886 22.7614 16.25 20 16.25C17.2386 16.25 15 18.4886 15 21.25C15 24.0114 17.2386 26.25 20 26.25ZM20 26.25C18.5446 26.25 17.1091 26.5889 15.8074 27.2397C14.5056 27.8906 13.3733 28.8357 12.5 30M20 26.25C21.4554 26.25 22.8909 26.5889 24.1926 27.2397C25.4944 27.8906 26.6267 28.8357 27.5 30M15 10H25M32.5 6.25V33.75C32.5 34.4404 31.9404 35 31.25 35H8.75C8.05964 35 7.5 34.4404 7.5 33.75V6.25C7.5 5.55964 8.05964 5 8.75 5H31.25C31.9404 5 32.5 5.55964 32.5 6.25Z" stroke="#2F2B3D" stroke-opacity="0.9" stroke-width="2" stroke-linecap="round" stroke-linejoin="round"/>
</svg>
