<svg width="40" height="40" viewBox="0 0 40 40" fill="none" xmlns="http://www.w3.org/2000/svg">
<path opacity="0.2" d="M6.25 30C6.25 30.663 6.51339 31.2989 6.98223 31.7678C7.45107 32.2366 8.08696 32.5 8.75 32.5H33.75C34.0815 32.5 34.3995 32.3683 34.6339 32.1339C34.8683 31.8995 35 31.5815 35 31.25V13.75C35 13.4185 34.8683 13.1005 34.6339 12.8661C34.3995 12.6317 34.0815 12.5 33.75 12.5H8.75C8.08696 12.5 7.45107 12.2366 6.98223 11.7678C6.51339 11.2989 6.25 10.663 6.25 10V30Z" fill="#2F2B3D" fill-opacity="0.9"/>
<path d="M6.25 10V30C6.25 30.663 6.51339 31.2989 6.98223 31.7678C7.45107 32.2366 8.08696 32.5 8.75 32.5H33.75C34.0815 32.5 34.3995 32.3683 34.6339 32.1339C34.8683 31.8995 35 31.5815 35 31.25V13.75C35 13.4185 34.8683 13.1005 34.6339 12.8661C34.3995 12.6317 34.0815 12.5 33.75 12.5H8.75C8.08696 12.5 7.45107 12.2366 6.98223 11.7678C6.51339 11.2989 6.25 10.663 6.25 10ZM6.25 10C6.25 9.33696 6.51339 8.70107 6.98223 8.23223C7.45107 7.76339 8.08696 7.5 8.75 7.5H30" stroke="#2F2B3D" stroke-opacity="0.9" stroke-width="2" stroke-linecap="round" stroke-linejoin="round"/>
<path d="M28.125 24.375C29.1605 24.375 30 23.5355 30 22.5C30 21.4645 29.1605 20.625 28.125 20.625C27.0895 20.625 26.25 21.4645 26.25 22.5C26.25 23.5355 27.0895 24.375 28.125 24.375Z" fill="#2F2B3D" fill-opacity="0.9"/>
</svg>
