<svg width="16" height="20" viewBox="0 0 16 20" fill="none" xmlns="http://www.w3.org/2000/svg">
<g clip-path="url(#clip0_1_443895)">
<path fill-rule="evenodd" clip-rule="evenodd" d="M15.3125 5.26312V18.4209C15.3125 19.2931 14.6031 20 13.7284 20H1.58406C0.709062 20 0 19.2931 0 18.4209V1.57906C0 0.706875 0.709062 0 1.58406 0H10.0322L15.3125 5.26312Z" fill="#79AC00"/>
<path fill-rule="evenodd" clip-rule="evenodd" d="M9.87939 11.7761C9.72783 11.7761 9.61345 11.8021 9.53595 11.8539C9.45845 11.9058 9.4197 11.9721 9.4197 12.053C9.4197 12.1305 9.4547 12.1921 9.5247 12.2383C9.5947 12.2846 9.73283 12.333 9.93877 12.3839C10.2772 12.4668 10.5188 12.5493 10.6635 12.6311C10.8081 12.7133 10.9178 12.8149 10.9925 12.9364C11.0672 13.058 11.1044 13.2074 11.1044 13.3846C11.1044 13.5805 11.0547 13.7483 10.9556 13.8877C10.8563 14.0274 10.7153 14.1336 10.5328 14.2071C10.3503 14.2808 10.1419 14.3174 9.90752 14.3174C9.28564 14.3174 8.8622 14.1449 8.6372 13.8002L9.18158 13.4186C9.27033 13.5393 9.37314 13.6196 9.48939 13.6602C9.60564 13.7008 9.73002 13.7211 9.8622 13.7211C10.21 13.7211 10.3841 13.6202 10.3841 13.4186C10.3841 13.3299 10.335 13.2618 10.2366 13.2136C10.1381 13.1655 9.98408 13.1161 9.77439 13.0652C9.37908 12.9786 9.10127 12.8558 8.94064 12.6977C8.7797 12.5393 8.69939 12.3339 8.69939 12.0814C8.69939 11.8196 8.80002 11.6036 9.00158 11.4339C9.20283 11.2646 9.49908 11.1796 9.89064 11.1796C10.1572 11.1796 10.3922 11.2221 10.5953 11.3068C10.7985 11.3918 10.955 11.5189 11.0647 11.6883L10.5175 12.0758C10.3869 11.8761 10.1741 11.7761 9.87939 11.7761ZM7.27564 10.0205H8.00752V14.2299H7.27564V10.0205ZM5.91158 14.2299L5.32189 13.2855L4.70345 14.2299H3.89252L4.91908 12.7655L3.90939 11.2646H4.76314L5.35564 12.203L5.96564 11.2646H6.77377L5.75002 12.7258L6.77939 14.2299H5.91158Z" fill="white"/>
<path fill-rule="evenodd" clip-rule="evenodd" d="M15.3125 4.96844V5.62344H10.9959C10.1022 5.62344 9.69 4.89844 9.69 4.00437V0H10.3438L15.3125 4.96844Z" fill="#B4E441"/>
</g>
<defs>
<clipPath id="clip0_1_443895">
<rect width="15.3125" height="20" fill="white"/>
</clipPath>
</defs>
</svg>
