<svg width="44" height="63" viewBox="0 0 44 63" fill="none" xmlns="http://www.w3.org/2000/svg">
<ellipse cx="8" cy="58.5146" rx="8" ry="3.5" fill="#D9D9D9"/>
<ellipse cx="36" cy="58.5146" rx="8" ry="3.5" fill="#D9D9D9"/>
<path d="M33.1435 52.15C33.1609 52.2157 33.5166 53.4647 33.5817 53.8942C33.6467 54.3236 33.547 54.5515 33.5166 54.7663C33.4862 54.981 33.3518 55.0774 33.304 55.7041C33.2563 56.3308 33.1912 56.5762 33.3865 56.7909C33.5817 57.0057 34.0545 57.1678 34.3452 57.1853C34.6402 57.2029 34.8831 57.1678 35.1434 57.2861C35.4037 57.4001 35.6162 57.6499 35.9416 57.8471C36.267 58.0443 37.0825 58.1758 37.486 58.2108C37.8938 58.2459 38.5098 58.1933 38.7397 58.0793C38.9696 57.9654 39 57.9785 39 57.6674C39 57.3563 38.9523 57.159 38.7874 57.0407C38.6226 56.9224 38.1193 56.4491 37.8287 56.3176C37.5337 56.1862 36.6747 55.7085 36.4795 55.5595C36.2843 55.4105 36.0891 54.9985 35.9416 54.7882C35.7941 54.5778 35.3863 52.6846 35.356 52.1763C35.3213 51.6679 35.2432 51.5847 35.1781 51.5847C35.113 51.5847 33.0611 51.7819 33.0134 51.7512C32.9657 51.7205 33.1435 52.1631 33.1435 52.1631V52.15Z" fill="url(#paint0_linear_242_4942)"/>
<path d="M35.6337 52.4918C35.5035 52.5269 34.0719 52.689 33.6815 52.7372C33.2911 52.7854 33.0308 52.6233 32.9831 52.654C32.9354 52.6846 32.8052 51.6854 32.5276 50.9273C32.2499 50.1691 32.1545 50.156 31.6339 48.7405C31.1133 47.325 30.7533 45.8131 30.8184 45.09C30.8834 44.3669 30.1026 42.3773 29.8726 41.8689C29.6427 41.3606 27.7079 35.5057 27.6906 35.4575C27.6732 35.4093 27.0225 30.8867 27.0876 30.8034C27.1527 30.7201 31.1394 31.0006 31.1871 31.0357C31.2348 31.0707 32.5059 33.091 32.5059 33.1743C32.5059 33.2575 32.7011 35.2778 32.8659 36.1981C33.0308 37.1184 33.1089 38.5471 33.0785 39.0247C33.0481 39.5024 33.0438 40.0108 33.0959 40.2562C33.1479 40.5016 33.3388 40.6857 33.4039 41.045C33.4689 41.4044 33.4689 41.8821 33.4516 42.0661C33.4342 42.2502 33.6468 42.4299 33.6642 42.5087C33.6815 42.5876 33.9244 42.6577 33.8767 42.8374C33.829 43.0171 33.8073 43.1047 33.842 43.1661C33.842 43.1661 34.0069 43.5298 34.0719 43.6087C34.137 43.6876 34.2194 43.8541 34.2194 43.8541C34.2194 43.8541 34.5144 44.4808 34.6576 44.8402C34.8007 45.1995 35.0957 46.7947 35.2432 48.0612C35.3907 49.3277 35.651 51.1859 35.6337 51.4619C35.6163 51.738 35.6337 52.483 35.6337 52.483V52.4918Z" fill="url(#paint1_linear_242_4942)"/>
<path d="M12.1992 52.7898C12.1341 52.8555 11.3359 53.6444 11.2404 54.0738C11.145 54.5033 10.9628 55.1256 10.8977 55.3053C10.8327 55.485 10.6548 56.2431 10.6027 56.5543C10.555 56.8654 10.5203 57.0495 10.2123 57.4088C9.90431 57.7682 9.73946 57.6411 9.52689 57.9829C9.31433 58.3291 9.10176 58.7236 8.85882 58.9208C8.61589 59.118 7.16696 58.8726 6.74183 58.8857C6.31669 58.8988 6.15618 58.6052 6.07376 58.5088C5.99133 58.4124 5.99133 58.2459 5.99133 58.2459C5.99133 58.2459 6.00869 58.2283 6.13883 57.7682C6.26897 57.308 6.25162 57.1941 6.72447 56.7997C7.19733 56.4053 7.91312 55.5507 8.1387 55.073C8.36862 54.5953 8.95426 53.8898 9.13212 53.5918C9.30999 53.2938 9.63535 52.3253 9.6874 52.2595C9.73946 52.1938 9.98239 51.7819 10.0301 51.7337C10.0778 51.6854 12.1948 52.7854 12.1948 52.7854L12.1992 52.7898Z" fill="#F8D0B9"/>
<path d="M9.96937 52.8863C9.96937 52.8863 11.1233 53.2632 11.5484 53.364C11.9736 53.4648 11.9389 53.4955 11.9736 53.4648C12.0083 53.4341 12.8022 52.3122 12.8022 52.3122C13.3704 51.6855 13.9431 50.6688 14.8844 49.766C15.8302 48.8633 16.6414 46.6107 16.7889 46.1155C16.9364 45.6203 17.3745 45.4406 17.5871 45.2128C17.7997 44.9849 18.0426 44.4721 18.0903 44.31C18.138 44.1478 21.0359 39.9364 21.2137 39.7742C21.3916 39.6121 23.4262 36.3735 23.8643 35.9615C24.3025 35.5496 24.6148 35.1902 24.6799 35.1245C24.745 35.0588 25.5258 33.8405 25.5258 33.8405C25.5258 33.8405 25.361 31.6361 25.053 31.211C24.745 30.7816 22.9056 29.5983 22.9056 29.5983L21.0359 29.7473C21.0359 29.7473 19.7518 30.4222 19.6997 30.4397C19.6477 30.4573 19.5523 30.7377 19.4872 30.7684C19.4221 30.7991 19.3397 31.0007 19.3223 31.1146C19.305 31.2286 19.4438 31.3688 19.3701 31.4433C19.3701 31.4433 19.2226 31.5441 19.1748 31.6887C19.1271 31.8333 19.036 31.9166 19.0447 31.9867C19.0447 31.9867 19.0664 32.3417 18.997 32.3811C18.997 32.3811 18.6673 32.666 18.6543 32.758C18.6196 33.0692 18.5545 33.0692 18.5241 33.1875C18.4938 33.3058 18.5415 33.4022 18.4764 33.5162C18.4113 33.6301 18.3463 33.6827 18.3116 33.8273C18.2768 33.9719 18.1814 34.2393 18.1814 34.2393C18.1814 34.2393 17.1056 36.4436 16.8149 37.2806C16.5199 38.1177 16.0167 40.1555 16.0167 40.1555C15.9993 40.6156 15.8692 40.6156 15.8041 40.7822C15.7391 40.9487 15.4788 41.3256 15.2358 41.7682C14.9929 42.2108 14.9929 42.5746 14.9408 42.6228C14.8888 42.671 14.6328 42.8682 14.5331 42.969C14.4333 43.0698 14.5114 43.1749 14.4203 43.2319C14.4203 43.2319 14.2077 43.3809 14.1426 43.4467C14.0776 43.5124 14.0125 43.8104 14.0125 43.8104C14.0125 43.8104 12.5983 45.3705 12.1254 46.3434C11.6526 47.3119 11.1971 48.4469 10.824 49.319C10.4509 50.1911 9.58761 52.2114 9.48784 52.4261L9.38806 52.6409L9.95635 52.9038L9.96937 52.8863Z" fill="url(#paint2_linear_242_4942)"/>
<path d="M29.0614 38.7005C29.1092 38.7662 29.2957 39.1256 29.6427 39.7435C29.9898 40.3614 30.3325 41.2423 30.506 41.7813C30.6796 42.3203 30.4279 43.0522 30.5234 43.2801C30.6188 43.508 30.7576 43.657 30.9962 44.0119C31.2348 44.3669 32.2066 45.4625 32.7402 46.3916C33.2737 47.3206 34.3713 48.9991 34.9699 49.7967C35.5686 50.5943 35.959 50.8704 36.3364 51.0851C36.7139 51.2998 37.0436 51.2648 37.1997 51.3787C37.3559 51.4927 37.6856 51.9309 37.8765 52.4042C38.0674 52.8775 38.063 52.9564 38.2365 53.2982C38.4101 53.64 38.5489 53.8197 38.5836 54.0783C38.6183 54.3368 38.5836 54.4376 38.4404 54.4858C38.2973 54.534 38.063 54.5165 37.9676 54.3894C37.8721 54.2623 37.7333 53.9643 37.6075 53.6707C37.4817 53.3771 37.4513 53.101 37.3863 53.0353C37.3212 52.9695 37.2908 53.8679 37.3255 54.0301C37.3602 54.1922 37.7637 55.6121 37.8114 55.8707C37.8591 56.1292 37.9372 56.5061 37.9372 56.6025C37.9372 56.6989 37.9849 56.9137 37.7941 56.9137C37.6032 56.9137 37.5424 56.7033 37.4947 56.6551C37.447 56.6069 37.2908 56.8173 37.1954 56.7384C37.1 56.6595 37.0392 56.4623 36.9264 56.1994C36.8136 55.9364 36.7052 55.7436 36.6271 55.6954C36.549 55.6472 36.4232 55.6647 36.3928 55.5814C36.3625 55.4982 36.1889 55.2396 36.1889 55.2396C36.1889 55.2396 35.7812 54.1791 35.4515 53.5436C35.1218 52.9082 35.1695 52.6803 35.0914 52.356C35.0133 52.0317 34.2758 51.3612 33.7249 50.7915C33.174 50.2218 31.4951 48.9334 30.7576 48.0394C30.0202 47.1454 29.2957 46.1155 29.0918 45.8394C28.8879 45.5633 28.7795 45.4976 28.7448 45.3486C28.7101 45.1996 28.697 44.8753 28.5886 44.6649C28.4801 44.4546 27.8815 43.657 27.5041 43.1486C27.1266 42.6446 26.2026 40.9662 25.8859 40.2825C25.5736 39.5989 25.604 39.1738 25.5866 39.0949C25.5693 39.016 29.0571 38.7049 29.0571 38.7049L29.0614 38.7005Z" fill="url(#paint3_linear_242_4942)"/>
<path d="M24.5497 0.512403C24.5497 0.512403 24.7276 0.494874 24.81 0.595668C24.8924 0.696463 25.0226 0.972553 25.0052 1.03829C24.9879 1.10402 25.0703 2.38806 25.118 2.68168C25.1657 2.9753 25.3783 3.71592 25.413 3.78166C25.4477 3.8474 25.5431 3.82987 25.5909 3.79919C25.6386 3.76851 25.6386 3.58445 25.6082 3.4223C25.5778 3.26016 25.721 2.76495 25.8511 2.65101C25.9813 2.53706 26.1592 2.4538 26.3414 2.502C26.5236 2.55021 26.619 2.56774 26.6016 2.76495C26.5843 2.96215 26.5192 3.11116 26.4064 3.3741C26.2936 3.63704 26.2936 3.81672 26.2936 4.00078C26.2936 4.18484 26.3587 4.5924 26.2589 4.87287C26.1592 5.15334 25.9986 5.38123 25.8511 5.54776C25.7036 5.71429 25.5909 5.63102 25.426 5.87644C25.2612 6.12185 25.2308 6.20512 25.2134 6.37165C25.1961 6.53818 25.6689 8.68993 26.1244 9.97396C26.5799 11.258 26.94 12.6209 26.94 13.2125C26.94 13.8042 26.8749 13.9181 27.0875 14.5623C27.3001 15.2021 28.0809 16.14 28.3716 16.9945C28.6666 17.8491 29.0874 18.8351 29.1221 19.1813C29.1568 19.5276 29.7424 20.8247 29.7424 20.8905C29.7424 20.9562 29.1091 21.4339 28.7837 21.6618C28.4583 21.8897 27.3999 21.9729 27.3521 21.9247C27.3044 21.8765 25.6603 20.759 25.6603 20.759C25.6603 20.759 25.3826 19.9351 25.2048 19.212C25.0269 18.4889 24.8447 16.977 24.6495 16.2539C24.4543 15.5308 24.5367 15.5615 24.3718 15.2854C24.207 15.0093 24.194 14.4791 24.207 14.2994C24.22 14.1197 23.9771 13.5412 23.8643 13.1819C23.7515 12.8225 23.3741 11.407 23.3264 9.61461C23.2786 7.82222 23.3741 7.13418 23.3437 6.95012C23.3134 6.76606 23.2136 6.62144 23.2613 6.45491C23.309 6.28838 23.3914 6.32344 23.3914 6.24018C23.3914 6.15691 23.309 6.0605 23.2917 5.94217C23.2743 5.82385 23.1789 5.6617 23.1442 5.57844C23.1095 5.49517 23.0964 4.14978 23.0617 3.40916C23.027 2.66853 23.1095 1.9805 23.1615 1.86218C23.2136 1.74385 23.3567 1.6825 23.3567 1.6825C23.3567 1.6825 23.322 1.12155 23.4218 0.941876C23.5216 0.762199 23.6647 0.643875 23.7168 0.661404C23.7689 0.678934 23.8469 0.363402 23.912 0.26699C23.9771 0.170577 24.1072 -0.0310122 24.207 0.0040469C24.3068 0.0391059 24.3849 0.104842 24.4369 0.135518C24.489 0.166195 24.5497 0.512403 24.5497 0.512403Z" fill="url(#paint4_linear_242_4942)"/>
<path d="M30.0504 34.1165C29.9853 34.1341 29.8205 34.6249 29.6426 34.9886C29.4648 35.3524 28.7967 35.944 28.6492 36.0886C28.5017 36.2332 28.4366 36.3209 28.4366 36.5838C28.4366 36.8468 28.5364 37.2412 28.5364 37.5698C28.5364 37.8985 28.8791 38.4901 28.9095 38.7049C28.9399 38.9196 29.1394 39.165 28.9268 39.4104C28.7143 39.6559 28.1764 40.6112 27.1352 40.6594C26.0941 40.7076 25.7036 40.5762 25.4911 40.4272C25.2785 40.2782 25.2134 40.0327 25.1484 39.9495C25.0833 39.8662 24.8056 38.8495 24.6104 38.4858C24.4152 38.122 24.1202 37.7451 23.8122 36.6934C23.5042 35.6416 23.6474 35.1464 23.3567 34.6205C23.0661 34.0946 23.014 33.9456 22.7234 33.1918C22.4284 32.4337 21.5824 32.368 21.2094 32.2233C20.8363 32.0743 20.281 31.6974 20.1509 31.5309C20.0207 31.3644 19.6954 30.8736 19.5652 30.707C19.4351 30.5405 19.3526 30.0803 19.3223 29.9839C19.2919 29.8875 19.973 28.0119 20.2159 27.3545C20.4589 26.6972 21.3699 25.7286 21.6475 25.5972C21.9251 25.4657 23.2743 25.102 23.617 24.8083C23.9597 24.5147 25.5865 23.4454 25.7991 23.2307C26.0116 23.016 26.2069 22.753 26.1721 22.7048C26.1374 22.6566 25.6169 21.1754 25.6039 21.0264C25.5908 20.8774 25.6039 20.5311 25.7514 20.3208C25.8988 20.1061 26.3543 19.1858 27.8033 18.9053C29.2522 18.6248 29.8379 20.0885 29.8379 20.0885C29.8379 20.0885 30.2283 20.7284 30.6534 21.2411C31.0786 21.7538 31.6468 22.7881 31.8898 23.3446C32.1327 23.9056 32.1848 24.5936 32.1501 25.0231C32.1154 25.4526 32.0026 26.6358 32.0026 27.6218C32.0026 28.6079 32.0199 28.9716 32.0026 29.0198C31.9852 29.068 30.1459 33.5074 30.0981 33.5556C30.0504 33.6038 30.0504 34.1165 30.0504 34.1165Z" fill="url(#paint5_linear_242_4942)"/>
<path d="M26.6841 30.8429L26.5843 30.9743L26.324 31.0401C26.324 31.0401 26.2112 31.1233 26.3067 31.2548C26.4021 31.3863 26.7144 31.8157 26.8446 31.9472C26.9747 32.0787 27.1049 32.1444 27.1873 32.162C27.2697 32.1795 27.4649 32.2102 27.4649 32.2102C27.4649 32.2102 28.0853 33.2619 28.1504 33.3759C28.2154 33.4898 28.8835 34.1165 28.9789 34.1647C29.0744 34.2129 30.0201 34.3312 30.1329 34.3312C30.2457 34.3312 30.6708 34.5109 30.8487 34.5284C31.0265 34.546 31.1089 34.4802 31.1567 34.4627C31.2044 34.4452 31.5644 34.6117 31.725 34.5942C31.8855 34.5766 31.9202 34.4452 31.9549 34.3137C31.9896 34.1822 32.0199 34.0026 32.0677 33.8711C32.1154 33.7396 32.1327 33.6739 32.1327 33.6739C32.1327 33.6739 32.1154 33.5906 32.098 33.4942C32.0807 33.3978 32.2108 33.3934 32.2629 33.3277C32.3149 33.2619 33.2867 31.9297 33.2867 31.6843C33.2867 31.4389 33.4645 29.6771 32.636 28.5465C31.8074 27.4115 31.1697 26.9338 30.4539 26.9206C29.7381 26.9031 29.1177 27.0696 28.3889 27.4158C27.6558 27.762 27.0702 28.1389 26.9877 28.6999C26.9053 29.2608 26.7752 30.0803 26.7752 30.2775C26.7752 30.4747 26.6754 30.8516 26.6754 30.8516L26.6841 30.8429Z" fill="url(#paint6_linear_242_4942)"/>
<path d="M29.5776 33.0122C29.6253 33.1261 30.276 33.5205 30.4886 33.5381C30.7012 33.5556 30.1155 33.1743 30.1155 33.1743C30.1155 33.1743 30.8313 33.4066 31.0265 33.4066C31.2217 33.4066 31.6946 33.4241 31.6946 33.4241L31.2564 33.1919C31.2564 33.1919 32.3149 33.3715 32.4451 33.4241C32.5752 33.4767 32.8832 33.4417 32.8832 33.4417C32.8832 33.4417 33.3561 33.2445 33.3864 33.0779C33.4168 32.9114 33.4211 32.8632 33.4211 32.8632L33.0611 33.1261C33.0611 33.1261 33.6814 32.254 33.7292 31.9736C33.7769 31.6931 33.7292 30.5449 33.7292 30.5449L33.5513 30.8429C33.5513 30.8429 33.7292 29.7254 33.6337 29.48C33.5383 29.2346 33.4559 28.7394 33.4559 28.7394L33.3908 29.1338C33.3908 29.1338 33.3431 28.3274 33.1782 28.1784C33.0134 28.0294 32.7401 27.7489 32.5752 27.5517C32.4104 27.3545 32.3149 27.1749 32.2499 27.1091C32.1848 27.0434 32.1197 27.0083 32.1197 27.0916C32.1197 27.1749 32.2021 27.4553 32.2021 27.4553C32.2021 27.4553 31.764 26.9601 31.7119 26.9294C31.6599 26.8988 31.482 26.7322 31.4039 26.649C31.3258 26.5657 31.161 26.4518 30.9788 26.351C30.7966 26.2502 30.6361 26.237 30.5884 26.2195C30.5406 26.202 30.1155 26.202 30.1155 26.202L29.6427 26.3028L29.1872 26.4824C29.1872 26.4824 28.8922 26.5832 28.8791 26.6314C28.8661 26.6796 28.6189 26.8462 28.6189 26.8462L28.0636 27.0784C28.0636 27.0784 27.9334 27.1135 27.7859 27.096C27.6384 27.0784 27.2003 27.2932 27.2003 27.2932L27.6081 27.3414C27.6081 27.3414 27.4129 27.5079 27.3001 27.5561C27.1873 27.6043 26.9921 27.7709 26.9921 27.7709L26.8446 28.0338L26.7621 28.3318L26.6624 28.6605C26.6624 28.6605 26.5799 28.9892 26.5496 29.1031C26.5192 29.217 26.5496 29.4318 26.5843 29.515C26.619 29.5983 26.6494 29.7605 26.6494 29.7605C26.6494 29.7605 26.5843 30.0234 26.6147 30.1899C26.645 30.3565 26.6797 30.5011 26.6797 30.5011C26.6797 30.5011 26.7144 30.7465 26.6797 30.8473C26.645 30.9481 26.9096 31.2899 26.9574 31.3732C27.0051 31.4564 27.4129 32.0305 27.4129 32.0963V32.3592L27.7382 32.6879C27.7382 32.6879 27.9985 32.6397 28.0983 32.7361C28.1981 32.8325 28.2284 32.8194 28.3109 32.9333C28.3933 33.0472 28.788 33.1174 28.8314 33.0998L29.1091 32.9684C29.2869 32.9859 29.5819 33.0166 29.5819 33.0166L29.5776 33.0122Z" fill="#664A1C"/>
<defs>
<linearGradient id="paint0_linear_242_4942" x1="29.9854" y1="60.5948" x2="35.3113" y2="55.5872" gradientUnits="userSpaceOnUse">
<stop offset="0.52" stop-color="#F8D0B9"/>
<stop offset="0.87" stop-color="#C48768"/>
</linearGradient>
<linearGradient id="paint1_linear_242_4942" x1="35.638" y1="41.7725" x2="27.0876" y2="41.7725" gradientUnits="userSpaceOnUse">
<stop stop-color="#2B2E32"/>
<stop offset="0.06" stop-color="#34383C"/>
<stop offset="0.25" stop-color="#4D5156"/>
<stop offset="0.45" stop-color="#5F6369"/>
<stop offset="0.65" stop-color="#696E74"/>
<stop offset="0.87" stop-color="#6D7278"/>
<stop offset="1" stop-color="#6D7278"/>
</linearGradient>
<linearGradient id="paint2_linear_242_4942" x1="25.5302" y1="41.5359" x2="9.40108" y2="41.5359" gradientUnits="userSpaceOnUse">
<stop stop-color="#2B2E32"/>
<stop offset="0.06" stop-color="#34383C"/>
<stop offset="0.25" stop-color="#4D5156"/>
<stop offset="0.45" stop-color="#5F6369"/>
<stop offset="0.65" stop-color="#696E74"/>
<stop offset="0.87" stop-color="#6D7278"/>
<stop offset="1" stop-color="#6D7278"/>
</linearGradient>
<linearGradient id="paint3_linear_242_4942" x1="36.7963" y1="43.9813" x2="28.6257" y2="50.3296" gradientUnits="userSpaceOnUse">
<stop offset="0.52" stop-color="#F8D0B9"/>
<stop offset="0.87" stop-color="#C48768"/>
</linearGradient>
<linearGradient id="paint4_linear_242_4942" x1="29.4778" y1="26.0836" x2="21.5797" y2="-6.69109" gradientUnits="userSpaceOnUse">
<stop offset="0.52" stop-color="#F8D0B9"/>
<stop offset="0.87" stop-color="#C48768"/>
</linearGradient>
<linearGradient id="paint5_linear_242_4942" x1="35.0392" y1="33.6783" x2="15.3047" y2="23.9732" gradientUnits="userSpaceOnUse">
<stop offset="0.29" stop-color="#BCC2CA"/>
<stop offset="0.41" stop-color="#AEB3BB"/>
<stop offset="0.65" stop-color="#898E95"/>
<stop offset="0.81" stop-color="#6D7278"/>
<stop offset="1" stop-color="#6D7278"/>
</linearGradient>
<linearGradient id="paint6_linear_242_4942" x1="33.3084" y1="30.7508" x2="26.2719" y2="30.7508" gradientUnits="userSpaceOnUse">
<stop offset="0.52" stop-color="#F8D0B9"/>
<stop offset="0.87" stop-color="#C48768"/>
</linearGradient>
</defs>
</svg>
