<svg width="21" height="55" viewBox="0 0 21 55" fill="none" xmlns="http://www.w3.org/2000/svg">
<g clip-path="url(#clip0_242_4752)">
<path d="M14.4629 37.1113C14.4629 37.1113 14.2811 37.8116 14.2246 38.0897C14.168 38.3668 13.8045 39.2572 13.7055 39.4322C13.6075 39.6073 13.5096 39.8844 13.4813 40.1475C13.453 40.4107 13.4388 40.8048 13.5792 40.9799C13.7196 41.155 14.168 41.4181 14.8688 41.4181C15.5696 41.4181 16.3967 41.4471 16.9017 41.5062C17.4066 41.5642 17.991 41.7875 18.7593 41.809C19.3078 41.8251 19.2534 41.751 19.9259 41.721C20.5984 41.692 20.6888 41.7392 20.815 41.5201C20.9412 41.301 21.0109 41.0239 20.8574 40.9219C20.7029 40.8199 20.3024 40.7393 19.8617 40.7318C19.5233 40.7264 19.3459 40.6212 18.9171 40.4182C18.7071 40.3183 18.3599 40.1669 17.8658 39.8597C17.3892 39.5643 16.7765 39.0381 16.7765 39.0381C16.7765 39.0381 16.6503 39.0381 16.5099 38.659C16.3695 38.2798 16.3978 37.1994 16.3978 37.1994L15.8515 37.1553L14.464 37.1113H14.4629Z" fill="white" stroke="#8E8E8E" stroke-width="0.3" stroke-miterlimit="10"/>
<path d="M2.37995 23.1266C2.37995 23.1266 2.05783 23.5648 2.01538 23.6518C1.97294 23.7388 1.27211 25.1114 1.2449 25.5206C1.21661 25.9298 0.97828 27.4033 1.53873 28.4108C2.09918 29.4182 3.62709 29.9584 4.11789 30.0314C4.60869 30.1045 6.20624 30.1625 7.24335 30.0025C8.28045 29.8413 10.5658 29.1851 11.5191 28.922C12.4724 28.6589 13.8458 28.0896 14.4204 28.0166C14.995 27.9436 15.2191 28.2207 15.2191 28.2207C15.2191 28.2207 14.897 28.8919 14.7566 29.5632C14.6163 30.2344 14.2658 31.2279 14.4345 32.4243C14.6032 33.6219 14.6587 35.1684 14.4911 36.3219L14.3507 37.3003C14.3507 37.3003 14.8274 37.4174 15.1081 37.4614C15.3889 37.5055 15.7252 37.4765 16.0332 37.4174C16.3411 37.3594 16.4674 37.3003 16.4674 37.3003C16.4674 37.3003 16.537 35.9428 16.6633 35.0524C16.7895 34.1621 17.1824 33.2857 17.5328 31.7091C17.8832 30.1324 18.0932 29.038 18.0932 28.5848C18.0932 28.1315 18.177 27.7674 18.2336 27.3292C18.2902 26.891 18.2619 25.8836 18.0791 25.4895C17.8973 25.0953 17.462 24.8762 16.8733 24.7452C16.2845 24.6141 12.542 24.293 11.2808 24.293C10.0195 24.293 9.43073 24.351 9.03787 24.3661C8.64502 24.3811 8.58951 24.424 8.2946 24.4391C7.99968 24.4541 7.97248 24.4101 7.91589 24.293C7.8593 24.176 8.14007 23.5627 8.11177 23.4027C8.08348 23.2416 7.98553 22.4103 7.98553 22.4103L7.11602 21.826L4.32683 22.1031L2.99481 22.4683L2.37777 23.1256L2.37995 23.1266Z" fill="url(#paint0_linear_242_4752)"/>
<path d="M1.72809 50.1841C1.72809 50.1841 1.67368 50.4795 1.59315 50.9445C1.51153 51.4096 1.40379 51.9444 1.28191 52.1839C1.16002 52.4234 1.03814 52.635 0.984816 52.9025C0.930403 53.1699 0.890138 53.6349 0.930403 53.8325C0.970669 54.0302 1.16002 54.1988 1.56594 54.2407C1.97186 54.2826 2.67487 54.2686 3.17547 54.4093C3.67606 54.55 5.10929 54.9592 6.05607 54.9441C7.00285 54.9302 8.23366 54.7895 8.38275 54.7326C8.53184 54.6767 8.73426 54.4222 8.61237 54.1977C8.49049 53.9722 8.27393 54.0291 8.00404 53.9722C7.73307 53.9163 6.71882 53.4792 6.21822 53.2118C5.71762 52.9443 4.67617 52.2677 4.58149 52.0142C4.48681 51.7608 4.02648 51.2818 3.95901 50.9435C3.89154 50.6051 3.68803 49.5344 3.68803 49.5344L2.21236 49.7459L1.82168 49.8018L1.727 50.182L1.72809 50.1841Z" fill="white" stroke="#8E8E8E" stroke-width="0.3" stroke-miterlimit="10"/>
<path d="M2.09385 10.1794C2.09385 10.1794 1.28201 12.8774 1.22107 13.6163C1.16013 14.3563 0.693268 15.3701 0.67368 15.5183C0.654091 15.6666 0.450588 16.5537 0.429911 16.7223C0.409234 16.8909 0.572472 17.4193 0.572472 17.4193C0.572472 17.4193 0.654091 17.4612 0.917448 17.7995C1.18081 18.1378 1.70861 19.2999 2.15479 19.8283C2.60097 20.3568 3.59564 21.3491 3.59564 21.3491L4.42706 21.6874L4.85366 20.6102C4.85366 20.6102 2.8861 18.2227 2.7838 18.096C2.68259 17.9692 2.13411 16.0886 2.13411 15.7718C2.13411 15.455 2.31694 11.8624 2.31694 11.8624L2.71633 10.3062L2.09385 10.1794Z" fill="white" stroke="#8E8E8E" stroke-width="0.3" stroke-miterlimit="10"/>
<path d="M2.79024 4.74176L2.96654 5.55908C2.96654 5.55908 2.91212 5.98117 2.91212 6.02413C2.91212 6.06709 3.19616 6.61591 3.23642 6.67176C3.27669 6.7276 3.49325 7.50304 3.49325 7.54493C3.49325 7.58681 3.54766 8.19255 3.42578 8.39017C3.3039 8.58779 3.01986 8.95403 2.84465 9.09472C2.66836 9.23542 2.24938 9.62958 2.19497 9.70046C2.14055 9.77135 2.10029 10.2214 2.07308 10.3621C2.04588 10.5027 1.89679 10.9957 1.84346 11.1654C1.78905 11.334 1.69437 11.87 1.69437 11.87V12.1374L1.65411 12.6024L1.27539 12.2083C1.27539 12.2083 1.23513 12.2641 0.82921 12.2502C0.721473 12.2469 0.477705 12.0815 0.477705 12.0815L0.626796 11.9129L0.639855 11.6595C0.639855 11.6595 0.179524 11.5606 0.166465 11.3641C0.153406 11.1676 0.0445807 10.8002 0.0445807 10.8002C0.0445807 10.8002 0.261143 11.1804 0.490764 10.8991C0.691002 10.6542 0.545177 10.7014 0.477705 10.3212C0.462469 10.2321 0.071787 9.9056 0.0173744 9.63817C-0.0370382 9.37074 0.0424042 8.84877 0.159935 8.66619C0.538647 8.07441 0.633325 8.18718 0.728003 8.07441C0.822681 7.96164 0.617001 7.81021 0.545177 7.46115C0.504911 7.26354 0.485323 6.91663 0.504911 6.86937C0.667061 6.47521 1.01313 6.44084 1.01313 6.44084C1.01313 6.44084 1.26995 6.36996 1.37878 6.39896C1.48651 6.42688 1.25581 6.13046 1.40598 5.77926C1.4604 5.65252 1.47346 5.53975 1.96099 5.44094C2.331 5.36576 2.35929 5.29166 2.31794 5.137C2.30162 5.07578 2.183 4.79868 2.29073 4.72887C2.39847 4.65799 2.79133 4.74284 2.79133 4.74284L2.79024 4.74176Z" fill="#353D51"/>
<path d="M8.40997 23.2802C8.40997 23.2802 8.30223 24.3081 8.26088 24.7033C8.21953 25.0985 7.96379 25.9567 7.88217 26.295C7.80055 26.6333 8.12594 27.8727 7.8419 30.126C7.55787 32.3803 6.51641 35.38 6.32706 36.2532C6.1377 37.1263 5.97555 38.0844 5.9614 38.4227C5.94726 38.761 5.71764 39.4935 5.66431 39.6062C5.61099 39.719 5.17786 40.3247 5.08318 40.4794C4.98851 40.6341 4.67727 41.8037 4.65006 41.9304C4.62285 42.0571 4.18973 44.7336 4.12226 45.4521C4.05479 46.1706 3.82517 47.5228 3.79796 48.6924C3.77075 49.8619 3.82517 49.9747 3.82517 49.9747C3.82517 49.9747 3.75769 50.1863 3.17548 50.2851C2.59435 50.3839 2.32338 50.4258 1.97187 50.327L1.62037 50.2282C1.62037 50.2282 1.78252 49.5516 1.62037 47.8621C1.45822 46.1717 1.24166 43.5521 1.25471 42.8616C1.26777 42.171 1.59316 41.1152 1.9044 39.9037C2.21564 38.6923 2.2287 38.5236 2.33752 38.2412C2.44526 37.9598 2.53994 37.3111 2.58129 36.9309C2.62156 36.5507 2.67597 34.6346 2.67597 33.4511C2.67597 32.2675 2.68903 30.7038 2.64876 30.1968C2.6085 29.6899 1.93161 28.1401 1.76946 27.6332C1.60731 27.1263 1.37769 26.3798 1.49848 25.6892C1.62037 24.9986 2.03934 23.7732 2.25591 23.3232C2.47247 22.8721 2.60741 22.45 2.60741 22.45L4.09505 22.1826L5.98861 22.45L7.40878 22.7174L8.04432 22.8581L8.40997 23.2802Z" fill="url(#paint1_linear_242_4752)"/>
<path d="M8.72776 5.02423C8.72776 4.95334 8.28158 4.29175 8.22717 4.16502C8.17276 4.03829 8.25437 3.85463 8.25437 3.85463C8.25437 3.85463 8.25437 3.74186 8.29464 3.61513C8.31967 3.5378 8.34688 3.17263 8.36429 2.89984C8.37952 2.66463 8.33055 2.43049 8.22064 2.22428C8.06067 1.92356 7.78643 1.54873 7.29345 1.26305C6.56323 0.84096 5.29106 0.445725 5.29106 0.445725C5.29106 0.445725 4.73606 0.220183 4.41176 0.403838C4.08746 0.587494 3.41056 0.981655 3.16788 1.27701C2.92412 1.57236 2.78917 3.06631 2.91106 3.23493C3.01771 3.38314 3.9449 3.90189 4.46182 4.18757C4.2409 4.44963 3.96993 4.76217 3.86437 4.84057C3.67501 4.98127 3.51286 5.20681 3.51286 5.20681L3.37792 5.36146C3.37792 5.36146 3.39098 6.47414 3.16135 7.06592C3.16135 7.06592 2.67491 8.05186 2.40393 8.47502C2.13296 8.89818 1.72813 9.46096 1.60624 9.99581C1.48436 10.5307 1.42995 11.5875 1.48436 12.1084C1.53877 12.6293 1.66066 13.2919 1.90334 13.8408C2.03501 14.1383 2.16778 14.4111 2.30599 14.686C1.9806 15.5839 1.63998 16.601 1.76839 16.6719C1.90116 16.7449 2.35496 16.0769 2.77611 15.5066C3.35071 15.8749 5.73072 15.4034 5.73072 15.4034C5.73072 15.4034 7.25862 13.0514 7.25862 12.9805C7.25862 12.9279 6.80047 11.7099 6.5665 11.0924C6.55126 11.0483 6.54147 11.0226 6.54147 11.0226H6.54038C6.47508 10.8518 6.43373 10.7412 6.43373 10.7412L6.6775 10.7272L7.0018 10.826C7.0018 10.826 6.12249 9.389 5.96034 9.26227C5.79819 9.13553 5.63604 8.92395 5.58163 8.82514C5.52722 8.72633 5.43254 8.34614 5.45974 8.14852C5.48695 7.9509 5.92007 7.1905 5.92007 7.1905C5.92007 7.1905 6.00169 7.07773 6.00169 7.06377C6.3162 7.16258 6.98003 7.28609 7.26189 7.33657C7.33263 7.36234 7.38704 7.37738 7.41424 7.37416C7.53613 7.3602 7.73854 7.1905 7.79296 7.03584C7.84737 6.88119 7.95619 6.60624 7.97578 6.55039C8.02366 6.41614 8.14446 6.14871 8.15861 5.99406C8.17167 5.8394 8.17167 5.44524 8.22608 5.40228C8.28049 5.36039 8.57759 5.31743 8.6592 5.26158C8.74082 5.20573 8.72668 5.09296 8.72668 5.02208L8.72776 5.02423Z" fill="white" stroke="#8E8E8E" stroke-width="0.3" stroke-miterlimit="10"/>
<path d="M6.46202 10.2074C6.46202 10.2074 5.32589 8.79829 4.75782 8.43205C4.18975 8.06582 3.89266 7.8972 2.972 8.06582C2.972 8.06582 2.53887 8.29136 2.40393 8.47394C2.41699 8.4879 3.17441 8.1077 3.4998 8.17859C3.8241 8.24947 4.50099 8.37621 5.00159 9.05176C5.50218 9.72838 5.96143 10.3191 6.21934 10.7981C6.47617 11.2771 6.74715 11.784 6.59805 12.1642C6.44896 12.5444 5.74595 13.2769 5.15068 13.7838C4.55541 14.2908 2.62158 15.2767 2.62158 15.2767C2.62158 15.2767 3.05471 16.6998 3.21685 17.5869C3.379 18.474 3.58251 19.1077 3.54115 19.7285C3.50089 20.3482 3.31153 21.2074 3.09497 21.6585C2.87841 22.1096 2.58132 22.5316 2.58132 22.5316L3.16244 22.4049C3.16244 22.4049 3.91987 22.3491 4.39326 22.4049C4.86665 22.4608 6.39564 22.7991 6.88209 22.8839C7.36854 22.9688 8.04543 22.9827 8.0857 23.1095C8.12596 23.2362 8.40999 23.4897 8.40999 23.4897C8.40999 23.4897 8.80176 22.4328 8.89644 21.6585C8.99112 20.8841 8.99003 19.9809 8.93671 19.3762C8.8823 18.7565 8.74735 16.8834 8.80176 16.5312C8.85618 16.1789 9.16742 15.3616 9.20768 14.6581C9.24795 13.9535 8.95086 13.2211 8.40999 12.5165C7.86913 11.812 6.46202 10.2063 6.46202 10.2063V10.2074Z" fill="url(#paint2_linear_242_4752)"/>
<path d="M2.84474 8.67263C2.97316 8.6243 3.14945 8.27096 3.9602 8.58779C4.77204 8.90462 5.07566 9.53829 4.93419 10.3835C4.79163 11.2288 4.52827 12.3694 4.50759 12.6228C4.48692 12.8763 4.56853 14.0599 4.44665 14.5249C4.32477 14.99 4.2845 15.455 4.22356 15.6655C4.16262 15.876 4.79163 17.2078 4.89283 17.588C4.99404 17.9682 5.64373 19.6587 5.90708 20.229C6.17044 20.7993 6.23138 20.694 6.23138 20.694C6.23138 20.694 6.75919 20.5254 6.90066 20.4406C7.04322 20.3557 7.8137 19.997 7.8137 19.997C7.8137 19.997 8.11841 20.0818 8.25989 20.1452C8.40245 20.2086 8.50365 20.3772 8.50365 20.3772C8.50365 20.3772 8.36109 20.5673 8.30124 20.5673C8.24138 20.5673 7.83438 20.7155 7.83438 20.7155L7.87464 20.8637L8.54392 21.1172C8.54392 21.1172 8.72675 21.4759 8.70607 21.6875C8.68539 21.8991 8.6658 22.1096 8.68539 22.2159C8.70607 22.3211 8.70607 22.8496 8.60377 22.9978C8.50257 23.146 8.31974 22.9763 8.31974 22.9763L8.11732 22.6595C8.11732 22.6595 7.73208 23.0182 7.38711 23.0611C7.04213 23.103 6.83972 23.1245 6.71783 23.1245C6.59595 23.1245 6.29124 22.9763 6.19003 22.9763C6.08882 22.9763 5.64264 22.5542 5.64264 22.5542C5.64264 22.5542 5.44022 22.1955 4.91242 21.6671C4.38462 21.1387 3.28984 19.9347 2.74136 18.8779C2.19397 17.821 2.01114 17.3356 1.97088 17.2293C1.93061 17.124 1.70752 16.5526 1.70752 16.5526C1.70752 16.5526 1.76846 15.7493 1.80873 15.1371C1.84899 14.5238 1.80873 14.1017 1.80873 13.2984C1.80873 12.495 2.07208 11.9677 2.07208 11.9677C2.07208 11.9677 1.97088 10.6574 1.99047 10.2557C2.01005 9.85404 2.17329 8.92503 2.84257 8.67049L2.84474 8.67263Z" fill="white" stroke="#8E8E8E" stroke-width="0.3" stroke-miterlimit="10"/>
<path d="M3.872 0.178279C3.872 0.178279 4.41286 -0.0472634 4.83292 0.00858509C5.24863 0.0644336 5.26278 -0.00859905 5.63823 0.0644336C5.69264 0.0751737 6.07135 0.13317 6.24656 0.212647C6.65248 0.396302 6.82769 0.418857 6.93651 0.476853C7.35549 0.702395 7.66129 0.78939 8.04218 1.14274C8.50904 1.57556 8.24459 2.1362 8.24459 2.26293C8.24459 2.38966 7.84847 1.48857 7.8082 1.91066C7.76794 2.33274 7.68632 2.54432 7.59164 2.62917C7.49696 2.71401 7.6047 2.41759 7.56444 2.30482C7.52417 2.19205 7.41535 2.1072 7.41535 2.1072C7.41535 2.1072 7.34787 2.92452 7.23905 3.03729C7.21184 3.06521 7.10737 3.1608 7.02249 3.23813C6.94304 3.31009 6.85598 3.37238 6.76457 3.42501L6.59045 3.52382L6.56977 3.20698C6.56977 3.20698 5.9277 3.77084 5.80582 3.77084C5.68394 3.77084 5.60341 3.58718 5.50873 3.43253C5.41405 3.27787 5.41405 3.06629 5.0756 3.09421C4.94719 3.10495 4.77525 3.07273 4.66968 3.30579C4.56195 3.5453 4.66968 3.77084 4.70995 4.0243C4.78504 4.49043 5.21816 4.70093 5.17028 4.5742C5.17028 4.5742 4.84598 4.79974 4.80463 4.79974C4.76327 4.79974 4.48033 4.9544 4.3443 5.06717C4.23547 5.15738 4.3443 5.05321 4.10053 5.30667C3.92859 5.48603 4.03306 5.40548 3.8165 5.60202C3.6587 5.74594 3.62714 5.82757 3.62714 5.82757L3.5194 6.06707C3.5194 6.06707 3.34311 5.77172 3.30284 5.65895C3.26257 5.54618 3.15375 5.1939 3.15375 5.1939L2.96439 5.34856L2.68036 5.09509C2.68036 5.09509 2.24724 5.02421 2.24724 4.98232C2.24724 4.94043 2.39633 4.61608 2.39633 4.61608C2.39633 4.61608 2.39633 4.50331 2.34191 4.41847C2.2875 4.33362 2.04156 4.10163 1.95014 3.81273C1.88267 3.60115 1.86852 2.84075 1.99041 2.3757C2.08944 1.99872 2.39633 1.34787 2.57153 1.22114C2.74783 1.09441 3.03187 0.756095 3.20707 0.601438C3.38337 0.446781 3.86982 0.179353 3.86982 0.179353L3.872 0.178279Z" fill="#353D51"/>
<path d="M2.23521 4.69986L2.51925 4.5946L3.00678 4.95332L3.1352 5.17135L3.00678 5.43985L2.78369 5.39689L2.33751 5.22827L2.19495 5.10154L2.23521 4.69986Z" fill="#353D51"/>
<g clip-path="url(#clip1_242_4752)">
<path d="M18.5974 45.2711L16.2567 44.7882L17.7615 43.4012L18.5974 45.2711Z" fill="#929292"/>
<path d="M17.4015 44.8379C16.8462 48.5596 14.5168 51.2967 12.1995 50.951" stroke="#929292" stroke-width="0.5" stroke-miterlimit="10"/>
</g>
</g>
<defs>
<linearGradient id="paint0_linear_242_4752" x1="1.16981" y1="29.6545" x2="18.2597" y2="29.6545" gradientUnits="userSpaceOnUse">
<stop stop-color="#2B2E32"/>
<stop offset="0.06" stop-color="#34383C"/>
<stop offset="0.25" stop-color="#4D5156"/>
<stop offset="0.45" stop-color="#5F6369"/>
<stop offset="0.65" stop-color="#696E74"/>
<stop offset="0.87" stop-color="#6D7278"/>
<stop offset="1" stop-color="#6D7278"/>
</linearGradient>
<linearGradient id="paint1_linear_242_4752" x1="1.25471" y1="36.2811" x2="8.40997" y2="36.2811" gradientUnits="userSpaceOnUse">
<stop stop-color="#2B2E32"/>
<stop offset="0.06" stop-color="#34383C"/>
<stop offset="0.25" stop-color="#4D5156"/>
<stop offset="0.45" stop-color="#5F6369"/>
<stop offset="0.65" stop-color="#696E74"/>
<stop offset="0.87" stop-color="#6D7278"/>
<stop offset="1" stop-color="#6D7278"/>
</linearGradient>
<linearGradient id="paint2_linear_242_4752" x1="13.6869" y1="9.56406" x2="-8.33645" y2="27.0547" gradientUnits="userSpaceOnUse">
<stop offset="0.29" stop-color="#BCC2CA"/>
<stop offset="0.39" stop-color="#AEB3BB"/>
<stop offset="0.6" stop-color="#898E95"/>
<stop offset="0.73" stop-color="#6D7278"/>
<stop offset="1" stop-color="#6D7278"/>
</linearGradient>
<clipPath id="clip0_242_4752">
<rect width="21" height="55" fill="white"/>
</clipPath>
<clipPath id="clip1_242_4752">
<rect width="10" height="7" fill="white" transform="matrix(0.147567 -0.989052 -0.989052 -0.147567 17.9233 53.1735)"/>
</clipPath>
</defs>
</svg>
