<svg width="35" height="46" viewBox="0 0 35 46" fill="none" xmlns="http://www.w3.org/2000/svg">
<g clip-path="url(#clip0_242_4767)">
<path d="M26.5688 37.5103C26.4203 37.9193 25.9184 38.6191 25.5662 39.6506C25.2139 40.6821 25.0838 40.6434 24.7488 41.2853C24.415 41.9271 24.0616 42.0634 23.8763 42.745C23.6909 43.4267 23.5977 43.7959 23.8763 44.1855C24.1548 44.5752 25.3613 44.7694 25.7699 44.6717C26.1786 44.574 26.8842 44.4377 27.1628 44.4377C27.4414 44.4377 30.1892 44.866 30.9329 44.7875C31.6754 44.7091 32.9566 44.7682 33.0315 44.6705C33.1063 44.5728 33.31 44.2036 33.1431 44.0287C32.9762 43.8538 32.8093 43.6788 32.6228 43.6595C32.4375 43.6402 31.4716 43.6595 30.9329 43.4255C30.3941 43.1914 28.5557 41.8487 28.4257 41.6351C28.2956 41.4216 28.314 41.2068 28.3324 41.0319C28.3508 40.857 28.5557 40.1174 28.6662 39.9232C28.7768 39.729 29.6033 38.2511 29.5952 38.1136C29.5768 37.8023 28.5926 37.0435 28.2587 36.8492C27.9249 36.655 27.2745 36.5187 27.2745 36.5187L26.5688 37.5116V37.5103Z" fill="white" stroke="#8E8E8E" stroke-width="0.3" stroke-miterlimit="10"/>
<path d="M29.5769 39.3972C29.3536 39.2609 27.8133 38.8133 27.1261 38.4634C26.4388 38.1136 26.2351 38.0158 26.2351 38.0158C26.2351 38.0158 26.6806 37.2956 26.8475 36.5754C27.0144 35.8551 27.2562 34.1239 27.7017 33.2866C28.1472 32.4494 28.9461 31.6712 28.7791 31.6712C28.6122 31.6712 25.1023 34.3181 24.2113 34.6487C23.3203 34.9793 20.1627 35.9335 19.5503 35.9528C18.9378 35.9722 17.7303 34.2204 17.6186 33.5593C17.5069 32.8982 21.5372 27.1761 21.5372 27.1761C21.5372 27.1761 24.8237 26.5342 24.9354 26.4751C25.0471 26.416 29.448 25.1324 29.9671 24.996C30.4875 24.8597 33.0868 24.7234 33.5691 25.1131C34.0515 25.5027 34.0895 25.9105 34.1447 26.3388C34.2 26.7671 34.3301 27.8758 34.3301 28.1098C34.3301 28.3439 34.3485 29.3742 34.1447 29.8423C33.941 30.3092 33.1789 31.2043 32.8819 32.1586C32.5849 33.1117 32.7702 32.9368 32.1762 33.8512C31.5822 34.7657 30.6164 36.4789 30.2446 37.5683C29.8728 38.6577 29.5758 39.3972 29.5758 39.3972H29.5769Z" fill="url(#paint0_linear_242_4767)"/>
<path d="M6.50521 38.7433C6.45226 38.7433 4.65529 38.1124 4.00028 37.8132C3.34527 37.514 2.99646 37.1701 2.67874 36.9602C2.36217 36.7503 2.17108 36.4173 1.75896 36.4511C1.34685 36.4849 1.06136 36.6393 0.818461 37.4259C0.575565 38.2125 0.691833 38.9219 0.6596 39.4093C0.627368 39.8967 0.459298 40.9825 0.331519 41.3371C0.204891 41.6918 -0.0276447 42.6992 0.0886229 43.1432C0.204891 43.5859 0.669961 44.8044 0.859903 45.0373C1.04985 45.2701 1.29274 45.4245 1.58974 45.4137C1.88559 45.4028 2.05481 45.4245 2.08704 45.1591C2.11928 44.8937 2.02373 44.6054 2.01337 44.5282C2.00301 44.4509 1.88674 43.2988 2.2459 42.7113C2.60507 42.1237 3.28195 41.1272 3.63076 41.0379C3.97956 40.9499 4.32836 40.9607 4.82566 41.126C5.32297 41.2925 5.78804 41.4252 6.30606 41.6581C6.82409 41.8909 7.91309 42.4 7.91309 41.979C7.91309 41.5579 7.9764 40.3732 7.74387 39.9401C7.51133 39.5082 7.01403 39.1318 6.91963 39.0425C6.82409 38.9544 6.65486 38.8326 6.58119 38.788L6.50752 38.7433H6.50521Z" fill="white" stroke="#8E8E8E" stroke-width="0.3" stroke-miterlimit="10"/>
<path d="M6.26233 38.5105C6.18175 38.49 5.89281 39.519 5.80762 39.9944C5.72244 40.4697 5.58545 41.734 5.58545 41.734C5.58545 41.734 6.39932 41.9331 6.61114 42.0887C6.82295 42.2444 9.37048 43.0744 10.1521 43.6511C10.9349 44.2265 13.0162 45.0807 13.2487 45.2025C13.4813 45.3244 14.7925 45.9553 15.1413 45.9674C15.4901 45.9783 16.959 46.0229 17.0545 45.9891C17.15 45.9554 17.8373 45.8009 18.1642 45.468C18.4923 45.1362 19.0944 43.5739 19.1577 43.2638C19.221 42.9537 19.9819 39.1426 20.12 38.0014C20.257 36.8601 20.12 36.24 20.3733 35.3207C20.6266 34.4014 20.6484 32.4952 20.7647 31.898C20.881 31.3008 20.9546 31.0776 20.9765 30.6023C20.9984 30.127 21.0087 29.6167 20.881 29.2403C20.7532 28.8638 20.0038 28.1098 19.5283 27.8782C19.0529 27.6454 16.7379 27.3136 16.7379 27.3136C16.7379 27.3136 14.8569 27.6454 14.4655 28.1557C14.0741 28.6648 13.7357 28.8976 13.5032 29.4852C13.2706 30.0727 12.8263 30.77 12.7319 30.9365C12.6363 31.103 12.6478 31.4794 12.6686 31.8787C12.6893 32.278 12.8481 33.4073 13.0496 33.8947C13.2499 34.3821 13.6102 34.8031 13.5469 34.9805C13.4836 35.1578 13.4836 35.457 13.4836 35.457C13.4836 35.457 13.5573 35.6235 13.6528 35.7562C13.7484 35.8889 13.8117 35.9335 13.8117 36.0662C13.8117 36.1989 13.7161 36.3654 13.8117 36.4981C13.9072 36.6308 14.0338 36.7636 14.0338 36.7636L14.1179 36.9409C14.1179 36.9409 14.0856 37.0845 14.0856 37.3173C14.0856 37.5501 14.0753 37.4392 14.096 37.8047C14.1167 38.1703 14.0638 38.2812 14.1593 38.7578C14.2549 39.2343 14.3078 39.9099 14.233 40.0318C14.1593 40.1536 14.1064 40.1983 14.0638 40.2538C14.0212 40.3093 14.0315 40.3865 14.0638 40.4866C14.096 40.5867 14.1271 40.6857 14.1271 40.6857C14.1064 40.8521 14.0304 40.9089 13.9901 40.8956C13.7783 40.8292 12.5627 39.9654 11.2526 39.6216C9.94145 39.2778 9.6882 39.3887 8.93764 39.2343C8.18708 39.0787 6.30608 38.5249 6.26348 38.5141L6.26233 38.5105Z" fill="url(#paint1_linear_242_4767)"/>
<path d="M23.1707 25.2301C23.4308 25.288 26.9407 25.7163 27.6464 25.7561C28.3521 25.7947 30.5427 25.2699 30.9698 25.2892C31.3969 25.3085 31.527 25.3676 31.8988 25.8152C32.2706 26.2628 32.3811 26.3798 32.6229 26.574C32.8646 26.7683 33.2353 26.4184 33.1985 26.2242C33.1616 26.0299 33.1985 25.8345 33.1616 25.7573C33.1248 25.6801 33.385 25.5232 33.4586 25.6017C33.5335 25.6801 33.5139 26.3798 33.4771 26.6332C33.4402 26.8865 33.347 27.6454 33.4022 27.7419C33.4575 27.8396 33.606 27.8203 33.606 27.8203C33.606 27.8203 33.6152 27.947 33.6992 28.0543L33.941 28.1714C34.1263 27.9373 34.1286 28.1279 34.238 28.1714C34.535 28.2884 34.6098 28.2293 34.6098 28.1521C34.6098 28.0748 34.7583 27.9771 34.7215 27.8022C34.6846 27.6273 34.703 26.9263 34.6846 26.7321C34.6662 26.5379 34.7963 26.3822 34.6846 26.1868C34.573 25.9925 34.4429 25.4665 34.2575 25.1553C34.0722 24.844 33.9053 24.5328 33.4402 24.2601C32.9763 23.9875 32.456 23.6376 32.1774 23.5013C31.8988 23.3649 31.6018 23.2286 31.4349 23.2479C31.268 23.2672 31.0446 23.3058 30.636 23.3649C30.2273 23.4228 29.4848 23.4627 29.4848 23.4627C29.4848 23.4627 27.2377 23.5604 26.1982 22.9367C25.1587 22.3141 23.2271 21.6723 23.2271 21.6723C23.2271 21.6723 22.2428 21.3032 21.8158 21.6144C21.3887 21.9257 21.0917 22.6845 21.0917 22.6845L21.7225 24.4363L23.1707 25.2337V25.2301Z" fill="white" stroke="#8E8E8E" stroke-width="0.3" stroke-miterlimit="10"/>
<path d="M28.3313 3.95467C28.3578 4.13685 28.5086 5.03443 28.5558 5.20092C28.603 5.3674 28.6974 5.48322 28.557 5.75467C28.4177 6.02491 28.2669 6.1359 28.222 6.40373C28.1771 6.67156 28.5213 7.42678 28.5086 7.83938C28.4959 8.25198 28.2991 8.40037 28.131 8.40158C27.8283 8.4052 27.8248 8.54273 27.7707 8.75024C27.7166 8.95774 27.8363 8.92034 27.7212 9.1556C27.6061 9.39085 27.6671 9.48133 27.5036 9.5501C27.3413 9.61887 27.438 9.71538 27.2838 9.96391C27.1295 10.2124 27.2607 10.5526 26.6552 10.6781C26.0497 10.8036 25.7285 10.4682 25.4465 10.6926C25.1633 10.917 24.4749 12.2127 24.2044 12.4793C23.9339 12.7459 22.6549 11.9364 22.1795 11.1776C21.7041 10.4175 21.3115 9.83241 21.224 9.67798C21.1366 9.52356 20.8246 9.58509 20.8246 9.58509C20.8246 9.58509 21.2321 9.06753 21.3714 8.12531C21.5107 7.18308 21.5751 6.12746 21.5751 6.12746C21.5751 6.12746 21.5406 4.42156 21.5372 3.76888C21.5337 3.1162 22.2946 1.28002 23.2374 0.94101C24.1802 0.600796 25.2577 0.70093 25.9703 1.16782C26.684 1.63471 27.9054 2.67103 28.0113 2.82787C28.1172 2.98591 28.3313 3.95347 28.3313 3.95347V3.95467Z" fill="white" stroke="#8E8E8E" stroke-width="0.3" stroke-miterlimit="10"/>
<path d="M23.5943 5.67023C23.5816 5.74744 23.5356 6.1335 23.7071 6.34342C23.8798 6.55334 24.1434 6.77894 24.2286 6.83443C24.3138 6.88993 24.4819 6.90079 24.5198 7.00695C24.559 7.11312 24.483 7.78993 24.7685 8.33644C25.054 8.88295 25.3913 9.45842 25.549 9.52719C25.7067 9.59595 26.5954 10.3717 26.6219 10.4368C26.6483 10.5008 26.912 10.7276 26.8245 10.6914C26.7358 10.6552 26.3721 10.806 26.1764 10.73C25.9818 10.654 25.4465 10.6938 25.4465 10.6938C25.4465 10.6938 24.7109 9.57062 24.5072 9.0977C24.3034 8.62598 24.3195 7.5221 24.2689 7.37371C24.2182 7.22652 24.1215 7.1288 23.9397 6.97679C23.7578 6.82478 23.6473 6.9225 23.531 6.60521C23.4147 6.28792 23.5943 5.66782 23.5943 5.66782V5.67023Z" fill="#C1C1C1"/>
<path d="M23.8394 0.499462C23.9131 0.512733 24.141 0.278686 24.4795 0.281098C24.8179 0.284718 24.9722 0.154423 25.4407 0.281098C25.9092 0.406567 25.9 0.464476 26.2442 0.54772C26.5884 0.630963 26.9844 0.743161 26.9844 0.743161L26.547 0.879488C26.547 0.879488 26.5424 1.01702 26.8658 1.11595C27.1882 1.21488 26.7127 0.791419 27.3252 1.29933C27.9376 1.80723 27.8881 1.87721 28.0515 2.0256C28.215 2.17399 28.2357 2.27654 28.4602 2.39718C28.6847 2.51782 28.87 2.65053 28.7791 2.63364C28.6881 2.61675 28.215 2.51058 28.2703 2.52023C28.3255 2.52989 28.3969 2.66259 28.5247 2.80375C28.6513 2.9461 28.7457 3.06192 28.7871 3.14878C28.8286 3.23565 29.0623 3.41661 28.9967 3.5831C28.931 3.74838 28.8977 4.05843 28.7779 4.21406C28.6582 4.36969 28.6409 4.465 28.5857 4.57358C28.5627 4.61942 28.504 4.52894 28.4452 4.4083C28.3647 4.24422 28.2818 4.02345 28.2818 4.02345C28.2818 4.02345 28.0999 3.87144 27.9756 3.82921C27.8512 3.78699 27.5623 3.59516 27.3298 4.08497C27.0961 4.57599 27.0811 4.6713 26.8394 4.64717C26.5988 4.62304 26.296 4.62666 26.1959 4.88484C26.0957 5.14301 25.6583 5.61594 25.5777 5.7595C25.4971 5.90307 25.3452 5.12371 25.1667 4.9524C24.9883 4.78109 24.7304 4.51688 24.346 4.56393C23.9615 4.61098 23.7934 4.60012 23.5574 4.99221C23.3226 5.38309 22.6687 6.80427 22.4926 7.06848C22.3164 7.33269 21.658 7.54743 21.5693 7.51124C21.4807 7.47505 21.3736 7.21808 21.3748 7.09984C21.3748 6.98161 21.3587 6.06955 21.2666 5.49891C21.1733 4.92827 21.1319 4.50602 21.1273 4.30696C21.1227 4.1091 21.1918 3.58793 21.2297 3.3575C21.2677 3.12707 21.1837 2.73619 21.4254 2.3067C21.6672 1.87721 22.13 1.3693 22.4005 1.10268C22.671 0.836057 22.8702 0.774529 22.8805 0.71662C22.8909 0.658711 22.5271 0.691285 22.5271 0.691285C22.5271 0.691285 22.7493 0.376406 23.0854 0.399329C23.4216 0.422251 23.5275 0.460857 23.5275 0.460857L23.8118 0L23.8406 0.499462H23.8394Z" fill="#4F4F4F"/>
<path d="M22.3234 8.81658C22.3913 8.86484 23.0763 9.53923 23.2386 9.84446C23.402 10.1497 23.9339 10.7831 24.0904 10.9616C24.247 11.1402 24.6614 11.5829 24.6511 11.6167C24.6407 11.6505 24.5693 12.2827 24.5475 12.3864C24.5256 12.4902 25.054 14.8463 24.9688 15.5605C24.8836 16.2747 24.9285 17.7297 24.8042 18.047C24.6798 18.3631 23.9615 21.3249 23.63 22.6242C23.2996 23.9223 22.541 28.5707 22.4408 29.1063C22.3407 29.642 22.3407 30.3864 22.2371 30.7097C22.1335 31.033 21 32.62 21 32.62C20.7537 32.62 20.5 31.3935 19.5 31.12C18 30.7097 12.5132 31.1657 12.5132 31.1657C12.5132 31.1657 13.0289 30.0305 13.1003 29.8073C13.1717 29.5841 13.2499 28.9664 13.2499 28.9664C13.2499 28.9664 13.4491 28.602 13.5769 28.4609C13.7046 28.3197 13.9038 27.9554 13.9038 27.9554L13.8405 27.4487L13.8082 27.2147L13.8658 26.8503L13.9613 26.4377L14.1927 25.6752L14.5346 24.0454C14.5346 24.0454 15.8585 18.3293 15.9298 17.8455C16.0012 17.3617 17.0891 13.6483 17.0891 13.6483C17.0891 13.6483 18.7813 10.5683 19.0691 10.3331C19.3569 10.099 20.0142 9.55974 20.0142 9.55974C20.0142 9.55974 19.9854 9.53682 20.249 9.41859C20.5115 9.29915 20.6185 9.18816 20.9524 8.95773C21.2862 8.72731 21.3472 8.5379 21.4428 8.57047C21.5383 8.60304 21.7121 8.54031 21.8687 8.57047C22.0253 8.60063 22.3234 8.81658 22.3234 8.81658Z" fill="url(#paint2_linear_242_4767)"/>
<path d="M25.306 18.3607C25.3428 18.263 27.7948 21.4359 28.0538 21.6494C28.314 21.8629 28.1839 21.7857 28.4993 21.98C28.8148 22.1742 30.1708 22.7581 30.5795 23.0115C30.9882 23.2648 31.2103 23.4977 31.322 23.4977C31.4336 23.4977 31.9344 23.1864 32.1577 23.1864C32.3811 23.1864 32.8266 22.7967 32.9751 22.7967C33.1236 22.7967 33.2536 22.8944 33.3089 22.991C33.3642 23.0887 33.3457 23.2045 33.4206 23.2045C33.4954 23.2045 33.6439 23.2045 33.8108 23.2829C33.9777 23.3613 34.0341 23.6135 34.0341 23.6135C34.0341 23.6135 34.0525 23.827 34.109 23.8668C34.1642 23.9054 34.3634 23.9452 34.3875 24.0804C34.3875 24.0804 34.5913 24.5472 34.6477 24.6643C34.703 24.7813 34.7064 25.0226 34.703 25.0926C34.703 25.0926 35.0184 26.2411 34.9263 26.4546C34.833 26.6682 34.703 26.8045 34.703 26.8045L34.5176 26.3762L34.1274 25.6753C34.1274 25.6753 33.7751 25.6946 33.645 25.6946C33.515 25.6946 32.9025 25.8888 32.6424 25.7332C32.3822 25.5775 32.3638 25.5389 32.2337 25.4991C32.1036 25.4605 30.1915 25.9081 29.5411 26.0251C28.8907 26.1422 28.1851 25.8888 28.0181 25.8888C27.8512 25.8888 27.6843 26.1023 27.4057 25.9467C27.1271 25.7911 22.5029 21.6072 22.1691 21.1403C21.8352 20.6734 21.8352 20.6927 21.7788 20.595C21.7236 20.4973 21.5751 20.478 21.5371 20.069C21.5003 19.66 21.1468 19.5044 21.407 18.6683C21.6672 17.831 21.2769 18.0651 21.7788 17.5982C22.2807 17.1313 23.227 17.0529 23.227 17.0529L24.2849 17.3835L25.306 18.3571V18.3607Z" fill="white" stroke="#8E8E8E" stroke-width="0.3" stroke-miterlimit="10"/>
<path d="M24.1917 20.2053C24.072 20.2427 22.229 20.8906 21.8468 20.9195C21.4646 20.9485 21.1377 20.9871 21.0905 20.8194C21.0433 20.6529 20.8511 20.2222 20.7014 19.8784C20.5518 19.5345 20.561 19.4766 20.4079 19.1521C20.2548 18.8276 20.2985 18.7962 20.1443 18.5899C19.99 18.3836 20.0959 18.5416 19.815 18.193C19.5341 17.8443 19.1105 17.3316 19.0127 17.0179C18.9148 16.7043 18.5349 15.3687 18.9045 14.2914C19.274 13.2128 20.1201 11.7687 20.7095 11.7386C21.2989 11.7084 23.1051 12.5155 23.5126 12.7882C23.9189 13.0608 24.3794 13.4614 24.5336 13.6677C24.6879 13.874 24.7973 13.8945 24.9193 14.2914C25.0413 14.6895 25.0137 15.0792 25.0436 15.4604C25.0735 15.8417 25.1944 16.0214 25.2336 16.1276C25.2727 16.2337 25.3245 16.2627 25.2773 16.4316C25.2301 16.6005 25.3153 16.9914 25.3153 16.9914L25.4246 17.3473L25.5133 17.7189C25.5294 17.9589 25.5674 18.1833 25.5559 18.4777C25.5444 18.7721 25.519 18.9253 25.5513 19.0701C25.5835 19.2148 25.6249 19.4199 25.5685 19.5273C25.5121 19.6359 24.1917 20.2029 24.1917 20.2029V20.2053Z" fill="url(#paint3_linear_242_4767)"/>
</g>
<defs>
<linearGradient id="paint0_linear_242_4767" x1="29.2108" y1="23.4132" x2="9.1172" y2="68.5844" gradientUnits="userSpaceOnUse">
<stop offset="0.16" stop-color="#2B2E32"/>
<stop offset="0.19" stop-color="#34383C"/>
<stop offset="0.27" stop-color="#4D5156"/>
<stop offset="0.34" stop-color="#5F6369"/>
<stop offset="0.43" stop-color="#696E74"/>
<stop offset="0.52" stop-color="#6D7278"/>
<stop offset="1" stop-color="#6D7278"/>
</linearGradient>
<linearGradient id="paint1_linear_242_4767" x1="20.5851" y1="21.1885" x2="4.86334" y2="57.0213" gradientUnits="userSpaceOnUse">
<stop offset="0.16" stop-color="#2B2E32"/>
<stop offset="0.19" stop-color="#34383C"/>
<stop offset="0.27" stop-color="#4D5156"/>
<stop offset="0.34" stop-color="#5F6369"/>
<stop offset="0.43" stop-color="#696E74"/>
<stop offset="0.52" stop-color="#6D7278"/>
<stop offset="1" stop-color="#6D7278"/>
</linearGradient>
<linearGradient id="paint2_linear_242_4767" x1="12.8948" y1="3.79038" x2="27.3138" y2="25.4692" gradientUnits="userSpaceOnUse">
<stop offset="0.29" stop-color="#BCC2CA"/>
<stop offset="0.41" stop-color="#AEB3BB"/>
<stop offset="0.65" stop-color="#898E95"/>
<stop offset="0.81" stop-color="#6D7278"/>
<stop offset="1" stop-color="#6D7278"/>
</linearGradient>
<linearGradient id="paint3_linear_242_4767" x1="24.8684" y1="16.2104" x2="15.8856" y2="29.2473" gradientUnits="userSpaceOnUse">
<stop offset="0.29" stop-color="#BCC2CA"/>
<stop offset="0.41" stop-color="#AEB3BB"/>
<stop offset="0.65" stop-color="#898E95"/>
<stop offset="0.81" stop-color="#6D7278"/>
<stop offset="1" stop-color="#6D7278"/>
</linearGradient>
<clipPath id="clip0_242_4767">
<rect width="35" height="46" fill="white"/>
</clipPath>
</defs>
</svg>
