<svg width="97" height="18" viewBox="0 0 97 18" fill="none" xmlns="http://www.w3.org/2000/svg">
<g id="_?&#235;&#141;&#137;&#236;&#148;&#160;??1" clip-path="url(#clip0_1868_2599)">
<g id="logo">
<path id="?&#226;&#145;&#165;&#235;&#146;&#170; 41" d="M9.52936 0.0195312H0.0190682L2.42167 2.18245V15.842L0 17.9854H9.50552C11.4171 17.9903 13.2667 17.2791 14.6968 15.9833C14.7302 15.954 14.7636 15.9199 14.797 15.8907C15.0162 15.6958 15.226 15.4913 15.4214 15.272V2.806C13.9246 1.07664 11.7889 0.0633743 9.52936 0.0195312ZM11.6269 12.2371C10.8117 13.0507 9.69143 13.4745 8.55211 13.4014H7.34604V4.73022H8.55211C9.69143 4.66202 10.8022 5.09558 11.6078 5.91885C12.3896 6.79084 12.7996 7.94051 12.7519 9.1194C12.8186 10.2739 12.4087 11.4041 11.6269 12.2371Z" fill="#EC8832"/>
<path id="?&#226;&#145;&#165;&#235;&#146;&#170; 42" d="M15.4214 15.2815C16.8896 13.6739 17.6333 11.5792 17.6333 9.02651C17.7096 6.74181 16.9182 4.51068 15.4214 2.81055V15.2815Z" fill="#747477"/>
<g id="&#230;&#180;&#185;&#235;&#170;&#131;&#239;&#188;&#153; 723">
<path id="?&#226;&#145;&#165;&#235;&#146;&#170; 43" d="M81.6073 1.41309C81.1162 1.41309 80.7206 1.81742 80.7206 2.31918C80.7206 2.82093 81.1162 3.22526 81.6073 3.22526C82.0983 3.22526 82.4939 2.82093 82.4939 2.31918C82.4939 1.81742 82.0983 1.41309 81.6073 1.41309Z" fill="#A9A8A9"/>
<path id="?&#209;&#136;&#236;&#187;&#150;??15" d="M82.3222 5.96777H80.9541V17.7372H82.3222V5.96777Z" fill="#A9A8A9"/>
<path id="?&#226;&#145;&#165;&#235;&#146;&#170; 44" d="M92.5667 5.34868V1.60254H91.1986V5.34868H86.9082V6.74679H91.1986V17.9024H92.5667V6.74679H96.8571V5.34868H92.5667Z" fill="#A9A8A9"/>
<path id="?&#226;&#145;&#165;&#235;&#146;&#170; 45" d="M67.2202 5.86975V17.9022H68.5884V9.95689H76.2157V8.55878H68.5884V5.86975C68.5884 4.24268 69.8802 2.92252 71.4724 2.92252H76.2157V1.52441H71.4724C69.127 1.52441 67.225 3.47299 67.2202 5.86975Z" fill="#A9A8A9"/>
<path id="?&#226;&#145;&#165;&#235;&#146;&#170; 46" d="M54.783 0.0097429L50.936 5.09066C49.6584 3.3954 48.3761 1.70014 47.0985 0H40.8632L47.8231 9.18755L43.876 14.3903C41.8643 9.59675 39.8573 4.79838 37.8456 0H33.827C31.8487 4.79838 29.8703 9.59675 27.8873 14.3951L25.3273 11.5015C27.3676 10.5272 28.6786 8.44222 28.7072 6.1429C28.7406 4.45737 28.0779 2.84005 26.8814 1.68065C25.9232 0.643031 24.5789 0.0389716 23.1679 0.0194858H15.4262V0.0487145H15.4214V2.81083C16.9182 4.51096 17.7096 6.74208 17.6333 9.02679C17.6333 11.5794 16.8896 13.6742 15.4214 15.2817V18H15.4262L20.2838 17.9854V13.2016L24.3406 17.9951H31.7724L35.8244 8.19378C37.2069 11.4576 38.5845 14.7264 39.967 17.9903H47.4131L50.9741 13.2991L54.5065 18H60.7466C58.5204 15.0625 56.2894 12.1299 54.0632 9.19242L61.0183 0H54.7782L54.783 0.0097429ZM23.6017 7.3023C23.3061 7.6092 22.9057 7.7797 22.4862 7.77483H20.1503V4.54019H22.4862C22.9057 4.54019 23.3109 4.70582 23.6017 5.01759C23.9115 5.32936 24.0736 5.75805 24.045 6.20135C24.0641 6.6203 23.8972 7.02463 23.5969 7.30717L23.6017 7.3023Z" fill="#A9A8A9"/>
</g>
</g>
</g>
<defs>
<clipPath id="clip0_1868_2599">
<rect width="96.8571" height="18" fill="white"/>
</clipPath>
</defs>
</svg>
