<svg width="49" height="89" viewBox="0 0 49 89" fill="none" xmlns="http://www.w3.org/2000/svg">
<g id="man_01">
<path id="Vector" d="M24.4995 18.6762C28.4085 18.6762 31.5773 15.5145 31.5773 11.6145C31.5773 7.71438 28.4085 4.55273 24.4995 4.55273C20.5906 4.55273 17.4218 7.71438 17.4218 11.6145C17.4218 15.5145 20.5906 18.6762 24.4995 18.6762Z" fill="#906851"/>
<path id="Vector_2" d="M26.712 20.0077C25.0382 19.6643 23.2148 19.6791 21.5703 20.0699C10.3928 21.3933 6.76371 34.4615 7.78678 44.424C8.23235 48.7317 14.9541 48.7761 14.5056 44.424C14.1333 40.7943 14.2916 35.3142 16.2029 31.418V45.6172C16.2029 45.7829 16.2205 45.9399 16.2263 46.1027C16.2205 46.1797 16.2029 46.2448 16.2029 46.3218C16.2029 57.5899 16.1824 68.8551 15.7221 80.1144C15.5169 85.1208 23.2031 85.1001 23.4054 80.1144C23.7659 71.2888 23.8568 62.4602 23.8773 53.6316C24.2408 53.6553 24.6043 53.6553 24.9708 53.6345C24.9942 62.4661 25.0821 71.2947 25.4398 80.1144C25.645 85.1001 33.3282 85.1208 33.123 80.1144C32.6628 68.8551 32.6452 57.5899 32.6452 46.3218C32.6452 45.9724 32.5983 45.6556 32.5279 45.3477C32.5162 40.4568 32.3315 35.5599 32.3902 30.6689C34.6796 34.5829 34.8877 40.5486 34.492 44.4181C34.0406 48.7673 40.7652 48.7229 41.2108 44.4181C42.2603 34.2483 38.4553 20.8426 26.712 20.0047V20.0077Z" fill="#906851"/>
</g>
</svg>
