<svg width="38" height="54" viewBox="0 0 38 54" fill="none" xmlns="http://www.w3.org/2000/svg">
<g clip-path="url(#clip0_242_4954)">
<path d="M9.5 46.5149L0.5 58.5149H37L29 46.5149H15H9.5Z" fill="#ECF0F2"/>
<path d="M20.1267 47.3867C20.0858 47.0689 19.874 46.9746 19.7682 46.5207C19.6623 46.0632 19.5564 45.6092 19.5564 45.3123C19.5564 45.2076 19.5564 44.7815 19.5633 44.2263L19.5428 44.2437C19.5428 44.2437 19.2457 44.565 18.7402 44.5964C18.2348 44.6279 17.8182 44.5964 17.6099 44.4987C17.5996 44.4952 17.5894 44.4882 17.5757 44.4777C17.6884 45.232 17.767 45.8571 17.7806 46.1086C17.8216 46.7931 17.8216 47.729 17.8865 48.0258C17.9514 48.3226 18.0572 48.4833 18.0129 48.7347C17.9719 48.9862 17.2513 49.8068 17.2513 49.8068C17.2513 49.8068 16.5307 49.8522 16.4898 50.3551C16.4488 50.858 16.6366 51.2456 17.0601 51.2002C17.4835 51.1548 18.8359 51.4063 19.2593 51.4063C19.6828 51.4063 19.8945 50.9942 19.9799 50.7917C20.0653 50.5891 20.1267 50.3342 20.2975 50.0618C20.4682 49.7894 20.4682 49.971 20.4682 49.4227C20.4682 48.8744 20.1506 48.4868 20.1506 48.1899C20.1506 47.8931 20.1711 47.7115 20.1302 47.3902L20.1267 47.3867Z" fill="#F8D0B9"/>
<path d="M13.9661 24.5475C14.451 26.5311 14.9393 29.4087 15.3389 30.5262C15.7419 31.6438 15.8682 33.0127 15.7624 33.6972C15.6565 34.3817 15.5916 35.59 15.5916 36.2989C15.5916 37.0078 16.3941 39.4035 16.8176 40.6816C17.0874 41.4953 17.3879 43.21 17.586 44.5266C17.5996 44.5336 17.6099 44.5406 17.6201 44.5475C17.8284 44.6453 18.2451 44.6768 18.7505 44.6453C19.2559 44.6139 19.553 44.2926 19.553 44.2926L19.5735 44.2752C19.5838 43.2834 19.6008 41.869 19.6281 41.0937C19.6691 39.8854 19.6281 36.7808 19.5872 36.463C19.5564 36.243 19.4984 35.8554 19.4642 35.6389C19.4472 35.5306 19.4403 35.4258 19.4472 35.3176C19.4642 34.9788 19.5052 34.1826 19.553 33.6797C19.5838 33.3584 19.3857 32.5273 19.3447 32.1851C19.3037 31.8428 19.3003 31.0291 19.3003 31.0291C19.3003 31.0291 19.2696 30.2329 19.2491 28.815C19.2286 27.4007 19.1637 24.3205 19.2286 22.4487C19.2935 20.5769 19.2286 20.0146 19.314 19.5956C19.3345 19.5048 19.3515 19.3895 19.4642 19.3057C19.676 19.1486 19.8945 19.1276 20.1472 19.1136C20.8405 19.0717 22.268 19.3721 22.5138 19.2568C22.8519 19.0962 23.4222 18.7539 24.1223 18.0695C24.819 17.385 25.099 15.4119 24.9863 14.5388C24.8429 13.4353 23.8491 12.192 23.8491 12.192C23.4905 11.9196 22.8485 11.9546 22.2133 11.8393C21.5781 11.7241 20.5434 11.6333 20.5434 11.6333L19.5086 12.2479L19.6145 14.1023L12.9347 14.3258C12.9347 14.3258 12.8084 15.4677 12.6376 16.5399C12.4669 17.612 12.4669 18.6876 12.5727 19.4838C12.7196 20.5908 13.4811 22.564 13.9695 24.551L13.9661 24.5475Z" fill="url(#paint0_linear_242_4954)"/>
<path d="M14.1163 5.51838C14.1436 5.64061 14.6763 7.74294 14.3929 8.89886C14.1094 10.0548 13.7884 11.1933 13.5186 11.8952C13.044 13.1384 12.9142 14.4725 12.9142 14.4725C12.9142 14.4725 14.6627 14.434 15.5369 14.4026C16.4112 14.3712 17.8762 14.4026 17.9889 14.4026C18.1016 14.4026 23.9105 14.7064 23.9105 14.7064L24.0813 12.7578C24.0813 12.7578 23.5724 11.965 23.2924 11.2072C23.009 10.4459 22.3635 9.49953 22.2508 8.55313C22.1381 7.60674 22.4626 5.61268 22.4626 5.61268L14.1163 5.51489V5.51838Z" fill="#B7B7B7"/>
<path d="M21.8445 34.2245C22.7324 34.1756 23.2651 33.8893 23.3505 33.7461C23.4393 33.6029 23.6613 33.1734 23.0841 32.7403C22.507 32.3108 22.5958 31.8777 22.6402 31.6403C22.6846 31.4028 22.4182 30.5402 22.507 29.8697C22.5275 29.7091 22.5821 29.3983 22.6572 28.9967C22.5924 29.0351 22.5275 29.07 22.4694 29.0909C22.2133 29.1817 21.8991 29.0909 21.643 29.0595C21.3869 29.0281 20.9873 28.843 20.9019 28.7522C20.8917 28.7417 20.878 28.7208 20.8609 28.6928C20.8575 29.3214 20.8336 29.7999 20.7722 29.8662C20.639 30.0094 20.3726 30.2958 20.4614 30.5856C20.5502 30.872 20.5058 30.9698 20.3282 31.3504C20.1506 31.7346 20.2394 32.4994 20.1506 33.0267C20.0618 33.554 19.7955 33.7461 20.195 33.8893C20.5946 34.0324 20.9497 34.2734 21.8342 34.2245H21.8445Z" fill="#F8D0B9"/>
<path d="M20.8473 28.6963C20.8644 28.7243 20.8814 28.7487 20.8917 28.7592C20.9839 28.8604 21.421 29.0595 21.6976 29.0944C21.9777 29.1294 22.3192 29.2271 22.5992 29.1293C22.6641 29.1049 22.7324 29.07 22.8041 29.0246C23.0636 27.6452 23.5417 25.2669 23.8013 23.7618C24.1394 21.7782 24.2862 19.8959 24.2862 18.8517C24.2862 17.8075 24.0916 16.6586 24.1394 15.9776C24.1872 15.2966 24.3818 14.0464 24.235 13.1559C24.1189 12.454 23.7945 11.6892 22.7358 11.3225C22.1313 11.1129 21.4722 11.2421 20.96 11.6472C20.6014 11.9301 20.2394 12.2828 20.1677 12.5832C20.0209 13.2083 20.1677 14.9858 20.2633 15.3001C20.3589 15.6144 20.1165 16.8681 20.0687 18.3279C20.0209 19.7911 20.7448 24.5964 20.7961 26.0038C20.8234 26.7791 20.8507 27.8547 20.8439 28.6928L20.8473 28.6963Z" fill="url(#paint1_linear_242_4954)"/>
</g>
<defs>
<linearGradient id="paint0_linear_242_4954" x1="22.4429" y1="18.5481" x2="12.4429" y2="36.0481" gradientUnits="userSpaceOnUse">
<stop stop-color="#2B2E32"/>
<stop offset="0.06" stop-color="#34383C"/>
<stop offset="0.25" stop-color="#4D5156"/>
<stop offset="0.45" stop-color="#5F6369"/>
<stop offset="0.65" stop-color="#696E74"/>
<stop offset="0.87" stop-color="#6D7278"/>
<stop offset="1" stop-color="#6D7278"/>
</linearGradient>
<linearGradient id="paint1_linear_242_4954" x1="24.29" y1="20.1965" x2="20.0698" y2="20.1965" gradientUnits="userSpaceOnUse">
<stop stop-color="#2B2E32"/>
<stop offset="0.06" stop-color="#34383C"/>
<stop offset="0.25" stop-color="#4D5156"/>
<stop offset="0.45" stop-color="#5F6369"/>
<stop offset="0.65" stop-color="#696E74"/>
<stop offset="0.87" stop-color="#6D7278"/>
<stop offset="1" stop-color="#6D7278"/>
</linearGradient>
<clipPath id="clip0_242_4954">
<rect width="38" height="48" fill="white" transform="translate(0 6)"/>
</clipPath>
</defs>
</svg>
