<svg width="36" height="51" viewBox="0 0 36 51" fill="none" xmlns="http://www.w3.org/2000/svg">
<g clip-path="url(#clip0_242_4704)">
<path d="M29.5928 4.64806C29.5514 4.62656 28.9456 4.31039 28.1634 4.28889C27.3813 4.26738 26.7341 4.40503 26.3791 4.62656C26.0241 4.84809 25.784 5.11263 25.5969 5.47181C25.4088 5.83099 25.3259 5.94713 25.294 6.33749C25.2632 6.72786 25.378 7.23544 25.3982 7.30857C25.4184 7.38169 25.4609 7.4774 25.4609 7.4774C25.4609 7.4774 25.3355 7.63548 25.2834 7.68818C25.2313 7.74087 25.2526 8.00541 25.242 8.12156C25.2313 8.2377 25.3876 8.8184 25.4503 8.90336C25.513 8.98832 25.8052 9.23028 25.8467 9.26254C25.8881 9.29373 26.107 9.7271 26.1389 9.91745C26.1708 10.1078 26.3791 10.7519 26.3791 11.1111C26.3791 11.4703 26.2122 12.5683 26.1708 12.6102C26.1294 12.6522 25.9721 13.392 25.9721 13.392C25.9721 13.392 27.5375 14.8492 27.851 15.0395C28.1645 15.2298 29.9074 15.261 30.0115 15.1868C30.1157 15.1126 30.0328 14.5739 30.0328 14.5739C30.0849 14.4577 29.8968 14.2781 29.8139 14.1308C29.7299 13.9835 29.7097 13.0113 29.6364 12.5995C29.5631 12.1876 29.5631 11.808 29.5631 11.808C29.5418 11.6284 29.6672 11.6811 29.8447 11.6176C30.0222 11.5542 30.5025 11.4595 30.5652 11.4069C30.6279 11.3542 30.7841 11.1853 30.8054 11.0477C30.8266 10.91 30.8468 10.7304 30.8468 10.7304C30.8468 10.7304 30.9095 10.424 31.0031 10.2239C31.0966 10.0228 31.1699 9.66473 31.222 9.52708C31.2741 9.38943 31.3995 8.91411 31.3782 8.67215C31.357 8.43019 31.2422 8.15489 31.138 7.99681C31.0339 7.83873 31.0339 7.70108 31.0339 7.64839C31.0339 7.59569 31.0551 7.32147 31.0551 7.32147C31.0551 7.32147 31.0551 6.8569 31.0243 6.74076C30.9935 6.62462 30.6067 5.57935 30.5131 5.47396C30.4196 5.36857 30.2103 4.96745 30.0126 4.8298C29.8139 4.69215 29.5843 4.59752 29.5843 4.59752L29.5949 4.65021L29.5928 4.64806Z" fill="white" stroke="#8E8E8E" stroke-width="0.3" stroke-miterlimit="10"/>
<path d="M29.207 4.73193C29.207 4.73193 28.884 5.1965 28.5811 5.51374C28.2782 5.83098 28.0805 5.94712 28.0805 5.94712C28.0805 5.94712 28.2995 5.6202 28.2166 5.66214C28.1326 5.70408 27.5694 6.33748 27.4344 6.36974C27.2984 6.40093 27.1113 6.80312 27.0168 6.96121C26.9232 7.11929 26.7245 7.52041 26.6512 7.67956C26.5778 7.83764 26.7245 8.6302 26.7032 8.59794C26.682 8.56676 26.4216 7.83765 26.2229 7.66881C26.0242 7.49997 26.0146 7.47847 25.8892 7.44728C25.7638 7.41609 25.5034 7.51073 25.4195 7.59461C25.3355 7.67956 25.2314 7.82689 25.2632 8.09144C25.2941 8.35491 25.3217 8.60009 25.378 8.7571C25.4418 8.93454 25.6182 9.04208 25.7436 9.13778C25.8276 9.20123 25.9423 9.33888 25.9625 9.37007C25.9827 9.40125 26.1294 9.6658 26.1921 9.82388C26.2548 9.98196 26.2441 10.2573 26.2441 10.4788C26.2441 10.7003 26.0985 11.1971 26.0252 11.3767C25.9519 11.5563 25.9838 11.7574 26.004 11.9155C26.0252 12.0736 26.0879 12.3693 26.0975 12.507C26.1081 12.6446 26.1496 13.4576 26.1389 13.6576C26.1283 13.8576 25.1793 14.7137 25.0847 14.7137C24.9901 14.7137 24.7297 14.376 24.7297 14.376L24.5842 13.8587L24.4481 13.5103C24.4481 13.5103 24.5108 12.9403 24.5937 12.4758C24.6777 12.0112 24.9901 11.6413 25.1261 11.3455C25.2622 11.0498 25.2303 10.6906 25.2303 10.6906C25.2824 10.3422 25.2824 10.2788 25.1676 10.0572C25.0528 9.83571 24.8541 9.36039 24.7393 8.9797C24.6245 8.59902 24.4885 7.68064 24.5618 7.01605C24.6352 6.35039 25.0422 5.10509 25.5215 4.64053C26.0029 4.17273 26.7755 3.66515 27.3388 3.62321C27.902 3.58127 29.155 3.96088 29.3325 4.08778C29.5099 4.21467 29.5312 4.38351 29.6662 4.38351C29.8011 4.38351 29.9265 4.44696 29.9265 4.44696C29.9265 4.44696 29.7809 4.57385 29.8117 4.5631C29.8426 4.55235 29.9478 4.57385 30.1253 4.72118C30.3027 4.86851 30.3856 4.93196 30.4281 5.0696C30.4706 5.20725 30.5844 5.54492 30.5844 5.58686C30.5844 5.6288 30.6258 5.78796 30.6258 5.78796C30.6258 5.78796 30.3548 5.35458 30.2815 5.30189C30.2081 5.24919 29.9998 5.09111 29.9053 5.01691C29.8117 4.94271 29.6545 4.80614 29.5503 4.75344C29.4462 4.70075 29.206 4.73193 29.206 4.73193H29.207Z" fill="#4F4F4F"/>
<path d="M26.1283 9.43137C26.1283 9.43137 26.2951 9.49481 26.3791 9.50557C26.4631 9.51632 26.7022 9.49481 26.7022 9.52708C26.7022 9.55934 26.9625 10.0336 27.0359 10.1497C27.1092 10.2659 27.6098 10.6992 27.7979 10.7939C27.986 10.8885 29.6141 11.3326 29.8117 11.3746C30.0105 11.4165 30.4696 11.438 30.4696 11.438C30.4696 11.438 29.8744 11.6391 29.8436 11.6176C29.8128 11.5961 29.5726 11.6918 29.5726 11.6918C29.5726 11.6918 29.5099 11.7768 29.4685 11.766C29.427 11.7553 28.8425 11.5026 28.7065 11.4595C28.5705 11.4165 27.7564 11.1111 27.6416 11.0584C27.5269 11.0057 26.9742 10.4358 26.9211 10.2239C26.869 10.0131 26.6703 9.64322 26.6703 9.64322C26.6703 9.64322 26.6182 9.59052 26.5768 9.59052C26.5353 9.59052 26.3366 9.66472 26.1283 9.43244V9.43137Z" fill="#C1C1C1"/>
<path d="M21.2812 16.1106C21.2153 16.1644 20.4438 16.7483 20.0782 17.1526C19.7115 17.557 19.617 17.9022 18.8507 18.4958C18.0845 19.0883 16.6572 19.9852 16.4585 20.1228C16.2598 20.2594 14.8835 20.8391 14.62 20.9294C14.3564 21.0208 13.8282 21.4015 13.5551 21.6359C13.2809 21.8703 10.5826 24.4599 10.2011 24.7986C9.8196 25.1374 8.62084 26.0267 8.38172 26.1773C8.14261 26.3278 8.09053 26.4837 7.97682 26.6182C7.86205 26.7526 7.09581 27.4451 7.01611 27.4946C6.9364 27.5441 5.87367 28.0753 5.67812 28.2979C5.48258 28.5205 5.22646 28.6431 5.03836 28.7367C4.85025 28.8302 4.39646 29.1518 4.31038 29.2314C4.2243 29.3109 3.75989 29.8755 3.62173 30.0121C3.48464 30.1487 3.18495 30.2616 3.16582 30.311C3.14669 30.3605 3.1605 30.4637 3.1605 30.4637C3.1605 30.4637 3.03191 30.5939 3.00747 30.6347C2.98303 30.6756 3.01916 30.7143 3.10737 30.7584C3.19557 30.8025 3.40174 30.7971 3.55478 30.7261C3.70781 30.6552 4.00538 30.4799 4.11696 30.3605C4.22749 30.2411 4.6749 29.8486 4.73654 29.8099C4.79818 29.7712 5.04686 29.7142 5.20946 29.6002C5.37206 29.4851 5.43263 29.3238 5.52084 29.2679C5.60905 29.212 5.70363 29.2647 5.84604 29.2378C5.98844 29.2098 6.16698 29.1604 6.2148 29.1184C6.26263 29.0765 5.9725 29.4443 5.93424 29.5432C5.89598 29.6411 5.81628 29.7916 5.81628 29.7916C5.81628 29.7916 5.95656 29.94 6.04796 29.9691C6.13935 29.9981 6.4688 29.954 6.62715 29.7916C6.78549 29.6303 6.92471 29.3561 6.97679 29.2615C7.02886 29.1668 7.116 28.9872 7.23503 28.9625C7.35406 28.9367 7.73771 28.8206 7.94919 28.6259C8.16067 28.4313 8.56451 28.128 8.68885 28.0495C8.81319 27.971 8.87377 27.7097 8.94285 27.5419C9.01193 27.3742 9.09376 27.2483 9.20641 27.1903C9.31906 27.1322 11.2894 26.1805 12.5211 25.5062C13.7528 24.832 15.3777 23.8361 15.7529 23.6254C16.1269 23.4146 16.4532 23.2856 16.6902 23.1113C16.9272 22.9371 17.5032 22.5134 17.6084 22.3855C17.7136 22.2575 18.3842 21.6875 19.1504 21.2552C19.9177 20.8229 22.3758 19.4658 22.6139 19.3529C22.8519 19.241 23.8722 18.4012 24.192 18.2001C24.5119 17.999 24.5396 16.4031 24.3929 16.2848C24.2462 16.1654 23.4099 15.8837 23.2143 15.845C23.0188 15.8063 22.3865 15.7557 22.2685 15.8052C22.1516 15.8536 21.2801 16.116 21.2801 16.116L21.2812 16.1106Z" fill="white" stroke="#8E8E8E" stroke-width="0.3" stroke-miterlimit="10"/>
<path d="M31.9755 27.5247C31.9755 27.5247 31.9203 28.2571 31.9479 28.7356C31.9755 29.2142 32.0032 30.2842 32.0032 30.6218C32.0032 30.9595 31.9819 32.1779 32.0446 32.579C32.1073 32.9801 32.2115 34.3104 32.0446 35.8525C31.8778 37.3946 31.272 40.267 31.0637 40.7735C30.8554 41.28 30.4792 42.2941 30.2911 42.7801C30.103 43.2662 30.1869 43.5619 30.1657 44.1534C30.1444 44.7449 30.103 44.9556 29.9574 45.3783C29.8118 45.8009 29.7693 45.589 29.8118 46.0751C29.8532 46.5612 29.7077 46.4762 29.6449 46.8569C29.5822 47.2376 29.6662 47.4484 29.7077 48.2721C29.7491 49.0959 29.6237 50.4057 29.29 52.0951C28.9563 53.7845 28.664 55.1997 28.6226 55.6428C28.5812 56.0859 28.5812 57.0784 28.5599 57.0161C28.5386 56.9537 27.6417 56.8687 27.4323 56.8472C27.224 56.8257 26.3048 56.6149 26.3048 56.6149C26.3048 56.6149 26.3887 55.432 26.326 53.9964C26.2633 52.5607 25.9084 51.3778 25.9296 50.4487C25.9509 49.5196 26.3058 47.9355 26.3675 47.4494C26.4302 46.9634 26.4089 46.7945 26.3048 46.1826C26.2006 45.5697 26.5343 40.0153 26.5131 39.6142C26.4918 39.2131 27.5981 33.1726 27.5981 32.9823C27.5981 32.792 28.7671 26.9419 28.7671 26.9419C28.7671 26.9419 31.4601 27.1741 31.6897 27.1526C31.9192 27.1311 31.9745 27.5258 31.9745 27.5258L31.9755 27.5247Z" fill="url(#paint0_linear_242_4704)"/>
<path d="M24.1346 26.6655C24.0719 26.7504 23.5288 27.785 23.3418 28.0592C23.1537 28.3334 22.2567 30.2347 22.1526 31.5445C22.0484 32.8543 22.1526 36.9085 22.3194 38.4506C22.4863 39.9927 22.8412 43.477 22.82 44.048C22.7987 44.619 22.736 45.3998 22.6946 45.8643C22.6531 46.3289 22.5692 46.5397 22.549 46.6246C22.5277 46.7096 22.0272 48.1033 21.9018 49.4755C21.7764 50.8477 22.1313 52.8758 22.2982 53.9103C22.465 54.9449 22.9039 57.3322 22.9039 57.3322C22.9039 57.3322 23.1547 57.586 23.7594 57.586C24.3652 57.586 25.074 57.2053 25.074 57.2053C25.074 57.2053 24.9699 55.6428 25.0528 54.7556C25.1367 53.8684 25.1984 52.2639 25.2823 51.2283C25.3663 50.1938 25.4906 48.8421 25.5746 48.2291C25.6585 47.6161 25.971 46.9827 26.0751 46.73C26.1793 46.4762 26.4088 45.8009 26.513 45.5266C26.6171 45.2524 26.6171 44.661 26.6798 44.3652C26.7425 44.0695 26.9721 41.6198 27.2643 40.2046C27.5566 38.7894 27.8488 36.973 27.8903 35.9385C27.9317 34.904 27.9944 34.6287 28.0986 34.4814C28.2027 34.334 28.8712 32.6016 29.4132 31.8628C29.9552 31.124 30.4568 27.6172 30.4982 27.301C30.5397 26.9838 30.6024 26.3504 30.6024 26.3504C30.6024 26.3504 26.4492 26.0762 26.2399 26.0762C26.0305 26.0762 24.1314 26.6676 24.1314 26.6676L24.1346 26.6655Z" fill="url(#paint1_linear_242_4704)"/>
<path d="M30.104 14.2889C30.104 14.2889 29.833 14.3738 29.5407 14.3308C29.2485 14.2889 28.4971 14.1405 28.0794 13.8028C27.6618 13.4651 26.9519 12.8941 26.7436 12.7468C26.5353 12.5995 26.1176 12.5779 26.0964 12.5037C26.0751 12.4295 25.9295 12.5779 25.9295 12.5779C25.9295 12.5779 25.9295 12.7253 25.8041 12.7468C25.6787 12.7683 25.5958 12.8522 25.4279 12.8737C25.2611 12.8952 24.9901 13.4017 24.802 13.4436C24.6139 13.4856 24.447 14.9008 24.3429 15.5342C24.2387 16.1676 23.6755 16.8644 23.633 16.9494C23.5915 17.0343 23.5915 17.5408 23.6542 17.6882C23.7169 17.8355 24.176 18.4065 24.26 18.7023C24.3439 18.998 24.6362 20.3498 24.8657 20.8563C25.0953 21.3628 25.1994 21.8069 25.2207 21.8703C25.2419 21.9338 25.2834 22.821 25.3248 23.1587C25.3663 23.4963 25.1792 23.4124 25.158 23.7286C25.1367 24.0458 25.2419 24.0243 25.1994 24.2351C25.1569 24.4459 24.9911 24.3405 24.9284 24.6577C24.8657 24.975 25.0326 24.932 24.9072 25.1858C24.7818 25.4395 24.8859 25.3127 24.5937 25.6288C24.3014 25.9461 24.2175 26.3257 24.0719 26.4945C23.9263 26.6633 23.6957 27.1698 23.6542 27.2333C23.6128 27.2967 25.3652 27.4021 25.6575 27.4441C25.9497 27.486 28.6416 27.7398 29.7065 27.6979C30.7714 27.6559 31.9818 27.8032 32.086 27.8882C32.1901 27.9732 32.3995 28.0355 32.3995 28.0355C32.3995 28.0355 32.2741 27.0849 32.2953 26.7687C32.3166 26.4526 32.8384 24.4244 32.9011 23.5791C32.9638 22.7339 32.9638 22.6285 33.0052 22.5231C33.0467 22.4177 33.4431 21.1079 33.6524 20.6014C33.8607 20.0949 34.0286 19.6088 33.9032 18.9324C33.7778 18.2571 33.0265 17.6656 32.5674 17.0741C32.1083 16.4827 31.6906 16.2923 31.5025 15.7858C31.3144 15.2793 30.9393 15.089 30.6885 14.8567C30.4377 14.6244 30.375 14.6663 30.3123 14.5395C30.2496 14.4126 30.1454 14.3491 30.104 14.2857V14.2889Z" fill="url(#paint2_linear_242_4704)"/>
<path d="M25.666 17.172C25.5618 17.3623 25.378 18.0237 25.1803 18.2226C24.9826 18.4216 24.8721 18.4409 24.8721 18.4409C24.8721 18.4409 24.3014 18.3517 24.1622 18.3646C24.023 18.3775 23.9465 18.0527 23.7084 17.7054C23.4704 17.358 22.2695 16.7203 21.8731 16.5956C21.4777 16.4708 20.8465 16.445 20.8008 16.4493C20.7551 16.4536 21.0856 16.0751 21.3576 15.8762C21.5702 15.7213 22.0697 15.2245 22.3173 14.8825C22.4193 14.7416 22.6138 14.5072 23.0049 14.1867C23.1898 14.0351 23.4406 13.6856 24.1888 13.3232L25.1378 13.135C25.2377 12.9156 26.0879 13.706 25.8977 14.0018C26.1283 14.7126 25.7733 15.4654 25.8381 15.9708C25.903 16.4773 25.666 17.172 25.666 17.172Z" fill="url(#paint3_linear_242_4704)"/>
<path d="M26.1804 10.8251C26.1804 10.8251 26.1389 11.0789 26.1177 11.2477C26.0964 11.4165 26.1177 11.5015 25.9923 11.5434C25.8669 11.5854 25.6788 11.48 25.4492 11.438C25.2197 11.3961 25.1102 11.0982 25.1357 11.0154L25.2399 10.6777L26.1793 10.8251H26.1804Z" fill="#4F4F4F"/>
</g>
<defs>
<linearGradient id="paint0_linear_242_4704" x1="32.1647" y1="30.9197" x2="26.649" y2="47.9471" gradientUnits="userSpaceOnUse">
<stop stop-color="#2B2E32"/>
<stop offset="0.06" stop-color="#34383C"/>
<stop offset="0.25" stop-color="#4D5156"/>
<stop offset="0.45" stop-color="#5F6369"/>
<stop offset="0.65" stop-color="#696E74"/>
<stop offset="0.87" stop-color="#6D7278"/>
<stop offset="1" stop-color="#6D7278"/>
</linearGradient>
<linearGradient id="paint1_linear_242_4704" x1="31.0264" y1="37.357" x2="14.7037" y2="48.7215" gradientUnits="userSpaceOnUse">
<stop stop-color="#2B2E32"/>
<stop offset="0.06" stop-color="#34383C"/>
<stop offset="0.25" stop-color="#4D5156"/>
<stop offset="0.45" stop-color="#5F6369"/>
<stop offset="0.65" stop-color="#696E74"/>
<stop offset="0.87" stop-color="#6D7278"/>
<stop offset="1" stop-color="#6D7278"/>
</linearGradient>
<linearGradient id="paint2_linear_242_4704" x1="32.188" y1="19.8809" x2="15.9859" y2="21.917" gradientUnits="userSpaceOnUse">
<stop offset="0.29" stop-color="#BCC2CA"/>
<stop offset="0.39" stop-color="#AEB3BB"/>
<stop offset="0.6" stop-color="#898E95"/>
<stop offset="0.73" stop-color="#6D7278"/>
<stop offset="1" stop-color="#6D7278"/>
</linearGradient>
<linearGradient id="paint3_linear_242_4704" x1="22.3479" y1="14.2128" x2="27.9876" y2="18.6635" gradientUnits="userSpaceOnUse">
<stop offset="0.29" stop-color="#BCC2CA"/>
<stop offset="0.39" stop-color="#AEB3BB"/>
<stop offset="0.6" stop-color="#898E95"/>
<stop offset="0.73" stop-color="#6D7278"/>
<stop offset="1" stop-color="#6D7278"/>
</linearGradient>
<clipPath id="clip0_242_4704">
<rect width="36" height="48" fill="white" transform="translate(0 3)"/>
</clipPath>
</defs>
</svg>
