<svg width="41" height="52" viewBox="0 0 41 52" fill="none" xmlns="http://www.w3.org/2000/svg">
<g clip-path="url(#clip0_242_4665)">
<g clip-path="url(#clip1_242_4665)">
<path d="M28.7334 22.4381C28.7334 22.4381 27.6666 22.2106 27.6365 22.3792L27.2454 22.7382C27.2454 22.7382 26.4412 22.6274 26.3116 22.7394C25.7434 23.2035 25.2679 23.7646 24.908 24.3972C24.5042 25.2239 24.105 26.6751 23.8249 27.168C23.5449 27.661 22.2096 29.1411 21.8243 29.7599C21.41 30.3152 20.9414 30.829 20.4253 31.2965C20.1442 31.5598 19.9116 31.8692 19.7403 32.2121C19.4603 32.705 18.6445 34.9448 18.2569 35.6259C17.8693 36.3071 17.2953 37.7202 17.057 38.0815C16.8904 38.3494 16.7422 38.6288 16.6138 38.9174C16.5733 38.9878 16.291 39.542 16.291 39.542C16.291 39.542 14.9985 40.8916 14.9707 40.9978C14.9441 41.1629 14.9267 41.328 14.9175 41.4954C14.9175 41.4954 15.2392 41.739 15.3132 41.7817C15.5921 42.0288 15.8999 42.2446 16.2273 42.4236C16.4356 42.4455 16.6416 42.4894 16.8418 42.5552L17.1854 42.4709L17.4562 42.6857L17.8299 42.4317C17.8299 42.1096 17.8484 41.7886 17.8855 41.47C17.9815 41.149 17.9966 40.8061 17.9294 40.4702C17.8288 40.0719 17.7732 39.8225 17.7732 39.8225L17.9352 39.0767C17.9352 39.0767 18.9963 37.846 19.5077 37.2353C20.0192 36.6245 21.41 34.5257 21.7317 33.96C22.0534 33.3943 22.507 32.5977 22.7454 32.2363C22.9837 31.8749 24.3503 30.5692 25.0422 29.873C25.733 29.178 27.2523 27.0272 27.4988 26.8252C28.0808 26.3668 28.7404 26.0066 29.452 25.7584C30.6114 25.6545 32.1538 26.0008 32.2094 25.845C32.2649 25.6891 29.9669 23.8142 29.9195 23.7253C29.872 23.6364 29.2587 22.8641 29.2009 22.7382C28.7739 22.3838 29.2009 22.7382 28.7334 22.4369V22.4381Z" fill="white" stroke="#8E8E8E" stroke-width="0.3" stroke-miterlimit="10"/>
<path d="M28.8041 23.5187C28.8041 23.5187 29.4255 22.6551 29.3352 22.5096L29.2449 22.363C29.2449 22.363 29.8397 21.7881 29.8605 21.6184C29.0031 21.2755 29.0517 19.8693 28.8932 19.1593C28.6375 18.2749 28.2394 17.1932 28.1168 16.639C27.9941 16.0849 27.9895 14.0945 27.8599 13.3776C27.7939 12.6883 27.7962 11.9933 27.8657 11.3018C27.8981 10.9185 27.861 10.5329 27.7592 10.1634C27.6366 9.61042 26.7363 7.40302 26.5662 6.63874C26.3961 5.87446 25.8731 4.44173 25.806 4.01341C25.7493 3.70285 25.6706 3.39691 25.5734 3.09674C25.5561 3.01823 25.3929 2.41789 25.3929 2.41789C25.3929 2.41789 25.445 0.55222 25.3941 0.454088C25.3027 0.314393 25.2055 0.179317 25.099 0.0488586C25.099 0.0488586 24.6963 0.0834936 24.613 0.101966C24.2393 0.105429 23.8667 0.150455 23.5033 0.237042C23.3344 0.360573 23.1516 0.465633 22.9595 0.551066L22.7616 0.844309L22.4157 0.866244L22.3092 1.30495C22.5256 1.54394 22.7269 1.79446 22.9144 2.05538C23.059 2.35901 23.2777 2.62224 23.5543 2.82658C23.8968 3.05402 24.1062 3.20295 24.1062 3.20295L24.4869 3.86448C24.4869 3.86448 24.5262 5.4877 24.5575 6.28315C24.5876 7.0786 24.9671 9.56655 25.1083 10.2015C25.2494 10.8365 25.4485 11.7301 25.5144 12.1584C25.5804 12.5867 25.4438 14.4697 25.3987 15.4476C25.3536 16.4254 26.049 19.4179 26.0016 19.7319C25.8777 20.4616 26.3626 21.6576 26.0016 22.318C25.2112 23.1712 25.0944 23.334 25.158 23.4863C25.2217 23.6387 25.8164 23.2381 25.9113 23.2728C26.0062 23.3074 27.9085 23.4321 28.0358 23.4863C28.5912 23.4633 28.2591 23.611 28.8076 23.521L28.8041 23.5187Z" fill="white" stroke="#8E8E8E" stroke-width="0.3" stroke-miterlimit="10"/>
<path d="M36.5671 21.8008C36.5671 21.8008 35.999 21.7154 36.0128 21.7327C35.6622 21.6726 35.3278 21.5329 35.0339 21.3228C34.5572 21.0677 34.1429 20.6994 33.8259 20.2457C33.7599 19.837 33.7287 19.4214 33.7333 19.0069C33.7333 18.7183 33.7808 18.4308 33.8722 18.1583L31.8889 18.1907V18.1953L30.6184 18.1745C30.7098 18.447 30.7572 18.7333 30.7572 19.0231C30.7619 19.4387 30.7306 19.8531 30.6647 20.263C30.3465 20.7156 29.9334 21.085 29.4566 21.3401C28.8526 21.6992 28.5298 21.7338 28.2729 21.6345C27.9443 21.5064 27.6527 22.0998 27.6527 22.0998L27.3125 22.8606C27.3125 22.8606 28.3678 25.3336 28.3678 25.3855C28.3678 25.4375 30.3719 27.9981 30.3719 27.9981L32.6329 27.9658V27.96L34.1198 27.982C34.8742 27.5571 35.6021 27.0803 36.2963 26.5527C36.3206 26.5273 36.7927 24.6305 37.0554 23.566C37.1665 23.1158 37.1028 22.6378 36.8784 22.2383L36.5671 21.8008Z" fill="white" stroke="#8E8E8E" stroke-width="0.3" stroke-miterlimit="10"/>
<path d="M29.5041 15.5619C29.5249 15.488 29.5758 15.4279 29.6429 15.3991C29.7112 15.3621 29.7841 15.3344 29.8605 15.3183L29.9993 15.4487L30.0919 15.7581C30.1208 15.9833 30.1625 16.2061 30.2157 16.4266C30.2504 16.6644 30.2666 16.9045 30.262 17.1447L30.277 17.3248L30.0144 17.2925C29.9079 17.1805 29.8095 17.0604 29.7204 16.9334C29.6071 16.676 29.5145 16.4093 29.4416 16.1357C29.43 15.9429 29.4508 15.7489 29.5029 15.563L29.5041 15.5619Z" fill="white" stroke="#8E8E8E" stroke-width="0.3" stroke-miterlimit="10"/>
<path d="M34.8789 15.6104L34.9726 15.4303L35.2353 15.4464C35.2353 15.4464 35.2665 15.6254 35.2815 15.8378C35.3197 16.0745 35.2931 16.3181 35.204 16.5397C35.0802 16.8653 34.9564 17.1424 34.9564 17.1424L34.6324 17.2728L34.3385 17.1747L34.5086 15.869L34.5734 15.4776L34.8789 15.6104Z" fill="white" stroke="#8E8E8E" stroke-width="0.3" stroke-miterlimit="10"/>
<path d="M34.7759 13.777C34.7446 13.4665 34.8071 13.2875 34.1094 12.4401C33.665 11.9529 33.0228 11.7209 32.3876 11.819C31.7812 11.7486 31.1784 11.9818 30.7584 12.4482C30.0606 13.2968 30.1231 13.4757 30.0919 13.7851C30.0606 14.0945 30.0143 14.9766 30.0271 15.2525C30.0398 15.5284 30.0734 15.8724 30.1046 16.3296C30.1497 16.8422 30.2377 17.3502 30.3673 17.8466C30.5536 18.4147 30.8868 18.9169 31.3277 19.2978C31.6274 19.4883 31.9525 19.6303 32.2927 19.7181C32.2927 19.7354 32.5658 19.7389 32.5658 19.7088C32.906 19.6211 33.2311 19.4791 33.5308 19.2886C33.9717 18.9076 34.3049 18.4054 34.4912 17.8374C34.622 17.341 34.7099 16.833 34.755 16.3204C34.7863 15.8644 34.8198 15.5215 34.8326 15.2432C34.8453 14.965 34.8036 14.0876 34.7724 13.777H34.7759Z" fill="white" stroke="#8E8E8E" stroke-width="0.3" stroke-miterlimit="10"/>
<path d="M35.1727 13.4099C35.1265 13.2517 35.1126 13.0843 35.1334 12.9204L34.762 12.0152L34.0145 11.4472C33.9855 11.4184 33.9555 11.3918 33.9231 11.3676L33.8212 11.2937L33.7483 11.2752L33.7634 11.2579L33.8559 11.087C33.849 10.9831 33.8328 10.8804 33.805 10.7811L33.7946 10.6056C33.7969 10.556 33.7715 10.5098 33.7298 10.4878C33.7021 10.429 33.6569 10.3805 33.6002 10.3516C33.363 10.1669 33.0807 10.0561 32.7868 10.0341C32.3945 10.0237 32.0034 10.0734 31.625 10.1807C31.5325 10.2535 31.1367 10.646 31.1367 10.7672C31.1691 10.9485 31.2189 11.1263 31.2837 11.2971L31.3161 11.4103L31.2987 11.4207C31.2212 11.4692 30.9273 11.6481 30.8035 11.7301C30.6426 11.8883 30.498 12.0637 30.3696 12.2519L30.1069 12.6271C30.1069 12.6271 29.7355 13.4457 29.7355 13.4919C29.7355 13.538 29.7042 14.1603 29.7042 14.2423C29.7158 14.4847 29.7528 14.7249 29.813 14.9604C29.8361 15.1058 29.8361 15.2548 29.813 15.4002C29.813 15.4002 29.9056 15.7593 29.9218 15.8251C29.938 15.8909 30.1393 16.7545 30.1393 16.7545L30.1081 16.168L30.1393 15.3852L30.1543 15.0758C30.2319 14.9581 30.3001 14.8322 30.3557 14.7006C30.3707 14.6186 30.3406 14.2284 30.3406 14.1291C30.3823 13.934 30.4795 13.7585 30.6195 13.6246C30.7584 13.5103 31.0384 13.2148 31.1309 13.1686C31.4526 13.0012 31.7905 12.8696 32.1376 12.7772C32.4582 12.7426 32.781 12.7541 33.098 12.8095C33.1756 12.858 33.3919 12.9238 33.5632 13.0058C33.8027 13.1478 34.0006 13.3568 34.136 13.6085C34.2933 13.8359 34.4333 14.076 34.5537 14.3266C34.6509 14.5725 34.718 14.8299 34.755 15.0931C34.755 15.1913 34.7863 15.8597 34.7863 15.8597L34.6937 16.8711L34.7249 17.0985C34.7249 17.0985 34.7897 16.6586 34.8488 16.4301C34.8869 16.2095 34.8974 15.9844 34.88 15.7616L34.9888 15.5653C34.9888 15.5653 35.1438 14.9292 35.1901 14.5702C35.248 14.1857 35.2433 13.7943 35.1751 13.4122L35.1727 13.4099Z" fill="#4F4F4F"/>
<path d="M29.5596 21.2894C29.5596 21.2894 28.8561 21.4036 28.6941 21.4602L28.531 21.5168C28.531 21.5168 27.9351 21.4025 27.7731 21.3459C27.0881 21.0815 26.3637 20.9465 25.6347 20.9465C24.7148 21.0042 23.2534 21.3736 22.6852 21.3736C22.1171 21.3736 20.1685 20.9465 19.4384 20.9176C18.7499 20.8322 18.0707 20.6798 17.4088 20.4627C17.0397 20.3484 16.6555 20.2999 16.2725 20.3207C15.7044 20.3207 13.3496 20.719 12.5651 20.719C11.7806 20.719 10.2648 20.9188 9.83202 20.8899C9.51613 20.8783 9.19908 20.8876 8.88434 20.9176C8.80334 20.9176 8.18082 20.9465 8.18082 20.9465C8.18082 20.9465 6.36646 20.4904 6.26001 20.5193C6.1038 20.577 5.9499 20.644 5.79948 20.719C5.79948 20.719 5.74625 21.1185 5.74625 21.2039C5.66872 21.5687 5.63285 21.9416 5.63748 22.3145C5.72079 22.5062 5.78443 22.7071 5.82725 22.9126L6.0714 23.1689L6.01817 23.5095L6.42432 23.7092C6.7055 23.551 6.99478 23.4079 7.28984 23.282C7.6173 23.207 7.92394 23.0511 8.18313 22.826C8.48051 22.542 8.67028 22.37 8.67028 22.37L9.40041 22.1425C9.40041 22.1425 10.9972 22.4554 11.7818 22.5986C12.5663 22.7406 15.083 22.9114 15.7345 22.9114C16.3859 22.9114 17.3035 22.9114 17.7363 22.9403C18.169 22.9691 19.9822 23.5095 20.9299 23.7669C21.8776 24.0232 24.5019 24.2795 24.7993 24.3938C25.4866 24.6732 26.1253 25.0669 26.6935 25.5622C27.3565 26.5169 27.8159 28.0259 27.979 27.9981C28.1422 27.9693 28.6421 25.0496 28.6964 24.9641C28.7508 24.8787 29.2854 23.0534 29.3664 22.9414C29.4648 22.3954 29.5296 21.8447 29.5608 21.2894H29.5596Z" fill="white" stroke="#8E8E8E" stroke-width="0.3" stroke-miterlimit="10"/>
<path d="M37.3933 22.0906C37.9927 22.5928 38.8999 23.4286 38.9219 24.1571C39.431 26.5192 39.7365 27.3632 39.851 27.9981C39.9517 28.5558 40.1311 30.2471 40.1808 30.9744C40.2861 31.6579 40.3625 32.473 40.6009 33.1264C40.7258 33.4913 40.8496 34.5084 40.8404 34.8917C40.8577 35.4585 40.9179 36.8947 40.941 37.6775C40.9642 38.4602 40.8103 39.9772 40.8508 40.4079C40.8716 40.723 40.8716 41.0382 40.8508 41.3534C40.8531 41.4342 40.8438 42.0553 40.8438 42.0553C40.8438 42.0553 40.8959 43.6947 40.8716 43.8021C40.8184 43.9602 40.7559 44.115 40.6853 44.2673C40.6853 44.2673 40.2873 44.3332 40.2028 44.3355C39.8395 44.4232 39.9251 44.6276 39.5502 44.6333C39.3558 44.556 39.1533 44.4982 38.945 44.4625L38.6812 44.2269L38.341 44.2916L38.1293 43.8921C38.2797 43.607 38.4139 43.3149 38.5319 43.0159C38.5967 42.6868 38.7448 42.3763 38.9624 42.1119C39.2389 41.8071 39.4044 41.612 39.4044 41.612L39.6115 40.8766C39.6115 40.8766 39.2493 39.2938 39.0839 38.5156C38.9184 37.7375 38.6719 35.2322 38.6534 34.5834C38.6338 33.9334 38.6071 33.0179 38.5655 32.5873C38.5238 32.1567 37.9279 30.3649 37.6433 29.4274C37.3586 28.49 36.7997 25.9166 36.6782 25.6233C36.3577 24.9572 36.4942 25.0546 36.0001 24.49C35.2248 24.0467 35.6286 24.1571 35.6287 23.0084C35.6241 22.8445 35.5165 21.7708 35.5986 21.7142C35.682 21.6576 35.7479 21.4025 37.3968 22.0929L37.3933 22.0906Z" fill="white" stroke="#8E8E8E" stroke-width="0.3" stroke-miterlimit="10"/>
<path d="M34.3454 50.99C34.3454 50.99 34.2355 49.2848 34.1024 47.9502C33.9693 46.6156 33.1027 44.5386 32.8874 43.742C32.84 43.4361 32.7185 43.1486 32.5345 42.9062C32.3505 43.1486 32.229 43.4361 32.1816 43.742C31.9675 44.5398 31.0997 46.6156 30.9655 47.9502C30.8312 49.2848 30.7236 50.99 30.7236 50.99H26.9688C26.9688 50.99 26.8635 48.5471 26.9688 47.493C27.0741 46.4401 26.9445 45.7878 26.9688 43.7409C27.0128 42.3809 27.1308 41.0244 27.3217 39.6771C27.4467 38.6553 27.655 37.6474 27.9419 36.6627C28.1039 36.1766 28.3469 34.7312 28.3469 34.7312L28.9151 33.908H36.1586L36.7256 34.7312C36.7256 34.7312 36.9686 36.1766 37.1306 36.6627C37.4187 37.6474 37.6258 38.6553 37.7508 39.6771C37.9417 41.0232 38.0597 42.3797 38.1037 43.7409C38.128 45.7878 37.9984 46.4401 38.1037 47.493C38.1592 48.6579 38.1592 49.8251 38.1037 50.99H34.3477H34.3454Z" fill="url(#paint0_linear_242_4665)"/>
<path d="M37.1549 28.7001C37.2915 28.0432 37.2972 27.3632 37.17 26.7028C36.9929 25.927 36.7279 25.1765 36.3797 24.4688C36.0094 23.8073 35.7872 23.065 35.7317 22.2995C35.7166 22.0663 35.734 21.8308 35.7837 21.6034L35.2827 21.436C35.3753 21.8631 35.4169 22.303 35.4065 22.7417C35.4216 23.6872 35.5454 24.2749 34.9576 25.09C34.6451 25.5229 33.8097 25.658 33.0958 25.688C33.0958 25.688 32.8597 25.6845 32.5161 25.6926C32.1724 25.6845 31.9363 25.6926 31.9363 25.6926C31.2236 25.6926 30.3881 25.5229 30.0745 25.09C29.4867 24.2714 29.6094 23.6872 29.6256 22.7417C29.6406 21.7962 29.6129 21.1635 29.6129 21.1635L29.1662 21.2778C29.2541 21.6114 29.2993 21.9555 29.2993 22.3007C29.2437 23.0661 29.0216 23.8085 28.6513 24.47C28.303 25.1788 28.038 25.9293 27.861 26.7039C27.7152 27.2927 27.7001 27.9092 27.817 28.5061C28.038 29.1411 28.325 29.7484 28.6744 30.3164C28.8619 30.8821 28.8943 31.4928 28.767 32.077C28.6756 32.6231 28.6189 32.1289 28.3875 33.3735C28.2324 33.9773 28.2324 34.6123 28.3875 35.2161C28.3875 35.2161 29.8674 35.5047 31.153 35.6017C31.9433 35.6986 32.7417 35.6986 33.532 35.6017C34.7099 35.5047 36.8807 35.2161 36.8807 35.2161C36.8413 34.5973 36.7638 33.9819 36.6469 33.3735C36.441 32.2444 36.3588 32.6231 36.2674 32.077C36.1401 31.4928 36.1725 30.8821 36.36 30.3164C36.6898 29.8165 36.9559 29.2739 37.1538 28.7012L37.1549 28.7001Z" fill="url(#paint1_linear_242_4665)"/>
<path d="M2.74231 18.2923C5.13291 10.422 11.2818 4.18197 19.1062 1.65131" stroke="#8E8E8E" stroke-width="0.5" stroke-miterlimit="10"/>
<path d="M8.67714 43.0216C4.33218 38.4995 1.66272 32.3622 1.66272 25.6037C1.66272 25.0923 1.7576 24.1675 1.89414 23.14C1.95431 22.6886 2.02142 22.2176 2.09317 21.7523" stroke="#8E8E8E" stroke-width="0.5" stroke-miterlimit="10"/>
<path d="M26.8925 50.7764C20.9056 50.7764 15.4058 48.696 11.0793 45.2198" stroke="#8E8E8E" stroke-width="0.5" stroke-miterlimit="10"/>
<path d="M18.9165 3.62898L17.521 0.263611L20.6915 1.16874L18.9165 3.62898Z" fill="#8E8E8E"/>
<path d="M3.62755 22.3838L0 21.9786L2.32464 19.6453L3.62755 22.3838Z" fill="#8E8E8E"/>
<path d="M12.8591 44.7314L10.2984 47.3268L9.89685 44.0607L12.8591 44.7314Z" fill="#8E8E8E"/>
</g>
</g>
<defs>
<linearGradient id="paint0_linear_242_4665" x1="26.9225" y1="42.449" x2="38.1442" y2="42.449" gradientUnits="userSpaceOnUse">
<stop stop-color="#2B2E32"/>
<stop offset="0.06" stop-color="#34383C"/>
<stop offset="0.25" stop-color="#4D5156"/>
<stop offset="0.45" stop-color="#5F6369"/>
<stop offset="0.65" stop-color="#696E74"/>
<stop offset="0.87" stop-color="#6D7278"/>
<stop offset="1" stop-color="#6D7278"/>
</linearGradient>
<linearGradient id="paint1_linear_242_4665" x1="32.5022" y1="37.1395" x2="32.5022" y2="22.1898" gradientUnits="userSpaceOnUse">
<stop offset="0.29" stop-color="#BCC2CA"/>
<stop offset="0.41" stop-color="#AEB3BB"/>
<stop offset="0.65" stop-color="#898E95"/>
<stop offset="0.81" stop-color="#6D7278"/>
<stop offset="1" stop-color="#6D7278"/>
</linearGradient>
<clipPath id="clip0_242_4665">
<rect width="41" height="52" fill="white"/>
</clipPath>
<clipPath id="clip1_242_4665">
<rect width="41" height="51" fill="white" transform="translate(0 -0.0100098)"/>
</clipPath>
</defs>
</svg>
