<svg width="43" height="53" viewBox="0 0 43 53" fill="none" xmlns="http://www.w3.org/2000/svg">
<g clip-path="url(#clip0_242_4719)">
<path d="M12.9382 1.64432C26.3064 1.64432 37.1441 12.2485 37.1441 25.3287C37.1441 38.4089 26.3064 49.013 12.9382 49.013" stroke="#B0B0B0" stroke-width="0.7" stroke-miterlimit="10"/>
<path d="M14.5472 0L14.3445 3.55011L11.9049 1.64094L14.5472 0Z" fill="#939393"/>
<path d="M11.2208 1.23295C11.0757 1.13828 10.9075 1.23295 10.7382 1.20928C10.5689 1.18562 10.4491 1.13828 10.2314 1.20928C10.0148 1.28029 9.79713 1.56317 9.53221 1.75251C9.26729 1.94185 8.9298 2.17739 8.80885 2.38927C8.68791 2.60115 8.36885 3.02604 8.29629 3.52193C8.22372 4.01782 8.26058 5.39729 8.20529 5.64524C8.15116 5.89318 8.16959 6.15803 8.1143 6.282C8.06016 6.40598 7.84246 7.04274 7.82519 7.20278C7.80676 7.36169 6.97513 9.85691 6.66759 10.9727C6.36005 12.0873 5.96267 13.7508 6.03408 14.4236C6.10665 15.0964 5.99837 15.7152 5.94309 16.441C5.88895 17.1668 5.45471 18.2814 5.58141 19.0421C5.70811 19.8029 5.68968 20.0159 6.01565 19.9449C6.34162 19.8739 8.34927 19.2551 8.42069 19.2191C8.4921 19.183 8.9632 18.2814 8.9632 18.2814L9.03577 15.9541C9.03577 15.9541 9.59671 12.4772 9.59671 12.2823C9.59671 12.0873 9.65085 9.38018 9.57828 8.88429C9.50572 8.3884 9.61399 7.07881 9.77755 6.83199C9.93996 6.58404 9.97682 6.14225 10.1577 6.03519C10.3385 5.92925 10.3742 5.64636 10.4295 5.36235C10.4836 5.07947 10.3754 4.05276 10.3938 3.89385C10.4122 3.73494 10.737 3.22102 10.9179 2.72625C11.0987 2.23036 11.4062 1.75251 11.442 1.6646C11.4777 1.57669 11.2185 1.23408 11.2185 1.23408L11.2208 1.23295Z" fill="white" stroke="#8E8E8E" stroke-width="0.3" stroke-miterlimit="10"/>
<path d="M13.0348 13.9886C13.0348 13.9886 13.2974 14.6084 13.3689 14.7144C13.4414 14.8203 13.4598 14.9263 13.4679 15.1652C13.4771 15.4041 13.4587 15.7851 13.5036 15.9C13.5485 16.015 13.5578 16.095 13.6119 16.166C13.666 16.237 14.2178 16.8478 14.2362 17.0158C14.2546 17.1837 14.2178 17.2817 14.1095 17.3516C14.0012 17.4226 13.8019 17.4485 13.7478 17.5015C13.6937 17.5545 13.7202 17.7314 13.7478 17.8024C13.7754 17.8734 13.901 17.9523 13.8561 18.0504C13.8112 18.1473 13.7651 18.1653 13.7478 18.2093C13.7294 18.2532 13.7386 18.3062 13.7835 18.3772C13.8284 18.4482 13.8653 18.4572 13.8376 18.5891C13.81 18.7221 13.6476 18.7311 13.6292 18.766C13.6107 18.801 13.6015 18.9779 13.6476 19.1019C13.6925 19.2258 13.7559 19.3938 13.6833 19.5797C13.6107 19.7657 13.3573 19.8536 13.2583 19.8806C13.1592 19.9077 12.3541 20.0136 12.209 20.1545C12.0638 20.2965 12.0097 20.4025 11.9832 20.4813C11.9555 20.5614 11.7482 21.561 11.7114 21.694C11.6757 21.827 11.0778 23.0307 11.0237 23.0036C10.9696 22.9766 7.65459 21.0708 7.58778 21.0392C7.30789 20.9062 7.94946 20.0835 8.1303 19.3047C8.25815 18.7559 8.1303 18.1721 7.99438 17.8622C7.85847 17.5522 7.1259 16.3317 7.01762 16.0657C6.90935 15.7997 6.42097 14.3932 7.13511 13.3496C7.84925 12.3059 8.90779 12.058 9.4768 12.04C10.047 12.0219 11.322 12.3319 11.8553 12.6677C12.3886 13.0036 12.5603 13.1546 12.6777 13.3045C12.7952 13.4544 13.0302 13.9863 13.0302 13.9863L13.0348 13.9886Z" fill="white" stroke="#8E8E8E" stroke-width="0.3" stroke-miterlimit="10"/>
<path d="M9.7522 15.0424C9.77869 15.0457 10.4214 15.2723 10.5389 15.3782C10.6564 15.4841 10.8557 15.6081 10.919 15.8031C10.9824 15.9981 11.0814 16.184 11.0814 16.184C11.0814 16.184 11.2173 15.4492 11.3072 15.2463C11.3982 15.0424 11.3521 14.9544 11.488 14.8744C11.6239 14.7944 11.7599 14.8215 11.9315 14.6175C12.1031 14.4135 12.2574 14.2106 12.1572 13.9717C12.057 13.7328 12.0582 13.6888 11.9764 13.5209C11.8946 13.3529 11.814 13.185 11.8773 13.1399C11.9407 13.096 12.004 13.105 12.0674 13.1219C12.1307 13.1388 12.4567 13.2188 12.6099 13.3789C12.7631 13.5378 12.7815 13.5738 12.8817 13.7598C12.9808 13.9458 13.1075 14.0607 13.1709 14.2027C13.2342 14.3447 13.225 14.4326 13.2526 14.4597C13.2803 14.4867 13.3701 14.5036 13.3701 14.3628C13.3701 14.2219 13.415 14.1419 13.3425 13.9379C13.2699 13.7339 13.2066 13.611 13.2515 13.646C13.2964 13.6809 13.4865 13.912 13.5049 13.912C13.5233 13.912 13.5049 13.8939 13.3874 13.6201C13.2699 13.3462 13.3782 13.4611 13.2158 13.2391C13.0534 13.0182 13.1616 13.0712 12.9624 12.9202C12.7631 12.7703 12.7631 12.7522 12.5915 12.7083C12.4199 12.6643 12.3196 12.6193 12.2932 12.6024C12.2655 12.5843 12.6364 12.5223 12.6191 12.5223C12.6018 12.5223 12.1941 12.4694 12.0582 12.3803C11.9223 12.2913 11.8866 12.2564 11.7956 12.2214C11.7046 12.1865 11.4696 12.0095 11.4062 12.0174C11.3429 12.0253 11.5779 11.8844 11.5779 11.8844C11.5779 11.8844 11.3245 11.8935 11.1436 11.8935C10.9628 11.8935 10.8545 11.8495 10.7912 11.8844C10.7278 11.9194 10.7002 11.8754 10.4652 11.7875C10.2302 11.6985 10.1853 11.6635 9.96759 11.6455C9.7499 11.6275 9.27073 11.7605 9.20853 11.7875C9.14633 11.8146 9.23618 11.5835 9.1901 11.6016C9.14403 11.6196 8.84686 11.7345 8.74665 11.7965C8.64759 11.8585 8.56581 11.9205 8.50246 11.9915C8.43911 12.0625 8.41146 12.1155 8.25827 12.0974C8.10507 12.0794 8.04172 12.0794 7.91502 12.0884C7.78832 12.0974 7.63512 12.2214 7.55334 12.2744C7.47156 12.3274 7.37251 12.4164 7.31837 12.4603C7.26423 12.5043 7.45429 12.4874 7.45429 12.4874C7.45429 12.4874 7.44507 12.5764 7.3368 12.7173C7.22853 12.8582 6.63994 13.4961 6.57774 13.708C6.51439 13.9198 6.46025 14.5217 6.48674 14.8756C6.51439 15.2294 6.65837 15.9113 6.86685 16.2201C7.07533 16.53 7.31031 16.8478 7.45429 17.1048C7.59942 17.3618 7.54528 17.3618 7.78026 17.6976C8.01523 18.0335 7.93345 17.9715 8.03366 18.1225C8.13272 18.2724 8.0613 18.2115 8.18685 18.1755C8.3124 18.1394 8.44947 18.1755 8.54853 18.1665C8.64759 18.1574 8.69366 18.1315 8.78351 18.1225C8.87335 18.1135 8.99199 18.0075 8.99199 18.0075C8.99199 18.0075 9.19126 17.3877 9.09105 16.9098C8.99199 16.432 8.99199 16.1581 9.03691 15.9541C9.08183 15.7501 9.05534 15.3264 9.1544 15.2283C9.25345 15.1314 9.44351 15.0074 9.75105 15.0424H9.7522Z" fill="#4F4F4F"/>
<path d="M9.30869 16.4928C9.35361 16.5728 9.5978 16.8647 9.76136 16.9707C9.92377 17.0766 10.1864 17.1205 10.2497 17.1296C10.3131 17.1386 10.3857 17.1115 10.4214 17.2006C10.4571 17.2896 10.7923 17.8554 10.9282 18.1653C11.0641 18.4752 11.8865 19.0861 11.9683 19.1559C12.0501 19.2269 12.8368 19.5188 13.0982 19.5808C13.3609 19.6428 13.6143 19.6868 13.6143 19.6868C13.6143 19.6868 13.4518 19.8367 13.3609 19.8817C13.2699 19.9257 12.6559 19.9877 12.4832 20.0407C12.3115 20.0936 12.1215 20.2266 12.1215 20.2266C12.1215 20.2266 11.5605 19.7837 11.3163 19.5628C11.0722 19.3419 10.6114 18.5271 10.4755 18.1732C10.3396 17.8193 10.3039 17.3764 10.2405 17.3065C10.1772 17.2366 9.87885 17.2355 9.64388 17.0676C9.4089 16.8996 9.30984 16.7486 9.22806 16.5717C9.14628 16.3947 9.09215 16.1558 9.10136 16.1829C9.11058 16.2099 9.30984 16.4928 9.30984 16.4928H9.30869Z" fill="#C1C1C1"/>
<path d="M14.7409 38.6309C14.8134 38.7492 15.0058 40.5186 15.03 41.2264C15.0542 41.9342 15.2465 42.5473 15.1509 42.9485C15.0542 43.3497 15.0058 43.0195 14.9585 43.9155C14.9102 44.8126 15.0069 46.0861 14.2836 48.7053C13.5602 51.3245 13.4393 53.5898 13.1985 54.7923C12.9578 55.996 12.3059 57.3169 12.0651 57.7654C11.8244 58.214 12.0168 57.9536 11.6793 58.5205C11.3418 59.0863 11.5583 58.7087 11.1967 59.4638C10.835 60.2189 10.4975 63.7341 10.4491 64.4419C10.4007 65.1497 10.3282 66.8954 10.2568 67.6505C10.1842 68.4056 10.16 69.1844 10.16 69.3027C10.16 69.4211 8.88146 69.4447 8.59235 69.5856C8.30324 69.7276 6.75978 69.6566 6.49486 69.5619C6.22993 69.4673 6.13318 69.3737 6.13318 69.3737C6.13318 69.3737 6.3025 67.1321 6.25412 66.0468C6.20574 64.9615 6.0848 61.4688 6.22993 60.2189C6.37506 58.968 6.6158 57.859 6.80815 57.4814C7.00051 57.1039 7.50732 56.9157 7.53151 56.3488C7.5557 55.783 7.62826 55.8292 7.60407 55.57C7.57989 55.3108 7.75727 54.9096 7.82062 54.7912C8.01298 54.4373 7.91737 54.2255 7.91737 54.2255V53.423C8.08669 52.9981 8.1823 52.9981 8.13392 52.8336C8.08554 52.6679 7.9646 52.385 7.9646 52.385L7.89203 51.8891C7.89203 51.8891 7.94041 47.9727 7.60292 46.6034C7.26543 45.2352 7.09611 44.9985 6.85538 44.1972C6.61465 43.3948 6.66302 41.9082 6.66302 41.507C6.66302 41.1058 6.7114 40.4927 6.80815 40.3034C6.90491 40.1152 11.4143 36.8107 11.4143 36.8107L13.0546 36.9764C13.0546 36.9764 13.9714 37.8735 14.0187 37.9671C14.067 38.0617 14.742 38.6275 14.742 38.6275L14.7409 38.6309Z" fill="url(#paint0_linear_242_4719)"/>
<path d="M9.91798 20.0384C10.0389 20.0147 11.4373 20.7935 11.6296 20.9119C11.822 21.0302 12.1122 21.0775 12.0397 21.1711C11.9671 21.2657 12.1122 21.9498 12.1122 21.9498C12.1122 21.9498 13.5405 23.4837 13.8849 23.9255C14.2282 24.3684 14.826 24.8632 14.9158 25.4301C15.0068 25.9958 15.2959 27.1815 15.0966 27.8194C14.8974 28.4561 14.735 29.023 14.7534 29.4648C14.7718 29.9077 14.8985 30.6324 14.9527 31.1103C15.0068 31.5881 15.0794 32.4548 15.0437 33.0747C15.0079 33.6945 14.9354 34.2073 14.8985 34.95C14.8628 35.6927 14.7534 35.9936 14.8444 36.5786C14.9354 37.1624 14.9354 37.6583 14.917 37.9062C14.8985 38.1541 14.917 38.366 14.8444 38.6489C14.7718 38.9318 14.0853 39.7466 13.7951 39.9405C13.506 40.1354 9.70719 40.5772 9.45494 40.7012C9.20154 40.8252 7.77326 41.1261 7.44729 41.1441C7.12132 41.1622 6.57881 41.0551 6.57881 41.0551C6.57881 41.0551 6.6698 39.9044 6.6698 39.6925C6.6698 39.4806 7.01305 37.4802 7.10404 36.9144C7.19504 36.3487 7.26645 35.5169 7.32059 35.2329C7.37473 34.95 7.50143 34.5961 7.41158 34.1352C7.32059 33.6754 7.04991 32.8436 7.06834 32.6486C7.08677 32.4537 6.97734 31.658 6.97734 31.658L6.85064 30.7733L6.77807 30.0306C6.77807 30.0306 6.70551 29.1639 6.68708 29.0039C6.66865 28.8438 6.66865 28.7379 6.65137 28.579C6.6341 28.4201 6.6698 27.9061 6.6698 27.9061L6.70551 27.4632L6.57881 26.9673C6.57881 26.9673 6.48781 26.5424 6.39797 26.2415C6.30813 25.9406 5.63891 24.5251 5.54791 24.2771C5.45692 24.0292 5.18624 23.5344 5.1321 23.2155C5.07796 22.8965 5.05953 22.9326 5.04111 22.5257C5.02268 22.1189 5.04111 21.96 5.04111 21.96C5.07681 21.3232 4.93283 21.4472 5.04111 21.1282C5.14938 20.8093 5.25765 19.8536 5.31294 19.6597C5.36708 19.4648 5.3855 19.2168 5.47535 19.094C5.56634 18.97 5.60205 18.6341 5.71032 18.4572C5.8186 18.2803 6.39797 17.9613 6.92205 17.9264C7.44614 17.8914 7.71797 18.2093 7.8631 18.2983C8.00824 18.3873 8.20635 18.5282 8.20635 18.5282C8.20635 18.5282 8.26049 19.059 8.09808 19.4839C7.93567 19.9088 7.64541 20.3157 7.7007 20.5106C7.75483 20.7056 7.88153 20.7935 7.9541 20.8115C8.02667 20.8296 8.69588 20.2458 8.98499 20.1748C9.2741 20.1038 9.91913 20.0395 9.91913 20.0395L9.91798 20.0384Z" fill="url(#paint1_linear_242_4719)"/>
<path d="M8.71214 28.739C8.67644 28.8281 8.65801 29.7297 8.94712 31.0043C9.23623 32.279 9.38136 33.2697 9.41707 33.6055C9.45277 33.9414 9.54377 34.1713 9.4712 34.4023C9.39864 34.6333 9.68775 35.9599 9.85131 36.6496C10.0149 37.3393 10.9548 41.0743 11.1356 41.622C11.3164 42.1709 11.8048 43.6213 11.8048 43.6213C11.7507 43.8693 11.7864 44.1522 11.6781 44.2232C11.5698 44.2942 11.2024 44.807 11.1471 45.0493C11.093 45.2916 10.972 45.9757 10.9605 46.1109C10.949 46.2462 10.8338 46.4648 10.7912 46.5595C10.7486 46.6542 10.327 47.3619 10.3213 47.4498C10.3155 47.5389 10.3328 47.8387 10.3696 47.8927C10.4053 47.9457 10.4295 48.0517 10.5263 48.0111C10.623 47.9694 10.8453 47.7226 10.9064 47.6223C10.9663 47.522 11.2439 47.0204 11.3038 46.8796C11.3637 46.7376 11.412 46.6023 11.4489 46.573C11.4858 46.5437 11.5457 46.6913 11.5457 46.7206C11.5457 46.7499 11.2324 47.5524 11.1483 47.735C11.0642 47.9175 10.7866 48.6783 10.7567 48.8327C10.7267 48.986 10.7025 49.0682 10.7382 49.1516C10.7739 49.2339 10.9248 49.2869 11.0101 49.27C11.0941 49.2519 11.2093 49.3173 11.2393 49.164C11.2692 49.0108 11.4385 48.5442 11.5825 48.2973C11.7277 48.0494 11.9741 47.3123 12.0709 47.1884C12.1677 47.0644 12.2091 47.0937 12.2091 47.0937C12.2091 47.0937 12.064 47.5591 12.0525 47.6538C12.041 47.7485 11.7806 48.2613 11.6966 48.5205C11.6125 48.7797 11.5341 48.986 11.4731 49.128C11.4132 49.27 11.328 49.5765 11.3349 49.6588C11.3406 49.7411 11.4132 49.8774 11.4915 49.8707C11.5698 49.8639 11.7507 49.8763 11.829 49.7467C11.9073 49.6171 12.0697 49.3635 12.0697 49.3635C12.0697 49.3635 12.0813 49.4165 12.1964 49.4221C12.3116 49.4277 12.3715 49.4401 12.4314 49.3804C12.4913 49.3218 13.0166 48.649 13.1191 48.3717C13.2216 48.0945 13.2515 48.0055 13.2515 48.0055C13.2515 48.0055 13.6374 47.1624 13.6973 47.0847C13.7572 47.0069 13.8482 46.937 13.8597 46.9314C13.8712 46.9258 13.8655 47.2436 13.8896 47.3912C13.9138 47.5389 14.1062 47.7158 14.1546 47.7271C14.2029 47.7383 14.3423 47.7631 14.3538 47.7271C14.3965 47.5975 14.4137 47.1613 14.4264 47.0723C14.4379 46.9832 14.4564 46.706 14.5047 46.4941C14.5531 46.2822 14.5473 46.1053 14.5473 46.1053C14.5473 46.1053 14.6257 45.934 14.6499 45.8224C14.674 45.7108 14.6798 45.5801 14.674 45.4685C14.6683 45.357 14.3066 44.5421 14.15 44.3595C13.9933 44.177 13.9507 44.0293 13.9507 44.0293C13.9507 44.0293 13.9622 43.2629 13.8539 42.944C13.7457 42.6251 13.619 42.1709 13.5349 41.8587C13.4508 41.5465 13.24 39.3871 13.2573 38.7909C13.2757 38.1947 13.1974 36.5617 13.058 35.9418C12.9198 35.322 12.5823 34.2896 12.5639 34.1251C12.5455 33.9605 12.5339 33.3936 12.5282 33.3114C12.5224 33.2291 12.6906 31.9071 12.6975 30.8511C12.7033 29.795 12.7332 29.1932 12.6917 29.0343C12.6503 28.8754 12.6802 27.86 12.0283 27.5365C11.3775 27.2119 11.0941 27.106 10.744 27.2243C10.3938 27.3427 9.90545 27.4903 9.73152 27.6492C9.55644 27.8081 9.30304 27.9377 9.18324 28.1147C9.0623 28.2916 8.91141 28.4742 8.88146 28.5272C8.85152 28.5801 8.71214 28.739 8.71214 28.739Z" fill="white" stroke="#8E8E8E" stroke-width="0.3" stroke-miterlimit="10"/>
<path d="M11.1539 29.2699C11.1297 29.271 9.54826 29.1639 9.21883 29.1639C8.88941 29.1639 8.58532 29.058 8.58532 29.058C8.58532 29.058 8.69359 28.0144 8.58532 27.5365C8.47705 27.0586 8.0071 26.4219 7.9161 26.068C7.82511 25.7141 8.07851 23.9447 8.78459 23.0239C9.48951 22.1031 10.2854 21.9623 10.7197 21.9262C11.1539 21.8913 12.3288 22.4041 12.9807 23.1828C13.6315 23.9616 13.8492 24.7043 13.9034 25.0762C13.9575 25.4481 13.7041 26.1908 13.4507 26.4918C13.1973 26.7927 12.998 27.1815 12.9439 27.3765C12.8897 27.5714 12.7446 28.3851 12.763 28.5801C12.7815 28.7751 12.854 29.2349 12.763 29.2349C12.672 29.2349 11.1539 29.2699 11.1539 29.2699Z" fill="url(#paint2_linear_242_4719)"/>
</g>
<defs>
<linearGradient id="paint0_linear_242_4719" x1="11.7726" y1="35.074" x2="7.19905" y2="74.7378" gradientUnits="userSpaceOnUse">
<stop stop-color="#2B2E32"/>
<stop offset="0.06" stop-color="#34383C"/>
<stop offset="0.25" stop-color="#4D5156"/>
<stop offset="0.45" stop-color="#5F6369"/>
<stop offset="0.65" stop-color="#696E74"/>
<stop offset="0.87" stop-color="#6D7278"/>
<stop offset="1" stop-color="#6D7278"/>
</linearGradient>
<linearGradient id="paint1_linear_242_4719" x1="15.1646" y1="29.5347" x2="4.99964" y2="29.5347" gradientUnits="userSpaceOnUse">
<stop offset="0.29" stop-color="#BCC2CA"/>
<stop offset="0.41" stop-color="#AEB3BB"/>
<stop offset="0.65" stop-color="#898E95"/>
<stop offset="0.81" stop-color="#6D7278"/>
<stop offset="1" stop-color="#6D7278"/>
</linearGradient>
<linearGradient id="paint2_linear_242_4719" x1="17.9486" y1="30.646" x2="8.64716" y2="24.3886" gradientUnits="userSpaceOnUse">
<stop offset="0.29" stop-color="#BCC2CA"/>
<stop offset="0.41" stop-color="#AEB3BB"/>
<stop offset="0.65" stop-color="#898E95"/>
<stop offset="0.81" stop-color="#6D7278"/>
<stop offset="1" stop-color="#6D7278"/>
</linearGradient>
<clipPath id="clip0_242_4719">
<rect width="43" height="53" fill="white"/>
</clipPath>
</defs>
</svg>
