<svg width="28" height="44" viewBox="0 0 28 44" fill="none" xmlns="http://www.w3.org/2000/svg">
<g clip-path="url(#clip0_242_4907)">
<path d="M6.94578 17.7651C6.9845 17.7901 7.29032 18.0695 7.78679 18.1331C8.28423 18.1967 8.81942 18.2477 9.09911 18.1581C9.37977 18.0695 9.2646 18.1832 9.63429 18.031C10.004 17.8787 10.2585 17.7641 10.6282 17.9674C10.9979 18.1707 11.5331 18.6399 11.6734 19.0079C11.8137 19.3759 11.9279 20.429 11.9279 20.429L11.5457 21.8876L10.8189 22.8771L9.67204 23.3723C9.67204 23.3723 9.0091 23.5245 8.85619 23.3598C8.70328 23.195 8.18068 22.9156 8.18068 22.9156L8.49908 22.6362C8.49908 22.6362 8.62683 22.2557 8.38391 22.0273C8.14197 21.799 8.25617 21.6978 7.81002 21.6342C7.36387 21.5707 6.21704 21.4435 6.21704 21.4435C6.21704 21.4435 6.66319 18.6399 6.67577 18.4742C6.68835 18.3084 6.94385 17.7641 6.94385 17.7641L6.94578 17.7651Z" fill="white" stroke="#8E8E8E" stroke-width="0.3" stroke-miterlimit="10"/>
<path d="M2.94397 16.4076C2.94397 16.4076 2.99526 15.6715 3.14817 15.2399C3.30108 14.8083 3.45399 14.5674 3.63207 14.288C3.81014 14.0086 3.90014 13.9451 3.93789 13.7678C3.97563 13.5905 4.00176 13.3622 4.05305 13.2475C4.10435 13.1329 4.25726 12.4103 4.51178 11.2176C4.76631 10.0248 5.02181 9.16254 5.36537 8.36288C5.7099 7.56323 5.95185 7.01792 6.04089 6.78958C6.12992 6.56125 6.30896 6.33291 6.41058 6.26933C6.5122 6.20574 6.69124 6.15468 6.83157 6.1171C6.9719 6.07857 7.25256 6.1171 7.30288 6.1171C7.35321 6.1171 7.58354 6.15564 7.64741 6.19322C7.71129 6.23175 8.22131 6.63736 8.85811 7.3609C9.49492 8.08445 10.5275 9.28971 11.2031 10.3428C11.8786 11.3958 13.0254 13.2099 13.3186 13.7302C13.6119 14.2505 13.6883 14.3015 13.8287 14.7958C13.969 15.291 14.3764 15.8613 14.2235 16.4066C14.0706 16.9519 13.548 17.2689 13.548 17.2689L12.6044 17.1417C12.6044 17.1417 10.7947 15.3276 10.5401 14.9596C10.2856 14.5915 9.90332 13.8054 9.90332 13.8054C9.90332 13.8054 9.63525 12.9171 9.58492 12.7013C9.53363 12.4854 8.80779 11.7243 8.47584 11.2802C8.14485 10.836 7.73645 10.1 7.64741 9.94774C7.55838 9.79552 7.50708 9.77047 7.50708 9.77047C7.50708 9.77047 7.22642 10.2146 7.12481 10.4179C7.02319 10.6212 6.44929 11.3187 6.10476 12.3718C5.76023 13.4248 5.56957 14.1349 5.55699 14.4142C5.54441 14.6936 5.56957 15.0867 5.62087 15.1243C5.67216 15.1628 5.74862 15.6956 5.79894 15.8729C5.85023 16.0502 6.12992 16.4693 6.32154 16.6726C6.51317 16.8758 6.51317 16.8884 6.61478 17.0531C6.7164 17.2179 6.67866 17.3701 6.72995 17.5223C6.78124 17.6745 6.69124 17.8518 6.69124 17.8518C6.69124 17.8518 5.88798 17.8903 5.69732 17.8393C5.5057 17.7882 4.72857 17.6235 4.72857 17.6235C4.72857 17.6235 3.74723 17.5223 3.6069 17.3315C3.46657 17.1408 2.99526 16.3922 2.99526 16.3922L2.94397 16.4047V16.4076Z" fill="white" stroke="#8E8E8E" stroke-width="0.3" stroke-miterlimit="10"/>
<path d="M6.23259 21.5071C6.23259 21.5071 6.13097 22.1034 6.10484 22.3443C6.07968 22.5852 5.88805 22.6362 5.95193 22.9532C6.0158 23.2702 6.04096 23.7529 6.04096 23.7529C6.04096 23.7529 6.08451 23.1285 6.10484 23.1815L6.3342 23.9812C6.3342 23.9812 6.39808 24.2982 6.43582 24.7173C6.47356 25.1363 6.39711 25.4909 6.41066 26.0622C6.42324 26.6335 6.48711 26.7096 6.41066 27.5469C6.3342 28.3841 6.30904 28.4602 6.27033 28.8918C6.23162 29.3235 6.13 29.3235 6.10484 29.7416C6.07968 30.1607 6.00322 30.6039 6.00322 30.8197C6.00322 31.0355 6.19484 29.9825 6.22 29.8428C6.24517 29.7031 6.53841 28.8408 6.5897 28.625C6.64099 28.4092 6.69132 28.5489 6.66615 28.8283C6.64099 29.1076 6.62744 28.5363 6.50066 29.6655C6.37292 30.7946 6.34775 30.8833 6.36033 31.1752C6.37291 31.4671 6.2713 31.8091 6.2713 31.8091C6.2713 31.8091 6.34775 31.6945 6.42421 31.5557C6.50066 31.4161 6.62841 31.2002 6.64099 31.4161C6.65357 31.6319 6.61583 31.9238 6.61583 31.9238L6.43776 32.5963C6.57809 32.8121 6.76874 33.0154 6.83261 33.104C6.89649 33.1926 7.02424 33.2687 7.02424 33.2687C7.12585 32.8371 7.15198 32.6213 7.15198 32.6213L7.22844 32.3544C7.22844 32.3544 7.26715 31.9353 7.33006 31.9228C7.39296 31.9103 7.47038 32.1261 7.47038 32.1261C7.47038 32.1261 7.6233 32.418 7.78879 32.7735C7.95428 33.129 8.05686 33.4335 8.09461 33.5221C8.09461 33.5221 8.38785 33.0905 8.38785 32.7735C8.38785 32.4566 8.33655 32.2918 8.38785 32.2022C8.43914 32.1136 8.34913 31.8978 8.37527 31.5808C8.40043 31.2638 8.38398 30.7956 8.41398 30.8833C8.54172 31.2638 8.68205 31.7966 8.69463 31.5172C8.70722 31.2378 8.64334 30.8447 8.64334 30.8447L8.7198 30.4391C8.7198 30.4391 8.73238 30.1723 8.74496 29.9699C8.75754 29.7666 8.69367 29.7416 8.70625 29.5383C8.71883 29.335 8.71883 29.1452 8.71883 29.1452L8.62979 28.65C8.62979 28.65 8.20881 25.8715 8.17106 25.6181C8.13235 25.3647 7.86524 22.7249 7.92912 22.3828C7.99299 22.0408 8.06944 21.2286 8.06944 21.2286C8.06944 21.2286 7.10069 21.3047 6.99907 21.2537C6.89745 21.2026 6.23452 21.5071 6.23452 21.5071H6.23259Z" fill="#4F4F4F"/>
<path d="M8.00361 21.5707C8.00361 21.5707 8.39847 21.7354 8.48751 21.8751C8.57654 22.0148 8.653 22.484 8.653 22.5601C8.653 22.6362 8.52525 22.7759 8.52525 22.7759C8.52525 22.7759 8.2833 22.5987 8.23201 22.5852C8.18072 22.5717 8.04716 22.3742 8.00265 22.3058C7.81102 22.0138 8.00265 21.5697 8.00265 21.5697L8.00361 21.5707Z" fill="white" stroke="#8E8E8E" stroke-width="0.3" stroke-miterlimit="10"/>
<path d="M22.0868 24.857C22.1381 24.9331 22.4178 25.4784 22.5969 25.7963C22.7759 26.1143 22.954 26.913 23.043 27.0141C23.132 27.1153 22.4062 27.3822 22.4062 27.3822L20.7368 27.6616L19.9083 27.649C19.9083 27.649 19.6403 26.5199 19.9209 26.0757C20.2016 25.6316 20.6477 25.2896 20.6477 25.2896L21.2981 24.9851L22.0878 24.858L22.0868 24.857Z" fill="white" stroke="#8E8E8E" stroke-width="0.3" stroke-miterlimit="10"/>
<path d="M11.1896 27.9149C11.1896 27.9149 11.4828 28.3716 11.5467 28.6635C11.6106 28.9554 12.1206 30.9729 12.1971 31.4035C12.2735 31.8352 12.6306 33.1801 12.8474 33.8526C13.0642 34.5251 13.3448 35.2226 13.4078 35.7053C13.4716 36.187 13.5229 37.9 13.4203 38.7247C13.3187 39.5494 13.0506 41.1603 13.0632 41.6305C13.0758 42.0996 13.0245 42.6835 13.0884 42.8993C13.1523 43.1151 13.2539 43.4196 13.2539 43.4196C13.2539 43.4196 13.5849 44.2693 13.5723 44.9803C13.5597 45.6914 13.4958 45.7289 13.4958 45.8301C13.4958 45.9312 13.6613 46.5151 13.6739 46.7694C13.6865 47.0238 13.7126 47.2772 13.6226 47.4419C13.5336 47.6067 13.4445 47.6067 13.3294 47.5306C13.2142 47.4544 13.1377 47.2136 13.1126 47.0103C13.0874 46.807 12.9723 46.5787 12.9723 46.5787C12.9723 46.5787 12.8319 47.2126 12.7942 47.5045C12.7564 47.7965 12.5774 48.494 12.4632 48.7349C12.348 48.9757 12.17 49.0518 12.17 49.0518L11.8641 49.0644L11.9793 48.6588C11.9793 48.6588 12.018 47.9988 12.0809 47.6182C12.1448 47.2377 12.2464 46.6538 12.2977 46.413C12.349 46.1721 12.3229 45.2328 12.259 44.9283C12.1951 44.6239 12.1574 44.4967 12.0296 43.9389C11.9019 43.381 11.838 43.3174 11.838 42.8473C11.838 42.3771 11.8506 42.0862 11.6725 41.299C11.4944 40.5129 11.1886 38.7363 10.9331 37.6197C10.6786 36.503 10.6786 35.8431 10.6525 35.1706C10.6273 34.4981 10.5886 34.1301 10.3592 33.2293C10.1299 32.3284 9.83662 31.1608 9.5308 30.5268C9.22498 29.8929 8.804 29.0932 8.77883 29.0296C8.75367 28.966 9.27627 27.7993 9.40305 27.6847C9.5308 27.57 10.0786 27.3552 10.0786 27.3552C10.0786 27.3552 10.7792 27.3937 10.8818 27.4563C10.9834 27.5199 11.1877 27.913 11.1877 27.913L11.1896 27.9149Z" fill="white" stroke="#8E8E8E" stroke-width="0.3" stroke-miterlimit="10"/>
<path d="M11.7508 57.0956C11.7896 57.0705 12.1583 57.0956 12.707 57.032C13.2548 56.9684 13.5732 56.9559 13.6119 56.9308C13.6506 56.9058 13.7009 56.9058 13.7009 56.9058C13.7009 56.9058 13.8538 55.9539 14.211 54.5714C14.5681 53.1888 14.9629 52.7697 15.32 51.3361C15.6772 49.9025 15.6897 49.0653 15.9191 48.3042C16.1485 47.5431 16.4543 47.2637 16.7475 45.9823C17.0408 44.7009 17.1811 43.5332 17.5508 41.9985C17.9205 40.4637 17.9331 40.4252 17.9331 40.4252C17.9331 40.4252 18.3541 39.3721 18.6976 38.1544C19.0421 36.9366 19.0799 36.4288 19.3344 36.0097C19.5889 35.5906 19.7931 35.3883 20.0351 35.3758C20.277 35.3633 20.3796 35.503 20.4425 35.5791C20.5064 35.6552 20.5316 35.4779 20.6206 35.9086C20.7096 36.3402 20.9903 38.0272 21.0919 38.4077C21.1935 38.7883 21.5632 40.5524 21.8187 41.7316C22.0733 42.9118 22.2523 44.0024 22.3162 44.4851C22.38 44.9668 22.3162 45.2588 22.6733 46.1981C23.0304 47.1375 23.1707 47.4419 23.2211 47.9487C23.2723 48.4564 23.374 49.179 23.4504 50.207C23.5269 51.235 23.8714 52.237 24.1133 53.3025C24.3553 54.3681 24.483 55.7381 24.5208 56.0936C24.5595 56.4491 24.5721 56.4616 24.6485 56.5503C24.725 56.6389 25.1324 56.715 25.6047 56.7911C26.076 56.8673 26.2676 56.8297 26.3315 56.8037C26.3954 56.7777 26.5231 56.6765 26.5231 56.6765C26.5231 56.6765 26.3954 56.3846 26.5744 54.5068C26.7525 52.6291 26.9954 50.5355 26.8164 49.521C26.6383 48.5056 26.1534 47.3514 26.077 46.6028C26.0005 45.8542 25.8854 44.6865 25.9115 44.2173C25.9367 43.7481 25.8476 43.1517 25.9115 42.8347C25.9754 42.5178 26.2812 39.3712 26.2047 37.4048C26.1283 35.4384 25.8225 33.3323 25.6821 32.6088C25.5418 31.8853 25.0579 29.7917 24.8411 29.2724C24.6243 28.7521 23.6556 27.255 23.3498 26.8869C23.0439 26.5189 22.7507 25.9611 22.7507 25.9611C22.7507 25.9611 22.3558 26.4177 21.871 26.6586C21.3871 26.8995 20.189 27.4708 20.0099 27.5344C19.8319 27.5979 14.9503 29.361 14.9503 29.361C14.9503 29.361 14.6058 29.7927 14.6058 29.8302C14.6058 29.8678 14.5168 30.1472 14.5168 30.2493C14.5168 30.3515 14.5042 30.8072 14.5042 31.1501C14.5042 31.4931 14.3764 32.5462 14.3 33.0529C14.2235 33.5607 13.6496 35.2351 13.5732 35.7169C13.4967 36.1986 13.4967 36.3643 13.4329 37.531C13.369 38.6987 13.369 40.4242 13.4203 41.1343C13.4716 41.8443 13.5606 42.7837 13.5858 43.1768C13.6109 43.5699 13.5093 43.9764 13.458 44.2423C13.4067 44.5092 13.2538 46.095 13.1899 46.2974C13.1261 46.5006 13.037 46.4621 12.8454 46.8812C12.6538 47.3003 12.2464 48.7589 12.1573 49.3168C12.0683 49.8746 11.9531 51.2832 11.9657 52.1589C11.9783 53.0347 11.8892 54.6581 11.8892 55.4067C11.8892 56.1553 11.7363 56.9039 11.7363 56.9549C11.7363 57.006 11.7489 57.0946 11.7489 57.0946L11.7508 57.0956Z" fill="url(#paint0_linear_242_4907)"/>
<path d="M3.19853 21.6593C3.19853 21.6593 3.12208 21.7354 3.12208 21.799C3.12208 21.8626 3.19853 22.0148 3.26241 22.0273C3.32628 22.0399 3.65726 22.0909 3.73372 22.0659C3.81018 22.0408 3.86147 22.0909 4.01438 22.0909C4.16729 22.0909 4.80409 22.2682 4.91926 22.2181C5.03443 22.167 5.12346 22.0659 5.12346 22.0659L5.16217 21.9387C5.16217 21.9387 5.88898 21.8876 6.00318 21.8501C6.11835 21.8115 6.93322 21.6092 7.02323 21.5456C7.11226 21.482 7.60971 21.1265 7.60971 21.1265C7.60971 21.1265 7.86423 20.8346 7.91553 20.4926C7.96682 20.1496 7.80036 19.1476 7.80036 19.1476C7.80036 19.0715 7.53228 18.2719 7.4055 18.1322C7.27775 17.9925 6.98452 17.7005 6.81902 17.5483C6.65353 17.3961 6.42417 17.3575 6.42417 17.3575C6.42417 17.3575 6.37287 16.9134 6.29642 16.7997C6.21996 16.686 5.91414 16.3941 5.51929 16.2033C5.12443 16.0126 4.75474 15.8738 4.62699 15.9239C4.49924 15.975 4.39762 15.975 4.4102 16.0511C4.42278 16.1272 3.42887 16.0261 3.18692 16.0897C2.94497 16.1532 1.69556 16.4066 1.42845 16.6099C1.16134 16.8132 0.752938 17.2699 0.600027 17.8152C0.447117 18.3605 0.281626 18.9694 0.3455 19.4771C0.409373 19.9848 1.04618 20.8221 1.27554 20.9994C1.50491 21.1766 2.25688 21.4946 2.48624 21.5572C2.71561 21.6208 3.06014 21.6333 3.07272 21.6718C3.0853 21.7104 3.20047 21.6593 3.20047 21.6593H3.19853Z" fill="white" stroke="#8E8E8E" stroke-width="0.3" stroke-miterlimit="10"/>
<path d="M1.18555 18.6274C1.18555 18.5763 1.47879 18.1958 1.6317 18.0561C1.78461 17.9164 2.21818 17.5869 2.30721 17.5358C2.39625 17.4847 1.98881 17.637 1.98881 17.637L2.23076 17.4086C2.23076 17.4086 2.58787 17.2313 2.7911 17.1292C2.99531 17.0281 3.23725 16.9134 3.45404 16.8498C3.67082 16.7862 4.10439 16.7737 4.21859 16.7612C4.33279 16.7487 4.75378 16.8498 4.86894 16.8758C4.98411 16.9009 5.69737 16.9905 5.79899 17.0531C5.9006 17.1167 5.36542 16.8758 5.16218 16.8123C4.95798 16.7487 4.8312 16.7236 4.76732 16.609C4.70345 16.4943 4.52538 16.3806 4.5128 16.292C4.50022 16.2034 4.39763 15.975 4.39763 15.975C4.39763 15.975 4.1431 15.8989 3.91374 15.8989C3.68437 15.8989 2.71562 15.8739 2.71562 15.8739C2.49883 15.8103 1.61912 16.0261 1.4033 16.2034C1.18748 16.3806 0.957149 16.5964 0.779076 16.7747C0.601004 16.952 0.256472 17.4597 0.231309 17.6504C0.206147 17.8412 0.206147 18.1707 0.206147 18.1707C0.244858 18.399 0.25744 18.3865 0.206147 18.4752C0.154854 18.5638 0.00194394 18.742 0.00194394 18.8181C0.00194394 18.8942 -0.0367675 19.5667 0.231309 20.0484C0.499386 20.5302 0.868113 20.9493 1.09748 21.1525C1.32684 21.3558 2.19398 21.6853 2.34689 21.7239C2.4998 21.7624 3.03499 21.825 3.0737 21.825C3.11241 21.825 3.18886 21.7865 3.31564 21.8C3.44339 21.8125 3.66018 21.7749 3.7105 21.7875C3.76179 21.8 3.93987 21.9021 4.13149 21.9021H4.98508C4.98508 21.9021 4.16923 21.7875 4.13149 21.7875C4.09375 21.7875 3.63405 21.6603 3.55759 21.6478C3.48114 21.6352 3.27693 21.5842 3.1879 21.5591C3.09886 21.5341 2.38463 21.1911 2.2956 21.166C2.20656 21.141 1.73525 20.5947 1.73525 20.5947C1.73525 20.5947 1.35297 20.2267 1.31426 19.8972C1.27555 19.5677 1.31426 19.3769 1.26297 19.2372C1.21168 19.0975 1.1478 18.7931 1.1478 18.7931L1.10909 18.6919L1.18555 18.6283V18.6274Z" fill="#4F4F4F"/>
<path d="M7.81289 21.6342C7.81289 21.6342 7.87677 21.7104 7.86419 21.799C7.85161 21.8876 7.80031 22.116 7.77515 22.3828C7.74999 22.6497 7.6987 22.9407 7.74999 23.1064C7.80128 23.2711 7.9029 23.906 7.92806 24.198C7.95322 24.4899 7.8129 25.0988 7.85161 25.3271C7.89032 25.5554 7.9029 25.7838 7.9029 25.9745C7.9029 26.1653 7.82644 26.8368 8.13226 27.675C8.43809 28.5122 8.56583 29.045 8.60358 29.2098C8.64229 29.3745 8.7952 29.4381 8.84552 29.4766C8.89585 29.5152 10.2604 29.1337 10.6553 28.9814C11.0501 28.8292 11.5002 28.4901 11.5476 28.4361C11.624 28.3475 11.4711 28.0681 11.4324 27.8398C11.3937 27.6114 11.3811 27.4592 11.3434 27.358C11.3047 27.2569 11.2669 27.1933 11.2795 27.1172C11.2921 27.0411 11.1779 26.4832 11.1779 26.4832C11.1779 26.4832 11.4837 26.8513 11.6492 26.9524C11.8147 27.0536 12.3499 27.4216 12.9238 27.4852C13.4977 27.5488 13.5354 27.5864 13.727 27.5488C13.9187 27.5112 13.9922 27.5382 14.0203 27.5739C14.0203 27.5739 14.1858 27.7897 14.3513 27.7771C14.5168 27.7646 14.4664 27.8022 14.5042 27.8658C14.5429 27.9294 14.4916 27.9669 14.5042 28.0816C14.5168 28.1962 14.5293 28.2723 14.6058 28.3099C14.6058 28.3099 14.6997 28.5334 14.6948 28.6018C14.6822 28.7926 14.72 28.8812 14.72 28.8812L14.6435 29.1346C14.6435 29.1346 14.478 29.731 14.478 29.8582C14.478 29.9853 14.5545 30.099 14.5545 30.099C14.5545 30.099 15.6762 30.3524 16.8869 29.8322C18.0976 29.3119 19.9073 28.2714 20.2257 27.9419C20.5441 27.6124 21.4616 26.2925 21.781 25.8609C22.0994 25.4292 22.409 25.1556 22.4565 25.1123C22.6094 24.9726 22.5581 24.9475 22.5581 24.9475C22.5581 24.9475 21.3348 23.0823 20.697 22.2576C20.0602 21.4329 18.9511 20.0629 18.4411 19.5041C17.9311 18.9462 17.1666 18.3499 16.4785 17.8036C15.7904 17.2583 15.1023 16.4712 14.7326 15.9509C14.3629 15.4307 13.9429 14.6821 13.879 14.4788C13.8151 14.2755 13.5093 14.0857 13.4967 14.0472C13.4841 14.0086 13.6883 14.3391 13.5732 14.4788C13.458 14.6185 11.8021 14.1869 11.3172 14.0857C10.8334 13.9845 10.1578 13.8188 10.0678 13.7812C9.9788 13.7427 9.82589 13.6541 9.83847 13.6926C9.85105 13.7311 9.92751 14.0857 9.94009 14.2639C9.95267 14.4412 10.182 15.0886 10.3862 15.368C10.5904 15.6474 10.7685 16.002 10.7811 16.1166C10.7937 16.2313 10.7046 16.4336 10.7046 16.4972C10.7046 16.6879 10.7685 16.738 10.7434 16.7891C10.6921 16.8903 10.6282 16.9365 10.5904 16.9413C10.4888 16.9538 10.4704 16.924 10.4124 17.0049C10.2469 17.2332 10.3359 17.1446 10.2469 17.2332C10.1578 17.3219 10.425 17.0935 10.2469 17.2332C10.0688 17.3729 9.95364 17.4741 9.95364 17.4741C9.95364 17.4741 9.81331 17.5252 9.74944 17.5126C9.68556 17.5001 9.55781 17.5512 9.55781 17.5512C9.55781 17.5512 9.37103 17.819 9.31587 17.8682C9.18812 17.9828 9.02263 18.0965 9.02263 18.0965C8.98392 18.1977 9.55781 18.3759 9.55781 18.3759C9.55781 18.3759 10.3475 19.2006 10.5014 19.5937C10.6543 19.9868 10.5904 20.7989 10.3359 21.3828C10.0814 21.9666 9.49491 22.3221 9.32942 22.4483C9.16392 22.5755 8.9723 22.563 8.75552 22.588C8.53873 22.6131 8.43712 22.5119 8.23291 22.3722C8.02871 22.2325 7.90193 22.0928 7.91451 22.0427C7.92709 21.9917 7.91451 21.6998 7.91451 21.6998L7.81289 21.6362V21.6342Z" fill="url(#paint1_linear_242_4907)"/>
</g>
<defs>
<linearGradient id="paint0_linear_242_4907" x1="19.3983" y1="50.5692" x2="19.8913" y2="32.9459" gradientUnits="userSpaceOnUse">
<stop stop-color="#2B2E32"/>
<stop offset="0.06" stop-color="#34383C"/>
<stop offset="0.25" stop-color="#4D5156"/>
<stop offset="0.45" stop-color="#5F6369"/>
<stop offset="0.65" stop-color="#696E74"/>
<stop offset="0.87" stop-color="#6D7278"/>
<stop offset="1" stop-color="#6D7278"/>
</linearGradient>
<linearGradient id="paint1_linear_242_4907" x1="17.3059" y1="13.6348" x2="11.2409" y2="41.584" gradientUnits="userSpaceOnUse">
<stop offset="0.29" stop-color="#BCC2CA"/>
<stop offset="0.4" stop-color="#AEB3BB"/>
<stop offset="0.62" stop-color="#898E95"/>
<stop offset="0.76" stop-color="#6D7278"/>
<stop offset="1" stop-color="#6D7278"/>
</linearGradient>
<clipPath id="clip0_242_4907">
<rect width="28" height="39" fill="white" transform="translate(0 5)"/>
</clipPath>
</defs>
</svg>
