<svg width="32" height="46" viewBox="0 0 32 46" fill="none" xmlns="http://www.w3.org/2000/svg">
<g clip-path="url(#clip0_242_4872)">
<path d="M20.6947 53.8745C20.6947 53.8745 20.0529 54.0047 19.936 53.9653C19.8181 53.926 19.7662 54.0299 19.7662 54.0299C19.7662 54.0299 19.8842 52.7052 19.9107 51.1737C19.9371 49.6423 19.7144 48.1097 20.1467 46.6166C20.5789 45.1234 20.9847 44.2931 21.1412 43.9289C21.2978 43.5657 21.2195 43.5657 21.2592 43.4486C21.2989 43.3316 21.665 42.1119 21.8348 41.2674C22.0046 40.424 22.5416 37.9825 22.7114 37.2692C22.8812 36.5549 23.0389 35.8154 23.0389 35.6853C23.0389 35.5551 23.1569 33.8289 23.1569 33.8289C23.1569 33.8289 25.3027 28.8178 25.4603 28.8047C25.6169 28.7916 27.0041 31.7254 27.2268 32.2187C27.4495 32.7121 27.3183 35.6853 27.3183 35.6853C27.3183 35.6853 23.1437 46.3693 23.0124 46.6428C22.8812 46.9152 21.1677 53.1208 21.1412 53.1602C21.1148 53.1996 20.6958 53.8745 20.6958 53.8745H20.6947Z" fill="url(#paint0_linear_242_4872)"/>
<path d="M22.514 55.6149C22.4743 55.6281 22.5272 55.7057 21.9649 55.6926C21.4025 55.6795 20.9052 55.5887 20.7476 55.5241C20.5899 55.4596 20.215 55.3524 20.172 55.3032C20.0672 55.1861 20.4465 53.0837 20.4465 52.0576C20.4465 51.0315 20.3683 49.2014 20.6825 47.6951C20.9968 46.1889 21.5591 45.2547 21.6639 44.9943C21.7686 44.7351 22.0961 43.4235 22.1744 43.2025C22.2527 42.9816 22.4622 41.9697 22.4887 41.891C22.5151 41.8133 23.3917 36.2049 23.3917 35.7892C23.3917 35.3735 23.5097 34.4776 23.5097 34.4776C23.5097 34.4776 22.9077 33.9329 22.7511 33.725C22.5945 33.5172 22.3321 32.2713 22.3718 31.7002C22.4115 31.1292 22.7643 29.9478 22.9606 29.519C23.1569 29.0902 23.5494 28.5323 23.5891 28.4022C23.6288 28.272 23.7203 28.0521 23.7457 27.9865C23.771 27.9208 25.7746 25.2211 25.7746 25.2211L28.7716 25.1949C28.7716 25.1949 29.4784 25.325 29.517 25.3502C29.5567 25.3764 29.7 25.9989 29.7397 26.1553C29.7794 26.3106 29.8842 27.0774 29.9227 27.3881C29.9624 27.6999 29.7915 29.4917 29.7132 30.0496C29.635 30.6074 29.6085 31.4771 29.517 31.8282C29.4255 32.1783 29.2942 32.6716 29.2689 32.9057C29.2424 33.1398 28.9943 34.9436 28.6404 36.4237C28.2875 37.9037 27.305 40.2271 26.9787 41.123C26.6512 42.0189 26.6258 42.3438 26.4549 42.8372C26.2851 43.3305 26.2322 43.9409 26.0094 44.3435C25.7867 44.746 25.6037 45.2525 25.4338 45.4855C25.264 45.7196 24.9884 46.1604 24.8847 46.3037C24.78 46.447 24.5054 47.4206 24.4657 47.5628C24.426 47.705 24.2176 48.8087 23.8504 50.315C23.4844 51.8213 22.8294 53.7159 22.6596 54.3657C22.4898 55.0144 22.5151 55.6117 22.5151 55.6117L22.514 55.6149Z" fill="url(#paint1_linear_242_4872)"/>
<path d="M29.2799 25.0964L29.5677 25.3556C29.5677 25.3556 29.7298 26.1476 29.6857 26.1542C29.4111 26.1935 27.971 26.4462 27.971 26.4462L26.0734 26.875L27.133 25.2003L27.971 24.8371L29.2799 25.0964Z" fill="white" stroke="#8E8E8E" stroke-width="0.3" stroke-miterlimit="10"/>
<path d="M5.21444 4.90858C5.14607 4.87904 4.95972 4.8506 4.90018 4.8506C4.84064 4.8506 4.76235 4.88998 4.7822 4.96765C4.80204 5.04531 4.90018 5.08469 4.95862 5.18205C5.01706 5.27941 5.07661 5.41614 5.07661 5.5135C5.07661 5.61086 5.08653 5.70821 5.14497 5.74759C5.20341 5.78697 5.36109 5.8548 5.46915 5.89418C5.57721 5.93356 5.63565 5.99153 5.80325 6.00138C5.96975 6.01122 6.48028 6.1764 6.64678 6.21578C6.81328 6.25516 7.05918 6.38096 7.18708 6.41049C7.31499 6.44003 7.56971 6.45972 7.71746 6.47831C7.86522 6.498 8.03172 6.57567 8.03172 6.57567C8.03172 6.57567 8.99323 7.2867 9.20935 7.45188C9.42547 7.61706 10.1709 8.12353 10.7597 8.76674C11.3485 9.40885 12.1435 10.2172 12.6044 10.5968C13.0653 10.9764 13.5461 11.3658 13.5858 11.4151C13.6255 11.4643 14.5572 11.2783 14.5572 11.2783L13.1337 8.25042L11.4257 6.91697L9.66916 5.82635L8.40331 5.35926L6.28291 5.87558C6.28291 5.87558 6.14508 5.79791 6.03702 5.729C5.92896 5.66118 5.75253 5.45662 5.71284 5.41724C5.67314 5.37786 5.46694 5.11532 5.39858 5.05735C5.33022 4.99937 5.21223 4.91077 5.21223 4.91077L5.21444 4.90858Z" fill="white" stroke="#8E8E8E" stroke-width="0.3" stroke-miterlimit="10"/>
<path d="M16.4715 9.39683C16.4715 9.39683 16.8541 9.50403 17.1683 9.6692C17.4826 9.83438 17.659 10.0389 17.7671 10.1658C17.8751 10.2927 17.9733 10.3999 18.0714 10.4382C18.1695 10.4776 18.2092 10.5651 18.464 10.5651C18.7187 10.5651 19.4056 10.6428 19.5049 10.7303C19.603 10.8178 19.6328 10.9348 19.6129 11.0027C19.5931 11.0705 19.4563 11.3144 19.4949 11.3724C19.5335 11.4304 19.5732 11.4599 19.6427 11.4894C19.7122 11.519 19.829 11.5387 19.8588 11.5966C19.8886 11.6546 19.9669 11.6743 19.957 11.752C19.947 11.8296 19.9371 11.8789 19.9371 11.8789C19.9371 11.8789 20.0849 11.8296 20.1532 11.9084C20.2216 11.9872 20.2315 12.055 20.2315 12.0933C20.2315 12.1316 20.1819 12.1709 20.1819 12.2103C20.1819 12.2497 20.1918 12.2683 20.2602 12.3175C20.3285 12.3667 20.4664 12.4444 20.5546 12.5516C20.6428 12.6588 20.6924 12.7365 20.7023 12.9017C20.7123 13.0668 20.6527 13.1543 20.5259 13.3688C20.398 13.5832 20.1819 13.8851 20.1135 14.0896C20.0452 14.2942 20.0352 14.4309 20.0154 14.781C19.9955 15.131 20.0937 15.375 20.0838 15.5018C20.0738 15.6287 20.3583 16.1538 20.162 16.0958C19.9658 16.0379 18.3658 17.0792 18.336 17.0694C18.3063 17.0595 17.2367 16.3584 16.7758 16.1254C16.3149 15.8913 14.469 15.5412 14.0181 15.3367C13.5671 15.1321 12.8989 14.3139 12.5945 13.01C12.2902 11.7049 13.0753 10.9359 13.3697 10.6636C13.6641 10.3912 15.0182 9.72937 15.2343 9.66045C15.4504 9.59263 15.8727 9.31916 16.4715 9.39792V9.39683Z" fill="white" stroke="#8E8E8E" stroke-width="0.3" stroke-miterlimit="10"/>
<path d="M12.6243 11.1985C12.5846 11.1985 12.2516 12.2114 12.2516 12.6785C12.2516 13.1456 12.4479 13.9343 12.6441 14.2657C12.8404 14.5972 13.1348 15.3564 13.3895 15.4833C13.6442 15.6101 13.8604 15.6484 14.1746 15.7272C14.4889 15.8059 14.6951 15.9613 14.92 16.0389C15.1461 16.1166 15.3809 16.156 15.4504 16.1265C15.5187 16.0969 15.607 16.1363 15.5684 16.2337C15.5287 16.331 15.618 16.506 15.618 16.506C15.618 16.506 15.5981 16.8276 15.6279 16.8758C15.6577 16.9239 15.597 17.0552 15.6478 17.0705C15.6478 17.0705 15.7657 17.2554 15.7657 17.3046C15.7657 17.3538 15.618 17.8986 15.618 17.8986C15.618 17.8986 15.4118 18.7551 15.2453 19.418C15.0788 20.0798 15.3236 21.5795 15.2651 21.9591C15.2067 22.3387 15.3335 22.6209 15.3434 22.5826C15.3534 22.5432 15.5397 21.7545 15.5397 21.7545C15.5397 21.7545 15.6676 22.2807 15.618 22.5432C15.5684 22.8058 15.6081 24.0627 15.5882 24.4324C15.5684 24.8021 15.6566 25.3283 15.6764 25.5908C15.6963 25.8534 15.6665 26.3215 15.6864 26.711C15.7062 27.1004 15.7944 27.4318 15.7746 27.6845C15.7547 27.9372 16.069 26.8663 16.0789 26.7985C16.0888 26.7307 16.0987 25.6401 16.0987 25.6401C16.0987 25.6401 16.1087 27.247 16.0789 27.422C16.0491 27.597 16.1373 27.9088 16.1572 28.1133C16.177 28.3179 16.3138 27.958 16.3049 28.2982C16.295 28.6395 16.3149 28.8145 16.295 29.0475C16.2752 29.2805 16.413 29.787 16.5497 30.1283C16.6876 30.4696 16.8838 30.6249 17.0702 30.8678C17.2565 31.1117 17.6491 31.1598 17.7086 31.1697C17.7671 31.1795 17.4826 30.381 17.4241 30.206C17.3657 30.0309 17.6403 30.4401 17.6403 30.4401C17.6403 30.4401 17.9247 30.9268 17.895 30.7715C17.8652 30.6162 17.7671 30.0999 17.7671 30.0999C17.7671 30.0999 18.003 30.0222 17.9733 29.7979C17.9435 29.5737 17.895 29.5059 17.8068 29.321C17.7185 29.1361 17.6105 28.8922 17.6403 28.9513C17.67 29.0103 17.9744 29.2926 17.9744 29.2926L18.0141 29.1274V28.7281C18.0141 28.7281 18.2401 28.5236 18.2203 28.3288C18.2004 28.1341 18.2787 26.7318 18.2787 26.7318C18.2787 26.7318 17.7097 24.4335 17.6017 23.7618C17.4936 23.0902 17.6215 21.0938 17.6513 20.5874C17.6811 20.0809 17.5333 18.1917 17.4451 18.0364C17.3569 17.8811 16.9048 17.1799 16.8463 17.0628C16.8011 16.9731 16.8199 16.7259 16.8441 16.5826C16.8519 16.54 16.8596 16.5071 16.8662 16.4885C16.896 16.4109 17.1507 16.4492 17.219 16.4984C17.2874 16.5476 17.4738 16.7423 17.5818 16.7511C17.6899 16.7609 17.9159 16.8189 17.9159 16.8189C17.9159 16.8189 16.8066 15.2907 16.6887 15.1245C16.5707 14.9593 16.4527 14.8225 16.4527 14.6574C16.4527 14.4922 15.9521 13.7319 15.8738 13.7035C15.7955 13.674 15.5496 13.4891 15.4713 13.3534C15.393 13.2178 15.3335 12.906 15.3434 12.8273C15.3534 12.7496 15.3831 12.6424 15.4217 12.6129C15.4614 12.5833 15.7062 11.9992 15.726 11.9511C15.7459 11.9018 15.844 10.7729 15.844 10.7729C15.844 10.7729 15.962 9.91643 15.9422 9.73156C15.9223 9.54669 15.9223 9.42964 15.9322 9.38151C15.9422 9.33229 16.1969 9.35198 16.2366 9.35198C16.2763 9.35198 15.9819 9.19665 15.9223 9.17696C15.8628 9.15727 14.018 9.87814 13.7137 10.0335C13.4094 10.1888 12.8702 10.7051 12.7908 10.832C12.7125 10.9589 12.6243 11.2018 12.6243 11.2018V11.1985Z" fill="#4F4F4F"/>
<path d="M17.0602 16.797C17.0602 16.8265 17.0404 16.9819 17.0205 17.0497C17.0007 17.1175 16.9907 17.2345 16.8143 17.1963C16.6379 17.1569 16.8441 17.2455 16.4218 17.1383C15.9995 17.0311 15.8528 17.0508 15.8528 17.0508L15.6466 17.0705L15.6168 16.8364C15.6168 16.8364 15.5286 16.6417 15.5187 16.5246C15.5088 16.4076 15.49 16.3769 15.5386 16.3496C15.5386 16.3496 15.7933 16.2227 15.9509 16.2424C16.1075 16.2621 16.3733 16.3977 16.4912 16.4174C16.6092 16.4371 16.6974 16.4666 16.8154 16.4951C16.9334 16.5235 17.0117 16.5826 17.0117 16.5826L17.0613 16.797H17.0602Z" fill="#353D51"/>
<path d="M30 25.4431C29.9735 25.4038 28.9006 23.0158 28.5732 22.4831C28.2457 21.9503 27.723 20.6913 27.6315 20.3795C27.54 20.0677 27.3172 18.4455 27.0691 18.0561C26.821 17.6667 25.2762 17.0825 24.6477 16.8747C24.0192 16.6668 22.1745 15.9788 21.9517 15.9525C21.729 15.9263 21.3497 15.8749 21.2317 15.8092C21.1137 15.7447 20.9571 15.6014 20.9571 15.6014C20.9571 15.6014 21.1931 15.8092 20.7212 16.2249C20.2503 16.6406 17.9072 16.4973 17.8554 16.4973C17.8035 16.4973 17.8686 17.6273 17.8686 17.6918C17.8686 17.7563 18.2347 19.185 18.3394 19.4059C18.4442 19.6269 19.4652 20.2756 19.7398 20.548C20.0144 20.8203 20.7741 21.4701 21.0619 21.8727C21.3497 22.2752 21.7158 22.3923 21.7422 22.4699C21.7687 22.5476 21.7918 22.6417 21.847 22.6778C21.847 22.6778 22.0168 22.7686 22.266 23.0541C22.5141 23.3396 22.8416 23.5474 23.104 23.8461C23.3653 24.1447 23.523 24.3525 23.5098 24.4947C23.4965 24.6369 23.4833 24.8065 23.6664 24.9367C23.8494 25.0668 23.9806 25.2222 24.0324 25.3261C24.0843 25.43 24.189 25.6893 24.1637 25.8588C24.1372 26.0273 24.1901 26.1968 24.1504 26.3915C24.1107 26.5863 23.7182 27.69 23.6531 27.8322C23.5881 27.9755 23.5087 28.261 23.5087 28.261L23.587 28.4043C23.587 28.4043 26.7273 26.7689 27.3691 26.4047C28.0108 26.0415 29.9989 25.4442 29.9989 25.4442L30 25.4431Z" fill="url(#paint2_linear_242_4872)"/>
<path d="M5.12086 2.44072C5.10652 2.4451 4.96428 2.41119 4.88048 2.38712C4.79668 2.36306 4.66436 2.34774 4.62025 2.3729C4.57615 2.39697 4.51219 2.41228 4.53645 2.4801C4.56071 2.54792 4.66877 2.65075 4.71839 2.69888C4.76801 2.74811 5.3469 3.08393 5.44504 3.14628C5.54318 3.20973 5.86736 3.39022 5.86736 3.39022L5.96549 3.46789C5.96549 3.46789 5.45496 3.29287 5.36675 3.24364C5.27854 3.19442 4.86615 2.96142 4.76801 2.91219C4.66987 2.86297 4.12957 2.62012 4.00277 2.57637C3.87596 2.53261 3.8065 2.47463 3.71277 2.47901C3.61905 2.48339 3.53635 2.52823 3.50657 2.57637C3.4768 2.62559 3.48673 2.68357 3.48232 2.69779C3.47791 2.71201 3.18791 2.62012 3.12947 2.63434C3.07103 2.64856 3.017 2.69779 3.00156 2.74154C2.98722 2.7853 3.07544 2.9461 3.11403 2.9997C3.15262 3.0533 3.33015 3.19004 3.33015 3.19004C3.33015 3.19004 3.15373 3.19004 3.11954 3.21958C3.08536 3.24911 3.12947 3.35631 3.12947 3.37053C3.12947 3.38475 3.4735 3.83763 3.62456 3.94045C3.77672 4.04218 4.10532 4.3441 4.22771 4.40317C4.3501 4.46114 4.61584 4.62742 4.68862 4.67555C4.76139 4.72368 5.48363 5.16671 5.55751 5.24547C5.63139 5.32313 5.90595 5.61083 6.0085 5.70818C6.11104 5.80554 6.14081 5.87883 6.11656 5.92696C6.0923 5.97619 6.06253 6.02869 5.97872 6.02869C5.89492 6.02869 5.78686 5.97947 5.74276 5.99478C5.69865 6.0101 5.64462 6.07245 5.60492 6.14136C5.56523 6.20919 5.56523 6.2781 5.57515 6.36561C5.58508 6.45312 5.60934 6.48703 5.69314 6.53626C5.77694 6.58548 5.78135 6.58548 5.9291 6.62377C6.07686 6.66315 6.1353 6.69159 6.24336 6.70691C6.35142 6.72222 6.54769 6.63909 6.73404 6.61393C6.92039 6.58986 7.39122 6.22888 7.51913 6.22012C7.64704 6.21028 7.85765 6.19606 7.98004 6.26935C8.10244 6.34264 9.5017 7.09743 10.1049 7.68594C10.708 8.27555 11.7434 9.39023 12.0676 9.70199C12.3918 10.0137 13.0633 10.413 13.383 10.6362C13.7017 10.8604 14.8408 11.9992 15.0172 12.2475C15.1936 12.4958 16.2444 13.7953 16.4209 14.1126C16.5973 14.4287 16.863 15.2327 16.9854 15.4756C17.1078 15.7195 17.314 16.2107 17.3339 16.2249C17.3537 16.2391 20.504 16.7696 20.8381 16.5804C21.1722 16.3901 21.0884 15.9186 21.0443 15.8792C21.0002 15.8398 20.3617 15.0172 19.9593 14.4921C19.5568 13.966 17.6238 11.7366 17.3239 11.4446C17.0251 11.1525 16.0041 9.91092 15.8618 9.72168C15.7196 9.53134 15.3314 8.99096 15.2388 8.84C15.1451 8.68904 15.0227 8.4462 14.8705 8.31931C14.7184 8.19241 13.4823 7.41903 13.2606 7.27245C13.0401 7.12587 10.8756 5.89961 10.3066 5.60207C9.73767 5.30454 8.95699 4.84291 8.84452 4.7554C8.73205 4.66789 8.78608 4.64382 8.6284 4.58038C8.47182 4.51693 8.39243 4.53662 8.32958 4.50271C8.26563 4.4688 8.05502 4.05969 7.66689 3.76762C7.27875 3.47555 7.11225 3.39241 6.88621 3.29068C6.66016 3.18895 6.62157 3.18348 6.42971 3.12003C6.23785 3.05659 6.30731 3.11566 6.09561 2.99861C5.8839 2.88156 5.41858 2.58949 5.305 2.53152C5.19253 2.47354 5.11865 2.444 5.11865 2.444L5.12086 2.44072Z" fill="white" stroke="#8E8E8E" stroke-width="0.3" stroke-miterlimit="10"/>
<path d="M20.3021 15.7458C20.2238 15.7458 18.1817 15.6943 17.9204 15.6812C17.6591 15.6681 16.9908 15.5904 16.9908 15.5904C16.9908 15.5904 17.3051 16.1352 17.3183 16.3955C17.3316 16.6548 17.5411 17.2138 17.5664 17.4861C17.5929 17.7585 17.8145 18.6938 17.9854 18.9268C18.1552 19.1609 19.0848 19.5503 19.3461 19.5755C19.6074 19.6017 21.2824 18.5888 21.5316 18.2256C21.7797 17.8624 21.977 16.9272 21.8458 16.564C21.7146 16.2008 20.956 15.6036 20.956 15.6036C20.956 15.6036 20.8645 15.7851 20.8248 15.8114C20.7851 15.8376 20.301 15.7469 20.301 15.7469L20.3021 15.7458Z" fill="url(#paint3_linear_242_4872)"/>
</g>
<defs>
<linearGradient id="paint0_linear_242_4872" x1="18.1134" y1="40.3682" x2="41.0546" y2="45.8044" gradientUnits="userSpaceOnUse">
<stop offset="0.16" stop-color="#2B2E32"/>
<stop offset="0.19" stop-color="#34383C"/>
<stop offset="0.27" stop-color="#4D5156"/>
<stop offset="0.34" stop-color="#5F6369"/>
<stop offset="0.43" stop-color="#696E74"/>
<stop offset="0.52" stop-color="#6D7278"/>
<stop offset="1" stop-color="#6D7278"/>
</linearGradient>
<linearGradient id="paint1_linear_242_4872" x1="15.9201" y1="36.2607" x2="29.5438" y2="42.5751" gradientUnits="userSpaceOnUse">
<stop offset="0.16" stop-color="#2B2E32"/>
<stop offset="0.19" stop-color="#34383C"/>
<stop offset="0.27" stop-color="#4D5156"/>
<stop offset="0.34" stop-color="#5F6369"/>
<stop offset="0.43" stop-color="#696E74"/>
<stop offset="0.52" stop-color="#6D7278"/>
<stop offset="1" stop-color="#6D7278"/>
</linearGradient>
<linearGradient id="paint2_linear_242_4872" x1="26.8431" y1="20.3609" x2="14.772" y2="24.5485" gradientUnits="userSpaceOnUse">
<stop offset="0.29" stop-color="#BCC2CA"/>
<stop offset="0.39" stop-color="#AEB3BB"/>
<stop offset="0.6" stop-color="#898E95"/>
<stop offset="0.73" stop-color="#6D7278"/>
<stop offset="1" stop-color="#6D7278"/>
</linearGradient>
<linearGradient id="paint3_linear_242_4872" x1="18.5467" y1="13.3107" x2="21.6414" y2="23.6846" gradientUnits="userSpaceOnUse">
<stop offset="0.29" stop-color="#BCC2CA"/>
<stop offset="0.39" stop-color="#AEB3BB"/>
<stop offset="0.6" stop-color="#898E95"/>
<stop offset="0.73" stop-color="#6D7278"/>
<stop offset="1" stop-color="#6D7278"/>
</linearGradient>
<clipPath id="clip0_242_4872">
<rect width="32" height="46" fill="white"/>
</clipPath>
</defs>
</svg>
