<svg width="31" height="55" viewBox="0 0 31 55" fill="none" xmlns="http://www.w3.org/2000/svg">
<g clip-path="url(#clip0_242_4923)">
<path d="M19.0237 8.18325C19.0237 8.18325 19.6193 8.69792 19.6963 9.18668C19.7745 9.67545 19.8254 10.0133 19.7869 10.2059C19.7484 10.3985 19.651 10.7273 19.6216 10.8715C19.5922 11.0167 19.5831 11.1519 19.5922 11.2183C19.6024 11.2859 19.9896 12.0675 20.0575 12.1925C20.1255 12.3175 20.164 12.5202 20.1357 12.6362C20.1062 12.7522 19.9998 12.849 19.9024 12.9065C19.805 12.9639 19.6986 12.9741 19.6409 12.9639L19.5831 12.9538C19.5831 12.9538 19.5446 13.1373 19.5639 13.2049C19.5831 13.2725 19.6125 13.3975 19.5933 13.4561C19.574 13.5135 19.5254 13.5619 19.4959 13.5912C19.4665 13.6205 19.428 13.6205 19.428 13.6205C19.428 13.6205 19.4121 13.6914 19.4121 13.7004C19.4121 13.7095 19.4246 13.8581 19.4246 13.8581C19.4246 13.8581 19.4087 13.8998 19.3634 13.9583C19.3181 14.0158 19.2434 14.0327 19.1857 14.0833C19.1279 14.1352 19.1075 14.1858 19.0951 14.2252C19.0826 14.2635 19.0917 14.4381 19.0917 14.544C19.0917 14.6498 19.1075 14.6442 19.0396 14.7883C18.9717 14.9336 18.8358 15.0327 18.7418 15.0654C18.6478 15.098 18.0205 15.0879 17.8779 15.0721C17.7352 15.0564 17.3729 15.0237 17.2766 15.0372C17.1804 15.0507 17.1283 15.1172 17.083 15.1848C17.0377 15.2523 16.9211 15.526 16.9018 15.5992C16.8826 15.6735 16.895 16.0497 16.9018 16.204C16.9086 16.3582 16.8758 16.7637 16.9664 16.9765C17.057 17.1894 17.1928 17.3493 17.3095 17.4394C17.4261 17.5295 17.9175 18.025 17.9628 18.3854C18.0081 18.7458 16.7399 19.2863 15.9382 19.087C15.1366 18.8877 13.5321 16.6938 13.48 16.6038C13.4279 16.5137 13.3894 15.7929 13.4019 15.7479C13.4144 15.7028 13.771 14.7444 13.8095 14.3964C13.848 14.0496 13.3566 12.4402 13.2536 12.2094C13.1505 11.9774 12.7882 10.1507 12.8788 9.64842C12.9694 9.14614 13.4608 7.91184 14.0564 7.46136C14.652 7.01089 15.6993 6.81831 16.2428 6.84421C16.7863 6.87012 18.0409 7.39717 18.2866 7.57736C18.5323 7.75755 19.0237 8.18212 19.0237 8.18212V8.18325Z" fill="white" stroke="#8E8E8E" stroke-width="0.3" stroke-miterlimit="10"/>
<path d="M19.1856 7.88145C19.1856 7.88145 19.4868 8.22831 19.5343 8.3353C19.583 8.44116 19.5921 8.65401 19.5921 8.65401L19.5626 8.77001C19.5626 8.77001 19.4754 8.34544 19.3588 8.30715C19.2422 8.26886 19.0678 8.15286 18.9999 8.22944C18.9319 8.30715 18.8742 8.3353 18.7179 8.58644C18.5628 8.83758 18.4564 9.22386 18.0771 9.53244C17.6989 9.84101 17.6796 9.78358 17.4169 9.93787C17.1554 10.0922 17.0387 10.0539 16.9708 10.305C16.9029 10.5561 16.8836 10.778 16.8836 11.0776C16.8836 11.3771 16.8451 11.5021 16.8451 11.5021C16.8451 11.5021 16.767 10.9131 16.6119 10.662C16.4567 10.4109 16.1952 10.0156 16.0978 9.93787C16.0004 9.86016 15.9325 9.72502 15.6607 9.79259C15.389 9.86016 15.3505 9.84101 15.2531 10.0246C15.1557 10.2082 15.0493 10.4199 15.0787 10.5944C15.1082 10.769 15.1365 10.9616 15.1365 10.9616C15.1365 10.9616 14.9429 11.0776 14.7674 11.5697C14.593 12.0619 14.5148 12.5641 14.311 12.9594C14.1072 13.3547 13.8457 14.0406 13.8264 14.1757C13.8072 14.3109 13.7687 14.4167 13.7687 14.4167C13.7687 14.4167 13.7007 14.2714 13.6328 14.1273C13.5649 13.982 13.4392 13.7027 13.3905 13.6644C13.3418 13.6261 13.2739 13.7219 13.2546 13.8097C13.2354 13.8964 13.2354 14.0316 13.2354 14.1093C13.2354 14.187 13.3418 14.669 13.3814 14.91C13.4199 15.151 13.3429 15.4404 13.3429 15.6724C13.3429 15.9044 13.3135 16.2423 13.2852 16.4157C13.2557 16.5891 13.1878 17.0723 13.1878 17.0723C13.1878 17.0723 12.2084 17.98 11.8585 18.2784C11.5097 18.578 11.1406 17.9406 11.1406 17.8155C11.1406 17.6905 11.17 17.266 11.2187 16.9664C11.2674 16.6668 11.3059 16.4934 11.3161 16.445C11.3263 16.3966 11.1021 16.7051 11.1021 16.7051C11.1021 16.7051 11.0919 16.5508 11.1214 16.338C11.1508 16.1251 11.247 15.9709 11.247 15.9427C11.247 15.9145 11.315 15.7501 11.315 15.7501L11.0919 15.9427L11.1021 15.6724L11.2674 15.2478C11.2674 15.2478 11.6366 14.4753 11.8109 14.1476C11.9853 13.8198 11.9955 13.8097 12.1699 13.6261C12.3442 13.4426 12.4609 13.3367 12.4609 13.3367C12.4031 13.0766 12.4654 13.0056 12.4994 12.9504L12.6545 12.7477C12.6545 12.7477 12.6058 12.6317 12.5967 12.5551C12.5865 12.4774 12.5673 11.831 12.5186 11.4931C12.4699 11.1553 12.334 10.7116 12.3148 10.403C12.2955 10.0944 12.5084 9.24526 12.8481 8.62698C13.1878 8.00983 13.5365 7.49742 13.9736 7.15956C14.4118 6.81945 15.2939 6.44331 16.1284 6.47146C16.9629 6.50074 17.6717 6.78004 17.9627 6.93432C18.2537 7.08861 18.9421 7.49404 19.0203 7.57175C19.0984 7.64945 19.1856 7.88032 19.1856 7.88032V7.88145Z" fill="#4F4F4F"/>
<path d="M15.3131 11.4132C15.4003 11.51 15.6336 11.876 15.7015 11.9244C15.7695 11.9729 15.8759 12.0889 16.0412 12.0787C16.2065 12.0686 16.2745 12.1362 16.2745 12.1362C16.2745 12.1362 16.4205 12.2814 16.4205 12.3096C16.4205 12.3378 16.5179 12.9267 16.6051 13.0619C16.6923 13.197 17.5177 14.152 17.7408 14.2872C17.9639 14.4223 18.6817 14.7219 18.7689 14.7793C18.8561 14.8368 18.924 14.8762 18.924 14.8762V14.973C18.924 14.973 18.8233 15.044 18.7429 15.0665C18.6625 15.089 17.9242 15.089 17.7691 15.0789C17.614 15.0688 17.3977 14.9764 17.2777 15.0372C17.1577 15.098 17.1192 15.1566 17.1192 15.1566C17.1192 15.1566 17.032 14.5 16.8667 14.2016C16.7013 13.902 16.2462 13.1306 16.1975 12.9853C16.1488 12.84 16.159 12.4155 16.1397 12.3287C16.1205 12.242 15.9654 12.1835 15.868 12.1553C15.7706 12.126 15.5577 12.0776 15.4705 11.8467C15.3834 11.6147 15.2667 11.403 15.2667 11.403L15.3154 11.4132H15.3131Z" fill="#C1C1C1"/>
<path d="M12.607 12.706C12.607 12.706 12.821 12.7736 12.9852 12.8412C13.1505 12.9087 13.3633 13.054 13.4222 13.179C13.48 13.304 13.5004 13.4977 13.4902 13.5653C13.48 13.6329 13.5196 13.6036 13.4415 13.7004C13.3633 13.7973 13.403 13.9223 13.2864 13.8457C13.1697 13.7691 13.1697 13.759 12.9954 13.7004C12.821 13.643 12.5685 13.4403 12.5005 13.42C12.4326 13.3998 12.3749 13.42 12.3647 13.3423C12.3545 13.2646 12.316 13.1396 12.3647 13.0236C12.4134 12.9076 12.4134 12.9177 12.462 12.8592C12.5107 12.8017 12.6081 12.7049 12.6081 12.7049L12.607 12.706Z" fill="#4F4F4F"/>
<path d="M10.8406 62.1175C10.9006 62.1051 11.8109 61.6355 11.8109 61.6355C11.8109 61.6355 11.6751 60.4643 11.9468 58.6376C12.2186 56.8109 12.4903 56.0767 12.5288 54.6104C12.5673 53.1429 12.4767 52.6542 12.5413 52.2172C12.6058 51.7802 12.71 51.0978 12.9036 50.493C13.0972 49.8883 13.2275 49.4637 13.3044 48.2924C13.3814 47.1212 13.977 44.4578 14.2363 43.1064C14.4956 41.7549 14.6892 40.3269 14.8183 39.7605C14.9474 39.194 15.038 38.8471 15.1807 38.7953C15.3233 38.7435 15.3618 38.6669 15.4649 38.7829C15.5679 38.8989 15.6336 38.8347 15.7106 38.989C15.7887 39.1433 15.8657 39.658 16.0854 40.9711C16.305 42.2842 16.9776 45.0502 17.0818 45.6031C17.1848 46.1561 17.5211 48.601 17.5607 48.9096C17.5992 49.2182 17.7544 50.0932 17.9876 50.7498C18.2209 51.4064 18.3885 51.7408 18.479 52.2938C18.5696 52.8467 18.6217 54.8288 18.7632 55.562C18.9059 56.2951 19.3973 58.097 19.617 59.4608C19.8367 60.8247 19.8627 61.4677 19.8627 61.4677C19.8627 61.4677 19.9793 61.7898 20.5613 61.9047C21.1433 62.0207 21.6483 61.9306 21.7129 61.8923C21.7774 61.854 21.8159 61.7763 21.8159 61.7763C21.8159 61.7763 21.945 59.8978 22.1398 58.2637C22.3334 56.6296 22.5542 55.3683 22.2949 53.8243C22.0356 52.2803 21.6483 51.0448 21.6223 50.8388C21.5963 50.6327 21.5193 50.0797 21.4536 49.3589C21.389 48.6382 21.363 48.021 21.363 47.8791C21.363 47.7372 21.4796 46.6955 21.5442 45.6403C21.6087 44.585 22.0492 42.5264 21.945 40.6603C21.842 38.7942 21.5306 36.4393 21.4275 36.0407C21.3245 35.642 21.2985 34.0845 21.2985 34.0845C21.2985 34.0845 21.3109 33.6081 21.1818 33.1317C21.0527 32.6553 20.6519 31.9605 20.4187 31.626C20.1854 31.2915 19.7585 30.635 19.6815 30.5967C19.6034 30.5584 10.7806 30.7645 10.7806 30.7645L10.0944 31.073L9.69355 31.9864C9.69355 31.9864 9.56447 32.7713 9.57693 32.8738C9.58938 32.9763 9.40822 34.4054 9.40822 34.8559C9.40822 35.3064 9.05947 36.2073 8.96889 37.1466C8.8783 38.0858 8.78772 39.2052 8.85226 40.5431C8.9168 41.8811 9.05947 44.1717 9.20101 44.9184C9.34368 45.6651 9.44671 46.9512 9.47276 47.2597C9.4988 47.5683 9.40822 48.5976 9.42067 49.0481C9.43313 49.4986 9.39463 50.1935 9.36859 50.3601C9.34254 50.5279 8.9938 51.9559 8.88962 52.9718C8.78659 53.9887 8.82508 55.5068 8.99266 56.678C9.16138 57.8493 9.58825 60.1647 9.67884 60.7312C9.76942 61.2977 9.8215 62.211 9.8215 62.211C9.8215 62.211 10.3005 62.2234 10.8372 62.1141L10.8406 62.1175Z" fill="url(#paint0_linear_242_4923)"/>
<path d="M11.7533 25.0884C11.588 25.3103 10.8316 26.1504 10.7444 26.3531C10.6572 26.5559 10.2983 27.637 10.1624 28.11C10.0265 28.583 9.92915 29.9919 9.93935 30.4457C9.94954 30.8996 9.79328 31.7104 9.79328 31.7104C9.79328 31.7104 9.64835 31.9041 9.63816 31.9514C9.60872 32.0866 9.54078 32.1158 9.49209 32.1733C9.4434 32.2307 9.08446 32.4053 8.98708 32.5111C8.88971 32.617 8.81271 32.8107 8.81271 32.8873C8.81271 32.9639 8.74477 33.1001 8.63834 33.1959C8.5319 33.2927 8.54096 33.3411 8.55115 33.4661C8.56134 33.5912 8.5704 33.572 8.58965 33.6114C8.6089 33.6508 8.54096 33.6599 8.50246 33.8243C8.46396 33.9887 8.46396 34.0371 8.49227 34.1137C8.52171 34.1914 8.6474 34.2297 8.74477 34.2871C8.84215 34.3446 8.92934 34.4223 8.92934 34.4223C8.92934 34.4223 8.85121 34.6149 8.83196 34.7027C8.81271 34.7894 8.74477 34.8863 8.77421 35.0304C8.80365 35.1757 8.81271 35.1948 9.00747 35.2906C9.20109 35.3874 9.42415 35.3289 9.52153 35.3683C9.61891 35.4077 9.86122 35.1757 9.90991 35.1171C9.95859 35.0597 9.9484 34.8367 9.87141 34.8176C9.79328 34.7984 9.68684 34.75 9.57022 34.75C9.45359 34.75 9.37659 34.7117 9.37659 34.7117L9.39584 34.5383C9.39584 34.5383 9.76497 34.4324 9.90991 34.4031C10.056 34.3739 10.1624 34.3063 10.2394 34.1813C10.3175 34.0563 10.3073 33.911 10.2779 33.8918C10.2485 33.8727 10.1035 33.795 10.1035 33.795L10.2394 33.6306C10.2394 33.6306 10.2202 33.3704 10.1715 33.3028C10.1228 33.2353 9.9869 33.197 9.9869 33.197C9.9869 33.197 9.9869 33.0044 9.9484 32.9368C9.90991 32.8693 9.77403 32.831 9.72534 32.831C9.67665 32.831 9.64721 32.6181 9.76384 32.2814C9.88047 31.9435 9.9869 31.6158 10.0458 31.4514C10.1047 31.287 10.1522 31.162 10.3277 30.9108C10.5021 30.6597 10.784 30.0617 11.1135 29.4051C11.443 28.7485 11.7737 27.5525 11.8507 26.9827C11.9288 26.4128 11.948 25.9015 11.948 25.9015L11.7544 25.0907L11.7533 25.0884Z" fill="white" stroke="#8E8E8E" stroke-width="0.3" stroke-miterlimit="10"/>
<path d="M16.9018 16.74C16.9403 16.7783 17.212 17.0869 17.691 17.6669C18.1699 18.2457 18.9071 19.069 19.0361 19.1985C19.1652 19.3269 19.4891 20.2661 19.6566 20.5105C19.8253 20.7549 20.6791 21.952 20.9248 22.4149C21.1705 22.8777 21.2486 23.6244 21.0799 24.0366C20.9112 24.4488 20.4334 24.9499 20.3168 25.6966C20.2001 26.4432 20.3688 29.0166 20.3292 29.4153C20.2907 29.8139 20.3292 30.3027 20.3677 30.5989C20.4062 30.8951 20.3938 32.4256 20.3938 32.3749C20.3938 32.3242 19.3588 32.0922 18.9184 32.117C18.479 32.1429 15.218 31.8467 14.636 31.7825C14.054 31.7183 10.6515 31.448 10.4058 31.4221C10.1601 31.3962 10.0955 31.2295 10.0434 31.2295C9.99135 31.2295 10.3027 30.5865 10.3797 30.4063C10.4567 30.2261 10.5224 29.9434 10.6775 29.7114C10.8326 29.4794 10.9232 29.4153 10.8202 29.1709C10.7172 28.9265 10.639 28.9006 10.7942 28.6562C10.9493 28.4118 11.0138 28.4242 11.0138 28.2316C11.0138 28.0391 11.0659 28.0255 10.9753 27.7947C10.8847 27.5627 10.8326 27.4726 10.8972 27.3701C10.9617 27.2676 11.0138 27.0874 11.0263 27.048C11.0387 27.0086 10.9878 26.7518 10.9878 26.7518L10.8587 26.4556L10.9617 26.1977C10.9493 26.1459 10.9232 24.6278 10.9232 24.6278L10.6775 23.6503L10.6651 23.3417L10.6775 21.3349C10.6254 20.6659 10.4579 19.6884 10.5869 19.1343C10.716 18.5813 10.8326 17.8223 11.0523 17.6162C11.272 17.4101 12.2684 16.5992 12.4111 16.4191C12.5537 16.2389 12.5662 16.1871 12.6307 16.0846C12.6953 15.9821 12.9546 15.7625 13.0837 15.7625C13.2127 15.7625 13.2127 15.7366 13.2909 15.6465C13.369 15.5564 13.3429 15.544 13.472 15.544C13.6011 15.544 14.0416 15.8402 14.3779 16.2389C14.7142 16.6375 16.1239 17.7063 16.5383 17.9631C16.9527 18.221 17.315 18.2457 17.4305 18.105C17.5472 17.9631 17.34 17.6027 17.3071 17.4428C17.2743 17.2817 17.0161 17.2952 17.0161 17.1792C17.0161 17.0632 16.8995 16.7423 16.8995 16.7423L16.9018 16.74Z" fill="url(#paint1_linear_242_4923)"/>
<path d="M14.8184 20.0218C14.8184 20.0218 14.9056 20.8135 14.935 21.1221C14.9645 21.4306 14.9645 22.9071 15.003 23.2168C15.0415 23.5253 15.1683 24.1718 15.3042 24.8858C15.44 25.5998 15.5465 26.6032 15.6144 26.9028C15.6823 27.2023 15.8669 27.6461 15.9247 27.7429C15.9824 27.8398 16.0605 27.9558 16.0605 27.9558C16.0605 27.9558 16.9143 28.3128 17.4 28.5932C17.8847 28.8736 19.2049 29.6935 19.651 29.8962C20.0972 30.0989 20.3984 30.1665 20.447 30.1563C20.4957 30.1462 20.5342 30.0505 20.5829 30.0403C20.6316 30.0302 20.8841 30.1563 21.0392 30.2431C21.1944 30.3298 21.534 30.8703 21.6212 31.0539C21.7084 31.2375 21.8545 31.5562 21.8352 31.6812C21.816 31.8062 21.7673 31.7972 21.8251 31.9323C21.8828 32.0675 21.9224 32.0573 21.9507 32.1452C21.9802 32.2319 22.0187 32.1936 21.9892 32.3186C21.9598 32.4436 21.9111 32.4639 21.9507 32.4729C21.9904 32.4819 22.0379 32.5405 22.0379 32.608C22.0379 32.6756 22.0572 32.7432 21.9994 32.8491C21.9417 32.9549 21.9315 32.9166 21.9315 33.0033C21.9315 33.0901 22.0096 33.1193 21.9417 33.2443C21.8737 33.3694 21.9609 33.2061 21.8737 33.3694C21.7866 33.5326 21.816 33.3502 21.7764 33.5619C21.7367 33.7737 21.7662 33.7354 21.6699 33.9291C21.5725 34.1216 21.5918 34.1126 21.5148 34.1802C21.4378 34.2478 21.2917 34.2669 21.2917 34.2669C21.3302 34.2376 21.2725 33.9291 21.2532 33.8041C21.234 33.6791 21.2532 33.5721 21.0596 33.4088C20.866 33.2443 20.6033 32.7815 20.4289 32.5889C20.2546 32.3963 20.1674 32.1069 20.1572 32.0675C20.147 32.0292 20.07 31.9132 19.8277 31.8265C19.5854 31.7398 18.3138 31.4312 17.4793 31.2859C16.6448 31.1406 15.2577 30.5528 14.8694 30.3782C14.481 30.2048 14.3938 30.1653 14.2772 30.118C14.1605 30.0696 13.899 29.7228 13.7824 29.5775C13.6657 29.4322 13.54 29.404 13.4529 29.2498C13.3657 29.0955 13.2683 28.0143 13.2105 27.5706C13.1528 27.1269 12.5119 25.0998 12.4247 24.6076C12.3375 24.1155 11.9492 22.3012 11.8722 22.0602C11.794 21.8192 11.4747 20.3135 11.4747 19.8303C11.4747 19.3472 11.5529 18.8077 11.7567 18.6726C11.9605 18.5375 12.4745 18.1422 12.804 18.132C13.1335 18.1219 13.959 18.2379 13.959 18.2379L14.5795 19.087L14.8218 20.0229L14.8184 20.0218Z" fill="white" stroke="#8E8E8E" stroke-width="0.3" stroke-miterlimit="10"/>
<path d="M13.1108 19.9823C13.8479 19.9823 14.5862 20.381 14.7277 20.5871C14.8704 20.7932 14.9349 20.9734 14.9349 20.9734C14.9349 20.9734 15.0776 20.8315 15.1682 20.5105C15.2588 20.1884 15.3109 18.5802 14.7289 18.0273C14.1469 17.4743 13.6815 17.0238 12.8923 17.1781C12.1031 17.3324 11.6637 17.6545 11.4305 17.989C11.1972 18.3235 11.1972 18.7739 11.1463 19.3404C11.0942 19.9069 11.0681 20.3055 11.1587 20.4598C11.2493 20.6141 11.5856 21.3991 11.5856 21.3991L11.7407 21.4768C11.7407 21.4768 11.5471 21.0781 11.6377 20.7177C11.7283 20.3573 12.2333 20.1253 12.3488 20.0612C12.4654 19.997 13.1119 19.9835 13.1119 19.9835L13.1108 19.9823Z" fill="url(#paint2_linear_242_4923)"/>
<path d="M23.7301 37.3019L23.5977 34.9403L22 36.2106L23.7301 37.3019Z" fill="#8E8E8E"/>
<path d="M23 35.9403C26.8657 35.9403 30 34.1488 30 31.9403C30 29.7318 26.8665 27.9403 23 27.9403" stroke="#8E8E8E" stroke-width="0.5" stroke-miterlimit="10"/>
<path d="M8.12976 27.0278L8.26224 29.3894L9.85991 28.1202L8.12976 27.0278Z" fill="#8E8E8E"/>
<path d="M9 27.9403C4.58209 27.9403 1 29.7318 1 31.9403C1 34.1488 4.58119 35.9403 9 35.9403" stroke="#8E8E8E" stroke-width="0.5" stroke-miterlimit="10"/>
</g>
<defs>
<linearGradient id="paint0_linear_242_4923" x1="14.0484" y1="28.101" x2="16.5564" y2="65.213" gradientUnits="userSpaceOnUse">
<stop stop-color="#2B2E32"/>
<stop offset="0.06" stop-color="#34383C"/>
<stop offset="0.25" stop-color="#4D5156"/>
<stop offset="0.45" stop-color="#5F6369"/>
<stop offset="0.65" stop-color="#696E74"/>
<stop offset="0.87" stop-color="#6D7278"/>
<stop offset="1" stop-color="#6D7278"/>
</linearGradient>
<linearGradient id="paint1_linear_242_4923" x1="10.3039" y1="23.0377" x2="30.3156" y2="28.5492" gradientUnits="userSpaceOnUse">
<stop offset="0.29" stop-color="#BCC2CA"/>
<stop offset="0.39" stop-color="#AEB3BB"/>
<stop offset="0.6" stop-color="#898E95"/>
<stop offset="0.73" stop-color="#6D7278"/>
<stop offset="1" stop-color="#6D7278"/>
</linearGradient>
<linearGradient id="paint2_linear_242_4923" x1="13.5048" y1="13.5957" x2="12.891" y2="25.126" gradientUnits="userSpaceOnUse">
<stop offset="0.29" stop-color="#BCC2CA"/>
<stop offset="0.39" stop-color="#AEB3BB"/>
<stop offset="0.6" stop-color="#898E95"/>
<stop offset="0.73" stop-color="#6D7278"/>
<stop offset="1" stop-color="#6D7278"/>
</linearGradient>
<clipPath id="clip0_242_4923">
<rect width="31" height="49" fill="white" transform="translate(0 6)"/>
</clipPath>
</defs>
</svg>
