<svg width="35" height="45" viewBox="0 0 35 45" fill="none" xmlns="http://www.w3.org/2000/svg">
<g clip-path="url(#clip0_242_4886)">
<path d="M19.075 25.7977C19.075 25.7977 19.9446 26.2166 20.1409 26.361C20.3372 26.5055 20.3812 26.4391 20.4463 26.6391C20.5115 26.8392 20.5115 27.0177 20.4023 27.1505C20.2932 27.2841 20.2492 27.1837 20.1946 27.4061C20.14 27.6286 20.1075 27.6511 20.118 27.7623C20.1286 27.8735 20.0635 28.0296 20.0635 28.0296C20.0635 28.0296 19.9983 28.1077 20.0195 28.1633C20.0406 28.2189 20.0415 28.2638 20.03 28.3526C20.0195 28.4414 19.9649 28.4746 19.9429 28.5194C19.9209 28.5643 19.7246 28.7975 19.7246 28.7975C19.7246 28.7975 19.7686 29.0308 19.8557 29.0981C19.9429 29.1654 20.03 29.3098 19.9754 29.4426C19.9209 29.5762 19.8989 29.6094 19.626 29.7538C19.3532 29.8983 18.8295 30.11 18.6657 30.2212C18.502 30.3325 18.3709 30.4993 18.3489 30.6106C18.3269 30.7218 17.9123 31.4 17.7266 31.6117C17.5409 31.8235 17.2575 32.0567 16.7663 32.2343C16.2752 32.4119 15.8061 32.5232 14.8238 32.5573C13.8415 32.5905 13.0335 32.1123 12.3241 30.9111C11.6147 29.7099 11.6473 28.942 11.8655 28.2082C12.0838 27.4743 13.2298 26.0165 13.6444 25.716C14.0589 25.4155 14.7578 25.0154 14.7578 25.0154C14.7578 25.0154 15.3475 24.3148 15.5543 24.0923C15.7621 23.8698 15.7621 23.38 15.8712 23.1135C15.9803 22.8462 16.2092 22.2344 16.504 22.1016C16.7989 21.9679 17.4097 22.0236 17.7046 21.9572C17.9995 21.8908 18.8831 21.6898 19.0249 21.8011C19.1666 21.9123 19.6797 22.2129 19.7343 22.2792C19.7888 22.3456 19.7563 22.9018 19.7563 22.9359C19.7563 22.97 19.6797 23.3145 19.6797 23.3145C19.6797 23.3145 19.4289 23.8483 19.3083 24.2044C19.1886 24.5606 19.1551 24.4269 19.09 24.9275C19.0249 25.4281 19.0715 25.7986 19.0715 25.7986L19.075 25.7977Z" fill="white" stroke="#8E8E8E" stroke-width="0.3" stroke-miterlimit="10"/>
<path d="M16.7576 28.2082C16.7576 28.2082 16.6924 28.2413 16.5173 28.698C16.343 29.1537 16.255 29.3546 16.2004 29.5771C16.1458 29.7996 16.0367 29.9772 16.1899 30.3226C16.343 30.6671 16.4187 31.1461 16.4733 31.5355C16.5278 31.9248 16.4733 32.3034 16.4187 32.4478C16.3641 32.5923 16.2656 32.804 16.1679 32.8704C16.0702 32.9368 15.4364 33.1377 15.2076 33.1817C14.9787 33.2265 13.265 32.6811 12.817 32.5142C12.3699 32.3474 11.2785 30.4563 11.1694 29.6884C11.0602 28.9204 11.2345 27.5972 11.5619 27.0294C11.8893 26.4624 13.155 25.594 13.3733 25.3383C13.5916 25.0827 13.7447 24.6601 13.7447 24.626C13.7447 24.592 13.7773 23.336 13.7007 22.7018C13.6242 22.0675 13.6787 21.5562 13.7879 21.2108C13.897 20.8663 14.0387 20.6654 14.2244 20.5658C14.4102 20.4653 15.2393 20.7219 15.3704 20.8215C15.5016 20.9219 15.6538 21.3552 15.7418 21.4665C15.829 21.5777 15.8184 23.0014 15.8184 23.0014C15.8184 23.0014 15.5781 23.6464 15.5236 23.7137C15.469 23.7801 15.2613 24.0923 15.2287 24.1255C15.1961 24.1587 15.1847 24.3255 15.109 24.47C15.0324 24.6144 14.9999 24.7588 14.9999 24.7929C14.9999 24.827 15.087 25.0262 15.1856 25.1266C15.2842 25.2271 15.3599 25.5052 15.3599 25.6164C15.3599 25.7277 15.1521 25.995 15.1741 26.2839C15.1961 26.5727 15.1636 27.1074 15.1636 27.163C15.1636 27.2187 14.727 27.5299 14.6619 27.6968C14.5967 27.8637 14.4762 28.1086 14.5087 28.3974C14.5413 28.6863 14.6073 28.8316 14.7376 28.8873C14.8687 28.9429 15.0324 28.9985 15.1636 28.9429C15.2947 28.8873 15.3924 28.8316 15.469 28.8092C15.5456 28.7868 15.8184 28.7428 16.0473 28.6092C16.2761 28.4755 16.4618 28.3642 16.549 28.2754C16.6361 28.1866 16.8324 28.0422 16.8324 28.0422L16.7558 28.2091L16.7576 28.2082Z" fill="#4F4F4F"/>
<path d="M16.8887 17.4394C16.8887 17.4394 14.4436 14.9473 13.4939 13.8017C12.5441 12.6561 11.6825 11.8998 11.2345 11.6773C10.7873 11.4549 10.6016 11.3992 10.0779 11.0763C9.55421 10.7533 7.86252 10.0527 7.01052 9.58532C6.15939 9.11793 4.89282 8.14996 4.19485 7.73909C3.49599 7.32733 3.44142 6.04807 3.40886 6.04807C3.37629 6.04807 2.76457 5.43625 2.76457 5.43625C2.76457 5.43625 2.54629 4.88005 2.52428 4.84685C2.50228 4.81366 2.24087 4.50237 2.24087 4.39113C2.24087 4.27989 2.08772 4.05741 2.08772 4.05741C2.08772 4.05741 1.96802 4.02422 1.86944 4.06817C1.77086 4.11303 1.69516 4.41266 1.74973 4.65757C1.8043 4.90247 1.96802 5.30258 2.05515 5.45867C2.14229 5.61477 2.19686 5.88121 2.21886 5.92606C2.24087 5.97092 2.14229 6.10369 2.14229 6.15931C2.14229 6.21493 2.44771 6.99361 2.51372 7.23851C2.57885 7.48342 5.84253 10.5981 6.47537 10.8987L7.10821 11.1992C7.10821 11.1992 11.9104 15.4819 12.2819 15.638C12.6533 15.7941 14.7701 18.341 15.5455 18.5635C16.3201 18.7859 16.3967 18.8748 16.6369 18.8191C16.8772 18.7635 17.2698 18.6298 17.3358 18.5742C17.4018 18.5186 17.4344 17.9624 17.4344 17.9068C17.4344 17.8512 16.8561 17.4726 16.8887 17.4394Z" fill="white" stroke="#8E8E8E" stroke-width="0.3" stroke-miterlimit="10"/>
<path d="M22.3493 10.6977C22.2472 10.7865 20.6761 12.596 20.3267 12.9521C19.9773 13.3083 18.9589 14.7768 18.7257 15.0433C18.4924 15.3106 17.5181 16.7639 17.5181 16.7639C17.5181 16.7639 16.7471 17.5946 16.645 17.6987C16.5429 17.8027 16.2665 18.0988 16.2665 18.0988L15.9461 18.2172L15.5676 17.9651C15.5676 17.9651 15.7859 17.8171 15.844 17.7579C15.9021 17.6987 16.3096 17.2241 16.4839 16.7343C16.6582 16.2445 16.6872 16.1709 16.9645 15.7852C17.2408 15.3994 17.401 15.281 17.5612 15.0585C17.7214 14.836 17.9687 14.5543 18.0708 14.2727C18.1729 13.991 18.3622 13.8429 18.4493 13.6348C18.5364 13.4276 18.5224 13.3971 18.7116 13.1603C18.9008 12.9225 18.8718 12.9082 19.1772 12.6408C19.4826 12.3735 19.6727 12.256 19.73 12.1806C20.1375 11.6469 20.2827 11.3948 20.2827 11.3948L20.5159 11.0386L20.2686 11.558C20.2686 11.558 20.545 11.306 20.6321 11.2171C20.7193 11.1283 21.0247 10.7722 21.0247 10.7722C21.0247 10.7722 21.4613 10.5048 21.5924 10.4905C21.7235 10.4752 21.9559 10.3568 21.9559 10.3568C21.9559 10.3568 21.4753 10.7865 21.5484 10.7273C21.6214 10.6681 21.9409 10.5048 22.014 10.4752H22.4796L22.3485 10.6977H22.3493Z" fill="#4F4F4F"/>
<path d="M13.8072 24.2403C13.8072 24.2403 14.3168 24.4332 14.5202 24.4179C14.7235 24.4027 15.1072 24.2843 15.102 24.3435C15.087 24.5211 15.0456 24.6305 14.9999 24.67C14.9999 24.67 14.8837 24.8333 14.6795 24.818C14.4762 24.8028 14.272 24.7884 14.272 24.7884L13.8204 24.7588C13.6602 24.5211 13.6065 24.4412 13.6462 24.3883C13.7333 24.2699 13.8063 24.2403 13.8063 24.2403H13.8072Z" fill="#4F4F4F"/>
<path d="M17.2416 26.2426C17.2997 26.2274 17.533 26.1386 17.8234 26.1386C18.1139 26.1386 19.7589 26.3314 19.832 26.3458C19.905 26.3601 20.1409 26.361 20.1409 26.361C20.1409 26.361 19.2493 25.9008 19.1771 25.8569C19.1041 25.812 19.0169 25.7232 19.0169 25.7232L19.075 24.8476L19.3805 23.9577L19.6859 23.2015C19.6859 23.2015 19.1182 22.5493 19.075 22.5493C19.0319 22.5493 18.0276 22.8902 18.0276 22.8902L17.1985 24.077C17.1985 24.077 17.6641 24.4628 17.6932 24.522C17.7222 24.5812 17.6641 25.219 17.6641 25.219L17.4168 25.516L17.1255 25.6936L16.8922 25.7977C16.8922 25.7977 16.732 26.0497 16.703 26.1682C16.6739 26.2866 16.6132 26.6131 16.5718 26.658C16.5718 26.658 16.1934 26.9101 16.0481 26.9693C15.9029 27.0285 15.5535 27.1325 15.5535 27.1325C15.5535 27.1325 16.005 27.0877 16.1353 27.0581C16.2655 27.0285 16.4336 27.0231 16.4697 26.9989C16.4697 26.9989 16.8332 26.658 16.8482 26.5692C16.8632 26.4803 17.2408 26.2426 17.2408 26.2426H17.2416Z" fill="#C1C1C1"/>
<path d="M28.1126 36.0021C28.1126 36.0021 27.574 37.6483 27.4428 37.9156C27.3117 38.183 27.1374 38.7463 27.1083 39.1465C27.0793 39.5466 27.148 40.2463 27.0643 40.3925C26.861 40.7487 26.5547 41.1192 26.2352 41.1488C25.9148 41.1784 24.2707 41.2232 23.9653 41.2672C23.6598 41.312 21.3749 41.4448 21.0255 41.4009C20.6761 41.356 20.0652 41.3264 19.905 41.1335C19.7448 40.9406 19.876 40.659 20.1814 40.5109C20.4868 40.3629 20.9383 40.4069 21.2728 40.3333C21.6073 40.2589 23.5137 39.325 23.9503 38.9984C24.3869 38.6719 25.0998 37.2634 25.289 36.8481C25.4783 36.4327 25.8418 35.5877 25.9289 35.4684C26.0161 35.349 28.1117 36.0021 28.1117 36.0021H28.1126Z" fill="white" stroke="#8E8E8E" stroke-width="0.3" stroke-miterlimit="10"/>
<path d="M28.6073 38.8953C28.5923 38.9545 28.374 39.7708 28.3159 40.1557C28.2578 40.5414 28.2869 41.6242 28.3309 41.8467C28.3749 42.0692 28.6363 42.7223 28.7384 43.0632C28.8405 43.4041 28.7965 43.7154 28.7534 43.9979C28.7094 44.2796 28.2587 44.4878 27.9533 44.5613C27.6479 44.6358 26.7167 44.4725 26.4544 44.4869C26.1921 44.5021 25.363 44.4869 24.9995 44.5317C24.6359 44.5766 23.7628 45.1247 22.0887 44.9022C20.4155 44.6797 19.993 44.3092 19.993 44.3092C19.993 44.3092 20.0511 43.8194 20.1823 43.7163C20.3134 43.6122 20.6629 43.4938 20.8952 43.509C21.1285 43.5243 24.0533 42.664 24.7812 41.4475C25.5091 40.231 25.6693 39.6973 25.8286 39.2819C25.9879 38.8666 26.163 38.1543 26.1921 38.0951C26.2211 38.0358 27.2985 38.2879 27.3566 38.2727C27.4146 38.2574 28.2297 38.3767 28.2297 38.3767L28.6082 38.8962L28.6073 38.8953Z" fill="white" stroke="#8E8E8E" stroke-width="0.3" stroke-miterlimit="10"/>
<path d="M27.2246 15.1626C27.229 15.1706 27.2352 15.1985 27.244 15.2415C27.3338 15.6784 27.6454 17.731 27.6321 18.2028C27.6172 18.7222 27.8795 20.6797 27.8504 20.9174C27.8214 21.1552 27.3989 22.8749 27.3699 23.2463C27.3408 23.6168 27.3118 23.7953 27.3408 24.1954C27.3699 24.5955 27.6902 26.2426 27.53 26.8356C27.3699 27.4286 27.1806 28.5114 26.9483 29.2533C26.715 29.9952 26.4967 32.7537 26.2784 33.5988C26.0602 34.4439 25.5796 35.8828 25.5796 35.8828C25.5796 35.8828 25.6526 36.0308 25.7979 36.1053C25.9431 36.1797 26.7581 36.5502 26.8893 36.5502C27.0204 36.5502 27.8064 36.7575 27.8064 36.7575L28.8397 30.528L30.1785 16.4813L30.9495 12.3726L30.6291 11.2449L29.4796 10.5623C29.4796 10.5623 28.0247 11.2297 27.6894 11.3481C27.3549 11.4665 26.5979 12.0452 26.5979 12.2829C26.5979 12.5206 26.4527 13.128 26.7432 13.6922C27.0345 14.2556 27.2237 15.1608 27.2237 15.1608L27.2246 15.1626Z" fill="url(#paint0_linear_242_4886)"/>
<path d="M25.8859 38.5391C25.8859 38.5391 26.8171 38.8504 27.2827 39.0729C27.7483 39.2954 28.5634 39.2066 28.6074 39.1769C28.6514 39.1473 29.1601 36.6113 29.7278 35.3356C30.2955 34.0599 31.0956 32.3985 31.3289 31.435C31.5621 30.4706 31.6052 28.7652 31.5181 27.6528C31.431 26.5405 31.5621 26.2435 31.6052 25.7393C31.6492 25.2352 31.7505 24.4933 32.0268 23.5738C32.3032 22.6542 33.0161 20.1029 33.4237 18.071C33.8312 16.039 34.7624 12.7458 34.9076 11.7079C35.0529 10.6699 35.184 8.96364 33.9614 7.85124C32.7389 6.73884 31.4732 6.32348 29.9593 6.24902C28.4454 6.17457 27.6453 6.75319 27.354 6.85726C27.0627 6.96132 25.2293 8.14728 25.1421 8.22174C25.055 8.2962 24.7056 8.68195 24.7056 8.68195C24.7056 8.68195 24.7496 10.6843 24.8077 10.9812C24.8658 11.2781 26.5539 12.8651 26.8162 13.0284C27.0785 13.1917 27.3258 12.7763 27.3258 12.7763L28.0678 13.2213L28.213 13.4886C28.213 13.4886 28.0678 14.4234 27.9657 15.9655C27.8636 17.5085 27.7914 20.2967 27.7914 20.5783C27.7914 20.86 27.8064 21.9132 27.6893 22.5807C27.5732 23.2481 27.413 23.5002 27.3258 24.034C27.2387 24.5677 27.2097 24.9983 27.2968 25.577C27.3839 26.1556 27.3989 27.1792 27.457 27.7273C27.5151 28.2754 27.3549 29.2398 27.1076 30.5756C26.8602 31.9105 26.7872 33.379 26.6419 34.4026C26.4967 35.4262 26.3365 36.6274 26.2054 37.1908C26.0742 37.7542 25.885 38.5409 25.885 38.5409L25.8859 38.5391Z" fill="url(#paint1_linear_242_4886)"/>
<path d="M24.8675 8.17688C24.9185 8.12485 25.231 8.50343 25.7987 9.49741C26.3664 10.4914 27.0644 11.4997 27.3416 12.0039C27.618 12.5081 27.8072 13.1019 27.9093 13.25C28.0114 13.398 28.2297 13.4276 28.2148 13.4877C28.1998 13.5478 28.0255 14.8818 28.0255 14.8818C28.0255 14.8818 27.589 15.4748 27.2686 15.8166C26.9482 16.1575 26.017 17.2403 25.8568 17.5076C25.6966 17.7749 25.2019 18.1903 25.1438 18.4128C25.0858 18.6352 25.3181 19.1547 24.8675 19.9997C24.4159 20.8448 24.1836 21.157 23.4706 21.453C22.7577 21.75 21.5642 21.7051 21.2148 21.9132C20.8653 22.1205 20.2254 22.4623 20.0072 22.7583C19.7889 23.0552 19.7308 22.9655 19.6868 23.2033C19.6428 23.441 19.3523 23.5145 19.1772 23.6186C19.0029 23.7227 18.1588 24.0788 17.7944 24.1524C17.4309 24.2268 16.7901 24.3004 16.3976 24.1676C16.005 24.034 15.5095 23.9604 15.3643 23.7074C15.219 23.4553 15.0879 23.1584 15.0879 23.0104C15.0879 22.8624 15.961 19.7772 16.2083 19.5395C16.4557 19.3018 16.9503 18.472 16.9503 18.472L16.2083 17.8933C16.2083 17.8933 17.518 15.7726 17.9696 15.2083C18.4211 14.645 19.017 13.9623 19.2353 13.7254C19.4535 13.4877 19.6428 13.2957 19.759 13.1764C19.8364 13.0975 19.9432 12.9787 20.0793 12.8203C20.2827 12.5825 20.3267 12.5233 20.4578 12.4498C20.589 12.3753 20.6911 12.2273 20.6911 12.2273C20.6911 12.2273 20.7932 12.064 20.8512 11.9895C20.9093 11.9151 21.0405 11.7375 21.0405 11.7375L21.3028 11.4997L21.5501 11.2476L21.9867 10.6986C22.3211 10.3425 22.7867 9.91277 23.1511 9.64543C23.5146 9.3781 23.85 9.15562 24.0102 9.0076C24.1704 8.85957 24.2866 8.6667 24.4617 8.53303C24.636 8.39936 24.8983 8.11768 24.8983 8.11768C24.8983 8.11768 24.8543 8.19213 24.8692 8.17688H24.8675Z" fill="url(#paint2_linear_242_4886)"/>
<path d="M16.9759 20.1764C16.9759 20.1764 17.3139 19.6866 17.2593 19.4426C17.2047 19.1977 17.0736 18.4415 16.7576 18.2082C16.4408 17.975 15.4699 17.5515 15.2191 17.3407C14.9682 17.129 13.5925 15.5385 13.244 15.1384C12.8945 14.7382 11.4211 12.9584 11.0506 12.6911C10.68 12.4237 9.82803 11.968 9.55518 11.8236C9.28232 11.6791 8.18035 10.878 7.5035 10.4887C6.82665 10.0994 5.44038 9.03182 5.11295 8.66401C4.78553 8.29709 4.20726 7.65208 4.20726 7.65208C4.20726 7.65208 4.12012 6.77293 4.12012 6.72897C4.12012 6.39525 4.06555 6.18354 4.04354 6.15034C4.02154 6.11715 3.61754 5.77177 3.58498 5.639C3.55241 5.50533 3.39926 5.40575 3.36669 5.41652C3.33413 5.42728 3.01726 5.33847 3.01726 5.33847L2.87556 5.34924L2.76642 5.43805C2.76642 5.43805 2.95213 5.67129 3.01726 5.72691C3.0824 5.78253 3.14841 5.89377 3.15897 6.06063C3.16953 6.22749 3.03927 6.31631 3.03927 6.31631L2.54813 6.26069L1.78415 5.76011C1.78415 5.76011 1.45672 5.52686 1.38015 5.52686C1.30357 5.52686 1.13986 5.52686 1.08529 5.60491C1.03072 5.68296 1.03072 5.86058 1.03072 5.86058C1.03072 5.86058 1.15042 5.96106 1.227 5.99425C1.30357 6.02744 1.08529 6.41678 1.08529 6.41678C1.08529 6.41678 0.845003 6.33873 0.812436 6.32797C0.77987 6.3172 0.41988 6.37282 0.375872 6.37282C0.331863 6.37282 0.277292 6.40602 0.26673 6.49483C0.256168 6.58364 0.256168 6.71731 0.310739 6.76216C0.36531 6.80702 0.430442 6.8734 0.539583 6.92902C0.648725 6.98464 0.943582 7.12907 0.943582 7.12907C0.943582 7.12907 0.845003 7.29593 0.812436 7.34079C0.77987 7.38564 0.539583 7.35155 0.539583 7.35155C0.539583 7.35155 0.26673 7.37398 0.201598 7.39641C0.136465 7.41884 0.0924566 7.39641 0.0704523 7.49688C0.048448 7.59736 0.0264437 7.73013 0.0704523 7.76422C0.114461 7.79741 0.179594 7.89789 0.234164 7.92031C0.288735 7.94274 0.397876 7.96517 0.485013 7.97593C0.57215 7.9867 0.57215 8.17599 0.561588 8.22084C0.551026 8.2657 0.375872 8.34285 0.332743 8.36527C0.288735 8.3877 0.223602 8.48728 0.245606 8.5429C0.267611 8.59852 0.21304 8.67657 0.344186 8.76538C0.475331 8.85419 0.518459 8.90981 0.617039 8.88738C0.715618 8.86496 1.0536 8.83176 1.18475 8.821C1.31589 8.81023 1.51217 8.83176 1.63188 8.89905C1.75158 8.96543 2.079 9.13229 2.21015 9.16638C2.34129 9.19957 2.65728 9.25519 2.74529 9.28839C2.83243 9.32158 2.97414 9.38886 3.06215 9.44448L5.46326 11.4244C6.46754 12.4148 8.01752 13.6043 8.45408 13.8609C8.89065 14.1166 9.29465 14.4503 9.49092 14.5839C9.6872 14.7176 10.1678 15.6183 10.6915 16.2418C11.2152 16.8644 12.1974 18.2997 12.5574 18.8335C12.9174 19.3673 13.3434 20.5353 13.5943 20.8026C13.8451 21.07 15.1117 21.5364 15.7225 21.4037C15.7225 21.4037 16.7268 20.6358 16.9777 20.18L16.9759 20.1764Z" fill="white" stroke="#8E8E8E" stroke-width="0.3" stroke-miterlimit="10"/>
<path d="M0.800048 6.11445C0.800048 6.11445 0.81061 6.01398 0.941756 5.97002C1.0729 5.92606 0.996326 5.9144 1.12747 5.9144C1.25862 5.9144 1.52003 6.15931 1.60805 6.21493C1.69518 6.27055 2.27345 6.85994 2.27345 6.85994C2.27345 6.85994 2.4046 7.08242 2.33859 7.17123C2.27257 7.26004 2.16431 7.37128 2.0983 7.31566C2.03317 7.26004 1.68374 7.09318 1.56316 7.00437C1.44345 6.91556 1.02801 6.63746 0.995446 6.5926C0.96288 6.54775 0.766602 6.33693 0.766602 6.33693L0.799168 6.11445H0.800048Z" fill="white" stroke="#8E8E8E" stroke-width="0.3" stroke-miterlimit="10"/>
<path d="M0.385572 6.88237C0.385572 6.88237 0.265869 6.96042 0.265869 7.02681C0.265869 7.09319 0.298435 7.26005 0.331002 7.26005C0.363568 7.26005 0.440143 7.42691 0.549284 7.47176C0.658425 7.51662 1.20413 7.62786 1.35728 7.69424C1.51043 7.76063 1.61957 7.78306 1.6847 7.79472C1.74984 7.80548 2.24097 7.89519 2.29554 7.8611C2.35011 7.82702 2.37212 7.69424 2.33955 7.64939C2.30699 7.60454 2.23041 7.50496 2.15384 7.47176C2.07726 7.43857 1.91355 7.34976 1.82641 7.31567C1.73928 7.28158 1.11699 6.91556 1.04042 6.91556C0.963845 6.91556 0.68043 6.73794 0.614417 6.75947C0.548404 6.781 0.385572 6.88148 0.385572 6.88148V6.88237Z" fill="white" stroke="#8E8E8E" stroke-width="0.3" stroke-miterlimit="10"/>
<path d="M0.254395 8.05038C0.254395 8.05038 0.254395 8.18405 0.286961 8.23967C0.319527 8.29529 0.406664 8.39577 0.494681 8.36168C0.581818 8.32848 0.712964 8.39487 0.887237 8.37244C1.06151 8.35002 1.35637 8.36168 1.45495 8.35002C1.55353 8.33925 1.74981 8.30516 1.88095 8.27197C2.0121 8.23877 2.15556 8.22891 2.17581 8.16073C2.23038 7.97144 2.18637 7.9831 2.14324 7.94901C2.09923 7.91582 1.94696 7.90416 1.94696 7.90416C1.94696 7.90416 1.80526 7.87097 1.70668 7.88173C1.6081 7.8925 1.32468 7.8925 1.18297 7.88173C1.04127 7.87097 0.681277 7.77049 0.560694 7.81535C0.440991 7.8602 0.33185 7.90416 0.33185 7.90416L0.255275 8.04859L0.254395 8.05038Z" fill="white" stroke="#8E8E8E" stroke-width="0.3" stroke-miterlimit="10"/>
<path d="M0.69088 8.75102C0.69088 8.75102 0.636309 8.91788 0.69088 8.95107C0.74545 8.98427 0.822025 9.16279 0.8986 9.14036C0.975175 9.11793 1.71716 8.9735 1.85887 8.8515C2.00057 8.72949 2.07715 8.56263 2.07715 8.42896C2.07715 8.2953 2.04458 8.31772 2.02258 8.2953C2.00057 8.27287 1.91344 8.31772 1.85887 8.31772C1.8043 8.31772 1.65115 8.2953 1.52088 8.37334C1.38974 8.45139 1.25859 8.56263 1.1829 8.59582C1.10632 8.62902 0.69176 8.75192 0.69176 8.75192L0.69088 8.75102Z" fill="white" stroke="#8E8E8E" stroke-width="0.3" stroke-miterlimit="10"/>
<path d="M13.5925 20.799C13.5925 20.799 13.6181 21.0063 13.7202 21.1848C13.8223 21.3624 14.2148 21.7042 14.2148 21.7042C14.2148 21.7042 14.5202 21.9267 14.6223 22.0451C14.7244 22.1635 14.9137 22.4452 15.0298 22.4901C15.146 22.5349 15.2332 22.5941 15.2921 22.6677C15.3502 22.7421 15.5544 23.0678 15.7287 23.2463C15.903 23.4239 16.5147 23.8841 16.6599 23.9137C16.8052 23.9434 17.2127 24.077 17.7223 23.8393C18.2319 23.6016 18.8428 22.8606 19.032 22.0891C19.2212 21.3176 19.105 20.2348 18.9449 19.701C18.7847 19.1672 18.1589 18.663 17.6932 18.5294C17.2276 18.3957 16.733 18.0997 16.6599 18.114C16.5869 18.1293 16.2084 17.8915 16.2084 17.8915C16.2084 17.8915 16.4267 18.1885 16.4707 18.3814C16.5147 18.5742 16.3686 18.9743 16.2234 19.1672C16.0781 19.3601 15.3212 19.9091 15.19 20.0428C15.0589 20.1764 14.0405 20.6806 13.8654 20.6806C13.6902 20.6806 13.5925 20.799 13.5925 20.799Z" fill="url(#paint3_linear_242_4886)"/>
</g>
<defs>
<linearGradient id="paint0_linear_242_4886" x1="27.1692" y1="23.4831" x2="25.5559" y2="23.2948" gradientUnits="userSpaceOnUse">
<stop offset="0.16" stop-color="#2B2E32"/>
<stop offset="0.19" stop-color="#34383C"/>
<stop offset="0.27" stop-color="#4D5156"/>
<stop offset="0.34" stop-color="#5F6369"/>
<stop offset="0.43" stop-color="#696E74"/>
<stop offset="0.52" stop-color="#6D7278"/>
<stop offset="1" stop-color="#6D7278"/>
</linearGradient>
<linearGradient id="paint1_linear_242_4886" x1="22.4735" y1="22.7305" x2="32.7662" y2="22.7305" gradientUnits="userSpaceOnUse">
<stop offset="0.16" stop-color="#2B2E32"/>
<stop offset="0.19" stop-color="#34383C"/>
<stop offset="0.27" stop-color="#4D5156"/>
<stop offset="0.34" stop-color="#5F6369"/>
<stop offset="0.43" stop-color="#696E74"/>
<stop offset="0.52" stop-color="#6D7278"/>
<stop offset="1" stop-color="#6D7278"/>
</linearGradient>
<linearGradient id="paint2_linear_242_4886" x1="20.9833" y1="16.3109" x2="28.5759" y2="19.2821" gradientUnits="userSpaceOnUse">
<stop offset="0.29" stop-color="#BCC2CA"/>
<stop offset="0.39" stop-color="#AEB3BB"/>
<stop offset="0.6" stop-color="#898E95"/>
<stop offset="0.73" stop-color="#6D7278"/>
<stop offset="1" stop-color="#6D7278"/>
</linearGradient>
<linearGradient id="paint3_linear_242_4886" x1="13.4403" y1="18.8855" x2="22.4374" y2="24.2514" gradientUnits="userSpaceOnUse">
<stop offset="0.29" stop-color="#BCC2CA"/>
<stop offset="0.39" stop-color="#AEB3BB"/>
<stop offset="0.6" stop-color="#898E95"/>
<stop offset="0.73" stop-color="#6D7278"/>
<stop offset="1" stop-color="#6D7278"/>
</linearGradient>
<clipPath id="clip0_242_4886">
<rect width="35" height="41" fill="white" transform="translate(0 4)"/>
</clipPath>
</defs>
</svg>
