<svg width="102" height="32" viewBox="0 0 102 32" fill="none" xmlns="http://www.w3.org/2000/svg">
<path d="M19.4711 10.395C20.0291 10.395 20.5211 10.512 20.9471 10.746C21.3731 10.974 21.7061 11.328 21.9461 11.808C22.1921 12.288 22.3151 12.906 22.3151 13.662V18H19.6241V14.076C19.6241 13.56 19.5461 13.143 19.3901 12.825C19.2341 12.507 18.9251 12.348 18.4631 12.348C18.1871 12.348 17.9441 12.42 17.7341 12.564C17.5241 12.708 17.3621 12.909 17.2481 13.167C17.1341 13.419 17.0771 13.722 17.0771 14.076V18H14.5661V14.076C14.5661 13.56 14.4791 13.143 14.3051 12.825C14.1371 12.507 13.8371 12.348 13.4051 12.348C13.1291 12.348 12.8861 12.42 12.6761 12.564C12.4661 12.702 12.3041 12.9 12.1901 13.158C12.0821 13.41 12.0281 13.716 12.0281 14.076V18H9.3101V10.611H12.0281V11.664C12.1001 11.478 12.2561 11.289 12.4961 11.097C12.7421 10.899 13.0451 10.734 13.4051 10.602C13.7651 10.464 14.1461 10.395 14.5481 10.395C14.9861 10.395 15.3521 10.461 15.6461 10.593C15.9401 10.719 16.1801 10.89 16.3661 11.106C16.5581 11.322 16.7111 11.556 16.8251 11.808C16.9091 11.592 17.0741 11.376 17.3201 11.16C17.5721 10.938 17.8841 10.755 18.2561 10.611C18.6341 10.467 19.0391 10.395 19.4711 10.395ZM29.4619 18.216C28.6519 18.216 27.9319 18.051 27.3019 17.721C26.6779 17.385 26.1859 16.926 25.8259 16.344C25.4719 15.756 25.2949 15.084 25.2949 14.328C25.2949 13.572 25.4719 12.9 25.8259 12.312C26.1859 11.718 26.6779 11.25 27.3019 10.908C27.9319 10.566 28.6519 10.395 29.4619 10.395C30.2719 10.395 30.9859 10.566 31.6039 10.908C32.2219 11.25 32.7049 11.718 33.0529 12.312C33.4009 12.9 33.5749 13.572 33.5749 14.328C33.5749 15.084 33.4009 15.756 33.0529 16.344C32.7049 16.926 32.2219 17.385 31.6039 17.721C30.9859 18.051 30.2719 18.216 29.4619 18.216ZM29.4619 15.966C29.7739 15.966 30.0439 15.897 30.2719 15.759C30.4999 15.621 30.6769 15.426 30.8029 15.174C30.9289 14.922 30.9919 14.637 30.9919 14.319C30.9919 13.995 30.9289 13.707 30.8029 13.455C30.6769 13.203 30.4999 13.005 30.2719 12.861C30.0439 12.717 29.7739 12.645 29.4619 12.645C29.1499 12.645 28.8769 12.717 28.6429 12.861C28.4149 13.005 28.2349 13.203 28.1029 13.455C27.9769 13.707 27.9139 13.995 27.9139 14.319C27.9139 14.637 27.9769 14.922 28.1029 15.174C28.2349 15.426 28.4149 15.621 28.6429 15.759C28.8769 15.897 29.1499 15.966 29.4619 15.966ZM39.9668 18.216C39.2528 18.216 38.6318 18.042 38.1038 17.694C37.5758 17.34 37.1648 16.869 36.8708 16.281C36.5828 15.687 36.4388 15.03 36.4388 14.31C36.4388 13.59 36.5828 12.936 36.8708 12.348C37.1648 11.754 37.5758 11.28 38.1038 10.926C38.6318 10.572 39.2528 10.395 39.9668 10.395C40.4408 10.395 40.8608 10.47 41.2268 10.62C41.5928 10.764 41.8898 10.938 42.1178 11.142C42.3458 11.34 42.4838 11.523 42.5318 11.691V5.616H45.2678V18H42.5588V16.803C42.4448 17.025 42.2588 17.247 42.0008 17.469C41.7428 17.685 41.4398 17.862 41.0918 18C40.7438 18.144 40.3688 18.216 39.9668 18.216ZM40.8038 16.065C41.1338 16.065 41.4278 15.99 41.6858 15.84C41.9498 15.69 42.1568 15.483 42.3068 15.219C42.4568 14.949 42.5318 14.646 42.5318 14.31C42.5318 13.974 42.4568 13.674 42.3068 13.41C42.1568 13.14 41.9498 12.93 41.6858 12.78C41.4278 12.624 41.1338 12.546 40.8038 12.546C40.4858 12.546 40.1978 12.624 39.9398 12.78C39.6878 12.93 39.4868 13.14 39.3368 13.41C39.1928 13.674 39.1208 13.974 39.1208 14.31C39.1208 14.646 39.1928 14.949 39.3368 15.219C39.4868 15.483 39.6878 15.69 39.9398 15.84C40.1978 15.99 40.4858 16.065 40.8038 16.065ZM48.7435 18V10.611H51.4795V18H48.7435ZM50.1475 9.09C49.7155 9.09 49.3495 8.94 49.0495 8.64C48.7495 8.334 48.5995 7.971 48.5995 7.551C48.5995 7.131 48.7495 6.768 49.0495 6.462C49.3555 6.15 49.7215 5.994 50.1475 5.994C50.4295 5.994 50.6875 6.066 50.9215 6.21C51.1555 6.348 51.3445 6.534 51.4885 6.768C51.6325 7.002 51.7045 7.263 51.7045 7.551C51.7045 7.971 51.5515 8.334 51.2455 8.64C50.9395 8.94 50.5735 9.09 50.1475 9.09ZM65.3254 10.395C65.8834 10.395 66.3754 10.512 66.8014 10.746C67.2274 10.974 67.5604 11.328 67.8004 11.808C68.0464 12.288 68.1694 12.906 68.1694 13.662V18H65.4784V14.076C65.4784 13.56 65.4004 13.143 65.2444 12.825C65.0884 12.507 64.7794 12.348 64.3174 12.348C64.0414 12.348 63.7984 12.42 63.5884 12.564C63.3784 12.708 63.2164 12.909 63.1024 13.167C62.9884 13.419 62.9314 13.722 62.9314 14.076V18H60.4204V14.076C60.4204 13.56 60.3334 13.143 60.1594 12.825C59.9914 12.507 59.6914 12.348 59.2594 12.348C58.9834 12.348 58.7404 12.42 58.5304 12.564C58.3204 12.702 58.1584 12.9 58.0444 13.158C57.9364 13.41 57.8824 13.716 57.8824 14.076V18H55.1644V10.611H57.8824V11.664C57.9544 11.478 58.1104 11.289 58.3504 11.097C58.5964 10.899 58.8994 10.734 59.2594 10.602C59.6194 10.464 60.0004 10.395 60.4024 10.395C60.8404 10.395 61.2064 10.461 61.5004 10.593C61.7944 10.719 62.0344 10.89 62.2204 11.106C62.4124 11.322 62.5654 11.556 62.6794 11.808C62.7634 11.592 62.9284 11.376 63.1744 11.16C63.4264 10.938 63.7384 10.755 64.1104 10.611C64.4884 10.467 64.8934 10.395 65.3254 10.395ZM77.2872 18V16.803C77.2332 16.923 77.0952 17.097 76.8732 17.325C76.6572 17.553 76.3692 17.76 76.0092 17.946C75.6492 18.126 75.2292 18.216 74.7492 18.216C74.0292 18.216 73.3992 18.042 72.8592 17.694C72.3192 17.34 71.8992 16.869 71.5992 16.281C71.2992 15.687 71.1492 15.03 71.1492 14.31C71.1492 13.59 71.2992 12.936 71.5992 12.348C71.8992 11.754 72.3192 11.28 72.8592 10.926C73.3992 10.572 74.0292 10.395 74.7492 10.395C75.2112 10.395 75.6162 10.47 75.9642 10.62C76.3122 10.764 76.5942 10.938 76.8102 11.142C77.0262 11.34 77.1762 11.523 77.2602 11.691V10.611H79.9782V18H77.2872ZM73.8312 14.31C73.8312 14.646 73.9092 14.949 74.0652 15.219C74.2212 15.483 74.4282 15.69 74.6862 15.84C74.9502 15.99 75.2412 16.065 75.5592 16.065C75.8892 16.065 76.1802 15.99 76.4322 15.84C76.6842 15.69 76.8822 15.483 77.0262 15.219C77.1762 14.949 77.2512 14.646 77.2512 14.31C77.2512 13.974 77.1762 13.674 77.0262 13.41C76.8822 13.14 76.6842 12.93 76.4322 12.78C76.1802 12.624 75.8892 12.546 75.5592 12.546C75.2412 12.546 74.9502 12.624 74.6862 12.78C74.4282 12.93 74.2212 13.14 74.0652 13.41C73.9092 13.674 73.8312 13.974 73.8312 14.31ZM86.2504 18H83.5054V5.616H86.2504V18Z" fill="#0C0C0C"/>
<mask id="path-2-inside-1_1_74377" fill="white">
<path fill-rule="evenodd" clip-rule="evenodd" d="M91.9219 18C93.4752 18 94.7344 16.7408 94.7344 15.1875C94.7344 13.6342 93.4752 12.375 91.9219 12.375C90.3686 12.375 89.1094 13.6342 89.1094 15.1875C89.1094 16.4338 89.92 17.4907 91.0427 17.8599C91.0549 17.8143 91.0681 17.7694 91.0825 17.7251C90.7554 17.3449 90.7551 16.9751 90.7551 16.7891L90.7551 16.7889C90.7565 16.2864 90.9077 15.8251 91.293 15.4908C91.6766 15.1581 92.2812 14.9609 93.1691 14.9609H93.9531C93.992 14.9609 94.0234 14.9924 94.0234 15.0312V15.4219V15.4259L94.0233 15.4259C93.9739 16.2867 93.737 16.8918 93.3474 17.2815C92.9572 17.6719 92.4241 17.8359 91.8047 17.8359H91.216C91.2093 17.8359 91.2026 17.835 91.1963 17.8331C91.1897 17.8554 91.1835 17.8778 91.1775 17.9004C91.4146 17.9653 91.6642 18 91.9219 18ZM91.4726 17.2309C91.378 17.3727 91.3019 17.5267 91.2423 17.692L91.2455 17.6953H91.8047C92.3997 17.6953 92.892 17.5382 93.248 17.1821C93.6043 16.8256 93.8343 16.2595 93.8828 15.4198V15.1016H93.1691C92.2993 15.1016 91.7333 15.295 91.3852 15.5971C91.0388 15.8976 90.8971 16.3151 90.8957 16.7892V16.7896C90.8957 16.9546 90.8957 17.2525 91.138 17.5704C91.1965 17.4229 91.2685 17.2834 91.3556 17.1529C91.5834 16.8112 91.9116 16.5344 92.3621 16.3342C92.3976 16.3184 92.4391 16.3344 92.4549 16.3699C92.4706 16.4054 92.4547 16.4469 92.4192 16.4627C91.9907 16.6531 91.6842 16.9134 91.4726 17.2309Z"/>
</mask>
<path fill-rule="evenodd" clip-rule="evenodd" d="M91.9219 18C93.4752 18 94.7344 16.7408 94.7344 15.1875C94.7344 13.6342 93.4752 12.375 91.9219 12.375C90.3686 12.375 89.1094 13.6342 89.1094 15.1875C89.1094 16.4338 89.92 17.4907 91.0427 17.8599C91.0549 17.8143 91.0681 17.7694 91.0825 17.7251C90.7554 17.3449 90.7551 16.9751 90.7551 16.7891L90.7551 16.7889C90.7565 16.2864 90.9077 15.8251 91.293 15.4908C91.6766 15.1581 92.2812 14.9609 93.1691 14.9609H93.9531C93.992 14.9609 94.0234 14.9924 94.0234 15.0312V15.4219V15.4259L94.0233 15.4259C93.9739 16.2867 93.737 16.8918 93.3474 17.2815C92.9572 17.6719 92.4241 17.8359 91.8047 17.8359H91.216C91.2093 17.8359 91.2026 17.835 91.1963 17.8331C91.1897 17.8554 91.1835 17.8778 91.1775 17.9004C91.4146 17.9653 91.6642 18 91.9219 18ZM91.4726 17.2309C91.378 17.3727 91.3019 17.5267 91.2423 17.692L91.2455 17.6953H91.8047C92.3997 17.6953 92.892 17.5382 93.248 17.1821C93.6043 16.8256 93.8343 16.2595 93.8828 15.4198V15.1016H93.1691C92.2993 15.1016 91.7333 15.295 91.3852 15.5971C91.0388 15.8976 90.8971 16.3151 90.8957 16.7892V16.7896C90.8957 16.9546 90.8957 17.2525 91.138 17.5704C91.1965 17.4229 91.2685 17.2834 91.3556 17.1529C91.5834 16.8112 91.9116 16.5344 92.3621 16.3342C92.3976 16.3184 92.4391 16.3344 92.4549 16.3699C92.4706 16.4054 92.4547 16.4469 92.4192 16.4627C91.9907 16.6531 91.6842 16.9134 91.4726 17.2309Z" fill="#748C70"/>
<path d="M91.0427 17.8599L90.9988 17.9935L91.1402 18.0399L91.1786 17.8962L91.0427 17.8599ZM91.0825 17.7251L91.2163 17.7683L91.2406 17.6932L91.1891 17.6334L91.0825 17.7251ZM90.7551 16.7891L90.6145 16.7889V16.7891H90.7551ZM90.7551 16.7889L90.6145 16.7885L90.6145 16.7887L90.7551 16.7889ZM91.293 15.4908L91.3852 15.5971L91.293 15.4908ZM94.0234 15.4259L94.0153 15.5663L94.1641 15.5749V15.4259H94.0234ZM94.0233 15.4259L94.0314 15.2855L93.891 15.2774L93.8829 15.4178L94.0233 15.4259ZM93.3474 17.2815L93.4469 17.381L93.3474 17.2815ZM91.1963 17.8331L91.2358 17.6981L91.101 17.6587L91.0614 17.7934L91.1963 17.8331ZM91.1775 17.9004L91.0415 17.8643L91.0057 17.9992L91.1403 18.0361L91.1775 17.9004ZM91.2423 17.692L91.11 17.6443L91.0804 17.7265L91.1409 17.7894L91.2423 17.692ZM91.4726 17.2309L91.5896 17.3089L91.4726 17.2309ZM91.2455 17.6953L91.1441 17.7927L91.1856 17.8359H91.2455V17.6953ZM93.248 17.1821L93.1485 17.0827L93.248 17.1821ZM93.8828 15.4198L94.0234 15.428V15.4198H93.8828ZM93.8828 15.1016H94.0234V14.9609H93.8828V15.1016ZM91.3852 15.5971L91.4773 15.7033L91.3852 15.5971ZM90.8957 16.7892L90.7551 16.7888V16.7892H90.8957ZM90.8957 16.7896H91.0363H90.8957ZM91.138 17.5704L91.0262 17.6556L91.177 17.8535L91.2687 17.6222L91.138 17.5704ZM91.3556 17.1529L91.2386 17.0749H91.2386L91.3556 17.1529ZM92.3621 16.3342L92.4192 16.4627H92.4192L92.3621 16.3342ZM92.4192 16.4627L92.4763 16.5912H92.4763L92.4192 16.4627ZM94.5938 15.1875C94.5938 16.6631 93.3975 17.8594 91.9219 17.8594V18.1406C93.5528 18.1406 94.875 16.8185 94.875 15.1875H94.5938ZM91.9219 12.5156C93.3975 12.5156 94.5938 13.7119 94.5938 15.1875H94.875C94.875 13.5565 93.5528 12.2344 91.9219 12.2344V12.5156ZM89.25 15.1875C89.25 13.7119 90.4462 12.5156 91.9219 12.5156V12.2344C90.2909 12.2344 88.9688 13.5565 88.9688 15.1875H89.25ZM91.0867 17.7263C90.0199 17.3755 89.25 16.3712 89.25 15.1875H88.9688C88.9688 16.4963 89.8201 17.6059 90.9988 17.9935L91.0867 17.7263ZM91.1786 17.8962C91.1902 17.8529 91.2027 17.8103 91.2163 17.7683L90.9487 17.6818C90.9336 17.7285 90.9197 17.7757 90.9069 17.8235L91.1786 17.8962ZM91.1891 17.6334C90.8961 17.2928 90.8957 16.9665 90.8957 16.7891H90.6145C90.6145 16.9837 90.6147 17.397 90.9759 17.8168L91.1891 17.6334ZM90.8957 16.7892L90.8957 16.789L90.6145 16.7887L90.6145 16.7889L90.8957 16.7892ZM90.8957 16.7893C90.897 16.3151 91.0388 15.8976 91.3852 15.5971L91.2009 15.3846C90.7767 15.7526 90.6159 16.2576 90.6145 16.7885L90.8957 16.7893ZM91.3852 15.5971C91.7333 15.295 92.2992 15.1016 93.1691 15.1016V14.8203C92.2632 14.8203 91.6199 15.0211 91.2009 15.3846L91.3852 15.5971ZM93.1691 15.1016H93.9531V14.8203H93.1691V15.1016ZM93.9531 15.1016C93.9143 15.1016 93.8828 15.0701 93.8828 15.0312H94.1641C94.1641 14.9148 94.0696 14.8203 93.9531 14.8203V15.1016ZM93.8828 15.0312V15.4219H94.1641V15.0312H93.8828ZM93.8828 15.4219V15.4259H94.1641V15.4219H93.8828ZM94.0316 15.2855L94.0314 15.2855L94.0152 15.5663L94.0153 15.5663L94.0316 15.2855ZM93.8829 15.4178C93.8347 16.2586 93.6046 16.8254 93.248 17.1821L93.4469 17.381C93.8694 16.9583 94.1132 16.3149 94.1637 15.434L93.8829 15.4178ZM93.248 17.1821C92.892 17.5382 92.3998 17.6953 91.8047 17.6953V17.9766C92.4484 17.9766 93.0223 17.8057 93.4469 17.381L93.248 17.1821ZM91.8047 17.6953H91.216V17.9766H91.8047V17.6953ZM91.216 17.6953C91.2228 17.6953 91.2294 17.6963 91.2358 17.6981L91.1568 17.9681C91.1759 17.9737 91.1958 17.9766 91.216 17.9766V17.6953ZM91.0614 17.7934C91.0545 17.8169 91.0479 17.8405 91.0415 17.8643L91.3134 17.9365C91.3191 17.9151 91.325 17.8938 91.3312 17.8728L91.0614 17.7934ZM91.9219 17.8594C91.6768 17.8594 91.4397 17.8264 91.2146 17.7648L91.1403 18.0361C91.3894 18.1043 91.6515 18.1406 91.9219 18.1406V17.8594ZM91.3746 17.7397C91.4307 17.5842 91.5018 17.4405 91.5896 17.3089L91.3556 17.1529C91.2542 17.3049 91.1732 17.4692 91.11 17.6443L91.3746 17.7397ZM91.3469 17.5979L91.3437 17.5946L91.1409 17.7894L91.1441 17.7927L91.3469 17.5979ZM91.8047 17.5547H91.2455V17.8359H91.8047V17.5547ZM93.1485 17.0827C92.8269 17.4045 92.3753 17.5547 91.8047 17.5547V17.8359C92.4241 17.8359 92.9572 17.6719 93.3474 17.2815L93.1485 17.0827ZM93.7424 15.4117C93.6951 16.2313 93.472 16.7591 93.1485 17.0827L93.3474 17.2815C93.7367 16.8921 93.9735 16.2877 94.0232 15.428L93.7424 15.4117ZM93.7422 15.1016V15.4198H94.0234V15.1016H93.7422ZM93.1691 15.2422H93.8828V14.9609H93.1691V15.2422ZM91.4773 15.7033C91.7901 15.432 92.3173 15.2422 93.1691 15.2422V14.9609C92.2812 14.9609 91.6766 15.1581 91.293 15.4908L91.4773 15.7033ZM91.0363 16.7896C91.0376 16.3439 91.1698 15.9701 91.4773 15.7033L91.293 15.4908C90.9078 15.825 90.7565 16.2863 90.7551 16.7888L91.0363 16.7896ZM91.0363 16.7896V16.7892H90.7551V16.7896H91.0363ZM91.2499 17.4851C91.0368 17.2057 91.0363 16.9477 91.0363 16.7896H90.7551C90.7551 16.9615 90.7546 17.2994 91.0262 17.6556L91.2499 17.4851ZM91.2386 17.0749C91.1457 17.2142 91.0692 17.3625 91.0073 17.5185L91.2687 17.6222C91.3239 17.4833 91.3914 17.3527 91.4726 17.2309L91.2386 17.0749ZM92.305 16.2057C91.8326 16.4156 91.4825 16.7089 91.2386 17.0749L91.4726 17.2309C91.6842 16.9134 91.9907 16.6531 92.4192 16.4627L92.305 16.2057ZM92.5834 16.3128C92.5361 16.2063 92.4114 16.1584 92.305 16.2057L92.4192 16.4627C92.3837 16.4785 92.3421 16.4625 92.3264 16.427L92.5834 16.3128ZM92.4763 16.5912C92.5827 16.5439 92.6307 16.4192 92.5834 16.3128L92.3264 16.427C92.3106 16.3915 92.3266 16.35 92.3621 16.3342L92.4763 16.5912ZM91.5896 17.3089C91.785 17.0157 92.0697 16.7719 92.4763 16.5912L92.3621 16.3342C91.9116 16.5344 91.5834 16.8112 91.3556 17.1529L91.5896 17.3089Z" fill="white" mask="url(#path-2-inside-1_1_74377)"/>
<path d="M31.1266 24.2703L30.5388 26H30.0325L29.4053 23.6909H29.9256L30.3447 25.4656L30.9241 23.7359H31.3291L31.9028 25.4656L32.3247 23.6909H32.8478L32.2206 26H31.7144L31.1266 24.2703ZM34.9606 26.0675C34.7225 26.0675 34.5106 26.0141 34.325 25.9072C34.1412 25.8003 33.9969 25.6559 33.8919 25.4741C33.7869 25.2903 33.7344 25.0831 33.7344 24.8525C33.7344 24.6219 33.7869 24.4137 33.8919 24.2281C33.9969 24.0425 34.1412 23.8953 34.325 23.7866C34.5106 23.6778 34.7225 23.6234 34.9606 23.6234C35.1969 23.6234 35.4059 23.6778 35.5878 23.7866C35.7716 23.8953 35.915 24.0425 36.0181 24.2281C36.1212 24.4137 36.1728 24.6219 36.1728 24.8525C36.1728 25.0831 36.1212 25.2903 36.0181 25.4741C35.915 25.6559 35.7716 25.8003 35.5878 25.9072C35.4059 26.0141 35.1969 26.0675 34.9606 26.0675ZM34.9606 25.6484C35.1106 25.6484 35.2409 25.6137 35.3516 25.5444C35.4641 25.475 35.5512 25.3803 35.6131 25.2603C35.675 25.1384 35.7059 25.0016 35.7059 24.8497C35.7059 24.6978 35.675 24.5609 35.6131 24.4391C35.5512 24.3172 35.4641 24.2206 35.3516 24.1494C35.2409 24.0781 35.1106 24.0425 34.9606 24.0425C34.8087 24.0425 34.6766 24.0781 34.5641 24.1494C34.4516 24.2206 34.3634 24.3172 34.2997 24.4391C34.2378 24.5609 34.2069 24.6978 34.2069 24.8497C34.2069 25.0016 34.2378 25.1384 34.2997 25.2603C34.3634 25.3803 34.4516 25.475 34.5641 25.5444C34.6766 25.6137 34.8087 25.6484 34.9606 25.6484ZM40.0482 23.6234C40.2188 23.6234 40.365 23.6609 40.4869 23.7359C40.6088 23.8091 40.7016 23.9216 40.7654 24.0734C40.831 24.2253 40.8638 24.4194 40.8638 24.6556V26H40.38V24.7541C40.38 24.5047 40.3454 24.3172 40.276 24.1916C40.2066 24.0659 40.08 24.0031 39.8963 24.0031C39.7988 24.0031 39.705 24.0303 39.615 24.0847C39.5269 24.1372 39.4538 24.2187 39.3957 24.3294C39.3394 24.44 39.3113 24.5816 39.3113 24.7541V26H38.8557V24.7541C38.8557 24.5047 38.8125 24.3172 38.7263 24.1916C38.64 24.0659 38.5191 24.0031 38.3635 24.0031C38.2641 24.0031 38.1704 24.0294 38.0822 24.0819C37.996 24.1325 37.9257 24.2131 37.8713 24.3237C37.8169 24.4344 37.7897 24.5778 37.7897 24.7541V26H37.3032V23.6909H37.7897V24.0453C37.8104 23.9872 37.8544 23.9253 37.9219 23.8597C37.9913 23.7941 38.0794 23.7387 38.1863 23.6937C38.295 23.6469 38.416 23.6234 38.5491 23.6234C38.6879 23.6234 38.8041 23.6516 38.8979 23.7078C38.9916 23.7641 39.0657 23.8334 39.12 23.9159C39.1744 23.9966 39.2119 24.0744 39.2325 24.1494C39.2588 24.0687 39.3094 23.9881 39.3844 23.9075C39.4594 23.825 39.5541 23.7575 39.6685 23.705C39.7829 23.6506 39.9094 23.6234 40.0482 23.6234ZM42.4096 24.9453C42.4115 25.0841 42.4415 25.2106 42.4996 25.325C42.5577 25.4394 42.644 25.5303 42.7584 25.5978C42.8746 25.6653 43.0171 25.6991 43.1859 25.6991C43.3284 25.6991 43.4493 25.6784 43.5487 25.6372C43.6499 25.5941 43.7324 25.5434 43.7962 25.4853C43.8599 25.4253 43.9059 25.3719 43.934 25.325L44.1731 25.6203C44.1112 25.7103 44.0352 25.7891 43.9452 25.8566C43.8571 25.9241 43.7493 25.9756 43.6218 26.0113C43.4943 26.0488 43.3387 26.0675 43.1549 26.0675C42.9074 26.0675 42.6927 26.015 42.5109 25.91C42.3309 25.8031 42.1921 25.6559 42.0946 25.4684C41.9971 25.2791 41.9484 25.0625 41.9484 24.8187C41.9484 24.5937 41.9943 24.3912 42.0862 24.2112C42.1781 24.0294 42.3112 23.8859 42.4856 23.7809C42.6618 23.6759 42.8737 23.6234 43.1212 23.6234C43.3481 23.6234 43.5449 23.6712 43.7118 23.7669C43.8806 23.8606 44.0109 23.9937 44.1027 24.1662C44.1965 24.3387 44.2434 24.545 44.2434 24.785C44.2434 24.8 44.2424 24.8272 44.2406 24.8666C44.2387 24.9041 44.2368 24.9303 44.2349 24.9453H42.4096ZM43.7765 24.5769C43.7746 24.5 43.7521 24.4156 43.709 24.3237C43.6677 24.2319 43.6002 24.1531 43.5065 24.0875C43.4127 24.0219 43.2862 23.9891 43.1268 23.9891C42.9618 23.9891 42.8287 24.0209 42.7274 24.0847C42.6281 24.1484 42.5549 24.2262 42.5081 24.3181C42.4612 24.4081 42.434 24.4944 42.4265 24.5769H43.7765ZM46.6372 23.6234C46.789 23.6234 46.9362 23.6553 47.0787 23.7191C47.2231 23.7828 47.3412 23.8841 47.4331 24.0228C47.5268 24.1597 47.5737 24.3387 47.5737 24.56V26H47.0787V24.6556C47.0787 24.4269 47.0253 24.2609 46.9184 24.1578C46.8115 24.0528 46.6737 24.0003 46.505 24.0003C46.3943 24.0003 46.2875 24.0322 46.1843 24.0959C46.0831 24.1578 45.9997 24.2441 45.934 24.3547C45.8684 24.4634 45.8356 24.5872 45.8356 24.7259V26H45.3462V23.6909H45.8356V24.1016C45.8525 24.0378 45.8984 23.9684 45.9734 23.8934C46.0484 23.8184 46.144 23.7547 46.2603 23.7022C46.3765 23.6497 46.5022 23.6234 46.6372 23.6234ZM51.8278 25.6625C51.9741 25.6625 52.0922 25.6391 52.1822 25.5922C52.2722 25.5453 52.3285 25.5116 52.351 25.4909L52.59 25.8425C52.5713 25.8594 52.5263 25.8866 52.455 25.9241C52.3857 25.9597 52.2957 25.9925 52.185 26.0225C52.0763 26.0525 51.9525 26.0675 51.8138 26.0675C51.6019 26.0675 51.405 26.0206 51.2232 25.9269C51.0413 25.8312 50.8941 25.6925 50.7816 25.5106C50.671 25.3287 50.6157 25.1066 50.6157 24.8441C50.6157 24.5797 50.671 24.3575 50.7816 24.1775C50.8941 23.9956 51.0413 23.8578 51.2232 23.7641C51.405 23.6703 51.6019 23.6234 51.8138 23.6234C51.9507 23.6234 52.0725 23.6403 52.1794 23.6741C52.2863 23.7059 52.3744 23.7416 52.4438 23.7809C52.5132 23.8203 52.5591 23.8503 52.5816 23.8709L52.3397 24.2225C52.3247 24.2075 52.2957 24.185 52.2525 24.155C52.2113 24.1231 52.155 24.0941 52.0838 24.0678C52.0125 24.0416 51.9272 24.0284 51.8278 24.0284C51.7078 24.0284 51.5907 24.0612 51.4763 24.1269C51.3638 24.1906 51.271 24.2834 51.1978 24.4053C51.1247 24.5272 51.0882 24.6734 51.0882 24.8441C51.0882 25.0147 51.1247 25.1619 51.1978 25.2856C51.271 25.4075 51.3638 25.5012 51.4763 25.5669C51.5907 25.6306 51.7078 25.6625 51.8278 25.6625ZM54.1456 26H53.6534V22.13H54.1456V26ZM56.4817 26.0675C56.2436 26.0675 56.0317 26.0141 55.8461 25.9072C55.6624 25.8003 55.518 25.6559 55.413 25.4741C55.308 25.2903 55.2555 25.0831 55.2555 24.8525C55.2555 24.6219 55.308 24.4137 55.413 24.2281C55.518 24.0425 55.6624 23.8953 55.8461 23.7866C56.0317 23.6778 56.2436 23.6234 56.4817 23.6234C56.718 23.6234 56.9271 23.6778 57.1089 23.7866C57.2927 23.8953 57.4361 24.0425 57.5392 24.2281C57.6424 24.4137 57.6939 24.6219 57.6939 24.8525C57.6939 25.0831 57.6424 25.2903 57.5392 25.4741C57.4361 25.6559 57.2927 25.8003 57.1089 25.9072C56.9271 26.0141 56.718 26.0675 56.4817 26.0675ZM56.4817 25.6484C56.6317 25.6484 56.7621 25.6137 56.8727 25.5444C56.9852 25.475 57.0724 25.3803 57.1342 25.2603C57.1961 25.1384 57.2271 25.0016 57.2271 24.8497C57.2271 24.6978 57.1961 24.5609 57.1342 24.4391C57.0724 24.3172 56.9852 24.2206 56.8727 24.1494C56.7621 24.0781 56.6317 24.0425 56.4817 24.0425C56.3299 24.0425 56.1977 24.0781 56.0852 24.1494C55.9727 24.2206 55.8846 24.3172 55.8208 24.4391C55.7589 24.5609 55.728 24.6978 55.728 24.8497C55.728 25.0016 55.7589 25.1384 55.8208 25.2603C55.8846 25.3803 55.9727 25.475 56.0852 25.5444C56.1977 25.6137 56.3299 25.6484 56.4817 25.6484ZM58.6021 23.6909H59.0549V22.7431H59.5415V23.6909H60.1349V24.11H59.5415V25.2519C59.5415 25.3869 59.5649 25.4862 59.6118 25.55C59.6605 25.6137 59.7252 25.6456 59.8058 25.6456C59.8771 25.6456 59.9324 25.6325 59.9718 25.6062C60.0112 25.58 60.0346 25.5622 60.0421 25.5528L60.2362 25.9128C60.2249 25.9222 60.1949 25.94 60.1462 25.9662C60.0974 25.9925 60.0346 26.0159 59.9577 26.0366C59.8808 26.0572 59.7908 26.0675 59.6877 26.0675C59.5077 26.0675 59.3568 26.0131 59.2349 25.9044C59.1149 25.7937 59.0549 25.6194 59.0549 25.3812V24.11H58.6021V23.6909ZM62.5315 23.6234C62.6833 23.6234 62.8305 23.6553 62.973 23.7191C63.1174 23.7828 63.2355 23.8841 63.3274 24.0228C63.4212 24.1597 63.468 24.3387 63.468 24.56V26H62.973V24.6556C62.973 24.4269 62.9205 24.2609 62.8155 24.1578C62.7124 24.0528 62.5765 24.0003 62.4077 24.0003C62.2952 24.0003 62.1874 24.0322 62.0843 24.0959C61.9812 24.1578 61.8958 24.2441 61.8283 24.3547C61.7627 24.4634 61.7299 24.5872 61.7299 24.7259V26H61.2349V22.13H61.7299V24.1016C61.7468 24.0378 61.7918 23.9684 61.8649 23.8934C61.9399 23.8184 62.0355 23.7547 62.1518 23.7022C62.268 23.6497 62.3946 23.6234 62.5315 23.6234ZM64.7455 26V23.6909H65.2349V26H64.7455ZM64.9958 22.9006C64.9077 22.9006 64.8317 22.8697 64.768 22.8078C64.7061 22.7441 64.6752 22.6681 64.6752 22.58C64.6752 22.4919 64.7061 22.4159 64.768 22.3522C64.8317 22.2884 64.9077 22.2566 64.9958 22.2566C65.0539 22.2566 65.1074 22.2716 65.1561 22.3016C65.2067 22.3316 65.247 22.3709 65.277 22.4197C65.307 22.4666 65.322 22.52 65.322 22.58C65.322 22.6681 65.2902 22.7441 65.2264 22.8078C65.1627 22.8697 65.0858 22.9006 64.9958 22.9006ZM67.8364 23.6234C67.9882 23.6234 68.1354 23.6553 68.2779 23.7191C68.4223 23.7828 68.5404 23.8841 68.6323 24.0228C68.7261 24.1597 68.7729 24.3387 68.7729 24.56V26H68.2779V24.6556C68.2779 24.4269 68.2245 24.2609 68.1176 24.1578C68.0107 24.0528 67.8729 24.0003 67.7042 24.0003C67.5936 24.0003 67.4867 24.0322 67.3836 24.0959C67.2823 24.1578 67.1989 24.2441 67.1332 24.3547C67.0676 24.4634 67.0348 24.5872 67.0348 24.7259V26H66.5454V23.6909H67.0348V24.1016C67.0517 24.0378 67.0976 23.9684 67.1726 23.8934C67.2476 23.8184 67.3432 23.7547 67.4595 23.7022C67.5757 23.6497 67.7014 23.6234 67.8364 23.6234ZM71.0779 27.2347C70.896 27.2347 70.731 27.2159 70.5829 27.1784C70.4366 27.1409 70.3082 27.0875 70.1976 27.0181C70.0888 26.9506 70.0016 26.8709 69.936 26.7791L70.2566 26.4725C70.2922 26.5213 70.3401 26.5728 70.4001 26.6272C70.4619 26.6834 70.5454 26.7313 70.6504 26.7706C70.7554 26.81 70.8922 26.8297 71.061 26.8297C71.226 26.8297 71.3657 26.7941 71.4801 26.7228C71.5944 26.6534 71.6816 26.5588 71.7416 26.4388C71.8016 26.3188 71.8316 26.1838 71.8316 26.0338V25.9578H72.3097V26.0647C72.3097 26.3197 72.2544 26.5334 72.1438 26.7059C72.0351 26.8803 71.8879 27.0116 71.7022 27.0997C71.5166 27.1897 71.3085 27.2347 71.0779 27.2347ZM71.8316 26V25.55C71.8166 25.5969 71.7726 25.6616 71.6994 25.7441C71.6282 25.8266 71.5297 25.9016 71.4041 25.9691C71.2804 26.0347 71.1341 26.0675 70.9654 26.0675C70.7516 26.0675 70.5576 26.0169 70.3832 25.9156C70.2107 25.8144 70.0729 25.6728 69.9697 25.4909C69.8685 25.3072 69.8179 25.0925 69.8179 24.8469C69.8179 24.6012 69.8685 24.3875 69.9697 24.2056C70.0729 24.0219 70.2107 23.8794 70.3832 23.7781C70.5576 23.675 70.7516 23.6234 70.9654 23.6234C71.1322 23.6234 71.2766 23.6534 71.3985 23.7134C71.5222 23.7734 71.6207 23.8428 71.6938 23.9216C71.7688 24.0003 71.8129 24.0678 71.826 24.1241V23.6909H72.3097V26H71.8316ZM70.3016 24.8469C70.3016 25.0137 70.3382 25.1581 70.4113 25.28C70.4844 25.4019 70.5791 25.4966 70.6954 25.5641C70.8135 25.6297 70.9391 25.6625 71.0722 25.6625C71.2147 25.6625 71.3422 25.6287 71.4547 25.5612C71.5672 25.4937 71.6563 25.3991 71.7219 25.2772C71.7876 25.1534 71.8204 25.01 71.8204 24.8469C71.8204 24.6837 71.7876 24.5412 71.7219 24.4194C71.6563 24.2956 71.5672 24.2 71.4547 24.1325C71.3422 24.0631 71.2147 24.0284 71.0722 24.0284C70.9391 24.0284 70.8135 24.0622 70.6954 24.1297C70.5791 24.1972 70.4844 24.2919 70.4113 24.4137C70.3382 24.5356 70.3016 24.68 70.3016 24.8469Z" fill="#0C0C0C"/>
</svg>
