<svg width="103" height="32" viewBox="0 0 103 32" fill="none" xmlns="http://www.w3.org/2000/svg">
<path d="M19.7211 10.395C20.2791 10.395 20.7711 10.512 21.1971 10.746C21.6231 10.974 21.9561 11.328 22.1961 11.808C22.4421 12.288 22.5651 12.906 22.5651 13.662V18H19.8741V14.076C19.8741 13.56 19.7961 13.143 19.6401 12.825C19.4841 12.507 19.1751 12.348 18.7131 12.348C18.4371 12.348 18.1941 12.42 17.9841 12.564C17.7741 12.708 17.6121 12.909 17.4981 13.167C17.3841 13.419 17.3271 13.722 17.3271 14.076V18H14.8161V14.076C14.8161 13.56 14.7291 13.143 14.5551 12.825C14.3871 12.507 14.0871 12.348 13.6551 12.348C13.3791 12.348 13.1361 12.42 12.9261 12.564C12.7161 12.702 12.5541 12.9 12.4401 13.158C12.3321 13.41 12.2781 13.716 12.2781 14.076V18H9.5601V10.611H12.2781V11.664C12.3501 11.478 12.5061 11.289 12.7461 11.097C12.9921 10.899 13.2951 10.734 13.6551 10.602C14.0151 10.464 14.3961 10.395 14.7981 10.395C15.2361 10.395 15.6021 10.461 15.8961 10.593C16.1901 10.719 16.4301 10.89 16.6161 11.106C16.8081 11.322 16.9611 11.556 17.0751 11.808C17.1591 11.592 17.3241 11.376 17.5701 11.16C17.8221 10.938 18.1341 10.755 18.5061 10.611C18.8841 10.467 19.2891 10.395 19.7211 10.395ZM29.7119 18.216C28.9019 18.216 28.1819 18.051 27.5519 17.721C26.9279 17.385 26.4359 16.926 26.0759 16.344C25.7219 15.756 25.5449 15.084 25.5449 14.328C25.5449 13.572 25.7219 12.9 26.0759 12.312C26.4359 11.718 26.9279 11.25 27.5519 10.908C28.1819 10.566 28.9019 10.395 29.7119 10.395C30.5219 10.395 31.2359 10.566 31.8539 10.908C32.4719 11.25 32.9549 11.718 33.3029 12.312C33.6509 12.9 33.8249 13.572 33.8249 14.328C33.8249 15.084 33.6509 15.756 33.3029 16.344C32.9549 16.926 32.4719 17.385 31.8539 17.721C31.2359 18.051 30.5219 18.216 29.7119 18.216ZM29.7119 15.966C30.0239 15.966 30.2939 15.897 30.5219 15.759C30.7499 15.621 30.9269 15.426 31.0529 15.174C31.1789 14.922 31.2419 14.637 31.2419 14.319C31.2419 13.995 31.1789 13.707 31.0529 13.455C30.9269 13.203 30.7499 13.005 30.5219 12.861C30.2939 12.717 30.0239 12.645 29.7119 12.645C29.3999 12.645 29.1269 12.717 28.8929 12.861C28.6649 13.005 28.4849 13.203 28.3529 13.455C28.2269 13.707 28.1639 13.995 28.1639 14.319C28.1639 14.637 28.2269 14.922 28.3529 15.174C28.4849 15.426 28.6649 15.621 28.8929 15.759C29.1269 15.897 29.3999 15.966 29.7119 15.966ZM40.2168 18.216C39.5028 18.216 38.8818 18.042 38.3538 17.694C37.8258 17.34 37.4148 16.869 37.1208 16.281C36.8328 15.687 36.6888 15.03 36.6888 14.31C36.6888 13.59 36.8328 12.936 37.1208 12.348C37.4148 11.754 37.8258 11.28 38.3538 10.926C38.8818 10.572 39.5028 10.395 40.2168 10.395C40.6908 10.395 41.1108 10.47 41.4768 10.62C41.8428 10.764 42.1398 10.938 42.3678 11.142C42.5958 11.34 42.7338 11.523 42.7818 11.691V5.616H45.5178V18H42.8088V16.803C42.6948 17.025 42.5088 17.247 42.2508 17.469C41.9928 17.685 41.6898 17.862 41.3418 18C40.9938 18.144 40.6188 18.216 40.2168 18.216ZM41.0538 16.065C41.3838 16.065 41.6778 15.99 41.9358 15.84C42.1998 15.69 42.4068 15.483 42.5568 15.219C42.7068 14.949 42.7818 14.646 42.7818 14.31C42.7818 13.974 42.7068 13.674 42.5568 13.41C42.4068 13.14 42.1998 12.93 41.9358 12.78C41.6778 12.624 41.3838 12.546 41.0538 12.546C40.7358 12.546 40.4478 12.624 40.1898 12.78C39.9378 12.93 39.7368 13.14 39.5868 13.41C39.4428 13.674 39.3708 13.974 39.3708 14.31C39.3708 14.646 39.4428 14.949 39.5868 15.219C39.7368 15.483 39.9378 15.69 40.1898 15.84C40.4478 15.99 40.7358 16.065 41.0538 16.065ZM48.9935 18V10.611H51.7295V18H48.9935ZM50.3975 9.09C49.9655 9.09 49.5995 8.94 49.2995 8.64C48.9995 8.334 48.8495 7.971 48.8495 7.551C48.8495 7.131 48.9995 6.768 49.2995 6.462C49.6055 6.15 49.9715 5.994 50.3975 5.994C50.6795 5.994 50.9375 6.066 51.1715 6.21C51.4055 6.348 51.5945 6.534 51.7385 6.768C51.8825 7.002 51.9545 7.263 51.9545 7.551C51.9545 7.971 51.8015 8.334 51.4955 8.64C51.1895 8.94 50.8235 9.09 50.3975 9.09ZM65.5754 10.395C66.1334 10.395 66.6254 10.512 67.0514 10.746C67.4774 10.974 67.8104 11.328 68.0504 11.808C68.2964 12.288 68.4194 12.906 68.4194 13.662V18H65.7284V14.076C65.7284 13.56 65.6504 13.143 65.4944 12.825C65.3384 12.507 65.0294 12.348 64.5674 12.348C64.2914 12.348 64.0484 12.42 63.8384 12.564C63.6284 12.708 63.4664 12.909 63.3524 13.167C63.2384 13.419 63.1814 13.722 63.1814 14.076V18H60.6704V14.076C60.6704 13.56 60.5834 13.143 60.4094 12.825C60.2414 12.507 59.9414 12.348 59.5094 12.348C59.2334 12.348 58.9904 12.42 58.7804 12.564C58.5704 12.702 58.4084 12.9 58.2944 13.158C58.1864 13.41 58.1324 13.716 58.1324 14.076V18H55.4144V10.611H58.1324V11.664C58.2044 11.478 58.3604 11.289 58.6004 11.097C58.8464 10.899 59.1494 10.734 59.5094 10.602C59.8694 10.464 60.2504 10.395 60.6524 10.395C61.0904 10.395 61.4564 10.461 61.7504 10.593C62.0444 10.719 62.2844 10.89 62.4704 11.106C62.6624 11.322 62.8154 11.556 62.9294 11.808C63.0134 11.592 63.1784 11.376 63.4244 11.16C63.6764 10.938 63.9884 10.755 64.3604 10.611C64.7384 10.467 65.1434 10.395 65.5754 10.395ZM77.5372 18V16.803C77.4832 16.923 77.3452 17.097 77.1232 17.325C76.9072 17.553 76.6192 17.76 76.2592 17.946C75.8992 18.126 75.4792 18.216 74.9992 18.216C74.2792 18.216 73.6492 18.042 73.1092 17.694C72.5692 17.34 72.1492 16.869 71.8492 16.281C71.5492 15.687 71.3992 15.03 71.3992 14.31C71.3992 13.59 71.5492 12.936 71.8492 12.348C72.1492 11.754 72.5692 11.28 73.1092 10.926C73.6492 10.572 74.2792 10.395 74.9992 10.395C75.4612 10.395 75.8662 10.47 76.2142 10.62C76.5622 10.764 76.8442 10.938 77.0602 11.142C77.2762 11.34 77.4262 11.523 77.5102 11.691V10.611H80.2282V18H77.5372ZM74.0812 14.31C74.0812 14.646 74.1592 14.949 74.3152 15.219C74.4712 15.483 74.6782 15.69 74.9362 15.84C75.2002 15.99 75.4912 16.065 75.8092 16.065C76.1392 16.065 76.4302 15.99 76.6822 15.84C76.9342 15.69 77.1322 15.483 77.2762 15.219C77.4262 14.949 77.5012 14.646 77.5012 14.31C77.5012 13.974 77.4262 13.674 77.2762 13.41C77.1322 13.14 76.9342 12.93 76.6822 12.78C76.4302 12.624 76.1392 12.546 75.8092 12.546C75.4912 12.546 75.2002 12.624 74.9362 12.78C74.6782 12.93 74.4712 13.14 74.3152 13.41C74.1592 13.674 74.0812 13.974 74.0812 14.31ZM86.5004 18H83.7554V5.616H86.5004V18Z" fill="#404040"/>
<mask id="path-2-inside-1_1_74363" fill="white">
<path fill-rule="evenodd" clip-rule="evenodd" d="M92.1719 18C93.7252 18 94.9844 16.7408 94.9844 15.1875C94.9844 13.6342 93.7252 12.375 92.1719 12.375C90.6186 12.375 89.3594 13.6342 89.3594 15.1875C89.3594 16.4338 90.17 17.4907 91.2927 17.8599C91.3049 17.8143 91.3181 17.7694 91.3325 17.7251C91.0054 17.3449 91.0051 16.9751 91.0051 16.7891L91.0051 16.7889C91.0065 16.2864 91.1577 15.8251 91.543 15.4908C91.9266 15.1581 92.5312 14.9609 93.4191 14.9609H94.2031C94.242 14.9609 94.2734 14.9924 94.2734 15.0312V15.4219V15.4259L94.2733 15.4259C94.2239 16.2867 93.987 16.8918 93.5974 17.2815C93.2072 17.6719 92.6741 17.8359 92.0547 17.8359H91.466C91.4593 17.8359 91.4526 17.835 91.4463 17.8331C91.4397 17.8554 91.4335 17.8778 91.4275 17.9004C91.6646 17.9653 91.9142 18 92.1719 18ZM91.7226 17.2309C91.628 17.3727 91.5519 17.5267 91.4923 17.692L91.4955 17.6953H92.0547C92.6497 17.6953 93.142 17.5382 93.498 17.1821C93.8543 16.8256 94.0843 16.2595 94.1328 15.4198V15.1016H93.4191C92.5493 15.1016 91.9833 15.295 91.6352 15.5971C91.2888 15.8976 91.1471 16.3151 91.1457 16.7892V16.7896C91.1457 16.9546 91.1457 17.2525 91.388 17.5704C91.4465 17.4229 91.5185 17.2834 91.6056 17.1529C91.8334 16.8112 92.1616 16.5344 92.6121 16.3342C92.6476 16.3184 92.6891 16.3344 92.7049 16.3699C92.7206 16.4054 92.7047 16.4469 92.6692 16.4627C92.2407 16.6531 91.9342 16.9134 91.7226 17.2309Z"/>
</mask>
<path fill-rule="evenodd" clip-rule="evenodd" d="M92.1719 18C93.7252 18 94.9844 16.7408 94.9844 15.1875C94.9844 13.6342 93.7252 12.375 92.1719 12.375C90.6186 12.375 89.3594 13.6342 89.3594 15.1875C89.3594 16.4338 90.17 17.4907 91.2927 17.8599C91.3049 17.8143 91.3181 17.7694 91.3325 17.7251C91.0054 17.3449 91.0051 16.9751 91.0051 16.7891L91.0051 16.7889C91.0065 16.2864 91.1577 15.8251 91.543 15.4908C91.9266 15.1581 92.5312 14.9609 93.4191 14.9609H94.2031C94.242 14.9609 94.2734 14.9924 94.2734 15.0312V15.4219V15.4259L94.2733 15.4259C94.2239 16.2867 93.987 16.8918 93.5974 17.2815C93.2072 17.6719 92.6741 17.8359 92.0547 17.8359H91.466C91.4593 17.8359 91.4526 17.835 91.4463 17.8331C91.4397 17.8554 91.4335 17.8778 91.4275 17.9004C91.6646 17.9653 91.9142 18 92.1719 18ZM91.7226 17.2309C91.628 17.3727 91.5519 17.5267 91.4923 17.692L91.4955 17.6953H92.0547C92.6497 17.6953 93.142 17.5382 93.498 17.1821C93.8543 16.8256 94.0843 16.2595 94.1328 15.4198V15.1016H93.4191C92.5493 15.1016 91.9833 15.295 91.6352 15.5971C91.2888 15.8976 91.1471 16.3151 91.1457 16.7892V16.7896C91.1457 16.9546 91.1457 17.2525 91.388 17.5704C91.4465 17.4229 91.5185 17.2834 91.6056 17.1529C91.8334 16.8112 92.1616 16.5344 92.6121 16.3342C92.6476 16.3184 92.6891 16.3344 92.7049 16.3699C92.7206 16.4054 92.7047 16.4469 92.6692 16.4627C92.2407 16.6531 91.9342 16.9134 91.7226 17.2309Z" fill="#748C70"/>
<path d="M91.2927 17.8599L91.2488 17.9935L91.3902 18.0399L91.4286 17.8962L91.2927 17.8599ZM91.3325 17.7251L91.4663 17.7683L91.4906 17.6932L91.4391 17.6334L91.3325 17.7251ZM91.0051 16.7891L90.8645 16.7889V16.7891H91.0051ZM91.0051 16.7889L90.8645 16.7885L90.8645 16.7887L91.0051 16.7889ZM91.543 15.4908L91.6352 15.5971L91.543 15.4908ZM94.2734 15.4259L94.2653 15.5663L94.4141 15.5749V15.4259H94.2734ZM94.2733 15.4259L94.2814 15.2855L94.141 15.2774L94.1329 15.4178L94.2733 15.4259ZM93.5974 17.2815L93.6969 17.381L93.5974 17.2815ZM91.4463 17.8331L91.4858 17.6981L91.351 17.6587L91.3114 17.7934L91.4463 17.8331ZM91.4275 17.9004L91.2915 17.8643L91.2557 17.9992L91.3903 18.0361L91.4275 17.9004ZM91.4923 17.692L91.36 17.6443L91.3304 17.7265L91.3909 17.7894L91.4923 17.692ZM91.7226 17.2309L91.8396 17.3089L91.7226 17.2309ZM91.4955 17.6953L91.3941 17.7927L91.4356 17.8359H91.4955V17.6953ZM93.498 17.1821L93.3985 17.0827L93.498 17.1821ZM94.1328 15.4198L94.2734 15.428V15.4198H94.1328ZM94.1328 15.1016H94.2734V14.9609H94.1328V15.1016ZM91.6352 15.5971L91.7273 15.7033L91.6352 15.5971ZM91.1457 16.7892L91.0051 16.7888V16.7892H91.1457ZM91.1457 16.7896H91.2863H91.1457ZM91.388 17.5704L91.2762 17.6556L91.427 17.8535L91.5187 17.6222L91.388 17.5704ZM91.6056 17.1529L91.4886 17.0749H91.4886L91.6056 17.1529ZM92.6121 16.3342L92.6692 16.4627H92.6692L92.6121 16.3342ZM92.6692 16.4627L92.7263 16.5912H92.7263L92.6692 16.4627ZM94.8438 15.1875C94.8438 16.6631 93.6475 17.8594 92.1719 17.8594V18.1406C93.8028 18.1406 95.125 16.8185 95.125 15.1875H94.8438ZM92.1719 12.5156C93.6475 12.5156 94.8438 13.7119 94.8438 15.1875H95.125C95.125 13.5565 93.8028 12.2344 92.1719 12.2344V12.5156ZM89.5 15.1875C89.5 13.7119 90.6962 12.5156 92.1719 12.5156V12.2344C90.5409 12.2344 89.2188 13.5565 89.2188 15.1875H89.5ZM91.3367 17.7263C90.2699 17.3755 89.5 16.3712 89.5 15.1875H89.2188C89.2188 16.4963 90.0701 17.6059 91.2488 17.9935L91.3367 17.7263ZM91.4286 17.8962C91.4402 17.8529 91.4527 17.8103 91.4663 17.7683L91.1987 17.6818C91.1836 17.7285 91.1697 17.7757 91.1569 17.8235L91.4286 17.8962ZM91.4391 17.6334C91.1461 17.2928 91.1457 16.9665 91.1457 16.7891H90.8645C90.8645 16.9837 90.8647 17.397 91.2259 17.8168L91.4391 17.6334ZM91.1457 16.7892L91.1457 16.789L90.8645 16.7887L90.8645 16.7889L91.1457 16.7892ZM91.1457 16.7893C91.147 16.3151 91.2888 15.8976 91.6352 15.5971L91.4509 15.3846C91.0267 15.7526 90.8659 16.2576 90.8645 16.7885L91.1457 16.7893ZM91.6352 15.5971C91.9833 15.295 92.5492 15.1016 93.4191 15.1016V14.8203C92.5132 14.8203 91.8699 15.0211 91.4509 15.3846L91.6352 15.5971ZM93.4191 15.1016H94.2031V14.8203H93.4191V15.1016ZM94.2031 15.1016C94.1643 15.1016 94.1328 15.0701 94.1328 15.0312H94.4141C94.4141 14.9148 94.3196 14.8203 94.2031 14.8203V15.1016ZM94.1328 15.0312V15.4219H94.4141V15.0312H94.1328ZM94.1328 15.4219V15.4259H94.4141V15.4219H94.1328ZM94.2816 15.2855L94.2814 15.2855L94.2652 15.5663L94.2653 15.5663L94.2816 15.2855ZM94.1329 15.4178C94.0847 16.2586 93.8546 16.8254 93.498 17.1821L93.6969 17.381C94.1194 16.9583 94.3632 16.3149 94.4137 15.434L94.1329 15.4178ZM93.498 17.1821C93.142 17.5382 92.6498 17.6953 92.0547 17.6953V17.9766C92.6984 17.9766 93.2723 17.8057 93.6969 17.381L93.498 17.1821ZM92.0547 17.6953H91.466V17.9766H92.0547V17.6953ZM91.466 17.6953C91.4728 17.6953 91.4794 17.6963 91.4858 17.6981L91.4068 17.9681C91.4259 17.9737 91.4458 17.9766 91.466 17.9766V17.6953ZM91.3114 17.7934C91.3045 17.8169 91.2979 17.8405 91.2915 17.8643L91.5634 17.9365C91.5691 17.9151 91.575 17.8938 91.5812 17.8728L91.3114 17.7934ZM92.1719 17.8594C91.9268 17.8594 91.6897 17.8264 91.4646 17.7648L91.3903 18.0361C91.6394 18.1043 91.9015 18.1406 92.1719 18.1406V17.8594ZM91.6246 17.7397C91.6807 17.5842 91.7518 17.4405 91.8396 17.3089L91.6056 17.1529C91.5042 17.3049 91.4232 17.4692 91.36 17.6443L91.6246 17.7397ZM91.5969 17.5979L91.5937 17.5946L91.3909 17.7894L91.3941 17.7927L91.5969 17.5979ZM92.0547 17.5547H91.4955V17.8359H92.0547V17.5547ZM93.3985 17.0827C93.0769 17.4045 92.6253 17.5547 92.0547 17.5547V17.8359C92.6741 17.8359 93.2072 17.6719 93.5974 17.2815L93.3985 17.0827ZM93.9924 15.4117C93.9451 16.2313 93.722 16.7591 93.3985 17.0827L93.5974 17.2815C93.9867 16.8921 94.2235 16.2877 94.2732 15.428L93.9924 15.4117ZM93.9922 15.1016V15.4198H94.2734V15.1016H93.9922ZM93.4191 15.2422H94.1328V14.9609H93.4191V15.2422ZM91.7273 15.7033C92.0401 15.432 92.5673 15.2422 93.4191 15.2422V14.9609C92.5312 14.9609 91.9266 15.1581 91.543 15.4908L91.7273 15.7033ZM91.2863 16.7896C91.2876 16.3439 91.4198 15.9701 91.7273 15.7033L91.543 15.4908C91.1578 15.825 91.0065 16.2863 91.0051 16.7888L91.2863 16.7896ZM91.2863 16.7896V16.7892H91.0051V16.7896H91.2863ZM91.4999 17.4851C91.2868 17.2057 91.2863 16.9477 91.2863 16.7896H91.0051C91.0051 16.9615 91.0046 17.2994 91.2762 17.6556L91.4999 17.4851ZM91.4886 17.0749C91.3957 17.2142 91.3192 17.3625 91.2573 17.5185L91.5187 17.6222C91.5739 17.4833 91.6414 17.3527 91.7226 17.2309L91.4886 17.0749ZM92.555 16.2057C92.0826 16.4156 91.7325 16.7089 91.4886 17.0749L91.7226 17.2309C91.9342 16.9134 92.2407 16.6531 92.6692 16.4627L92.555 16.2057ZM92.8334 16.3128C92.7861 16.2063 92.6614 16.1584 92.555 16.2057L92.6692 16.4627C92.6337 16.4785 92.5921 16.4625 92.5764 16.427L92.8334 16.3128ZM92.7263 16.5912C92.8327 16.5439 92.8807 16.4192 92.8334 16.3128L92.5764 16.427C92.5606 16.3915 92.5766 16.35 92.6121 16.3342L92.7263 16.5912ZM91.8396 17.3089C92.035 17.0157 92.3197 16.7719 92.7263 16.5912L92.6121 16.3342C92.1616 16.5344 91.8334 16.8112 91.6056 17.1529L91.8396 17.3089Z" fill="white" mask="url(#path-2-inside-1_1_74363)"/>
<path d="M31.3766 24.2703L30.7888 26H30.2825L29.6553 23.6909H30.1756L30.5947 25.4656L31.1741 23.7359H31.5791L32.1528 25.4656L32.5747 23.6909H33.0978L32.4706 26H31.9644L31.3766 24.2703ZM35.2106 26.0675C34.9725 26.0675 34.7606 26.0141 34.575 25.9072C34.3912 25.8003 34.2469 25.6559 34.1419 25.4741C34.0369 25.2903 33.9844 25.0831 33.9844 24.8525C33.9844 24.6219 34.0369 24.4137 34.1419 24.2281C34.2469 24.0425 34.3912 23.8953 34.575 23.7866C34.7606 23.6778 34.9725 23.6234 35.2106 23.6234C35.4469 23.6234 35.6559 23.6778 35.8378 23.7866C36.0216 23.8953 36.165 24.0425 36.2681 24.2281C36.3712 24.4137 36.4228 24.6219 36.4228 24.8525C36.4228 25.0831 36.3712 25.2903 36.2681 25.4741C36.165 25.6559 36.0216 25.8003 35.8378 25.9072C35.6559 26.0141 35.4469 26.0675 35.2106 26.0675ZM35.2106 25.6484C35.3606 25.6484 35.4909 25.6137 35.6016 25.5444C35.7141 25.475 35.8012 25.3803 35.8631 25.2603C35.925 25.1384 35.9559 25.0016 35.9559 24.8497C35.9559 24.6978 35.925 24.5609 35.8631 24.4391C35.8012 24.3172 35.7141 24.2206 35.6016 24.1494C35.4909 24.0781 35.3606 24.0425 35.2106 24.0425C35.0587 24.0425 34.9266 24.0781 34.8141 24.1494C34.7016 24.2206 34.6134 24.3172 34.5497 24.4391C34.4878 24.5609 34.4569 24.6978 34.4569 24.8497C34.4569 25.0016 34.4878 25.1384 34.5497 25.2603C34.6134 25.3803 34.7016 25.475 34.8141 25.5444C34.9266 25.6137 35.0587 25.6484 35.2106 25.6484ZM40.2982 23.6234C40.4688 23.6234 40.615 23.6609 40.7369 23.7359C40.8588 23.8091 40.9516 23.9216 41.0154 24.0734C41.081 24.2253 41.1138 24.4194 41.1138 24.6556V26H40.63V24.7541C40.63 24.5047 40.5954 24.3172 40.526 24.1916C40.4566 24.0659 40.33 24.0031 40.1463 24.0031C40.0488 24.0031 39.955 24.0303 39.865 24.0847C39.7769 24.1372 39.7038 24.2187 39.6457 24.3294C39.5894 24.44 39.5613 24.5816 39.5613 24.7541V26H39.1057V24.7541C39.1057 24.5047 39.0625 24.3172 38.9763 24.1916C38.89 24.0659 38.7691 24.0031 38.6135 24.0031C38.5141 24.0031 38.4204 24.0294 38.3322 24.0819C38.246 24.1325 38.1757 24.2131 38.1213 24.3237C38.0669 24.4344 38.0397 24.5778 38.0397 24.7541V26H37.5532V23.6909H38.0397V24.0453C38.0604 23.9872 38.1044 23.9253 38.1719 23.8597C38.2413 23.7941 38.3294 23.7387 38.4363 23.6937C38.545 23.6469 38.666 23.6234 38.7991 23.6234C38.9379 23.6234 39.0541 23.6516 39.1479 23.7078C39.2416 23.7641 39.3157 23.8334 39.37 23.9159C39.4244 23.9966 39.4619 24.0744 39.4825 24.1494C39.5088 24.0687 39.5594 23.9881 39.6344 23.9075C39.7094 23.825 39.8041 23.7575 39.9185 23.705C40.0329 23.6506 40.1594 23.6234 40.2982 23.6234ZM42.6596 24.9453C42.6615 25.0841 42.6915 25.2106 42.7496 25.325C42.8077 25.4394 42.894 25.5303 43.0084 25.5978C43.1246 25.6653 43.2671 25.6991 43.4359 25.6991C43.5784 25.6991 43.6993 25.6784 43.7987 25.6372C43.8999 25.5941 43.9824 25.5434 44.0462 25.4853C44.1099 25.4253 44.1559 25.3719 44.184 25.325L44.4231 25.6203C44.3612 25.7103 44.2852 25.7891 44.1952 25.8566C44.1071 25.9241 43.9993 25.9756 43.8718 26.0113C43.7443 26.0488 43.5887 26.0675 43.4049 26.0675C43.1574 26.0675 42.9427 26.015 42.7609 25.91C42.5809 25.8031 42.4421 25.6559 42.3446 25.4684C42.2471 25.2791 42.1984 25.0625 42.1984 24.8187C42.1984 24.5937 42.2443 24.3912 42.3362 24.2112C42.4281 24.0294 42.5612 23.8859 42.7356 23.7809C42.9118 23.6759 43.1237 23.6234 43.3712 23.6234C43.5981 23.6234 43.7949 23.6712 43.9618 23.7669C44.1306 23.8606 44.2609 23.9937 44.3527 24.1662C44.4465 24.3387 44.4934 24.545 44.4934 24.785C44.4934 24.8 44.4924 24.8272 44.4906 24.8666C44.4887 24.9041 44.4868 24.9303 44.4849 24.9453H42.6596ZM44.0265 24.5769C44.0246 24.5 44.0021 24.4156 43.959 24.3237C43.9177 24.2319 43.8502 24.1531 43.7565 24.0875C43.6627 24.0219 43.5362 23.9891 43.3768 23.9891C43.2118 23.9891 43.0787 24.0209 42.9774 24.0847C42.8781 24.1484 42.8049 24.2262 42.7581 24.3181C42.7112 24.4081 42.684 24.4944 42.6765 24.5769H44.0265ZM46.8872 23.6234C47.039 23.6234 47.1862 23.6553 47.3287 23.7191C47.4731 23.7828 47.5912 23.8841 47.6831 24.0228C47.7768 24.1597 47.8237 24.3387 47.8237 24.56V26H47.3287V24.6556C47.3287 24.4269 47.2753 24.2609 47.1684 24.1578C47.0615 24.0528 46.9237 24.0003 46.755 24.0003C46.6443 24.0003 46.5375 24.0322 46.4343 24.0959C46.3331 24.1578 46.2497 24.2441 46.184 24.3547C46.1184 24.4634 46.0856 24.5872 46.0856 24.7259V26H45.5962V23.6909H46.0856V24.1016C46.1025 24.0378 46.1484 23.9684 46.2234 23.8934C46.2984 23.8184 46.394 23.7547 46.5103 23.7022C46.6265 23.6497 46.7522 23.6234 46.8872 23.6234ZM52.0778 25.6625C52.2241 25.6625 52.3422 25.6391 52.4322 25.5922C52.5222 25.5453 52.5785 25.5116 52.601 25.4909L52.84 25.8425C52.8213 25.8594 52.7763 25.8866 52.705 25.9241C52.6357 25.9597 52.5457 25.9925 52.435 26.0225C52.3263 26.0525 52.2025 26.0675 52.0638 26.0675C51.8519 26.0675 51.655 26.0206 51.4732 25.9269C51.2913 25.8312 51.1441 25.6925 51.0316 25.5106C50.921 25.3287 50.8657 25.1066 50.8657 24.8441C50.8657 24.5797 50.921 24.3575 51.0316 24.1775C51.1441 23.9956 51.2913 23.8578 51.4732 23.7641C51.655 23.6703 51.8519 23.6234 52.0638 23.6234C52.2007 23.6234 52.3225 23.6403 52.4294 23.6741C52.5363 23.7059 52.6244 23.7416 52.6938 23.7809C52.7632 23.8203 52.8091 23.8503 52.8316 23.8709L52.5897 24.2225C52.5747 24.2075 52.5457 24.185 52.5025 24.155C52.4613 24.1231 52.405 24.0941 52.3338 24.0678C52.2625 24.0416 52.1772 24.0284 52.0778 24.0284C51.9578 24.0284 51.8407 24.0612 51.7263 24.1269C51.6138 24.1906 51.521 24.2834 51.4478 24.4053C51.3747 24.5272 51.3382 24.6734 51.3382 24.8441C51.3382 25.0147 51.3747 25.1619 51.4478 25.2856C51.521 25.4075 51.6138 25.5012 51.7263 25.5669C51.8407 25.6306 51.9578 25.6625 52.0778 25.6625ZM54.3956 26H53.9034V22.13H54.3956V26ZM56.7317 26.0675C56.4936 26.0675 56.2817 26.0141 56.0961 25.9072C55.9124 25.8003 55.768 25.6559 55.663 25.4741C55.558 25.2903 55.5055 25.0831 55.5055 24.8525C55.5055 24.6219 55.558 24.4137 55.663 24.2281C55.768 24.0425 55.9124 23.8953 56.0961 23.7866C56.2817 23.6778 56.4936 23.6234 56.7317 23.6234C56.968 23.6234 57.1771 23.6778 57.3589 23.7866C57.5427 23.8953 57.6861 24.0425 57.7892 24.2281C57.8924 24.4137 57.9439 24.6219 57.9439 24.8525C57.9439 25.0831 57.8924 25.2903 57.7892 25.4741C57.6861 25.6559 57.5427 25.8003 57.3589 25.9072C57.1771 26.0141 56.968 26.0675 56.7317 26.0675ZM56.7317 25.6484C56.8817 25.6484 57.0121 25.6137 57.1227 25.5444C57.2352 25.475 57.3224 25.3803 57.3842 25.2603C57.4461 25.1384 57.4771 25.0016 57.4771 24.8497C57.4771 24.6978 57.4461 24.5609 57.3842 24.4391C57.3224 24.3172 57.2352 24.2206 57.1227 24.1494C57.0121 24.0781 56.8817 24.0425 56.7317 24.0425C56.5799 24.0425 56.4477 24.0781 56.3352 24.1494C56.2227 24.2206 56.1346 24.3172 56.0708 24.4391C56.0089 24.5609 55.978 24.6978 55.978 24.8497C55.978 25.0016 56.0089 25.1384 56.0708 25.2603C56.1346 25.3803 56.2227 25.475 56.3352 25.5444C56.4477 25.6137 56.5799 25.6484 56.7317 25.6484ZM58.8521 23.6909H59.3049V22.7431H59.7915V23.6909H60.3849V24.11H59.7915V25.2519C59.7915 25.3869 59.8149 25.4862 59.8618 25.55C59.9105 25.6137 59.9752 25.6456 60.0558 25.6456C60.1271 25.6456 60.1824 25.6325 60.2218 25.6062C60.2612 25.58 60.2846 25.5622 60.2921 25.5528L60.4862 25.9128C60.4749 25.9222 60.4449 25.94 60.3962 25.9662C60.3474 25.9925 60.2846 26.0159 60.2077 26.0366C60.1308 26.0572 60.0408 26.0675 59.9377 26.0675C59.7577 26.0675 59.6068 26.0131 59.4849 25.9044C59.3649 25.7937 59.3049 25.6194 59.3049 25.3812V24.11H58.8521V23.6909ZM62.7815 23.6234C62.9333 23.6234 63.0805 23.6553 63.223 23.7191C63.3674 23.7828 63.4855 23.8841 63.5774 24.0228C63.6712 24.1597 63.718 24.3387 63.718 24.56V26H63.223V24.6556C63.223 24.4269 63.1705 24.2609 63.0655 24.1578C62.9624 24.0528 62.8265 24.0003 62.6577 24.0003C62.5452 24.0003 62.4374 24.0322 62.3343 24.0959C62.2312 24.1578 62.1458 24.2441 62.0783 24.3547C62.0127 24.4634 61.9799 24.5872 61.9799 24.7259V26H61.4849V22.13H61.9799V24.1016C61.9968 24.0378 62.0418 23.9684 62.1149 23.8934C62.1899 23.8184 62.2855 23.7547 62.4018 23.7022C62.518 23.6497 62.6446 23.6234 62.7815 23.6234ZM64.9955 26V23.6909H65.4849V26H64.9955ZM65.2458 22.9006C65.1577 22.9006 65.0817 22.8697 65.018 22.8078C64.9561 22.7441 64.9252 22.6681 64.9252 22.58C64.9252 22.4919 64.9561 22.4159 65.018 22.3522C65.0817 22.2884 65.1577 22.2566 65.2458 22.2566C65.3039 22.2566 65.3574 22.2716 65.4061 22.3016C65.4567 22.3316 65.497 22.3709 65.527 22.4197C65.557 22.4666 65.572 22.52 65.572 22.58C65.572 22.6681 65.5402 22.7441 65.4764 22.8078C65.4127 22.8697 65.3358 22.9006 65.2458 22.9006ZM68.0864 23.6234C68.2382 23.6234 68.3854 23.6553 68.5279 23.7191C68.6723 23.7828 68.7904 23.8841 68.8823 24.0228C68.9761 24.1597 69.0229 24.3387 69.0229 24.56V26H68.5279V24.6556C68.5279 24.4269 68.4745 24.2609 68.3676 24.1578C68.2607 24.0528 68.1229 24.0003 67.9542 24.0003C67.8436 24.0003 67.7367 24.0322 67.6336 24.0959C67.5323 24.1578 67.4489 24.2441 67.3832 24.3547C67.3176 24.4634 67.2848 24.5872 67.2848 24.7259V26H66.7954V23.6909H67.2848V24.1016C67.3017 24.0378 67.3476 23.9684 67.4226 23.8934C67.4976 23.8184 67.5932 23.7547 67.7095 23.7022C67.8257 23.6497 67.9514 23.6234 68.0864 23.6234ZM71.3279 27.2347C71.146 27.2347 70.981 27.2159 70.8329 27.1784C70.6866 27.1409 70.5582 27.0875 70.4476 27.0181C70.3388 26.9506 70.2516 26.8709 70.186 26.7791L70.5066 26.4725C70.5422 26.5213 70.5901 26.5728 70.6501 26.6272C70.7119 26.6834 70.7954 26.7313 70.9004 26.7706C71.0054 26.81 71.1422 26.8297 71.311 26.8297C71.476 26.8297 71.6157 26.7941 71.7301 26.7228C71.8444 26.6534 71.9316 26.5588 71.9916 26.4388C72.0516 26.3188 72.0816 26.1838 72.0816 26.0338V25.9578H72.5597V26.0647C72.5597 26.3197 72.5044 26.5334 72.3938 26.7059C72.2851 26.8803 72.1379 27.0116 71.9522 27.0997C71.7666 27.1897 71.5585 27.2347 71.3279 27.2347ZM72.0816 26V25.55C72.0666 25.5969 72.0226 25.6616 71.9494 25.7441C71.8782 25.8266 71.7797 25.9016 71.6541 25.9691C71.5304 26.0347 71.3841 26.0675 71.2154 26.0675C71.0016 26.0675 70.8076 26.0169 70.6332 25.9156C70.4607 25.8144 70.3229 25.6728 70.2197 25.4909C70.1185 25.3072 70.0679 25.0925 70.0679 24.8469C70.0679 24.6012 70.1185 24.3875 70.2197 24.2056C70.3229 24.0219 70.4607 23.8794 70.6332 23.7781C70.8076 23.675 71.0016 23.6234 71.2154 23.6234C71.3822 23.6234 71.5266 23.6534 71.6485 23.7134C71.7722 23.7734 71.8707 23.8428 71.9438 23.9216C72.0188 24.0003 72.0629 24.0678 72.076 24.1241V23.6909H72.5597V26H72.0816ZM70.5516 24.8469C70.5516 25.0137 70.5882 25.1581 70.6613 25.28C70.7344 25.4019 70.8291 25.4966 70.9454 25.5641C71.0635 25.6297 71.1891 25.6625 71.3222 25.6625C71.4647 25.6625 71.5922 25.6287 71.7047 25.5612C71.8172 25.4937 71.9063 25.3991 71.9719 25.2772C72.0376 25.1534 72.0704 25.01 72.0704 24.8469C72.0704 24.6837 72.0376 24.5412 71.9719 24.4194C71.9063 24.2956 71.8172 24.2 71.7047 24.1325C71.5922 24.0631 71.4647 24.0284 71.3222 24.0284C71.1891 24.0284 71.0635 24.0622 70.9454 24.1297C70.8291 24.1972 70.7344 24.2919 70.6613 24.4137C70.5882 24.5356 70.5516 24.68 70.5516 24.8469Z" fill="#404040"/>
</svg>
