<svg width="138" height="40" viewBox="0 0 138 40" fill="none" xmlns="http://www.w3.org/2000/svg">
<path d="M26.9615 12.36C27.7055 12.36 28.3615 12.516 28.9295 12.828C29.4975 13.132 29.9415 13.604 30.2615 14.244C30.5895 14.884 30.7535 15.708 30.7535 16.716V22.5H27.1655V17.268C27.1655 16.58 27.0615 16.024 26.8535 15.6C26.6455 15.176 26.2335 14.964 25.6175 14.964C25.2495 14.964 24.9255 15.06 24.6455 15.252C24.3655 15.444 24.1495 15.712 23.9975 16.056C23.8455 16.392 23.7695 16.796 23.7695 17.268V22.5H20.4215V17.268C20.4215 16.58 20.3055 16.024 20.0735 15.6C19.8495 15.176 19.4495 14.964 18.8735 14.964C18.5055 14.964 18.1815 15.06 17.9015 15.252C17.6215 15.436 17.4055 15.7 17.2535 16.044C17.1095 16.38 17.0375 16.788 17.0375 17.268V22.5H13.4135V12.648H17.0375V14.052C17.1335 13.804 17.3415 13.552 17.6615 13.296C17.9895 13.032 18.3935 12.812 18.8735 12.636C19.3535 12.452 19.8615 12.36 20.3975 12.36C20.9815 12.36 21.4695 12.448 21.8615 12.624C22.2535 12.792 22.5735 13.02 22.8215 13.308C23.0775 13.596 23.2815 13.908 23.4335 14.244C23.5455 13.956 23.7655 13.668 24.0935 13.38C24.4295 13.084 24.8455 12.84 25.3415 12.648C25.8455 12.456 26.3855 12.36 26.9615 12.36ZM40.2826 22.788C39.2026 22.788 38.2426 22.568 37.4026 22.128C36.5706 21.68 35.9146 21.068 35.4346 20.292C34.9626 19.508 34.7266 18.612 34.7266 17.604C34.7266 16.596 34.9626 15.7 35.4346 14.916C35.9146 14.124 36.5706 13.5 37.4026 13.044C38.2426 12.588 39.2026 12.36 40.2826 12.36C41.3626 12.36 42.3146 12.588 43.1386 13.044C43.9626 13.5 44.6066 14.124 45.0706 14.916C45.5346 15.7 45.7666 16.596 45.7666 17.604C45.7666 18.612 45.5346 19.508 45.0706 20.292C44.6066 21.068 43.9626 21.68 43.1386 22.128C42.3146 22.568 41.3626 22.788 40.2826 22.788ZM40.2826 19.788C40.6986 19.788 41.0586 19.696 41.3626 19.512C41.6666 19.328 41.9026 19.068 42.0706 18.732C42.2386 18.396 42.3226 18.016 42.3226 17.592C42.3226 17.16 42.2386 16.776 42.0706 16.44C41.9026 16.104 41.6666 15.84 41.3626 15.648C41.0586 15.456 40.6986 15.36 40.2826 15.36C39.8666 15.36 39.5026 15.456 39.1906 15.648C38.8866 15.84 38.6466 16.104 38.4706 16.44C38.3026 16.776 38.2186 17.16 38.2186 17.592C38.2186 18.016 38.3026 18.396 38.4706 18.732C38.6466 19.068 38.8866 19.328 39.1906 19.512C39.5026 19.696 39.8666 19.788 40.2826 19.788ZM54.289 22.788C53.337 22.788 52.509 22.556 51.805 22.092C51.101 21.62 50.553 20.992 50.161 20.208C49.777 19.416 49.585 18.54 49.585 17.58C49.585 16.62 49.777 15.748 50.161 14.964C50.553 14.172 51.101 13.54 51.805 13.068C52.509 12.596 53.337 12.36 54.289 12.36C54.921 12.36 55.481 12.46 55.969 12.66C56.457 12.852 56.853 13.084 57.157 13.356C57.461 13.62 57.645 13.864 57.709 14.088V5.988H61.357V22.5H57.745V20.904C57.593 21.2 57.345 21.496 57.001 21.792C56.657 22.08 56.253 22.316 55.789 22.5C55.325 22.692 54.825 22.788 54.289 22.788ZM55.405 19.92C55.845 19.92 56.237 19.82 56.581 19.62C56.933 19.42 57.209 19.144 57.409 18.792C57.609 18.432 57.709 18.028 57.709 17.58C57.709 17.132 57.609 16.732 57.409 16.38C57.209 16.02 56.933 15.74 56.581 15.54C56.237 15.332 55.845 15.228 55.405 15.228C54.981 15.228 54.597 15.332 54.253 15.54C53.917 15.74 53.649 16.02 53.449 16.38C53.257 16.732 53.161 17.132 53.161 17.58C53.161 18.028 53.257 18.432 53.449 18.792C53.649 19.144 53.917 19.42 54.253 19.62C54.597 19.82 54.981 19.92 55.405 19.92ZM65.9913 22.5V12.648H69.6393V22.5H65.9913ZM67.8633 10.62C67.2873 10.62 66.7993 10.42 66.3993 10.02C65.9993 9.612 65.7993 9.128 65.7993 8.568C65.7993 8.008 65.9993 7.524 66.3993 7.116C66.8073 6.7 67.2953 6.492 67.8633 6.492C68.2393 6.492 68.5833 6.588 68.8953 6.78C69.2073 6.964 69.4593 7.212 69.6513 7.524C69.8433 7.836 69.9393 8.184 69.9393 8.568C69.9393 9.128 69.7353 9.612 69.3273 10.02C68.9193 10.42 68.4313 10.62 67.8633 10.62ZM88.1005 12.36C88.8445 12.36 89.5005 12.516 90.0685 12.828C90.6365 13.132 91.0805 13.604 91.4005 14.244C91.7285 14.884 91.8925 15.708 91.8925 16.716V22.5H88.3045V17.268C88.3045 16.58 88.2005 16.024 87.9925 15.6C87.7845 15.176 87.3725 14.964 86.7565 14.964C86.3885 14.964 86.0645 15.06 85.7845 15.252C85.5045 15.444 85.2885 15.712 85.1365 16.056C84.9845 16.392 84.9085 16.796 84.9085 17.268V22.5H81.5605V17.268C81.5605 16.58 81.4445 16.024 81.2125 15.6C80.9885 15.176 80.5885 14.964 80.0125 14.964C79.6445 14.964 79.3205 15.06 79.0405 15.252C78.7605 15.436 78.5445 15.7 78.3925 16.044C78.2485 16.38 78.1765 16.788 78.1765 17.268V22.5H74.5525V12.648H78.1765V14.052C78.2725 13.804 78.4805 13.552 78.8005 13.296C79.1285 13.032 79.5325 12.812 80.0125 12.636C80.4925 12.452 81.0005 12.36 81.5365 12.36C82.1205 12.36 82.6085 12.448 83.0005 12.624C83.3925 12.792 83.7125 13.02 83.9605 13.308C84.2165 13.596 84.4205 13.908 84.5725 14.244C84.6845 13.956 84.9045 13.668 85.2325 13.38C85.5685 13.084 85.9845 12.84 86.4805 12.648C86.9845 12.456 87.5245 12.36 88.1005 12.36ZM104.05 22.5V20.904C103.978 21.064 103.794 21.296 103.498 21.6C103.21 21.904 102.826 22.18 102.346 22.428C101.866 22.668 101.306 22.788 100.666 22.788C99.7057 22.788 98.8657 22.556 98.1457 22.092C97.4257 21.62 96.8657 20.992 96.4657 20.208C96.0657 19.416 95.8657 18.54 95.8657 17.58C95.8657 16.62 96.0657 15.748 96.4657 14.964C96.8657 14.172 97.4257 13.54 98.1457 13.068C98.8657 12.596 99.7057 12.36 100.666 12.36C101.282 12.36 101.822 12.46 102.286 12.66C102.75 12.852 103.126 13.084 103.414 13.356C103.702 13.62 103.902 13.864 104.014 14.088V12.648H107.638V22.5H104.05ZM99.4417 17.58C99.4417 18.028 99.5457 18.432 99.7537 18.792C99.9617 19.144 100.238 19.42 100.582 19.62C100.934 19.82 101.322 19.92 101.746 19.92C102.186 19.92 102.574 19.82 102.91 19.62C103.246 19.42 103.51 19.144 103.702 18.792C103.902 18.432 104.002 18.028 104.002 17.58C104.002 17.132 103.902 16.732 103.702 16.38C103.51 16.02 103.246 15.74 102.91 15.54C102.574 15.332 102.186 15.228 101.746 15.228C101.322 15.228 100.934 15.332 100.582 15.54C100.238 15.74 99.9617 16.02 99.7537 16.38C99.5457 16.732 99.4417 17.132 99.4417 17.58ZM116.001 22.5H112.341V5.988H116.001V22.5Z" fill="#0C0C0C"/>
<mask id="path-2-inside-1_1_74356" fill="white">
<path fill-rule="evenodd" clip-rule="evenodd" d="M123.562 22.5C125.634 22.5 127.312 20.8211 127.312 18.75C127.312 16.6789 125.634 15 123.562 15C121.491 15 119.812 16.6789 119.812 18.75C119.812 20.4117 120.893 21.821 122.39 22.3132C122.407 22.2524 122.424 22.1925 122.443 22.1334C122.007 21.6265 122.007 21.1335 122.007 20.8854L122.007 20.8852C122.009 20.2152 122.21 19.6001 122.724 19.1544C123.235 18.7108 124.042 18.4479 125.226 18.4479H126.271C126.323 18.4479 126.365 18.4899 126.365 18.5417V19.0625V19.0679L126.364 19.0679C126.299 20.2156 125.983 21.0224 125.463 21.5421C124.943 22.0626 124.232 22.2812 123.406 22.2812H122.621C122.612 22.2812 122.604 22.28 122.595 22.2775C122.586 22.3071 122.578 22.3371 122.57 22.3672C122.886 22.4538 123.219 22.5 123.562 22.5ZM122.963 21.4745C122.837 21.6636 122.736 21.8689 122.656 22.0893L122.661 22.0937H123.406C124.2 22.0937 124.856 21.8843 125.331 21.4095C125.806 20.9342 126.112 20.1793 126.177 19.0598V18.6354H125.226C124.066 18.6354 123.311 18.8934 122.847 19.2961C122.385 19.6968 122.196 20.2535 122.194 20.8855V20.8861C122.194 21.1061 122.194 21.5033 122.517 21.9272C122.595 21.7305 122.691 21.5446 122.807 21.3705C123.111 20.9149 123.549 20.5458 124.149 20.2789C124.197 20.2579 124.252 20.2792 124.273 20.3265C124.294 20.3738 124.273 20.4292 124.226 20.4503C123.654 20.7042 123.246 21.0513 122.963 21.4745Z"/>
</mask>
<path fill-rule="evenodd" clip-rule="evenodd" d="M123.562 22.5C125.634 22.5 127.312 20.8211 127.312 18.75C127.312 16.6789 125.634 15 123.562 15C121.491 15 119.812 16.6789 119.812 18.75C119.812 20.4117 120.893 21.821 122.39 22.3132C122.407 22.2524 122.424 22.1925 122.443 22.1334C122.007 21.6265 122.007 21.1335 122.007 20.8854L122.007 20.8852C122.009 20.2152 122.21 19.6001 122.724 19.1544C123.235 18.7108 124.042 18.4479 125.226 18.4479H126.271C126.323 18.4479 126.365 18.4899 126.365 18.5417V19.0625V19.0679L126.364 19.0679C126.299 20.2156 125.983 21.0224 125.463 21.5421C124.943 22.0626 124.232 22.2812 123.406 22.2812H122.621C122.612 22.2812 122.604 22.28 122.595 22.2775C122.586 22.3071 122.578 22.3371 122.57 22.3672C122.886 22.4538 123.219 22.5 123.562 22.5ZM122.963 21.4745C122.837 21.6636 122.736 21.8689 122.656 22.0893L122.661 22.0937H123.406C124.2 22.0937 124.856 21.8843 125.331 21.4095C125.806 20.9342 126.112 20.1793 126.177 19.0598V18.6354H125.226C124.066 18.6354 123.311 18.8934 122.847 19.2961C122.385 19.6968 122.196 20.2535 122.194 20.8855V20.8861C122.194 21.1061 122.194 21.5033 122.517 21.9272C122.595 21.7305 122.691 21.5446 122.807 21.3705C123.111 20.9149 123.549 20.5458 124.149 20.2789C124.197 20.2579 124.252 20.2792 124.273 20.3265C124.294 20.3738 124.273 20.4292 124.226 20.4503C123.654 20.7042 123.246 21.0513 122.963 21.4745Z" fill="#748C70"/>
<path d="M122.39 22.3132L122.332 22.4913L122.52 22.5532L122.571 22.3616L122.39 22.3132ZM122.443 22.1334L122.622 22.1911L122.654 22.091L122.585 22.0112L122.443 22.1334ZM122.007 20.8854L121.819 20.8851V20.8854H122.007ZM122.007 20.8852L121.819 20.8846L121.819 20.8848L122.007 20.8852ZM122.724 19.1544L122.847 19.2961L122.724 19.1544ZM126.365 19.0679L126.354 19.2551L126.552 19.2661V19.0679H126.365ZM126.364 19.0679L126.375 18.8807L126.188 18.8702L126.177 19.0571L126.364 19.0679ZM125.463 21.5421L125.596 21.6746L125.463 21.5421ZM122.595 22.2775L122.648 22.0975L122.468 22.045L122.415 22.2246L122.595 22.2775ZM122.57 22.3672L122.389 22.3191L122.341 22.4989L122.52 22.5481L122.57 22.3672ZM122.656 22.0893L122.48 22.0258L122.441 22.1353L122.521 22.2193L122.656 22.0893ZM122.963 21.4745L123.119 21.5785L122.963 21.4745ZM122.661 22.0937L122.525 22.2237L122.581 22.2812H122.661V22.0937ZM125.331 21.4095L125.198 21.2769L125.331 21.4095ZM126.177 19.0598L126.365 19.0706V19.0598H126.177ZM126.177 18.6354H126.365V18.4479H126.177V18.6354ZM122.847 19.2961L122.97 19.4377L122.847 19.2961ZM122.194 20.8855L122.007 20.885V20.8855H122.194ZM122.194 20.8861L122.382 20.8861V20.8861H122.194ZM122.517 21.9272L122.368 22.0409L122.569 22.3046L122.692 21.9963L122.517 21.9272ZM122.807 21.3705L122.963 21.4745L122.807 21.3705ZM124.149 20.2789L124.226 20.4503H124.226L124.149 20.2789ZM124.226 20.4503L124.302 20.6216L124.226 20.4503ZM127.125 18.75C127.125 20.7175 125.53 22.3125 123.562 22.3125V22.6875C125.737 22.6875 127.5 20.9246 127.5 18.75H127.125ZM123.562 15.1875C125.53 15.1875 127.125 16.7825 127.125 18.75H127.5C127.5 16.5754 125.737 14.8125 123.562 14.8125V15.1875ZM120 18.75C120 16.7825 121.595 15.1875 123.562 15.1875V14.8125C121.388 14.8125 119.625 16.5754 119.625 18.75H120ZM122.449 22.135C121.027 21.6674 120 20.3283 120 18.75H119.625C119.625 20.4951 120.76 21.9745 122.332 22.4913L122.449 22.135ZM122.571 22.3616C122.587 22.3038 122.604 22.247 122.622 22.1911L122.265 22.0758C122.245 22.138 122.226 22.201 122.209 22.2647L122.571 22.3616ZM122.585 22.0112C122.195 21.557 122.194 21.122 122.194 20.8854H121.819C121.819 21.145 121.82 21.696 122.301 22.2557L122.585 22.0112ZM122.194 20.8858L122.194 20.8855L121.819 20.8848L121.819 20.8851L122.194 20.8858ZM122.194 20.8857C122.196 20.2535 122.385 19.6968 122.847 19.2961L122.601 19.0128C122.036 19.5034 121.821 20.1769 121.819 20.8846L122.194 20.8857ZM122.847 19.2961C123.311 18.8934 124.066 18.6354 125.226 18.6354V18.2604C124.018 18.2604 123.16 18.5282 122.601 19.0128L122.847 19.2961ZM125.226 18.6354H126.271V18.2604H125.226V18.6354ZM126.271 18.6354C126.219 18.6354 126.177 18.5934 126.177 18.5417H126.552C126.552 18.3863 126.426 18.2604 126.271 18.2604V18.6354ZM126.177 18.5417V19.0625H126.552V18.5417H126.177ZM126.177 19.0625V19.0679H126.552V19.0625H126.177ZM126.375 18.8807L126.375 18.8807L126.354 19.2551L126.354 19.2551L126.375 18.8807ZM126.177 19.0571C126.113 20.1781 125.806 20.9338 125.331 21.4095L125.596 21.6746C126.159 21.1111 126.484 20.2531 126.552 19.0786L126.177 19.0571ZM125.331 21.4095C124.856 21.8843 124.2 22.0937 123.406 22.0937V22.4687C124.265 22.4687 125.03 22.2409 125.596 21.6746L125.331 21.4095ZM123.406 22.0937H122.621V22.4687H123.406V22.0937ZM122.621 22.0937C122.63 22.0937 122.639 22.095 122.648 22.0975L122.542 22.4574C122.568 22.4649 122.594 22.4687 122.621 22.4687V22.0937ZM122.415 22.2246C122.406 22.2558 122.397 22.2874 122.389 22.3191L122.751 22.4154C122.759 22.3868 122.767 22.3585 122.775 22.3304L122.415 22.2246ZM123.562 22.3125C123.236 22.3125 122.92 22.2686 122.619 22.1864L122.52 22.5481C122.853 22.639 123.202 22.6875 123.562 22.6875V22.3125ZM122.833 22.1529C122.908 21.9455 123.002 21.754 123.119 21.5785L122.807 21.3705C122.672 21.5732 122.564 21.7923 122.48 22.0258L122.833 22.1529ZM122.796 21.9638L122.792 21.9594L122.521 22.2193L122.525 22.2237L122.796 21.9638ZM123.406 21.9062H122.661V22.2812H123.406V21.9062ZM125.198 21.2769C124.769 21.706 124.167 21.9062 123.406 21.9062V22.2812C124.232 22.2812 124.943 22.0626 125.463 21.5421L125.198 21.2769ZM125.99 19.049C125.927 20.1417 125.629 20.8455 125.198 21.2769L125.463 21.5421C125.982 21.0229 126.298 20.2169 126.364 19.0706L125.99 19.049ZM125.99 18.6354V19.0598H126.365V18.6354H125.99ZM125.226 18.8229H126.177V18.4479H125.226V18.8229ZM122.97 19.4377C123.387 19.076 124.09 18.8229 125.226 18.8229V18.4479C124.042 18.4479 123.235 18.7108 122.724 19.1544L122.97 19.4377ZM122.382 20.8861C122.383 20.2919 122.56 19.7935 122.97 19.4377L122.724 19.1544C122.21 19.6 122.009 20.2151 122.007 20.885L122.382 20.8861ZM122.382 20.8861V20.8855H122.007V20.8861H122.382ZM122.666 21.8135C122.382 21.4409 122.382 21.0969 122.382 20.8861L122.007 20.8861C122.007 21.1153 122.006 21.5658 122.368 22.0409L122.666 21.8135ZM122.651 21.2665C122.528 21.4522 122.426 21.65 122.343 21.858L122.692 21.9963C122.765 21.8111 122.855 21.6369 122.963 21.4745L122.651 21.2665ZM124.073 20.1076C123.443 20.3875 122.977 20.7785 122.651 21.2665L122.963 21.4745C123.246 21.0513 123.654 20.7042 124.226 20.4503L124.073 20.1076ZM124.445 20.2504C124.381 20.1084 124.215 20.0445 124.073 20.1076L124.226 20.4503C124.178 20.4713 124.123 20.45 124.102 20.4027L124.445 20.2504ZM124.302 20.6216C124.444 20.5585 124.508 20.3923 124.445 20.2504L124.102 20.4027C124.081 20.3553 124.102 20.2999 124.149 20.2789L124.302 20.6216ZM123.119 21.5785C123.38 21.1876 123.76 20.8625 124.302 20.6216L124.149 20.2789C123.549 20.5458 123.111 20.9149 122.807 21.3705L123.119 21.5785Z" fill="white" mask="url(#path-2-inside-1_1_74356)"/>
<path d="M42.5021 31.1937L41.7183 33.5H41.0433L40.2071 30.4212H40.9008L41.4596 32.7875L42.2321 30.4812H42.7721L43.5371 32.7875L44.0996 30.4212H44.7971L43.9608 33.5H43.2858L42.5021 31.1937ZM47.6142 33.59C47.2967 33.59 47.0142 33.5188 46.7667 33.3763C46.5217 33.2337 46.3292 33.0412 46.1892 32.7987C46.0492 32.5537 45.9792 32.2775 45.9792 31.97C45.9792 31.6625 46.0492 31.385 46.1892 31.1375C46.3292 30.89 46.5217 30.6937 46.7667 30.5487C47.0142 30.4037 47.2967 30.3312 47.6142 30.3312C47.9292 30.3312 48.2079 30.4037 48.4504 30.5487C48.6954 30.6937 48.8867 30.89 49.0242 31.1375C49.1617 31.385 49.2304 31.6625 49.2304 31.97C49.2304 32.2775 49.1617 32.5537 49.0242 32.7987C48.8867 33.0412 48.6954 33.2337 48.4504 33.3763C48.2079 33.5188 47.9292 33.59 47.6142 33.59ZM47.6142 33.0312C47.8142 33.0312 47.9879 32.985 48.1354 32.8925C48.2854 32.8 48.4017 32.6737 48.4842 32.5137C48.5667 32.3512 48.6079 32.1687 48.6079 31.9662C48.6079 31.7637 48.5667 31.5812 48.4842 31.4187C48.4017 31.2562 48.2854 31.1275 48.1354 31.0325C47.9879 30.9375 47.8142 30.89 47.6142 30.89C47.4117 30.89 47.2354 30.9375 47.0854 31.0325C46.9354 31.1275 46.8179 31.2562 46.7329 31.4187C46.6504 31.5812 46.6092 31.7637 46.6092 31.9662C46.6092 32.1687 46.6504 32.3512 46.7329 32.5137C46.8179 32.6737 46.9354 32.8 47.0854 32.8925C47.2354 32.985 47.4117 33.0312 47.6142 33.0312ZM54.3976 30.3312C54.6251 30.3312 54.8201 30.3812 54.9826 30.4812C55.1451 30.5787 55.2688 30.7287 55.3538 30.9312C55.4413 31.1337 55.4851 31.3925 55.4851 31.7075V33.5H54.8401V31.8387C54.8401 31.5062 54.7938 31.2562 54.7013 31.0887C54.6088 30.9212 54.4401 30.8375 54.1951 30.8375C54.0651 30.8375 53.9401 30.8737 53.8201 30.9462C53.7026 31.0162 53.6051 31.125 53.5276 31.2725C53.4526 31.42 53.4151 31.6087 53.4151 31.8387V33.5H52.8076V31.8387C52.8076 31.5062 52.7501 31.2562 52.6351 31.0887C52.5201 30.9212 52.3588 30.8375 52.1513 30.8375C52.0188 30.8375 51.8938 30.8725 51.7763 30.9425C51.6613 31.01 51.5676 31.1175 51.4951 31.265C51.4226 31.4125 51.3863 31.6037 51.3863 31.8387V33.5H50.7376V30.4212H51.3863V30.8937C51.4138 30.8162 51.4726 30.7337 51.5626 30.6462C51.6551 30.5587 51.7726 30.485 51.9151 30.425C52.0601 30.3625 52.2213 30.3312 52.3988 30.3312C52.5838 30.3312 52.7388 30.3687 52.8638 30.4437C52.9888 30.5187 53.0876 30.6112 53.1601 30.7212C53.2326 30.8287 53.2826 30.9325 53.3101 31.0325C53.3451 30.925 53.4126 30.8175 53.5126 30.71C53.6126 30.6 53.7388 30.51 53.8913 30.44C54.0438 30.3675 54.2126 30.3312 54.3976 30.3312ZM57.5462 32.0937C57.5487 32.2787 57.5887 32.4475 57.6662 32.6C57.7437 32.7525 57.8587 32.8737 58.0112 32.9637C58.1662 33.0537 58.3562 33.0987 58.5812 33.0987C58.7712 33.0987 58.9324 33.0712 59.0649 33.0162C59.1999 32.9587 59.3099 32.8912 59.3949 32.8137C59.4799 32.7337 59.5412 32.6625 59.5787 32.6L59.8974 32.9937C59.8149 33.1137 59.7137 33.2187 59.5937 33.3087C59.4762 33.3987 59.3324 33.4675 59.1624 33.515C58.9924 33.565 58.7849 33.59 58.5399 33.59C58.2099 33.59 57.9237 33.52 57.6812 33.38C57.4412 33.2375 57.2562 33.0412 57.1262 32.7912C56.9962 32.5387 56.9312 32.25 56.9312 31.925C56.9312 31.625 56.9924 31.355 57.1149 31.115C57.2374 30.8725 57.4149 30.6812 57.6474 30.5412C57.8824 30.4012 58.1649 30.3312 58.4949 30.3312C58.7974 30.3312 59.0599 30.395 59.2824 30.5225C59.5074 30.6475 59.6812 30.825 59.8037 31.055C59.9287 31.285 59.9912 31.56 59.9912 31.88C59.9912 31.9 59.9899 31.9362 59.9874 31.9887C59.9849 32.0387 59.9824 32.0737 59.9799 32.0937H57.5462ZM59.3687 31.6025C59.3662 31.5 59.3362 31.3875 59.2787 31.265C59.2237 31.1425 59.1337 31.0375 59.0087 30.95C58.8837 30.8625 58.7149 30.8187 58.5024 30.8187C58.2824 30.8187 58.1049 30.8612 57.9699 30.9462C57.8374 31.0312 57.7399 31.135 57.6774 31.2575C57.6149 31.3775 57.5787 31.4925 57.5687 31.6025H59.3687ZM63.1829 30.3312C63.3854 30.3312 63.5816 30.3737 63.7716 30.4587C63.9641 30.5437 64.1216 30.6787 64.2441 30.8637C64.3691 31.0462 64.4316 31.285 64.4316 31.58V33.5H63.7716V31.7075C63.7716 31.4025 63.7004 31.1812 63.5579 31.0437C63.4154 30.9037 63.2316 30.8337 63.0066 30.8337C62.8591 30.8337 62.7166 30.8762 62.5791 30.9612C62.4441 31.0437 62.3329 31.1587 62.2454 31.3062C62.1579 31.4512 62.1141 31.6162 62.1141 31.8012V33.5H61.4616V30.4212H62.1141V30.9687C62.1366 30.8837 62.1979 30.7912 62.2979 30.6912C62.3979 30.5912 62.5254 30.5062 62.6804 30.4362C62.8354 30.3662 63.0029 30.3312 63.1829 30.3312ZM70.1038 33.05C70.2988 33.05 70.4563 33.0187 70.5763 32.9562C70.6963 32.8937 70.7713 32.8487 70.8013 32.8212L71.12 33.29C71.095 33.3125 71.035 33.3487 70.94 33.3987C70.8475 33.4462 70.7275 33.49 70.58 33.53C70.435 33.57 70.27 33.59 70.085 33.59C69.8025 33.59 69.54 33.5275 69.2975 33.4025C69.055 33.275 68.8588 33.09 68.7088 32.8475C68.5613 32.605 68.4875 32.3087 68.4875 31.9587C68.4875 31.6062 68.5613 31.31 68.7088 31.07C68.8588 30.8275 69.055 30.6437 69.2975 30.5187C69.54 30.3937 69.8025 30.3312 70.085 30.3312C70.2675 30.3312 70.43 30.3537 70.5725 30.3987C70.715 30.4412 70.8325 30.4887 70.925 30.5412C71.0175 30.5937 71.0788 30.6337 71.1088 30.6612L70.7863 31.13C70.7663 31.11 70.7275 31.08 70.67 31.04C70.615 30.9975 70.54 30.9587 70.445 30.9237C70.35 30.8887 70.2363 30.8712 70.1038 30.8712C69.9438 30.8712 69.7875 30.915 69.635 31.0025C69.485 31.0875 69.3613 31.2112 69.2638 31.3737C69.1663 31.5362 69.1175 31.7312 69.1175 31.9587C69.1175 32.1862 69.1663 32.3825 69.2638 32.5475C69.3613 32.71 69.485 32.835 69.635 32.9225C69.7875 33.0075 69.9438 33.05 70.1038 33.05ZM73.1941 33.5H72.5378V28.34H73.1941V33.5ZM76.309 33.59C75.9915 33.59 75.709 33.5188 75.4615 33.3763C75.2165 33.2337 75.024 33.0412 74.884 32.7987C74.744 32.5537 74.674 32.2775 74.674 31.97C74.674 31.6625 74.744 31.385 74.884 31.1375C75.024 30.89 75.2165 30.6937 75.4615 30.5487C75.709 30.4037 75.9915 30.3312 76.309 30.3312C76.624 30.3312 76.9027 30.4037 77.1452 30.5487C77.3902 30.6937 77.5815 30.89 77.719 31.1375C77.8565 31.385 77.9252 31.6625 77.9252 31.97C77.9252 32.2775 77.8565 32.5537 77.719 32.7987C77.5815 33.0412 77.3902 33.2337 77.1452 33.3763C76.9027 33.5188 76.624 33.59 76.309 33.59ZM76.309 33.0312C76.509 33.0312 76.6827 32.985 76.8302 32.8925C76.9802 32.8 77.0965 32.6737 77.179 32.5137C77.2615 32.3512 77.3027 32.1687 77.3027 31.9662C77.3027 31.7637 77.2615 31.5812 77.179 31.4187C77.0965 31.2562 76.9802 31.1275 76.8302 31.0325C76.6827 30.9375 76.509 30.89 76.309 30.89C76.1065 30.89 75.9302 30.9375 75.7802 31.0325C75.6302 31.1275 75.5127 31.2562 75.4277 31.4187C75.3452 31.5812 75.304 31.7637 75.304 31.9662C75.304 32.1687 75.3452 32.3512 75.4277 32.5137C75.5127 32.6737 75.6302 32.8 75.7802 32.8925C75.9302 32.985 76.1065 33.0312 76.309 33.0312ZM79.1361 30.4212H79.7399V29.1575H80.3886V30.4212H81.1799V30.98H80.3886V32.5025C80.3886 32.6825 80.4199 32.815 80.4824 32.9C80.5474 32.985 80.6336 33.0275 80.7411 33.0275C80.8361 33.0275 80.9099 33.01 80.9624 32.975C81.0149 32.94 81.0461 32.9162 81.0561 32.9037L81.3149 33.3837C81.2999 33.3962 81.2599 33.42 81.1949 33.455C81.1299 33.49 81.0461 33.5213 80.9436 33.5488C80.8411 33.5763 80.7211 33.59 80.5836 33.59C80.3436 33.59 80.1424 33.5175 79.9799 33.3725C79.8199 33.225 79.7399 32.9925 79.7399 32.675V30.98H79.1361V30.4212ZM84.3753 30.3312C84.5778 30.3312 84.774 30.3737 84.964 30.4587C85.1565 30.5437 85.314 30.6787 85.4365 30.8637C85.5615 31.0462 85.624 31.285 85.624 31.58V33.5H84.964V31.7075C84.964 31.4025 84.894 31.1812 84.754 31.0437C84.6165 30.9037 84.4353 30.8337 84.2103 30.8337C84.0603 30.8337 83.9165 30.8762 83.779 30.9612C83.6415 31.0437 83.5278 31.1587 83.4378 31.3062C83.3503 31.4512 83.3065 31.6162 83.3065 31.8012V33.5H82.6465V28.34H83.3065V30.9687C83.329 30.8837 83.389 30.7912 83.4865 30.6912C83.5865 30.5912 83.714 30.5062 83.869 30.4362C84.024 30.3662 84.1928 30.3312 84.3753 30.3312ZM87.3273 33.5V30.4212H87.9798V33.5H87.3273ZM87.6611 29.3675C87.5436 29.3675 87.4423 29.3262 87.3573 29.2437C87.2748 29.1587 87.2336 29.0575 87.2336 28.94C87.2336 28.8225 87.2748 28.7212 87.3573 28.6362C87.4423 28.5512 87.5436 28.5087 87.6611 28.5087C87.7386 28.5087 87.8098 28.5287 87.8748 28.5687C87.9423 28.6087 87.9961 28.6612 88.0361 28.7262C88.0761 28.7887 88.0961 28.86 88.0961 28.94C88.0961 29.0575 88.0536 29.1587 87.9686 29.2437C87.8836 29.3262 87.7811 29.3675 87.6611 29.3675ZM91.4485 30.3312C91.651 30.3312 91.8472 30.3737 92.0372 30.4587C92.2297 30.5437 92.3872 30.6787 92.5097 30.8637C92.6347 31.0462 92.6972 31.285 92.6972 31.58V33.5H92.0372V31.7075C92.0372 31.4025 91.966 31.1812 91.8235 31.0437C91.681 30.9037 91.4972 30.8337 91.2722 30.8337C91.1247 30.8337 90.9822 30.8762 90.8447 30.9612C90.7097 31.0437 90.5985 31.1587 90.511 31.3062C90.4235 31.4512 90.3797 31.6162 90.3797 31.8012V33.5H89.7272V30.4212H90.3797V30.9687C90.4022 30.8837 90.4635 30.7912 90.5635 30.6912C90.6635 30.5912 90.791 30.5062 90.946 30.4362C91.101 30.3662 91.2685 30.3312 91.4485 30.3312ZM95.7705 35.1463C95.528 35.1463 95.308 35.1213 95.1105 35.0713C94.9155 35.0213 94.7442 34.95 94.5967 34.8575C94.4517 34.7675 94.3355 34.6613 94.248 34.5388L94.6755 34.13C94.723 34.195 94.7867 34.2638 94.8667 34.3363C94.9492 34.4113 95.0605 34.475 95.2005 34.5275C95.3405 34.58 95.523 34.6063 95.748 34.6063C95.968 34.6063 96.1542 34.5588 96.3067 34.4637C96.4592 34.3713 96.5755 34.245 96.6555 34.085C96.7355 33.925 96.7755 33.745 96.7755 33.545V33.4437H97.413V33.5863C97.413 33.9263 97.3392 34.2113 97.1917 34.4413C97.0467 34.6738 96.8505 34.8488 96.603 34.9663C96.3555 35.0863 96.078 35.1463 95.7705 35.1463ZM96.7755 33.5V32.9C96.7555 32.9625 96.6967 33.0487 96.5992 33.1587C96.5042 33.2687 96.373 33.3687 96.2055 33.4587C96.0405 33.5462 95.8455 33.59 95.6205 33.59C95.3355 33.59 95.0767 33.5225 94.8442 33.3875C94.6142 33.2525 94.4305 33.0637 94.293 32.8212C94.158 32.5762 94.0905 32.29 94.0905 31.9625C94.0905 31.635 94.158 31.35 94.293 31.1075C94.4305 30.8625 94.6142 30.6725 94.8442 30.5375C95.0767 30.4 95.3355 30.3312 95.6205 30.3312C95.843 30.3312 96.0355 30.3712 96.198 30.4512C96.363 30.5312 96.4942 30.6237 96.5917 30.7287C96.6917 30.8337 96.7505 30.9237 96.768 30.9987V30.4212H97.413V33.5H96.7755ZM94.7355 31.9625C94.7355 32.185 94.7842 32.3775 94.8817 32.54C94.9792 32.7025 95.1055 32.8287 95.2605 32.9187C95.418 33.0062 95.5855 33.05 95.763 33.05C95.953 33.05 96.123 33.005 96.273 32.915C96.423 32.825 96.5417 32.6987 96.6292 32.5363C96.7167 32.3712 96.7605 32.18 96.7605 31.9625C96.7605 31.745 96.7167 31.555 96.6292 31.3925C96.5417 31.2275 96.423 31.1 96.273 31.01C96.123 30.9175 95.953 30.8712 95.763 30.8712C95.5855 30.8712 95.418 30.9162 95.2605 31.0062C95.1055 31.0962 94.9792 31.2225 94.8817 31.385C94.7842 31.5475 94.7355 31.74 94.7355 31.9625Z" fill="#0C0C0C"/>
</svg>
