<svg width="78" height="90" viewBox="0 0 78 90" fill="none" xmlns="http://www.w3.org/2000/svg">
<g clip-path="url(#clip0_1135_63442)">
<mask id="mask0_1135_63442" style="mask-type:alpha" maskUnits="userSpaceOnUse" x="0" y="0" width="78" height="90">
<rect width="78" height="90" fill="#D5EDD5"/>
</mask>
<g mask="url(#mask0_1135_63442)">
<path d="M68.2439 54.244C68.2439 38.0937 55.1502 25 38.9999 25C30.9565 25 23.6735 28.2474 18.3867 33.5036L59.7428 74.8597C64.9965 69.5729 68.2464 62.2874 68.2464 54.2465L68.2439 54.244Z" fill="#FFCC1F"/>
<path d="M32.7724 61.8983C34.4661 63.8004 36.681 64.754 39.4146 64.754C41.1083 64.754 42.6239 64.3573 43.9564 63.5614C44.8744 63.0121 45.6449 62.2874 46.2755 61.3948L32.2155 47.3348C30.8932 49.1479 30.2295 51.4595 30.2295 54.272C30.2295 57.4557 31.0763 59.9987 32.7724 61.9008V61.8983Z" fill="#E3B01F"/>
<path d="M52.5847 67.7013C51.9846 68.3116 51.3336 68.8787 50.6266 69.3974C47.5471 71.6632 43.8446 72.7974 39.5215 72.7974C35.9919 72.7974 32.8361 72.0116 30.049 70.435C27.2645 68.8609 25.0928 66.6714 23.5365 63.8691C21.9802 61.0667 21.2021 57.8677 21.2021 54.2694C21.2021 50.6711 21.9802 47.4619 23.5365 44.6418C24.2485 43.355 25.0877 42.198 26.0566 41.1706L18.3896 33.5036C13.0595 38.8006 9.75879 46.137 9.75879 54.244C9.75879 70.3943 22.8525 83.488 39.0028 83.488C47.1097 83.488 54.4461 80.1872 59.7431 74.8572L52.5847 67.6988V67.7013Z" fill="#E3B01F"/>
<path d="M32.7727 46.6406C34.4663 44.7384 36.6812 43.7874 39.4149 43.7874C41.1085 43.7874 42.6241 44.1866 43.9566 44.98C45.2891 45.776 46.3165 46.9355 47.0438 48.4562H56.8011C55.7635 44.5121 53.7038 41.3995 50.6268 39.1134C47.5473 36.8298 43.8447 35.688 39.5217 35.688C35.9921 35.688 32.8363 36.4764 30.0492 38.0505C28.5361 38.9049 27.2062 39.9475 26.0542 41.1681L32.2158 47.3297C32.3912 47.0907 32.5743 46.8593 32.7727 46.638V46.6406Z" fill="white"/>
<path d="M56.8007 60.0826H47.0434C46.817 60.5556 46.5602 60.9905 46.2754 61.3922L52.5845 67.7013C54.5934 65.6593 56.0022 63.1215 56.8007 60.0826Z" fill="white"/>
<path d="M21.1998 54.2694C21.1998 57.8677 21.978 61.0667 23.5342 63.8691C25.0905 66.6714 27.2622 68.8609 30.0468 70.435C32.8313 72.0091 35.9896 72.7974 39.5193 72.7974C43.8448 72.7974 47.5448 71.6658 50.6243 69.3975C51.3313 68.8762 51.9823 68.3091 52.5824 67.7013L46.2733 61.3922C45.6427 62.2848 44.8722 63.0121 43.9542 63.5588C42.6217 64.3548 41.1086 64.7515 39.4125 64.7515C36.6788 64.7515 34.4639 63.8004 32.7703 61.8957C31.0741 59.9936 30.2273 57.4507 30.2273 54.2669C30.2273 51.4544 30.891 49.1428 32.2133 47.3297L26.0518 41.1681C25.0854 42.1955 24.2437 43.3525 23.5317 44.6393C21.9754 47.4594 21.1973 50.6686 21.1973 54.2669L21.1998 54.2694Z" fill="#F5F5F5"/>
<path d="M67.6108 67.7216H10.3892C5.75595 67.7216 2 71.4776 2 76.1108V90.3539H76V76.1108C76 71.4776 72.2441 67.7216 67.6108 67.7216Z" fill="#00B400"/>
</g>
</g>
<defs>
<clipPath id="clip0_1135_63442">
<rect width="78" height="90" fill="white"/>
</clipPath>
</defs>
</svg>
