<svg width="78" height="90" viewBox="0 0 78 90" fill="none" xmlns="http://www.w3.org/2000/svg">
<g clip-path="url(#clip0_3336_64920)">
<mask id="mask0_3336_64920" style="mask-type:alpha" maskUnits="userSpaceOnUse" x="0" y="0" width="78" height="90">
<rect width="78" height="90" fill="#D5EDD5"/>
</mask>
<g mask="url(#mask0_3336_64920)">
<rect y="55" width="78" height="86" rx="5" fill="white"/>
<path d="M12 87.1201L12 71.1201C12 69.4633 13.3431 68.1201 15 68.1201V68.1201C16.6569 68.1201 18 69.4633 18 71.1201L18 87.1201L12 87.1201Z" fill="#747474"/>
<path d="M24 87.1201L24 77.1201C24 75.4633 25.3431 74.1201 27 74.1201V74.1201C28.6569 74.1201 30 75.4633 30 77.1201L30 87.1201L24 87.1201Z" fill="#00B400"/>
<rect x="30" y="64.1201" width="37" height="5" fill="#F5F5F5"/>
<rect x="39" y="73.1201" width="28" height="5" fill="#F5F5F5"/>
<path d="M7.73795 40.5301C12.1255 43.0774 17.7527 41.583 20.3014 37.1851C22.8487 32.7975 21.3543 27.1703 16.9564 24.6216C12.5688 22.0743 6.94164 23.5687 4.39288 27.9667C1.85446 32.3661 3.34885 37.9932 7.73795 40.5301Z" fill="white"/>
<path d="M19.8349 36.9154C20.2607 36.1755 20.0092 35.2303 19.2694 34.8045L7.25321 27.8386C6.51333 27.4128 5.56807 27.6643 5.14227 28.4041C4.71646 29.144 4.96795 30.0893 5.70783 30.5151L17.724 37.481C18.4639 37.9068 19.4091 37.6553 19.8349 36.9154Z" fill="#F5F5F5"/>
<g opacity="0.6">
<path d="M41.7789 24.5757C44.8538 25.8029 48.3445 24.3029 49.5717 21.2213C50.799 18.1464 49.299 14.6557 46.2174 13.4285C43.1425 12.2013 39.6518 13.7012 38.4246 16.7828C37.2042 19.8645 38.7041 23.3553 41.7789 24.5757Z" fill="#00B400"/>
<path d="M49.2436 21.0921C49.4482 20.574 49.1959 19.9876 48.6778 19.7831L40.2577 16.4287C39.7396 16.2242 39.1532 16.4764 38.9487 16.9946C38.7441 17.5128 38.9964 18.0991 39.5146 18.3036L47.9346 21.658C48.4528 21.8625 49.0391 21.6103 49.2436 21.0921Z" fill="#00B400"/>
</g>
<path d="M54.1213 48.9844C58.5053 51.5709 63.8894 50.6405 66.1474 46.8978L76.2745 30.1504C78.5326 26.4076 76.8134 21.285 72.4294 18.6985C68.0453 16.1119 62.6613 17.0423 60.4032 20.785L50.2762 37.5325C48.0181 41.2752 49.7373 46.3978 54.1213 48.9844Z" fill="white"/>
<path d="M54.0456 49.1728C58.3622 51.7244 63.6627 50.8076 65.8851 47.1167L70.8652 38.8577L55.2401 29.6127L50.26 37.8718C48.0376 41.5627 49.7311 46.615 54.0478 49.1666L54.0456 49.1728Z" fill="#F44432"/>
</g>
</g>
<defs>
<clipPath id="clip0_3336_64920">
<rect width="78" height="90" fill="white"/>
</clipPath>
</defs>
</svg>
