<svg width="140" height="117" viewBox="0 0 140 117" fill="none" xmlns="http://www.w3.org/2000/svg">
<g filter="url(#filter0_d_1932_36785)">
<path fill-rule="evenodd" clip-rule="evenodd" d="M19.5572 49.7739C17.3361 50.6021 16.1974 53.0772 17.0256 55.2982L30.333 91.0419C31.1611 93.2629 33.6363 94.4017 35.8573 93.5735L115.909 63.7683C118.13 62.9401 119.269 60.465 118.44 58.2439L114.036 46.4141C110.695 47.6564 106.987 45.9623 105.745 42.6214C104.502 39.2804 106.196 35.5724 109.537 34.3301L105.133 22.5003C104.305 20.2792 101.83 19.1405 99.6086 19.9687L19.5572 49.7739Z" fill="white"/>
</g>
<path d="M17.0349 55.2984C16.2068 53.0773 17.3361 50.6022 19.5666 49.774L40.7135 41.8969L57.023 85.6965L35.8761 93.5736C33.6551 94.4018 31.1799 93.2725 30.3518 91.042L17.0349 55.2984Z" fill="#00B400"/>
<path d="M40.704 41.9061L32.7139 44.8801L24.3662 74.9958L30.3423 91.0513C31.0576 92.9712 32.9868 94.0723 34.935 93.8088L45.6449 55.1665L40.704 41.9061Z" fill="#3FBD00"/>
<path d="M48.0731 61.698L39.6218 92.1808L45.6638 89.9315L51.1787 70.0269L48.0731 61.698Z" fill="#3FBD00"/>
<path d="M34.9915 78.1391L37.8055 77.0945L36.5067 73.6124C36.215 72.8218 36.2432 72.0407 36.6008 71.2972C37.6361 69.1326 41.137 67.8245 41.1653 67.8151L41.25 67.7868L40.3089 65.2646C40.1395 65.3211 36.3279 66.5916 34.7751 68.9632L33.5516 65.6693L40.3089 63.1565L39.3113 60.4838L29.7495 64.0412L35.0009 78.1391H34.9915Z" fill="white"/>
<path d="M69.2082 100.091C68.6342 99.6297 67.7966 100.119 67.9001 100.844L68.1542 102.547C68.1918 102.773 68.1259 102.999 67.9848 103.168L66.9119 104.514C66.4508 105.088 66.9401 105.926 67.6648 105.822L69.3682 105.568C69.5941 105.531 69.82 105.596 69.9894 105.738L71.3352 106.81C71.9092 107.272 72.7468 106.782 72.6433 106.058L72.3892 104.354C72.3516 104.128 72.4174 103.902 72.5586 103.733L73.6315 102.387C74.0926 101.813 73.6033 100.976 72.8786 101.079L71.1752 101.333C70.9493 101.371 70.7234 101.305 70.554 101.164L69.2082 100.091Z" fill="#FFC710"/>
<path d="M44.438 15.0749C44.4568 14.5479 43.8169 14.2844 43.4498 14.6514L42.5934 15.5266C42.4805 15.6396 42.3299 15.7054 42.1699 15.696L40.9465 15.6584C40.4195 15.6396 40.1559 16.2795 40.523 16.6466L41.3982 17.503C41.5111 17.6159 41.577 17.7665 41.5676 17.9265L41.53 19.1499C41.5111 19.677 42.1511 19.9405 42.5181 19.5734L43.3746 18.6982C43.4875 18.5853 43.6381 18.5194 43.7981 18.5288L45.0215 18.5664C45.5485 18.5853 45.8121 17.9453 45.445 17.5783L44.5698 16.7218C44.4568 16.6089 44.391 16.4583 44.4004 16.2983L44.438 15.0749Z" fill="#FFC710"/>
<path d="M104.472 3.42385C103.804 3.36738 103.408 4.15792 103.86 4.66612L106.194 7.24478C106.335 7.39536 106.401 7.60241 106.382 7.80945L106.091 11.2822C106.034 11.9504 106.825 12.3456 107.333 11.8939L109.912 9.55993C110.062 9.41876 110.269 9.35289 110.476 9.37171L113.949 9.66345C114.617 9.71992 115.012 8.92938 114.561 8.42118L112.227 5.84252C112.086 5.69194 112.02 5.48489 112.038 5.27785L112.33 1.80512C112.387 1.13693 111.596 0.741661 111.088 1.1934L108.509 3.52737C108.359 3.66854 108.152 3.73441 107.945 3.71559L104.472 3.42385Z" fill="#FFC710"/>
<g filter="url(#filter1_d_1932_36785)">
<path d="M98.8722 100.905C112.75 100.905 124 89.6547 124 75.777C124 61.8993 112.75 50.6492 98.8722 50.6492C84.9945 50.6492 73.7444 61.8993 73.7444 75.777C73.7444 89.6547 84.9945 100.905 98.8722 100.905Z" fill="#FFC710"/>
<path d="M116.499 82.2331C116.048 81.8002 115.464 81.5931 114.749 81.5931C114.034 81.5931 113.441 81.8096 112.999 82.2331C112.547 82.666 112.33 83.2683 112.33 84.0589C112.33 84.4541 112.387 84.8024 112.5 85.1035C112.613 85.4047 112.782 85.6682 113.008 85.8846C113.234 86.1011 113.488 86.2611 113.78 86.3646C114.071 86.4681 114.401 86.5246 114.758 86.5246C115.116 86.5246 115.445 86.4681 115.737 86.3646C116.029 86.2611 116.283 86.1011 116.509 85.8846C116.735 85.6682 116.904 85.4141 117.017 85.1035C117.13 84.8024 117.186 84.4541 117.186 84.0589C117.186 83.2683 116.961 82.6566 116.518 82.2331H116.499ZM115.257 84.8024C115.191 84.8871 115.116 84.9435 115.031 84.9906C114.947 85.0282 114.843 85.0565 114.73 85.0565C114.495 85.0565 114.325 84.9718 114.203 84.8118C114.081 84.6518 114.024 84.3977 114.024 84.0683C114.024 83.7389 114.081 83.4754 114.203 83.306C114.325 83.1366 114.495 83.0613 114.721 83.0613C114.947 83.0613 115.116 83.146 115.248 83.3154C115.37 83.4848 115.436 83.7389 115.436 84.0683C115.436 84.3977 115.37 84.6518 115.248 84.8118L115.257 84.8024Z" fill="white"/>
<path d="M109.846 76.9159C109.761 76.7842 109.667 76.6712 109.554 76.5583C109.328 76.3418 109.074 76.1818 108.782 76.0783C108.594 76.0124 108.396 75.9748 108.18 75.9466C108.057 75.9277 107.935 75.9183 107.803 75.9183C107.446 75.9183 107.116 75.9748 106.825 76.0783C106.533 76.1818 106.269 76.3418 106.043 76.5583C105.931 76.6618 105.827 76.7842 105.742 76.9159C105.488 77.3018 105.356 77.7912 105.356 78.3841C105.356 79.1746 105.582 79.7863 106.034 80.2098C106.486 80.6427 107.069 80.8498 107.794 80.8498C107.926 80.8498 108.048 80.831 108.17 80.8216C108.716 80.7557 109.177 80.558 109.544 80.2098C109.996 79.7769 110.213 79.1746 110.213 78.3841C110.213 77.7912 110.09 77.3018 109.836 76.9159H109.846ZM108.312 79.137C108.274 79.184 108.123 79.3064 108.086 79.3252C108.001 79.3628 107.897 79.3911 107.785 79.3911C107.436 79.3911 107.21 79.2028 107.126 78.8358C107.098 78.7135 107.079 78.5629 107.079 78.4029C107.079 78.0641 107.135 77.8194 107.258 77.65C107.38 77.4806 107.549 77.3959 107.785 77.3959C107.945 77.3959 108.076 77.4524 108.18 77.5276C108.227 77.5653 108.283 77.5935 108.321 77.65C108.443 77.8194 108.5 78.0735 108.5 78.4029C108.5 78.7323 108.434 78.9864 108.312 79.1464V79.137Z" fill="white"/>
<path d="M115.285 76.0782H112.867L109.3 82.619L108.236 84.5577L108.18 84.6518L107.248 86.3647H109.658L115.285 76.0782Z" fill="white"/>
<path d="M106.467 85.9413L108.18 82.8074V81.7251C108.058 81.7345 107.926 81.7533 107.803 81.7533C106.853 81.7533 106.053 81.4521 105.432 80.8687C104.801 80.2663 104.472 79.4382 104.472 78.3935C104.472 77.3489 104.792 76.5207 105.432 75.9184C106.053 75.3349 106.853 75.0337 107.803 75.0337C107.935 75.0337 108.058 75.0525 108.18 75.062V72.9256C108.18 69.6882 107.323 67.1377 105.62 65.2837C103.917 63.4297 101.63 62.5074 98.7687 62.5074C97.1594 62.5074 95.7195 62.818 94.4396 63.4486C93.1597 64.0791 92.1338 64.9261 91.3715 66.0084V62.771H83.8896V86.3648H91.3715V73.9326C91.3715 72.2951 91.795 71.0246 92.642 70.1211C93.4891 69.2176 94.6278 68.7659 96.0583 68.7659C97.4888 68.7659 98.6275 69.2176 99.4746 70.1211C100.322 71.0246 100.745 72.2951 100.745 73.9326V86.3648H106.241L106.476 85.9413H106.467Z" fill="white"/>
</g>
<defs>
<filter id="filter0_d_1932_36785" x="0.755127" y="3.69824" width="133.956" height="106.146" filterUnits="userSpaceOnUse" color-interpolation-filters="sRGB">
<feFlood flood-opacity="0" result="BackgroundImageFix"/>
<feColorMatrix in="SourceAlpha" type="matrix" values="0 0 0 0 0 0 0 0 0 0 0 0 0 0 0 0 0 0 127 0" result="hardAlpha"/>
<feOffset/>
<feGaussianBlur stdDeviation="8"/>
<feComposite in2="hardAlpha" operator="out"/>
<feColorMatrix type="matrix" values="0 0 0 0 0 0 0 0 0 0 0 0 0 0 0 0 0 0 0.1 0"/>
<feBlend mode="normal" in2="BackgroundImageFix" result="effect1_dropShadow_1932_36785"/>
<feBlend mode="normal" in="SourceGraphic" in2="effect1_dropShadow_1932_36785" result="shape"/>
</filter>
<filter id="filter1_d_1932_36785" x="57.7444" y="34.6492" width="82.2556" height="82.2557" filterUnits="userSpaceOnUse" color-interpolation-filters="sRGB">
<feFlood flood-opacity="0" result="BackgroundImageFix"/>
<feColorMatrix in="SourceAlpha" type="matrix" values="0 0 0 0 0 0 0 0 0 0 0 0 0 0 0 0 0 0 127 0" result="hardAlpha"/>
<feOffset/>
<feGaussianBlur stdDeviation="8"/>
<feComposite in2="hardAlpha" operator="out"/>
<feColorMatrix type="matrix" values="0 0 0 0 0 0 0 0 0 0 0 0 0 0 0 0 0 0 0.1 0"/>
<feBlend mode="normal" in2="BackgroundImageFix" result="effect1_dropShadow_1932_36785"/>
<feBlend mode="normal" in="SourceGraphic" in2="effect1_dropShadow_1932_36785" result="shape"/>
</filter>
</defs>
</svg>
