<svg width="125" height="130" viewBox="0 0 125 130" fill="none" xmlns="http://www.w3.org/2000/svg">
<g clip-path="url(#clip0_1135_67344)">
<path d="M25.428 58.7776L21.0737 62.7099L25.959 69.1016L30.3133 65.2577L25.428 58.7776Z" fill="#FF8064"/>
<path d="M5.20391 19.3962C3.70191 20.8837 1.48683 23.1075 0 24.4919C0.531011 27.4374 4.06603 30.2062 6.99417 30.648C8.67824 29.3373 10.8478 27.1134 12.1677 25.9058C8.92099 24.9337 6.09904 22.7835 5.21908 19.3962H5.20391Z" fill="#F77694"/>
<path d="M33.909 34.9485L29.5547 38.8807L34.44 45.2725L38.7943 41.4286L33.909 34.9485Z" fill="white"/>
<path d="M6.23576 63.1812C5.41649 64.7423 4.52135 66.2592 3.73242 67.7467C6.00818 70.2062 11.2576 71.0751 14.3223 70.2798C14.3526 68.6156 14.4285 66.9514 14.4588 65.081C11.7431 65.4197 8.57221 64.8454 6.22059 63.1812H6.23576Z" fill="#FFF81F"/>
<path d="M81.9427 69.2931C80.0917 71.0899 77.1939 73.7261 75.0547 75.7732C75.1609 78.5714 77.6187 81.2077 81.9427 81.3549C83.8695 79.514 86.7976 76.539 88.9368 74.3299C84.4763 75.2577 81.9427 73.0192 81.9427 69.3078V69.2931Z" fill="#FF8064"/>
<path d="M96.7351 41.134L92.3809 45.0663L97.2662 51.458L101.62 47.6142L96.7351 41.134Z" fill="white"/>
<path d="M68.0758 46.9367L57.3039 43.7408L54.9067 50.3093L65.527 53.5935L68.0758 46.9367Z" fill="#3F67EF"/>
<path d="M87.4954 0L83.1411 3.93225L88.0264 10.324L92.3807 6.48012L87.4954 0Z" fill="white"/>
<path d="M41.768 19.3962C40.9487 20.9573 40.0536 22.4742 39.2646 23.9617C41.5404 26.4212 46.7898 27.2901 49.8545 26.4949C49.8849 24.8306 49.9607 23.1664 49.9911 21.296C47.2753 21.6348 44.1044 21.0604 41.7528 19.3962H41.768Z" fill="#FFF81F"/>
<path d="M70.4578 23.299C68.6068 25.0957 65.709 27.732 63.5698 29.7791C63.676 32.5773 66.1338 35.2136 70.4578 35.3608C72.3846 33.5199 75.3128 30.5449 77.452 28.3358C72.9915 29.2636 70.4578 27.025 70.4578 23.3137V23.299Z" fill="#FF8064"/>
<path d="M43.6642 63.461L35.7749 75.6554L45.8034 79.8085L53.5107 67.7614L43.6642 63.461Z" fill="#FFF81F"/>
<path d="M125 22.2239V11.7231L118.795 17.0839L123.877 23.1664L125 22.2239Z" fill="#3F67EF"/>
<path d="M125 130V47.7172L64.7378 85.405L108.478 130H125Z" fill="#FFCC1F"/>
<path d="M64.738 85.405L40.9639 100.265L87.2529 130H108.478L64.738 85.405Z" fill="#E3B01F"/>
</g>
<defs>
<clipPath id="clip0_1135_67344">
<path d="M0 0H125V122C125 126.418 121.418 130 117 130H0V0Z" fill="white"/>
</clipPath>
</defs>
</svg>
