<svg width="90" height="152" viewBox="0 0 90 152" fill="none" xmlns="http://www.w3.org/2000/svg">
<g clip-path="url(#clip0_1829_24150)">
<g clip-path="url(#clip1_1829_24150)">
<path d="M53.8269 151.992H53.6697C52.7488 151.954 51.8728 151.772 51.0343 151.454C50.4504 151.234 50.1584 150.574 50.3755 149.99C50.5926 149.398 51.244 149.102 51.8204 149.322C52.4343 149.557 53.0707 149.686 53.7221 149.709H53.8194C54.1788 149.709 54.5456 149.679 54.905 149.61C55.5189 149.497 56.1029 149.906 56.2152 150.528C56.3275 151.15 55.9232 151.742 55.3093 151.856C54.8151 151.947 54.321 151.992 53.8194 151.992H53.8269ZM36.2106 151.992H36.0533C35.4619 151.97 34.8929 151.886 34.3389 151.742C33.7399 151.59 33.3731 150.976 33.5228 150.361C33.6725 149.755 34.279 149.375 34.8854 149.535C35.2897 149.633 35.7089 149.694 36.1207 149.717H36.2106C36.8095 149.717 37.4009 149.626 37.9699 149.451C38.5614 149.261 39.1903 149.603 39.3774 150.202C39.5571 150.801 39.2277 151.439 38.6363 151.628C37.8501 151.879 37.0341 152 36.2106 152V151.992ZM58.4537 150.255C58.1393 150.255 57.8248 150.119 57.6002 149.861C57.1959 149.383 57.2483 148.662 57.72 148.252C57.8248 148.161 57.9221 148.07 58.012 147.979C58.581 147.41 59.0302 146.735 59.3371 145.992C59.3821 145.878 59.427 145.764 59.4644 145.643C59.6666 145.051 60.3104 144.74 60.8944 144.945C61.4783 145.15 61.7853 145.802 61.5832 146.394C61.5308 146.553 61.4709 146.712 61.4035 146.864C60.9767 147.896 60.3628 148.814 59.5767 149.603C59.4494 149.732 59.3072 149.861 59.1724 149.982C58.9628 150.164 58.7008 150.255 58.4387 150.255H58.4537ZM31.3666 149.975C31.0896 149.975 30.8126 149.868 30.5955 149.663C30.4907 149.565 30.3859 149.459 30.281 149.345C29.3976 148.389 28.7238 147.228 28.3495 145.977C28.1698 145.377 28.4992 144.74 29.0981 144.558C29.6896 144.368 30.3185 144.71 30.4982 145.317C30.7752 146.235 31.2618 147.092 31.9132 147.79C31.988 147.866 32.0629 147.949 32.1378 148.017C32.587 148.45 32.6019 149.17 32.1752 149.626C31.9581 149.861 31.6586 149.982 31.3591 149.982L31.3666 149.975ZM41.4288 149.671C41.1593 149.671 40.8823 149.572 40.6727 149.368C40.216 148.943 40.186 148.222 40.6053 147.759C41.0769 147.236 41.4588 146.644 41.7208 145.984C41.8556 145.65 41.9679 145.309 42.0427 144.952C42.1775 144.338 42.7839 143.951 43.3829 144.088C43.9893 144.224 44.3711 144.831 44.2364 145.446C44.1315 145.931 43.9818 146.401 43.7946 146.857C43.4278 147.752 42.9037 148.571 42.2598 149.292C42.0352 149.535 41.7358 149.663 41.4363 149.663L41.4288 149.671ZM48.414 149.36C48.092 149.36 47.7701 149.223 47.553 148.95C46.6246 147.828 46.0032 146.47 45.7337 145.028C45.6214 144.414 46.0257 143.815 46.6321 143.701C47.2385 143.587 47.83 143.997 47.9423 144.611C48.1369 145.666 48.5936 146.659 49.2749 147.486C49.6717 147.972 49.6118 148.685 49.1327 149.087C48.9231 149.261 48.6685 149.352 48.414 149.352V149.36ZM60.9243 143.412C60.3029 143.412 59.8013 142.904 59.8013 142.275V138.481C59.8013 137.852 60.3029 137.344 60.9243 137.344C61.5457 137.344 62.0473 137.852 62.0473 138.481V142.275C62.0473 142.904 61.5457 143.412 60.9243 143.412ZM29.0981 143.026C28.4767 143.026 27.9751 142.517 27.9751 141.888V138.095C27.9751 137.465 28.4767 136.957 29.0981 136.957C29.7195 136.957 30.2211 137.465 30.2211 138.095V141.888C30.2211 142.517 29.7195 143.026 29.0981 143.026ZM43.308 142.57C42.6866 142.57 42.185 142.062 42.185 141.432V137.639C42.185 137.01 42.6866 136.501 43.308 136.501C43.9294 136.501 44.431 137.01 44.431 137.639V141.432C44.431 142.062 43.9294 142.57 43.308 142.57ZM46.7145 142.184C46.0931 142.184 45.5915 141.675 45.5915 141.046V137.253C45.5915 136.623 46.0931 136.115 46.7145 136.115C47.3359 136.115 47.8375 136.623 47.8375 137.253V141.046C47.8375 141.675 47.3359 142.184 46.7145 142.184ZM60.9243 135.826C60.3029 135.826 59.8013 135.318 59.8013 134.688V130.895C59.8013 130.266 60.3029 129.757 60.9243 129.757C61.5457 129.757 62.0473 130.266 62.0473 130.895V134.688C62.0473 135.318 61.5457 135.826 60.9243 135.826ZM29.0981 135.439C28.4767 135.439 27.9751 134.931 27.9751 134.302V130.508C27.9751 129.879 28.4767 129.371 29.0981 129.371C29.7195 129.371 30.2211 129.879 30.2211 130.508V134.302C30.2211 134.931 29.7195 135.439 29.0981 135.439ZM43.308 134.984C42.6866 134.984 42.185 134.476 42.185 133.846V130.053C42.185 129.424 42.6866 128.915 43.308 128.915C43.9294 128.915 44.431 129.424 44.431 130.053V133.846C44.431 134.476 43.9294 134.984 43.308 134.984ZM46.7145 134.597C46.0931 134.597 45.5915 134.089 45.5915 133.459V129.666C45.5915 129.037 46.0931 128.528 46.7145 128.528C47.3359 128.528 47.8375 129.037 47.8375 129.666V133.459C47.8375 134.089 47.3359 134.597 46.7145 134.597ZM60.9243 128.24C60.3029 128.24 59.8013 127.732 59.8013 127.102V123.309C59.8013 122.68 60.3029 122.171 60.9243 122.171C61.5457 122.171 62.0473 122.68 62.0473 123.309V127.102C62.0473 127.732 61.5457 128.24 60.9243 128.24ZM29.0981 127.853C28.4767 127.853 27.9751 127.345 27.9751 126.715V122.922C27.9751 122.293 28.4767 121.784 29.0981 121.784C29.7195 121.784 30.2211 122.293 30.2211 122.922V126.715C30.2211 127.345 29.7195 127.853 29.0981 127.853ZM43.308 127.398C42.6866 127.398 42.185 126.89 42.185 126.26V122.467C42.185 121.837 42.6866 121.329 43.308 121.329C43.9294 121.329 44.431 121.837 44.431 122.467V126.26C44.431 126.89 43.9294 127.398 43.308 127.398ZM46.7145 127.011C46.0931 127.011 45.5915 126.503 45.5915 125.873V122.08C45.5915 121.451 46.0931 120.942 46.7145 120.942C47.3359 120.942 47.8375 121.451 47.8375 122.08V125.873C47.8375 126.503 47.3359 127.011 46.7145 127.011ZM60.9243 120.654C60.3029 120.654 59.8013 120.146 59.8013 119.516V115.723C59.8013 115.093 60.3029 114.585 60.9243 114.585C61.5457 114.585 62.0473 115.093 62.0473 115.723V119.516C62.0473 120.146 61.5457 120.654 60.9243 120.654ZM29.0981 120.267C28.4767 120.267 27.9751 119.759 27.9751 119.129V115.336C27.9751 114.706 28.4767 114.198 29.0981 114.198C29.7195 114.198 30.2211 114.706 30.2211 115.336V119.129C30.2211 119.759 29.7195 120.267 29.0981 120.267ZM43.308 119.812C42.6866 119.812 42.185 119.304 42.185 118.674V114.881C42.185 114.251 42.6866 113.743 43.308 113.743C43.9294 113.743 44.431 114.251 44.431 114.881V118.674C44.431 119.304 43.9294 119.812 43.308 119.812ZM46.7145 119.425C46.0931 119.425 45.5915 118.917 45.5915 118.287V114.494C45.5915 113.864 46.0931 113.356 46.7145 113.356C47.3359 113.356 47.8375 113.864 47.8375 114.494V118.287C47.8375 118.917 47.3359 119.425 46.7145 119.425ZM60.9243 113.068C60.3029 113.068 59.8013 112.56 59.8013 111.93V108.137C59.8013 107.507 60.3029 106.999 60.9243 106.999C61.5457 106.999 62.0473 107.507 62.0473 108.137V111.93C62.0473 112.56 61.5457 113.068 60.9243 113.068ZM29.0981 112.681C28.4767 112.681 27.9751 112.173 27.9751 111.543V107.75C27.9751 107.12 28.4767 106.612 29.0981 106.612C29.7195 106.612 30.2211 107.12 30.2211 107.75V111.543C30.2211 112.173 29.7195 112.681 29.0981 112.681ZM43.308 112.226C42.6866 112.226 42.185 111.718 42.185 111.088V107.295C42.185 106.665 42.6866 106.157 43.308 106.157C43.9294 106.157 44.431 106.665 44.431 107.295V111.088C44.431 111.718 43.9294 112.226 43.308 112.226ZM46.7145 111.839C46.0931 111.839 45.5915 111.331 45.5915 110.701V106.908C45.5915 106.278 46.0931 105.77 46.7145 105.77C47.3359 105.77 47.8375 106.278 47.8375 106.908V110.701C47.8375 111.331 47.3359 111.839 46.7145 111.839ZM60.9243 105.482C60.3029 105.482 59.8013 104.973 59.8013 104.344V100.551C59.8013 99.921 60.3029 99.4128 60.9243 99.4128C61.5457 99.4128 62.0473 99.921 62.0473 100.551V104.344C62.0473 104.973 61.5457 105.482 60.9243 105.482ZM29.0981 105.095C28.4767 105.095 27.9751 104.587 27.9751 103.957V100.164C27.9751 99.5341 28.4767 99.0259 29.0981 99.0259C29.7195 99.0259 30.2211 99.5341 30.2211 100.164V103.957C30.2211 104.587 29.7195 105.095 29.0981 105.095ZM43.308 104.64C42.6866 104.64 42.185 104.131 42.185 103.502V99.7086C42.185 99.079 42.6866 98.5707 43.308 98.5707C43.9294 98.5707 44.431 99.079 44.431 99.7086V103.502C44.431 104.131 43.9294 104.64 43.308 104.64ZM46.7145 104.253C46.0931 104.253 45.5915 103.744 45.5915 103.115V99.3217C45.5915 98.6921 46.0931 98.1838 46.7145 98.1838C47.3359 98.1838 47.8375 98.6921 47.8375 99.3217V103.115C47.8375 103.744 47.3359 104.253 46.7145 104.253ZM60.9243 97.8955C60.3029 97.8955 59.8013 97.3873 59.8013 96.7576V92.9645C59.8013 92.3349 60.3029 91.8266 60.9243 91.8266C61.5457 91.8266 62.0473 92.3349 62.0473 92.9645V96.7576C62.0473 97.3873 61.5457 97.8955 60.9243 97.8955ZM29.0981 97.5086C28.4767 97.5086 27.9751 97.0004 27.9751 96.3707V92.5776C27.9751 91.948 28.4767 91.4397 29.0981 91.4397C29.7195 91.4397 30.2211 91.948 30.2211 92.5776V96.3707C30.2211 97.0004 29.7195 97.5086 29.0981 97.5086ZM43.308 97.0535C42.6866 97.0535 42.185 96.5452 42.185 95.9155V92.1225C42.185 91.4928 42.6866 90.9845 43.308 90.9845C43.9294 90.9845 44.431 91.4928 44.431 92.1225V95.9155C44.431 96.5452 43.9294 97.0535 43.308 97.0535ZM46.7145 96.6666C46.0931 96.6666 45.5915 96.1583 45.5915 95.5287V91.7356C45.5915 91.1059 46.0931 90.5977 46.7145 90.5977C47.3359 90.5977 47.8375 91.1059 47.8375 91.7356V95.5287C47.8375 96.1583 47.3359 96.6666 46.7145 96.6666ZM70.5972 94.1707C70.4325 94.1707 70.2678 94.1707 70.1106 94.1556C69.4892 94.11 69.025 93.5714 69.0699 92.9418C69.1148 92.3121 69.6389 91.8342 70.2678 91.8873C71.286 91.9556 72.3192 91.6901 73.0903 91.1363C73.5994 90.7721 74.2957 90.9011 74.655 91.417C75.0144 91.9328 74.8871 92.6383 74.378 93.0025C73.2924 93.7762 71.9897 94.1783 70.5972 94.1783V94.1707ZM19.283 94.1556H19.2531C17.6808 94.1176 16.2134 93.5487 15.1054 92.5473C14.6412 92.1301 14.6038 91.4094 15.0155 90.939C15.4273 90.4687 16.1386 90.4308 16.6027 90.848C17.314 91.4852 18.2723 91.8494 19.3129 91.8797C19.9343 91.8949 20.421 92.4183 20.406 93.0404C20.391 93.6625 19.8894 94.148 19.283 94.148V94.1556ZM22.8093 93.0859C22.4574 93.0859 22.113 92.919 21.8959 92.608C21.5365 92.0997 21.6563 91.3866 22.1579 91.0225C22.7269 90.6128 23.4531 89.8618 23.7002 88.6253C23.82 88.0108 24.4189 87.6087 25.0253 87.7301C25.6318 87.8515 26.0286 88.4508 25.9088 89.0728C25.6018 90.6356 24.7558 91.948 23.4681 92.8811C23.2734 93.0252 23.0414 93.0935 22.8167 93.0935L22.8093 93.0859ZM66.7939 92.7294C66.5244 92.7294 66.2549 92.6307 66.0378 92.4335C64.9148 91.3942 64.2335 89.9983 64.0538 88.3977C63.9864 87.7756 64.4281 87.2066 65.042 87.1384C65.656 87.0701 66.2175 87.5177 66.2848 88.1397C66.4046 89.2018 66.8314 90.0818 67.5501 90.7494C68.0068 91.1742 68.0367 91.8949 67.625 92.3576C67.4004 92.6004 67.1009 92.7294 66.7939 92.7294V92.7294ZM60.9168 90.317C60.2954 90.317 59.7938 89.8087 59.7938 89.179V85.386C59.7938 84.7563 60.2954 84.248 60.9168 84.248C61.5382 84.248 62.0399 84.7563 62.0399 85.386V89.179C62.0399 89.8087 61.5382 90.317 60.9168 90.317ZM75.7406 90.1121C75.6508 90.1121 75.5684 90.1046 75.4786 90.0818C74.8721 89.9377 74.5053 89.3232 74.6475 88.7087C74.6999 88.4811 74.7449 88.2384 74.7673 87.988C74.8647 87.0322 74.9545 86.0763 75.0219 85.1204C75.0668 84.4908 75.6133 84.028 76.2198 84.066C76.8412 84.1115 77.3053 84.6577 77.2604 85.2798C77.193 86.266 77.1032 87.2446 76.9984 88.2232C76.9609 88.5646 76.9085 88.9059 76.8262 89.2246C76.6989 89.748 76.2422 90.097 75.7331 90.097L75.7406 90.1121ZM29.0906 89.9301C28.4692 89.9301 27.9676 89.4218 27.9676 88.7921V84.9991C27.9676 84.3694 28.4692 83.8611 29.0906 83.8611C29.712 83.8611 30.2137 84.3694 30.2137 84.9991V88.7921C30.2137 89.4218 29.712 89.9301 29.0906 89.9301ZM14.1546 89.5508C13.6155 89.5508 13.1364 89.1563 13.0465 88.5949C13.0241 88.4356 13.0016 88.2687 12.9792 88.1018C12.8594 86.9715 12.762 85.8335 12.6947 84.7108C12.6497 84.0811 13.1214 83.5425 13.7428 83.497C14.3492 83.4515 14.8958 83.9294 14.9407 84.5591C15.0155 85.6515 15.1054 86.7666 15.2177 87.8666C15.2327 87.988 15.2476 88.1094 15.2626 88.2308C15.3599 88.8528 14.9482 89.437 14.3343 89.5356C14.2744 89.5432 14.207 89.5508 14.1471 89.5508H14.1546ZM43.4128 89.4901C43.278 89.4901 43.1433 89.4673 43.016 89.4142C42.4395 89.1942 42.1401 88.5342 42.3647 87.9501C42.5069 87.5708 42.724 87.2294 43.0085 86.9411C44.0791 85.8487 45.9433 85.8487 47.0139 86.9411C47.1487 87.0777 47.2685 87.2218 47.3733 87.3811C47.7177 87.9046 47.568 88.6101 47.0514 88.959C46.5348 89.308 45.8385 89.1563 45.4941 88.6328C45.4717 88.6025 45.4492 88.5721 45.4193 88.5418C45.2021 88.3218 44.8203 88.3218 44.6032 88.5418C44.5433 88.6025 44.4984 88.6708 44.4684 88.7542C44.2962 89.2094 43.8695 89.4901 43.4203 89.4901H43.4128ZM24.6809 86.2129C24.1045 86.2129 23.6103 85.7653 23.5654 85.166C23.4606 83.8915 23.3932 82.6018 23.3483 81.3198C23.3258 80.6901 23.8125 80.1667 24.4339 80.1439C25.0628 80.1288 25.5719 80.6143 25.5943 81.2439C25.6318 82.4805 25.7066 83.7398 25.804 84.9763C25.8564 85.606 25.3922 86.1522 24.7783 86.2053C24.7483 86.2053 24.7184 86.2053 24.6884 86.2053L24.6809 86.2129ZM65.3715 85.6287C65.3715 85.6287 65.3116 85.6287 65.2891 85.6287C64.6677 85.5832 64.2035 85.037 64.2559 84.4073C64.3458 83.1632 64.4132 81.9115 64.4431 80.675C64.4581 80.0453 64.9747 79.5446 65.5961 79.5674C66.2175 79.5826 66.7041 80.106 66.6891 80.7356C66.6592 82.0101 66.5918 83.2998 66.502 84.5818C66.457 85.1811 65.9629 85.6363 65.3864 85.6363L65.3715 85.6287ZM60.9168 82.7308C60.2954 82.7308 59.7938 82.2225 59.7938 81.5929V77.7998C59.7938 77.1702 60.2954 76.6619 60.9168 76.6619C61.5382 76.6619 62.0399 77.1702 62.0399 77.7998V81.5929C62.0399 82.2225 61.5382 82.7308 60.9168 82.7308ZM76.3395 82.5563C76.3395 82.5563 76.3171 82.5563 76.3021 82.5563C75.6807 82.5412 75.1941 82.0101 75.2165 81.3881C75.239 80.5308 75.254 79.6736 75.254 78.8163C75.254 78.4295 75.254 78.035 75.2465 77.6481C75.239 77.0184 75.7331 76.5026 76.3545 76.495H76.3695C76.9834 76.495 77.485 76.9957 77.4925 77.6177C77.4925 78.0198 77.5 78.4143 77.5 78.8163C77.5 79.6963 77.485 80.5763 77.4626 81.4563C77.4476 82.0708 76.946 82.5639 76.3395 82.5639V82.5563ZM29.0906 82.3439C28.4692 82.3439 27.9676 81.8356 27.9676 81.206V77.4129C27.9676 76.7833 28.4692 76.275 29.0906 76.275C29.712 76.275 30.2137 76.7833 30.2137 77.4129V81.206C30.2137 81.8356 29.712 82.3439 29.0906 82.3439ZM13.6455 81.9874C13.039 81.9874 12.5374 81.4943 12.5225 80.8798C12.5075 80.1894 12.5 79.5067 12.5 78.8163C12.5 78.2246 12.5 77.6329 12.515 77.0336C12.5299 76.404 13.039 75.8881 13.6604 75.9184C14.2818 75.9336 14.776 76.4495 14.761 77.0791C14.746 77.6557 14.746 78.2322 14.746 78.8163C14.746 79.4839 14.7535 80.1591 14.7685 80.8267C14.7835 81.4563 14.2893 81.9798 13.6754 81.9874C13.6679 81.9874 13.6604 81.9874 13.6455 81.9874ZM24.4414 78.6343H24.4189C23.7975 78.6267 23.3034 78.1032 23.3184 77.4736C23.3408 76.1991 23.3932 74.9019 23.4756 73.6274C23.5205 72.9978 24.0521 72.5198 24.6735 72.5654C25.2949 72.6109 25.759 73.1495 25.7216 73.7791C25.6393 75.0157 25.5868 76.275 25.5644 77.5115C25.5569 78.1336 25.0553 78.6267 24.4414 78.6267V78.6343ZM65.5661 78.0501C64.9597 78.0501 64.4581 77.557 64.4431 76.9426C64.4132 75.6984 64.3533 74.4391 64.2634 73.2102C64.2185 72.5805 64.6827 72.0419 65.3041 71.9888C65.933 71.9509 66.4645 72.4136 66.5094 73.0433C66.5993 74.3102 66.6667 75.6074 66.6966 76.8895C66.7116 77.5191 66.2249 78.0426 65.6035 78.0577C65.5961 78.0577 65.5811 78.0577 65.5736 78.0577L65.5661 78.0501ZM60.9243 75.1522C60.3029 75.1522 59.8013 74.644 59.8013 74.0143V70.2212C59.8013 69.5916 60.3029 69.0833 60.9243 69.0833C61.5457 69.0833 62.0473 69.5916 62.0473 70.2212V74.0143C62.0473 74.644 61.5457 75.1522 60.9243 75.1522ZM76.2422 74.9778C75.6508 74.9778 75.1566 74.5074 75.1192 73.9081C75.0518 72.664 74.9545 71.4123 74.8272 70.1757C74.7673 69.5537 75.2165 68.9923 75.8304 68.9316C76.4444 68.8709 76.9984 69.3261 77.0583 69.9481C77.1856 71.215 77.2829 72.5047 77.3577 73.7791C77.3952 74.4088 76.916 74.9474 76.3021 74.9778C76.2797 74.9778 76.2572 74.9778 76.2347 74.9778H76.2422ZM29.0981 74.7578C28.4767 74.7578 27.9751 74.2495 27.9751 73.6198V69.8268C27.9751 69.1971 28.4767 68.6888 29.0981 68.6888C29.7195 68.6888 30.2211 69.1971 30.2211 69.8268V73.6198C30.2211 74.2495 29.7195 74.7578 29.0981 74.7578ZM13.8027 74.4012C13.8027 74.4012 13.7578 74.4012 13.7278 74.4012C13.1064 74.3633 12.6348 73.8247 12.6797 73.195C12.762 71.9281 12.8669 70.6385 13.0016 69.364C13.069 68.7419 13.623 68.2868 14.2369 68.355C14.8508 68.4233 15.3 68.9847 15.2327 69.6068C15.0979 70.8433 14.9931 72.1026 14.9182 73.3391C14.8808 73.9384 14.3867 74.4088 13.7952 74.4088L13.8027 74.4012ZM24.943 71.0633C24.8981 71.0633 24.8531 71.0633 24.8082 71.0557C24.1943 70.9798 23.7526 70.4185 23.82 69.7964C23.9697 68.5295 24.1494 67.2475 24.3515 65.9882C24.4563 65.3661 25.0403 64.9489 25.6467 65.0551C26.2607 65.1613 26.6724 65.7454 26.5676 66.3675C26.3655 67.5888 26.1933 68.833 26.051 70.0695C25.9836 70.6461 25.497 71.0785 24.9355 71.0785L24.943 71.0633ZM65.0121 70.4792C64.4506 70.4792 63.9714 70.0543 63.8966 69.4778C63.7468 68.2412 63.5597 66.9971 63.35 65.7833C63.2452 65.1613 63.6495 64.5771 64.2634 64.4709C64.8773 64.3647 65.4538 64.7744 65.5661 65.3964C65.7832 66.6482 65.9704 67.9302 66.1276 69.2047C66.2025 69.8268 65.7683 70.3957 65.1543 70.4716C65.1094 70.4716 65.0645 70.4792 65.0121 70.4792V70.4792ZM60.9168 67.5585C60.2954 67.5585 59.7938 67.0502 59.7938 66.4206V62.6275C59.7938 61.9978 60.2954 61.4896 60.9168 61.4896C61.5382 61.4896 62.0399 61.9978 62.0399 62.6275V66.4206C62.0399 67.0502 61.5382 67.5585 60.9168 67.5585ZM75.4861 67.4295C74.9395 67.4295 74.4529 67.0199 74.378 66.4509C74.1983 65.2144 73.9962 63.9702 73.7716 62.7565C73.6593 62.142 74.0561 61.5427 74.67 61.4289C75.2689 61.3151 75.8679 61.7171 75.9802 62.3392C76.2123 63.5833 76.4219 64.8578 76.6016 66.1323C76.6914 66.7544 76.2647 67.3309 75.6508 67.4219C75.5984 67.4295 75.5385 67.4371 75.4861 67.4371V67.4295ZM29.0906 67.1716C28.4692 67.1716 27.9676 66.6633 27.9676 66.0337V62.2406C27.9676 61.6109 28.4692 61.1027 29.0906 61.1027C29.712 61.1027 30.2137 61.6109 30.2137 62.2406V66.0337C30.2137 66.6633 29.712 67.1716 29.0906 67.1716ZM14.5963 66.8606C14.5439 66.8606 14.484 66.8606 14.4241 66.8454C13.8102 66.7544 13.3909 66.1702 13.4808 65.5482C13.6679 64.2889 13.885 63.0144 14.1246 61.7627C14.2444 61.1482 14.8284 60.7385 15.4423 60.8675C16.0487 60.9889 16.4455 61.5882 16.3257 62.2027C16.0936 63.424 15.8765 64.6606 15.6968 65.8895C15.6145 66.4509 15.1353 66.8606 14.5888 66.8606H14.5963ZM26.1783 63.5833C26.0959 63.5833 26.0211 63.5758 25.9387 63.553C25.3323 63.4164 24.9505 62.8096 25.0852 62.1951C25.3548 60.9434 25.6617 59.6841 25.9911 58.4551C26.1558 57.8482 26.7698 57.4917 27.3687 57.6586C27.6232 57.7268 27.8329 57.8786 27.9751 58.0834V56.331C27.6682 56.2324 27.4061 56.0048 27.2789 55.6786C27.0393 55.0944 27.3163 54.4344 27.8853 54.1917C28.1773 54.0703 28.4992 54.0324 28.8136 54.0855C29.2104 54.1537 29.5698 54.3586 29.8318 54.6772C30.0864 54.9882 30.2286 55.3827 30.2286 55.7848V58.4399C30.2286 59.0696 29.727 59.5779 29.1056 59.5779C28.7088 59.5779 28.3644 59.373 28.1623 59.0544C27.8404 60.2454 27.5484 61.4668 27.2863 62.6806C27.174 63.2116 26.7099 63.5758 26.1933 63.5758L26.1783 63.5833ZM63.7319 63.0144C63.2153 63.0144 62.7586 62.6578 62.6388 62.1268C62.4292 61.1861 62.1971 60.2378 61.95 59.2972C61.7778 59.6992 61.381 59.9799 60.9243 59.9799C60.3029 59.9799 59.8013 59.4716 59.8013 58.842V55.8682C59.8013 55.8151 59.8013 55.762 59.8013 55.7089C59.8013 55.3448 59.9136 54.9958 60.1232 54.7C60.288 54.4724 60.5051 54.2827 60.7596 54.1613C61.3211 53.8882 61.9874 54.1234 62.2644 54.6848C62.4741 55.1248 62.3842 55.6406 62.0623 55.9744V57.3855C62.1896 57.2641 62.3543 57.1655 62.534 57.1123C63.1329 56.9455 63.7543 57.302 63.919 57.9013C64.2559 59.1379 64.5704 60.3896 64.8474 61.6337C64.9821 62.2482 64.6003 62.8551 64.0014 62.9916C63.919 63.0068 63.8367 63.022 63.7543 63.022L63.7319 63.0144ZM74.101 59.9799C73.5919 59.9799 73.1277 59.6234 73.0079 59.0999C72.7309 57.8937 72.424 56.6724 72.0871 55.4737C71.9224 54.8668 72.2668 54.2372 72.8657 54.0703C73.4646 53.8958 74.0785 54.2524 74.2507 54.8593C74.5951 56.0958 74.9096 57.3475 75.1941 58.5765C75.3363 59.191 74.962 59.7978 74.3556 59.942C74.2657 59.9647 74.1834 59.9723 74.101 59.9723V59.9799ZM16.0263 59.4261C15.9364 59.4261 15.8541 59.4185 15.7642 59.3958C15.1578 59.2516 14.7909 58.6372 14.9332 58.0227C15.2252 56.7861 15.5546 55.5344 15.899 54.3055C16.0712 53.6986 16.6851 53.3496 17.2915 53.5241C17.8905 53.6986 18.2349 54.3282 18.0627 54.9351C17.7258 56.1337 17.4038 57.3475 17.1193 58.5537C16.9921 59.0772 16.5354 59.4261 16.0263 59.4261V59.4261ZM72.0796 52.682C71.6079 52.682 71.1662 52.3786 71.009 51.9007C70.6272 50.7172 70.2154 49.5338 69.7812 48.3655C69.564 47.7738 69.856 47.1214 70.44 46.9014C71.0165 46.6814 71.6678 46.9772 71.8849 47.569C72.3267 48.76 72.7534 49.9814 73.1427 51.1951C73.3374 51.7945 73.0154 52.4317 72.424 52.6289C72.3042 52.6669 72.1919 52.6896 72.0721 52.6896L72.0796 52.682ZM18.0926 52.1358C17.9728 52.1358 17.853 52.1131 17.7332 52.0751C17.1418 51.8779 16.8273 51.2331 17.022 50.6338C17.4188 49.42 17.853 48.2062 18.3022 47.0152C18.5268 46.431 19.1707 46.1352 19.7547 46.3628C20.3311 46.5903 20.6231 47.2428 20.3985 47.8345C19.9568 48.9952 19.5375 50.1786 19.1482 51.362C18.991 51.84 18.5568 52.1358 18.0851 52.1358H18.0926ZM69.4592 45.5662C69.025 45.5662 68.6057 45.3083 68.4261 44.8759C68.0517 43.9959 67.6699 43.1159 67.2656 42.2435C67.1533 42.0083 67.041 41.7731 66.9137 41.5456C66.6068 40.9993 66.8014 40.3014 67.3405 39.998C67.8795 39.6869 68.5683 39.8842 68.8678 40.4304C69.025 40.7035 69.1672 40.9918 69.302 41.28C69.7138 42.1752 70.1106 43.078 70.4924 43.9883C70.7395 44.5648 70.4699 45.2324 69.9009 45.4828C69.7587 45.5435 69.609 45.5738 69.4592 45.5738V45.5662ZM20.7878 45.0352C20.6381 45.0352 20.4884 45.0048 20.3386 44.9442C19.7696 44.6938 19.5076 44.0262 19.7547 43.4497C20.0691 42.7214 20.391 41.9931 20.7279 41.2649C20.9525 40.7869 21.1996 40.3242 21.4766 39.8842C21.806 39.3532 22.5023 39.1938 23.0264 39.5276C23.5504 39.8614 23.7077 40.5669 23.3783 41.098C23.1537 41.4621 22.944 41.8414 22.7643 42.2283C22.4424 42.9338 22.128 43.6393 21.821 44.3524C21.6338 44.7848 21.2221 45.0352 20.7878 45.0352V45.0352ZM65.5511 39.1863C65.2891 39.1863 65.0196 39.0952 64.8025 38.898C64.3982 38.5338 63.9565 38.1925 63.4923 37.8966C63.0056 37.5856 62.4965 37.3125 61.965 37.0849C61.396 36.8421 61.1265 36.1746 61.366 35.598C61.6056 35.0215 62.2645 34.7484 62.8334 34.9911C63.4773 35.2642 64.1062 35.598 64.7051 35.9773C65.2666 36.3414 65.8057 36.7511 66.2998 37.1987C66.764 37.6159 66.8014 38.3366 66.3897 38.807C66.165 39.0573 65.8581 39.1863 65.5511 39.1863V39.1863ZM24.9056 38.8145C24.5761 38.8145 24.2542 38.6704 24.0296 38.3897C23.6403 37.8966 23.7152 37.1835 24.2018 36.789C24.5612 36.4932 24.943 36.2201 25.3323 35.9697C26.0959 35.4766 26.9195 35.067 27.773 34.7559C28.3569 34.5435 29.0008 34.847 29.2104 35.4387C29.4201 36.0304 29.1206 36.6828 28.5366 36.8952C27.8404 37.1532 27.1666 37.487 26.5377 37.889C26.2157 38.0939 25.9013 38.3214 25.6093 38.5642C25.3997 38.7311 25.1526 38.8145 24.9056 38.8145ZM58.7756 36.3111C58.7756 36.3111 58.7232 36.3111 58.7008 36.3111C58.4762 36.2959 58.289 36.2883 58.027 36.2883H54.2836C53.6622 36.2883 53.1606 35.7801 53.1606 35.1504C53.1606 34.5208 53.6622 34.0049 54.2761 34.0049H58.0195C58.2965 33.9897 58.5735 34.0125 58.843 34.0353C59.4644 34.0732 59.9286 34.6194 59.8912 35.249C59.8537 35.8483 59.3596 36.3111 58.7681 36.3111H58.7756ZM31.8233 36.2883C31.2094 36.2883 30.7078 35.7877 30.7003 35.1656C30.6928 34.5359 31.1869 34.0201 31.8083 34.0125H35.5667C36.1881 34.0125 36.6897 34.5208 36.6897 35.1504C36.6897 35.7801 36.1881 36.2883 35.5667 36.2883H31.8383C31.8383 36.2883 31.8308 36.2883 31.8233 36.2883ZM50.5402 36.2883H46.7968C46.1754 36.2883 45.6738 35.7801 45.6738 35.1504C45.6738 34.5208 46.1754 34.0049 46.7893 34.0049H50.5327C51.1541 34.0049 51.6557 34.5132 51.6557 35.1428C51.6557 35.7725 51.1541 36.2808 50.5327 36.2808L50.5402 36.2883ZM43.0534 36.2883H39.3101C38.6887 36.2883 38.1871 35.7801 38.1871 35.1504C38.1871 34.5208 38.6887 34.0049 39.3026 34.0049H43.046C43.6674 34.0049 44.169 34.5132 44.169 35.1428C44.169 35.7725 43.6674 36.2808 43.046 36.2808L43.0534 36.2883Z" fill="#C9C9C9"/>
</g>
<g clip-path="url(#clip2_1829_24150)">
<path d="M52.5923 152C52.5467 152 52.4935 152 52.4479 152C50.4875 151.924 48.679 151.105 47.3417 149.686C46.0119 148.275 45.2901 146.424 45.3205 144.474V88.6868C45.3205 88.6413 45.3129 88.5958 45.2901 88.5502C45.2749 88.5123 45.2521 88.4744 45.2217 88.444C45.1913 88.4137 45.1533 88.3909 45.1153 88.3682C45.0317 88.3378 44.9405 88.3378 44.8645 88.3682C44.8266 88.3833 44.7886 88.4061 44.7582 88.4364C44.7278 88.4668 44.705 88.5047 44.6822 88.5502C44.667 88.5882 44.6594 88.6337 44.6594 88.6792V144.694C44.6594 146.644 43.9071 148.472 42.5318 149.845C41.1564 151.226 39.3328 151.985 37.3875 151.985C36.4301 151.985 35.4955 151.795 34.6065 151.431C33.7174 151.059 32.9272 150.528 32.2509 149.845C31.5746 149.17 31.0427 148.373 30.678 147.478C30.3133 146.591 30.1233 145.65 30.1309 144.694V58.6197C27.6841 67.7847 27.0079 77.2077 28.1097 86.699C28.3604 88.8537 27.5778 90.7732 25.9593 91.9796C24.2496 93.2466 21.8864 93.5197 19.9336 92.6776C18.0567 91.8657 16.8334 90.1207 16.575 87.8978C14.7362 71.9879 17.3273 55.896 24.0672 41.3745C25.0854 39.1743 26.7039 37.3155 28.7403 36.003C30.7844 34.6904 33.1399 34 35.5639 34H54.4236C56.8475 34 59.2031 34.6904 61.2471 35.9954C63.2911 37.3003 64.9096 39.1591 65.9278 41.3669C72.6906 55.9491 75.2741 72.1017 73.4048 88.0723C72.9717 91.8202 69.8487 93.4438 66.9916 93.1176C64.127 92.7838 61.4675 90.4242 61.9082 86.5549C62.9948 77.0788 62.3033 67.6633 59.849 58.5135V144.709C59.849 145.68 59.659 146.628 59.2867 147.531C58.9143 148.427 58.3672 149.231 57.6758 149.914C56.9843 150.596 56.1712 151.12 55.267 151.484C54.4084 151.826 53.5117 152 52.5847 152H52.5923ZM44.9861 86.0693C45.3281 86.0693 45.67 86.1376 45.9891 86.2666C46.3083 86.3956 46.5894 86.5928 46.8326 86.8356C47.0757 87.0784 47.2657 87.3591 47.3949 87.6777C47.524 88.004 47.5924 88.3378 47.5924 88.6792V144.489C47.5696 145.855 48.0711 147.137 48.9906 148.115C49.91 149.094 51.1638 149.663 52.5011 149.716C53.1622 149.732 53.8005 149.61 54.416 149.367C55.039 149.117 55.5937 148.76 56.0649 148.29C56.5436 147.82 56.9159 147.273 57.1743 146.651C57.4326 146.037 57.5618 145.377 57.5618 144.709V54.7883C57.5238 54.371 57.6378 53.9613 57.8809 53.6199C58.1545 53.2405 58.5496 52.9978 59.0055 52.9219C59.4614 52.8536 59.9173 52.9598 60.2897 53.2329C60.6316 53.4833 60.8672 53.8399 60.9583 54.2496C64.3473 64.8258 65.4263 75.7814 64.1649 86.8204C63.8762 89.3317 65.5023 90.6594 67.2424 90.8643C68.9217 91.0615 70.8517 90.189 71.1253 87.8143C72.9489 72.2535 70.4338 56.5257 63.8458 42.3229C63.01 40.5096 61.6802 38.9846 60.0009 37.9073C58.3292 36.8375 56.3916 36.2685 54.4084 36.2685H35.5639C33.5806 36.2685 31.643 36.8375 29.9713 37.9073C28.2996 38.9846 26.9699 40.502 26.134 42.3153C19.5765 56.4726 17.0537 72.1396 18.8318 87.6398C19.037 89.4531 20.0324 90.2497 20.8302 90.5911C22.0308 91.1071 23.5353 90.9326 24.5915 90.1511C25.2754 89.6428 26.0428 88.6792 25.8377 86.9646C24.5383 75.8573 25.6249 64.8334 29.0519 54.1889C29.1811 53.7944 29.4394 53.4681 29.7889 53.2557C30.1385 53.0433 30.5564 52.9598 30.9591 53.0281C31.3695 53.0964 31.7342 53.3088 31.9925 53.6199C32.2585 53.9309 32.3953 54.3331 32.3953 54.7352V144.701C32.3953 145.361 32.5244 146.014 32.7752 146.621C33.0259 147.235 33.3907 147.782 33.8542 148.244C34.3177 148.715 34.8648 149.079 35.4727 149.329C36.0806 149.58 36.7189 149.709 37.3799 149.709C38.7097 149.709 39.9635 149.185 40.9057 148.244C41.8327 147.311 42.3722 146.021 42.3722 144.701V88.6868C42.3722 88.3454 42.4406 88.004 42.5698 87.6929C42.7065 87.3743 42.8965 87.086 43.1397 86.8432C43.3828 86.6004 43.664 86.4107 43.9831 86.2742C44.3022 86.1452 44.6366 86.0769 44.9861 86.0769V86.0693Z" fill="#F44432"/>
</g>
<g clip-path="url(#clip3_1829_24150)">
<path d="M45 30C36.7244 30 30 23.2701 30 15C30 6.72986 36.7244 0 45 0C53.2756 0 60 6.72986 60 15C60 23.2701 53.2756 30 45 30ZM45 2.36967C38.0315 2.36967 32.3622 8.03318 32.3622 15C32.3622 21.9668 38.0315 27.6303 45 27.6303C51.9685 27.6303 57.6378 21.9668 57.6378 15C57.6378 8.03318 51.9685 2.36967 45 2.36967Z" fill="#F44432"/>
</g>
</g>
<defs>
<clipPath id="clip0_1829_24150">
<rect width="90" height="152" fill="white"/>
</clipPath>
<clipPath id="clip1_1829_24150">
<rect width="66" height="118" fill="white" transform="translate(11.5 34)"/>
</clipPath>
<clipPath id="clip2_1829_24150">
<rect width="58" height="118" fill="white" transform="translate(16 34)"/>
</clipPath>
<clipPath id="clip3_1829_24150">
<rect width="30" height="30" fill="white" transform="translate(30)"/>
</clipPath>
</defs>
</svg>
