<svg width="90" height="152" viewBox="0 0 90 152" fill="none" xmlns="http://www.w3.org/2000/svg">
<g clip-path="url(#clip0_1829_24159)">
<g clip-path="url(#clip1_1829_24159)">
<path d="M53.2736 151.992H53.1164C52.1956 151.954 51.3196 151.772 50.4811 151.454C49.8971 151.234 49.6051 150.574 49.8223 149.99C50.0394 149.398 50.6907 149.102 51.2672 149.322C51.8811 149.557 52.5175 149.686 53.1688 149.709H53.2662C53.6255 149.709 53.9924 149.679 54.3517 149.61C54.9657 149.497 55.5496 149.906 55.6619 150.528C55.7742 151.15 55.3699 151.742 54.756 151.856C54.2619 151.947 53.7678 151.992 53.2662 151.992H53.2736ZM35.6573 151.992H35.5001C34.9086 151.97 34.3396 151.886 33.7856 151.742C33.1867 151.59 32.8198 150.976 32.9696 150.361C33.1193 149.755 33.7257 149.375 34.3322 149.535C34.7364 149.633 35.1557 149.694 35.5675 149.717H35.6573C36.2563 149.717 36.8477 149.626 37.4167 149.451C38.0082 149.261 38.637 149.603 38.8242 150.202C39.0039 150.801 38.6745 151.439 38.083 151.628C37.2969 151.879 36.4809 152 35.6573 152V151.992ZM57.9005 150.255C57.586 150.255 57.2716 150.119 57.047 149.861C56.6427 149.383 56.6951 148.662 57.1668 148.252C57.2716 148.161 57.3689 148.07 57.4587 147.979C58.0277 147.41 58.4769 146.735 58.7839 145.992C58.8288 145.878 58.8737 145.764 58.9112 145.643C59.1133 145.051 59.7572 144.74 60.3411 144.945C60.9251 145.15 61.2321 145.802 61.0299 146.394C60.9775 146.553 60.9176 146.712 60.8502 146.864C60.4235 147.896 59.8096 148.814 59.0235 149.603C58.8962 149.732 58.7539 149.861 58.6192 149.982C58.4096 150.164 58.1475 150.255 57.8855 150.255H57.9005ZM30.8134 149.975C30.5364 149.975 30.2594 149.868 30.0422 149.663C29.9374 149.565 29.8326 149.459 29.7278 149.345C28.8444 148.389 28.1706 147.228 27.7962 145.977C27.6165 145.377 27.946 144.74 28.5449 144.558C29.1363 144.368 29.7652 144.71 29.9449 145.317C30.2219 146.235 30.7086 147.092 31.3599 147.79C31.4348 147.866 31.5097 147.949 31.5845 148.017C32.0337 148.45 32.0487 149.17 31.622 149.626C31.4048 149.861 31.1054 149.982 30.8059 149.982L30.8134 149.975ZM40.8756 149.671C40.6061 149.671 40.329 149.572 40.1194 149.368C39.6627 148.943 39.6328 148.222 40.052 147.759C40.5237 147.236 40.9055 146.644 41.1676 145.984C41.3023 145.65 41.4146 145.309 41.4895 144.952C41.6243 144.338 42.2307 143.951 42.8296 144.088C43.436 144.224 43.8179 144.831 43.6831 145.446C43.5783 145.931 43.4286 146.401 43.2414 146.857C42.8745 147.752 42.3505 148.571 41.7066 149.292C41.482 149.535 41.1825 149.663 40.8831 149.663L40.8756 149.671ZM47.8607 149.36C47.5388 149.36 47.2169 149.223 46.9997 148.95C46.0714 147.828 45.45 146.47 45.1805 145.028C45.0682 144.414 45.4724 143.815 46.0789 143.701C46.6853 143.587 47.2768 143.997 47.3891 144.611C47.5837 145.666 48.0404 146.659 48.7217 147.486C49.1185 147.972 49.0586 148.685 48.5794 149.087C48.3698 149.261 48.1153 149.352 47.8607 149.352V149.36ZM60.3711 143.412C59.7497 143.412 59.2481 142.904 59.2481 142.275V138.481C59.2481 137.852 59.7497 137.344 60.3711 137.344C60.9925 137.344 61.4941 137.852 61.4941 138.481V142.275C61.4941 142.904 60.9925 143.412 60.3711 143.412ZM28.5449 143.026C27.9235 143.026 27.4219 142.517 27.4219 141.888V138.095C27.4219 137.465 27.9235 136.957 28.5449 136.957C29.1663 136.957 29.6679 137.465 29.6679 138.095V141.888C29.6679 142.517 29.1663 143.026 28.5449 143.026ZM42.7548 142.57C42.1334 142.57 41.6317 142.062 41.6317 141.432V137.639C41.6317 137.01 42.1334 136.501 42.7548 136.501C43.3762 136.501 43.8778 137.01 43.8778 137.639V141.432C43.8778 142.062 43.3762 142.57 42.7548 142.57ZM46.1612 142.184C45.5398 142.184 45.0382 141.675 45.0382 141.046V137.253C45.0382 136.623 45.5398 136.115 46.1612 136.115C46.7826 136.115 47.2842 136.623 47.2842 137.253V141.046C47.2842 141.675 46.7826 142.184 46.1612 142.184ZM60.3711 135.826C59.7497 135.826 59.2481 135.318 59.2481 134.688V130.895C59.2481 130.266 59.7497 129.757 60.3711 129.757C60.9925 129.757 61.4941 130.266 61.4941 130.895V134.688C61.4941 135.318 60.9925 135.826 60.3711 135.826ZM28.5449 135.439C27.9235 135.439 27.4219 134.931 27.4219 134.302V130.508C27.4219 129.879 27.9235 129.371 28.5449 129.371C29.1663 129.371 29.6679 129.879 29.6679 130.508V134.302C29.6679 134.931 29.1663 135.439 28.5449 135.439ZM42.7548 134.984C42.1334 134.984 41.6317 134.476 41.6317 133.846V130.053C41.6317 129.424 42.1334 128.915 42.7548 128.915C43.3762 128.915 43.8778 129.424 43.8778 130.053V133.846C43.8778 134.476 43.3762 134.984 42.7548 134.984ZM46.1612 134.597C45.5398 134.597 45.0382 134.089 45.0382 133.459V129.666C45.0382 129.037 45.5398 128.528 46.1612 128.528C46.7826 128.528 47.2842 129.037 47.2842 129.666V133.459C47.2842 134.089 46.7826 134.597 46.1612 134.597ZM60.3711 128.24C59.7497 128.24 59.2481 127.732 59.2481 127.102V123.309C59.2481 122.68 59.7497 122.171 60.3711 122.171C60.9925 122.171 61.4941 122.68 61.4941 123.309V127.102C61.4941 127.732 60.9925 128.24 60.3711 128.24ZM28.5449 127.853C27.9235 127.853 27.4219 127.345 27.4219 126.715V122.922C27.4219 122.293 27.9235 121.784 28.5449 121.784C29.1663 121.784 29.6679 122.293 29.6679 122.922V126.715C29.6679 127.345 29.1663 127.853 28.5449 127.853ZM42.7548 127.398C42.1334 127.398 41.6317 126.89 41.6317 126.26V122.467C41.6317 121.837 42.1334 121.329 42.7548 121.329C43.3762 121.329 43.8778 121.837 43.8778 122.467V126.26C43.8778 126.89 43.3762 127.398 42.7548 127.398ZM46.1612 127.011C45.5398 127.011 45.0382 126.503 45.0382 125.873V122.08C45.0382 121.451 45.5398 120.942 46.1612 120.942C46.7826 120.942 47.2842 121.451 47.2842 122.08V125.873C47.2842 126.503 46.7826 127.011 46.1612 127.011ZM60.3711 120.654C59.7497 120.654 59.2481 120.146 59.2481 119.516V115.723C59.2481 115.093 59.7497 114.585 60.3711 114.585C60.9925 114.585 61.4941 115.093 61.4941 115.723V119.516C61.4941 120.146 60.9925 120.654 60.3711 120.654ZM28.5449 120.267C27.9235 120.267 27.4219 119.759 27.4219 119.129V115.336C27.4219 114.706 27.9235 114.198 28.5449 114.198C29.1663 114.198 29.6679 114.706 29.6679 115.336V119.129C29.6679 119.759 29.1663 120.267 28.5449 120.267ZM42.7548 119.812C42.1334 119.812 41.6317 119.304 41.6317 118.674V114.881C41.6317 114.251 42.1334 113.743 42.7548 113.743C43.3762 113.743 43.8778 114.251 43.8778 114.881V118.674C43.8778 119.304 43.3762 119.812 42.7548 119.812ZM46.1612 119.425C45.5398 119.425 45.0382 118.917 45.0382 118.287V114.494C45.0382 113.864 45.5398 113.356 46.1612 113.356C46.7826 113.356 47.2842 113.864 47.2842 114.494V118.287C47.2842 118.917 46.7826 119.425 46.1612 119.425ZM60.3711 113.068C59.7497 113.068 59.2481 112.56 59.2481 111.93V108.137C59.2481 107.507 59.7497 106.999 60.3711 106.999C60.9925 106.999 61.4941 107.507 61.4941 108.137V111.93C61.4941 112.56 60.9925 113.068 60.3711 113.068ZM28.5449 112.681C27.9235 112.681 27.4219 112.173 27.4219 111.543V107.75C27.4219 107.12 27.9235 106.612 28.5449 106.612C29.1663 106.612 29.6679 107.12 29.6679 107.75V111.543C29.6679 112.173 29.1663 112.681 28.5449 112.681ZM42.7548 112.226C42.1334 112.226 41.6317 111.718 41.6317 111.088V107.295C41.6317 106.665 42.1334 106.157 42.7548 106.157C43.3762 106.157 43.8778 106.665 43.8778 107.295V111.088C43.8778 111.718 43.3762 112.226 42.7548 112.226ZM46.1612 111.839C45.5398 111.839 45.0382 111.331 45.0382 110.701V106.908C45.0382 106.278 45.5398 105.77 46.1612 105.77C46.7826 105.77 47.2842 106.278 47.2842 106.908V110.701C47.2842 111.331 46.7826 111.839 46.1612 111.839ZM60.3711 105.482C59.7497 105.482 59.2481 104.973 59.2481 104.344V100.551C59.2481 99.921 59.7497 99.4128 60.3711 99.4128C60.9925 99.4128 61.4941 99.921 61.4941 100.551V104.344C61.4941 104.973 60.9925 105.482 60.3711 105.482ZM28.5449 105.095C27.9235 105.095 27.4219 104.587 27.4219 103.957V100.164C27.4219 99.5341 27.9235 99.0259 28.5449 99.0259C29.1663 99.0259 29.6679 99.5341 29.6679 100.164V103.957C29.6679 104.587 29.1663 105.095 28.5449 105.095ZM42.7548 104.64C42.1334 104.64 41.6317 104.131 41.6317 103.502V99.7086C41.6317 99.079 42.1334 98.5707 42.7548 98.5707C43.3762 98.5707 43.8778 99.079 43.8778 99.7086V103.502C43.8778 104.131 43.3762 104.64 42.7548 104.64ZM46.1612 104.253C45.5398 104.253 45.0382 103.744 45.0382 103.115V99.3217C45.0382 98.6921 45.5398 98.1838 46.1612 98.1838C46.7826 98.1838 47.2842 98.6921 47.2842 99.3217V103.115C47.2842 103.744 46.7826 104.253 46.1612 104.253ZM60.3711 97.8955C59.7497 97.8955 59.2481 97.3873 59.2481 96.7576V92.9645C59.2481 92.3349 59.7497 91.8266 60.3711 91.8266C60.9925 91.8266 61.4941 92.3349 61.4941 92.9645V96.7576C61.4941 97.3873 60.9925 97.8955 60.3711 97.8955ZM28.5449 97.5086C27.9235 97.5086 27.4219 97.0004 27.4219 96.3707V92.5776C27.4219 91.948 27.9235 91.4397 28.5449 91.4397C29.1663 91.4397 29.6679 91.948 29.6679 92.5776V96.3707C29.6679 97.0004 29.1663 97.5086 28.5449 97.5086ZM42.7548 97.0535C42.1334 97.0535 41.6317 96.5452 41.6317 95.9155V92.1225C41.6317 91.4928 42.1334 90.9845 42.7548 90.9845C43.3762 90.9845 43.8778 91.4928 43.8778 92.1225V95.9155C43.8778 96.5452 43.3762 97.0535 42.7548 97.0535ZM46.1612 96.6666C45.5398 96.6666 45.0382 96.1583 45.0382 95.5287V91.7356C45.0382 91.1059 45.5398 90.5977 46.1612 90.5977C46.7826 90.5977 47.2842 91.1059 47.2842 91.7356V95.5287C47.2842 96.1583 46.7826 96.6666 46.1612 96.6666ZM70.044 94.1707C69.8793 94.1707 69.7146 94.1707 69.5573 94.1556C68.9359 94.11 68.4718 93.5714 68.5167 92.9418C68.5616 92.3121 69.0857 91.8342 69.7146 91.8873C70.7328 91.9556 71.7659 91.6901 72.5371 91.1363C73.0462 90.7721 73.7424 90.9011 74.1018 91.417C74.4612 91.9328 74.3339 92.6383 73.8248 93.0025C72.7392 93.7762 71.4365 94.1783 70.044 94.1783V94.1707ZM18.7298 94.1556H18.6998C17.1276 94.1176 15.6602 93.5487 14.5522 92.5473C14.088 92.1301 14.0505 91.4094 14.4623 90.939C14.8741 90.4687 15.5853 90.4308 16.0495 90.848C16.7607 91.4852 17.719 91.8494 18.7597 91.8797C19.3811 91.8949 19.8677 92.4183 19.8528 93.0404C19.8378 93.6625 19.3362 94.148 18.7298 94.148V94.1556ZM22.256 93.0859C21.9041 93.0859 21.5598 92.919 21.3426 92.608C20.9833 92.0997 21.1031 91.3866 21.6047 91.0225C22.1737 90.6128 22.8999 89.8618 23.1469 88.6253C23.2667 88.0108 23.8657 87.6087 24.4721 87.7301C25.0785 87.8515 25.4753 88.4508 25.3555 89.0728C25.0486 90.6356 24.2026 91.948 22.9149 92.8811C22.7202 93.0252 22.4881 93.0935 22.2635 93.0935L22.256 93.0859ZM66.2407 92.7294C65.9712 92.7294 65.7017 92.6307 65.4845 92.4335C64.3615 91.3942 63.6802 89.9983 63.5005 88.3977C63.4332 87.7756 63.8749 87.2066 64.4888 87.1384C65.1027 87.0701 65.6642 87.5177 65.7316 88.1397C65.8514 89.2018 66.2781 90.0818 66.9969 90.7494C67.4536 91.1742 67.4835 91.8949 67.0717 92.3576C66.8471 92.6004 66.5477 92.7294 66.2407 92.7294V92.7294ZM60.3636 90.317C59.7422 90.317 59.2406 89.8087 59.2406 89.179V85.386C59.2406 84.7563 59.7422 84.248 60.3636 84.248C60.985 84.248 61.4866 84.7563 61.4866 85.386V89.179C61.4866 89.8087 60.985 90.317 60.3636 90.317ZM75.1874 90.1121C75.0975 90.1121 75.0152 90.1046 74.9253 90.0818C74.3189 89.9377 73.9521 89.3232 74.0943 88.7087C74.1467 88.4811 74.1916 88.2384 74.2141 87.988C74.3114 87.0322 74.4013 86.0763 74.4686 85.1204C74.5136 84.4908 75.0601 84.028 75.6665 84.066C76.2879 84.1115 76.7521 84.6577 76.7072 85.2798C76.6398 86.266 76.55 87.2446 76.4451 88.2232C76.4077 88.5646 76.3553 88.9059 76.273 89.2246C76.1457 89.748 75.689 90.097 75.1799 90.097L75.1874 90.1121ZM28.5374 89.9301C27.916 89.9301 27.4144 89.4218 27.4144 88.7921V84.9991C27.4144 84.3694 27.916 83.8611 28.5374 83.8611C29.1588 83.8611 29.6604 84.3694 29.6604 84.9991V88.7921C29.6604 89.4218 29.1588 89.9301 28.5374 89.9301ZM13.6013 89.5508C13.0623 89.5508 12.5831 89.1563 12.4933 88.5949C12.4708 88.4356 12.4484 88.2687 12.4259 88.1018C12.3061 86.9715 12.2088 85.8335 12.1414 84.7108C12.0965 84.0811 12.5682 83.5425 13.1896 83.497C13.796 83.4515 14.3425 83.9294 14.3874 84.5591C14.4623 85.6515 14.5522 86.7666 14.6645 87.8666C14.6794 87.988 14.6944 88.1094 14.7094 88.2308C14.8067 88.8528 14.3949 89.437 13.781 89.5356C13.7211 89.5432 13.6537 89.5508 13.5938 89.5508H13.6013ZM42.8596 89.4901C42.7248 89.4901 42.59 89.4673 42.4628 89.4142C41.8863 89.1942 41.5868 88.5342 41.8114 87.9501C41.9537 87.5708 42.1708 87.2294 42.4553 86.9411C43.5259 85.8487 45.3901 85.8487 46.4607 86.9411C46.5955 87.0777 46.7152 87.2218 46.8201 87.3811C47.1645 87.9046 47.0147 88.6101 46.4981 88.959C45.9815 89.308 45.2853 89.1563 44.9409 88.6328C44.9184 88.6025 44.896 88.5721 44.866 88.5418C44.6489 88.3218 44.2671 88.3218 44.05 88.5418C43.9901 88.6025 43.9451 88.6708 43.9152 88.7542C43.743 89.2094 43.3163 89.4901 42.8671 89.4901H42.8596ZM24.1277 86.2129C23.5512 86.2129 23.0571 85.7653 23.0122 85.166C22.9074 83.8915 22.84 82.6018 22.7951 81.3198C22.7726 80.6901 23.2592 80.1667 23.8806 80.1439C24.5095 80.1288 25.0186 80.6143 25.0411 81.2439C25.0785 82.4805 25.1534 83.7398 25.2507 84.9763C25.3031 85.606 24.839 86.1522 24.225 86.2053C24.1951 86.2053 24.1651 86.2053 24.1352 86.2053L24.1277 86.2129ZM64.8182 85.6287C64.8182 85.6287 64.7583 85.6287 64.7359 85.6287C64.1145 85.5832 63.6503 85.037 63.7027 84.4073C63.7925 83.1632 63.8599 81.9115 63.8899 80.675C63.9048 80.0453 64.4214 79.5446 65.0428 79.5674C65.6642 79.5826 66.1509 80.106 66.1359 80.7356C66.1059 82.0101 66.0386 83.2998 65.9487 84.5818C65.9038 85.1811 65.4097 85.6363 64.8332 85.6363L64.8182 85.6287ZM60.3636 82.7308C59.7422 82.7308 59.2406 82.2225 59.2406 81.5929V77.7998C59.2406 77.1702 59.7422 76.6619 60.3636 76.6619C60.985 76.6619 61.4866 77.1702 61.4866 77.7998V81.5929C61.4866 82.2225 60.985 82.7308 60.3636 82.7308ZM75.7863 82.5563C75.7863 82.5563 75.7638 82.5563 75.7489 82.5563C75.1275 82.5412 74.6408 82.0101 74.6633 81.3881C74.6858 80.5308 74.7007 79.6736 74.7007 78.8163C74.7007 78.4295 74.7007 78.035 74.6932 77.6481C74.6858 77.0184 75.1799 76.5026 75.8013 76.495H75.8163C76.4302 76.495 76.9318 76.9957 76.9393 77.6177C76.9393 78.0198 76.9468 78.4143 76.9468 78.8163C76.9468 79.6963 76.9318 80.5763 76.9093 81.4563C76.8944 82.0708 76.3927 82.5639 75.7863 82.5639V82.5563ZM28.5374 82.3439C27.916 82.3439 27.4144 81.8356 27.4144 81.206V77.4129C27.4144 76.7833 27.916 76.275 28.5374 76.275C29.1588 76.275 29.6604 76.7833 29.6604 77.4129V81.206C29.6604 81.8356 29.1588 82.3439 28.5374 82.3439ZM13.0922 81.9874C12.4858 81.9874 11.9842 81.4943 11.9692 80.8798C11.9542 80.1894 11.9468 79.5067 11.9468 78.8163C11.9468 78.2246 11.9468 77.6329 11.9617 77.0336C11.9767 76.404 12.4858 75.8881 13.1072 75.9184C13.7286 75.9336 14.2227 76.4495 14.2078 77.0791C14.1928 77.6557 14.1928 78.2322 14.1928 78.8163C14.1928 79.4839 14.2003 80.1591 14.2152 80.8267C14.2302 81.4563 13.7361 81.9798 13.1222 81.9874C13.1147 81.9874 13.1072 81.9874 13.0922 81.9874ZM23.8881 78.6343H23.8657C23.2443 78.6267 22.7501 78.1032 22.7651 77.4736C22.7876 76.1991 22.84 74.9019 22.9223 73.6274C22.9673 72.9978 23.4988 72.5198 24.1202 72.5654C24.7416 72.6109 25.2058 73.1495 25.1684 73.7791C25.086 75.0157 25.0336 76.275 25.0111 77.5115C25.0037 78.1336 24.502 78.6267 23.8881 78.6267V78.6343ZM65.0129 78.0501C64.4064 78.0501 63.9048 77.557 63.8899 76.9426C63.8599 75.6984 63.8 74.4391 63.7102 73.2102C63.6653 72.5805 64.1294 72.0419 64.7508 71.9888C65.3797 71.9509 65.9113 72.4136 65.9562 73.0433C66.046 74.3102 66.1134 75.6074 66.1434 76.8895C66.1583 77.5191 65.6717 78.0426 65.0503 78.0577C65.0428 78.0577 65.0278 78.0577 65.0204 78.0577L65.0129 78.0501ZM60.3711 75.1522C59.7497 75.1522 59.2481 74.644 59.2481 74.0143V70.2212C59.2481 69.5916 59.7497 69.0833 60.3711 69.0833C60.9925 69.0833 61.4941 69.5916 61.4941 70.2212V74.0143C61.4941 74.644 60.9925 75.1522 60.3711 75.1522ZM75.689 74.9778C75.0975 74.9778 74.6034 74.5074 74.566 73.9081C74.4986 72.664 74.4013 71.4123 74.274 70.1757C74.2141 69.5537 74.6633 68.9923 75.2772 68.9316C75.8911 68.8709 76.4451 69.3261 76.505 69.9481C76.6323 71.215 76.7296 72.5047 76.8045 73.7791C76.8419 74.4088 76.3628 74.9474 75.7489 74.9778C75.7264 74.9778 75.704 74.9778 75.6815 74.9778H75.689ZM28.5449 74.7578C27.9235 74.7578 27.4219 74.2495 27.4219 73.6198V69.8268C27.4219 69.1971 27.9235 68.6888 28.5449 68.6888C29.1663 68.6888 29.6679 69.1971 29.6679 69.8268V73.6198C29.6679 74.2495 29.1663 74.7578 28.5449 74.7578ZM13.2495 74.4012C13.2495 74.4012 13.2045 74.4012 13.1746 74.4012C12.5532 74.3633 12.0815 73.8247 12.1264 73.195C12.2088 71.9281 12.3136 70.6385 12.4484 69.364C12.5158 68.7419 13.0698 68.2868 13.6837 68.355C14.2976 68.4233 14.7468 68.9847 14.6794 69.6068C14.5447 70.8433 14.4399 72.1026 14.365 73.3391C14.3275 73.9384 13.8334 74.4088 13.242 74.4088L13.2495 74.4012ZM24.3897 71.0633C24.3448 71.0633 24.2999 71.0633 24.255 71.0557C23.6411 70.9798 23.1994 70.4185 23.2667 69.7964C23.4165 68.5295 23.5962 67.2475 23.7983 65.9882C23.9031 65.3661 24.4871 64.9489 25.0935 65.0551C25.7074 65.1613 26.1192 65.7454 26.0144 66.3675C25.8122 67.5888 25.64 68.833 25.4978 70.0695C25.4304 70.6461 24.9438 71.0785 24.3823 71.0785L24.3897 71.0633ZM64.4589 70.4792C63.8973 70.4792 63.4182 70.0543 63.3433 69.4778C63.1936 68.2412 63.0064 66.9971 62.7968 65.7833C62.692 65.1613 63.0963 64.5771 63.7102 64.4709C64.3241 64.3647 64.9006 64.7744 65.0129 65.3964C65.23 66.6482 65.4172 67.9302 65.5744 69.2047C65.6492 69.8268 65.215 70.3957 64.6011 70.4716C64.5562 70.4716 64.5113 70.4792 64.4589 70.4792V70.4792ZM60.3636 67.5585C59.7422 67.5585 59.2406 67.0502 59.2406 66.4206V62.6275C59.2406 61.9978 59.7422 61.4896 60.3636 61.4896C60.985 61.4896 61.4866 61.9978 61.4866 62.6275V66.4206C61.4866 67.0502 60.985 67.5585 60.3636 67.5585ZM74.9328 67.4295C74.3863 67.4295 73.8996 67.0199 73.8248 66.4509C73.6451 65.2144 73.443 63.9702 73.2184 62.7565C73.1061 62.142 73.5028 61.5427 74.1168 61.4289C74.7157 61.3151 75.3146 61.7171 75.4269 62.3392C75.659 63.5833 75.8687 64.8578 76.0483 66.1323C76.1382 66.7544 75.7114 67.3309 75.0975 67.4219C75.0451 67.4295 74.9852 67.4371 74.9328 67.4371V67.4295ZM28.5374 67.1716C27.916 67.1716 27.4144 66.6633 27.4144 66.0337V62.2406C27.4144 61.6109 27.916 61.1027 28.5374 61.1027C29.1588 61.1027 29.6604 61.6109 29.6604 62.2406V66.0337C29.6604 66.6633 29.1588 67.1716 28.5374 67.1716ZM14.0431 66.8606C13.9906 66.8606 13.9308 66.8606 13.8709 66.8454C13.2569 66.7544 12.8377 66.1702 12.9275 65.5482C13.1147 64.2889 13.3318 63.0144 13.5714 61.7627C13.6912 61.1482 14.2751 60.7385 14.8891 60.8675C15.4955 60.9889 15.8923 61.5882 15.7725 62.2027C15.5404 63.424 15.3233 64.6606 15.1436 65.8895C15.0613 66.4509 14.5821 66.8606 14.0356 66.8606H14.0431ZM25.6251 63.5833C25.5427 63.5833 25.4678 63.5758 25.3855 63.553C24.7791 63.4164 24.3972 62.8096 24.532 62.1951C24.8015 60.9434 25.1085 59.6841 25.4379 58.4551C25.6026 57.8482 26.2165 57.4917 26.8155 57.6586C27.07 57.7268 27.2796 57.8786 27.4219 58.0834V56.331C27.1149 56.2324 26.8529 56.0048 26.7256 55.6786C26.486 55.0944 26.763 54.4344 27.332 54.1917C27.624 54.0703 27.946 54.0324 28.2604 54.0855C28.6572 54.1537 29.0166 54.3586 29.2786 54.6772C29.5331 54.9882 29.6754 55.3827 29.6754 55.7848V58.4399C29.6754 59.0696 29.1738 59.5779 28.5524 59.5779C28.1556 59.5779 27.8112 59.373 27.6091 59.0544C27.2871 60.2454 26.9951 61.4668 26.7331 62.6806C26.6208 63.2116 26.1566 63.5758 25.64 63.5758L25.6251 63.5833ZM63.1786 63.0144C62.662 63.0144 62.2053 62.6578 62.0855 62.1268C61.8759 61.1861 61.6438 60.2378 61.3968 59.2972C61.2246 59.6992 60.8278 59.9799 60.3711 59.9799C59.7497 59.9799 59.2481 59.4716 59.2481 58.842V55.8682C59.2481 55.8151 59.2481 55.762 59.2481 55.7089C59.2481 55.3448 59.3604 54.9958 59.57 54.7C59.7347 54.4724 59.9518 54.2827 60.2064 54.1613C60.7679 53.8882 61.4342 54.1234 61.7112 54.6848C61.9208 55.1248 61.831 55.6406 61.5091 55.9744V57.3855C61.6363 57.2641 61.8011 57.1655 61.9807 57.1123C62.5797 56.9455 63.2011 57.302 63.3658 57.9013C63.7027 59.1379 64.0171 60.3896 64.2941 61.6337C64.4289 62.2482 64.0471 62.8551 63.4481 62.9916C63.3658 63.0068 63.2834 63.022 63.2011 63.022L63.1786 63.0144ZM73.5478 59.9799C73.0387 59.9799 72.5745 59.6234 72.4547 59.0999C72.1777 57.8937 71.8707 56.6724 71.5338 55.4737C71.3691 54.8668 71.7135 54.2372 72.3125 54.0703C72.9114 53.8958 73.5253 54.2524 73.6975 54.8593C74.0419 56.0958 74.3563 57.3475 74.6408 58.5765C74.7831 59.191 74.4087 59.7978 73.8023 59.942C73.7125 59.9647 73.6301 59.9723 73.5478 59.9723V59.9799ZM15.473 59.4261C15.3832 59.4261 15.3008 59.4185 15.211 59.3958C14.6046 59.2516 14.2377 58.6372 14.38 58.0227C14.6719 56.7861 15.0014 55.5344 15.3457 54.3055C15.5179 53.6986 16.1319 53.3496 16.7383 53.5241C17.3372 53.6986 17.6816 54.3282 17.5094 54.9351C17.1725 56.1337 16.8506 57.3475 16.5661 58.5537C16.4388 59.0772 15.9821 59.4261 15.473 59.4261V59.4261ZM71.5263 52.682C71.0547 52.682 70.613 52.3786 70.4557 51.9007C70.0739 50.7172 69.6621 49.5338 69.2279 48.3655C69.0108 47.7738 69.3028 47.1214 69.8868 46.9014C70.4632 46.6814 71.1146 46.9772 71.3317 47.569C71.7734 48.76 72.2002 49.9814 72.5895 51.1951C72.7841 51.7945 72.4622 52.4317 71.8707 52.6289C71.7509 52.6669 71.6387 52.6896 71.5189 52.6896L71.5263 52.682ZM17.5394 52.1358C17.4196 52.1358 17.2998 52.1131 17.18 52.0751C16.5885 51.8779 16.2741 51.2331 16.4688 50.6338C16.8656 49.42 17.2998 48.2062 17.749 47.0152C17.9736 46.431 18.6175 46.1352 19.2014 46.3628C19.7779 46.5903 20.0699 47.2428 19.8453 47.8345C19.4036 48.9952 18.9843 50.1786 18.595 51.362C18.4378 51.84 18.0035 52.1358 17.5319 52.1358H17.5394ZM68.906 45.5662C68.4718 45.5662 68.0525 45.3083 67.8728 44.8759C67.4985 43.9959 67.1166 43.1159 66.7124 42.2435C66.6001 42.0083 66.4878 41.7731 66.3605 41.5456C66.0535 40.9993 66.2482 40.3014 66.7872 39.998C67.3263 39.6869 68.0151 39.8842 68.3145 40.4304C68.4718 40.7035 68.614 40.9918 68.7488 41.28C69.1605 42.1752 69.5573 43.078 69.9392 43.9883C70.1862 44.5648 69.9167 45.2324 69.3477 45.4828C69.2055 45.5435 69.0557 45.5738 68.906 45.5738V45.5662ZM20.2346 45.0352C20.0849 45.0352 19.9351 45.0048 19.7854 44.9442C19.2164 44.6938 18.9544 44.0262 19.2014 43.4497C19.5159 42.7214 19.8378 41.9931 20.1747 41.2649C20.3993 40.7869 20.6464 40.3242 20.9234 39.8842C21.2528 39.3532 21.9491 39.1938 22.4731 39.5276C22.9972 39.8614 23.1544 40.5669 22.825 41.098C22.6004 41.4621 22.3908 41.8414 22.2111 42.2283C21.8892 42.9338 21.5747 43.6393 21.2678 44.3524C21.0806 44.7848 20.6688 45.0352 20.2346 45.0352V45.0352ZM64.9979 39.1863C64.7359 39.1863 64.4663 39.0952 64.2492 38.898C63.8449 38.5338 63.4032 38.1925 62.939 37.8966C62.4524 37.5856 61.9433 37.3125 61.4117 37.0849C60.8428 36.8421 60.5732 36.1746 60.8128 35.598C61.0524 35.0215 61.7112 34.7484 62.2802 34.9911C62.9241 35.2642 63.553 35.598 64.1519 35.9773C64.7134 36.3414 65.2524 36.7511 65.7466 37.1987C66.2108 37.6159 66.2482 38.3366 65.8364 38.807C65.6118 39.0573 65.3049 39.1863 64.9979 39.1863V39.1863ZM24.3523 38.8145C24.0229 38.8145 23.701 38.6704 23.4764 38.3897C23.0871 37.8966 23.1619 37.1835 23.6486 36.789C24.0079 36.4932 24.3897 36.2201 24.7791 35.9697C25.5427 35.4766 26.3663 35.067 27.2197 34.7559C27.8037 34.5435 28.4476 34.847 28.6572 35.4387C28.8668 36.0304 28.5674 36.6828 27.9834 36.8952C27.2871 37.1532 26.6133 37.487 25.9844 37.889C25.6625 38.0939 25.3481 38.3214 25.0561 38.5642C24.8464 38.7311 24.5994 38.8145 24.3523 38.8145ZM58.2224 36.3111C58.2224 36.3111 58.17 36.3111 58.1475 36.3111C57.9229 36.2959 57.7358 36.2883 57.4737 36.2883H53.7303C53.1089 36.2883 52.6073 35.7801 52.6073 35.1504C52.6073 34.5208 53.1089 34.0049 53.7228 34.0049H57.4662C57.7432 33.9897 58.0202 34.0125 58.2898 34.0353C58.9112 34.0732 59.3753 34.6194 59.3379 35.249C59.3005 35.8483 58.8064 36.3111 58.2149 36.3111H58.2224ZM31.2701 36.2883C30.6562 36.2883 30.1545 35.7877 30.1471 35.1656C30.1396 34.5359 30.6337 34.0201 31.2551 34.0125H35.0135C35.6349 34.0125 36.1365 34.5208 36.1365 35.1504C36.1365 35.7801 35.6349 36.2883 35.0135 36.2883H31.285C31.285 36.2883 31.2776 36.2883 31.2701 36.2883ZM49.987 36.2883H46.2436C45.6222 36.2883 45.1206 35.7801 45.1206 35.1504C45.1206 34.5208 45.6222 34.0049 46.2361 34.0049H49.9795C50.6009 34.0049 51.1025 34.5132 51.1025 35.1428C51.1025 35.7725 50.6009 36.2808 49.9795 36.2808L49.987 36.2883ZM42.5002 36.2883H38.7568C38.1354 36.2883 37.6338 35.7801 37.6338 35.1504C37.6338 34.5208 38.1354 34.0049 38.7493 34.0049H42.4927C43.1141 34.0049 43.6157 34.5132 43.6157 35.1428C43.6157 35.7725 43.1141 36.2808 42.4927 36.2808L42.5002 36.2883Z" fill="#C9C9C9"/>
</g>
<path d="M35.6934 151.992C35.641 151.992 35.5886 151.992 35.5287 151.992C33.3129 151.901 31.2693 150.96 29.7571 149.345C28.245 147.729 27.429 145.604 27.459 143.374V59.7181C25.1683 68.5791 24.4946 77.698 25.4678 86.8776C25.7223 89.2977 24.824 91.4674 23.0049 92.8178C21.0511 94.2592 18.3787 94.5551 16.1854 93.5689C14.0669 92.613 12.7494 90.6633 12.4799 88.0839C10.8181 72.0461 13.4905 55.8566 20.2127 41.2527C21.2233 39.0678 22.8178 37.2394 24.8165 35.9573C26.8227 34.6676 29.1358 34 31.4938 34H57.522C59.8875 34 62.1856 34.6828 64.1843 35.9649C66.183 37.2546 67.7775 39.0905 68.7881 41.2678C75.5253 55.9097 78.1977 72.1447 76.5059 88.2204C76.0493 92.5447 72.5684 94.4717 69.357 94.1227C66.1231 93.7813 63.0989 91.0957 63.5555 86.6348C64.5062 77.5083 63.825 68.4501 61.5418 59.6346V143.632C61.5418 144.755 61.3247 145.84 60.898 146.871C60.4714 147.903 59.8575 148.821 59.0715 149.602C58.2855 150.384 57.3722 150.991 56.3467 151.408C55.3286 151.818 54.2507 152.007 53.1502 152C50.9345 151.909 48.8908 150.968 47.3787 149.352C45.8666 147.736 45.0506 145.612 45.0806 143.382V88.9487C45.0806 88.7894 45.0207 88.6377 44.9084 88.5239C44.6838 88.2963 44.3095 88.2963 44.0849 88.5239C43.9727 88.6377 43.9128 88.7894 43.9128 88.9487V143.624C43.9128 144.747 43.6957 145.832 43.269 146.864C42.8423 147.896 42.2285 148.813 41.4425 149.595C40.6565 150.376 39.7432 150.983 38.7176 151.4C37.7445 151.795 36.7264 151.992 35.6859 151.992H35.6934ZM28.0204 54.051C28.1103 54.051 28.2001 54.051 28.2899 54.0738C28.6867 54.142 29.0535 54.3469 29.308 54.6655C29.57 54.9766 29.7047 55.3786 29.7047 55.7807V143.382C29.6823 145.035 30.2811 146.591 31.389 147.774C32.4969 148.958 33.9866 149.648 35.5886 149.709C36.3671 149.724 37.1456 149.58 37.8867 149.284C38.6278 148.98 39.294 148.54 39.863 147.971C40.4319 147.402 40.881 146.735 41.1879 145.984C41.4949 145.233 41.6521 144.436 41.6521 143.624V88.9487C41.6521 88.1825 41.944 87.4618 42.4755 86.9156C43.546 85.8307 45.4099 85.8307 46.4804 86.9156C47.0119 87.4542 47.3038 88.1749 47.3038 88.9487V143.382C47.2814 145.035 47.8802 146.591 48.9881 147.774C50.096 148.958 51.5857 149.648 53.1952 149.709C53.9512 149.724 54.7522 149.58 55.4933 149.284C56.2344 148.98 56.9006 148.54 57.4696 147.971C58.0385 147.402 58.4876 146.735 58.7945 145.984C59.1015 145.233 59.2587 144.436 59.2587 143.624V55.8414C59.2212 55.4242 59.3335 55.0145 59.5731 54.6731C59.8351 54.309 60.2393 54.051 60.681 53.9827C61.1226 53.9145 61.5867 54.0207 61.9461 54.2938C62.2829 54.5441 62.515 54.9007 62.6048 55.3104C65.8012 65.5597 66.8567 76.1807 65.7488 86.8776C65.427 90.0108 67.4257 91.6419 69.5516 91.8695C71.5803 92.0895 73.9158 90.9667 74.2302 87.9928C75.8771 72.3268 73.2796 56.509 66.7145 42.2465C65.8911 40.4637 64.5811 38.954 62.9417 37.8994C61.3098 36.8449 59.4233 36.2911 57.4845 36.2911H31.4639C29.5326 36.2911 27.6536 36.8449 26.0217 37.8919C24.3823 38.9464 23.0798 40.4485 22.2489 42.2313C15.6988 56.4407 13.0937 72.2206 14.7182 87.8487C14.9502 90.0791 16.1405 91.0578 17.1061 91.4902C18.5584 92.1426 20.3999 91.9378 21.6949 90.9819C22.5259 90.3674 23.4691 89.1991 23.252 87.128C22.1066 76.3249 23.1696 65.5976 26.4185 55.2421C26.5457 54.8476 26.8077 54.5138 27.1521 54.3014C27.4216 54.1345 27.721 54.051 28.0279 54.051H28.0204Z" fill="#65C453"/>
<g clip-path="url(#clip2_1829_24159)">
<path d="M44 30C35.7244 30 29 23.2701 29 15C29 6.72986 35.7244 0 44 0C52.2756 0 59 6.72986 59 15C59 23.2701 52.2756 30 44 30ZM44 2.36967C37.0315 2.36967 31.3622 8.03318 31.3622 15C31.3622 21.9668 37.0315 27.6303 44 27.6303C50.9685 27.6303 56.6378 21.9668 56.6378 15C56.6378 8.03318 50.9685 2.36967 44 2.36967Z" fill="#65C453"/>
</g>
</g>
<defs>
<clipPath id="clip0_1829_24159">
<rect width="90" height="152" fill="white"/>
</clipPath>
<clipPath id="clip1_1829_24159">
<rect width="66" height="118" fill="white" transform="translate(11.2 34)"/>
</clipPath>
<clipPath id="clip2_1829_24159">
<rect width="30" height="30" fill="white" transform="translate(29)"/>
</clipPath>
</defs>
</svg>
