<svg width="90" height="152" viewBox="0 0 90 152" fill="none" xmlns="http://www.w3.org/2000/svg">
<g clip-path="url(#clip0_1829_24102)">
<g clip-path="url(#clip1_1829_24102)">
<path d="M54.0736 151.992H53.9164C52.9956 151.954 52.1196 151.772 51.2811 151.454C50.6971 151.234 50.4051 150.574 50.6223 149.99C50.8394 149.398 51.4907 149.102 52.0672 149.322C52.6811 149.557 53.3175 149.686 53.9688 149.709H54.0662C54.4255 149.709 54.7924 149.679 55.1517 149.61C55.7657 149.497 56.3496 149.906 56.4619 150.528C56.5742 151.15 56.1699 151.742 55.556 151.856C55.0619 151.947 54.5678 151.992 54.0662 151.992H54.0736ZM36.4573 151.992H36.3001C35.7086 151.97 35.1396 151.886 34.5856 151.742C33.9867 151.59 33.6198 150.976 33.7696 150.361C33.9193 149.755 34.5257 149.375 35.1322 149.535C35.5364 149.633 35.9557 149.694 36.3675 149.717H36.4573C37.0563 149.717 37.6477 149.626 38.2167 149.451C38.8082 149.261 39.437 149.603 39.6242 150.202C39.8039 150.801 39.4745 151.439 38.883 151.628C38.0969 151.879 37.2809 152 36.4573 152V151.992ZM58.7005 150.255C58.386 150.255 58.0716 150.119 57.847 149.861C57.4427 149.383 57.4951 148.662 57.9668 148.252C58.0716 148.161 58.1689 148.07 58.2587 147.979C58.8277 147.41 59.2769 146.735 59.5839 145.992C59.6288 145.878 59.6737 145.764 59.7112 145.643C59.9133 145.051 60.5572 144.74 61.1411 144.945C61.7251 145.15 62.0321 145.802 61.8299 146.394C61.7775 146.553 61.7176 146.712 61.6502 146.864C61.2235 147.896 60.6096 148.814 59.8235 149.603C59.6962 149.732 59.554 149.861 59.4192 149.982C59.2096 150.164 58.9475 150.255 58.6855 150.255H58.7005ZM31.6134 149.975C31.3364 149.975 31.0594 149.868 30.8422 149.663C30.7374 149.565 30.6326 149.459 30.5278 149.345C29.6444 148.389 28.9706 147.228 28.5962 145.977C28.4165 145.377 28.746 144.74 29.3449 144.558C29.9364 144.368 30.5652 144.71 30.7449 145.317C31.0219 146.235 31.5086 147.092 32.1599 147.79C32.2348 147.866 32.3097 147.949 32.3845 148.017C32.8337 148.45 32.8487 149.17 32.422 149.626C32.2048 149.861 31.9054 149.982 31.6059 149.982L31.6134 149.975ZM41.6756 149.671C41.4061 149.671 41.1291 149.572 40.9194 149.368C40.4627 148.943 40.4328 148.222 40.852 147.759C41.3237 147.236 41.7055 146.644 41.9676 145.984C42.1023 145.65 42.2146 145.309 42.2895 144.952C42.4243 144.338 43.0307 143.951 43.6296 144.088C44.2361 144.224 44.6179 144.831 44.4831 145.446C44.3783 145.931 44.2286 146.401 44.0414 146.857C43.6745 147.752 43.1505 148.571 42.5066 149.292C42.282 149.535 41.9825 149.663 41.6831 149.663L41.6756 149.671ZM48.6607 149.36C48.3388 149.36 48.0169 149.223 47.7997 148.95C46.8714 147.828 46.25 146.47 45.9805 145.028C45.8682 144.414 46.2724 143.815 46.8789 143.701C47.4853 143.587 48.0768 143.997 48.1891 144.611C48.3837 145.666 48.8404 146.659 49.5217 147.486C49.9185 147.972 49.8586 148.685 49.3795 149.087C49.1698 149.261 48.9153 149.352 48.6607 149.352V149.36ZM61.1711 143.412C60.5497 143.412 60.0481 142.904 60.0481 142.275V138.481C60.0481 137.852 60.5497 137.344 61.1711 137.344C61.7925 137.344 62.2941 137.852 62.2941 138.481V142.275C62.2941 142.904 61.7925 143.412 61.1711 143.412ZM29.3449 143.026C28.7235 143.026 28.2219 142.517 28.2219 141.888V138.095C28.2219 137.465 28.7235 136.957 29.3449 136.957C29.9663 136.957 30.4679 137.465 30.4679 138.095V141.888C30.4679 142.517 29.9663 143.026 29.3449 143.026ZM43.5548 142.57C42.9334 142.57 42.4317 142.062 42.4317 141.432V137.639C42.4317 137.01 42.9334 136.501 43.5548 136.501C44.1762 136.501 44.6778 137.01 44.6778 137.639V141.432C44.6778 142.062 44.1762 142.57 43.5548 142.57ZM46.9612 142.184C46.3398 142.184 45.8382 141.675 45.8382 141.046V137.253C45.8382 136.623 46.3398 136.115 46.9612 136.115C47.5826 136.115 48.0842 136.623 48.0842 137.253V141.046C48.0842 141.675 47.5826 142.184 46.9612 142.184ZM61.1711 135.826C60.5497 135.826 60.0481 135.318 60.0481 134.688V130.895C60.0481 130.266 60.5497 129.757 61.1711 129.757C61.7925 129.757 62.2941 130.266 62.2941 130.895V134.688C62.2941 135.318 61.7925 135.826 61.1711 135.826ZM29.3449 135.439C28.7235 135.439 28.2219 134.931 28.2219 134.302V130.508C28.2219 129.879 28.7235 129.371 29.3449 129.371C29.9663 129.371 30.4679 129.879 30.4679 130.508V134.302C30.4679 134.931 29.9663 135.439 29.3449 135.439ZM43.5548 134.984C42.9334 134.984 42.4317 134.476 42.4317 133.846V130.053C42.4317 129.424 42.9334 128.915 43.5548 128.915C44.1762 128.915 44.6778 129.424 44.6778 130.053V133.846C44.6778 134.476 44.1762 134.984 43.5548 134.984ZM46.9612 134.597C46.3398 134.597 45.8382 134.089 45.8382 133.459V129.666C45.8382 129.037 46.3398 128.528 46.9612 128.528C47.5826 128.528 48.0842 129.037 48.0842 129.666V133.459C48.0842 134.089 47.5826 134.597 46.9612 134.597ZM61.1711 128.24C60.5497 128.24 60.0481 127.732 60.0481 127.102V123.309C60.0481 122.68 60.5497 122.171 61.1711 122.171C61.7925 122.171 62.2941 122.68 62.2941 123.309V127.102C62.2941 127.732 61.7925 128.24 61.1711 128.24ZM29.3449 127.853C28.7235 127.853 28.2219 127.345 28.2219 126.715V122.922C28.2219 122.293 28.7235 121.784 29.3449 121.784C29.9663 121.784 30.4679 122.293 30.4679 122.922V126.715C30.4679 127.345 29.9663 127.853 29.3449 127.853ZM43.5548 127.398C42.9334 127.398 42.4317 126.89 42.4317 126.26V122.467C42.4317 121.837 42.9334 121.329 43.5548 121.329C44.1762 121.329 44.6778 121.837 44.6778 122.467V126.26C44.6778 126.89 44.1762 127.398 43.5548 127.398ZM46.9612 127.011C46.3398 127.011 45.8382 126.503 45.8382 125.873V122.08C45.8382 121.451 46.3398 120.942 46.9612 120.942C47.5826 120.942 48.0842 121.451 48.0842 122.08V125.873C48.0842 126.503 47.5826 127.011 46.9612 127.011ZM61.1711 120.654C60.5497 120.654 60.0481 120.146 60.0481 119.516V115.723C60.0481 115.093 60.5497 114.585 61.1711 114.585C61.7925 114.585 62.2941 115.093 62.2941 115.723V119.516C62.2941 120.146 61.7925 120.654 61.1711 120.654ZM29.3449 120.267C28.7235 120.267 28.2219 119.759 28.2219 119.129V115.336C28.2219 114.706 28.7235 114.198 29.3449 114.198C29.9663 114.198 30.4679 114.706 30.4679 115.336V119.129C30.4679 119.759 29.9663 120.267 29.3449 120.267ZM43.5548 119.812C42.9334 119.812 42.4317 119.304 42.4317 118.674V114.881C42.4317 114.251 42.9334 113.743 43.5548 113.743C44.1762 113.743 44.6778 114.251 44.6778 114.881V118.674C44.6778 119.304 44.1762 119.812 43.5548 119.812ZM46.9612 119.425C46.3398 119.425 45.8382 118.917 45.8382 118.287V114.494C45.8382 113.864 46.3398 113.356 46.9612 113.356C47.5826 113.356 48.0842 113.864 48.0842 114.494V118.287C48.0842 118.917 47.5826 119.425 46.9612 119.425ZM61.1711 113.068C60.5497 113.068 60.0481 112.56 60.0481 111.93V108.137C60.0481 107.507 60.5497 106.999 61.1711 106.999C61.7925 106.999 62.2941 107.507 62.2941 108.137V111.93C62.2941 112.56 61.7925 113.068 61.1711 113.068ZM29.3449 112.681C28.7235 112.681 28.2219 112.173 28.2219 111.543V107.75C28.2219 107.12 28.7235 106.612 29.3449 106.612C29.9663 106.612 30.4679 107.12 30.4679 107.75V111.543C30.4679 112.173 29.9663 112.681 29.3449 112.681ZM43.5548 112.226C42.9334 112.226 42.4317 111.718 42.4317 111.088V107.295C42.4317 106.665 42.9334 106.157 43.5548 106.157C44.1762 106.157 44.6778 106.665 44.6778 107.295V111.088C44.6778 111.718 44.1762 112.226 43.5548 112.226ZM46.9612 111.839C46.3398 111.839 45.8382 111.331 45.8382 110.701V106.908C45.8382 106.278 46.3398 105.77 46.9612 105.77C47.5826 105.77 48.0842 106.278 48.0842 106.908V110.701C48.0842 111.331 47.5826 111.839 46.9612 111.839ZM61.1711 105.482C60.5497 105.482 60.0481 104.973 60.0481 104.344V100.551C60.0481 99.921 60.5497 99.4128 61.1711 99.4128C61.7925 99.4128 62.2941 99.921 62.2941 100.551V104.344C62.2941 104.973 61.7925 105.482 61.1711 105.482ZM29.3449 105.095C28.7235 105.095 28.2219 104.587 28.2219 103.957V100.164C28.2219 99.5341 28.7235 99.0259 29.3449 99.0259C29.9663 99.0259 30.4679 99.5341 30.4679 100.164V103.957C30.4679 104.587 29.9663 105.095 29.3449 105.095ZM43.5548 104.64C42.9334 104.64 42.4317 104.131 42.4317 103.502V99.7086C42.4317 99.079 42.9334 98.5707 43.5548 98.5707C44.1762 98.5707 44.6778 99.079 44.6778 99.7086V103.502C44.6778 104.131 44.1762 104.64 43.5548 104.64ZM46.9612 104.253C46.3398 104.253 45.8382 103.744 45.8382 103.115V99.3217C45.8382 98.6921 46.3398 98.1838 46.9612 98.1838C47.5826 98.1838 48.0842 98.6921 48.0842 99.3217V103.115C48.0842 103.744 47.5826 104.253 46.9612 104.253ZM61.1711 97.8955C60.5497 97.8955 60.0481 97.3873 60.0481 96.7576V92.9645C60.0481 92.3349 60.5497 91.8266 61.1711 91.8266C61.7925 91.8266 62.2941 92.3349 62.2941 92.9645V96.7576C62.2941 97.3873 61.7925 97.8955 61.1711 97.8955ZM29.3449 97.5086C28.7235 97.5086 28.2219 97.0004 28.2219 96.3707V92.5776C28.2219 91.948 28.7235 91.4397 29.3449 91.4397C29.9663 91.4397 30.4679 91.948 30.4679 92.5776V96.3707C30.4679 97.0004 29.9663 97.5086 29.3449 97.5086ZM43.5548 97.0535C42.9334 97.0535 42.4317 96.5452 42.4317 95.9155V92.1225C42.4317 91.4928 42.9334 90.9845 43.5548 90.9845C44.1762 90.9845 44.6778 91.4928 44.6778 92.1225V95.9155C44.6778 96.5452 44.1762 97.0535 43.5548 97.0535ZM46.9612 96.6666C46.3398 96.6666 45.8382 96.1583 45.8382 95.5287V91.7356C45.8382 91.1059 46.3398 90.5977 46.9612 90.5977C47.5826 90.5977 48.0842 91.1059 48.0842 91.7356V95.5287C48.0842 96.1583 47.5826 96.6666 46.9612 96.6666ZM70.844 94.1707C70.6793 94.1707 70.5146 94.1707 70.3573 94.1556C69.7359 94.11 69.2718 93.5714 69.3167 92.9418C69.3616 92.3121 69.8857 91.8342 70.5146 91.8873C71.5328 91.9556 72.5659 91.6901 73.3371 91.1363C73.8462 90.7721 74.5424 90.9011 74.9018 91.417C75.2612 91.9328 75.1339 92.6383 74.6248 93.0025C73.5392 93.7762 72.2365 94.1783 70.844 94.1783V94.1707ZM19.5298 94.1556H19.4998C17.9276 94.1176 16.4602 93.5487 15.3522 92.5473C14.888 92.1301 14.8505 91.4094 15.2623 90.939C15.6741 90.4687 16.3853 90.4308 16.8495 90.848C17.5607 91.4852 18.5191 91.8494 19.5597 91.8797C20.1811 91.8949 20.6678 92.4183 20.6528 93.0404C20.6378 93.6625 20.1362 94.148 19.5298 94.148V94.1556ZM23.056 93.0859C22.7041 93.0859 22.3598 92.919 22.1426 92.608C21.7833 92.0997 21.9031 91.3866 22.4047 91.0225C22.9737 90.6128 23.6999 89.8618 23.9469 88.6253C24.0667 88.0108 24.6657 87.6087 25.2721 87.7301C25.8785 87.8515 26.2753 88.4508 26.1555 89.0728C25.8486 90.6356 25.0026 91.948 23.7149 92.8811C23.5202 93.0252 23.2881 93.0935 23.0635 93.0935L23.056 93.0859ZM67.0407 92.7294C66.7712 92.7294 66.5017 92.6307 66.2845 92.4335C65.1615 91.3942 64.4802 89.9983 64.3005 88.3977C64.2332 87.7756 64.6749 87.2066 65.2888 87.1384C65.9027 87.0701 66.4642 87.5177 66.5316 88.1397C66.6514 89.2018 67.0781 90.0818 67.7969 90.7494C68.2536 91.1742 68.2835 91.8949 67.8717 92.3576C67.6471 92.6004 67.3477 92.7294 67.0407 92.7294V92.7294ZM61.1636 90.317C60.5422 90.317 60.0406 89.8087 60.0406 89.179V85.386C60.0406 84.7563 60.5422 84.248 61.1636 84.248C61.785 84.248 62.2866 84.7563 62.2866 85.386V89.179C62.2866 89.8087 61.785 90.317 61.1636 90.317ZM75.9874 90.1121C75.8975 90.1121 75.8152 90.1046 75.7253 90.0818C75.1189 89.9377 74.7521 89.3232 74.8943 88.7087C74.9467 88.4811 74.9916 88.2384 75.0141 87.988C75.1114 87.0322 75.2013 86.0763 75.2686 85.1204C75.3136 84.4908 75.8601 84.028 76.4665 84.066C77.0879 84.1115 77.5521 84.6577 77.5072 85.2798C77.4398 86.266 77.35 87.2446 77.2451 88.2232C77.2077 88.5646 77.1553 88.9059 77.073 89.2246C76.9457 89.748 76.489 90.097 75.9799 90.097L75.9874 90.1121ZM29.3374 89.9301C28.716 89.9301 28.2144 89.4218 28.2144 88.7921V84.9991C28.2144 84.3694 28.716 83.8611 29.3374 83.8611C29.9588 83.8611 30.4604 84.3694 30.4604 84.9991V88.7921C30.4604 89.4218 29.9588 89.9301 29.3374 89.9301ZM14.4013 89.5508C13.8623 89.5508 13.3831 89.1563 13.2933 88.5949C13.2708 88.4356 13.2484 88.2687 13.2259 88.1018C13.1061 86.9715 13.0088 85.8335 12.9414 84.7108C12.8965 84.0811 13.3682 83.5425 13.9896 83.497C14.596 83.4515 15.1425 83.9294 15.1874 84.5591C15.2623 85.6515 15.3522 86.7666 15.4645 87.8666C15.4794 87.988 15.4944 88.1094 15.5094 88.2308C15.6067 88.8528 15.1949 89.437 14.581 89.5356C14.5211 89.5432 14.4537 89.5508 14.3939 89.5508H14.4013ZM43.6596 89.4901C43.5248 89.4901 43.3901 89.4673 43.2628 89.4142C42.6863 89.1942 42.3868 88.5342 42.6114 87.9501C42.7537 87.5708 42.9708 87.2294 43.2553 86.9411C44.3259 85.8487 46.1901 85.8487 47.2607 86.9411C47.3955 87.0777 47.5153 87.2218 47.6201 87.3811C47.9645 87.9046 47.8147 88.6101 47.2981 88.959C46.7816 89.308 46.0853 89.1563 45.7409 88.6328C45.7184 88.6025 45.696 88.5721 45.666 88.5418C45.4489 88.3218 45.0671 88.3218 44.85 88.5418C44.7901 88.6025 44.7452 88.6708 44.7152 88.7542C44.543 89.2094 44.1163 89.4901 43.6671 89.4901H43.6596ZM24.9277 86.2129C24.3512 86.2129 23.8571 85.7653 23.8122 85.166C23.7074 83.8915 23.64 82.6018 23.5951 81.3198C23.5726 80.6901 24.0593 80.1667 24.6807 80.1439C25.3095 80.1288 25.8186 80.6143 25.8411 81.2439C25.8785 82.4805 25.9534 83.7398 26.0507 84.9763C26.1031 85.606 25.639 86.1522 25.025 86.2053C24.9951 86.2053 24.9651 86.2053 24.9352 86.2053L24.9277 86.2129ZM65.6182 85.6287C65.6182 85.6287 65.5583 85.6287 65.5359 85.6287C64.9145 85.5832 64.4503 85.037 64.5027 84.4073C64.5925 83.1632 64.6599 81.9115 64.6899 80.675C64.7048 80.0453 65.2214 79.5446 65.8428 79.5674C66.4642 79.5826 66.9509 80.106 66.9359 80.7356C66.9059 82.0101 66.8386 83.2998 66.7487 84.5818C66.7038 85.1811 66.2097 85.6363 65.6332 85.6363L65.6182 85.6287ZM61.1636 82.7308C60.5422 82.7308 60.0406 82.2225 60.0406 81.5929V77.7998C60.0406 77.1702 60.5422 76.6619 61.1636 76.6619C61.785 76.6619 62.2866 77.1702 62.2866 77.7998V81.5929C62.2866 82.2225 61.785 82.7308 61.1636 82.7308ZM76.5863 82.5563C76.5863 82.5563 76.5639 82.5563 76.5489 82.5563C75.9275 82.5412 75.4408 82.0101 75.4633 81.3881C75.4858 80.5308 75.5007 79.6736 75.5007 78.8163C75.5007 78.4295 75.5007 78.035 75.4932 77.6481C75.4858 77.0184 75.9799 76.5026 76.6013 76.495H76.6163C77.2302 76.495 77.7318 76.9957 77.7393 77.6177C77.7393 78.0198 77.7468 78.4143 77.7468 78.8163C77.7468 79.6963 77.7318 80.5763 77.7093 81.4563C77.6944 82.0708 77.1927 82.5639 76.5863 82.5639V82.5563ZM29.3374 82.3439C28.716 82.3439 28.2144 81.8356 28.2144 81.206V77.4129C28.2144 76.7833 28.716 76.275 29.3374 76.275C29.9588 76.275 30.4604 76.7833 30.4604 77.4129V81.206C30.4604 81.8356 29.9588 82.3439 29.3374 82.3439ZM13.8922 81.9874C13.2858 81.9874 12.7842 81.4943 12.7692 80.8798C12.7543 80.1894 12.7468 79.5067 12.7468 78.8163C12.7468 78.2246 12.7468 77.6329 12.7617 77.0336C12.7767 76.404 13.2858 75.8881 13.9072 75.9184C14.5286 75.9336 15.0227 76.4495 15.0078 77.0791C14.9928 77.6557 14.9928 78.2322 14.9928 78.8163C14.9928 79.4839 15.0003 80.1591 15.0153 80.8267C15.0302 81.4563 14.5361 81.9798 13.9222 81.9874C13.9147 81.9874 13.9072 81.9874 13.8922 81.9874ZM24.6881 78.6343H24.6657C24.0443 78.6267 23.5502 78.1032 23.5651 77.4736C23.5876 76.1991 23.64 74.9019 23.7223 73.6274C23.7673 72.9978 24.2988 72.5198 24.9202 72.5654C25.5416 72.6109 26.0058 73.1495 25.9684 73.7791C25.886 75.0157 25.8336 76.275 25.8112 77.5115C25.8037 78.1336 25.3021 78.6267 24.6881 78.6267V78.6343ZM65.8129 78.0501C65.2064 78.0501 64.7048 77.557 64.6899 76.9426C64.6599 75.6984 64.6 74.4391 64.5102 73.2102C64.4653 72.5805 64.9294 72.0419 65.5508 71.9888C66.1797 71.9509 66.7113 72.4136 66.7562 73.0433C66.846 74.3102 66.9134 75.6074 66.9434 76.8895C66.9584 77.5191 66.4717 78.0426 65.8503 78.0577C65.8428 78.0577 65.8279 78.0577 65.8204 78.0577L65.8129 78.0501ZM61.1711 75.1522C60.5497 75.1522 60.0481 74.644 60.0481 74.0143V70.2212C60.0481 69.5916 60.5497 69.0833 61.1711 69.0833C61.7925 69.0833 62.2941 69.5916 62.2941 70.2212V74.0143C62.2941 74.644 61.7925 75.1522 61.1711 75.1522ZM76.489 74.9778C75.8975 74.9778 75.4034 74.5074 75.366 73.9081C75.2986 72.664 75.2013 71.4123 75.074 70.1757C75.0141 69.5537 75.4633 68.9923 76.0772 68.9316C76.6911 68.8709 77.2451 69.3261 77.305 69.9481C77.4323 71.215 77.5296 72.5047 77.6045 73.7791C77.6419 74.4088 77.1628 74.9474 76.5489 74.9778C76.5264 74.9778 76.504 74.9778 76.4815 74.9778H76.489ZM29.3449 74.7578C28.7235 74.7578 28.2219 74.2495 28.2219 73.6198V69.8268C28.2219 69.1971 28.7235 68.6888 29.3449 68.6888C29.9663 68.6888 30.4679 69.1971 30.4679 69.8268V73.6198C30.4679 74.2495 29.9663 74.7578 29.3449 74.7578ZM14.0495 74.4012C14.0495 74.4012 14.0045 74.4012 13.9746 74.4012C13.3532 74.3633 12.8815 73.8247 12.9264 73.195C13.0088 71.9281 13.1136 70.6385 13.2484 69.364C13.3158 68.7419 13.8698 68.2868 14.4837 68.355C15.0976 68.4233 15.5468 68.9847 15.4794 69.6068C15.3447 70.8433 15.2399 72.1026 15.165 73.3391C15.1276 73.9384 14.6334 74.4088 14.042 74.4088L14.0495 74.4012ZM25.1898 71.0633C25.1448 71.0633 25.0999 71.0633 25.055 71.0557C24.4411 70.9798 23.9994 70.4185 24.0667 69.7964C24.2165 68.5295 24.3962 67.2475 24.5983 65.9882C24.7031 65.3661 25.2871 64.9489 25.8935 65.0551C26.5074 65.1613 26.9192 65.7454 26.8144 66.3675C26.6122 67.5888 26.44 68.833 26.2978 70.0695C26.2304 70.6461 25.7438 71.0785 25.1823 71.0785L25.1898 71.0633ZM65.2589 70.4792C64.6974 70.4792 64.2182 70.0543 64.1433 69.4778C63.9936 68.2412 63.8064 66.9971 63.5968 65.7833C63.492 65.1613 63.8963 64.5771 64.5102 64.4709C65.1241 64.3647 65.7006 64.7744 65.8129 65.3964C66.03 66.6482 66.2172 67.9302 66.3744 69.2047C66.4492 69.8268 66.015 70.3957 65.4011 70.4716C65.3562 70.4716 65.3113 70.4792 65.2589 70.4792V70.4792ZM61.1636 67.5585C60.5422 67.5585 60.0406 67.0502 60.0406 66.4206V62.6275C60.0406 61.9978 60.5422 61.4896 61.1636 61.4896C61.785 61.4896 62.2866 61.9978 62.2866 62.6275V66.4206C62.2866 67.0502 61.785 67.5585 61.1636 67.5585ZM75.7328 67.4295C75.1863 67.4295 74.6997 67.0199 74.6248 66.4509C74.4451 65.2144 74.243 63.9702 74.0184 62.7565C73.9061 62.142 74.3029 61.5427 74.9168 61.4289C75.5157 61.3151 76.1146 61.7171 76.2269 62.3392C76.459 63.5833 76.6687 64.8578 76.8483 66.1323C76.9382 66.7544 76.5114 67.3309 75.8975 67.4219C75.8451 67.4295 75.7852 67.4371 75.7328 67.4371V67.4295ZM29.3374 67.1716C28.716 67.1716 28.2144 66.6633 28.2144 66.0337V62.2406C28.2144 61.6109 28.716 61.1027 29.3374 61.1027C29.9588 61.1027 30.4604 61.6109 30.4604 62.2406V66.0337C30.4604 66.6633 29.9588 67.1716 29.3374 67.1716ZM14.8431 66.8606C14.7906 66.8606 14.7308 66.8606 14.6709 66.8454C14.0569 66.7544 13.6377 66.1702 13.7275 65.5482C13.9147 64.2889 14.1318 63.0144 14.3714 61.7627C14.4912 61.1482 15.0751 60.7385 15.6891 60.8675C16.2955 60.9889 16.6923 61.5882 16.5725 62.2027C16.3404 63.424 16.1233 64.6606 15.9436 65.8895C15.8613 66.4509 15.3821 66.8606 14.8356 66.8606H14.8431ZM26.4251 63.5833C26.3427 63.5833 26.2678 63.5758 26.1855 63.553C25.5791 63.4164 25.1972 62.8096 25.332 62.1951C25.6015 60.9434 25.9085 59.6841 26.2379 58.4551C26.4026 57.8482 27.0165 57.4917 27.6155 57.6586C27.87 57.7268 28.0796 57.8786 28.2219 58.0834V56.331C27.9149 56.2324 27.6529 56.0048 27.5256 55.6786C27.286 55.0944 27.5631 54.4344 28.132 54.1917C28.424 54.0703 28.746 54.0324 29.0604 54.0855C29.4572 54.1537 29.8166 54.3586 30.0786 54.6772C30.3332 54.9882 30.4754 55.3827 30.4754 55.7848V58.4399C30.4754 59.0696 29.9738 59.5779 29.3524 59.5779C28.9556 59.5779 28.6112 59.373 28.4091 59.0544C28.0871 60.2454 27.7951 61.4668 27.5331 62.6806C27.4208 63.2116 26.9566 63.5758 26.44 63.5758L26.4251 63.5833ZM63.9786 63.0144C63.462 63.0144 63.0053 62.6578 62.8856 62.1268C62.6759 61.1861 62.4438 60.2378 62.1968 59.2972C62.0246 59.6992 61.6278 59.9799 61.1711 59.9799C60.5497 59.9799 60.0481 59.4716 60.0481 58.842V55.8682C60.0481 55.8151 60.0481 55.762 60.0481 55.7089C60.0481 55.3448 60.1604 54.9958 60.37 54.7C60.5347 54.4724 60.7518 54.2827 61.0064 54.1613C61.5679 53.8882 62.2342 54.1234 62.5112 54.6848C62.7208 55.1248 62.631 55.6406 62.3091 55.9744V57.3855C62.4363 57.2641 62.6011 57.1655 62.7807 57.1123C63.3797 56.9455 64.0011 57.302 64.1658 57.9013C64.5027 59.1379 64.8171 60.3896 65.0941 61.6337C65.2289 62.2482 64.8471 62.8551 64.2481 62.9916C64.1658 63.0068 64.0834 63.022 64.0011 63.022L63.9786 63.0144ZM74.3478 59.9799C73.8387 59.9799 73.3745 59.6234 73.2547 59.0999C72.9777 57.8937 72.6707 56.6724 72.3338 55.4737C72.1691 54.8668 72.5135 54.2372 73.1125 54.0703C73.7114 53.8958 74.3253 54.2524 74.4975 54.8593C74.8419 56.0958 75.1563 57.3475 75.4408 58.5765C75.5831 59.191 75.2088 59.7978 74.6023 59.942C74.5125 59.9647 74.4301 59.9723 74.3478 59.9723V59.9799ZM16.273 59.4261C16.1832 59.4261 16.1008 59.4185 16.011 59.3958C15.4046 59.2516 15.0377 58.6372 15.18 58.0227C15.4719 56.7861 15.8014 55.5344 16.1458 54.3055C16.3179 53.6986 16.9319 53.3496 17.5383 53.5241C18.1372 53.6986 18.4816 54.3282 18.3094 54.9351C17.9725 56.1337 17.6506 57.3475 17.3661 58.5537C17.2388 59.0772 16.7821 59.4261 16.273 59.4261V59.4261ZM72.3263 52.682C71.8547 52.682 71.413 52.3786 71.2557 51.9007C70.8739 50.7172 70.4621 49.5338 70.0279 48.3655C69.8108 47.7738 70.1028 47.1214 70.6868 46.9014C71.2632 46.6814 71.9146 46.9772 72.1317 47.569C72.5734 48.76 73.0002 49.9814 73.3895 51.1951C73.5841 51.7945 73.2622 52.4317 72.6707 52.6289C72.551 52.6669 72.4387 52.6896 72.3189 52.6896L72.3263 52.682ZM18.3394 52.1358C18.2196 52.1358 18.0998 52.1131 17.98 52.0751C17.3886 51.8779 17.0741 51.2331 17.2688 50.6338C17.6656 49.42 18.0998 48.2062 18.549 47.0152C18.7736 46.431 19.4175 46.1352 20.0014 46.3628C20.5779 46.5903 20.8699 47.2428 20.6453 47.8345C20.2036 48.9952 19.7843 50.1786 19.395 51.362C19.2378 51.84 18.8035 52.1358 18.3319 52.1358H18.3394ZM69.706 45.5662C69.2718 45.5662 68.8525 45.3083 68.6728 44.8759C68.2985 43.9959 67.9167 43.1159 67.5124 42.2435C67.4001 42.0083 67.2878 41.7731 67.1605 41.5456C66.8535 40.9993 67.0482 40.3014 67.5872 39.998C68.1263 39.6869 68.8151 39.8842 69.1145 40.4304C69.2718 40.7035 69.414 40.9918 69.5488 41.28C69.9605 42.1752 70.3573 43.078 70.7392 43.9883C70.9862 44.5648 70.7167 45.2324 70.1477 45.4828C70.0055 45.5435 69.8557 45.5738 69.706 45.5738V45.5662ZM21.0346 45.0352C20.8849 45.0352 20.7351 45.0048 20.5854 44.9442C20.0164 44.6938 19.7544 44.0262 20.0014 43.4497C20.3159 42.7214 20.6378 41.9931 20.9747 41.2649C21.1993 40.7869 21.4464 40.3242 21.7234 39.8842C22.0528 39.3532 22.7491 39.1938 23.2731 39.5276C23.7972 39.8614 23.9544 40.5669 23.625 41.098C23.4004 41.4621 23.1908 41.8414 23.0111 42.2283C22.6892 42.9338 22.3747 43.6393 22.0678 44.3524C21.8806 44.7848 21.4688 45.0352 21.0346 45.0352V45.0352ZM65.7979 39.1863C65.5359 39.1863 65.2663 39.0952 65.0492 38.898C64.6449 38.5338 64.2032 38.1925 63.739 37.8966C63.2524 37.5856 62.7433 37.3125 62.2117 37.0849C61.6428 36.8421 61.3732 36.1746 61.6128 35.598C61.8524 35.0215 62.5112 34.7484 63.0802 34.9911C63.7241 35.2642 64.353 35.598 64.9519 35.9773C65.5134 36.3414 66.0524 36.7511 66.5466 37.1987C67.0108 37.6159 67.0482 38.3366 66.6364 38.807C66.4118 39.0573 66.1049 39.1863 65.7979 39.1863V39.1863ZM25.1523 38.8145C24.8229 38.8145 24.501 38.6704 24.2764 38.3897C23.8871 37.8966 23.9619 37.1835 24.4486 36.789C24.8079 36.4932 25.1898 36.2201 25.5791 35.9697C26.3427 35.4766 27.1663 35.067 28.0197 34.7559C28.6037 34.5435 29.2476 34.847 29.4572 35.4387C29.6668 36.0304 29.3674 36.6828 28.7834 36.8952C28.0871 37.1532 27.4133 37.487 26.7844 37.889C26.4625 38.0939 26.1481 38.3214 25.8561 38.5642C25.6464 38.7311 25.3994 38.8145 25.1523 38.8145ZM59.0224 36.3111C59.0224 36.3111 58.97 36.3111 58.9475 36.3111C58.7229 36.2959 58.5358 36.2883 58.2737 36.2883H54.5303C53.9089 36.2883 53.4073 35.7801 53.4073 35.1504C53.4073 34.5208 53.9089 34.0049 54.5229 34.0049H58.2662C58.5432 33.9897 58.8203 34.0125 59.0898 34.0353C59.7112 34.0732 60.1754 34.6194 60.1379 35.249C60.1005 35.8483 59.6064 36.3111 59.0149 36.3111H59.0224ZM32.0701 36.2883C31.4562 36.2883 30.9546 35.7877 30.9471 35.1656C30.9396 34.5359 31.4337 34.0201 32.0551 34.0125H35.8135C36.4349 34.0125 36.9365 34.5208 36.9365 35.1504C36.9365 35.7801 36.4349 36.2883 35.8135 36.2883H32.0851C32.0851 36.2883 32.0776 36.2883 32.0701 36.2883ZM50.787 36.2883H47.0436C46.4222 36.2883 45.9206 35.7801 45.9206 35.1504C45.9206 34.5208 46.4222 34.0049 47.0361 34.0049H50.7795C51.4009 34.0049 51.9025 34.5132 51.9025 35.1428C51.9025 35.7725 51.4009 36.2808 50.7795 36.2808L50.787 36.2883ZM43.3002 36.2883H39.5568C38.9354 36.2883 38.4338 35.7801 38.4338 35.1504C38.4338 34.5208 38.9354 34.0049 39.5493 34.0049H43.2927C43.9141 34.0049 44.4157 34.5132 44.4157 35.1428C44.4157 35.7725 43.9141 36.2808 43.2927 36.2808L43.3002 36.2883Z" fill="#C9C9C9"/>
</g>
<g clip-path="url(#clip2_1829_24102)">
<path d="M35.4536 152C33.286 152 31.2017 151.196 29.5948 149.731C27.988 148.267 26.98 146.272 26.7602 144.102L21.0151 87.3894C20.4542 84.4457 20.098 81.4337 19.9464 78.361C19.2946 81.7599 18.9156 85.212 18.8019 88.6641C18.6579 93.1328 15.2093 95.204 12.0563 95.2495C12.026 95.2495 11.9957 95.2495 11.9654 95.2495C8.81997 95.2495 5.36381 93.2314 5.10611 88.7551C4.31787 73.4825 7.81193 58.3541 15.2245 45.0011C17.0587 41.6704 19.7569 38.886 23.0236 36.9513C26.2827 35.0242 30.0041 34 33.7862 34H57.1683C60.9883 34 64.687 35.0091 67.9537 36.9362C71.2204 38.8632 73.9186 41.6477 75.7604 44.9783C83.1729 58.3314 86.6746 73.4598 85.8787 88.7323C85.6286 93.1935 82.1725 95.204 79.0422 95.204C79.0119 95.204 78.9816 95.204 78.9513 95.204C75.6922 95.1661 72.3269 92.8976 72.1905 88.6413C72.0768 85.1816 71.6979 81.7296 71.046 78.3306C70.8945 81.4033 70.5382 84.4229 69.9698 87.3667L64.2247 144.079C64.0049 146.249 62.9968 148.244 61.39 149.709C59.7832 151.173 57.6989 151.977 55.5312 151.977C53.2195 151.977 51.0367 151.074 49.392 149.436C47.7473 147.797 46.8226 145.619 46.7923 143.298L46.0419 88.9751C46.0419 88.8006 45.9813 88.6489 45.8676 88.5351C45.6478 88.3151 45.2613 88.3151 45.0415 88.5351C44.9278 88.6489 44.8671 88.8006 44.8671 88.9599L44.2002 143.321C44.1698 145.65 43.2527 147.827 41.608 149.458C39.9633 151.097 37.7805 151.992 35.4612 151.992L35.4536 152ZM23.016 52.8232C23.2964 52.8232 23.5845 52.8915 23.8346 53.0129C24.0847 53.1343 24.3121 53.324 24.4864 53.5516C24.6607 53.7792 24.782 54.0448 24.835 54.3179C24.8881 54.5986 24.8805 54.8869 24.8123 55.16C21.8791 66.3736 21.3561 77.0864 23.2585 87.0101L23.2737 87.1087L29.0264 143.874C29.1931 145.483 29.9359 146.962 31.1259 148.047C32.3158 149.132 33.8544 149.724 35.4612 149.724C37.1741 149.724 38.7885 149.056 40.0088 147.85C41.2291 146.636 41.9112 145.02 41.9339 143.298L42.6009 88.9524C42.6009 88.2012 42.8965 87.4805 43.4346 86.9342C43.9728 86.388 44.6928 86.0921 45.4583 86.0921C46.2238 86.0921 46.9514 86.4031 47.482 86.9342C48.0201 87.4729 48.3157 88.1937 48.3157 88.9675L49.0661 143.275C49.0888 144.997 49.7709 146.621 50.9912 147.827C52.2115 149.041 53.8183 149.701 55.5312 149.709C57.138 149.709 58.669 149.117 59.859 148.032C61.0489 146.947 61.7993 145.468 61.9585 143.859L67.7263 86.9949C69.6363 77.0788 69.1133 66.3584 66.1801 55.1449C66.1119 54.8793 66.0968 54.5834 66.1498 54.3103C66.2029 54.0372 66.3241 53.7716 66.4985 53.5364C66.6728 53.3088 66.9002 53.1267 67.1579 52.9978C67.4231 52.8688 67.7263 52.8081 67.9916 52.8081C68.3781 52.7929 68.795 52.9446 69.1209 53.2026C69.4468 53.453 69.6818 53.8171 69.7803 54.2193L69.9167 54.7579C71.6069 61.222 72.5013 67.8985 72.5619 74.5978C73.6761 79.1728 74.3127 83.8767 74.4643 88.5882C74.5553 91.5623 76.7987 92.9203 78.9816 92.9431C81.1492 92.981 83.4458 91.6457 83.6125 88.6261C84.3856 73.786 80.9825 59.0825 73.7746 46.1012C72.1299 43.1271 69.7197 40.6386 66.8016 38.9164C63.8988 37.2017 60.579 36.2913 57.2138 36.2913H33.7862C30.4058 36.2913 27.0861 37.2017 24.1756 38.9239C21.2576 40.6538 18.8474 43.1347 17.2103 46.1164C10.0099 59.0825 6.60682 73.7936 7.37991 88.6337C7.55423 91.6685 9.7977 92.9962 12.026 92.9734C14.1937 92.9431 16.4296 91.585 16.5281 88.5958C16.6797 83.8919 17.3164 79.1804 18.4305 74.6054C18.4987 67.9137 19.3855 61.2372 21.0681 54.7655L21.2046 54.2268C21.3107 53.8247 21.5456 53.4681 21.8715 53.2178C22.1974 52.9674 22.5991 52.8308 23.0084 52.8308L23.016 52.8232Z" fill="#F44432"/>
</g>
<g clip-path="url(#clip3_1829_24102)">
<path d="M46 30C37.7244 30 31 23.2701 31 15C31 6.72986 37.7244 0 46 0C54.2756 0 61 6.72986 61 15C61 23.2701 54.2756 30 46 30ZM46 2.36967C39.0315 2.36967 33.3622 8.03318 33.3622 15C33.3622 21.9668 39.0315 27.6303 46 27.6303C52.9685 27.6303 58.6378 21.9668 58.6378 15C58.6378 8.03318 52.9685 2.36967 46 2.36967Z" fill="#F44432"/>
</g>
</g>
<defs>
<clipPath id="clip0_1829_24102">
<rect width="90" height="152" fill="white"/>
</clipPath>
<clipPath id="clip1_1829_24102">
<rect width="66" height="118" fill="white" transform="translate(12 34)"/>
</clipPath>
<clipPath id="clip2_1829_24102">
<rect width="81" height="118" fill="white" transform="translate(5 34)"/>
</clipPath>
<clipPath id="clip3_1829_24102">
<rect width="30" height="30" fill="white" transform="translate(31)"/>
</clipPath>
</defs>
</svg>
