<svg width="16" height="16" viewBox="0 0 16 16" fill="none" xmlns="http://www.w3.org/2000/svg">
<path fill-rule="evenodd" clip-rule="evenodd" d="M8.0001 13.6001C11.0929 13.6001 13.6001 11.0929 13.6001 8.0001C13.6001 4.9073 11.0929 2.4001 8.0001 2.4001C4.9073 2.4001 2.4001 4.9073 2.4001 8.0001C2.4001 11.0929 4.9073 13.6001 8.0001 13.6001ZM8.0001 14.4001C11.5347 14.4001 14.4001 11.5347 14.4001 8.0001C14.4001 4.46548 11.5347 1.6001 8.0001 1.6001C4.46548 1.6001 1.6001 4.46548 1.6001 8.0001C1.6001 11.5347 4.46548 14.4001 8.0001 14.4001Z" fill="#747474"/>
<path d="M7.17197 9.52022V9.61725H8.40625V9.52022C8.4168 8.71159 8.66999 8.33962 9.28186 7.95687C9.96757 7.54178 10.3948 6.97035 10.4001 6.09164C10.3948 4.80863 9.419 4 7.99482 4C6.69197 4 5.63702 4.73854 5.6001 6.18868H6.91878C6.9557 5.46631 7.46208 5.12129 7.98427 5.12129C8.55922 5.12129 9.02339 5.50943 9.01812 6.11321C9.02339 6.65229 8.67526 7.01348 8.22691 7.30997C7.5623 7.72507 7.18252 8.14555 7.17197 9.52022ZM7.00317 11.159C6.9979 11.6226 7.37241 12 7.82603 12C8.26383 12 8.63834 11.6226 8.63834 11.159C8.63834 10.7062 8.26383 10.3342 7.82603 10.3288C7.37241 10.3342 6.9979 10.7062 7.00317 11.159Z" fill="#747474"/>
</svg>
