<svg width="50" height="50" viewBox="0 0 50 50" fill="none" xmlns="http://www.w3.org/2000/svg">
<g clip-path="url(#clip0_566_1273)">
<g clip-path="url(#clip1_566_1273)">
<path fill-rule="evenodd" clip-rule="evenodd" d="M45.3441 18.8853C47.5673 20.6434 49 23.3619 49 26.4192H48.9929C48.9929 31.0159 45.7605 34.857 41.4411 35.7961C40.8483 40.541 36.8183 44.2127 31.9202 44.2127C29.1959 44.2127 26.7468 43.0688 24.9965 41.2471C23.2532 43.0688 20.7971 44.2127 18.0728 44.2127C13.5346 44.2127 9.7446 41.0565 8.74239 36.827C4.33127 35.9585 1 32.075 1 27.4078C1 24.3998 2.39038 21.7167 4.55007 19.9585C3.82311 18.6028 3.4067 17.0494 3.4067 15.4042C3.4067 10.1015 7.7049 5.80141 13.0053 5.80141C14.191 5.80141 15.3202 6.02736 16.3719 6.42277C17.9246 3.21712 21.1994 1 25.0035 1C28.5748 1 31.6873 2.96293 33.3388 5.8579C34.3692 5.48367 35.4773 5.26478 36.6348 5.26478C41.9352 5.26478 46.2333 9.56487 46.2333 14.8676C46.2333 16.301 45.9087 17.6637 45.3441 18.8853ZM9.51832 44.7777C9.51832 47.1097 7.62871 49.0001 5.29776 49.0001C2.96681 49.0001 1.07721 47.1097 1.07721 44.7777C1.07721 42.4457 2.96681 40.5553 5.29776 40.5553C7.62871 40.5553 9.51832 42.4457 9.51832 44.7777Z" fill="#B9EBB5"/>
<path fill-rule="evenodd" clip-rule="evenodd" d="M37.0141 15.5664L29.9059 24.682H37.3459V28.735H24.1106V25.8541L31.1835 16.7385H24.4494V12.6855H37.0141V15.5664ZM22.0775 20.827V23.1783L17.0939 29.3848H22.3175V32.7175H12.2939V30.3592L17.2492 24.1597H12.541V20.827H22.0775Z" fill="#00B800"/>
</g>
</g>
<defs>
<clipPath id="clip0_566_1273">
<rect width="50" height="50" fill="white"/>
</clipPath>
<clipPath id="clip1_566_1273">
<rect width="48" height="48" fill="white" transform="translate(1 1)"/>
</clipPath>
</defs>
</svg>
