<svg width="50" height="50" viewBox="0 0 50 50" fill="none" xmlns="http://www.w3.org/2000/svg">
<g clip-path="url(#clip0_566_1407)">
<g clip-path="url(#clip1_566_1407)">
<path d="M49 8H1V12.2651H49V8Z" fill="#F44432"/>
<path d="M49 16.8141C44.9976 16.8141 44.9976 19.7095 40.9953 19.7095C36.9929 19.7095 36.9929 16.8141 32.9906 16.8141C28.9882 16.8141 28.9882 19.7095 24.9929 19.7095C20.9976 19.7095 20.9906 16.8141 16.9953 16.8141C13 16.8141 12.9929 19.7095 8.99765 19.7095C5.00235 19.7095 4.99529 16.8141 1 16.8141V12.2722H49V16.8141Z" fill="#FFCFBC"/>
<path d="M17.0024 30.4325C19.3415 30.4325 21.2377 28.5261 21.2377 26.1745C21.2377 23.8229 19.3415 21.9165 17.0024 21.9165C14.6633 21.9165 12.7671 23.8229 12.7671 26.1745C12.7671 28.5261 14.6633 30.4325 17.0024 30.4325Z" fill="#F48475"/>
<path d="M32.9975 42.0001C35.3366 42.0001 37.2328 40.0937 37.2328 37.7421C37.2328 35.3905 35.3366 33.4841 32.9975 33.4841C30.6584 33.4841 28.7622 35.3905 28.7622 37.7421C28.7622 40.0937 30.6584 42.0001 32.9975 42.0001Z" fill="#F48475"/>
<path d="M44.7646 26.1745C44.7646 28.5235 46.6635 30.4325 48.9999 30.4325V21.9165C46.6635 21.9165 44.7646 23.8255 44.7646 26.1745Z" fill="#F48475"/>
<path d="M1 33.4841V42.0001C3.33647 42.0001 5.23529 40.0911 5.23529 37.7421C5.23529 35.3931 3.33647 33.4841 1 33.4841Z" fill="#F48475"/>
</g>
</g>
<defs>
<clipPath id="clip0_566_1407">
<rect width="50" height="50" fill="white"/>
</clipPath>
<clipPath id="clip1_566_1407">
<rect width="48" height="34" fill="white" transform="translate(1 8)"/>
</clipPath>
</defs>
</svg>
