<svg width="50" height="50" viewBox="0 0 50 50" fill="none" xmlns="http://www.w3.org/2000/svg">
<g clip-path="url(#clip0_566_1319)">
<g clip-path="url(#clip1_566_1319)">
<path d="M38.708 6.30713C44.3904 6.30713 48.9998 10.9208 48.9998 16.6084V45.993H28.4092V16.6154C28.4092 10.9278 33.0186 6.31419 38.7009 6.31419L38.708 6.30713Z" fill="#DFDFDF"/>
<path d="M37.5929 5H39.5976C42.4847 5 44.8282 7.34568 44.8282 10.2354V21.7377H32.3623V10.2354C32.3623 7.34568 34.7058 5 37.5929 5Z" fill="#C9C9C9"/>
<path d="M16.0635 34.2644V36.9068C16.0635 38.4683 14.8 39.733 13.24 39.733C11.68 39.733 10.4165 38.4683 10.4165 36.9068V34.2644H1V45.9999H25.1694V34.2644H16.0635Z" fill="#DFDFDF"/>
<path d="M11.8281 36.9493C12.414 27.5595 14.9764 17.5974 21.9575 10.9348C18.8728 14.4463 16.9811 18.7773 15.8869 23.2708C14.8493 27.7008 14.4046 32.4204 14.6587 36.921C14.7152 38.8781 11.814 38.9134 11.8352 36.9493H11.8281Z" fill="#C9C9C9"/>
</g>
</g>
<defs>
<clipPath id="clip0_566_1319">
<rect width="50" height="50" fill="white"/>
</clipPath>
<clipPath id="clip1_566_1319">
<rect width="48" height="41" fill="white" transform="translate(1 5)"/>
</clipPath>
</defs>
</svg>
