<svg width="50" height="50" viewBox="0 0 50 50" fill="none" xmlns="http://www.w3.org/2000/svg">
<g clip-path="url(#clip0_566_1604)">
<g clip-path="url(#clip1_566_1604)">
<path d="M28.2736 22.8753V12.4353L34.7636 18.4141L39 13.9106L25 1L11 13.9106L15.2364 18.4141L21.7264 12.4353V22.8753C15.9068 24.3224 11.592 29.5176 11.592 35.7294C11.592 43.0565 17.597 49 25 49C32.403 49 38.4081 43.0565 38.4081 35.7294C38.4081 29.5176 34.0932 24.3224 28.2736 22.8753ZM25 42.52C21.2201 42.52 18.1391 39.4706 18.1391 35.7294C18.1391 31.9882 21.2201 28.9388 25 28.9388C28.7799 28.9388 31.8609 31.9882 31.8609 35.7294C31.8609 39.4706 28.7799 42.52 25 42.52Z" fill="#DFDFDF"/>
</g>
</g>
<defs>
<clipPath id="clip0_566_1604">
<rect width="50" height="50" fill="white"/>
</clipPath>
<clipPath id="clip1_566_1604">
<rect width="28" height="48" fill="white" transform="translate(11 1)"/>
</clipPath>
</defs>
</svg>
