<svg width="50" height="50" viewBox="0 0 50 50" fill="none" xmlns="http://www.w3.org/2000/svg">
<g clip-path="url(#clip0_566_1463)">
<g clip-path="url(#clip1_566_1463)">
<path d="M33.7739 10V27.7153C33.7739 28.6196 34.8186 29.1384 35.5457 28.5986C42.8586 23.1655 47.221 17.5222 48.2657 15.7836C49.9739 12.9444 48.5692 10 45.5622 10H33.781H33.7739Z" fill="#F44432"/>
<path d="M31.4941 10H15.2306C7.37412 10 1 16.3304 1 24.133V35.9665C1 38.0416 2.21412 40.1027 4.21882 40.6845C10.0565 42.3881 10.5435 36.6886 16.24 34.908C20.2565 33.6531 25.8753 32.0547 29.0518 31.1574C30.4918 30.7508 31.4871 29.4398 31.4871 27.9536V10H31.4941Z" fill="#F44432"/>
</g>
</g>
<defs>
<clipPath id="clip0_566_1463">
<rect width="50" height="50" fill="white"/>
</clipPath>
<clipPath id="clip1_566_1463">
<rect width="48" height="31" fill="white" transform="translate(1 10)"/>
</clipPath>
</defs>
</svg>
