<svg width="50" height="50" viewBox="0 0 50 50" fill="none" xmlns="http://www.w3.org/2000/svg">
<g clip-path="url(#clip0_566_1587)">
<g clip-path="url(#clip1_566_1587)">
<path d="M17.8407 21.5341C17.8407 15.3506 22.5994 10.2824 28.6592 9.76706C25.3429 5.32706 22.1752 2.07294 21.2984 1C19.2832 3.48471 5 17.56 5 31.12C5 41.2918 11.1092 49 21.2984 49C31.4875 49 37.5968 41.2918 37.5968 31.12C37.5968 30.8588 37.5826 30.5976 37.5685 30.3365C35.4755 32.2141 32.7108 33.3576 29.6774 33.3576C23.1368 33.3576 17.8337 28.0635 17.8337 21.5341H17.8407Z" fill="#DFDFDF"/>
<path d="M17.8408 21.5342C17.8408 28.0636 23.144 33.3577 29.6846 33.3577C32.718 33.3577 35.4827 32.2071 37.5757 30.3365C37.2787 22.9036 32.8594 15.3859 28.6663 9.77417C22.6066 10.2895 17.8479 15.3577 17.8479 21.5412L17.8408 21.5342Z" fill="#DFDFDF"/>
<path d="M33.1562 29.8917C39.6973 29.8917 45 24.5981 45 18.0682C45 11.5382 39.6973 6.24463 33.1562 6.24463C26.6151 6.24463 21.3125 11.5382 21.3125 18.0682C21.3125 24.5981 26.6151 29.8917 33.1562 29.8917Z" fill="#C9C9C9"/>
<path d="M31.6712 12.4424H27.6055V23.6941H31.6712V12.4424Z" fill="white"/>
<path d="M38.7069 12.4424H34.6411V23.6941H38.7069V12.4424Z" fill="white"/>
</g>
</g>
<defs>
<clipPath id="clip0_566_1587">
<rect width="50" height="50" fill="white"/>
</clipPath>
<clipPath id="clip1_566_1587">
<rect width="40" height="48" fill="white" transform="translate(5 1)"/>
</clipPath>
</defs>
</svg>
