<svg width="50" height="50" viewBox="0 0 50 50" fill="none" xmlns="http://www.w3.org/2000/svg">
<g clip-path="url(#clip0_566_1296)">
<g clip-path="url(#clip1_566_1296)">
<path d="M39.213 48.9998V40.5998C39.213 37.7904 39.9151 35.0092 41.3335 32.581C43.6243 28.6492 44.9931 22.7339 44.9931 18.6821C45.0002 9.03274 37.2555 1.18332 27.6385 0.999795C17.7236 0.816266 9.60305 9.16685 9.60305 19.0774V20.5174L5.05695 29.1504C4.89383 29.4539 5.12078 29.821 5.46121 29.821H9.54631V36.8798C9.54631 39.901 11.9931 42.3433 15.0215 42.3433H23.5747V48.9927H39.213V48.9998Z" fill="#DFDFDF"/>
<path d="M30.0001 4.62817L18.8228 16.4799L27.0355 18.8517L22.7802 28.5364L35.0426 15.9858L26.9362 13.5152L30.0001 4.62817Z" fill="#C9C9C9"/>
</g>
</g>
<defs>
<clipPath id="clip0_566_1296">
<rect width="50" height="50" fill="white"/>
</clipPath>
<clipPath id="clip1_566_1296">
<rect width="40" height="48" fill="white" transform="translate(5 1)"/>
</clipPath>
</defs>
</svg>
