<svg width="50" height="50" viewBox="0 0 50 50" fill="none" xmlns="http://www.w3.org/2000/svg">
<g clip-path="url(#clip0_566_1434)">
<g clip-path="url(#clip1_566_1434)">
<path d="M9.43781 47.9999L16.336 41.177C19.4293 38.1176 23.4943 36.3442 27.8056 35.6403C28.8185 35.4778 29.7834 35.0243 30.5567 34.2798C30.892 33.9549 31.1795 33.5961 31.4053 33.2103C31.7954 32.5605 31.3027 31.7753 30.543 31.7144C29.3523 31.6197 28.1957 31.1188 27.2855 30.2253C26.3617 29.3115 25.8621 28.1473 25.7731 26.956C25.6979 25.8866 24.8493 25.0473 23.768 24.9728C22.5636 24.8848 21.3865 24.3907 20.4626 23.4769C19.5387 22.5632 19.0529 21.426 18.9571 20.255C18.8955 19.5037 18.0948 19.0164 17.4447 19.4022C17.0614 19.6323 16.6919 19.9098 16.3634 20.2415C15.6174 21.0064 15.1589 21.9607 14.9879 22.9625C14.2761 27.2335 12.4831 31.2474 9.3899 34.3068L2.4917 41.1297L9.43781 47.9999Z" fill="#DFDFDF"/>
<path d="M48.9998 8.87022L44.1546 13.6624C41.0614 16.7219 39.2684 20.7425 38.5567 25.0068C38.3924 26.0085 37.9339 26.9629 37.1812 27.7278C35.1486 29.7922 31.809 29.8125 29.756 27.7819C28.8321 26.8682 28.3326 25.7039 28.2436 24.5127C28.1683 23.4432 27.3197 22.6039 26.2385 22.5294C25.034 22.4414 23.8569 21.9473 22.9331 21.0336C20.88 19.0029 20.9006 15.6998 22.9878 13.6895C23.7611 12.9517 24.7261 12.4982 25.7389 12.329C30.0571 11.6251 34.1153 9.85168 37.2085 6.79223L42.0537 2L48.9998 8.87022Z" fill="#DFDFDF"/>
<path d="M17.438 8.09847H11.4842V2.20972H6.96065V8.09847H1V12.5793H6.96065V18.4681H11.4842V12.5793H17.438V8.09847Z" fill="#C9C9C9"/>
</g>
</g>
<defs>
<clipPath id="clip0_566_1434">
<rect width="50" height="50" fill="white"/>
</clipPath>
<clipPath id="clip1_566_1434">
<rect width="48" height="46" fill="white" transform="translate(1 2)"/>
</clipPath>
</defs>
</svg>
