<svg width="50" height="50" viewBox="0 0 50 50" fill="none" xmlns="http://www.w3.org/2000/svg">
<g clip-path="url(#clip0_566_1413)">
<g clip-path="url(#clip1_566_1413)">
<path d="M49 25C49 25 37.4518 38 25 38C12.5482 38 1 25 1 25C1 25 12.5482 12 25 12C37.4518 12 49 25 49 25Z" fill="#DFDFDF"/>
<path d="M25.0002 38C32.1266 38 37.9037 32.1797 37.9037 25C37.9037 17.8203 32.1266 12 25.0002 12C17.8738 12 12.0967 17.8203 12.0967 25C12.0967 32.1797 17.8738 38 25.0002 38Z" fill="#C9C9C9"/>
<path d="M24.9999 30.8386C28.2005 30.8386 30.7952 28.2246 30.7952 25C30.7952 21.7754 28.2005 19.1614 24.9999 19.1614C21.7992 19.1614 19.2046 21.7754 19.2046 25C19.2046 28.2246 21.7992 30.8386 24.9999 30.8386Z" fill="#9F9F9F"/>
<path d="M26.9198 24.4808C27.6956 24.4808 28.3245 23.8472 28.3245 23.0656C28.3245 22.284 27.6956 21.6504 26.9198 21.6504C26.144 21.6504 25.5151 22.284 25.5151 23.0656C25.5151 23.8472 26.144 24.4808 26.9198 24.4808Z" fill="white"/>
</g>
</g>
<defs>
<clipPath id="clip0_566_1413">
<rect width="50" height="50" fill="white"/>
</clipPath>
<clipPath id="clip1_566_1413">
<rect width="48" height="26" fill="white" transform="translate(1 12)"/>
</clipPath>
</defs>
</svg>
