<svg width="50" height="50" viewBox="0 0 50 50" fill="none" xmlns="http://www.w3.org/2000/svg">
<g clip-path="url(#clip0_566_1307)">
<g clip-path="url(#clip1_566_1307)">
<path d="M34.8402 28.6988C34.8402 34.8471 31.1555 39.5129 25.0002 39.5129C18.8449 39.5129 15.1602 34.8471 15.1602 28.6988C15.1602 20.5035 23.786 11.9906 25.0002 10.4871C26.2143 11.9906 34.8402 20.5035 34.8402 28.6988Z" fill="#C9C9C9"/>
<path fill-rule="evenodd" clip-rule="evenodd" d="M25.0003 1C38.2568 1 49.0003 11.7435 49.0003 25L49.0074 24.9929C49.0074 29.8565 47.5603 34.3741 45.0756 38.1506L48.2521 41.3271L37.8897 43.7624L40.325 33.4L43.0285 36.1035C45.0262 32.8706 46.1838 29.0729 46.1838 25C46.1838 13.3247 36.6827 3.82353 25.0074 3.82353C22.0497 3.82353 19.2403 4.43765 16.685 5.53176L14.5462 3.39294C17.7085 1.86118 21.2521 1 25.0003 1ZM25 46.1766C28.2329 46.1766 31.2965 45.4496 34.0353 44.1507L36.1388 46.2543C32.8141 48.0049 29.0235 49.0001 25 49.0001C11.7435 49.0001 1 38.2566 1 25.0002C1 19.8966 2.60235 15.1672 5.32 11.2778L2.39765 8.35545L12.76 5.92015L10.3247 16.2825L7.35294 13.3107C5.12235 16.6637 3.82353 20.6802 3.82353 25.0002C3.82353 36.6754 13.3247 46.1766 25 46.1766Z" fill="#DFDFDF"/>
</g>
</g>
<defs>
<clipPath id="clip0_566_1307">
<rect width="50" height="50" fill="white"/>
</clipPath>
<clipPath id="clip1_566_1307">
<rect width="48" height="48" fill="white" transform="translate(1 1)"/>
</clipPath>
</defs>
</svg>
