<svg width="50" height="50" viewBox="0 0 50 50" fill="none" xmlns="http://www.w3.org/2000/svg">
<g clip-path="url(#clip0_566_1620)">
<g clip-path="url(#clip1_566_1620)">
<path d="M21.7362 27.0965V32.7929H14.2888V39.2306H21.7362V49H28.2707V39.2306H35.7181V32.7929H28.2707V27.0965C33.8649 25.6141 38.0069 20.4471 38.0069 14.2706C38 6.94353 32.1777 1 25 1C17.8223 1 12 6.94353 12 14.2706C12 20.4471 16.142 25.6141 21.7362 27.0965ZM25 7.48C28.6649 7.48 31.6521 10.5294 31.6521 14.2706C31.6521 18.0118 28.6649 21.0612 25 21.0612C21.3351 21.0612 18.3479 18.0118 18.3479 14.2706C18.3479 10.5294 21.3351 7.48 25 7.48Z" fill="#F44432"/>
</g>
</g>
<defs>
<clipPath id="clip0_566_1620">
<rect width="50" height="50" fill="white"/>
</clipPath>
<clipPath id="clip1_566_1620">
<rect width="26" height="48" fill="white" transform="translate(12 1)"/>
</clipPath>
</defs>
</svg>
