<svg width="50" height="50" viewBox="0 0 50 50" fill="none" xmlns="http://www.w3.org/2000/svg">
<g clip-path="url(#clip0_566_1533)">
<g clip-path="url(#clip1_566_1533)">
<path d="M35.4259 1H32.7788V49H35.4259V1Z" fill="#DFDFDF"/>
<path d="M46.0846 1H43.4375V49H46.0846V1Z" fill="#DFDFDF"/>
<path d="M28.1976 30.1105C28.1976 38.6093 23.1012 45.054 14.6024 45.054C6.10353 45.054 1 38.6164 1 30.1105C1 18.7811 12.9153 7.0211 14.5953 4.9458C16.2753 7.0211 28.1906 18.7882 28.1906 30.1176L28.1976 30.1105Z" fill="#F44432"/>
<path d="M34.0991 22.7553C36.4382 22.7553 38.3344 20.8591 38.3344 18.52C38.3344 16.1809 36.4382 14.2847 34.0991 14.2847C31.76 14.2847 29.8638 16.1809 29.8638 18.52C29.8638 20.8591 31.76 22.7553 34.0991 22.7553Z" fill="#00B400"/>
<path d="M44.7646 36.8729C47.1037 36.8729 48.9999 34.9767 48.9999 32.6376C48.9999 30.2985 47.1037 28.4023 44.7646 28.4023C42.4255 28.4023 40.5293 30.2985 40.5293 32.6376C40.5293 34.9767 42.4255 36.8729 44.7646 36.8729Z" fill="#00B400"/>
</g>
</g>
<defs>
<clipPath id="clip0_566_1533">
<rect width="50" height="50" fill="white"/>
</clipPath>
<clipPath id="clip1_566_1533">
<rect width="48" height="48" fill="white" transform="translate(1 1)"/>
</clipPath>
</defs>
</svg>
