<svg width="50" height="50" viewBox="0 0 50 50" fill="none" xmlns="http://www.w3.org/2000/svg">
<g clip-path="url(#clip0_566_1360)">
<g clip-path="url(#clip1_566_1360)">
<path d="M38.708 6.30737C44.3904 6.30737 48.9998 10.921 48.9998 16.6086V45.9932H28.4092V16.6157C28.4092 10.9281 33.0186 6.31444 38.7009 6.31444L38.708 6.30737Z" fill="#FFC0B5"/>
<path d="M37.5929 5.00024H39.5976C42.4847 5.00024 44.8282 7.34593 44.8282 10.2356V21.738H32.3623V10.2356C32.3623 7.34593 34.7058 5.00024 37.5929 5.00024Z" fill="#F44432"/>
<path d="M16.0635 34.2646V36.9071C16.0635 38.4685 14.8 39.7332 13.24 39.7332C11.68 39.7332 10.4165 38.4685 10.4165 36.9071V34.2646H1V46.0001H25.1694V34.2646H16.0635Z" fill="#FFC0B5"/>
<path d="M11.8281 36.9495C12.414 27.5597 14.9764 17.5976 21.9575 10.9351C18.8728 14.4465 16.9811 18.7776 15.8869 23.2711C14.8493 27.701 14.4046 32.4207 14.6587 36.9213C14.7152 38.8784 11.814 38.9137 11.8352 36.9495H11.8281Z" fill="black"/>
</g>
</g>
<defs>
<clipPath id="clip0_566_1360">
<rect width="50" height="50" fill="white"/>
</clipPath>
<clipPath id="clip1_566_1360">
<rect width="48" height="41" fill="white" transform="translate(1 5.00024)"/>
</clipPath>
</defs>
</svg>
