<?xml version="1.0" encoding="utf-8"?>
<!-- Generator: Adobe Illustrator 27.4.1, SVG Export Plug-In . SVG Version: 6.00 Build 0)  -->
<svg version="1.1" id="레이어_1" xmlns="http://www.w3.org/2000/svg" xmlns:xlink="http://www.w3.org/1999/xlink" x="0px"
	 y="0px" viewBox="0 0 50 50" style="enable-background:new 0 0 50 50;" xml:space="preserve">
<style type="text/css">
	.st0{fill:#DFDFDF;}
	.st1{fill:#C9C9C9;}
</style>
<g>
	<path class="st0" d="M25,13.6c-3.6,0-7,2.2-8.4,5.6L9.3,36.5c-0.3,0.7,0.2,1.3,0.9,1.3h7.1L21.4,49h7.1l4.2-11.1h7.1
		c0.7,0,1.2-0.7,0.9-1.3l-7.3-17.3C32,15.8,28.6,13.6,25,13.6L25,13.6z"/>
	<path class="st1" d="M32.2,25.5c-1.2-3.1-5.4-3.4-7.2-0.4c-1.8-3-6-2.7-7.2,0.4c-1.2,3.2,2,7.4,7.2,9.6c2.3-1,4.2-2.4,5.6-3.9
		C32.2,29.2,32.9,27.2,32.2,25.5L32.2,25.5z"/>
	<path class="st0" d="M25,11.5c2.9,0,5.3-2.4,5.3-5.3S27.9,1,25,1s-5.3,2.4-5.3,5.3S22.1,11.5,25,11.5z"/>
</g>
</svg>
