<svg width="50" height="50" viewBox="0 0 50 50" fill="none" xmlns="http://www.w3.org/2000/svg">
<g clip-path="url(#clip0_566_1469)">
<g clip-path="url(#clip1_566_1469)">
<path d="M42.1117 29.8918H8.88829C8.37027 29.8918 7.95025 29.4682 7.95025 28.9459C7.95025 28.4235 8.37027 28 8.88829 28H42.1117C45.9129 28 49 24.8871 49 21.0541C49 17.2212 45.9059 14.1082 42.1117 14.1082H8.88829C8.37027 14.1082 7.95025 13.6847 7.95025 13.1624C7.95025 12.64 8.37027 12.2165 8.88829 12.2165H19.8998C24.625 12.2165 28.4751 8.33412 28.4751 3.56941V1H22.5249V3.56941C22.5249 5.03059 21.3488 6.21647 19.8998 6.21647H8.88829C5.09413 6.21647 2 9.32941 2 13.1624C2 16.9953 5.09413 20.1082 8.88829 20.1082H42.1117C42.6297 20.1082 43.0497 20.5318 43.0497 21.0541C43.0497 21.5765 42.6297 22 42.1117 22H8.88829C5.08713 22 2 25.1129 2 28.9459C2 32.7788 5.09413 35.8918 8.88829 35.8918H42.1117C42.6297 35.8918 43.0497 36.3153 43.0497 36.8376C43.0497 37.36 42.6297 37.7835 42.1117 37.7835H31.1002C26.375 37.7835 22.5249 41.6659 22.5249 46.4306V49H28.4751V46.4306C28.4751 44.9694 29.6512 43.7835 31.1002 43.7835H42.1117C45.9129 43.7835 49 40.6706 49 36.8376C49 33.0047 45.9059 29.8918 42.1117 29.8918Z" fill="#DFDFDF"/>
</g>
</g>
<defs>
<clipPath id="clip0_566_1469">
<rect width="50" height="50" fill="white"/>
</clipPath>
<clipPath id="clip1_566_1469">
<rect width="47" height="48" fill="white" transform="translate(2 1)"/>
</clipPath>
</defs>
</svg>
