<svg width="50" height="50" viewBox="0 0 50 50" fill="none" xmlns="http://www.w3.org/2000/svg">
<g clip-path="url(#clip0_566_1488)">
<path d="M5.29997 49L2 5.05882C2 5.05882 10.924 1 25.5 1C40.076 1 49 5.05882 49 5.05882L45.7 49H5.29997Z" fill="#DFDFDF"/>
<path d="M40.441 9.20942C40.441 9.20942 34.7679 6.4353 25.5069 6.4353C16.2459 6.4353 10.5728 9.20942 10.5728 9.20942L11.2889 20.2C11.2889 20.2 16.8567 17.6447 23.9622 17.4612L25.4437 15.6118L26.9673 17.4612C34.1219 17.6377 39.7248 20.2 39.7248 20.2L40.441 9.20942Z" fill="#C9C9C9"/>
<path d="M24.9731 9.92942V11.5671H26.0263V9.92942V6.4353H24.9731V9.92942Z" fill="white"/>
<path d="M16.8403 7.37859L15.8174 7.63062L16.9755 12.3818L17.9985 12.1298L16.8403 7.37859Z" fill="white"/>
<path d="M34.1525 7.38461L32.9951 12.136L34.0181 12.3878L35.1754 7.63646L34.1525 7.38461Z" fill="white"/>
<path d="M18.7947 41.1224C16.6392 41.1224 14.8067 39.5341 14.4907 37.3953L13.4726 30.5765C13.1146 28.1624 14.7856 25.9177 17.1939 25.5859L18.212 25.4447C20.8238 25.0847 23.1549 27.1318 23.1549 29.7859V36.7459C23.1549 39.1671 21.203 41.1224 18.8017 41.1224H18.7947Z" fill="white"/>
<path d="M32.1981 41.1224C34.3536 41.1224 36.1861 39.5341 36.5021 37.3953L37.5201 30.5765C37.8782 28.1624 36.2072 25.9177 33.7989 25.5859L32.7808 25.4447C30.1689 25.0847 27.8379 27.1318 27.8379 29.7859V36.7459C27.8379 39.1671 29.7898 41.1224 32.191 41.1224H32.1981Z" fill="white"/>
</g>
<defs>
<clipPath id="clip0_566_1488">
<rect width="47" height="48" fill="white" transform="translate(2 1)"/>
</clipPath>
</defs>
</svg>
