<svg width="50" height="50" viewBox="0 0 50 50" fill="none" xmlns="http://www.w3.org/2000/svg">
<g clip-path="url(#clip0_566_1553)">
<g clip-path="url(#clip1_566_1553)">
<path d="M30.1931 21.6046C32.7496 21.6046 34.8221 19.5441 34.8221 17.0023C34.8221 14.4604 32.7496 12.3999 30.1931 12.3999C27.6365 12.3999 25.564 14.4604 25.564 17.0023C25.564 19.5441 27.6365 21.6046 30.1931 21.6046Z" fill="#DFDFDF"/>
<path d="M20.8068 37.6C23.3634 37.6 25.4359 35.5394 25.4359 32.9976C25.4359 30.4558 23.3634 28.3953 20.8068 28.3953C18.2502 28.3953 16.1777 30.4558 16.1777 32.9976C16.1777 35.5394 18.2502 37.6 20.8068 37.6Z" fill="#DFDFDF"/>
<path d="M11.8967 1H9V49H11.8967V1Z" fill="#C9C9C9"/>
<path d="M42.0002 1H39.1035V49H42.0002V1Z" fill="#C9C9C9"/>
<path d="M29.426 44.3977C26.87 44.3977 24.7969 46.4589 24.7969 49.0001H34.0622C34.0622 46.4589 31.989 44.3977 29.4331 44.3977H29.426Z" fill="#DFDFDF"/>
<path d="M21.5737 5.60235C24.1296 5.60235 26.2028 3.54118 26.2028 1H16.9375C16.9375 3.54118 19.0107 5.60235 21.5666 5.60235H21.5737Z" fill="#DFDFDF"/>
</g>
</g>
<defs>
<clipPath id="clip0_566_1553">
<rect width="50" height="50" fill="white"/>
</clipPath>
<clipPath id="clip1_566_1553">
<rect width="33" height="48" fill="white" transform="translate(9 1)"/>
</clipPath>
</defs>
</svg>
