<svg width="50" height="50" viewBox="0 0 50 50" fill="none" xmlns="http://www.w3.org/2000/svg">
<g clip-path="url(#clip0_566_1251)">
<path fill-rule="evenodd" clip-rule="evenodd" d="M10.9756 6.84507C12.1608 3.90359 14.9885 2.00282 18.1767 2C20.4262 2.00201 22.5484 2.96655 24.0294 4.65493V46.6197C22.5115 48.1549 20.5065 49 18.3532 49C15.261 49 12.4229 47.1901 11.1239 44.3944L11.018 44.1901H10.7921C5.49716 44.1901 2.08017 40.6338 2.08017 35.1408C2.08017 32.6338 2.72968 30.5493 3.96516 29.1127L4.04988 29.0141C4.07011 28.9905 4.09035 28.9666 4.11068 28.9425C4.17547 28.8658 4.24124 28.788 4.31109 28.7183C5.95605 27.0211 8.26464 26 10.7074 25.8732C10.665 26.0211 10.6368 26.162 10.6085 26.3028C10.2697 28.1408 10.6721 30 11.7381 31.5423C12.0064 31.9296 12.5853 32.0352 12.9807 31.7676C13.3831 31.4859 13.489 30.9296 13.2066 30.5282C12.4088 29.3803 12.1123 27.993 12.3664 26.6197C12.6206 25.2465 13.4042 24.0563 14.5621 23.2606C15.5293 22.5916 16.673 22.2817 17.852 22.3521C18.3321 22.3803 18.7698 22.007 18.798 21.5141C18.8263 21.0211 18.4521 20.5986 17.9579 20.5704C16.8424 20.507 15.7552 20.6972 14.7386 21.1408C13.9902 20.0634 13.6372 18.7676 13.7361 17.4577C13.8561 15.9155 14.5691 14.507 15.7481 13.5C16.1223 13.1831 16.1647 12.6197 15.847 12.2465C15.5293 11.8732 14.9645 11.831 14.5903 12.1479C13.0513 13.4648 12.1123 15.3028 11.964 17.3239C11.837 18.993 12.2817 20.662 13.2066 22.0563C12.4935 22.6127 11.9075 23.2887 11.4557 24.0634C8.26464 24.0352 5.22888 25.2465 3.08267 27.4366C2.20724 26.3099 1 24.4718 1 22.838C1 20.5563 2.04487 18.4014 3.87338 16.9296L4.04988 16.7817L3.9934 16.5563C3.80278 15.838 3.71806 15.2324 3.71806 14.6408C3.71806 10.7042 6.71146 7.4507 10.6791 7.06338L10.898 7.04225L10.9756 6.84507ZM18.1767 2C18.1791 2 18.1814 2 18.1838 2H18.1697C18.172 2 18.1744 2 18.1767 2ZM11.9923 39.331C12.3382 39.3803 12.6912 39.4014 13.0371 39.4014L13.016 39.4085C16.8001 39.4085 20.0476 36.5916 20.563 32.8662C20.5983 32.6268 20.5347 32.3944 20.3936 32.2042C20.2524 32.0141 20.0406 31.8944 19.8076 31.8592C19.5817 31.8239 19.3416 31.8803 19.151 32.0282C18.9604 32.1761 18.8404 32.3803 18.8051 32.6197C18.3674 35.7817 15.4163 38 12.2252 37.5634C11.7311 37.5 11.2863 37.838 11.2227 38.3239C11.1945 38.5634 11.258 38.7958 11.3992 38.9859C11.5475 39.1761 11.7522 39.2958 11.9923 39.331ZM45.6822 28.7113C45.7739 28.8099 45.8587 28.9085 45.9434 29.007H45.9363L46.021 29.1056C47.2495 30.5423 47.906 32.6268 47.906 35.1338C47.906 40.6338 44.489 44.1831 39.1871 44.1831H38.9611L38.8623 44.3873C37.5633 47.1831 34.7252 48.993 31.633 48.993C29.4797 48.993 27.4676 48.1479 25.9568 46.6127V4.65493C27.4394 2.96479 29.5644 2 31.8165 2C35.0005 2 37.8316 3.90141 39.0247 6.84507L39.1023 7.04225L39.3212 7.06338C43.2889 7.4507 46.2823 10.7042 46.2823 14.6408C46.2823 15.2254 46.1975 15.838 46.0069 16.5563L45.9504 16.7817L46.1269 16.9296C47.9555 18.4085 49.0003 20.5634 49.0003 22.8451C49.0003 24.4718 47.7931 26.3169 46.9177 27.4437C44.8138 25.2887 41.8416 24.0704 38.7211 24.0704H38.5446C38.0998 23.2887 37.5068 22.6197 36.7938 22.0634C37.7186 20.669 38.1634 19 38.0363 17.331C37.888 15.3099 36.9561 13.4718 35.41 12.1479C35.0358 11.831 34.471 11.8732 34.1534 12.2465C33.8357 12.6197 33.878 13.1831 34.2522 13.5C35.4383 14.507 36.1513 15.9155 36.2643 17.4577C36.3631 18.7606 36.003 20.0563 35.2618 21.1408C34.2451 20.6972 33.1579 20.507 32.0354 20.5704C31.5412 20.5986 31.167 21.0211 31.1953 21.5141C31.2235 22.007 31.64 22.3803 32.1413 22.3521C33.3203 22.2817 34.4569 22.5986 35.4312 23.2606C36.5961 24.0493 37.3727 25.2465 37.6268 26.6197C37.881 27.993 37.5845 29.3803 36.7867 30.5282C36.5043 30.9296 36.6031 31.4859 37.0126 31.7676C37.408 32.0423 37.9869 31.9296 38.2552 31.5423C39.3283 30.007 39.7236 28.1408 39.3847 26.3028C39.3822 26.2901 39.3796 26.2772 39.3771 26.2644C39.3513 26.1352 39.3244 26.0007 39.2859 25.8662C41.7286 25.993 44.0372 27.0141 45.6822 28.7113ZM38.0222 39.3239C38.2622 39.2887 38.474 39.169 38.6152 38.9789L38.6082 38.9859C38.7564 38.7958 38.8199 38.5563 38.7846 38.3239C38.714 37.838 38.2763 37.5 37.7751 37.5634C34.5911 37.993 31.633 35.7817 31.1953 32.6127C31.167 32.3732 31.0399 32.162 30.8493 32.0211C30.6587 31.8803 30.4257 31.8169 30.1927 31.8521C29.9527 31.8873 29.7409 32.007 29.5997 32.1972C29.4585 32.3873 29.395 32.6197 29.4303 32.8592C29.9527 36.5845 33.1932 39.3944 36.9773 39.3944C37.3232 39.3944 37.6762 39.3732 38.0222 39.3239Z" fill="#FFC0B5"/>
</g>
<defs>
<clipPath id="clip0_566_1251">
<rect width="48" height="47" fill="white" transform="translate(1 2)"/>
</clipPath>
</defs>
</svg>
