<svg width="50" height="50" viewBox="0 0 50 50" fill="none" xmlns="http://www.w3.org/2000/svg">
<g clip-path="url(#clip0_566_1542)">
<g clip-path="url(#clip1_566_1542)">
<path d="M40.5647 19.8574C40.3953 17.1173 39.5482 14.6243 38.2424 12.6257C33.3082 5.08338 22.3106 7.82349 20.8071 13.3108C19.2965 7.82349 8.29883 5.08338 3.36472 12.6257C0.880009 16.4181 0.0188329 22.0043 2.43295 27.6681H7.10589L11.5035 20.8249C11.8565 20.2741 12.4918 19.9563 13.1412 19.9916C13.7977 20.0269 14.3835 20.4224 14.673 21.0085L18.7529 29.363L24.4424 17.0678C24.7106 16.4958 25.2541 16.1003 25.8824 16.0226C26.5106 15.945 27.1318 16.2063 27.5271 16.7077L31.2118 21.3969C33.0894 20.2034 35.3129 19.5043 37.7059 19.5043C38.6941 19.5043 39.6471 19.6314 40.5647 19.8574V19.8574Z" fill="#DFDFDF"/>
<path d="M28.4519 23.784L26.4896 21.291L20.4402 34.3631C20.1437 34.9986 19.5084 35.4082 18.8096 35.4153H18.7884C18.0966 35.4153 17.4613 35.0198 17.1507 34.3913L12.8166 25.5071L9.6331 30.4647C9.30134 30.9873 8.72251 31.2981 8.10134 31.2981H4.45898C7.4731 35.6342 12.6684 39.7938 20.8002 42.9859C23.6449 41.8701 26.1225 40.6342 28.2755 39.3136C26.5743 37.2232 25.5507 34.5537 25.5507 31.6441C25.5507 28.7345 26.6449 25.8955 28.4519 23.7698V23.784Z" fill="#DFDFDF"/>
<path d="M40.5649 19.8575C39.6472 19.6386 38.6943 19.5044 37.706 19.5044C35.3131 19.5044 33.0896 20.2035 31.2119 21.397L37.9813 30.0129C40.0354 26.5595 40.7625 23.0425 40.5649 19.8575Z" fill="#DFDFDF"/>
<path d="M35.7649 33.0919L28.452 23.791C26.6449 25.9097 25.5508 28.6568 25.5508 31.6653C25.5508 34.6738 26.5743 37.2444 28.2755 39.3348C31.4378 37.3998 33.9014 35.2882 35.7649 33.0989V33.0919Z" fill="#DFDFDF"/>
<path d="M39.0259 42.9647C44.5344 42.9647 49 38.497 49 32.9859C49 27.4747 44.5344 23.0071 39.0259 23.0071C33.5173 23.0071 29.0518 27.4747 29.0518 32.9859C29.0518 38.497 33.5173 42.9647 39.0259 42.9647Z" fill="#C9C9C9"/>
<path d="M47.0871 32.2727H45.2588C44.8651 32.2727 44.5459 32.5903 44.5459 32.9821C44.5459 33.3739 44.8651 33.6915 45.2588 33.6915H47.0871C47.4808 33.6915 47.8 33.3739 47.8 32.9821C47.8 32.5903 47.4808 32.2727 47.0871 32.2727Z" fill="white"/>
<path d="M43.9036 36.2485L41.7859 34.1299C41.9342 33.7768 42.0118 33.3884 42.0118 32.9858C42.0118 31.3333 40.6706 29.9985 39.0259 29.9985C37.3812 29.9985 36.04 31.3333 36.04 32.9858C36.04 34.6384 37.3742 35.9731 39.0259 35.9731C39.4283 35.9731 39.8165 35.8884 40.1695 35.7471L42.2871 37.8658C42.7318 38.3107 43.4589 38.3107 43.9036 37.8658C44.3483 37.4209 44.3483 36.6934 43.9036 36.2485Z" fill="white"/>
<path d="M38.3198 24.921V26.7501C38.3198 27.144 38.6374 27.4634 39.0292 27.4634C39.421 27.4634 39.7386 27.144 39.7386 26.7501V24.921C39.7386 24.5271 39.421 24.2077 39.0292 24.2077C38.6374 24.2077 38.3198 24.5271 38.3198 24.921Z" fill="white"/>
<path d="M30.9715 33.6921H32.7998C33.1935 33.6921 33.5127 33.3745 33.5127 32.9827C33.5127 32.5909 33.1935 32.2733 32.7998 32.2733H30.9715C30.5778 32.2733 30.2586 32.5909 30.2586 32.9827C30.2586 33.3745 30.5778 33.6921 30.9715 33.6921Z" fill="white"/>
<path d="M39.7388 41.0438V39.2147C39.7388 38.8208 39.4212 38.5015 39.0294 38.5015C38.6376 38.5015 38.3199 38.8208 38.3199 39.2147V41.0438C38.3199 41.4378 38.6376 41.7571 39.0294 41.7571C39.4212 41.7571 39.7388 41.4378 39.7388 41.0438Z" fill="white"/>
</g>
</g>
<defs>
<clipPath id="clip0_566_1542">
<rect width="50" height="50" fill="white"/>
</clipPath>
<clipPath id="clip1_566_1542">
<rect width="48" height="35" fill="white" transform="translate(1 8)"/>
</clipPath>
</defs>
</svg>
