<svg width="40" height="40" viewBox="0 0 40 40" fill="none" xmlns="http://www.w3.org/2000/svg">
<path opacity="0.2" d="M6.60938 11.25H34.6406L30.5156 25.6875C30.3684 26.2115 30.0533 26.6726 29.6186 27.0001C29.1838 27.3275 28.6536 27.5032 28.1094 27.5H13.1406C12.5964 27.5032 12.0662 27.3275 11.6314 27.0001C11.1967 26.6726 10.8816 26.2115 10.7344 25.6875L6.60938 11.25Z" fill="#2F2B3D" fill-opacity="0.9"/>
<path d="M6.60938 10.25C6.05709 10.25 5.60938 10.6977 5.60938 11.25C5.60938 11.8023 6.05709 12.25 6.60938 12.25V10.25ZM34.6406 11.25L35.6021 11.5247C35.6884 11.223 35.6279 10.8983 35.439 10.6478C35.25 10.3973 34.9544 10.25 34.6406 10.25V11.25ZM30.5156 25.6875L29.5541 25.4128L29.5529 25.4171L30.5156 25.6875ZM28.1094 27.5L28.1152 26.5H28.1094V27.5ZM13.1406 27.5V26.5L13.1348 26.5L13.1406 27.5ZM10.7344 25.6875L11.6971 25.4171L11.6958 25.4126L10.7344 25.6875ZM5.07812 5.90625L6.03959 5.63133L6.03957 5.63125L5.07812 5.90625ZM3.875 5V6L3.87606 6L3.875 5ZM1.25 4C0.697715 4 0.25 4.44772 0.25 5C0.25 5.55229 0.697715 6 1.25 6V4ZM14 33.75C14 34.5784 13.3284 35.25 12.5 35.25V37.25C14.433 37.25 16 35.683 16 33.75H14ZM12.5 35.25C11.6716 35.25 11 34.5784 11 33.75H9C9 35.683 10.567 37.25 12.5 37.25V35.25ZM11 33.75C11 32.9216 11.6716 32.25 12.5 32.25V30.25C10.567 30.25 9 31.817 9 33.75H11ZM12.5 32.25C13.3284 32.25 14 32.9216 14 33.75H16C16 31.817 14.433 30.25 12.5 30.25V32.25ZM30.25 33.75C30.25 34.5784 29.5784 35.25 28.75 35.25V37.25C30.683 37.25 32.25 35.683 32.25 33.75H30.25ZM28.75 35.25C27.9216 35.25 27.25 34.5784 27.25 33.75H25.25C25.25 35.683 26.817 37.25 28.75 37.25V35.25ZM27.25 33.75C27.25 32.9216 27.9216 32.25 28.75 32.25V30.25C26.817 30.25 25.25 31.817 25.25 33.75H27.25ZM28.75 32.25C29.5784 32.25 30.25 32.9216 30.25 33.75H32.25C32.25 31.817 30.683 30.25 28.75 30.25V32.25ZM6.60938 12.25H34.6406V10.25H6.60938V12.25ZM33.6791 10.9753L29.5541 25.4128L31.4771 25.9622L35.6021 11.5247L33.6791 10.9753ZM29.5529 25.4171C29.4649 25.7301 29.2766 26.0057 29.0169 26.2013L30.2202 27.7988C30.8299 27.3396 31.2719 26.6928 31.4784 25.9579L29.5529 25.4171ZM29.0169 26.2013C28.7572 26.397 28.4404 26.5019 28.1152 26.5L28.1036 28.5C28.8669 28.5044 29.6105 28.2581 30.2202 27.7988L29.0169 26.2013ZM28.1094 26.5H13.1406V28.5H28.1094V26.5ZM13.1348 26.5C12.8096 26.5019 12.4928 26.397 12.2331 26.2013L11.0298 27.7988C11.6395 28.2581 12.3831 28.5044 13.1464 28.5L13.1348 26.5ZM12.2331 26.2013C11.9734 26.0057 11.7851 25.7301 11.6971 25.4171L9.77163 25.9579C9.97805 26.6928 10.4201 27.3396 11.0298 27.7988L12.2331 26.2013ZM11.6958 25.4126L6.03959 5.63133L4.11666 6.18117L9.77291 25.9624L11.6958 25.4126ZM6.03957 5.63125C5.90503 5.16087 5.62084 4.74716 5.23005 4.4528L4.02673 6.05031C4.07015 6.08302 4.10173 6.12899 4.11668 6.18125L6.03957 5.63125ZM5.23005 4.4528C4.83927 4.15845 4.36319 3.99948 3.87394 4L3.87606 6C3.93042 5.99994 3.98331 6.01761 4.02673 6.05031L5.23005 4.4528ZM3.875 4H1.25V6H3.875V4Z" fill="#2F2B3D" fill-opacity="0.9"/>
</svg>
