<svg width="8" height="8" viewBox="0 0 8 8" fill="none" xmlns="http://www.w3.org/2000/svg">
<g id="Icon" clip-path="url(#clip0_4_95170)">
<path id="Vector" d="M2.33317 1.11329C2.96465 0.748726 3.69825 0.60128 4.42155 0.693547C5.14485 0.785813 5.81794 1.1127 6.33768 1.62412C6.85742 2.13553 7.19513 2.80326 7.29906 3.52498C7.40299 4.24669 7.2674 4.98258 6.91308 5.61986C6.55876 6.25714 6.00525 6.76067 5.33737 7.05327C4.66949 7.34587 3.9241 7.4114 3.21541 7.23983C2.50673 7.06825 1.87385 6.66903 1.41376 6.10335C0.953676 5.53767 0.691767 4.83673 0.668171 4.10796L0.666504 3.99996L0.668171 3.89196C0.686558 3.32544 0.849103 2.77298 1.14044 2.28677C1.43178 1.80056 1.84229 1.39668 2.33317 1.11329Z" fill="#2F2B3D" fill-opacity="0.7"/>
</g>
<defs>
<clipPath id="clip0_4_95170">
<rect width="8" height="8" fill="white"/>
</clipPath>
</defs>
</svg>
