<svg width="20" height="20" viewBox="0 0 20 20" fill="none" xmlns="http://www.w3.org/2000/svg">
<g id="color-swatch">
<path id="Path" d="M15.8335 2.5H12.5002C11.5797 2.5 10.8335 3.24619 10.8335 4.16667V14.1667C10.8335 16.0076 12.3259 17.5 14.1668 17.5C16.0078 17.5 17.5002 16.0076 17.5002 14.1667V4.16667C17.5002 3.24619 16.754 2.5 15.8335 2.5" stroke="#7367F0" stroke-width="1.5" stroke-linecap="round" stroke-linejoin="round"/>
<path id="Path_2" d="M10.8333 6.12498L9.16664 4.45831C8.51581 3.80768 7.46081 3.80768 6.80998 4.45831L4.45331 6.81498C3.80267 7.46581 3.80267 8.52081 4.45331 9.17165L11.9533 16.6716" stroke="#7367F0" stroke-width="1.5" stroke-linecap="round" stroke-linejoin="round"/>
<path id="Path_3" d="M6.08333 10.8334H4.16667C3.24619 10.8334 2.5 11.5796 2.5 12.5V15.8334C2.5 16.7538 3.24619 17.5 4.16667 17.5H14.1667" stroke="#7367F0" stroke-width="1.5" stroke-linecap="round" stroke-linejoin="round"/>
<path id="Path_4" d="M14.1667 14.1667V14.175" stroke="#7367F0" stroke-width="1.5" stroke-linecap="round" stroke-linejoin="round"/>
</g>
</svg>
