<svg width="20" height="20" viewBox="0 0 20 20" fill="none" xmlns="http://www.w3.org/2000/svg">
<g id="currency-dollar">
<path id="Path" d="M13.9168 6.66667C13.5775 5.70382 12.6868 5.04404 11.6668 5H8.3335C6.95278 5 5.8335 6.11929 5.8335 7.5C5.8335 8.88071 6.95278 10 8.3335 10H11.6668C13.0475 10 14.1668 11.1193 14.1668 12.5C14.1668 13.8807 13.0475 15 11.6668 15H8.3335C7.31355 14.956 6.42285 14.2962 6.0835 13.3333" stroke="#7367F0" stroke-width="1.5" stroke-linecap="round" stroke-linejoin="round"/>
<path id="Shape" d="M10.7502 2.5C10.7502 2.08579 10.4144 1.75 10.0002 1.75C9.58595 1.75 9.25016 2.08579 9.25016 2.5H10.7502ZM9.25016 5C9.25016 5.41421 9.58595 5.75 10.0002 5.75C10.4144 5.75 10.7502 5.41421 10.7502 5H9.25016ZM10.7502 15C10.7502 14.5858 10.4144 14.25 10.0002 14.25C9.58595 14.25 9.25016 14.5858 9.25016 15H10.7502ZM9.25016 17.5C9.25016 17.9142 9.58595 18.25 10.0002 18.25C10.4144 18.25 10.7502 17.9142 10.7502 17.5H9.25016ZM9.25016 2.5V5H10.7502V2.5H9.25016ZM9.25016 15V17.5H10.7502V15H9.25016Z" fill="#7367F0"/>
</g>
</svg>
