<svg width="41" height="40" viewBox="0 0 41 40" fill="none" xmlns="http://www.w3.org/2000/svg">
<path opacity="0.2" d="M16.0313 28.4531L14.1407 32.2031C14.0191 32.4589 13.8122 32.6642 13.5555 32.784C13.2989 32.9038 13.0086 32.9304 12.7345 32.8594C8.90633 31.9219 5.59383 30.2969 3.18758 28.2031C3.00617 28.0431 2.87444 27.8344 2.80797 27.6018C2.74151 27.3692 2.74311 27.1224 2.81258 26.8906L8.10946 9.20313C8.16101 9.02212 8.25431 8.85573 8.38185 8.71733C8.50939 8.57893 8.66763 8.47239 8.84383 8.40626C10.3403 7.79231 11.888 7.31128 13.4688 6.96876C13.7726 6.90222 14.0903 6.94988 14.3612 7.10262C14.6321 7.25536 14.8373 7.5025 14.9376 7.79688L16.172 11.5313C18.8778 11.1562 21.6224 11.1562 24.3282 11.5313L25.5626 7.79688C25.6629 7.5025 25.8681 7.25536 26.139 7.10262C26.4099 6.94988 26.7275 6.90222 27.0313 6.96876C28.6122 7.31128 30.1598 7.79231 31.6563 8.40626C31.8325 8.47239 31.9908 8.57893 32.1183 8.71733C32.2459 8.85573 32.3392 9.02212 32.3907 9.20313L37.6876 26.8906C37.7571 27.1224 37.7587 27.3692 37.6922 27.6018C37.6257 27.8344 37.494 28.0431 37.3126 28.2031C34.9063 30.2969 31.5938 31.9219 27.7657 32.8594C27.4916 32.9304 27.2013 32.9038 26.9446 32.784C26.688 32.6642 26.4811 32.4589 26.3595 32.2031L24.4688 28.4531C23.0712 28.6497 21.6615 28.7489 20.2501 28.75C18.8387 28.7489 17.429 28.6497 16.0313 28.4531Z" fill="#2F2B3D" fill-opacity="0.9"/>
<path fill-rule="evenodd" clip-rule="evenodd" d="M17.125 22.5C17.125 23.5355 16.2855 24.375 15.25 24.375C14.2145 24.375 13.375 23.5355 13.375 22.5C13.375 21.4645 14.2145 20.625 15.25 20.625C16.2855 20.625 17.125 21.4645 17.125 22.5ZM27.125 22.5C27.125 23.5355 26.2855 24.375 25.25 24.375C24.2145 24.375 23.375 23.5355 23.375 22.5C23.375 21.4645 24.2145 20.625 25.25 20.625C26.2855 20.625 27.125 21.4645 27.125 22.5Z" fill="#2F2B3D" fill-opacity="0.9"/>
<path d="M11.8751 12.5C14.5849 11.6507 17.4104 11.229 20.2501 11.25C23.0897 11.229 25.9153 11.6507 28.6251 12.5M28.6251 27.5C25.9153 28.3493 23.0897 28.771 20.2501 28.75C17.4104 28.771 14.5849 28.3493 11.8751 27.5M24.4688 28.4531L26.3595 32.2031C26.4811 32.4589 26.688 32.6642 26.9446 32.784C27.2013 32.9038 27.4916 32.9304 27.7657 32.8594C31.5938 31.9219 34.9063 30.2969 37.3126 28.2031C37.494 28.0431 37.6257 27.8344 37.6922 27.6018C37.7587 27.3692 37.7571 27.1224 37.6876 26.8906L32.3907 9.20313C32.3392 9.02212 32.2459 8.85573 32.1183 8.71733C31.9908 8.57893 31.8325 8.47239 31.6563 8.40626C30.1598 7.79231 28.6122 7.31128 27.0313 6.96876C26.7275 6.90222 26.4099 6.94988 26.139 7.10262C25.8681 7.25536 25.6629 7.5025 25.5626 7.79688L24.3282 11.5313M16.0313 28.4531L14.1407 32.2031C14.0191 32.4589 13.8122 32.6642 13.5555 32.784C13.2989 32.9038 13.0086 32.9304 12.7345 32.8594C8.90633 31.9219 5.59383 30.2969 3.18758 28.2031C3.00617 28.0431 2.87444 27.8344 2.80797 27.6018C2.74151 27.3692 2.74311 27.1224 2.81258 26.8906L8.10946 9.20313C8.16101 9.02212 8.25431 8.85573 8.38185 8.71733C8.50939 8.57893 8.66763 8.47239 8.84383 8.40626C10.3403 7.79231 11.888 7.31128 13.4688 6.96876C13.7726 6.90222 14.0903 6.94988 14.3612 7.10262C14.6321 7.25536 14.8373 7.5025 14.9376 7.79688L16.172 11.5313" stroke="#2F2B3D" stroke-opacity="0.9" stroke-width="2" stroke-linecap="round" stroke-linejoin="round"/>
</svg>
