<svg width="58" height="58" viewBox="0 0 58 58" fill="none" xmlns="http://www.w3.org/2000/svg">
<path opacity="0.2" d="M22.8827 41.2571L20.1413 46.6946C19.9649 47.0654 19.6649 47.3632 19.2928 47.5368C18.9207 47.7105 18.4997 47.7491 18.1022 47.6462C12.5514 46.2868 7.74829 43.9305 4.25923 40.8946C3.99618 40.6625 3.80516 40.3599 3.70879 40.0226C3.61242 39.6853 3.61474 39.3275 3.71548 38.9915L11.3959 13.3446C11.4707 13.0821 11.606 12.8409 11.7909 12.6402C11.9759 12.4395 12.2053 12.285 12.4608 12.1891C14.6307 11.2989 16.8748 10.6014 19.167 10.1047C19.6075 10.0083 20.0682 10.0774 20.461 10.2988C20.8538 10.5203 21.1513 10.8787 21.2967 11.3055L23.0866 16.7204C27.01 16.1766 30.9897 16.1766 34.9131 16.7204L36.703 11.3055C36.8484 10.8787 37.1459 10.5203 37.5387 10.2988C37.9316 10.0774 38.3922 10.0083 38.8327 10.1047C41.1249 10.6014 43.369 11.2989 45.5389 12.1891C45.7944 12.285 46.0239 12.4395 46.2088 12.6402C46.3937 12.8409 46.529 13.0821 46.6038 13.3446L54.2842 38.9915C54.385 39.3275 54.3873 39.6853 54.2909 40.0226C54.1945 40.3599 54.0035 40.6625 53.7405 40.8946C50.2514 43.9305 45.4483 46.2868 39.8975 47.6462C39.5 47.7491 39.0791 47.7105 38.707 47.5368C38.3349 47.3632 38.0348 47.0654 37.8585 46.6946L35.117 41.2571C33.0904 41.5421 31.0464 41.6859 28.9999 41.6876C26.9533 41.6859 24.9093 41.5421 22.8827 41.2571Z" fill="#E1DEF5" fill-opacity="0.7"/>
<path fill-rule="evenodd" clip-rule="evenodd" d="M24.4688 32.625C24.4688 34.1265 23.2515 35.3438 21.75 35.3438C20.2485 35.3438 19.0312 34.1265 19.0312 32.625C19.0312 31.1235 20.2485 29.9062 21.75 29.9062C23.2515 29.9062 24.4688 31.1235 24.4688 32.625ZM38.9688 32.625C38.9688 34.1265 37.7515 35.3438 36.25 35.3438C34.7485 35.3438 33.5312 34.1265 33.5312 32.625C33.5312 31.1235 34.7485 29.9062 36.25 29.9062C37.7515 29.9062 38.9688 31.1235 38.9688 32.625Z" fill="#E1DEF5" fill-opacity="0.7"/>
<path d="M16.8561 18.1251C20.7853 16.8936 24.8824 16.2821 28.9999 16.3126C33.1174 16.2821 37.2144 16.8936 41.1436 18.1251M41.1436 39.8751C37.2144 41.1065 33.1174 41.718 28.9999 41.6876C24.8824 41.718 20.7853 41.1065 16.8561 39.8751M35.117 41.2571L37.8584 46.6946C38.0348 47.0654 38.3349 47.3632 38.707 47.5368C39.0791 47.7105 39.5 47.7491 39.8975 47.6462C45.4483 46.2868 50.2514 43.9305 53.7405 40.8946C54.0035 40.6625 54.1945 40.3599 54.2909 40.0226C54.3873 39.6853 54.385 39.3275 54.2842 38.9915L46.6038 13.3446C46.529 13.0821 46.3937 12.8409 46.2088 12.6402C46.0239 12.4395 45.7944 12.285 45.5389 12.1891C43.369 11.2989 41.1249 10.6014 38.8327 10.1047C38.3922 10.0083 37.9316 10.0774 37.5387 10.2988C37.1459 10.5203 36.8484 10.8787 36.703 11.3055L34.9131 16.7204M22.8827 41.2571L20.1413 46.6946C19.9649 47.0654 19.6649 47.3632 19.2928 47.5368C18.9207 47.7105 18.4997 47.7491 18.1022 47.6462C12.5514 46.2868 7.74829 43.9305 4.25923 40.8946C3.99618 40.6625 3.80516 40.3599 3.70879 40.0226C3.61242 39.6853 3.61474 39.3275 3.71548 38.9915L11.3959 13.3446C11.4707 13.0821 11.606 12.8409 11.7909 12.6402C11.9759 12.4395 12.2053 12.285 12.4608 12.1891C14.6307 11.2989 16.8748 10.6014 19.167 10.1047C19.6075 10.0083 20.0682 10.0774 20.461 10.2988C20.8538 10.5203 21.1513 10.8787 21.2967 11.3055L23.0866 16.7204" stroke="#E1DEF5" stroke-opacity="0.7" stroke-width="2" stroke-linecap="round" stroke-linejoin="round"/>
</svg>
