<svg width="41" height="40" viewBox="0 0 41 40" fill="none" xmlns="http://www.w3.org/2000/svg">
<path fill-rule="evenodd" clip-rule="evenodd" d="M22.9744 6.12752C22.6916 6.41355 22.4218 6.90893 22.1938 7.59484C21.9711 8.26501 21.8162 9.03037 21.7107 9.77031C21.6213 10.3967 21.5697 10.9874 21.5399 11.4603C22.0127 11.4305 22.6035 11.3788 23.2298 11.2895C23.9698 11.1839 24.7351 11.0291 25.4053 10.8063C26.0912 10.5784 26.5866 10.3086 26.8726 10.0258C27.3886 9.50901 27.6784 8.80859 27.6784 8.07828C27.6784 7.34721 27.388 6.64608 26.871 6.12914C26.3541 5.61219 25.6529 5.32178 24.9219 5.32178C24.1916 5.32178 23.4911 5.61159 22.9744 6.12752ZM27.5781 10.7345L28.2852 11.4416C29.1772 10.5496 29.6784 9.33979 29.6784 8.07828C29.6784 6.81678 29.1772 5.60694 28.2852 4.71493C27.3932 3.82291 26.1834 3.32178 24.9219 3.32178C23.6604 3.32178 22.4505 3.82291 21.5585 4.71492L21.5554 4.71805C21.0928 5.18478 20.7539 5.78808 20.5 6.41009C20.2461 5.78808 19.9071 5.18478 19.4445 4.71805L19.4445 4.71804L19.4414 4.71493C18.5494 3.82291 17.3395 3.32178 16.078 3.32178C14.8165 3.32178 13.6067 3.82291 12.7147 4.71493C11.8227 5.60694 11.3215 6.81678 11.3215 8.07828C11.3215 9.33979 11.8227 10.5496 12.7147 11.4416L13.4218 10.7345L12.7178 11.4447C12.7366 11.4634 12.7557 11.4819 12.775 11.5002H6.75C5.50736 11.5002 4.5 12.5075 4.5 13.7502V18.7502C4.5 19.9928 5.50736 21.0002 6.75 21.0002H7V31.2502C7 31.8469 7.23705 32.4192 7.65901 32.8411C8.08097 33.2631 8.65326 33.5002 9.25 33.5002H20.5H31.75C32.3467 33.5002 32.919 33.2631 33.341 32.8411C33.763 32.4192 34 31.8469 34 31.2502V21.0002H34.25C35.4926 21.0002 36.5 19.9928 36.5 18.7502V13.7502C36.5 12.5075 35.4926 11.5002 34.25 11.5002H28.2249C28.2442 11.4819 28.2633 11.4634 28.2821 11.4447L27.5781 10.7345ZM6.75 13.5002C6.61193 13.5002 6.5 13.6121 6.5 13.7502V18.7502C6.5 18.8882 6.61193 19.0002 6.75 19.0002H8H19.5V13.5002H6.75ZM21.5 13.5002V19.0002H33H34.25C34.3881 19.0002 34.5 18.8882 34.5 18.7502V13.7502C34.5 13.6121 34.3881 13.5002 34.25 13.5002H21.5ZM19.5 21.0002H9V31.2502C9 31.3165 9.02634 31.38 9.07322 31.4269C9.12011 31.4738 9.18369 31.5002 9.25 31.5002H19.5V21.0002ZM21.5 31.5002V21.0002H32V31.2502C32 31.3165 31.9737 31.38 31.9268 31.4269C31.8799 31.4738 31.8163 31.5002 31.75 31.5002H21.5ZM15.5946 10.8063C14.9087 10.5784 14.4133 10.3086 14.1273 10.0258C13.6113 9.50901 13.3215 8.80859 13.3215 8.07828C13.3215 7.34721 13.6119 6.64608 14.1289 6.12914C14.6458 5.61219 15.347 5.32178 16.078 5.32178C16.8083 5.32178 17.5088 5.61159 18.0256 6.12752C18.3083 6.41355 18.5781 6.90893 18.8061 7.59484C19.0288 8.26501 19.1837 9.03037 19.2892 9.77031C19.3786 10.3967 19.4303 10.9874 19.46 11.4603C18.9872 11.4305 18.3964 11.3788 17.7701 11.2895C17.0301 11.1839 16.2648 11.0291 15.5946 10.8063Z" fill="#2F2B3D" fill-opacity="0.9"/>
<path opacity="0.2" d="M33 20V31.25C33 31.5815 32.8683 31.8995 32.6339 32.1339C32.3995 32.3683 32.0815 32.5 31.75 32.5H9.25C8.91848 32.5 8.60054 32.3683 8.36612 32.1339C8.1317 31.8995 8 31.5815 8 31.25V20H33Z" fill="#2F2B3D" fill-opacity="0.9"/>
</svg>
