<svg width="41" height="40" viewBox="0 0 41 40" fill="none" xmlns="http://www.w3.org/2000/svg">
<path opacity="0.2" d="M24.25 33.75V23.75H16.75V33.75H6.75002V18.0468C6.7491 17.8733 6.78481 17.7014 6.85482 17.5426C6.92482 17.3837 7.02754 17.2414 7.15627 17.125L19.6563 5.76559C19.8841 5.55587 20.1825 5.43945 20.4922 5.43945C20.8019 5.43945 21.1003 5.55587 21.3281 5.76559L33.8438 17.125C33.9696 17.2438 34.0703 17.3865 34.1401 17.5448C34.2098 17.7032 34.2472 17.8739 34.25 18.0468V33.75H24.25Z" fill="#2F2B3D" fill-opacity="0.9"/>
<path d="M34.25 33.75V18.0468C34.2472 17.8739 34.2098 17.7032 34.14 17.5448C34.0703 17.3865 33.9695 17.2438 33.8437 17.125L21.3281 5.76559C21.1003 5.55587 20.8019 5.43945 20.4922 5.43945C20.1825 5.43945 19.8841 5.55587 19.6562 5.76559L7.15625 17.125C7.02752 17.2414 6.9248 17.3837 6.8548 17.5426C6.7848 17.7014 6.74909 17.8733 6.75 18.0468V33.75M3 33.75H38M24.25 33.75V25C24.25 24.6684 24.1183 24.3505 23.8839 24.1161C23.6495 23.8817 23.3315 23.75 23 23.75H18C17.6685 23.75 17.3505 23.8817 17.1161 24.1161C16.8817 24.3505 16.75 24.6684 16.75 25V33.75" stroke="#2F2B3D" stroke-opacity="0.9" stroke-width="2" stroke-linecap="round" stroke-linejoin="round"/>
</svg>
