<svg width="41" height="41" viewBox="0 0 41 41" fill="none" xmlns="http://www.w3.org/2000/svg">
<path opacity="0.2" d="M35.7949 8.96875H5.20508C4.45324 8.96875 3.84375 9.57824 3.84375 10.3301V30.6699C3.84375 31.4218 4.45324 32.0312 5.20508 32.0312H35.7949C36.5468 32.0312 37.1562 31.4218 37.1562 30.6699V10.3301C37.1562 9.57824 36.5468 8.96875 35.7949 8.96875Z" fill="#2F2B3D" fill-opacity="0.9"/>
<path fill-rule="evenodd" clip-rule="evenodd" d="M4.84375 10.3301C4.84375 10.1305 5.00552 9.96875 5.20508 9.96875H35.7949C35.9945 9.96875 36.1562 10.1305 36.1562 10.3301V30.6699C36.1562 30.8695 35.9945 31.0312 35.7949 31.0312H5.20508C5.00552 31.0312 4.84375 30.8695 4.84375 30.6699V10.3301ZM5.20508 7.96875C3.90095 7.96875 2.84375 9.02595 2.84375 10.3301V30.6699C2.84375 31.974 3.90095 33.0312 5.20508 33.0312H35.7949C37.099 33.0312 38.1562 31.974 38.1562 30.6699V10.3301C38.1562 9.02595 37.099 7.96875 35.7949 7.96875H5.20508ZM8.96875 14.375C8.41647 14.375 7.96875 14.8227 7.96875 15.375C7.96875 15.9273 8.41647 16.375 8.96875 16.375H32.0312C32.5835 16.375 33.0312 15.9273 33.0312 15.375C33.0312 14.8227 32.5835 14.375 32.0312 14.375H8.96875ZM8.96875 19.5C8.41647 19.5 7.96875 19.9477 7.96875 20.5C7.96875 21.0523 8.41647 21.5 8.96875 21.5H32.0312C32.5835 21.5 33.0312 21.0523 33.0312 20.5C33.0312 19.9477 32.5835 19.5 32.0312 19.5H8.96875ZM7.96875 25.625C7.96875 25.0727 8.41647 24.625 8.96875 24.625H10.25C10.8023 24.625 11.25 25.0727 11.25 25.625C11.25 26.1773 10.8023 26.625 10.25 26.625H8.96875C8.41647 26.625 7.96875 26.1773 7.96875 25.625ZM15.375 24.625C14.8227 24.625 14.375 25.0727 14.375 25.625C14.375 26.1773 14.8227 26.625 15.375 26.625H25.625C26.1773 26.625 26.625 26.1773 26.625 25.625C26.625 25.0727 26.1773 24.625 25.625 24.625H15.375ZM29.75 25.625C29.75 25.0727 30.1977 24.625 30.75 24.625H32.0312C32.5835 24.625 33.0312 25.0727 33.0312 25.625C33.0312 26.1773 32.5835 26.625 32.0312 26.625H30.75C30.1977 26.625 29.75 26.1773 29.75 25.625Z" fill="#2F2B3D" fill-opacity="0.9"/>
</svg>
