<svg width="41" height="40" viewBox="0 0 41 40" fill="none" xmlns="http://www.w3.org/2000/svg">
<path opacity="0.2" d="M12.5468 26.0938C11.0586 24.9367 9.85336 23.4561 9.02227 21.7642C8.19117 20.0722 7.75606 18.2133 7.74989 16.3282C7.71864 9.54697 13.1718 3.90634 19.953 3.75009C22.5775 3.68788 25.1549 4.45354 27.3198 5.93848C29.4847 7.42342 31.1271 9.55226 32.0141 12.0231C32.9011 14.4939 32.9877 17.1813 32.2616 19.7041C31.5354 22.2269 30.0335 24.457 27.9686 26.0782C27.5125 26.4308 27.1431 26.883 26.8885 27.4002C26.6339 27.9175 26.501 28.4861 26.4999 29.0626V30.0001C26.4999 30.3316 26.3682 30.6496 26.1338 30.884C25.8994 31.1184 25.5814 31.2501 25.2499 31.2501H15.2499C14.9184 31.2501 14.6004 31.1184 14.366 30.884C14.1316 30.6496 13.9999 30.3316 13.9999 30.0001V29.0626C13.996 28.4904 13.8633 27.9265 13.6118 27.4126C13.3602 26.8986 12.9962 26.4479 12.5468 26.0938Z" fill="#2F2B3D" fill-opacity="0.9"/>
<path fill-rule="evenodd" clip-rule="evenodd" d="M26.7542 6.76313C24.7625 5.39698 22.3912 4.69258 19.9767 4.74981L19.976 4.74983C19.7335 4.75542 19.4927 4.76865 19.254 4.7893L19.93 2.75036C22.7642 2.68331 25.5476 3.51022 27.8855 5.11383C30.2235 6.71757 31.9973 9.01672 32.9553 11.6852C33.9133 14.3537 34.0068 17.2561 33.2226 19.9807C32.4383 22.7053 30.8162 25.1138 28.5862 26.8647L28.5802 26.8694L28.5802 26.8694C28.2447 27.1287 27.973 27.4613 27.7857 27.8418C27.5986 28.222 27.5008 28.6399 27.4999 29.0636L27.4999 29.0645L27.4999 30.0001C27.4999 30.5968 27.2628 31.1691 26.8409 31.5911C26.4189 32.013 25.8466 32.2501 25.2499 32.2501H15.2499C14.6532 32.2501 14.0809 32.013 13.6589 31.5911C13.2369 31.1691 12.9999 30.5968 12.9999 30.0001V29.0663C12.9965 28.6453 12.8987 28.2304 12.7136 27.8522C12.5285 27.4739 12.2607 27.1421 11.9302 26.8812L12.6056 24.844C12.7854 25.003 12.9705 25.1566 13.1606 25.3044L12.5468 26.0938L13.1656 25.3083C13.7329 25.7553 14.1924 26.3242 14.51 26.9729C14.8275 27.6216 14.9949 28.3335 14.9999 29.0558L14.9999 29.0626L14.9999 30.0001C14.9999 30.0664 15.0262 30.13 15.0731 30.1769C15.12 30.2238 15.1836 30.2501 15.2499 30.2501H25.2499C25.3162 30.2501 25.3798 30.2238 25.4267 30.1769C25.4735 30.13 25.4999 30.0664 25.4999 30.0001V29.0626L25.4999 29.0607C25.5013 28.3317 25.6694 27.6127 25.9913 26.9587C26.3125 26.3058 26.7786 25.735 27.3539 25.2895C29.2521 23.7982 30.6329 21.7473 31.3006 19.4275C31.9686 17.1065 31.889 14.6341 31.0729 12.361C30.2569 10.0878 28.7459 8.12927 26.7542 6.76313ZM12.6055 24.844L12.6056 24.844L19.254 4.7893L19.2534 4.78935L19.9293 2.75038C12.6002 2.91961 6.71651 9.00981 6.7499 16.3322C6.75667 18.3687 7.2268 20.3771 8.1247 22.205C9.02219 24.0322 10.3235 25.6312 11.9302 26.8812L12.6055 24.844ZM12.6055 24.844C11.4909 23.8584 10.5778 22.6629 9.91983 21.3233C9.15564 19.7675 8.75556 18.0582 8.74989 16.3249L8.74988 16.3236C8.72225 10.327 13.3596 5.29941 19.2534 4.78935L12.6055 24.844ZM13 36.2501C13 35.6978 13.4477 35.2501 14 35.2501H26.5C27.0523 35.2501 27.5 35.6978 27.5 36.2501C27.5 36.8024 27.0523 37.2501 26.5 37.2501H14C13.4477 37.2501 13 36.8024 13 36.2501ZM21.6828 7.88919C21.1382 7.79688 20.622 8.16347 20.5297 8.70799C20.4374 9.25251 20.804 9.76875 21.3485 9.86106C22.6721 10.0854 23.8935 10.7151 24.844 11.6632C25.7945 12.6113 26.4274 13.8311 26.6551 15.1541C26.7488 15.6984 27.266 16.0637 27.8103 15.97C28.3546 15.8763 28.7198 15.3591 28.6261 14.8148C28.3281 13.0837 27.5001 11.4877 26.2564 10.2472C25.0127 9.00669 23.4147 8.18277 21.6828 7.88919Z" fill="#2F2B3D" fill-opacity="0.9"/>
</svg>
