<svg width="58" height="58" viewBox="0 0 58 58" fill="none" xmlns="http://www.w3.org/2000/svg">
<path opacity="0.2" d="M17.8307 37.8359C15.6729 36.1581 13.9252 34.0112 12.7201 31.5579C11.5151 29.1045 10.8841 26.4091 10.8752 23.6757C10.8299 13.8429 18.7369 5.66403 28.5697 5.43747C32.3752 5.34725 36.1125 6.45746 39.2516 8.61062C42.3907 10.7638 44.7722 13.8506 46.0583 17.4333C47.3445 21.016 47.47 24.9127 46.4171 28.5707C45.3642 32.2288 43.1864 35.4625 40.1924 37.8132C39.531 38.3245 38.9953 38.9802 38.6262 39.7302C38.257 40.4802 38.0643 41.3047 38.0627 42.1406V43.5C38.0627 43.9807 37.8717 44.4417 37.5318 44.7816C37.1919 45.1215 36.7309 45.3125 36.2502 45.3125H21.7502C21.2695 45.3125 20.8085 45.1215 20.4686 44.7816C20.1287 44.4417 19.9377 43.9807 19.9377 43.5V42.1406C19.932 41.3109 19.7397 40.4932 19.3749 39.748C19.0102 39.0028 18.4824 38.3493 17.8307 37.8359Z" fill="#2F2B3D" fill-opacity="0.7"/>
<path fill-rule="evenodd" clip-rule="evenodd" d="M38.6855 9.43527C35.7196 7.4009 32.1885 6.35195 28.5929 6.43719L28.5923 6.4372C28.3512 6.44275 28.1114 6.45338 27.8728 6.46896L28.5462 4.43773C32.5614 4.34269 36.5047 5.51414 39.8168 7.78597C43.129 10.0579 45.6419 13.3151 46.999 17.0954C48.3561 20.8758 48.4886 24.9875 47.3776 28.8473C46.2666 32.7072 43.9686 36.1193 40.8094 38.5998L40.8035 38.6045L40.8035 38.6044C40.2627 39.0224 39.8247 39.5585 39.5229 40.1717C39.2212 40.7847 39.0637 41.4585 39.0622 42.1416V42.1425V43.5C39.0622 44.2459 38.7659 44.9613 38.2384 45.4887C37.711 46.0162 36.9956 46.3125 36.2497 46.3125H21.7497C21.0038 46.3125 20.2884 46.0162 19.761 45.4887C19.2335 44.9613 18.9372 44.2459 18.9372 43.5V42.1441C18.9321 41.4657 18.7746 40.7971 18.4763 40.1877C18.1779 39.5781 17.7463 39.0434 17.2135 38.6231L17.8863 36.5936C18.0688 36.7483 18.2547 36.8993 18.444 37.0465L17.8301 37.836L18.449 37.0504C19.2186 37.6567 19.8419 38.4284 20.2726 39.3084C20.7034 40.1884 20.9305 41.154 20.9372 42.1338L20.9372 42.1406L20.9372 43.5C20.9372 43.7155 21.0228 43.9221 21.1752 44.0745C21.3276 44.2269 21.5342 44.3125 21.7497 44.3125H36.2497C36.4652 44.3125 36.6719 44.2269 36.8242 44.0745C36.9766 43.9221 37.0622 43.7155 37.0622 43.5V42.1406V42.1387C37.0641 41.1503 37.292 40.1754 37.7284 39.2886C38.1643 38.4029 38.7967 37.6285 39.5773 37.0244C42.4046 34.8035 44.4612 31.7492 45.4557 28.2941C46.4505 24.8379 46.3318 21.1562 45.1166 17.7712C43.9014 14.3862 41.6513 11.4696 38.6855 9.43527ZM17.8863 36.5936L17.8863 36.5936L27.8728 6.46896L27.8722 6.469L28.5455 4.43775C18.1648 4.67729 9.82726 13.3058 9.87471 23.6797C9.88426 26.5645 10.5502 29.4094 11.8221 31.9987C13.0935 34.5872 14.9372 36.8525 17.2135 38.6231L17.8863 36.5936ZM17.8863 36.5936C16.1038 35.0827 14.6497 33.2189 13.6172 31.117C12.479 28.7998 11.8832 26.254 11.8747 23.6725L11.8747 23.6711C11.833 14.6214 18.9244 7.05389 27.8722 6.469L17.8863 36.5936ZM18.9374 52.5625C18.9374 52.0102 19.3851 51.5625 19.9374 51.5625H38.0624C38.6147 51.5625 39.0624 52.0102 39.0624 52.5625C39.0624 53.1148 38.6147 53.5625 38.0624 53.5625H19.9374C19.3851 53.5625 18.9374 53.1148 18.9374 52.5625ZM31.0022 11.8828C30.4576 11.7905 29.9414 12.1571 29.8491 12.7016C29.7568 13.2461 30.1234 13.7624 30.6679 13.8547C32.679 14.1956 34.5348 15.1524 35.979 16.5929C37.4232 18.0334 38.3847 19.8867 38.7308 21.897C38.8245 22.4413 39.3416 22.8066 39.8859 22.7129C40.4302 22.6192 40.7955 22.102 40.7018 21.5577C40.2855 19.1394 39.1288 16.9098 37.3914 15.1769C35.654 13.4439 33.4216 12.293 31.0022 11.8828Z" fill="#2F2B3D" fill-opacity="0.7"/>
</svg>
