<svg width="41" height="41" viewBox="0 0 41 41" fill="none" xmlns="http://www.w3.org/2000/svg">
<path opacity="0.2" d="M20.7441 13.3381C19.9978 11.6672 18.6665 10.3268 17.0006 9.56924C15.3348 8.81173 13.4495 8.68939 11.6998 9.22526C9.95003 9.76113 8.45657 10.9182 7.50065 12.4787C6.54472 14.0391 6.19228 15.8952 6.50971 17.6974C6.74905 19.0297 7.33664 20.275 8.21283 21.3068C9.34006 20.5501 10.6677 20.1475 12.0253 20.1506C12.7861 20.1467 13.5419 20.2735 14.2597 20.5256C14.6975 18.9012 15.5132 17.4034 16.6401 16.1543C17.767 14.9052 19.1732 13.9402 20.7441 13.3381Z" fill="#2F2B3D" fill-opacity="0.9"/>
<path d="M13.9004 23.2754C13.9004 21.174 14.5235 19.1197 15.691 17.3725C16.8585 15.6252 18.5179 14.2634 20.4594 13.4592C22.4008 12.655 24.5372 12.4446 26.5982 12.8546C28.6593 13.2645 30.5525 14.2765 32.0384 15.7624C33.5243 17.2483 34.5363 19.1415 34.9462 21.2026C35.3562 23.2636 35.1458 25.3999 34.3416 27.3414C33.5374 29.2829 32.1756 30.9423 30.4283 32.1098C28.6811 33.2772 26.6268 33.9004 24.5254 33.9004H12.0254C10.202 33.9004 8.45334 33.1761 7.16403 31.8868C5.87472 30.5974 5.15039 28.8488 5.15039 27.0254C5.15039 25.202 5.87472 23.4533 7.16403 22.164C8.45334 20.8747 10.202 20.1504 12.0254 20.1504C12.7862 20.1465 13.542 20.2733 14.2598 20.5254" stroke="#2F2B3D" stroke-opacity="0.9" stroke-width="2" stroke-linecap="round" stroke-linejoin="round"/>
<path d="M12.6035 9.00977L11.9473 5.32227" stroke="#2F2B3D" stroke-opacity="0.9" stroke-width="2" stroke-linecap="round" stroke-linejoin="round"/>
<path d="M7.75977 12.1035L4.68164 9.94727" stroke="#2F2B3D" stroke-opacity="0.9" stroke-width="2" stroke-linecap="round" stroke-linejoin="round"/>
<path d="M6.50977 17.6973L2.82227 18.3535" stroke="#2F2B3D" stroke-opacity="0.9" stroke-width="2" stroke-linecap="round" stroke-linejoin="round"/>
<path d="M18.1973 10.2598L20.3535 7.18164" stroke="#2F2B3D" stroke-opacity="0.9" stroke-width="2" stroke-linecap="round" stroke-linejoin="round"/>
<path d="M8.21283 21.3068C7.33664 20.275 6.74905 19.0297 6.50971 17.6974C6.19228 15.8952 6.54472 14.0391 7.50065 12.4787C8.45657 10.9182 9.95003 9.76113 11.6998 9.22526C13.4495 8.68939 15.3348 8.81173 17.0006 9.56924C18.6665 10.3268 19.9978 11.6672 20.7441 13.3381" stroke="#2F2B3D" stroke-opacity="0.9" stroke-width="2" stroke-linecap="round" stroke-linejoin="round"/>
</svg>
