<svg width="64" height="65" viewBox="0 0 64 65" fill="none" xmlns="http://www.w3.org/2000/svg">
<path opacity="0.2" d="M52.5755 9.66926L5.97548 22.7943C5.5788 22.9027 5.22519 23.1308 4.96283 23.4475C4.70046 23.7642 4.5421 24.154 4.5093 24.564C4.47651 24.9739 4.57088 25.384 4.77956 25.7383C4.98824 26.0927 5.30109 26.3741 5.67548 26.5443L27.0755 36.6693C27.4947 36.8634 27.8313 37.2001 28.0255 37.6193L38.1505 59.0193C38.3206 59.3937 38.602 59.7065 38.9564 59.9152C39.3108 60.1239 39.7208 60.2182 40.1308 60.1854C40.5407 60.1526 40.9306 59.9943 41.2472 59.7319C41.5639 59.4695 41.792 59.1159 41.9005 58.7193L55.0255 12.1193C55.1249 11.7792 55.1311 11.4186 55.0433 11.0754C54.9555 10.7321 54.777 10.4188 54.5264 10.1683C54.2759 9.91778 53.9626 9.73925 53.6193 9.65145C53.2761 9.56365 52.9155 9.5698 52.5755 9.66926V9.66926Z" fill="#7367F0"/>
<path fill-rule="evenodd" clip-rule="evenodd" d="M53.8662 8.68265C53.3509 8.55084 52.8098 8.55959 52.2991 8.70791L52.2938 8.70947L5.71078 21.8297L5.70664 21.8308C5.1133 21.9939 4.58443 22.3356 4.1918 22.8095C3.79825 23.2845 3.5607 23.8693 3.51151 24.4842C3.46232 25.0991 3.60387 25.7142 3.9169 26.2458C4.22847 26.7749 4.69486 27.1955 5.25301 27.4511L26.6468 37.5732L26.6468 37.5732L26.6543 37.5767C26.8585 37.6712 27.0225 37.8353 27.1171 38.0395L27.1171 38.0395L27.1206 38.0469L37.2426 59.4407C37.4982 59.9989 37.9189 60.4653 38.448 60.7769C38.9795 61.0899 39.5947 61.2314 40.2096 61.1822C40.8245 61.1331 41.4092 60.8955 41.8843 60.502C42.3582 60.1093 42.6999 59.5804 42.863 58.9871L42.8641 58.983L55.9843 12.4L55.9858 12.3948C56.1342 11.8841 56.1429 11.3429 56.0111 10.8276C55.8789 10.3105 55.6099 9.83858 55.2326 9.4612C54.8552 9.08382 54.3832 8.81491 53.8662 8.68265ZM52.8456 10.6318L52.5745 9.66926L52.8552 10.629C53.0231 10.5799 53.2011 10.5769 53.3706 10.6203C53.54 10.6636 53.6947 10.7517 53.8184 10.8754C53.942 10.9991 54.0302 11.1538 54.0735 11.3232C54.1169 11.4927 54.1138 11.6707 54.0647 11.8385L54.0647 11.8385L54.062 11.8482L40.937 58.4482L40.9349 58.4555C40.8807 58.6539 40.7666 58.8307 40.6083 58.9619C40.45 59.093 40.255 59.1722 40.0501 59.1886C39.8451 59.205 39.6401 59.1578 39.4629 59.0535C39.2857 58.9492 39.145 58.7927 39.0599 58.6055L39.0534 58.5916L28.9319 37.199L28.93 37.1948C28.9282 37.191 28.9264 37.1872 28.9246 37.1834L39.7316 26.3764C40.1221 25.9858 40.1221 25.3527 39.7316 24.9621C39.3411 24.5716 38.7079 24.5716 38.3174 24.9621L27.5104 35.7691C27.5065 35.7673 27.5026 35.7655 27.4988 35.7637L6.10218 25.6403L6.08823 25.6339C5.90103 25.5488 5.74461 25.4081 5.64027 25.2309C5.53593 25.0537 5.48874 24.8487 5.50514 24.6437C5.52154 24.4387 5.60072 24.2438 5.7319 24.0855C5.86308 23.9271 6.03989 23.8131 6.23823 23.7589L6.23824 23.7589L6.24561 23.7568L52.8456 10.6318Z" fill="#7367F0"/>
</svg>
