<svg width="42" height="41" viewBox="0 0 42 41" fill="none" xmlns="http://www.w3.org/2000/svg">
<path opacity="0.2" d="M34.4308 5.7496L4.57763 14.1578C4.32351 14.2273 4.09698 14.3734 3.9289 14.5763C3.76082 14.7792 3.65937 15.0289 3.63836 15.2915C3.61735 15.5541 3.67781 15.8168 3.81149 16.0439C3.94518 16.2709 4.1456 16.4512 4.38544 16.5602L18.0948 23.0465C18.3634 23.1708 18.579 23.3865 18.7034 23.6551L25.1897 37.3644C25.2987 37.6043 25.479 37.8047 25.706 37.9384C25.933 38.0721 26.1958 38.1325 26.4584 38.1115C26.721 38.0905 26.9707 37.9891 27.1736 37.821C27.3765 37.6529 27.5226 37.4264 27.5921 37.1723L36.0003 7.31914C36.064 7.10129 36.0679 6.87031 36.0117 6.65041C35.9554 6.43052 35.8411 6.2298 35.6806 6.06931C35.5201 5.90881 35.3194 5.79445 35.0995 5.7382C34.8796 5.68195 34.6486 5.68589 34.4308 5.7496Z" fill="#2F2B3D" fill-opacity="0.9"/>
<path fill-rule="evenodd" clip-rule="evenodd" d="M35.3473 4.76939C34.9554 4.66916 34.5439 4.67568 34.1555 4.78822L4.31391 13.1932L4.30968 13.1944C3.85893 13.3185 3.45717 13.5782 3.15885 13.9383C2.85959 14.2995 2.67895 14.7442 2.64154 15.2118C2.60414 15.6794 2.71178 16.1471 2.94981 16.5513C3.18634 16.953 3.54022 17.2725 3.96372 17.4669L17.6671 23.9504L17.6671 23.9504L17.6746 23.9539C17.7282 23.9787 17.7712 24.0217 17.796 24.0753L17.796 24.0753L17.7995 24.0828L24.283 37.7863C24.4775 38.2097 24.797 38.5636 25.1986 38.8001C25.6028 39.0381 26.0705 39.1458 26.5381 39.1083C27.0057 39.0709 27.4504 38.8903 27.8116 38.591C28.1717 38.2927 28.4314 37.8909 28.5555 37.4401L28.5567 37.436L36.9601 7.59985L36.9617 7.59446C37.0742 7.20601 37.0807 6.79447 36.9805 6.40259C36.8798 6.0089 36.675 5.64955 36.3877 5.3622C36.1003 5.07486 35.741 4.8701 35.3473 4.76939ZM34.7019 6.71215L34.4308 5.7496L34.7115 6.7094C34.7571 6.69604 34.8056 6.69521 34.8517 6.707C34.8978 6.7188 34.9398 6.74277 34.9735 6.77642C35.0071 6.81006 35.0311 6.85214 35.0429 6.89823C35.0547 6.94433 35.0539 6.99275 35.0405 7.03842L35.0405 7.03841L35.0377 7.04803L26.6295 36.9012L26.6295 36.9011L26.6275 36.9085C26.6122 36.9643 26.5802 37.014 26.5356 37.0509C26.4911 37.0878 26.4363 37.1101 26.3786 37.1147C26.321 37.1193 26.2633 37.1061 26.2135 37.0767C26.1636 37.0474 26.1241 37.0034 26.1001 36.9507L26.0937 36.9368L19.7131 23.451L26.4574 16.7067C26.8479 16.3162 26.8479 15.683 26.4574 15.2925C26.0669 14.902 25.4337 14.902 25.0432 15.2925L18.2989 22.0368L4.81312 15.6562L4.79917 15.6497C4.74652 15.6258 4.70253 15.5862 4.67318 15.5364C4.64383 15.4866 4.63056 15.4289 4.63517 15.3713C4.63979 15.3136 4.66206 15.2588 4.69895 15.2143C4.73585 15.1697 4.78557 15.1377 4.84136 15.1224L4.84136 15.1224L4.84874 15.1204L34.7019 6.71215Z" fill="#2F2B3D" fill-opacity="0.9"/>
</svg>
