<svg width="41" height="40" viewBox="0 0 41 40" fill="none" xmlns="http://www.w3.org/2000/svg">
<path opacity="0.2" fill-rule="evenodd" clip-rule="evenodd" d="M33.7656 23.1875L28.8594 17.2969C29.0469 20.9062 28.1562 25.1094 25.4062 29.9062L30.0938 33.6562C30.2604 33.7886 30.4581 33.8762 30.6682 33.9108C30.8782 33.9453 31.0936 33.9257 31.2939 33.8537C31.4942 33.7817 31.6728 33.6598 31.8128 33.4995C31.9527 33.3391 32.0495 33.1457 32.0938 32.9375L34.0156 24.25C34.062 24.0658 34.0634 23.8732 34.0199 23.6883C33.9764 23.5034 33.8892 23.3317 33.7656 23.1875ZM7.14061 23.2813L12.0469 17.4062C11.8594 21.0156 12.75 25.2188 15.5 30L10.8125 33.75C10.6469 33.8823 10.4503 33.9704 10.2413 34.0058C10.0322 34.0413 9.81764 34.023 9.61764 33.9527C9.41763 33.8824 9.23879 33.7623 9.09794 33.6039C8.9571 33.4454 8.85887 33.2537 8.81249 33.0469L6.89061 24.3438C6.84428 24.1596 6.8428 23.967 6.8863 23.7821C6.9298 23.5972 7.01701 23.4255 7.14061 23.2813Z" fill="#2F2B3D" fill-opacity="0.9"/>
<path fill-rule="evenodd" clip-rule="evenodd" d="M19.0868 2.31872C19.4844 1.99031 19.984 1.81055 20.4999 1.81055C21.0174 1.81055 21.5185 1.99141 21.9166 2.32172C23.4521 3.57204 26.7759 6.67263 28.6129 11.4477C29.2422 13.0835 29.6922 14.9038 29.8415 16.8978L34.6239 22.6367C34.8488 22.9011 35.0076 23.2152 35.0871 23.5532C35.166 23.8883 35.1646 24.2372 35.0832 24.5716L33.164 33.2626L33.1633 33.2657C33.0798 33.6381 32.903 33.9831 32.6495 34.2684C32.3959 34.5536 32.074 34.7696 31.714 34.8962C31.354 35.0228 30.9677 35.0557 30.5915 34.9919C30.2152 34.928 29.8614 34.7696 29.5633 34.5314L29.5628 34.531L25.1492 31.0001H15.8508L11.4372 34.531L11.4367 34.5314C11.1386 34.7696 10.7847 34.928 10.4085 34.9919C10.0323 35.0557 9.64598 35.0228 9.28597 34.8962C8.92596 34.7696 8.60406 34.5536 8.35053 34.2684C8.097 33.9831 7.92019 33.6381 7.83671 33.2657L7.83601 33.2626L5.9168 24.5716C5.83541 24.2372 5.83403 23.8883 5.91289 23.5532C5.99245 23.215 6.15141 22.9007 6.37655 22.6362L11.0662 17.0205C11.2036 14.9754 11.6625 13.1108 12.3119 11.4389C14.167 6.66274 17.5333 3.56278 19.0868 2.31872ZM27.872 17.4408C27.8612 17.3736 27.8574 17.3057 27.8603 17.2381C27.7407 15.3587 27.3236 13.6664 26.7463 12.1658C25.085 7.84765 22.0539 5.01206 20.65 3.86949L20.6401 3.86146L20.6401 3.8614C20.6008 3.82855 20.5512 3.81055 20.4999 3.81055C20.4487 3.81055 20.399 3.82855 20.3597 3.8614L20.3434 3.87475C18.9249 5.00948 15.8534 7.84484 14.1762 12.163C13.5763 13.7076 13.1489 15.4559 13.0469 17.4027C13.047 17.4384 13.0453 17.4741 13.0416 17.5098C12.8904 20.7895 13.6636 24.6279 16.0833 29.0001H24.9106C27.2972 24.5972 28.0428 20.7358 27.872 17.4408ZM33.0912 23.9216L29.826 20.0033C29.581 22.9478 28.6679 26.2039 26.7812 29.7444L30.8117 32.9689L30.812 32.9691C30.8451 32.9954 30.8843 33.013 30.926 33.02C30.9678 33.0271 31.0107 33.0235 31.0507 33.0094C31.0907 32.9953 31.1265 32.9713 31.1546 32.9396C31.1826 32.9082 31.2021 32.8702 31.2115 32.8292L31.2117 32.8282L33.1329 24.1282C33.135 24.1188 33.1372 24.1093 33.1396 24.0999C33.1469 24.0708 33.1471 24.0404 33.1403 24.0112C33.1334 23.982 33.1196 23.9549 33.1001 23.9322L33.0911 23.9216L33.0912 23.9216ZM11.1056 20.0936L7.90817 23.9224L7.89994 23.9322L7.89987 23.9322C7.88036 23.9549 7.86659 23.982 7.85972 24.0112C7.85285 24.0404 7.85309 24.0708 7.8604 24.0999C7.86277 24.1093 7.865 24.1188 7.86709 24.1282L9.78827 32.8282L9.78849 32.8292C9.79786 32.8702 9.81741 32.9082 9.84536 32.9397C9.87353 32.9713 9.90929 32.9953 9.9493 33.0094C9.9893 33.0235 10.0322 33.0271 10.074 33.02C10.1157 33.013 10.155 32.9954 10.1881 32.969L10.1883 32.9689L14.2131 29.749C12.3077 26.2443 11.3721 23.0167 11.1056 20.0936ZM17 35.0001C17 34.4478 17.4477 34.0001 18 34.0001H23C23.5523 34.0001 24 34.4478 24 35.0001C24 35.5524 23.5523 36.0001 23 36.0001H18C17.4477 36.0001 17 35.5524 17 35.0001ZM22.375 15.0001C22.375 16.0357 21.5355 16.8751 20.5 16.8751C19.4645 16.8751 18.625 16.0357 18.625 15.0001C18.625 13.9646 19.4645 13.1251 20.5 13.1251C21.5355 13.1251 22.375 13.9646 22.375 15.0001Z" fill="#2F2B3D" fill-opacity="0.9"/>
</svg>
