<svg width="41" height="40" viewBox="0 0 41 40" fill="none" xmlns="http://www.w3.org/2000/svg">
<path opacity="0.2" fill-rule="evenodd" clip-rule="evenodd" d="M15.25 17.5V15H5.25V17.5C5.25 18.8261 5.77678 20.0979 6.71447 21.0355C7.65215 21.9732 8.92392 22.5 10.25 22.5C11.5761 22.5 12.8479 21.9732 13.7855 21.0355C14.7232 20.0979 15.25 18.8261 15.25 17.5ZM35.25 17.5V15H25.25V17.5C25.25 18.8261 25.7768 20.0979 26.7145 21.0355C27.6521 21.9732 28.9239 22.5 30.25 22.5C31.5761 22.5 32.8479 21.9732 33.7855 21.0355C34.7232 20.0979 35.25 18.8261 35.25 17.5Z" fill="#2F2B3D" fill-opacity="0.9"/>
<path d="M8.6875 6.25H31.8125C32.0837 6.25223 32.347 6.3415 32.5636 6.50466C32.7802 6.66782 32.9386 6.89623 33.0156 7.15625L35.25 15H5.25L7.48437 7.15625C7.56137 6.89623 7.71984 6.66782 7.93644 6.50466C8.15305 6.3415 8.41633 6.25223 8.6875 6.25V6.25Z" stroke="#2F2B3D" stroke-opacity="0.9" stroke-width="2" stroke-linecap="round" stroke-linejoin="round"/>
<path fill-rule="evenodd" clip-rule="evenodd" d="M6.25 15C6.25 14.4477 5.80228 14 5.25 14C4.69772 14 4.25 14.4477 4.25 15V17.5C4.25 19.0913 4.88214 20.6174 6.00736 21.7426C6.2389 21.9742 6.48743 22.1849 6.75 22.3734V32.5C6.75 33.0967 6.98705 33.669 7.40901 34.091C7.83097 34.5129 8.40326 34.75 9 34.75H31.5C32.0967 34.75 32.669 34.5129 33.091 34.091C33.513 33.669 33.75 33.0967 33.75 32.5V22.3734C34.0126 22.1849 34.2611 21.9742 34.4926 21.7426C35.6179 20.6174 36.25 19.0913 36.25 17.5V15C36.25 14.4477 35.8023 14 35.25 14C34.6977 14 34.25 14.4477 34.25 15V17.5C34.25 18.5609 33.8286 19.5783 33.0784 20.3284C32.8685 20.5384 32.6376 20.7226 32.3906 20.879C32.2918 20.9171 32.2004 20.9705 32.1196 21.0362C31.5486 21.338 30.9077 21.5 30.25 21.5C29.1891 21.5 28.1717 21.0786 27.4216 20.3284C26.6714 19.5783 26.25 18.5609 26.25 17.5V15C26.25 14.4477 25.8023 14 25.25 14C24.6977 14 24.25 14.4477 24.25 15V17.5C24.25 18.5609 23.8286 19.5783 23.0784 20.3284C22.3283 21.0786 21.3109 21.5 20.25 21.5C19.1891 21.5 18.1717 21.0786 17.4216 20.3284C16.6714 19.5783 16.25 18.5609 16.25 17.5V15C16.25 14.4477 15.8023 14 15.25 14C14.6977 14 14.25 14.4477 14.25 15V17.5C14.25 18.5609 13.8286 19.5783 13.0784 20.3284C12.3283 21.0786 11.3109 21.5 10.25 21.5C9.59233 21.5 8.95135 21.338 8.38041 21.0362C8.29955 20.9705 8.20823 20.9171 8.10933 20.879C7.86241 20.7226 7.63153 20.5384 7.42157 20.3284C6.67143 19.5783 6.25 18.5609 6.25 17.5V15ZM25.25 20.8167C25.0306 21.1474 24.7774 21.4578 24.4926 21.7426C23.3674 22.8679 21.8413 23.5 20.25 23.5C18.6587 23.5 17.1326 22.8679 16.0074 21.7426C15.7226 21.4578 15.4694 21.1474 15.25 20.8167C15.0306 21.1474 14.7774 21.4578 14.4926 21.7426C13.3674 22.8679 11.8413 23.5 10.25 23.5C9.7396 23.5 9.23591 23.435 8.75 23.3095V32.5C8.75 32.5663 8.77634 32.6299 8.82322 32.6768C8.87011 32.7237 8.93369 32.75 9 32.75H31.5C31.5663 32.75 31.6299 32.7237 31.6768 32.6768C31.7237 32.6299 31.75 32.5663 31.75 32.5V23.3095C31.2641 23.435 30.7604 23.5 30.25 23.5C28.6587 23.5 27.1326 22.8679 26.0074 21.7426C25.7226 21.4578 25.4694 21.1474 25.25 20.8167Z" fill="#2F2B3D" fill-opacity="0.9"/>
</svg>
