<svg width="41" height="40" viewBox="0 0 41 40" fill="none" xmlns="http://www.w3.org/2000/svg">
<path opacity="0.2" d="M20.75 29.375C25.9277 29.375 30.125 25.1777 30.125 20C30.125 14.8223 25.9277 10.625 20.75 10.625C15.5723 10.625 11.375 14.8223 11.375 20C11.375 25.1777 15.5723 29.375 20.75 29.375Z" fill="#2F2B3D" fill-opacity="0.9"/>
<path d="M20.75 29.375C25.9277 29.375 30.125 25.1777 30.125 20C30.125 14.8223 25.9277 10.625 20.75 10.625C15.5723 10.625 11.375 14.8223 11.375 20C11.375 25.1777 15.5723 29.375 20.75 29.375Z" stroke="#2F2B3D" stroke-opacity="0.9" stroke-width="2" stroke-linecap="round" stroke-linejoin="round"/>
<path d="M20.75 5.625V4.375" stroke="#2F2B3D" stroke-opacity="0.9" stroke-width="2" stroke-linecap="round" stroke-linejoin="round"/>
<path d="M10.5781 9.82813L9.70312 8.95312" stroke="#2F2B3D" stroke-opacity="0.9" stroke-width="2" stroke-linecap="round" stroke-linejoin="round"/>
<path d="M6.375 20H5.125" stroke="#2F2B3D" stroke-opacity="0.9" stroke-width="2" stroke-linecap="round" stroke-linejoin="round"/>
<path d="M10.5781 30.1719L9.70312 31.0469" stroke="#2F2B3D" stroke-opacity="0.9" stroke-width="2" stroke-linecap="round" stroke-linejoin="round"/>
<path d="M20.75 34.375V35.625" stroke="#2F2B3D" stroke-opacity="0.9" stroke-width="2" stroke-linecap="round" stroke-linejoin="round"/>
<path d="M30.9219 30.1719L31.7969 31.0469" stroke="#2F2B3D" stroke-opacity="0.9" stroke-width="2" stroke-linecap="round" stroke-linejoin="round"/>
<path d="M35.125 20H36.375" stroke="#2F2B3D" stroke-opacity="0.9" stroke-width="2" stroke-linecap="round" stroke-linejoin="round"/>
<path d="M30.9219 9.82813L31.7969 8.95312" stroke="#2F2B3D" stroke-opacity="0.9" stroke-width="2" stroke-linecap="round" stroke-linejoin="round"/>
</svg>
