<svg width="41" height="40" viewBox="0 0 41 40" fill="none" xmlns="http://www.w3.org/2000/svg">
<path opacity="0.2" d="M20.7501 13.7501C20.7501 10.3126 23.6407 7.4532 27.0782 7.50008C28.2821 7.51398 29.4563 7.87526 30.4597 8.54051C31.4631 9.20576 32.253 10.1466 32.7345 11.2501H38.2501L33.2032 16.297C32.8775 21.3666 30.6334 26.1219 26.927 29.5961C23.2206 33.0703 18.3302 35.0026 13.2501 35.0001C8.25011 35.0001 7.00011 33.1251 7.00011 33.1251C7.00011 33.1251 12.0001 31.2501 14.5001 27.5001C14.5001 27.5001 4.50011 22.5001 7.00011 8.75008C7.00011 8.75008 13.2501 15.0001 20.7501 16.2501V13.7501Z" fill="#2F2B3D" fill-opacity="0.9"/>
<path d="M20.7501 13.7501C20.7501 10.3126 23.6407 7.4532 27.0782 7.50008C28.2821 7.51398 29.4563 7.87526 30.4597 8.54051C31.4631 9.20576 32.253 10.1466 32.7345 11.2501H38.2501L33.2032 16.297C32.8775 21.3666 30.6334 26.1219 26.927 29.5961C23.2206 33.0703 18.3302 35.0026 13.2501 35.0001C8.25011 35.0001 7.00011 33.1251 7.00011 33.1251C7.00011 33.1251 12.0001 31.2501 14.5001 27.5001C14.5001 27.5001 4.50011 22.5001 7.00011 8.75008C7.00011 8.75008 13.2501 15.0001 20.7501 16.2501V13.7501Z" stroke="#2F2B3D" stroke-opacity="0.9" stroke-width="2" stroke-linecap="round" stroke-linejoin="round"/>
</svg>
