<svg width="64" height="65" viewBox="0 0 64 65" fill="none" xmlns="http://www.w3.org/2000/svg">
<path opacity="0.2" d="M32.0002 8.69434C27.1439 8.69292 22.4014 10.1648 18.3993 12.9154C14.3971 15.6661 11.3236 19.5661 9.58461 24.1004C7.84566 28.6346 7.52315 33.5897 8.65969 38.3112C9.79622 43.0326 12.3383 47.2981 15.9502 50.5443C17.4552 47.5807 19.7514 45.0916 22.5843 43.353C25.4173 41.6144 28.6763 40.6942 32.0002 40.6943C30.0224 40.6943 28.089 40.1078 26.4445 39.009C24.8 37.9102 23.5183 36.3484 22.7614 34.5212C22.0045 32.6939 21.8065 30.6832 22.1923 28.7434C22.5782 26.8036 23.5306 25.0218 24.9291 23.6233C26.3276 22.2247 28.1095 21.2723 30.0493 20.8865C31.9891 20.5006 33.9998 20.6987 35.827 21.4555C37.6543 22.2124 39.2161 23.4941 40.3149 25.1386C41.4137 26.7831 42.0002 28.7165 42.0002 30.6943C42.0002 33.3465 40.9466 35.89 39.0713 37.7654C37.1959 39.6408 34.6523 40.6943 32.0002 40.6943C35.3241 40.6942 38.5831 41.6144 41.416 43.353C44.249 45.0916 46.5452 47.5807 48.0502 50.5443C51.662 47.2981 54.2041 43.0326 55.3407 38.3112C56.4772 33.5897 56.1547 28.6346 54.4158 24.1004C52.6768 19.5661 49.6033 15.6661 45.6011 12.9154C41.5989 10.1648 36.8565 8.69292 32.0002 8.69434Z" fill="#7367F0"/>
<path d="M32 40.6943C37.5228 40.6943 42 36.2172 42 30.6943C42 25.1715 37.5228 20.6943 32 20.6943C26.4772 20.6943 22 25.1715 22 30.6943C22 36.2172 26.4772 40.6943 32 40.6943ZM32 40.6943C28.6759 40.6943 25.4168 41.6133 22.5839 43.3521C19.7509 45.091 17.4548 47.5804 15.95 50.5443M32 40.6943C35.3241 40.6943 38.5832 41.6133 41.4161 43.3521C44.2491 45.091 46.5452 47.5804 48.05 50.5443M56 32.6943C56 45.9492 45.2548 56.6943 32 56.6943C18.7452 56.6943 8 45.9492 8 32.6943C8 19.4395 18.7452 8.69434 32 8.69434C45.2548 8.69434 56 19.4395 56 32.6943Z" stroke="#7367F0" stroke-width="2" stroke-linecap="round" stroke-linejoin="round"/>
</svg>
