<svg width="41" height="40" viewBox="0 0 41 40" fill="none" xmlns="http://www.w3.org/2000/svg">
<path opacity="0.2" d="M31.75 5H9.25C8.91848 5 8.60054 5.1317 8.36612 5.36612C8.1317 5.60054 8 5.91848 8 6.25V33.75C8 34.0815 8.1317 34.3995 8.36612 34.6339C8.60054 34.8683 8.91848 35 9.25 35H31.75C32.0815 35 32.3995 34.8683 32.6339 34.6339C32.8683 34.3995 33 34.0815 33 33.75V6.25C33 5.91848 32.8683 5.60054 32.6339 5.36612C32.3995 5.1317 32.0815 5 31.75 5ZM20.5 26.25C19.5111 26.25 18.5444 25.9568 17.7221 25.4073C16.8999 24.8579 16.259 24.077 15.8806 23.1634C15.5022 22.2498 15.4031 21.2445 15.5961 20.2745C15.789 19.3046 16.2652 18.4137 16.9645 17.7145C17.6637 17.0152 18.5546 16.539 19.5245 16.3461C20.4945 16.1531 21.4998 16.2522 22.4134 16.6306C23.327 17.009 24.1079 17.6499 24.6573 18.4721C25.2068 19.2944 25.5 20.2611 25.5 21.25C25.5 22.5761 24.9732 23.8479 24.0355 24.7855C23.0979 25.7232 21.8261 26.25 20.5 26.25Z" fill="#2F2B3D" fill-opacity="0.9"/>
<path d="M20.5 26.25C23.2614 26.25 25.5 24.0114 25.5 21.25C25.5 18.4886 23.2614 16.25 20.5 16.25C17.7386 16.25 15.5 18.4886 15.5 21.25C15.5 24.0114 17.7386 26.25 20.5 26.25ZM20.5 26.25C19.0446 26.25 17.6091 26.5889 16.3074 27.2397C15.0056 27.8906 13.8733 28.8357 13 30M20.5 26.25C21.9554 26.25 23.3909 26.5889 24.6926 27.2397C25.9944 27.8906 27.1267 28.8357 28 30M15.5 10H25.5M33 6.25V33.75C33 34.4404 32.4404 35 31.75 35H9.25C8.55964 35 8 34.4404 8 33.75V6.25C8 5.55964 8.55964 5 9.25 5H31.75C32.4404 5 33 5.55964 33 6.25Z" stroke="#2F2B3D" stroke-opacity="0.9" stroke-width="2" stroke-linecap="round" stroke-linejoin="round"/>
</svg>
