<svg width="164" height="36" viewBox="0 0 164 36" fill="none" xmlns="http://www.w3.org/2000/svg">
<mask id="mask0_55_12994" style="mask-type:alpha" maskUnits="userSpaceOnUse" x="0" y="0" width="164" height="36">
<rect width="164" height="36" fill="#D9D9D9"/>
</mask>
<g mask="url(#mask0_55_12994)">
<path d="M55.495 18.3747V12.3455L49.2582 12.3589V4.74219H42.6899V12.3589H37.7441V18.3882H42.5983C42.4554 23.0537 43.0322 29.0317 46.5091 32.6299C48.3823 34.5678 50.9131 35.503 54.0342 35.503H54.0477L55.4977 35.4949V29.0236H54.6164C53.3011 29.0236 52.2122 28.6598 51.3767 27.8243C49.2636 25.7085 49.269 21.3045 49.2717 19.7277L49.2852 18.3909L55.4977 18.3774L55.495 18.3747Z" fill="white"/>
<path d="M2.30078 35.1804H8.93108V26.8736C8.93108 24.9843 9.5968 23.3779 10.9094 22.095C14.7312 18.3647 22.976 18.3513 23.0568 18.3566L23.2455 18.362V12.3543C22.8574 12.3328 13.9739 12.0201 8.93108 15.7908V7.92335H24.8654V1.54102H2.30078V35.1804Z" fill="white"/>
<path d="M162.198 23.4414C162.198 12.8572 154.665 12.0324 152.317 12.0324C151.309 12.0136 147.983 12.1914 145.784 14.9352V12.3558H139.113V35.1711H145.719V24.2877L145.714 23.0021C145.8 20.3419 148.07 18.1803 150.773 18.1803C153.476 18.1803 155.589 20.3419 155.589 22.9967L155.595 35.1711H162.201V23.4387L162.198 23.4414Z" fill="white"/>
<path d="M114.965 12.0352C111.863 12.0352 109.206 13.3639 107.626 15.6926C106.033 13.3316 103.486 12.0352 100.422 12.0352C97.6296 12.0352 95.4249 13.0135 93.8644 14.946V12.3586H87.1855V35.1711H93.8455V22.3957C93.921 20.0697 95.8588 18.1803 98.2199 18.1803C100.581 18.1803 102.384 20.0697 102.384 22.3903V35.1711L102.438 35.1819H109.049L109.098 35.1711V22.3957C109.173 20.0697 111.111 18.1803 113.472 18.1803C115.833 18.1803 117.636 20.0697 117.636 22.3903V35.1819H124.288V21.7488C124.288 15.5848 120.628 12.0379 114.963 12.0379L114.965 12.0352Z" fill="white"/>
<path d="M76.7859 12.3603V14.9343C76.7859 14.9343 74.088 12.0234 69.1099 12.0234C62.4068 12.0234 57.6982 17.2792 57.6982 23.7666C57.6982 30.2541 62.4068 35.5098 69.1099 35.5098C74.6702 35.5098 76.7806 32.6286 76.7806 32.6286V35.1756H83.0659V12.3603H76.7859ZM70.3955 29.6665C67.0265 29.6665 64.2935 27.0252 64.2935 23.7639C64.2935 20.5027 67.0238 17.8613 70.3955 17.8613C73.7673 17.8613 76.1553 20.5027 76.1553 23.7639C76.1553 27.0252 73.7646 29.6665 70.3955 29.6665V29.6665Z" fill="white"/>
<path d="M34.7258 12.3535H27.8906V35.1768H34.7258V12.3535Z" fill="white"/>
<path d="M31.308 8.97338C33.6495 8.97338 35.5476 7.07524 35.5476 4.73376C35.5476 2.39228 33.6495 0.494141 31.308 0.494141C28.9665 0.494141 27.0684 2.39228 27.0684 4.73376C27.0684 7.07524 28.9665 8.97338 31.308 8.97338Z" fill="white"/>
<path d="M134.993 12.3574H128.158V35.1807H134.993V12.3574Z" fill="white"/>
<path d="M131.576 8.97143C133.917 8.97143 135.815 7.07328 135.815 4.73181C135.815 2.39033 133.917 0.492188 131.576 0.492188C129.234 0.492188 127.336 2.39033 127.336 4.73181C127.336 7.07328 129.234 8.97143 131.576 8.97143Z" fill="white"/>
</g>
</svg>
