<svg width="80" height="18" viewBox="0 0 80 18" fill="none" xmlns="http://www.w3.org/2000/svg">
<path d="M27.9263 8.95273V5.93476L24.8044 5.94151V2.12891H21.5166V5.94151H19.041V8.95948H21.4708C21.3993 11.2948 21.688 14.2871 23.4283 16.0882C24.366 17.0582 25.6328 17.5264 27.1951 17.5264H27.2018L27.9276 17.5223V14.2831H27.4865C26.8281 14.2831 26.2831 14.101 25.8648 13.6827C24.8071 12.6237 24.8098 10.4192 24.8112 9.62999L24.8179 8.96083L27.9276 8.95408L27.9263 8.95273Z" fill="#2DCD6F"/>
<path d="M1 17.3657H4.31882V13.2077C4.31882 12.262 4.65206 11.4579 5.30908 10.8157C7.22212 8.94852 11.3491 8.94178 11.3895 8.94448L11.484 8.94717V5.94C11.2897 5.9292 6.84302 5.7727 4.31882 7.66012V3.72205H12.2948V0.527344H1V17.3657Z" fill="#2DCD6F"/>
<path d="M79.9985 11.4887C79.9985 6.19076 76.2278 5.77793 75.0527 5.77793C74.5481 5.76849 72.8833 5.85753 71.7824 7.23093V5.93982H68.4434V17.3601H71.75V11.9124L71.7473 11.2688C71.7905 9.93725 72.9265 8.85526 74.2796 8.85526C75.6328 8.85526 76.6905 9.93725 76.6905 11.2661L76.6932 17.3601H79.9999V11.4874L79.9985 11.4887Z" fill="#2DCD6F"/>
<path d="M57.0303 5.77734C55.4775 5.77734 54.1473 6.44246 53.3567 7.60809C52.5594 6.42627 51.2844 5.77734 49.7505 5.77734C48.3528 5.77734 47.2492 6.26707 46.4681 7.23439V5.93924H43.125V17.3582H46.4587V10.9633C46.4964 9.79906 47.4665 8.85333 48.6483 8.85333C49.8301 8.85333 50.7327 9.79906 50.7327 10.9606V17.3582L50.7596 17.3636H54.069L54.0933 17.3582V10.9633C54.1311 9.79906 55.1011 8.85333 56.2829 8.85333C57.4648 8.85333 58.3673 9.79906 58.3673 10.9606V17.3636H61.6969V10.6396C61.6969 7.55413 59.8648 5.77869 57.029 5.77869L57.0303 5.77734Z" fill="#2DCD6F"/>
<path d="M38.7322 5.94012V7.22853C38.7322 7.22853 37.3817 5.77148 34.8899 5.77148C31.5346 5.77148 29.1777 8.40226 29.1777 11.6496C29.1777 14.8969 31.5346 17.5277 34.8899 17.5277C37.6731 17.5277 38.7295 16.0855 38.7295 16.0855V17.3604H41.8756V5.94012H38.7322ZM35.5334 14.6028C33.847 14.6028 32.479 13.2807 32.479 11.6482C32.479 10.0158 33.8457 8.69367 35.5334 8.69367C37.2212 8.69367 38.4165 10.0158 38.4165 11.6482C38.4165 13.2807 37.2198 14.6028 35.5334 14.6028V14.6028Z" fill="#2DCD6F"/>
<path d="M17.3784 5.93945H13.957V17.3638H17.3784V5.93945Z" fill="#2DCD6F"/>
<path d="M15.6671 4.24627C16.8391 4.24627 17.7892 3.29615 17.7892 2.12411C17.7892 0.952076 16.8391 0.00195312 15.6671 0.00195312C14.495 0.00195312 13.5449 0.952076 13.5449 2.12411C13.5449 3.29615 14.495 4.24627 15.6671 4.24627Z" fill="#2DCD6F"/>
<path d="M66.7827 5.93945H63.3613V17.3638H66.7827V5.93945Z" fill="#2DCD6F"/>
<path d="M65.0714 4.24432C66.2434 4.24432 67.1935 3.2942 67.1935 2.12216C67.1935 0.950123 66.2434 0 65.0714 0C63.8993 0 62.9492 0.950123 62.9492 2.12216C62.9492 3.2942 63.8993 4.24432 65.0714 4.24432Z" fill="#2DCD6F"/>
</svg>
