<svg width="65" height="65" viewBox="0 0 65 65" fill="none" xmlns="http://www.w3.org/2000/svg">
<g clip-path="url(#clip0_1280_39376)">
<path d="M36.3163 36.3095C36.2701 35.6863 36.1452 35.0844 35.9433 34.5148C35.8623 34.2547 35.7556 33.9948 35.6417 33.7527C35.6179 33.6949 35.5928 33.6385 35.5614 33.589C35.3675 33.1927 35.1406 32.8173 34.8811 32.4665C34.8553 32.4333 34.8312 32.3994 34.8051 32.3654C34.5379 32.0144 34.2386 31.6869 33.9126 31.3906C33.5197 31.0302 33.0871 30.7132 32.6219 30.4457C32.6058 30.4379 32.5896 30.4214 32.5735 30.4136C32.4276 30.3289 32.276 30.25 32.1231 30.1754C31.1468 29.7021 30.0496 29.436 28.8852 29.4389C28.3324 29.4397 27.7884 29.5075 27.2777 29.6221C27.2394 29.6305 27.1971 29.6383 27.1589 29.6467L27.1563 29.6476C25.4478 30.0598 23.9705 31.0575 22.9525 32.425C22.9398 32.4409 22.9271 32.4568 22.9155 32.4732C22.3005 33.2935 21.8559 34.2532 21.6321 35.2928C21.5114 35.8118 21.456 36.3485 21.4572 36.8993L21.4667 41.1787C21.4671 41.2685 21.467 41.3489 21.475 41.4389C21.4873 41.7859 21.5213 42.1263 21.5804 42.459C21.7248 43.2924 22.0109 44.079 22.411 44.7908C22.6333 45.1889 22.8901 45.5626 23.1797 45.9088C23.3939 46.167 23.6261 46.4105 23.8738 46.6381C24.4833 47.2051 25.2 47.6664 25.9711 47.997C26.0487 48.0305 26.1257 48.0624 26.2027 48.0914C27.0181 48.4144 27.9034 48.5956 28.8222 48.6074L28.9283 48.6072C30.2764 48.6042 31.5325 48.2454 32.613 47.6179C32.6292 47.6094 32.6448 47.5935 32.6613 47.5859C33.0754 47.341 33.4632 47.0639 33.8209 46.7465C34.0552 46.5434 34.2828 46.3234 34.4764 46.0883C34.9224 45.5913 35.2945 45.0297 35.5859 44.428C36.0782 43.4375 36.3522 42.3242 36.3494 41.1463L36.3398 36.8669C36.3391 36.6787 36.3324 36.4925 36.3175 36.3101L36.3163 36.3095ZM29.4531 44.4988C29.39 44.51 29.3263 44.5195 29.2623 44.5281C29.1511 44.5415 29.0356 44.5478 28.9189 44.5478C28.8854 44.5479 28.8454 44.5483 28.8129 44.5403C28.0254 44.5177 27.3024 44.227 26.7407 43.7574C26.4009 43.4735 26.1179 43.1241 25.9091 42.7262C25.6657 42.2608 25.5263 41.7309 25.525 41.1687L25.5154 36.8893C25.5146 36.7814 25.5193 36.6755 25.5312 36.571C25.5722 36.1177 25.703 35.6889 25.9055 35.3044C26.0175 35.0936 26.1504 34.8958 26.3039 34.7137C26.4687 34.5144 26.657 34.3357 26.8628 34.1806C27.4033 33.7716 28.0706 33.5227 28.7939 33.5004C28.8262 33.4969 28.8597 33.4969 28.8931 33.4968C29.0156 33.4968 29.1344 33.5028 29.2527 33.5156C29.3297 33.5254 29.4091 33.5364 29.4853 33.5522C29.5578 33.5598 29.6238 33.5763 29.6961 33.6002C30.2969 33.7416 30.8372 34.0493 31.266 34.4719C31.5895 34.7892 31.8502 35.174 32.025 35.6008C32.1862 35.9941 32.276 36.4243 32.2767 36.8738L32.2863 41.1867C32.2866 41.3569 32.2715 41.5353 32.2393 41.6976C32.0317 43.0454 31.0187 44.1272 29.7203 44.4384C29.6316 44.4641 29.5425 44.4805 29.4525 44.4971L29.4531 44.4988Z" fill="url(#paint0_linear_1280_39376)"/>
<path d="M43.8066 36.7124C43.7785 35.0802 43.2247 33.5859 42.2918 32.3743C42.277 32.3536 42.2628 32.3346 42.2466 32.3153C42.1481 32.1932 42.05 32.072 41.9458 31.95C41.632 31.5863 41.2829 31.2559 40.9026 30.9658C40.6308 30.7542 40.3442 30.5639 40.0424 30.3961C39.4169 30.0326 38.7339 29.7664 38.0022 29.606C37.9922 29.6046 37.9844 29.6016 37.9749 29.5991C37.7487 29.5478 37.5154 29.5066 37.2808 29.4783C36.9789 29.4407 36.6714 29.4203 36.3616 29.4207C36.0921 29.4217 35.8264 29.4366 35.5638 29.4658C34.4992 29.5807 33.4989 29.9213 32.6217 30.4444C32.6055 30.4528 32.5898 30.4601 32.5736 30.4686C31.7104 30.9849 30.9621 31.6684 30.3758 32.475C30.1161 32.8294 29.8895 33.205 29.6977 33.6012C29.6415 33.7076 29.592 33.8136 29.5441 33.9191C29.1474 34.8288 28.9315 35.8274 28.9339 36.882L28.9434 41.1614C28.9435 41.2839 28.9441 41.4052 28.9605 41.5277C29.0014 42.4523 29.2215 43.3362 29.5894 44.1462C29.6105 44.1964 29.6333 44.2459 29.6576 44.294C29.6738 44.3439 29.698 44.3921 29.7222 44.4402C30.3576 45.738 31.3676 46.8235 32.6123 47.5594C32.6281 47.5692 32.6442 47.5771 32.6603 47.5849C32.7248 47.6249 32.7987 47.6645 32.8711 47.697C33.9196 48.2717 35.1222 48.5935 36.405 48.59C40.4235 48.5812 43.7051 45.3683 43.8182 41.3729C43.8263 41.2907 43.8255 41.2106 43.8261 41.1291L43.8165 36.8497C43.8164 36.8019 43.8168 36.7615 43.8078 36.713L43.8066 36.7124ZM39.7653 41.1371C39.7694 43.0053 38.2552 44.5265 36.3947 44.5309C36.2808 44.5308 36.1586 44.5232 36.046 44.5074C35.892 44.4992 35.7378 44.4681 35.5837 44.4264C34.1131 44.0736 33.0132 42.752 33.0017 41.1763L32.9924 36.8729C32.9893 35.2827 34.0828 33.9484 35.5601 33.5871C35.6006 33.5713 35.6319 33.5624 35.6723 33.5628C35.8986 33.506 36.1304 33.4817 36.3647 33.4813L36.3713 33.481C36.5158 33.481 36.6606 33.4904 36.8019 33.5088C36.8417 33.5133 36.8841 33.5197 36.9242 33.5279C37.4108 33.6072 37.8595 33.7905 38.2523 34.0532C38.2759 34.069 38.3022 34.0868 38.3261 34.1063C38.6113 34.3066 38.8649 34.5513 39.078 34.831C39.5021 35.3988 39.7553 36.0952 39.7568 36.8582L39.7664 41.1376L39.7653 41.1371Z" fill="url(#paint1_linear_1280_39376)"/>
<path d="M22.376 17.6938C25.2602 19.1425 26.4229 22.6555 24.9742 25.5397C23.5255 28.4238 20.0125 29.5866 17.1284 28.1379C14.245 26.6889 13.0814 23.1762 14.5301 20.292C15.9791 17.4087 19.4918 16.2451 22.376 17.6938Z" fill="url(#paint2_linear_1280_39376)"/>
<path d="M47.3001 28.3585C46.7576 28.5529 46.2054 28.6637 45.6586 28.6902C43.2573 28.8301 40.947 27.4641 39.9631 25.1707C39.9535 25.1511 39.9441 25.1294 39.9336 25.1072C39.8966 25.0166 39.8605 24.9228 39.8273 24.829C39.5075 23.9364 39.4183 23.0189 39.5292 22.1406C39.7079 20.706 40.4155 19.3735 41.5196 18.426C41.5261 18.417 41.5355 18.4109 41.5434 18.4034C41.7894 18.1924 42.0559 18.0021 42.3412 17.8331C42.6575 17.6457 42.9972 17.4847 43.3559 17.3564C43.9511 17.1428 44.5603 17.0307 45.1604 17.0145L45.1627 17.0156C46.3854 16.9792 47.5754 17.334 48.5712 17.9976C48.6985 18.0811 48.8198 18.1694 48.9392 18.2632C48.9972 18.3093 49.0528 18.3542 49.1091 18.4009C49.1449 18.4297 49.1795 18.4609 49.2142 18.4948C49.2664 18.5381 49.3169 18.5877 49.3657 18.635L49.368 18.6361C49.4067 18.6735 49.4457 18.7117 49.4827 18.7497C49.5197 18.7877 49.555 18.8234 49.5894 18.8594C49.6073 18.8781 49.6238 18.8982 49.6426 18.9166C49.6605 18.9353 49.6762 18.9529 49.6927 18.9731C49.7381 19.0215 49.7815 19.0726 49.8235 19.1251C49.8585 19.1657 49.8918 19.2068 49.9234 19.2486C49.9776 19.317 50.03 19.386 50.0814 19.4573C50.082 19.459 50.0829 19.4616 50.0852 19.4627C50.1049 19.4923 50.1281 19.5235 50.1487 19.5556C50.1702 19.5846 50.1911 19.6147 50.2088 19.6469C50.2126 19.6523 50.2167 19.6557 50.2187 19.6617C50.2349 19.681 50.2472 19.7026 50.2591 19.7234C50.2606 19.7276 50.2652 19.7327 50.2667 19.737C50.3003 19.7847 50.3292 19.8351 50.3591 19.886C50.3658 19.8971 50.3719 19.9094 50.3795 19.923C50.4217 19.9956 50.4639 20.0681 50.5018 20.1421C50.5213 20.1765 50.5383 20.2118 50.5564 20.2477C50.5645 20.2631 50.5727 20.2813 50.5815 20.2984C50.6045 20.3431 50.625 20.3887 50.6472 20.4365C50.6671 20.4804 50.6861 20.5245 50.704 20.5681C50.723 20.6094 50.7406 20.6522 50.7562 20.6946C50.78 20.7553 50.8061 20.82 50.829 20.8839C50.8581 20.9657 50.8856 21.0481 50.9098 21.1297C50.9273 21.1859 50.943 21.2427 50.9578 21.2969C50.9688 21.3343 50.98 21.3725 50.9893 21.4104C50.9979 21.4467 51.0048 21.4807 51.0135 21.5169C51.0174 21.5338 51.0224 21.5483 51.0263 21.5652C51.0388 21.6182 51.0505 21.6716 51.0599 21.7239C51.0634 21.7342 51.0652 21.745 51.0671 21.7559C51.0857 21.8461 51.0995 21.9361 51.1132 22.0261C51.1136 22.0326 51.1156 22.0386 51.1145 22.0438C51.1268 22.1295 51.138 22.2175 51.146 22.3047C51.1464 22.3113 51.1478 22.3155 51.1467 22.3207C51.1542 22.4062 51.1605 22.4939 51.1659 22.5791C51.1696 22.6678 51.1711 22.7553 51.1725 22.8429C51.1729 22.8886 51.1728 22.9327 51.1695 22.9759C51.1689 23.0575 51.1654 23.1391 51.1596 23.2195C51.1559 23.2811 51.1531 23.3423 51.1443 23.4028C51.1397 23.4617 51.132 23.5228 51.1251 23.5806C51.1245 23.6038 51.1207 23.6262 51.1175 23.6502C51.1159 23.6651 51.1141 23.6791 51.1116 23.6915C51.1043 23.7285 51.0989 23.7657 51.0933 23.8021C51.0784 23.8952 51.0605 23.9875 51.0416 24.0773C51.0326 24.1177 51.0233 24.1601 51.0125 24.2011C50.998 24.2645 50.9834 24.325 50.9637 24.3873C50.9635 24.3922 50.9613 24.3996 50.961 24.4045C50.9544 24.4326 50.9478 24.4578 50.9386 24.484C50.9184 24.556 50.8974 24.6254 50.8709 24.6958C50.8573 24.7425 50.8412 24.7873 50.825 24.8321C50.8036 24.895 50.7799 24.9567 50.7536 25.0194C50.7478 25.0357 50.7411 25.0495 50.7349 25.065C50.7176 25.1064 50.7 25.1469 50.6815 25.1877C50.6591 25.2423 50.6348 25.2966 50.6101 25.3501C50.6034 25.3639 50.5961 25.376 50.5902 25.3923C50.5636 25.4455 50.5364 25.4999 50.5097 25.5531C50.4929 25.5847 50.4757 25.6183 50.4572 25.6506C50.4139 25.7305 50.3703 25.8068 50.3222 25.8865C50.3025 25.921 50.2805 25.9573 50.256 25.9916C50.2126 26.063 50.1666 26.1295 50.1192 26.1975C50.1164 26.2032 50.111 26.207 50.1082 26.2128C50.1037 26.2191 50.0972 26.228 50.0927 26.2344C50.089 26.2376 50.0871 26.243 50.0837 26.2471C50.0591 26.2813 50.0354 26.3125 50.0109 26.3468C50.0097 26.3491 50.0063 26.3531 50.0044 26.3557C49.9778 26.3926 49.9527 26.4252 49.9255 26.4575C49.9238 26.4581 49.9244 26.4598 49.9219 26.4607C49.8973 26.4949 49.8693 26.5275 49.8424 26.5607C49.7469 26.6807 49.6448 26.7953 49.5366 26.9062C49.4918 26.9541 49.446 27.0015 49.3972 27.046C49.374 27.0703 49.3493 27.0932 49.3255 27.1157C49.2991 27.1391 49.2753 27.1617 49.2506 27.1845C49.1605 27.2672 49.0666 27.3474 48.9712 27.4233C48.9587 27.4343 48.9442 27.445 48.9312 27.4543C48.8863 27.4908 48.8429 27.523 48.7968 27.5561C48.7477 27.594 48.6966 27.6317 48.6469 27.6651C48.627 27.6796 48.6059 27.6936 48.5835 27.7061C48.573 27.7145 48.5599 27.7238 48.5479 27.7308C48.507 27.7592 48.4664 27.7856 48.424 27.8098C48.4186 27.8136 48.4129 27.8165 48.4066 27.8206C48.3745 27.8412 48.3407 27.8624 48.3079 27.8813C48.3079 27.8813 48.3065 27.8818 48.3037 27.8828C48.2508 27.9154 48.1973 27.9462 48.1407 27.9763C48.1025 27.9989 48.0615 28.0188 48.0225 28.0389C48.0166 28.041 48.0132 28.045 48.0072 28.0471C47.9685 28.0681 47.9281 28.0896 47.8859 28.1089C47.8645 28.1192 47.8429 28.1314 47.8181 28.1399C47.8121 28.142 47.8045 28.1475 47.7985 28.1496C47.7452 28.1756 47.6914 28.1998 47.6356 28.2238L47.6193 28.2294C47.5937 28.2411 47.5655 28.2537 47.5372 28.2634C47.4586 28.2963 47.3777 28.328 47.2975 28.3565L47.3001 28.3585Z" fill="url(#paint3_linear_1280_39376)"/>
<path d="M43.2297 21.2427L43.2296 21.4035C43.2216 21.6722 43.2044 21.9307 43.1866 22.1818C43.1848 22.2044 43.1831 22.2299 43.1793 22.2523C42.9648 24.6388 41.9638 26.7947 40.4465 28.4625C39.7867 29.1891 39.0185 29.8258 38.1797 30.3462C37.7239 30.6342 37.2332 30.8931 36.7332 31.1083C36.716 31.1085 36.6976 31.1187 36.6893 31.1282C35.5459 31.6033 34.3125 31.8921 33.0072 31.9387C32.9095 31.9494 32.8197 31.9583 32.7315 31.9495C32.6764 31.9589 32.6152 31.9589 32.5617 31.9591C32.4449 31.9591 32.3371 31.9599 32.2203 31.9513C32.1633 31.9499 32.1072 31.9482 32.052 31.9433C31.1283 31.9063 30.2385 31.7506 29.3947 31.4843C29.0988 31.3948 28.8143 31.2966 28.5366 31.1817C28.4834 31.1637 28.4375 31.1469 28.3847 31.1269C28.1385 31.0231 27.8947 30.9071 27.6552 30.7839C27.409 30.6553 27.1667 30.5157 26.9344 30.3718C26.7536 30.2609 26.5768 30.1448 26.4048 30.0232C25.8131 29.6107 25.2672 29.1395 24.767 28.6151C24.7187 28.5638 24.671 28.5142 24.627 28.4614C23.4423 27.1605 22.5794 25.5631 22.1463 23.7938C22.0284 23.3292 21.9481 22.8459 21.9006 22.3551C21.8985 22.3377 21.8974 22.318 21.8952 22.3005C21.8628 21.9701 21.8457 21.6287 21.8452 21.2911C21.8427 19.9859 22.0729 18.7345 22.4984 17.5805C23.0345 16.1224 23.8804 14.8111 24.9556 13.7319C26.8847 11.7875 29.5565 10.5824 32.5147 10.5761C33.3724 10.5745 34.2128 10.6698 35.0181 10.8661C35.1314 10.8922 35.2427 10.9208 35.354 10.9523C35.3686 10.9559 35.3824 10.9598 35.3967 10.9625C35.4856 10.9874 35.576 11.0137 35.6644 11.0397C35.679 11.0433 35.6922 11.0483 35.7086 11.0541C35.758 11.0697 35.8093 11.0855 35.859 11.1019C35.9046 11.1177 35.9505 11.1316 35.9968 11.1491C36.0461 11.1647 36.0938 11.1808 36.142 11.1986C36.252 11.2373 36.3614 11.28 36.4691 11.3233C36.5487 11.3514 36.6262 11.385 36.7027 11.418C36.74 11.4319 36.7751 11.4476 36.8121 11.4635C36.8897 11.4971 36.9659 11.5321 37.042 11.5671C37.1024 11.5951 37.1627 11.6232 37.2211 11.6538C37.3715 11.7264 37.519 11.8019 37.664 11.8811C37.7244 11.9149 37.7845 11.9478 37.8446 11.9835C38.0518 12.1016 38.2536 12.2264 38.4509 12.3575C38.4523 12.3589 38.456 12.3614 38.4583 12.3625C38.5879 12.4471 38.713 12.5351 38.8375 12.6272C38.898 12.6695 38.9579 12.7158 39.0185 12.761C39.0842 12.8101 39.1482 12.8598 39.2114 12.9127C39.3123 12.9918 39.4121 13.0732 39.5073 13.1581C39.5566 13.1986 39.6048 13.2413 39.6531 13.2869C39.7116 13.3375 39.772 13.3904 39.8283 13.4457C39.9172 13.5289 40.0059 13.6113 40.0903 13.698C40.1501 13.7578 40.2091 13.8178 40.266 13.8776C40.6042 14.2291 40.9163 14.6048 41.2044 15.0022C41.7636 15.776 42.2232 16.6272 42.5614 17.5374C42.623 17.7162 42.6883 17.8946 42.7413 18.0821C42.8521 18.4372 42.9464 18.7999 43.0218 19.1691C43.1575 19.8409 43.2302 20.5355 43.2314 21.245L43.2297 21.2427Z" fill="url(#paint4_linear_1280_39376)"/>
</g>
<path d="M27.6562 40.75L37.8125 40.75L37.8125 53.625C37.8125 53.625 37.8125 54.4375 32.7344 54.4375C27.6563 54.4375 27.6562 53.625 27.6562 53.625L27.6562 40.75Z" fill="#19B757"/>
<path d="M54.0421 28.253C53.3603 26.7368 52.2809 25.4446 50.9327 24.508C50.5144 24.2129 50.0678 23.9552 49.6025 23.7346C48.4484 23.1867 47.1605 22.881 45.7964 22.8627L45.6874 22.8629C45.4131 22.8636 45.1377 22.8752 44.8744 22.8998C42.9955 23.0674 41.2709 23.8191 39.8987 24.9441C39.8904 24.9508 39.8831 24.9572 39.8746 24.9658C38.6921 25.9557 37.7649 27.2337 37.2031 28.6921C37.0987 28.6141 36.9961 28.5356 36.8861 28.4634C35.5723 27.5878 34.0027 27.1197 32.389 27.1683L32.3855 27.1666C31.595 27.1881 30.7913 27.3356 30.0053 27.6178C29.5326 27.7872 29.0844 27.9999 28.6671 28.2469C28.4057 28.402 28.1603 28.5755 27.9243 28.7572C27.2369 26.9693 26.0352 25.5077 24.5455 24.4965C22.898 23.3797 20.9002 22.8075 18.8505 22.9459C18.4581 22.9623 18.0647 23.0117 17.6706 23.0871C17.431 23.1333 17.1918 23.1917 16.9524 23.2579C15.7356 23.5974 14.6409 24.1753 13.7052 24.9175C13.6419 24.9671 13.5818 25.0174 13.5225 25.0704C12.7609 25.7067 12.1166 26.4673 11.6123 27.3145C11.3929 27.6694 11.198 28.0399 11.0302 28.4249C10.8756 28.7709 10.7475 29.1269 10.641 29.4927C10.5891 29.656 10.5467 29.819 10.5077 29.9864C10.5072 29.9933 10.5044 29.9991 10.5039 30.0059C10.4736 30.1321 10.4446 30.2617 10.4273 30.3949C10.3734 30.6469 10.3408 30.9022 10.3102 31.1663C10.3102 31.1663 10.3104 31.1668 10.3108 31.168C10.307 31.1961 10.3042 31.2238 10.3004 31.2519C10.2833 31.4913 10.274 31.7337 10.2738 31.9749C10.2711 32.8063 10.3762 33.6533 10.6114 34.4975C10.7232 34.9001 10.869 35.2929 11.0304 35.6698C11.0957 35.8234 11.161 35.977 11.2366 36.127C11.2876 36.2281 11.3379 36.3294 11.3949 36.4284C11.5325 36.6863 11.6857 36.9368 11.8492 37.1752C12.7945 38.573 14.1087 39.6609 15.6077 40.3408C15.6348 40.3554 15.6586 40.3692 15.6851 40.385L15.6877 40.3869C17.3294 41.1172 19.1919 41.3743 21.0584 41.0235C21.3186 40.976 21.5874 40.9121 21.8511 40.8386C23.4049 40.4049 24.7525 39.5946 25.8232 38.536C27.2493 41.191 30.0927 42.7437 33.0416 42.5713C33.763 42.5352 34.4909 42.3899 35.207 42.1328C35.3125 42.0945 35.4191 42.054 35.5228 42.0106C35.5605 41.9977 35.5978 41.981 35.6317 41.9655L35.6531 41.9581C35.7268 41.9251 35.7975 41.8941 35.8678 41.8593C35.8755 41.8567 35.8857 41.8503 35.894 41.8465C35.9265 41.8353 35.9544 41.819 35.9832 41.8052C36.0384 41.7795 36.0916 41.7507 36.1426 41.7236C36.1511 41.7206 36.1554 41.7163 36.1628 41.7128C36.2137 41.6857 36.269 41.6599 36.3187 41.6294C36.3933 41.5903 36.4636 41.5499 36.5338 41.5066C36.5338 41.5066 36.5355 41.506 36.5389 41.5048C36.5822 41.4803 36.6268 41.4516 36.6683 41.4248C36.6751 41.4196 36.6837 41.4167 36.6902 41.4106C36.746 41.378 36.8003 41.344 36.8543 41.3063C36.8696 41.2981 36.8864 41.2856 36.9006 41.2741C36.931 41.2569 36.958 41.238 36.985 41.2192C37.051 41.1744 37.1191 41.1251 37.1833 41.0753C37.2441 41.0324 37.3023 40.9903 37.3611 40.9414C37.3778 40.9289 37.3975 40.9164 37.4133 40.9014C37.5388 40.8017 37.6631 40.6958 37.7821 40.5859C37.8139 40.5558 37.8459 40.5266 37.8811 40.4953C37.9129 40.4653 37.9449 40.4361 37.9758 40.4034C38.0395 40.3442 38.0999 40.2832 38.159 40.2188C38.3021 40.0729 38.4365 39.9214 38.5628 39.7631C38.5987 39.7201 38.6352 39.676 38.6677 39.6313C38.6702 39.6304 38.6693 39.6278 38.6719 39.627C38.7078 39.584 38.7417 39.5407 38.7759 39.4926C38.7776 39.4892 38.7818 39.4848 38.784 39.4802C38.8162 39.4347 38.847 39.3935 38.8803 39.3485C38.8846 39.3442 38.8885 39.3361 38.8927 39.3318C38.8987 39.324 38.9068 39.3116 38.9125 39.303C38.9158 39.2961 38.9232 39.2897 38.9266 39.2828C38.9886 39.1935 39.049 39.1048 39.1067 39.0113C39.1392 38.9666 39.1679 38.9194 39.194 38.8731C39.2574 38.768 39.3156 38.6676 39.3721 38.562C39.3738 38.5586 39.3763 38.5549 39.378 38.5514C39.4138 38.586 39.4488 38.6208 39.4851 38.6542C40.2239 39.3547 41.0711 39.9146 42.0159 40.3298C42.1053 40.3727 42.1919 40.4185 42.2815 40.4508C43.3371 40.8767 44.5036 41.1161 45.7235 41.1132C46.4262 41.1115 47.1086 41.0343 47.7677 40.8782C51.8326 39.9455 54.8368 36.3104 54.8272 31.9698C54.8244 30.6388 54.5368 29.3868 54.0378 28.2545L54.0421 28.253Z" fill="url(#paint5_linear_1280_39376)"/>
<defs>
<linearGradient id="paint0_linear_1280_39376" x1="21.4634" y1="39.0437" x2="36.3455" y2="39.0126" gradientUnits="userSpaceOnUse">
<stop stop-color="#2DCD6F"/>
<stop offset="1" stop-color="#11AE4F"/>
</linearGradient>
<linearGradient id="paint1_linear_1280_39376" x1="28.9405" y1="39.0267" x2="43.8226" y2="38.9956" gradientUnits="userSpaceOnUse">
<stop stop-color="#11AE4F"/>
<stop offset="1" stop-color="#25C665"/>
</linearGradient>
<linearGradient id="paint2_linear_1280_39376" x1="24.9363" y1="25.5489" x2="14.4923" y2="20.3006" gradientUnits="userSpaceOnUse">
<stop stop-color="#11AE4F"/>
<stop offset="0.54" stop-color="#25C665"/>
<stop offset="1" stop-color="#50CC8D"/>
<stop offset="1" stop-color="#2DCD6F"/>
</linearGradient>
<linearGradient id="paint3_linear_1280_39376" x1="39.8287" y1="24.8369" x2="50.8318" y2="20.8929" gradientUnits="userSpaceOnUse">
<stop stop-color="#11AE4F"/>
<stop offset="0.49" stop-color="#25C665"/>
<stop offset="1" stop-color="#50CC8D"/>
<stop offset="1" stop-color="#2DCD6F"/>
</linearGradient>
<linearGradient id="paint4_linear_1280_39376" x1="32.5631" y1="31.9661" x2="32.5183" y2="10.5802" gradientUnits="userSpaceOnUse">
<stop stop-color="#25C665"/>
<stop offset="0.505208" stop-color="#2DCD6F"/>
</linearGradient>
<linearGradient id="paint5_linear_1280_39376" x1="32.5778" y1="42.5876" x2="32.5365" y2="22.8971" gradientUnits="userSpaceOnUse">
<stop stop-color="#11AE4F"/>
<stop offset="0.49" stop-color="#25C665"/>
<stop offset="1" stop-color="#2DCD6F"/>
</linearGradient>
<clipPath id="clip0_1280_39376">
<rect width="43.1437" height="43.1157" fill="white" transform="translate(5.36914 19.3145) rotate(-19)"/>
</clipPath>
</defs>
</svg>
