<svg width="65" height="65" viewBox="0 0 65 65" fill="none" xmlns="http://www.w3.org/2000/svg">
<path d="M43.6688 10.3441C42.592 15.6254 39.8649 18.2609 37.2684 19.5681C36.3361 19.2387 35.3618 19.0609 34.3642 19.0609C34.2803 19.0609 34.2011 19.0609 34.1172 19.0661C33.5718 19.0818 33.0357 19.1498 32.5043 19.2701C32.2898 19.3119 32.0754 19.3694 31.861 19.4374C31.8237 18.8151 31.7444 18.0046 31.5859 17.1157C34.5227 8.13225 42.9975 9.37676 43.0908 9.39767C43.2819 9.42382 43.4544 9.54931 43.5662 9.7271C43.6735 9.91012 43.7154 10.135 43.6688 10.3441Z" fill="#2DCD6F"/>
<path d="M33.2867 19.0988C32.8963 19.1994 32.506 19.3295 32.1215 19.4774C32.0387 19.507 31.9618 19.5366 31.8849 19.572C31.7666 19.5247 31.6483 19.4892 31.5241 19.4537C31.394 17.3421 30.7493 12.5982 27.6204 10.1612C27.2359 9.85955 27.1649 9.30354 27.4666 8.91906C27.7682 8.52867 28.3242 8.4636 28.7146 8.76527C31.2875 10.7705 32.435 13.9291 32.9377 16.4726C33.1388 17.4781 33.2394 18.3949 33.2867 19.0988Z" fill="#5F6166"/>
<ellipse cx="23.9431" cy="23.4256" rx="6.00751" ry="6.00763" fill="#7059DF"/>
<ellipse cx="32.777" cy="23.4256" rx="6.00751" ry="6.00763" fill="#755FE2"/>
<ellipse cx="41.613" cy="23.4256" rx="6.00751" ry="6.00763" fill="#6D57DE"/>
<ellipse cx="25.1481" cy="43.3592" rx="6.00751" ry="6.00763" fill="#755FE2"/>
<ellipse cx="32.7809" cy="43.3592" rx="6.00751" ry="6.00763" fill="#6D57DE"/>
<ellipse cx="40.4138" cy="43.3592" rx="6.00751" ry="6.00763" fill="#755FE2"/>
<ellipse cx="32.779" cy="50.0018" rx="6.00751" ry="6.00763" fill="#7059DF"/>
<ellipse cx="20.4372" cy="33.3963" rx="6.00751" ry="6.00763" fill="#7059DF"/>
<ellipse cx="28.6638" cy="33.3963" rx="6.00751" ry="6.00763" fill="#755FE2"/>
<ellipse cx="36.8923" cy="33.3963" rx="6.00751" ry="6.00763" fill="#7059DF"/>
<ellipse cx="45.1188" cy="33.3963" rx="6.00751" ry="6.00763" fill="#755FE2"/>
</svg>
