<svg width="65" height="65" viewBox="0 0 65 65" fill="none" xmlns="http://www.w3.org/2000/svg">
<path d="M53.4705 26.4062C53.3212 27.3066 52.5248 28.0758 51.4525 28.3609C50.9774 28.5102 50.2579 28.6143 49.7964 28.5328C47.4662 28.1211 46.059 26.3157 45.3577 25.7411C44.7513 25.2343 44.0998 24.7728 43.3985 24.361C43.3261 24.3248 43.2718 24.2706 43.222 24.2027C43.1541 24.1077 43.0817 24.0172 43.0093 23.9267C42.9912 23.9086 42.9731 23.8905 42.9641 23.8724C42.9596 23.8678 42.955 23.8633 42.946 23.8543L42.9369 23.8452C42.9279 23.8362 42.9143 23.8226 42.9007 23.809C42.8057 23.6959 42.6971 23.5873 42.5931 23.4742C42.5207 23.4018 42.4528 23.3339 42.3804 23.2615C42.3397 23.2208 42.2944 23.1756 42.2718 23.1258C42.2175 23.1077 42.1677 23.0851 42.127 23.0444C42.1225 23.0398 42.1134 23.0308 42.1089 23.0263C41.842 22.7955 41.5614 22.5964 41.2764 22.438C41.1406 22.3656 41.0456 22.2435 41.0004 22.0987C40.8601 21.6417 40.6972 21.2073 40.5162 20.7729C40.1316 19.8544 39.0683 18.411 38.4982 17.6147C38.4846 17.6011 38.4756 17.5921 38.4665 17.574C37.9778 16.7414 37.7471 15.8139 37.815 14.8953C37.8783 14.0085 38.2086 13.1262 38.7742 12.3434C39.4574 11.3163 40.566 10.7326 41.5886 10.8774C42.1542 10.9543 43.1858 11.3525 43.7288 13.09C44.3124 15.3659 44.1812 17.8409 43.3939 20.1485C44.2174 19.0897 44.8509 17.9043 45.231 16.6464C45.4753 15.8681 45.9187 15.1442 46.5024 14.5605C47.6245 13.4384 49.1403 12.9633 50.5611 13.2891C51.552 13.5108 52.2805 14.3569 52.5112 15.5559C52.8053 17.117 52.2171 19.4065 50.2353 20.7367C49.4073 21.3023 48.534 21.7865 47.6336 22.1801C49.172 22.4245 50.6516 22.9629 51.9773 23.7728C53.5022 24.7999 53.5745 25.8678 53.4841 26.4017L53.4705 26.4062Z" fill="#2DCD6F"/>
<path d="M14.6369 51.3375C13.9087 50.8363 13.3696 50.0891 13.0196 49.2757C12.6697 48.4624 12.6555 47.3983 12.5893 46.5093C12.8068 44.1354 13.3034 42.3999 14.0458 40.0969C15.6915 35.018 18.7086 30.5917 22.1512 26.4775C24.1563 24.0847 26.4025 21.7533 28.8994 20.1928C31.3963 18.6322 35.78 17.2466 40.0361 19.8854C42.689 21.5263 45.3277 24.1462 46.1553 27.168C46.9829 30.1803 46.4343 33.6608 44.8832 36.1577C43.3227 38.6545 40.996 40.9055 38.5985 42.9059C34.489 46.3438 29.7885 49.1149 24.7048 50.7559C22.3971 51.5031 20.6663 51.9949 18.2924 52.2124C17.4034 52.1462 16.3394 52.132 15.526 51.7821C14.7126 51.4321 13.9654 50.893 13.4642 50.1648C12.9251 49.3892 12.6792 48.4245 12.6413 47.4693C12.6035 46.514 12.7596 45.5541 12.9582 44.6177" fill="#FF974A"/>
<rect x="34.541" y="22.209" width="5.08789" height="1.70401" rx="0.852004" transform="rotate(45 34.541 22.209)" fill="#FF8A34"/>
<rect x="21.7637" y="42.4805" width="5.08789" height="1.70401" rx="0.852004" transform="rotate(45 21.7637 42.4805)" fill="#FF8A34"/>
<rect x="37.4531" y="29.7148" width="6.92508" height="1.70401" rx="0.852004" transform="rotate(45 37.4531 29.7148)" fill="#FF8A34"/>
<rect x="25.8906" y="26.0781" width="6.92508" height="1.70401" rx="0.852004" transform="rotate(45 25.8906 26.0781)" fill="#FF8A34"/>
<rect x="30.6973" y="36.4707" width="6.92508" height="1.70401" rx="0.852004" transform="rotate(45 30.6973 36.4707)" fill="#FF8A34"/>
<rect x="20.7051" y="33.4219" width="6.92508" height="1.70401" rx="0.852004" transform="rotate(45 20.7051 33.4219)" fill="#FF8A34"/>
</svg>
