<svg width="65" height="65" viewBox="0 0 65 65" fill="none" xmlns="http://www.w3.org/2000/svg">
<g clip-path="url(#clip0_1280_39403)">
<path d="M42.1735 42.9431L40.8019 44.0521L39.7377 44.9076L38.1597 46.1841C38.0312 46.2882 37.8753 46.338 37.7239 46.338C37.5266 46.338 37.3294 46.2565 37.1918 46.089C36.9487 45.7993 36.9945 45.3738 37.2881 45.1339L38.8661 43.8619L39.9304 43.0019L41.302 41.8929C41.5955 41.6575 42.0267 41.6983 42.2699 41.988C42.5084 42.2777 42.4671 42.7077 42.1735 42.9431Z" fill="white"/>
<path d="M49.0059 38.5364C48.5885 36.9838 47.8316 35.5443 46.7949 34.3222C46.6343 34.1275 46.4646 33.9374 46.2857 33.7563C46.1435 33.6115 46.0013 33.4712 45.8499 33.3308C45.4371 32.9506 45.0013 32.6066 44.5471 32.2988C44.4003 32.1992 44.2535 32.1041 44.1022 32.0136C43.9783 31.9367 43.8545 31.8642 43.7306 31.7963C43.6297 31.7375 43.5288 31.6832 43.4233 31.6334C43.3269 31.5836 43.2306 31.5338 43.1343 31.4885C43.0242 31.4342 42.9141 31.3799 42.7994 31.3346C42.6526 31.2667 42.5058 31.2079 42.3544 31.149C42.3269 31.1355 42.2994 31.1219 42.2673 31.1174C42.1618 31.0721 42.0563 31.0314 41.9462 30.9997C41.8682 30.968 41.7856 30.9408 41.7076 30.9182C41.6205 30.8865 41.5287 30.8593 41.437 30.8367C41.3544 30.8095 41.2718 30.7824 41.1847 30.7643C41.1067 30.7417 41.0241 30.719 40.9461 30.7009C40.8085 30.6647 40.6709 30.633 40.5333 30.6059C40.5149 30.6013 40.492 30.5968 40.4691 30.5923C40.2902 30.5561 40.1113 30.5244 39.9324 30.5017C39.8268 30.4836 39.7259 30.4701 39.6204 30.461C39.5149 30.4429 39.4094 30.4338 39.3039 30.4248C39.1296 30.4067 38.9599 30.3931 38.7855 30.3886C38.6112 30.3795 38.4369 30.375 38.2626 30.375C37.3176 30.375 36.3681 30.4972 35.4277 30.7417C34.5056 30.9816 33.6203 31.3346 32.8083 31.7918C32.6386 31.8869 32.4735 31.9819 32.3129 32.086C32.2441 32.1313 32.1753 32.172 32.1065 32.2173C32.0423 32.258 31.9735 32.3033 31.9092 32.3531H31.9047C31.7303 32.4708 31.5652 32.593 31.4092 32.7152C31.2074 32.8691 31.0147 33.0321 30.8266 33.1996V33.2041C30.6982 33.3173 30.5743 33.435 30.4505 33.5572C30.345 33.6568 30.2395 33.7609 30.1477 33.8695C29.822 34.209 29.5285 34.5621 29.2578 34.9332C29.1477 35.0871 29.0376 35.241 28.9367 35.3995C28.8633 35.5126 28.7899 35.6258 28.7257 35.7435C28.6798 35.8114 28.6431 35.8748 28.6064 35.9427C28.5193 36.0875 28.4367 36.2369 28.3633 36.3908C28.2899 36.5311 28.2165 36.676 28.1569 36.8208C28.1248 36.8751 28.1018 36.934 28.0789 36.9883C28.0238 37.1105 27.9734 37.2327 27.9229 37.3595C27.9092 37.3957 27.8908 37.4364 27.877 37.4772C27.8266 37.613 27.7761 37.7578 27.7257 37.8981C27.7073 37.9525 27.689 38.0022 27.6752 38.0566C27.6293 38.2059 27.5835 38.3553 27.5422 38.5092C27.5422 38.5092 27.5376 38.5137 27.5422 38.5183C27.4917 38.6993 27.4458 38.8804 27.4091 39.066C27.3679 39.2425 27.3357 39.4191 27.3082 39.5956C27.299 39.6363 27.2945 39.6771 27.2899 39.7223C27.2669 39.8717 27.244 40.0211 27.2302 40.175C27.2073 40.3515 27.1935 40.5281 27.1844 40.7091C27.1706 40.9038 27.166 41.0984 27.166 41.293C27.166 41.4379 27.166 41.5873 27.1752 41.7367C27.1752 41.8362 27.1844 41.9313 27.189 42.0309C27.1981 42.1486 27.2073 42.2663 27.2165 42.3839C27.2302 42.5016 27.244 42.6193 27.2578 42.7325C27.2715 42.8592 27.2899 42.9815 27.3128 43.1082C27.3312 43.2214 27.3495 43.33 27.3724 43.4386C27.3954 43.5563 27.4183 43.674 27.4504 43.7917C27.4779 43.9049 27.5055 44.0226 27.5376 44.1403C27.5697 44.276 27.611 44.4073 27.6523 44.5431C27.7257 44.7785 27.8036 45.0093 27.8954 45.2357C29.5468 49.5585 33.7074 52.3062 38.2397 52.3062C39.1892 52.3062 40.1525 52.1839 41.1159 51.935C46.0885 50.6359 49.3821 46.1908 49.3821 41.3338C49.3821 40.4104 49.2628 39.4734 49.0105 38.5364H49.0059ZM41.8085 44.9505C40.937 45.5797 40.6388 46.4488 40.9415 47.4673C41.0471 47.8158 40.8819 48.187 40.5562 48.3454C40.4507 48.3952 40.336 48.4224 40.2213 48.4224C39.9874 48.4224 39.7626 48.3137 39.6158 48.1191C39.6158 48.1191 39.6158 48.1191 39.6158 48.1146C38.9828 47.259 38.102 46.9648 37.0653 47.2636C36.7121 47.3632 36.3405 47.2047 36.18 46.8788C36.0148 46.5529 36.1158 46.1636 36.4093 45.9509C37.2809 45.3217 37.5791 44.4526 37.2763 43.4341C37.1708 43.0856 37.336 42.7144 37.6662 42.556C37.9919 42.3975 38.391 42.4926 38.6066 42.7868C39.2397 43.6423 40.125 43.9366 41.1571 43.6378C41.5104 43.5382 41.8819 43.7012 42.0425 44.0226C42.2076 44.3485 42.1067 44.7378 41.8131 44.9505H41.8085Z" fill="url(#paint0_linear_1280_39403)"/>
<path d="M50.6384 22.5482C49.8448 19.5878 47.9273 17.1118 45.2484 15.5682C42.5648 14.0292 39.4363 13.6173 36.4362 14.3958C33.6655 15.1201 31.326 16.7904 29.7801 19.0673C29.17 19.959 28.6838 20.9503 28.3397 22.0095C28.3397 22.0095 28.3382 22.014 28.3351 22.0231C28.3351 22.0231 28.3351 22.0321 28.3351 22.0367C28.3306 22.0548 28.326 22.0684 28.3214 22.0865C28.2939 22.1951 28.2663 22.3037 28.225 22.4124C28.225 22.4124 28.225 22.4169 28.225 22.4214C28.2205 22.4305 28.2159 22.435 28.2159 22.4441C28.2159 22.4441 28.2113 22.4667 28.2067 22.4757C27.9269 23.4806 27.7938 24.5263 27.8076 25.5719C27.8076 25.7213 27.8076 25.8661 27.8214 26.0155C27.8214 26.2328 27.8443 26.4501 27.8672 26.6628C27.8718 26.7171 27.8764 26.7669 27.8856 26.8212C27.9269 27.1834 27.9911 27.541 28.0691 27.8986C28.0874 28.0072 28.115 28.1158 28.1425 28.229C28.1562 28.2924 28.1746 28.3512 28.1883 28.4101C28.225 28.5368 28.2617 28.6681 28.2984 28.7948C28.3351 28.9216 28.3764 29.0438 28.4177 29.166C28.4636 29.2927 28.5049 29.415 28.5553 29.5372C28.7021 29.9219 28.8719 30.2976 29.0599 30.6643C29.2159 30.9721 29.3856 31.2708 29.5737 31.5605C29.693 31.7552 29.826 31.9453 29.959 32.1309C30.0921 32.3165 30.2343 32.4975 30.3811 32.6786C30.5279 32.8551 30.6792 33.0271 30.8352 33.1992C31.0233 33.0317 31.2159 32.8687 31.4178 32.7148C31.5737 32.5926 31.7389 32.4704 31.9132 32.3527C31.9774 32.3029 32.0462 32.2622 32.115 32.2169C32.1793 32.1716 32.2527 32.1309 32.3215 32.0856C32.482 31.9815 32.6472 31.8865 32.8169 31.7914C33.6288 31.3342 34.5142 30.9811 35.4362 30.7412C36.3766 30.4968 37.3262 30.3746 38.2711 30.3746C38.4455 30.3746 38.6198 30.3791 38.7941 30.3882C38.9684 30.3927 39.1381 30.4063 39.3124 30.4244C39.418 30.4334 39.5235 30.4425 39.629 30.4606C39.7345 30.4696 39.8354 30.4832 39.9409 30.5013C40.1198 30.524 40.2987 30.5556 40.4776 30.5919C40.5005 30.5964 40.5235 30.6009 40.5418 30.6054C40.6795 30.6326 40.8171 30.6643 40.9547 30.7005C41.0327 30.7186 41.1152 30.7412 41.1932 30.7639C41.2804 30.782 41.363 30.8091 41.4455 30.8363C41.5373 30.8589 41.629 30.8861 41.7162 30.9178C41.7942 30.9404 41.8767 30.9676 41.9547 30.9992C42.0648 31.0309 42.1703 31.0717 42.2758 31.1169C42.3079 31.1215 42.3354 31.135 42.363 31.1486C42.5144 31.2029 42.6611 31.2663 42.8079 31.3342C42.9226 31.3795 43.0327 31.4338 43.1428 31.4881C43.2391 31.5334 43.3355 31.5832 43.4318 31.633C43.5373 31.6828 43.6382 31.7371 43.7391 31.7959C43.863 31.8638 43.9869 31.9362 44.1107 32.0132C44.2621 32.1037 44.4089 32.1988 44.5557 32.2984C45.0098 32.6062 45.4456 32.9502 45.8585 33.3304C46.0098 33.4707 46.152 33.6111 46.2943 33.7559C46.4732 33.937 46.6429 34.1271 46.8034 34.3217C50.2668 31.5017 51.8035 26.862 50.6476 22.5482H50.6384ZM29.5187 22.8605C29.5187 22.8605 29.5278 22.8243 29.5324 22.8062C29.5324 22.8062 29.5187 22.8424 29.5141 22.8605H29.5187ZM47.2668 25.3546C46.2254 25.6217 45.6245 26.3188 45.5236 27.378C45.4915 27.7401 45.1979 28.0208 44.8355 28.0525H44.7759C44.4318 28.0525 44.1337 27.8261 44.0465 27.4957C43.9135 26.9797 43.6658 26.5768 43.3217 26.2871C42.9777 25.9929 42.5281 25.8209 41.996 25.7711C41.629 25.7394 41.3446 25.4542 41.3125 25.0966C41.2804 24.7345 41.5189 24.4041 41.8767 24.3135C42.918 24.0465 43.5236 23.3494 43.6199 22.2902C43.6566 21.928 43.9456 21.6474 44.308 21.6157C44.675 21.5795 45.0052 21.8239 45.097 22.1725C45.3676 23.2 46.0787 23.7975 47.1521 23.8971C47.5191 23.9288 47.8035 24.2185 47.831 24.5761C47.8631 24.9337 47.6246 25.2641 47.2668 25.3546Z" fill="url(#paint1_linear_1280_39403)"/>
<path d="M41.8074 44.9549C40.9358 45.5841 40.6376 46.4532 40.9404 47.4717C41.0459 47.8202 40.8808 48.1914 40.5551 48.3498C40.4496 48.3996 40.3349 48.4268 40.2202 48.4268C39.9863 48.4268 39.7615 48.3182 39.6147 48.1235C39.6147 48.1235 39.6147 48.1235 39.6147 48.119C38.9816 47.2635 38.1009 46.9692 37.0642 47.268C36.711 47.3676 36.3394 47.2092 36.1788 46.8832C36.0137 46.5573 36.1146 46.168 36.4082 45.9553C37.2798 45.3261 37.5779 44.457 37.2752 43.4385C37.1697 43.09 37.3348 42.7188 37.6651 42.5604C37.9908 42.402 38.3899 42.497 38.6055 42.7912C39.2385 43.6468 40.1239 43.941 41.156 43.6422C41.5092 43.5426 41.8808 43.7056 42.0413 44.027C42.2065 44.3529 42.1056 44.7422 41.812 44.9549H41.8074Z" fill="#4835A9"/>
<path d="M23.0324 37.4096C23.0324 37.4096 23.014 37.4187 23.0002 37.4278C22.28 37.7537 21.9498 38.315 22.014 39.0981C22.0553 39.4421 21.8259 39.7725 21.4681 39.863C21.4039 39.8811 21.3397 39.8902 21.28 39.8902C20.991 39.8902 20.725 39.7227 20.6057 39.4511C20.28 38.7631 19.6974 38.4281 18.9176 38.496C18.5781 38.5322 18.2478 38.3195 18.1423 37.9845C18.0414 37.6496 18.1928 37.2874 18.5093 37.1245C19.2616 36.7759 19.5919 36.2146 19.5277 35.4361C19.491 35.0875 19.7204 34.7571 20.0736 34.6666C20.4268 34.576 20.7892 34.748 20.936 35.0785C21.2663 35.7801 21.8351 36.1015 22.6241 36.0336C23.0048 36.0155 23.3168 36.2418 23.4039 36.5722C23.4957 36.9027 23.3443 37.2467 23.0324 37.4096Z" fill="#4835A9"/>
<path d="M47.83 24.5792C47.8621 24.9368 47.6235 25.2672 47.2657 25.3577C46.2244 25.6248 45.6235 26.3219 45.5226 27.3811C45.4905 27.7432 45.1969 28.0239 44.8345 28.0555H44.7749C44.4308 28.0555 44.1326 27.8292 44.0455 27.4988C43.9125 26.9828 43.6647 26.5799 43.3207 26.2902C42.9767 25.996 42.5271 25.824 41.995 25.7742C41.628 25.7425 41.3436 25.4573 41.3115 25.0997C41.2794 24.7376 41.5179 24.4071 41.8757 24.3166C42.917 24.0495 43.5225 23.3525 43.6189 22.2932C43.6556 21.9311 43.9446 21.6505 44.307 21.6188C44.6739 21.5826 45.0042 21.827 45.096 22.1756C45.3666 23.2031 46.0776 23.8006 47.1511 23.9002C47.518 23.9319 47.8025 24.2216 47.83 24.5792Z" fill="#4835A9"/>
<path d="M30.3732 32.6814C30.2264 32.5003 30.0842 32.3193 29.9511 32.1337C29.8181 31.9481 29.6851 31.758 29.5658 31.5633C29.3777 31.2736 29.208 30.9749 29.052 30.6671C28.864 30.3004 28.6942 29.9247 28.5474 29.54C28.497 29.4178 28.4557 29.2955 28.4098 29.1688C28.3685 29.0466 28.3273 28.9244 28.2906 28.7976C28.2539 28.6709 28.2172 28.5396 28.1805 28.4129C28.1667 28.354 28.1483 28.2952 28.1346 28.2318C28.1071 28.1186 28.0795 28.01 28.0612 27.9014C27.9832 27.5438 27.919 27.1862 27.8777 26.824C27.8685 26.7697 27.8639 26.7199 27.8594 26.6656C27.4832 26.5343 27.0979 26.4302 26.7079 26.3442C26.6896 26.3442 26.6758 26.3442 26.6575 26.3442C26.4969 26.3125 26.341 26.2809 26.1804 26.2582C26.1575 26.2492 26.1345 26.2446 26.1116 26.2446C25.9556 26.2175 25.7951 26.1994 25.6391 26.1813H25.6254C25.4556 26.1632 25.2859 26.1496 25.1116 26.1405C24.9464 26.1315 24.7767 26.127 24.607 26.127C23.7583 26.127 22.9051 26.2356 22.0565 26.4574C21.5243 26.5977 21.006 26.7788 20.5152 26.9961C20.4005 27.0504 20.2858 27.1002 20.1757 27.159C20.0564 27.2179 19.9372 27.2767 19.8225 27.3401C19.7032 27.4034 19.5885 27.4713 19.4738 27.5392C19.4234 27.5664 19.3775 27.5936 19.3271 27.6252C19.2628 27.666 19.1986 27.7067 19.139 27.7475C19.1252 27.752 19.116 27.761 19.1069 27.7656C18.6619 28.0553 18.249 28.3767 17.8637 28.7252C15.171 31.1605 14.0196 34.9039 14.9737 38.4754C15.6572 41.0148 17.2949 43.1423 19.5977 44.4595C21.139 45.3467 22.8501 45.7948 24.5886 45.7948C25.4419 45.7948 26.3043 45.6862 27.1529 45.4644C27.4052 45.401 27.6483 45.3241 27.8915 45.2426C27.7997 45.0163 27.7217 44.7854 27.6483 44.55C27.6071 44.4142 27.5658 44.283 27.5337 44.1472C27.5015 44.0295 27.474 43.9118 27.4465 43.7986C27.4144 43.6809 27.3915 43.5632 27.3685 43.4455C27.3456 43.3369 27.3272 43.2283 27.3089 43.1151C27.2859 42.9884 27.2676 42.8662 27.2538 42.7394C27.2401 42.6262 27.2263 42.5086 27.2125 42.3909C27.2034 42.2732 27.1942 42.1555 27.185 42.0378C27.1804 41.9382 27.1713 41.8431 27.1713 41.7436C27.1621 41.5942 27.1621 41.4448 27.1621 41.3C27.1621 41.1053 27.1667 40.9107 27.1804 40.716C27.1896 40.535 27.2034 40.3584 27.2263 40.1819C27.2401 40.028 27.263 39.8786 27.2859 39.7292C27.2905 39.684 27.2951 39.6432 27.3043 39.6025C27.3318 39.426 27.3639 39.2494 27.4052 39.0729C27.4419 38.8873 27.4878 38.7062 27.5382 38.5252C27.5337 38.5207 27.5382 38.5161 27.5382 38.5161C27.5795 38.3622 27.6254 38.2129 27.6713 38.0635C27.685 38.0092 27.7034 37.9594 27.7217 37.905C27.7722 37.7647 27.8227 37.6199 27.8731 37.4841C27.8869 37.4433 27.9052 37.4026 27.919 37.3664C27.9694 37.2396 28.0199 37.1174 28.075 36.9952C28.0979 36.9409 28.1208 36.882 28.1529 36.8277C28.2126 36.6829 28.286 36.538 28.3594 36.3977C28.4328 36.2438 28.5153 36.0944 28.6025 35.9496C28.6392 35.8817 28.6759 35.8183 28.7218 35.7504C28.786 35.6327 28.8594 35.5196 28.9328 35.4064C29.0337 35.248 29.1438 35.0941 29.2539 34.9402C29.5245 34.569 29.8181 34.2159 30.1438 33.8764C30.2355 33.7678 30.3411 33.6637 30.4466 33.5641C30.5704 33.4419 30.6943 33.3242 30.8227 33.211C30.6668 33.039 30.5154 32.867 30.3732 32.6859V32.6814ZM23.0336 37.4117C23.0336 37.4117 23.0152 37.4207 23.0014 37.4298C22.2812 37.7557 21.951 38.317 22.0152 39.1001C22.0565 39.4441 21.8271 39.7745 21.4693 39.865C21.4051 39.8832 21.3409 39.8922 21.2812 39.8922C20.9922 39.8922 20.7262 39.7247 20.6069 39.4531C20.2812 38.7651 19.6986 38.4301 18.9188 38.498C18.5793 38.5342 18.249 38.3215 18.1435 37.9865C18.0426 37.6516 18.194 37.2894 18.5105 37.1265C19.2628 36.7779 19.5931 36.2166 19.5289 35.4381C19.4922 35.0895 19.7216 34.7591 20.0748 34.6686C20.428 34.578 20.7904 34.75 20.9372 35.0805C21.2675 35.7821 21.8363 36.1035 22.6253 36.0356C23.006 36.0175 23.318 36.2438 23.4051 36.5742C23.4969 36.9047 23.3455 37.2487 23.0336 37.4117Z" fill="url(#paint2_linear_1280_39403)"/>
<path d="M29.7805 19.0691C29.1704 19.9609 28.6841 20.9522 28.3401 22.0114C28.3401 22.0114 28.3385 22.0159 28.3355 22.025C28.3355 22.025 28.3355 22.034 28.3355 22.0386C28.3309 22.0567 28.3263 22.0702 28.3217 22.0884C28.2942 22.197 28.2667 22.3056 28.2254 22.4143C28.2254 22.4143 28.2254 22.4188 28.2254 22.4233C28.2208 22.4324 28.2162 22.4369 28.2162 22.446C28.2162 22.446 28.2116 22.4686 28.207 22.4776C27.9272 23.4825 27.7942 24.5282 27.8079 25.5738C27.8079 25.7232 27.8079 25.868 27.8217 26.0174C27.7667 25.8907 27.7116 25.7684 27.652 25.6462C27.2208 24.7862 26.551 24.0121 25.7116 23.3694C25.6932 23.3558 25.6795 23.3422 25.6611 23.3286C24.8446 22.7175 23.8721 22.2287 22.8078 21.9073C22.551 21.4139 22.3491 20.8888 22.2023 20.3366C21.4959 17.6976 22.1564 14.9771 23.9225 13.2389C24.1014 13.0669 24.3537 12.999 24.5923 13.0624C27.0006 13.7142 28.9318 15.7602 29.6383 18.3947C29.6979 18.6165 29.7484 18.8428 29.7896 19.0691H29.7805Z" fill="#2DCD6F"/>
<path d="M27.8584 26.6645C27.4823 26.5332 27.097 26.4291 26.707 26.3431C26.6887 26.3431 26.6749 26.3431 26.6566 26.3431C26.496 26.3114 26.3401 26.2798 26.1795 26.2571C26.1566 26.2481 26.1336 26.2435 26.1107 26.2435C25.9547 26.2164 25.7942 26.1983 25.6382 26.1802H25.6245C25.4547 26.1621 25.285 26.1485 25.1107 26.1394C24.9455 26.1304 24.7758 26.1258 24.6061 26.1258C23.7574 26.1258 22.9042 26.2345 22.0556 26.4563C21.5234 26.5966 21.0051 26.7777 20.5142 26.9949C20.3996 27.0493 20.2849 27.0991 20.1748 27.1579C20.0555 27.2167 19.9363 27.2756 19.8216 27.339C19.7023 27.4023 19.5876 27.4702 19.4729 27.5381C19.4225 27.5653 19.3766 27.5925 19.3261 27.6241C19.2619 27.6649 19.1977 27.7056 19.1381 27.7464C19.1243 27.7509 19.1151 27.7599 19.106 27.7645C18.661 28.0542 18.2481 28.3755 17.8628 28.7241C15.7848 28.2216 14.0003 27.2575 12.7251 25.9267C12.5278 25.7185 12.482 25.4152 12.6058 25.1617C13.7985 22.7581 17.0371 21.2462 20.4867 21.4907C21.2895 21.5404 22.0647 21.6853 22.7987 21.9116C23.8629 22.233 24.8354 22.7219 25.652 23.333C25.6703 23.3465 25.6841 23.3601 25.7024 23.3737C26.5419 24.0165 27.2116 24.7905 27.6428 25.6506C27.7025 25.7728 27.7575 25.895 27.8126 26.0217C27.8126 26.239 27.8355 26.4563 27.8584 26.669V26.6645Z" fill="#2DCD6F"/>
</g>
<defs>
<linearGradient id="paint0_linear_1280_39403" x1="42.0517" y1="51.2424" x2="37.0147" y2="37.7045" gradientUnits="userSpaceOnUse">
<stop stop-color="#755FE2"/>
<stop offset="1" stop-color="#6952DC"/>
</linearGradient>
<linearGradient id="paint1_linear_1280_39403" x1="43.785" y1="35.3855" x2="37.9584" y2="21.835" gradientUnits="userSpaceOnUse">
<stop stop-color="#755FE2"/>
<stop offset="1" stop-color="#6952DC"/>
</linearGradient>
<linearGradient id="paint2_linear_1280_39403" x1="30.3594" y1="35.2027" x2="13.9584" y2="37.4052" gradientUnits="userSpaceOnUse">
<stop stop-color="#755FE2"/>
<stop offset="0.739583" stop-color="#6952DC"/>
</linearGradient>
<clipPath id="clip0_1280_39403">
<rect width="38.4825" height="39.2679" fill="white" transform="translate(12.5371 13.0371)"/>
</clipPath>
</defs>
</svg>
