<svg width="65" height="64" viewBox="0 0 65 64" fill="none" xmlns="http://www.w3.org/2000/svg">
<path fill-rule="evenodd" clip-rule="evenodd" d="M51.9193 30.5371C51.8569 29.4421 51.5312 28.4926 51.0391 27.6956C50.1866 26.3025 48.6411 25.4986 47.1719 25.3253C47.1372 25.3253 47.1026 25.3184 47.0679 25.3253C45.966 25.3669 44.5591 25.4016 43.3601 25.8451C42.9581 25.9907 42.5839 26.1917 42.2443 26.4481C42.1819 26.4966 42.1334 26.552 42.0987 26.6075C42.0918 26.6214 42.0849 26.6421 42.071 26.656C42.0433 26.7045 42.0225 26.753 42.0086 26.8085C42.0086 26.8154 42.0017 26.8223 42.0017 26.8293C41.9809 26.9402 41.974 27.051 42.0086 27.1619L43.069 30.5925C43.173 30.9391 43.5403 31.1331 43.8868 31.0292C43.9492 31.0084 44.0046 30.9806 44.0601 30.946C44.6492 30.551 45.2521 30.1074 45.8204 29.8371C46.2362 29.6708 46.5343 29.7054 46.7838 29.8371C47.0402 29.9757 47.2758 30.2599 47.4144 30.7242C47.6917 31.639 47.5115 33.2123 46.257 34.9518C41.2324 41.9724 42.0294 49.7 42.0364 49.7623V49.8039C42.0433 49.9009 42.0779 49.9841 42.1195 50.0603C42.1403 50.095 42.168 50.1158 42.1888 50.1435C42.2165 50.1782 42.2443 50.2197 42.2859 50.2475C42.2928 50.2475 42.3066 50.2544 42.3136 50.2613C42.4383 50.3445 42.5839 50.3999 42.7502 50.3861C42.9096 50.3722 43.0482 50.296 43.1522 50.1851C43.1591 50.1782 43.173 50.1712 43.1799 50.1643C43.2145 50.1296 43.2353 50.0811 43.2561 50.0395C43.2769 50.0049 43.2977 49.9772 43.3116 49.9425C43.3393 49.8594 43.3532 49.7693 43.3462 49.6722V49.6584C43.3462 49.6584 43.3462 49.5891 43.3601 49.3811C43.3601 49.3811 43.3601 49.3742 43.3601 49.3673C43.3601 49.3326 43.3739 49.2841 43.3739 49.2425C43.3739 49.194 43.3878 49.1524 43.3947 49.097C43.4086 48.993 43.4294 48.8752 43.4571 48.7435C43.4571 48.7297 43.4571 48.7227 43.4571 48.7089C43.5472 48.2723 43.7066 47.6832 43.9769 46.9277C44.7046 44.911 46.257 41.7229 49.5352 37.1419C51.3856 34.5637 52.0094 32.346 51.9054 30.5232L51.9193 30.5371Z" fill="#F8EECC"/>
<path fill-rule="evenodd" clip-rule="evenodd" d="M40.7197 23.8867C39.2366 23.8867 37.9198 24.7184 37.0119 25.9589C36.104 27.1995 35.5703 28.8698 35.5703 30.6994C35.5703 32.5291 36.1109 34.1993 37.0119 35.4399C37.9128 36.6804 39.2296 37.519 40.7197 37.519C41.0939 37.519 41.4682 37.4636 41.8216 37.3596C43.8869 36.7636 45.1136 34.6082 44.5661 32.5221V32.5152C44.4275 31.9469 44.3513 31.337 44.3513 30.6994C44.3513 30.0618 44.4275 29.4519 44.58 28.9044C44.58 28.9044 44.58 28.8975 44.58 28.8905C45.1206 26.7975 43.8939 24.6421 41.8147 24.0392C41.4612 23.9352 41.0939 23.8867 40.7197 23.8867Z" fill="#FFD53F"/>
<path fill-rule="evenodd" clip-rule="evenodd" d="M44.6841 33.7617C44.7049 33.3528 44.6703 32.9439 44.5663 32.5212C44.4277 31.9459 44.3515 31.336 44.3515 30.7054C44.3515 30.0747 44.4277 29.4579 44.5871 28.9034C44.698 28.4807 44.7326 28.0579 44.7049 27.649C44.5525 27.649 44.4624 27.6421 44.2129 27.6351C43.804 27.6213 43.4366 27.6074 43.2842 27.6074C41.7525 27.6074 40.6367 29.0698 40.6367 30.7054C40.6367 32.341 41.7456 33.8033 43.2842 33.8033L44.6911 33.7617H44.6841Z" fill="#FBCD2C"/>
<path fill-rule="evenodd" clip-rule="evenodd" d="M35.2447 20.9402C35.21 20.7947 35.1685 20.6561 35.1269 20.5105C35.1061 20.4273 35.0853 20.3442 35.0576 20.2679C34.8497 19.6165 34.5655 19.0066 34.2259 18.4591C33.0685 16.5601 30.9339 15.4443 28.9241 15.2017C28.6884 15.174 28.4459 15.1602 28.2102 15.1602C27.9954 15.1602 27.7736 15.174 27.5518 15.2017C27.4825 15.2087 27.4063 15.2225 27.337 15.2295C27.1914 15.2503 27.039 15.278 26.8865 15.3057C26.7964 15.3265 26.7063 15.3403 26.6162 15.3681C26.4845 15.4027 26.3459 15.4443 26.2073 15.4859C26.0895 15.5205 25.9786 15.5552 25.8608 15.5968C25.6806 15.6592 25.5004 15.7285 25.3202 15.8116C25.1747 15.874 25.036 15.9433 24.8905 16.0195C24.8143 16.0542 24.738 16.0958 24.6618 16.1304C24.5093 16.2136 24.3569 16.2968 24.2044 16.3869C24.142 16.4215 24.0866 16.4562 24.0242 16.4977C23.6499 16.7334 23.2688 16.9829 22.8876 17.2809L22.9153 17.2532L21.0926 18.5076C20.8223 18.6878 20.7322 19.0412 20.8777 19.3323L22.6727 22.9986C22.8321 23.3243 23.2203 23.456 23.546 23.3035C23.5737 23.2896 23.6014 23.2689 23.6292 23.255L25.535 21.9174C25.7776 21.758 26.0133 21.5986 26.2766 21.4323C27.0598 20.9125 27.7043 20.8432 28.2172 20.9956C28.73 21.155 29.1666 21.557 29.4439 22.2431C30.0052 23.6223 29.8112 26.0965 27.8568 28.8202C20.7461 38.7516 21.8827 49.7087 21.8896 49.7711V49.7988V49.8127C21.8965 49.9097 21.9312 49.9929 21.9728 50.0691C21.9936 50.1038 22.0143 50.1246 22.0351 50.1454C22.0698 50.187 22.0975 50.2285 22.1391 50.2563C22.1391 50.2563 22.153 50.2563 22.1599 50.2701C22.2846 50.3602 22.4371 50.4157 22.6034 50.3949C22.7698 50.381 22.9015 50.2978 23.0123 50.187C23.0123 50.187 23.0262 50.18 23.0331 50.1731C23.0678 50.1315 23.0955 50.083 23.1163 50.0345C23.1302 50.0068 23.1509 49.986 23.1648 49.9513C23.1925 49.8682 23.2064 49.7781 23.1995 49.681L23.2757 48.8009C23.3797 48.1425 23.6084 47.1098 24.1282 45.6544C25.1747 42.7505 27.3994 38.1833 32.0913 31.634C35.2239 27.2608 35.8615 23.6916 35.2239 20.9402H35.2447Z" fill="#F8EECC"/>
<path fill-rule="evenodd" clip-rule="evenodd" d="M18.4597 16.2637C16.4499 16.2637 14.6549 17.3864 13.4005 19.1052C12.1461 20.8239 11.3906 23.1526 11.3906 25.71C11.3906 28.2673 12.1391 30.596 13.3935 32.3147C14.648 34.0335 16.443 35.1562 18.4528 35.1562C18.9587 35.1562 19.4577 35.08 19.9429 34.9414C22.7567 34.1305 24.4131 31.2059 23.6646 28.3713L23.6853 28.5376C23.6853 28.4822 23.6853 28.4336 23.6646 28.3851C23.4566 27.5535 23.3458 26.6525 23.3458 25.7169C23.3458 24.7813 23.4566 23.8942 23.6853 23.0764C23.6853 23.0764 23.6853 23.0694 23.6853 23.0625C24.42 20.221 22.7497 17.2894 19.929 16.4785C19.4508 16.3399 18.9518 16.2706 18.4459 16.2706L18.4597 16.2637Z" fill="#FFD53F"/>
<path fill-rule="evenodd" clip-rule="evenodd" d="M23.6706 28.3771C23.4627 27.5455 23.3518 26.6445 23.3518 25.7089C23.3518 24.7733 23.4627 23.8862 23.6983 23.0684C23.6983 23.0684 23.6983 23.0614 23.6983 23.0545C23.8231 22.5832 23.8716 22.105 23.8647 21.6407H22.6795C22.4924 21.606 22.3053 21.5645 22.1043 21.5645C20.1014 21.5645 18.6113 23.4911 18.6113 25.702C18.6113 27.3168 19.3737 29.091 20.3578 30.0127C21.4944 31.0038 22.6241 30.9969 23.6983 30.9969C23.8785 30.1583 23.9201 29.292 23.6706 28.3771Z" fill="#FBCD2C"/>
</svg>
