<svg width="65" height="65" viewBox="0 0 65 65" fill="none" xmlns="http://www.w3.org/2000/svg">
<path d="M36.6546 21.3343C36.3061 21.1065 35.8772 21.0797 35.5019 21.2539L34.8184 24.2691C34.872 25.7566 34.9926 27.941 35.3411 30.2192C36.1855 35.9414 37.9278 39.4793 40.4878 40.672C41.0909 40.9668 41.8147 40.7122 42.0961 40.1091C42.391 39.5061 42.1363 38.8092 41.5332 38.5144C38.2227 36.9599 37.1237 27.7802 37.2041 22.3662C37.2175 21.9507 37.0164 21.5621 36.668 21.3343H36.6546Z" fill="#BF7745"/>
<path d="M35.595 24.1196C35.7022 23.9856 35.8094 23.8515 35.8898 23.7175C36.3589 22.9537 36.2651 21.895 35.8898 21.1445C30.2204 24.2402 26.4006 30.6057 24.3097 36.5021C23.8004 37.9226 23.3447 39.3834 23.0633 40.8709C22.9426 41.5275 23.3715 42.144 24.0283 42.2646C24.1489 42.278 24.2695 42.278 24.3902 42.2646C24.8995 42.1976 25.3284 41.8089 25.4222 41.2863C26.1995 37.333 27.7945 33.5271 30.0596 30.1902C31.1854 28.5419 32.4721 27.0008 33.9196 25.6205C34.4289 25.1246 35.1125 24.6824 35.595 24.1196V24.1196Z" fill="#BF7745"/>
<g style="mix-blend-mode:multiply" opacity="0.36">
<g style="mix-blend-mode:multiply">
<path d="M36.6541 21.3284C36.3057 21.1006 35.8768 21.0738 35.5015 21.248C35.3809 21.3016 35.3139 21.583 35.2602 21.6902C35.019 22.1861 34.8582 22.5613 34.8314 23.1376C34.7777 25.3755 34.9654 27.7207 35.2871 29.9319C35.2871 30.0257 35.3139 30.1195 35.3273 30.2133C36.1716 35.9355 37.914 39.4734 40.474 40.6661C41.0771 40.9609 41.8009 40.7063 42.0823 40.1033C42.3772 39.5002 42.1225 38.8034 41.5194 38.5085C38.2089 36.954 37.1098 27.7743 37.1903 22.3603C37.2037 21.9449 37.0026 21.5562 36.6541 21.3284V21.3284Z" fill="#BF7745"/>
</g>
</g>
<path d="M40.9951 53.0151C46.4501 53.0151 50.873 48.6195 50.873 43.1921C50.873 37.7647 46.4501 33.3691 40.9951 33.3691C35.5401 33.3691 31.1172 37.7647 31.1172 43.1921C31.1172 48.6195 35.5401 53.0151 40.9951 53.0151V53.0151Z" fill="url(#paint0_linear_1280_39751)"/>
<path d="M24.5654 53.0151C30.0204 53.0151 34.4433 48.6195 34.4433 43.1921C34.4433 37.7647 30.0204 33.3691 24.5654 33.3691C19.1104 33.3691 14.6875 37.7647 14.6875 43.1921C14.6875 48.6195 19.1104 53.0151 24.5654 53.0151V53.0151Z" fill="url(#paint1_linear_1280_39751)"/>
<path d="M45.2195 17.3034C45.5009 17.5178 45.5546 17.9198 45.3803 18.2146C44.5895 19.6217 44.0132 20.7206 43.0884 21.7123C41.7883 23.106 40.0594 23.6421 38.6253 23.6823C37.553 23.7091 36.588 23.575 35.2611 22.8916C34.9663 22.7308 34.8054 22.3824 34.8859 22.0607C35.5694 19.4207 37.1107 17.893 37.8479 17.29C38.6655 16.6199 39.6305 16.1911 40.6357 16.0437C42.2038 15.8024 43.8256 16.2581 45.2061 17.3034H45.2195Z" fill="#2DCD6F"/>
<g style="mix-blend-mode:multiply" opacity="0.26">
<path d="M45.2195 17.3034C45.5009 17.5178 45.5546 17.9198 45.3803 18.2146C44.5895 19.6217 44.0132 20.7206 43.0884 21.7123C41.7883 23.106 40.0594 23.6421 38.6253 23.6823C37.553 23.7091 36.588 23.575 35.2611 22.8916C34.9663 22.7308 34.8054 22.3824 34.8859 22.0607C35.5694 19.4207 37.1107 17.893 37.8479 17.29C38.6655 16.6199 39.6305 16.1911 40.6357 16.0437C42.2038 15.8024 43.8256 16.2581 45.2061 17.3034H45.2195Z" fill="#2DCD6F"/>
</g>
<path d="M35.8764 22.1503C35.8228 22.6327 35.3939 23.008 34.898 23.0214C32.6329 23.1152 30.904 23.2492 29.0276 22.8739C26.3872 22.3513 24.4706 20.703 23.385 19.0412C22.554 17.7815 22.0179 16.5353 21.857 14.4715C21.8168 14.0025 22.1251 13.5602 22.5808 13.4262C26.2398 12.3005 29.2018 12.9974 30.4751 13.4262C31.8824 13.9086 33.1021 14.7261 34.0268 15.7982C35.4744 17.4867 36.1177 19.7381 35.8764 22.1369V22.1503Z" fill="#2DCD6F"/>
<defs>
<linearGradient id="paint0_linear_1280_39751" x1="40.9951" y1="33.3691" x2="40.9951" y2="53.0151" gradientUnits="userSpaceOnUse">
<stop stop-color="#FF4048"/>
<stop offset="1" stop-color="#FF464F"/>
</linearGradient>
<linearGradient id="paint1_linear_1280_39751" x1="24.5654" y1="33.3691" x2="24.5654" y2="53.0151" gradientUnits="userSpaceOnUse">
<stop stop-color="#FF6067"/>
<stop offset="1" stop-color="#FF464F"/>
</linearGradient>
</defs>
</svg>
