<svg width="65" height="65" viewBox="0 0 65 65" fill="none" xmlns="http://www.w3.org/2000/svg">
<g clip-path="url(#clip0_1280_39715)">
<path d="M38.3531 21.5371C38.3531 21.5371 31.4805 18.6443 26.959 21.7794C26.959 21.7794 29.4845 24.7015 32.2866 25.1961C35.0856 25.6876 38.0558 22.1302 38.3523 21.5379L38.3531 21.5371Z" fill="#FF974A"/>
<path d="M18.8031 24.1792C18.8031 24.1792 18.3378 21.5555 24.4383 20.9979C29.1175 20.5687 29.8904 22.3824 30.8575 23.6592C30.8575 23.6592 21.7669 27.1866 18.8031 24.1784V24.1792Z" fill="#FF8A34"/>
<path d="M46.4565 24.4539C46.4565 24.4539 46.9805 21.8411 40.891 21.1611C36.2229 20.6389 35.4104 22.4364 34.418 23.694C34.418 23.694 43.4292 27.4022 46.4565 24.4539Z" fill="#FF8A34"/>
<path d="M23.2394 43.6745C22.0258 38.8718 17.2871 27.7504 23.5922 24.1914C20.6846 24.2129 14.0609 25.1083 12.8124 32.6523C11.8533 38.4372 16.6546 55.0436 28.5021 50.4178C26.3777 49.3294 24.1304 47.2042 23.2394 43.6745Z" fill="#FF8A34"/>
<path d="M33.4239 25.5599C32.1905 26.0875 31.8187 25.4629 31.8187 25.4629C32.3197 19.3757 27.5335 17.4674 25.0793 16.8913C24.3199 16.7129 23.9085 15.8999 24.22 15.2045C24.2256 15.193 24.2303 15.1814 24.2351 15.1707C24.5046 14.5753 25.2196 14.3007 25.8506 14.5207C34.8737 17.6659 33.4239 25.5599 33.4239 25.5599Z" fill="#5F6166"/>
<path d="M52.3237 33.0477C51.2298 25.4307 44.5411 24.4415 41.6668 24.373C47.6532 27.8551 42.3279 37.822 40.152 43.5623C38.9368 46.7651 37.4125 48.9688 35.5742 50.1895C47.8046 55.999 53.175 38.9619 52.3237 33.047V33.0477Z" fill="#FF8A34"/>
<path d="M47.3695 23.0551C43.5773 21.2329 39.7716 22.6374 38.3574 23.2966C38.3709 23.2989 38.3852 23.2997 38.3978 23.3035C39.7811 23.5019 40.8853 23.8704 41.7525 24.375C44.6712 24.4626 51.2402 25.5056 52.3238 33.0481C52.6726 35.4695 51.979 39.7537 50.1986 43.5719C59.0331 31.7944 51.6127 25.0926 47.3703 23.0551H47.3695Z" fill="#FF974A"/>
<path d="M17.9885 22.7589C21.8179 21.0145 25.5935 22.4928 26.9926 23.182C26.9799 23.1835 26.9656 23.1843 26.9522 23.1874C25.5626 23.3581 24.4528 23.705 23.5777 24.1911C20.6551 24.2204 14.0678 25.1326 12.8225 32.652C12.4246 35.0657 13.0262 39.363 14.725 43.2158C6.14335 31.2629 13.7032 24.7119 17.9885 22.7597V22.7589Z" fill="#FF974A"/>
<path d="M38.3985 23.305C33.5306 22.6012 32.627 24.5887 32.627 24.5887C32.627 24.5887 31.7645 22.5842 26.8816 23.1903C15.9076 24.5472 21.8575 38.2099 23.24 43.6764C24.643 49.2368 29.4126 51.3135 31.7645 51.3374C35.4244 51.3743 38.2471 48.8068 40.2352 43.5649C42.7234 36.9923 49.344 24.8818 38.3993 23.3042L38.3985 23.305Z" fill="#FF974A"/>
</g>
<defs>
<clipPath id="clip0_1280_39715">
<rect width="43.5312" height="36.9355" fill="white" transform="translate(10.8047 14.4453)"/>
</clipPath>
</defs>
</svg>
