<svg width="65" height="65" viewBox="0 0 65 65" fill="none" xmlns="http://www.w3.org/2000/svg">
<g clip-path="url(#clip0_1280_40193)">
<path d="M33.2938 22.6095C34.2336 22.6332 35.1711 22.7232 36.0967 22.8794C36.0967 18.7057 36.6317 16.4401 36.0967 16.3099C35.9096 16.2649 35.6421 16.4922 34.9462 17.6901C34.3354 18.7033 33.7838 19.7497 33.2891 20.8245C33.3222 21.4969 33.3175 22.0887 33.2938 22.6095Z" fill="#25C665"/>
<path d="M32.7835 22.5945H33.2948C33.3185 22.0737 33.3232 21.4819 33.2948 20.8095C33.2783 20.2484 33.2475 19.6258 33.1978 18.9511C32.9752 15.7694 32.3479 10.9588 31.8366 10.9943C31.5288 11.0156 31.7514 12.7083 31.1477 16.0511C30.7334 18.2906 30.1795 20.0804 29.6895 22.8313C30.7121 22.6726 31.7466 22.5922 32.7835 22.5945Z" fill="#2DCD6F"/>
<path d="M19.2285 39.7632C19.2285 30.2936 25.2958 22.5996 32.7835 22.5996C31.7466 22.5996 30.7121 22.6777 29.6895 22.8363C20.9471 24.2094 14.2832 31.2619 14.2832 39.7632C14.2832 49.2327 22.5687 56.9267 32.7835 56.9267C25.2958 56.9267 19.2285 49.2422 19.2285 39.7632Z" fill="#EFE0A3"/>
<path d="M36.0986 22.8773C35.1707 22.7211 34.2309 22.6311 33.2887 22.6074H32.7773C40.2651 22.6074 46.3324 30.292 46.3324 39.771C46.3324 49.25 40.2722 56.9227 32.7844 56.9227C43.0016 56.9227 51.2848 49.2381 51.2848 39.7591C51.2848 31.3312 44.7368 24.3285 36.0986 22.8773Z" fill="#EFD395"/>
<path d="M27.024 39.7632C27.024 30.2936 29.6019 22.5996 32.7836 22.5996C25.2959 22.5996 19.2285 30.2841 19.2285 39.7632C19.2285 49.2422 25.2959 56.9267 32.7836 56.9267C29.6019 56.9267 27.024 49.2422 27.024 39.7632Z" fill="#EFD395"/>
<path d="M46.3402 39.7632C46.3402 30.2936 40.2729 22.5996 32.7852 22.5996C35.9668 22.5996 38.5448 30.2841 38.5448 39.7632C38.5448 49.2422 35.9668 56.9267 32.7852 56.9267C40.2729 56.9267 46.3402 49.2422 46.3402 39.7632Z" fill="#D8B673"/>
<path d="M32.7811 56.9267C35.962 56.9267 38.5407 49.2423 38.5407 39.7632C38.5407 30.284 35.962 22.5996 32.7811 22.5996C29.6001 22.5996 27.0215 30.284 27.0215 39.7632C27.0215 49.2423 29.6001 56.9267 32.7811 56.9267Z" fill="#E0C185"/>
</g>
<defs>
<clipPath id="clip0_1280_40193">
<rect width="37.0006" height="45.9273" fill="white" transform="translate(14.2793 11)"/>
</clipPath>
</defs>
</svg>
