<svg width="65" height="65" viewBox="0 0 65 65" fill="none" xmlns="http://www.w3.org/2000/svg">
<path d="M52.4122 17.2452C52.3786 16.214 52.01 15.2218 51.3621 14.4188C50.7143 13.6158 49.8225 13.0457 48.8217 12.7948C47.8209 12.5438 46.7656 12.6258 45.8156 13.0281C44.8655 13.4305 44.0724 14.1313 43.5562 15.0247C43.3345 15.4152 42.9712 15.7056 42.5414 15.8357C42.1116 15.9658 41.6482 15.9257 41.2472 15.7237C40.5319 15.3442 39.7314 15.1539 38.9219 15.1709C38.1124 15.1879 37.3206 15.4116 36.6219 15.8208C35.9232 16.2299 35.3407 16.811 34.9297 17.5087C34.5188 18.2063 34.2931 18.9975 34.2741 19.807C34.2735 19.8235 34.2733 19.8399 34.2731 19.8562C34.2731 19.859 34.2731 19.8618 34.2731 19.8645C34.273 19.8671 34.273 19.8697 34.273 19.8723C34.2691 20.1052 34.2181 20.3349 34.1231 20.5475C34.028 20.7601 33.8909 20.9513 33.72 21.1096C33.5491 21.2678 33.3479 21.3898 33.1286 21.4682C32.9093 21.5466 32.6764 21.5798 32.4439 21.5657C32.3981 21.5626 32.352 21.5601 32.3059 21.5583C31.5875 21.5312 30.8724 21.6675 30.2143 21.9569C29.5562 22.2463 28.9724 22.6813 28.5069 23.2291C28.0413 23.7769 27.7062 24.4231 27.5266 25.1192C27.3471 25.8153 27.3279 26.5431 27.4705 27.2477C27.5285 27.55 27.5833 27.8188 27.6333 28.0643C27.7417 28.5956 27.8278 29.0177 27.8752 29.4346C27.9739 30.3027 28.0363 31.198 28.4771 31.9522C29.2305 33.2413 30.3144 34.4239 31.7456 35.3595C32.417 35.7983 33.2236 35.9464 34.0061 36.1228C34.3768 36.2064 34.7446 36.3189 35.1692 36.4487C35.5004 36.55 35.8661 36.6619 36.2947 36.7788C36.9862 36.9752 37.7134 37.0121 38.4213 36.8867C39.1293 36.7613 39.7995 36.4769 40.3815 36.0548C40.9635 35.6328 41.4422 35.0841 41.7814 34.4502C42.1205 33.8163 42.3114 33.1137 42.3396 32.3953C42.3414 32.3492 42.3425 32.3032 42.3429 32.2573C42.3467 32.0244 42.3976 31.7947 42.4926 31.5821C42.5876 31.3694 42.7247 31.1782 42.8956 31.0199C43.0665 30.8617 43.2677 30.7397 43.487 30.6614C43.7064 30.583 43.9393 30.5499 44.1718 30.5641C44.1803 30.5644 44.1888 30.5649 44.1973 30.5654C44.2011 30.5657 44.205 30.5659 44.2088 30.5662C44.2181 30.5668 44.2274 30.5674 44.2368 30.5679C45.0454 30.6112 45.8516 30.4471 46.5789 30.091C47.3061 29.735 47.9303 29.1989 48.392 28.5337C48.8537 27.8685 49.1376 27.0963 49.2169 26.2904C49.2961 25.4846 49.1679 24.6719 48.8445 23.9295C48.674 23.5141 48.6697 23.0491 48.8324 22.6306C48.9952 22.2121 49.3126 21.8722 49.719 21.6812C50.5501 21.2831 51.2473 20.6516 51.7256 19.8639C52.2038 19.0761 52.4424 18.1662 52.4122 17.2452Z" fill="#2DCD6F"/>
<g style="mix-blend-mode:multiply" opacity="0.56">
<path d="M52.4122 17.2452C52.3786 16.214 52.01 15.2218 51.3621 14.4188C50.7143 13.6158 49.8225 13.0457 48.8217 12.7948C47.8209 12.5438 46.7656 12.6258 45.8156 13.0281C44.8655 13.4305 44.0724 14.1313 43.5562 15.0247C43.3345 15.4152 42.9712 15.7056 42.5414 15.8357C42.1116 15.9658 41.6482 15.9257 41.2472 15.7237C40.5319 15.3442 39.7314 15.1539 38.9219 15.1709C38.1124 15.1879 37.3206 15.4116 36.6219 15.8208C35.9232 16.2299 35.3407 16.811 34.9297 17.5087C34.5188 18.2063 34.2931 18.9975 34.2741 19.807C34.2735 19.8235 34.2733 19.8399 34.2731 19.8562C34.2731 19.859 34.2731 19.8618 34.2731 19.8645C34.273 19.8671 34.273 19.8697 34.273 19.8723C34.2691 20.1052 34.2181 20.3349 34.1231 20.5475C34.028 20.7601 33.8909 20.9513 33.72 21.1096C33.5491 21.2678 33.3479 21.3898 33.1286 21.4682C32.9093 21.5466 32.6764 21.5798 32.4439 21.5657C32.3981 21.5626 32.352 21.5601 32.3059 21.5583C31.5875 21.5312 30.8724 21.6675 30.2143 21.9569C29.5562 22.2463 28.9724 22.6813 28.5069 23.2291C28.0413 23.7769 27.7062 24.4231 27.5266 25.1192C27.3471 25.8153 27.3279 26.5431 27.4705 27.2477C27.5285 27.55 27.5833 27.8188 27.6333 28.0643C27.7417 28.5956 27.8278 29.0177 27.8752 29.4346C27.9739 30.3027 28.0363 31.198 28.4771 31.9522C29.2305 33.2413 30.3144 34.4239 31.7456 35.3595C32.417 35.7983 33.2236 35.9464 34.0061 36.1228C34.3768 36.2064 34.7446 36.3189 35.1692 36.4487C35.5004 36.55 35.8661 36.6619 36.2947 36.7788C36.9862 36.9752 37.7134 37.0121 38.4213 36.8867C39.1293 36.7613 39.7995 36.4769 40.3815 36.0548C40.9635 35.6328 41.4422 35.0841 41.7814 34.4502C42.1205 33.8163 42.3114 33.1137 42.3396 32.3953C42.3414 32.3492 42.3425 32.3032 42.3429 32.2573C42.3467 32.0244 42.3976 31.7947 42.4926 31.5821C42.5876 31.3694 42.7247 31.1782 42.8956 31.0199C43.0665 30.8617 43.2677 30.7397 43.487 30.6614C43.7064 30.583 43.9393 30.5499 44.1718 30.5641C44.1803 30.5644 44.1888 30.5649 44.1973 30.5654C44.2011 30.5657 44.205 30.5659 44.2088 30.5662C44.2181 30.5668 44.2274 30.5674 44.2368 30.5679C45.0454 30.6112 45.8516 30.4471 46.5789 30.091C47.3061 29.735 47.9303 29.1989 48.392 28.5337C48.8537 27.8685 49.1376 27.0963 49.2169 26.2904C49.2961 25.4846 49.1679 24.6719 48.8445 23.9295C48.674 23.5141 48.6697 23.0491 48.8324 22.6306C48.9952 22.2121 49.3126 21.8722 49.719 21.6812C50.5501 21.2831 51.2473 20.6516 51.7256 19.8639C52.2038 19.0761 52.4424 18.1662 52.4122 17.2452Z" fill="#2DCD6F"/>
</g>
<g style="mix-blend-mode:multiply" opacity="0.36">
<path d="M46.3014 20.2898C46.762 19.8958 46.8148 19.2041 46.4194 18.7447C46.024 18.2853 45.3301 18.2324 44.8695 18.6263L40.7191 22.1767L40.9349 19.3516C40.9809 18.7482 40.5276 18.2216 39.9223 18.1754C39.3171 18.1292 38.789 18.5809 38.743 19.1843L38.3604 24.1944L34.8223 27.221L35.038 24.396C35.0841 23.7926 34.6308 23.2659 34.0255 23.2197C33.4202 23.1735 32.8922 23.6252 32.8461 24.2286L32.4636 29.2387L30.7979 30.6236C30.3377 31.0178 30.2852 31.7092 30.6804 32.1683C31.076 32.6279 31.7704 32.6807 32.2309 32.2862L33.8955 30.9022L38.9213 31.286C39.5265 31.3322 40.0545 30.8805 40.1006 30.2771C40.1467 29.6737 39.6934 29.1471 39.0881 29.1009L36.2543 28.8845L39.7924 25.8579L44.8181 26.2416C45.4234 26.2878 45.9514 25.8362 45.9975 25.2328C46.0435 24.6294 45.5902 24.1028 44.9849 24.0565L42.1511 23.8402L46.3014 20.2898Z" fill="#2DCD6F"/>
</g>
<path d="M33.0108 8.99634C33.9727 9.35258 34.7868 9.99819 35.3299 10.8355C35.8152 11.5832 36.0619 12.4496 36.04 13.3289C36.018 14.2082 35.7284 15.0624 35.2064 15.7873C34.9493 16.1387 34.8435 16.5709 34.911 16.9946C34.9785 17.4183 35.214 17.8011 35.5689 18.0636C36.2193 18.5241 36.7355 19.1356 37.0685 19.84C37.4015 20.5445 37.5402 21.3185 37.4715 22.0886C37.4028 22.8587 37.129 23.5992 36.6759 24.2398C36.2229 24.8804 35.6058 25.3998 34.8833 25.7486C34.8749 25.7527 34.8665 25.7566 34.8581 25.7605C34.847 25.7657 34.8359 25.7708 34.825 25.7763C34.6164 25.8752 34.431 26.0134 34.2799 26.1826C34.1288 26.3518 34.0152 26.5484 33.9459 26.7607C33.8766 26.9729 33.853 27.1964 33.8767 27.4175C33.9003 27.6387 33.9707 27.853 34.0835 28.0475C34.106 28.0856 34.128 28.1242 34.1495 28.1632C34.4831 28.7711 34.6678 29.4432 34.6897 30.1291C34.7117 30.815 34.5702 31.4967 34.276 32.1228C33.9818 32.7489 33.5425 33.3031 32.9913 33.7437C32.4401 34.1842 31.7913 34.4996 31.0939 34.6661C29.1396 35.1532 27.2944 35.9751 25.6481 37.0919L25.5679 37.1451C25.2903 37.3294 25 37.5155 24.8463 37.8029C24.7663 37.9526 24.6991 38.1092 24.6458 38.2714C23.151 42.7531 21.3888 44.714 19.2378 47.2802C18.4389 48.2334 18.6993 48.1164 18.3186 48.624C17.8589 49.2369 16.9406 50.6505 16.4439 51.2363C16.0609 51.6879 15.3429 51.758 15.0374 51.2555C14.9923 51.1813 14.9504 51.105 14.912 51.027C14.7161 50.6292 14.6148 50.1949 14.6152 49.7553V49.6997C14.6152 49.0003 14.8722 48.3231 15.3413 47.7858L17.1509 45.5949C19.6977 42.6778 20.5651 41.4073 21.7257 37.7753L21.7331 37.7469C21.8772 37.1938 21.8723 36.5676 21.7659 36.0143C21.7583 35.9965 21.773 36.0325 21.7659 36.0143C21.0755 34.2025 20.0117 32.4382 18.6932 30.9776C18.2184 30.4624 17.8723 29.8511 17.681 29.1897C17.4896 28.5283 17.458 27.8341 17.5886 27.1594C17.7192 26.4847 18.0084 25.847 18.4347 25.2945C18.8609 24.742 19.413 24.289 20.0493 23.9696C20.0901 23.9492 20.1313 23.9293 20.1726 23.9101C20.3811 23.8111 20.5665 23.6728 20.7176 23.5036C20.8686 23.3344 20.9822 23.1378 21.0515 22.9255C21.1208 22.7133 21.1444 22.4899 21.1207 22.2687C21.0971 22.0476 21.0269 21.8333 20.9141 21.6387C20.9116 21.6343 20.9089 21.6298 20.9063 21.6254C20.8983 21.6118 20.8903 21.5981 20.8826 21.5841C20.4956 20.9053 20.2969 20.1433 20.3054 19.3705C20.3138 18.5977 20.5292 17.8398 20.931 17.1688C21.3328 16.4979 21.9077 15.9361 22.601 15.5369C23.2943 15.1377 24.0831 14.9144 24.8924 14.8881C25.3407 14.8645 25.7624 14.6772 26.0702 14.3651C26.3779 14.0529 26.5482 13.6398 26.5457 13.2112C26.5479 12.2265 26.8861 11.2692 27.5092 10.4843C28.1323 9.6994 29.0063 9.12959 29.999 8.86111C30.9917 8.59263 32.0489 8.64011 33.0108 8.99634Z" fill="#2DCD6F"/>
<g style="mix-blend-mode:multiply" opacity="0.36">
<path d="M33.0108 8.99439C33.9727 9.35063 34.7868 9.99623 35.3299 10.8335C35.8152 11.5812 36.0619 12.4476 36.04 13.327C36.018 14.2063 35.7284 15.0605 35.2064 15.7853C34.9493 16.1367 34.8435 16.569 34.911 16.9927C34.9785 17.4164 35.214 17.7991 35.5689 18.0617C36.2193 18.5221 36.7355 19.1336 37.0685 19.8381C37.4015 20.5426 37.5402 21.3166 37.4715 22.0867C37.4028 22.8567 37.129 23.5972 36.6759 24.2378C36.2229 24.8784 35.6058 25.3978 34.8833 25.7467C34.8749 25.7507 34.8665 25.7546 34.8581 25.7585C34.847 25.7637 34.8359 25.7689 34.825 25.7744C34.6164 25.8733 34.431 26.0115 34.2799 26.1807C34.1288 26.3498 34.0152 26.5465 33.9459 26.7587C33.8766 26.971 33.853 27.1944 33.8767 27.4156C33.9003 27.6367 33.9707 27.851 34.0835 28.0455C34.106 28.0837 34.128 28.1222 34.1495 28.1613C34.4831 28.7691 34.6678 29.4413 34.6897 30.1272C34.7117 30.813 34.5702 31.4947 34.276 32.1208C33.9818 32.747 33.5425 33.3012 32.9913 33.7417C32.4401 34.1823 31.7913 34.4977 31.0939 34.6642C29.1396 35.1512 27.2944 35.9732 25.6481 37.09L25.5679 37.1432C25.2903 37.3274 25 37.5135 24.8463 37.801C24.7663 37.9506 24.6991 38.1072 24.6458 38.2694C23.151 42.7511 22.2014 43.8995 20.0504 46.4657C19.2515 47.4188 18.6993 48.1145 18.3186 48.6221C17.8589 49.2349 16.9406 50.6485 16.4439 51.2344C16.0609 51.686 15.3429 51.7561 15.0374 51.2536C14.9923 51.1793 14.9504 51.1031 14.912 51.025C14.7161 50.6272 14.6148 50.193 14.6152 49.7534V49.6978C14.6152 48.9984 14.8722 48.3211 15.3413 47.7838L17.9635 44.7804C20.5103 41.8633 20.5651 41.4053 21.7257 37.7734L21.7331 37.7449C21.8772 37.1919 21.8723 36.5656 21.7659 36.0124C21.7583 35.9945 21.773 36.0305 21.7659 36.0124C21.0755 34.2005 20.0117 32.4362 18.6932 30.9757C18.2184 30.4605 17.8723 29.8492 17.681 29.1878C17.4896 28.5264 17.458 27.8322 17.5886 27.1574C17.7192 26.4827 18.0084 25.8451 18.4347 25.2925C18.8609 24.74 19.413 24.287 20.0493 23.9677C20.0901 23.9472 20.1313 23.9273 20.1726 23.9081C20.3811 23.8091 20.5665 23.6709 20.7176 23.5017C20.8686 23.3325 20.9822 23.1358 21.0515 22.9236C21.1208 22.7114 21.1444 22.4879 21.1207 22.2668C21.0971 22.0456 21.0269 21.8313 20.9141 21.6368C20.9116 21.6323 20.9089 21.6279 20.9063 21.6234C20.8983 21.6098 20.8903 21.5961 20.8826 21.5822C20.4956 20.9033 20.2969 20.1413 20.3054 19.3685C20.3138 18.5957 20.5292 17.8379 20.931 17.1669C21.3328 16.4959 21.9077 15.9342 22.601 15.535C23.2943 15.1358 24.0831 14.9124 24.8924 14.8862C25.3407 14.8625 25.7624 14.6752 26.0702 14.3631C26.3779 14.051 26.5482 13.6379 26.5457 13.2093C26.5479 12.2245 26.8861 11.2673 27.5092 10.4824C28.1323 9.69745 29.0063 9.12764 29.999 8.85916C30.9917 8.59068 32.0489 8.63815 33.0108 8.99439Z" fill="#2DCD6F"/>
</g>
<g style="mix-blend-mode:multiply" opacity="0.36">
<path d="M31.6983 16.8302C31.9135 16.2893 31.628 15.6858 31.0606 15.4822C30.4933 15.2785 29.859 15.5518 29.6439 16.0927L27.7054 20.9662L26.5395 18.5016C26.2905 17.9751 25.6401 17.7417 25.0868 17.9801C24.5336 18.2185 24.2869 18.8386 24.536 19.365L26.6038 23.736L24.9512 27.8906L23.7853 25.4259C23.5363 24.8995 22.8859 24.6661 22.3326 24.9045C21.7794 25.1429 21.5327 25.7629 21.7818 26.2893L23.8496 30.6604L23.0524 32.5828C22.8377 33.1236 23.1233 33.7267 23.6903 33.9302C24.2579 34.134 24.8925 33.8603 25.1073 33.319L25.904 31.3979L30.4978 29.4182C31.051 29.1798 31.2977 28.5597 31.0486 28.0333C30.7996 27.5069 30.1492 27.2734 29.596 27.5118L27.0057 28.6281L28.6582 24.4735L33.252 22.4938C33.8052 22.2554 34.0519 21.6354 33.8028 21.1089C33.5538 20.5825 32.9034 20.349 32.3502 20.5875L29.7599 21.7037L31.6983 16.8302Z" fill="#2DCD6F"/>
</g>
<path d="M52.6878 28.3139C53.1751 29.2234 53.3528 30.2668 53.1942 31.2862C53.0526 32.1968 52.6491 33.0465 52.0327 33.7316C51.4164 34.4167 50.6139 34.9076 49.7233 35.1444C49.2885 35.2565 48.9134 35.5315 48.6757 35.9124C48.438 36.2933 48.3558 36.751 48.4461 37.1909C48.6258 37.9804 48.6007 38.8028 48.3731 39.5799C48.1454 40.3569 47.7229 41.0629 47.1456 41.6307C46.5682 42.1985 45.8553 42.6092 45.0745 42.8238C44.2938 43.0385 43.4711 43.0499 42.6846 42.8571C42.6755 42.8549 42.6665 42.8525 42.6575 42.8502C42.6455 42.847 42.6336 42.8439 42.6215 42.8412C42.3957 42.7841 42.1607 42.7733 41.9306 42.8095C41.7005 42.8457 41.4801 42.9282 41.2828 43.0519C41.0854 43.1756 40.9152 43.338 40.7823 43.5293C40.6494 43.7206 40.5567 43.9369 40.5097 44.165C40.5008 44.2099 40.4912 44.2549 40.4809 44.3C40.3196 45.0006 40.0014 45.6555 39.5503 46.2153C39.0992 46.7751 38.5269 47.2252 37.8766 47.5317C37.2262 47.8382 36.5148 47.9931 35.7959 47.9847C35.077 47.9763 34.3694 47.8049 33.7264 47.4834C31.9106 46.5987 31.3524 46.0591 29.341 45.8758C29.2934 45.871 29.1783 45.8641 29.0247 45.8555C27.8757 45.7914 26.6338 46.0691 25.6588 46.6803L23.3431 48.0835C21.5642 49.1985 20.7124 49.6741 19.1867 51.1164L18.617 51.6549C18.3362 51.9203 17.9942 52.1123 17.6214 52.2138C17.2486 52.3153 16.8564 52.3232 16.4798 52.2368C16.1793 52.1679 15.8954 52.0405 15.6442 51.8618C15.393 51.6832 15.1794 51.4568 15.0157 51.1956C14.852 50.9345 14.7413 50.6436 14.69 50.3396C14.6387 50.0357 14.6478 49.7246 14.7167 49.4242C14.8031 49.0475 14.9812 48.698 15.2351 48.4067C15.489 48.1154 15.8109 47.8913 16.1722 47.7543L16.9051 47.4762C18.8682 46.7317 19.9403 46.6076 21.7192 45.4925L24.0349 44.0894C25.0099 43.4782 25.7537 42.4666 26.1208 41.376C26.1892 41.1728 26.2423 41.0184 26.2621 40.9642C26.9736 39.0737 26.8326 38.498 26.8278 36.4781C26.8187 35.7592 26.9728 35.0477 27.2786 34.3971C27.5844 33.7465 28.0339 33.1738 28.5932 32.7221C29.1524 32.2705 29.8069 31.9516 30.5073 31.7895C31.2077 31.6275 31.9357 31.6265 32.6365 31.7867C32.6815 31.797 32.7263 31.808 32.7707 31.8196C32.9966 31.8766 33.2316 31.8873 33.4617 31.8511C33.6917 31.8148 33.9121 31.7323 34.1094 31.6086C34.3068 31.4849 34.477 31.3225 34.6099 31.1313C34.7428 30.94 34.8356 30.7238 34.8827 30.4957C34.8838 30.4905 34.8848 30.4853 34.8859 30.48C34.8891 30.464 34.8923 30.4478 34.896 30.4317C35.0652 29.6399 35.434 28.9045 35.9675 28.2953C36.5009 27.6862 37.1813 27.2236 37.9439 26.9514C38.7065 26.6793 39.526 26.6067 40.3246 26.7405C41.1232 26.8742 41.8743 27.21 42.5066 27.7158C42.8631 27.9889 43.311 28.1144 43.7574 28.0664C44.2039 28.0185 44.6149 27.8007 44.9053 27.4582C45.5786 26.6764 46.4882 26.1352 47.4965 25.9164C48.5048 25.6977 49.5569 25.8134 50.4936 26.246C51.4303 26.6786 52.2006 27.4045 52.6878 28.3139Z" fill="#2DCD6F"/>
<g style="mix-blend-mode:multiply" opacity="0.36">
<path d="M45.9221 33.386C46.4362 33.0648 46.5913 32.3886 46.2686 31.8756C45.9459 31.3625 45.2675 31.2069 44.7535 31.5281L40.1213 34.4218L40.7547 31.6602C40.89 31.0704 40.5201 30.4822 39.9284 30.3465C39.3367 30.2108 38.7474 30.5789 38.6121 31.1688L37.4888 36.0663L33.5399 38.5332L34.1734 35.7716C34.3086 35.1817 33.9387 34.5936 33.347 34.4579C32.7553 34.3222 32.166 34.6903 32.0307 35.2802L30.9074 40.1777L29.0542 41.2995C28.5406 41.6208 28.3858 42.2967 28.7084 42.8096C29.0313 43.3228 29.71 43.4783 30.2241 43.1567L32.076 42.0356L36.9888 43.1624C37.5805 43.2981 38.1698 42.93 38.3051 42.3401C38.4404 41.7503 38.0704 41.1621 37.4787 41.0264L34.7086 40.3911L38.6574 37.9242L43.5702 39.051C44.1619 39.1867 44.7512 38.8186 44.8865 38.2287C45.0218 37.6389 44.6518 37.0507 44.0601 36.915L41.29 36.2797L45.9221 33.386Z" fill="#2DCD6F"/>
</g>
</svg>
