<svg width="65" height="65" viewBox="0 0 65 65" fill="none" xmlns="http://www.w3.org/2000/svg">
<path fill-rule="evenodd" clip-rule="evenodd" d="M32.9709 15.8423C33.8831 13.1877 35.9107 12.2828 39.3895 13.6851C42.7024 12.5873 44.5807 13.6294 45.6795 15.8809C48.8224 16.1682 50.7961 17.7678 50.6095 21.8677C52.8817 23.9262 53.1761 26.4307 50.4809 29.5484C45.8661 29.973 41.2512 30.3933 36.6156 30.8178C35.4048 25.8345 34.1775 20.847 32.9668 15.8423H32.9709Z" fill="#11AE4F"/>
<path fill-rule="evenodd" clip-rule="evenodd" d="M14.3981 24.4054C13.6186 21.1161 14.1576 18.766 17.4125 18.3028C18.1215 16.0513 19.9252 15.5882 22.0813 15.7254C23.8476 14.0314 25.8047 13.7055 27.9981 14.8591C30.9959 16.3043 31.5142 19.6322 32.1652 22.8829C26.2276 23.3847 20.3108 23.9036 14.3939 24.4054H14.3981Z" fill="#25C665"/>
<path fill-rule="evenodd" clip-rule="evenodd" d="M32.9726 15.8398C42.5009 15.8398 50.2214 23.8465 50.2214 33.7016C50.2214 43.5566 42.5009 51.5633 32.9726 51.5633C23.4444 51.5633 15.7031 43.5566 15.7031 33.7016C15.7031 23.8465 23.4444 15.8398 32.9726 15.8398Z" fill="#3BE782"/>
<path fill-rule="evenodd" clip-rule="evenodd" d="M39.3553 17.1156C44.8616 19.3885 48.9955 24.5262 49.9989 30.7403L33.7909 36.7442C32.6548 32.876 31.5187 28.9863 30.3867 25.118C32.1531 22.8837 34.3879 21.1897 37.7755 20.808C37.8875 19.1913 38.4099 17.939 39.3553 17.1113V17.1156Z" fill="#25C665"/>
<path fill-rule="evenodd" clip-rule="evenodd" d="M18.2891 24.3073C20.4866 20.6492 23.9074 17.8788 27.9832 16.6094C29.5257 18.3419 29.8822 20.1517 29.4925 22.0001C35.0569 23.4067 36.6366 28.3685 38.2205 33.3561C34.4059 35.2988 30.6078 37.2458 26.7932 39.1885L18.2891 24.3116V24.3073Z" fill="#2DCD6F"/>
<path fill-rule="evenodd" clip-rule="evenodd" d="M33.4526 51.5661C10.8124 56.7556 3.73579 18.0942 17.3938 23.0217C18.9736 21.808 22.2119 22.3098 22.3985 25.4061C24.9858 25.6162 26.379 27.0615 26.1758 30.1792C27.9629 29.4459 29.3768 30.295 30.2682 33.3742C34.3814 33.4128 36.2058 37.0109 36.5209 40.8405C35.87 44.8246 34.0829 47.5778 33.4485 51.5618L33.4526 51.5661Z" fill="#25C665"/>
<path fill-rule="evenodd" clip-rule="evenodd" d="M30.4564 51.6175C28.9471 51.5017 27.5166 51.1758 26.1566 50.674C21.5044 44.3613 17.6732 37.5683 17.2793 28.6953C17.2793 28.6953 19.8086 43.7652 30.4522 51.6175H30.4564Z" fill="#3BE782"/>
<path fill-rule="evenodd" clip-rule="evenodd" d="M32.9722 51.5614C46.9861 54.2402 55.0971 40.4015 55.0971 30.063C55.5615 25.2727 50.2791 22.1335 45.9959 25.8088C40.9539 23.7117 38.2008 24.9425 37.2678 28.8494C34.013 29.9858 32.8769 32.2373 33.5444 35.488C31.0317 37.2377 30.2895 39.4892 31.6081 42.3968C29.8417 46.0335 30.3808 49.0569 32.9681 51.5571L32.9722 51.5614Z" fill="#11AE4F"/>
<path fill-rule="evenodd" clip-rule="evenodd" d="M40.7129 50.4484C41.567 50.1397 42.4046 49.7751 43.1883 49.372C45.7922 43.4839 47.4673 37.2269 46.5924 29.9707C46.5924 29.9707 46.5385 41.2109 40.7129 50.4484Z" fill="#3BE782"/>
<path fill-rule="evenodd" clip-rule="evenodd" d="M22.1953 43.3096L26.5117 34.3809L23.1821 45.1365L22.1953 43.3096Z" fill="#3BE782"/>
<path fill-rule="evenodd" clip-rule="evenodd" d="M19.8589 39.1574L16.1562 38.75L20.4187 40.1566L19.8589 39.1574Z" fill="#3BE782"/>
<path fill-rule="evenodd" clip-rule="evenodd" d="M17.8219 32.6795L13.916 31.3887L18.0831 33.8932L17.8219 32.6795Z" fill="#3BE782"/>
<path fill-rule="evenodd" clip-rule="evenodd" d="M43.4085 45.6548L36.6914 38.2656L43.9848 44.5783L43.4085 45.6548Z" fill="#3BE782"/>
<path fill-rule="evenodd" clip-rule="evenodd" d="M45.709 40.4914L50.8463 37.8926L45.9702 39.2992L45.709 40.4914Z" fill="#3BE782"/>
</svg>
