<svg width="65" height="65" viewBox="0 0 65 65" fill="none" xmlns="http://www.w3.org/2000/svg">
<path d="M42.4602 42.5178C42.4602 46.1381 40.8511 49.0376 38.242 50.5796C37.1525 51.2165 35.8898 51.6187 34.4931 51.736C34.4707 51.736 34.4484 51.736 34.4204 51.736C34.1578 51.764 33.8897 51.7696 33.6159 51.7696H31.0961C30.9453 51.7696 30.8 51.7528 30.6547 51.736C30.3028 51.7137 29.9619 51.669 29.6267 51.602C28.6211 51.4176 27.6936 51.0712 26.8667 50.5908C24.2352 49.06 22.6094 46.1493 22.6094 42.5123C22.6094 39.6518 24.5202 37.2774 26.5427 34.7466C28.6211 32.1543 30.9788 29.2157 31.6995 25.2602V9.87891H33.3756V25.2882C34.1075 29.238 36.4597 32.1655 38.5269 34.7522C40.5494 37.283 42.4602 39.6574 42.4602 42.5178Z" fill="#E7E7E7"/>
<path d="M37.6651 53.0452C36.1343 52.682 35.1845 52.2239 34.5923 51.8105C34.5308 51.8105 34.4749 51.777 34.4191 51.7435C34.1565 51.7714 33.8883 51.777 33.6145 51.777H31.0948C30.9439 51.777 30.7986 51.7602 30.6534 51.7435C30.3014 51.7211 29.9606 51.6764 29.6254 51.6094C29.4354 51.7826 29.2343 51.9502 29.022 52.1066C28.3459 52.615 27.5861 53.0284 26.9045 53.0284C26.4407 53.0284 26.0664 53.3971 26.0664 53.8664C26.0664 54.3357 26.4407 54.7045 26.9045 54.7045C28.385 54.7045 29.8321 53.6932 30.8266 52.7994L31.0277 54.0061C31.1003 54.4084 31.4523 54.7045 31.8546 54.7045C31.8993 54.7045 31.9496 54.6933 31.9943 54.6877C32.4524 54.6095 32.7597 54.1849 32.6815 53.7268L32.391 51.9781C32.9385 52.7882 34.2291 53.9391 37.2685 54.6709C37.3355 54.6877 37.4026 54.7045 37.4696 54.7045C37.8439 54.7045 38.1903 54.4419 38.2797 54.0564C38.3915 53.6039 38.1121 53.1513 37.6651 53.0452Z" fill="#FFD53F"/>
<path d="M26.5417 34.7522C24.5192 37.283 22.6084 39.6574 22.6084 42.5178C22.6084 46.1548 24.2342 49.0655 26.8657 50.5963C27.6926 51.0768 28.6201 51.4232 29.6258 51.6075C29.4358 51.7807 29.2347 51.9483 29.0224 52.1048C28.1675 52.2053 27.0948 52.2947 25.9271 52.2947C24.5359 52.2947 23.0107 52.1718 21.5804 51.8142C16.9208 50.6522 12.859 46.328 14.1161 40.3222C15.2447 34.9533 18.9489 32.5734 22.2229 30.4727C23.9772 29.3498 25.6366 28.2827 26.5976 26.8916C30.6203 21.059 30.3744 16.2534 30.2683 12.3259C30.2459 11.5158 30.2292 10.9739 30.2571 10.6499C30.2962 10.2141 30.6594 9.87891 31.0952 9.87891H31.6986V25.2658C30.9778 29.2213 28.6201 32.1599 26.5417 34.7522Z" fill="#EFEFEF"/>
<path d="M43.9829 51.8142C39.8038 52.859 34.8592 51.8757 34.6469 51.8254C34.6301 51.8198 34.6078 51.8198 34.591 51.8087C34.5519 51.7863 34.5184 51.7696 34.4905 51.736C35.8872 51.6187 37.1499 51.2165 38.2394 50.5796C40.8485 49.0376 42.4576 46.1381 42.4576 42.5178C42.4576 39.6574 40.5468 37.283 38.5243 34.7522C36.4571 32.1655 34.105 29.238 33.373 25.2882V9.87891H34.4681C34.9039 9.87891 35.2671 10.2141 35.3006 10.6499C35.3285 10.9739 35.3118 11.5047 35.2894 12.3259C35.1888 16.2534 34.9374 21.059 38.9657 26.8916C39.9211 28.2827 41.5804 29.3498 43.3348 30.4727C46.6088 32.5734 50.3186 34.9533 51.4416 40.3222C52.6987 46.328 48.6425 50.6522 43.9829 51.8142Z" fill="#DFDFDF"/>
</svg>
