<svg width="65" height="65" viewBox="0 0 65 65" fill="none" xmlns="http://www.w3.org/2000/svg">
<path d="M24.7938 45.9062C24.7938 45.9062 24.7816 45.9244 24.7756 45.9365H24.7695C24.7695 45.9365 24.7877 45.9184 24.7938 45.9062Z" fill="#64737A"/>
<path d="M34.1758 43.2793C34.0201 43.2793 33.8643 43.2856 33.7086 43.2919C33.6961 43.2919 33.6774 43.2919 33.665 43.2981C33.6276 43.2981 33.5902 43.2981 33.5591 43.3044C33.4968 43.3044 33.4345 43.3107 33.3722 43.317C33.3473 43.3233 33.3286 43.3233 33.3037 43.3295C33.5279 43.3107 33.7522 43.2919 33.9764 43.2919C34.425 43.2793 34.8673 43.2981 35.3158 43.3484C34.9358 43.2981 34.5558 43.2793 34.1758 43.2793ZM29.9023 44.2274C30.1764 44.1018 30.4568 43.9951 30.7371 43.8884C30.4568 43.9825 30.1764 44.1018 29.9023 44.2274Z" fill="#64737A"/>
<path d="M24.77 45.9376C24.7326 45.9816 24.6952 46.0318 24.6641 46.0758C24.6952 46.0318 24.7326 45.9816 24.7762 45.9376C24.7762 45.9251 24.7887 45.9188 24.7949 45.9062C24.7949 45.9188 24.7762 45.9251 24.77 45.9376Z" fill="#64737A"/>
<path d="M37.7098 15.0847C38.0958 15.6749 38.292 16.384 38.2705 17.1048C40.3642 17.1048 43.4455 17.6833 43.4455 21.1054C43.4455 24.5274 40.3038 25.1153 38.2101 25.1036C38.2101 26.6385 37.4231 28.8965 32.7591 28.8965C28.0951 28.8965 27.2865 26.5919 27.3038 25.0569C25.21 25.0569 22.1287 24.4808 22.1287 21.0587C22.1287 17.6367 25.2726 17.0465 27.3663 17.0605C27.3512 16.3467 27.5517 15.6492 27.9355 15.0684C18.3984 16.9718 11.2871 24.3711 11.2871 33.198C11.2871 43.4619 20.9126 51.8036 32.7871 51.8036C44.6616 51.8036 54.2871 43.4735 54.2871 33.198C54.2871 24.3898 47.2124 17.0092 37.7098 15.0847Z" fill="#FF8A34"/>
<path d="M22.1309 21.0607C22.1309 24.4828 25.21 25.0613 27.3059 25.059C27.2865 26.5939 28.0433 28.8986 32.7569 28.8986C37.4704 28.8986 38.21 26.6405 38.2079 25.1056C40.3016 25.1056 43.4433 24.5621 43.4433 21.1074C43.4433 17.6527 40.3641 17.1068 38.2683 17.1068C38.2898 16.386 38.0936 15.6769 37.7076 15.0867C37.0392 14.093 35.6355 13.2695 32.8151 13.2695C29.9947 13.2695 28.6104 14.086 27.9355 15.0704C27.5517 15.6512 27.3511 16.3487 27.3662 17.0625C25.2725 17.0485 22.1309 17.6083 22.1309 21.0607ZM32.7871 22.9269C30.3074 22.9269 28.2977 21.8072 28.2977 20.4239C28.2977 19.0406 30.3074 17.9209 32.7871 17.9209C35.2668 17.9209 37.2764 19.0406 37.2764 20.4239C37.2764 21.8072 35.2668 22.9269 32.7871 22.9269Z" fill="#11AE4F"/>
<path d="M32.7881 22.9259C35.2675 22.9259 37.2775 21.8053 37.2775 20.4229C37.2775 19.0405 35.2675 17.9199 32.7881 17.9199C30.3088 17.9199 28.2988 19.0405 28.2988 20.4229C28.2988 21.8053 30.3088 22.9259 32.7881 22.9259Z" fill="#BF7745"/>
</svg>
