<svg width="65" height="65" viewBox="0 0 65 65" fill="none" xmlns="http://www.w3.org/2000/svg">
<path d="M44.9217 10.8154C43.7711 15.846 40.8574 18.3563 38.0832 19.6015C37.087 19.2877 36.0461 19.1183 34.9802 19.1183C34.8906 19.1183 34.8059 19.1183 34.7162 19.1233C34.1335 19.1382 33.5607 19.203 32.9929 19.3176C32.7638 19.3574 32.5347 19.4122 32.3056 19.4769C32.2657 18.8842 32.1811 18.1122 32.0117 17.2655C35.1496 8.70856 44.2044 9.89398 44.304 9.9139C44.5083 9.93881 44.6925 10.0583 44.8121 10.2277C44.9266 10.402 44.9715 10.6162 44.9217 10.8154Z" fill="#2DCD6F"/>
<path d="M50.6543 36.5475C50.6543 46.4199 42.6515 54.4231 32.7793 54.4231C22.9072 54.4231 14.9043 46.4199 14.9043 36.5475C14.9043 36.2243 14.9043 35.8948 14.936 35.578C15.4366 26.1554 23.2303 18.6719 32.7793 18.6719C42.3283 18.6719 50.1221 26.1554 50.6227 35.578C50.648 35.8948 50.6543 36.2243 50.6543 36.5475Z" fill="#FF8A34"/>
<path d="M33.4688 19.4719C33.1401 19.5566 32.8114 19.6662 32.4877 19.7907C32.2301 19.7907 32.2107 19.8354 31.9846 19.7708C31.875 17.9926 31.3321 13.9981 28.6974 11.946C28.3736 11.692 28.3138 11.2238 28.5679 10.9001C28.8219 10.5713 29.2901 10.5165 29.6188 10.7706C31.7854 12.459 32.7516 15.1187 33.175 17.2605C33.3443 18.1072 33.429 18.8792 33.4688 19.4719Z" fill="#5F6166"/>
<path d="M24.2132 30.782C24.2132 30.976 24.1354 31.1567 24.0121 31.2838C23.8888 31.4109 23.7136 31.4912 23.5255 31.4912L21.3389 31.4913C20.9561 31.4913 20.6479 31.1735 20.648 30.7787C20.648 30.3907 20.9562 30.0729 21.3357 30.0695L23.5255 30.0728C23.905 30.0695 24.2132 30.3872 24.2132 30.782Z" fill="#EA6F13"/>
<path d="M26.4573 27.8183C26.4573 28.0123 26.3794 28.1929 26.2562 28.32C26.1329 28.4472 25.9577 28.5275 25.7695 28.5275L23.2326 28.5275C22.8498 28.5275 22.5449 28.2131 22.5449 27.8184C22.5449 27.4236 22.8531 27.1058 23.2327 27.1091L25.7696 27.1091C26.1459 27.1091 26.4541 27.4269 26.4573 27.8183Z" fill="#EA6F13"/>
</svg>
