<svg width="64" height="64" viewBox="0 0 64 64" fill="none" xmlns="http://www.w3.org/2000/svg">
<path d="M42.8917 14.6547C41.1275 15.4266 40.2105 16.6576 40.1253 16.7385C38.1994 19.0349 36.0653 19.1722 35.8001 19.277L35.8081 19.2691C37.4914 17.0363 37.5665 14.9691 37.5665 14.9691L36.975 15.9282C35.5102 18.3085 33.7373 19.2322 33.1248 19.8401C32.7613 18.3771 32.8516 15.3117 32.8596 12.5925C32.8611 12.1219 32.4743 11.7439 31.9994 11.7439C31.5252 11.7439 31.1385 12.1212 31.1392 12.5925C31.1472 15.3124 31.2375 18.3778 30.8741 19.8401C30.7073 19.6746 30.5324 19.5257 30.3489 19.4021C27.6764 17.5177 26.8228 15.4967 26.4324 14.9698C26.4324 14.9698 26.5154 17.037 28.1907 19.2698L28.1987 19.2777C28.0588 19.2221 25.6894 18.9041 23.8735 16.7392C23.6201 16.4993 22.8174 15.4042 21.1071 14.6554L20.8821 14.5643C25.0266 16.9619 22.9827 21.4317 29.2235 21.5192C29.3088 21.5199 34.2661 21.5257 34.7738 21.5192C41.1261 21.4303 38.8936 17.0067 43.1153 14.5643L42.8902 14.6554L42.8917 14.6547Z" fill="#2DCD6F"/>
<path d="M52 34.0715V34.3939C52 44.2596 44.5581 52.256 35.3746 52.256H28.6247C19.4419 52.256 12 44.2596 12 34.3939V34.0715C12 26.5377 17.7419 19.517 24.7082 20.4263C26.5663 20.6663 32 21.0631 32 21.0631C32 21.0631 37.4331 20.6663 39.2919 20.4263C46.2589 19.517 52 26.5377 52 34.0708V34.0715Z" fill="url(#paint0_linear_1758_12882)"/>
<defs>
<linearGradient id="paint0_linear_1758_12882" x1="39.9899" y1="38.1058" x2="13.2602" y2="28.2968" gradientUnits="userSpaceOnUse">
<stop stop-color="#F0101B"/>
<stop offset="1" stop-color="#FF6067"/>
</linearGradient>
</defs>
</svg>
