<svg width="65" height="65" viewBox="0 0 65 65" fill="none" xmlns="http://www.w3.org/2000/svg">
<path d="M52.8839 18.8081C52.8839 18.836 52.8839 18.8592 52.8746 18.8824C52.7679 20.3722 51.5657 21.4536 50.1455 21.4211C50.0248 21.4211 49.8995 21.4211 49.7788 21.4211C48.029 21.4211 46.2884 21.7784 44.6593 22.47C44.1348 22.2565 43.5732 22.0801 42.9698 21.9362C42.877 21.913 42.747 21.8434 42.6124 21.7692C42.566 21.7413 42.5196 21.7181 42.4732 21.6949C42.4732 21.6903 42.4732 21.6856 42.4732 21.6763C42.4407 21.5974 42.4036 21.5046 42.3572 21.3979C42.3572 21.384 42.3432 21.37 42.3386 21.3561C42.3015 21.2679 42.2551 21.1705 42.2086 21.0684C42.2086 21.0637 42.2086 21.0544 42.1994 21.0498C42.1344 20.9013 42.0508 20.7388 41.9626 20.5625C41.8466 20.3304 41.7074 20.0705 41.5449 19.7874C43.9213 17.8289 46.7572 16.5247 49.7974 15.9956C50.5771 15.8564 51.3708 16.0792 51.9695 16.6083C52.5961 17.1606 52.9303 17.9635 52.8885 18.8128L52.8839 18.8081Z" fill="#5F6166"/>
<path d="M45.9767 31.958C46.1021 32.5242 46.232 33.1554 46.3527 33.8376C46.4687 34.4827 46.9468 34.9747 47.5595 35.1139C47.4342 37.8382 46.1578 40.8132 42.1383 44.3079C38.5134 47.4592 34.7492 49.5431 31.2588 50.8426C27.7731 52.1375 24.552 52.648 22.0224 52.648C20.8017 52.648 19.7435 52.5319 18.8894 52.3277C16.0025 51.6362 13.7143 49.2461 13.0505 46.2433C11.9505 41.2216 12.9252 30.4728 20.1241 21.4273C23.9857 16.5774 27.1837 16.582 30.2702 16.7213C30.4744 17.0926 30.7158 17.4824 31.0035 17.8816C31.0685 17.9744 31.1381 18.0672 31.2078 18.16C31.2542 18.2157 31.296 18.2668 31.3424 18.3225C31.3656 18.3549 31.3934 18.3921 31.4213 18.4246C31.5141 18.5406 31.6116 18.6566 31.7137 18.768C31.7462 18.8098 31.7833 18.8469 31.8204 18.8887C31.9133 18.9908 32.0107 19.0975 32.1082 19.195C32.1546 19.246 32.201 19.2924 32.2474 19.3342C32.3356 19.427 32.4285 19.5152 32.5259 19.6034C33.1664 20.2067 33.8812 20.7451 34.6656 21.2231C32.8044 21.6548 30.609 23.0192 29.0263 26.6486C28.8963 26.9456 28.9892 27.2937 29.2537 27.484C29.3094 27.5304 34.3036 31.1365 39.2792 28.6767C38.699 30.5657 38.7501 33.1554 41.3585 35.8797C41.4931 36.0189 41.6742 36.0932 41.8598 36.0932C41.9712 36.0932 42.0872 36.0653 42.194 36.0097C42.2126 36.0004 42.2683 35.9679 42.3564 35.9122C42.3889 35.8936 42.4307 35.8704 42.4725 35.8426C42.505 35.824 42.5375 35.8008 42.5746 35.7776C42.6303 35.7451 42.686 35.7033 42.751 35.6616C42.9552 35.5223 43.2105 35.3367 43.4843 35.1093C43.5307 35.0722 43.5771 35.035 43.6236 34.9933C44.0041 34.6684 44.4219 34.2646 44.8164 33.7819C44.9046 33.6752 44.9928 33.5684 45.0763 33.4524C45.0856 33.4431 45.0949 33.4339 45.0995 33.4246C45.1645 33.341 45.2295 33.2528 45.2852 33.16C45.3362 33.0951 45.3826 33.0254 45.4244 32.9558C45.4662 32.8955 45.508 32.8259 45.5451 32.7609C45.6008 32.6727 45.6519 32.5892 45.6983 32.4964C45.7308 32.4453 45.7586 32.3942 45.7818 32.3432L45.8793 32.1622C45.9118 32.0972 45.9443 32.0276 45.9767 31.958Z" fill="#FF6067"/>
<ellipse cx="22.3755" cy="25.6763" rx="0.928283" ry="0.928218" fill="#EB3941"/>
<ellipse cx="22.3755" cy="31.2095" rx="0.928283" ry="0.928218" fill="#EB3941"/>
<ellipse cx="17.7486" cy="34.8755" rx="0.928283" ry="0.928218" fill="#EB3941"/>
<ellipse cx="22.3755" cy="39.4536" rx="0.928283" ry="0.928218" fill="#EB3941"/>
<ellipse cx="28.7662" cy="33.9458" rx="0.928283" ry="0.928218" fill="#EB3941"/>
<ellipse cx="34.3755" cy="35.3267" rx="0.928283" ry="0.928218" fill="#EB3941"/>
<ellipse cx="28.7662" cy="40.3813" rx="0.928283" ry="0.928218" fill="#EB3941"/>
<ellipse cx="34.9146" cy="41.0044" rx="0.928283" ry="0.928218" fill="#EB3941"/>
<ellipse cx="40.6177" cy="40.0786" rx="0.928283" ry="0.928218" fill="#EB3941"/>
<ellipse cx="16.8209" cy="45.481" rx="0.928283" ry="0.928218" fill="#EB3941"/>
<ellipse cx="24.231" cy="45.0063" rx="0.928283" ry="0.928218" fill="#EB3941"/>
<ellipse cx="30.6236" cy="46.4106" rx="0.928283" ry="0.928218" fill="#EB3941"/>
<path d="M49.4892 33.8089C49.3314 34.57 48.6677 35.0806 47.8972 35.0852C47.7766 35.0852 47.6605 35.0713 47.5445 35.0434C46.9318 34.9042 46.4538 34.4122 46.3377 33.7671C46.217 33.0849 46.0871 32.4537 45.9618 31.8875C45.9293 31.9571 45.8968 32.0267 45.8643 32.0917L45.7668 32.2727C45.7436 32.3237 45.7158 32.3748 45.6833 32.4259C45.6369 32.5187 45.5858 32.6022 45.5301 32.6904C45.493 32.7554 45.4512 32.825 45.4094 32.8853C45.3677 32.9549 45.3212 33.0246 45.2702 33.0895C45.2145 33.1823 45.1495 33.2705 45.0845 33.3541C45.0845 33.3634 45.0706 33.3726 45.0613 33.3819C44.9778 33.4979 44.8896 33.6047 44.8014 33.7114C44.4069 34.1941 43.9892 34.5979 43.6086 34.9228C43.5622 34.9645 43.5157 35.0017 43.4693 35.0388C43.1955 35.2662 42.9402 35.4518 42.736 35.5911C42.671 35.6328 42.6153 35.6746 42.5596 35.7071C42.5225 35.7303 42.49 35.7535 42.4575 35.7721C42.4157 35.7999 42.3739 35.8231 42.3415 35.8417C42.2533 35.8974 42.1976 35.9299 42.179 35.9392C42.0723 35.9949 41.9562 36.0227 41.8448 36.0227C41.6592 36.0227 41.4782 35.9484 41.3436 35.8092C38.7351 33.0849 38.684 30.4952 39.2642 28.6062C34.2886 31.066 29.2944 27.4599 29.2387 27.4135C28.9742 27.2232 28.8814 26.8751 29.0113 26.5781C30.594 22.9487 32.7894 21.5843 34.6506 21.1526C33.8662 20.6746 33.1515 20.1362 32.5109 19.5329C32.4135 19.4447 32.3206 19.3565 32.2325 19.2637C32.186 19.2219 32.1396 19.1755 32.0932 19.1245C31.9957 19.027 31.8983 18.9203 31.8054 18.8182C31.7683 18.7764 31.7312 18.7393 31.6987 18.6975C31.5966 18.5861 31.4991 18.4701 31.4063 18.3541C31.3784 18.3216 31.3506 18.2844 31.3274 18.252C31.281 18.1963 31.2392 18.1452 31.1928 18.0895C31.1232 17.9967 31.0535 17.9039 30.9886 17.8111C30.7008 17.4119 30.4594 17.0221 30.2552 16.6508C29.2759 14.8732 29.1413 13.4577 29.132 13.3835C29.1134 13.1885 29.183 12.9982 29.313 12.8544C29.443 12.7105 29.6286 12.627 29.8282 12.627C36.4469 12.627 40.0115 17.1056 41.5246 19.7185C41.687 20.0016 41.8263 20.2615 41.9423 20.4936C42.0305 20.67 42.114 20.8324 42.179 20.9809C42.179 20.9856 42.179 20.9948 42.1883 20.9995C42.2347 21.1016 42.2811 21.199 42.3183 21.2872C42.3229 21.3012 42.3322 21.3151 42.3368 21.329C42.3832 21.4357 42.4204 21.5286 42.4529 21.6075C42.4529 21.6167 42.4529 21.6214 42.4529 21.626C42.4993 21.6492 42.5457 21.6724 42.5921 21.7003C42.7267 21.7745 42.8567 21.8442 42.9495 21.8674C43.5529 22.0112 44.1145 22.1876 44.639 22.4011C47.9846 25.169 49.8641 28.5509 49.4849 33.8042C49.4848 33.8067 49.4867 33.8089 49.4892 33.8089V33.8089Z" fill="#2DCD6F"/>
</svg>
