<svg width="65" height="65" viewBox="0 0 65 65" fill="none" xmlns="http://www.w3.org/2000/svg">
<path d="M26.866 33.7617C26.866 33.7617 26.8539 33.7799 26.8479 33.792H26.8418C26.8418 33.792 26.86 33.7738 26.866 33.7617Z" fill="#64737A"/>
<path d="M36.2481 31.1348C36.0923 31.1348 35.9366 31.141 35.7808 31.1473C35.7684 31.1473 35.7497 31.1473 35.7372 31.1536C35.6999 31.1536 35.6625 31.1536 35.6313 31.1599C35.569 31.1599 35.5067 31.1662 35.4444 31.1724C35.4195 31.1787 35.4008 31.1787 35.3759 31.185C35.6002 31.1662 35.8245 31.1473 36.0487 31.1473C36.4972 31.1348 36.9395 31.1536 37.3881 31.2038C37.0081 31.1536 36.6281 31.1348 36.2481 31.1348ZM31.9746 32.0829C32.2487 31.9573 32.529 31.8506 32.8094 31.7438C32.529 31.838 32.2487 31.9573 31.9746 32.0829Z" fill="#64737A"/>
<path d="M26.8422 33.7931C26.8049 33.8371 26.7675 33.8873 26.7363 33.9312C26.7675 33.8873 26.8049 33.8371 26.8485 33.7931C26.8485 33.7806 26.8609 33.7743 26.8671 33.7617C26.8671 33.7743 26.8485 33.7806 26.8422 33.7931Z" fill="#64737A"/>
<g clip-path="url(#clip0_1280_40140)">
<path d="M30.9934 49.3684C41.3191 49.3684 49.6898 42.6533 49.6898 34.3697C49.6898 26.0862 41.3191 19.3711 30.9934 19.3711C20.6676 19.3711 12.2969 26.0862 12.2969 34.3697C12.2969 42.6533 20.6676 49.3684 30.9934 49.3684Z" fill="#FF8A34"/>
<path d="M21.0166 32.2995C21.0166 32.4885 20.9408 32.6644 20.8208 32.7882C20.7007 32.912 20.5301 32.9902 20.3469 32.9902L18.2177 32.9902C17.8449 32.9902 17.5448 32.6808 17.5448 32.2964C17.5448 31.9185 17.8449 31.609 18.2145 31.6057L20.3469 31.6089C20.7165 31.6057 21.0166 31.9151 21.0166 32.2995Z" fill="#EA6F13"/>
<path d="M23.2027 29.414C23.2027 29.6029 23.1269 29.7788 23.0068 29.9026C22.8868 30.0264 22.7162 30.1046 22.533 30.1046L20.0626 30.1047C19.6898 30.1047 19.3929 29.7985 19.3929 29.4141C19.3929 29.0297 19.693 28.7202 20.0626 28.7234L22.533 28.7234C22.8995 28.7233 23.1996 29.0328 23.2027 29.414Z" fill="#EA6F13"/>
</g>
<path d="M28.9917 21.321C29.0336 21.6981 29.3688 21.9914 29.7563 22.0019C31.5266 22.0752 32.8779 22.18 34.3443 21.8867C36.4079 21.4782 37.9058 20.1898 38.7543 18.8909C39.4037 17.9063 39.8227 16.9322 39.9484 15.3191C39.9798 14.9524 39.7389 14.6068 39.3828 14.502C36.5231 13.6222 34.2082 14.1668 33.2131 14.502C32.1132 14.8791 31.16 15.5181 30.4372 16.356C29.3059 17.6759 28.8031 19.4356 28.9917 21.3106V21.321Z" fill="#2DCD6F"/>
<g clip-path="url(#clip1_1280_40140)">
<path d="M58.8658 39.752C58.746 46.1685 51.1254 51.2215 41.8441 51.039C32.5628 50.8565 25.1359 45.5067 25.2553 39.0907C25.3751 32.6742 32.7791 39.2386 42.0604 39.4211C51.3416 39.6036 58.9856 33.3359 58.8658 39.752Z" fill="#FFB076"/>
<path d="M57.3126 36.9023C57.3955 37.2581 57.439 37.6745 57.4296 38.176C57.3098 44.5925 49.6892 49.6459 40.4079 49.463C35.0709 49.3581 30.3506 47.5424 27.3223 44.7999C30.1393 48.3887 35.5699 50.8825 41.8544 51.0064C51.1356 51.1889 58.7567 46.1355 58.8761 39.7195C58.9093 37.94 58.3434 37.1384 57.313 36.9023H57.3126Z" fill="#EA6F13"/>
<path d="M34.3614 42.342C34.3712 43.1315 34.3815 43.9209 34.3913 44.7103C34.3963 45.1056 34.7069 45.4925 35.114 45.4816C35.503 45.4715 35.8702 45.1634 35.8649 44.7394C35.8551 43.95 35.8448 43.1605 35.8349 42.3711C35.83 41.9754 35.5194 41.5889 35.1123 41.5998C34.7233 41.61 34.3561 41.918 34.3614 42.342Z" fill="white"/>
<path d="M41.6954 43.8577C41.7056 44.6471 41.7155 45.4365 41.7253 46.2259C41.7303 46.6213 42.0409 47.0082 42.448 46.9972C42.837 46.9871 43.2042 46.679 43.1989 46.255C43.189 45.4656 43.1788 44.6762 43.1689 43.8868C43.164 43.4914 42.8534 43.1045 42.4463 43.1155C42.0573 43.1256 41.69 43.4337 41.6954 43.8577Z" fill="white"/>
<path d="M49.1055 41.2542C49.1154 42.0436 49.1256 42.833 49.1355 43.6224C49.1404 44.0182 49.451 44.4046 49.8581 44.3937C50.2471 44.3836 50.6144 44.0755 50.609 43.6515C50.5992 42.8621 50.5889 42.0727 50.5791 41.2832C50.5742 40.8879 50.2635 40.501 49.8565 40.5119C49.4675 40.5221 49.1002 40.8302 49.1055 41.2542Z" fill="white"/>
</g>
<defs>
<clipPath id="clip0_1280_40140">
<rect width="37.7217" height="30.3407" fill="white" transform="translate(12.1328 19.2051)"/>
</clipPath>
<clipPath id="clip1_1280_40140">
<rect width="33.6216" height="14.7603" fill="white" transform="translate(25.2539 36.2832)"/>
</clipPath>
</defs>
</svg>
