<svg width="65" height="65" viewBox="0 0 65 65" fill="none" xmlns="http://www.w3.org/2000/svg">
<g clip-path="url(#clip0_1280_39869)">
<path d="M24.7879 45.9062C24.7879 45.9062 24.7758 45.9244 24.7697 45.9365H24.7637C24.7637 45.9365 24.7818 45.9184 24.7879 45.9062Z" fill="#64737A"/>
<path d="M34.1699 43.2793C34.0142 43.2793 33.8585 43.2856 33.7027 43.2919C33.6903 43.2919 33.6716 43.2919 33.6591 43.2981C33.6217 43.2981 33.5844 43.2981 33.5532 43.3044C33.4909 43.3044 33.4286 43.3107 33.3663 43.317C33.3414 43.3233 33.3227 43.3233 33.2978 43.3295C33.5221 43.3107 33.7463 43.2919 33.9706 43.2919C34.4191 43.2793 34.8614 43.2981 35.3099 43.3484C34.9299 43.2981 34.5499 43.2793 34.1699 43.2793ZM29.8965 44.2274C30.1706 44.1018 30.4509 43.9951 30.7312 43.8884C30.4509 43.9825 30.1706 44.1018 29.8965 44.2274Z" fill="#64737A"/>
<path d="M24.7641 45.9376C24.7267 45.9816 24.6894 46.0318 24.6582 46.0758C24.6894 46.0318 24.7267 45.9816 24.7703 45.9376C24.7703 45.9251 24.7828 45.9188 24.789 45.9062C24.789 45.9188 24.7703 45.9251 24.7641 45.9376Z" fill="#64737A"/>
<path d="M39.5574 15.4346L29.8272 48.8301C29.5466 49.8099 25.9967 50.7381 22.0614 49.6114C18.1261 48.4846 15.6055 45.8183 15.886 44.8385L25.3064 11.3543C25.8675 9.39476 29.5125 8.72006 33.4478 9.8468C37.383 10.9735 40.1185 13.4751 39.5574 15.4346Z" fill="#BF7745"/>
<path d="M33.694 26.4944C33.7741 26.4855 33.8318 26.4135 33.8229 26.3334C33.814 26.2534 33.742 26.1957 33.6619 26.2046L33.694 26.4944ZM33.6619 26.2046C32.3074 26.3547 30.662 26.2094 28.9564 25.7211L28.8761 26.0014C30.6125 26.4986 32.2963 26.6493 33.694 26.4944L33.6619 26.2046ZM28.9564 25.7211C27.0057 25.1626 25.3594 24.265 24.2737 23.2721C23.1807 22.2724 22.6897 21.2113 22.9468 20.3136L22.6665 20.2333C22.3624 21.2951 22.9587 22.4646 24.0769 23.4872C25.2025 24.5166 26.8915 25.4332 28.8761 26.0014L28.9564 25.7211Z" fill="#C4855A"/>
<path d="M38.2908 20.2887C38.313 20.2113 38.2682 20.1306 38.1908 20.1084C38.1134 20.0863 38.0326 20.131 38.0105 20.2085L38.2908 20.2887ZM38.0105 20.2085C37.8382 20.81 37.3447 21.2952 36.5931 21.633C35.8418 21.9708 34.8469 22.1538 33.7077 22.1557L33.7082 22.4473C34.8747 22.4454 35.9131 22.2585 36.7127 21.899C37.5121 21.5396 38.0871 21.0002 38.2908 20.2887L38.0105 20.2085Z" fill="#C4855A"/>
<path d="M24.1035 29.0623C24.1718 29.1051 24.2617 29.0844 24.3045 29.0161C24.3472 28.9479 24.3265 28.8579 24.2582 28.8152L24.1035 29.0623ZM21.3579 24.8056C21.1541 25.5171 21.3565 26.279 21.8445 27.007C22.3327 27.7352 23.1148 28.4434 24.1035 29.0623L24.2582 28.8152C23.2927 28.2107 22.5454 27.5289 22.0867 26.8447C21.6279 26.1602 21.466 25.4873 21.6382 24.8858L21.3579 24.8056Z" fill="#C4855A"/>
<path d="M26.9133 32.8628C26.9907 32.8849 27.0714 32.8401 27.0936 32.7627C27.1157 32.6853 27.0709 32.6046 26.9935 32.5824L26.9133 32.8628ZM26.9935 32.5824C25.0428 32.0239 23.3965 31.1263 22.3108 30.1334C21.2178 29.1337 20.7269 28.0727 20.9839 27.1749L20.7036 27.0946C20.3995 28.1564 20.9958 29.3259 22.114 30.3486C23.2396 31.378 24.9287 32.2945 26.9133 32.8628L26.9935 32.5824Z" fill="#C4855A"/>
<path d="M33.6736 36.1247C33.6958 36.0473 33.651 35.9665 33.5736 35.9444C33.4962 35.9222 33.4154 35.967 33.3933 36.0444L33.6736 36.1247ZM33.3933 36.0444C33.221 36.6459 32.7275 37.1311 31.9759 37.469C31.2246 37.8068 30.2297 37.9898 29.0905 37.9916L29.091 38.2832C30.2575 38.2813 31.2959 38.0944 32.0955 37.7349C32.8949 37.3756 33.4699 36.8362 33.6736 36.1247L33.3933 36.0444Z" fill="#C4855A"/>
<path d="M33.0196 38.4006C33.0417 38.3232 32.9969 38.2425 32.9195 38.2203C32.8421 38.1981 32.7614 38.2429 32.7392 38.3203L33.0196 38.4006ZM24.6979 40.0081C26.6825 40.5764 28.6008 40.6926 30.1006 40.4149C31.5907 40.1391 32.7155 39.4624 33.0196 38.4006L32.7392 38.3203C32.4821 39.2181 31.504 39.8586 30.0475 40.1282C28.6008 40.3961 26.7289 40.2863 24.7782 39.7278L24.6979 40.0081Z" fill="#C4855A"/>
<path d="M26.6115 46.6309C26.6687 46.6327 26.7165 46.5879 26.7183 46.5308C26.7201 46.4736 26.6752 46.4258 26.6181 46.424L26.6115 46.6309ZM26.6181 46.424C25.593 46.3914 24.4693 46.2346 23.3256 45.9071L23.2686 46.1062C24.4298 46.4386 25.5705 46.5978 26.6115 46.6309L26.6181 46.424ZM23.3256 45.9071C21.3723 45.3479 19.7324 44.3956 18.6174 43.4635C18.0596 42.9973 17.6361 42.5386 17.3703 42.1396C17.2374 41.9401 17.1457 41.7583 17.0955 41.6002C17.0451 41.4413 17.0389 41.3139 17.0663 41.2179L16.8673 41.161C16.8246 41.31 16.8406 41.4816 16.8982 41.6629C16.956 41.8449 17.0581 42.0444 17.198 42.2544C17.4779 42.6745 17.9167 43.1476 18.4846 43.6224C19.621 44.5723 21.2866 45.5387 23.2686 46.1062L23.3256 45.9071Z" fill="#C4855A"/>
<ellipse cx="3.73095" cy="7.43291" rx="3.73095" ry="7.43291" transform="matrix(0.266053 -0.963938 0.963982 0.266042 24.3047 14.9629)" fill="#D1A280"/>
<ellipse cx="2.35701" cy="4.6957" rx="2.35701" ry="4.6957" transform="matrix(0.266053 -0.963938 0.963982 0.266042 27.6016 14.1719)" fill="#F9EFD7"/>
<path d="M54.4316 36.1914L20.8908 56.2445C19.9109 56.8364 16.2137 54.9921 13.7508 51.1932C11.2879 47.3943 11.1857 43.3784 12.1656 42.7865L45.5125 22.4343C47.4722 21.2505 51.0572 23.3707 53.5201 27.1695C55.983 30.9684 56.3913 35.0075 54.4316 36.1914Z" fill="url(#paint0_linear_1280_39869)"/>
<path d="M41.1027 40.8919C41.1694 40.9381 41.2619 40.9234 41.3092 40.8591C41.3566 40.7948 41.3408 40.7052 41.2741 40.659L41.1027 40.8919ZM41.2741 40.659C40.0164 39.7879 38.738 38.4631 37.6696 36.8153L37.4189 36.9667C38.5047 38.6415 39.8087 39.9957 41.1027 40.8919L41.2741 40.659ZM37.6696 36.8153C36.4478 34.9307 35.7398 32.9924 35.5775 31.3863C35.4142 29.7708 35.8048 28.5388 36.7118 27.9909L36.5538 27.7473C35.5011 28.3833 35.1159 29.7628 35.2826 31.4125C35.4502 33.0717 36.1778 35.0524 37.4189 36.9667L37.6696 36.8153Z" fill="#C4855A"/>
<path d="M49.674 39.2056C49.7432 39.1638 49.764 39.0753 49.7204 39.0081C49.6767 38.9408 49.5853 38.9202 49.516 38.962L49.674 39.2056ZM49.516 38.962C48.9083 39.3291 48.1181 39.3616 47.2253 39.0853C46.3327 38.8091 45.3532 38.2281 44.3903 37.3944L44.1935 37.6077C45.1773 38.4595 46.1927 39.0664 47.1367 39.3585C48.0805 39.6506 48.9685 39.6317 49.674 39.2056L49.516 38.962Z" fill="#C4855A"/>
<path d="M31.0805 35.9654C31.1031 36.0417 31.1851 36.0861 31.2638 36.0647C31.3424 36.0433 31.3878 35.9641 31.3652 35.8878L31.0805 35.9654ZM31.9874 30.5091C31.282 30.9352 30.8762 31.6979 30.7358 32.645C30.5953 33.5922 30.7169 34.739 31.0805 35.9654L31.3652 35.8878C31.0094 34.6875 30.8962 33.5831 31.0291 32.6874C31.1619 31.7916 31.5376 31.1198 32.1454 30.7527L31.9874 30.5091Z" fill="#C4855A"/>
<path d="M30.5635 41.1112C30.6071 41.1785 30.6985 41.1991 30.7678 41.1573C30.837 41.1155 30.8578 41.0271 30.8141 40.9598L30.5635 41.1112ZM30.8141 40.9598C29.5923 39.0752 28.8843 37.1369 28.722 35.5308C28.5588 33.9154 28.9493 32.6834 29.8563 32.1355L29.6984 31.8919C28.6456 32.5278 28.2604 33.9073 28.4271 35.5571C28.5948 37.2163 29.3224 39.1969 30.5635 41.1112L30.8141 40.9598Z" fill="#C4855A"/>
<path d="M33.7697 48.7075C33.8389 48.6657 33.8597 48.5773 33.8161 48.51C33.7724 48.4428 33.681 48.4221 33.6117 48.464L33.7697 48.7075ZM33.6117 48.464C33.004 48.8311 32.2138 48.8636 31.3211 48.5873C30.4284 48.3111 29.4489 47.73 28.486 46.8964L28.2892 47.1097C29.273 47.9614 30.2884 48.5683 31.2324 48.8605C32.1762 49.1525 33.0642 49.1337 33.7697 48.7075L33.6117 48.464Z" fill="#C4855A"/>
<path d="M31.478 50.0941C31.5472 50.0523 31.568 49.9638 31.5243 49.8966C31.4807 49.8293 31.3893 49.8087 31.32 49.8505L31.478 50.0941ZM23.266 45.3128C24.5071 47.2271 26.0345 48.7246 27.5072 49.5955C28.9715 50.4614 30.4252 50.73 31.478 50.0941L31.32 49.8505C30.413 50.3984 29.0944 50.1989 27.6605 49.3509C26.2351 48.508 24.7386 47.0459 23.5167 45.1613L23.266 45.3128Z" fill="#C4855A"/>
<path d="M19.8554 52.1003C19.8976 52.1393 19.9641 52.1381 20.0042 52.0975C20.0442 52.057 20.0425 51.9925 20.0004 51.9536L19.8554 52.1003ZM20.0004 51.9536C19.1603 51.1757 18.3313 50.2246 17.6149 49.1197L17.4369 49.2272C18.1632 50.3474 19.0035 51.3116 19.8554 52.1003L20.0004 51.9536ZM17.6149 49.1197C16.3916 47.2328 15.731 45.2554 15.4979 43.6789C15.3813 42.8903 15.3722 42.2057 15.4509 41.6849C15.4903 41.4245 15.5512 41.2083 15.6295 41.0416C15.7081 40.874 15.8009 40.7634 15.8998 40.7037L15.7877 40.5307C15.6416 40.6189 15.5263 40.768 15.4379 40.9564C15.3491 41.1456 15.284 41.3816 15.2428 41.6543C15.1603 42.1998 15.1711 42.9049 15.2897 43.7066C15.5268 45.3104 16.1973 47.3152 17.4369 49.2272L17.6149 49.1197Z" fill="#C4855A"/>
<ellipse cx="4.18956" cy="8.22377" rx="4.18956" ry="8.22377" transform="matrix(0.85104 -0.52511 0.552129 0.833752 41.9277 24.6348)" fill="#D1A280"/>
<ellipse cx="2.87481" cy="5.72725" rx="2.87481" ry="5.72725" transform="matrix(0.842584 -0.538575 0.538603 0.842553 44.752 25.6504)" fill="#F9EFD7"/>
</g>
<defs>
<linearGradient id="paint0_linear_1280_39869" x1="47.6098" y1="36.5744" x2="34.3565" y2="22.998" gradientUnits="userSpaceOnUse">
<stop stop-color="#BF7745"/>
<stop offset="1" stop-color="#B66F40"/>
</linearGradient>
<clipPath id="clip0_1280_39869">
<rect width="64" height="64" fill="white" transform="translate(0.779297 0.535156)"/>
</clipPath>
</defs>
</svg>
