<svg width="65" height="65" viewBox="0 0 65 65" fill="none" xmlns="http://www.w3.org/2000/svg">
<path d="M46.4329 10.3801C45.2728 15.4527 42.335 17.9839 39.5378 19.2395C38.5334 18.9231 37.4838 18.7523 36.4091 18.7523C36.3187 18.7523 36.2333 18.7523 36.1429 18.7574C35.5554 18.7724 34.9778 18.8377 34.4053 18.9532C34.1743 18.9934 33.9433 19.0487 33.7123 19.114C33.6721 18.5163 33.5868 17.7378 33.416 16.884C36.5798 8.25569 45.7097 9.45101 45.8102 9.4711C46.0161 9.49621 46.2019 9.61674 46.3224 9.7875C46.4379 9.96328 46.4831 10.1792 46.4329 10.3801Z" fill="#2DCD6F"/>
<path d="M43.3494 36.0312C43.3494 42.51 40.263 48.3159 35.4692 51.2087C34.8019 51.6155 34.0956 51.957 33.3671 52.2433C32.8221 52.4593 32.266 52.635 31.7043 52.7706C31.5375 52.8108 31.3707 52.846 31.2038 52.8761C30.403 53.0368 29.5855 53.1172 28.7569 53.1172C20.7154 53.1172 14.1699 45.4531 14.1699 36.0312C14.1699 26.6094 20.7154 18.9453 28.7569 18.9453C29.9081 18.9453 31.0481 19.101 32.1548 19.4174C32.2716 19.4475 32.3828 19.4777 32.494 19.5179C32.5608 19.5329 32.6219 19.558 32.6887 19.5781C32.7276 19.5932 32.7721 19.6032 32.811 19.6183C33.1669 19.7388 33.5173 19.8694 33.8565 20.0201C34.1512 20.1507 34.446 20.2863 34.7296 20.4369C34.7407 20.4369 34.7519 20.452 34.763 20.457C39.9015 23.1741 43.3494 29.2712 43.3494 36.0312Z" fill="url(#paint0_linear_1280_39537)"/>
<path d="M51.3861 35.8418C51.3861 45.2637 44.8406 52.9277 36.7991 52.9277C36.3153 52.9277 35.8982 52.8424 35.4589 52.752C34.5969 52.5712 33.6292 52.3703 31.7051 52.772C32.2668 52.6364 32.8229 52.4607 33.3679 52.2447C34.0964 51.9584 34.8027 51.6169 35.47 51.2101C40.2637 48.3172 43.3502 42.5114 43.3502 36.0326C43.3502 29.5538 39.9023 23.1755 34.7637 20.4584C34.7526 20.4534 34.7415 20.4434 34.7304 20.4383C34.4467 20.2877 34.152 20.1521 33.8573 20.0215C33.518 19.8708 33.1677 19.7402 32.8118 19.6197C32.7728 19.6046 32.7283 19.5946 32.6894 19.5795C32.6227 19.5594 32.5615 19.5343 32.4948 19.5193C32.5671 19.4891 32.6394 19.464 32.7172 19.4389C33.0787 19.3133 33.4457 19.2028 33.8128 19.1175C34.0686 19.0522 34.3244 18.9969 34.5802 18.9568C35.2142 18.8412 35.8537 18.7759 36.5044 18.7609C36.6045 18.7559 36.699 18.7559 36.7991 18.7559C37.9892 18.7559 39.1515 18.9266 40.2637 19.243C46.6369 21.0711 51.3861 27.8211 51.3861 35.8418Z" fill="url(#paint1_linear_1280_39537)"/>
<path d="M33.7119 19.1142C33.3805 19.1996 33.049 19.3101 32.7226 19.4357C32.6523 19.4608 32.587 19.4859 32.5217 19.516C32.4213 19.4758 32.3208 19.4457 32.2154 19.4156C32.1049 17.6226 31.5575 13.5947 28.9009 11.5255C28.5745 11.2694 28.5142 10.7973 28.7703 10.4708C29.0265 10.1394 29.4985 10.0841 29.83 10.3402C32.0145 12.0428 32.9888 14.7247 33.4156 16.8843C33.5864 17.7381 33.6718 18.5166 33.7119 19.1142Z" fill="#5F6166"/>
<defs>
<linearGradient id="paint0_linear_1280_39537" x1="43.8277" y1="36.2623" x2="28.7801" y2="35.979" gradientUnits="userSpaceOnUse">
<stop stop-color="#FFD774"/>
<stop offset="1" stop-color="#F5C951"/>
</linearGradient>
<linearGradient id="paint1_linear_1280_39537" x1="51.3861" y1="36.0678" x2="32.0233" y2="35.7045" gradientUnits="userSpaceOnUse">
<stop stop-color="#FFD774"/>
<stop offset="1" stop-color="#F5C951"/>
</linearGradient>
</defs>
</svg>
