<svg width="65" height="65" viewBox="0 0 65 65" fill="none" xmlns="http://www.w3.org/2000/svg">
<path d="M44.9432 18.4732L43.703 19.0888L42.3852 19.7408L41.455 20.2014L41.1997 20.3245L40.2193 20.8124C39.7497 20.06 39.2006 18.7992 37.8235 18.1654C37.6548 18.0833 37.5226 17.942 37.4633 17.7641C37.0529 16.5512 36.8087 14.1459 39.9822 12.9831C40.0598 12.9558 40.1464 12.9375 40.2285 12.9421C40.5476 12.9512 43.2379 13.1655 44.9432 18.4732Z" fill="#FFD53F"/>
<path d="M39.6949 49.5568C35.7279 52.0055 32.0072 52.8947 28.6968 52.8947C21.7386 52.8947 16.5907 48.9686 14.7303 47.3134C13.8594 46.5382 13.5539 45.3207 13.9506 44.2127L14.1421 43.6701L14.6026 42.3842C15.4508 42.6487 16.7594 43.018 18.3599 43.3463C24.397 44.582 34.5971 45.2341 40.0506 37.4915C44.6742 30.9299 43.8124 25.5401 42.1937 22.102L43.3564 21.5274L44.7836 20.8207L46.001 20.2188C46.001 20.2188 46.0466 20.196 46.0694 20.1777C47.6061 21.6962 50.4057 24.6692 51.0487 26.7485C52.2844 30.7383 53.6477 40.9524 39.6949 49.5568Z" fill="#FBCD2C"/>
<path d="M40.0495 37.493C34.596 45.2356 24.3959 44.5836 18.3588 43.3479C16.7583 43.0195 15.4497 42.6502 14.6016 42.3857L14.6152 42.3538C14.7156 42.062 15.0028 41.8796 15.3174 41.9024C15.4588 41.9161 29.7673 43.0332 36.8622 35.6189C39.8899 32.4544 41.2031 28.1453 40.7699 22.8057C40.7973 22.7966 40.8247 22.7829 40.852 22.7693L42.0831 22.1582L42.1926 22.1035C43.8113 25.5416 44.6731 30.9314 40.0495 37.493Z" fill="#FFD53F"/>
<path d="M46.0689 20.18C46.0461 20.1982 46.0233 20.2074 46.0005 20.221L44.7831 20.8229L43.3559 21.5297L42.1931 22.1042L42.0837 22.159L40.8526 22.77C40.8252 22.7837 40.7978 22.7973 40.7705 22.8065C40.7386 22.4189 40.6975 22.0222 40.6474 21.6209C40.5926 21.4932 40.4559 21.1923 40.2188 20.8138L41.1991 20.3259L41.4544 20.2028L42.3846 19.7422L43.7024 19.0902L44.9426 18.4746C45.0338 18.7482 45.1205 19.04 45.2025 19.341C45.3758 19.5006 45.6813 19.7924 46.0689 20.18Z" fill="url(#paint0_linear_1280_39666)"/>
<defs>
<linearGradient id="paint0_linear_1280_39666" x1="43.2829" y1="23.422" x2="43.1096" y2="19.8334" gradientUnits="userSpaceOnUse">
<stop stop-color="#FFD774"/>
<stop offset="1" stop-color="#F5C951"/>
</linearGradient>
</defs>
</svg>
