<svg width="65" height="65" viewBox="0 0 65 65" fill="none" xmlns="http://www.w3.org/2000/svg">
<path d="M42.5538 20.9641C42.0687 19.3592 41.2776 17.9002 40.1673 16.6756C40.0231 16.5076 39.8658 16.3484 39.704 16.1893C37.5623 14.1069 34.6994 13.0635 31.4125 13.1785C26.7225 13.3377 21.8883 15.8135 18.1512 19.9693C11.6212 27.2288 10.6421 37.3443 15.9702 42.5214C16.0882 42.6363 16.2062 42.7469 16.3286 42.853C16.3286 42.853 16.3286 42.8559 16.3286 42.8618C17.6617 44.0334 19.2396 44.8336 21.0098 45.236C21.8883 45.4349 22.8106 45.5366 23.7766 45.5366C23.9339 45.5366 24.0956 45.5366 24.253 45.5322C28.9429 45.3686 33.7771 42.8972 37.5186 38.7413C42.3878 33.3255 44.1667 26.3224 42.5451 20.9641H42.5538ZM37.4312 25.6018C37.5273 25.9555 37.3219 26.318 36.9722 26.4153L33.3357 27.4189C33.2788 27.4321 33.2177 27.441 33.1608 27.441C32.8724 27.441 32.6101 27.2465 32.5314 26.9502C32.4353 26.5966 32.6407 26.234 32.9904 26.1368L36.6269 25.1332C36.9766 25.0403 37.335 25.2481 37.4312 25.6018ZM34.7868 19.8986C35.0272 19.6289 35.4424 19.6112 35.7091 19.8544C35.98 20.1019 35.9975 20.522 35.7528 20.7916L30.7831 26.318C30.6563 26.4595 30.4771 26.5347 30.2979 26.5347C30.1406 26.5347 29.9832 26.4772 29.8564 26.3622C29.5898 26.1147 29.5723 25.6947 29.8127 25.425L34.7868 19.8986ZM29.1484 20.4998C29.179 20.1329 29.498 19.8588 29.8564 19.8942C30.2149 19.9251 30.4859 20.2434 30.4553 20.6104L30.2017 23.6167C30.1712 23.966 29.8827 24.2268 29.5461 24.2268C29.5286 24.2268 29.5112 24.2224 29.4893 24.2224C29.1309 24.1915 28.8643 23.8687 28.8949 23.5062L29.1484 20.4998ZM20.6077 25.2968C20.6907 24.9431 21.0448 24.722 21.3988 24.8104L24.253 25.5134C24.607 25.6018 24.8212 25.9599 24.7382 26.3136C24.6638 26.6187 24.3972 26.822 24.1 26.822C24.0476 26.822 23.9951 26.8132 23.9427 26.7999L21.0885 26.097C20.7344 26.013 20.5203 25.6549 20.6077 25.2968ZM18.1338 28.4136L24.524 28.0202C24.8911 27.998 25.1971 28.2766 25.2189 28.6391C25.2408 29.0061 24.9654 29.32 24.607 29.3421L18.2124 29.74H18.1731C17.8278 29.74 17.5393 29.4703 17.5175 29.1166C17.4956 28.7541 17.771 28.4402 18.1338 28.4136ZM17.9196 33.5421C17.6442 33.5421 17.3863 33.3609 17.2945 33.0823C17.1853 32.7331 17.3732 32.3617 17.7185 32.2467L21.884 30.8806C22.2293 30.7657 22.5964 30.9602 22.7101 31.305C22.8193 31.6543 22.6314 32.0301 22.2905 32.1406L18.1206 33.5068C18.0551 33.5289 17.9851 33.5421 17.9196 33.5421ZM20.612 37.7333C20.4809 37.8748 20.3061 37.95 20.1269 37.95C19.9695 37.95 19.8122 37.8925 19.6854 37.7775C19.4188 37.53 19.3969 37.11 19.6417 36.8403L25.2758 30.5756C25.5162 30.3059 25.9314 30.2882 26.2024 30.5313C26.469 30.7789 26.4865 31.1989 26.2461 31.4686L20.612 37.7333ZM27.164 33.8825L26.3466 37.6228C26.2767 37.9323 26.0057 38.1445 25.7041 38.1445C25.6604 38.1445 25.6123 38.1357 25.5642 38.1268C25.2102 38.0472 24.9873 37.6935 25.066 37.3354L25.8833 33.5952C25.962 33.2371 26.3073 33.0116 26.6657 33.0912C27.0198 33.1707 27.2427 33.5244 27.164 33.8825ZM27.1159 26.1368C27.0635 26.1456 27.0154 26.1544 26.9629 26.1544C26.6657 26.1544 26.3991 25.9467 26.3248 25.6416L24.9829 19.903C24.8999 19.5449 25.1184 19.1868 25.4681 19.1028C25.8221 19.0188 26.1762 19.2398 26.2592 19.5935L27.6011 25.3365C27.6841 25.6947 27.4656 26.0483 27.1159 26.1368ZM30.6607 38.0384C30.6039 38.0561 30.547 38.0605 30.4946 38.0605C30.2017 38.0605 29.9395 37.866 29.8608 37.5653L28.2043 31.2299C28.1125 30.8718 28.3223 30.5092 28.6719 30.4164C29.0216 30.3236 29.38 30.5358 29.4718 30.8895L31.1284 37.2293C31.2202 37.583 31.0104 37.9455 30.6607 38.0384ZM34.4721 34.0638C34.3453 34.2009 34.1705 34.2672 34 34.2672C33.8383 34.2672 33.6722 34.2053 33.5455 34.0859L31.2289 31.8356C30.9667 31.5791 30.9623 31.1636 31.2114 30.8983C31.4649 30.633 31.8758 30.6242 32.138 30.8762L34.4546 33.1265C34.7169 33.383 34.7212 33.7985 34.4721 34.0638ZM38.4496 30.5756C38.3753 30.8762 38.1087 31.0751 37.8158 31.0751C37.7634 31.0751 37.7065 31.0663 37.6541 31.053L31.1502 29.373C30.8006 29.2802 30.5864 28.9176 30.6782 28.564C30.7656 28.2103 31.124 27.9936 31.4737 28.0865L37.9775 29.7665C38.3272 29.8593 38.5414 30.2219 38.4496 30.5756Z" fill="#2DCD6F"/>
<path d="M35.7555 20.7898L30.7858 26.3162C30.659 26.4577 30.4798 26.5328 30.3006 26.5328C30.1433 26.5328 29.9859 26.4754 29.8592 26.3604C29.5925 26.1128 29.5751 25.6928 29.8155 25.4232L34.7895 19.8968C35.0299 19.6271 35.4451 19.6094 35.7118 19.8526C35.9828 20.1001 36.0002 20.5201 35.7555 20.7898Z" fill="white"/>
<path d="M27.1174 26.1358C27.065 26.1446 27.0169 26.1535 26.9644 26.1535C26.6672 26.1535 26.4006 25.9457 26.3263 25.6406L24.9844 19.902C24.9014 19.5439 25.1199 19.1858 25.4696 19.1018C25.8236 19.0178 26.1777 19.2389 26.2607 19.5926L27.6026 25.3356C27.6856 25.6937 27.4671 26.0474 27.1174 26.1358Z" fill="white"/>
<path d="M25.2222 28.6378C25.2441 29.0047 24.9687 29.3186 24.6103 29.3407L18.2157 29.7386H18.1764C17.8311 29.7386 17.5426 29.4689 17.5207 29.1152C17.4989 28.7527 17.7743 28.4388 18.137 28.4123L24.5273 28.0188C24.8944 27.9967 25.2004 28.2752 25.2222 28.6378Z" fill="white"/>
<path d="M26.2458 31.4637L20.6117 37.7284C20.4806 37.8698 20.3058 37.945 20.1266 37.945C19.9692 37.945 19.8119 37.8875 19.6851 37.7726C19.4185 37.525 19.3966 37.105 19.6414 36.8353L25.2755 30.5706C25.5159 30.3009 25.9311 30.2832 26.2021 30.5264C26.4687 30.774 26.4862 31.194 26.2458 31.4637Z" fill="white"/>
<path d="M30.6616 38.0481C30.6048 38.0658 30.5479 38.0702 30.4955 38.0702C30.2026 38.0702 29.9404 37.8757 29.8617 37.575L28.2052 31.2396C28.1134 30.8815 28.3232 30.5189 28.6728 30.4261C29.0225 30.3333 29.3809 30.5455 29.4727 30.8992L31.1293 37.239C31.2211 37.5927 31.0113 37.9553 30.6616 38.0481Z" fill="white"/>
<path d="M38.4528 30.5887C38.3785 30.8894 38.1119 31.0883 37.8191 31.0883C37.7666 31.0883 37.7098 31.0795 37.6573 31.0662L31.1535 29.3862C30.8038 29.2933 30.5896 28.9308 30.6814 28.5771C30.7688 28.2234 31.1273 28.0068 31.4769 28.0996L37.9808 29.7797C38.3305 29.8725 38.5446 30.235 38.4528 30.5887Z" fill="white"/>
<path d="M36.9743 26.4253L33.3377 27.4289C33.2809 27.4422 33.2197 27.451 33.1628 27.451C32.8744 27.451 32.6121 27.2565 32.5334 26.9603C32.4373 26.6066 32.6427 26.2441 32.9924 26.1468L36.629 25.1432C36.9786 25.0504 37.337 25.2582 37.4332 25.6118C37.5294 25.9655 37.3239 26.3281 36.9743 26.4253Z" fill="white"/>
<path d="M30.4534 20.6216L30.1999 23.628C30.1693 23.9773 29.8808 24.2381 29.5443 24.2381C29.5268 24.2381 29.5093 24.2337 29.4875 24.2337C29.129 24.2027 28.8624 23.88 28.893 23.5175L29.1465 20.5111C29.1771 20.1442 29.4962 19.87 29.8546 19.9054C30.213 19.9364 30.484 20.2547 30.4534 20.6216Z" fill="white"/>
<path d="M24.7398 26.3176C24.6655 26.6227 24.3989 26.826 24.1017 26.826C24.0493 26.826 23.9968 26.8172 23.9444 26.8039L21.0902 26.101C20.7361 26.017 20.522 25.6589 20.6094 25.3007C20.6924 24.9471 21.0465 24.726 21.4005 24.8144L24.2547 25.5174C24.6087 25.6058 24.8229 25.9639 24.7398 26.3176Z" fill="white"/>
<path d="M27.1665 33.8874L26.3492 37.6277C26.2793 37.9372 26.0083 38.1494 25.7067 38.1494C25.663 38.1494 25.6149 38.1405 25.5668 38.1317C25.2128 38.0521 24.9899 37.6984 25.0685 37.3403L25.8859 33.6001C25.9646 33.2419 26.3099 33.0165 26.6683 33.0961C27.0223 33.1756 27.2452 33.5293 27.1665 33.8874Z" fill="white"/>
<path d="M34.475 34.0719C34.3483 34.2089 34.1735 34.2753 34.003 34.2753C33.8413 34.2753 33.6752 34.2134 33.5484 34.094L31.2319 31.8437C30.9696 31.5872 30.9652 31.1716 31.2144 30.9064C31.4679 30.6411 31.8787 30.6323 32.141 30.8843L34.4576 33.1346C34.7198 33.391 34.7242 33.8066 34.475 34.0719Z" fill="white"/>
<path d="M46.613 47.1918C44.1872 49.7914 40.485 51.1576 35.8825 51.1576C35.6727 51.1576 35.4585 51.1576 35.2443 51.1487C28.0455 50.9586 20.2697 47.5455 16.3359 42.8503C17.6691 44.0219 19.2469 44.8221 21.0171 45.2244C21.8957 45.4234 22.8179 45.5251 23.7839 45.5251C23.9413 45.5251 24.103 45.5251 24.2603 45.5206C28.9503 45.3571 33.7845 42.8857 37.5259 38.7298C42.3951 33.314 44.174 26.3109 42.5524 20.9525C42.0673 19.3477 41.2762 17.8887 40.166 16.6641C46.3245 22.1153 50.1884 29.2908 50.5118 35.8826C50.7304 40.3126 49.3798 44.2208 46.6086 47.1918H46.613Z" fill="#DFAD36"/>
<path d="M22.2945 32.1506L18.1247 33.5167C18.0592 33.5388 17.9892 33.5521 17.9237 33.5521C17.6483 33.5521 17.3904 33.3708 17.2986 33.0923C17.1894 32.743 17.3773 32.3716 17.7226 32.2567L21.8881 30.8905C22.2334 30.7756 22.6005 30.9701 22.7142 31.315C22.8234 31.6642 22.6355 32.04 22.2945 32.1506Z" fill="white"/>
</svg>
