<svg width="65" height="65" viewBox="0 0 65 65" fill="none" xmlns="http://www.w3.org/2000/svg">
<g clip-path="url(#clip0_1280_40085)">
<path d="M43.1509 39.5211C43.5312 38.7268 43.7351 37.8548 43.7296 36.9716C43.7296 36.916 43.7296 36.8605 43.7241 36.7994C43.7186 36.5161 43.7682 36.2328 43.8729 35.9607C43.9776 35.6996 44.1374 35.4496 44.3358 35.2497C44.5342 35.0497 44.7711 34.8886 45.0412 34.7831C45.3057 34.672 45.5867 34.622 45.8733 34.6331C45.8843 34.6331 45.9064 34.6331 45.9174 34.6331C45.9284 34.6331 45.9394 34.6331 45.9505 34.6331C46.9369 34.6498 47.9123 34.4109 48.7775 33.9388C49.6427 33.4666 50.3812 32.7779 50.9158 31.9391C51.4503 31.1004 51.7534 30.1394 51.814 29.1452C51.8746 28.1509 51.6763 27.1622 51.2464 26.2623C51.0205 25.7569 50.9874 25.1903 51.1748 24.6682C51.3511 24.146 51.7258 23.7128 52.2108 23.4573C53.2083 22.9296 54.0239 22.1186 54.5695 21.1354C55.115 20.1412 55.363 19.0136 55.2804 17.886C55.2032 16.6307 54.7072 15.4309 53.8806 14.4755C53.054 13.5201 51.9408 12.8647 50.7118 12.6036C49.4829 12.3425 48.1989 12.4925 47.0581 13.0313C45.9174 13.5701 44.9861 14.4644 44.4019 15.5864C44.1484 16.0752 43.7241 16.4474 43.2005 16.6307C42.6825 16.8084 42.1149 16.7806 41.6189 16.5585C40.7262 16.1252 39.7507 15.9308 38.7643 15.9919C37.7778 16.053 36.8245 16.3585 35.9923 16.8973C35.1602 17.4361 34.4823 18.1749 34.0084 19.0525C33.54 19.9245 33.303 20.9077 33.3196 21.902C33.3196 21.9242 33.3196 21.9464 33.3251 21.9631C33.3251 21.9631 33.3251 21.9742 33.3251 21.9853C33.3306 22.2686 33.281 22.5519 33.1763 22.824C33.0661 23.0907 32.9118 23.3351 32.7134 23.535C32.515 23.735 32.278 23.8961 32.008 24.0016C31.7434 24.1127 31.4624 24.1627 31.1758 24.1516C31.1207 24.1516 31.0656 24.1516 31.005 24.146C30.1288 24.1516 29.2636 24.346 28.481 24.7348C27.693 25.1181 27.0041 25.6791 26.464 26.379C25.9185 27.0733 25.5437 27.8843 25.3619 28.7452C25.1745 29.6118 25.1855 30.5005 25.3894 31.3615C25.7752 33.0389 26.0397 33.8721 26.0617 35.0386C26.0617 35.1386 26.0673 35.2441 26.0673 35.3552C26.0617 35.9607 26.1113 36.5772 26.3042 37.1493C26.9821 39.1879 28.5582 40.8209 30.5586 41.5486C31.1262 41.7541 31.7434 41.8208 32.3441 41.8263C32.5095 41.8263 32.6583 41.8319 32.807 41.8374C34.0139 41.9096 34.9232 42.2596 36.582 42.6428C37.4307 42.8539 38.3234 42.865 39.1776 42.6706C40.0373 42.4817 40.8364 42.0985 41.5252 41.5597C42.2141 41.0098 42.7707 40.3155 43.1565 39.5267L43.1509 39.5211ZM29.0762 36.9105C29.0762 36.9105 29.0927 36.8716 29.1093 36.8549C29.0927 36.8716 29.0927 36.8938 29.0762 36.9105ZM28.966 37.2882C28.966 37.2882 28.966 37.3104 28.966 37.3215C28.9715 37.316 28.966 37.2993 28.966 37.2882ZM30.4374 38.8046C30.4374 38.8046 30.4594 38.8046 30.476 38.7991C30.4704 38.8046 30.4539 38.7991 30.4374 38.8046ZM30.8452 38.6935C30.8452 38.6935 30.8838 38.6769 30.9003 38.6602C30.8838 38.6769 30.8672 38.6824 30.8452 38.6935Z" fill="#18B64C"/>
<path d="M47.2256 28.7116C47.9641 28.7116 48.5647 28.1061 48.5647 27.3618C48.5647 26.6175 47.9641 26.0121 47.2256 26.0121L43.7648 26.0121L49.5732 20.1575C50.1023 19.6354 50.1078 18.7855 49.5787 18.2634C49.0552 17.7357 48.2065 17.7357 47.683 18.2634L41.8746 24.1179L41.8635 20.6297C41.8635 19.8853 41.2629 19.2799 40.5244 19.2799C39.7859 19.2799 39.1853 19.8853 39.1853 20.6297L39.1853 26.8064L35.1733 30.8501L35.1678 27.3674C35.1678 26.6231 34.5671 26.0176 33.8287 26.0176C33.0902 26.0176 32.4896 26.6231 32.4896 27.3674L32.4896 33.5441L29.4916 36.5102C28.9681 37.0379 28.9736 37.8878 29.4916 38.4099C30.0152 38.9376 30.8638 38.9376 31.3874 38.4099L34.3853 35.4438L40.5244 35.4438C41.2629 35.4438 41.8635 34.8383 41.8635 34.094C41.8635 33.3497 41.2629 32.7442 40.5244 32.7442L37.0636 32.7442L41.0755 28.7005L47.2201 28.706L47.2256 28.7116Z" fill="#11A93D"/>
<path d="M33.2765 38.2108C33.1864 37.3335 32.9058 36.4834 32.4411 35.7346C32.4122 35.6873 32.3832 35.6401 32.3467 35.591C32.1945 35.3528 32.0891 35.0854 32.0365 34.7984C31.9896 34.5208 31.9955 34.2235 32.0602 33.9483C32.1249 33.6731 32.2427 33.4106 32.4175 33.1779C32.5848 32.9434 32.798 32.7521 33.0477 32.6099C33.0571 32.6041 33.0758 32.5925 33.0852 32.5866C33.0946 32.5808 33.104 32.575 33.1133 32.5691C33.9616 32.0613 34.6674 31.3419 35.1579 30.4822C35.6484 29.6226 35.9181 28.6456 35.9362 27.6489C35.9544 26.6522 35.7118 25.6739 35.2456 24.7956C34.7793 23.9173 34.0955 23.1807 33.2609 22.6423C32.8054 22.3317 32.4821 21.8669 32.3697 21.3234C32.2478 20.7857 32.3411 20.2186 32.6208 19.7446C33.1949 18.7676 33.4667 17.6458 33.4189 16.5204C33.3654 15.3854 32.9892 14.2945 32.3316 13.3785C31.6121 12.3509 30.565 11.5922 29.3639 11.2165C28.1627 10.8407 26.8738 10.8719 25.6919 11.3C24.51 11.7281 23.4952 12.5351 22.8049 13.5973C22.1147 14.6595 21.7878 15.9135 21.875 17.1776C21.9138 17.7277 21.7465 18.269 21.3964 18.702C21.0481 19.1274 20.5505 19.4041 20.0126 19.4775C19.0271 19.5811 18.0957 19.9318 17.2879 20.5058C16.4802 21.0797 15.8278 21.8442 15.4002 22.7431C14.9726 23.642 14.7805 24.6295 14.8342 25.6272C14.8897 26.6173 15.2001 27.5795 15.732 28.417C15.7436 28.4359 15.7552 28.4548 15.7686 28.4661C15.7686 28.4661 15.7743 28.4755 15.7801 28.485C15.9324 28.7232 16.0377 28.9905 16.0903 29.2776C16.1354 29.5628 16.1314 29.8525 16.0667 30.1277C16.002 30.4028 15.8842 30.6653 15.7093 30.898C15.542 31.1326 15.3289 31.3238 15.0792 31.466C15.0323 31.4952 14.9854 31.5243 14.9309 31.5517C14.188 32.02 13.5529 32.6433 13.0893 33.3883C12.6182 34.1315 12.3241 34.9735 12.229 35.855C12.1263 36.7346 12.2297 37.6231 12.5234 38.4521C12.8152 39.2888 13.2875 40.0394 13.9095 40.6643C15.1115 41.8879 15.7706 42.457 16.3969 43.4382C16.449 43.5233 16.5086 43.6102 16.5665 43.7047C16.8772 44.223 17.2405 44.7215 17.7027 45.1064C19.3413 46.4827 21.5333 47.0387 23.6149 46.5995C24.2051 46.474 24.7651 46.2042 25.2793 45.8911C25.42 45.8036 25.5495 45.7296 25.6791 45.6556C26.7439 45.0784 27.7 44.8951 29.3115 44.3436C30.1437 44.0742 30.9094 43.6112 31.5351 42.9938C32.1685 42.3781 32.6489 41.6291 32.9546 40.806C33.2545 39.9735 33.3666 39.088 33.2841 38.2126L33.2765 38.2108ZM19.9375 43.4363C19.9375 43.4363 19.9313 43.3945 19.9367 43.3715C19.9313 43.3945 19.9429 43.4134 19.9375 43.4363ZM20.0404 43.8161C20.0404 43.8161 20.052 43.835 20.0578 43.8445C20.0596 43.8368 20.0462 43.8256 20.0404 43.8161ZM22.0826 44.3282C22.0826 44.3282 22.1013 44.3165 22.1125 44.303C22.1107 44.3107 22.0938 44.3147 22.0826 44.3282ZM22.3718 44.0178C22.3718 44.0178 22.396 43.9832 22.4014 43.9603C22.396 43.9832 22.3848 43.9967 22.3718 44.0178Z" fill="#20BF58"/>
<path d="M31.1195 26.85C31.748 26.4593 31.9439 25.6261 31.5562 24.9926C31.1686 24.3591 30.342 24.1617 29.7135 24.5524L26.7679 26.3837L28.6623 18.3273C28.8406 17.6029 28.4027 16.8767 27.6804 16.7122C26.96 16.5401 26.2377 16.9892 26.0669 17.7154L24.1726 25.7718L22.3463 22.8086C21.9587 22.1751 21.1321 21.9777 20.5035 22.3684C19.875 22.7592 19.6791 23.5923 20.0668 24.2258L23.2839 29.4829L21.9754 35.0475L20.1568 32.0862C19.7691 31.4527 18.9425 31.2552 18.314 31.646C17.6855 32.0367 17.4896 32.8699 17.8773 33.5034L21.0944 38.7605L20.0877 42.8714C19.9169 43.5975 20.3643 44.3179 21.0771 44.4882C21.7975 44.6603 22.5199 44.2112 22.6906 43.4851L23.6973 39.3742L28.9224 36.1258C29.5509 35.735 29.7468 34.9019 29.3591 34.2684C28.9715 33.6349 28.1449 33.4374 27.5163 33.8282L24.5708 35.6594L25.8792 30.0949L31.1119 26.8482L31.1195 26.85Z" fill="#17B246"/>
<path d="M35.3914 53.4022C36.0336 52.8032 36.5399 52.0668 36.8554 51.2429C36.8755 51.1912 36.8957 51.1395 36.9127 51.0806C37.0105 50.8149 37.1594 50.5696 37.3557 50.3549C37.5479 50.1505 37.7874 49.9768 38.0446 49.8639C38.3018 49.751 38.5808 49.6884 38.8705 49.6898C39.157 49.684 39.4367 49.7411 39.6993 49.8571C39.7096 49.8612 39.7301 49.8693 39.7404 49.8734C39.7506 49.8774 39.7609 49.8815 39.7711 49.8856C40.6831 50.2649 41.6776 50.4023 42.6542 50.282C43.6308 50.1617 44.5681 49.793 45.3701 49.2095C46.172 48.6261 46.8029 47.8436 47.2203 46.9406C47.6376 46.0376 47.8119 45.0443 47.7385 44.0483C47.7117 43.4946 47.8866 42.9551 48.2505 42.5383C48.6042 42.1174 49.1102 41.8524 49.6543 41.7934C50.7741 41.6702 51.8276 41.2162 52.6922 40.5024C53.5609 39.7783 54.201 38.8204 54.5334 37.7405C54.9173 36.5437 54.8912 35.2442 54.4687 34.0502C54.0462 32.8562 53.2481 31.8357 52.1992 31.1395C51.1503 30.4434 49.9008 30.1094 48.6436 30.1901C47.3864 30.2709 46.195 30.7597 45.244 31.5885C44.8307 31.9499 44.3006 32.1398 43.7469 32.1173C43.2003 32.0917 42.6821 31.8565 42.3011 31.4668C41.6276 30.7343 40.7903 30.1937 39.8501 29.8868C38.9099 29.5798 37.9117 29.5126 36.9417 29.7071C35.9717 29.9017 35.0727 30.3392 34.313 30.9812C33.5605 31.62 32.9831 32.4476 32.6375 33.3791C32.6295 33.3998 32.6214 33.4204 32.6205 33.438C32.6205 33.438 32.6165 33.4483 32.6124 33.4586C32.5147 33.7243 32.3657 33.9697 32.1695 34.1844C31.9701 34.3918 31.7378 34.5624 31.4806 34.6753C31.2233 34.7883 30.9443 34.8508 30.6547 34.8494C30.3682 34.8553 30.0885 34.7981 29.8258 34.6821C29.7745 34.6618 29.7233 34.6415 29.6689 34.6139C28.8514 34.296 27.9756 34.1578 27.1062 34.2311C26.2336 34.2971 25.3889 34.5652 24.6322 35.0174C23.8724 35.4624 23.2293 36.0789 22.7475 36.8131C22.2586 37.5504 21.9462 38.3816 21.8234 39.2581C21.5735 40.9615 21.5172 41.8345 21.1143 42.9282C21.078 43.0212 21.0448 43.1215 21.0045 43.2249C20.7796 43.7863 20.602 44.3784 20.5738 44.982C20.4646 47.1292 21.3386 49.2302 22.9362 50.6452C23.3899 51.0458 23.9401 51.3354 24.4971 51.5621C24.651 51.6231 24.7874 51.6831 24.9239 51.7432C26.0209 52.2555 26.7401 52.9165 28.1447 53.8849C28.8579 54.3943 29.6847 54.7339 30.5503 54.868C31.4189 55.0093 32.3017 54.9473 33.1384 54.6999C33.9791 54.4421 34.7491 54.0012 35.3945 53.4094L35.3914 53.4022ZM23.2402 45.782C23.2402 45.782 23.2697 45.7519 23.2912 45.7425C23.2697 45.7519 23.2617 45.7726 23.2402 45.782ZM23.0005 46.0929C23.0005 46.0929 22.9925 46.1135 22.9885 46.1239C22.9956 46.1207 22.9965 46.1032 23.0005 46.0929ZM23.8195 48.0467C23.8195 48.0467 23.84 48.0549 23.8574 48.0558C23.8502 48.0589 23.8369 48.0477 23.8195 48.0467ZM24.2393 48.0938C24.2393 48.0938 24.2813 48.0925 24.3027 48.0831C24.2813 48.0925 24.2639 48.0915 24.2393 48.0938Z" fill="#2DCD6F"/>
<path d="M43.107 44.8436C43.7942 45.116 44.573 44.774 44.8432 44.0813C45.1134 43.3886 44.7742 42.6036 44.0869 42.3313L40.8661 41.055L48.397 37.7485C49.0789 37.4577 49.3925 36.6688 49.0897 35.9878C48.794 35.3036 48.0042 34.9906 47.3254 35.2886L39.7945 38.5951L41.0505 35.3446C41.3207 34.6519 40.9814 33.8669 40.2942 33.5946C39.6069 33.3223 38.8281 33.6642 38.5579 34.3569L36.3157 40.1053L31.1141 42.3891L32.3732 39.1459C32.6434 38.4532 32.3042 37.6682 31.6169 37.3958C30.9297 37.1235 30.1509 37.4654 29.8807 38.1581L27.6385 43.9066L23.7717 45.5614C23.0929 45.8595 22.7896 46.6524 23.0821 47.3294C23.3778 48.0136 24.1676 48.3265 24.8464 48.0285L28.7132 46.3736L34.4266 48.6377C35.1139 48.91 35.8927 48.5681 36.1629 47.8754C36.4331 47.1826 36.0938 46.3977 35.4065 46.1253L32.1857 44.849L37.3873 42.5652L43.1039 44.8364L43.107 44.8436Z" fill="#20BF58"/>
</g>
<defs>
<clipPath id="clip0_1280_40085">
<rect width="64" height="64" fill="white" transform="translate(0.667969 0.535156)"/>
</clipPath>
</defs>
</svg>
