<svg width="65" height="65" viewBox="0 0 65 65" fill="none" xmlns="http://www.w3.org/2000/svg">
<path d="M25.5809 44.4258C25.5809 44.4258 25.5727 44.4381 25.5686 44.4463H25.5645C25.5645 44.4463 25.5768 44.434 25.5809 44.4258Z" fill="#64737A"/>
<path d="M32.7246 42.4414C32.6061 42.4414 32.4875 42.4461 32.3689 42.4509C32.3594 42.4509 32.3452 42.4509 32.3357 42.4556C32.3072 42.4556 32.2788 42.4556 32.2551 42.4604C32.2076 42.4604 32.1602 42.4651 32.1128 42.4699C32.0938 42.4746 32.0795 42.4746 32.0606 42.4794C32.2313 42.4651 32.4021 42.4509 32.5729 42.4509C32.9144 42.4414 33.2512 42.4556 33.5927 42.4936C33.3033 42.4556 33.014 42.4414 32.7246 42.4414ZM29.4707 43.1576C29.6794 43.0628 29.8929 42.9821 30.1063 42.9015C29.8929 42.9726 29.6794 43.0628 29.4707 43.1576Z" fill="#64737A"/>
<path d="M51.9938 25.7837C50.3194 33.0691 45.4528 40.0936 39.4524 43.9403C39.239 43.7126 39.0113 43.4897 38.7694 43.281C38.6366 43.1672 38.5038 43.0533 38.3615 42.9442C38.2381 42.8494 38.1148 42.7545 37.9867 42.6691C37.9156 42.617 37.8444 42.5695 37.7733 42.5269C37.6832 42.4652 37.593 42.4083 37.5029 42.3561C37.3796 42.2755 37.2515 42.2043 37.1234 42.1332C37.0238 42.081 36.9242 42.0241 36.8199 41.9766C36.7629 41.9434 36.706 41.915 36.6491 41.8913C36.5542 41.8438 36.4546 41.8012 36.355 41.7585C36.2269 41.7016 36.0941 41.6494 35.9613 41.6019C35.653 41.4786 35.3399 41.379 35.0221 41.2984C34.9368 41.2794 34.8561 41.2557 34.7707 41.2415C32.0196 40.6296 29.1451 41.3031 26.9869 43.0249C26.9205 43.077 26.8541 43.1292 26.7924 43.1814C26.6359 43.3189 26.4794 43.4565 26.3323 43.6035C26.209 43.7221 26.0904 43.8454 25.9766 43.9735C25.8627 44.0921 25.7584 44.2106 25.6635 44.334C25.6398 44.3624 25.6113 44.3909 25.5876 44.4193C25.5876 44.4288 25.5734 44.4336 25.5686 44.4431C25.5402 44.4763 25.5117 44.5142 25.488 44.5474C25.4074 44.647 25.3315 44.7514 25.2556 44.8605C25.2366 44.8842 25.2176 44.9079 25.2034 44.9363C25.1275 45.0359 25.0611 45.1356 24.9994 45.2352C24.952 45.3063 24.9046 45.3774 24.8619 45.4533C24.7765 45.5909 24.6959 45.7332 24.62 45.8755C24.5441 46.0178 24.4682 46.1601 24.4018 46.3071C24.3828 46.3498 24.3591 46.3925 24.3401 46.4352C24.269 46.5964 24.1978 46.7577 24.1361 46.9237C24.027 47.2178 23.9322 47.5166 23.8515 47.8201C18.9517 47.3838 15.3847 45.496 13.9901 44.7608C11.1204 43.2431 9.92032 40.1411 11.1251 37.3806C11.6279 36.2233 12.4817 35.2936 13.5964 34.6913C15.1238 33.866 16.912 33.7806 18.501 34.4636C18.5248 34.4683 24.2974 36.2802 30.3926 33.7237C30.8053 33.5529 31.2227 33.3537 31.6686 33.1118C36.2222 30.6454 39.4429 26.9221 41.5158 21.7189C42.0043 20.4999 42.9056 19.4849 44.0582 18.8636C45.5287 18.062 47.2647 17.9624 48.8205 18.579C51.4626 19.6367 52.7386 22.53 51.9938 25.7837Z" fill="#2DCD6F"/>
<path d="M25.5652 44.4496C25.5367 44.4829 25.5082 44.5209 25.4844 44.5542C25.5082 44.5209 25.5367 44.4829 25.57 44.4496C25.57 44.44 25.5795 44.4353 25.5843 44.4258C25.5843 44.4353 25.57 44.44 25.5652 44.4496Z" fill="#64737A"/>
<g clip-path="url(#clip0_1280_39776)">
<path fill-rule="evenodd" clip-rule="evenodd" d="M25.2199 40.2538C28.4222 36.7012 33.9042 36.4185 37.4551 39.6208C41.0063 42.8243 41.291 48.3094 38.0886 51.8621C34.8861 55.4137 29.4043 55.699 25.8527 52.4957C22.3018 49.2912 22.0176 43.8069 25.2199 40.2538Z" fill="#1CBF5F"/>
<path fill-rule="evenodd" clip-rule="evenodd" d="M26.3226 41.249C28.9766 38.3039 33.5198 38.0694 36.4625 40.7241C39.4059 43.3787 39.641 47.9251 36.9873 50.8688C34.3339 53.813 29.7897 54.0481 26.8472 51.3932C23.9042 48.7385 23.6691 44.193 26.3226 41.249Z" fill="#B0F89E"/>
<path opacity="0.5" fill-rule="evenodd" clip-rule="evenodd" d="M32.4119 50.8708C31.9719 50.1909 31.8629 49.2661 32.1695 48.8038C32.4763 48.344 33.0817 48.5191 33.5219 49.1986C33.9626 49.8784 34.0698 50.8031 33.7644 51.2667C33.4582 51.7262 32.8514 51.5494 32.4119 50.8708ZM27.3318 49.7178C26.8027 49.556 26.7991 48.9243 27.3249 48.3088C27.8499 47.6929 28.7067 47.3244 29.2355 47.4876C29.7643 47.6504 29.7684 48.2818 29.2424 48.8971C28.7174 49.5133 27.861 49.8812 27.3318 49.7176V49.7178ZM34.3545 46.3763C34.0195 45.9355 34.3841 45.4195 35.17 45.2275C35.9548 45.0321 36.8652 45.232 37.2008 45.6728C37.5359 46.1144 37.1704 46.6292 36.3851 46.8222C35.6005 47.0166 34.6899 46.8161 34.3545 46.3761V46.3763ZM28.2073 44.6981C27.4645 44.3792 26.8583 43.6716 26.8555 43.118C26.8527 42.5646 27.454 42.3728 28.1992 42.6901C28.9424 43.0098 29.5484 43.717 29.5508 44.2708C29.5532 44.8248 28.9517 45.0156 28.2073 44.6983V44.6981ZM31.8969 42.4576C31.9396 41.6491 32.3949 40.836 32.9139 40.643C33.4328 40.4498 33.82 40.9506 33.7773 41.7579C33.7348 42.5654 33.2779 43.3787 32.7594 43.5723C32.2406 43.7649 31.8536 43.2655 31.8967 42.4576H31.8969Z" fill="white"/>
<path opacity="0.3" fill-rule="evenodd" clip-rule="evenodd" d="M30.0109 49.5814C30.0421 48.9793 30.3819 48.3743 30.7685 48.2304C31.1541 48.0853 31.443 48.4577 31.4114 49.0598C31.3797 49.6618 31.0401 50.267 30.6541 50.4109C30.2677 50.5553 29.9788 50.184 30.0107 49.5814H30.0109ZM34.1689 48.7824C33.6012 48.5791 33.1203 48.0795 33.0937 47.6677C33.0689 47.2561 33.5065 47.0865 34.0744 47.2912C34.6411 47.4951 35.1216 47.9949 35.149 48.4061C35.1744 48.8185 34.7356 48.9867 34.1689 48.7824ZM27.373 46.7091C27.122 46.3809 27.3927 45.9968 27.9772 45.8499C28.5606 45.7028 29.2393 45.8489 29.4901 46.1754C29.7421 46.503 29.4714 46.8882 28.8875 47.0345C28.3037 47.1812 27.6242 47.0357 27.3728 46.7091H27.373ZM33.2813 45.2475C32.884 45.1389 32.8669 44.6677 33.2446 44.1981C33.6223 43.7292 34.2509 43.4359 34.649 43.5463C35.0462 43.6549 35.0623 44.1255 34.6852 44.5951C34.3079 45.0638 33.6785 45.3567 33.2813 45.2475ZM30.056 44.0429C29.7183 43.5441 29.6233 42.8561 29.8443 42.5094C30.065 42.1608 30.5193 42.2827 30.8576 42.7801C31.196 43.2798 31.2909 43.968 31.0701 44.3151C30.8485 44.6643 30.3946 44.5424 30.0562 44.0429H30.056Z" fill="#11AE4F"/>
</g>
<path fill-rule="evenodd" clip-rule="evenodd" d="M50.3693 15.4725C50.1956 17.0291 49.6889 18.5177 48.8632 19.8568C48.0374 21.1959 46.7847 22.4208 45.4358 23.3359C45.0394 23.6007 44.6009 23.4403 44.2913 23.0735C43.9816 22.7066 44.0522 22.1864 44.4485 21.9216C45.6067 21.1396 46.571 20.1442 47.2841 18.9979C47.9902 17.8435 48.4278 16.5668 48.5772 15.2262L48.6826 14.2578C48.7324 13.8109 49.1702 13.4972 49.6685 13.5653C50.1667 13.6333 50.5326 14.0504 50.4747 14.5041L50.3693 15.4725" fill="#2DCD6F"/>
<defs>
<clipPath id="clip0_1280_39776">
<rect width="17.3239" height="17.3311" fill="white" transform="translate(22.9922 37.3926)"/>
</clipPath>
</defs>
</svg>
