<svg width="65" height="65" viewBox="0 0 65 65" fill="none" xmlns="http://www.w3.org/2000/svg">
<g clip-path="url(#clip0_1280_39585)">
<g clip-path="url(#clip1_1280_39585)">
<g clip-path="url(#clip2_1280_39585)">
<path d="M42.1864 11.6293C38.771 9.65737 34.3878 10.8545 32.3968 14.3031L27.4471 22.8765C26.8898 23.8418 26.7391 24.9888 27.0297 26.0595L28.1435 30.1706C28.1531 30.2044 28.1619 30.2377 28.1728 30.2711C28.4785 31.2963 28.338 32.4062 27.8003 33.3376L23.5904 40.6296C22.8569 41.9 22.0104 43.1006 21.0609 44.2181L18.9176 46.7402C18.2008 47.9818 18.6164 49.563 19.846 50.273C21.0757 50.983 22.6528 50.5522 23.3696 49.3106L24.6285 45.9999C25.0904 44.7851 25.6494 43.6095 26.2996 42.4831L30.6646 34.9225C31.2029 33.9902 32.1019 33.3363 33.1387 33.066C33.1441 33.0645 33.148 33.0634 33.1534 33.062L37.2705 31.9711C38.343 31.6874 39.2609 30.9834 39.8182 30.0181L44.7679 21.4446C46.7575 17.9965 45.6026 13.6017 42.1864 11.6293Z" fill="#5F8C46"/>
</g>
<path d="M39.9691 14.4221C40.1935 14.0347 40.0609 13.5397 39.6728 13.3165C39.2848 13.0932 38.7883 13.2263 38.5639 13.6136L36.5415 17.1042L35.9999 15.0827C35.8842 14.651 35.4394 14.395 35.0063 14.5111C34.5732 14.6271 34.3159 15.0712 34.4316 15.503L35.3922 19.088L33.6682 22.0636L33.1266 20.0422C33.0109 19.6104 32.566 19.3545 32.1329 19.4705C31.6999 19.5866 31.4426 20.0306 31.5583 20.4624L32.5188 24.0474L31.0532 26.5362C30.8292 26.9236 30.9619 27.4182 31.3497 27.6414C31.738 27.8647 32.2347 27.7315 32.459 27.3438L33.924 24.8559L37.5199 23.8923C37.953 23.7763 38.2103 23.3322 38.0946 22.9005C37.9789 22.4687 37.534 22.2128 37.101 22.3288L35.0734 22.8721L36.7974 19.8964L40.3932 18.9329C40.8263 18.8169 41.0836 18.3728 40.9679 17.941C40.8522 17.5093 40.4074 17.2533 39.9743 17.3694L37.9467 17.9127L39.9691 14.4221Z" fill="#6A9C46"/>
</g>
<g clip-path="url(#clip3_1280_39585)">
<g clip-path="url(#clip4_1280_39585)">
<path d="M53.0544 22.5243C55.0263 25.9398 53.8292 30.3232 50.3807 32.3142L41.8076 37.2641C40.8423 37.8214 39.6954 37.9722 38.6248 37.6815L34.5138 36.5677C34.48 36.5581 34.4467 36.5493 34.4133 36.5384C33.3882 36.2327 32.2783 36.3732 31.3469 36.911L24.0552 41.121C22.7848 41.8545 21.5842 42.701 20.4668 43.6506L17.9448 45.7939C16.7033 46.5107 15.1221 46.0952 14.4121 44.8655C13.7022 43.6358 14.1329 42.0586 15.3745 41.3418L18.685 40.0828C19.8998 39.6209 21.0754 39.0619 22.2017 38.4116L29.7621 34.0465C30.6943 33.5082 31.3482 32.6092 31.6185 31.5723C31.62 31.567 31.6211 31.563 31.6225 31.5577L32.7134 27.4404C32.997 26.3679 33.701 25.4499 34.6663 24.8926L43.2394 19.9427C46.6875 17.9531 51.0821 19.108 53.0544 22.5243Z" fill="#5F8C46"/>
</g>
<path d="M50.2771 24.7395C50.6644 24.5151 51.1594 24.6477 51.3827 25.0358C51.6059 25.4238 51.4729 25.9203 51.0855 26.1448L47.5951 28.1672L49.6164 28.7088C50.0482 28.8245 50.3041 29.2694 50.1881 29.7024C50.072 30.1355 49.628 30.3928 49.1962 30.2771L45.6113 29.3165L42.6358 31.0406L44.6572 31.5823C45.0889 31.6979 45.3449 32.1428 45.2288 32.5759C45.1128 33.009 44.6687 33.2663 44.237 33.1506L40.6521 32.19L38.1634 33.6556C37.7761 33.8797 37.2814 33.747 37.0582 33.3591C36.8349 32.9709 36.9682 32.4741 37.3559 32.2498L39.8436 30.7847L40.8071 27.1887C40.9232 26.7557 41.3673 26.4984 41.799 26.6141C42.2307 26.7297 42.4867 27.1746 42.3706 27.6077L41.8273 29.6353L44.8029 27.9113L45.7664 24.3153C45.8825 23.8822 46.3265 23.6249 46.7583 23.7406C47.19 23.8563 47.4459 24.3012 47.3299 24.7342L46.7866 26.7619L50.2771 24.7395Z" fill="#6A9C46"/>
</g>
<path d="M29.078 12.7435C25.3126 11.3729 21.1579 13.2891 19.7989 17.0231L16.4202 26.3063C16.0398 27.3516 16.098 28.5076 16.5825 29.5143L18.441 33.3802C18.4567 33.4119 18.4715 33.4433 18.4885 33.4744C18.9798 34.4337 19.0414 35.5515 18.6744 36.56L17.1367 40.785C16.636 42.1606 16.0099 43.4864 15.2659 44.7474L13.5865 47.5937C13.0972 48.9381 13.7992 50.4272 15.1549 50.9206C16.5106 51.4141 18.0055 50.7246 18.4948 49.3802L19.1486 45.905C19.3885 44.6298 19.7323 43.377 20.1762 42.1574L21.8198 37.6415C22.1872 36.6321 22.9651 35.8365 23.9502 35.3959C23.9553 35.3935 23.959 35.3918 23.9641 35.3895L27.8726 33.6227C28.8909 33.163 29.6785 32.3148 30.0589 31.2696L33.4376 21.9864C34.7954 18.2529 32.8444 14.1143 29.078 12.7435Z" fill="#6A9C46"/>
<path d="M28.5311 16.9688C28.7027 16.4995 28.461 15.9811 27.9912 15.8109C27.5214 15.6408 27.0014 15.8832 26.8298 16.3525L25.2833 20.5813L24.2962 18.4643C24.0854 18.0122 23.5468 17.8171 23.0932 18.0286C22.6397 18.24 22.443 18.7781 22.6538 19.2302L24.4045 22.9847L23.0862 26.5897L22.099 24.4727C21.8882 24.0205 21.3496 23.8254 20.8961 24.0369C20.4425 24.2484 20.2458 24.7864 20.4566 25.2386L22.2073 28.993L21.0787 32.0128C20.9074 32.482 21.1492 33 21.6188 33.1701C22.0888 33.3404 22.609 33.0976 22.7804 32.628L23.9086 29.6093L27.6744 27.8532C28.1279 27.6418 28.3247 27.1037 28.1138 26.6516C27.903 26.1994 27.3644 26.0043 26.9109 26.2158L24.7875 27.206L26.1058 23.601L29.8716 21.8449C30.3251 21.6334 30.5219 21.0954 30.311 20.6432C30.1002 20.1911 29.5616 19.996 29.1081 20.2074L26.9846 21.1976L28.5311 16.9688Z" fill="#79AD54"/>
<path d="M52.073 35.7772C53.4435 39.5427 51.5274 43.6976 47.7935 45.0567L38.5106 48.4355C37.4655 48.8159 36.3095 48.7577 35.3028 48.2731L31.437 46.4146C31.4053 46.3989 31.374 46.3841 31.3428 46.3671C30.3836 45.8758 29.2658 45.8142 28.2573 46.1812L24.0325 47.719C22.657 48.2197 21.3312 48.8458 20.0702 49.5898L17.2241 51.2693C15.8797 51.7586 14.3907 51.0566 13.8972 49.7008C13.4038 48.3451 14.0932 46.8502 15.4376 46.3608L18.9127 45.707C20.1878 45.4671 21.4406 45.1232 22.6602 44.6793L27.1759 43.0357C28.1853 42.6683 28.9808 41.8903 29.4214 40.9052C29.4238 40.9002 29.4255 40.8964 29.4278 40.8913L31.1946 36.9827C31.6543 35.9643 32.5024 35.1767 33.5476 34.7963L42.8305 31.4174C46.5638 30.0596 50.7022 32.0107 52.073 35.7772Z" fill="#6A9C46"/>
<path d="M47.8494 36.3259C48.3187 36.1543 48.837 36.396 49.0072 36.8658C49.1774 37.3356 48.9349 37.8556 48.4657 38.0272L44.237 39.5737L46.3539 40.5609C46.8061 40.7718 47.0012 41.3104 46.7897 41.7639C46.5782 42.2175 46.0402 42.4142 45.5881 42.2034L41.8337 40.4526L38.2289 41.771L40.3458 42.7582C40.7979 42.969 40.993 43.5076 40.7816 43.9612C40.5701 44.4147 40.0321 44.6115 39.5799 44.4006L35.8256 42.6499L32.806 43.7786C32.3368 43.9498 31.8188 43.708 31.6487 43.2384C31.4784 42.7684 31.7212 42.2482 32.1908 42.0768L35.2093 40.9485L36.9654 37.1826C37.1768 36.729 37.7148 36.5323 38.167 36.7431C38.6191 36.954 38.8142 37.4926 38.6027 37.9461L37.6126 40.0696L41.2175 38.7513L42.9735 34.9853C43.185 34.5318 43.723 34.335 44.1751 34.5459C44.6273 34.7567 44.8224 35.2953 44.6109 35.7489L43.6207 37.8724L47.8494 36.3259Z" fill="#79AD54"/>
<path d="M43.0232 21.791C40.1898 18.9575 35.6146 18.9382 32.8049 21.748L25.8196 28.7335C25.0331 29.5201 24.5973 30.5924 24.611 31.7096L24.6617 35.9987C24.6625 36.0341 24.6627 36.0687 24.6649 36.1041C24.7048 37.1812 24.2882 38.2203 23.5294 38.9792L20.3502 42.1584C19.3152 43.1936 18.1874 44.1305 16.9802 44.959L14.2553 46.8288C13.2437 47.8404 13.2506 49.4867 14.2708 50.5069C15.2909 51.5271 16.9371 51.534 17.9487 50.5223L20.01 47.6491C20.7662 46.5947 21.6073 45.6046 22.525 44.6869L25.923 41.2887C26.6826 40.5291 27.7239 40.1369 28.8029 40.1539C28.8084 40.1539 28.8126 40.1539 28.8181 40.1539L33.1071 40.2046C34.2243 40.2183 35.2966 39.7824 36.083 38.9959L43.0683 32.0104C45.8766 29.2006 45.8574 24.6252 43.0232 21.791Z" fill="#79AD54"/>
<path d="M40.7479 25.3879C41.1017 25.0351 41.1017 24.4631 40.7479 24.1103C40.394 23.7575 39.8203 23.7575 39.4664 24.1103L36.2778 27.2893V24.9535C36.2778 24.4546 35.8721 24.0501 35.3717 24.0501C34.8713 24.0501 34.4656 24.4546 34.4656 24.9535V29.0961L31.7473 31.8062V29.4703C31.7473 28.9714 31.3416 28.5669 30.8412 28.5669C30.3408 28.5669 29.9351 28.9714 29.9351 29.4703V33.6129L27.6361 35.8727C27.2826 36.2256 27.2828 36.7972 27.6365 37.1499C27.9905 37.5028 28.5646 37.5027 28.9184 37.1495L31.2166 34.8905H35.3717C35.8721 34.8905 36.2778 34.486 36.2778 33.9871C36.2778 33.4882 35.8721 33.0837 35.3717 33.0837H33.0288L35.747 30.3737H39.9021C40.4026 30.3737 40.8082 29.9692 40.8082 29.4703C40.8082 28.9714 40.4026 28.5669 39.9022 28.5669H37.5592L40.7479 25.3879Z" fill="#89BA66"/>
</g>
<defs>
<clipPath id="clip0_1280_39585">
<rect width="64" height="64" fill="white" transform="translate(0.779297 0.292969)"/>
</clipPath>
<clipPath id="clip1_1280_39585">
<rect width="25.1224" height="25.1224" fill="white" transform="matrix(0.86601 0.500009 -0.499991 0.866041 31.8008 1.78906)"/>
</clipPath>
<clipPath id="clip2_1280_39585">
<rect width="14.2836" height="44.6362" fill="white" transform="matrix(0.86601 0.500009 -0.499991 0.866041 36.002 8.05859)"/>
</clipPath>
<clipPath id="clip3_1280_39585">
<rect width="25.1224" height="25.1224" fill="white" transform="matrix(-0.499991 -0.866041 -0.86601 0.500009 62.9121 32.9102)"/>
</clipPath>
<clipPath id="clip4_1280_39585">
<rect width="14.2836" height="44.6362" fill="white" transform="matrix(-0.499991 -0.866041 -0.86601 0.500009 56.625 28.709)"/>
</clipPath>
</defs>
</svg>
