<svg width="65" height="65" viewBox="0 0 65 65" fill="none" xmlns="http://www.w3.org/2000/svg">
<path d="M41.3744 10.6949C41.4641 10.8852 41.4676 11.1059 41.3929 11.3084L38.0218 20.0928C37.761 19.9902 37.4919 19.8945 37.2182 19.8097C36.8373 19.689 36.4586 19.5874 36.0704 19.5079C35.892 19.4619 35.7089 19.4268 35.5258 19.3918C35.3536 19.3616 35.1849 19.3354 35.0196 19.3133C34.877 19.2933 34.7378 19.2773 34.5986 19.2613L34.2818 19.2336C34.1612 19.223 34.033 19.2118 33.9116 19.2088C33.7457 19.1943 33.5826 19.1914 33.4119 19.1879C33.0554 19.1795 32.7011 19.1903 32.342 19.2121C32.0788 19.2233 31.826 19.2468 31.5649 19.2772C31.5225 19.2848 31.4765 19.2884 31.4341 19.2961C31.2457 19.3214 31.0614 19.3433 30.8798 19.3768C30.8106 19.386 30.7449 19.3992 30.6791 19.4125C30.4476 19.453 30.2188 19.5052 29.986 19.5609C29.9202 19.5741 29.8579 19.5915 29.7921 19.6047C29.7531 19.6165 29.7182 19.6249 29.6792 19.6366C29.4888 19.6846 29.3053 19.7408 29.1101 19.7997C28.7623 19.9099 28.4214 20.0283 28.0942 20.1631L23.9854 14.2664C23.7492 13.9265 23.8092 13.4566 24.125 13.1916L26.2657 11.3951C26.4577 11.2408 26.7029 11.1749 26.9416 11.2262C27.1844 11.274 27.3837 11.4283 27.4976 11.6472L29.5856 15.7102L28.7916 8.01699C28.7683 7.80592 28.8367 7.58769 28.9767 7.42131C29.1166 7.25493 29.3157 7.15073 29.5337 7.13559L34.1722 6.80029C34.3977 6.78581 34.6152 6.86185 34.7768 7.0128C34.9419 7.16785 35.0296 7.38076 35.0331 7.60149L35.026 15.1562C35.8324 12.2358 36.5678 9.60557 36.5793 9.56097C36.6361 9.34552 36.785 9.16471 36.9875 9.06462C37.1866 8.96042 37.4271 8.94726 37.633 9.02608L40.9253 10.268C41.1237 10.3462 41.2853 10.4971 41.3744 10.6949Z" fill="#2DCD6F"/>
<path d="M32.7793 47.6616C42.0268 47.6616 49.5234 41.3028 49.5234 33.4587C49.5234 25.6147 42.0268 19.2559 32.7793 19.2559C23.5318 19.2559 16.0352 25.6147 16.0352 33.4587C16.0352 41.3028 23.5318 47.6616 32.7793 47.6616Z" fill="#B92D63"/>
<path d="M26.959 46.7832C26.959 46.7832 31.0235 48.1972 31.0235 50.3939V53.4491C31.0235 54.276 31.6925 54.9514 32.5256 54.9514C33.3524 54.9514 34.0278 54.2823 34.0278 53.4491V50.3939C34.0278 48.1214 38.5972 46.7832 38.5972 46.7832H26.959Z" fill="#B92D63"/>
</svg>
