<svg width="65" height="65" viewBox="0 0 65 65" fill="none" xmlns="http://www.w3.org/2000/svg">
<path d="M31.3852 23.8819C31.3852 23.8819 30.0903 18.4672 26.0762 15.7662C26.0762 15.7662 26.1257 13.7003 28.6552 14.0496C28.6552 14.0496 32.0704 17.8295 32.1502 23.8725C32.1502 23.8725 32.077 24.1031 31.3852 23.8819Z" fill="#BF7745"/>
<path d="M44.5539 21.2349C44.5539 21.2349 38.4359 18.4293 35.1783 21.5647C35.1783 21.5647 34.087 22.8363 32.5708 23.033C31.0497 22.8758 29.9249 21.6345 29.9249 21.6345C26.5867 18.5861 20.5438 21.5515 20.5438 21.5515C6.65652 31.1548 17.8883 46.94 22.6797 50.7939C26.7496 54.0667 33.0093 51.759 33.0396 51.7662C33.0396 51.7662 39.2027 53.9033 43.1852 50.5252C47.8744 46.5466 58.6887 30.472 44.5532 21.234L44.5539 21.2349Z" fill="url(#paint0_linear_1280_39322)"/>
<path d="M32.7933 20.4354C32.7933 20.4354 32.7913 20.4197 32.7851 20.3857C32.6878 19.6542 31.7366 10.9536 41.6466 7.16248C41.6466 7.16248 41.6566 7.19214 41.6736 7.24944C42.0005 8.33536 44.991 19.2589 32.7933 20.4354Z" fill="#2DCD6F"/>
<defs>
<linearGradient id="paint0_linear_1280_39322" x1="13.8873" y1="36.5719" x2="51.6202" y2="36.0767" gradientUnits="userSpaceOnUse">
<stop stop-color="#FF6067"/>
<stop offset="1" stop-color="#F0101B"/>
</linearGradient>
</defs>
</svg>
