<svg width="80" height="80" viewBox="0 0 80 80" fill="none" xmlns="http://www.w3.org/2000/svg">
<g clip-path="url(#clip0_11_4930)">
<path d="M22.4242 59.9685L22.7224 58.8555L21.6874 58.3488C11.7776 53.4976 5.38877 44.9469 5.38877 35.3855C5.38877 20.7244 20.5597 8.31675 40 8.31675C59.4403 8.31675 74.6113 20.7262 74.6113 35.3855C74.6113 50.0447 59.4403 62.4542 40 62.4542C37.7841 62.4542 35.6195 62.2896 33.5208 61.9786L32.9802 61.8986L32.5282 62.206C29.121 64.5237 21.9028 69.4302 19.4693 71.0789C20.081 68.7207 21.7437 62.5085 22.4242 59.9685Z" stroke="white" stroke-width="2.8"/>
<path d="M26.9968 27.9105H17.5474C16.6585 27.9105 15.9404 28.6303 15.9404 29.5175C15.9404 30.4047 16.6602 31.1245 17.5474 31.1245H20.6191V42.4436C20.6191 42.8554 20.7865 43.2605 21.0811 43.5534C21.369 43.8447 21.7724 44.0121 22.1859 44.0121H22.529C22.9408 44.0121 23.3426 43.8447 23.6322 43.5534C23.9268 43.2605 24.0942 42.8571 24.0942 42.4436V31.1245H26.9951C27.884 31.1245 28.6037 30.4047 28.6037 29.5175C28.6037 28.6303 27.884 27.9105 26.9951 27.9105H26.9968Z" fill="white"/>
<path d="M49.7054 40.9894H45.3113V29.4292C45.3113 28.465 44.5313 27.6849 43.5687 27.6849C42.6062 27.6849 41.8262 28.465 41.8262 29.4292V41.8899C41.8262 41.987 41.8379 42.0774 41.853 42.1695C41.8362 42.2599 41.8262 42.3536 41.8262 42.4474C41.8262 43.2542 42.4773 43.907 43.2842 43.907H49.7054C50.5139 43.907 51.1634 43.2542 51.1634 42.4474C51.1634 41.6405 50.5122 40.9894 49.7054 40.9894Z" fill="white"/>
<path d="M63.7457 41.52L58.8495 35.0887L63.2737 30.6629C63.873 30.0653 63.873 29.0927 63.2737 28.4934C62.6744 27.8942 61.7035 27.8942 61.1026 28.4934L55.6255 33.9706V29.4292C55.6255 28.465 54.8454 27.6849 53.8829 27.6849C52.9204 27.6849 52.1387 28.465 52.1387 29.4292V42.2733C52.1387 43.2375 52.9187 44.0175 53.8829 44.0175C54.8471 44.0175 55.6255 43.2391 55.6255 42.2733V38.3111L56.6215 37.3168L61.2532 43.3948C61.7688 44.0828 62.7481 44.2251 63.4361 43.7045C64.124 43.1872 64.263 42.2097 63.7457 41.52Z" fill="white"/>
<path d="M40.5201 41.9365L35.8113 29.0539C35.8113 29.0539 35.7996 29.0439 35.7962 29.0389C35.4949 28.2538 34.6262 27.683 33.59 27.683C32.44 27.683 31.4892 28.386 31.3001 29.305C31.2683 29.3737 31.2364 29.4423 31.2097 29.5159L26.5796 41.9365C26.2933 42.7517 26.7218 43.6423 27.5337 43.9285C28.3472 44.2148 29.2394 43.7862 29.5257 42.9727L30.3275 40.6861H36.7722L37.5723 42.9727C37.8585 43.7862 38.7507 44.2148 39.5643 43.9285C40.3778 43.6423 40.8063 42.7517 40.5201 41.9365ZM31.3503 37.7651L33.5163 31.5849C33.5415 31.5849 33.5615 31.5916 33.5867 31.5916L35.751 37.7651H31.3519H31.3503Z" fill="white"/>
</g>
<defs>
<clipPath id="clip0_11_4930">
<rect width="72.0225" height="66.1664" fill="white" transform="translate(3.98877 6.91675)"/>
</clipPath>
</defs>
</svg>
