<svg width="80" height="80" viewBox="0 0 80 80" fill="none" xmlns="http://www.w3.org/2000/svg">
<path d="M22.3705 48H57.6295C60.6278 48 63.1658 50.2134 63.5737 53.1838L65.7707 69.1838C66.2656 72.7881 63.4646 76 59.8265 76H20.1735C16.5354 76 13.7344 72.7881 14.2293 69.1838L16.4263 53.1838C16.8342 50.2134 19.3722 48 22.3705 48Z" stroke="white" stroke-width="4"/>
<circle cx="40" cy="21" r="16" stroke="white" stroke-width="4"/>
<path d="M12 29C10.8954 29 10 29.8954 10 31C10 32.1046 10.8954 33 12 33V29ZM22 20C22 24.8103 17.6902 29 12 29V33C19.5646 33 26 27.34 26 20H22Z" fill="white"/>
<path d="M68 29C69.1046 29 70 29.8954 70 31C70 32.1046 69.1046 33 68 33V29ZM58 20C58 24.8103 62.3098 29 68 29V33C60.4354 33 54 27.34 54 20H58Z" fill="white"/>
</svg>
