<svg width="84" height="84" viewBox="0 0 84 84" fill="none" xmlns="http://www.w3.org/2000/svg">
<g clip-path="url(#clip0_797_17397)">
<path d="M57.2739 33.5163L58.1225 34.3648L57.2739 33.5163ZM42.0014 35.2124L41.1528 36.0609L42.0014 36.9095L42.8499 36.0609L42.0014 35.2124ZM35.2131 42.0006L36.0617 42.8492L36.9102 42.0006L36.0617 41.1521L35.2131 42.0006ZM42.0014 48.7889L42.8499 47.9403L42.0014 47.0918L41.1528 47.9403L42.0014 48.7889ZM50.4852 57.2727L49.6367 58.1212L50.4852 57.2727ZM48.7896 42.0006L47.9411 41.1521L47.0925 42.0006L47.9411 42.8492L48.7896 42.0006ZM56.4254 27.5766C57.8313 28.9825 57.8313 31.2619 56.4254 32.6678L58.1225 34.3648C60.4656 32.0217 60.4656 28.2227 58.1225 25.8795L56.4254 27.5766ZM51.3342 27.5766C52.7401 26.1707 55.0195 26.1707 56.4254 27.5766L58.1225 25.8795C55.7793 23.5364 51.9803 23.5364 49.6372 25.8795L51.3342 27.5766ZM42.8499 36.0609L51.3342 27.5766L49.6372 25.8795L41.1528 34.3639L42.8499 36.0609ZM42.8499 34.3639L34.3632 25.8772L32.6661 27.5742L41.1528 36.0609L42.8499 34.3639ZM34.3632 25.8772C32.0201 23.534 28.2211 23.534 25.8779 25.8772L27.575 27.5742C28.9809 26.1683 31.2603 26.1683 32.6661 27.5742L34.3632 25.8772ZM25.8779 25.8772C23.5348 28.2203 23.5348 32.0193 25.8779 34.3625L27.575 32.6654C26.1691 31.2595 26.1691 28.9801 27.575 27.5742L25.8779 25.8772ZM25.8779 34.3625L34.3646 42.8492L36.0617 41.1521L27.575 32.6654L25.8779 34.3625ZM27.5755 51.3354L36.0617 42.8492L34.3646 41.1521L25.8784 49.6383L27.5755 51.3354ZM27.5755 56.4265C26.1696 55.0206 26.1696 52.7412 27.5755 51.3354L25.8784 49.6383C23.5353 51.9814 23.5353 55.7804 25.8784 58.1236L27.5755 56.4265ZM32.6666 56.4265C31.2607 57.8324 28.9813 57.8324 27.5755 56.4265L25.8784 58.1236C28.2216 60.4667 32.0205 60.4667 34.3637 58.1236L32.6666 56.4265ZM41.1528 47.9403L32.6666 56.4265L34.3637 58.1236L42.8499 49.6374L41.1528 47.9403ZM41.1528 49.6374L49.6367 58.1212L51.3338 56.4242L42.8499 47.9403L41.1528 49.6374ZM49.6367 58.1212C51.9799 60.4644 55.7788 60.4644 58.122 58.1212L56.4249 56.4242C55.019 57.8301 52.7396 57.8301 51.3338 56.4242L49.6367 58.1212ZM58.122 58.1212C60.4651 55.7781 60.4651 51.9791 58.122 49.636L56.4249 51.333C57.8308 52.7389 57.8308 55.0183 56.4249 56.4242L58.122 58.1212ZM58.122 49.636L49.6381 41.1521L47.9411 42.8492L56.4249 51.333L58.122 49.636ZM56.4254 32.6678L47.9411 41.1521L49.6381 42.8492L58.1225 34.3648L56.4254 32.6678Z" fill="#C6C7C8"/>
</g>
<rect x="1.5" y="1.5" width="81" height="81" rx="40.5" stroke="#F2F4F7" stroke-width="3"/>
<defs>
<clipPath id="clip0_797_17397">
<rect width="51.2" height="51.2" fill="white" transform="translate(16.3999 16.4004)"/>
</clipPath>
</defs>
</svg>
