<svg xmlns="http://www.w3.org/2000/svg" width="60" height="18" viewBox="0 0 60 18" fill="none">
  <path d="M7.37015 3.77296H6.03222L5.84768 2.57343C5.67467 2.40043 5.44399 2.26202 5.17871 2.15821C4.91343 2.05441 4.59048 2.00827 4.23293 2.00827C3.44863 2.00827 2.84887 2.29662 2.43365 2.86178C2.01843 3.42694 1.79929 4.16511 1.79929 5.07628V5.3877C1.79929 6.29888 2.00689 7.03704 2.42211 7.61374C2.83733 8.1789 3.43709 8.46724 4.19833 8.46724C4.55588 8.46724 4.87883 8.42111 5.16717 8.3173C5.45552 8.2135 5.6862 8.07509 5.84768 7.90208L6.03222 6.70256H7.37015V8.47878C7.0126 8.894 6.55124 9.22848 5.98608 9.48223C5.42092 9.73597 4.79809 9.85131 4.10606 9.85131C2.90654 9.85131 1.91462 9.43609 1.15339 8.60565C0.380618 7.77521 0 6.70256 0 5.39923V5.09935C0 3.79602 0.380617 2.72337 1.14185 1.89293C1.90309 1.05096 2.895 0.635742 4.10606 0.635742C4.79809 0.635742 5.42092 0.762615 5.98608 1.01636C6.53971 1.27011 7.00106 1.60459 7.37015 2.01981V3.77296Z" fill="black"/>
  <path d="M8.04993 1.20064V0.116455H10.8065V8.45545L11.6716 8.63999V9.71264H8.1422V8.63999L9.00724 8.45545V1.38518L8.04993 1.20064Z" fill="black"/>
  <path d="M16.5053 9.72412C16.4592 9.60878 16.4131 9.50498 16.3785 9.3781C16.3439 9.25123 16.3093 9.14742 16.2977 9.02055C16.0786 9.26276 15.8248 9.47037 15.5134 9.62031C15.202 9.77025 14.856 9.85099 14.4638 9.85099C13.8064 9.85099 13.2874 9.67798 12.9068 9.32043C12.5262 8.96288 12.3301 8.47846 12.3301 7.86716C12.3301 7.24433 12.5838 6.75991 13.0798 6.42543C13.5757 6.07941 14.3139 5.91794 15.2828 5.91794H16.2055V5.26051C16.2055 4.93756 16.1132 4.69535 15.9286 4.51081C15.7441 4.3378 15.4673 4.24553 15.1097 4.24553C14.9021 4.24553 14.7176 4.26859 14.5561 4.31473C14.3946 4.36086 14.2678 4.41853 14.164 4.48774L14.0486 5.20284H12.6992L12.7107 3.7265C13.0336 3.50736 13.4143 3.32282 13.841 3.16134C14.2678 3.0114 14.7291 2.93066 15.2251 2.93066C16.0555 2.93066 16.7245 3.13827 17.232 3.54196C17.751 3.94565 18.0047 4.52234 18.0047 5.27204V8.02864C18.0047 8.13244 18.0047 8.22472 18.0047 8.31699C18.0047 8.40926 18.0163 8.48999 18.0278 8.57073L18.5814 8.63993V9.71258H16.5053V9.72412ZM14.9483 8.51306C15.2135 8.51306 15.4673 8.45539 15.6864 8.34005C15.9056 8.22471 16.0786 8.07477 16.2055 7.90177V6.88678H15.2828C14.9021 6.88678 14.6138 6.97906 14.4177 7.15206C14.2216 7.32507 14.1178 7.54422 14.1178 7.79796C14.1178 8.02864 14.187 8.20165 14.337 8.32852C14.4869 8.45539 14.683 8.51306 14.9483 8.51306Z" fill="black"/>
  <path d="M24.6221 5.34119H23.4111L23.215 4.51075C23.0881 4.40694 22.9382 4.3262 22.7536 4.26853C22.5691 4.19933 22.3615 4.16473 22.1308 4.16473C21.8194 4.16473 21.5656 4.23393 21.3811 4.37234C21.1966 4.51074 21.1043 4.69529 21.1043 4.9029C21.1043 5.09897 21.1966 5.27198 21.3696 5.41039C21.5426 5.54879 21.9001 5.66413 22.4307 5.76794C23.2611 5.92941 23.8724 6.17162 24.2646 6.49457C24.6683 6.81752 24.8643 7.25581 24.8643 7.80943C24.8643 8.40919 24.6106 8.89362 24.0916 9.27424C23.5725 9.65485 22.9036 9.8394 22.0616 9.8394C21.5541 9.8394 21.0812 9.75866 20.6429 9.62025C20.2162 9.47031 19.8356 9.25117 19.5011 8.97436L19.478 7.47495H20.7352L20.9774 8.33999C21.0812 8.43226 21.2312 8.50147 21.4157 8.53607C21.6002 8.5822 21.7963 8.60527 21.9924 8.60527C22.3615 8.60527 22.6383 8.53607 22.8228 8.40919C23.0189 8.28232 23.1112 8.09778 23.1112 7.87864C23.1112 7.68256 23.0189 7.50955 22.8228 7.37115C22.6268 7.23274 22.2692 7.10587 21.7617 6.99053C20.9774 6.82906 20.3892 6.59838 19.9855 6.27543C19.5818 5.96401 19.3857 5.53726 19.3857 4.99517C19.3857 4.44154 19.6164 3.95712 20.0778 3.55343C20.5391 3.14975 21.1966 2.94214 22.0385 2.94214C22.5576 2.94214 23.042 3.01134 23.5033 3.14975C23.9647 3.28816 24.3222 3.4727 24.5875 3.68031L24.6221 5.34119Z" fill="black"/>
  <path d="M31.1172 5.34119H29.9062L29.7101 4.51075C29.5832 4.40694 29.4333 4.3262 29.2487 4.26853C29.0642 4.19933 28.8566 4.16473 28.6259 4.16473C28.3145 4.16473 28.0608 4.23393 27.8762 4.37234C27.6917 4.51074 27.5994 4.69529 27.5994 4.9029C27.5994 5.09897 27.6917 5.27198 27.8647 5.41039C28.0377 5.54879 28.3952 5.66413 28.9258 5.76794C29.7562 5.92941 30.3675 6.17162 30.7597 6.49457C31.1634 6.81752 31.3594 7.25581 31.3594 7.80943C31.3594 8.40919 31.1057 8.89362 30.5867 9.27424C30.0677 9.65485 29.3987 9.8394 28.5567 9.8394C28.0492 9.8394 27.5763 9.75866 27.138 9.62025C26.7113 9.47031 26.3307 9.25117 25.9962 8.97436L25.9731 7.47495H27.2303L27.4725 8.33999C27.5763 8.43226 27.7263 8.50147 27.9108 8.53607C28.0954 8.5822 28.2914 8.60527 28.4875 8.60527C28.8566 8.60527 29.1334 8.53607 29.318 8.40919C29.514 8.28232 29.6063 8.09778 29.6063 7.87864C29.6063 7.68256 29.514 7.50955 29.318 7.37115C29.1219 7.23274 28.7643 7.10587 28.2568 6.99053C27.4725 6.82906 26.8843 6.59838 26.4806 6.27543C26.0769 5.96401 25.8809 5.53726 25.8809 4.99517C25.8809 4.44154 26.1115 3.95712 26.5729 3.55343C27.0342 3.14975 27.6917 2.94214 28.5337 2.94214C29.0527 2.94214 29.5371 3.01134 29.9984 3.14975C30.4598 3.28816 30.8174 3.4727 31.0826 3.68031L31.1172 5.34119Z" fill="black"/>
  <path d="M35.3614 9.85093C34.4041 9.85093 33.6313 9.53951 33.0546 8.92822C32.4779 8.31692 32.1896 7.53262 32.1896 6.58684V6.34463C32.1896 5.35272 32.4664 4.54535 33.0085 3.89945C33.5506 3.25355 34.2772 2.94214 35.1999 2.94214C36.0996 2.94214 36.7916 3.20742 37.2991 3.74951C37.795 4.2916 38.0488 5.02977 38.0488 5.95248V6.93286H34.0696L34.0581 6.96746C34.0927 7.40575 34.2426 7.7633 34.4964 8.05165C34.7616 8.33999 35.1076 8.4784 35.5575 8.4784C35.9612 8.4784 36.2841 8.4438 36.5494 8.36306C36.8147 8.28232 37.103 8.15545 37.4144 7.98244L37.8988 9.08969C37.622 9.30884 37.2645 9.49338 36.8262 9.64332C36.3879 9.77019 35.9035 9.85093 35.3614 9.85093ZM35.1999 4.31467C34.8654 4.31467 34.6002 4.44154 34.4156 4.69529C34.2195 4.94903 34.1042 5.28351 34.0581 5.69873L34.0811 5.73334H36.2841V5.57186C36.2841 5.19124 36.1918 4.87983 36.0188 4.66069C35.8343 4.43001 35.5575 4.31467 35.1999 4.31467Z" fill="black"/>
  <path d="M39.0435 17.3028C35.2604 17.3028 31.7425 15.4343 29.6203 12.2971L30.6699 11.5935C32.5499 14.3847 35.6871 16.0456 39.0435 16.0456C42.3998 16.0456 45.537 14.3847 47.4171 11.5935L48.4666 12.2971C46.3444 15.4343 42.815 17.3028 39.0435 17.3028Z" fill="black"/>
  <path d="M46.7135 1.59168C46.1599 0.576694 44.7873 0 43.3341 0C41.454 0 40.4852 0.553625 39.8047 1.02651L40.8312 3.02188C41.7193 2.39905 42.5498 2.26064 43.1034 2.26064C43.657 2.26064 44.0607 2.46825 44.0607 2.95267C44.0607 3.4371 43.7147 3.64471 43.2303 3.64471H42.2729V5.70927H43.2303C43.8531 5.70927 44.2914 5.98608 44.2914 6.53971C44.2914 7.09333 43.7147 7.43935 43.0918 7.43935C42.469 7.43935 41.3733 7.16254 40.7505 6.41284L39.4471 8.24672C39.9777 9.00796 41.3041 9.76919 43.2995 9.76919C44.6835 9.76919 46.0791 9.29631 46.7942 8.31593C46.1368 7.49702 45.7446 6.3667 45.7446 4.95957C45.7446 3.58704 46.0791 2.43365 46.7135 1.59168Z" fill="#7D75EA"/>
  <path d="M49.8249 5.37451C49.202 5.37451 48.7637 5.85893 48.7637 6.44716C48.7637 7.02385 49.202 7.50828 49.8249 7.50828C50.4477 7.50828 50.8975 7.02385 50.8975 6.44716C50.8975 5.85893 50.4477 5.37451 49.8249 5.37451Z" fill="#7D75EA"/>
  <path d="M56.574 3.20577C55.882 3.20577 55.6167 3.29804 55.4091 3.36724L55.5475 2.4676H59.5382V0.126221H53.2176L53.1484 0.691381C53.2638 0.760584 53.3676 0.829787 53.4598 0.887456L53.01 1.7525L52.4218 2.88282C52.4218 2.88282 51.4645 2.30612 50.4264 2.30612C49.3999 2.30612 48.7079 2.88282 48.7079 4.04774C48.8463 3.90933 49.4691 3.35571 50.9109 3.35571C51.5914 3.35571 52.2834 3.57485 52.8255 4.01314C52.8601 4.0362 52.8831 4.05927 52.9177 4.08234C52.987 4.14001 53.0562 4.20921 53.1138 4.27842C53.1484 4.31302 53.1715 4.34762 53.2061 4.38222C53.2407 4.42836 53.2868 4.47449 53.3214 4.53216C53.5406 4.84358 53.7021 5.21266 53.7828 5.63941L53.852 5.67401C54.3364 5.3972 55.0169 5.18959 55.6397 5.18959C56.2626 5.18959 57.0123 5.4664 57.0123 6.28531C57.0123 7.10422 56.1818 7.38103 55.6397 7.38103C55.2015 7.38103 54.4172 7.19649 53.8059 6.74667C53.6905 7.56557 53.3099 8.2922 52.6986 8.82276C53.3906 9.33025 54.4748 9.73394 55.9166 9.73394C57.9119 9.73394 59.9996 8.61515 59.9996 6.28531C59.9996 3.95547 57.9581 3.20577 56.574 3.20577Z" fill="#7D75EA"/>
</svg>