<svg width="42" height="42" viewBox="0 0 42 42" fill="none" xmlns="http://www.w3.org/2000/svg">
<g clip-path="url(#clip0_2986_62143)">
<rect y="4" width="38" height="34" rx="2" fill="#F5F5F5"/>
<path d="M0 6C0 4.89543 0.895431 4 2 4H36C37.1046 4 38 4.89543 38 6V14H0V6Z" fill="#00B400"/>
<path fill-rule="evenodd" clip-rule="evenodd" d="M7 0C5.89543 0 5 0.895431 5 2V6C5 7.10457 5.89543 8 7 8C8.10457 8 9 7.10457 9 6V2C9 0.895431 8.10457 0 7 0ZM15 0C13.8954 0 13 0.895431 13 2V6C13 7.10457 13.8954 8 15 8C16.1046 8 17 7.10457 17 6V2C17 0.895431 16.1046 0 15 0ZM21 2C21 0.895431 21.8954 0 23 0C24.1046 0 25 0.895431 25 2V6C25 7.10457 24.1046 8 23 8C21.8954 8 21 7.10457 21 6V2ZM31 0C29.8954 0 29 0.895431 29 2V6C29 7.10457 29.8954 8 31 8C32.1046 8 33 7.10457 33 6V2C33 0.895431 32.1046 0 31 0Z" fill="#2F2F2F"/>
<path d="M39.364 39.364C42.8787 35.8492 42.8787 30.1508 39.364 26.636C35.8492 23.1213 30.1508 23.1213 26.636 26.636C23.1213 30.1508 23.1213 35.8492 26.636 39.364C30.1508 42.8787 35.8492 42.8787 39.364 39.364Z" fill="#2F2F2F"/>
<path fill-rule="evenodd" clip-rule="evenodd" d="M34.0218 28.8581C34.0218 28.4345 33.5639 28.0911 32.9991 28.0911C32.4342 28.0911 31.9763 28.4345 31.9763 28.8581V31.9777L28.8579 31.9777C28.4342 31.9777 28.0908 32.4356 28.0908 33.0004C28.0908 33.5653 28.4342 34.0232 28.8579 34.0232H31.9763V37.1422C31.9763 37.5658 32.4342 37.9092 32.9991 37.9092C33.5639 37.9092 34.0218 37.5658 34.0218 37.1422V34.0232H37.142C37.5656 34.0232 37.909 33.5653 37.909 33.0004C37.909 32.4356 37.5656 31.9777 37.142 31.9777L34.0218 31.9777V28.8581Z" fill="white"/>
</g>
<defs>
<clipPath id="clip0_2986_62143">
<rect width="42" height="42" fill="white"/>
</clipPath>
</defs>
</svg>
