<svg width="24" height="24" viewBox="0 0 24 24" fill="none" xmlns="http://www.w3.org/2000/svg">
<g clip-path="url(#clip0_900_2027)">
<path d="M7.07956 3.19201L6.12694 4.23736C4.91998 5.09307 3.91188 6.20319 3.17198 7.48907L2.47833 8.25227C1.36386 7.66021 0.605469 6.48534 0.605469 5.1347C0.605469 3.18738 2.187 1.60547 4.13385 1.60547C5.36392 1.60547 6.44602 2.23453 7.07956 3.19201Z" fill="#FFC710"/>
<path d="M19.8661 1.60547C21.813 1.60547 23.3945 3.18738 23.3945 5.1347C23.3945 6.48534 22.6361 7.66021 21.5216 8.25227L20.828 7.48907C20.0881 6.19856 19.08 5.09307 17.873 4.23736L16.9204 3.19201C17.5539 2.23453 18.636 1.60547 19.8661 1.60547Z" fill="#FFC710"/>
<path d="M12.0002 22.7206C17.6189 22.7206 22.1738 18.1646 22.1738 12.5446C22.1738 6.9245 17.6189 2.36853 12.0002 2.36853C6.38152 2.36853 1.82666 6.9245 1.82666 12.5446C1.82666 18.1646 6.38152 22.7206 12.0002 22.7206Z" fill="white"/>
<path fill-rule="evenodd" clip-rule="evenodd" d="M4.13388 2.211C2.52157 2.211 1.211 3.52168 1.211 5.13473C1.211 6.12461 1.70242 7.00085 2.45585 7.52954C3.37115 5.79044 4.74763 4.33198 6.42263 3.31691C5.88481 2.64072 5.05966 2.211 4.13388 2.211ZM0 5.13473C0 6.61571 0.778633 7.91594 1.94787 8.64497C1.47858 9.85436 1.22115 11.1695 1.22115 12.5447C1.22115 15.8473 2.70572 18.8031 5.04383 20.7808L3 23.7659L3.99923 24.45L6.01176 21.5106C7.72455 22.6574 9.78428 23.3262 12.0002 23.3262C13.9842 23.3262 15.843 22.7901 17.4397 21.8548L19.2166 24.45L20.2158 23.7659L18.4487 21.1849C21.0776 19.2188 22.7793 16.0805 22.7793 12.5447C22.7793 11.1694 22.5218 9.85429 22.0525 8.64486C23.2215 7.91578 24 6.61569 24 5.13488C24 2.85329 22.1475 1.00015 19.8661 1.00015C18.4743 1.00015 17.2448 1.68804 16.4949 2.74231C15.1267 2.11368 13.6044 1.76317 12.0002 1.76317C10.3959 1.76317 8.87349 2.11373 7.50532 2.74243C6.75541 1.68801 5.52583 1 4.13388 1C1.85248 1 0 2.85314 0 5.13473ZM17.5776 3.31678C19.2526 4.33183 20.6292 5.79029 21.5445 7.52941C22.2977 7.00069 22.789 6.12459 22.789 5.13488C22.789 3.52183 21.4784 2.21115 19.8661 2.21115C18.9405 2.21115 18.1154 2.64075 17.5776 3.31678ZM2.43215 12.5447C2.43215 7.25891 6.71606 2.97417 12.0002 2.97417C17.2844 2.97417 21.5683 7.25891 21.5683 12.5447C21.5683 17.8305 17.2844 22.1152 12.0002 22.1152C6.71606 22.1152 2.43215 17.8305 2.43215 12.5447ZM12.6055 6.06932V11.9395H15.9307V13.1505H11.3945V6.06932H12.6055Z" fill="#2F2F2F"/>
</g>
<defs>
<clipPath id="clip0_900_2027">
<rect width="24.0002" height="24" fill="white"/>
</clipPath>
</defs>
</svg>
