<svg width="20" height="20" viewBox="0 0 20 20" fill="none" xmlns="http://www.w3.org/2000/svg">
<path d="M10.0454 4.61538C10.9481 4.61538 12.0797 4.00509 12.7536 3.19135C13.3639 2.45391 13.8089 1.42403 13.8089 0.394152C13.8089 0.254291 13.7962 0.114431 13.7708 0C12.7663 0.0381437 11.5584 0.673872 10.8337 1.52575C10.2615 2.17419 9.74025 3.19135 9.74025 4.23395C9.74025 4.38652 9.76568 4.5391 9.77839 4.58996C9.84196 4.60267 9.94368 4.61538 10.0454 4.61538ZM6.86676 20C8.10007 20 8.6468 19.1736 10.1853 19.1736C11.7491 19.1736 12.0924 19.9746 13.4656 19.9746C14.8134 19.9746 15.7161 18.7285 16.568 17.5079C17.5216 16.1093 17.9157 14.7362 17.9411 14.6726C17.8521 14.6472 15.2711 13.5919 15.2711 10.6294C15.2711 8.06103 17.3054 6.904 17.4198 6.815C16.0721 4.88239 14.0251 4.83153 13.4656 4.83153C11.9526 4.83153 10.7193 5.74698 9.94368 5.74698C9.10452 5.74698 7.99835 4.88239 6.68875 4.88239C4.1967 4.88239 1.6665 6.94215 1.6665 10.8328C1.6665 13.2486 2.60738 15.8042 3.76441 17.4571C4.75614 18.8557 5.62073 20 6.86676 20Z" fill="black"/>
</svg>
