<svg width="24" height="24" viewBox="0 0 24 24" fill="none" xmlns="http://www.w3.org/2000/svg">
<path d="M4 21V6.29762H7.77778C7.77778 5.10635 8.17037 4.09226 8.95556 3.25536C9.74074 2.41845 10.7185 2 11.8889 2C13.0593 2 14.0741 2.41845 14.9333 3.25536C15.7926 4.09226 16.2222 5.10635 16.2222 6.29762H20V21H4ZM9.11111 6.29762H14.8889C14.8889 5.46825 14.6111 4.77083 14.0556 4.20536C13.5 3.63988 12.8148 3.35714 12 3.35714C11.1852 3.35714 10.5 3.63988 9.94444 4.20536C9.38889 4.77083 9.11111 5.46825 9.11111 6.29762ZM12 13.0833C13.1704 13.0833 14.1852 12.646 15.0444 11.7714C15.9037 10.8968 16.3333 9.86389 16.3333 8.67262H15C15 9.50198 14.7037 10.2183 14.1111 10.8214C13.5185 11.4246 12.8148 11.7262 12 11.7262C11.1852 11.7262 10.4815 11.4246 9.88889 10.8214C9.2963 10.2183 9 9.50198 9 8.67262H7.66667C7.66667 9.86389 8.0963 10.8968 8.95556 11.7714C9.81481 12.646 10.8296 13.0833 12 13.0833Z" fill="#00B400"/>
</svg>
