<svg width="36" height="36" viewBox="0 0 36 36" fill="none" xmlns="http://www.w3.org/2000/svg">
<path d="M24.6879 29.9056L26.2097 28.3379L21.0986 23.0728L19.5768 24.6405C18.8685 25.3701 18.5144 26.2476 18.5144 27.273C18.5144 28.2984 18.8685 29.176 19.5768 29.9056C20.2851 30.6352 21.1369 31 22.1323 31C23.1278 31 23.9796 30.6352 24.6879 29.9056ZM27.4157 27.0956L28.9376 25.5279C29.6459 24.7983 30 23.9207 30 22.8953C30 21.8699 29.6459 20.9924 28.9376 20.2628C28.2293 19.5332 27.3774 19.1684 26.382 19.1684C25.3866 19.1684 24.5347 19.5332 23.8265 20.2628L22.3046 21.8305L27.4157 27.0956ZM11.5943 13.8737H23.0799V12.099H11.5943V13.8737ZM17.3371 8.63823C17.6051 8.63823 17.8396 8.5347 18.0406 8.32765C18.2416 8.12059 18.3421 7.87903 18.3421 7.60296C18.3421 7.32689 18.2416 7.08532 18.0406 6.87827C17.8396 6.67122 17.6051 6.56769 17.3371 6.56769C17.0691 6.56769 16.8346 6.67122 16.6336 6.87827C16.4326 7.08532 16.3321 7.32689 16.3321 7.60296C16.3321 7.87903 16.4326 8.12059 16.6336 8.32765C16.8346 8.5347 17.0691 8.63823 17.3371 8.63823ZM16.9638 28.6633H7V7.36633H14.6092C14.705 6.67615 15.0112 6.10922 15.5281 5.66553C16.0449 5.22184 16.6479 5 17.3371 5C18.0262 5 18.6292 5.22184 19.1461 5.66553C19.6629 6.10922 19.9692 6.67615 20.0649 7.36633H27.6742V17.5415C26.8702 17.3246 26.0662 17.3148 25.2622 17.5119C24.4582 17.7091 23.7308 18.0641 23.0799 18.5768V17.1274H11.5943V18.9022H22.7066L19.5481 22.1559H11.5943V23.9306H17.8826C17.3849 24.6011 17.0547 25.3504 16.892 26.1786C16.7293 27.0068 16.7532 27.835 16.9638 28.6633Z" fill="#2F2F2F"/>
</svg>
