<svg width="48" height="48" viewBox="0 0 48 48" fill="none" xmlns="http://www.w3.org/2000/svg">
<path d="M32.82 18.1304H14.9211V39.0001L32.82 28.6681V18.1304Z" fill="#C9C9C9"/>
<path d="M14.9211 18.1304H32.82V39.0001L14.9211 28.6681V18.1304Z" fill="#DFDFDF"/>
<path d="M23.9693 35.9387C31.6844 35.9387 37.9387 29.6844 37.9387 21.9693C37.9387 14.2543 31.6844 8 23.9693 8C16.2543 8 10 14.2543 10 21.9693C10 29.6844 16.2543 35.9387 23.9693 35.9387Z" fill="#FFE9A8"/>
<path d="M23.9692 32.3835C29.7208 32.3835 34.3834 27.7209 34.3834 21.9692C34.3834 16.2176 29.7208 11.555 23.9692 11.555C18.2176 11.555 13.5549 16.2176 13.5549 21.9692C13.5549 27.7209 18.2176 32.3835 23.9692 32.3835Z" fill="#F5C84E"/>
<path d="M20.8093 18.0808V15.1923H25.8416V28.4581H22.6074V18.0849H20.8093V18.0808Z" fill="#FFF0C2"/>
</svg>
