<svg width="48" height="48" viewBox="0 0 48 48" fill="none" xmlns="http://www.w3.org/2000/svg">
<path d="M32.8742 18.1526H14.9402V39.0681L32.8742 28.7134V18.1526Z" fill="#C9C9C9"/>
<path d="M14.9402 18.1526H32.8742V39.0681L14.9402 28.7134V18.1526Z" fill="#DFDFDF"/>
<path d="M24 36C31.732 36 38 29.732 38 22C38 14.268 31.732 8 24 8C16.268 8 10 14.268 10 22C10 29.732 16.268 36 24 36Z" fill="#F5CE9A"/>
<path d="M24.0001 32.437C29.7644 32.437 34.4372 27.7641 34.4372 21.9999C34.4372 16.2356 29.7644 11.5628 24.0001 11.5628C18.2358 11.5628 13.563 16.2356 13.563 21.9999C13.563 27.7641 18.2358 32.437 24.0001 32.437Z" fill="#E0AC65"/>
<path d="M20.7011 15.9544C21.5011 15.2492 22.5897 14.8987 23.9588 14.8987C24.8702 14.8987 25.6495 15.0554 26.297 15.3729C26.9444 15.6905 27.4392 16.1193 27.7732 16.6637C28.1073 17.2121 28.2722 17.8224 28.2722 18.5028C28.2722 19.3028 28.0702 19.9585 27.6702 20.4616C27.2702 20.9647 26.8042 21.307 26.2681 21.4925V21.5668C26.9609 21.7977 27.5052 22.1812 27.9052 22.7131C28.3052 23.2451 28.5073 23.9338 28.5073 24.7709C28.5073 25.5255 28.3341 26.1894 27.9877 26.7668C27.6413 27.3441 27.1382 27.7936 26.4743 28.1235C25.8104 28.4534 25.0269 28.6142 24.1155 28.6142C22.6598 28.6142 21.497 28.2554 20.6269 27.5379C19.7609 26.8204 19.299 25.7399 19.2537 24.2967H22.2763C22.2887 24.8286 22.4413 25.2534 22.73 25.5626C23.0227 25.8719 23.4475 26.0286 24.0042 26.0286C24.4784 26.0286 24.8454 25.8925 25.1052 25.6204C25.365 25.3482 25.497 24.9853 25.497 24.5358C25.497 23.9544 25.3114 23.5296 24.9403 23.2698C24.5691 23.0101 23.9794 22.8781 23.1629 22.8781H22.5815V20.3461H23.1629C23.7815 20.3461 24.2846 20.2389 24.664 20.0286C25.0475 19.8183 25.2372 19.4348 25.2372 18.8905C25.2372 18.4534 25.1176 18.1152 24.8743 17.8719C24.631 17.6286 24.297 17.509 23.8722 17.509C23.4104 17.509 23.0681 17.6492 22.8454 17.9296C22.6186 18.2101 22.4908 18.5564 22.4537 18.9688H19.4145C19.464 17.6698 19.8887 16.6678 20.6887 15.9626L20.7011 15.9544Z" fill="#F5D7AE"/>
</svg>
