<svg width="48" height="48" viewBox="0 0 48 48" fill="none" xmlns="http://www.w3.org/2000/svg">
<path d="M32.8742 18.1526H14.9402V39.0681L32.8742 28.7134V18.1526Z" fill="#C9C9C9"/>
<path d="M14.9402 18.1526H32.8742V39.0681L14.9402 28.7134V18.1526Z" fill="#DFDFDF"/>
<path d="M24 36C31.732 36 38 29.732 38 22C38 14.268 31.732 8 24 8C16.268 8 10 14.268 10 22C10 29.732 16.268 36 24 36Z" fill="#EEEEEE"/>
<path d="M24.0001 32.437C29.7644 32.437 34.4372 27.7641 34.4372 21.9999C34.4372 16.2356 29.7644 11.5628 24.0001 11.5628C18.2358 11.5628 13.563 16.2356 13.563 21.9999C13.563 27.7641 18.2358 32.437 24.0001 32.437Z" fill="#D2D2D2"/>
<path d="M20.1033 25.5505C21.2909 24.569 22.2311 23.7608 22.9156 23.1299C23.6002 22.4989 24.1816 21.835 24.6558 21.1464C25.1301 20.4536 25.3651 19.7814 25.3651 19.1257C25.3651 18.6268 25.2496 18.2391 25.0187 17.9587C24.7878 17.6783 24.4414 17.5381 23.9795 17.5381C23.5177 17.5381 23.1548 17.7113 22.895 18.0577C22.6352 18.4041 22.5033 18.8907 22.5033 19.5216H19.4971C19.5218 18.4907 19.7445 17.6288 20.161 16.9361C20.5816 16.2433 21.1301 15.7361 21.8187 15.4062C22.5033 15.0804 23.2661 14.9154 24.1033 14.9154C25.5466 14.9154 26.6352 15.2866 27.3734 16.0247C28.1074 16.767 28.4744 17.7319 28.4744 18.9196C28.4744 20.2185 28.0332 21.4227 27.1466 22.5361C26.26 23.6453 25.1301 24.7299 23.761 25.7855H28.6765V28.3175H19.5342V26.0041C19.9466 25.6783 20.1362 25.5257 20.0991 25.5505H20.1033Z" fill="#F7F7F7"/>
</svg>
