<svg width="24" height="24" viewBox="0 0 24 24" fill="none" xmlns="http://www.w3.org/2000/svg">
<path d="M0.5 8.37183H21.07" stroke="#C9C9C9" stroke-width="1.5" stroke-miterlimit="10"/>
<path d="M19.0751 8.07314H17.5559C17.5559 4.44521 14.558 1.49503 10.8714 1.49503C7.18482 1.49503 4.18693 4.44521 4.18693 8.07314H2.66772C2.66772 3.61796 6.34419 0 10.8714 0C15.3986 0 19.0751 3.61796 19.0751 8.07314Z" fill="#C9C9C9"/>
<path d="M18.8614 14.8704C16.299 14.8704 14.2228 16.9235 14.2228 19.4352C14.2228 21.9468 16.3091 24 18.8614 24C21.4137 24 23.5 21.9468 23.5 19.4352C23.5 16.9235 21.4137 14.8704 18.8614 14.8704Z" fill="#C9C9C9"/>
<path d="M12.694 19.4353C12.694 18.0997 13.1396 16.8638 13.8891 15.8671V12.3189H15.4083V14.4219C16.3907 13.7641 17.5757 13.3854 18.8518 13.3854C19.2265 13.3854 19.581 13.4253 19.9355 13.4851L20.3811 7.63452H1.35059L2.43428 21.0898H12.937C12.7851 20.5715 12.7041 20.0233 12.7041 19.4452L12.694 19.4353ZM7.92366 17.6711H6.40446V12.309H7.92366V17.6711ZM11.7014 17.6711H10.1822V12.309H11.7014V17.6711Z" fill="#C9C9C9"/>
<path d="M21.7589 18.8276H19.6219V16.7246H18.1027V18.8276H15.9657V20.3226H18.1027V22.4256H19.6219V20.3226H21.7589V18.8276Z" fill="white"/>
</svg>
