<svg width="28" height="28" viewBox="0 0 28 28" fill="none" xmlns="http://www.w3.org/2000/svg">
<path d="M22.4375 27.9999C21.2175 27.9999 19.5038 27.5587 16.9375 26.1249C13.8169 24.3749 11.4032 22.7593 8.2994 19.6637C5.3069 16.673 3.85065 14.7368 1.81253 11.028C-0.489973 6.84053 -0.097473 4.64553 0.341277 3.70741C0.863777 2.58616 1.63503 1.91553 2.6319 1.24991C3.19812 0.878931 3.79732 0.560919 4.4219 0.299908C4.4844 0.273033 4.54253 0.247408 4.5944 0.224283C4.90378 0.0849084 5.37253 -0.125717 5.96628 0.0992834C6.36253 0.248033 6.71628 0.552408 7.27003 1.09928C8.40565 2.21928 9.95753 4.71366 10.53 5.93866C10.9144 6.76428 11.1688 7.30928 11.1694 7.92053C11.1694 8.63616 10.8094 9.18803 10.3725 9.78366C10.2907 9.89553 10.2094 10.0024 10.1307 10.1062C9.65503 10.7312 9.55065 10.9118 9.6194 11.2343C9.75878 11.8824 10.7982 13.8118 12.5063 15.5162C14.2144 17.2205 16.0882 18.1943 16.7388 18.333C17.075 18.4049 17.2594 18.2962 17.9044 17.8037C17.9969 17.733 18.0919 17.6599 18.1913 17.5868C18.8575 17.0912 19.3838 16.7405 20.0825 16.7405H20.0863C20.6944 16.7405 21.215 17.0043 22.0775 17.4393C23.2025 18.0068 25.7719 19.5387 26.8988 20.6755C27.4469 21.228 27.7525 21.5805 27.9019 21.9762C28.1269 22.5718 27.915 23.0387 27.7769 23.3512C27.7538 23.403 27.7282 23.4599 27.7013 23.523C27.4382 24.1465 27.1183 24.7444 26.7457 25.3093C26.0813 26.303 25.4082 27.0724 24.2844 27.5955C23.7074 27.8685 23.0758 28.0067 22.4375 27.9999Z" fill="white"/>
</svg>
