<svg width="24" height="24" viewBox="0 0 24 24" fill="none" xmlns="http://www.w3.org/2000/svg">
<path fill-rule="evenodd" clip-rule="evenodd" d="M1.61127 4.13846L20.6246 23.1518L21.9209 21.8554L21.2895 21.224C22.2596 21.0696 23 20.2382 23 19.2351V7.75157C23 6.63847 22.0884 5.73692 20.963 5.73692H17.5L16.675 3.45029C16.618 3.29382 16.5136 3.15857 16.3759 3.06301C16.2383 2.96746 16.0742 2.91626 15.906 2.9164H8.09398C7.75023 2.9164 7.44213 3.13046 7.32755 3.45029L6.5 5.73692H5.80245L2.90763 2.8421L1.61127 4.13846ZM9.8395 9.77397C10.4657 9.38604 11.2062 9.16182 12 9.16182C14.2509 9.16182 16.0741 10.9649 16.0741 13.1911C16.0741 13.9921 15.8381 14.7383 15.431 15.3655L14.2352 14.1697C14.3719 13.8644 14.4444 13.5315 14.4444 13.1911C14.4444 12.5499 14.1869 11.935 13.7285 11.4816C13.2701 11.0283 12.6483 10.7735 12 10.7735C11.6651 10.7735 11.3372 10.8415 11.0353 10.9698L9.8395 9.77397ZM1 7.75157C1 7.27509 1.16704 6.83737 1.44639 6.49254L7.93154 12.9777C7.92781 13.0484 7.92593 13.1195 7.92593 13.1911C7.92593 15.4173 9.74907 17.2204 12 17.2204C12.0572 17.2204 12.1142 17.2193 12.1708 17.217L16.2036 21.2497H3.03704C1.91157 21.2497 1 20.3482 1 19.2351V7.75157Z" fill="white"/>
</svg>
