<svg width="32" height="32" viewBox="0 0 32 32" fill="none" xmlns="http://www.w3.org/2000/svg">
<path d="M26.5926 8.33333H22.5L21.525 5.63095C21.4576 5.44604 21.3342 5.2862 21.1715 5.17327C21.0089 5.06034 20.8149 4.99983 20.6162 5H11.3838C10.9775 5 10.6134 5.25298 10.478 5.63095L9.5 8.33333H5.40741C4.07731 8.33333 3 9.39881 3 10.7143V24.2857C3 25.6012 4.07731 26.6667 5.40741 26.6667H26.5926C27.9227 26.6667 29 25.6012 29 24.2857V10.7143C29 9.39881 27.9227 8.33333 26.5926 8.33333ZM16 21.9048C13.3398 21.9048 11.1852 19.7738 11.1852 17.1429C11.1852 14.5119 13.3398 12.381 16 12.381C18.6602 12.381 20.8148 14.5119 20.8148 17.1429C20.8148 19.7738 18.6602 21.9048 16 21.9048ZM13.1111 17.1429C13.1111 17.9006 13.4155 18.6273 13.9572 19.1632C14.499 19.699 15.2338 20 16 20C16.7662 20 17.501 19.699 18.0428 19.1632C18.5845 18.6273 18.8889 17.9006 18.8889 17.1429C18.8889 16.3851 18.5845 15.6584 18.0428 15.1226C17.501 14.5867 16.7662 14.2857 16 14.2857C15.2338 14.2857 14.499 14.5867 13.9572 15.1226C13.4155 15.6584 13.1111 16.3851 13.1111 17.1429Z" fill="#DFDFDF"/>
</svg>
