<svg width="20" height="20" viewBox="0 0 20 20" fill="none" xmlns="http://www.w3.org/2000/svg">
<path d="M16.6204 5.20833H14.0625L13.4531 3.51935C13.411 3.40377 13.3339 3.30387 13.2322 3.23329C13.1306 3.16271 13.0093 3.12489 12.8851 3.125H7.11487C6.86097 3.125 6.63339 3.28311 6.54876 3.51935L5.9375 5.20833H3.37963C2.54832 5.20833 1.875 5.87426 1.875 6.69643V15.1786C1.875 16.0007 2.54832 16.6667 3.37963 16.6667H16.6204C17.4517 16.6667 18.125 16.0007 18.125 15.1786V6.69643C18.125 5.87426 17.4517 5.20833 16.6204 5.20833ZM10 13.6905C8.33738 13.6905 6.99074 12.3586 6.99074 10.7143C6.99074 9.06994 8.33738 7.7381 10 7.7381C11.6626 7.7381 13.0093 9.06994 13.0093 10.7143C13.0093 12.3586 11.6626 13.6905 10 13.6905ZM8.19444 10.7143C8.19444 11.1879 8.38467 11.6421 8.72328 11.977C9.06189 12.3119 9.52114 12.5 10 12.5C10.4789 12.5 10.9381 12.3119 11.2767 11.977C11.6153 11.6421 11.8056 11.1879 11.8056 10.7143C11.8056 10.2407 11.6153 9.78648 11.2767 9.45159C10.9381 9.11671 10.4789 8.92857 10 8.92857C9.52114 8.92857 9.06189 9.11671 8.72328 9.45159C8.38467 9.78648 8.19444 10.2407 8.19444 10.7143Z" fill="#00B400"/>
</svg>
