<svg width="12" height="12" viewBox="0 0 12 12" fill="none" xmlns="http://www.w3.org/2000/svg">
<path d="M9.97222 3.125H8.4375L8.07187 2.11161C8.04661 2.04226 8.00032 1.98232 7.93933 1.93997C7.87833 1.89763 7.8056 1.87493 7.73108 1.875H4.26892C4.11658 1.875 3.98003 1.96987 3.92925 2.11161L3.5625 3.125H2.02778C1.52899 3.125 1.125 3.52455 1.125 4.01786V9.10714C1.125 9.60045 1.52899 10 2.02778 10H9.97222C10.471 10 10.875 9.60045 10.875 9.10714V4.01786C10.875 3.52455 10.471 3.125 9.97222 3.125ZM6 8.21429C5.00243 8.21429 4.19444 7.41518 4.19444 6.42857C4.19444 5.44196 5.00243 4.64286 6 4.64286C6.99757 4.64286 7.80556 5.44196 7.80556 6.42857C7.80556 7.41518 6.99757 8.21429 6 8.21429ZM4.91667 6.42857C4.91667 6.71273 5.0308 6.98525 5.23397 7.18619C5.43713 7.38712 5.71268 7.5 6 7.5C6.28732 7.5 6.56287 7.38712 6.76603 7.18619C6.9692 6.98525 7.08333 6.71273 7.08333 6.42857C7.08333 6.14441 6.9692 5.87189 6.76603 5.67096C6.56287 5.47003 6.28732 5.35714 6 5.35714C5.71268 5.35714 5.43713 5.47003 5.23397 5.67096C5.0308 5.87189 4.91667 6.14441 4.91667 6.42857Z" fill="#00B400"/>
</svg>
