<svg width="20" height="20" viewBox="0 0 20 20" fill="none" xmlns="http://www.w3.org/2000/svg">
<path d="M9.99879 17C13.8655 17 17 13.8655 17 9.99879C17 6.13212 13.8655 2.99756 9.99879 2.99756C6.13212 2.99756 2.99756 6.13212 2.99756 9.99879C2.99756 13.8655 6.13212 17 9.99879 17Z" fill="#FFC710"/>
<path d="M6.11852 7.58996C6.51024 6.88226 7.05346 6.33255 7.7525 5.9365C8.45154 5.54261 9.24364 5.34351 10.1288 5.34351C11.2131 5.34351 12.1437 5.62918 12.9163 6.2027C13.6889 6.77622 14.204 7.5575 14.4659 8.54654H12.0182C11.8364 8.16564 11.5767 7.87347 11.2434 7.67437C10.9079 7.47526 10.5292 7.3757 10.105 7.3757C9.41895 7.3757 8.86274 7.61377 8.43856 8.09206C8.01221 8.57035 7.80011 9.20663 7.80011 10.0052C7.80011 10.8038 8.01221 11.4423 8.43856 11.9184C8.86274 12.3967 9.41895 12.6347 10.105 12.6347C10.5292 12.6347 10.9101 12.5352 11.2434 12.3339C11.5767 12.1348 11.8364 11.8448 12.0182 11.4617H14.4659C14.2062 12.4508 13.6889 13.2299 12.9163 13.7991C12.1437 14.3683 11.2152 14.6518 10.1288 14.6518C9.24364 14.6518 8.45154 14.4549 7.7525 14.0588C7.05346 13.6627 6.50808 13.1152 6.11852 12.4118C5.72896 11.7085 5.53418 10.9055 5.53418 10.0031C5.53418 9.10058 5.72896 8.29549 6.11852 7.5878V7.58996Z" fill="white"/>
</svg>
