<svg width="32" height="32" viewBox="0 0 32 32" fill="none" xmlns="http://www.w3.org/2000/svg">
<g clip-path="url(#clip0_901_2136)">
<path d="M7.99153 9.36578C10.5905 9.36578 12.6974 7.26918 12.6974 4.68289C12.6974 2.0966 10.5905 0 7.99153 0C5.39254 0 3.28564 2.0966 3.28564 4.68289C3.28564 7.26918 5.39254 9.36578 7.99153 9.36578Z" fill="#C9C9C9"/>
<path d="M6.10438 16.245C6.72531 15.6613 7.7317 15.6613 8.35263 16.245C7.7317 15.6603 7.7317 14.7136 8.35263 14.13C8.97357 13.5463 9.9789 13.5463 10.5998 14.13H10.6009C9.97996 13.5463 9.97996 12.5996 10.6009 12.015C11.2218 11.4303 12.2293 11.4303 12.8502 12.015L7.72114 7.19033C6.92173 6.43811 6.92173 5.21898 7.72114 4.46676C8.52054 3.71453 9.81733 3.71453 10.6167 4.46676L18.8104 12.1736V8.75065C18.8104 7.77695 19.6499 6.98781 20.6848 6.98781C21.5814 6.98781 22.3533 7.5854 22.5244 8.41444L24.9701 20.2296L17.8853 26.8939L13.6655 25.4742L6.10438 18.36C5.48344 17.7754 5.48344 16.8286 6.10438 16.245Z" fill="#DFDFDF"/>
<path d="M17.8851 26.8932L24.97 20.2289L25.8781 19.3739L29.9522 23.2059L20.6033 32.0001L16.5303 28.1682L17.8851 26.8932Z" fill="#C9C9C9"/>
</g>
<defs>
<clipPath id="clip0_901_2136">
<rect width="32" height="32" fill="white"/>
</clipPath>
</defs>
</svg>
