<svg width="40" height="42" viewBox="0 0 40 42" fill="none" xmlns="http://www.w3.org/2000/svg">
<g clip-path="url(#clip0_1830_24203)">
<path d="M36 7H34V11H36V7Z" fill="#9F9F9F"/>
<path d="M32.5132 7H24.7621V10.7238H32.5132V7Z" fill="#9F9F9F"/>
<path d="M9.67329 7.62457H5.5791V10.7285H9.67329V7.62457Z" fill="#9F9F9F"/>
<path d="M40 9.86722H0V33.8672H40V9.86722Z" fill="#2F2F2F"/>
<path d="M12 22C12 26.4204 15.5833 30 20 30C24.4167 30 28 26.4204 28 22C28 17.5796 24.4167 14 20 14C15.5833 14 12 17.5833 12 22Z" fill="#F5F5F5"/>
<path d="M14 22C14 25.3129 16.6864 28 19.9983 28C23.3102 28 26 25.3129 26 22C26 18.6871 23.3171 16 19.9983 16C16.6794 16 14 18.6871 14 22Z" fill="#747474"/>
<path d="M6.44892 12.1191H2.35474V15.2231H6.44892V12.1191Z" fill="#00B400"/>
</g>
<defs>
<clipPath id="clip0_1830_24203">
<rect width="40" height="42" fill="white"/>
</clipPath>
</defs>
</svg>
