<svg width="32" height="32" viewBox="0 0 32 32" fill="none" xmlns="http://www.w3.org/2000/svg">
<g clip-path="url(#clip0_901_2137)">
<path d="M29 5.00012H27V7.00012H29V5.00012Z" fill="#DFDFDF"/>
<path d="M26 5.00012H20V7.00012H26V5.00012Z" fill="#DFDFDF"/>
<path d="M8 5.00012H4V7.00012H8V5.00012Z" fill="#DFDFDF"/>
<path d="M32 7.00012H0V27.0001H32V7.00012Z" fill="#C9C9C9"/>
<path d="M10 17.0001C10 20.3154 12.6875 23.0001 16 23.0001C19.3125 23.0001 22 20.3154 22 17.0001C22 13.6848 19.3125 11.0001 16 11.0001C12.6875 11.0001 10 13.6876 10 17.0001Z" fill="#DFDFDF"/>
<path d="M12 17.0001C12 19.2087 13.7909 21.0001 15.9988 21.0001C18.2068 21.0001 20 19.2087 20 17.0001C20 14.7915 18.2114 13.0001 15.9988 13.0001C13.7863 13.0001 12 14.7915 12 17.0001Z" fill="white"/>
<path d="M5.15914 8.23364H1.88379V10.5986H5.15914V8.23364Z" fill="#DFDFDF"/>
</g>
<defs>
<clipPath id="clip0_901_2137">
<rect width="32" height="32" fill="white"/>
</clipPath>
</defs>
</svg>
