<svg width="40" height="42" viewBox="0 0 40 42" fill="none" xmlns="http://www.w3.org/2000/svg">
<g clip-path="url(#clip0_1830_24193)">
<path d="M9.17647 12.2926C12.5876 12.2926 15.3529 9.5408 15.3529 6.14629C15.3529 2.75179 12.5876 0 9.17647 0C5.7653 0 3 2.75179 3 6.14629C3 9.5408 5.7653 12.2926 9.17647 12.2926Z" fill="#00B400"/>
<path d="M6.69949 21.3214C7.51447 20.5554 8.83535 20.5554 9.65033 21.3214C8.83535 20.5541 8.83535 19.3115 9.65033 18.5455C10.4653 17.7795 11.7848 17.7795 12.5998 18.5455H12.6012C11.7862 17.7795 11.7862 16.5369 12.6012 15.7695C13.4162 15.0022 14.7384 15.0022 15.5534 15.7695L8.82149 9.43723C7.77227 8.44994 7.77227 6.84984 8.82149 5.86254C9.87071 4.87525 11.5727 4.87525 12.622 5.86254L23.3761 15.9777V11.4852C23.3761 10.2072 24.478 9.17142 25.8363 9.17142C27.013 9.17142 28.0262 9.95576 28.2507 11.0439L31.4608 26.5512L22.1619 35.2981L16.6234 33.4348L6.69949 24.0974C5.88451 23.3301 5.88451 22.0875 6.69949 21.3214Z" fill="#FFC0B5"/>
<path d="M22.1619 35.2973L31.4608 26.5504L32.6527 25.4282L38 30.4577L25.7296 42.0001L20.3837 36.9707L22.1619 35.2973Z" fill="#2F2F2F"/>
</g>
<defs>
<clipPath id="clip0_1830_24193">
<rect width="40" height="42" fill="white"/>
</clipPath>
</defs>
</svg>
