<svg width="136" height="26" viewBox="0 0 136 26" fill="none" xmlns="http://www.w3.org/2000/svg">
<path d="M23.7964 5.868C23.7964 3.112 21.4824 1.24 12.3564 1.24C3.23045 1.24 0.916445 3.112 0.916445 5.868C0.916445 8.624 3.23045 10.47 12.3564 10.47C21.4824 10.47 23.7964 8.624 23.7964 5.868ZM0.396445 11.51V15.67H24.3164V11.51H0.396445ZM18.0764 21.182C18.0764 21.754 17.5044 22.092 12.3564 22.092C7.20845 22.092 6.63645 21.754 6.63645 21.182C6.63645 20.61 7.20845 20.272 12.3564 20.272C17.5044 20.272 18.0764 20.61 18.0764 21.182ZM23.7964 21.182C23.7964 18.426 21.4824 16.424 12.3564 16.424C3.23045 16.424 0.916445 18.426 0.916445 21.182C0.916445 23.938 3.23045 25.94 12.3564 25.94C21.4824 25.94 23.7964 23.938 23.7964 21.182ZM18.0764 5.868C18.0764 6.44 17.6344 6.7 12.3564 6.7C7.07845 6.7 6.63645 6.44 6.63645 5.868C6.63645 5.296 7.07845 5.01 12.3564 5.01C17.6344 5.01 18.0764 5.296 18.0764 5.868ZM27.1764 1.76V16.32H49.5364V1.76H27.1764ZM35.3664 19.7H26.3964V24.9H50.3164V19.7H41.3464V17.36H35.3664V19.7ZM33.1564 6.96H43.5564V11.12H33.1564V6.96ZM76.0564 1.24H70.0764V4.75H68.3084L68.5164 2.02H52.9164V6.44H62.4324L62.0164 11.9H67.7364L67.9444 9.17H70.0764V18.66H76.0564V1.24ZM76.0564 25.68V21.26H58.6364V19.7H63.4464V17.36H68.7764V12.94H51.8764V17.36H57.7264V18.4H52.6564V25.68H76.0564ZM94.3676 8.52L94.9136 7.22H101.024V2.28H96.3436V0.459999H90.3636V2.28H85.6836V7.22H88.8036L85.1636 15.8H91.2736L93.5096 10.548L95.4336 15.8H101.544L98.8656 8.52H94.3676ZM85.6836 16.84V25.68H108.304V20.74H91.6636V16.84H85.6836ZM108.304 6.83V1.24H102.324V17.88H108.304V12.29H110.384V6.83H108.304ZM123.67 8.39L128.558 17.1H135.812L129.52 6.7H124.658L127.674 1.5H120.784L111.476 17.1H118.626L123.67 8.39ZM111.684 19.7V24.9H135.604V19.7H111.684Z" fill="black"/>
</svg>
