<svg width="48" height="48" viewBox="0 0 48 48" fill="none" xmlns="http://www.w3.org/2000/svg">
<g opacity="0.98">
<path d="M23.9998 4.80005C34.5963 4.80005 43.1998 13.4036 43.1998 24C43.1998 34.5965 34.5963 43.2001 23.9998 43.2001C13.4033 43.2001 4.7998 34.5965 4.7998 24C4.7998 13.4036 13.4033 4.80005 23.9998 4.80005Z" fill="#00B400"/>
</g>
<path d="M24 6C33.9342 6 42 14.0658 42 24C42 33.9342 33.9342 42 24 42C14.0658 42 6 33.9342 6 24C6 14.0658 14.0658 6 24 6Z" stroke="#00B03B" stroke-width="1.8" stroke-linecap="round" stroke-linejoin="round"/>
<path d="M15.3369 25.2L19.9869 30L32.6619 18" stroke="white" stroke-width="3.6" stroke-linecap="round" stroke-linejoin="round"/>
</svg>
