<svg width="32" height="32" viewBox="0 0 32 32" fill="none" xmlns="http://www.w3.org/2000/svg">
<g clip-path="url(#clip0_1067_16530)">
<path d="M16.13 29C14.31 29 12.6038 28.6533 11.0113 27.96C9.41875 27.2667 8.03208 26.3296 6.85125 25.1488C5.67042 23.9679 4.73333 22.5812 4.04 20.9887C3.34667 19.3962 3 17.69 3 15.87C3 12.7067 4.0075 9.91708 6.0225 7.50125C8.0375 5.08542 10.605 3.585 13.725 3C13.335 5.12333 13.4542 7.20875 14.0825 9.25625C14.7108 11.3038 15.7942 13.0967 17.3325 14.635C18.8708 16.1733 20.6637 17.2621 22.7113 17.9012C24.7588 18.5404 26.855 18.665 29 18.275C28.4367 21.395 26.9417 23.9625 24.515 25.9775C22.0883 27.9925 19.2933 29 16.13 29Z" fill="#FFC710"/>
</g>
<defs>
<clipPath id="clip0_1067_16530">
<rect width="32" height="32" fill="white"/>
</clipPath>
</defs>
</svg>
