<svg width="24" height="24" viewBox="0 0 24 24" fill="none" xmlns="http://www.w3.org/2000/svg">
<path d="M5.80299 3.42859L1.57867 7.23227L2.84625 8.63911L7.07152 4.83543L5.8011 3.42859H5.80299ZM11.0524 9.1128H12.9471V12.9023H15.7892V14.797H11.0524V9.1128Z" fill="#FB5A4A"/>
<path fill-rule="evenodd" clip-rule="evenodd" d="M3.47375 12.9023C3.47375 11.7826 3.69429 10.6739 4.12278 9.63941C4.55127 8.60495 5.17931 7.66502 5.97105 6.87328C6.7628 6.08153 7.70273 5.45349 8.73719 5.025C9.77165 4.59652 10.8804 4.37598 12.0001 4.37598C13.1198 4.37598 14.2285 4.59652 15.2629 5.025C16.2974 5.45349 17.2373 6.08153 18.0291 6.87328C18.8208 7.66502 19.4489 8.60495 19.8774 9.63941C20.3058 10.6739 20.5264 11.7826 20.5264 12.9023C20.5264 15.1636 19.6281 17.3323 18.0291 18.9313C16.4301 20.5303 14.2614 21.4286 12.0001 21.4286C9.73875 21.4286 7.57005 20.5303 5.97105 18.9313C4.37206 17.3323 3.47375 15.1636 3.47375 12.9023ZM5.36849 12.9023C5.36849 12.0314 5.54002 11.1691 5.87329 10.3645C6.20656 9.55992 6.69504 8.82886 7.31084 8.21306C7.92663 7.59726 8.65769 7.10878 9.46227 6.77551C10.2669 6.44224 11.1292 6.27071 12.0001 6.27071C12.8709 6.27071 13.7333 6.44224 14.5379 6.77551C15.3424 7.10878 16.0735 7.59726 16.6893 8.21306C17.3051 8.82886 17.7936 9.55992 18.1269 10.3645C18.4601 11.1691 18.6316 12.0314 18.6316 12.9023C18.6316 14.6611 17.933 16.3479 16.6893 17.5915C15.4456 18.8352 13.7589 19.5339 12.0001 19.5339C10.2413 19.5339 8.5545 18.8352 7.31084 17.5915C6.06717 16.3479 5.36849 14.6611 5.36849 12.9023Z" fill="#FB5A4A"/>
<path d="M18.1988 3.42859L22.4231 7.23227L21.1555 8.63912L16.9302 4.83543L18.2007 3.42859H18.1988Z" fill="#FB5A4A"/>
</svg>
