<svg width="16" height="16" viewBox="0 0 16 16" fill="none" xmlns="http://www.w3.org/2000/svg">
<g opacity="0.7">
<path d="M8.00777 2.66665C10.9478 2.66665 13.3411 5.05998 13.3411 7.99998C13.3411 10.94 10.9478 13.3333 8.00777 13.3333C5.06779 13.3333 2.67446 10.94 2.67446 7.99998C2.67446 5.05998 5.06779 2.66665 8.00777 2.66665ZM8.00777 1.33331C4.32779 1.33331 1.34113 4.31998 1.34113 7.99998C1.34113 11.68 4.32779 14.6666 8.00777 14.6666C11.6878 14.6666 14.6744 11.68 14.6744 7.99998C14.6744 4.31998 11.6878 1.33331 8.00777 1.33331Z" fill="white"/>
<path d="M10.2011 11.14L7.34113 8.27335V4.66669H8.67446V7.72669L11.1412 10.1934L10.2011 11.14Z" fill="white"/>
</g>
</svg>
