<svg width="16" height="16" viewBox="0 0 16 16" fill="none" xmlns="http://www.w3.org/2000/svg">
<g clip-path="url(#clip0_2002_25588)">
<path d="M15.9995 8C15.9995 12.4186 12.4181 16 7.99949 16C7.02465 16 6.09194 15.8254 5.22702 15.5059C4.77042 15.3374 4.33231 15.1284 3.91936 14.8808C3.47817 14.6204 3.06471 14.3174 2.68413 13.9769C1.91885 13.2984 1.28557 12.472 0.825886 11.5449C0.296867 10.4761 0 9.27324 0 8C0 3.58141 3.58141 0 8 0C9.27273 0 10.4766 0.296867 11.5439 0.826913C12.472 1.28454 13.2974 1.91782 13.9779 2.6831C14.3174 3.06369 14.6204 3.47714 14.8819 3.91834C15.1284 4.33128 15.3374 4.76888 15.5069 5.22599C15.8249 6.08937 16 7.02363 16 7.99949L15.9995 8Z" fill="#FFD652"/>
<mask id="mask0_2002_25588" style="mask-type:alpha" maskUnits="userSpaceOnUse" x="0" y="0" width="16" height="16">
<path d="M15.9995 8C15.9995 12.4186 12.4181 16 7.99949 16C7.02465 16 6.09194 15.8254 5.22702 15.5059C4.77042 15.3374 4.33231 15.1284 3.91936 14.8808C3.47817 14.6204 3.06471 14.3174 2.68413 13.9769C1.91885 13.2984 1.28557 12.472 0.825886 11.5449C0.296867 10.4761 0 9.27324 0 8C0 3.58141 3.58141 0 8 0C9.27273 0 10.4766 0.296867 11.5439 0.826913C12.472 1.28454 13.2974 1.91782 13.9779 2.6831C14.3174 3.06369 14.6204 3.47714 14.8819 3.91834C15.1284 4.33128 15.3374 4.76888 15.5069 5.22599C15.8249 6.08937 16 7.02363 16 7.99949L15.9995 8Z" fill="#FFD652"/>
</mask>
<g mask="url(#mask0_2002_25588)">
<path opacity="0.4" d="M14.4 2.0332L2.03465 14.4C1.19672 13.657 0.50332 12.7521 0 11.7369L11.7349 0C12.7511 0.501129 13.6549 1.19461 14.4 2.03264V2.0332Z" fill="white"/>
<path opacity="0.4" d="M16 4.64449L4.64449 16C4.14009 15.8139 3.65612 15.5829 3.19995 15.3095L15.3095 3.19995C15.5818 3.65612 15.8127 4.13953 16 4.64449Z" fill="white"/>
</g>
<path d="M8.00002 13.5999C11.0928 13.5999 13.6 11.0927 13.6 7.9999C13.6 4.90711 11.0928 2.3999 8.00002 2.3999C4.90723 2.3999 2.40002 4.90711 2.40002 7.9999C2.40002 11.0927 4.90723 13.5999 8.00002 13.5999Z" fill="#FFC710"/>
</g>
<defs>
<clipPath id="clip0_2002_25588">
<rect width="16" height="16" fill="white"/>
</clipPath>
</defs>
</svg>
