<svg width="24" height="24" viewBox="0 0 24 24" fill="none" xmlns="http://www.w3.org/2000/svg">
<path d="M18.2649 4.60782C16.0571 2.40001 12.4617 2.40001 10.2563 4.60782L4.13908 10.7203C4.09924 10.7602 4.07815 10.8141 4.07815 10.8703C4.07815 10.9266 4.09924 10.9805 4.13908 11.0203L5.00393 11.8852C5.04346 11.9245 5.09697 11.9466 5.15276 11.9466C5.20854 11.9466 5.26205 11.9245 5.30158 11.8852L11.4188 5.77267C12.1781 5.01329 13.1883 4.59611 14.2617 4.59611C15.3352 4.59611 16.3453 5.01329 17.1024 5.77267C17.8617 6.53204 18.2789 7.5422 18.2789 8.61329C18.2789 9.68673 17.8617 10.6945 17.1024 11.4539L10.868 17.6859L9.85783 18.6961C8.9133 19.6406 7.37815 19.6406 6.43362 18.6961C5.97658 18.2391 5.7258 17.632 5.7258 16.9852C5.7258 16.3383 5.97658 15.7313 6.43362 15.2742L12.6188 9.09142C12.7758 8.93673 12.9821 8.85001 13.2024 8.85001H13.2047C13.425 8.85001 13.6289 8.93673 13.7836 9.09142C13.9406 9.24845 14.025 9.4547 14.025 9.67501C14.025 9.89298 13.9383 10.0992 13.7836 10.2539L8.72815 15.3047C8.6883 15.3445 8.66721 15.3984 8.66721 15.4547C8.66721 15.5109 8.6883 15.5649 8.72815 15.6047L9.59299 16.4695C9.63252 16.5089 9.68603 16.531 9.74182 16.531C9.7976 16.531 9.85112 16.5089 9.89065 16.4695L14.9438 11.4164C15.4102 10.95 15.6656 10.3313 15.6656 9.67267C15.6656 9.01407 15.4078 8.39298 14.9438 7.92892C13.9805 6.96564 12.4149 6.96798 11.4516 7.92892L10.8516 8.53126L5.26877 14.1117C4.88986 14.4884 4.5895 14.9366 4.38512 15.4302C4.18074 15.9239 4.0764 16.4532 4.07815 16.9875C4.07815 18.0727 4.50237 19.0922 5.26877 19.8586C6.0633 20.6508 7.10393 21.0469 8.14455 21.0469C9.18518 21.0469 10.2258 20.6508 11.018 19.8586L18.2649 12.6164C19.3313 11.5477 19.9219 10.125 19.9219 8.61329C19.9242 7.09923 19.3336 5.67657 18.2649 4.60782Z" fill="#2F2F2F"/>
</svg>
