<svg width="24" height="24" viewBox="0 0 24 24" fill="none" xmlns="http://www.w3.org/2000/svg">
<path d="M7.01584 4.41001L9.13583 6.53L7.98581 7.67999L6.80582 8.86002L7.75583 10.2301C8.59583 11.4501 9.53582 12.58 10.5559 13.59C11.5759 14.61 12.7059 15.5501 13.9159 16.3901L15.2859 17.34L16.4659 16.16L17.6259 15.0101L19.7459 17.1301L19.6959 17.18L16.7358 20.1401C15.9658 19.8101 15.2059 19.4401 14.4759 19.0301C12.5159 17.9401 10.7259 16.5801 9.14584 15.0101C7.56584 13.4301 6.21582 11.64 5.12582 9.67999C4.71582 8.93999 4.34584 8.18002 4.01584 7.42001L6.97586 4.45999L7.02585 4.41001M7.02585 2C6.76585 2 6.51583 2.10001 6.31583 2.29001L5.55582 3.04999L2.59585 6.01001C2.03585 6.57001 1.83584 7.43001 2.14584 8.16001C2.50584 9.01001 2.91581 9.84001 3.36581 10.6601C4.51581 12.7301 5.96586 14.67 7.72586 16.43C9.48586 18.19 11.4259 19.6301 13.4959 20.7901C14.3159 21.2401 15.1459 21.65 15.9959 22.01C16.2359 22.11 16.4859 22.16 16.7259 22.16C17.2459 22.16 17.7659 21.9501 18.1459 21.5701L21.1059 18.6101L21.8659 17.85C22.2559 17.46 22.2559 16.8301 21.8659 16.4401L18.3259 12.9C18.1259 12.7 17.8759 12.6101 17.6159 12.6101C17.3559 12.6101 17.1059 12.71 16.9059 12.9L15.0458 14.7601C13.9558 14.0101 12.9259 13.1601 11.9559 12.1901C10.9859 11.2201 10.1358 10.19 9.38583 9.10001L11.2459 7.23999C11.6359 6.84999 11.6359 6.21999 11.2459 5.82999L7.70584 2.29001C7.50584 2.09001 7.25582 2 6.99582 2H7.02585Z" fill="#747474"/>
</svg>
