<svg width="24" height="24" viewBox="0 0 24 24" fill="none" xmlns="http://www.w3.org/2000/svg">
<path fill-rule="evenodd" clip-rule="evenodd" d="M2 11.7446C2 7.46731 6.60494 4 12.2857 4C17.9665 4 22.5714 7.46782 22.5714 11.7446C22.5714 16.0214 17.9665 19.4892 12.2857 19.4892C11.633 19.4892 10.9951 19.443 10.3765 19.3558C9.23671 20.0942 6.59482 21.8045 6.41791 21.9167C6.19251 22.0603 5.84828 22.0674 5.98736 21.5345C6.10033 21.1051 6.66409 19.099 6.87936 18.3336C3.95132 16.9684 2 14.5288 2 11.7446ZM7.07598 14.2066C7.16923 14.1177 7.22305 13.9954 7.22305 13.8701H7.22358V10.4383H8.14702C8.42997 10.4383 8.6591 10.2201 8.6591 9.95107C8.6591 9.68209 8.42997 9.46386 8.14702 9.46386H5.13905C4.85664 9.46386 4.62751 9.68209 4.62751 9.95107C4.62751 10.2201 4.85611 10.4383 5.13905 10.4383H6.11684V13.8701C6.11684 13.9949 6.17013 14.1177 6.26391 14.2066C6.35556 14.2949 6.48398 14.3456 6.6156 14.3456H6.72483C6.85591 14.3456 6.9838 14.2944 7.07598 14.2066ZM11.5131 14.0304C11.6042 14.2771 11.8882 14.407 12.1472 14.3202C12.4061 14.2334 12.5426 13.9635 12.4514 13.7163L10.9525 9.81049C10.9525 9.81049 10.9493 9.80694 10.9477 9.80592C10.8518 9.56841 10.5752 9.39484 10.2454 9.39484C9.87934 9.39484 9.57668 9.608 9.51646 9.88662L9.51621 9.88713C9.50616 9.90727 9.49562 9.92842 9.48769 9.95057L8.01381 13.7163C7.92269 13.9635 8.0591 14.2334 8.31754 14.3202C8.57651 14.407 8.86052 14.2771 8.95164 14.0304L9.20687 13.3372H11.2584L11.5131 14.0304ZM13.3312 14.3136H15.3752C15.632 14.3136 15.8393 14.1147 15.8393 13.8711C15.8393 13.6275 15.6326 13.429 15.3752 13.429H13.9765V9.92417C13.9765 9.63185 13.7282 9.39535 13.4218 9.39535C13.1154 9.39535 12.8671 9.63185 12.8671 9.92417V13.7021C12.8671 13.7315 12.8708 13.7589 12.8756 13.7868C12.8703 13.8142 12.8671 13.8427 12.8671 13.8711C12.8671 14.1157 13.0738 14.3136 13.3312 14.3136ZM19.0514 14.1578C19.2155 14.3664 19.5272 14.409 19.7462 14.2517C19.9652 14.0949 20.0095 13.798 19.8448 13.5894L18.2862 11.6396L19.6945 10.2977C19.8853 10.1165 19.8853 9.82166 19.6945 9.63997C19.5043 9.45828 19.1947 9.45828 19.0034 9.63997L17.2599 11.3005V9.92367C17.2599 9.63134 17.0121 9.39484 16.7052 9.39484C16.3983 9.39484 16.15 9.63134 16.15 9.92367V13.8178C16.15 14.1106 16.3988 14.3466 16.7052 14.3466C17.0116 14.3466 17.2599 14.1101 17.2599 13.8178V12.6165L17.577 12.3151L19.0514 14.1578ZM9.53223 12.452L10.2217 10.5783C10.2256 10.5783 10.2292 10.5788 10.2328 10.5793C10.2364 10.5798 10.2399 10.5803 10.2436 10.5803L10.9326 12.452H9.53223ZM10.2212 10.5783H10.2217C10.2216 10.5783 10.2214 10.5783 10.2212 10.5783Z" fill="#747474"/>
</svg>
