<svg width="38" height="38" viewBox="0 0 38 38" fill="none" xmlns="http://www.w3.org/2000/svg">
<g clip-path="url(#clip0_954_13922)">
<g clip-path="url(#clip1_954_13922)">
<path d="M23.2865 1H3.92879C1.75625 1 0 2.78283 0 4.98826V19.1717C0 21.3771 1.75625 23.1599 3.92879 23.1599H5.0606V29.6838C5.0606 30.5158 6.10134 30.8988 6.62171 30.2384L12.2157 23.1599H23.2865C25.4591 23.1599 27.2153 21.3771 27.2153 19.1717V4.98826C27.2153 2.78283 25.4591 1 23.2865 1Z" fill="#C9C9C9"/>
<path d="M22.3368 8.71423H4.87842V10.5235H22.3368V8.71423Z" fill="white"/>
<path d="M22.3368 14.1685H4.87842V15.9777H22.3368V14.1685Z" fill="white"/>
<path d="M27 37.0003C33.0751 37.0003 38 32.0782 38 26.0066C38 19.935 33.0751 15.0129 27 15.0129C20.9249 15.0129 16 19.935 16 26.0066C16 32.0782 20.9249 37.0003 27 37.0003Z" fill="white"/>
<path d="M27 18.2334C31.2884 18.2334 34.7647 21.7205 34.7647 25.9937C34.7647 30.2669 31.2757 33.7539 27 33.7539C22.7243 33.7539 19.2353 30.2669 19.2353 25.9937C19.2353 21.7205 22.7243 18.2334 27 18.2334ZM27 15C20.9227 15 16 19.9199 16 25.9937C16 32.0674 20.9227 36.9873 27 36.9873C33.0773 36.9873 38 32.0674 38 25.9937C38 19.9199 33.0773 15 27 15Z" fill="#DFDFDF"/>
<path d="M30.5523 20.2495H26.3908L23.5869 26.6022H25.7057L24.2086 31.7123L30.8314 24.2311H28.2305L30.5523 20.2495Z" fill="#C9C9C9"/>
</g>
</g>
<defs>
<clipPath id="clip0_954_13922">
<rect width="38" height="38" fill="white"/>
</clipPath>
<clipPath id="clip1_954_13922">
<rect width="38" height="36" fill="white" transform="translate(0 1)"/>
</clipPath>
</defs>
</svg>
