<svg width="38" height="38" viewBox="0 0 38 38" fill="none" xmlns="http://www.w3.org/2000/svg">
<g clip-path="url(#clip0_954_13937)">
<g clip-path="url(#clip1_954_13937)">
<path d="M28.1098 1H5.53908C2.48637 1 0 3.49812 0 6.56527H28.1098V1Z" fill="#C9C9C9"/>
<path d="M28.1098 8.57764H0V27.2303H28.1098V8.57764Z" fill="#C9C9C9"/>
<path d="M8.14965 12.1444H4.11621V16.1969H8.14965V12.1444Z" fill="white"/>
<path d="M16.0647 12.1444H12.0312V16.1969H16.0647V12.1444Z" fill="white"/>
<path d="M23.9797 12.1444H19.9463V16.1969H23.9797V12.1444Z" fill="white"/>
<path d="M8.14965 19.5972H4.11621V23.6497H8.14965V19.5972Z" fill="white"/>
<path d="M16.0647 19.5972H12.0312V23.6497H16.0647V19.5972Z" fill="white"/>
<path d="M23.9797 19.5972H19.9463V23.6497H23.9797V19.5972Z" fill="white"/>
<path d="M27 37C33.0751 37 38 32.0751 38 26C38 19.9249 33.0751 15 27 15C20.9249 15 16 19.9249 16 26C16 32.0751 20.9249 37 27 37Z" fill="white"/>
<path d="M27 18.2353C31.2884 18.2353 34.7647 21.7243 34.7647 26C34.7647 30.2757 31.2757 33.7647 27 33.7647C22.7243 33.7647 19.2353 30.2757 19.2353 26C19.2353 21.7243 22.7243 18.2353 27 18.2353ZM27 15C20.9227 15 16 19.9227 16 26C16 32.0773 20.9227 37 27 37C33.0773 37 38 32.0773 38 26C38 19.9227 33.0773 15 27 15Z" fill="#DFDFDF"/>
<path d="M27.0001 27.0784C26.4038 27.0784 25.9216 26.5963 25.9216 26V20.9504C25.9216 20.3541 26.4038 19.8719 27.0001 19.8719C27.5964 19.8719 28.0785 20.3541 28.0785 20.9504V26C28.0785 26.5963 27.5964 27.0784 27.0001 27.0784Z" fill="#C9C9C9"/>
<path d="M30.8569 30.5168C30.6031 30.5168 30.3494 30.4279 30.1337 30.2376L26.2894 26.7993C25.8454 26.406 25.8073 25.7209 26.2006 25.2768C26.5939 24.8328 27.279 24.7947 27.7231 25.188L31.5674 28.6263C32.0115 29.0196 32.0495 29.7048 31.6562 30.1488C31.4405 30.3899 31.1487 30.5041 30.8569 30.5041V30.5168Z" fill="#C9C9C9"/>
</g>
</g>
<defs>
<clipPath id="clip0_954_13937">
<rect width="38" height="38" fill="white"/>
</clipPath>
<clipPath id="clip1_954_13937">
<rect width="38" height="36" fill="white" transform="translate(0 1)"/>
</clipPath>
</defs>
</svg>
