<svg width="24" height="24" viewBox="0 0 24 24" fill="none" xmlns="http://www.w3.org/2000/svg">
<path fill-rule="evenodd" clip-rule="evenodd" d="M4.8 12.7619V18.1905H3V20H21V18.1905H19.2V12.7619C19.2 10.8422 18.4414 9.0012 17.0912 7.6438C15.7409 6.28639 13.9096 5.52381 12 5.52381C10.0904 5.52381 8.25909 6.28639 6.90883 7.6438C5.55857 9.0012 4.8 10.8422 4.8 12.7619ZM12.9 0H11.1V3.61905H12.9V0ZM22 3.99362L20.7274 2.71429L18.0913 5.36433L19.3648 6.64367L22 3.99362ZM3.2726 2.71429L2 3.99362L4.637 6.64457L5.9087 5.36343L3.2726 2.71429Z" fill="white"/>
</svg>
