<svg width="38" height="40" viewBox="0 0 38 40" fill="none" xmlns="http://www.w3.org/2000/svg">
<g clip-path="url(#clip0_1522_22017)">
<path d="M0 31.9995V7.23798H7.0496C7.0496 5.23166 7.78221 3.52375 9.24742 2.11425C10.7126 0.704751 12.5372 0 14.7212 0C16.9052 0 18.7989 0.704751 20.4024 2.11425C22.0058 3.52375 22.8075 5.23166 22.8075 7.23798H29.8571V31.9995H0ZM9.5377 7.23798H20.3194C20.3194 5.84118 19.8011 4.66659 18.7644 3.71423C17.7277 2.76186 16.4491 2.28568 14.9286 2.28568C13.4081 2.28568 12.1295 2.76186 11.0928 3.71423C10.0561 4.66659 9.5377 5.84118 9.5377 7.23798ZM14.9286 18.6664C17.1126 18.6664 19.0063 17.9299 20.6097 16.4569C22.2132 14.9839 23.0149 13.2442 23.0149 11.2379H20.5268C20.5268 12.6347 19.9739 13.8411 18.8681 14.8569C17.7622 15.8728 16.4491 16.3807 14.9286 16.3807C13.4081 16.3807 12.0949 15.8728 10.9891 14.8569C9.88327 13.8411 9.33036 12.6347 9.33036 11.2379H6.84226C6.84226 13.2442 7.64398 14.9839 9.24742 16.4569C10.8509 17.9299 12.7446 18.6664 14.9286 18.6664Z" fill="#00B400"/>
<path d="M25.1366 39.9991L38 27.3601V15.9995H26.4053L13.5714 28.6095L25.1366 39.9991ZM33.132 22.2754C32.7189 22.2754 32.36 22.1253 32.0551 21.8251C31.7503 21.5248 31.5978 21.1713 31.5978 20.7646C31.5978 20.3578 31.7503 20.0043 32.0551 19.7041C32.36 19.4038 32.7189 19.2537 33.132 19.2537C33.545 19.2537 33.904 19.4038 34.2089 19.7041C34.5137 20.0043 34.6661 20.3578 34.6661 20.7646C34.6661 21.1713 34.5137 21.5248 34.2089 21.8251C33.904 22.1253 33.545 22.2754 33.132 22.2754Z" fill="#2F2F2F"/>
</g>
<defs>
<clipPath id="clip0_1522_22017">
<rect width="38" height="40" fill="white"/>
</clipPath>
</defs>
</svg>
