<svg width="56" height="48" viewBox="0 0 56 48" fill="none" xmlns="http://www.w3.org/2000/svg">
<g clip-path="url(#clip0_954_15459)">
<path d="M0 39.6217C0 41.1293 1.30803 42.3529 2.91984 42.3529H39.0802C40.692 42.3529 42 41.1293 42 39.6217V13.4117H0V39.6217Z" fill="#DFDFDF"/>
<path d="M39.0768 2.11755H2.9196C1.30792 2.11755 0 3.35258 0 4.87444V13.4117H42V4.87444C42 3.35258 40.6921 2.11755 39.0804 2.11755H39.0768Z" fill="#00B400"/>
<path d="M13.1371 6.04836C13.1371 7.33341 12.1031 8.37625 10.829 8.37625C9.55494 8.37625 8.521 7.33341 8.521 6.04836C8.521 4.7633 9.55494 3.72046 10.829 3.72046C12.1031 3.72046 13.1371 4.7633 13.1371 6.04836Z" fill="#F5F5F5"/>
<path d="M33.4794 6.04836C33.4794 7.33341 32.4454 8.37625 31.1713 8.37625C29.8972 8.37625 28.8633 7.33341 28.8633 6.04836C28.8633 4.7633 29.8972 3.72046 31.1713 3.72046C32.4454 3.72046 33.4794 4.7633 33.4794 6.04836Z" fill="#F5F5F5"/>
<path d="M10.8292 0C9.97188 0 9.27466 0.703079 9.27466 1.56763V5.86684C9.27466 6.73139 9.97188 7.43447 10.8292 7.43447C11.6866 7.43447 12.3838 6.73139 12.3838 5.86684V1.56763C12.3838 0.703079 11.6866 0 10.8292 0Z" fill="#2F2F2F"/>
<path d="M31.1715 0C30.3142 0 29.6169 0.703079 29.6169 1.56763V5.86684C29.6169 6.73139 30.3142 7.43447 31.1715 7.43447C32.0289 7.43447 32.7261 6.73139 32.7261 5.86684V1.56763C32.7261 0.703079 32.0289 0 31.1715 0Z" fill="#2F2F2F"/>
<rect x="33.6001" y="25.6" width="22.4" height="22.4" rx="11.2" fill="#F44432"/>
<path fill-rule="evenodd" clip-rule="evenodd" d="M50.0719 31.5279C50.5093 31.9653 50.5093 32.6744 50.0719 33.1118L41.1119 42.0718C40.6745 42.5092 39.9654 42.5092 39.528 42.0718C39.0906 41.6344 39.0906 40.9253 39.528 40.4879L48.488 31.5279C48.9254 31.0905 49.6345 31.0905 50.0719 31.5279Z" fill="white"/>
<path fill-rule="evenodd" clip-rule="evenodd" d="M39.528 31.5279C39.0906 31.9653 39.0906 32.6744 39.528 33.1118L48.488 42.0718C48.9254 42.5092 49.6345 42.5092 50.0719 42.0718C50.5093 41.6344 50.5093 40.9253 50.0719 40.4879L41.1119 31.5279C40.6745 31.0905 39.9654 31.0905 39.528 31.5279Z" fill="white"/>
</g>
<defs>
<clipPath id="clip0_954_15459">
<rect width="56" height="48" fill="white"/>
</clipPath>
</defs>
</svg>
