<svg width="69" height="38" viewBox="0 0 69 38" fill="none" xmlns="http://www.w3.org/2000/svg">
<g opacity="0.14">
<mask id="mask0_1206_56251" style="mask-type:alpha" maskUnits="userSpaceOnUse" x="0" y="0" width="69" height="38">
<rect width="68.3551" height="37.1269" fill="#2F2F2F"/>
</mask>
<g mask="url(#mask0_1206_56251)">
<path d="M54.3094 15.2956C50.4655 22.856 50.1898 24.7598 49.8884 25.6714C49.6127 26.5831 48.901 27.0792 48.3239 26.2771C47.7469 25.5039 47.9937 23.8772 48.8177 22.0281C49.6416 20.1533 53.322 10.8534 55.6271 7.10053C57.9354 3.32192 59.0863 1.72093 59.7467 1.83367C60.4071 1.97219 61.8049 2.8806 61.8338 3.2124C61.8883 3.54419 61.5581 3.54419 61.3401 3.81801C60.4873 5.00345 58.1277 7.70936 54.3094 15.2956Z" fill="black"/>
<path d="M62.0935 23.1654C61.2632 23.7839 58.6311 25.4267 55.8291 25.3494C53.6908 25.2914 52.8508 24.193 53.0848 22.9785C53.29 21.7931 54.5307 19.303 56.0952 17.8212C57.6277 16.3684 58.8395 16.2202 59.4583 16.2814C60.2533 16.3394 61.4363 17.7342 61.5806 18.9487C61.6992 20.1341 59.8398 21.1714 58.6888 21.7061C57.5379 22.2409 56.5665 22.9818 55.7682 21.7351C55.5021 22.0605 55.0501 22.9753 56.5408 23.204C58.0348 23.4327 59.5608 22.9431 61.5966 21.7287C63.6324 20.5432 63.0425 22.4631 62.0935 23.1686V23.1654ZM56.4126 20.7043C57.1756 20.5207 59.3813 19.8732 59.3813 18.24C58.1663 18.1304 57.0185 18.9293 56.4126 20.7043Z" fill="black"/>
<path d="M33.1919 17.454V14.4002H30.0469V10.541H26.7352V14.4002H24.2441V17.454H26.6903C26.6197 19.8184 26.9083 22.8465 28.6619 24.6697C29.6045 25.6522 30.8837 26.1354 32.4546 26.1354H32.461L33.1919 26.1226V22.8432H32.7463C32.0827 22.8432 31.5345 22.6596 31.1145 22.2376C30.0501 21.1649 30.0501 18.9358 30.0533 18.1369L30.0597 17.4604H33.1919V17.454Z" fill="black"/>
<path d="M6.37402 25.9615H9.71782V21.7642C9.71782 20.8074 10.048 19.986 10.7149 19.345C12.7378 17.4025 16.9344 17.454 16.9344 17.454V14.4002C16.7388 14.3906 12.2601 14.2295 9.71782 16.143V12.1582H17.7519V8.93042H6.37402V25.9648V25.9615Z" fill="black"/>
<path d="M22.7213 14.4001H19.2749V25.9615H22.7213V14.4001Z" fill="black"/>
<path d="M20.9963 12.6864C22.1773 12.6864 23.1346 11.7244 23.1346 10.5378C23.1346 9.35113 22.1773 8.38916 20.9963 8.38916C19.8153 8.38916 18.8579 9.35113 18.8579 10.5378C18.8579 11.7244 19.8153 12.6864 20.9963 12.6864Z" fill="black"/>
<path d="M45.0409 15.3055C43.3385 15.5245 42.7358 16.3524 41.6073 17.2383C41.7163 16.9902 41.7452 16.797 41.6907 16.7422C41.3893 16.4104 40.7834 15.5825 39.9338 15.75C39.6036 15.8048 39.0009 16.5231 38.6418 17.4058C38.2571 18.2884 33.1789 30.5939 32.2428 32.4139C31.6112 33.6541 32.0504 35.3937 32.7108 35.5579C33.3424 35.7222 33.4258 35.1166 33.8361 33.9569C34.192 32.9648 38.0648 24.8245 39.1644 22.0638C39.2734 21.9543 39.4113 21.8158 39.5491 21.6515C43.3385 17.4573 44.7107 17.322 45.2878 17.3478C46.2143 17.3897 46.2399 18.9359 45.7815 20.0086C45.291 21.1619 44.4895 22.5631 42.7006 22.9368C41.4022 23.2074 41.2771 22.6404 39.8986 22.5696C39.4049 22.5438 39.2093 23.4103 39.4401 23.8033C40.3185 25.2948 43.2969 25.691 45.4897 23.9708C47.9775 22.0187 48.4745 19.4127 48.6155 17.8697C48.6989 16.0754 47.3235 15.0285 45.0441 15.3023L45.0409 15.3055Z" fill="black"/>
</g>
</g>
</svg>
