<svg width="34" height="20" viewBox="0 0 34 20" fill="none" xmlns="http://www.w3.org/2000/svg">
<mask id="mask0_1135_56293" style="mask-type:alpha" maskUnits="userSpaceOnUse" x="0" y="0" width="34" height="20">
<rect width="34" height="20" fill="#D9D9D9"/>
</mask>
<g mask="url(#mask0_1135_56293)">
<path d="M27.5195 8.78235C25.5497 12.5899 25.4084 13.5486 25.254 14.0078C25.1127 14.4669 24.748 14.7167 24.4523 14.3127C24.1565 13.9234 24.283 13.1041 24.7053 12.1729C25.1275 11.2288 27.0135 6.54521 28.1947 4.65524C29.3776 2.75229 29.9674 1.94601 30.3058 2.00279C30.6443 2.07255 31.3605 2.53004 31.3753 2.69713C31.4033 2.86423 31.234 2.86423 31.1223 3.00213C30.6853 3.59913 29.4762 4.96185 27.5195 8.78235Z" fill="black"/>
<path d="M31.508 12.7456C31.0825 13.0571 29.7337 13.8845 28.2978 13.8456C27.202 13.8164 26.7716 13.2632 26.8915 12.6516C26.9967 12.0545 27.6325 10.8005 28.4342 10.0543C29.2195 9.32261 29.8405 9.24798 30.1576 9.27881C30.565 9.30801 31.1712 10.0105 31.2451 10.6221C31.3059 11.2191 30.3531 11.7414 29.7633 12.0107C29.1735 12.28 28.6757 12.6532 28.2666 12.0253C28.1303 12.1892 27.8986 12.6499 28.6625 12.7651C29.4281 12.8803 30.2101 12.6337 31.2534 12.0221C32.2966 11.4251 31.9943 12.392 31.508 12.7473V12.7456ZM28.5968 11.5062C28.9878 11.4137 30.1181 11.0877 30.1181 10.2652C29.4955 10.21 28.9073 10.6123 28.5968 11.5062Z" fill="black"/>
<path d="M15.7427 9.86932V8.33138H14.1311V6.38788H12.434V8.33138H11.1575V9.86932H12.411C12.3748 11.0601 12.5227 12.585 13.4213 13.5033C13.9044 13.9981 14.5599 14.2414 15.3649 14.2414H15.3682L15.7427 14.2349V12.5834H15.5144C15.1743 12.5834 14.8934 12.4909 14.6781 12.2784C14.1327 11.7382 14.1327 10.6156 14.1344 10.2132L14.1376 9.87256H15.7427V9.86932Z" fill="black"/>
<path d="M2 14.1538H3.71352V12.0399C3.71352 11.5581 3.88273 11.1444 4.22445 10.8216C5.2611 9.84335 7.41162 9.86931 7.41162 9.86931V8.33137C7.31141 8.32651 5.01632 8.24539 3.71352 9.20903V7.20226H7.83056V5.57672H2V14.1554V14.1538Z" fill="black"/>
<path d="M10.3774 8.3313H8.61133V14.1537H10.3774V8.3313Z" fill="black"/>
<path d="M9.49326 7.46834C10.0984 7.46834 10.5891 6.98388 10.5891 6.38627C10.5891 5.78866 10.0984 5.3042 9.49326 5.3042C8.88807 5.3042 8.39746 5.78866 8.39746 6.38627C8.39746 6.98388 8.88807 7.46834 9.49326 7.46834Z" fill="black"/>
<path d="M22.4575 8.78707C21.5851 8.89738 21.2762 9.31431 20.698 9.76044C20.7538 9.63553 20.7686 9.53819 20.7407 9.51061C20.5862 9.34351 20.2757 8.92659 19.8404 9.01094C19.6712 9.03852 19.3623 9.40029 19.1783 9.8448C18.9812 10.2893 16.3788 16.4865 15.8991 17.4031C15.5755 18.0276 15.8006 18.9037 16.139 18.9864C16.4626 19.0692 16.5053 18.7642 16.7156 18.1801C16.898 17.6805 18.8826 13.5809 19.4461 12.1906C19.5019 12.1355 19.5726 12.0657 19.6432 11.983C21.5851 9.87076 22.2883 9.80262 22.584 9.8156C23.0588 9.83669 23.0719 10.6154 22.837 11.1556C22.5856 11.7364 22.1749 12.4421 21.2582 12.6303C20.5928 12.7666 20.5287 12.481 19.8223 12.4453C19.5693 12.4324 19.4691 12.8688 19.5874 13.0667C20.0375 13.8178 21.5638 14.0173 22.6875 13.151C23.9623 12.1679 24.217 10.8555 24.2893 10.0784C24.332 9.1748 23.6272 8.64755 22.4591 8.78545L22.4575 8.78707Z" fill="black"/>
</g>
</svg>
