<svg width="50" height="24" viewBox="0 0 50 24" fill="none" xmlns="http://www.w3.org/2000/svg">
<mask id="mask0_1339_29840" style="mask-type:alpha" maskUnits="userSpaceOnUse" x="0" y="0" width="50" height="24">
<rect width="50" height="24" fill="#D9D9D9"/>
</mask>
<g mask="url(#mask0_1339_29840)">
<path d="M39.5592 10.2963C36.7879 15.4028 36.5892 16.6887 36.3719 17.3045C36.1731 17.9202 35.66 18.2553 35.244 17.7135C34.8279 17.1913 35.0059 16.0926 35.5999 14.8437C36.1939 13.5774 38.8473 7.29588 40.5092 4.7611C42.1734 2.20891 43.0032 1.12755 43.4793 1.2037C43.9554 1.29726 44.9632 1.91083 44.984 2.13493C45.0233 2.35904 44.7852 2.35904 44.628 2.54398C44.0132 3.34467 42.3121 5.17232 39.5592 10.2963Z" fill="#00B400"/>
<path d="M45.1712 15.6118C44.5726 16.0295 42.6749 17.1392 40.6548 17.0869C39.1131 17.0478 38.5076 16.3058 38.6763 15.4856C38.8242 14.6849 39.7187 13.003 40.8467 12.0021C41.9515 11.0209 42.8252 10.9208 43.2713 10.9621C43.8445 11.0013 44.6974 11.9434 44.8014 12.7637C44.8869 13.5644 43.5463 14.265 42.7165 14.6261C41.8868 14.9873 41.1864 15.4877 40.6109 14.6457C40.4191 14.8655 40.0932 15.4834 41.1679 15.6379C42.245 15.7924 43.3452 15.4616 44.8129 14.6414C46.2806 13.8407 45.8554 15.1374 45.1712 15.6139V15.6118ZM41.0755 13.9495C41.6256 13.8254 43.2158 13.3881 43.2158 12.285C42.3398 12.211 41.5123 12.7506 41.0755 13.9495Z" fill="#00B400"/>
<path d="M24.3345 11.7539V9.6913H22.0671V7.08472H19.6795V9.6913H17.8835V11.7539H19.6471C19.5963 13.351 19.8043 15.3962 21.0686 16.6277C21.7481 17.2913 22.6704 17.6177 23.8029 17.6177H23.8075L24.3345 17.609V15.394H24.0133C23.5348 15.394 23.1396 15.27 22.8368 14.985C22.0694 14.2604 22.0694 12.7548 22.0717 12.2152L22.0763 11.7583H24.3345V11.7539Z" fill="#00B400"/>
<path d="M5 17.5002H7.41074V14.6651C7.41074 14.0189 7.64881 13.4641 8.12957 13.0311C9.58804 11.7191 12.6136 11.7539 12.6136 11.7539V9.6913C12.4726 9.68477 9.24364 9.57598 7.41074 10.8684V8.17696H13.203V5.99683H5V17.5024V17.5002Z" fill="#00B400"/>
<path d="M16.7855 9.69141H14.3008V17.5003H16.7855V9.69141Z" fill="#00B400"/>
<path d="M15.5422 8.53384C16.3936 8.53384 17.0838 7.88409 17.0838 7.08259C17.0838 6.28109 16.3936 5.63135 15.5422 5.63135C14.6907 5.63135 14.0005 6.28109 14.0005 7.08259C14.0005 7.88409 14.6907 8.53384 15.5422 8.53384Z" fill="#00B400"/>
<path d="M32.8772 10.3029C31.6498 10.4508 31.2153 11.01 30.4017 11.6083C30.4803 11.4408 30.5011 11.3102 30.4618 11.2733C30.2445 11.0492 29.8077 10.49 29.1952 10.6031C28.9571 10.6401 28.5226 11.1253 28.2637 11.7215C27.9863 12.3176 24.3252 20.6291 23.6502 21.8584C23.1949 22.6961 23.5116 23.871 23.9877 23.982C24.443 24.093 24.5031 23.6839 24.799 22.9006C25.0555 22.2305 27.8477 16.7323 28.6404 14.8676C28.719 14.7937 28.8184 14.7001 28.9178 14.5891C31.6498 11.7563 32.6391 11.6649 33.0551 11.6823C33.7231 11.7106 33.7416 12.755 33.4111 13.4795C33.0574 14.2584 32.4796 15.2049 31.1899 15.4573C30.2538 15.6401 30.1636 15.2571 29.1697 15.2092C28.8138 15.1918 28.6728 15.7771 28.8392 16.0426C29.4725 17.05 31.6198 17.3176 33.2007 16.1557C34.9944 14.8372 35.3526 13.077 35.4543 12.0348C35.5144 10.8229 34.5228 10.1157 32.8795 10.3007L32.8772 10.3029Z" fill="#00B400"/>
</g>
</svg>
