<svg width="60" height="32" viewBox="0 0 60 32" fill="none" xmlns="http://www.w3.org/2000/svg">
<mask id="mask0_671_14688" style="mask-type:alpha" maskUnits="userSpaceOnUse" x="0" y="0" width="60" height="32">
<rect width="60" height="32" fill="#D9D9D9"/>
</mask>
<g mask="url(#mask0_671_14688)">
<path d="M49.2892 13.407C45.5138 20.3636 45.243 22.1153 44.9471 22.9541C44.6763 23.793 43.9773 24.2494 43.4105 23.5114C42.8437 22.8 43.0862 21.3032 43.8954 19.6018C44.7046 17.8767 48.3194 9.31956 50.5833 5.86645C52.8504 2.38963 53.9808 0.916499 54.6294 1.02024C55.2781 1.14769 56.6509 1.98355 56.6792 2.28885C56.7328 2.59415 56.4084 2.59415 56.1943 2.84609C55.3568 3.93686 53.0393 6.42665 49.2892 13.407Z" fill="white"/>
<path d="M56.9338 20.6484C56.1183 21.2175 53.5332 22.7291 50.7812 22.658C48.681 22.6046 47.856 21.5939 48.0859 20.4765C48.2874 19.3857 49.506 17.0945 51.0426 15.731C52.5477 14.3942 53.7379 14.2579 54.3456 14.3142C55.1265 14.3676 56.2883 15.651 56.43 16.7684C56.5465 17.8592 54.7203 18.8136 53.5899 19.3057C52.4595 19.7977 51.5054 20.4794 50.7214 19.3323C50.46 19.6317 50.0161 20.4735 51.4802 20.6839C52.9475 20.8944 54.4463 20.4438 56.4458 19.3264C58.4452 18.2356 57.8659 20.0022 56.9338 20.6513V20.6484ZM51.3543 18.3838C52.1037 18.2149 54.27 17.6191 54.27 16.1163C53.0766 16.0156 51.9494 16.7507 51.3543 18.3838Z" fill="white"/>
<path d="M28.5489 15.3926V12.5827H25.46V9.03174H22.2074V12.5827H19.7608V15.3926H22.1633C22.094 17.5682 22.3774 20.3544 24.0998 22.032C25.0255 22.9361 26.2819 23.3807 27.8247 23.3807H27.831L28.5489 23.3688V20.3514H28.1113C27.4595 20.3514 26.921 20.1825 26.5086 19.7942C25.4632 18.8071 25.4632 16.756 25.4663 16.0209L25.4726 15.3985H28.5489V15.3926Z" fill="white"/>
<path d="M2.20947 23.2207H5.4936V19.3585C5.4936 18.4782 5.81792 17.7224 6.47285 17.1325C8.4597 15.3452 12.5814 15.3927 12.5814 15.3927V12.5827C12.3893 12.5739 7.99054 12.4257 5.4936 14.1863V10.5198H13.3843V7.5498H2.20947V23.2237V23.2207Z" fill="white"/>
<path d="M18.2651 12.5828H14.8802V23.2207H18.2651V12.5828Z" fill="white"/>
<path d="M16.5709 11.0063C17.7308 11.0063 18.6711 10.1211 18.6711 9.02926C18.6711 7.93739 17.7308 7.05225 16.5709 7.05225C15.411 7.05225 14.4707 7.93739 14.4707 9.02926C14.4707 10.1211 15.411 11.0063 16.5709 11.0063Z" fill="white"/>
<path d="M40.1864 13.4158C38.5145 13.6173 37.9225 14.3791 36.8141 15.1942C36.9212 14.966 36.9495 14.7881 36.896 14.7378C36.6 14.4325 36.0049 13.6707 35.1705 13.8248C34.8462 13.8752 34.2542 14.5362 33.9016 15.3483C33.5237 16.1605 28.5361 27.4831 27.6167 29.1578C26.9964 30.299 27.4278 31.8996 28.0764 32.0507C28.6967 32.2019 28.7786 31.6446 29.1816 30.5776C29.5311 29.6647 33.3348 22.1745 34.4148 19.6344C34.5219 19.5336 34.6573 19.4061 34.7927 19.255C38.5145 15.3958 39.8621 15.2713 40.4289 15.295C41.3389 15.3335 41.3641 16.7563 40.9138 17.7433C40.432 18.8044 39.6449 20.0938 37.8879 20.4376C36.6126 20.6866 36.4898 20.1649 35.1359 20.0997C34.651 20.076 34.4589 20.8733 34.6856 21.2349C35.5484 22.6073 38.4735 22.9719 40.6273 21.3891C43.0707 19.5929 43.5587 17.1949 43.6973 15.7752C43.7791 14.1242 42.4283 13.1609 40.1896 13.4128L40.1864 13.4158Z" fill="white"/>
</g>
</svg>
