<svg width="24" height="24" viewBox="0 0 24 24" fill="none" xmlns="http://www.w3.org/2000/svg">
<path d="M0.949951 20V17.65C0.949951 17.0667 1.09995 16.5375 1.39995 16.0625C1.69995 15.5875 2.11662 15.2333 2.64995 15C3.86662 14.4667 4.96245 14.0833 5.93745 13.85C6.91245 13.6167 7.91662 13.5 8.94995 13.5C9.98328 13.5 10.9833 13.6167 11.95 13.85C12.9166 14.0833 14.0083 14.4667 15.225 15C15.7583 15.2333 16.1791 15.5875 16.4875 16.0625C16.7958 16.5375 16.95 17.0667 16.95 17.65V20H0.949951ZM18.45 20V17.65C18.45 16.6 18.1833 15.7375 17.65 15.0625C17.1166 14.3875 16.4166 13.8417 15.55 13.425C16.7 13.5583 17.7833 13.7542 18.7999 14.0125C19.8166 14.2708 20.6416 14.5667 21.275 14.9C21.8249 15.2167 22.2583 15.6083 22.575 16.075C22.8916 16.5417 23.0499 17.0667 23.0499 17.65V20H18.45ZM8.94995 11.975C7.84995 11.975 6.94995 11.625 6.24995 10.925C5.54995 10.225 5.19995 9.32501 5.19995 8.22501C5.19995 7.12501 5.54995 6.22501 6.24995 5.52501C6.94995 4.82501 7.84995 4.47501 8.94995 4.47501C10.05 4.47501 10.95 4.82501 11.65 5.52501C12.35 6.22501 12.7 7.12501 12.7 8.22501C12.7 9.32501 12.35 10.225 11.65 10.925C10.95 11.625 10.05 11.975 8.94995 11.975ZM17.95 8.22501C17.95 9.32501 17.6 10.225 16.9 10.925C16.2 11.625 15.3 11.975 14.2 11.975C14.0166 11.975 13.8125 11.9625 13.5875 11.9375C13.3625 11.9125 13.1583 11.8667 12.975 11.8C13.375 11.3833 13.6791 10.8708 13.8875 10.2625C14.0958 9.65417 14.2 8.97501 14.2 8.22501C14.2 7.47501 14.0958 6.81251 13.8875 6.23751C13.6791 5.66251 13.375 5.13334 12.975 4.65001C13.1583 4.60001 13.3625 4.55834 13.5875 4.52501C13.8125 4.49167 14.0166 4.47501 14.2 4.47501C15.3 4.47501 16.2 4.82501 16.9 5.52501C17.6 6.22501 17.95 7.12501 17.95 8.22501Z" fill="#C9C9C9"/>
</svg>
