<svg width="24" height="24" viewBox="0 0 24 24" fill="none" xmlns="http://www.w3.org/2000/svg">
<g clip-path="url(#clip0_900_2026)">
<path d="M14.0863 17.1447L11.9999 15.5586L9.91359 17.1447C9.59992 17.3814 9.14844 17.1589 9.14844 16.7659V5.89041C9.14844 5.3696 9.57616 4.94348 10.0989 4.94348H13.9009C14.4237 4.94348 14.8514 5.3696 14.8514 5.89041V16.7707C14.8514 17.1636 14.3999 17.3862 14.0863 17.1494V17.1447Z" fill="#FFDC32"/>
<path d="M17.4835 0.975794L14.2708 3.04484C14.0712 2.80811 13.7765 2.6566 13.4439 2.6566H10.5781C10.2549 2.6566 9.96504 2.80337 9.76544 3.0259L6.57653 0.975794C4.85613 0.000453205 3.10247 0.871631 2.7793 3.613V5.70572C3.27831 5.46425 3.83435 5.32695 4.42365 5.32695H19.6316C20.2399 5.32695 20.8054 5.47372 21.314 5.72466V4.05806C21.1381 0.966324 19.2894 -0.0421588 17.4787 0.975794H17.4835Z" fill="#FFC710"/>
<path d="M14.8512 5.41608H19.6037C21.7042 5.41608 23.4056 7.11109 23.4056 9.20381V19.6201C23.4056 21.7128 21.7042 23.4078 19.6037 23.4078H4.39573C2.29514 23.4078 0.59375 21.7128 0.59375 19.6201V9.20381C0.59375 7.11109 2.29514 5.41608 4.39573 5.41608H9.14821" fill="white"/>
<path d="M19.604 23.9997H4.39604C1.97228 23.9997 0 22.0348 0 19.6201V9.20384C0 6.78916 1.97228 4.82428 4.39604 4.82428H9.14851V6.00795H4.39604C2.62812 6.00795 1.18812 7.44255 1.18812 9.20384V19.6201C1.18812 21.3814 2.62812 22.816 4.39604 22.816H19.604C21.3719 22.816 22.8119 21.3814 22.8119 19.6201V9.20384C22.8119 7.44255 21.3719 6.00795 19.604 6.00795H14.8515V4.82428H19.604C22.0277 4.82428 24 6.78916 24 9.20384V19.6201C24 22.0348 22.0277 23.9997 19.604 23.9997Z" fill="#2F2F2F"/>
<path d="M14.0863 17.1446L11.9999 15.5585L9.91359 17.1446C9.59992 17.3814 9.14844 17.1588 9.14844 16.7659V5.89035C9.14844 5.36954 9.57616 4.94342 10.0989 4.94342H13.9009C14.4237 4.94342 14.8514 5.36954 14.8514 5.89035V16.7706C14.8514 17.1636 14.3999 17.3861 14.0863 17.1494V17.1446Z" fill="#FFC710"/>
<path d="M9.62399 17.8359C9.46241 17.8359 9.30083 17.7981 9.14875 17.7223C8.78281 17.5424 8.55469 17.1731 8.55469 16.7659V5.89039C8.55469 5.04288 9.24855 4.35162 10.0992 4.35162H13.9012C14.7519 4.35162 15.4458 5.04288 15.4458 5.89039V16.7706C15.4458 17.1778 15.2177 17.5424 14.8517 17.727C14.4858 17.907 14.0533 17.8643 13.7301 17.6181L12.0002 16.3066L10.2703 17.6181C10.0802 17.7649 9.85211 17.8359 9.62399 17.8359V17.8359ZM10.0992 5.53529C9.90439 5.53529 9.74281 5.69627 9.74281 5.89039V16.5339L12.0002 14.82L14.2577 16.5339V5.89039C14.2577 5.69627 14.0961 5.53529 13.9012 5.53529H10.0992V5.53529Z" fill="#2F2F2F"/>
<path d="M9.14821 12.8741H0.59375V14.0577H9.14821V12.8741Z" fill="#2F2F2F"/>
<path d="M23.406 12.8741H14.8516V14.0577H23.406V12.8741Z" fill="#2F2F2F"/>
<path d="M12.5944 15.5958H11.4062V23.3275H12.5944V15.5958Z" fill="#2F2F2F"/>
<path d="M3.31703 5.79524H2.12891V4.52635C2.12891 2.49992 2.76099 1.01323 3.91108 0.345647C4.77603 -0.156227 5.85485 -0.11835 6.87188 0.454544L10.2271 2.61828L9.58079 3.61256L6.25406 1.4725C5.63623 1.12687 5.00415 1.08425 4.5099 1.37307C3.75425 1.81339 3.31703 2.96391 3.31703 4.53109V5.79998V5.79524Z" fill="#2F2F2F"/>
<path d="M21.9272 5.79518H20.7391V4.52629C20.7391 2.95912 20.3066 1.8086 19.5462 1.36827C19.0472 1.07946 18.4199 1.12207 17.7688 1.48664L14.4706 3.6125L13.8242 2.61822L17.151 0.473422C18.1965 -0.118411 19.2753 -0.156288 20.1403 0.345586C21.2904 1.01317 21.9224 2.49512 21.9224 4.52629V5.79518H21.9272Z" fill="#2F2F2F"/>
<path d="M15.1231 5.13258H13.935V3.74058C13.935 3.47071 13.7163 3.24818 13.4407 3.24818H10.575C10.3041 3.24818 10.0807 3.46597 10.0807 3.74058V5.13258H8.89258V3.74058C8.89258 2.81733 9.64822 2.06451 10.575 2.06451H13.4407C14.3674 2.06451 15.1231 2.81733 15.1231 3.74058V5.13258Z" fill="#2F2F2F"/>
</g>
<defs>
<clipPath id="clip0_900_2026">
<rect width="24" height="24" fill="white"/>
</clipPath>
</defs>
</svg>
