<svg width="90" height="28" viewBox="0 0 90 28" fill="none" xmlns="http://www.w3.org/2000/svg">
<mask id="mask0_531_11488" style="mask-type:alpha" maskUnits="userSpaceOnUse" x="0" y="0" width="90" height="28">
<rect width="90" height="28" fill="#D9D9D9"/>
</mask>
<g mask="url(#mask0_531_11488)">
<path d="M30.1114 16.3465C29.6981 16.5065 29.4448 16.7665 29.4581 17.1598C29.4648 17.5798 29.7981 17.6598 30.2781 17.6132C30.8114 17.5532 31.4381 17.1532 32.0448 16.5732L32.0314 15.8398C31.3981 15.9398 30.7448 16.1132 30.1114 16.3532V16.3465Z" fill="#00B400"/>
<path d="M62.0581 12.7602C60.6048 12.9336 59.7314 14.3602 59.7581 15.5002C59.7714 16.0336 60.0714 16.5069 60.7448 16.4536C61.3381 16.4002 61.8648 16.0736 62.3648 15.5802L62.2981 12.7402C62.2248 12.7402 62.1314 12.7402 62.0581 12.7602Z" fill="#00B400"/>
<path d="M45.6912 13.0666C44.9445 13.1466 44.4312 13.5399 44.2845 14.3266L47.0045 14.0332C46.9378 13.3266 46.4578 12.9799 45.6912 13.0599V13.0666Z" fill="#00B400"/>
<path d="M84.1044 10L76.6911 10.54V2L4.6911 7.33333V26L56.7711 22.14V26L84.1044 24L78.7711 17.2467L84.1044 10ZM15.7511 19.5533C12.4711 19.9067 11.0178 18.4267 10.9311 14.6867C10.8444 10.7533 12.5978 9.42 15.1711 9.14667C16.4978 9 17.6978 9.24 18.5378 9.84667L17.3178 11.5733C16.6111 11.1933 15.9978 11.08 15.3444 11.1467C13.8111 11.3067 13.1378 12.24 13.1911 14.5333C13.2444 16.88 13.9244 17.7133 15.5178 17.5533C16.3044 17.4733 16.8711 17.2333 17.5911 16.6533L18.8578 18.2267C18.1778 18.9267 17.0444 19.4067 15.7511 19.5533ZM24.3044 19.2733L24.2044 14.8733C24.1844 13.9733 24.0778 13.62 23.3378 13.7C22.8578 13.76 22.3178 14.1267 21.8444 14.56L21.9578 19.52L19.8311 19.7467L19.5911 9.22L21.7178 8.99333L21.7978 12.5467C22.3844 12.1267 23.0378 11.8333 23.6711 11.7667C25.5711 11.56 26.2778 12.42 26.3111 14.1067L26.4244 19.0533L24.2978 19.28L24.3044 19.2733ZM32.0978 19.1L32.0778 18.16C31.6578 18.6533 30.9511 19.2867 29.8378 19.4067C28.6111 19.5333 27.3778 18.9933 27.3444 17.56C27.3111 16.1533 28.1378 15.5133 29.2044 15.0667C29.9844 14.7467 31.1044 14.5 31.9911 14.3667C31.9511 13.5933 31.7511 13.3067 31.0578 13.3733C30.3378 13.44 29.3311 13.8667 28.6778 14.2267L27.6911 12.8133C28.5178 12.2267 29.7978 11.7267 31.0111 11.5933C33.4778 11.3333 34.0778 12.4733 34.1111 14.02L34.2178 18.8667L32.0911 19.0933L32.0978 19.1ZM35.5044 19.3933L35.2644 8.86667L37.3911 8.64L37.6311 19.1667L35.5044 19.3933ZM39.0311 19.3133L38.7911 8.78667L40.9178 8.56L41.1578 19.0867L39.0311 19.3133ZM46.4911 18.84C43.5178 19.1467 42.1444 18.0267 42.0911 15.5C42.0378 13.04 43.2978 11.5267 45.5511 11.2867C47.6778 11.06 48.9511 12.2733 48.9978 14.4933C49.0111 14.9467 48.9911 15.24 48.9711 15.42L44.2844 15.9333C44.4111 16.8933 45.1244 17.1333 46.3644 17C47.0444 16.92 47.6044 16.7467 48.3311 16.4L49.1311 17.9533C48.3178 18.44 47.4244 18.74 46.4978 18.84H46.4911ZM54.5644 18.5933L54.4644 14.1933C54.4444 13.2933 54.3378 12.94 53.6378 13.02C53.1978 13.0667 52.6444 13.42 52.1111 13.94L52.2244 18.8333L50.0978 19.06L49.9244 11.4733L52.0511 11.2467L52.0644 11.9067C52.6778 11.4467 53.3444 11.14 53.9778 11.08C55.8378 10.8867 56.5444 11.7333 56.5778 13.42L56.6911 18.3667L54.5644 18.5933ZM61.5444 21.0133C60.3911 21.14 58.8511 20.9733 57.7778 20.6067L58.3644 19.0467C59.3711 19.2933 60.3644 19.3933 61.1111 19.3267C62.1244 19.2267 62.4311 18.8533 62.4111 17.76V17.6067C61.7844 18.0667 61.1444 18.32 60.5378 18.4C58.4511 18.7 57.6244 17.4733 57.5844 15.8533C57.5311 13.4533 59.0778 11.1533 62.0111 10.84C63.1911 10.7133 63.7978 10.8533 64.3911 11.08L64.5378 17.66C64.6044 19.9667 63.8444 20.76 61.5444 21.0133ZM69.8911 18.3133C66.9178 18.62 65.5444 17.5 65.4911 14.9733C65.4378 12.5133 66.6978 11 68.9511 10.76C71.0778 10.5333 72.3511 11.7467 72.3978 13.9667C72.4111 14.42 72.3911 14.7133 72.3711 14.8933L67.6844 15.4067C67.8111 16.3667 68.5244 16.6067 69.7644 16.4733C70.4444 16.3933 71.0044 16.22 71.7311 15.8733L72.5311 17.4267C71.7178 17.9133 70.8244 18.2133 69.8978 18.3133H69.8911Z" fill="#00B400"/>
<path d="M69.0914 12.5331C68.3447 12.6131 67.8314 13.0064 67.6847 13.7931L70.4047 13.4998C70.338 12.7931 69.858 12.4464 69.0914 12.5264V12.5331Z" fill="#00B400"/>
</g>
</svg>
