<svg width="16" height="16" viewBox="0 0 16 16" fill="none" xmlns="http://www.w3.org/2000/svg">
<path fill-rule="evenodd" clip-rule="evenodd" d="M8 16C12.4183 16 16 12.4183 16 8C16 3.58172 12.4183 0 8 0C3.58172 0 0 3.58172 0 8C0 12.4183 3.58172 16 8 16ZM7.27273 9.45455V2.90909H8.72727V9.45455H7.27273ZM9.09091 11.6364C9.09091 12.2389 8.60249 12.7273 8 12.7273C7.39751 12.7273 6.90909 12.2389 6.90909 11.6364C6.90909 11.0339 7.39751 10.5455 8 10.5455C8.60249 10.5455 9.09091 11.0339 9.09091 11.6364Z" fill="#C9C9C9"/>
</svg>
