<svg width="16" height="16" viewBox="0 0 16 16" fill="none" xmlns="http://www.w3.org/2000/svg">
<path d="M15.1998 7.35998C15.1998 7.0205 15.0619 6.69493 14.8164 6.45488C14.5709 6.21483 14.2379 6.07998 13.8907 6.07998H9.75399L10.3824 3.15518C10.3954 3.09118 10.402 3.02078 10.402 2.95038C10.402 2.68798 10.2907 2.44478 10.114 2.27198L9.42017 1.59998L5.11326 5.81118C4.87108 6.04798 4.72708 6.36798 4.72708 6.71998V13.12C4.72708 13.4595 4.865 13.785 5.1105 14.0251C5.356 14.2651 5.68898 14.4 6.03617 14.4H11.9271C12.4704 14.4 12.9351 14.08 13.1314 13.6192L15.1082 9.10718C15.1671 8.95998 15.1998 8.80638 15.1998 8.63998V7.35998ZM0.799805 14.4H3.41799V6.71998H0.799805V14.4Z" fill="white"/>
</svg>
