<svg width="32" height="20" viewBox="0 0 32 20" fill="none" xmlns="http://www.w3.org/2000/svg">
<path fill-rule="evenodd" clip-rule="evenodd" d="M0.964545 1.06497C0.426397 1.08406 0 1.52585 0 2.06434V14.8927C0 15.4312 0.426397 15.873 0.964544 15.8921L3 15.9643V19.9999L7.76798 16.1334L30.9645 16.9564C31.5304 16.9765 32 16.5232 32 15.957V1.00001C32 0.433828 31.5304 -0.0194322 30.9645 0.000641993L0.964545 1.06497Z" fill="#00B400"/>
<path d="M7.68688 4.6H6.20688V12H10.6869V10.76H7.68688V4.6ZM13.4584 4.6H11.9784V12H13.4584V4.6ZM15.8691 4.6H14.3191L16.5791 12H18.3391L20.6091 4.6H19.1091L18.1491 8.2C17.9191 9.04 17.7491 9.75 17.5191 10.59H17.4691C17.2291 9.75 17.0791 9.04 16.8491 8.2L15.8691 4.6ZM26.0008 4.6H21.4608V12H26.1108V10.76H22.9408V8.78H25.5408V7.54H22.9408V5.83H26.0008V4.6Z" fill="white"/>
</svg>
