<svg width="80" height="101" viewBox="0 0 80 101" fill="none" xmlns="http://www.w3.org/2000/svg">
<path d="M78.83 83.1683L40 100.998L1.17 83.1683C0.46 82.8383 0 82.1283 0 81.3483V2.99829C0 1.89829 0.9 0.998291 2 0.998291H78C79.1 0.998291 80 1.89829 80 2.99829V81.3583C80 82.1383 79.54 82.8483 78.83 83.1783V83.1683Z" fill="#DFDFDF"/>
<path d="M67.39 74.8583L40 86.3983L12.61 74.8583C12.24 74.6983 12 74.3383 12 73.9383V13.9983C12 13.4483 12.45 12.9983 13 12.9983H67C67.55 12.9983 68 13.4483 68 13.9983V73.9383C68 74.3383 67.76 74.7083 67.39 74.8583Z" fill="#F5F5F5"/>
<path d="M24.5355 47.2874C24.5355 40.9807 25.7455 36.0124 28.1655 32.3824C30.6222 28.7524 34.5639 26.9374 39.9905 26.9374C45.4172 26.9374 49.3405 28.7524 51.7605 32.3824C54.2172 36.0124 55.4455 40.9807 55.4455 47.2874C55.4455 53.6674 54.2172 58.6724 51.7605 62.3024C49.3405 65.9324 45.4172 67.7474 39.9905 67.7474C34.5639 67.7474 30.6222 65.9324 28.1655 62.3024C25.7455 58.6724 24.5355 53.6674 24.5355 47.2874ZM46.2055 47.2874C46.2055 43.584 45.8022 40.7424 44.9955 38.7624C44.1889 36.7457 42.5205 35.7374 39.9905 35.7374C37.4605 35.7374 35.7922 36.7457 34.9855 38.7624C34.1789 40.7424 33.7755 43.584 33.7755 47.2874C33.7755 49.7807 33.9222 51.8524 34.2155 53.5024C34.5089 55.1157 35.0955 56.4357 35.9755 57.4624C36.8922 58.4524 38.2305 58.9474 39.9905 58.9474C41.7505 58.9474 43.0705 58.4524 43.9505 57.4624C44.8672 56.4357 45.4722 55.1157 45.7655 53.5024C46.0589 51.8524 46.2055 49.7807 46.2055 47.2874Z" fill="#C9C9C9"/>
</svg>
