<svg width="81" height="100" viewBox="0 0 81 100" fill="none" xmlns="http://www.w3.org/2000/svg">
<path d="M78.8613 82.17L40.0312 100L1.20125 82.17C0.49125 81.84 0.03125 81.13 0.03125 80.35V2C0.03125 0.9 0.93125 0 2.03125 0H78.0312C79.1313 0 80.0312 0.9 80.0312 2V80.36C80.0312 81.14 79.5713 81.85 78.8613 82.18V82.17Z" fill="#00B400"/>
<path d="M67.4212 73.86L40.0312 85.4L12.6412 73.86C12.2712 73.7 12.0312 73.34 12.0312 72.94V13C12.0312 12.45 12.4812 12 13.0312 12H67.0312C67.5813 12 68.0312 12.45 68.0312 13V72.94C68.0312 73.34 67.7912 73.71 67.4212 73.86Z" fill="white"/>
<path d="M31.1769 35.509V26.764H46.4119V66.914H36.6219V35.509H31.1769Z" fill="#2F2F2F"/>
</svg>
