<svg width="81" height="100" viewBox="0 0 81 100" fill="none" xmlns="http://www.w3.org/2000/svg">
<g opacity="0.2">
<path d="M78.8925 82.17L40.0625 100L1.2325 82.17C0.5225 81.84 0.0625 81.13 0.0625 80.35V2C0.0625 0.9 0.9625 0 2.0625 0H78.0625C79.1625 0 80.0625 0.9 80.0625 2V80.36C80.0625 81.14 79.6025 81.85 78.8925 82.18V82.17Z" fill="#747474"/>
<path d="M67.4525 73.86L40.0625 85.4L12.6725 73.86C12.3025 73.7 12.0625 73.34 12.0625 72.94V13C12.0625 12.45 12.5125 12 13.0625 12H67.0625C67.6125 12 68.0625 12.45 68.0625 13V72.94C68.0625 73.34 67.8225 73.71 67.4525 73.86Z" fill="white"/>
<path d="M31.2081 35.5091V26.7641H46.4431V66.9141H36.6531V35.5091H31.2081Z" fill="#2F2F2F"/>
</g>
</svg>
