<svg width="81" height="100" viewBox="0 0 81 100" fill="none" xmlns="http://www.w3.org/2000/svg">
<g opacity="0.2">
<path d="M78.9238 82.17L40.0938 100L1.26375 82.17C0.55375 81.84 0.09375 81.13 0.09375 80.35V2C0.09375 0.9 0.99375 0 2.09375 0H78.0938C79.1938 0 80.0938 0.9 80.0938 2V80.36C80.0938 81.14 79.6338 81.85 78.9238 82.18V82.17Z" fill="#747474"/>
<path d="M67.4837 73.86L40.0938 85.4L12.7037 73.86C12.3337 73.7 12.0938 73.34 12.0938 72.94V13C12.0938 12.45 12.5437 12 13.0938 12H67.0938C67.6438 12 68.0938 12.45 68.0938 13V72.94C68.0938 73.34 67.8537 73.71 67.4837 73.86Z" fill="white"/>
<path d="M26.5283 59.3791C27.775 58.3891 28.3433 57.9307 28.2333 58.0041C31.8266 55.0341 34.65 52.5957 36.7033 50.6891C38.7933 48.7824 40.5533 46.7841 41.9833 44.6941C43.4133 42.6041 44.1283 40.5691 44.1283 38.5891C44.1283 37.0857 43.78 35.9124 43.0833 35.0691C42.3866 34.2257 41.3416 33.8041 39.9483 33.8041C38.555 33.8041 37.455 34.3357 36.6483 35.3991C35.8783 36.4257 35.4933 37.8924 35.4933 39.7991H26.4183C26.4916 36.6824 27.1516 34.0791 28.3983 31.9891C29.6816 29.8991 31.35 28.3591 33.4033 27.3691C35.4933 26.3791 37.8033 25.8841 40.3333 25.8841C44.6966 25.8841 47.9783 27.0024 50.1783 29.2391C52.415 31.4757 53.5333 34.3907 53.5333 37.9841C53.5333 41.9074 52.195 45.5557 49.5183 48.9291C46.8416 52.2657 43.4316 55.5291 39.2883 58.7191H54.1383V66.3641H26.5283V59.3791Z" fill="#2F2F2F"/>
</g>
</svg>
