<svg width="81" height="100" viewBox="0 0 81 100" fill="none" xmlns="http://www.w3.org/2000/svg">
<path d="M78.9238 82.17L40.0938 100L1.26375 82.17C0.55375 81.84 0.09375 81.13 0.09375 80.35V2C0.09375 0.9 0.99375 0 2.09375 0H78.0938C79.1938 0 80.0938 0.9 80.0938 2V80.36C80.0938 81.14 79.6338 81.85 78.9238 82.18V82.17Z" fill="#FF8E00"/>
<path d="M67.4837 73.86L40.0938 85.4L12.7037 73.86C12.3337 73.7 12.0938 73.34 12.0938 72.94V13C12.0938 12.45 12.5437 12 13.0938 12H67.0938C67.6438 12 68.0938 12.45 68.0938 13V72.94C68.0938 73.34 67.8537 73.71 67.4837 73.86Z" fill="white"/>
<path d="M26.2484 38.0941C26.3951 34.1708 27.6784 31.1458 30.0984 29.0191C32.5184 26.8924 35.8001 25.8291 39.9434 25.8291C42.6934 25.8291 45.0401 26.3058 46.9834 27.2591C48.9634 28.2124 50.4484 29.5141 51.4384 31.1641C52.4651 32.8141 52.9784 34.6658 52.9784 36.7191C52.9784 39.1391 52.3734 41.1191 51.1634 42.6591C49.9534 44.1624 48.5418 45.1891 46.9284 45.7391V45.9591C49.0184 46.6558 50.6684 47.8108 51.8784 49.4241C53.0884 51.0374 53.6934 53.1091 53.6934 55.6391C53.6934 57.9124 53.1618 59.9291 52.0984 61.6891C51.0718 63.4124 49.5501 64.7691 47.5334 65.7591C45.5534 66.7491 43.1884 67.2441 40.4384 67.2441C36.0384 67.2441 32.5184 66.1624 29.8784 63.9991C27.2751 61.8358 25.9001 58.5724 25.7534 54.2091H34.8834C34.9201 55.8224 35.3784 57.1058 36.2584 58.0591C37.1384 58.9758 38.4218 59.4341 40.1084 59.4341C41.5384 59.4341 42.6384 59.0308 43.4084 58.2241C44.2151 57.3808 44.6184 56.2808 44.6184 54.9241C44.6184 53.1641 44.0501 51.8991 42.9134 51.1291C41.8134 50.3224 40.0351 49.9191 37.5784 49.9191H35.8184V42.2741H37.5784C39.4484 42.2741 40.9518 41.9624 42.0884 41.3391C43.2618 40.6791 43.8484 39.5241 43.8484 37.8741C43.8484 36.5541 43.4818 35.5274 42.7484 34.7941C42.0151 34.0608 41.0068 33.6941 39.7234 33.6941C38.3301 33.6941 37.2851 34.1158 36.5884 34.9591C35.9284 35.8024 35.5434 36.8474 35.4334 38.0941H26.2484Z" fill="#2F2F2F"/>
</svg>
