<svg width="81" height="100" viewBox="0 0 81 100" fill="none" xmlns="http://www.w3.org/2000/svg">
<path d="M78.9863 82.17L40.1562 100L1.32625 82.17C0.61625 81.84 0.15625 81.13 0.15625 80.35V2C0.15625 0.9 1.05625 0 2.15625 0H78.1562C79.2563 0 80.1562 0.9 80.1562 2V80.36C80.1562 81.14 79.6963 81.85 78.9863 82.18V82.17Z" fill="#6565D9"/>
<path d="M67.5462 73.86L40.1562 85.4L12.7662 73.86C12.3962 73.7 12.1562 73.34 12.1562 72.94V13C12.1562 12.45 12.6062 12 13.1562 12H67.1562C67.7063 12 68.1562 12.45 68.1562 13V72.94C68.1562 73.34 67.9162 73.71 67.5462 73.86Z" fill="white"/>
<path d="M53.0155 34.9591H35.8555V42.5491C36.5888 41.7424 37.6155 41.0824 38.9355 40.5691C40.2555 40.0558 41.6855 39.7991 43.2255 39.7991C45.9755 39.7991 48.2488 40.4224 50.0455 41.6691C51.8788 42.9158 53.2172 44.5291 54.0605 46.5091C54.9038 48.4891 55.3255 50.6341 55.3255 52.9441C55.3255 57.2341 54.1155 60.6441 51.6955 63.1741C49.2755 65.6674 45.8655 66.9141 41.4655 66.9141C38.5322 66.9141 35.9838 66.4191 33.8205 65.4291C31.6572 64.4024 29.9888 62.9908 28.8155 61.1941C27.6422 59.3974 27.0005 57.3258 26.8905 54.9791H36.0755C36.2955 56.1158 36.8272 57.0691 37.6705 57.8391C38.5138 58.5724 39.6688 58.9391 41.1355 58.9391C42.8588 58.9391 44.1422 58.3891 44.9855 57.2891C45.8288 56.1891 46.2505 54.7224 46.2505 52.8891C46.2505 51.0924 45.8105 49.7174 44.9305 48.7641C44.0505 47.8108 42.7672 47.3341 41.0805 47.3341C39.8338 47.3341 38.8072 47.6458 38.0005 48.2691C37.1938 48.8558 36.6622 49.6441 36.4055 50.6341H27.3305V26.7091H53.0155V34.9591Z" fill="#2F2F2F"/>
</svg>
