<svg width="81" height="100" viewBox="0 0 81 100" fill="none" xmlns="http://www.w3.org/2000/svg">
<g opacity="0.2">
<path d="M79.0175 82.17L40.1875 100L1.3575 82.17C0.6475 81.84 0.1875 81.13 0.1875 80.35V2C0.1875 0.9 1.0875 0 2.1875 0H78.1875C79.2875 0 80.1875 0.9 80.1875 2V80.36C80.1875 81.14 79.7275 81.85 79.0175 82.18V82.17Z" fill="#747474"/>
<path d="M67.5775 73.86L40.1875 85.4L12.7975 73.86C12.4275 73.7 12.1875 73.34 12.1875 72.94V13C12.1875 12.45 12.6375 12 13.1875 12H67.1875C67.7375 12 68.1875 12.45 68.1875 13V72.94C68.1875 73.34 67.9475 73.71 67.5775 73.86Z" fill="white"/>
<path d="M53.0468 34.9591H35.8868V42.5491C36.6201 41.7424 37.6468 41.0824 38.9668 40.5691C40.2868 40.0557 41.7168 39.7991 43.2568 39.7991C46.0068 39.7991 48.2801 40.4224 50.0768 41.6691C51.9101 42.9157 53.2484 44.5291 54.0918 46.5091C54.9351 48.4891 55.3568 50.6341 55.3568 52.9441C55.3568 57.2341 54.1468 60.6441 51.7268 63.1741C49.3068 65.6674 45.8968 66.9141 41.4968 66.9141C38.5634 66.9141 36.0151 66.4191 33.8518 65.4291C31.6884 64.4024 30.0201 62.9907 28.8468 61.1941C27.6734 59.3974 27.0318 57.3257 26.9218 54.9791H36.1068C36.3268 56.1157 36.8584 57.0691 37.7018 57.8391C38.5451 58.5724 39.7001 58.9391 41.1668 58.9391C42.8901 58.9391 44.1734 58.3891 45.0168 57.2891C45.8601 56.1891 46.2818 54.7224 46.2818 52.8891C46.2818 51.0924 45.8418 49.7174 44.9618 48.7641C44.0818 47.8107 42.7984 47.3341 41.1118 47.3341C39.8651 47.3341 38.8384 47.6457 38.0318 48.2691C37.2251 48.8557 36.6934 49.6441 36.4368 50.6341H27.3618V26.7091H53.0468V34.9591Z" fill="#2F2F2F"/>
</g>
</svg>
