<svg width="52" height="65" viewBox="0 0 52 65" fill="none" xmlns="http://www.w3.org/2000/svg">
<g opacity="0.2">
<path d="M51.2395 53.4105L26 65L0.7605 53.4105C0.299 53.196 0 52.7345 0 52.2275V1.3C0 0.585 0.585 0 1.3 0H50.7C51.415 0 52 0.585 52 1.3V52.234C52 52.741 51.701 53.2025 51.2395 53.417V53.4105Z" fill="#242424"/>
<path d="M43.8033 48.009L25.9998 55.51L8.1963 48.009C7.9558 47.905 7.7998 47.671 7.7998 47.411V8.44999C7.7998 8.09249 8.0923 7.79999 8.4498 7.79999H43.5498C43.9073 7.79999 44.1998 8.09249 44.1998 8.44999V47.411C44.1998 47.671 44.0438 47.9115 43.8033 48.009Z" fill="#747474"/>
<path d="M17.3682 42.8415V16.328H36.8162V21.7425H23.0037V28.028C27.2937 24.8235 34.8402 25.09 35.1717 25.1095V30.2315C35.1717 30.2315 28.0997 30.147 24.6872 33.4035C23.5562 34.4825 23.0037 35.8605 23.0037 37.466V42.8415H17.3682Z" fill="white"/>
</g>
</svg>
