<svg width="48" height="54" viewBox="0 0 48 54" fill="none" xmlns="http://www.w3.org/2000/svg">
<path d="M47.6597 52.1727C47.0865 47.3225 44.1368 43.0786 39.796 40.8816L30.7143 36.2715L30.4814 31.8475C33.6937 29.7346 35.8254 26.0849 35.8254 21.937V18.7856C36.4821 17.9632 39.0019 14.3376 37.3897 8.69505C35.5387 2.24213 30.0933 3.02249 30.0933 3.02249C26.881 -1.76768 13.5121 -1.50356 10.5446 8.49696C8.89066 14.0735 12.1209 18.9597 12.1209 18.9597H12.2702V21.937C12.2702 26.0429 14.354 29.6625 17.5126 31.7875L17.2798 36.2715L8.19803 40.8816C3.8572 43.0846 0.907576 47.3225 0.33437 52.1727L0 55H48L47.6656 52.1727H47.6597Z" fill="#DFDFDF"/>
</svg>
