<svg width="32" height="32" viewBox="0 0 32 32" fill="none" xmlns="http://www.w3.org/2000/svg">
<g clip-path="url(#clip0_646_825)">
<path fill-rule="evenodd" clip-rule="evenodd" d="M7 25L9.43873 22.1604C7.92639 20.5503 7 18.3833 7 16C7 11.0294 11.0294 7 16 7C20.9706 7 25 11.0294 25 16C25 20.9706 20.9706 25 16 25H7ZM10.7009 23.3H16C20.0317 23.3 23.3 20.0317 23.3 16C23.3 11.9683 20.0317 8.7 16 8.7C11.9683 8.7 8.7 11.9683 8.7 16C8.7 17.934 9.4498 19.6891 10.6779 20.9965L11.7233 22.1095L10.7009 23.3Z" fill="#2F2F2F"/>
<path d="M19.5999 16.9004H12.3999C12.3999 17.8552 12.7792 18.7708 13.4543 19.446C14.1294 20.1211 15.0451 20.5004 15.9999 20.5004C16.9547 20.5004 17.8704 20.1211 18.5455 19.446C19.2206 18.7708 19.5999 17.8552 19.5999 16.9004Z" fill="#2F2F2F"/>
</g>
<defs>
<clipPath id="clip0_646_825">
<rect width="32" height="32" fill="white"/>
</clipPath>
</defs>
</svg>
