<svg width="24" height="24" viewBox="0 0 24 24" fill="none" xmlns="http://www.w3.org/2000/svg">
<path d="M16.5889 17.8397C15.495 18.4366 14.2865 18.8129 13.0371 18.9455V23H10.9629V18.9455C8.85891 18.7182 6.89748 17.8081 5.40039 16.3647C3.90329 14.9213 2.95942 13.0302 2.72358 11.0016H4.81324C4.97491 12.0809 5.39584 13.1088 6.04247 14.0035C6.6891 14.8982 7.54355 15.6348 8.53772 16.1548C9.5319 16.6747 10.6383 16.9636 11.7687 16.9983C12.8992 17.0331 14.0224 16.8128 15.0489 16.3549L13.4405 14.8051C12.6681 15.0205 11.8543 15.0597 11.0635 14.9197C10.2726 14.7797 9.52641 14.4642 8.88376 13.9983C8.24111 13.5325 7.71964 12.9288 7.36056 12.2352C7.00147 11.5416 6.81462 10.777 6.81474 10.0018V8.41598L1 2.81074L2.46743 1.39593L23 21.1932L21.5326 22.6071L16.5889 17.8397ZM19.6483 15.1611L18.1518 13.7193C18.6796 12.9094 19.0395 11.9895 19.1857 11.0016H21.2764C21.1052 12.4981 20.5452 13.9287 19.6483 15.1611ZM16.6304 12.2525L7.52512 3.47365C8.10057 2.5259 8.98369 1.78721 10.0381 1.37168C11.0924 0.956153 12.2594 0.886913 13.3586 1.17466C14.4579 1.4624 15.4283 2.09111 16.1199 2.96368C16.8115 3.83624 17.1859 4.9041 17.1853 6.00231L17.1863 10.0018C17.1875 10.7835 16.9978 11.5545 16.6325 12.2525H16.6304Z" fill="white"/>
</svg>
