<svg width="12" height="12" viewBox="0 0 12 12" fill="none" xmlns="http://www.w3.org/2000/svg">
<g clip-path="url(#clip0_1067_16568)">
<path d="M5.92375 10.75C5.24125 10.75 4.60141 10.62 4.00422 10.36C3.40703 10.1 2.88703 9.74859 2.44422 9.30578C2.00141 8.86297 1.65 8.34297 1.39 7.74578C1.13 7.14859 1 6.50875 1 5.82625C1 4.64 1.37781 3.59391 2.13344 2.68797C2.88906 1.78203 3.85187 1.21937 5.02187 1C4.87562 1.79625 4.92031 2.57828 5.15594 3.34609C5.39156 4.11391 5.79781 4.78625 6.37469 5.36312C6.95156 5.94 7.62391 6.34828 8.39172 6.58797C9.15953 6.82766 9.94563 6.87437 10.75 6.72812C10.5387 7.89812 9.97812 8.86094 9.06812 9.61656C8.15812 10.3722 7.11 10.75 5.92375 10.75Z" fill="#FFC710"/>
</g>
<defs>
<clipPath id="clip0_1067_16568">
<rect width="12" height="12" fill="white"/>
</clipPath>
</defs>
</svg>
