<svg width="20" height="20" viewBox="0 0 20 20" fill="none" xmlns="http://www.w3.org/2000/svg">
<g clip-path="url(#clip0_849_821)">
<path d="M10.0813 18.125C8.94375 18.125 7.87734 17.9083 6.88203 17.475C5.88672 17.0417 5.02005 16.456 4.28203 15.718C3.54401 14.9799 2.95833 14.1133 2.525 13.118C2.09167 12.1227 1.875 11.0562 1.875 9.91875C1.875 7.94167 2.50469 6.19818 3.76406 4.68828C5.02344 3.17839 6.62812 2.24062 8.57812 1.875C8.33437 3.20208 8.40885 4.50547 8.80156 5.78516C9.19427 7.06484 9.87135 8.18542 10.8328 9.14687C11.7943 10.1083 12.9148 10.7888 14.1945 11.1883C15.4742 11.5878 16.7844 11.6656 18.125 11.4219C17.7729 13.3719 16.8385 14.9766 15.3219 16.2359C13.8052 17.4953 12.0583 18.125 10.0813 18.125Z" fill="#9F9F9F"/>
</g>
<defs>
<clipPath id="clip0_849_821">
<rect width="20" height="20" fill="white"/>
</clipPath>
</defs>
</svg>
