<svg width="32" height="32" viewBox="0 0 32 32" fill="none" xmlns="http://www.w3.org/2000/svg">
<g clip-path="url(#clip0_1413_4054)">
<rect width="28" height="28" fill="#DFDFDF"/>
<rect x="4" y="4" width="20" height="18" fill="white"/>
<path fill-rule="evenodd" clip-rule="evenodd" d="M17.6355 9.62947C17.6355 11.634 16.0076 13.2589 13.9994 13.2589C11.9912 13.2589 10.3633 11.634 10.3633 9.62947C10.3633 7.62497 11.9912 6 13.9994 6C16.0076 6 17.6355 7.62497 17.6355 9.62947ZM6 22C6 17.7239 9.58125 14.2571 13.9987 14.2571H14.0003C18.4177 14.2571 21.9989 17.7239 21.9989 22H6Z" fill="#2F2F2F"/>
<rect x="16" y="16" width="16" height="16" rx="8" fill="#00B400"/>
<path fill-rule="evenodd" clip-rule="evenodd" d="M24.75 20H23.25V23.25H20V24.75H23.25V28H24.75V24.75H28V23.25H24.75V20Z" fill="white"/>
</g>
<defs>
<clipPath id="clip0_1413_4054">
<rect width="32" height="32" fill="white"/>
</clipPath>
</defs>
</svg>
