<svg width="32" height="32" viewBox="0 0 32 32" fill="none" xmlns="http://www.w3.org/2000/svg">
<g clip-path="url(#clip0_1413_4055)">
<path fill-rule="evenodd" clip-rule="evenodd" d="M15.9999 7C15.9999 9.76142 13.7613 12 10.9999 12C8.23845 12 5.99987 9.76142 5.99987 7C5.99987 4.23858 8.23845 2 10.9999 2C13.7613 2 15.9999 4.23858 15.9999 7ZM0 24C0 18.1091 4.92455 13.3333 10.9989 13.3333H11.0011C17.0754 13.3333 22 18.1091 22 24H0Z" fill="#C9C9C9"/>
<path fill-rule="evenodd" clip-rule="evenodd" d="M25.9999 13C25.9999 15.7614 23.7613 18 20.9999 18C18.2384 18 15.9999 15.7614 15.9999 13C15.9999 10.2386 18.2384 8 20.9999 8C23.7613 8 25.9999 10.2386 25.9999 13ZM10 30C10 24.1091 14.9246 19.3333 20.9989 19.3333H21.0011C27.0754 19.3333 32 24.1091 32 30H10Z" fill="#C9C9C9"/>
<path fill-rule="evenodd" clip-rule="evenodd" d="M8.5 31.5V30C8.5 24.4937 12.2394 19.8877 17.3315 18.3667C15.6217 17.1957 14.4999 15.2289 14.4999 13C14.4999 9.41015 17.41 6.5 20.9999 6.5C24.5897 6.5 27.4999 9.41015 27.4999 13C27.4999 15.2288 26.3781 17.1957 24.6683 18.3666C29.7605 19.8876 33.5 24.4936 33.5 30V31.5H8.5ZM22.1774 19.3936C21.7909 19.3538 21.3985 19.3333 21.0011 19.3333H20.9999C20.6025 19.3333 20.209 19.3538 19.8225 19.3936C14.8118 19.9104 10.8059 23.6903 10.1079 28.5C10.0368 28.9901 10 29.4909 10 30H32C32 29.4909 31.9632 28.9901 31.8921 28.5C31.194 23.6903 27.1881 19.9103 22.1774 19.3936ZM22.0958 17.8795C24.3301 17.3799 25.9999 15.385 25.9999 13C25.9999 10.2386 23.7613 8 20.9999 8C18.2384 8 15.9999 10.2386 15.9999 13C15.9999 15.385 17.6697 17.38 19.9041 17.8795C20.2564 17.9583 20.6228 17.9999 20.9989 18C20.9992 18 20.9986 18 20.9989 18C20.9993 18 21.0007 18 21.0011 18C21.3771 17.9999 21.7435 17.9583 22.0958 17.8795Z" fill="white"/>
</g>
<defs>
<clipPath id="clip0_1413_4055">
<rect width="32" height="32" fill="white"/>
</clipPath>
</defs>
</svg>
