<svg width="18" height="18" viewBox="0 0 18 18" fill="none" xmlns="http://www.w3.org/2000/svg">
<path d="M2.25 16.5V4.3125H5.4375C5.4375 3.325 5.76875 2.48438 6.43125 1.79063C7.09375 1.09688 7.91875 0.75 8.90625 0.75C9.89375 0.75 10.75 1.09688 11.475 1.79063C12.2 2.48438 12.5625 3.325 12.5625 4.3125H15.75V16.5H2.25ZM6.5625 4.3125H11.4375C11.4375 3.625 11.2031 3.04688 10.7344 2.57812C10.2656 2.10938 9.6875 1.875 9 1.875C8.3125 1.875 7.73438 2.10938 7.26562 2.57812C6.79688 3.04688 6.5625 3.625 6.5625 4.3125ZM9 9.9375C9.9875 9.9375 10.8438 9.575 11.5688 8.85C12.2937 8.125 12.6562 7.26875 12.6562 6.28125H11.5312C11.5312 6.96875 11.2812 7.5625 10.7812 8.0625C10.2812 8.5625 9.6875 8.8125 9 8.8125C8.3125 8.8125 7.71875 8.5625 7.21875 8.0625C6.71875 7.5625 6.46875 6.96875 6.46875 6.28125H5.34375C5.34375 7.26875 5.70625 8.125 6.43125 8.85C7.15625 9.575 8.0125 9.9375 9 9.9375Z" fill="white"/>
</svg>
