<svg width="18" height="18" viewBox="0 0 18 18" fill="none" xmlns="http://www.w3.org/2000/svg">
<path d="M12.3937 11.5875L14.5125 9.45C14.9125 9.05 15.2188 8.59375 15.4313 8.08125C15.6438 7.56875 15.75 7.03125 15.75 6.46875C15.75 5.29375 15.3406 4.29688 14.5219 3.47812C13.7031 2.65937 12.7063 2.25 11.5312 2.25C10.9688 2.25 10.4313 2.35625 9.91875 2.56875C9.40625 2.78125 8.95 3.0875 8.55 3.4875L6.4125 5.60625L12.3937 11.5875ZM6.46875 15.75C7.03125 15.75 7.56875 15.6438 8.08125 15.4313C8.59375 15.2188 9.05 14.9125 9.45 14.5125L11.5875 12.3937L5.60625 6.4125L3.4875 8.55C3.0875 8.95 2.78125 9.40625 2.56875 9.91875C2.35625 10.4313 2.25 10.9688 2.25 11.5312C2.25 12.7063 2.65937 13.7031 3.47812 14.5219C4.29688 15.3406 5.29375 15.75 6.46875 15.75Z" fill="white"/>
</svg>
