<svg width="20" height="20" viewBox="0 0 20 20" fill="none" xmlns="http://www.w3.org/2000/svg">
<g clip-path="url(#clip0_59_117893)">
<path fill-rule="evenodd" clip-rule="evenodd" d="M10 18C14.4183 18 18 14.4183 18 10C18 5.58172 14.4183 2 10 2C5.58172 2 2 5.58172 2 10C2 14.4183 5.58172 18 10 18ZM9.27273 11.4545V4.90909H10.7273V11.4545H9.27273ZM11.0909 13.6364C11.0909 14.2389 10.6025 14.7273 10 14.7273C9.39751 14.7273 8.90909 14.2389 8.90909 13.6364C8.90909 13.0339 9.39751 12.5455 10 12.5455C10.6025 12.5455 11.0909 13.0339 11.0909 13.6364Z" fill="#F44432"/>
</g>
<defs>
<clipPath id="clip0_59_117893">
<rect width="20" height="20" fill="white"/>
</clipPath>
</defs>
</svg>
