<svg width="18" height="18" viewBox="0 0 18 18" fill="none" xmlns="http://www.w3.org/2000/svg">
<path d="M0.712402 15.0002V13.2377C0.712402 12.8002 0.824902 12.4033 1.0499 12.0471C1.2749 11.6908 1.5874 11.4252 1.9874 11.2502C2.8999 10.8502 3.72178 10.5627 4.45303 10.3877C5.18428 10.2127 5.9374 10.1252 6.7124 10.1252C7.4874 10.1252 8.2374 10.2127 8.9624 10.3877C9.6874 10.5627 10.5062 10.8502 11.4187 11.2502C11.8187 11.4252 12.1343 11.6908 12.3655 12.0471C12.5968 12.4033 12.7124 12.8002 12.7124 13.2377V15.0002H0.712402ZM13.8374 15.0002V13.2377C13.8374 12.4502 13.6374 11.8033 13.2374 11.2971C12.8374 10.7908 12.3124 10.3814 11.6624 10.0689C12.5249 10.1689 13.3374 10.3158 14.0999 10.5096C14.8624 10.7033 15.4812 10.9252 15.9562 11.1752C16.3687 11.4127 16.6937 11.7064 16.9312 12.0564C17.1687 12.4064 17.2874 12.8002 17.2874 13.2377V15.0002H13.8374ZM6.7124 8.98145C5.8874 8.98145 5.2124 8.71895 4.6874 8.19395C4.1624 7.66895 3.8999 6.99395 3.8999 6.16895C3.8999 5.34395 4.1624 4.66895 4.6874 4.14395C5.2124 3.61895 5.8874 3.35645 6.7124 3.35645C7.5374 3.35645 8.2124 3.61895 8.7374 4.14395C9.2624 4.66895 9.5249 5.34395 9.5249 6.16895C9.5249 6.99395 9.2624 7.66895 8.7374 8.19395C8.2124 8.71895 7.5374 8.98145 6.7124 8.98145ZM13.4624 6.16895C13.4624 6.99395 13.1999 7.66895 12.6749 8.19395C12.1499 8.71895 11.4749 8.98145 10.6499 8.98145C10.5124 8.98145 10.3593 8.97207 10.1905 8.95332C10.0218 8.93457 9.86865 8.9002 9.73115 8.8502C10.0312 8.5377 10.2593 8.15332 10.4155 7.69707C10.5718 7.24082 10.6499 6.73145 10.6499 6.16895C10.6499 5.60645 10.5718 5.10957 10.4155 4.67832C10.2593 4.24707 10.0312 3.8502 9.73115 3.4877C9.86865 3.4502 10.0218 3.41895 10.1905 3.39395C10.3593 3.36895 10.5124 3.35645 10.6499 3.35645C11.4749 3.35645 12.1499 3.61895 12.6749 4.14395C13.1999 4.66895 13.4624 5.34395 13.4624 6.16895Z" fill="white"/>
</svg>
