<svg width="56" height="48" viewBox="0 0 56 48" fill="none" xmlns="http://www.w3.org/2000/svg">
<g clip-path="url(#clip0_920_939)">
<rect y="4" width="50" height="35" rx="4" fill="#2F2F2F"/>
<rect x="8" y="16" width="14.2188" height="10.1562" rx="1" fill="#DFDFDF"/>
<path fill-rule="evenodd" clip-rule="evenodd" d="M11.5547 23.1103V26.1562H12.5703V16H11.5547V18.54H8V19.5556H11.5547V22.0947H8V23.1103H11.5547ZM16.6324 16V20.5705H22.2189V21.5861H16.6324V26.1562H15.6167V16H16.6324Z" fill="#C9C9C9"/>
<rect x="34" y="26" width="22" height="22" rx="11" fill="#00B400"/>
<path fill-rule="evenodd" clip-rule="evenodd" d="M51.5657 32.2772C52.0778 32.6999 52.147 33.4538 51.7202 33.9611L44.4789 42.5698C44.2654 42.8235 43.9555 42.9785 43.6227 42.9979C43.2898 43.0174 42.9637 42.8995 42.7217 42.6723L38.3769 38.5945C37.893 38.1404 37.8723 37.3836 38.3307 36.9043C38.7892 36.4249 39.553 36.4044 40.0369 36.8586L43.448 40.06L49.8659 32.4302C50.2926 31.923 51.0537 31.8544 51.5657 32.2772Z" fill="white"/>
</g>
<defs>
<clipPath id="clip0_920_939">
<rect width="56" height="48" fill="white"/>
</clipPath>
</defs>
</svg>
