<svg width="56" height="48" viewBox="0 0 56 48" fill="none" xmlns="http://www.w3.org/2000/svg">
<g clip-path="url(#clip0_1515_23228)">
<rect y="4" width="50" height="35" rx="4" fill="#2F2F2F"/>
<rect x="8" y="16" width="14.2188" height="10.1562" rx="1" fill="#DFDFDF"/>
<path fill-rule="evenodd" clip-rule="evenodd" d="M11.5547 23.1105V26.1565H12.5703V16.0002H11.5547V18.5402H8V19.5558H11.5547V22.0949H8V23.1105H11.5547ZM16.6324 16.0002V20.5707H22.2189V21.5863H16.6324V26.1565H15.6167V16.0002H16.6324Z" fill="#C9C9C9"/>
<rect x="33.5996" y="25.6001" width="22.4" height="22.4" rx="11.2" fill="#F44432"/>
<path fill-rule="evenodd" clip-rule="evenodd" d="M50.0712 31.5282C50.5086 31.9656 50.5086 32.6748 50.0712 33.1122L41.1112 42.0722C40.6738 42.5095 39.9646 42.5095 39.5273 42.0722C39.0899 41.6348 39.0899 40.9256 39.5273 40.4882L48.4873 31.5282C48.9246 31.0908 49.6338 31.0908 50.0712 31.5282Z" fill="white"/>
<path fill-rule="evenodd" clip-rule="evenodd" d="M39.5273 31.5282C39.0899 31.9656 39.0899 32.6748 39.5273 33.1122L48.4873 42.0722C48.9246 42.5095 49.6338 42.5095 50.0712 42.0722C50.5086 41.6348 50.5086 40.9256 50.0712 40.4882L41.1112 31.5282C40.6738 31.0908 39.9646 31.0908 39.5273 31.5282Z" fill="white"/>
</g>
<defs>
<clipPath id="clip0_1515_23228">
<rect width="56" height="48" fill="white"/>
</clipPath>
</defs>
</svg>
