<svg width="32" height="20" viewBox="0 0 32 20" fill="none" xmlns="http://www.w3.org/2000/svg">
<path fill-rule="evenodd" clip-rule="evenodd" d="M0.964545 1.06497C0.426397 1.08406 0 1.52585 0 2.06434V14.8927C0 15.4312 0.426397 15.873 0.964544 15.8921L3 15.9643V19.9999L7.76798 16.1334L30.9645 16.9564C31.5304 16.9765 32 16.5232 32 15.957V1.00001C32 0.433828 31.5304 -0.0194322 30.9645 0.000641993L0.964545 1.06497Z" fill="#F44432"/>
<path d="M7.64078 4.6H5.21078V12H6.69078V9.37H7.68078C9.27078 9.37 10.5408 8.61 10.5408 6.92C10.5408 5.16 9.27078 4.6 7.64078 4.6ZM7.58078 8.2H6.69078V5.77H7.53078C8.56078 5.77 9.09078 6.05 9.09078 6.92C9.09078 7.77 8.59078 8.2 7.58078 8.2ZM13.3607 4.6H11.8807V12H13.3607V4.6ZM18.2015 12.14C19.1715 12.14 19.9515 11.78 20.5615 11.05L19.7815 10.13C19.3815 10.56 18.8915 10.86 18.2515 10.86C17.0815 10.86 16.3215 9.89 16.3215 8.28C16.3215 6.69 17.1615 5.73 18.2815 5.73C18.8415 5.73 19.2715 5.99 19.6415 6.35L20.4215 5.41C19.9415 4.9 19.2115 4.46 18.2515 4.46C16.3815 4.46 14.8115 5.89 14.8115 8.33C14.8115 10.8 16.3215 12.14 18.2015 12.14ZM23.2338 4.6H21.7538V12H23.2338V9.92L24.2038 8.68L26.1138 12H27.7438L25.0838 7.51L27.3438 4.6H25.7138L23.2638 7.81H23.2338V4.6Z" fill="white"/>
</svg>
