<svg width="36" height="36" viewBox="0 0 36 36" fill="none" xmlns="http://www.w3.org/2000/svg">
<path d="M27.05 24.9L32.7 19.2C33.7667 18.1333 34.5833 16.9167 35.15 15.55C35.7167 14.1833 36 12.75 36 11.25C36 8.11667 34.9083 5.45833 32.725 3.275C30.5417 1.09167 27.8833 0 24.75 0C23.25 0 21.8167 0.283333 20.45 0.85C19.0833 1.41667 17.8667 2.23333 16.8 3.3L11.1 8.95L27.05 24.9ZM11.25 36C12.75 36 14.1833 35.7167 15.55 35.15C16.9167 34.5833 18.1333 33.7667 19.2 32.7L24.9 27.05L8.95 11.1L3.3 16.8C2.23333 17.8667 1.41667 19.0833 0.85 20.45C0.283333 21.8167 0 23.25 0 24.75C0 27.8833 1.09167 30.5417 3.275 32.725C5.45833 34.9083 8.11667 36 11.25 36Z" fill="white"/>
</svg>
