<svg width="26" height="28" viewBox="0 0 26 28" fill="none" xmlns="http://www.w3.org/2000/svg">
<g clip-path="url(#clip0_1212_21074)">
<path d="M11.4605 8.99992H23.5475C24.9055 8.99992 26 10.0305 26 11.2926V19.4478C26 20.7173 24.8976 21.7405 23.5475 21.7405H22.8365V25.4895C22.8365 25.9674 22.1894 26.184 21.8618 25.8106L18.3708 21.7405H11.4525C10.0945 21.7405 9 20.7099 9 19.4478V11.2926C9 10.0231 10.1024 8.99992 11.4525 8.99992H11.4605Z" fill="#2F2F2F"/>
<path d="M23 15.9999H13V16.9999H23V15.9999Z" fill="white"/>
<path d="M13 13.9999L23 13.9999V12.9999L13 12.9999V13.9999Z" fill="white"/>
<path d="M14.5395 2.99992H2.45254C1.10244 2.99992 0 4.03052 0 5.29263V13.4478C0 14.7173 1.10244 15.7405 2.45254 15.7405H3.16353V19.4895C3.16353 19.9674 3.81062 20.184 4.13816 19.8106L7.62923 15.7405H14.5475C15.9055 15.7405 17 14.7099 17 13.4478V5.29263C17 4.02305 15.8976 2.99992 14.5475 2.99992H14.5395Z" fill="#00B400"/>
<path d="M14 6.99992H3V7.99992H14V6.99992Z" fill="white"/>
<path d="M14 9.99992H3V10.9999H14V9.99992Z" fill="white"/>
</g>
<defs>
<clipPath id="clip0_1212_21074">
<rect width="26" height="28" fill="white"/>
</clipPath>
</defs>
</svg>
