<svg width="32" height="32" viewBox="0 0 32 32" fill="none" xmlns="http://www.w3.org/2000/svg">
<path fill-rule="evenodd" clip-rule="evenodd" d="M0.964545 7.06497C0.426397 7.08406 0 7.52585 0 8.06434V20.8927C0 21.4312 0.426397 21.873 0.964544 21.8921L3 21.9643V25.9999L7.76798 22.1334L30.9645 22.9564C31.5304 22.9765 32 22.5232 32 21.957V7.00001C32 6.43383 31.5304 5.98057 30.9645 6.00064L0.964545 7.06497Z" fill="#00B400"/>
<path d="M6.64863 11.83V10.6H12.3086V11.83H10.2086V18H8.72863V11.83H6.64863ZM16.1361 18.14C14.1761 18.14 12.8261 16.67 12.8261 14.27C12.8261 11.86 14.1761 10.46 16.1361 10.46C18.0961 10.46 19.4461 11.87 19.4461 14.27C19.4461 16.67 18.0961 18.14 16.1361 18.14ZM16.1361 16.86C17.2361 16.86 17.9361 15.84 17.9361 14.27C17.9361 12.66 17.2661 11.73 16.1361 11.73C15.0061 11.73 14.3361 12.66 14.3361 14.27C14.3361 15.84 15.0361 16.86 16.1361 16.86ZM23.3214 10.6C24.9514 10.6 26.2214 11.16 26.2214 12.92C26.2214 14.61 24.9514 15.37 23.3614 15.37H22.3714V18H20.8914V10.6H23.3214ZM23.2614 14.2C24.2714 14.2 24.7714 13.77 24.7714 12.92C24.7714 12.05 24.2414 11.77 23.2114 11.77H22.3714V14.2H23.2614Z" fill="white"/>
</svg>
