<svg width="32" height="32" viewBox="0 0 32 32" fill="none" xmlns="http://www.w3.org/2000/svg">
<g clip-path="url(#clip0_901_2138)">
<path d="M0 10.7893V29.8973H22.6182V1.99988H8.96822L0 10.7893Z" fill="#C9C9C9"/>
<path d="M8.94136 10.7893V1.99988L0 10.7893H8.94136Z" fill="#DFDFDF"/>
<path d="M31.518 24.74L27.6162 20.6847C28.6857 19.0968 29.3203 17.1547 29.3203 15.066C29.3203 9.66706 25.1129 5.28198 19.9065 5.28198C14.7001 5.28198 10.4927 9.65485 10.4927 15.066C10.4927 20.4771 14.7001 24.8499 19.9065 24.8499C21.8809 24.8499 23.7026 24.2148 25.2187 23.1399L29.1323 27.2074C29.4613 27.5494 29.8962 27.7204 30.3193 27.7204C30.7424 27.7204 31.1772 27.5494 31.5063 27.2074C32.1644 26.5234 32.1644 25.424 31.5063 24.74H31.518ZM19.9182 21.7596C16.369 21.7596 13.4896 18.767 13.4896 15.0782C13.4896 11.3893 16.369 8.39673 19.9182 8.39673C23.4675 8.39673 26.3469 11.3893 26.3469 15.0782C26.3469 18.767 23.4675 21.7596 19.9182 21.7596V21.7596Z" fill="#DFDFDF"/>
<path d="M20 21.9998C23.866 21.9998 27 18.8658 27 14.9998C27 11.1338 23.866 7.99976 20 7.99976C16.134 7.99976 13 11.1338 13 14.9998C13 18.8658 16.134 21.9998 20 21.9998Z" fill="white"/>
</g>
<defs>
<clipPath id="clip0_901_2138">
<rect width="32" height="32" fill="white"/>
</clipPath>
</defs>
</svg>
