<svg width="26" height="28" viewBox="0 0 26 28" fill="none" xmlns="http://www.w3.org/2000/svg">
<g clip-path="url(#clip0_1212_21083)">
<path d="M0 10.1413V25.6666H18.3773V2.99992H7.28667L0 10.1413Z" fill="#00B400"/>
<path d="M7.26485 10.1413V2.99992L0 10.1413H7.26485Z" fill="#2F2F2F"/>
<path d="M25.6085 21.4762L22.4382 18.1813C23.3072 16.8911 23.8228 15.3131 23.8228 13.6161C23.8228 9.22947 20.4043 5.6666 16.1741 5.6666C11.9439 5.6666 8.52539 9.21954 8.52539 13.6161C8.52539 18.0126 11.9439 21.5655 16.1741 21.5655C17.7783 21.5655 19.2584 21.0495 20.4902 20.1761L23.67 23.481C23.9374 23.7588 24.2907 23.8978 24.6345 23.8978C24.9782 23.8978 25.3316 23.7588 25.5989 23.481C26.1337 22.9252 26.1337 22.032 25.5989 21.4762H25.6085ZM16.1837 19.0547C13.2999 19.0547 10.9604 16.6232 10.9604 13.626C10.9604 10.6288 13.2999 8.19733 16.1837 8.19733C19.0674 8.19733 21.4069 10.6288 21.4069 13.626C21.4069 16.6232 19.0674 19.0547 16.1837 19.0547Z" fill="#2F2F2F"/>
<path d="M16.1837 19.0447C19.0685 19.0447 21.407 16.6142 21.407 13.6161C21.407 10.6179 19.0685 8.18739 16.1837 8.18739C13.299 8.18739 10.9604 10.6179 10.9604 13.6161C10.9604 16.6142 13.299 19.0447 16.1837 19.0447Z" fill="white"/>
</g>
<defs>
<clipPath id="clip0_1212_21083">
<rect width="26" height="28" fill="white"/>
</clipPath>
</defs>
</svg>
