<svg width="24" height="24" viewBox="0 0 24 24" fill="none" xmlns="http://www.w3.org/2000/svg">
<path d="M17.2467 4.97217L15.9592 6.25962C14.9556 7.26322 14.9556 8.89534 15.9592 9.89894C16.9628 10.9025 18.595 10.9025 19.5986 9.89894L20.886 8.61149L17.2467 4.97217Z" fill="#C9C9C9"/>
<path d="M23.2482 2.61012C22.2446 1.60652 20.6125 1.60652 19.6089 2.61012L18.3214 3.89757L21.9607 7.53689L23.2482 6.24945C24.2518 5.24584 24.2518 3.61372 23.2482 2.61012Z" fill="#C9C9C9"/>
<path d="M4.28812 20.3987V9.46045H0V20.3987" fill="#C9C9C9"/>
<path d="M22.0086 16.2217L15.2166 16.8401L11.6989 15.4411L12.2565 14.0321L15.4396 15.2992L18.1868 15.0458C18.197 14.6504 18.1361 14.2956 17.9537 13.9915C17.68 13.5049 17.2542 13.3123 17.0616 13.2515L10.675 10.342H5.80908V19.0805L14.8415 22.1724L23.6813 19.5671V18.9994C23.6813 17.8032 23.8739 16.0494 22.0188 16.242L22.0086 16.2217Z" fill="#C9C9C9"/>
</svg>
