<svg width="42" height="42" viewBox="0 0 42 42" fill="none" xmlns="http://www.w3.org/2000/svg">
<path d="M31.4923 18.8441C35.0027 15.3333 35.0027 9.64002 31.4923 6.13313C27.9819 2.62229 22.2894 2.62229 18.783 6.13313L12.458 12.459L25.1673 25.17L31.4923 18.8441Z" fill="#00B400"/>
<path d="M12.4578 12.4551L6.13278 18.7809C2.62241 22.2917 2.62241 27.985 6.13278 31.4919C9.64316 35.0027 15.3317 35.0027 18.8421 31.4919L25.1671 25.166L12.4578 12.4551Z" fill="white"/>
<path d="M38.0814 35.8653L34.0995 31.8554C35.191 30.2852 35.8386 28.3648 35.8386 26.2995C35.8386 20.961 31.5449 16.625 26.2318 16.625C20.9187 16.625 16.625 20.9489 16.625 26.2995C16.625 31.65 20.9187 35.974 26.2318 35.974C28.2467 35.974 30.1057 35.3459 31.6529 34.283L35.6467 38.305C35.9825 38.6432 36.4263 38.8123 36.8581 38.8123C37.2898 38.8123 37.7336 38.6432 38.0694 38.305C38.741 37.6286 38.741 36.5416 38.0694 35.8653H38.0814ZM26.2438 32.9182C22.6218 32.9182 19.6833 29.9591 19.6833 26.3116C19.6833 22.664 22.6218 19.7049 26.2438 19.7049C29.8658 19.7049 32.8042 22.664 32.8042 26.3116C32.8042 29.9591 29.8658 32.9182 26.2438 32.9182Z" fill="#2F2F2F"/>
<path d="M26.2436 32.9061C29.8668 32.9061 32.804 29.9482 32.804 26.2994C32.804 22.6507 29.8668 19.6928 26.2436 19.6928C22.6203 19.6928 19.6831 22.6507 19.6831 26.2994C19.6831 29.9482 22.6203 32.9061 26.2436 32.9061Z" fill="white"/>
</svg>
