<svg width="28" height="28" viewBox="0 0 28 28" fill="none" xmlns="http://www.w3.org/2000/svg">
<circle cx="14" cy="14" r="14" fill="#C9C9C9"/>
<g clip-path="url(#clip0_2014_25595)">
<g clip-path="url(#clip1_2014_25595)">
<path fill-rule="evenodd" clip-rule="evenodd" d="M6 13.0236C6 9.6968 9.58162 7 14 7C18.4184 7 22 9.6972 22 13.0236C22 16.35 18.4184 19.0472 14 19.0472C13.4923 19.0472 12.9962 19.0113 12.515 18.9434C11.6286 19.5177 9.57375 20.8479 9.43615 20.9352C9.26084 21.0469 8.99311 21.0524 9.10128 20.6379C9.18914 20.304 9.62762 18.7436 9.79506 18.1484C7.51769 17.0866 6 15.1891 6 13.0236ZM9.94799 14.9384C10.0205 14.8694 10.0624 14.7742 10.0624 14.6767H10.0628V12.0076H10.781C11.0011 12.0076 11.1793 11.8378 11.1793 11.6286C11.1793 11.4194 11.0011 11.2497 10.781 11.2497H8.44149C8.22183 11.2497 8.04362 11.4194 8.04362 11.6286C8.04362 11.8378 8.22142 12.0076 8.44149 12.0076H9.20199V14.6767C9.20199 14.7738 9.24343 14.8694 9.31638 14.9384C9.38766 15.0071 9.48754 15.0466 9.58991 15.0466H9.67487C9.77682 15.0466 9.87629 15.0067 9.94799 14.9384ZM13.3991 14.8015C13.4699 14.9933 13.6908 15.0943 13.8922 15.0268C14.0937 14.9594 14.1998 14.7494 14.1289 14.5571L12.9631 11.5193C12.9631 11.5193 12.9606 11.5165 12.9593 11.5157C12.8847 11.331 12.6696 11.196 12.4131 11.196C12.1284 11.196 11.893 11.3618 11.8461 11.5785L11.8459 11.5789C11.8381 11.5945 11.8299 11.611 11.8238 11.6282L10.6774 14.5571C10.6065 14.7494 10.7126 14.9594 10.9136 15.0268C11.1151 15.0943 11.336 14.9933 11.4068 14.8015L11.6053 14.2623H13.201L13.3991 14.8015ZM14.8131 15.0217H16.4029C16.6027 15.0217 16.7639 14.867 16.7639 14.6775C16.7639 14.488 16.6031 14.3337 16.4029 14.3337H15.315V11.6077C15.315 11.3803 15.1219 11.1964 14.8836 11.1964C14.6453 11.1964 14.4522 11.3803 14.4522 11.6077V14.5461C14.4522 14.569 14.4551 14.5903 14.4588 14.612C14.4546 14.6333 14.4522 14.6554 14.4522 14.6775C14.4522 14.8678 14.613 15.0217 14.8131 15.0217ZM19.2622 14.9005C19.3898 15.0628 19.6323 15.0959 19.8026 14.9736C19.973 14.8516 20.0074 14.6207 19.8793 14.4584L18.667 12.9419L19.7624 11.8982C19.9108 11.7573 19.9108 11.528 19.7624 11.3866C19.6145 11.2453 19.3737 11.2453 19.2249 11.3866L17.8688 12.6782V11.6073C17.8688 11.3799 17.6761 11.196 17.4374 11.196C17.1987 11.196 17.0055 11.3799 17.0055 11.6073V14.6361C17.0055 14.8638 17.1991 15.0474 17.4374 15.0474C17.6757 15.0474 17.8688 14.8634 17.8688 14.6361V13.7017L18.1154 13.4673L19.2622 14.9005ZM11.8582 13.5739L12.3944 12.1165C12.3974 12.1165 12.4003 12.1169 12.403 12.1173C12.4058 12.1177 12.4086 12.1181 12.4114 12.1181L12.9473 13.5739H11.8582ZM12.394 12.1165H12.3944C12.3943 12.1165 12.3942 12.1165 12.394 12.1165Z" fill="white"/>
</g>
</g>
<defs>
<clipPath id="clip0_2014_25595">
<rect width="16" height="16" fill="white" transform="translate(6 6)"/>
</clipPath>
<clipPath id="clip1_2014_25595">
<rect width="16" height="14" fill="white" transform="translate(6 7)"/>
</clipPath>
</defs>
</svg>
