<svg width="28" height="28" viewBox="0 0 28 28" fill="none" xmlns="http://www.w3.org/2000/svg">
<circle cx="14" cy="14" r="14" fill="#C9C9C9"/>
<g clip-path="url(#clip0_2014_25603)">
<path fill-rule="evenodd" clip-rule="evenodd" d="M19.8594 8H8.14057C6.9584 8 6 8.94447 6 10.1095V16.9636C6 18.1286 6.9584 19.0731 8.14057 19.0731H12.2793L13.6875 20.7171C13.6875 20.7171 13.7847 21 14.0186 21C14.2526 21 14.3498 20.7171 14.3498 20.7171L15.758 19.0731H19.8594C21.0416 19.0731 22 18.1286 22 16.9636V10.1095C22 8.94447 21.0416 8 19.8594 8ZM11.0259 14.0589C11.0191 15.3119 9.70474 15.3475 9.70474 15.3475C9.19616 15.3475 8.90909 15.0156 8.90909 15.0156V15.2417H7.95183V11.3502C8.01173 11.3591 8.90909 11.348 8.90909 11.348V12.836C9.134 12.4573 9.78498 12.464 9.78498 12.464C11.2022 12.5943 11.0248 14.0589 11.0248 14.0589H11.0259ZM7.95183 11.348C7.94731 11.3491 7.95183 11.3502 7.95183 11.3502V11.348ZM12.711 12.5843V15.2484H11.7741V12.611C11.7741 12.2524 11.322 12.1521 11.322 12.1521V11.2221C12.8184 11.2823 12.711 12.5843 12.711 12.5843ZM14.9318 15.3497C14.0639 15.3497 13.3609 14.7116 13.3609 13.9252C13.3609 13.1389 14.0639 12.5007 14.9318 12.5007C15.7998 12.5007 16.5028 13.1389 16.5028 13.9252C16.5028 14.7116 15.7998 15.3497 14.9318 15.3497ZM20.0651 15.3497C20.0651 15.3497 20.0787 16.703 18.6829 16.703H18.258V15.8264H18.5145C18.5145 15.8264 19.1011 15.8799 19.0943 14.9889C19.0943 14.9889 18.9801 15.3497 18.1574 15.3497C18.1574 15.3497 16.991 15.2673 16.991 14.1458V13.7203C16.991 13.7203 17.0182 12.5575 18.2986 12.4651C18.2986 12.4651 18.8038 12.4116 19.1146 12.8237V12.5386H20.0651V15.3497ZM14.3396 13.9239C14.3396 13.6009 14.6052 13.3392 14.9329 13.3392C15.2607 13.3392 15.5263 13.6009 15.5263 13.9239C15.5263 14.2469 15.2607 14.5086 14.9329 14.5086C14.6052 14.5086 14.3396 14.2469 14.3396 13.9239ZM8.94067 13.9387C8.94067 13.6391 9.18705 13.3963 9.49107 13.3963C9.79622 13.3963 10.0426 13.638 10.0426 13.9387C10.0426 14.2394 9.79509 14.4822 9.49107 14.4822C9.18705 14.4822 8.94067 14.2383 8.94067 13.9387ZM17.9968 13.924C17.9968 13.6088 18.2568 13.3527 18.5766 13.3527C18.8965 13.3527 19.1564 13.6088 19.1564 13.924C19.1564 14.2392 18.8965 14.4954 18.5766 14.4954C18.2568 14.4954 17.9968 14.2392 17.9968 13.924Z" fill="white"/>
</g>
<defs>
<clipPath id="clip0_2014_25603">
<rect width="16" height="16" fill="white" transform="translate(6 6)"/>
</clipPath>
</defs>
</svg>
