<svg width="28" height="28" viewBox="0 0 28 28" fill="none" xmlns="http://www.w3.org/2000/svg">
<circle cx="14" cy="14" r="14" fill="#C9C9C9"/>
<g clip-path="url(#clip0_2014_25589)">
<path d="M17.3812 6H10.6177C8.06755 6 6 8.06755 6 10.6177V17.3812C6 19.9313 8.06755 21.9989 10.6177 21.9989H17.3812C19.9313 21.9989 21.9989 19.9313 21.9989 17.3812V10.6177C22 8.06755 19.9325 6 17.3812 6ZM20.5261 17.5001C20.5261 19.1927 19.1541 20.5657 17.4605 20.5657H10.5384C8.84585 20.5657 7.47277 19.1938 7.47277 17.5001V10.5781C7.47277 8.88551 8.84472 7.51243 10.5384 7.51243H17.4605C19.153 7.51243 20.5261 8.88437 20.5261 10.5781V17.5001Z" fill="white"/>
<path d="M13.9995 9.88818C11.7065 9.88818 9.84851 11.7473 9.84851 14.0391C9.84851 16.331 11.7076 18.1901 13.9995 18.1901C16.2913 18.1901 18.1504 16.331 18.1504 14.0391C18.1504 11.7473 16.2913 9.88818 13.9995 9.88818ZM13.9995 16.7309C12.5131 16.7309 11.3088 15.5255 11.3088 14.0403C11.3088 12.555 12.5142 11.3496 13.9995 11.3496C15.4847 11.3496 16.6901 12.555 16.6901 14.0403C16.6901 15.5255 15.4847 16.7309 13.9995 16.7309Z" fill="white"/>
<path d="M18.2898 10.6982C18.8241 10.6982 19.2573 10.265 19.2573 9.73068C19.2573 9.19635 18.8241 8.76318 18.2898 8.76318C17.7554 8.76318 17.3223 9.19635 17.3223 9.73068C17.3223 10.265 17.7554 10.6982 18.2898 10.6982Z" fill="white"/>
</g>
<defs>
<clipPath id="clip0_2014_25589">
<rect width="16" height="16" fill="white" transform="translate(6 6)"/>
</clipPath>
</defs>
</svg>
