<svg width="20" height="20" viewBox="0 0 20 20" fill="none" xmlns="http://www.w3.org/2000/svg">
<path d="M9.176 2.12915C9.54971 1.51253 10.45 1.51253 10.8237 2.12915L12.9547 5.64541C13.089 5.86693 13.3079 6.02492 13.5616 6.08326L17.5879 7.00922C18.2939 7.1716 18.5721 8.0218 18.097 8.56527L15.3878 11.6644C15.2171 11.8596 15.1335 12.1153 15.156 12.3728L15.5133 16.4614C15.576 17.1784 14.8477 17.7038 14.1803 17.4231L10.3749 15.8222C10.1352 15.7213 9.8645 15.7213 9.62476 15.8222L5.81933 17.4231C5.15201 17.7038 4.42368 17.1784 4.48634 16.4614L4.84368 12.3728C4.86619 12.1153 4.78254 11.8596 4.61187 11.6644L1.90265 8.56527C1.42756 8.0218 1.70575 7.1716 2.4118 7.00922L6.43808 6.08326C6.69173 6.02492 6.91071 5.86693 7.04496 5.64541L9.176 2.12915Z" fill="#FFD341"/>
</svg>
