<svg width="56" height="48" viewBox="0 0 56 48" fill="none" xmlns="http://www.w3.org/2000/svg">
<g clip-path="url(#clip0_954_15424)">
<path d="M0 39.6219C0 41.1295 1.30803 42.3531 2.91984 42.3531H39.0801C40.6919 42.3531 42 41.1295 42 39.6219V13.412H0V39.6219Z" fill="#DFDFDF"/>
<path d="M39.0768 2.11755H2.91959C1.30792 2.11755 0 3.35258 0 4.87444V13.4117H42V4.87444C42 3.35258 40.692 2.11755 39.0804 2.11755H39.0768Z" fill="#00B400"/>
<path d="M13.1368 6.04835C13.1368 7.33341 12.1029 8.37625 10.8288 8.37625C9.5547 8.37625 8.52075 7.33341 8.52075 6.04835C8.52075 4.7633 9.5547 3.72046 10.8288 3.72046C12.1029 3.72046 13.1368 4.7633 13.1368 6.04835Z" fill="#F5F5F5"/>
<path d="M33.4789 6.04835C33.4789 7.33341 32.445 8.37625 31.1709 8.37625C29.8968 8.37625 28.8629 7.33341 28.8629 6.04835C28.8629 4.7633 29.8968 3.72046 31.1709 3.72046C32.445 3.72046 33.4789 4.7633 33.4789 6.04835Z" fill="#F5F5F5"/>
<path d="M10.8292 0C9.97188 0 9.27466 0.703078 9.27466 1.56763V5.86684C9.27466 6.73139 9.97188 7.43447 10.8292 7.43447C11.6866 7.43447 12.3838 6.73139 12.3838 5.86684V1.56763C12.3838 0.703078 11.6866 0 10.8292 0Z" fill="#2F2F2F"/>
<path d="M31.1711 0C30.3138 0 29.6166 0.703078 29.6166 1.56763V5.86684C29.6166 6.73139 30.3138 7.43447 31.1711 7.43447C32.0285 7.43447 32.7257 6.73139 32.7257 5.86684V1.56763C32.7257 0.703078 32.0285 0 31.1711 0Z" fill="#2F2F2F"/>
<rect x="33.6" y="25.6001" width="22.4" height="22.4" rx="11.2" fill="#00B400"/>
<path fill-rule="evenodd" clip-rule="evenodd" d="M51.3657 31.4824C51.8777 31.9128 51.9469 32.6805 51.5202 33.197L44.2789 41.9621C44.0654 42.2205 43.7555 42.3783 43.4227 42.3981C43.0898 42.4179 42.7637 42.2979 42.5217 42.0666L38.1768 37.9146C37.693 37.4522 37.6723 36.6817 38.1307 36.1936C38.5892 35.7055 39.353 35.6847 39.8369 36.1471L43.248 39.4067L49.6659 31.6383C50.0926 31.1218 50.8536 31.052 51.3657 31.4824Z" fill="white"/>
</g>
<defs>
<clipPath id="clip0_954_15424">
<rect width="56" height="48" fill="white"/>
</clipPath>
</defs>
</svg>
