<svg width="32" height="32" viewBox="0 0 32 32" fill="none" xmlns="http://www.w3.org/2000/svg">
<g clip-path="url(#clip0_1067_16526)">
<path d="M15.0455 6.77273V2H16.9545V6.77273H15.0455ZM23.1909 10.1455L21.8545 8.80909L25.2273 5.40455L26.5636 6.77273L23.1909 10.1455ZM25.2273 16.9545V15.0455H30V16.9545H25.2273ZM15.0455 30V25.2273H16.9545V30H15.0455ZM8.77727 10.1136L5.43636 6.77273L6.77273 5.43636L10.1455 8.80909L8.77727 10.1136ZM25.2591 26.5636L21.8545 23.1909L23.1591 21.8864L26.5955 25.1955L25.2591 26.5636ZM2 16.9545V15.0455H6.77273V16.9545H2ZM6.80455 26.5636L5.43636 25.2273L8.77727 21.8864L9.47727 22.5227L10.1773 23.1909L6.80455 26.5636ZM16 23.6364C13.8788 23.6364 12.0758 22.8939 10.5909 21.4091C9.10606 19.9242 8.36364 18.1212 8.36364 16C8.36364 13.8788 9.10606 12.0758 10.5909 10.5909C12.0758 9.10606 13.8788 8.36364 16 8.36364C18.1212 8.36364 19.9242 9.10606 21.4091 10.5909C22.8939 12.0758 23.6364 13.8788 23.6364 16C23.6364 18.1212 22.8939 19.9242 21.4091 21.4091C19.9242 22.8939 18.1212 23.6364 16 23.6364ZM16 21.7273C17.5909 21.7273 18.9432 21.1705 20.0568 20.0568C21.1705 18.9432 21.7273 17.5909 21.7273 16C21.7273 14.4091 21.1705 13.0568 20.0568 11.9432C18.9432 10.8295 17.5909 10.2727 16 10.2727C14.4091 10.2727 13.0568 10.8295 11.9432 11.9432C10.8295 13.0568 10.2727 14.4091 10.2727 16C10.2727 17.5909 10.8295 18.9432 11.9432 20.0568C13.0568 21.1705 14.4091 21.7273 16 21.7273ZM16 21.7273C14.4091 21.7273 13.0568 21.1705 11.9432 20.0568C10.8295 18.9432 10.2727 17.5909 10.2727 16C10.2727 14.4091 10.8295 13.0568 11.9432 11.9432C13.0568 10.8295 14.4091 10.2727 16 10.2727C17.5909 10.2727 18.9432 10.8295 20.0568 11.9432C21.1705 13.0568 21.7273 14.4091 21.7273 16C21.7273 17.5909 21.1705 18.9432 20.0568 20.0568C18.9432 21.1705 17.5909 21.7273 16 21.7273Z" fill="#F44432"/>
</g>
<defs>
<clipPath id="clip0_1067_16526">
<rect width="32" height="32" fill="white"/>
</clipPath>
</defs>
</svg>
