<svg width="12" height="12" viewBox="0 0 12 12" fill="none" xmlns="http://www.w3.org/2000/svg">
<g clip-path="url(#clip0_1067_16596)">
<g clip-path="url(#clip1_1067_16596)">
<path d="M5.64205 2.53977V0.75H6.35795V2.53977H5.64205ZM8.69659 3.80455L8.19545 3.30341L9.46023 2.0267L9.96136 2.53977L8.69659 3.80455ZM9.46023 6.35795V5.64205H11.25V6.35795H9.46023ZM5.64205 11.25V9.46023H6.35795V11.25H5.64205ZM3.29148 3.79261L2.03864 2.53977L2.53977 2.03864L3.80455 3.30341L3.29148 3.79261ZM9.47216 9.96136L8.19545 8.69659L8.68466 8.20739L9.9733 9.4483L9.47216 9.96136ZM0.75 6.35795V5.64205H2.53977V6.35795H0.75ZM2.5517 9.96136L2.03864 9.46023L3.29148 8.20739L3.55398 8.44602L3.81648 8.69659L2.5517 9.96136ZM6 8.86364C5.20455 8.86364 4.52841 8.58523 3.97159 8.02841C3.41477 7.47159 3.13636 6.79545 3.13636 6C3.13636 5.20455 3.41477 4.52841 3.97159 3.97159C4.52841 3.41477 5.20455 3.13636 6 3.13636C6.79545 3.13636 7.47159 3.41477 8.02841 3.97159C8.58523 4.52841 8.86364 5.20455 8.86364 6C8.86364 6.79545 8.58523 7.47159 8.02841 8.02841C7.47159 8.58523 6.79545 8.86364 6 8.86364ZM6 8.14773C6.59659 8.14773 7.10369 7.93892 7.52131 7.52131C7.93892 7.10369 8.14773 6.59659 8.14773 6C8.14773 5.40341 7.93892 4.89631 7.52131 4.47869C7.10369 4.06108 6.59659 3.85227 6 3.85227C5.40341 3.85227 4.89631 4.06108 4.47869 4.47869C4.06108 4.89631 3.85227 5.40341 3.85227 6C3.85227 6.59659 4.06108 7.10369 4.47869 7.52131C4.89631 7.93892 5.40341 8.14773 6 8.14773ZM6 8.14773C5.40341 8.14773 4.89631 7.93892 4.47869 7.52131C4.06108 7.10369 3.85227 6.59659 3.85227 6C3.85227 5.40341 4.06108 4.89631 4.47869 4.47869C4.89631 4.06108 5.40341 3.85227 6 3.85227C6.59659 3.85227 7.10369 4.06108 7.52131 4.47869C7.93892 4.89631 8.14773 5.40341 8.14773 6C8.14773 6.59659 7.93892 7.10369 7.52131 7.52131C7.10369 7.93892 6.59659 8.14773 6 8.14773Z" fill="#F44432"/>
</g>
</g>
<defs>
<clipPath id="clip0_1067_16596">
<rect width="12" height="12" fill="white"/>
</clipPath>
<clipPath id="clip1_1067_16596">
<rect width="12" height="12" fill="white"/>
</clipPath>
</defs>
</svg>
