<svg width="24" height="24" viewBox="0 0 24 24" fill="none" xmlns="http://www.w3.org/2000/svg">
<path d="M6.5 4.8V8.4H17.5V4.8H19.3398C19.8421 4.8 20.25 5.2005 20.25 5.6937V20.1063C20.2498 20.3433 20.1538 20.5704 19.9831 20.738C19.8125 20.9055 19.5811 20.9998 19.3398 21H4.66025C4.41891 20.9998 4.18753 20.9055 4.01687 20.738C3.84622 20.5704 3.75024 20.3433 3.75 20.1063V5.6937C3.75 5.2005 4.15792 4.8 4.66025 4.8H6.5ZM9.25 16.5H7.41667V18.3H9.25V16.5ZM9.25 13.8H7.41667V15.6H9.25V13.8ZM9.25 11.1H7.41667V12.9H9.25V11.1ZM15.6667 3V6.6H8.33333V3H15.6667Z" fill="#00B400"/>
</svg>
