<svg width="20" height="20" viewBox="0 0 20 20" fill="none" xmlns="http://www.w3.org/2000/svg">
<path d="M5.41667 4V7H14.5833V4H16.1165C16.5351 4 16.875 4.33375 16.875 4.74475V16.7553C16.8748 16.9527 16.7948 17.142 16.6526 17.2816C16.5104 17.4213 16.3176 17.4998 16.1165 17.5H3.88354C3.68243 17.4998 3.48961 17.4213 3.3474 17.2816C3.20518 17.142 3.1252 16.9527 3.125 16.7553V4.74475C3.125 4.33375 3.46493 4 3.88354 4H5.41667ZM7.70833 13.75H6.18056V15.25H7.70833V13.75ZM7.70833 11.5H6.18056V13H7.70833V11.5ZM7.70833 9.25H6.18056V10.75H7.70833V9.25ZM13.0556 2.5V5.5H6.94444V2.5H13.0556Z" fill="white"/>
</svg>
