<svg width="31" height="36" viewBox="0 0 31 36" fill="none" xmlns="http://www.w3.org/2000/svg">
<path d="M0.593772 15.8138C1.38547 15.066 2.66861 15.066 3.4603 15.8138C2.66861 15.0647 2.66861 13.8517 3.4603 13.1039C4.252 12.3561 5.53379 12.3561 6.32549 13.1039H6.32683C5.53514 12.3561 5.53514 11.1431 6.32683 10.394C7.11853 9.64498 8.40301 9.64498 9.19471 10.394L2.65514 4.21245C1.6359 3.24865 1.6359 1.68664 2.65514 0.722846C3.67438 -0.240949 5.32779 -0.240949 6.34703 0.722846L16.7939 10.5973V6.21162C16.7939 4.96405 17.8643 3.95296 19.1838 3.95296C20.3269 3.95296 21.3112 4.71863 21.5293 5.78085L24.6476 20.9191L15.6144 29.4577L10.2341 27.6388L0.593772 18.5236C-0.197924 17.7746 -0.197924 16.5615 0.593772 15.8138Z" fill="#FFC0B5"/>
<path d="M15.6144 29.4569L24.6475 20.9182L25.8054 19.8228L30.9999 24.7325L19.0801 36.0002L13.8869 31.0905L15.6144 29.4569Z" fill="#2F2F2F"/>
</svg>
