<svg width="32" height="32" viewBox="0 0 32 32" fill="none" xmlns="http://www.w3.org/2000/svg">
<path fill-rule="evenodd" clip-rule="evenodd" d="M16.7014 7.3387L16.0003 6.64941L15.2992 7.3387L15.2751 7.36237L15.2511 7.38596L15.2272 7.40949L15.2033 7.43295L15.1795 7.45634L15.1558 7.47966L15.1322 7.50291L15.1086 7.5261L15.0851 7.54921L15.0616 7.57226L15.0383 7.59523L15.015 7.61814L14.9917 7.64098L14.9686 7.66376L14.9455 7.68646L14.9225 7.7091L14.8995 7.73167L14.8766 7.75417L14.8538 7.7766L14.8311 7.79896L14.8084 7.82126L14.7858 7.84349L14.7632 7.86565L14.7408 7.88775L14.7183 7.90977L14.696 7.93173L14.6737 7.95363L14.6515 7.97545L14.6294 7.99721L14.6074 8.0189L14.5854 8.04053L14.5634 8.06209L14.5416 8.08358L14.5198 8.10501L14.498 8.12637L14.4764 8.14766L14.4548 8.16889L14.4333 8.19005L14.4118 8.21114L14.3904 8.23217L14.3691 8.25314L14.3479 8.27403L14.3267 8.29487L14.3055 8.31563L14.2845 8.33633L14.2635 8.35697L14.2426 8.37754L14.2217 8.39805L14.2009 8.41849L14.1802 8.43886L14.1595 8.45917L14.139 8.47942L14.1184 8.4996L14.098 8.51971L14.0776 8.53976L14.0572 8.55975L14.037 8.57967L14.0168 8.59953L13.9967 8.61933L13.9766 8.63906L13.9566 8.65872L13.9366 8.67832L13.9168 8.69786L13.897 8.71734L13.8772 8.73675L13.8575 8.75609L13.8379 8.77538L13.8184 8.7946L13.7989 8.81376L13.7795 8.83285L13.7601 8.85188L13.7408 8.87085L13.7216 8.88975L13.7024 8.9086L13.6833 8.92737L13.6643 8.94609L13.6453 8.96475L13.6264 8.98334L13.6076 9.00187L13.5888 9.02033L13.5701 9.03874L13.5514 9.05708L13.5328 9.07536L13.5143 9.09358L13.4958 9.11174L13.4774 9.12983L13.4591 9.14786L13.4408 9.16584L13.4226 9.18375L13.4044 9.2016L13.3863 9.21938L13.3683 9.23711L13.3503 9.25478L13.3324 9.27238L13.3146 9.28992L13.2968 9.3074L13.2791 9.32483L13.2614 9.34219L13.2438 9.35949L13.2263 9.37673L13.2088 9.39391L13.1914 9.41103L13.1741 9.42809L13.1568 9.44509L13.1395 9.46202L13.1224 9.4789L13.1053 9.49572L13.0882 9.51248L13.0712 9.52918L13.0543 9.54582L13.0374 9.5624L13.0206 9.57892L13.0039 9.59539L12.9872 9.61179L12.9706 9.62813L12.954 9.64442L12.9375 9.66064L12.9211 9.67681L12.9047 9.69292L12.8884 9.70897L12.8721 9.72496L12.8559 9.74089L12.8398 9.75676L12.8237 9.77258L12.8076 9.78833L12.7917 9.80403L12.7758 9.81967L12.7599 9.83526L12.7441 9.85078L12.7284 9.86625L12.7127 9.88166L12.6971 9.89701L12.6815 9.91231L12.666 9.92754L12.6506 9.94272L12.6352 9.95785L12.6199 9.97291L12.6046 9.98792L12.5894 10.0029L12.5743 10.0178L12.5592 10.0326L12.5442 10.0474L12.5292 10.0621L12.5143 10.0768L12.4994 10.0914L12.4846 10.1059L12.4698 10.1204L12.4552 10.1349L12.4405 10.1493L12.4259 10.1636L12.4114 10.1779L12.397 10.1921L12.3826 10.2063L12.3682 10.2204L12.3539 10.2344L12.3397 10.2484L12.3255 10.2624L12.3114 10.2762L12.2973 10.2901L12.2833 10.3039L12.2693 10.3176L12.2554 10.3312L12.2416 10.3449L12.2278 10.3584L12.2141 10.3719L12.2004 10.3854L12.1868 10.3988L12.1732 10.4121L12.1597 10.4254L12.1462 10.4386L12.1328 10.4518L12.1195 10.4649L12.1062 10.478L12.093 10.491L12.0798 10.504L12.0666 10.5169L12.0536 10.5297L12.0405 10.5425L12.0276 10.5553L12.0147 10.568L12.0018 10.5806L11.989 10.5932L11.9763 10.6057L11.9636 10.6182L11.9509 10.6306L11.9383 10.643L11.9258 10.6553L11.9133 10.6676L11.9009 10.6798L11.8885 10.692L11.8762 10.7041L11.8639 10.7162L11.8517 10.7282L11.8396 10.7401L11.8274 10.752L11.8154 10.7639L11.8034 10.7757L11.7914 10.7874L11.7795 10.7991L11.7677 10.8108L11.7559 10.8224L11.7441 10.8339L11.7325 10.8454L11.7208 10.8569L11.7092 10.8683L11.6977 10.8796L11.6862 10.8909L11.6748 10.9021L11.6634 10.9133L11.6521 10.9245L11.6408 10.9355L11.6296 10.9466L11.6184 10.9576L11.6073 10.9685L11.5962 10.9794L11.5852 10.9902L11.5742 11.001L11.5633 11.0118L11.5524 11.0224L11.5416 11.0331L11.5308 11.0437L11.5201 11.0542L11.5094 11.0647L11.4988 11.0751L11.4882 11.0855L11.4777 11.0959L11.4672 11.1062L11.4568 11.1164L11.4465 11.1266L11.4361 11.1368L11.4259 11.1469L11.4156 11.1569L11.4055 11.1669L11.3954 11.1769L11.3853 11.1868L11.3753 11.1966L11.3653 11.2064L11.3554 11.2162L11.3455 11.2259L11.3356 11.2356L11.3259 11.2452L11.3161 11.2547L11.3064 11.2643L11.2968 11.2737L11.2872 11.2832L11.2777 11.2925L11.2682 11.3019L11.2587 11.3112L11.2494 11.3204L11.24 11.3296L11.2307 11.3387L11.2214 11.3478L11.2122 11.3569L11.2031 11.3659L11.194 11.3748L11.1849 11.3838L11.1759 11.3926L11.1669 11.4014L11.158 11.4102L11.1491 11.4189L11.1403 11.4276L11.1315 11.4363L11.1228 11.4448L11.1141 11.4534L11.1054 11.4619L11.0968 11.4703L11.0883 11.4787L11.0798 11.4871L11.0713 11.4954L11.0629 11.5037L11.0546 11.5119L11.0462 11.5201L11.038 11.5282L11.0297 11.5363L11.0215 11.5444L11.0134 11.5524L11.0053 11.5603L10.9973 11.5683L10.9893 11.5761L10.9813 11.5839L10.9734 11.5917L10.9655 11.5995L10.9577 11.6072L10.9499 11.6148L10.9422 11.6224L10.9345 11.63L10.9268 11.6375L10.9192 11.645L10.9117 11.6524L10.9042 11.6598L10.8967 11.6671L10.8893 11.6744L10.8819 11.6817L10.8745 11.6889L10.8672 11.6961L10.86 11.7032L10.8528 11.7103L10.8456 11.7173L10.8385 11.7243L10.8314 11.7313L10.8244 11.7382L10.8174 11.7451L10.8104 11.7519L10.8035 11.7587L10.7967 11.7655L10.7898 11.7722L10.7831 11.7788L10.7763 11.7855L10.7696 11.792L10.763 11.7986L10.7564 11.8051L10.7498 11.8115L10.7433 11.818L10.7368 11.8243L10.7303 11.8307L10.7239 11.837L10.7176 11.8432L10.7113 11.8494L10.705 11.8556L10.6988 11.8617L10.6926 11.8678L10.6864 11.8739L10.6803 11.8799L10.6742 11.8859L10.6682 11.8918L10.6622 11.8977L10.6562 11.9035L10.6503 11.9093L10.6445 11.9151L10.6386 11.9208L10.6329 11.9265L10.6271 11.9322L10.6214 11.9378L10.6157 11.9434L10.6101 11.9489L10.6045 11.9544L10.599 11.9598L10.5935 11.9653L10.588 11.9706L10.5826 11.976L10.5772 11.9813L10.5718 11.9865L10.5665 11.9917L10.5612 11.9969L10.556 12.0021L10.5508 12.0072L10.5457 12.0123L10.5405 12.0173L10.5355 12.0223L10.5304 12.0272L10.5254 12.0321L10.5205 12.037L10.5155 12.0419L10.5106 12.0467L10.5058 12.0514L10.501 12.0562L10.4962 12.0609L10.4915 12.0655L10.4868 12.0701L10.4821 12.0747L10.4775 12.0793L10.4729 12.0838L10.4684 12.0882L10.4639 12.0927L10.4594 12.0971L10.455 12.1014L10.4506 12.1058L10.4462 12.11L10.4419 12.1143L10.4376 12.1185L10.4333 12.1227L10.4291 12.1268L10.4249 12.1309L10.4208 12.135L10.4167 12.1391L10.4126 12.1431L10.4086 12.147L10.4046 12.151L10.4006 12.1549L10.3967 12.1587L10.3928 12.1625L10.3889 12.1663L10.3851 12.1701L10.3813 12.1738L10.3776 12.1775L10.3739 12.1811L10.3702 12.1848L10.3666 12.1883L10.3629 12.1919L10.3594 12.1954L10.3558 12.1989L10.3523 12.2023L10.3489 12.2057L10.3454 12.2091L10.342 12.2125L10.3387 12.2158L10.3353 12.219L10.332 12.2223L10.3288 12.2255L10.3255 12.2287L10.3223 12.2318L10.3192 12.2349L10.316 12.238L10.3129 12.241L10.3099 12.2441L10.3069 12.247L10.3039 12.25L10.3009 12.2529L10.298 12.2558L10.2951 12.2586L10.2922 12.2614L10.2894 12.2642L10.2866 12.267L10.2838 12.2697L10.2811 12.2724L10.2784 12.275L10.2757 12.2777L10.2731 12.2802L10.2705 12.2828L10.2679 12.2853L10.2654 12.2878L10.2629 12.2903L10.2604 12.2927L10.2579 12.2951L10.2555 12.2975L10.2531 12.2998L10.2508 12.3021L10.2485 12.3044L10.2462 12.3067L10.2439 12.3089L10.2417 12.3111L10.2395 12.3132L10.2374 12.3154L10.2352 12.3175L10.2331 12.3195L10.2311 12.3216L10.229 12.3236L10.227 12.3255L10.225 12.3275L10.2231 12.3294L10.2212 12.3313L10.2193 12.3331L10.2174 12.335L10.2156 12.3368L10.2138 12.3385L10.212 12.3403L10.2103 12.342L10.2086 12.3437L10.2069 12.3453L10.2052 12.3469L10.2036 12.3485L10.202 12.3501L10.2005 12.3516L10.1989 12.3531L10.1974 12.3546L10.1959 12.3561L10.1945 12.3575L10.1931 12.3589L10.1917 12.3603L10.1903 12.3616L10.189 12.3629L10.1877 12.3642L10.1864 12.3655L10.1852 12.3667L10.1839 12.3679L10.1827 12.3691L10.1816 12.3702L10.1804 12.3713L10.1793 12.3724L10.1782 12.3735L10.1772 12.3745L10.1762 12.3755L10.1752 12.3765L10.1742 12.3775L10.1732 12.3784L10.1723 12.3793L10.1714 12.3802L10.1705 12.381L10.1697 12.3819L10.1689 12.3827L10.1681 12.3834L10.1673 12.3842L10.1666 12.3849L10.1659 12.3856L10.1652 12.3863L10.1646 12.3869L10.1639 12.3876L10.1633 12.3881L10.1628 12.3887L10.1622 12.3893L10.1617 12.3898L10.1612 12.3903L10.1607 12.3907L10.1602 12.3912L10.1598 12.3916L10.1594 12.392L10.159 12.3924L10.1587 12.3927L10.1584 12.393L10.1581 12.3933L10.1578 12.3936L10.1575 12.3938L10.1573 12.3941L10.1571 12.3943L10.1569 12.3944L10.1568 12.3946L10.1566 12.3947L10.1565 12.3948L10.1564 12.3949L10.1564 12.395L10.1564 12.395L10.8574 13.1081L11.5585 13.8212L11.5586 13.8211L11.5586 13.8211L11.5587 13.821L11.5588 13.8209L11.5589 13.8208L11.5591 13.8206L11.5593 13.8204L11.5595 13.8202L11.5597 13.82L11.5599 13.8198L11.5602 13.8195L11.5605 13.8192L11.5609 13.8189L11.5612 13.8185L11.5616 13.8182L11.562 13.8178L11.5624 13.8173L11.5629 13.8169L11.5633 13.8164L11.5638 13.8159L11.5644 13.8154L11.5649 13.8149L11.5655 13.8143L11.5661 13.8137L11.5667 13.8131L11.5674 13.8124L11.5681 13.8118L11.5688 13.8111L11.5695 13.8104L11.5703 13.8096L11.5711 13.8088L11.5719 13.808L11.5727 13.8072L11.5736 13.8064L11.5745 13.8055L11.5754 13.8046L11.5763 13.8036L11.5773 13.8027L11.5783 13.8017L11.5793 13.8007L11.5804 13.7996L11.5815 13.7986L11.5826 13.7975L11.5837 13.7964L11.5849 13.7952L11.5861 13.7941L11.5873 13.7928L11.5886 13.7916L11.5898 13.7904L11.5912 13.7891L11.5925 13.7878L11.5939 13.7864L11.5952 13.7851L11.5967 13.7837L11.5981 13.7822L11.5996 13.7808L11.6011 13.7793L11.6026 13.7778L11.6042 13.7763L11.6058 13.7747L11.6074 13.7731L11.6091 13.7715L11.6107 13.7698L11.6124 13.7681L11.6142 13.7664L11.616 13.7647L11.6178 13.7629L11.6196 13.7611L11.6214 13.7593L11.6233 13.7574L11.6252 13.7556L11.6272 13.7536L11.6292 13.7517L11.6312 13.7497L11.6332 13.7477L11.6353 13.7457L11.6374 13.7436L11.6395 13.7415L11.6417 13.7394L11.6439 13.7372L11.6461 13.7351L11.6484 13.7328L11.6506 13.7306L11.653 13.7283L11.6553 13.726L11.6577 13.7237L11.6601 13.7213L11.6625 13.7189L11.665 13.7165L11.6675 13.714L11.6701 13.7115L11.6726 13.709L11.6752 13.7064L11.6779 13.7038L11.6805 13.7012L11.6832 13.6985L11.686 13.6959L11.6887 13.6931L11.6915 13.6904L11.6944 13.6876L11.6972 13.6848L11.7001 13.6819L11.7031 13.6791L11.706 13.6761L11.709 13.6732L11.712 13.6702L11.7151 13.6672L11.7182 13.6642L11.7213 13.6611L11.7245 13.658L11.7277 13.6548L11.7309 13.6517L11.7342 13.6485L11.7375 13.6452L11.7408 13.6419L11.7442 13.6386L11.7476 13.6353L11.751 13.6319L11.7545 13.6285L11.758 13.625L11.7615 13.6216L11.7651 13.6181L11.7687 13.6145L11.7724 13.6109L11.776 13.6073L11.7798 13.6037L11.7835 13.6L11.7873 13.5962L11.7911 13.5925L11.795 13.5887L11.7989 13.5849L11.8028 13.581L11.8067 13.5771L11.8107 13.5732L11.8148 13.5692L11.8188 13.5652L11.823 13.5612L11.8271 13.5571L11.8313 13.553L11.8355 13.5489L11.8397 13.5447L11.844 13.5405L11.8484 13.5362L11.8527 13.5319L11.8571 13.5276L11.8616 13.5232L11.866 13.5188L11.8705 13.5144L11.8751 13.5099L11.8797 13.5054L11.8843 13.5009L11.8889 13.4963L11.8936 13.4917L11.8984 13.487L11.9032 13.4823L11.908 13.4776L11.9128 13.4728L11.9177 13.468L11.9226 13.4632L11.9276 13.4583L11.9326 13.4534L11.9376 13.4484L11.9427 13.4434L11.9478 13.4384L11.953 13.4333L11.9582 13.4282L11.9634 13.4231L11.9687 13.4179L11.974 13.4127L11.9793 13.4074L11.9847 13.4021L11.9902 13.3968L11.9956 13.3914L12.0011 13.386L12.0067 13.3805L12.0123 13.375L12.0179 13.3695L12.0236 13.3639L12.0293 13.3583L12.035 13.3527L12.0408 13.347L12.0466 13.3413L12.0525 13.3355L12.0584 13.3297L12.0644 13.3238L12.0704 13.3179L12.0764 13.312L12.0825 13.306L12.0886 13.3L12.0947 13.294L12.1009 13.2879L12.1072 13.2818L12.1134 13.2756L12.1197 13.2694L12.1261 13.2631L12.1325 13.2568L12.139 13.2505L12.1454 13.2441L12.152 13.2377L12.1585 13.2313L12.1651 13.2248L12.1718 13.2182L12.1785 13.2116L12.1852 13.205L12.192 13.1983L12.1988 13.1916L12.2057 13.1849L12.2126 13.1781L12.2196 13.1713L12.2265 13.1644L12.2336 13.1575L12.2407 13.1505L12.2478 13.1435L12.2549 13.1365L12.2622 13.1294L12.2694 13.1222L12.2767 13.1151L12.284 13.1079L12.2914 13.1006L12.2989 13.0933L12.3063 13.0859L12.3138 13.0786L12.3214 13.0711L12.329 13.0637L12.3366 13.0561L12.3443 13.0486L12.3521 13.041L12.3599 13.0333L12.3677 13.0256L12.3755 13.0179L12.3835 13.0101L12.3914 13.0023L12.3994 12.9944L12.4075 12.9865L12.4156 12.9785L12.4237 12.9705L12.4319 12.9625L12.4401 12.9544L12.4484 12.9463L12.4567 12.9381L12.4651 12.9299L12.4735 12.9216L12.482 12.9133L12.4905 12.9049L12.499 12.8965L12.5076 12.888L12.5163 12.8795L12.5249 12.871L12.5337 12.8624L12.5425 12.8538L12.5513 12.8451L12.5602 12.8364L12.5691 12.8276L12.5781 12.8188L12.5871 12.8099L12.5961 12.801L12.6052 12.792L12.6144 12.783L12.6236 12.774L12.6329 12.7649L12.6422 12.7558L12.6515 12.7466L12.6609 12.7373L12.6704 12.728L12.6798 12.7187L12.6894 12.7093L12.699 12.6999L12.7086 12.6904L12.7183 12.6809L12.728 12.6713L12.7378 12.6617L12.7476 12.6521L12.7575 12.6423L12.7674 12.6326L12.7774 12.6228L12.7874 12.6129L12.7975 12.603L12.8076 12.5931L12.8178 12.5831L12.828 12.573L12.8383 12.5629L12.8486 12.5528L12.859 12.5426L12.8694 12.5323L12.8799 12.522L12.8904 12.5117L12.901 12.5013L12.9116 12.4909L12.9223 12.4804L12.933 12.4698L12.9437 12.4592L12.9546 12.4486L12.9654 12.4379L12.9764 12.4272L12.9873 12.4164L12.9984 12.4056L13.0094 12.3947L13.0206 12.3837L13.0317 12.3727L13.043 12.3617L13.0542 12.3506L13.0656 12.3395L13.0769 12.3283L13.0884 12.3171L13.0999 12.3058L13.1114 12.2944L13.123 12.283L13.1346 12.2716L13.1463 12.2601L13.158 12.2485L13.1698 12.237L13.1817 12.2253L13.1936 12.2136L13.2055 12.2019L13.2175 12.1901L13.2296 12.1782L13.2417 12.1663L13.2539 12.1543L13.2661 12.1423L13.2784 12.1303L13.2907 12.1181L13.3031 12.106L13.3155 12.0938L13.328 12.0815L13.3405 12.0692L13.3531 12.0568L13.3657 12.0444L13.3784 12.0319L13.3912 12.0193L13.404 12.0068L13.4168 11.9941L13.4297 11.9814L13.4427 11.9687L13.4557 11.9559L13.4688 11.943L13.4819 11.9301L13.4951 11.9172L13.5084 11.9041L13.5216 11.8911L13.535 11.8779L13.5484 11.8648L13.5619 11.8515L13.5754 11.8383L13.5889 11.8249L13.6026 11.8115L13.6162 11.7981L13.63 11.7846L13.6438 11.771L13.6576 11.7574L13.6715 11.7437L13.6855 11.73L13.6995 11.7162L13.7135 11.7024L13.7277 11.6885L13.7418 11.6746L13.7561 11.6606L13.7704 11.6465L13.7847 11.6324L13.7991 11.6183L13.8136 11.604L13.8281 11.5898L13.8427 11.5754L13.8573 11.561L13.872 11.5466L13.8868 11.5321L13.9016 11.5176L13.9164 11.5029L13.9313 11.4883L13.9463 11.4735L13.9614 11.4588L13.9764 11.4439L13.9916 11.429L14.0068 11.4141L14.0221 11.3991L14.0374 11.384L14.0528 11.3689L14.0682 11.3537L14.0837 11.3385L14.0993 11.3232L14.1149 11.3078L14.1306 11.2924L14.1463 11.2769L14.1621 11.2614L14.1779 11.2458L14.1938 11.2302L14.2098 11.2145L14.2258 11.1987L14.2419 11.1829L14.2581 11.167L14.2743 11.1511L14.2905 11.1351L14.3069 11.1191L14.3232 11.103L14.3397 11.0868L14.3562 11.0706L14.3727 11.0543L14.3894 11.0379L14.4061 11.0215L14.4228 11.0051L14.4396 10.9886L14.4565 10.972L14.4734 10.9553L14.4904 10.9386L14.5074 10.9219L14.5245 10.9051L14.5417 10.8882L14.5589 10.8712L14.5762 10.8542L14.5936 10.8372L14.611 10.8201L14.6285 10.8029L14.646 10.7856L14.6636 10.7683L14.6812 10.751L14.699 10.7336L14.7167 10.7161L14.7346 10.6985L14.7525 10.6809L14.7705 10.6633L14.7885 10.6455L14.8066 10.6278L14.8247 10.6099L14.843 10.592L14.8612 10.574L14.8796 10.556L14.898 10.5379L14.9164 10.5197L14.935 10.5015L14.9536 10.4832L14.9722 10.4649L14.9909 10.4465L15.0003 10.4373V20.1869H17.0003V10.4373L20.4421 13.8212L21.8442 12.395L16.7014 7.3387ZM6.5 17V25.5V26.5H7.5H24.5H25.5V25.5V17H23.5V24.5H8.5V17H6.5Z" fill="#2F2F2F"/>
</svg>
