<svg width="32" height="32" viewBox="0 0 32 32" fill="none" xmlns="http://www.w3.org/2000/svg">
<path fill-rule="evenodd" clip-rule="evenodd" d="M16 26C21.5228 26 26 21.5228 26 16C26 10.4772 21.5228 6 16 6C10.4772 6 6 10.4772 6 16C6 21.5228 10.4772 26 16 26ZM20.9722 13.7145C21.2879 13.3357 21.2367 12.7726 20.8579 12.457C20.4791 12.1413 19.9161 12.1925 19.6004 12.5713L14.8525 18.2688L12.329 15.8782C11.971 15.539 11.4059 15.5543 11.0667 15.9123C10.7276 16.2703 10.7429 16.8354 11.1009 17.1745L14.3151 20.2196C14.4942 20.3893 14.7355 20.4773 14.9817 20.4628C15.2279 20.4483 15.4572 20.3325 15.6151 20.143L20.9722 13.7145Z" fill="#DFDFDF"/>
</svg>
