<svg width="32" height="32" viewBox="0 0 32 32" fill="none" xmlns="http://www.w3.org/2000/svg">
<path fill-rule="evenodd" clip-rule="evenodd" d="M18.5 11.5C18.5 12.8807 17.3807 14 16 14C14.6193 14 13.5 12.8807 13.5 11.5C13.5 10.1193 14.6193 9 16 9C17.3807 9 18.5 10.1193 18.5 11.5ZM20.5 11.5C20.5 13.9853 18.4853 16 16 16C13.5147 16 11.5 13.9853 11.5 11.5C11.5 9.01472 13.5147 7 16 7C18.4853 7 20.5 9.01472 20.5 11.5ZM8.5 25C8.5 21.8592 11.6675 19 16 19C20.3325 19 23.5 21.8592 23.5 25H25.5C25.5 20.4089 21.0563 17 16 17C10.9437 17 6.5 20.4089 6.5 25H8.5Z" fill="#2F2F2F"/>
</svg>
