<svg width="32" height="32" viewBox="0 0 32 32" fill="none" xmlns="http://www.w3.org/2000/svg">
<path d="M18.9974 15.9987C18.9974 17.5899 17.653 18.8798 15.9946 18.8798C14.3362 18.8798 12.9918 17.5899 12.9918 15.9987C12.9918 14.4076 14.3362 13.1177 15.9946 13.1177C17.653 13.1177 18.9974 14.4076 18.9974 15.9987ZM16 10C14.2829 10.0076 12.5031 10.4262 10.8183 11.2277C9.5673 11.8473 8.34817 12.7215 7.2899 13.8005C6.77013 14.3512 6.10718 15.1488 6 15.9997C6.01267 16.7368 6.80217 17.6465 7.2899 18.1989C8.28228 19.2355 9.46967 20.0853 10.8183 20.7723C12.3895 21.5359 14.1285 21.9755 16 22C17.7187 21.9923 19.4981 21.5688 21.1811 20.7723C22.4321 20.1527 23.6518 19.2779 24.7101 18.1989C25.2299 17.6481 25.8928 16.8506 26 15.9997C25.9873 15.2626 25.1978 14.3528 24.7101 13.8004C23.7177 12.7638 22.5297 11.9147 21.1811 11.2277C19.6107 10.4647 17.8674 10.028 16 10ZM15.9987 11.4896C18.6007 11.4896 20.71 13.5091 20.71 16.0003C20.71 18.4915 18.6007 20.511 15.9987 20.511C13.3968 20.511 11.2875 18.4915 11.2875 16.0003C11.2875 13.5091 13.3968 11.4896 15.9987 11.4896Z" fill="#C9C9C9"/>
</svg>
