<svg width="32" height="32" viewBox="0 0 32 32" fill="none" xmlns="http://www.w3.org/2000/svg">
<path d="M17.1621 10.0589C16.7806 10.0177 16.393 9.99402 16 9.98814C14.2829 9.99575 12.503 10.4134 10.8181 11.2137C9.56715 11.8324 8.34857 12.7059 7.29028 13.7833C6.77053 14.3333 6.10718 15.1297 6 15.9793C6.01267 16.7154 6.80255 17.6238 7.29028 18.1754C8.28267 19.2105 9.46952 20.059 10.8181 20.745C10.864 20.7672 10.91 20.7892 10.9561 20.8109L9.70485 22.9959L11.4049 24.0007L20.5952 8.00013L18.9588 7L17.1621 10.0589V10.0589ZM21.0427 11.1503L19.7939 13.3145C20.3684 14.0609 20.7095 14.9813 20.7095 15.9793C20.7095 18.467 18.6008 20.4837 15.9988 20.4837C15.8863 20.4837 15.7773 20.4716 15.6667 20.4642L14.8403 21.8949C15.2215 21.9357 15.6068 21.9654 16 21.9706C17.7187 21.9628 19.4977 21.5404 21.1807 20.745C22.4316 20.1263 23.6514 19.2528 24.7097 18.1754C25.2295 17.6254 25.8928 16.829 26 15.9793C25.9873 15.2433 25.1974 14.3349 24.7097 13.7833C23.7173 12.7482 22.5293 11.8997 21.1807 11.2137C21.1351 11.1916 21.0885 11.1718 21.0427 11.1503V11.1503ZM15.9988 11.475C16.1129 11.475 16.2261 11.4795 16.3381 11.4872L15.3701 13.1632C14.0116 13.4386 12.9922 14.5945 12.9922 15.9781C12.9922 16.3257 13.0562 16.6585 13.1741 16.9669C13.1742 16.9672 13.1739 16.9678 13.1741 16.9681L12.2036 18.649C11.6278 17.902 11.2881 16.9785 11.2881 15.9793C11.2881 13.4917 13.3968 11.475 15.9988 11.475V11.475ZM18.8149 15.0089L16.6336 18.7882C17.9848 18.5076 18.9968 17.3569 18.9968 15.9781C18.9968 15.6369 18.9287 15.3125 18.8149 15.0089V15.0089Z" fill="#C9C9C9"/>
</svg>
