<svg width="20" height="20" viewBox="0 0 20 20" fill="none" xmlns="http://www.w3.org/2000/svg">
<path fill-rule="evenodd" clip-rule="evenodd" d="M2 4H18V5.5H2V4ZM2 9.5H18V11H2V9.5ZM18 14H2V15.5H18V14Z" fill="#2F2F2F"/>
<path fill-rule="evenodd" clip-rule="evenodd" d="M10 5C10 6.38071 8.88071 7.5 7.5 7.5C6.11929 7.5 5 6.38071 5 5C5 3.61929 6.11929 2.5 7.5 2.5C8.88071 2.5 10 3.61929 10 5ZM10 15C10 16.3807 8.88071 17.5 7.5 17.5C6.11929 17.5 5 16.3807 5 15C5 13.6193 6.11929 12.5 7.5 12.5C8.88071 12.5 10 13.6193 10 15ZM13.5 12.5C14.8807 12.5 16 11.3807 16 10C16 8.61929 14.8807 7.5 13.5 7.5C12.1193 7.5 11 8.61929 11 10C11 11.3807 12.1193 12.5 13.5 12.5Z" fill="white"/>
<path fill-rule="evenodd" clip-rule="evenodd" d="M7.5 6C8.05228 6 8.5 5.55228 8.5 5C8.5 4.44772 8.05228 4 7.5 4C6.94772 4 6.5 4.44772 6.5 5C6.5 5.55228 6.94772 6 7.5 6ZM7.5 7.5C8.88071 7.5 10 6.38071 10 5C10 3.61929 8.88071 2.5 7.5 2.5C6.11929 2.5 5 3.61929 5 5C5 6.38071 6.11929 7.5 7.5 7.5ZM7.5 16C8.05228 16 8.5 15.5523 8.5 15C8.5 14.4477 8.05228 14 7.5 14C6.94772 14 6.5 14.4477 6.5 15C6.5 15.5523 6.94772 16 7.5 16ZM7.5 17.5C8.88071 17.5 10 16.3807 10 15C10 13.6193 8.88071 12.5 7.5 12.5C6.11929 12.5 5 13.6193 5 15C5 16.3807 6.11929 17.5 7.5 17.5ZM14.5 10C14.5 10.5523 14.0523 11 13.5 11C12.9477 11 12.5 10.5523 12.5 10C12.5 9.44772 12.9477 9 13.5 9C14.0523 9 14.5 9.44772 14.5 10ZM16 10C16 11.3807 14.8807 12.5 13.5 12.5C12.1193 12.5 11 11.3807 11 10C11 8.61929 12.1193 7.5 13.5 7.5C14.8807 7.5 16 8.61929 16 10Z" fill="#2F2F2F"/>
</svg>
