<svg width="32" height="32" viewBox="0 0 32 32" fill="none" xmlns="http://www.w3.org/2000/svg">
<path fill-rule="evenodd" clip-rule="evenodd" d="M22.0532 9.64812C20.9046 8.3392 19.2635 7.29163 17 7.05176V5H15V7.0536C12.7181 7.30335 11.0401 8.3968 9.87711 9.71949C8.57869 11.1962 7.92029 12.9543 7.70438 14.1628L6.01845 22.8086L5.78613 24H6.99997H12.126C12.5701 25.7252 14.1362 27 16 27C17.8639 27 19.43 25.7252 19.874 24H25H26.2138L25.9815 22.8086L24.294 14.1548L24.2895 14.1319L24.284 14.1093C23.9811 12.8667 23.3366 11.1107 22.0532 9.64812ZM17.7325 24H14.2676C14.6134 24.5978 15.2597 25 16 25C16.7403 25 17.3866 24.5978 17.7325 24ZM11.3791 11.0401C10.3556 12.2041 9.83283 13.6141 9.67212 14.5207L9.67062 14.5291L9.66898 14.5375L8.2138 22H23.7861L22.3355 14.5609C22.0739 13.4984 21.5377 12.093 20.5499 10.9673C19.5831 9.8655 18.1614 9 16 9C13.8491 9 12.3773 9.90481 11.3791 11.0401Z" fill="#2F2F2F"/>
<circle cx="24" cy="24" r="4" fill="#00B400"/>
</svg>
