<svg width="32" height="32" viewBox="0 0 32 32" fill="none" xmlns="http://www.w3.org/2000/svg">
<path fill-rule="evenodd" clip-rule="evenodd" d="M20 14C20 17.3137 17.3137 20 14 20C10.6863 20 8 17.3137 8 14C8 10.6863 10.6863 8 14 8C17.3137 8 20 10.6863 20 14ZM18.9056 20.3199C17.551 21.3729 15.8487 22 14 22C9.58172 22 6 18.4183 6 14C6 9.58172 9.58172 6 14 6C18.4183 6 22 9.58172 22 14C22 15.8487 21.3729 17.551 20.3199 18.9056L25.2071 23.7929L23.7929 25.2071L18.9056 20.3199Z" fill="#2F2F2F"/>
</svg>
