<svg width="34" height="34" viewBox="0 0 34 34" fill="none" xmlns="http://www.w3.org/2000/svg">
<mask id="mask0_1190_54655" style="mask-type:alpha" maskUnits="userSpaceOnUse" x="0" y="0" width="34" height="34">
<rect width="34" height="34" fill="#D9D9D9"/>
</mask>
<g mask="url(#mask0_1190_54655)">
</g>
<g clip-path="url(#clip0_1190_54655)">
<path d="M4 25.3997V8.0666H8.97802C8.97802 6.66218 9.49535 5.46664 10.53 4.47998C11.5646 3.49333 12.8531 3 14.3953 3C15.9375 3 17.2747 3.49333 18.407 4.47998C19.5392 5.46664 20.1054 6.66218 20.1054 8.0666H25.0834V25.3997H4ZM10.735 8.0666H18.3484C18.3484 7.08884 17.9824 6.26663 17.2503 5.59997C16.5183 4.93331 15.6154 4.59998 14.5417 4.59998C13.468 4.59998 12.5651 4.93331 11.8331 5.59997C11.101 6.26663 10.735 7.08884 10.735 8.0666ZM14.5417 16.0665C16.0839 16.0665 17.4211 15.551 18.5534 14.5199C19.6857 13.4888 20.2518 12.271 20.2518 10.8666H18.4948C18.4948 11.8443 18.1044 12.6888 17.3235 13.3999C16.5427 14.111 15.6154 14.4665 14.5417 14.4665C13.468 14.4665 12.5407 14.111 11.7599 13.3999C10.979 12.6888 10.5886 11.8443 10.5886 10.8666H8.83161C8.83161 12.271 9.39774 13.4888 10.53 14.5199C11.6623 15.551 12.9995 16.0665 14.5417 16.0665Z" fill="#F44432"/>
<path d="M21.7496 30.9997L30.833 22.1524V14.2H22.6455L13.583 23.027L21.7496 30.9997ZM27.3955 18.5931C27.1038 18.5931 26.8504 18.488 26.6351 18.2779C26.4198 18.0677 26.3122 17.8202 26.3122 17.5355C26.3122 17.2508 26.4198 17.0033 26.6351 16.7931C26.8504 16.583 27.1038 16.4779 27.3955 16.4779C27.6872 16.4779 27.9406 16.583 28.1559 16.7931C28.3712 17.0033 28.4788 17.2508 28.4788 17.5355C28.4788 17.8202 28.3712 18.0677 28.1559 18.2779C27.9406 18.488 27.6872 18.5931 27.3955 18.5931Z" fill="#2F2F2F"/>
</g>
<defs>
<clipPath id="clip0_1190_54655">
<rect width="26.8334" height="28.0001" fill="white" transform="translate(4 3)"/>
</clipPath>
</defs>
</svg>
