<svg width="24" height="24" viewBox="0 0 24 24" fill="none" xmlns="http://www.w3.org/2000/svg">
<path fill-rule="evenodd" clip-rule="evenodd" d="M1.19995 4.80005H22.8V9.40429C22.6164 9.36705 22.4264 9.34751 22.2319 9.34751C20.6622 9.34751 19.3898 10.62 19.3898 12.1896C19.3898 13.7593 20.6622 15.0317 22.2319 15.0317C22.4264 15.0317 22.6164 15.0122 22.8 14.9749V19.579H1.19995V14.4634C1.67496 14.8202 2.2654 15.0316 2.90521 15.0316C4.47487 15.0316 5.74732 13.7592 5.74732 12.1895C5.74732 10.6199 4.47487 9.34742 2.90521 9.34742C2.2654 9.34742 1.67496 9.55884 1.19995 9.91563V4.80005Z" fill="#00B400"/>
<path d="M10.2947 16.4497V9.34741H15.0289V10.7978H11.6672V12.4806C12.7094 11.6224 14.5486 11.6936 14.627 11.6973V13.0691C14.627 13.0691 12.907 13.0466 12.076 13.9198C11.8001 14.2084 11.6672 14.5757 11.6672 15.0067V16.4459H10.2947V16.4497Z" fill="white"/>
</svg>
