<svg width="24" height="24" viewBox="0 0 24 24" fill="none" xmlns="http://www.w3.org/2000/svg">
<path fill-rule="evenodd" clip-rule="evenodd" d="M1.2002 4.79999H22.8002V9.40421C22.6166 9.36695 22.4265 9.34739 22.2319 9.34739C20.6622 9.34739 19.3898 10.6198 19.3898 12.1895C19.3898 13.7591 20.6622 15.0316 22.2319 15.0316C22.4265 15.0316 22.6166 15.012 22.8002 14.9748V19.5789H1.2002V14.4633C1.67523 14.8201 2.26574 15.0316 2.90563 15.0316C4.47528 15.0316 5.74774 13.7591 5.74774 12.1895C5.74774 10.6198 4.47528 9.34739 2.90563 9.34739C2.26574 9.34739 1.67523 9.55886 1.2002 9.91573V4.79999Z" fill="#9F9F9F"/>
<path d="M10.2949 16.4497V9.34741H15.0291V10.7978H11.6675V12.4806C12.7097 11.6224 14.5489 11.6936 14.6272 11.6973V13.0691C14.6272 13.0691 12.9072 13.0466 12.0762 13.9198C11.8003 14.2084 11.6675 14.5757 11.6675 15.0067V16.4459H10.2949V16.4497Z" fill="white"/>
</svg>
