<svg width="12" height="12" viewBox="0 0 12 12" fill="none" xmlns="http://www.w3.org/2000/svg">
<path d="M7.8375 8.4125L8.4 7.85L6.4125 5.85V3.3375H5.6625V6.15L7.8375 8.4125ZM6 11C5.31667 11 4.67083 10.8687 4.0625 10.6062C3.45417 10.3438 2.92292 9.98542 2.46875 9.53125C2.01458 9.07708 1.65625 8.54583 1.39375 7.9375C1.13125 7.32917 1 6.68333 1 6C1 5.31667 1.13125 4.67083 1.39375 4.0625C1.65625 3.45417 2.01458 2.92292 2.46875 2.46875C2.92292 2.01458 3.45417 1.65625 4.0625 1.39375C4.67083 1.13125 5.31667 1 6 1C6.68333 1 7.32917 1.13125 7.9375 1.39375C8.54583 1.65625 9.07708 2.01458 9.53125 2.46875C9.98542 2.92292 10.3438 3.45417 10.6062 4.0625C10.8687 4.67083 11 5.31667 11 6C11 6.68333 10.8687 7.32917 10.6062 7.9375C10.3438 8.54583 9.98542 9.07708 9.53125 9.53125C9.07708 9.98542 8.54583 10.3438 7.9375 10.6062C7.32917 10.8687 6.68333 11 6 11Z" fill="#00B400"/>
</svg>
