<svg width="24" height="24" viewBox="0 0 24 24" fill="none" xmlns="http://www.w3.org/2000/svg">
<path fill-rule="evenodd" clip-rule="evenodd" d="M16.2454 13.0271C17.4908 13.8726 18.3636 15.018 18.3636 16.5453V19.2726H21.9999V16.5453C21.9999 14.5635 18.7545 13.3907 16.2454 13.0271Z" fill="#00B400"/>
<path d="M9.27262 12C11.2809 12 12.909 10.3719 12.909 8.36356C12.909 6.35524 11.2809 4.72717 9.27262 4.72717C7.2643 4.72717 5.63623 6.35524 5.63623 8.36356C5.63623 10.3719 7.2643 12 9.27262 12Z" fill="#00B400"/>
<path fill-rule="evenodd" clip-rule="evenodd" d="M14.7272 12C16.7364 12 18.3636 10.3727 18.3636 8.36356C18.3636 6.35446 16.7364 4.72717 14.7272 4.72717C14.3 4.72717 13.9 4.81808 13.5181 4.94536C14.3004 5.91283 14.7272 7.11938 14.7272 8.36356C14.7272 9.60775 14.3004 10.8143 13.5181 11.7818C13.9 11.909 14.3 12 14.7272 12ZM9.27266 12.9091C6.84537 12.9091 1.99988 14.1272 1.99988 16.5454V19.2727H16.5454V16.5454C16.5454 14.1272 11.7 12.9091 9.27266 12.9091Z" fill="#00B400"/>
</svg>
