<svg width="24" height="24" viewBox="0 0 24 24" fill="none" xmlns="http://www.w3.org/2000/svg">
<path fill-rule="evenodd" clip-rule="evenodd" d="M16.2456 13.0272C17.4911 13.8726 18.3638 15.0181 18.3638 16.5454V19.2727H22.0002V16.5454C22.0002 14.5635 18.7547 13.3908 16.2456 13.0272Z" fill="#9F9F9F"/>
<path d="M9.27262 12C11.2809 12 12.909 10.3719 12.909 8.36362C12.909 6.3553 11.2809 4.72723 9.27262 4.72723C7.2643 4.72723 5.63623 6.3553 5.63623 8.36362C5.63623 10.3719 7.2643 12 9.27262 12Z" fill="#9F9F9F"/>
<path fill-rule="evenodd" clip-rule="evenodd" d="M14.7274 12C16.7365 12 18.3638 10.3727 18.3638 8.36362C18.3638 6.35452 16.7365 4.72723 14.7274 4.72723C14.3001 4.72723 13.9001 4.81814 13.5183 4.94542C14.3006 5.91289 14.7273 7.11944 14.7273 8.36362C14.7273 9.60781 14.3006 10.8144 13.5183 11.7818C13.9001 11.9091 14.3001 12 14.7274 12ZM9.27278 12.9091C6.84549 12.9091 2 14.1273 2 16.5455V19.2728H16.5456V16.5455C16.5456 14.1273 11.7001 12.9091 9.27278 12.9091Z" fill="#9F9F9F"/>
</svg>
