<svg width="49" height="53" viewBox="0 0 49 53" fill="none" xmlns="http://www.w3.org/2000/svg">
<path d="M48.6636 52.151C48.0882 47.2615 45.1412 42.988 40.7992 40.766L31.7138 36.1185L31.4912 31.8285C38.4383 31.724 41.4777 28.479 41.4777 28.479C37.6513 26.917 37.4614 21.8075 37.5536 19.019C37.6459 16.225 38.536 10.1255 35.9688 5.67602C33.4017 1.22652 29.342 2.27152 29.342 2.27152C26.3081 -1.03948 21.825 -0.329984 18.1832 1.84802C14.5414 4.02602 12.9078 8.66252 12.9078 13.2C12.9078 17.7375 13.3257 27.7695 8.51702 28.435C8.51702 28.435 10.3243 31.724 18.498 31.834L18.2755 36.1185L9.19002 40.766C4.85352 42.988 1.90101 47.2615 1.3257 52.151L0.994629 55H48.9946L48.6636 52.151Z" fill="#DFDFDF"/>
</svg>
