<?xml version="1.0" encoding="utf-8"?>
<!-- Generator: Adobe Illustrator 27.4.1, SVG Export Plug-In . SVG Version: 6.00 Build 0)  -->
<svg version="1.1" id="레이어_1" xmlns="http://www.w3.org/2000/svg" xmlns:xlink="http://www.w3.org/1999/xlink" x="0px"
	 y="0px" viewBox="0 0 104.1 113.6" style="enable-background:new 0 0 104.1 113.6;" xml:space="preserve">
<style type="text/css">
	.st0{fill:#DCDCDC;}
	.st1{fill:#FFFFFF;}
	.st2{fill:#2F2F2F;}
	.st3{fill:#FFCC1F;}
	.st4{fill:#FDEFC0;}
	.st5{fill:#00B100;}
	.st6{fill:#DCF8E4;}
	.st7{fill:#F24432;}
	.st8{fill:#FFE6DA;}
</style>
<path class="st0" d="M74.8,24.4H26.2c-3.7,0-6.8,3-6.8,6.7v62.5c0,3.7,3,6.7,6.8,6.7h48.6c3.7,0,6.8-3,6.8-6.7V31
	C81.6,27.4,78.5,24.4,74.8,24.4z"/>
<path class="st1" d="M72.6,31.4H28.4c-2.1,0-3.8,1.7-3.8,3.7v57.1c0,2.1,1.7,3.7,3.8,3.7h44.2c2.1,0,3.8-1.7,3.8-3.7V35
	C76.3,33,74.6,31.4,72.6,31.4z"/>
<path class="st2" d="M62.7,27.9H38.3c-1.9,0-3.4,1.5-3.4,3.4v0.2c0,1.9,1.5,3.4,3.4,3.4h24.4c1.9,0,3.4-1.5,3.4-3.4v-0.2
	C66.1,29.4,64.6,27.9,62.7,27.9z"/>
<path class="st0" d="M65.4,52.7c-0.4,0-0.8-0.1-1.1-0.4L60.9,49c-0.6-0.6-0.6-1.6,0-2.2c0.6-0.6,1.6-0.6,2.2,0l2.3,2.3l4.4-4.3
	c0.6-0.6,1.6-0.6,2.2,0c0.6,0.6,0.6,1.6,0,2.2l-5.5,5.4C66.2,52.5,65.8,52.7,65.4,52.7z"/>
<path class="st0" d="M53.9,51.2H31.4c-1,0-1.8-0.8-1.8-1.8s0.8-1.8,1.8-1.8h22.5c1,0,1.8,0.8,1.8,1.8C55.8,50.4,55,51.2,53.9,51.2z"
	/>
<path class="st0" d="M65.4,68.6c-0.4,0-0.8-0.1-1.1-0.4l-3.4-3.3c-0.6-0.6-0.6-1.6,0-2.2c0.6-0.6,1.6-0.6,2.2,0l2.3,2.3l4.4-4.3
	c0.6-0.6,1.6-0.6,2.2,0c0.6,0.6,0.6,1.6,0,2.2l-5.5,5.4C66.2,68.5,65.8,68.6,65.4,68.6z"/>
<path class="st0" d="M53.9,67.1H31.4c-1,0-1.8-0.8-1.8-1.8s0.8-1.8,1.8-1.8h22.5c1,0,1.8,0.8,1.8,1.8C55.8,66.2,55,67.1,53.9,67.1z"
	/>
<path class="st0" d="M65.4,84.5c-0.4,0-0.8-0.1-1.1-0.4l-3.4-3.3c-0.6-0.6-0.6-1.6,0-2.2c0.6-0.6,1.6-0.6,2.2,0l2.3,2.3l4.4-4.3
	c0.6-0.6,1.6-0.6,2.2,0c0.6,0.6,0.6,1.6,0,2.2l-5.5,5.4C66.2,84.2,65.8,84.5,65.4,84.5z"/>
<path class="st0" d="M53.9,83H31.4c-1,0-1.8-0.8-1.8-1.8s0.8-1.8,1.8-1.8h22.5c1,0,1.8,0.8,1.8,1.8C55.8,82.1,55,83,53.9,83z"/>
<path class="st3" d="M39.7,88.2l-12.6-1.5L24,112.1l12.7,1.5c7,0.8,13.4-4.1,14.3-11.1C51.8,95.5,46.8,89.2,39.7,88.2L39.7,88.2z"/>
<path class="st4" d="M27.1,86.8l-12.7-1.5C7.4,84.4,1,89.4,0.1,96.4c-0.8,7,4.1,13.3,11.2,14.2l12.6,1.5L27.1,86.8L27.1,86.8z"/>
<path class="st5" d="M77.6,35.9c-4,2.2-5.4,7.2-3.2,11.1c2.2,3.9,7.2,5.4,11.2,3.2l7.1-4l-8-14.3L77.6,35.9z"/>
<path class="st6" d="M92.8,46.2l7.1-4c4-2.2,5.4-7.2,3.2-11.1c-2.2-3.9-7.2-5.4-11.2-3.2l-7.1,4L92.8,46.2z"/>
<path class="st7" d="M35,1.4c-1.8-1.8-4.7-1.8-6.4,0c-1.8,1.8-1.8,4.6,0,6.4l3.2,3.2l6.5-6.4L35,1.4z"/>
<path class="st8" d="M31.8,11l3.2,3.2c1.8,1.8,4.7,1.8,6.4,0c1.8-1.8,1.8-4.6,0-6.4l-3.2-3.2L31.8,11z"/>
</svg>
