<svg width="78" height="90" viewBox="0 0 78 90" fill="none" xmlns="http://www.w3.org/2000/svg">
<g clip-path="url(#clip0_3037_64558)">
<mask id="mask0_3037_64558" style="mask-type:alpha" maskUnits="userSpaceOnUse" x="0" y="0" width="78" height="90">
<rect width="78" height="90" fill="#D5EDD5"/>
</mask>
<g mask="url(#mask0_3037_64558)">
<g clip-path="url(#clip1_3037_64558)">
<path fill-rule="evenodd" clip-rule="evenodd" d="M10.8112 55.8722C14.0184 49.636 17.7342 46.0711 20.7559 49.0239H20.763C21.2624 49.5326 21.6605 50.6236 21.9646 52.147C24.0929 62.8102 21.6091 94.6553 16.9582 96.198C16.9566 96.1985 16.9551 96.1991 16.9535 96.1996C14.8235 96.9108 12.8769 97.2559 11.1699 97.2418C11.1699 97.2409 11.1699 97.24 11.17 97.2391C8.72694 97.2179 6.79001 96.4502 5.55101 94.9215C2.41686 91.0568 2.95334 82.9182 4.63336 74.3635C5.5608 69.6438 7.00202 64.7638 8.71324 60.5032C8.7133 60.5016 8.71335 60.5 8.71341 60.4983C9.3769 58.8483 10.0809 57.2911 10.8112 55.8722Z" fill="white"/>
<path fill-rule="evenodd" clip-rule="evenodd" d="M27.9845 13.4939C23.4244 13.4939 19.7256 17.1894 19.7256 21.7453C19.7256 25.1798 20.742 44.687 26.5727 52.6563C28.5421 55.3504 55.0907 54.4547 55.973 52.6352C56.9966 50.5194 55.3377 33.53 50.213 23.9739C43.8388 12.0904 35.8199 13.0143 33.7163 13.0143C32.4598 13.0143 31.2739 13.2964 30.208 13.7971C29.5021 13.5996 28.7539 13.4939 27.9845 13.4939Z" fill="#2F2F2F"/>
<path fill-rule="evenodd" clip-rule="evenodd" d="M26.9775 45.7842C29.081 45.9887 30.3728 42.8503 29.9563 38.5342H29.9493C31.8816 38.4087 33.1313 36.9172 34.2935 35.5301C35.3517 34.2671 36.3374 33.0907 37.6999 33.1109C37.6959 34.3383 37.6147 35.5767 37.536 36.7758C37.2007 41.8873 36.9123 46.2833 42.853 46.0663C42.8747 46.4702 42.696 47.3852 42.3634 48.643C42.4016 48.7139 42.4371 48.7867 42.4697 48.8618C40.6627 55.7168 34.2108 72.9671 30.8225 72.7767C29.4853 72.7009 28.5806 71.5415 27.9777 69.7429C26.4012 65.4194 26.741 56.9841 26.969 51.3229C27.0823 48.5107 27.168 46.3831 26.9775 45.7842Z" fill="#FFC0B5"/>
<path fill-rule="evenodd" clip-rule="evenodd" d="M27.0023 53.0227C26.6988 60.9074 26.487 72.537 30.8212 72.7838C33.6941 72.946 38.7836 60.5477 41.3601 52.5925C38.5224 53.0439 35.5577 53.2907 32.5082 53.2907C30.6376 53.2907 28.8023 53.199 27.0023 53.0227Z" fill="#00B400"/>
<path fill-rule="evenodd" clip-rule="evenodd" d="M52.2528 52.6349C52.9163 58.1147 51.9281 68.0517 51.9634 73.207C51.9705 74.3636 51.9846 75.5767 51.9987 76.8391C51.6104 75.9081 51.1869 74.9349 50.7493 73.9405C50.121 72.5088 48.321 68.6229 47.3963 63.8907C46.3092 58.3404 46.3304 51.9649 49.2387 52.0214C50.1987 52.0425 51.2151 52.2541 52.2528 52.6349ZM52.6128 88.2711C52.7681 94.6677 52.634 104.33 52.9446 110.924C45.5116 108.357 38.5444 100.726 33.1443 92.9117C32.3749 91.6704 35.4597 83.8774 37.1115 84.082C39.1374 84.6885 50.3963 90.0554 52.6128 88.2711Z" fill="#E2D8D6"/>
<path fill-rule="evenodd" clip-rule="evenodd" d="M55.7258 141.362C54.1446 141.969 51.187 142.406 47.5657 142.681C47.3187 139.634 47.0716 136.51 46.9022 133.111C46.4716 124.598 47.1563 106.41 48.4763 95.1473C49.1046 89.8085 50.354 84.223 52.0199 78.8137C52.267 98.3562 53.2058 128.026 55.7258 141.362Z" fill="white"/>
<path fill-rule="evenodd" clip-rule="evenodd" d="M55.7246 141.363C55.725 141.363 55.7254 141.362 55.7258 141.362V141.369C55.7254 141.367 55.725 141.365 55.7246 141.363ZM30.7377 73.5202C30.7655 73.2717 30.7936 73.0262 30.822 72.7839C31.8808 63.7497 35.6574 53.8833 39.2856 45.519C43.7116 45.7095 48.1375 47.0988 51.7799 48.6292C53.8837 49.5134 53.171 57.4359 52.5272 64.5918C52.2314 67.8803 51.9501 71.0069 51.9634 73.2142C52.0975 92.1754 52.9444 126.669 55.7246 141.363C51.9821 142.794 40.5199 143.316 30.7302 142.815C31.0626 134.403 30.5325 127.913 29.978 121.124C29.8533 119.597 29.7273 118.055 29.6097 116.472C29.6162 116.562 29.6228 116.652 29.6294 116.742C29.5831 119.803 29.5637 122.926 29.5445 126.016C29.5081 131.878 29.4725 137.624 29.2553 142.611V142.618C22.0411 143.203 8.70678 141.44 8.9962 140.178C9.03083 140 9.06704 139.815 9.10471 139.623C10.8866 130.516 15.9591 104.591 14.4245 87.2557C14.1595 84.2673 13.8152 81.2505 13.4765 78.2827C11.7044 62.7535 10.0853 48.5649 20.7705 46.7886C21.6654 46.6396 22.5343 46.5438 23.4153 46.4466C24.8691 46.2863 26.356 46.1223 28.0482 45.7096C28.0181 51.1688 28.6422 54.5448 29.297 58.0862C30.0223 62.0091 30.7851 66.135 30.7377 73.5202Z" fill="white"/>
<path fill-rule="evenodd" clip-rule="evenodd" d="M41.5166 28.177C41.8483 29.6791 41.4389 30.7441 40.3518 31.8443C39.4554 32.747 38.3259 33.283 37.7753 32.4649C37.9518 31.0685 38.3259 27.5987 38.0577 26.569C38.9189 25.5534 41.0719 26.1035 41.5236 28.1699L41.5166 28.177Z" fill="#FFC0B5"/>
<path fill-rule="evenodd" clip-rule="evenodd" d="M39.6387 27.3729C40.514 27.528 41.0434 30.4407 38.7916 31.1601C38.9469 30.8991 39.1234 30.4266 39.2222 29.8413C39.3069 29.3335 39.3634 28.3673 39.1587 27.7044C39.0104 27.2177 38.9963 27.26 39.6387 27.3729Z" fill="#E5A59A"/>
<path fill-rule="evenodd" clip-rule="evenodd" d="M32.9613 89.0047C38.3967 96.8612 45.4132 104.541 52.8957 107.059C57.0181 108.448 62.4111 108.618 66.2723 105.599C74.0936 99.4917 72.5547 82.5446 68.4394 70.5907C64.1688 58.1783 57.0746 50.8366 52.6627 48.9607C51.4204 48.4317 50.1992 48.1355 49.0556 48.1144C46.1474 48.058 46.1262 54.4334 47.2133 59.9837C48.0788 64.4132 49.7113 68.1012 50.4318 69.729C50.4811 69.8403 50.5261 69.9419 50.5662 70.0335C51.731 72.7064 52.7898 75.1889 53.4533 77.1636C55.3734 82.8549 53.7004 86.8537 50.8133 87.9539C46.5809 89.5681 41.8244 86.9769 39.0189 85.4485C38.1841 84.9937 37.522 84.633 37.0978 84.5052C35.4461 84.3007 32.1919 87.7635 32.9613 89.0047Z" fill="white"/>
<path fill-rule="evenodd" clip-rule="evenodd" d="M24.2783 34.9051C23.4242 32.4508 21.9418 24.813 23.283 21.054C23.9183 19.2556 26.3325 18.5504 28.8384 18.4798C36.3985 18.2753 38.615 22.9582 38.615 29.6016C38.615 35.3494 33.222 39.6161 28.9655 39.6161C25.909 39.6161 25.5153 38.4789 24.3201 35.0256C24.3063 34.9858 24.2924 34.9456 24.2783 34.9051Z" fill="#FFC0B5"/>
<path fill-rule="evenodd" clip-rule="evenodd" d="M19.7324 21.3853C20.7771 22.0482 22.0195 22.4291 23.3466 22.4291C25.2172 22.4291 26.9184 21.6674 28.1466 20.4403C29.7843 23.9594 32.9043 27.1683 37.9162 26.9285C42.928 26.6888 48.7163 25.6873 53.5164 32.5494C53.5164 29.9329 48.3775 19.467 45.4268 17.4288C40.3233 12.4851 35.3185 13.014 33.7161 13.014C32.4596 13.014 31.2737 13.2961 30.2078 13.7968C29.502 13.5993 28.7537 13.4936 27.9843 13.4936C23.5442 13.4936 19.923 16.9916 19.7324 21.3853Z" fill="#2F2F2F"/>
<path fill-rule="evenodd" clip-rule="evenodd" d="M30.8149 72.777C30.7866 73.0238 30.7584 73.2777 30.7301 73.5316H30.7231L30.6471 75.1326C30.7589 74.7718 31.9259 71.037 32.8055 69.4271C33.7302 67.7345 38.8691 60.9994 38.8691 60.9994L42.6597 55.1317L38.9891 51.944L43.7115 52.1626L46.2527 46.5065C45.7339 46.3672 45.0139 46.0912 44.2292 45.7902C42.1522 44.9938 39.6215 44.0234 39.1655 44.955C35.5443 53.3192 31.8737 63.7428 30.8149 72.777ZM30.6471 75.1326L30.6384 75.3159V75.1607C30.6384 75.1607 30.6413 75.1511 30.6471 75.1326ZM22.4228 45.935C22.4224 45.9351 22.4221 45.9351 22.4218 45.9352V45.9281L22.4228 45.935ZM22.4228 45.935C22.8552 45.8854 23.4153 45.7825 24.014 45.6724C25.8004 45.3442 27.9315 44.9525 28.0478 45.7236C28.0167 51.187 28.6406 54.5636 29.2955 58.1075C29.978 61.8007 30.694 65.6755 30.7372 72.2832L30.5749 74.0111L30.589 73.8559C30.589 73.8559 29.9254 69.8149 29.2407 68.1223C28.556 66.4297 24.3842 59.6945 24.3842 59.6945L23.1842 52.6844L25.803 51.6195L23.0148 50.3077L22.4228 45.935Z" fill="#DFDFDF"/>
</g>
<path fill-rule="evenodd" clip-rule="evenodd" d="M22.6275 63.6099L-0.000980377 63.8374L11.994 96.0241L33.261 95.6258L22.6275 63.6099Z" fill="#DFDFDF"/>
</g>
</g>
<defs>
<clipPath id="clip0_3037_64558">
<rect width="78" height="90" fill="white"/>
</clipPath>
<clipPath id="clip1_3037_64558">
<rect width="68.5491" height="198.873" fill="white" transform="matrix(-1 0 0 1 71.8342 13)"/>
</clipPath>
</defs>
</svg>
