<svg width="78" height="90" viewBox="0 0 78 90" fill="none" xmlns="http://www.w3.org/2000/svg">
<mask id="mask0_3037_64612" style="mask-type:alpha" maskUnits="userSpaceOnUse" x="0" y="0" width="78" height="90">
<rect width="78" height="90" fill="#D5EDD5"/>
</mask>
<g mask="url(#mask0_3037_64612)">
<path d="M48.4852 11.6462C46.3665 13.0597 45.7436 15.8506 47.1012 17.8861L53.1761 26.9967C54.5328 29.0285 57.3519 29.5314 59.4716 28.1214C61.5903 26.7079 62.2132 23.9169 60.8556 21.8815L54.7807 12.7709C53.424 10.7391 50.6049 10.2362 48.4852 11.6462Z" fill="white"/>
<path d="M48.4856 11.647C46.3668 13.0606 45.7439 15.8515 47.1016 17.887L50.1408 22.4418L57.8203 17.3266L54.781 12.7718C53.4243 10.74 50.6053 10.2371 48.4856 11.647Z" fill="#F44432"/>
<path d="M20.5396 25.9984C24.5935 28.8314 30.179 27.8413 33.0139 23.7902C35.8489 19.7391 34.8581 14.1575 30.8041 11.3245C26.7502 8.49155 21.1647 9.48168 18.3298 13.5328C15.4949 17.5839 16.4857 23.1655 20.5396 25.9984Z" fill="white"/>
<path d="M32.5702 23.4842C33.0453 22.8033 32.8828 21.8663 32.2014 21.3915L21.1055 13.6391C20.4241 13.1644 19.4864 13.3268 19.0113 14.0077C18.5362 14.6886 18.6987 15.6257 19.3801 16.1004L30.476 23.8528C31.1574 24.3276 32.0951 24.1651 32.5702 23.4842Z" fill="#F5F5F5"/>
<path d="M55.5203 32.4255C51.922 35.264 51.3104 40.4781 54.1468 44.0715C56.9873 47.6673 62.2026 48.2825 65.8009 45.444C69.3992 42.6055 70.0107 37.3914 67.1744 33.798C64.3339 30.2022 59.1186 29.587 55.5203 32.4255Z" fill="white"/>
<path d="M54.5351 43.7646C55.0119 44.3659 55.8856 44.4719 56.4939 43.9936L66.34 36.2298C66.9417 35.7532 67.0478 34.8802 66.5692 34.2723C66.0923 33.671 65.2186 33.565 64.6104 34.0433L54.7643 41.8072C54.1625 42.2837 54.0564 43.1568 54.5351 43.7646Z" fill="#F5F5F5"/>
<path d="M12.6724 28.8136C9.76656 29.8796 8.27602 32.9703 9.34725 35.7208L14.1323 48.0398C15.2035 50.7903 18.4218 52.1544 21.3276 51.0883C24.2334 50.0222 25.724 46.9315 24.6528 44.181L19.8677 31.862C18.7965 29.1115 15.5782 27.7475 12.6724 28.8136Z" fill="#FFC710"/>
<path d="M12.682 28.8287C9.77095 29.8971 8.27738 32.994 9.35012 35.7496L11.748 41.9195L22.2899 38.0558L19.892 31.886C18.8193 29.1303 15.5955 27.7641 12.6844 28.8326L12.682 28.8287Z" fill="#FFC710"/>
<path d="M47.5967 25.0217C45.1044 22.8819 41.4509 23.0493 39.4346 25.4012L30.3976 35.9233C28.3813 38.2753 28.7656 41.9105 31.2578 44.0503C33.75 46.19 37.4036 46.0227 39.4198 43.6708L48.4569 33.1486C50.4731 30.7967 50.0889 27.1615 47.5967 25.0217Z" fill="white"/>
<path d="M47.6121 25.0121C45.127 22.8771 41.4834 23.0446 39.4723 25.3919L34.9675 30.6437L43.9617 38.3778L48.4665 33.1259C50.4776 30.7787 50.0949 27.1511 47.6097 25.0162L47.6121 25.0121Z" fill="#00B400"/>
<path opacity="0.8" d="M74.1447 52.954L75.4027 51.871L73.9113 50.8458V46.0627H3.90207L3.87181 50.5823L2 51.871L3.25364 52.954L2.05187 54.3546L3.84155 55.3329L3.4914 109.297H73.9113V55.138L75.3465 54.3546L74.1447 52.954Z" fill="white"/>
<path d="M66.9985 67.1406H10.47V67.9843H66.9985V67.1406Z" fill="#DFDFDF"/>
<path d="M20.2861 60.5246V59.4141H19.1379V58.0076H17.9248V59.4141H17.0081V60.5246H17.9063C17.8785 61.3852 17.9896 62.4863 18.6286 63.1526C18.9712 63.5135 19.4435 63.6893 20.0176 63.6893H20.2861V62.4863H20.1194C19.8787 62.4863 19.675 62.4216 19.5175 62.2642C19.1286 61.8756 19.1286 61.0613 19.1286 60.7744V60.5246H20.2769H20.2861Z" fill="#C9C9C9"/>
<path d="M10.469 63.6238H11.6913V62.0969C11.6913 61.7453 11.8117 61.4492 12.0525 61.2178C12.7933 60.5146 14.3304 60.5331 14.3304 60.5331V59.4226C14.2564 59.4226 12.6173 59.3579 11.6913 60.0611V58.6083H14.636V57.4331H10.469V63.6331V63.6238Z" fill="#C9C9C9"/>
<path d="M39.9381 61.459C39.9381 59.5064 38.5491 59.3491 38.1139 59.3491C37.9287 59.3491 37.3175 59.3769 36.9101 59.8858V59.4139H35.6785V63.6243H36.9008V61.6163V61.3757C36.9193 60.8852 37.336 60.4873 37.8361 60.4873C38.3361 60.4873 38.725 60.8852 38.725 61.3757V63.6243H39.9474V61.459H39.9381Z" fill="#C9C9C9"/>
<path d="M31.2658 59.3493C30.6917 59.3493 30.2009 59.5992 29.9139 60.0249C29.6175 59.5899 29.1453 59.3493 28.5804 59.3493C28.0618 59.3493 27.6544 59.5344 27.3673 59.8861V59.4049H26.1357V63.6153H27.3673V61.2556C27.3766 60.8299 27.7377 60.4783 28.173 60.4783C28.6082 60.4783 28.9416 60.8299 28.9416 61.2556V63.6153H30.1824V61.2556C30.1917 60.8299 30.5528 60.4783 30.988 60.4783C31.4233 60.4783 31.7566 60.8299 31.7566 61.2556V63.6153H32.9882V61.1353C32.9882 59.9971 32.3122 59.3401 31.2658 59.3401V59.3493Z" fill="#C9C9C9"/>
<path d="M16.4449 59.4138H15.1855V63.6242H16.4449V59.4138Z" fill="#C9C9C9"/>
<path d="M15.8188 58.7948C16.2536 58.7948 16.606 58.4426 16.606 58.0082C16.606 57.5738 16.2536 57.2217 15.8188 57.2217C15.3841 57.2217 15.0317 57.5738 15.0317 58.0082C15.0317 58.4426 15.3841 58.7948 15.8188 58.7948Z" fill="#C9C9C9"/>
<path d="M34.9588 59.4148H33.6995V63.6252H34.9588V59.4148Z" fill="#C9C9C9"/>
<path d="M35.1201 58.0082C35.1201 58.4432 34.7682 58.7948 34.333 58.7948C33.8978 58.7948 33.5459 58.4432 33.5459 58.0082C33.5459 57.5733 33.8978 57.2217 34.333 57.2217C34.7682 57.2217 35.1201 57.5733 35.1201 58.0082Z" fill="#C9C9C9"/>
<path d="M24.2161 59.4139V59.8858C24.2161 59.8858 23.8272 59.3491 22.7993 59.3491C21.5584 59.3491 20.688 60.3208 20.688 61.5145C20.688 62.7082 21.5584 63.6798 22.7993 63.6798C23.8272 63.6798 24.2161 63.1431 24.2161 63.1431V63.6151H25.3736V59.4046H24.2161V59.4139ZM23.003 62.6064C22.3826 62.6064 21.9103 62.153 21.9103 61.5145C21.9103 60.876 22.3826 60.4225 23.003 60.4225C23.6234 60.4225 24.0957 60.913 24.0957 61.5145C24.0957 62.116 23.6234 62.6064 23.003 62.6064Z" fill="#C9C9C9"/>
</g>
</svg>
