<svg width="78" height="90" viewBox="0 0 78 90" fill="none" xmlns="http://www.w3.org/2000/svg">
<g clip-path="url(#clip0_1135_63460)">
<mask id="mask0_1135_63460" style="mask-type:alpha" maskUnits="userSpaceOnUse" x="0" y="0" width="78" height="90">
<rect width="78" height="90" fill="#D5EDD5"/>
</mask>
<g mask="url(#mask0_1135_63460)">
<path d="M28.7224 19.8863C29.5104 15.4931 33.7892 13.5443 37.047 13.0995C43.1348 12.2649 44.2786 16.9589 49.2607 16.8064C55.7975 16.6073 67.507 21.5724 61.953 33.0828C61.953 33.0828 57.6827 40.9329 51.5356 43.7162C52.1669 42.763 52.7049 41.7166 53.1328 40.5897C53.209 40.4245 53.2726 40.2678 53.3065 40.1322C53.4547 39.5264 53.5395 38.8274 53.4632 38.0733C53.6157 38.0225 53.7682 37.9547 53.9165 37.8699C53.9674 37.8403 54.0182 37.8149 54.069 37.781C55.2637 37.0184 55.6831 35.5357 55.0053 34.4681C54.8062 34.1546 54.535 33.9174 54.2215 33.7479C53.4632 33.3412 52.4549 33.3709 51.6077 33.9089C51.5017 33.9767 51.4085 34.0487 51.3153 34.1249C50.4003 33.2946 49.1378 32.4939 47.4094 31.778C47.4094 31.778 47.4136 31.778 47.4178 31.778C46.6807 31.456 46.0367 30.9349 45.5962 30.2444C44.4269 28.4142 43.0162 27.4737 37.691 27.6728C35.8947 27.7406 34.3738 27.4695 33.1241 26.9696C29.6756 25.597 28.2564 22.4917 28.7267 19.8905L28.7224 19.8863Z" fill="black"/>
<path d="M31.4001 55.0827C31.4001 55.0827 31.3915 55.1215 31.3872 55.1387C31.3915 55.1215 31.3958 55.0999 31.4001 55.0827Z" fill="white"/>
<path d="M34.658 46.4147C34.8698 46.6223 35.0858 46.8172 35.3104 47.0036C36.8016 48.2533 38.5767 49.0837 40.5466 49.3421C41.9997 49.5327 43.4359 49.3929 44.7958 48.9778C42.2031 53.2057 34.2852 53.8836 34.2852 53.8836C34.8867 50.7274 34.658 46.4105 34.658 46.4105V46.4147Z" fill="#F1927C"/>
<path d="M34.285 53.8879C34.285 53.8879 42.2029 53.2058 44.7956 48.9821C43.4357 49.3973 41.9995 49.5371 40.5464 49.3464C38.5765 49.088 36.8014 48.2577 35.3102 47.0079C35.0857 46.8215 34.8654 46.6224 34.6578 46.4191C31.6626 43.4917 30.0358 38.768 30.7009 33.7055C31.0314 31.1848 31.8956 28.8929 33.1242 26.9696C34.3782 27.4695 35.8948 27.7406 37.6911 27.6728C43.0205 27.4737 44.427 28.4142 45.5963 30.2443C46.0368 30.9349 46.6808 31.4602 47.4179 31.7779H47.4094C49.1379 32.4939 50.4004 33.2946 51.3154 34.1249C51.4086 34.0487 51.5061 33.9724 51.6078 33.9089C52.455 33.3708 53.4633 33.3412 54.2216 33.7479C54.5351 33.9173 54.8063 34.1546 55.0054 34.4681C55.6874 35.5356 55.268 37.0226 54.0691 37.781C54.0183 37.8149 53.9675 37.8403 53.9166 37.8699C53.7683 37.9504 53.6158 38.0182 53.4633 38.0733C53.5396 38.8274 53.4548 39.5264 53.3066 40.1322C53.2515 40.2889 53.1922 40.4372 53.1329 40.5897C52.705 41.7166 52.167 42.763 51.5357 43.7162C51.0951 44.3813 50.608 44.9998 50.0826 45.5675L50.0911 55.413C50.4046 55.5359 50.7647 55.6841 51.1672 55.8451C51.6628 56.0442 52.239 56.2815 52.8533 56.5399C52.8533 56.5399 49.1845 60.1705 46.4859 64.9535C46.1724 65.5127 45.8335 66.1185 45.4903 66.7582C45.4183 66.7794 45.3463 66.8048 45.2743 66.8302C40.7794 68.2155 35.9372 68.5756 32.4336 67.2454C31.8024 67.0124 31.2178 66.7201 30.6882 66.3684L32.1032 61.4542L34.2807 53.8879H34.285Z" fill="#FAC6B4"/>
<path d="M19.7157 72.3418C20.3426 75.4513 25.5408 75.553 25.1171 76.5104C24.2825 78.3957 20.8764 78.0822 20.0503 79.942C19.1946 81.8738 20.1435 86.1949 21.0078 89.9696H10.4082C12.7213 79.5692 15.3775 66.6904 15.3775 66.6904C17.7965 59.6071 23.198 56.7348 25.9432 55.6926C26.96 55.3113 27.6124 55.18 27.6124 55.18H28.0572C28.8198 54.9427 29.5738 54.7436 30.2729 54.5742C30.5059 54.5191 30.7304 54.464 30.9507 54.4174C31.171 54.3708 31.3786 54.3242 31.5861 54.2819C30.5525 57.1923 27.2438 61.5855 24.9688 63.8096C20.618 68.0672 19.3259 70.3803 19.7199 72.3376L19.7157 72.3418Z" fill="#F2F2F2"/>
<path d="M49.7184 86.4702C49.7904 83.115 43.8425 80.7976 45.4566 79.8571C46.6809 79.1412 52.0824 80.3359 53.1245 77.0272C54.7259 71.9435 52.6162 67.5884 54.7174 57.1964C61.089 59.285 68.3672 63.2842 70.3245 73.0916C70.6634 74.7946 71.858 86.6905 72.1715 89.889L49.299 89.9695C49.5278 88.6647 49.6972 87.4107 49.7184 86.4702Z" fill="#F2F2F2"/>
<path d="M53.1197 77.0272C52.0776 80.3359 46.6761 79.1412 45.4518 79.8571C43.8419 80.7976 49.7856 83.115 49.7136 86.4702C49.6924 87.4107 49.523 88.6647 49.2942 89.9695H41.2535C40.9442 86.9955 40.7493 83.3988 41.0459 80.052C41.4992 74.9302 43.6174 70.2616 45.4941 66.7538C45.8373 66.1141 46.172 65.5083 46.4897 64.9491C49.1883 60.1662 52.8571 56.5356 52.8571 56.5356C53.4968 56.7516 54.111 56.9719 54.7126 57.1964C52.6113 67.5884 54.7211 71.9435 53.1197 77.0272Z" fill="white"/>
<path d="M27.4598 78.0269C27.4174 78.6243 27.3793 79.2598 27.3539 79.9164C27.3369 80.3528 27.32 80.8018 27.3073 81.2551C27.2776 82.3905 27.2649 83.5724 27.2692 84.7332C27.2692 86.127 27.2903 87.4996 27.32 88.7451C27.3285 89.1603 27.3412 89.5628 27.3497 89.9483C27.3497 89.9567 27.3497 89.9652 27.3497 89.9737H21.0119C20.1477 86.199 19.1945 81.8779 20.0545 79.9461C20.8764 78.0905 24.2867 78.3997 25.1213 76.5145C25.5449 75.5571 20.3468 75.4554 19.7198 72.3459C19.3258 70.3886 20.618 68.0756 24.9688 63.8179C27.2437 61.5896 30.5524 57.2006 31.5861 54.2902C32.8443 53.9852 34.2847 53.892 34.2847 53.892L32.1072 61.4582L30.6922 66.3725C30.6922 66.3725 27.7606 74.5785 27.5064 77.4466C27.4895 77.6372 27.4725 77.8321 27.4598 78.0312V78.0269Z" fill="white"/>
<path d="M41.2582 89.9696H27.35C27.35 89.9696 27.35 89.9527 27.35 89.9442C27.3373 89.5587 27.3288 89.1562 27.3204 88.741C27.2907 87.4955 27.2738 86.1229 27.2695 84.7292C27.2695 83.5684 27.278 82.3906 27.3077 81.251C27.3204 80.7977 27.3331 80.3487 27.3543 79.9123C27.3839 79.2557 27.4178 78.6202 27.4602 78.0229C27.4729 77.8238 27.4898 77.6289 27.5068 77.4382C27.761 74.5702 30.6926 66.3642 30.6926 66.3642C31.2221 66.7158 31.8068 67.0081 32.438 67.2411C35.9415 68.5671 40.7838 68.2113 45.2786 66.826C45.3506 66.8048 45.4227 66.7794 45.4947 66.7539C43.6179 70.2575 41.4997 74.9303 41.0464 80.0521C40.7499 83.3947 40.9447 86.9956 41.254 89.9696H41.2582Z" fill="#00B100"/>
<path d="M27.3496 79.9122C27.3793 79.2556 27.4132 78.6201 27.4555 78.0228C27.4132 78.6201 27.375 79.2556 27.3496 79.9122Z" fill="#00B100"/>
<path d="M27.307 81.2552C27.2773 82.3906 27.2646 83.5726 27.2689 84.7334C27.2689 83.5726 27.2773 82.3949 27.307 81.2552Z" fill="#00B100"/>
<path d="M27.3076 81.2551C27.3203 80.8018 27.333 80.3528 27.3542 79.9164C27.3373 80.3528 27.3203 80.8018 27.3076 81.2551Z" fill="#00B100"/>
<path d="M28.8197 60.9756C28.8197 60.052 28.0698 59.3022 27.1463 59.3022H15.1275C14.204 59.3022 13.4541 60.052 13.4541 60.9756V61.0222H28.8154V60.9756H28.8197Z" fill="#2F2F2F"/>
<path d="M15.1272 62.7422H27.1459C28.0695 62.7422 28.8193 61.9924 28.8193 61.0688V61.0222H13.458V61.0688C13.458 61.9924 14.2079 62.7422 15.1314 62.7422H15.1272Z" fill="#2F2F2F"/>
<path d="M27.9337 71.3675C28.082 71.5158 28.2769 71.5878 28.4717 71.5878C28.6666 71.5878 28.8615 71.5158 29.0098 71.3675L31.6957 68.6816C31.9922 68.385 31.9922 67.9063 31.6957 67.6098C31.3991 67.3132 30.9204 67.3132 30.6238 67.6098L28.4717 69.7619L27.3533 68.6435C27.0568 68.3469 26.578 68.3469 26.2815 68.6435C25.9849 68.94 25.9849 69.4187 26.2815 69.7153L27.9379 71.3717L27.9337 71.3675Z" fill="#DCDCDC"/>
<path d="M22.8378 69.0247H11.7341C11.2299 69.0247 10.8232 69.4314 10.8232 69.9355C10.8232 70.4397 11.2299 70.8464 11.7341 70.8464H22.8378C23.3419 70.8464 23.7486 70.4397 23.7486 69.9355C23.7486 69.4314 23.3419 69.0247 22.8378 69.0247Z" fill="#DCDCDC"/>
<path d="M27.9337 79.2178C28.082 79.3661 28.2769 79.4381 28.4717 79.4381C28.6666 79.4381 28.8615 79.3661 29.0098 79.2178L31.6957 76.5319C31.9922 76.2353 31.9922 75.7566 31.6957 75.4601C31.3991 75.1635 30.9204 75.1635 30.6238 75.4601L28.4717 77.6122L27.3533 76.4938C27.0568 76.1972 26.578 76.1972 26.2815 76.4938C25.9849 76.7903 25.9849 77.269 26.2815 77.5656L27.9379 79.222L27.9337 79.2178Z" fill="#DCDCDC"/>
<path d="M22.8378 76.875H11.7341C11.2299 76.875 10.8232 77.2817 10.8232 77.7858C10.8232 78.29 11.2299 78.6967 11.7341 78.6967H22.8378C23.3419 78.6967 23.7486 78.29 23.7486 77.7858C23.7486 77.2817 23.3419 76.875 22.8378 76.875Z" fill="#DCDCDC"/>
<path d="M30.6199 83.3102L28.4678 85.4623L27.3494 84.3439C27.0529 84.0473 26.5741 84.0473 26.2776 84.3439C25.981 84.6404 25.981 85.1191 26.2776 85.4157L27.934 87.0721C28.0781 87.2162 28.2687 87.2924 28.4721 87.2924C28.6754 87.2924 28.8661 87.2119 29.0101 87.0721L31.696 84.3862C31.9925 84.0897 31.9925 83.611 31.696 83.3144C31.3994 83.0179 30.9207 83.0179 30.6242 83.3144L30.6199 83.3102Z" fill="#DCDCDC"/>
<path d="M22.8378 84.7293H11.7341C11.2299 84.7293 10.8232 85.136 10.8232 85.6402C10.8232 86.1443 11.2299 86.551 11.7341 86.551H22.8378C23.3419 86.551 23.7486 86.1443 23.7486 85.6402C23.7486 85.136 23.3419 84.7293 22.8378 84.7293Z" fill="#DCDCDC"/>
<path d="M8.41284 62.8734C8.41284 61.8524 9.23894 61.0221 10.2642 61.0221H13.4584V60.9755C13.4584 60.0519 14.2083 59.3021 15.1318 59.3021H27.1506C28.0741 59.3021 28.824 60.0519 28.824 60.9755V61.0221H32.0183C33.0392 61.0221 33.8696 61.8524 33.8696 62.8734V89.9739H36.4538V60.8823C36.4538 59.0394 34.9626 57.5482 33.1197 57.5482H9.16269C7.31984 57.5482 5.82861 59.0394 5.82861 60.8823V89.9739H8.41284V62.8734Z" fill="#DCDCDC"/>
<path d="M32.018 61.0223H28.8237V61.0689C28.8237 61.9924 28.0739 62.7423 27.1504 62.7423H15.1316C14.208 62.7423 13.4582 61.9924 13.4582 61.0689V61.0223H10.2639C9.24294 61.0223 8.4126 61.8526 8.4126 62.8736V89.9741H33.8693V62.8736C33.8693 61.8526 33.039 61.0223 32.018 61.0223ZM26.2819 68.6394C26.5784 68.3428 27.0572 68.3428 27.3537 68.6394L28.4721 69.7578L30.6242 67.6057C30.9208 67.3091 31.3995 67.3091 31.6961 67.6057C31.9926 67.9022 31.9926 68.3809 31.6961 68.6775L29.0102 71.3634C28.8619 71.5117 28.667 71.5837 28.4721 71.5837C28.2772 71.5837 28.0824 71.5117 27.9341 71.3634L26.2776 69.707C25.9811 69.4104 25.9811 68.9317 26.2776 68.6351L26.2819 68.6394ZM26.2819 76.4895C26.5784 76.1929 27.0572 76.1929 27.3537 76.4895L28.4721 77.6079L30.6242 75.4558C30.9208 75.1592 31.3995 75.1592 31.6961 75.4558C31.9926 75.7523 31.9926 76.2311 31.6961 76.5276L29.0102 79.2135C28.8619 79.3618 28.667 79.4338 28.4721 79.4338C28.2772 79.4338 28.0824 79.3618 27.9341 79.2135L26.2776 77.5571C25.9811 77.2605 25.9811 76.7818 26.2776 76.4853L26.2819 76.4895ZM22.8419 86.5468H11.734C11.2298 86.5468 10.8231 86.1401 10.8231 85.636C10.8231 85.1318 11.2298 84.7251 11.734 84.7251H22.8377C23.3418 84.7251 23.7485 85.1318 23.7485 85.636C23.7485 86.1401 23.3418 86.5468 22.8377 86.5468H22.8419ZM22.8419 78.6967H11.734C11.2298 78.6967 10.8231 78.29 10.8231 77.7858C10.8231 77.2817 11.2298 76.875 11.734 76.875H22.8377C23.3418 76.875 23.7485 77.2817 23.7485 77.7858C23.7485 78.29 23.3418 78.6967 22.8377 78.6967H22.8419ZM22.8419 70.8466H11.734C11.2298 70.8466 10.8231 70.4399 10.8231 69.9357C10.8231 69.4316 11.2298 69.0249 11.734 69.0249H22.8377C23.3418 69.0249 23.7485 69.4316 23.7485 69.9357C23.7485 70.4399 23.3418 70.8466 22.8377 70.8466H22.8419ZM31.6961 84.3862L29.0102 87.0721C28.8661 87.2161 28.6755 87.2924 28.4721 87.2924C28.2688 87.2924 28.0781 87.2119 27.9341 87.0721L26.2776 85.4157C25.9811 85.1191 25.9811 84.6404 26.2776 84.3438C26.5742 84.0473 27.0529 84.0473 27.3495 84.3438L28.4679 85.4623L30.62 83.3102C30.9165 83.0136 31.3953 83.0136 31.6918 83.3102C31.9884 83.6067 31.9884 84.0854 31.6918 84.382L31.6961 84.3862Z" fill="white"/>
</g>
</g>
<defs>
<clipPath id="clip0_1135_63460">
<rect width="78" height="90" fill="white"/>
</clipPath>
</defs>
</svg>
