<svg width="78" height="90" viewBox="0 0 78 90" fill="none" xmlns="http://www.w3.org/2000/svg">
<g clip-path="url(#clip0_3037_64536)">
<mask id="mask0_3037_64536" style="mask-type:alpha" maskUnits="userSpaceOnUse" x="0" y="0" width="78" height="90">
<rect width="78" height="90" fill="#D5EDD5"/>
</mask>
<g mask="url(#mask0_3037_64536)">
<g clip-path="url(#clip1_3037_64536)">
<path d="M21.9885 77L-2 33H81L55.6219 77H21.9885Z" fill="url(#paint0_linear_3037_64536)"/>
</g>
<g clip-path="url(#clip2_3037_64536)">
<path d="M39.0003 62H13.8V96H39.0003V62Z" fill="#F5F5F5"/>
<path d="M31.1994 70.7356H6L13.8001 62H38.9996L31.1994 70.7356Z" fill="#E9E9E9"/>
<path d="M64.176 62H38.9766V96H64.176V62Z" fill="#E9E9E9"/>
<path d="M46.8005 70.7356H71.9999L64.1998 62H38.9995L46.8005 70.7356Z" fill="#DADADA"/>
</g>
<g clip-path="url(#clip3_3037_64536)">
<path d="M49.3134 44.3137C55.5618 38.0653 55.5618 27.9347 49.3134 21.6863C43.0651 15.4379 32.9344 15.4379 26.686 21.6863C20.4376 27.9347 20.4376 38.0653 26.686 44.3137C32.9344 50.5621 43.0651 50.5621 49.3134 44.3137Z" fill="url(#paint1_linear_3037_64536)"/>
<path d="M37.9999 45.515C44.9118 45.515 50.515 39.9118 50.515 32.9999C50.515 26.0881 44.9118 20.4849 37.9999 20.4849C31.0881 20.4849 25.4849 26.0881 25.4849 32.9999C25.4849 39.9118 31.0881 45.515 37.9999 45.515Z" fill="url(#paint2_linear_3037_64536)"/>
<g opacity="0.6">
<path d="M38 43.7109C43.9155 43.7109 48.7109 38.9155 48.7109 33C48.7109 27.0845 43.9155 22.2891 38 22.2891C32.0845 22.2891 27.2891 27.0845 27.2891 33C27.2891 38.9155 32.0845 43.7109 38 43.7109Z" fill="#FFC739"/>
</g>
<path opacity="0.4" d="M31.9902 33.0087C31.9902 31.8129 32.2496 30.7493 32.7684 29.818C33.2873 28.8751 34.0078 28.145 34.9301 27.6276C35.864 27.0987 36.9189 26.8342 38.0949 26.8342C39.536 26.8342 40.7696 27.2137 41.7957 27.9725C42.8218 28.7314 43.5078 29.7662 43.8536 31.077H40.6025C40.3603 30.5711 40.0145 30.1859 39.5648 29.9215C39.1267 29.657 38.6252 29.5248 38.0603 29.5248C37.1495 29.5248 36.4116 29.841 35.8467 30.4734C35.2818 31.1058 34.9993 31.9509 34.9993 33.0087C34.9993 34.0665 35.2818 34.9116 35.8467 35.544C36.4116 36.1764 37.1495 36.4926 38.0603 36.4926C38.6252 36.4926 39.1267 36.3604 39.5648 36.0959C40.0145 35.8315 40.3603 35.4463 40.6025 34.9404H43.8536C43.5078 36.2512 42.8218 37.286 41.7957 38.0449C40.7696 38.7923 39.536 39.1659 38.0949 39.1659C36.9189 39.1659 35.864 38.9072 34.9301 38.3898C34.0078 37.8609 33.2873 37.1308 32.7684 36.1994C32.2496 35.2681 31.9902 34.2045 31.9902 33.0087Z" fill="white"/>
</g>
</g>
</g>
<defs>
<linearGradient id="paint0_linear_3037_64536" x1="39.3535" y1="59.6416" x2="39.3536" y2="35.5434" gradientUnits="userSpaceOnUse">
<stop offset="0.505208" stop-color="white" stop-opacity="0.75"/>
<stop offset="1" stop-color="white" stop-opacity="0"/>
</linearGradient>
<linearGradient id="paint1_linear_3037_64536" x1="26.6866" y1="44.3127" x2="49.3124" y2="21.6869" gradientUnits="userSpaceOnUse">
<stop stop-color="#FFE38A"/>
<stop offset="1" stop-color="#FFB639"/>
</linearGradient>
<linearGradient id="paint2_linear_3037_64536" x1="25.4849" y1="32.9999" x2="50.5131" y2="32.9999" gradientUnits="userSpaceOnUse">
<stop stop-color="#FFE38A"/>
<stop offset="1" stop-color="#FFB639"/>
</linearGradient>
<clipPath id="clip0_3037_64536">
<rect width="78" height="90" fill="white"/>
</clipPath>
<clipPath id="clip1_3037_64536">
<rect width="83" height="44" fill="white" transform="translate(-2 33)"/>
</clipPath>
<clipPath id="clip2_3037_64536">
<rect width="66" height="34" fill="white" transform="translate(6 62)"/>
</clipPath>
<clipPath id="clip3_3037_64536">
<rect width="32" height="32" fill="white" transform="translate(22 17)"/>
</clipPath>
</defs>
</svg>
