<svg width="74" height="84" viewBox="0 0 74 84" fill="none" xmlns="http://www.w3.org/2000/svg">
<path d="M46.4852 5.64604C44.3665 7.0596 43.7436 9.85052 45.1012 11.886L51.1761 20.9965C52.5328 23.0284 55.3519 23.5312 57.4716 22.1213C59.5903 20.7077 60.2132 17.9168 58.8556 15.8814L52.7807 6.77081C51.424 4.73898 48.6049 4.2361 46.4852 5.64604Z" fill="white"/>
<path d="M46.4856 5.6468C44.3668 7.06036 43.7439 9.85128 45.1016 11.8867L48.1408 16.4415L55.8203 11.3264L52.781 6.77157C51.4243 4.73974 48.6053 4.23686 46.4856 5.6468Z" fill="#F44432"/>
<path d="M18.5396 19.9983C22.5935 22.8313 28.179 21.8412 31.0139 17.7901C33.8489 13.7389 32.8581 8.15735 28.8041 5.32439C24.7502 2.49143 19.1647 3.48156 16.3298 7.53267C13.4949 11.5838 14.4857 17.1654 18.5396 19.9983Z" fill="white"/>
<path d="M30.5705 17.4841C31.0455 16.8032 30.883 15.8662 30.2016 15.3914L19.1057 7.63902C18.4243 7.16426 17.4866 7.32668 17.0115 8.00759C16.5364 8.6885 16.699 9.62553 17.3804 10.1003L28.4763 17.8527C29.1577 18.3274 30.0954 18.165 30.5705 17.4841Z" fill="#F5F5F5"/>
<path d="M53.5203 26.4254C49.922 29.2639 49.3104 34.478 52.1468 38.0714C54.9873 41.6672 60.2026 42.2824 63.8009 39.4439C67.3992 36.6054 68.0107 31.3913 65.1744 27.7979C62.3339 24.2021 57.1186 23.5868 53.5203 26.4254Z" fill="white"/>
<path d="M52.5351 37.7645C53.0119 38.3658 53.8856 38.4718 54.4939 37.9935L64.34 30.2296C64.9417 29.7531 65.0478 28.8801 64.5692 28.2722C64.0923 27.6709 63.2186 27.5649 62.6104 28.0432L52.7643 35.807C52.1625 36.2836 52.0564 37.1566 52.5351 37.7645Z" fill="#F5F5F5"/>
<path d="M10.6724 22.8134C7.76656 23.8795 6.27602 26.9702 7.34725 29.7207L12.1323 42.0397C13.2035 44.7902 16.4218 46.1542 19.3276 45.0882C22.2334 44.0221 23.724 40.9314 22.6528 38.1809L17.8677 25.8619C16.7965 23.1114 13.5782 21.7474 10.6724 22.8134Z" fill="#FFC710"/>
<path d="M10.682 22.8285C7.77095 23.897 6.27738 26.9939 7.35012 29.7495L9.74799 35.9194L20.2899 32.0557L17.892 25.8858C16.8193 23.1302 13.5955 21.7639 10.6844 22.8324L10.682 22.8285Z" fill="#FFC710"/>
<path d="M45.5967 19.0216C43.1044 16.8818 39.4509 17.0491 37.4346 19.4011L28.3976 29.9232C26.3813 32.2751 26.7656 35.9104 29.2578 38.0501C31.75 40.1899 35.4036 40.0226 37.4198 37.6706L46.4569 27.1485C48.4731 24.7966 48.0889 21.1613 45.5967 19.0216Z" fill="white"/>
<path d="M45.6124 19.0121C43.1272 16.8771 39.4836 17.0446 37.4726 19.3919L32.9677 24.6437L41.9619 32.3778L46.4668 27.1259C48.4778 24.7787 48.0951 21.1511 45.61 19.0162L45.6124 19.0121Z" fill="#00B400"/>
<path opacity="0.8" d="M72.1447 46.9539L73.4027 45.8709L71.9113 44.8457V40.0626H1.90207L1.87181 44.5822L0 45.8709L1.25364 46.9539L0.0518747 48.3545L1.84155 49.3328L1.4914 103.297H71.9113V49.1379L73.3465 48.3545L72.1447 46.9539Z" fill="white"/>
<path d="M64.9982 61.1405H8.46973V61.9842H64.9982V61.1405Z" fill="#DFDFDF"/>
<path d="M18.2864 54.5244V53.414H17.1381V52.0074H15.9251V53.414H15.0083V54.5244H15.9065C15.8788 55.385 15.9899 56.4862 16.6288 57.1525C16.9714 57.5134 17.4437 57.6892 18.0178 57.6892H18.2864V56.4862H18.1197C17.8789 56.4862 17.6752 56.4214 17.5178 56.2641C17.1289 55.8755 17.1289 55.0612 17.1289 54.7743V54.5244H18.2771H18.2864Z" fill="#C9C9C9"/>
<path d="M8.46924 57.6237H9.69157V56.0968C9.69157 55.7452 9.81195 55.4491 10.0527 55.2177C10.7935 54.5144 12.3307 54.533 12.3307 54.533V53.4225C12.2566 53.4225 10.6176 53.3577 9.69157 54.061V52.6082H12.6363V51.433H8.46924V57.6329V57.6237Z" fill="#C9C9C9"/>
<path d="M37.9384 55.4588C37.9384 53.5063 36.5493 53.349 36.1141 53.349C35.9289 53.349 35.3177 53.3768 34.9103 53.8857V53.4138H33.6787V57.6242H34.901V55.6161V55.3755C34.9196 54.8851 35.3363 54.4872 35.8363 54.4872C36.3364 54.4872 36.7253 54.8851 36.7253 55.3755V57.6242H37.9476V55.4588H37.9384Z" fill="#C9C9C9"/>
<path d="M29.2663 53.3492C28.6922 53.3492 28.2014 53.5991 27.9143 54.0247C27.618 53.5898 27.1458 53.3492 26.5809 53.3492C26.0623 53.3492 25.6549 53.5343 25.3678 53.8859V53.4047H24.1362V57.6152H25.3678V55.2555C25.3771 54.8298 25.7382 54.4782 26.1735 54.4782C26.6087 54.4782 26.942 54.8298 26.942 55.2555V57.6152H28.1829V55.2555C28.1922 54.8298 28.5533 54.4782 28.9885 54.4782C29.4237 54.4782 29.7571 54.8298 29.7571 55.2555V57.6152H30.9887V55.1352C30.9887 53.997 30.3127 53.34 29.2663 53.34V53.3492Z" fill="#C9C9C9"/>
<path d="M14.4449 53.4136H13.1855V57.624H14.4449V53.4136Z" fill="#C9C9C9"/>
<path d="M13.8188 52.7947C14.2536 52.7947 14.606 52.4425 14.606 52.0081C14.606 51.5737 14.2536 51.2216 13.8188 51.2216C13.3841 51.2216 13.0317 51.5737 13.0317 52.0081C13.0317 52.4425 13.3841 52.7947 13.8188 52.7947Z" fill="#C9C9C9"/>
<path d="M32.9591 53.4146H31.6997V57.625H32.9591V53.4146Z" fill="#C9C9C9"/>
<path d="M33.1201 52.0081C33.1201 52.443 32.7682 52.7947 32.333 52.7947C31.8978 52.7947 31.5459 52.443 31.5459 52.0081C31.5459 51.5732 31.8978 51.2216 32.333 51.2216C32.7682 51.2216 33.1201 51.5732 33.1201 52.0081Z" fill="#C9C9C9"/>
<path d="M22.2166 53.4138V53.8857C22.2166 53.8857 21.8276 53.349 20.7998 53.349C19.5589 53.349 18.6885 54.3206 18.6885 55.5144C18.6885 56.7081 19.5589 57.6797 20.7998 57.6797C21.8276 57.6797 22.2166 57.143 22.2166 57.143V57.6149H23.3741V53.4045H22.2166V53.4138ZM21.0035 56.6063C20.3831 56.6063 19.9108 56.1529 19.9108 55.5144C19.9108 54.8758 20.3831 54.4224 21.0035 54.4224C21.6239 54.4224 22.0962 54.9129 22.0962 55.5144C22.0962 56.1158 21.6239 56.6063 21.0035 56.6063Z" fill="#C9C9C9"/>
</svg>
