<svg width="12" height="7" viewBox="0 0 12 7" fill="none" xmlns="http://www.w3.org/2000/svg">
<path d="M1.69411 1.10483L6.00044 4.83151L10.3068 1.10483C10.3837 1.03812 10.487 1.00076 10.5946 1.00076C10.7021 1.00076 10.8054 1.03812 10.8823 1.10483C10.9196 1.13724 10.9492 1.17592 10.9694 1.21861C10.9896 1.26129 11 1.30713 11 1.35343C11 1.39974 10.9896 1.44557 10.9694 1.48826C10.9492 1.53095 10.9196 1.56963 10.8823 1.60203L6.30114 5.56736C6.22069 5.63698 6.11279 5.67594 6.00044 5.67594C5.88809 5.67594 5.78019 5.63698 5.69974 5.56736L1.11855 1.60279C1.08103 1.57037 1.05121 1.53159 1.03085 1.48876C1.01049 1.44593 1 1.39992 1 1.35343C1 1.30694 1.01049 1.26093 1.03085 1.2181C1.05121 1.17527 1.08103 1.1365 1.11855 1.10407C1.19549 1.03735 1.29878 0.999999 1.40633 0.999999C1.51388 0.999999 1.61717 1.03735 1.69411 1.10407L1.69411 1.10483Z" fill="#D9D9D9" stroke="#868686"/>
</svg>
