<svg width="19" height="19" viewBox="0 0 19 19" fill="none" xmlns="http://www.w3.org/2000/svg">
<path d="M9.5 0C4.25379 0 0 4.25379 0 9.5C0 14.7462 4.25379 19 9.5 19C14.7462 19 19 14.7462 19 9.5C19 4.25379 14.7462 0 9.5 0ZM9.5 17.3884C5.14442 17.3884 1.61161 13.8556 1.61161 9.5C1.61161 5.14442 5.14442 1.61161 9.5 1.61161C13.8556 1.61161 17.3884 5.14442 17.3884 9.5C17.3884 13.8556 13.8556 17.3884 9.5 17.3884Z" fill="#616161"/>
<path d="M8.48218 13.2321C8.48218 13.5021 8.58942 13.761 8.7803 13.9519C8.97119 14.1428 9.23008 14.25 9.50003 14.25C9.76999 14.25 10.0289 14.1428 10.2198 13.9519C10.4107 13.761 10.5179 13.5021 10.5179 13.2321C10.5179 12.9622 10.4107 12.7033 10.2198 12.5124C10.0289 12.3215 9.76999 12.2143 9.50003 12.2143C9.23008 12.2143 8.97119 12.3215 8.7803 12.5124C8.58942 12.7033 8.48218 12.9622 8.48218 13.2321ZM8.99111 10.8571H10.009C10.1023 10.8571 10.1786 10.7808 10.1786 10.6875V4.91964C10.1786 4.82634 10.1023 4.75 10.009 4.75H8.99111C8.8978 4.75 8.82146 4.82634 8.82146 4.91964V10.6875C8.82146 10.7808 8.8978 10.8571 8.99111 10.8571Z" fill="#616161"/>
</svg>
