<svg width="32" height="32" viewBox="0 0 32 32" fill="none" xmlns="http://www.w3.org/2000/svg">
<g id="mo/ic/line_notice/02/32" clip-path="url(#clip0_100_32060)">
<path id="Union" fill-rule="evenodd" clip-rule="evenodd" d="M16.7473 7H15.2526L15.2529 8.68868C11.9925 9.02071 9.31099 11.5022 8.78351 14.7925L7.5 22.7989H13.3136C13.566 24.0714 14.6867 25 16 25C17.3133 25 18.434 24.0713 18.6864 22.7989H24.5L23.2165 14.7925C22.689 11.5024 20.0077 9.02096 16.7476 8.68873L16.7473 7ZM10.2593 15.0295L10.2863 14.8741C10.8 12.1386 13.1955 10.1433 15.9987 10.1427L16.1567 10.1447C18.9447 10.2188 21.2975 12.265 21.7405 15.0282L22.7473 21.3071H9.25215L10.2593 15.0295ZM16 23.5082C15.5092 23.5082 15.0774 23.2225 14.876 22.7993L17.1258 22.7994C16.9266 23.2196 16.4935 23.5082 16 23.5082Z" fill="#2F2F2F"/>
</g>
<defs>
<clipPath id="clip0_100_32060">
<rect width="32" height="32" fill="white"/>
</clipPath>
</defs>
</svg>
