<svg width="16" height="16" viewBox="0 0 16 16" fill="none" xmlns="http://www.w3.org/2000/svg">
<g clip-path="url(#clip0_37_8073)">
<path fill-rule="evenodd" clip-rule="evenodd" d="M13.8594 2H2.14057C0.958395 2 0 2.94447 0 4.10947V10.9636C0 12.1286 0.958395 13.0731 2.14057 13.0731H6.2793L7.6875 14.7171C7.6875 14.7171 7.7847 15 8.01865 15C8.25259 15 8.34979 14.7171 8.34979 14.7171L9.758 13.0731H13.8594C15.0416 13.0731 16 12.1286 16 10.9636V4.10947C16 2.94447 15.0416 2 13.8594 2ZM5.02592 8.05889C5.01914 9.31187 3.70474 9.34751 3.70474 9.34751C3.19616 9.34751 2.90909 9.01561 2.90909 9.01561V9.24171H1.95183V5.35021C2.01173 5.35912 2.90909 5.34798 2.90909 5.34798V6.83597C3.134 6.45729 3.78498 6.46397 3.78498 6.46397C5.20223 6.59429 5.02479 8.05889 5.02479 8.05889H5.02592ZM1.95183 5.34798C1.94731 5.34909 1.95183 5.35021 1.95183 5.35021V5.34798ZM6.71103 6.58426V9.24839H5.7741V6.61099C5.7741 6.25236 5.32203 6.15212 5.32203 6.15212V5.22213C6.81839 5.28227 6.71103 6.58426 6.71103 6.58426ZM8.93183 9.34974C8.06385 9.34974 7.36088 8.71155 7.36088 7.92524C7.36088 7.13892 8.06385 6.50073 8.93183 6.50073C9.79982 6.50073 10.5028 7.13892 10.5028 7.92524C10.5028 8.71155 9.79982 9.34974 8.93183 9.34974ZM14.0651 9.34974C14.0651 9.34974 14.0787 10.703 12.6829 10.703H12.258V9.82643H12.5145C12.5145 9.82643 13.1011 9.87989 13.0943 8.98888C13.0943 8.98888 12.9801 9.34974 12.1574 9.34974C12.1574 9.34974 10.991 9.26732 10.991 8.14576V7.7203C10.991 7.7203 11.0182 6.55753 12.2986 6.46509C12.2986 6.46509 12.8038 6.41163 13.1146 6.82372V6.5386H14.0651V9.34974ZM8.33984 7.92384C8.33984 7.60085 8.60544 7.33911 8.93319 7.33911C9.26094 7.33911 9.52654 7.60085 9.52654 7.92384C9.52654 8.24683 9.26094 8.50857 8.93319 8.50857C8.60544 8.50857 8.33984 8.24683 8.33984 7.92384ZM2.94043 7.93864C2.94043 7.63904 3.18681 7.39624 3.49083 7.39624C3.79598 7.39624 4.04236 7.63793 4.04236 7.93864C4.04236 8.23936 3.79485 8.48216 3.49083 8.48216C3.18681 8.48216 2.94043 8.23825 2.94043 7.93864ZM11.9971 7.9239C11.9971 7.60871 12.257 7.35254 12.5769 7.35254C12.8967 7.35254 13.1566 7.60871 13.1566 7.9239C13.1566 8.2391 12.8967 8.49526 12.5769 8.49526C12.257 8.49526 11.9971 8.2391 11.9971 7.9239Z" fill="white"/>
</g>
<defs>
<clipPath id="clip0_37_8073">
<rect width="16" height="16" fill="white"/>
</clipPath>
</defs>
</svg>
