<svg width="24" height="24" viewBox="0 0 24 24" fill="none" xmlns="http://www.w3.org/2000/svg">
<path fill-rule="evenodd" clip-rule="evenodd" d="M18.5858 21.4142C19.3668 22.1953 20.6332 22.1953 21.4142 21.4142C22.1953 20.6332 22.1953 19.3668 21.4142 18.5858L14.8284 12L21.4142 5.41421C22.1953 4.63317 22.1953 3.36684 21.4142 2.58579C20.6332 1.80474 19.3668 1.80474 18.5858 2.58579L12 9.17157L5.41421 2.58579C4.63317 1.80474 3.36684 1.80474 2.58579 2.58579C1.80474 3.36683 1.80474 4.63316 2.58579 5.41421L9.17157 12L2.58579 18.5858C1.80474 19.3668 1.80474 20.6332 2.58579 21.4142C3.36684 22.1953 4.63317 22.1953 5.41421 21.4142L12 14.8284L18.5858 21.4142Z" fill="#F44432"/>
</svg>
