<svg width="18" height="18" viewBox="0 0 18 18" fill="none" xmlns="http://www.w3.org/2000/svg">
<g id="mo/ic/sol_cash/02/16" clip-path="url(#clip0_100_32056)">
<path id="Vector" d="M8.99861 17.9972C13.9684 17.9972 17.9972 13.9684 17.9972 8.99861C17.9972 4.02881 13.9684 0 8.99861 0C4.02881 0 0 4.02881 0 8.99861C0 13.9684 4.02881 17.9972 8.99861 17.9972Z" fill="#FFC710"/>
<path id="Vector_2" d="M4.0113 5.90264C4.51477 4.99305 5.21297 4.28651 6.11144 3.77747C7.00991 3.27121 8.02799 3.0153 9.16568 3.0153C10.5593 3.0153 11.7554 3.38248 12.7484 4.11961C13.7415 4.85675 14.4035 5.86092 14.7401 7.13213H11.5941C11.3604 6.64256 11.0266 6.26704 10.5982 6.01113C10.1671 5.75522 9.68028 5.62726 9.13508 5.62726C8.2533 5.62726 7.53842 5.93324 6.99322 6.54798C6.44523 7.16273 6.17263 7.98053 6.17263 9.00695C6.17263 10.0334 6.44523 10.854 6.99322 11.4659C7.53842 12.0807 8.2533 12.3866 9.13508 12.3866C9.68028 12.3866 10.1699 12.2587 10.5982 12C11.0266 11.7441 11.3604 11.3713 11.5941 10.879H14.7401C14.4063 12.1502 13.7415 13.1516 12.7484 13.8832C11.7554 14.6147 10.5621 14.9791 9.16568 14.9791C8.02799 14.9791 7.00991 14.726 6.11144 14.217C5.21297 13.7079 4.51199 13.0042 4.0113 12.1001C3.5106 11.1961 3.26025 10.1641 3.26025 9.00417C3.26025 7.84423 3.5106 6.80946 4.0113 5.89986V5.90264Z" fill="white"/>
</g>
<defs>
<clipPath id="clip0_100_32056">
<rect width="18" height="18" fill="white"/>
</clipPath>
</defs>
</svg>
