<svg width="16" height="16" viewBox="0 0 16 16" fill="none" xmlns="http://www.w3.org/2000/svg">
<g clip-path="url(#clip0_37_8067)">
<path d="M11.3812 0H4.61772C2.06755 0 0 2.06755 0 4.61772V11.3812C0 13.9313 2.06755 15.9989 4.61772 15.9989H11.3812C13.9313 15.9989 15.9989 13.9313 15.9989 11.3812V4.61772C16 2.06755 13.9325 0 11.3812 0ZM14.5261 11.5001C14.5261 13.1927 13.1541 14.5657 11.4605 14.5657H4.53841C2.84585 14.5657 1.47277 13.1938 1.47277 11.5001V4.57806C1.47277 2.88551 2.84472 1.51243 4.53841 1.51243H11.4605C13.153 1.51243 14.5261 2.88437 14.5261 4.57806V11.5001Z" fill="white"/>
<path d="M7.99941 3.88818C5.70641 3.88818 3.84845 5.74728 3.84845 8.03914C3.84845 10.331 5.70754 12.1901 7.99941 12.1901C10.2913 12.1901 12.1504 10.331 12.1504 8.03914C12.1504 5.74728 10.2913 3.88818 7.99941 3.88818ZM7.99941 10.7309C6.51304 10.7309 5.30876 9.52551 5.30876 8.04028C5.30876 6.55504 6.51417 5.34963 7.99941 5.34963C9.48465 5.34963 10.6901 6.55504 10.6901 8.04028C10.6901 9.52551 9.48465 10.7309 7.99941 10.7309Z" fill="white"/>
<path d="M12.2898 4.69818C12.8241 4.69818 13.2573 4.26502 13.2573 3.73068C13.2573 3.19635 12.8241 2.76318 12.2898 2.76318C11.7554 2.76318 11.3223 3.19635 11.3223 3.73068C11.3223 4.26502 11.7554 4.69818 12.2898 4.69818Z" fill="white"/>
</g>
<defs>
<clipPath id="clip0_37_8067">
<rect width="16" height="16" fill="white"/>
</clipPath>
</defs>
</svg>
