<svg width="16" height="14" viewBox="0 0 16 14" fill="none" xmlns="http://www.w3.org/2000/svg">
<g id="_&#234;&#178;&#169;&#235;&#166;&#172;_&#235;&#170;&#168;&#235;&#147;&#156;" clip-path="url(#clip0_37_8061)">
<path id="Union" fill-rule="evenodd" clip-rule="evenodd" d="M0 6.02359C0 2.6968 3.58162 0 8 0C12.4184 0 16 2.6972 16 6.02359C16 9.34999 12.4184 12.0472 8 12.0472C7.49231 12.0472 6.99622 12.0113 6.51505 11.9434C5.62855 12.5177 3.57375 13.8479 3.43615 13.9352C3.26084 14.0469 2.99311 14.0524 3.10128 13.6379C3.18914 13.304 3.62762 11.7436 3.79506 11.1484C1.51769 10.0866 0 8.18908 0 6.02359ZM3.94799 7.93843C4.02051 7.86935 4.06237 7.77422 4.06237 7.67672H4.06279V5.00755H4.78102C5.00109 5.00755 5.1793 4.83782 5.1793 4.62861C5.1793 4.4194 5.00109 4.24967 4.78102 4.24967H2.44149C2.22183 4.24967 2.04362 4.4194 2.04362 4.62861C2.04362 4.83782 2.22142 5.00755 2.44149 5.00755H3.20199V7.67672C3.20199 7.77383 3.24343 7.86935 3.31638 7.93843C3.38766 8.00711 3.48754 8.04659 3.58991 8.04659H3.67487C3.77682 8.04659 3.87629 8.00672 3.94799 7.93843ZM7.39906 7.80146C7.46993 7.9933 7.69082 8.09435 7.89224 8.02685C8.09366 7.95935 8.19976 7.74935 8.12889 7.55712L6.96306 4.51927C6.96306 4.51927 6.96058 4.51651 6.95933 4.51572C6.88473 4.33099 6.66964 4.19599 6.4131 4.19599C6.12837 4.19599 5.89297 4.36177 5.84614 4.57848L5.84594 4.57887C5.83813 4.59454 5.82992 4.61099 5.82376 4.62822L4.67741 7.55712C4.60654 7.74935 4.71264 7.95935 4.91364 8.02685C5.11506 8.09435 5.33596 7.9933 5.40683 7.80146L5.60535 7.26226H7.20095L7.39906 7.80146ZM8.81314 8.02172H10.4029C10.6027 8.02172 10.7639 7.86698 10.7639 7.67751C10.7639 7.48804 10.6031 7.3337 10.4029 7.3337H9.31503V4.60769C9.31503 4.38033 9.1219 4.19638 8.88359 4.19638C8.64529 4.19638 8.45216 4.38033 8.45216 4.60769V7.54607C8.45216 7.56896 8.45506 7.59028 8.45879 7.61199C8.45464 7.6333 8.45216 7.65541 8.45216 7.67751C8.45216 7.86777 8.61296 8.02172 8.81314 8.02172ZM13.2622 7.90054C13.3898 8.06277 13.6323 8.09593 13.8026 7.97356C13.973 7.85159 14.0074 7.62067 13.8793 7.45844L12.667 5.94188L13.7624 4.89821C13.9108 4.75729 13.9108 4.52796 13.7624 4.38664C13.6145 4.24533 13.3737 4.24533 13.2249 4.38664L11.8688 5.6782V4.6073C11.8688 4.37993 11.6761 4.19599 11.4374 4.19599C11.1987 4.19599 11.0055 4.37993 11.0055 4.6073V7.63607C11.0055 7.86383 11.1991 8.04737 11.4374 8.04737C11.6757 8.04737 11.8688 7.86343 11.8688 7.63607V6.70174L12.1154 6.46727L13.2622 7.90054ZM5.8584 6.5738L6.39469 5.11646C6.39769 5.11649 6.40051 5.11688 6.40328 5.11727C6.40608 5.11765 6.40883 5.11803 6.41168 5.11803L6.94756 6.5738H5.8584ZM6.39427 5.11646H6.39469C6.39455 5.11645 6.39441 5.11646 6.39427 5.11646Z" fill="white"/>
</g>
<defs>
<clipPath id="clip0_37_8061">
<rect width="16" height="14" fill="white"/>
</clipPath>
</defs>
</svg>
