<svg width="32" height="32" viewBox="0 0 32 32" fill="none" xmlns="http://www.w3.org/2000/svg">
<g id="mo/ic/line_my/01/32/wt">
<path id="Union" fill-rule="evenodd" clip-rule="evenodd" d="M18.5 11C18.5 12.3807 17.3807 13.5 16 13.5C14.6193 13.5 13.5 12.3807 13.5 11C13.5 9.61929 14.6193 8.5 16 8.5C17.3807 8.5 18.5 9.61929 18.5 11ZM20 11C20 13.2091 18.2091 15 16 15C13.7909 15 12 13.2091 12 11C12 8.79086 13.7909 7 16 7C18.2091 7 20 8.79086 20 11ZM8.75 25C8.75 23.7867 9.12016 21.95 10.2087 20.4382C11.2696 18.9647 13.0444 17.75 16 17.75C18.9556 17.75 20.7304 18.9647 21.7913 20.4382C22.8798 21.95 23.25 23.7867 23.25 25H24.75C24.75 23.5466 24.3202 21.3833 23.0087 19.5618C21.6696 17.702 19.4444 16.25 16 16.25C12.5556 16.25 10.3304 17.702 8.99135 19.5618C7.67984 21.3833 7.25 23.5466 7.25 25H8.75Z" fill="#2F2F2F"/>
</g>
</svg>
