<svg width="16" height="16" viewBox="0 0 16 16" fill="none" xmlns="http://www.w3.org/2000/svg">
<path d="M15.9969 7.99844C15.9969 8.02029 15.9969 8.04213 15.9969 8.06398C15.9906 8.93778 15.844 9.78038 15.5757 10.5668C15.5632 10.6011 15.5538 10.6355 15.5413 10.6667C15.5226 10.7166 15.5039 10.7665 15.4852 10.8196C15.4789 10.8414 15.4696 10.8602 15.4633 10.882C15.3916 11.0692 15.3136 11.2534 15.2262 11.4312C15.1638 11.5654 15.0952 11.6996 15.0234 11.8276C14.9922 11.8869 14.9579 11.943 14.9267 11.9992C14.5211 12.6983 14.0125 13.3318 13.4228 13.8779C11.9969 15.1949 10.0905 16 7.99688 16C5.90328 16 6.25273 15.8533 5.45086 15.5881C4.36818 15.2261 3.39157 14.6362 2.57098 13.881C2.1404 13.4847 1.75663 13.0415 1.42278 12.561C1.29797 12.38 1.17941 12.1927 1.06708 12.0023C1.03276 11.9462 1.00156 11.8869 0.970358 11.8307C0.898595 11.6996 0.833073 11.5686 0.76755 11.4344C0.683307 11.2534 0.602184 11.0724 0.530421 10.8851C0.521061 10.8633 0.51482 10.8446 0.50858 10.8227C0.489859 10.7728 0.471139 10.7228 0.452418 10.6698C0.439938 10.6355 0.427456 10.6011 0.418096 10.5699C0.340092 10.3359 0.27145 10.0987 0.215287 9.8584C0.078002 9.28418 0.00312013 8.685 0 8.0671C0 8.04525 0 8.02341 0 8.00156C0 7.97972 0 7.95787 0 7.93603C0 7.92666 0 7.9173 0 7.90794C0.00936037 7.0435 0.156006 6.21026 0.421217 5.4332C0.433697 5.39887 0.443057 5.36454 0.455537 5.33333C0.474258 5.2834 0.492979 5.23347 0.511699 5.18042C0.51794 5.15857 0.5273 5.13985 0.533541 5.118C0.605303 4.93076 0.683308 4.74664 0.770671 4.56875C0.833074 4.43456 0.901716 4.30037 0.973479 4.17242C1.00468 4.11313 1.039 4.05695 1.0702 4.00078C1.23869 3.70743 1.4259 3.42657 1.63182 3.15818C1.74415 3.01151 1.85959 2.86795 1.98128 2.73064C2.12169 2.56836 2.27145 2.41233 2.42434 2.26253C2.47426 2.21572 2.52418 2.16891 2.5741 2.1221C2.80811 1.90677 3.05148 1.70704 3.31045 1.5198C3.96256 1.04545 4.68955 0.670958 5.46958 0.408816C5.51326 0.393212 5.55694 0.380729 5.60062 0.365126C5.9532 0.252779 6.31825 0.165399 6.68955 0.106105C7.10452 0.0374488 7.52886 0 7.95944 0C7.96568 0 7.97192 0 7.98128 0C7.98752 0 7.99376 0 8.00312 0C8.01248 0 8.01248 0 8.01872 0H8.08424C10.1466 0.0218451 12.0187 0.820753 13.4259 2.1221C14.0156 2.66823 14.5242 3.30174 14.9298 4.00078C14.9641 4.05695 14.9953 4.11625 15.0265 4.17242C15.0983 4.30349 15.1638 4.43456 15.2293 4.56875C15.3136 4.74976 15.3947 4.93076 15.4665 5.118C15.4758 5.13985 15.4821 5.15857 15.4883 5.18042C15.507 5.23035 15.5257 5.28028 15.5445 5.33333C15.5569 5.36766 15.5694 5.40199 15.5788 5.4332C15.844 6.21962 15.9906 7.0591 16 7.93603C16 7.95787 16 7.97972 16 8.00156L15.9969 7.99844Z" fill="#002387"/>
<path d="M8.08112 0V7.90794H0C0.00936037 7.0435 0.156006 6.21026 0.421217 5.4332C0.433697 5.39887 0.443057 5.36454 0.455537 5.33333C0.474258 5.2834 0.492979 5.23347 0.511699 5.18042C0.51794 5.15857 0.5273 5.13985 0.533541 5.118C0.605303 4.93076 0.683308 4.74664 0.770671 4.56875C0.833074 4.43456 0.901716 4.30037 0.973479 4.17242C1.00468 4.11313 1.039 4.05695 1.0702 4.00078C1.23869 3.70743 1.4259 3.42657 1.63182 3.15818C1.74415 3.01151 1.85959 2.86795 1.98128 2.73064C2.12168 2.56836 2.27145 2.41233 2.42434 2.26253C2.47426 2.21572 2.52418 2.16891 2.5741 2.1221C2.80811 1.90677 3.05148 1.70704 3.31045 1.5198C3.96256 1.04545 4.68955 0.670958 5.46958 0.408816C5.51326 0.393212 5.55694 0.380729 5.60062 0.365126C5.9532 0.252779 6.31825 0.165399 6.68955 0.106105C7.10452 0.0374489 7.52886 0 7.95944 0H8.08424H8.08112Z" fill="#002387"/>
<path d="M8.08112 2.72754V5.17731H1.4727V7.90796H0C0.00936037 7.04351 0.156006 6.21028 0.421217 5.43321C0.433697 5.39889 0.443057 5.36456 0.455537 5.33335C0.474258 5.28342 0.492979 5.23349 0.511699 5.18044C0.51794 5.15859 0.5273 5.13987 0.533541 5.11802C0.605303 4.93078 0.683308 4.74665 0.770671 4.56877C0.833074 4.43458 0.901716 4.30039 0.973479 4.17244C1.00468 4.11314 1.039 4.05697 1.0702 4.0008C1.23869 3.70745 1.4259 3.42658 1.63182 3.1582C1.74415 3.01153 1.85959 2.86797 1.98128 2.73066H8.08112V2.72754Z" fill="white"/>
<path d="M8.08148 0.00624137V0.880047L4.42157 2.72752H1.97852C2.11892 2.56524 2.26869 2.40921 2.42157 2.25941C2.4715 2.2126 2.52142 2.16579 2.57134 2.11898C2.80535 1.90365 3.04872 1.70392 3.30769 1.51668L5.59786 0.365126C5.95043 0.252779 6.31549 0.165399 6.68678 0.106105C7.10176 0.0374489 7.5261 0 7.95668 0C7.96292 0 7.96916 0 7.97852 0H8.08148V0.00624137Z" fill="white"/>
<path d="M8.08127 6.98727V7.90477V7.90789L6.33088 7.90477L1.46973 5.41754V5.17725H4.44633L8.08127 6.98727Z" fill="white"/>
<path d="M8.08084 7.30871V7.90477V7.90789L2.69238 5.17725H3.87179L8.08084 7.30871Z" fill="#D30D33"/>
<path d="M8.08148 0L2.69302 2.73064H1.97852C2.11892 2.56836 2.26869 2.41233 2.42157 2.26253L6.68366 0.106105C7.09864 0.0374488 7.52298 0 7.95355 0C7.95979 0 7.96603 0 7.9754 0H8.07836H8.08148Z" fill="#D30D33"/>
<path d="M8.08112 3.1582V4.74978H1.04836V7.90796H0C0.00936037 7.04352 0.156006 6.21028 0.421217 5.43322C0.433697 5.39889 0.443057 5.36456 0.455537 5.33335C0.474258 5.28342 0.492979 5.23349 0.511699 5.18044C0.51794 5.15859 0.5273 5.13987 0.533541 5.11802C0.605303 4.93078 0.683308 4.74666 0.770671 4.56877C0.833074 4.43458 0.901716 4.30039 0.973479 4.17244C1.00468 4.11315 1.039 4.05697 1.0702 4.0008C1.23869 3.70745 1.4259 3.42659 1.63182 3.1582H8.08424H8.08112Z" fill="#D30D33"/>
<path d="M4.03388 9.1438L4.43949 10.1705L5.49409 9.84908L4.94495 10.804L5.85603 11.4282L4.76399 11.5967L4.84511 12.6952L4.03388 11.9462L3.22576 12.6952L3.30377 11.5967L2.21484 11.4282L3.12592 10.804L2.57366 9.84908L3.63138 10.1705L4.03388 9.1438Z" fill="white"/>
<path d="M12.733 10.1892L12.8735 10.545L13.2387 10.4326L13.0483 10.7634L13.3635 10.9788L12.9859 11.038L13.014 11.4188L12.733 11.1598L12.4521 11.4188L12.4802 11.038L12.1025 10.9788L12.4178 10.7634L12.2274 10.4326L12.5926 10.545L12.733 10.1892Z" fill="white"/>
<path d="M14.6959 5.90112L14.8364 6.25689L15.2016 6.14454L15.0112 6.47534L15.3264 6.69067L14.9488 6.74684L14.9768 7.12757L14.6959 6.86855L14.415 7.12757L14.4431 6.74684L14.0654 6.69067L14.3807 6.47534L14.1903 6.14454L14.5555 6.25689L14.6959 5.90112Z" fill="white"/>
<path d="M10.5084 6.49414L10.6489 6.8499L11.0141 6.73756L10.8237 7.06836L11.1389 7.28369L10.7613 7.33986L10.7893 7.72059L10.5084 7.46157L10.2275 7.72059L10.2556 7.33986L9.87793 7.28369L10.1932 7.06836L10.0028 6.73756L10.368 6.8499L10.5084 6.49414Z" fill="white"/>
<path d="M12.7242 3.96948L12.8647 4.32525L13.2299 4.2129L13.0395 4.5437L13.3547 4.75903L12.9771 4.81832L13.0052 5.19905L12.7242 4.94003L12.4433 5.19905L12.4714 4.81832L12.0938 4.75903L12.409 4.5437L12.2186 4.2129L12.5838 4.32525L12.7242 3.96948Z" fill="white"/>
<path d="M13.6189 7.73633L13.7125 8.02344H14.0121L13.7687 8.20132L13.8623 8.4853L13.6189 8.31054L13.3754 8.4853L13.469 8.20132L13.2256 8.02344H13.5252L13.6189 7.73633Z" fill="white"/>
</svg>
