<svg width="16" height="16" viewBox="0 0 16 16" fill="none" xmlns="http://www.w3.org/2000/svg">
<path d="M16 8C16 8.02182 16 8.04365 16 8.06547C15.9938 9.03508 15.8129 9.96103 15.4885 10.8184C15.3575 11.1676 15.2016 11.5043 15.0269 11.8254C14.9957 11.8846 14.9614 11.9408 14.9302 12C14.5248 12.7015 14.0164 13.3344 13.4269 13.88C12.0016 15.1956 10.0959 16 8 16C5.90409 16 4.00156 15.1956 2.5731 13.88C1.98363 13.3344 1.47524 12.7015 1.06979 12C1.03548 11.9439 1.00429 11.8846 0.973099 11.8254C0.795322 11.5012 0.642495 11.1645 0.511501 10.8184C0.187135 9.96103 0.00935673 9.03508 0 8.06547C0 8.04365 0 8.02182 0 8C0 7.97817 0 7.95635 0 7.93453C0.00623782 6.96492 0.187135 6.03897 0.511501 5.18161C0.642495 4.83242 0.79844 4.49571 0.973099 4.17459C1.00429 4.11536 1.0386 4.05924 1.06979 4C1.47524 3.29852 1.98363 2.66563 2.5731 2.12003C3.99844 0.804365 5.90409 0 8 0C10.0959 0 11.9984 0.804365 13.4269 2.12003C14.0164 2.66563 14.5248 3.29852 14.9302 4C14.9645 4.05612 14.9957 4.11536 15.0269 4.17459C15.2047 4.49883 15.3575 4.83554 15.4885 5.18161C15.8129 6.03897 15.9906 6.96492 16 7.93453C16 7.95635 16 7.97817 16 8Z" fill="white"/>
<path d="M11.7956 10.675L12.1604 10.9182L11.4838 11.9097L11.1221 11.6634L11.7956 10.675Z" fill="black"/>
<path d="M12.9718 9.72408L12.2982 10.7155L11.9365 10.4723L12.6101 9.47778L12.9718 9.72408Z" fill="black"/>
<path d="M11.2534 10.3103L11.6183 10.5535L10.9447 11.5418L10.583 11.2955L11.2534 10.3103Z" fill="black"/>
<path d="M12.4321 9.35616L11.7555 10.3507L11.3906 10.1075L12.0704 9.10986L12.4321 9.35616Z" fill="black"/>
<path d="M12.3417 11.0366L12.7065 11.2798L12.0268 12.2775L11.665 12.0312L12.3417 11.0366Z" fill="black"/>
<path d="M13.5147 10.092L12.8443 11.0772L12.4795 10.834L13.153 9.8457L13.5147 10.092Z" fill="black"/>
<path d="M4.88355 4.34271L4.52246 4.09741L3.03595 6.2839L3.39703 6.5292L4.88355 4.34271Z" fill="black"/>
<path d="M4.34449 3.97528L3.9834 3.72998L2.49688 5.91647L2.85797 6.16177L4.34449 3.97528Z" fill="black"/>
<path d="M5.42261 4.71014L5.06152 4.46484L3.57501 6.65133L3.9361 6.89663L5.42261 4.71014Z" fill="black"/>
<path d="M2.86277 9.8297L2.5 10.0725L3.97099 12.2695L4.33376 12.0267L2.86277 9.8297Z" fill="black"/>
<path d="M3.94775 9.10317L3.58496 9.34595L5.05617 11.5428L5.41897 11.3L3.94775 9.10317Z" fill="black"/>
<path d="M4.06729 10.4723L3.39999 9.47461L3.03516 9.71779L3.70246 10.7123L4.06729 10.4723Z" fill="black"/>
<path d="M4.20156 10.6748L3.83984 10.918L4.50715 11.9156L4.86886 11.6725L4.20156 10.6748Z" fill="black"/>
<path d="M11.4985 4.0797L11.1357 4.32251L12.6067 6.51947L12.9695 6.27666L11.4985 4.0797Z" fill="black"/>
<path d="M12.7069 4.72325L12.0396 3.72559L11.6748 3.96877L12.3421 4.96331L12.7069 4.72325Z" fill="black"/>
<path d="M12.8412 4.92603L12.4795 5.16921L13.1468 6.16687L13.5085 5.92369L12.8412 4.92603Z" fill="black"/>
<path d="M11.6181 5.44957L10.9508 4.4519L10.5859 4.69508L11.2532 5.69275L11.6181 5.44957Z" fill="black"/>
<path d="M11.7555 5.6521L11.3906 5.89528L12.0579 6.89294L12.4228 6.64976L11.7555 5.6521Z" fill="black"/>
<path d="M10.5546 8.19308C10.6706 6.78248 9.6207 5.54492 8.20954 5.42892C6.79839 5.31292 5.56039 6.36241 5.4444 7.77302C5.32841 9.18363 6.37834 10.4212 7.7895 10.5372C9.20065 10.6532 10.4386 9.60369 10.5546 8.19308Z" fill="#0047A0"/>
<path d="M10.5206 8.48535C10.7883 7.09551 9.87819 5.75181 8.48783 5.48412C7.09747 5.21643 5.75336 6.1261 5.48567 7.51594C5.21798 8.90578 6.12809 10.2495 7.51845 10.5172C8.90881 10.7849 10.2529 9.87519 10.5206 8.48535Z" fill="#0750A0"/>
<path d="M10.5644 8.00318C10.5644 8.52071 10.4116 9.00083 10.1465 9.40302C10.1465 9.40302 10.1465 9.40614 10.1434 9.40925C10.1371 9.42172 10.1278 9.43108 10.1216 9.44043C9.89075 9.77402 9.50401 9.99226 9.06736 9.99226C8.35937 9.99226 7.78549 9.41861 7.78549 8.71089C7.78549 8.00317 7.85098 8.25259 7.96326 8.05929C7.72935 8.37106 7.35508 8.57371 6.93714 8.57371C6.22915 8.57371 5.65527 8.00006 5.65527 7.29234C5.65527 6.58462 5.72701 6.8091 5.85176 6.60956C5.86424 6.59086 5.87672 6.56904 5.89231 6.55033C6.35391 5.88003 7.1274 5.44043 8.00381 5.44043C9.4198 5.44043 10.5676 6.58774 10.5676 8.00318H10.5644Z" fill="#D82339"/>
<path d="M8.21846 7.29241C8.21846 7.52936 8.15298 7.75383 8.04072 7.94401C8.01578 7.98454 7.99083 8.02507 7.96277 8.06248C7.7289 8.37425 7.35471 8.5769 6.93687 8.5769C6.22903 8.5769 5.65527 8.00325 5.65527 7.29553C5.65527 6.58781 5.72699 6.81229 5.85172 6.61276C5.8642 6.59405 5.87667 6.57223 5.89226 6.55352C6.12613 6.22616 6.50655 6.01416 6.93999 6.01416C7.64783 6.01416 8.22158 6.58781 8.22158 7.29553L8.21846 7.29241Z" fill="#D82339"/>
<path d="M10.3483 8.711C10.3483 8.96665 10.2735 9.20048 10.1457 9.40001C10.1457 9.40001 10.1457 9.40313 10.1425 9.40625C10.1363 9.41872 10.127 9.42807 10.1207 9.43743C9.88996 9.77102 9.5033 9.98926 9.06675 9.98926C8.35891 9.98926 7.78516 9.4156 7.78516 8.70788C7.78516 8.00017 7.85064 8.24958 7.9629 8.05629C7.98784 8.01576 8.01279 7.97522 8.04085 7.93781C8.27472 7.62604 8.64579 7.42651 9.06675 7.42651C9.77459 7.42651 10.3483 8.00017 10.3483 8.70788V8.711Z" fill="#0750A0"/>
</svg>
