<svg width="16" height="16" viewBox="0 0 16 16" fill="none" xmlns="http://www.w3.org/2000/svg">
<path d="M7.99984 16.0001C7.06548 16.0001 6.16863 15.8407 5.33427 15.5439C5.3249 15.5408 5.31552 15.5377 5.30302 15.5345C3.04369 14.7253 1.25311 12.9288 0.453125 10.6667H15.5466C14.7466 12.9288 12.956 14.7253 10.6967 15.5345C10.6873 15.5377 10.6779 15.5408 10.6654 15.5439C9.83105 15.8376 8.93419 16.0001 7.99984 16.0001Z" fill="#FFD00B"/>
<path d="M15.5465 10.6666H0.453115C0.181246 9.89799 0.0249995 9.07627 0 8.22331V7.32349H0.0249996C0.053124 6.98293 0.103123 6.6455 0.174996 6.32056C0.196871 6.2237 0.218745 6.12997 0.24062 6.03312C0.299993 5.79566 0.371867 5.56133 0.453115 5.33325H15.5465C15.6278 5.56133 15.6965 5.79566 15.759 6.03312C15.784 6.12685 15.8059 6.2237 15.8247 6.32056C15.8934 6.64862 15.9434 6.98293 15.9747 7.32349H15.9997V8.22019C15.9778 9.07627 15.8184 9.89799 15.5465 10.6666Z" fill="#F91010"/>
<path d="M15.5466 5.33333H0.453125C0.809367 4.32728 1.35936 3.41183 2.06247 2.63699C2.26246 2.41828 2.47183 2.20894 2.6937 2.01211C3.44994 1.34036 4.33429 0.812341 5.30302 0.465534C5.3124 0.46241 5.32177 0.459286 5.33427 0.456161C6.16863 0.162468 7.06548 0 7.99984 0C8.93419 0 9.83105 0.159344 10.6654 0.456161C10.6748 0.459286 10.6842 0.46241 10.6967 0.465534C11.6966 0.821715 12.606 1.37473 13.3778 2.0746C13.5747 2.25269 13.7622 2.44015 13.9403 2.63699C14.6403 3.41183 15.1934 4.32728 15.5497 5.33333H15.5466Z" fill="black"/>
</svg>
