<svg width="16" height="16" viewBox="0 0 16 16" fill="none" xmlns="http://www.w3.org/2000/svg">
<path d="M15.999 8C15.999 8.02187 15.999 8.04375 15.999 8.06563C15.9928 9.03438 15.8116 9.9625 15.4899 10.8219C15.3588 11.1719 15.2026 11.5063 15.0277 11.8313C14.9965 11.8906 14.9621 11.9469 14.9309 12.0031C14.5249 12.7031 14.0158 13.3375 13.4255 13.8844C12.0701 15.1375 10.2805 15.925 8.30978 16H7.68827C5.71755 15.925 3.92797 15.1344 2.57252 13.8844C1.98224 13.3375 1.47316 12.7063 1.06715 12.0031C1.03279 11.9469 1.00156 11.8875 0.97033 11.8313C0.795433 11.5063 0.639273 11.1719 0.5081 10.8219C0.186413 9.9625 0.00526978 9.0375 -0.000976562 8.06563C-0.000976562 8.04375 -0.000976562 8.02187 -0.000976562 8C-0.000976562 7.97812 -0.000976562 7.95625 -0.000976562 7.93437C0.00526978 6.96562 0.186413 6.0375 0.5081 5.17813C0.639273 4.82813 0.795433 4.49375 0.97033 4.16875C1.00156 4.10937 1.03592 4.05312 1.06715 3.99687C1.47316 3.29687 1.98224 2.6625 2.57252 2.11563C3.92797 0.862501 5.71755 0.075 7.68827 0H8.30978C10.2805 0.075 12.0701 0.865626 13.4255 2.11563C14.0158 2.6625 14.5249 3.29375 14.9309 3.99687C14.9653 4.05312 14.9965 4.1125 15.0277 4.16875C15.2026 4.49375 15.3588 4.82813 15.4899 5.17813C15.8116 6.0375 15.9928 6.9625 15.999 7.93437C15.999 7.95625 15.999 7.97812 15.999 8Z" fill="white"/>
<path d="M11.1829 11.1842C12.9393 9.42682 12.9393 6.57758 11.1829 4.82022C9.4266 3.06286 6.57903 3.06286 4.8227 4.82022C3.06637 6.57758 3.06637 9.42682 4.8227 11.1842C6.57903 12.9415 9.4266 12.9415 11.1829 11.1842Z" fill="#C10037"/>
</svg>
