<svg width="72" height="24" viewBox="0 0 72 24" fill="none" xmlns="http://www.w3.org/2000/svg">
<g clip-path="url(#clip0_116_673)">
<path d="M7.08241 1.01392H0.0130827L1.79944 2.60087V12.6201L-0.00292969 14.194H7.06239C8.4837 14.198 9.85698 13.6756 10.9215 12.7261C10.9475 12.7039 10.9706 12.6807 10.9956 12.6585C11.1583 12.5158 11.3134 12.3645 11.4602 12.2052V3.05916C10.911 2.43091 10.2382 1.92467 9.48456 1.57258C8.73092 1.22049 7.91288 1.03023 7.08241 1.01392ZM8.64248 9.97423C8.34213 10.2697 7.9837 10.4984 7.59031 10.6457C7.19692 10.7929 6.77729 10.8555 6.35846 10.8293H5.46229V4.46943H6.35846C6.77674 4.44464 7.19549 4.50966 7.58698 4.66019C7.97847 4.81073 8.33379 5.04336 8.62946 5.34267C9.20885 5.98093 9.51444 6.82426 9.47958 7.68875C9.50371 8.10729 9.44181 8.52631 9.29776 8.9196C9.15372 9.31289 8.93062 9.67194 8.64248 9.97423Z" fill="#F68C2E"/>
<path d="M11.4639 12.2086C12.5259 10.9252 13.1077 9.30687 13.1077 7.63553C13.1077 5.96418 12.5259 4.34582 11.4639 3.0625V12.2086Z" fill="#747477"/>
<path d="M60.6667 2.03491C60.5364 2.03491 60.409 2.07388 60.3007 2.14687C60.1923 2.21986 60.1078 2.32358 60.058 2.44496C60.0081 2.56634 59.995 2.69991 60.0205 2.82876C60.0459 2.95761 60.1087 3.07594 60.2008 3.16884C60.2929 3.26174 60.4103 3.32501 60.5382 3.35064C60.666 3.37627 60.7985 3.36311 60.9188 3.31284C61.0392 3.26256 61.1421 3.17743 61.2145 3.06819C61.2869 2.95896 61.3256 2.83053 61.3256 2.69915C61.3256 2.52298 61.2562 2.35403 61.1326 2.22946C61.009 2.10489 60.8414 2.03491 60.6667 2.03491Z" fill="#A9A8A9"/>
<path d="M60.1777 5.37524H61.1941V14.0075H60.1777V5.37524Z" fill="#A9A8A9"/>
<path d="M68.81 4.92411V2.17627H67.7937V4.92411H64.6045V5.94876H67.7937V14.1257H68.81V5.94876H71.9993V4.92411H68.81Z" fill="#A9A8A9"/>
<path d="M49.9678 5.3037V14.1277H50.9831V8.30089H56.6546V7.27624H50.9831V5.30268C50.9839 4.72971 51.21 4.18044 51.6119 3.77528C52.0138 3.37012 52.5586 3.14216 53.1269 3.14135H56.6546V2.1167H53.1269C52.2891 2.11777 51.4858 2.45396 50.8936 3.05146C50.3013 3.64896 49.9683 4.45897 49.9678 5.3037Z" fill="#A9A8A9"/>
<path d="M40.7224 1.0062L37.8636 4.73227L35.0109 0.99711H30.3747L35.5486 7.72946L32.6147 11.5464L28.1328 0.996094H25.1459L20.732 11.5545L18.8295 9.4345C19.5724 9.08387 20.2023 8.52934 20.647 7.83445C21.0917 7.13956 21.3332 6.33243 21.3438 5.50553C21.3567 4.89506 21.2426 4.28865 21.009 3.72533C20.7753 3.162 20.4272 2.65425 19.987 2.23477C19.6313 1.85375 19.2031 1.54891 18.7279 1.33852C18.2527 1.12812 17.7404 1.01647 17.2214 1.01023H11.4668V3.05548C12.5289 4.3388 13.1106 5.95716 13.1106 7.62851C13.1106 9.29985 12.5289 10.9182 11.4668 12.2015V14.2034L15.0766 14.1913V10.6832L18.0905 14.1983H23.6158L26.6268 7.00564L29.7049 14.1902H35.2402L37.8877 10.7489L40.5131 14.1953H45.1502L40.1817 7.73451L45.3545 1.00016L40.7224 1.0062ZM17.5448 6.35656C17.4367 6.46738 17.3076 6.55512 17.1652 6.6146C17.0227 6.67409 16.8699 6.70409 16.7157 6.7028H14.9794V4.32946H16.7157C16.8703 4.32766 17.0236 4.35763 17.1663 4.41751C17.309 4.47738 17.4382 4.56591 17.5458 4.67774C17.6593 4.79021 17.7475 4.92591 17.8045 5.07568C17.8615 5.22545 17.886 5.38581 17.8763 5.54592C17.8826 5.69718 17.8562 5.84801 17.799 5.98798C17.7417 6.12795 17.655 6.25372 17.5448 6.35656Z" fill="#A9A8A9"/>
<path d="M4.55664 17.1589C4.96287 17.0924 5.37373 17.0586 5.78528 17.058C6.43791 17.0064 7.08533 17.2086 7.59465 17.6233C7.8105 17.8297 7.97899 18.0813 8.08831 18.3603C8.19762 18.6393 8.24513 18.939 8.2275 19.2385C8.24223 19.559 8.193 19.8793 8.08275 20.1803C7.9725 20.4813 7.80345 20.757 7.58563 20.991C7.03452 21.4579 6.32521 21.691 5.60704 21.6411C5.25657 21.6445 4.9062 21.6277 4.55765 21.5906L4.55664 17.1589ZM5.13642 21.1444C5.32876 21.1677 5.52252 21.1771 5.71619 21.1727C5.97261 21.2031 6.23253 21.1747 6.47653 21.0895C6.72053 21.0044 6.94226 20.8648 7.12522 20.6812C7.30817 20.4975 7.44759 20.2745 7.53304 20.0289C7.61849 19.7832 7.64778 19.5213 7.61869 19.2627C7.64056 19.0221 7.60823 18.7797 7.52415 18.5535C7.44007 18.3273 7.30639 18.1231 7.1331 17.9563C6.95981 17.7894 6.75139 17.6642 6.52338 17.5899C6.29537 17.5157 6.05366 17.4943 5.8163 17.5274C5.5896 17.5246 5.3632 17.5445 5.14042 17.5869L5.13642 21.1444Z" fill="#A9A8A9"/>
<path d="M9.62432 17.4569C9.62392 17.529 9.60236 17.5993 9.56237 17.659C9.52237 17.7187 9.46573 17.7651 9.39962 17.7923C9.3335 17.8195 9.26089 17.8263 9.19094 17.8119C9.12099 17.7974 9.05688 17.7624 9.00667 17.7111C8.95647 17.6599 8.92244 17.5948 8.9089 17.524C8.89535 17.4532 8.90291 17.38 8.93059 17.3135C8.95828 17.2471 9.00486 17.1904 9.06444 17.1507C9.12403 17.111 9.19394 17.09 9.26534 17.0904C9.31313 17.0893 9.36063 17.0981 9.40496 17.1161C9.44928 17.1342 9.48948 17.1612 9.52309 17.1955C9.55671 17.2298 9.58305 17.2707 9.60045 17.3157C9.61786 17.3606 9.62597 17.4087 9.62432 17.4569ZM8.97332 21.6029V18.3725H9.55334V21.6029H8.97332Z" fill="#A9A8A9"/>
<path d="M13.2934 18.3693C13.2764 18.5974 13.2664 18.8599 13.2664 19.2546V21.1293C13.2985 21.3945 13.2743 21.6637 13.1954 21.9188C13.1165 22.174 12.9847 22.4093 12.8088 22.6092C12.4796 22.8786 12.0637 23.0166 11.6402 22.9968C11.2661 23.0074 10.8961 22.9153 10.5698 22.7303L10.716 22.2791C11.0008 22.4512 11.3272 22.5406 11.6593 22.5375C12.2551 22.5375 12.6916 22.2236 12.6916 21.4049V21.0445H12.6776C12.5716 21.2186 12.4212 21.3609 12.2421 21.4566C12.063 21.5523 11.8617 21.5979 11.6593 21.5886C11.4649 21.58 11.2743 21.5317 11.0991 21.4466C10.9238 21.3615 10.7675 21.2414 10.6397 21.0936C10.5119 20.9457 10.4152 20.7732 10.3555 20.5866C10.2958 20.3999 10.2744 20.203 10.2924 20.0077C10.2695 19.7981 10.2893 19.586 10.3506 19.3843C10.4119 19.1827 10.5134 18.9958 10.6489 18.8351C10.7844 18.6744 10.951 18.5433 11.1385 18.4498C11.326 18.3564 11.5305 18.3025 11.7394 18.2916C11.9416 18.2791 12.1432 18.325 12.3206 18.4238C12.4979 18.5227 12.6436 18.6705 12.7407 18.8498H12.7537L12.7778 18.3652L13.2934 18.3693ZM12.6866 19.6402C12.6884 19.5516 12.6772 19.4632 12.6536 19.3778C12.6045 19.1971 12.4976 19.0379 12.3495 18.9249C12.2013 18.8118 12.0203 18.7514 11.8345 18.7529C11.2788 18.7529 10.8792 19.2263 10.8792 19.9784C10.8792 20.6114 11.2027 21.1424 11.8285 21.1424C12.01 21.1416 12.1865 21.0824 12.3324 20.9734C12.4783 20.8645 12.5859 20.7115 12.6396 20.5367C12.6706 20.4353 12.6861 20.3298 12.6856 20.2237L12.6866 19.6402Z" fill="#A9A8A9"/>
<path d="M14.8453 17.4567C14.8469 17.5058 14.8384 17.5547 14.8203 17.6003C14.8021 17.6459 14.7748 17.6872 14.74 17.7216C14.7052 17.756 14.6637 17.7826 14.6182 17.8C14.5726 17.8173 14.5239 17.8248 14.4753 17.8221C14.4281 17.8227 14.3813 17.8136 14.3378 17.7953C14.2942 17.777 14.2547 17.7499 14.2219 17.7157C14.189 17.6815 14.1634 17.6409 14.1467 17.5963C14.1299 17.5518 14.1223 17.5043 14.1243 17.4567C14.1231 17.4083 14.1316 17.3602 14.1494 17.3152C14.1671 17.2703 14.1937 17.2294 14.2276 17.1952C14.2614 17.1609 14.3018 17.1339 14.3463 17.1159C14.3908 17.0979 14.4384 17.0891 14.4863 17.0902C14.5342 17.0888 14.5818 17.0974 14.6263 17.1153C14.6708 17.1333 14.7111 17.1603 14.7448 17.1947C14.7784 17.2291 14.8047 17.2701 14.822 17.3151C14.8393 17.3602 14.8473 17.4084 14.8453 17.4567ZM14.1953 21.6027V18.3723H14.7743V21.6027H14.1953Z" fill="#A9A8A9"/>
<path d="M16.4464 17.4397V18.3694H17.2836V18.8157H16.4464V20.558C16.4464 20.9618 16.5616 21.1879 16.887 21.1879C17.0009 21.1906 17.1147 21.1764 17.2245 21.1456L17.2515 21.5918C17.0839 21.6505 16.9072 21.6782 16.7298 21.6735C16.6134 21.6797 16.497 21.6607 16.3885 21.6176C16.2801 21.5746 16.182 21.5087 16.101 21.4242C15.9263 21.1803 15.8458 20.8806 15.8747 20.5813V18.8166H15.374V18.3705H15.8747V17.5921L16.4464 17.4397Z" fill="#A9A8A9"/>
<path d="M19.7201 21.6019L19.6681 21.1981H19.651C19.5372 21.3511 19.3888 21.4747 19.2181 21.5584C19.0475 21.6422 18.8595 21.6837 18.6698 21.6796C18.5438 21.6887 18.4174 21.6713 18.2984 21.6287C18.1795 21.5861 18.0706 21.5191 17.9786 21.4319C17.8866 21.3448 17.8135 21.2394 17.7639 21.1223C17.7143 21.0053 17.6893 20.8791 17.6905 20.7519C17.6905 19.9685 18.3784 19.5405 19.617 19.5476V19.4789C19.6298 19.3787 19.6198 19.2769 19.5878 19.1813C19.5558 19.0856 19.5027 18.9985 19.4323 18.9266C19.362 18.8547 19.2763 18.7999 19.1818 18.7663C19.0874 18.7327 18.9865 18.7213 18.887 18.7329C18.5917 18.7319 18.3022 18.8152 18.0519 18.9731L17.9197 18.5824C18.2399 18.3914 18.6062 18.2933 18.9781 18.2988C19.9574 18.2988 20.1968 18.9751 20.1968 19.6222V20.8336C20.1932 21.0926 20.2096 21.3515 20.2458 21.6079L19.7201 21.6019ZM19.629 19.9513C18.9982 19.9382 18.2742 20.0523 18.2742 20.6772C18.2676 20.7516 18.277 20.8266 18.3018 20.897C18.3266 20.9675 18.3663 21.0317 18.418 21.0852C18.4698 21.1387 18.5324 21.1803 18.6016 21.2071C18.6708 21.2339 18.745 21.2453 18.8189 21.2405C18.9894 21.2457 19.1571 21.1959 19.2976 21.0984C19.438 21.0009 19.544 20.8608 19.6 20.6984C19.6187 20.6386 19.6282 20.5763 19.628 20.5136L19.629 19.9513Z" fill="#A9A8A9"/>
<path d="M21.1387 16.8562H21.7187V21.6009H21.1387V16.8562Z" fill="#A9A8A9"/>
<path d="M24.1251 17.0974H26.5283V17.582H24.7019V19.0821H26.3891V19.5636H24.7019V21.5978H24.1211L24.1251 17.0974Z" fill="#A9A8A9"/>
<path d="M27.8235 17.4569C27.8231 17.529 27.8016 17.5993 27.7616 17.659C27.7216 17.7187 27.665 17.7651 27.5988 17.7923C27.5327 17.8195 27.4601 17.8263 27.3902 17.8119C27.3202 17.7974 27.2561 17.7624 27.2059 17.7111C27.1557 17.6599 27.1217 17.5948 27.1081 17.524C27.0946 17.4532 27.1021 17.38 27.1298 17.3135C27.1575 17.2471 27.2041 17.1904 27.2637 17.1507C27.3232 17.111 27.3931 17.09 27.4645 17.0904C27.5123 17.0893 27.5599 17.0981 27.6042 17.1161C27.6485 17.1342 27.6887 17.1612 27.7223 17.1955C27.7559 17.2298 27.7822 17.2707 27.7996 17.3157C27.817 17.3606 27.8252 17.4087 27.8235 17.4569ZM27.1725 21.6029V18.3725H27.7526V21.6029H27.1725Z" fill="#A9A8A9"/>
<path d="M29.4201 17.4397V18.3694H30.2582V18.8157H29.4201V20.558C29.4201 20.9618 29.5352 21.1879 29.8606 21.1879C29.9749 21.1907 30.089 21.1764 30.1991 21.1456L30.2251 21.5918C30.0579 21.6505 29.8815 21.6782 29.7044 21.6735C29.5879 21.6798 29.4713 21.6608 29.3627 21.6178C29.254 21.5748 29.1558 21.5087 29.0746 21.4242C28.8999 21.1803 28.8195 20.8806 28.8483 20.5813V18.8166H28.3477V18.3705H28.8483V17.5921L29.4201 17.4397Z" fill="#A9A8A9"/>
<path d="M30.9157 19.2425C30.9157 18.9043 30.9047 18.6368 30.8887 18.3683H31.4044L31.4364 18.9003H31.4524C31.558 18.7119 31.7126 18.556 31.8993 18.4493C32.0861 18.3426 32.2982 18.2891 32.5128 18.2946C32.9534 18.2946 33.6423 18.5621 33.6423 19.6726V21.6007H33.0625V19.7361C33.0625 19.2142 32.8673 18.7761 32.3216 18.7761C32.144 18.7803 31.9722 18.8412 31.8312 18.95C31.6901 19.0589 31.5869 19.2101 31.5365 19.3818C31.5098 19.4702 31.4963 19.562 31.4965 19.6544V21.6017H30.9167L30.9157 19.2425Z" fill="#A9A8A9"/>
<path d="M34.9247 20.0916C34.9113 20.2414 34.9305 20.3923 34.9809 20.5339C35.0313 20.6754 35.1118 20.8041 35.2167 20.911C35.3216 21.0179 35.4484 21.1005 35.5882 21.1528C35.728 21.2052 35.8775 21.2262 36.0262 21.2142C36.3308 21.2226 36.6338 21.1662 36.9154 21.0487L37.0155 21.4666C36.677 21.6099 36.3121 21.6787 35.9451 21.6685C35.7311 21.6811 35.5171 21.6472 35.3173 21.5691C35.1175 21.491 34.9366 21.3705 34.7871 21.2158C34.6375 21.0611 34.5227 20.8758 34.4504 20.6724C34.3781 20.4691 34.35 20.2524 34.368 20.0371C34.3441 19.8209 34.3649 19.6021 34.4293 19.3945C34.4937 19.1868 34.6001 18.9949 34.7419 18.8309C34.8837 18.6669 35.0576 18.5344 35.2529 18.4418C35.4481 18.3491 35.6603 18.2984 35.876 18.2927C36.0648 18.2961 36.2508 18.3393 36.422 18.4195C36.5933 18.4997 36.746 18.6152 36.8703 18.7585C36.9946 18.9018 37.0878 19.0698 37.1439 19.2515C37.1999 19.4333 37.2176 19.6249 37.1957 19.814C37.1981 19.9063 37.1913 19.9987 37.1757 20.0896L34.9247 20.0916ZM36.627 19.6687C36.6434 19.552 36.6352 19.433 36.6027 19.3198C36.5702 19.2065 36.5143 19.1015 36.4385 19.0116C36.3628 18.9218 36.2691 18.8491 36.1635 18.7984C36.0579 18.7478 35.9428 18.7203 35.8259 18.7177C35.5854 18.7337 35.3597 18.8404 35.1938 19.0167C35.0279 19.1929 34.934 19.4257 34.9307 19.6687H36.627Z" fill="#A9A8A9"/>
<path d="M37.8385 21.0031C38.0725 21.145 38.3386 21.2242 38.6116 21.2332C39.0371 21.2332 39.2344 21.0223 39.2344 20.7527C39.2344 20.4832 39.0652 20.3217 38.6386 20.1602C38.0588 19.9492 37.7845 19.6312 37.7865 19.2435C37.7924 19.1059 37.8264 18.971 37.8865 18.8473C37.9466 18.7236 38.0314 18.6138 38.1356 18.5247C38.2397 18.4356 38.361 18.3691 38.4919 18.3296C38.6228 18.29 38.7603 18.278 38.8959 18.2946C39.1707 18.2906 39.4417 18.3603 39.681 18.4965L39.5358 18.9235C39.3379 18.8006 39.1103 18.7349 38.8779 18.7337C38.5335 18.7337 38.3462 18.9356 38.3462 19.1769C38.3462 19.4454 38.5344 19.5646 38.955 19.7291C39.5077 19.9371 39.7941 20.2177 39.7961 20.7002C39.7961 21.2736 39.3545 21.6744 38.5945 21.6744C38.28 21.6786 37.9696 21.601 37.6934 21.4493L37.8385 21.0031Z" fill="#A9A8A9"/>
<path d="M40.4655 21.0031C40.6994 21.1453 40.9656 21.2245 41.2385 21.2332C41.6641 21.2332 41.8613 21.0223 41.8613 20.7527C41.8613 20.4832 41.6921 20.3217 41.2656 20.1602C40.6858 19.9492 40.4115 19.6312 40.4135 19.2435C40.4194 19.1059 40.4534 18.971 40.5135 18.8473C40.5735 18.7236 40.6583 18.6138 40.7625 18.5247C40.8667 18.4356 40.988 18.3691 41.1189 18.3296C41.2497 18.29 41.3873 18.278 41.5229 18.2946C41.7977 18.2906 42.0686 18.3603 42.308 18.4965L42.1627 18.9235C41.9649 18.8006 41.7373 18.7349 41.5049 18.7337C41.1604 18.7337 40.9732 18.9356 40.9732 19.1769C40.9732 19.4454 41.1614 19.5646 41.582 19.7291C42.1347 19.9371 42.4211 20.2177 42.4231 20.7002C42.4231 21.2736 41.9815 21.6744 41.2215 21.6744C40.9069 21.6786 40.5966 21.601 40.3203 21.4493L40.4655 21.0031Z" fill="#A9A8A9"/>
<path d="M44.5986 17.152C44.9654 17.089 45.337 17.059 45.7091 17.0621C46.158 17.028 46.6038 17.1613 46.9617 17.4366C47.091 17.5561 47.193 17.7023 47.261 17.8652C47.3289 18.0281 47.3611 18.2039 47.3553 18.3805C47.3639 18.5563 47.3376 18.732 47.2779 18.8974C47.2182 19.0628 47.1264 19.2145 47.0078 19.3436C46.8251 19.5145 46.6101 19.6464 46.3755 19.7312C46.141 19.8161 45.8918 19.8521 45.643 19.8372C45.4864 19.8431 45.3296 19.8292 45.1764 19.7959V21.6028H44.5996L44.5986 17.152ZM45.1754 19.3214C45.3319 19.3602 45.4929 19.3772 45.654 19.3718C46.3549 19.3718 46.7765 19.0256 46.7765 18.4098C46.7765 17.8132 46.3549 17.5224 45.7211 17.5224C45.5381 17.5194 45.3554 17.5346 45.1754 17.5679V19.3214Z" fill="#A9A8A9"/>
<path d="M48.0762 16.8562H48.6562V21.6009H48.0762V16.8562Z" fill="#A9A8A9"/>
<path d="M51.4203 21.6018L51.3683 21.1981H51.3513C51.2374 21.3511 51.089 21.4747 50.9183 21.5584C50.7477 21.6421 50.5597 21.6837 50.37 21.6796C50.244 21.6887 50.1176 21.6713 49.9987 21.6287C49.8797 21.5861 49.7708 21.5191 49.6788 21.4319C49.5868 21.3448 49.5137 21.2393 49.4641 21.1223C49.4145 21.0053 49.3895 20.8791 49.3907 20.7519C49.3907 19.9685 50.0786 19.5405 51.3172 19.5475V19.4789C51.33 19.3787 51.3201 19.2769 51.2881 19.1812C51.2561 19.0855 51.2029 18.9985 51.1325 18.9266C51.0622 18.8547 50.9765 18.7999 50.882 18.7663C50.7876 18.7327 50.6868 18.7213 50.5872 18.7329C50.292 18.7319 50.0024 18.8152 49.7521 18.9731L49.62 18.5824C49.9402 18.3915 50.3064 18.2934 50.6784 18.2988C51.6577 18.2988 51.897 18.9751 51.897 19.6222V20.8336C51.8936 21.0926 51.91 21.3515 51.946 21.6079L51.4203 21.6018ZM51.3292 19.9513C50.6984 19.9382 49.9764 20.0523 49.9764 20.6772C49.9698 20.7516 49.9792 20.8266 50.004 20.897C50.0288 20.9675 50.0685 21.0317 50.1202 21.0852C50.172 21.1387 50.2346 21.1803 50.3038 21.2071C50.373 21.2339 50.4472 21.2453 50.5212 21.2404C50.6916 21.2457 50.8593 21.1959 50.9998 21.0984C51.1403 21.0009 51.2462 20.8608 51.3022 20.6984C51.321 20.6386 51.3304 20.5763 51.3302 20.5136L51.3292 19.9513Z" fill="#A9A8A9"/>
<path d="M53.5177 17.4397V18.3694H54.3559V18.8157H53.5177V20.558C53.5177 20.9618 53.6329 21.1879 53.9593 21.1879C54.0732 21.1906 54.187 21.1764 54.2968 21.1456L54.3228 21.5918C54.1555 21.6505 53.9791 21.6782 53.8021 21.6735C53.6855 21.6799 53.569 21.6609 53.4603 21.6179C53.3517 21.5748 53.2534 21.5088 53.1723 21.4242C52.9976 21.1803 52.9171 20.8806 52.946 20.5813V18.8166H52.4453V18.3705H52.946V17.5921L53.5177 17.4397Z" fill="#A9A8A9"/>
<path d="M55.0668 21.6028V18.8156H54.6182V18.3693H55.0668V18.2179C55.0515 18.0137 55.0765 17.8084 55.1404 17.614C55.2044 17.4195 55.3059 17.2399 55.4392 17.0853C55.6506 16.8865 55.9302 16.7779 56.2193 16.7824C56.3907 16.7795 56.561 16.8114 56.7199 16.8763L56.6428 17.3286C56.5247 17.2771 56.397 17.252 56.2683 17.2549C55.7767 17.2549 55.6465 17.695 55.6465 18.1947V18.3693H56.4215V18.8156H55.6495V21.6028H55.0668Z" fill="#A9A8A9"/>
<path d="M59.7622 19.9544C59.7806 20.1753 59.7528 20.3976 59.6806 20.607C59.6084 20.8164 59.4934 21.0081 59.3431 21.1699C59.1927 21.3317 59.0104 21.4598 58.8078 21.546C58.6052 21.6323 58.387 21.6747 58.1671 21.6705C57.9544 21.6734 57.7434 21.6313 57.5478 21.5471C57.3521 21.4629 57.1761 21.3384 57.0309 21.1815C56.8858 21.0247 56.7748 20.839 56.7051 20.6363C56.6354 20.4337 56.6085 20.2186 56.6261 20.0048C56.6069 19.784 56.6341 19.5616 56.7058 19.3521C56.7776 19.1425 56.8922 18.9506 57.0424 18.7887C57.1926 18.6268 57.3749 18.4987 57.5775 18.4125C57.7801 18.3264 57.9984 18.2842 58.2182 18.2887C58.4316 18.284 58.6435 18.3248 58.8402 18.4083C59.0369 18.4918 59.2139 18.6162 59.3596 18.7734C59.5054 18.9307 59.6166 19.1171 59.6859 19.3206C59.7553 19.5241 59.7813 19.74 59.7622 19.9544ZM57.2199 19.9917C57.2199 20.6983 57.6204 21.2354 58.1922 21.2354C58.7639 21.2354 59.1684 20.7084 59.1684 19.9745C59.1684 19.4274 58.8951 18.7359 58.2022 18.7359C57.5092 18.7359 57.2189 19.3799 57.2189 19.9917H57.2199Z" fill="#A9A8A9"/>
<path d="M60.4997 19.3758C60.4997 18.9942 60.4907 18.6691 60.4736 18.3663H60.9853L61.0073 19.0012H61.0273C61.0843 18.8041 61.2011 18.6299 61.3613 18.5032C61.5215 18.3764 61.7171 18.3035 61.9205 18.2946C61.9751 18.2935 62.0296 18.2992 62.0828 18.3118V18.8649C62.0168 18.8518 61.9497 18.8461 61.8825 18.8478C61.6838 18.8555 61.4948 18.9362 61.3511 19.0748C61.2074 19.2133 61.1189 19.4001 61.1025 19.5998C61.0865 19.6905 61.0785 19.7824 61.0784 19.8744V21.6017H60.4987L60.4997 19.3758Z" fill="#A9A8A9"/>
<path d="M62.695 19.2425C62.695 18.9043 62.685 18.6368 62.6689 18.3682H63.1756L63.2066 18.8891H63.2227C63.3195 18.7046 63.4656 18.5511 63.6446 18.446C63.8235 18.3409 64.028 18.2884 64.235 18.2945C64.4338 18.293 64.628 18.3549 64.7898 18.4713C64.9517 18.5877 65.0729 18.7527 65.1362 18.9427H65.1502C65.239 18.7779 65.3624 18.6345 65.5117 18.5227C65.712 18.3669 65.9598 18.2862 66.2126 18.2945C66.6412 18.2945 67.271 18.5721 67.271 19.6967V21.6007H66.7023V19.7725C66.7023 19.1456 66.473 18.7751 66.0013 18.7751C65.846 18.7813 65.6962 18.8353 65.5722 18.9299C65.4481 19.0245 65.3557 19.155 65.3074 19.304C65.2768 19.3993 65.2609 19.4987 65.2604 19.5988V21.5996H64.6906V19.6594C64.6906 19.1445 64.4653 18.774 64.0247 18.774C63.8583 18.784 63.699 18.8457 63.5688 18.9508C63.4386 19.0558 63.3439 19.199 63.2978 19.3606C63.2681 19.4542 63.2532 19.552 63.2537 19.6503V21.5996H62.6839L62.695 19.2425Z" fill="#A9A8A9"/>
</g>
<defs>
<clipPath id="clip0_116_673">
<rect width="72" height="24" fill="white"/>
</clipPath>
</defs>
</svg>
