<svg width="10" height="10" viewBox="0 0 10 10" fill="none" xmlns="http://www.w3.org/2000/svg">
<g clip-path="url(#clip0_116_638)">
<mask id="mask0_116_638" style="mask-type:luminance" maskUnits="userSpaceOnUse" x="0" y="0" width="10" height="10">
<path d="M10 0H0V10H10V0Z" fill="white"/>
</mask>
<g mask="url(#mask0_116_638)">
<path d="M8.74134 1.55245C7.90677 0.594298 6.68892 0.0303214 5.40306 0H0.012364L1.3724 1.20679V8.80534L0 10H5.3907C6.47873 10 7.52967 9.60582 8.33333 8.88417C8.35187 8.86598 8.37042 8.84779 8.38897 8.83566C8.51261 8.7265 8.63006 8.61128 8.74134 8.48999C9.60064 7.53184 10.0457 6.2826 9.99628 5.0091C10.0457 3.74166 9.59445 2.50455 8.74134 1.55245ZM6.59001 6.79806C6.13254 7.24682 5.49579 7.48332 4.84668 7.44694H4.16667V2.61977H4.85287C5.50198 2.58338 6.13254 2.82595 6.58382 3.28077C7.02893 3.77198 7.25766 4.40873 7.23293 5.06367C7.27003 5.70042 7.04129 6.33111 6.59619 6.79806H6.59001Z" fill="#FE8235"/>
</g>
</g>
<defs>
<clipPath id="clip0_116_638">
<rect width="10" height="10" fill="white"/>
</clipPath>
</defs>
</svg>
