<svg width="30" height="30" viewBox="0 0 30 30" fill="none" xmlns="http://www.w3.org/2000/svg">
<path fill-rule="evenodd" clip-rule="evenodd" d="M6 9H23C23.5525 9 24 8.552 24 8C24 7.4475 23.5525 7 23 7H6C5.448 7 5 7.4475 5 8C5 8.552 5.448 9 6 9ZM23 14H10C9.448 14 9 14.4475 9 15C9 15.552 9.448 16 10 16H23C23.5525 16 24 15.552 24 15C24 14.4475 23.5525 14 23 14ZM23 21H14C13.448 21 13 21.4475 13 22C13 22.552 13.448 23 14 23H23C23.5525 23 24 22.552 24 22C24 21.4475 23.5525 21 23 21Z" fill="#555555"/>
</svg>
