<svg width="24" height="24" viewBox="0 0 24 24" fill="none" xmlns="http://www.w3.org/2000/svg">
<path d="M11.4365 21.915C11.1165 21.885 10.8065 21.835 10.4965 21.775C10.1865 21.715 9.88647 21.635 9.58647 21.545C9.28647 21.455 8.99647 21.345 8.71647 21.225C8.15647 20.985 7.61647 20.695 7.10647 20.345C6.85647 20.175 6.60647 19.995 6.37647 19.795C6.14647 19.595 5.91647 19.395 5.70647 19.185C5.49647 18.975 5.28647 18.745 5.09647 18.515C4.90647 18.285 4.71647 18.035 4.54647 17.785C4.37647 17.535 4.21647 17.265 4.07647 17.005C3.93647 16.745 3.79647 16.455 3.67647 16.175C3.47647 15.655 3.73647 15.085 4.25647 14.885C4.74647 14.695 5.29647 14.925 5.51647 15.395C5.60647 15.615 5.71647 15.835 5.83647 16.045C5.95647 16.255 6.07647 16.465 6.21647 16.665C6.35647 16.865 6.49647 17.055 6.64647 17.245C7.10647 17.805 7.64647 18.295 8.23647 18.695C8.43647 18.835 8.64647 18.955 8.85647 19.075C9.06647 19.195 9.28647 19.295 9.51647 19.395C9.96647 19.585 10.4365 19.735 10.9165 19.835C11.1665 19.885 11.4065 19.925 11.6565 19.945C12.1665 19.995 12.6765 19.995 13.1865 19.945C13.6865 19.895 14.1765 19.795 14.6465 19.645C14.8765 19.575 15.1065 19.485 15.3365 19.395C15.5565 19.305 15.7765 19.195 15.9865 19.075C16.1965 18.965 16.4065 18.835 16.6065 18.695C17.2065 18.295 17.7465 17.805 18.2065 17.245C18.3565 17.065 18.5065 16.865 18.6365 16.665C18.7165 16.545 18.7965 16.405 18.8765 16.275L17.3965 15.735C17.1365 15.645 17.0065 15.355 17.0965 15.095C17.1365 14.995 17.1965 14.915 17.2765 14.855L20.7265 12.785C20.9565 12.625 21.2665 12.685 21.4265 12.905C21.4565 12.955 21.4865 13.005 21.4965 13.065L22.8165 16.865C22.8865 17.135 22.7265 17.405 22.4665 17.475C22.3665 17.505 22.2665 17.495 22.1665 17.465L20.7865 16.965V16.995C20.6265 17.265 20.4665 17.525 20.2965 17.775C20.1265 18.025 19.9465 18.275 19.7465 18.505C19.5465 18.735 19.3465 18.965 19.1365 19.175C18.4865 19.825 17.7565 20.375 16.9465 20.815C16.6765 20.965 16.3965 21.095 16.1165 21.215C15.8265 21.335 15.5365 21.445 15.2465 21.535C14.9465 21.625 14.6465 21.705 14.3365 21.765C14.0265 21.825 13.7065 21.875 13.3965 21.905C12.7565 21.975 12.1065 21.975 11.4565 21.905L11.4365 21.915ZM3.32647 11.885L2.01647 8.075C1.94647 7.805 2.10647 7.535 2.36647 7.465C2.46647 7.435 2.56647 7.445 2.66647 7.475L4.04647 7.985C4.04647 7.985 4.04647 7.965 4.05647 7.955C4.19647 7.685 4.36647 7.425 4.52647 7.175C4.68647 6.925 4.87647 6.675 5.07647 6.445C5.27647 6.215 5.47647 5.985 5.68647 5.775C5.89647 5.565 6.12647 5.355 6.36647 5.165C6.60647 4.975 6.84647 4.785 7.09647 4.615C7.34647 4.445 7.60647 4.285 7.87647 4.135C8.14647 3.985 8.42647 3.855 8.70647 3.735C8.98647 3.615 9.28647 3.505 9.57647 3.415C9.86647 3.325 10.1865 3.245 10.4865 3.185C10.7865 3.125 11.1165 3.075 11.4265 3.045C12.0665 2.985 12.7165 2.985 13.3665 3.045C13.6865 3.075 13.9965 3.125 14.3065 3.185C14.6165 3.245 14.9165 3.325 15.2165 3.415C15.5065 3.505 15.8065 3.615 16.0865 3.735C16.3665 3.855 16.6465 3.985 16.9165 4.135C17.1865 4.285 17.4465 4.445 17.6965 4.615C17.9465 4.785 18.1965 4.965 18.4265 5.165C18.6565 5.355 18.8865 5.565 19.0965 5.775C19.3065 5.985 19.5165 6.215 19.7065 6.445C19.8965 6.675 20.0865 6.925 20.2565 7.175C20.4265 7.425 20.5865 7.695 20.7365 7.955C20.8865 8.215 21.0165 8.505 21.1365 8.785C21.3665 9.285 21.1565 9.885 20.6565 10.115C20.1565 10.345 19.5565 10.135 19.3265 9.635C19.3165 9.615 19.3065 9.595 19.2965 9.565C19.1065 9.115 18.8765 8.695 18.6065 8.295C18.0665 7.495 17.3765 6.805 16.5765 6.265C15.7665 5.715 14.8565 5.335 13.8965 5.135C13.6465 5.085 13.4065 5.045 13.1565 5.025C12.6465 4.975 12.1365 4.975 11.6265 5.025C11.3765 5.055 11.1265 5.085 10.8865 5.135C9.92647 5.335 9.01647 5.715 8.20647 6.265C7.80647 6.535 7.43647 6.845 7.09647 7.185C6.75647 7.525 6.45647 7.895 6.18647 8.295C6.10647 8.415 6.02647 8.555 5.94647 8.685L7.42647 9.225C7.68647 9.315 7.81647 9.605 7.72647 9.865C7.68647 9.965 7.62647 10.045 7.54647 10.105L4.08647 12.175C3.85647 12.335 3.54647 12.275 3.38647 12.055C3.35647 12.005 3.32647 11.955 3.31647 11.895L3.32647 11.885Z" fill="#C8C8C8"/>
</svg>
