<svg width="24" height="24" viewBox="0 0 24 24" fill="none" xmlns="http://www.w3.org/2000/svg">
<path d="M20 21.95H14C13.45 21.95 13 21.5 13 20.95V16.21C13 16.07 12.89 15.96 12.75 15.96H11.25C11.11 15.96 11 16.07 11 16.21V20.95C11 21.5 10.55 21.95 10 21.95H4C3.45 21.95 3 21.5 3 20.95V9.5C3 8.85 3.32 8.24 3.85 7.87L11.42 2.18C11.77 1.94 12.23 1.94 12.57 2.18L20.15 7.87C20.68 8.24 21 8.85 21 9.5V20.95C21 21.5 20.55 21.95 20 21.95ZM15.25 19.95H18.75C18.89 19.95 19 19.84 19 19.7V10.01C19 9.69 18.84 9.38 18.58 9.2L12.29 4.42C12.12 4.3 11.89 4.3 11.71 4.42L5.42 9.2C5.16 9.39 5 9.69 5 10.01V19.7C5 19.84 5.11 19.95 5.25 19.95H8.75C8.89 19.95 9 19.84 9 19.7V14.96C9 14.41 9.45 13.96 10 13.96H14C14.55 13.96 15 14.41 15 14.96V19.7C15 19.84 15.11 19.95 15.25 19.95Z" fill="#C8C8C8"/>
</svg>
