<svg width="24" height="24" viewBox="0 0 24 24" fill="none" xmlns="http://www.w3.org/2000/svg">
<path d="M11.4225 22.9325C11.0725 22.8925 10.7225 22.8425 10.3825 22.7725C10.0425 22.7025 9.7025 22.6125 9.3725 22.5125C8.7225 22.3125 8.0825 22.0425 7.4825 21.7125L9.8725 17.3225C10.1825 17.4925 10.5125 17.6325 10.8525 17.7325C11.0225 17.7825 11.2025 17.8325 11.3825 17.8725C11.5625 17.9125 11.7425 17.9325 11.9325 17.9525C12.3125 17.9925 12.6825 17.9925 13.0625 17.9525C13.4225 17.9125 13.7825 17.8425 14.1325 17.7325C14.6425 17.5725 15.1225 17.3325 15.5625 17.0425C15.7125 16.9425 15.8525 16.8425 15.9825 16.7225C16.1125 16.6025 16.2525 16.4925 16.3725 16.3725C16.4925 16.2525 16.6225 16.1125 16.7325 15.9825C16.8425 15.8525 16.9525 15.7025 17.0525 15.5525C17.1525 15.4025 17.2425 15.2525 17.3225 15.1025C17.4025 14.9525 17.4825 14.7825 17.5525 14.6225C17.6225 14.4625 17.6825 14.2925 17.7325 14.1225C17.7825 13.9525 17.8325 13.7725 17.8725 13.6025C17.9125 13.4225 17.9425 13.2425 17.9525 13.0525C17.9925 12.6725 17.9925 12.3025 17.9525 11.9225C17.9325 11.7425 17.9025 11.5625 17.8725 11.3825C17.8325 11.2025 17.7925 11.0325 17.7325 10.8525C17.6825 10.6825 17.6225 10.5125 17.5425 10.3525C17.4625 10.1925 17.3925 10.0325 17.3125 9.8725C17.2325 9.7125 17.1325 9.5625 17.0325 9.4225C16.9325 9.2825 16.8325 9.1325 16.7125 9.0025C16.5925 8.8725 16.4825 8.7325 16.3625 8.6125C16.1125 8.3625 15.8425 8.1325 15.5425 7.9425L18.3425 3.8025C18.6225 3.9925 18.8925 4.1925 19.1525 4.4025C19.4125 4.6125 19.6625 4.8425 19.9025 5.0825C20.1425 5.3225 20.3725 5.5725 20.5825 5.8225C20.7925 6.0725 21.0025 6.3525 21.1825 6.6225C21.9525 7.7625 22.4925 9.0325 22.7625 10.3825C22.8325 10.7225 22.8825 11.0725 22.9225 11.4225C22.9525 11.7725 22.9725 12.1325 22.9725 12.4925C22.9725 12.8525 22.9525 13.2025 22.9125 13.5625C22.8825 13.9125 22.8225 14.2625 22.7525 14.6025C22.5425 15.6125 22.1925 16.5925 21.6925 17.4925C21.5325 17.7925 21.3625 18.0725 21.1725 18.3525C20.9825 18.6325 20.7825 18.9025 20.5725 19.1625C20.3625 19.4225 20.1325 19.6725 19.8925 19.9125C19.6525 20.1525 19.4025 20.3725 19.1425 20.5925C18.8825 20.8125 18.6125 21.0125 18.3325 21.1925C18.0525 21.3725 17.7625 21.5625 17.4625 21.7225C17.1625 21.8825 16.8625 22.0325 16.5425 22.1625C16.2225 22.2925 15.9025 22.4125 15.5725 22.5125C15.2425 22.6125 14.9025 22.7025 14.5625 22.7725C13.8625 22.9125 13.1625 22.9825 12.4525 22.9825C12.0925 22.9825 11.7425 22.9725 11.3825 22.9425L11.4225 22.9325ZM4.3925 19.1625C3.5225 18.1125 2.8725 16.9125 2.4725 15.6125C2.2625 14.9425 2.1225 14.2625 2.0525 13.5625C1.9825 12.8525 1.9825 12.1325 2.0525 11.4225L7.0225 11.9325C7.0025 12.1125 6.9925 12.3025 6.9925 12.4925C6.9925 12.6825 7.0025 12.8725 7.0225 13.0525C7.0725 13.5925 7.2125 14.1225 7.4225 14.6225C7.6325 15.1125 7.9025 15.5725 8.2425 15.9825C8.3625 16.1225 8.4725 16.2525 8.6025 16.3725L5.0725 19.9125C4.8325 19.6725 4.6125 19.4225 4.3925 19.1625ZM2.8225 8.4125C3.0825 7.7925 3.4125 7.1925 3.7925 6.6325C3.9825 6.3525 4.1825 6.0825 4.3925 5.8225C4.6025 5.5625 4.8325 5.3125 5.0725 5.0725C5.7825 4.3625 6.6025 3.7525 7.4825 3.2725C8.0825 2.9525 8.7125 2.6825 9.3625 2.4725C9.6925 2.3725 10.0325 2.2825 10.3825 2.2125C10.7225 2.1425 11.0725 2.0925 11.4225 2.0525C12.1325 1.9825 12.8525 1.9825 13.5625 2.0525C13.9125 2.0925 14.2625 2.1425 14.6025 2.2125C14.9425 2.2825 15.2825 2.3725 15.6125 2.4725L14.1325 7.2425C13.7825 7.1325 13.4225 7.0625 13.0625 7.0225C12.6825 6.9825 12.3125 6.9825 11.9325 7.0225C11.7525 7.0425 11.5725 7.0725 11.3925 7.1025C11.2125 7.1425 11.0425 7.1825 10.8625 7.2425C10.6925 7.2925 10.5225 7.3525 10.3625 7.4225C10.2025 7.4925 10.0425 7.5725 9.8825 7.6525C9.7225 7.7325 9.5725 7.8325 9.4325 7.9325C9.2925 8.0325 9.1425 8.1325 9.0125 8.2525C8.8825 8.3725 8.7425 8.4825 8.6225 8.6125C8.5025 8.7425 8.3825 8.8725 8.2625 9.0025C8.1425 9.1325 8.0425 9.2825 7.9425 9.4325C7.8425 9.5825 7.7525 9.7325 7.6725 9.8825C7.5925 10.0325 7.5125 10.2025 7.4425 10.3625L2.8225 8.4125Z" fill="#C8C8C8"/>
</svg>
