<svg width="24" height="24" viewBox="0 0 24 24" fill="none" xmlns="http://www.w3.org/2000/svg">
<circle cx="12" cy="12" r="9" stroke="#2F2B3D" stroke-opacity="0.9" stroke-width="1.5" stroke-linecap="round" stroke-linejoin="round"/>
<path d="M9.37596 16.084C9.1462 16.4286 9.23933 16.8943 9.58397 17.124C9.92862 17.3538 10.3943 17.2607 10.624 16.916L10 16.5L9.37596 16.084ZM12 13.5L12.624 13.084C12.4849 12.8753 12.2508 12.75 12 12.75C11.7492 12.75 11.5151 12.8753 11.376 13.084L12 13.5ZM13.376 16.916C13.6057 17.2607 14.0714 17.3538 14.416 17.124C14.7607 16.8943 14.8538 16.4286 14.624 16.084L14 16.5L13.376 16.916ZM11.25 13.5C11.25 13.9142 11.5858 14.25 12 14.25C12.4142 14.25 12.75 13.9142 12.75 13.5H12H11.25ZM12 11.5L11.7628 10.7885C11.4566 10.8906 11.25 11.1772 11.25 11.5H12ZM15.2372 11.2115C15.6301 11.0805 15.8425 10.6558 15.7115 10.2628C15.5805 9.86987 15.1558 9.6575 14.7628 9.78849L15 10.5L15.2372 11.2115ZM9.23717 9.78849C8.84421 9.6575 8.41947 9.86987 8.28849 10.2628C8.1575 10.6558 8.36987 11.0805 8.76283 11.2115L9 10.5L9.23717 9.78849ZM11.7628 12.2115C12.1558 12.3425 12.5805 12.1301 12.7115 11.7372C12.8425 11.3442 12.6301 10.9195 12.2372 10.7885L12 11.5L11.7628 12.2115ZM10 16.5L10.624 16.916L12.624 13.916L12 13.5L11.376 13.084L9.37596 16.084L10 16.5ZM12 13.5L11.376 13.916L13.376 16.916L14 16.5L14.624 16.084L12.624 13.084L12 13.5ZM12 13.5H12.75V11.5H12H11.25V13.5H12ZM12 11.5L12.2372 12.2115L15.2372 11.2115L15 10.5L14.7628 9.78849L11.7628 10.7885L12 11.5ZM9 10.5L8.76283 11.2115L11.7628 12.2115L12 11.5L12.2372 10.7885L9.23717 9.78849L9 10.5Z" fill="#2F2B3D" fill-opacity="0.9"/>
<circle cx="12" cy="7.5" r="0.5" fill="#2F2B3D" fill-opacity="0.9" stroke="#2F2B3D" stroke-opacity="0.9" stroke-width="1.5" stroke-linecap="round" stroke-linejoin="round"/>
</svg>
