<svg width="24" height="24" viewBox="0 0 24 24" fill="none" xmlns="http://www.w3.org/2000/svg">
<path d="M3.90697 4.25579C3.49596 4.30717 3.20441 4.68201 3.25579 5.09303C3.30717 5.50404 3.68201 5.79559 4.09303 5.74421L4 5L3.90697 4.25579ZM20.093 3.74421C20.504 3.69283 20.7956 3.31799 20.7442 2.90697C20.6928 2.49596 20.318 2.20441 19.907 2.25579L20 3L20.093 3.74421ZM12.75 4C12.75 3.58579 12.4142 3.25 12 3.25C11.5858 3.25 11.25 3.58579 11.25 4H12H12.75ZM11.25 14C11.25 14.4142 11.5858 14.75 12 14.75C12.4142 14.75 12.75 14.4142 12.75 14H12H11.25ZM6.89396 8V7.25C6.67363 7.25 6.46445 7.34688 6.32194 7.51493L6.89396 8ZM17.2 8L17.7809 7.5256C17.6384 7.35118 17.4251 7.25 17.2 7.25V8ZM17 20V20.75C17.215 20.75 17.4197 20.6577 17.5621 20.4965L17 20ZM6.89396 20L6.32194 20.4851C6.46445 20.6531 6.67363 20.75 6.89396 20.75V20ZM5 13.25C4.58579 13.25 4.25 13.5858 4.25 14C4.25 14.4142 4.58579 14.75 5 14.75V14V13.25ZM19 14.75C19.4142 14.75 19.75 14.4142 19.75 14C19.75 13.5858 19.4142 13.25 19 13.25V14V14.75ZM4 5L4.09303 5.74421L20.093 3.74421L20 3L19.907 2.25579L3.90697 4.25579L4 5ZM12 4H11.25V14H12H12.75V4H12ZM6.89396 8V8.75H17.2V8V7.25H6.89396V8ZM17.2 8L16.6191 8.4744C17.701 9.79924 18.2862 11.8594 18.2625 13.9917C18.2388 16.1232 17.6085 18.1783 16.4379 19.5035L17 20L17.5621 20.4965C19.0415 18.8217 19.7361 16.3768 19.7624 14.0083C19.7887 11.6406 19.1489 9.20076 17.7809 7.5256L17.2 8ZM17 20V19.25H6.89396V20V20.75H17V20ZM6.89396 20L7.46598 19.5149C6.34249 18.1901 5.73596 16.1323 5.73596 14C5.73596 11.8677 6.34249 9.80995 7.46598 8.48507L6.89396 8L6.32194 7.51493C4.90144 9.19005 4.23596 11.6323 4.23596 14C4.23596 16.3677 4.90144 18.8099 6.32194 20.4851L6.89396 20ZM5 14V14.75H19V14V13.25H5V14Z" fill="#2F2B3D" fill-opacity="0.9"/>
</svg>
