<svg width="24" height="24" viewBox="0 0 24 24" fill="none" xmlns="http://www.w3.org/2000/svg">
<path d="M6.64939 6.72045C6.53034 6.32371 6.11221 6.0986 5.71547 6.21765C5.31874 6.3367 5.09363 6.75483 5.21267 7.15156L5.93103 6.936L6.64939 6.72045ZM6.48767 11.4006C6.60672 11.7973 7.02485 12.0224 7.42159 11.9034C7.81832 11.7843 8.04344 11.3662 7.92439 10.9694L7.20603 11.185L6.48767 11.4006ZM13.0285 16.0756C12.6317 15.9566 12.2136 16.1818 12.0946 16.5785C11.9756 16.9753 12.2008 17.3934 12.5975 17.5124L12.813 16.794L13.0285 16.0756ZM16.8485 18.7874C17.2453 18.9064 17.6634 18.6812 17.7824 18.2845C17.9014 17.8877 17.6762 17.4696 17.2795 17.3506L17.064 18.069L16.8485 18.7874ZM5.93103 6.936L5.21267 7.15156L6.48767 11.4006L7.20603 11.185L7.92439 10.9694L6.64939 6.72045L5.93103 6.936ZM12.813 16.794L12.5975 17.5124L16.8485 18.7874L17.064 18.069L17.2795 17.3506L13.0285 16.0756L12.813 16.794Z" fill="#2F2B3D" fill-opacity="0.9"/>
<path d="M11.683 12.317L17.442 6.55801" stroke="#2F2B3D" stroke-opacity="0.9" stroke-width="1.5" stroke-linecap="round" stroke-linejoin="round"/>
<circle cx="5.5" cy="5.5" r="1.5" stroke="#2F2B3D" stroke-opacity="0.9" stroke-width="1.5" stroke-linecap="round" stroke-linejoin="round"/>
<circle cx="18.5" cy="5.5" r="1.5" stroke="#2F2B3D" stroke-opacity="0.9" stroke-width="1.5" stroke-linecap="round" stroke-linejoin="round"/>
<circle cx="18.5" cy="18.5" r="1.5" stroke="#2F2B3D" stroke-opacity="0.9" stroke-width="1.5" stroke-linecap="round" stroke-linejoin="round"/>
<circle cx="8.5" cy="15.5" r="4.5" stroke="#2F2B3D" stroke-opacity="0.9" stroke-width="1.5" stroke-linecap="round" stroke-linejoin="round"/>
</svg>
