<svg width="20" height="20" viewBox="0 0 20 20" fill="none" xmlns="http://www.w3.org/2000/svg">
<path d="M13.8248 6.31663L8.33317 11.8083L5.3415 8.82496L4.1665 9.99996L8.33317 14.1666L14.9998 7.49996L13.8248 6.31663ZM9.99984 1.66663C5.39984 1.66663 1.6665 5.39996 1.6665 9.99996C1.6665 14.6 5.39984 18.3333 9.99984 18.3333C14.5998 18.3333 18.3332 14.6 18.3332 9.99996C18.3332 5.39996 14.5998 1.66663 9.99984 1.66663ZM9.99984 16.6666C6.3165 16.6666 3.33317 13.6833 3.33317 9.99996C3.33317 6.31663 6.3165 3.33329 9.99984 3.33329C13.6832 3.33329 16.6665 6.31663 16.6665 9.99996C16.6665 13.6833 13.6832 16.6666 9.99984 16.6666Z" fill="#28C76F"/>
</svg>
