<svg width="24" height="24" viewBox="0 0 24 24" fill="none" xmlns="http://www.w3.org/2000/svg">
<path d="M11 17C11.6376 17.2783 12.3624 17.2783 13 17" stroke="#2F2B3D" stroke-opacity="0.9" stroke-width="1.5" stroke-linecap="round" stroke-linejoin="round"/>
<path fill-rule="evenodd" clip-rule="evenodd" d="M11.9999 3C7.33591 3 4.60391 5.331 4.13791 8.595C3.67037 11.6098 4.38704 14.6886 6.13791 17.187C6.98058 18.4188 8.06992 19.4622 9.33691 20.251C11.0029 21.251 13.0009 21.251 14.6669 20.251C15.9339 19.4622 17.0232 18.4188 17.8659 17.187C19.6097 14.6854 20.3257 11.6095 19.8659 8.595C19.3999 5.33 16.6679 3 12.0039 3L11.9999 3Z" stroke="#2F2B3D" stroke-opacity="0.9" stroke-width="1.5" stroke-linecap="round" stroke-linejoin="round"/>
<path d="M8 11L10 13" stroke="#2F2B3D" stroke-opacity="0.9" stroke-width="1.5" stroke-linecap="round" stroke-linejoin="round"/>
<path d="M16 11L14 13" stroke="#2F2B3D" stroke-opacity="0.9" stroke-width="1.5" stroke-linecap="round" stroke-linejoin="round"/>
</svg>
