<svg width="24" height="24" viewBox="0 0 24 24" fill="none" xmlns="http://www.w3.org/2000/svg">
<path d="M12.75 9C12.75 8.58579 12.4142 8.25 12 8.25C11.5858 8.25 11.25 8.58579 11.25 9H12H12.75ZM11.25 21C11.25 21.4142 11.5858 21.75 12 21.75C12.4142 21.75 12.75 21.4142 12.75 21H12H11.25ZM4.75 13C4.75 12.5858 4.41421 12.25 4 12.25C3.58579 12.25 3.25 12.5858 3.25 13H4H4.75ZM20.75 13C20.75 12.5858 20.4142 12.25 20 12.25C19.5858 12.25 19.25 12.5858 19.25 13H20H20.75ZM21 13.75C21.4142 13.75 21.75 13.4142 21.75 13C21.75 12.5858 21.4142 12.25 21 12.25V13V13.75ZM19 12.25C18.5858 12.25 18.25 12.5858 18.25 13C18.25 13.4142 18.5858 13.75 19 13.75V13V12.25ZM5 13.75C5.41421 13.75 5.75 13.4142 5.75 13C5.75 12.5858 5.41421 12.25 5 12.25V13V13.75ZM3 12.25C2.58579 12.25 2.25 12.5858 2.25 13C2.25 13.4142 2.58579 13.75 3 13.75V13V12.25ZM12 9H11.25V21H12H12.75V9H12ZM4 13H3.25C3.25 17.8325 7.16751 21.75 12 21.75V21V20.25C7.99594 20.25 4.75 17.0041 4.75 13H4ZM12 21V21.75C16.8325 21.75 20.75 17.8325 20.75 13H20H19.25C19.25 17.0041 16.0041 20.25 12 20.25V21ZM21 13V12.25H19V13V13.75H21V13ZM5 13V12.25H3V13V13.75H5V13Z" fill="#2F2B3D" fill-opacity="0.9"/>
<circle cx="12" cy="6" r="3" stroke="#2F2B3D" stroke-opacity="0.9" stroke-width="1.5" stroke-linecap="round" stroke-linejoin="round"/>
</svg>
