<svg width="24" height="24" viewBox="0 0 24 24" fill="none" xmlns="http://www.w3.org/2000/svg">
<path fill-rule="evenodd" clip-rule="evenodd" d="M5 11C6.10457 11 7 11.8954 7 13V15H17V13C17 11.8954 17.8954 11 19 11C20.1046 11 21 11.8954 21 13V17C21 18.1046 20.1046 19 19 19H5C3.89543 19 3 18.1046 3 17V13C3 11.8954 3.89543 11 5 11Z" stroke="#2F2B3D" stroke-opacity="0.9" stroke-width="1.5" stroke-linecap="round" stroke-linejoin="round"/>
<path d="M5 11V6C5 4.34315 6.34315 3 8 3H16C17.6569 3 19 4.34315 19 6V11" stroke="#2F2B3D" stroke-opacity="0.9" stroke-width="1.5" stroke-linecap="round" stroke-linejoin="round"/>
<path d="M6 19V21" stroke="#2F2B3D" stroke-opacity="0.9" stroke-width="1.5" stroke-linecap="round" stroke-linejoin="round"/>
<path d="M18 19V21" stroke="#2F2B3D" stroke-opacity="0.9" stroke-width="1.5" stroke-linecap="round" stroke-linejoin="round"/>
</svg>
