<svg width="24" height="24" viewBox="0 0 24 24" fill="none" xmlns="http://www.w3.org/2000/svg">
<path d="M9.53033 11.5303C9.82322 11.2374 9.82322 10.7626 9.53033 10.4697C9.23744 10.1768 8.76256 10.1768 8.46967 10.4697L9 11L9.53033 11.5303ZM5 15L4.46967 14.4697C4.17678 14.7626 4.17678 15.2374 4.46967 15.5303L5 15ZM8.46967 19.5303C8.76256 19.8232 9.23744 19.8232 9.53033 19.5303C9.82322 19.2374 9.82322 18.7626 9.53033 18.4697L9 19L8.46967 19.5303ZM5 14.25C4.58579 14.25 4.25 14.5858 4.25 15C4.25 15.4142 4.58579 15.75 5 15.75V15V14.25ZM15 6.25C14.5858 6.25 14.25 6.58579 14.25 7C14.25 7.41421 14.5858 7.75 15 7.75V7V6.25ZM9 11L8.46967 10.4697L4.46967 14.4697L5 15L5.53033 15.5303L9.53033 11.5303L9 11ZM5 15L4.46967 15.5303L8.46967 19.5303L9 19L9.53033 18.4697L5.53033 14.4697L5 15ZM5 15V15.75H16V15V14.25H5V15ZM16 15V15.75C18.6234 15.75 20.75 13.6234 20.75 11H20H19.25C19.25 12.7949 17.7949 14.25 16 14.25V15ZM20 11H20.75C20.75 8.37665 18.6234 6.25 16 6.25V7V7.75C17.7949 7.75 19.25 9.20507 19.25 11H20ZM16 7V6.25H15V7V7.75H16V7Z" fill="#2F2B3D" fill-opacity="0.9"/>
</svg>
