<svg width="24" height="24" viewBox="0 0 24 24" fill="none" xmlns="http://www.w3.org/2000/svg">
<path d="M8.46967 13.5303C8.76256 13.8232 9.23744 13.8232 9.53033 13.5303C9.82322 13.2374 9.82322 12.7626 9.53033 12.4697L9 13L8.46967 13.5303ZM5 9L4.46967 8.46967C4.17678 8.76256 4.17678 9.23744 4.46967 9.53033L5 9ZM9.53033 5.53033C9.82322 5.23744 9.82322 4.76256 9.53033 4.46967C9.23744 4.17678 8.76256 4.17678 8.46967 4.46967L9 5L9.53033 5.53033ZM5 8.25C4.58579 8.25 4.25 8.58579 4.25 9C4.25 9.41421 4.58579 9.75 5 9.75V9V8.25ZM15 16.25C14.5858 16.25 14.25 16.5858 14.25 17C14.25 17.4142 14.5858 17.75 15 17.75V17V16.25ZM9 13L9.53033 12.4697L5.53033 8.46967L5 9L4.46967 9.53033L8.46967 13.5303L9 13ZM5 9L5.53033 9.53033L9.53033 5.53033L9 5L8.46967 4.46967L4.46967 8.46967L5 9ZM5 9V9.75H16V9V8.25H5V9ZM16 9V9.75C17.7949 9.75 19.25 11.2051 19.25 13H20H20.75C20.75 10.3766 18.6234 8.25 16 8.25V9ZM20 13H19.25C19.25 14.7949 17.7949 16.25 16 16.25V17V17.75C18.6234 17.75 20.75 15.6234 20.75 13H20ZM16 17V16.25H15V17V17.75H16V17Z" fill="#2F2B3D" fill-opacity="0.9"/>
</svg>
