<svg width="24" height="24" viewBox="0 0 24 24" fill="none" xmlns="http://www.w3.org/2000/svg">
<path d="M15.5303 10.4697C15.2374 10.1768 14.7626 10.1768 14.4697 10.4697C14.1768 10.7626 14.1768 11.2374 14.4697 11.5303L15 11L15.5303 10.4697ZM19 15L19.5303 15.5303C19.8232 15.2374 19.8232 14.7626 19.5303 14.4697L19 15ZM14.4697 18.4697C14.1768 18.7626 14.1768 19.2374 14.4697 19.5303C14.7626 19.8232 15.2374 19.8232 15.5303 19.5303L15 19L14.4697 18.4697ZM19 15.75C19.4142 15.75 19.75 15.4142 19.75 15C19.75 14.5858 19.4142 14.25 19 14.25V15V15.75ZM9 7.75C9.41421 7.75 9.75 7.41421 9.75 7C9.75 6.58579 9.41421 6.25 9 6.25V7V7.75ZM15 11L14.4697 11.5303L18.4697 15.5303L19 15L19.5303 14.4697L15.5303 10.4697L15 11ZM19 15L18.4697 14.4697L14.4697 18.4697L15 19L15.5303 19.5303L19.5303 15.5303L19 15ZM19 15V14.25H8V15V15.75H19V15ZM8 15V14.25C6.20507 14.25 4.75 12.7949 4.75 11H4H3.25C3.25 13.6234 5.37665 15.75 8 15.75V15ZM4 11H4.75C4.75 9.20507 6.20507 7.75 8 7.75V7V6.25C5.37665 6.25 3.25 8.37665 3.25 11H4ZM8 7V7.75H9V7V6.25H8V7Z" fill="#2F2B3D" fill-opacity="0.9"/>
</svg>
