<svg width="24" height="24" viewBox="0 0 24 24" fill="none" xmlns="http://www.w3.org/2000/svg">
<path d="M14.4697 12.4697C14.1768 12.7626 14.1768 13.2374 14.4697 13.5303C14.7626 13.8232 15.2374 13.8232 15.5303 13.5303L15 13L14.4697 12.4697ZM19 9L19.5303 9.53033C19.8232 9.23744 19.8232 8.76256 19.5303 8.46967L19 9ZM15.5303 4.46967C15.2374 4.17678 14.7626 4.17678 14.4697 4.46967C14.1768 4.76256 14.1768 5.23744 14.4697 5.53033L15 5L15.5303 4.46967ZM19 9.75C19.4142 9.75 19.75 9.41421 19.75 9C19.75 8.58579 19.4142 8.25 19 8.25V9V9.75ZM9 17.75C9.41421 17.75 9.75 17.4142 9.75 17C9.75 16.5858 9.41421 16.25 9 16.25V17V17.75ZM15 13L15.5303 13.5303L19.5303 9.53033L19 9L18.4697 8.46967L14.4697 12.4697L15 13ZM19 9L19.5303 8.46967L15.5303 4.46967L15 5L14.4697 5.53033L18.4697 9.53033L19 9ZM19 9V8.25H8V9V9.75H19V9ZM8 9V8.25C5.37665 8.25 3.25 10.3766 3.25 13H4H4.75C4.75 11.2051 6.20507 9.75 8 9.75V9ZM4 13H3.25C3.25 15.6234 5.37665 17.75 8 17.75V17V16.25C6.20507 16.25 4.75 14.7949 4.75 13H4ZM8 17V17.75H9V17V16.25H8V17Z" fill="#2F2B3D" fill-opacity="0.9"/>
</svg>
