<svg width="24" height="24" viewBox="0 0 24 24" fill="none" xmlns="http://www.w3.org/2000/svg">
<path fill-rule="evenodd" clip-rule="evenodd" d="M20 6C20.5523 6 21 6.44772 21 7V17C21 17.5523 20.5523 18 20 18H9.00001L4.00001 13C3.49072 12.4306 3.49072 11.5694 4.00001 11L9.00001 6H20Z" stroke="#2F2B3D" stroke-opacity="0.9" stroke-width="1.5" stroke-linecap="round" stroke-linejoin="round"/>
<path d="M12.5303 9.46967C12.2374 9.17678 11.7626 9.17678 11.4697 9.46967C11.1768 9.76256 11.1768 10.2374 11.4697 10.5303L12 10L12.5303 9.46967ZM15.4697 14.5303C15.7626 14.8232 16.2374 14.8232 16.5303 14.5303C16.8232 14.2374 16.8232 13.7626 16.5303 13.4697L16 14L15.4697 14.5303ZM16.5303 10.5303C16.8232 10.2374 16.8232 9.76256 16.5303 9.46967C16.2374 9.17678 15.7626 9.17678 15.4697 9.46967L16 10L16.5303 10.5303ZM11.4697 13.4697C11.1768 13.7626 11.1768 14.2374 11.4697 14.5303C11.7626 14.8232 12.2374 14.8232 12.5303 14.5303L12 14L11.4697 13.4697ZM12 10L11.4697 10.5303L15.4697 14.5303L16 14L16.5303 13.4697L12.5303 9.46967L12 10ZM16 10L15.4697 9.46967L11.4697 13.4697L12 14L12.5303 14.5303L16.5303 10.5303L16 10Z" fill="#2F2B3D" fill-opacity="0.9"/>
</svg>
