<svg width="24" height="24" viewBox="0 0 24 24" fill="none" xmlns="http://www.w3.org/2000/svg">
<path d="M19.3711 15.7084C19.1846 16.0782 19.3333 16.5292 19.7032 16.7157C20.073 16.9022 20.524 16.7535 20.7105 16.3836L20.0408 16.046L19.3711 15.7084ZM7.6195 3.28611C7.24953 3.47239 7.10063 3.92332 7.28691 4.29328C7.47319 4.66324 7.92412 4.81214 8.29408 4.62586L7.95679 3.95599L7.6195 3.28611ZM6.16413 6.16941C6.45707 5.87656 6.45714 5.40168 6.16429 5.10875C5.87145 4.81581 5.39657 4.81573 5.10363 5.10858L5.63388 5.63899L6.16413 6.16941ZM18.8901 18.8994C19.1831 18.6066 19.1831 18.1317 18.8903 17.8387C18.5974 17.5458 18.1226 17.5457 17.8296 17.8386L18.3599 18.369L18.8901 18.8994ZM20.0408 16.046L20.7105 16.3836C22.6046 12.6264 21.8748 8.07793 18.9003 5.10193L18.3698 5.63213L17.8394 6.16233C20.3563 8.68048 20.9738 12.5292 19.3711 15.7084L20.0408 16.046ZM18.3698 5.63213L18.9003 5.10193C15.9258 2.12593 11.3776 1.39384 7.6195 3.28611L7.95679 3.95599L8.29408 4.62586C11.4741 3.02471 15.3224 3.64417 17.8394 6.16233L18.3698 5.63213ZM5.63388 5.63899L5.10363 5.10858C1.2954 8.91561 1.29443 15.089 5.10147 18.8972L5.63188 18.367L6.16229 17.8367C2.94095 14.6144 2.94177 9.39075 6.16413 6.16941L5.63388 5.63899ZM5.63188 18.367L5.10147 18.8972C8.9085 22.7055 15.0819 22.7064 18.8901 18.8994L18.3599 18.369L17.8296 17.8386C14.6073 21.0599 9.38364 21.0591 6.16229 17.8367L5.63188 18.367Z" fill="#2F2B3D" fill-opacity="0.9"/>
<path fill-rule="evenodd" clip-rule="evenodd" d="M12.0001 7L16.7551 10.455L16.1891 12.198L15.2091 15.212L15.0001 16H9.00012L7.24512 10.455L9.10512 9.104L11.4181 7.423L12.0001 7Z" stroke="#2F2B3D" stroke-opacity="0.9" stroke-width="1.5" stroke-linecap="round" stroke-linejoin="round"/>
<path d="M12 7V3" stroke="#2F2B3D" stroke-opacity="0.9" stroke-width="1.5" stroke-linecap="round" stroke-linejoin="round"/>
<path d="M15 16L17.5 19" stroke="#2F2B3D" stroke-opacity="0.9" stroke-width="1.5" stroke-linecap="round" stroke-linejoin="round"/>
<path d="M16.7549 10.455L20.4999 9" stroke="#2F2B3D" stroke-opacity="0.9" stroke-width="1.5" stroke-linecap="round" stroke-linejoin="round"/>
<path d="M9.061 16.045L6.5 19" stroke="#2F2B3D" stroke-opacity="0.9" stroke-width="1.5" stroke-linecap="round" stroke-linejoin="round"/>
<path d="M7.245 10.455L3.5 9" stroke="#2F2B3D" stroke-opacity="0.9" stroke-width="1.5" stroke-linecap="round" stroke-linejoin="round"/>
<path d="M3 3L21 21" stroke="#2F2B3D" stroke-opacity="0.9" stroke-width="1.5" stroke-linecap="round" stroke-linejoin="round"/>
</svg>
