<svg width="24" height="24" viewBox="0 0 24 24" fill="none" xmlns="http://www.w3.org/2000/svg">
<circle cx="12" cy="12" r="9" stroke="#2F2B3D" stroke-opacity="0.9" stroke-width="1.5" stroke-linecap="round" stroke-linejoin="round"/>
<path fill-rule="evenodd" clip-rule="evenodd" d="M12 7L16.76 10.45L15 16H8.99999L7.23999 10.45L12 7Z" stroke="#2F2B3D" stroke-opacity="0.9" stroke-width="1.5" stroke-linecap="round" stroke-linejoin="round"/>
<path d="M11.25 7C11.25 7.41421 11.5858 7.75 12 7.75C12.4142 7.75 12.75 7.41421 12.75 7H12H11.25ZM12.75 3C12.75 2.58579 12.4142 2.25 12 2.25C11.5858 2.25 11.25 2.58579 11.25 3H12H12.75ZM15.5762 15.5199C15.311 15.2017 14.8381 15.1587 14.5199 15.4238C14.2017 15.689 14.1587 16.1619 14.4238 16.4801L15 16L15.5762 15.5199ZM16.9238 19.4801C17.189 19.7983 17.6619 19.8413 17.9801 19.5762C18.2983 19.311 18.3413 18.8381 18.0762 18.5199L17.5 19L16.9238 19.4801ZM16.4889 9.75072C16.1027 9.90045 15.911 10.3349 16.0607 10.7211C16.2105 11.1073 16.6449 11.299 17.0311 11.1493L16.76 10.45L16.4889 9.75072ZM20.7711 9.69928C21.1573 9.54955 21.349 9.11509 21.1993 8.72889C21.0496 8.34268 20.6151 8.15098 20.2289 8.30072L20.5 9L20.7711 9.69928ZM9.62645 16.5416C9.89793 16.2287 9.8644 15.755 9.55156 15.4836C9.23872 15.2121 8.76503 15.2456 8.49355 15.5584L9.06 16.05L9.62645 16.5416ZM5.93355 18.5084C5.66207 18.8213 5.6956 19.295 6.00844 19.5665C6.32128 19.8379 6.79497 19.8044 7.06645 19.4916L6.5 19L5.93355 18.5084ZM6.96889 11.1493C7.35509 11.299 7.78955 11.1073 7.93928 10.7211C8.08902 10.3349 7.89732 9.90045 7.51111 9.75072L7.24 10.45L6.96889 11.1493ZM3.77111 8.30072C3.38491 8.15098 2.95045 8.34268 2.80072 8.72889C2.65098 9.11509 2.84268 9.54955 3.22889 9.69928L3.5 9L3.77111 8.30072ZM12 7H12.75V3H12H11.25V7H12ZM15 16L14.4238 16.4801L16.9238 19.4801L17.5 19L18.0762 18.5199L15.5762 15.5199L15 16ZM16.76 10.45L17.0311 11.1493L20.7711 9.69928L20.5 9L20.2289 8.30072L16.4889 9.75072L16.76 10.45ZM9.06 16.05L8.49355 15.5584L5.93355 18.5084L6.5 19L7.06645 19.4916L9.62645 16.5416L9.06 16.05ZM7.24 10.45L7.51111 9.75072L3.77111 8.30072L3.5 9L3.22889 9.69928L6.96889 11.1493L7.24 10.45Z" fill="#2F2B3D" fill-opacity="0.9"/>
</svg>
