<svg width="24" height="24" viewBox="0 0 24 24" fill="none" xmlns="http://www.w3.org/2000/svg">
<circle cx="12" cy="12" r="9" stroke="#2F2B3D" stroke-opacity="0.9" stroke-width="1.5" stroke-linecap="round" stroke-linejoin="round"/>
<path d="M12.6531 11.6313C12.4495 11.2706 11.992 11.1433 11.6313 11.3469C11.2706 11.5505 11.1433 12.008 11.3469 12.3687L12 12L12.6531 11.6313ZM20.0969 16.7437C20.5076 16.6902 20.7972 16.3138 20.7437 15.9031C20.6902 15.4924 20.3138 15.2028 19.9031 15.2563L20 16L20.0969 16.7437ZM8.17342 13.1698C7.99109 12.7979 7.54177 12.6442 7.16985 12.8266C6.79793 13.0089 6.64424 13.4582 6.82658 13.8302L7.5 13.5L8.17342 13.1698ZM15.8578 20.7364C16.2645 20.8149 16.6579 20.5489 16.7364 20.1422C16.8149 19.7355 16.5489 19.3421 16.1422 19.2636L16 20L15.8578 20.7364ZM12 12L11.3469 12.3687C13.0998 15.4736 16.5613 17.2043 20.0969 16.7437L20 16L19.9031 15.2563C16.9736 15.6379 14.1055 14.2039 12.6531 11.6313L12 12ZM7.5 13.5L6.82658 13.8302C8.58717 17.4213 11.9308 19.9782 15.8578 20.7364L16 20L16.1422 19.2636C12.6772 18.5946 9.72689 16.3385 8.17342 13.1698L7.5 13.5Z" fill="#2F2B3D" fill-opacity="0.9"/>
<path d="M11.9928 12.75C12.407 12.754 12.746 12.4214 12.75 12.0072C12.754 11.593 12.4214 11.254 12.0072 11.25L12 12L11.9928 12.75ZM3.84339 16.6403C3.68436 17.0227 3.86549 17.4617 4.24796 17.6207C4.63043 17.7798 5.0694 17.5986 5.22843 17.2162L4.53591 16.9282L3.84339 16.6403ZM12.9001 8.10117C13.3134 8.12922 13.6712 7.81695 13.6992 7.40368C13.7273 6.99042 13.415 6.63267 13.0017 6.60461L12.9509 7.35289L12.9001 8.10117ZM2.50512 10.9728C2.23377 11.2857 2.26749 11.7594 2.58045 12.0308C2.8934 12.3021 3.36708 12.2684 3.63843 11.9554L3.07177 11.4641L2.50512 10.9728ZM12 12L12.0072 11.25C8.44191 11.2156 5.21228 13.348 3.84339 16.6403L4.53591 16.9282L5.22843 17.2162C6.36266 14.4883 9.03864 12.7215 11.9928 12.75L12 12ZM12.9509 7.35289L13.0017 6.60461C9.0114 6.33375 5.12521 7.95099 2.50512 10.9728L3.07177 11.4641L3.63843 11.9554C5.95027 9.28915 9.37927 7.86217 12.9001 8.10117L12.9509 7.35289Z" fill="#2F2B3D" fill-opacity="0.9"/>
<path d="M11.3541 11.6187C11.1436 11.9755 11.262 12.4353 11.6187 12.6459C11.9754 12.8564 12.4353 12.738 12.6459 12.3812L12 12L11.3541 11.6187ZM12.0597 2.61603C11.808 2.28707 11.3373 2.22445 11.0083 2.47617C10.6794 2.72788 10.6168 3.19861 10.8685 3.52756L11.4641 3.0718L12.0597 2.61603ZM14.9264 14.729C14.6955 15.0729 14.7871 15.5388 15.1309 15.7697C15.4748 16.0007 15.9408 15.9091 16.1717 15.5652L15.5491 15.1471L14.9264 14.729ZM17.6371 4.29082C17.5017 3.89934 17.0746 3.69171 16.6832 3.82706C16.2917 3.96242 16.0841 4.38949 16.2194 4.78097L16.9282 4.53589L17.6371 4.29082ZM12 12L12.6459 12.3812C14.4583 9.31078 14.2265 5.44765 12.0597 2.61603L11.4641 3.0718L10.8685 3.52756C12.6638 5.87377 12.8559 9.07464 11.3541 11.6187L12 12ZM15.5491 15.1471L16.1717 15.5652C18.4014 12.2449 18.944 8.07078 17.6371 4.29082L16.9282 4.53589L16.2194 4.78097C17.3725 8.11623 16.8938 11.7993 14.9264 14.729L15.5491 15.1471Z" fill="#2F2B3D" fill-opacity="0.9"/>
</svg>
