<svg width="24" height="24" viewBox="0 0 24 24" fill="none" xmlns="http://www.w3.org/2000/svg">
<path fill-rule="evenodd" clip-rule="evenodd" d="M5.63606 18.364C7.90969 20.6376 11.2236 21.5256 14.3294 20.6934C17.4353 19.8612 19.8612 17.4352 20.6934 14.3294C21.5257 11.2235 20.6377 7.90963 18.3641 5.63599C14.8493 2.12125 9.1508 2.12125 5.63606 5.63599C2.12132 9.15073 2.12132 14.8493 5.63606 18.364V18.364Z" stroke="#2F2B3D" stroke-opacity="0.9" stroke-width="1.5" stroke-linecap="round" stroke-linejoin="round"/>
<path d="M12.495 3.02002C12.6337 5.57295 11.6801 8.06438 9.87223 9.87223C8.06438 11.6801 5.57295 12.6337 3.02002 12.495" stroke="#2F2B3D" stroke-opacity="0.9" stroke-width="1.5" stroke-linecap="round" stroke-linejoin="round"/>
<path d="M20.98 11.505C18.427 11.3663 15.9356 12.3199 14.1278 14.1278C12.3199 15.9356 11.3663 18.4271 11.505 20.98" stroke="#2F2B3D" stroke-opacity="0.9" stroke-width="1.5" stroke-linecap="round" stroke-linejoin="round"/>
<path d="M9 9L11 11" stroke="#2F2B3D" stroke-opacity="0.9" stroke-width="1.5" stroke-linecap="round" stroke-linejoin="round"/>
<path d="M13 13L15 15" stroke="#2F2B3D" stroke-opacity="0.9" stroke-width="1.5" stroke-linecap="round" stroke-linejoin="round"/>
<path d="M11 7L13 8" stroke="#2F2B3D" stroke-opacity="0.9" stroke-width="1.5" stroke-linecap="round" stroke-linejoin="round"/>
<path d="M7 11L8 13" stroke="#2F2B3D" stroke-opacity="0.9" stroke-width="1.5" stroke-linecap="round" stroke-linejoin="round"/>
<path d="M16 11L17 13" stroke="#2F2B3D" stroke-opacity="0.9" stroke-width="1.5" stroke-linecap="round" stroke-linejoin="round"/>
<path d="M11 16L13 17" stroke="#2F2B3D" stroke-opacity="0.9" stroke-width="1.5" stroke-linecap="round" stroke-linejoin="round"/>
</svg>
