<svg width="24" height="24" viewBox="0 0 24 24" fill="none" xmlns="http://www.w3.org/2000/svg">
<path d="M4 9C4 7.89543 4.89543 7 6 7H17C18.1046 7 19 7.89543 19 9V9.5C19 9.77614 19.2239 10 19.5 10C19.7761 10 20 10.2239 20 10.5V13.5C20 13.7761 19.7761 14 19.5 14C19.2239 14 19 14.2239 19 14.5V15C19 16.1046 18.1046 17 17 17H11.5" stroke="#2F2B3D" stroke-opacity="0.9" stroke-width="1.5" stroke-linecap="round" stroke-linejoin="round"/>
<path fill-rule="evenodd" clip-rule="evenodd" d="M3 16.143C3 13.303 5.09 11 7.667 11H10V11.857C10 14.697 7.91 17 5.333 17H3V16.143Z" stroke="#2F2B3D" stroke-opacity="0.9" stroke-width="1.5" stroke-linecap="round" stroke-linejoin="round"/>
<path d="M3 20V17" stroke="#2F2B3D" stroke-opacity="0.9" stroke-width="1.5" stroke-linecap="round" stroke-linejoin="round"/>
</svg>
