<svg width="24" height="24" viewBox="0 0 24 24" fill="none" xmlns="http://www.w3.org/2000/svg">
<path d="M4 9C4 7.89543 4.89543 7 6 7H17C18.1046 7 19 7.89543 19 9V9.5C19 9.77614 19.2239 10 19.5 10C19.7761 10 20 10.2239 20 10.5V13.5C20 13.7761 19.7761 14 19.5 14C19.2239 14 19 14.2239 19 14.5V15C19 16.1046 18.1046 17 17 17H12.5" stroke="#2F2B3D" stroke-opacity="0.9" stroke-width="1.5" stroke-linecap="round" stroke-linejoin="round"/>
<path fill-rule="evenodd" clip-rule="evenodd" d="M3 15H9V17C9 18.1046 8.10457 19 7 19H5C3.89543 19 3 18.1046 3 17V15Z" stroke="#2F2B3D" stroke-opacity="0.9" stroke-width="1.5" stroke-linecap="round" stroke-linejoin="round"/>
<path d="M6 22V19" stroke="#2F2B3D" stroke-opacity="0.9" stroke-width="1.5" stroke-linecap="round" stroke-linejoin="round"/>
<path d="M4 15V12.5" stroke="#2F2B3D" stroke-opacity="0.9" stroke-width="1.5" stroke-linecap="round" stroke-linejoin="round"/>
<path d="M8 15V12.5" stroke="#2F2B3D" stroke-opacity="0.9" stroke-width="1.5" stroke-linecap="round" stroke-linejoin="round"/>
</svg>
