<svg width="24" height="24" viewBox="0 0 24 24" fill="none" xmlns="http://www.w3.org/2000/svg">
<path d="M3 3L21 21" stroke="#2F2B3D" stroke-opacity="0.9" stroke-width="1.5" stroke-linecap="round" stroke-linejoin="round"/>
<path d="M11 6.25C10.5858 6.25 10.25 6.58579 10.25 7C10.25 7.41421 10.5858 7.75 11 7.75V7V6.25ZM18.25 15C18.25 15.4142 18.5858 15.75 19 15.75C19.4142 15.75 19.75 15.4142 19.75 15H19H18.25ZM17 17.75C17.4142 17.75 17.75 17.4142 17.75 17C17.75 16.5858 17.4142 16.25 17 16.25V17V17.75ZM7 7.75C7.41421 7.75 7.75 7.41421 7.75 7C7.75 6.58579 7.41421 6.25 7 6.25V7V7.75ZM11 7V7.75H17V7V6.25H11V7ZM17 7V7.75C17.6904 7.75 18.25 8.30964 18.25 9H19H19.75C19.75 7.48122 18.5188 6.25 17 6.25V7ZM19 9H18.25V9.5H19H19.75V9H19ZM19 9.5H18.25C18.25 10.1904 18.8096 10.75 19.5 10.75V10V9.25C19.6381 9.25 19.75 9.36193 19.75 9.5H19ZM19.5 10V10.75C19.3619 10.75 19.25 10.6381 19.25 10.5H20H20.75C20.75 9.80964 20.1904 9.25 19.5 9.25V10ZM20 10.5H19.25V13.5H20H20.75V10.5H20ZM20 13.5H19.25C19.25 13.3619 19.3619 13.25 19.5 13.25V14V14.75C20.1904 14.75 20.75 14.1904 20.75 13.5H20ZM19.5 14V13.25C18.8096 13.25 18.25 13.8096 18.25 14.5H19H19.75C19.75 14.6381 19.6381 14.75 19.5 14.75V14ZM19 14.5H18.25V15H19H19.75V14.5H19ZM17 17V16.25H6V17V17.75H17V17ZM6 17V16.25C5.30964 16.25 4.75 15.6904 4.75 15H4H3.25C3.25 16.5188 4.48122 17.75 6 17.75V17ZM4 15H4.75V9H4H3.25V15H4ZM4 9H4.75C4.75 8.30964 5.30964 7.75 6 7.75V7V6.25C4.48122 6.25 3.25 7.48122 3.25 9H4ZM6 7V7.75H7V7V6.25H6V7Z" fill="#2F2B3D" fill-opacity="0.9"/>
</svg>
