<svg width="24" height="24" viewBox="0 0 24 24" fill="none" xmlns="http://www.w3.org/2000/svg">
<path d="M17.553 16.75C14.6242 13.8215 9.87588 13.8215 6.94702 16.75" stroke="#2F2B3D" stroke-opacity="0.9" stroke-width="1.5" stroke-linecap="round" stroke-linejoin="round"/>
<path fill-rule="evenodd" clip-rule="evenodd" d="M18 3.804C15.1303 2.14722 11.4609 3.13039 9.80396 6L20.196 12C21.8527 9.13032 20.8696 5.4609 18 3.804V3.804Z" stroke="#2F2B3D" stroke-opacity="0.9" stroke-width="1.5" stroke-linecap="round" stroke-linejoin="round"/>
<path d="M16.7319 10C18.3899 7.13 18.9569 4.356 17.9999 3.804C17.0429 3.252 14.9249 5.13 13.2679 8" stroke="#2F2B3D" stroke-opacity="0.9" stroke-width="1.5" stroke-linecap="round" stroke-linejoin="round"/>
<path d="M15 9L12 14.196" stroke="#2F2B3D" stroke-opacity="0.9" stroke-width="1.5" stroke-linecap="round" stroke-linejoin="round"/>
<path d="M3 19.25C3.31129 19.0952 3.65249 19.0099 4 19C4.79071 18.9834 5.53882 19.3575 6 20C6.46118 20.6425 7.20929 21.0165 8 21C8.79071 21.0165 9.53882 20.6425 10 20C10.4612 19.3575 11.2093 18.9834 12 19C12.7907 18.9834 13.5388 19.3575 14 20C14.4612 20.6425 15.2093 21.0165 16 21C16.7907 21.0165 17.5388 20.6425 18 20C18.4612 19.3575 19.2093 18.9834 20 19C20.3475 19.0099 20.6887 19.0952 21 19.25" stroke="#2F2B3D" stroke-opacity="0.9" stroke-width="1.5" stroke-linecap="round" stroke-linejoin="round"/>
</svg>
