<svg width="24" height="24" viewBox="0 0 24 24" fill="none" xmlns="http://www.w3.org/2000/svg">
<path d="M3.75 7C3.75 6.58579 3.41421 6.25 3 6.25C2.58579 6.25 2.25 6.58579 2.25 7H3H3.75ZM2.25 18C2.25 18.4142 2.58579 18.75 3 18.75C3.41421 18.75 3.75 18.4142 3.75 18H3H2.25ZM3 13.25C2.58579 13.25 2.25 13.5858 2.25 14C2.25 14.4142 2.58579 14.75 3 14.75V14V13.25ZM21 14.75C21.4142 14.75 21.75 14.4142 21.75 14C21.75 13.5858 21.4142 13.25 21 13.25V14V14.75ZM20.25 18C20.25 18.4142 20.5858 18.75 21 18.75C21.4142 18.75 21.75 18.4142 21.75 18H21H20.25ZM11 8V7.25C10.5858 7.25 10.25 7.58579 10.25 8H11ZM10.25 14C10.25 14.4142 10.5858 14.75 11 14.75C11.4142 14.75 11.75 14.4142 11.75 14H11H10.25ZM3 7H2.25V18H3H3.75V7H3ZM3 14V14.75H21V14V13.25H3V14ZM21 18H21.75V10H21H20.25V18H21ZM21 10H21.75C21.75 8.48122 20.5188 7.25 19 7.25V8V8.75C19.6904 8.75 20.25 9.30964 20.25 10H21ZM19 8V7.25H11V8V8.75H19V8ZM11 8H10.25V14H11H11.75V8H11Z" fill="#2F2B3D" fill-opacity="0.9"/>
<circle cx="7" cy="10" r="1" stroke="#2F2B3D" stroke-opacity="0.9" stroke-width="1.5" stroke-linecap="round" stroke-linejoin="round"/>
</svg>
