<svg width="24" height="24" viewBox="0 0 24 24" fill="none" xmlns="http://www.w3.org/2000/svg">
<path fill-rule="evenodd" clip-rule="evenodd" d="M19.3641 4.63599C20.1449 5.41699 20.1449 6.68299 19.3641 7.46399C20.2368 9.90142 19.693 12.6215 17.9501 14.536L15.8281 16.656C15.0444 17.6556 14.782 18.9679 15.1211 20.192L3.80811 8.87999C5.03186 9.21877 6.34378 8.95638 7.34311 8.17299L9.46411 6.04999C11.3786 4.30712 14.0987 3.76326 16.5361 4.63599C17.3171 3.85522 18.5831 3.85522 19.3641 4.63599V4.63599Z" stroke="#2F2B3D" stroke-opacity="0.9" stroke-width="1.5" stroke-linecap="round" stroke-linejoin="round"/>
<path d="M7.34308 12.414L6.63608 13.121C5.46441 14.2927 5.46441 16.1923 6.63608 17.364C7.80775 18.5357 9.70741 18.5357 10.8791 17.364L11.5861 16.657" stroke="#2F2B3D" stroke-opacity="0.9" stroke-width="1.5" stroke-linecap="round" stroke-linejoin="round"/>
</svg>
