<svg width="24" height="24" viewBox="0 0 24 24" fill="none" xmlns="http://www.w3.org/2000/svg">
<path d="M3 3L21 21" stroke="#2F2B3D" stroke-opacity="0.9" stroke-width="1.5" stroke-linecap="round" stroke-linejoin="round"/>
<path d="M17 17.75C17.4142 17.75 17.75 17.4142 17.75 17C17.75 16.5858 17.4142 16.25 17 16.25V17V17.75ZM4 17L3.63043 16.3474C3.33404 16.5152 3.18797 16.8617 3.27475 17.1911C3.36154 17.5205 3.65938 17.75 4 17.75V17ZM6 14L6.74457 14.0901C6.74819 14.0602 6.75 14.0301 6.75 14H6ZM6 11L5.25083 10.9648C5.25028 10.9765 5.25 10.9883 5.25 11H6ZM7.89114 7.71734C8.13047 7.37927 8.05042 6.91119 7.71234 6.67186C7.37427 6.43253 6.90619 6.51258 6.66686 6.85065L7.279 7.284L7.89114 7.71734ZM8.9616 4.70906C8.60762 4.92416 8.49503 5.38549 8.71013 5.73947C8.92523 6.09346 9.38656 6.20605 9.74055 5.99094L9.35107 5.35L8.9616 4.70906ZM10.0001 5L10.3209 5.67793C10.583 5.55391 10.7501 5.28994 10.7501 5H10.0001ZM14.0001 5H13.2501C13.2501 5.29002 13.4173 5.55405 13.6795 5.67802L14.0001 5ZM18.0001 11H18.7501C18.7501 10.9883 18.7498 10.9765 18.7492 10.9648L18.0001 11ZM17.2501 14C17.2501 14.4142 17.5859 14.75 18.0001 14.75C18.4143 14.75 18.7501 14.4142 18.7501 14H18.0001H17.2501ZM17 17V16.25H4V17V17.75H17V17ZM4 17L4.36957 17.6526C5.68189 16.9095 6.56334 15.5873 6.74457 14.0901L6 14L5.25543 13.9099C5.13144 14.9343 4.52834 15.8389 3.63043 16.3474L4 17ZM6 14H6.75V11H6H5.25V14H6ZM6 11L6.74917 11.0352C6.8052 9.84289 7.20147 8.69156 7.89114 7.71734L7.279 7.284L6.66686 6.85065C5.81168 8.05868 5.3203 9.48633 5.25083 10.9648L6 11ZM9.35107 5.35L9.74055 5.99094C9.92821 5.87691 10.1213 5.77236 10.3209 5.67793L10.0001 5L9.67927 4.32207C9.43083 4.43964 9.19194 4.56909 8.9616 4.70906L9.35107 5.35ZM10.0001 5H10.7501C10.7501 4.30964 11.3097 3.75 12.0001 3.75V3V2.25C10.4813 2.25 9.25007 3.48122 9.25007 5H10.0001ZM12.0001 3V3.75C12.6904 3.75 13.2501 4.30964 13.2501 5H14.0001H14.7501C14.7501 3.48122 13.5189 2.25 12.0001 2.25V3ZM14.0001 5L13.6795 5.67802C15.7689 6.66602 17.1425 8.72646 17.2509 11.0352L18.0001 11L18.7492 10.9648C18.6149 8.10204 16.9116 5.54709 14.3207 4.32198L14.0001 5ZM18.0001 11H17.2501V14H18.0001H18.7501V11H18.0001Z" fill="#2F2B3D" fill-opacity="0.9"/>
<path d="M9 17V18C9 19.6569 10.3431 21 12 21C13.6569 21 15 19.6569 15 18V17" stroke="#2F2B3D" stroke-opacity="0.9" stroke-width="1.5" stroke-linecap="round" stroke-linejoin="round"/>
</svg>
