<svg width="24" height="24" viewBox="0 0 24 24" fill="none" xmlns="http://www.w3.org/2000/svg">
<path d="M10 5C10 3.89543 10.8954 3 12 3C13.1046 3 14 3.89543 14 5C16.3402 6.10655 17.8786 8.41425 18 11V14C18.1526 15.2608 18.8949 16.3742 20 17H4C5.10511 16.3742 5.84739 15.2608 6 14V11C6.12137 8.41425 7.65983 6.10655 10 5" stroke="#2F2B3D" stroke-opacity="0.9" stroke-width="1.5" stroke-linecap="round" stroke-linejoin="round"/>
<path d="M9 17V18C9 19.6569 10.3431 21 12 21C13.6569 21 15 19.6569 15 18V17" stroke="#2F2B3D" stroke-opacity="0.9" stroke-width="1.5" stroke-linecap="round" stroke-linejoin="round"/>
<path d="M11.0303 8.96967C10.7374 8.67678 10.2626 8.67678 9.96967 8.96967C9.67678 9.26256 9.67678 9.73744 9.96967 10.0303L10.5 9.5L11.0303 8.96967ZM12.9697 13.0303C13.2626 13.3232 13.7374 13.3232 14.0303 13.0303C14.3232 12.7374 14.3232 12.2626 14.0303 11.9697L13.5 12.5L12.9697 13.0303ZM14.0303 10.0303C14.3232 9.73744 14.3232 9.26256 14.0303 8.96967C13.7374 8.67678 13.2626 8.67678 12.9697 8.96967L13.5 9.5L14.0303 10.0303ZM9.96967 11.9697C9.67678 12.2626 9.67678 12.7374 9.96967 13.0303C10.2626 13.3232 10.7374 13.3232 11.0303 13.0303L10.5 12.5L9.96967 11.9697ZM10.5 9.5L9.96967 10.0303L12.9697 13.0303L13.5 12.5L14.0303 11.9697L11.0303 8.96967L10.5 9.5ZM13.5 9.5L12.9697 8.96967L9.96967 11.9697L10.5 12.5L11.0303 13.0303L14.0303 10.0303L13.5 9.5Z" fill="#2F2B3D" fill-opacity="0.9"/>
</svg>
