<svg width="24" height="24" viewBox="0 0 24 24" fill="none" xmlns="http://www.w3.org/2000/svg">
<path d="M10.25 10C10.25 10.4142 10.5858 10.75 11 10.75C11.4142 10.75 11.75 10.4142 11.75 10H11H10.25ZM11 5H11.75C11.75 4.58579 11.4142 4.25 11 4.25V5ZM10 4.25C9.58579 4.25 9.25 4.58579 9.25 5C9.25 5.41421 9.58579 5.75 10 5.75V5V4.25ZM17.25 19C17.25 19.4142 17.5858 19.75 18 19.75C18.4142 19.75 18.75 19.4142 18.75 19H18H17.25ZM18 14H18.75C18.75 13.5858 18.4142 13.25 18 13.25V14ZM17 13.25C16.5858 13.25 16.25 13.5858 16.25 14C16.25 14.4142 16.5858 14.75 17 14.75V14V13.25ZM11 10H11.75V5H11H10.25V10H11ZM11 5V4.25H10V5V5.75H11V5ZM18 19H18.75V14H18H17.25V19H18ZM18 14V13.25H17V14V14.75H18V14Z" fill="#2F2B3D" fill-opacity="0.9"/>
<rect x="15" y="5" width="3" height="5" rx="0.5" stroke="#2F2B3D" stroke-opacity="0.9" stroke-width="1.5" stroke-linecap="round" stroke-linejoin="round"/>
<rect x="10" y="14" width="3" height="5" rx="0.5" stroke="#2F2B3D" stroke-opacity="0.9" stroke-width="1.5" stroke-linecap="round" stroke-linejoin="round"/>
</svg>
