<svg width="24" height="24" viewBox="0 0 24 24" fill="none" xmlns="http://www.w3.org/2000/svg">
<circle cx="12" cy="12" r="2" stroke="#2F2B3D" stroke-opacity="0.9" stroke-width="1.5" stroke-linecap="round" stroke-linejoin="round"/>
<path d="M12.689 14C12.689 13.5858 12.3532 13.25 11.939 13.25C11.5248 13.25 11.189 13.5858 11.189 14H11.939H12.689ZM11.995 14.533H12.745C12.745 14.522 12.7448 14.511 12.7443 14.5001L11.995 14.533ZM11.995 14.75L12.745 14.75V14.75H11.995ZM7.462 19.495V20.245C7.47342 20.245 7.48484 20.2447 7.49626 20.2442L7.462 19.495ZM7.245 18.745C6.83078 18.745 6.495 19.0808 6.495 19.495C6.495 19.9092 6.83078 20.245 7.245 20.245V19.495V18.745ZM1.745 14.745C1.74497 15.1592 2.08074 15.495 2.49495 15.495C2.90916 15.495 3.24497 15.1593 3.245 14.745L2.495 14.745L1.745 14.745ZM9.76036 11.6351C10.0824 11.8956 10.5547 11.8457 10.8151 11.5236C11.0756 11.2016 11.0257 10.7293 10.7036 10.4688L10.232 11.052L9.76036 11.6351ZM16.745 20.245C17.1592 20.245 17.495 19.9092 17.495 19.495C17.495 19.0808 17.1592 18.745 16.745 18.745L16.745 19.495L16.745 20.245ZM12.055 13.992L12.7955 14.1109C12.8303 13.894 12.7683 13.6727 12.6258 13.5055C12.4833 13.3383 12.2747 13.242 12.055 13.242V13.992ZM11.995 13.242C11.5808 13.242 11.245 13.5778 11.245 13.992C11.245 14.4062 11.5808 14.742 11.995 14.742V13.992V13.242ZM13.2876 10.4647C12.9654 10.7251 12.9154 11.1973 13.1758 11.5195C13.4361 11.8416 13.9084 11.8917 14.2305 11.6313L13.759 11.048L13.2876 10.4647ZM21.49 14.525H22.24C22.24 14.5136 22.2398 14.5021 22.2393 14.4907L21.49 14.525ZM20.74 14.742C20.74 15.1562 21.0758 15.492 21.49 15.492C21.9042 15.492 22.24 15.1562 22.24 14.742H21.49H20.74ZM10.0275 11.6296C10.4144 11.7774 10.8479 11.5835 10.9957 11.1966C11.1434 10.8096 10.9495 10.3761 10.5626 10.2283L10.295 10.929L10.0275 11.6296ZM8.46701 3.305L7.92421 2.78744C7.91969 2.79219 7.91522 2.79699 7.91082 2.80186L8.46701 3.305ZM9.17382 3.65055C9.45966 3.35077 9.44835 2.87603 9.14857 2.59019C8.84879 2.30435 8.37405 2.31566 8.08821 2.61544L8.63101 3.133L9.17382 3.65055ZM15.8791 2.6025C15.5861 2.3097 15.1113 2.30985 14.8185 2.60284C14.5257 2.89582 14.5258 3.3707 14.8188 3.6635L15.349 3.133L15.8791 2.6025ZM13.4167 10.2302C13.0297 10.3778 12.8356 10.8112 12.9832 11.1983C13.1308 11.5853 13.5642 11.7794 13.9512 11.6318L13.684 10.931L13.4167 10.2302ZM11.939 14H11.189C11.189 14.1481 11.2094 14.2862 11.2219 14.3717C11.2368 14.4737 11.2438 14.5213 11.2457 14.5659L11.995 14.533L12.7443 14.5001C12.7382 14.3627 12.7172 14.2303 12.7061 14.1546C12.6926 14.0623 12.689 14.0249 12.689 14H11.939ZM11.995 14.533H11.245V14.75H11.995H12.745V14.533H11.995ZM11.995 14.75L11.245 14.75C11.245 16.8881 9.56357 18.6481 7.42773 18.7458L7.462 19.495L7.49626 20.2442C10.433 20.1099 12.745 17.6898 12.745 14.75L11.995 14.75ZM7.462 19.495V18.745H7.245V19.495V20.245H7.462V19.495ZM2.495 14.745L3.245 14.745C3.24509 13.2036 4.13087 11.7994 5.52195 11.1354L5.19888 10.4586L4.8758 9.78172C2.96307 10.6947 1.74512 12.6255 1.745 14.745L2.495 14.745ZM5.19888 10.4586L5.52195 11.1354C6.91303 10.4714 8.56186 10.6658 9.76036 11.6351L10.232 11.052L10.7036 10.4688C9.05568 9.13605 6.78854 8.86874 4.8758 9.78172L5.19888 10.4586ZM16.745 19.495L16.745 18.745C15.5733 18.745 14.4605 18.2313 13.7006 17.3396L13.1297 17.8261L12.5589 18.3126C13.6039 19.5387 15.134 20.245 16.745 20.245L16.745 19.495ZM13.1297 17.8261L13.7006 17.3396C12.9406 16.4478 12.6097 15.2677 12.7955 14.1109L12.055 13.992L11.3145 13.8731C11.0591 15.4638 11.5139 17.0864 12.5589 18.3126L13.1297 17.8261ZM12.055 13.992V13.242H11.995V13.992V14.742H12.055V13.992ZM13.759 11.048L14.2305 11.6313C15.4035 10.6831 17.0101 10.4754 18.3857 11.0941L18.6933 10.4101L19.001 9.72608C17.1095 8.87542 14.9005 9.16102 13.2876 10.4647L13.759 11.048ZM18.6933 10.4101L18.3857 11.0941C19.7613 11.7127 20.6719 13.0526 20.7408 14.5593L21.49 14.525L22.2393 14.4907C22.1445 12.419 20.8924 10.5767 19.001 9.72608L18.6933 10.4101ZM21.49 14.525H20.74V14.742H21.49H22.24V14.525H21.49ZM10.295 10.929L10.5626 10.2283C9.32919 9.75734 8.40765 8.70806 8.09982 7.42419L7.37049 7.59906L6.64116 7.77393C7.06443 9.53926 8.33154 10.982 10.0275 11.6296L10.295 10.929ZM7.37049 7.59906L8.09982 7.42419C7.79199 6.14031 8.13751 4.78723 9.02321 3.80813L8.46701 3.305L7.91082 2.80186C6.69298 4.14811 6.21789 6.0086 6.64116 7.77393L7.37049 7.59906ZM8.46701 3.305L9.00982 3.82255L9.17382 3.65055L8.63101 3.133L8.08821 2.61544L7.92421 2.78744L8.46701 3.305ZM15.349 3.133L14.8188 3.6635C15.7781 4.6222 16.1863 6.00171 15.9031 7.32807L16.6366 7.48467L17.37 7.64128C17.7594 5.81754 17.1982 3.92072 15.8791 2.6025L15.349 3.133ZM16.6366 7.48467L15.9031 7.32807C15.6199 8.65442 14.6839 9.74693 13.4167 10.2302L13.684 10.931L13.9512 11.6318C15.6936 10.9672 16.9806 9.46502 17.37 7.64128L16.6366 7.48467Z" fill="#2F2B3D" fill-opacity="0.9"/>
</svg>
