<svg width="24" height="24" viewBox="0 0 24 24" fill="none" xmlns="http://www.w3.org/2000/svg">
<path d="M3 3L21 21" stroke="#2F2B3D" stroke-opacity="0.9" stroke-width="1.5" stroke-linecap="round" stroke-linejoin="round"/>
<path d="M16.9065 17.0357C17.2299 16.7769 17.2824 16.305 17.0237 15.9815C16.7649 15.658 16.293 15.6056 15.9695 15.8643L16.438 16.45L16.9065 17.0357ZM12 20H11.25C11.25 20.2883 11.4153 20.5511 11.6751 20.676C11.9349 20.8009 12.2434 20.7658 12.4685 20.5857L12 20ZM12.75 12C12.75 11.5858 12.4142 11.25 12 11.25C11.5858 11.25 11.25 11.5858 11.25 12H12H12.75ZM11.25 8C11.25 8.41421 11.5858 8.75 12 8.75C12.4142 8.75 12.75 8.41421 12.75 8H12H11.25ZM12 4L12.4685 3.41435C12.2434 3.23425 11.935 3.19913 11.6751 3.32402C11.4153 3.44891 11.25 3.7117 11.25 4H12ZM17 8L17.4684 8.58573C17.6464 8.44342 17.75 8.22793 17.75 8.00007C17.75 7.77221 17.6465 7.55669 17.4685 7.41435L17 8ZM13.7556 9.63427C13.4321 9.89297 13.3796 10.3649 13.6383 10.6884C13.897 11.0119 14.3689 11.0644 14.6924 10.8057L14.224 10.22L13.7556 9.63427ZM12.4705 12.5847C12.7939 12.3259 12.8464 11.8539 12.5876 11.5305C12.3288 11.207 11.8569 11.1546 11.5334 11.4133L12.002 11.999L12.4705 12.5847ZM6.53343 15.4133C6.20999 15.6721 6.15754 16.1441 6.4163 16.4675C6.67506 16.791 7.14703 16.8434 7.47047 16.5847L7.00195 15.999L6.53343 15.4133ZM16.438 16.45L15.9695 15.8643L11.5315 19.4143L12 20L12.4685 20.5857L16.9065 17.0357L16.438 16.45ZM12 20H12.75V12H12H11.25V20H12ZM12 8H12.75V4H12H11.25V8H12ZM12 4L11.5315 4.58565L16.5315 8.58565L17 8L17.4685 7.41435L12.4685 3.41435L12 4ZM17 8L16.5316 7.41427L13.7556 9.63427L14.224 10.22L14.6924 10.8057L17.4684 8.58573L17 8ZM12.002 11.999L11.5334 11.4133L6.53343 15.4133L7.00195 15.999L7.47047 16.5847L12.4705 12.5847L12.002 11.999Z" fill="#2F2B3D" fill-opacity="0.9"/>
</svg>
