<svg width="24" height="24" viewBox="0 0 24 24" fill="none" xmlns="http://www.w3.org/2000/svg">
<path d="M3 3L21 21" stroke="#2F2B3D" stroke-opacity="0.9" stroke-width="1.5" stroke-linecap="round" stroke-linejoin="round"/>
<path d="M15.8185 15.6512C16.0622 15.3162 15.9882 14.8472 15.6532 14.6035C15.3182 14.3598 14.8492 14.4338 14.6055 14.7688L15.212 15.21L15.8185 15.6512ZM11 21H10.25C10.25 21.3248 10.4591 21.6128 10.768 21.7132C11.0769 21.8137 11.4154 21.7039 11.6065 21.4412L11 21ZM11 14H11.75C11.75 13.5858 11.4142 13.25 11 13.25V14ZM5 14L4.3935 13.5588C4.22754 13.7869 4.20364 14.0889 4.33164 14.3403C4.45964 14.5917 4.71789 14.75 5 14.75V14ZM9.3965 9.2312C9.64017 8.89624 9.56616 8.42717 9.2312 8.1835C8.89624 7.93983 8.42717 8.01384 8.1835 8.3488L8.79 8.79L9.3965 9.2312ZM9.86854 6.02872C9.62482 6.36364 9.69876 6.83272 10.0337 7.07644C10.3686 7.32015 10.8377 7.24621 11.0814 6.91128L10.475 6.47L9.86854 6.02872ZM13 3H13.75C13.75 2.67518 13.5409 2.38728 13.232 2.28679C12.9231 2.1863 12.5847 2.29607 12.3935 2.55872L13 3ZM12.25 9C12.25 9.41421 12.5858 9.75 13 9.75C13.4142 9.75 13.75 9.41421 13.75 9H13H12.25ZM14 9.25C13.5858 9.25 13.25 9.58579 13.25 10C13.25 10.4142 13.5858 10.75 14 10.75V10V9.25ZM19 10L19.6066 10.4411C19.7725 10.213 19.7963 9.91104 19.6683 9.65967C19.5403 9.40829 19.2821 9.25 19 9.25V10ZM16.2894 12.4519C16.0458 12.7869 16.1199 13.2559 16.4549 13.4996C16.7899 13.7432 17.2589 13.6691 17.5026 13.3341L16.896 12.893L16.2894 12.4519ZM15.212 15.21L14.6055 14.7688L10.3935 20.5588L11 21L11.6065 21.4412L15.8185 15.6512L15.212 15.21ZM11 21H11.75V14H11H10.25V21H11ZM11 14V13.25H5V14V14.75H11V14ZM5 14L5.6065 14.4412L9.3965 9.2312L8.79 8.79L8.1835 8.3488L4.3935 13.5588L5 14ZM10.475 6.47L11.0814 6.91128L13.6064 3.44128L13 3L12.3935 2.55872L9.86854 6.02872L10.475 6.47ZM13 3H12.25V9H13H13.75V3H13ZM14 10V10.75H19V10V9.25H14V10ZM19 10L18.3934 9.55887L16.2894 12.4519L16.896 12.893L17.5026 13.3341L19.6066 10.4411L19 10Z" fill="#2F2B3D" fill-opacity="0.9"/>
</svg>
