<svg width="24" height="24" viewBox="0 0 24 24" fill="none" xmlns="http://www.w3.org/2000/svg">
<path fill-rule="evenodd" clip-rule="evenodd" d="M15 3C16.6569 3 18 4.34315 18 6C19.3578 5.99971 20.5465 6.9114 20.8982 8.22282C21.25 9.53425 20.6771 10.9184 19.5014 11.5976C18.3257 12.2769 16.8404 12.0818 15.88 11.122L11.122 15.88C12.0662 16.825 12.2718 18.2803 11.6264 19.4499C10.981 20.6194 9.6401 21.2214 8.33727 20.9264C7.03445 20.6314 6.08362 19.5105 6.005 18.177L6 18L5.824 17.995C4.48999 17.9168 3.36852 16.9657 3.07352 15.6624C2.77852 14.3591 3.38113 13.0178 4.55145 12.3728C5.72178 11.7277 7.17762 11.9346 8.122 12.88L12.88 8.122C12.0217 7.26424 11.7646 5.97389 12.2287 4.85269C12.6928 3.73149 13.7866 3.00026 15 3Z" stroke="#2F2B3D" stroke-opacity="0.9" stroke-width="1.5" stroke-linecap="round" stroke-linejoin="round"/>
</svg>
