<svg width="24" height="24" viewBox="0 0 24 24" fill="none" xmlns="http://www.w3.org/2000/svg">
<path d="M3 3L21 21" stroke="#2F2B3D" stroke-opacity="0.9" stroke-width="1.5" stroke-linecap="round" stroke-linejoin="round"/>
<path d="M17.75 17C17.75 16.5858 17.4142 16.25 17 16.25C16.5858 16.25 16.25 16.5858 16.25 17H17H17.75ZM17 20L16.6141 20.6431C16.8458 20.7821 17.1344 20.7858 17.3695 20.6526C17.6047 20.5195 17.75 20.2702 17.75 20H17ZM12 17L12.3859 16.3569C12.1484 16.2144 11.8516 16.2144 11.6141 16.3569L12 17ZM7 20H6.25C6.25 20.2702 6.39534 20.5195 6.63048 20.6526C6.86561 20.7858 7.15417 20.7821 7.38587 20.6431L7 20ZM7.75 6.99998C7.75 6.58577 7.41421 6.24998 7 6.24998C6.58579 6.24998 6.25 6.58577 6.25 6.99998H7H7.75ZM7.87111 3.49763C7.49315 3.66711 7.32415 4.1109 7.49363 4.48885C7.66311 4.86681 8.10689 5.03581 8.48485 4.86633L8.17798 4.18198L7.87111 3.49763ZM16.25 13.006C16.25 13.4202 16.5858 13.756 17 13.756C17.4142 13.756 17.75 13.4202 17.75 13.006H17H16.25ZM17 17H16.25V20H17H17.75V17H17ZM17 20L17.3859 19.3569L12.3859 16.3569L12 17L11.6141 17.6431L16.6141 20.6431L17 20ZM12 17L11.6141 16.3569L6.61413 19.3569L7 20L7.38587 20.6431L12.3859 17.6431L12 17ZM7 20H7.75V6.99998H7H6.25V20H7ZM8.17798 4.18198L8.48485 4.86633C8.64332 4.79527 8.81698 4.75598 8.99998 4.75598V4.00598V3.25598C8.59897 3.25598 8.21663 3.3427 7.87111 3.49763L8.17798 4.18198ZM8.99998 4.00598V4.75598H15V4.00598V3.25598H8.99998V4.00598ZM15 4.00598V4.75598C15.6903 4.75598 16.25 5.31563 16.25 6.00598H17H17.75C17.75 4.4872 16.5188 3.25598 15 3.25598V4.00598ZM17 6.00598H16.25V13.006H17H17.75V6.00598H17Z" fill="#2F2B3D" fill-opacity="0.9"/>
</svg>
