<svg width="24" height="24" viewBox="0 0 24 24" fill="none" xmlns="http://www.w3.org/2000/svg">
<path fill-rule="evenodd" clip-rule="evenodd" d="M10 5H14V3C14 2.44772 13.5523 2 13 2H11C10.4477 2 10 2.44772 10 3V5Z" stroke="#2F2B3D" stroke-opacity="0.9" stroke-width="1.5" stroke-linecap="round" stroke-linejoin="round"/>
<path d="M14 3.5C14 5.126 14.507 6.712 15.45 8.037L15.5 8.107C16.4758 9.4777 17.0001 11.1184 17 12.801V19C17 20.1046 16.1046 21 15 21H9C7.89543 21 7 20.1046 7 19V12.8C7 11.118 7.524 9.478 8.5 8.107L8.55 8.037C9.49317 6.71215 10 5.12629 10 3.5" stroke="#2F2B3D" stroke-opacity="0.9" stroke-width="1.5" stroke-linecap="round" stroke-linejoin="round"/>
<path d="M7.00305 14.803C7.40196 14.6305 7.74655 14.353 8.00005 14C8.46123 13.3575 9.20934 12.9834 10.0001 13C10.7908 12.9834 11.5389 13.3575 12.0001 14C12.4612 14.6425 13.2093 15.0165 14.0001 15C14.7908 15.0165 15.5389 14.6425 16.0001 14C16.2541 13.6458 16.5998 13.3675 17.0001 13.195" stroke="#2F2B3D" stroke-opacity="0.9" stroke-width="1.5" stroke-linecap="round" stroke-linejoin="round"/>
</svg>
