<svg width="24" height="24" viewBox="0 0 24 24" fill="none" xmlns="http://www.w3.org/2000/svg">
<circle cx="12" cy="5" r="2" stroke="#2F2B3D" stroke-opacity="0.9" stroke-width="1.5" stroke-linecap="round" stroke-linejoin="round"/>
<path d="M20 12.5V17.25C20.0065 17.3611 19.9877 17.4722 19.945 17.575C19.8782 17.7358 19.7542 17.8662 19.597 17.941L14.135 20.521C12.7833 21.1596 11.2167 21.1596 9.86495 20.521L4.40295 17.941C4.13908 17.8159 3.97962 17.5412 4.00195 17.25L3.99995 12.5" stroke="#2F2B3D" stroke-opacity="0.9" stroke-width="1.5" stroke-linecap="round" stroke-linejoin="round"/>
<path fill-rule="evenodd" clip-rule="evenodd" d="M4.43097 12.216L10.065 9.88401C11.3041 9.37175 12.6958 9.37175 13.935 9.88401L19.569 12.216C19.824 12.3202 19.993 12.5658 19.9991 12.8413C20.0051 13.1168 19.8472 13.3696 19.597 13.485L14.135 16.028C12.7812 16.6574 11.2187 16.6574 9.86497 16.028L4.40297 13.485C4.15134 13.3706 3.99212 13.1171 3.99822 12.8408C4.00431 12.5644 4.17454 12.3183 4.43097 12.215V12.216Z" stroke="#2F2B3D" stroke-opacity="0.9" stroke-width="1.5" stroke-linecap="round" stroke-linejoin="round"/>
<path d="M12 7V13" stroke="#2F2B3D" stroke-opacity="0.9" stroke-width="1.5" stroke-linecap="round" stroke-linejoin="round"/>
</svg>
