<svg width="24" height="24" viewBox="0 0 24 24" fill="none" xmlns="http://www.w3.org/2000/svg">
<circle cx="15" cy="12" r="3" stroke="#2F2B3D" stroke-opacity="0.9" stroke-width="1.5" stroke-linecap="round" stroke-linejoin="round"/>
<rect x="6" y="3" width="12" height="6" rx="3" stroke="#2F2B3D" stroke-opacity="0.9" stroke-width="1.5" stroke-linecap="round" stroke-linejoin="round"/>
<path d="M9 9.75C9.41421 9.75 9.75 9.41421 9.75 9C9.75 8.58579 9.41421 8.25 9 8.25V9V9.75ZM12 15.75C12.4142 15.75 12.75 15.4142 12.75 15C12.75 14.5858 12.4142 14.25 12 14.25V15V15.75ZM9 15.75C9.41421 15.75 9.75 15.4142 9.75 15C9.75 14.5858 9.41421 14.25 9 14.25V15V15.75ZM12.75 3C12.75 2.58579 12.4142 2.25 12 2.25C11.5858 2.25 11.25 2.58579 11.25 3H12H12.75ZM9 9V8.25C6.92893 8.25 5.25 9.92893 5.25 12H6H6.75C6.75 10.7574 7.75736 9.75 9 9.75V9ZM6 12H5.25C5.25 14.0711 6.92893 15.75 9 15.75V15V14.25C7.75736 14.25 6.75 13.2426 6.75 12H6ZM9 15V15.75H12V15V14.25H9V15ZM9 15V14.25C6.92893 14.25 5.25 15.9289 5.25 18H6H6.75C6.75 16.7574 7.75736 15.75 9 15.75V15ZM6 18H5.25C5.25 20.0711 6.92893 21.75 9 21.75V21V20.25C7.75736 20.25 6.75 19.2426 6.75 18H6ZM9 21V21.75C11.0711 21.75 12.75 20.0711 12.75 18H12H11.25C11.25 19.2426 10.2426 20.25 9 20.25V21ZM12 18H12.75V3H12H11.25V18H12Z" fill="#2F2B3D" fill-opacity="0.9"/>
</svg>
