<svg width="24" height="24" viewBox="0 0 24 24" fill="none" xmlns="http://www.w3.org/2000/svg">
<path d="M17.464 6.51801C16.0954 3.50615 12.5475 2.17001 9.53208 3.53087C6.51671 4.89174 5.17144 8.43625 6.52455 11.4551C7.87766 14.474 11.4187 15.8284 14.441 14.483" stroke="#2F2B3D" stroke-opacity="0.9" stroke-width="1.5" stroke-linecap="round" stroke-linejoin="round"/>
<path d="M17.482 17.464C20.4939 16.0954 21.83 12.5475 20.4692 9.53208C19.1083 6.51671 15.5638 5.17144 12.5449 6.52455C9.52609 7.87766 8.17171 11.4187 9.51705 14.441" stroke="#2F2B3D" stroke-opacity="0.9" stroke-width="1.5" stroke-linecap="round" stroke-linejoin="round"/>
<path d="M6.54004 17.482C7.90843 20.4939 11.4562 21.8303 14.4716 20.4697C17.4871 19.1092 18.8327 15.5649 17.48 12.5459C16.1273 9.52696 12.5865 8.17213 9.56404 9.51698" stroke="#2F2B3D" stroke-opacity="0.9" stroke-width="1.5" stroke-linecap="round" stroke-linejoin="round"/>
<path d="M6.51802 6.53998C3.50612 7.90837 2.16972 11.4561 3.53027 14.4716C4.89082 17.487 8.4351 18.8326 11.4541 17.4799C14.473 16.1272 15.8279 12.5865 14.483 9.56398" stroke="#2F2B3D" stroke-opacity="0.9" stroke-width="1.5" stroke-linecap="round" stroke-linejoin="round"/>
</svg>
