<svg width="24" height="24" viewBox="0 0 24 24" fill="none" xmlns="http://www.w3.org/2000/svg">
<path fill-rule="evenodd" clip-rule="evenodd" d="M17.802 17.292C17.802 17.292 17.879 17.237 18.002 17.143C19.845 15.718 21 13.653 21 11.354C21 7.06803 16.97 3.59003 12.002 3.59003C7.032 3.59003 3 7.06803 3 11.354C3 15.642 7.03 19 12 19C12.424 19 13.12 18.972 14.088 18.916C15.35 19.736 17.192 20.409 18.804 20.409C19.303 20.409 19.538 19.999 19.218 19.581C18.732 18.985 18.062 18.03 17.802 17.291V17.292Z" stroke="#2F2B3D" stroke-opacity="0.9" stroke-width="1.5" stroke-linecap="round" stroke-linejoin="round"/>
<path d="M7.5 13.5C10 16 14 16 16.5 13.5" stroke="#2F2B3D" stroke-opacity="0.9" stroke-width="1.5" stroke-linecap="round" stroke-linejoin="round"/>
</svg>
