<svg width="24" height="24" viewBox="0 0 24 24" fill="none" xmlns="http://www.w3.org/2000/svg">
<path d="M3 18V6H7.5C9.15685 6 10.5 7.34315 10.5 9C10.5 10.6569 9.15685 12 7.5 12C9.15685 12 10.5 13.3431 10.5 15C10.5 16.6569 9.15685 18 7.5 18H3" stroke="#2F2B3D" stroke-opacity="0.9" stroke-width="1.5" stroke-linecap="round" stroke-linejoin="round"/>
<path d="M3 12H7.5" stroke="#2F2B3D" stroke-opacity="0.9" stroke-width="1.5" stroke-linecap="round" stroke-linejoin="round"/>
<path d="M14 13H21C21 11.067 19.433 9.5 17.5 9.5C15.567 9.5 14 11.067 14 13V15C14.2119 16.5377 15.4111 17.7521 16.946 17.9833C18.4809 18.2144 19.9847 17.4071 20.64 16" stroke="#2F2B3D" stroke-opacity="0.9" stroke-width="1.5" stroke-linecap="round" stroke-linejoin="round"/>
<path d="M16 6H19" stroke="#2F2B3D" stroke-opacity="0.9" stroke-width="1.5" stroke-linecap="round" stroke-linejoin="round"/>
</svg>
