<svg width="24" height="24" viewBox="0 0 24 24" fill="none" xmlns="http://www.w3.org/2000/svg">
<path d="M7 9.667L6.27322 9.48181C6.1852 9.82724 6.35249 10.1869 6.67337 10.3421C6.99426 10.4974 7.38008 10.4053 7.59629 10.1219L7 9.667ZM10.267 8.292L10.0884 9.02043L10.0885 9.02044L10.267 8.292ZM12.045 9.532L11.5151 10.0628L11.5158 10.0635L12.045 9.532ZM21 7.833L21.7268 8.01819C21.8148 7.67276 21.6475 7.3131 21.3266 7.15786C21.0057 7.00262 20.6199 7.09469 20.4037 7.3781L21 7.833ZM17.733 9.208L17.9116 8.47957L17.9115 8.47956L17.733 9.208ZM15.955 7.968L16.4849 7.4372L16.4842 7.43651L15.955 7.968ZM3 16.167L2.27322 15.9818C2.1852 16.3272 2.35249 16.6869 2.67337 16.8421C2.99426 16.9974 3.38008 16.9053 3.59629 16.6219L3 16.167ZM6.267 14.792L6.08841 15.5204L6.08848 15.5204L6.267 14.792ZM8.045 16.032L7.51514 16.5628L7.51583 16.5635L8.045 16.032ZM17 14.333L17.7268 14.5182C17.8148 14.1728 17.6475 13.8131 17.3266 13.6579C17.0057 13.5026 16.6199 13.5947 16.4037 13.8781L17 14.333ZM13.733 15.708L13.9116 14.9796L13.9115 14.9796L13.733 15.708ZM11.955 14.468L12.4849 13.9372L12.4842 13.9365L11.955 14.468ZM11.667 6V5.25C10.2982 5.25 9.11077 5.58755 8.16995 6.32694C7.2302 7.06547 6.61413 8.1439 6.27322 9.48181L7 9.667L7.72678 9.85219C8.00887 8.7451 8.4813 7.99003 9.0968 7.50631C9.71123 7.02345 10.5458 6.75 11.667 6.75V6ZM7 9.667L7.59629 10.1219C8.00653 9.58415 8.41467 9.26308 8.80758 9.09787C9.19092 8.93668 9.60863 8.9028 10.0884 9.02043L10.267 8.292L10.4456 7.56357C9.68137 7.37621 8.93208 7.41832 8.22617 7.71513C7.52983 8.00792 6.92647 8.52685 6.40371 9.2121L7 9.667ZM10.267 8.292L10.0885 9.02044C10.5602 9.13604 10.9227 9.47138 11.5151 10.0628L12.045 9.532L12.5749 9.0012C12.0453 8.47262 11.3938 7.79596 10.4455 7.56356L10.267 8.292ZM12.045 9.532L11.5158 10.0635C11.9708 10.5165 12.5356 11.0776 13.3066 11.5116C14.0932 11.9544 15.0634 12.25 16.333 12.25V11.5V10.75C15.3146 10.75 14.5988 10.5176 14.0424 10.2044C13.4704 9.88243 13.0352 9.4595 12.5742 9.00051L12.045 9.532ZM16.333 11.5V12.25C17.7018 12.25 18.8892 11.9124 19.8301 11.1731C20.7698 10.4345 21.3859 9.3561 21.7268 8.01819L21 7.833L20.2732 7.64781C19.9911 8.7549 19.5187 9.50997 18.9032 9.99369C18.2888 10.4766 17.4542 10.75 16.333 10.75V11.5ZM21 7.833L20.4037 7.3781C19.9935 7.91585 19.5853 8.23692 19.1924 8.40213C18.8091 8.56332 18.3914 8.5972 17.9116 8.47957L17.733 9.208L17.5544 9.93643C18.3186 10.1238 19.0679 10.0817 19.7738 9.78487C20.4702 9.49208 21.0735 8.97315 21.5963 8.2879L21 7.833ZM17.733 9.208L17.9115 8.47956C17.4398 8.36396 17.0773 8.02862 16.4849 7.4372L15.955 7.968L15.4251 8.4988C15.9547 9.02738 16.6062 9.70404 17.5545 9.93644L17.733 9.208ZM15.955 7.968L16.4842 7.43651C16.0323 6.98663 15.4726 6.4238 14.7041 5.98917C13.9188 5.54505 12.9479 5.25 11.667 5.25V6V6.75C12.6991 6.75 13.4142 6.98295 13.9657 7.29483C14.5339 7.6162 14.9617 8.03737 15.4258 8.49949L15.955 7.968ZM7.667 12.5V11.75C6.29821 11.75 5.11077 12.0876 4.16995 12.8269C3.2302 13.5655 2.61413 14.6439 2.27322 15.9818L3 16.167L3.72678 16.3522C4.00887 15.2451 4.4813 14.49 5.0968 14.0063C5.71123 13.5234 6.54579 13.25 7.667 13.25V12.5ZM3 16.167L3.59629 16.6219C4.00653 16.0842 4.41467 15.7631 4.80758 15.5979C5.19092 15.4367 5.60863 15.4028 6.08841 15.5204L6.267 14.792L6.44559 14.0636C5.68137 13.8762 4.93208 13.9183 4.22617 14.2151C3.52983 14.5079 2.92647 15.0268 2.40371 15.7121L3 16.167ZM6.267 14.792L6.08848 15.5204C6.56015 15.636 6.92267 15.9714 7.51514 16.5628L8.045 16.032L8.57486 15.5012C8.04533 14.9726 7.39385 14.296 6.44552 14.0636L6.267 14.792ZM8.045 16.032L7.51583 16.5635C7.96769 17.0134 8.52742 17.5762 9.29592 18.0108C10.0812 18.4549 11.0521 18.75 12.333 18.75V18V17.25C11.3009 17.25 10.5858 17.0171 10.0343 16.7052C9.46608 16.3838 9.03831 15.9626 8.57417 15.5005L8.045 16.032ZM12.333 18V18.75C13.7018 18.75 14.8892 18.4124 15.8301 17.6731C16.7698 16.9345 17.3859 15.8561 17.7268 14.5182L17 14.333L16.2732 14.1478C15.9911 15.2549 15.5187 16.01 14.9032 16.4937C14.2888 16.9766 13.4542 17.25 12.333 17.25V18ZM17 14.333L16.4037 13.8781C15.9935 14.4158 15.5853 14.7369 15.1924 14.9021C14.8091 15.0633 14.3914 15.0972 13.9116 14.9796L13.733 15.708L13.5544 16.4364C14.3186 16.6238 15.0679 16.5817 15.7738 16.2849C16.4702 15.9921 17.0735 15.4732 17.5963 14.7879L17 14.333ZM13.733 15.708L13.9115 14.9796C13.4398 14.864 13.0773 14.5286 12.4849 13.9372L11.955 14.468L11.4251 14.9988C11.9547 15.5274 12.6062 16.204 13.5545 16.4364L13.733 15.708ZM11.955 14.468L12.4842 13.9365C12.0323 13.4866 11.4726 12.9238 10.7041 12.4892C9.91879 12.0451 8.94788 11.75 7.667 11.75V12.5V13.25C8.69912 13.25 9.41421 13.4829 9.96567 13.7948C10.5339 14.1162 10.9617 14.5374 11.4258 14.9995L11.955 14.468Z" fill="#2F2B3D" fill-opacity="0.9"/>
</svg>
