<svg width="24" height="24" viewBox="0 0 24 24" fill="none" xmlns="http://www.w3.org/2000/svg">
<path fill-rule="evenodd" clip-rule="evenodd" d="M12 3.00004C14.8571 2.99941 17.5447 4.35536 19.242 6.65368C20.9392 8.952 21.4443 11.9196 20.603 14.65C21.3731 16.3558 21.007 18.3602 19.6836 19.6836C18.3602 21.007 16.3558 21.3731 14.65 20.603C11.4623 21.5864 7.99211 20.7258 5.63322 18.3669C3.27433 16.008 2.41372 12.5378 3.39705 9.35004C2.62629 7.64414 2.99211 5.63926 4.31565 4.31549C5.6392 2.99172 7.64402 2.62557 9.35005 3.39604C10.2086 3.13236 11.1019 2.99887 12 3.00004Z" stroke="#2F2B3D" stroke-opacity="0.9" stroke-width="1.5" stroke-linecap="round" stroke-linejoin="round"/>
<path d="M8 14.5C8.5 16.5 10.358 17 12 17C14.905 17 16 15.813 16 14.5C16 12.997 14.073 12 12 12C9.927 12 8 11.003 8 9.5C8 8.187 9.095 7 12 7C13.642 7 15.5 7.5 16 9.5" stroke="#2F2B3D" stroke-opacity="0.9" stroke-width="1.5" stroke-linecap="round" stroke-linejoin="round"/>
</svg>
