<svg width="24" height="24" viewBox="0 0 24 24" fill="none" xmlns="http://www.w3.org/2000/svg">
<path fill-rule="evenodd" clip-rule="evenodd" d="M9 6.99998C6 6.99998 5 9.99998 5 12.5C5 15.5 7 20 9 20C10.088 19.954 10.679 19.5 12 19.5C13.312 19.5 13.5 20 15 20C16.5 20 19 17 19 15C18.972 14.99 16.528 14.597 16.5 12C16.481 9.82998 18.916 9.04598 19 8.99998C17.977 7.50798 16.049 7.03698 15.5 6.99998C14.067 6.88898 12.67 7.99998 12 7.99998C11.32 7.99998 10.1 6.99998 9 6.99998Z" stroke="#2F2B3D" stroke-opacity="0.9" stroke-width="1.5" stroke-linecap="round" stroke-linejoin="round"/>
<path d="M12 4C13.1046 4 14 3.10457 14 2C12.8954 2 12 2.89543 12 4" stroke="#2F2B3D" stroke-opacity="0.9" stroke-width="1.5" stroke-linecap="round" stroke-linejoin="round"/>
</svg>
