<svg width="24" height="24" viewBox="0 0 24 24" fill="none" xmlns="http://www.w3.org/2000/svg">
<circle cx="12" cy="12" r="9" stroke="#2F2B3D" stroke-opacity="0.9" stroke-width="1.5" stroke-linecap="round" stroke-linejoin="round"/>
<path d="M7.34444 15.6357C7.14322 15.9977 7.2736 16.4543 7.63566 16.6556C7.99771 16.8568 8.45433 16.7264 8.65556 16.3643L8 16L7.34444 15.6357ZM9.76156 14.3743C9.96278 14.0123 9.8324 13.5557 9.47034 13.3544C9.10829 13.1532 8.65167 13.2836 8.45044 13.6457L9.106 14.01L9.76156 14.3743ZM9.8504 11.1237C9.6492 11.4858 9.77961 11.9424 10.1417 12.1436C10.5037 12.3448 10.9604 12.2144 11.1616 11.8523L10.506 11.488L9.8504 11.1237ZM13.6556 7.36431C13.8568 7.00224 13.7264 6.54562 13.3643 6.34442C13.0022 6.14322 12.5456 6.27363 12.3444 6.63569L13 7L13.6556 7.36431ZM8 16L8.65556 16.3643L9.76156 14.3743L9.106 14.01L8.45044 13.6457L7.34444 15.6357L8 16ZM10.506 11.488L11.1616 11.8523L13.6556 7.36431L13 7L12.3444 6.63569L9.8504 11.1237L10.506 11.488Z" fill="#2F2B3D" fill-opacity="0.9"/>
<path d="M7 13.25C6.58579 13.25 6.25 13.5858 6.25 14C6.25 14.4142 6.58579 14.75 7 14.75V14V13.25ZM12 14.75C12.4142 14.75 12.75 14.4142 12.75 14C12.75 13.5858 12.4142 13.25 12 13.25V14V14.75ZM14.9 13.25C14.4858 13.25 14.15 13.5858 14.15 14C14.15 14.4142 14.4858 14.75 14.9 14.75V14V13.25ZM17 14.75C17.4142 14.75 17.75 14.4142 17.75 14C17.75 13.5858 17.4142 13.25 17 13.25V14V14.75ZM7 14V14.75H12V14V13.25H7V14ZM14.9 14V14.75H17V14V13.25H14.9V14Z" fill="#2F2B3D" fill-opacity="0.9"/>
<path d="M15.3444 16.3642C15.5455 16.7263 16.0021 16.8568 16.3642 16.6556C16.7263 16.4545 16.8568 15.9979 16.6556 15.6358L16 16L15.3444 16.3642ZM14.1456 11.1178C13.9444 10.7557 13.4878 10.6252 13.1258 10.8264C12.7637 11.0275 12.6332 11.4841 12.8344 11.8462L13.49 11.482L14.1456 11.1178ZM11.3474 9.16929C11.5486 9.53136 12.0052 9.66178 12.3673 9.46058C12.7294 9.25939 12.8598 8.80278 12.6586 8.44071L12.003 8.805L11.3474 9.16929ZM11.6556 6.63571C11.4544 6.27364 10.9978 6.14322 10.6357 6.34442C10.2736 6.54561 10.1432 7.00222 10.3444 7.36429L11 7L11.6556 6.63571ZM16 16L16.6556 15.6358L14.1456 11.1178L13.49 11.482L12.8344 11.8462L15.3444 16.3642L16 16ZM12.003 8.805L12.6586 8.44071L11.6556 6.63571L11 7L10.3444 7.36429L11.3474 9.16929L12.003 8.805Z" fill="#2F2B3D" fill-opacity="0.9"/>
</svg>
