<svg width="24" height="24" viewBox="0 0 24 24" fill="none" xmlns="http://www.w3.org/2000/svg">
<path fill-rule="evenodd" clip-rule="evenodd" d="M4 18V8.5C4 6.01472 6.01472 4 8.5 4H15.5C16.6935 4 17.8381 4.47411 18.682 5.31802C19.5259 6.16193 20 7.30653 20 8.5V15.5C20 16.6935 19.5259 17.8381 18.682 18.682C17.8381 19.5259 16.6935 20 15.5 20H6C4.89543 20 4 19.1046 4 18Z" stroke="#2F2B3D" stroke-opacity="0.9" stroke-width="1.5" stroke-linecap="round" stroke-linejoin="round"/>
<path d="M8 12H11.5C12.6046 12 13.5 12.8954 13.5 14C13.5 15.1046 12.6046 16 11.5 16H8V9C8 8.44772 8.44772 8 9 8H10.5C11.6046 8 12.5 8.89543 12.5 10C12.5 11.1046 11.6046 12 10.5 12H9" stroke="#2F2B3D" stroke-opacity="0.9" stroke-width="1.5" stroke-linecap="round" stroke-linejoin="round"/>
<path d="M16 16H16.01" stroke="#2F2B3D" stroke-opacity="0.9" stroke-width="1.5" stroke-linecap="round" stroke-linejoin="round"/>
</svg>
