<svg width="24" height="24" viewBox="0 0 24 24" fill="none" xmlns="http://www.w3.org/2000/svg">
<path d="M16.882 7.84202H17.632H16.882ZM7.118 7.84202H6.368H7.118ZM3 15.96L2.6993 15.2729C2.42671 15.3922 2.25042 15.6614 2.25 15.959C2.24958 16.2565 2.42511 16.5262 2.69737 16.6463L3 15.96ZM6 18.96L5.32179 19.2802C5.44568 19.5426 5.70982 19.71 6 19.71V18.96ZM18 18.96V19.71C18.2902 19.71 18.5543 19.5426 18.6782 19.2802L18 18.96ZM21 15.96L21.3026 16.6463C21.5749 16.5262 21.7504 16.2565 21.75 15.9589C21.7496 15.6614 21.5732 15.3922 21.3006 15.2729L21 15.96ZM2.64904 15.2982C2.28297 15.492 2.14335 15.9459 2.33718 16.312C2.53101 16.678 2.9849 16.8177 3.35096 16.6238L3 15.961L2.64904 15.2982ZM4.53033 8.31269C4.23744 8.01979 3.76256 8.01979 3.46967 8.31269C3.17678 8.60558 3.17678 9.08045 3.46967 9.37335L4 8.84302L4.53033 8.31269ZM20.649 16.6238C21.0151 16.8177 21.469 16.678 21.6628 16.312C21.8567 15.9459 21.717 15.492 21.351 15.2982L21 15.961L20.649 16.6238ZM20.5303 9.37335C20.8232 9.08045 20.8232 8.60558 20.5303 8.31269C20.2374 8.01979 19.7626 8.01979 19.4697 8.31269L20 8.84302L20.5303 9.37335ZM16.882 7.84202H17.632C17.632 4.73155 15.1105 2.21002 12 2.21002V2.96002V3.71002C14.282 3.71002 16.132 5.55998 16.132 7.84202H16.882ZM12 2.96002V2.21002C8.88953 2.21002 6.368 4.73155 6.368 7.84202H7.118H7.868C7.868 5.55998 9.71796 3.71002 12 3.71002V2.96002ZM7.118 7.84202H6.368C6.368 10.0088 6.30455 11.453 5.83247 12.5707C5.39034 13.6175 4.54381 14.4657 2.6993 15.2729L3 15.96L3.3007 16.6471C5.36119 15.7453 6.57366 14.6711 7.21428 13.1543C7.82495 11.7085 7.868 9.94822 7.868 7.84202H7.118ZM3 15.96L2.69737 16.6463C3.75004 17.1105 4.09204 17.2742 4.34467 17.5269C4.60502 17.7872 4.79654 18.1677 5.32179 19.2802L6 18.96L6.67821 18.6398C6.20346 17.6343 5.89498 16.9558 5.40533 16.4662C4.90796 15.9688 4.24996 15.6916 3.30263 15.2738L3 15.96ZM6 18.96V19.71C7.30611 19.71 8.16928 20.1349 9.0029 20.6112C9.80681 21.0706 10.7549 21.71 12 21.71V20.96V20.21C11.2451 20.21 10.6932 19.8495 9.7471 19.3088C8.83072 18.7852 7.69389 18.21 6 18.21V18.96ZM12 20.96V21.71C13.2451 21.71 14.1932 21.0706 14.9971 20.6112C15.8307 20.1349 16.6939 19.71 18 19.71V18.96V18.21C16.3061 18.21 15.1693 18.7852 14.2529 19.3088C13.3068 19.8495 12.7549 20.21 12 20.21V20.96ZM18 18.96L18.6782 19.2802C19.2035 18.1677 19.395 17.7872 19.6553 17.5269C19.908 17.2742 20.25 17.1105 21.3026 16.6463L21 15.96L20.6974 15.2738C19.75 15.6916 19.092 15.9688 18.5947 16.4662C18.105 16.9558 17.7965 17.6343 17.3218 18.6398L18 18.96ZM21 15.96L21.3006 15.2729C19.4556 14.4657 18.6092 13.6175 18.1672 12.5708C17.6952 11.4531 17.632 10.0089 17.632 7.84202H16.882H16.132C16.132 9.94812 16.1748 11.7085 16.7853 13.1543C17.4258 14.6711 18.6384 15.7454 20.6994 16.6471L21 15.96ZM3 15.961L3.35096 16.6238C5.37027 15.5546 6.70066 14.3634 6.87053 12.8145C7.0373 11.2939 6.0329 9.81526 4.53033 8.31269L4 8.84302L3.46967 9.37335C4.9671 10.8708 5.4627 11.8921 5.37947 12.651C5.29934 13.3817 4.62973 14.2494 2.64904 15.2982L3 15.961ZM21 15.961L21.351 15.2982C19.3703 14.2494 18.7007 13.3817 18.6205 12.651C18.5373 11.8921 19.0329 10.8708 20.5303 9.37335L20 8.84302L19.4697 8.31269C17.9671 9.81526 16.9627 11.2939 17.1295 12.8145C17.2993 14.3634 18.6297 15.5546 20.649 16.6238L21 15.961Z" fill="#2F2B3D" fill-opacity="0.9"/>
</svg>
