<svg width="24" height="24" viewBox="0 0 24 24" fill="none" xmlns="http://www.w3.org/2000/svg">
<path d="M11.0359 5.05798C7.03368 5.54415 4.01836 8.93222 3.99984 12.9639C3.98133 16.9955 6.96541 20.4111 10.963 20.934C14.9607 21.4569 18.7229 18.9237 19.7419 15.023" stroke="#2F2B3D" stroke-opacity="0.9" stroke-width="1.5" stroke-linecap="round" stroke-linejoin="round"/>
<path d="M12 21V10L4.5 14" stroke="#2F2B3D" stroke-opacity="0.9" stroke-width="1.5" stroke-linecap="round" stroke-linejoin="round"/>
<path d="M17.5 3.00001C18.8807 3.00001 20 4.11929 20 5.50001C20 6.88072 18.8807 8.00001 17.5 8.00001L6.49997 3.00001C5.24788 2.99737 4.18695 3.9214 4.01766 5.16199C3.84837 6.40259 4.62295 7.57708 5.82997 7.91001" stroke="#2F2B3D" stroke-opacity="0.9" stroke-width="1.5" stroke-linecap="round" stroke-linejoin="round"/>
<path d="M9 12V20" stroke="#2F2B3D" stroke-opacity="0.9" stroke-width="1.5" stroke-linecap="round" stroke-linejoin="round"/>
<path d="M16 13H15.99" stroke="#2F2B3D" stroke-opacity="0.9" stroke-width="1.5" stroke-linecap="round" stroke-linejoin="round"/>
</svg>
