<svg width="24" height="24" viewBox="0 0 24 24" fill="none" xmlns="http://www.w3.org/2000/svg">
<path d="M4.028 7.82002C1.76646 12.1326 3.34518 17.4617 7.59077 19.8466C11.8364 22.2315 17.2088 20.807 19.715 16.6319C22.2212 12.4568 20.9522 7.04552 16.851 4.42002C15.215 3.40002 13.787 3.40002 12 3.40002H10.353" stroke="#2F2B3D" stroke-opacity="0.9" stroke-width="1.5" stroke-linecap="round" stroke-linejoin="round"/>
<path d="M4.91404 9.48503C3.15804 7.91603 4.10904 4.10503 5.02304 3.31503C5.10904 4.21103 5.60804 4.52303 6.13404 5.00003C7.01404 4.72503 7.44704 4.71803 8.00104 5.00003C8.82104 4.09003 9.69504 2.64603 10.629 2.90703C9.54704 4.64803 10.559 6.64003 12 7.08003C11.83 8.05503 10.516 8.99303 9.24004 9.76603C7.94404 10.704 8.51804 11.616 9.24004 12C10.189 12.506 12.851 11.005 13.785 12.354C12.087 12.456 12.249 15.461 9.80204 15.081C12.325 16.038 14.147 15.543 15.26 14.741C17.225 13.221 18.139 11.199 18.139 9.18403C18.125 7.78603 18.333 6.48903 16.879 4.43403" stroke="#2F2B3D" stroke-opacity="0.9" stroke-width="1.5" stroke-linecap="round" stroke-linejoin="round"/>
</svg>
