<svg width="24" height="24" viewBox="0 0 24 24" fill="none" xmlns="http://www.w3.org/2000/svg">
<path fill-rule="evenodd" clip-rule="evenodd" d="M19 6.87298C19.6235 7.23291 20.0054 7.90012 20 8.61998V15.156C19.9998 15.8823 19.6059 16.5514 18.971 16.904L12.971 20.737C12.3671 21.0724 11.6329 21.0724 11.029 20.737L5.029 16.904C4.39437 16.5515 4.00053 15.8829 4 15.157V8.61998C4.00017 7.8937 4.39406 7.22459 5.029 6.87198L11.029 3.29998C11.6507 2.95388 12.4073 2.95388 13.029 3.29998L19.029 6.87298H19V6.87298Z" stroke="#2F2B3D" stroke-opacity="0.9" stroke-width="1.5" stroke-linecap="round" stroke-linejoin="round"/>
<path fill-rule="evenodd" clip-rule="evenodd" d="M15.5 9.43003C15.8119 9.61008 16.0029 9.94392 16 10.304V13.572C15.9998 13.9353 15.8027 14.2699 15.485 14.446L12.485 16.363C12.1833 16.5303 11.8167 16.5303 11.515 16.363L8.515 14.446C8.19765 14.27 8.00055 13.9359 8 13.573V10.304C7.99999 9.941 8.19672 9.60647 8.514 9.43003L11.514 7.64403C11.825 7.47103 12.204 7.47103 12.514 7.64403L15.514 9.43103H15.5V9.43003Z" stroke="#2F2B3D" stroke-opacity="0.9" stroke-width="1.5" stroke-linecap="round" stroke-linejoin="round"/>
<path d="M12 21V12L4.5 7.5" stroke="#2F2B3D" stroke-opacity="0.9" stroke-width="1.5" stroke-linecap="round" stroke-linejoin="round"/>
<path d="M12 12L19.5 7.5" stroke="#2F2B3D" stroke-opacity="0.9" stroke-width="1.5" stroke-linecap="round" stroke-linejoin="round"/>
<path d="M12 3V7.5" stroke="#2F2B3D" stroke-opacity="0.9" stroke-width="1.5" stroke-linecap="round" stroke-linejoin="round"/>
<path d="M19.5 16L16 14" stroke="#2F2B3D" stroke-opacity="0.9" stroke-width="1.5" stroke-linecap="round" stroke-linejoin="round"/>
<path d="M8 14L4.5 16" stroke="#2F2B3D" stroke-opacity="0.9" stroke-width="1.5" stroke-linecap="round" stroke-linejoin="round"/>
</svg>
