<svg width="24" height="24" viewBox="0 0 24 24" fill="none" xmlns="http://www.w3.org/2000/svg">
<circle cx="12" cy="12" r="9" stroke="#2F2B3D" stroke-opacity="0.9" stroke-width="1.5" stroke-linecap="round" stroke-linejoin="round"/>
<path d="M12 10.523C14.46 9.69701 16.002 9.69701 16.002 8.36801C16.002 7.00201 14.655 7.00201 13.267 7.00201C11.357 7.00201 9.91504 7.49201 8.73004 8.75001C7.88204 9.65201 7.70304 11.199 8.57704 12.057C9.55004 13.013 11.783 13.846 11.461 15.55C11.228 16.785 9.99204 17.373 8.84404 16.752C8.06204 16.328 8.39004 15.006 9.47004 14.24C10.55 13.474 12.292 13.248 13.57 14C14.55 14.575 14.616 15.724 14.004 16.193" stroke="#2F2B3D" stroke-opacity="0.9" stroke-width="1.5" stroke-linecap="round" stroke-linejoin="round"/>
</svg>
