<svg width="24" height="24" viewBox="0 0 24 24" fill="none" xmlns="http://www.w3.org/2000/svg">
<path d="M20.978 11.372C20.6716 6.99826 17.2581 3.48175 12.8954 3.04555C8.53268 2.60935 4.49049 5.38041 3.32423 9.60691C2.15797 13.8334 4.20706 18.2853 8.17609 20.1482C12.1451 22.011 16.879 20.7427 19.385 17.145" stroke="#2F2B3D" stroke-opacity="0.9" stroke-width="1.5" stroke-linecap="round" stroke-linejoin="round"/>
<path d="M20.9781 11.372C21.1881 14.365 15.9441 13.785 14.0651 12.858C15.4571 11.258 14.4671 8.81998 11.7911 9.00698C10.0461 9.12898 8.86406 10.164 9.00706 12.209C9.28706 16.199 13.4511 18.414 19.3671 16.999" stroke="#2F2B3D" stroke-opacity="0.9" stroke-width="1.5" stroke-linecap="round" stroke-linejoin="round"/>
<path d="M3.02203 12.628C2.73903 8.58499 11.739 5.39999 14.27 9.93999" stroke="#2F2B3D" stroke-opacity="0.9" stroke-width="1.5" stroke-linecap="round" stroke-linejoin="round"/>
<path d="M12.628 20.978C9.63504 21.188 7.46604 16.253 9.06104 11.23" stroke="#2F2B3D" stroke-opacity="0.9" stroke-width="1.5" stroke-linecap="round" stroke-linejoin="round"/>
</svg>
