<svg width="24" height="24" viewBox="0 0 24 24" fill="none" xmlns="http://www.w3.org/2000/svg">
<circle cx="12" cy="5" r="2" stroke="#2F2B3D" stroke-opacity="0.9" stroke-width="1.5" stroke-linecap="round" stroke-linejoin="round"/>
<path d="M17.1862 7.93369C17.4754 8.2302 17.9503 8.23609 18.2468 7.94686C18.5433 7.65762 18.5492 7.18279 18.2599 6.88628L17.7231 7.40999L17.1862 7.93369ZM14.169 4.52139C13.7677 4.41872 13.3591 4.6608 13.2565 5.06209C13.1538 5.46338 13.3959 5.87191 13.7972 5.97458L13.9831 5.24799L14.169 4.52139ZM10.1984 5.97447C10.5996 5.87157 10.8414 5.4629 10.7385 5.06167C10.6356 4.66044 10.227 4.4186 9.82573 4.5215L10.012 5.24799L10.1984 5.97447ZM5.6812 6.94543C5.39481 7.24468 5.40524 7.71944 5.70449 8.00583C6.00375 8.29222 6.47851 8.2818 6.7649 7.98254L6.22305 7.46399L5.6812 6.94543ZM5.05999 10.8959C5.1798 10.4994 4.9555 10.0809 4.559 9.96105C4.16249 9.84123 3.74393 10.0655 3.62411 10.462L4.34205 10.679L5.05999 10.8959ZM4.00005 12.999H4.75005L4.75005 12.9984L4.00005 12.999ZM3.56397 15.3301C3.67395 15.7295 4.08684 15.964 4.48619 15.8541C4.88553 15.7441 5.12011 15.3312 5.01013 14.9318L4.28705 15.131L3.56397 15.3301ZM6.78663 18.0382C6.49898 17.7401 6.02418 17.7317 5.72614 18.0193C5.42809 18.307 5.41967 18.7818 5.70732 19.0798L6.24697 18.559L6.78663 18.0382ZM9.81903 21.4753C10.2202 21.5786 10.6291 21.3371 10.7323 20.9359C10.8355 20.5348 10.5941 20.1259 10.1929 20.0227L10.006 20.749L9.81903 21.4753ZM13.8161 20.0199C13.4151 20.1237 13.1742 20.5329 13.278 20.9339C13.3818 21.3349 13.791 21.5759 14.192 21.472L14.0041 20.746L13.8161 20.0199ZM18.2906 19.0809C18.5783 18.7829 18.57 18.3081 18.272 18.0204C17.974 17.7327 17.4992 17.741 17.2115 18.039L17.7511 18.56L18.2906 19.0809ZM18.99 14.931C18.8801 15.3304 19.1147 15.7432 19.5141 15.8531C19.9135 15.963 20.3263 15.7283 20.4362 15.329L19.7131 15.13L18.99 14.931ZM20.0001 12.999H19.2501V12.9996L20.0001 12.999ZM20.4142 10.5899C20.3004 10.1917 19.8853 9.96105 19.487 10.0748C19.0888 10.1886 18.8581 10.6038 18.9719 11.002L19.6931 10.796L20.4142 10.5899ZM17.7231 7.40999L18.2599 6.88628C17.1392 5.73739 15.7238 4.9192 14.169 4.52139L13.9831 5.24799L13.7972 5.97458C15.0853 6.30414 16.2578 6.98194 17.1862 7.93369L17.7231 7.40999ZM10.012 5.24799L9.82573 4.5215C8.24509 4.92687 6.80944 5.76652 5.6812 6.94543L6.22305 7.46399L6.7649 7.98254C7.69957 7.00589 8.88891 6.3103 10.1984 5.97447L10.012 5.24799ZM4.34205 10.679L3.62411 10.462C3.37546 11.2849 3.24941 12.1399 3.25005 12.9995L4.00005 12.999L4.75005 12.9984C4.74952 12.2862 4.85396 11.5777 5.05999 10.8959L4.34205 10.679ZM4.00005 12.999H3.25005C3.25005 13.805 3.3593 14.587 3.56397 15.3301L4.28705 15.131L5.01013 14.9318C4.8408 14.317 4.75005 13.669 4.75005 12.999H4.00005ZM6.24697 18.559L5.70732 19.0798C6.83004 20.2431 8.25334 21.0723 9.81903 21.4753L10.006 20.749L10.1929 20.0227C8.89584 19.6888 7.71674 19.0019 6.78663 18.0382L6.24697 18.559ZM14.0041 20.746L14.192 21.472C15.7525 21.0681 17.171 20.2406 18.2906 19.0809L17.7511 18.56L17.2115 18.039C16.2839 18.9997 15.1089 19.6853 13.8161 20.0199L14.0041 20.746ZM19.7131 15.13L20.4362 15.329C20.6451 14.5698 20.7507 13.7858 20.7501 12.9984L20.0001 12.999L19.2501 12.9996C19.2506 13.6522 19.1631 14.3018 18.99 14.931L19.7131 15.13ZM20.0001 12.999H20.7501C20.7501 12.1646 20.6332 11.3563 20.4142 10.5899L19.6931 10.796L18.9719 11.002C19.153 11.6357 19.2501 12.3053 19.2501 12.999H20.0001Z" fill="#2F2B3D" fill-opacity="0.9"/>
<circle cx="5" cy="17" r="2" stroke="#2F2B3D" stroke-opacity="0.9" stroke-width="1.5" stroke-linecap="round" stroke-linejoin="round"/>
<circle cx="19" cy="17" r="2" stroke="#2F2B3D" stroke-opacity="0.9" stroke-width="1.5" stroke-linecap="round" stroke-linejoin="round"/>
</svg>
