<svg width="24" height="24" viewBox="0 0 24 24" fill="none" xmlns="http://www.w3.org/2000/svg">
<path d="M9.23219 19.7132C9.62605 19.5849 9.84139 19.1617 9.71315 18.7678C9.58492 18.374 9.16167 18.1586 8.76781 18.2869L9 19L9.23219 19.7132ZM3.21162 15.2805C2.81424 15.1636 2.39735 15.391 2.28048 15.7884C2.1636 16.1858 2.39099 16.6027 2.78838 16.7195L3 16L3.21162 15.2805ZM14.25 21C14.25 21.4142 14.5858 21.75 15 21.75C15.4142 21.75 15.75 21.4142 15.75 21H15H14.25ZM14.5 15.5L14.4201 14.7543C14.1329 14.7851 13.8889 14.978 13.7928 15.2504C13.6966 15.5227 13.7654 15.8261 13.9697 16.0303L14.5 15.5ZM20 9.50001H20.75V9.49925L20 9.50001ZM18.7 6.30001L17.998 6.03596C17.8958 6.30777 17.9596 6.61418 18.162 6.82252L18.7 6.30001ZM18.6 3.10001L19.2841 2.79264C19.1922 2.58812 19.0137 2.43543 18.7973 2.37644L18.6 3.10001ZM15.1 4.40001L14.911 5.1258C15.1179 5.1797 15.3381 5.14268 15.516 5.02405L15.1 4.40001ZM8.9 4.40001L8.48397 5.02405C8.66193 5.14268 8.88206 5.1797 9.08902 5.1258L8.9 4.40001ZM5.4 3.10001L5.20266 2.37644C4.98635 2.43543 4.80777 2.58812 4.71588 2.79264L5.4 3.10001ZM5.3 6.30001L5.83804 6.82252C6.04036 6.61418 6.10422 6.30777 6.00198 6.03596L5.3 6.30001ZM4 9.50001L3.25 9.49925V9.50001H4ZM9.5 15.5L10.0303 16.0303C10.2346 15.8261 10.3034 15.5227 10.2072 15.2504C10.1111 14.978 9.86709 14.7851 9.5799 14.7543L9.5 15.5ZM9 17.5H9.75C9.75 17.4689 9.74807 17.4378 9.74421 17.407L9 17.5ZM8.25 21C8.25 21.4142 8.58579 21.75 9 21.75C9.41421 21.75 9.75 21.4142 9.75 21H9H8.25ZM9 19L8.76781 18.2869C7.78835 18.6058 7.13859 18.5955 6.68952 18.4699C6.24534 18.3457 5.90666 18.0834 5.59095 17.7204C5.2345 17.3105 5.02471 16.9332 4.65299 16.4306C4.33436 15.9998 3.88999 15.48 3.21162 15.2805L3 16L2.78838 16.7195C2.96001 16.77 3.15314 16.9252 3.44701 17.3226C3.68779 17.6481 4.0655 18.2521 4.45905 18.7046C4.89334 19.2041 5.46716 19.6856 6.28548 19.9145C7.09891 20.142 8.06165 20.0943 9.23219 19.7132L9 19ZM15 21H15.75V17.5H15H14.25V21H15ZM15 17.5H15.75C15.75 17.0828 15.7784 16.6083 15.7148 16.2267C15.6351 15.7485 15.4223 15.3617 15.0303 14.9697L14.5 15.5L13.9697 16.0303C14.1777 16.2384 14.2149 16.3515 14.2352 16.4733C14.2716 16.6917 14.25 16.9172 14.25 17.5H15ZM14.5 15.5L14.5799 16.2457C16.0298 16.0904 17.5915 15.718 18.7909 14.6795C20.0225 13.6131 20.75 11.955 20.75 9.50001H20H19.25C19.25 11.645 18.6275 12.8369 17.8091 13.5455C16.9585 14.282 15.7702 14.6096 14.4201 14.7543L14.5 15.5ZM20 9.50001L20.75 9.49925C20.7486 8.10937 20.2063 6.7746 19.238 5.77751L18.7 6.30001L18.162 6.82252C18.8588 7.54004 19.249 8.50058 19.25 9.50078L20 9.50001ZM18.7 6.30001L19.402 6.56407C19.8622 5.34067 19.8198 3.98492 19.2841 2.79264L18.6 3.10001L17.9159 3.40738C18.2892 4.23836 18.3188 5.18328 17.998 6.03596L18.7 6.30001ZM18.6 3.10001C18.7973 2.37644 18.7967 2.37625 18.796 2.37607C18.7957 2.37601 18.7951 2.37582 18.7946 2.37569C18.7937 2.37544 18.7927 2.37519 18.7917 2.37493C18.7898 2.37442 18.7878 2.37389 18.7857 2.37336C18.7815 2.37229 18.7771 2.37118 18.7723 2.37004C18.7629 2.36776 18.7523 2.36536 18.7405 2.3629C18.717 2.35799 18.689 2.35288 18.6564 2.34812C18.5913 2.3386 18.5083 2.33057 18.4073 2.32832C18.2049 2.32382 17.9333 2.34264 17.5907 2.41713C16.906 2.56598 15.9449 2.93533 14.684 3.77597L15.1 4.40001L15.516 5.02405C16.6551 4.26469 17.444 3.98404 17.9093 3.88289C18.1417 3.83238 18.2951 3.8262 18.374 3.82795C18.4136 3.82883 18.4353 3.83174 18.4396 3.83237C18.4419 3.83269 18.4398 3.83246 18.4336 3.83116C18.4305 3.83052 18.4264 3.8296 18.4212 3.82836C18.4186 3.82774 18.4158 3.82703 18.4127 3.82624C18.4111 3.82584 18.4095 3.82543 18.4079 3.82498C18.407 3.82476 18.4062 3.82453 18.4053 3.8243C18.4049 3.82419 18.4042 3.82401 18.404 3.82395C18.4033 3.82377 18.4027 3.82358 18.6 3.10001ZM15.1 4.40001L15.289 3.67422C13.1323 3.11253 10.8677 3.11253 8.71098 3.67422L8.9 4.40001L9.08902 5.1258C10.9978 4.62867 13.0022 4.62867 14.911 5.1258L15.1 4.40001ZM8.9 4.40001L9.31603 3.77597C8.05506 2.93533 7.09403 2.56598 6.40932 2.41713C6.06668 2.34264 5.79511 2.32382 5.59271 2.32832C5.49172 2.33057 5.40874 2.3386 5.34355 2.34812C5.31099 2.35288 5.28298 2.35799 5.25948 2.3629C5.24773 2.36536 5.23712 2.36776 5.22765 2.37004C5.22292 2.37118 5.21847 2.37229 5.2143 2.37336C5.21222 2.37389 5.21021 2.37442 5.20827 2.37493C5.2073 2.37519 5.20635 2.37544 5.20541 2.37569C5.20494 2.37582 5.20426 2.37601 5.20402 2.37607C5.20334 2.37625 5.20266 2.37644 5.4 3.10001C5.59734 3.82358 5.59667 3.82377 5.596 3.82395C5.59579 3.82401 5.59512 3.82419 5.59469 3.8243C5.59382 3.82453 5.59297 3.82476 5.59214 3.82498C5.59046 3.82543 5.58886 3.82584 5.58731 3.82624C5.58422 3.82703 5.58139 3.82774 5.57881 3.82836C5.57364 3.8296 5.56951 3.83052 5.5664 3.83116C5.56019 3.83246 5.55815 3.83269 5.56035 3.83237C5.5647 3.83174 5.58641 3.82883 5.62604 3.82795C5.70489 3.8262 5.85832 3.83238 6.09068 3.88289C6.55597 3.98404 7.34494 4.26469 8.48397 5.02405L8.9 4.40001ZM5.4 3.10001L4.71588 2.79264C4.1802 3.98492 4.13783 5.34067 4.59802 6.56407L5.3 6.30001L6.00198 6.03596C5.68124 5.18328 5.71077 4.23836 6.08412 3.40738L5.4 3.10001ZM5.3 6.30001L4.76196 5.77751C3.79367 6.7746 3.25142 8.10937 3.25 9.49925L4 9.50001L4.75 9.50078C4.75102 8.50058 5.14124 7.54004 5.83804 6.82252L5.3 6.30001ZM4 9.50001H3.25C3.25 11.955 3.97747 13.6131 5.20907 14.6795C6.4085 15.718 7.97021 16.0904 9.4201 16.2457L9.5 15.5L9.5799 14.7543C8.22979 14.6096 7.0415 14.282 6.19093 13.5455C5.37253 12.8369 4.75 11.645 4.75 9.50001H4ZM9.5 15.5L8.96967 14.9697C8.56968 15.3697 8.34339 15.8029 8.251 16.2834C8.16443 16.7335 8.20483 17.1853 8.25579 17.593L9 17.5L9.74421 17.407C9.69517 17.0147 9.68557 16.7665 9.724 16.5666C9.75661 16.3971 9.83032 16.2304 10.0303 16.0303L9.5 15.5ZM9 17.5H8.25V21H9H9.75V17.5H9Z" fill="#2F2B3D" fill-opacity="0.9"/>
</svg>
