<svg width="24" height="24" viewBox="0 0 24 24" fill="none" xmlns="http://www.w3.org/2000/svg">
<path d="M11.25 12C11.25 12.4142 11.5858 12.75 12 12.75C12.4142 12.75 12.75 12.4142 12.75 12H12H11.25ZM15.25 12C15.25 12.4142 15.5858 12.75 16 12.75C16.4142 12.75 16.75 12.4142 16.75 12H16H15.25ZM15.25 10C15.25 10.4142 15.5858 10.75 16 10.75C16.4142 10.75 16.75 10.4142 16.75 10H16H15.25ZM12 11.25C11.5858 11.25 11.25 11.5858 11.25 12C11.25 12.4142 11.5858 12.75 12 12.75V12V11.25ZM12 12H12.75V6H12H11.25V12H12ZM12 6H12.75C12.75 5.30964 13.3096 4.75 14 4.75V4V3.25C12.4812 3.25 11.25 4.48122 11.25 6H12ZM14 4V4.75C14.6904 4.75 15.25 5.30964 15.25 6H16H16.75C16.75 4.48122 15.5188 3.25 14 3.25V4ZM16 6H15.25V12H16H16.75V6H16ZM16 10H16.75C16.75 9.30964 17.3096 8.75 18 8.75V8V7.25C16.4812 7.25 15.25 8.48122 15.25 10H16ZM18 8V8.75C18.6904 8.75 19.25 9.30964 19.25 10H20H20.75C20.75 8.48122 19.5188 7.25 18 7.25V8ZM20 10H19.25C19.25 10.6904 18.6904 11.25 18 11.25V12V12.75C19.5188 12.75 20.75 11.5188 20.75 10H20ZM18 12V11.25H12V12V12.75H18V12Z" fill="#2F2B3D" fill-opacity="0.9"/>
<path d="M12 11.25C11.5858 11.25 11.25 11.5858 11.25 12C11.25 12.4142 11.5858 12.75 12 12.75V12V11.25ZM12 15.25C11.5858 15.25 11.25 15.5858 11.25 16C11.25 16.4142 11.5858 16.75 12 16.75V16V15.25ZM14 15.25C13.5858 15.25 13.25 15.5858 13.25 16C13.25 16.4142 13.5858 16.75 14 16.75V16V15.25ZM12.75 12C12.75 11.5858 12.4142 11.25 12 11.25C11.5858 11.25 11.25 11.5858 11.25 12H12H12.75ZM12 12V12.75H18V12V11.25H12V12ZM18 12V12.75C18.6904 12.75 19.25 13.3096 19.25 14H20H20.75C20.75 12.4812 19.5188 11.25 18 11.25V12ZM20 14H19.25C19.25 14.6904 18.6904 15.25 18 15.25V16V16.75C19.5188 16.75 20.75 15.5188 20.75 14H20ZM18 16V15.25H12V16V16.75H18V16ZM14 16V16.75C14.6904 16.75 15.25 17.3096 15.25 18H16H16.75C16.75 16.4812 15.5188 15.25 14 15.25V16ZM16 18H15.25C15.25 18.6904 14.6904 19.25 14 19.25V20V20.75C15.5188 20.75 16.75 19.5188 16.75 18H16ZM14 20V19.25C13.3096 19.25 12.75 18.6904 12.75 18H12H11.25C11.25 19.5188 12.4812 20.75 14 20.75V20ZM12 18H12.75V12H12H11.25V18H12Z" fill="#2F2B3D" fill-opacity="0.9"/>
<path d="M12.75 12C12.75 11.5858 12.4142 11.25 12 11.25C11.5858 11.25 11.25 11.5858 11.25 12H12H12.75ZM8.75 12C8.75 11.5858 8.41421 11.25 8 11.25C7.58579 11.25 7.25 11.5858 7.25 12H8H8.75ZM8.75 14C8.75 13.5858 8.41421 13.25 8 13.25C7.58579 13.25 7.25 13.5858 7.25 14H8H8.75ZM12 12.75C12.4142 12.75 12.75 12.4142 12.75 12C12.75 11.5858 12.4142 11.25 12 11.25V12V12.75ZM12 12H11.25V18H12H12.75V12H12ZM12 18H11.25C11.25 18.6904 10.6904 19.25 10 19.25V20V20.75C11.5188 20.75 12.75 19.5188 12.75 18H12ZM10 20V19.25C9.30964 19.25 8.75 18.6904 8.75 18H8H7.25C7.25 19.5188 8.48122 20.75 10 20.75V20ZM8 18H8.75V12H8H7.25V18H8ZM8 14H7.25C7.25 14.6904 6.69036 15.25 6 15.25V16V16.75C7.51878 16.75 8.75 15.5188 8.75 14H8ZM6 16V15.25C5.30964 15.25 4.75 14.6904 4.75 14H4H3.25C3.25 15.5188 4.48122 16.75 6 16.75V16ZM4 14H4.75C4.75 13.3096 5.30964 12.75 6 12.75V12V11.25C4.48122 11.25 3.25 12.4812 3.25 14H4ZM6 12V12.75H12V12V11.25H6V12Z" fill="#2F2B3D" fill-opacity="0.9"/>
<path d="M12 12.75C12.4142 12.75 12.75 12.4142 12.75 12C12.75 11.5858 12.4142 11.25 12 11.25V12V12.75ZM12 8.75C12.4142 8.75 12.75 8.41421 12.75 8C12.75 7.58579 12.4142 7.25 12 7.25V8V8.75ZM10 8.75C10.4142 8.75 10.75 8.41421 10.75 8C10.75 7.58579 10.4142 7.25 10 7.25V8V8.75ZM11.25 12C11.25 12.4142 11.5858 12.75 12 12.75C12.4142 12.75 12.75 12.4142 12.75 12H12H11.25ZM12 12V11.25H6V12V12.75H12V12ZM6 12V11.25C5.30964 11.25 4.75 10.6904 4.75 10H4H3.25C3.25 11.5188 4.48122 12.75 6 12.75V12ZM4 10H4.75C4.75 9.30964 5.30964 8.75 6 8.75V8V7.25C4.48122 7.25 3.25 8.48122 3.25 10H4ZM6 8V8.75H12V8V7.25H6V8ZM10 8V7.25C9.30964 7.25 8.75 6.69036 8.75 6H8H7.25C7.25 7.51878 8.48122 8.75 10 8.75V8ZM8 6H8.75C8.75 5.30964 9.30964 4.75 10 4.75V4V3.25C8.48122 3.25 7.25 4.48122 7.25 6H8ZM10 4V4.75C10.6904 4.75 11.25 5.30964 11.25 6H12H12.75C12.75 4.48122 11.5188 3.25 10 3.25V4ZM12 6H11.25V12H12H12.75V6H12Z" fill="#2F2B3D" fill-opacity="0.9"/>
</svg>
