<svg width="24" height="24" viewBox="0 0 24 24" fill="none" xmlns="http://www.w3.org/2000/svg">
<path fill-rule="evenodd" clip-rule="evenodd" d="M5.42805 17.245L11.5041 20.716C11.8114 20.8916 12.1887 20.8916 12.496 20.716L18.5721 17.245C18.8423 17.0907 19.0252 16.8194 19.067 16.511L20.3901 6.80702C20.4541 6.33712 20.1793 5.88686 19.732 5.72902L12.3321 3.11702C12.1169 3.04115 11.8822 3.04115 11.6671 3.11702L4.26805 5.73002C3.82085 5.88786 3.54602 6.33812 3.61005 6.80802L4.93305 16.512C4.97486 16.8204 5.15783 17.0917 5.42805 17.246V17.245Z" stroke="#2F2B3D" stroke-opacity="0.9" stroke-width="1.5" stroke-linecap="round" stroke-linejoin="round"/>
<path d="M9 15L12 7L15 15" stroke="#2F2B3D" stroke-opacity="0.9" stroke-width="1.5" stroke-linecap="round" stroke-linejoin="round"/>
<path d="M10 13H14" stroke="#2F2B3D" stroke-opacity="0.9" stroke-width="1.5" stroke-linecap="round" stroke-linejoin="round"/>
</svg>
