<svg width="24" height="24" viewBox="0 0 24 24" fill="none" xmlns="http://www.w3.org/2000/svg">
<path d="M4 11V10.25C3.58579 10.25 3.25 10.5858 3.25 11H4ZM9 11H9.75C9.75 10.5858 9.41421 10.25 9 10.25V11ZM9 15H8.25C8.25 15.4142 8.58579 15.75 9 15.75V15ZM15 15V15.75C15.4142 15.75 15.75 15.4142 15.75 15H15ZM15 11V10.25C14.5858 10.25 14.25 10.5858 14.25 11H15ZM20 11H20.75C20.75 10.5858 20.4142 10.25 20 10.25V11ZM20 20V20.75C20.4142 20.75 20.75 20.4142 20.75 20H20ZM4 20H3.25C3.25 20.4142 3.58579 20.75 4 20.75V20ZM9 4V3.25C8.58579 3.25 8.25 3.58579 8.25 4H9ZM15 4H15.75C15.75 3.58579 15.4142 3.25 15 3.25V4ZM15 8V8.75C15.4142 8.75 15.75 8.41421 15.75 8H15ZM9 8H8.25C8.25 8.41421 8.58579 8.75 9 8.75V8ZM4 11V11.75H9V11V10.25H4V11ZM9 11H8.25V15H9H9.75V11H9ZM9 15V15.75H15V15V14.25H9V15ZM15 15H15.75V11H15H14.25V15H15ZM15 11V11.75H20V11V10.25H15V11ZM20 11H19.25V20H20H20.75V11H20ZM20 20V19.25H4V20V20.75H20V20ZM4 20H4.75V11H4H3.25V20H4ZM9 4V4.75H15V4V3.25H9V4ZM15 4H14.25V8H15H15.75V4H15ZM15 8V7.25H9V8V8.75H15V8ZM9 8H9.75V4H9H8.25V8H9Z" fill="#2F2B3D" fill-opacity="0.9"/>
</svg>
