<svg width="24" height="24" viewBox="0 0 24 24" fill="none" xmlns="http://www.w3.org/2000/svg">
<path fill-rule="evenodd" clip-rule="evenodd" d="M12 10C10 10 9 11 9 13C9 14.5 10.494 16.535 12 18.5C13 19.5 13.5 20 14.5 20.5C15.5 21 17 21.5 19 20C21 18.5 20.5 16.5 19.5 14C18.5 11.5 17.167 8.5 14.5 4.5C13.666 3.5 13 3 11.997 3C10.997 3 10.374 3.45 9.5 4.5C6.833 8.5 5.5 11.5 4.5 14C3.5 16.5 3 18.5 5 20C7 21.5 8.5 21 9.5 20.5C10.5 20 11 19.5 12 18.5C13.506 16.535 15 14.5 15 13C15 11 14 10 12 10Z" stroke="#2F2B3D" stroke-opacity="0.9" stroke-width="1.5" stroke-linecap="round" stroke-linejoin="round"/>
</svg>
