<svg width="24" height="24" viewBox="0 0 24 24" fill="none" xmlns="http://www.w3.org/2000/svg">
<path d="M2 12C3.10457 12 4 11.1046 4 10V6C4 4.89543 4.89543 4 6 4H18C19.1046 4 20 4.89543 20 6V10C20 11.1046 20.8954 12 22 12" stroke="#2F2B3D" stroke-opacity="0.9" stroke-width="1.5" stroke-linecap="round" stroke-linejoin="round"/>
<path d="M2 12C3.10457 12 4 12.8954 4 14V18C4 19.1046 4.89543 20 6 20H18C19.1046 20 20 19.1046 20 18V14C20 12.8954 20.8954 12 22 12" stroke="#2F2B3D" stroke-opacity="0.9" stroke-width="1.5" stroke-linecap="round" stroke-linejoin="round"/>
<path fill-rule="evenodd" clip-rule="evenodd" d="M9 16V8H12.5C13.6046 8 14.5 8.89543 14.5 10C14.5 11.1046 13.6046 12 12.5 12H9H13C14.1046 12 15 12.8954 15 14C15 15.1046 14.1046 16 13 16H9Z" stroke="#2F2B3D" stroke-opacity="0.9" stroke-width="1.5" stroke-linecap="round" stroke-linejoin="round"/>
</svg>
