<svg width="24" height="24" viewBox="0 0 24 24" fill="none" xmlns="http://www.w3.org/2000/svg">
<ellipse cx="12" cy="12" rx="10" ry="9" stroke="#2F2B3D" stroke-opacity="0.9" stroke-width="1.5" stroke-linecap="round" stroke-linejoin="round"/>
<path d="M5.5 15L5.895 13.026L6.5 10H7.82C8.1138 10.0001 8.39268 10.1295 8.58258 10.3536C8.77248 10.5778 8.85418 10.8742 8.806 11.164L8.639 12.164C8.55883 12.6462 8.14182 12.9998 7.653 13H6" stroke="#2F2B3D" stroke-opacity="0.9" stroke-width="1.5" stroke-linecap="round" stroke-linejoin="round"/>
<path d="M15.5 15L15.895 13.026L16.5 10H17.82C18.1138 10.0001 18.3927 10.1295 18.5826 10.3536C18.7725 10.5778 18.8542 10.8742 18.806 11.164L18.639 12.164C18.5588 12.6462 18.1418 12.9998 17.653 13H16" stroke="#2F2B3D" stroke-opacity="0.9" stroke-width="1.5" stroke-linecap="round" stroke-linejoin="round"/>
<path d="M12 7.5L11 13" stroke="#2F2B3D" stroke-opacity="0.9" stroke-width="1.5" stroke-linecap="round" stroke-linejoin="round"/>
<path d="M11.6001 10H14.0001L13.5001 13" stroke="#2F2B3D" stroke-opacity="0.9" stroke-width="1.5" stroke-linecap="round" stroke-linejoin="round"/>
</svg>
