<svg width="24" height="24" viewBox="0 0 24 24" fill="none" xmlns="http://www.w3.org/2000/svg">
<path d="M6 4L6.74246 4.10607C6.74748 4.07093 6.75 4.03549 6.75 4H6ZM4 18L3.25754 17.8939C3.25252 17.9291 3.25 17.9645 3.25 18H4ZM7.8 19V19.75C8.14679 19.75 8.44836 19.5122 8.52929 19.175L7.8 19ZM9 14L9.72929 14.175C9.7334 14.1579 9.7369 14.1407 9.7398 14.1233L9 14ZM17.8802 6.55355C17.5232 6.34353 17.0635 6.46271 16.8535 6.81973C16.6435 7.17676 16.7627 7.63643 17.1197 7.84645L17.5 7.2L17.8802 6.55355ZM12.4 16.5V15.75C12.0333 15.75 11.7204 16.0151 11.6602 16.3767L12.4 16.5ZM11.8 20.1L12.5348 20.2498C12.5366 20.241 12.5383 20.2322 12.5398 20.2233L11.8 20.1ZM10.8 20.9L10.8151 20.1501C10.8101 20.15 10.805 20.15 10.8 20.15V20.9ZM8.09997 20.9V20.15C8.09491 20.15 8.08985 20.15 8.08479 20.1502L8.09997 20.9ZM7.59997 20.3L8.33479 20.4502C8.33777 20.4355 8.34032 20.4208 8.34243 20.4061L7.59997 20.3ZM8.54243 19.0061C8.60101 18.596 8.31609 18.2161 7.90604 18.1575C7.49599 18.099 7.11609 18.3839 7.05751 18.7939L7.79997 18.9L8.54243 19.0061ZM10 13V13.75H12.5V13V12.25H10V13ZM12.5 13V13.75C13.9939 13.75 15.4251 13.0106 16.4678 11.9678C17.5106 10.9251 18.25 9.49392 18.25 8H17.5H16.75C16.75 9.00608 16.2394 10.0749 15.4072 10.9072C14.5749 11.7394 13.5061 12.25 12.5 12.25V13ZM17.5 8H18.25C18.25 6.34022 17.7216 4.8883 16.6966 3.8485C15.67 2.80698 14.2151 2.25 12.5 2.25V3V3.75C13.8849 3.75 14.93 4.19302 15.6284 4.9015C16.3284 5.6117 16.75 6.65978 16.75 8H17.5ZM12.5 3V2.25H7V3V3.75H12.5V3ZM7 3V2.25C6.50608 2.25 6.07493 2.48941 5.78217 2.78217C5.48941 3.07493 5.25 3.50608 5.25 4H6H6.75C6.75 3.99392 6.76059 3.92507 6.84283 3.84283C6.92507 3.76059 6.99392 3.75 7 3.75V3ZM6 4L5.25754 3.89393L3.25754 17.8939L4 18L4.74246 18.1061L6.74246 4.10607L6 4ZM4 18H3.25C3.25 18.4939 3.48941 18.9251 3.78217 19.2178C4.07493 19.5106 4.50608 19.75 5 19.75V19V18.25C4.99392 18.25 4.92507 18.2394 4.84283 18.1572C4.76059 18.0749 4.75 18.0061 4.75 18H4ZM5 19V19.75H7.8V19V18.25H5V19ZM7.8 19L8.52929 19.175L9.72929 14.175L9 14L8.27071 13.825L7.07071 18.825L7.8 19ZM9 14L9.7398 14.1233C9.77626 13.9045 9.83587 13.8136 9.86209 13.7853C9.87212 13.7745 9.87963 13.7697 9.88977 13.7656C9.90152 13.7608 9.93408 13.75 10 13.75V13V12.25C9.51524 12.25 9.08273 12.4202 8.7629 12.7647C8.46413 13.0864 8.32374 13.4955 8.2602 13.8767L9 14ZM17.5 7.2L17.1197 7.84645C18.5379 8.68066 19.25 10.1983 19.25 12H20H20.75C20.75 9.80172 19.8621 7.71933 17.8802 6.55355L17.5 7.2ZM20 12H19.25C19.25 12.9894 18.755 13.9198 17.9463 14.6207C17.1354 15.3235 16.057 15.75 15 15.75V16.5V17.25C16.4429 17.25 17.8646 16.6765 18.9287 15.7543C19.9949 14.8302 20.75 13.5106 20.75 12H20ZM15 16.5V15.75H12.4V16.5V17.25H15V16.5ZM12.4 16.5L11.6602 16.3767L11.0602 19.9767L11.8 20.1L12.5398 20.2233L13.1398 16.6233L12.4 16.5ZM11.8 20.1L11.0651 19.9501C11.041 20.0684 10.9358 20.1526 10.8151 20.1501L10.8 20.9L10.7848 21.6498C11.6297 21.6669 12.366 21.0778 12.5348 20.2498L11.8 20.1ZM10.8 20.9V20.15H8.09997V20.9V21.65H10.8V20.9ZM8.09997 20.9L8.08479 20.1502C8.16074 20.1486 8.23327 20.1817 8.2819 20.2401L7.70574 20.7202L7.12957 21.2003C7.37274 21.4921 7.7354 21.6575 8.11516 21.6498L8.09997 20.9ZM7.70574 20.7202L8.2819 20.2401C8.33054 20.2984 8.35 20.3757 8.33479 20.4502L7.59997 20.3L6.86516 20.1498C6.78911 20.522 6.8864 20.9085 7.12957 21.2003L7.70574 20.7202ZM7.59997 20.3L8.34243 20.4061L8.54243 19.0061L7.79997 18.9L7.05751 18.7939L6.85751 20.1939L7.59997 20.3Z" fill="#2F2B3D" fill-opacity="0.9"/>
</svg>
