<svg width="24" height="24" viewBox="0 0 24 24" fill="none" xmlns="http://www.w3.org/2000/svg">
<path d="M12 9H5C3.89543 9 3 9.89543 3 11V15C3 16.1046 3.89543 17 5 17H8" stroke="#2F2B3D" stroke-opacity="0.9" stroke-width="1.5" stroke-linecap="round" stroke-linejoin="round"/>
<path d="M12 15H19C20.1046 15 21 14.1046 21 13V9C21 7.89543 20.1046 7 19 7H16" stroke="#2F2B3D" stroke-opacity="0.9" stroke-width="1.5" stroke-linecap="round" stroke-linejoin="round"/>
<path d="M8 9V5C8 3.89543 8.89543 3 10 3H14C15.1046 3 16 3.89543 16 5V10C16 11.1046 15.1046 12 14 12H10C8.89543 12 8 12.8954 8 14V19C8 20.1046 8.89543 21 10 21H14C15.1046 21 16 20.1046 16 19V15" stroke="#2F2B3D" stroke-opacity="0.9" stroke-width="1.5" stroke-linecap="round" stroke-linejoin="round"/>
<path d="M11 6V6.01" stroke="#2F2B3D" stroke-opacity="0.9" stroke-width="1.5" stroke-linecap="round" stroke-linejoin="round"/>
<path d="M13 18V18.01" stroke="#2F2B3D" stroke-opacity="0.9" stroke-width="1.5" stroke-linecap="round" stroke-linejoin="round"/>
</svg>
