<svg width="24" height="24" viewBox="0 0 24 24" fill="none" xmlns="http://www.w3.org/2000/svg">
<path d="M3.00003 18C2.99357 18.381 3.10005 18.7554 3.30603 19.076C3.6534 19.6222 4.24362 19.9665 4.89003 20C5.53603 20.033 4.35303 20 5.00003 20H8.00003C7.99958 17.7564 6.50233 15.7887 4.34003 15.19C4.89803 14.217 5.58003 13.041 6.38003 11.659C9.77761 13.0349 12.0008 16.3344 12 20H16C16.663 20 18.337 20.005 19 20C19.6626 19.9954 20.2798 19.6629 20.6482 19.1123C21.0167 18.5616 21.0885 17.8642 20.84 17.25L13.74 5.00002C13.3878 4.36338 12.7176 3.96826 11.99 3.96826C11.2625 3.96826 10.5923 4.36338 10.24 5.00002L8.40003 8.17602C12.882 10.226 16 14.747 16 20" stroke="#2F2B3D" stroke-opacity="0.9" stroke-width="1.5" stroke-linecap="round" stroke-linejoin="round"/>
</svg>
