<svg width="24" height="24" viewBox="0 0 24 24" fill="none" xmlns="http://www.w3.org/2000/svg">
<path fill-rule="evenodd" clip-rule="evenodd" d="M12 8C14.648 8 17.028 8.826 18.675 10.14C19.8392 9.73191 21.127 10.2341 21.7077 11.3225C22.2884 12.411 21.9883 13.7603 21.001 14.5C21.001 18.09 16.971 21 12.001 21C7.12595 21 3.15595 18.2 3.00095 14.706L2.00095 14.5C1.01365 13.7603 0.713536 12.411 1.29421 11.3225C1.87489 10.2341 3.16274 9.73191 4.32695 10.14C5.97295 8.827 8.35295 8 11.001 8H12Z" stroke="#2F2B3D" stroke-opacity="0.9" stroke-width="1.5" stroke-linecap="round" stroke-linejoin="round"/>
<path d="M12 8L13 3L19 4" stroke="#2F2B3D" stroke-opacity="0.9" stroke-width="1.5" stroke-linecap="round" stroke-linejoin="round"/>
<circle cx="19" cy="4" r="1" stroke="#2F2B3D" stroke-opacity="0.9" stroke-width="1.5" stroke-linecap="round" stroke-linejoin="round"/>
<circle cx="9" cy="13" r="0.5" fill="#2F2B3D" fill-opacity="0.9" stroke="#2F2B3D" stroke-opacity="0.9" stroke-width="1.5" stroke-linecap="round" stroke-linejoin="round"/>
<circle cx="15" cy="13" r="0.5" fill="#2F2B3D" fill-opacity="0.9" stroke="#2F2B3D" stroke-opacity="0.9" stroke-width="1.5" stroke-linecap="round" stroke-linejoin="round"/>
<path d="M10 17C10.667 17.333 11.333 17.5 12 17.5C12.667 17.5 13.333 17.333 14 17" stroke="#2F2B3D" stroke-opacity="0.9" stroke-width="1.5" stroke-linecap="round" stroke-linejoin="round"/>
</svg>
