<svg width="24" height="24" viewBox="0 0 24 24" fill="none" xmlns="http://www.w3.org/2000/svg">
<path d="M7 20.25C6.58579 20.25 6.25 20.5858 6.25 21C6.25 21.4142 6.58579 21.75 7 21.75V21V20.25ZM14.25 19C14.25 19.4142 14.5858 19.75 15 19.75C15.4142 19.75 15.75 19.4142 15.75 19H15H14.25ZM18 20.25C17.5858 20.25 17.25 20.5858 17.25 21C17.25 21.4142 17.5858 21.75 18 21.75V21V20.25ZM20 5H20.75C20.75 4.74924 20.6247 4.51506 20.416 4.37596L20 5ZM17 3L17.416 2.37596C17.1641 2.20801 16.8359 2.20801 16.584 2.37596L17 3ZM14 5L13.584 4.37596C13.3753 4.51506 13.25 4.74924 13.25 5H14ZM14 11V11.75C14.4142 11.75 14.75 11.4142 14.75 11H14ZM10 11H9.25C9.25 11.4142 9.58579 11.75 10 11.75V11ZM10 5H10.75C10.75 4.74924 10.6247 4.51506 10.416 4.37596L10 5ZM7 3L7.41603 2.37596C7.1641 2.20801 6.8359 2.20801 6.58397 2.37596L7 3ZM4 5L3.58397 4.37596C3.37533 4.51506 3.25 4.74924 3.25 5H4ZM7 21.75C7.41421 21.75 7.75 21.4142 7.75 21C7.75 20.5858 7.41421 20.25 7 20.25V21V21.75ZM15.75 19C15.75 18.5858 15.4142 18.25 15 18.25C14.5858 18.25 14.25 18.5858 14.25 19H15H15.75ZM18 21.75C18.4142 21.75 18.75 21.4142 18.75 21C18.75 20.5858 18.4142 20.25 18 20.25V21V21.75ZM7 21V21.75H8V21V20.25H7V21ZM8 21V21.75C8.9665 21.75 9.75 20.9665 9.75 20H9H8.25C8.25 20.1381 8.13807 20.25 8 20.25V21ZM9 20H9.75V19H9H8.25V20H9ZM9 19H9.75C9.75 17.7574 10.7574 16.75 12 16.75V16V15.25C9.92893 15.25 8.25 16.9289 8.25 19H9ZM12 16V16.75C13.2426 16.75 14.25 17.7574 14.25 19H15H15.75C15.75 16.9289 14.0711 15.25 12 15.25V16ZM18 21V21.75H19V21V20.25H18V21ZM19 21V21.75C19.9665 21.75 20.75 20.9665 20.75 20H20H19.25C19.25 20.1381 19.1381 20.25 19 20.25V21ZM20 20H20.75V5H20H19.25V20H20ZM20 5L20.416 4.37596L17.416 2.37596L17 3L16.584 3.62404L19.584 5.62404L20 5ZM17 3L16.584 2.37596L13.584 4.37596L14 5L14.416 5.62404L17.416 3.62404L17 3ZM14 5H13.25V11H14H14.75V5H14ZM14 11V10.25H10V11V11.75H14V11ZM10 11H10.75V5H10H9.25V11H10ZM10 5L10.416 4.37596L7.41603 2.37596L7 3L6.58397 3.62404L9.58397 5.62404L10 5ZM7 3L6.58397 2.37596L3.58397 4.37596L4 5L4.41603 5.62404L7.41603 3.62404L7 3ZM4 5H3.25V20H4H4.75V5H4ZM4 20H3.25C3.25 20.9665 4.0335 21.75 5 21.75V21V20.25C4.86193 20.25 4.75 20.1381 4.75 20H4ZM5 21V21.75H7V21V20.25H5V21ZM15 19H14.25V20H15H15.75V19H15ZM15 20H14.25C14.25 20.9665 15.0335 21.75 16 21.75V21V20.25C15.8619 20.25 15.75 20.1381 15.75 20H15ZM16 21V21.75H18V21V20.25H16V21Z" fill="#2F2B3D" fill-opacity="0.9"/>
<path d="M7 7V7V7.01" stroke="#2F2B3D" stroke-opacity="0.9" stroke-width="1.5" stroke-linecap="round" stroke-linejoin="round"/>
<path d="M7 10V10V10.01" stroke="#2F2B3D" stroke-opacity="0.9" stroke-width="1.5" stroke-linecap="round" stroke-linejoin="round"/>
<path d="M7 13V13V13.01" stroke="#2F2B3D" stroke-opacity="0.9" stroke-width="1.5" stroke-linecap="round" stroke-linejoin="round"/>
<path d="M17 7V7V7.01" stroke="#2F2B3D" stroke-opacity="0.9" stroke-width="1.5" stroke-linecap="round" stroke-linejoin="round"/>
<path d="M17 10V10V10.01" stroke="#2F2B3D" stroke-opacity="0.9" stroke-width="1.5" stroke-linecap="round" stroke-linejoin="round"/>
<path d="M17 13V13V13.01" stroke="#2F2B3D" stroke-opacity="0.9" stroke-width="1.5" stroke-linecap="round" stroke-linejoin="round"/>
</svg>
