<svg width="24" height="24" viewBox="0 0 24 24" fill="none" xmlns="http://www.w3.org/2000/svg">
<path d="M8.53033 8.46967C8.23744 8.17678 7.76256 8.17678 7.46967 8.46967C7.17678 8.76256 7.17678 9.23744 7.46967 9.53033L8 9L8.53033 8.46967ZM13 14H13.75C13.75 13.8011 13.671 13.6103 13.5303 13.4697L13 14ZM13 21V21.75C13.4142 21.75 13.75 21.4142 13.75 21H13ZM8 21H7.25C7.25 21.4142 7.58579 21.75 8 21.75V21ZM8.75 17C8.75 16.5858 8.41421 16.25 8 16.25C7.58579 16.25 7.25 16.5858 7.25 17H8H8.75ZM8 21.75C8.41421 21.75 8.75 21.4142 8.75 21C8.75 20.5858 8.41421 20.25 8 20.25V21V21.75ZM3 21H2.25C2.25 21.4142 2.58579 21.75 3 21.75V21ZM3 14L2.46967 13.4697C2.32902 13.6103 2.25 13.8011 2.25 14H3ZM8.53033 9.53033C8.82322 9.23744 8.82322 8.76256 8.53033 8.46967C8.23744 8.17678 7.76256 8.17678 7.46967 8.46967L8 9L8.53033 9.53033ZM8.25 10C8.25 10.4142 8.58579 10.75 9 10.75C9.41421 10.75 9.75 10.4142 9.75 10H9H8.25ZM21 21V21.75C21.4142 21.75 21.75 21.4142 21.75 21H21ZM13 20.25C12.5858 20.25 12.25 20.5858 12.25 21C12.25 21.4142 12.5858 21.75 13 21.75V21V20.25ZM8 9L7.46967 9.53033L12.4697 14.5303L13 14L13.5303 13.4697L8.53033 8.46967L8 9ZM13 14H12.25V21H13H13.75V14H13ZM13 21V20.25H8V21V21.75H13V21ZM8 21H8.75V17H8H7.25V21H8ZM8 21V20.25H3V21V21.75H8V21ZM3 21H3.75V14H3H2.25V21H3ZM3 14L3.53033 14.5303L8.53033 9.53033L8 9L7.46967 8.46967L2.46967 13.4697L3 14ZM9 10H9.75V4H9H8.25V10H9ZM9 4H9.75C9.75 3.86193 9.86193 3.75 10 3.75V3V2.25C9.0335 2.25 8.25 3.0335 8.25 4H9ZM10 3V3.75H20V3V2.25H10V3ZM20 3V3.75C20.1381 3.75 20.25 3.86193 20.25 4H21H21.75C21.75 3.0335 20.9665 2.25 20 2.25V3ZM21 4H20.25V21H21H21.75V4H21ZM21 21V20.25H13V21V21.75H21V21Z" fill="#2F2B3D" fill-opacity="0.9"/>
<path d="M13 7V7.01" stroke="#2F2B3D" stroke-opacity="0.9" stroke-width="1.5" stroke-linecap="round" stroke-linejoin="round"/>
<path d="M17 7V7.01" stroke="#2F2B3D" stroke-opacity="0.9" stroke-width="1.5" stroke-linecap="round" stroke-linejoin="round"/>
<path d="M17 11V11.01" stroke="#2F2B3D" stroke-opacity="0.9" stroke-width="1.5" stroke-linecap="round" stroke-linejoin="round"/>
<path d="M17 15V15.01" stroke="#2F2B3D" stroke-opacity="0.9" stroke-width="1.5" stroke-linecap="round" stroke-linejoin="round"/>
</svg>
