<svg width="24" height="24" viewBox="0 0 24 24" fill="none" xmlns="http://www.w3.org/2000/svg">
<path d="M4 21C5.147 16.98 5.983 12.973 6 9H12C12.017 12.973 12.853 16.98 14 21" stroke="#2F2B3D" stroke-opacity="0.9" stroke-width="1.5" stroke-linecap="round" stroke-linejoin="round"/>
<path d="M12.5 13H17C17.025 15.612 17.894 18.296 19 21" stroke="#2F2B3D" stroke-opacity="0.9" stroke-width="1.5" stroke-linecap="round" stroke-linejoin="round"/>
<path d="M9 4.99998C9.46118 4.35747 10.2093 3.98342 11 3.99998C11.7907 3.98342 12.5388 4.35747 13 4.99998C13.4612 5.64249 14.2093 6.01654 15 5.99998C15.7907 6.01654 16.5388 5.64249 17 4.99998C17.4612 4.35747 18.2093 3.98342 19 3.99998C19.7907 3.98342 20.5388 4.35747 21 4.99998" stroke="#2F2B3D" stroke-opacity="0.9" stroke-width="1.5" stroke-linecap="round" stroke-linejoin="round"/>
<path d="M3 21H22" stroke="#2F2B3D" stroke-opacity="0.9" stroke-width="1.5" stroke-linecap="round" stroke-linejoin="round"/>
</svg>
