<svg width="24" height="24" viewBox="0 0 24 24" fill="none" xmlns="http://www.w3.org/2000/svg">
<path d="M3 21H21" stroke="#2F2B3D" stroke-opacity="0.9" stroke-width="1.5" stroke-linecap="round" stroke-linejoin="round"/>
<path d="M10 21V17C10 15.8954 10.8954 15 12 15C13.1046 15 14 15.8954 14 17V21" stroke="#2F2B3D" stroke-opacity="0.9" stroke-width="1.5" stroke-linecap="round" stroke-linejoin="round"/>
<path d="M10 5H14" stroke="#2F2B3D" stroke-opacity="0.9" stroke-width="1.5" stroke-linecap="round" stroke-linejoin="round"/>
<path d="M12 3V8" stroke="#2F2B3D" stroke-opacity="0.9" stroke-width="1.5" stroke-linecap="round" stroke-linejoin="round"/>
<path d="M5.25 21C5.25 21.4142 5.58579 21.75 6 21.75C6.41421 21.75 6.75 21.4142 6.75 21H6H5.25ZM6.75 14C6.75 13.5858 6.41421 13.25 6 13.25C5.58579 13.25 5.25 13.5858 5.25 14H6H6.75ZM3.46967 15.4697C3.17678 15.7626 3.17678 16.2374 3.46967 16.5303C3.76256 16.8232 4.23744 16.8232 4.53033 16.5303L4 16L3.46967 15.4697ZM12 8L12.5303 7.46967C12.2374 7.17678 11.7626 7.17678 11.4697 7.46967L12 8ZM19.4697 16.5303C19.7626 16.8232 20.2374 16.8232 20.5303 16.5303C20.8232 16.2374 20.8232 15.7626 20.5303 15.4697L20 16L19.4697 16.5303ZM18.75 14C18.75 13.5858 18.4142 13.25 18 13.25C17.5858 13.25 17.25 13.5858 17.25 14H18H18.75ZM17.25 21C17.25 21.4142 17.5858 21.75 18 21.75C18.4142 21.75 18.75 21.4142 18.75 21H18H17.25ZM6 21H6.75V14H6H5.25V21H6ZM4 16L4.53033 16.5303L12.5303 8.53033L12 8L11.4697 7.46967L3.46967 15.4697L4 16ZM12 8L11.4697 8.53033L19.4697 16.5303L20 16L20.5303 15.4697L12.5303 7.46967L12 8ZM18 14H17.25V21H18H18.75V14H18Z" fill="#2F2B3D" fill-opacity="0.9"/>
</svg>
