<svg width="24" height="24" viewBox="0 0 24 24" fill="none" xmlns="http://www.w3.org/2000/svg">
<path d="M3 11.25C2.58579 11.25 2.25 11.5858 2.25 12C2.25 12.4142 2.58579 12.75 3 12.75V12V11.25ZM4 12.75C4.41421 12.75 4.75 12.4142 4.75 12C4.75 11.5858 4.41421 11.25 4 11.25V12V12.75ZM12.75 3C12.75 2.58579 12.4142 2.25 12 2.25C11.5858 2.25 11.25 2.58579 11.25 3H12H12.75ZM11.25 4C11.25 4.41421 11.5858 4.75 12 4.75C12.4142 4.75 12.75 4.41421 12.75 4H12H11.25ZM20 11.25C19.5858 11.25 19.25 11.5858 19.25 12C19.25 12.4142 19.5858 12.75 20 12.75V12V11.25ZM21 12.75C21.4142 12.75 21.75 12.4142 21.75 12C21.75 11.5858 21.4142 11.25 21 11.25V12V12.75ZM6.13028 5.06967C5.83739 4.77677 5.36251 4.77677 5.06962 5.06967C4.77673 5.36256 4.77673 5.83743 5.06962 6.13033L5.59995 5.6L6.13028 5.06967ZM5.76962 6.83033C6.06251 7.12322 6.53739 7.12322 6.83028 6.83033C7.12317 6.53743 7.12317 6.06256 6.83028 5.76967L6.29995 6.3L5.76962 6.83033ZM18.9304 6.13033C19.2233 5.83743 19.2233 5.36256 18.9304 5.06967C18.6375 4.77677 18.1626 4.77677 17.8697 5.06967L18.4 5.6L18.9304 6.13033ZM17.1697 5.76967C16.8768 6.06256 16.8768 6.53743 17.1697 6.83033C17.4626 7.12322 17.9375 7.12322 18.2304 6.83033L17.7 6.3L17.1697 5.76967ZM3 12V12.75H4V12V11.25H3V12ZM12 3H11.25V4H12H12.75V3H12ZM20 12V12.75H21V12V11.25H20V12ZM5.59995 5.6L5.06962 6.13033L5.76962 6.83033L6.29995 6.3L6.83028 5.76967L6.13028 5.06967L5.59995 5.6ZM18.4 5.6L17.8697 5.06967L17.1697 5.76967L17.7 6.3L18.2304 6.83033L18.9304 6.13033L18.4 5.6Z" fill="#2F2B3D" fill-opacity="0.9"/>
<path d="M9.00008 16C7.27836 14.7087 6.57609 12.4606 7.25666 10.4189C7.93723 8.37715 9.84793 7 12.0001 7C14.1522 7 16.0629 8.37715 16.7435 10.4189C17.4241 12.4606 16.7218 14.7087 15.0001 16C14.2082 16.7838 13.8369 17.8978 14.0001 19C14.0001 20.1046 13.1046 21 12.0001 21C10.8955 21 10.0001 20.1046 10.0001 19C10.1633 17.8978 9.79192 16.7838 9.00008 16" stroke="#2F2B3D" stroke-opacity="0.9" stroke-width="1.5" stroke-linecap="round" stroke-linejoin="round"/>
<path d="M9.69995 17H14.3" stroke="#2F2B3D" stroke-opacity="0.9" stroke-width="1.5" stroke-linecap="round" stroke-linejoin="round"/>
</svg>
