<svg width="24" height="24" viewBox="0 0 24 24" fill="none" xmlns="http://www.w3.org/2000/svg">
<circle cx="6" cy="17" r="2" stroke="#2F2B3D" stroke-opacity="0.9" stroke-width="1.5" stroke-linecap="round" stroke-linejoin="round"/>
<circle cx="18" cy="17" r="2" stroke="#2F2B3D" stroke-opacity="0.9" stroke-width="1.5" stroke-linecap="round" stroke-linejoin="round"/>
<path d="M4 17.75C4.41421 17.75 4.75 17.4142 4.75 17C4.75 16.5858 4.41421 16.25 4 16.25V17V17.75ZM2 17H1.25C1.25 17.4142 1.58579 17.75 2 17.75V17ZM22 17V17.75C22.4142 17.75 22.75 17.4142 22.75 17H22ZM20 16.25C19.5858 16.25 19.25 16.5858 19.25 17C19.25 17.4142 19.5858 17.75 20 17.75V17V16.25ZM16 17.75C16.4142 17.75 16.75 17.4142 16.75 17C16.75 16.5858 16.4142 16.25 16 16.25V17V17.75ZM8 16.25C7.58579 16.25 7.25 16.5858 7.25 17C7.25 17.4142 7.58579 17.75 8 17.75V17V16.25ZM4 17V16.25H2V17V17.75H4V17ZM2 17H2.75V6H2H1.25V17H2ZM2 6H2.75C2.75 5.86193 2.86193 5.75 3 5.75V5V4.25C2.0335 4.25 1.25 5.0335 1.25 6H2ZM3 5V5.75H17V5V4.25H3V5ZM17 5V5.75C18.0756 5.75 19.1202 6.35911 19.9252 7.48618C20.7293 8.61181 21.25 10.2053 21.25 12H22H22.75C22.75 9.92871 22.1515 8.02219 21.1458 6.61432C20.1412 5.20789 18.6858 4.25 17 4.25V5ZM22 12H21.25V17H22H22.75V12H22ZM22 17V16.25H20V17V17.75H22V17ZM16 17V16.25H8V17V17.75H16V17Z" fill="#2F2B3D" fill-opacity="0.9"/>
<path d="M16 5L17.5 12H22" stroke="#2F2B3D" stroke-opacity="0.9" stroke-width="1.5" stroke-linecap="round" stroke-linejoin="round"/>
<path d="M2 10H17" stroke="#2F2B3D" stroke-opacity="0.9" stroke-width="1.5" stroke-linecap="round" stroke-linejoin="round"/>
<path d="M7 5V10" stroke="#2F2B3D" stroke-opacity="0.9" stroke-width="1.5" stroke-linecap="round" stroke-linejoin="round"/>
<path d="M12 5V10" stroke="#2F2B3D" stroke-opacity="0.9" stroke-width="1.5" stroke-linecap="round" stroke-linejoin="round"/>
</svg>
