<svg width="24" height="24" viewBox="0 0 24 24" fill="none" xmlns="http://www.w3.org/2000/svg">
<ellipse cx="16" cy="6" rx="5" ry="3" stroke="#2F2B3D" stroke-opacity="0.9" stroke-width="1.5" stroke-linecap="round" stroke-linejoin="round"/>
<path d="M11 6V10C11 11.657 13.239 13 16 13C18.761 13 21 11.657 21 10V6" stroke="#2F2B3D" stroke-opacity="0.9" stroke-width="1.5" stroke-linecap="round" stroke-linejoin="round"/>
<path d="M11 10V14C11 15.657 13.239 17 16 17C18.761 17 21 15.657 21 14V10" stroke="#2F2B3D" stroke-opacity="0.9" stroke-width="1.5" stroke-linecap="round" stroke-linejoin="round"/>
<path d="M11 14V18C11 19.657 13.239 21 16 21C18.761 21 21 19.657 21 18V14" stroke="#2F2B3D" stroke-opacity="0.9" stroke-width="1.5" stroke-linecap="round" stroke-linejoin="round"/>
<path d="M7 9H4.5C3.67157 9 3 9.67157 3 10.5C3 11.3284 3.67157 12 4.5 12H5.5C6.32843 12 7 12.6716 7 13.5C7 14.3284 6.32843 15 5.5 15H3" stroke="#2F2B3D" stroke-opacity="0.9" stroke-width="1.5" stroke-linecap="round" stroke-linejoin="round"/>
<path d="M5.75 15C5.75 14.5858 5.41421 14.25 5 14.25C4.58579 14.25 4.25 14.5858 4.25 15H5H5.75ZM4.25 16C4.25 16.4142 4.58579 16.75 5 16.75C5.41421 16.75 5.75 16.4142 5.75 16H5H4.25ZM5.75 8C5.75 7.58579 5.41421 7.25 5 7.25C4.58579 7.25 4.25 7.58579 4.25 8H5H5.75ZM4.25 9C4.25 9.41421 4.58579 9.75 5 9.75C5.41421 9.75 5.75 9.41421 5.75 9H5H4.25ZM5 15H4.25V16H5H5.75V15H5ZM5 8H4.25V9H5H5.75V8H5Z" fill="#2F2B3D" fill-opacity="0.9"/>
</svg>
