<svg width="24" height="24" viewBox="0 0 24 24" fill="none" xmlns="http://www.w3.org/2000/svg">
<path fill-rule="evenodd" clip-rule="evenodd" d="M11.995 18.176C11.9149 19.5372 10.9269 20.6732 9.58995 20.9412C8.25299 21.2093 6.90343 20.542 6.30478 19.3169C5.70612 18.0918 6.00898 16.617 7.042 15.727L7.017 15.75C4.94759 15.0238 3.70261 12.912 4.06909 10.7497C4.43557 8.58739 6.30686 7.00379 8.5 7C9.914 7 11.175 7.652 12 8.671C13.2007 7.18754 15.2066 6.62285 17.0049 7.26205C18.8032 7.90124 20.0027 9.60528 19.9978 11.5138C19.9928 13.4223 18.7846 15.1201 16.983 15.75C18.0197 16.6632 18.2987 18.1663 17.6588 19.3907C17.019 20.615 15.6257 21.2442 14.2841 20.9145C12.9425 20.5848 11.9995 19.3815 12 18L11.995 18.176Z" stroke="#2F2B3D" stroke-opacity="0.9" stroke-width="1.5" stroke-linecap="round" stroke-linejoin="round"/>
<path d="M12 19V9" stroke="#2F2B3D" stroke-opacity="0.9" stroke-width="1.5" stroke-linecap="round" stroke-linejoin="round"/>
<path d="M9 3L12 5L15 3" stroke="#2F2B3D" stroke-opacity="0.9" stroke-width="1.5" stroke-linecap="round" stroke-linejoin="round"/>
</svg>
