<svg width="24" height="24" viewBox="0 0 24 24" fill="none" xmlns="http://www.w3.org/2000/svg">
<path d="M20.5064 20.133C20.677 19.7556 20.5094 19.3113 20.132 19.1406C19.7546 18.97 19.3103 19.1376 19.1396 19.515L19.823 19.824L20.5064 20.133ZM18 21L18.0002 20.25H18V21ZM4 7H4.75L4.75 6.9996L4 7ZM5.48438 5.86022C5.86171 5.68936 6.02908 5.24496 5.85822 4.86763C5.68736 4.4903 5.24296 4.32292 4.86563 4.49378L5.175 5.177L5.48438 5.86022ZM9 4.25C8.58579 4.25 8.25 4.58579 8.25 5C8.25 5.41421 8.58579 5.75 9 5.75V5V4.25ZM19.25 16C19.25 16.4142 19.5858 16.75 20 16.75C20.4142 16.75 20.75 16.4142 20.75 16H20H19.25ZM19.823 19.824L19.1396 19.515C18.9372 19.9626 18.4915 20.2502 18.0002 20.25L18 21L17.9998 21.75C19.0804 21.7503 20.0611 21.1177 20.5064 20.133L19.823 19.824ZM18 21V20.25H6V21V21.75H18V21ZM6 21V20.25C5.30964 20.25 4.75 19.6904 4.75 19H4H3.25C3.25 20.5188 4.48122 21.75 6 21.75V21ZM4 19H4.75V7H4H3.25V19H4ZM4 7L4.75 6.9996C4.74973 6.50852 5.03703 6.06279 5.48438 5.86022L5.175 5.177L4.86563 4.49378C3.88146 4.93943 3.24941 5.92005 3.25 7.00041L4 7ZM9 5V5.75H18V5V4.25H9V5ZM18 5V5.75C18.6904 5.75 19.25 6.30964 19.25 7H20H20.75C20.75 5.48122 19.5188 4.25 18 4.25V5ZM20 7H19.25V16H20H20.75V7H20Z" fill="#2F2B3D" fill-opacity="0.9"/>
<path d="M16 3V7" stroke="#2F2B3D" stroke-opacity="0.9" stroke-width="1.5" stroke-linecap="round" stroke-linejoin="round"/>
<path d="M8 3V4" stroke="#2F2B3D" stroke-opacity="0.9" stroke-width="1.5" stroke-linecap="round" stroke-linejoin="round"/>
<path d="M4 10.25C3.58579 10.25 3.25 10.5858 3.25 11C3.25 11.4142 3.58579 11.75 4 11.75V11V10.25ZM11 11.75C11.4142 11.75 11.75 11.4142 11.75 11C11.75 10.5858 11.4142 10.25 11 10.25V11V11.75ZM15 10.25C14.5858 10.25 14.25 10.5858 14.25 11C14.25 11.4142 14.5858 11.75 15 11.75V11V10.25ZM20 11.75C20.4142 11.75 20.75 11.4142 20.75 11C20.75 10.5858 20.4142 10.25 20 10.25V11V11.75ZM4 11V11.75H11V11V10.25H4V11ZM15 11V11.75H20V11V10.25H15V11Z" fill="#2F2B3D" fill-opacity="0.9"/>
<path d="M11 15H12" stroke="#2F2B3D" stroke-opacity="0.9" stroke-width="1.5" stroke-linecap="round" stroke-linejoin="round"/>
<path d="M12 15V18" stroke="#2F2B3D" stroke-opacity="0.9" stroke-width="1.5" stroke-linecap="round" stroke-linejoin="round"/>
<path d="M3 3L21 21" stroke="#2F2B3D" stroke-opacity="0.9" stroke-width="1.5" stroke-linecap="round" stroke-linejoin="round"/>
</svg>
