<svg width="24" height="24" viewBox="0 0 24 24" fill="none" xmlns="http://www.w3.org/2000/svg">
<circle cx="12" cy="13" r="3" stroke="#2F2B3D" stroke-opacity="0.9" stroke-width="1.5" stroke-linecap="round" stroke-linejoin="round"/>
<path d="M5 6.25C4.58579 6.25 4.25 6.58579 4.25 7C4.25 7.41421 4.58579 7.75 5 7.75V7V6.25ZM12 4.75C12.4142 4.75 12.75 4.41421 12.75 4C12.75 3.58579 12.4142 3.25 12 3.25V4V4.75ZM21.75 10C21.75 9.58579 21.4142 9.25 21 9.25C20.5858 9.25 20.25 9.58579 20.25 10H21H21.75ZM5 7.75C5.41421 7.75 5.75 7.41421 5.75 7C5.75 6.58579 5.41421 6.25 5 6.25V7V7.75ZM5 7V7.75H6V7V6.25H5V7ZM6 7V7.75C7.51878 7.75 8.75 6.51878 8.75 5H8H7.25C7.25 5.69036 6.69036 6.25 6 6.25V7ZM8 5H8.75C8.75 4.86193 8.86193 4.75 9 4.75V4V3.25C8.0335 3.25 7.25 4.0335 7.25 5H8ZM9 4V4.75H12V4V3.25H9V4ZM21 10H20.25V18H21H21.75V10H21ZM21 18H20.25C20.25 18.6904 19.6904 19.25 19 19.25V20V20.75C20.5188 20.75 21.75 19.5188 21.75 18H21ZM19 20V19.25H5V20V20.75H19V20ZM5 20V19.25C4.30964 19.25 3.75 18.6904 3.75 18H3H2.25C2.25 19.5188 3.48122 20.75 5 20.75V20ZM3 18H3.75V9H3H2.25V18H3ZM3 9H3.75C3.75 8.30964 4.30964 7.75 5 7.75V7V6.25C3.48122 6.25 2.25 7.48122 2.25 9H3Z" fill="#2F2B3D" fill-opacity="0.9"/>
<path d="M15 6H21" stroke="#2F2B3D" stroke-opacity="0.9" stroke-width="1.5" stroke-linecap="round" stroke-linejoin="round"/>
</svg>
