<svg width="24" height="24" viewBox="0 0 24 24" fill="none" xmlns="http://www.w3.org/2000/svg">
<path d="M7.75739 3.768C7.46578 4.06217 7.46786 4.53704 7.76204 4.82865C8.05621 5.12026 8.53108 5.11817 8.82269 4.824L8.29004 4.296L7.75739 3.768ZM9.00004 4V3.25H8.99989L9.00004 4ZM19 7V6.25V7ZM20.25 17C20.25 17.4142 20.5858 17.75 21 17.75C21.4143 17.75 21.75 17.4142 21.75 17H21H20.25ZM20.1299 20.5074C20.5074 20.3368 20.675 19.8925 20.5044 19.5151C20.3338 19.1377 19.8895 18.97 19.5121 19.1406L19.821 19.824L20.1299 20.5074ZM7.12691 7.50844C7.50436 7.33783 7.67203 6.89355 7.50143 6.5161C7.33082 6.13866 6.88654 5.97098 6.50909 6.14158L6.818 6.82501L7.12691 7.50844ZM8.29004 4.296L8.82269 4.824C8.86962 4.77665 8.93352 4.75001 9.00019 4.75L9.00004 4L8.99989 3.25C8.53322 3.25009 8.08592 3.43657 7.75739 3.768L8.29004 4.296ZM9.00004 4V4.75H15V4V3.25H9.00004V4ZM15 4V4.75C15.1381 4.75 15.25 4.86193 15.25 5H16H16.75C16.75 4.0335 15.9665 3.25 15 3.25V4ZM16 5H15.25C15.25 6.51878 16.4813 7.75 18 7.75V7V6.25C17.3097 6.25 16.75 5.69036 16.75 5H16ZM18 7V7.75H19V7V6.25H18V7ZM19 7V7.75C19.6904 7.75 20.25 8.30964 20.25 9H21H21.75C21.75 7.48122 20.5188 6.25 19 6.25V7ZM21 9H20.25V17H21H21.75V9H21ZM19.821 19.824L19.5121 19.1406C19.3574 19.2105 19.1846 19.25 19 19.25V20V20.75C19.4014 20.75 19.7846 20.6635 20.1299 20.5074L19.821 19.824ZM19 20V19.25H5V20V20.75H19V20ZM5 20V19.25C4.30964 19.25 3.75 18.6904 3.75 18H3H2.25C2.25 19.5188 3.48122 20.75 5 20.75V20ZM3 18H3.75V9.00001H3H2.25V18H3ZM3 9.00001H3.75C3.75 8.30966 4.30964 7.75001 5 7.75001V7.00001V6.25001C3.48122 6.25001 2.25 7.48123 2.25 9.00001H3ZM5 7.00001V7.75001H6V7.00001V6.25001H5V7.00001ZM6 7.00001V7.75001C6.39963 7.75001 6.78085 7.66486 7.12691 7.50844L6.818 6.82501L6.50909 6.14158C6.35515 6.21116 6.18437 6.25001 6 6.25001V7.00001Z" fill="#2F2B3D" fill-opacity="0.9"/>
<path d="M10.436 10.44C9.37552 11.0885 8.82482 12.3239 9.05136 13.5461C9.2779 14.7684 10.2348 15.7243 11.4572 15.9497C12.6797 16.175 13.9146 15.6231 14.562 14.562" stroke="#2F2B3D" stroke-opacity="0.9" stroke-width="1.5" stroke-linecap="round" stroke-linejoin="round"/>
<path d="M3 3L21 21" stroke="#2F2B3D" stroke-opacity="0.9" stroke-width="1.5" stroke-linecap="round" stroke-linejoin="round"/>
</svg>
