<svg width="24" height="24" viewBox="0 0 24 24" fill="none" xmlns="http://www.w3.org/2000/svg">
<path d="M5 7H6C7.10457 7 8 6.10457 8 5C8 4.44772 8.44772 4 9 4H15C15.5523 4 16 4.44772 16 5C16 6.10457 16.8954 7 18 7H19C20.1046 7 21 7.89543 21 9V18C21 19.1046 20.1046 20 19 20H5C3.89543 20 3 19.1046 3 18V9C3 7.89543 3.89543 7 5 7" stroke="#2F2B3D" stroke-opacity="0.9" stroke-width="1.5" stroke-linecap="round" stroke-linejoin="round"/>
<path d="M11.4337 15.1781C11.0329 15.0739 10.6234 15.3143 10.5191 15.7152C10.4149 16.1161 10.6554 16.5256 11.0562 16.6298L11.245 15.904L11.4337 15.1781ZM15.75 12.9998C15.7499 12.5856 15.4141 12.2499 14.9999 12.25C14.5856 12.25 14.2499 12.5859 14.25 13.0001L15 13L15.75 12.9998ZM12.5625 10.8212C12.9636 10.9247 13.3726 10.6835 13.4762 10.2825C13.5797 9.88142 13.3386 9.47235 12.9375 9.3688L12.75 10.095L12.5625 10.8212ZM8.25 13C8.25004 13.4143 8.58585 13.75 9.00007 13.75C9.41428 13.7499 9.75004 13.4141 9.75 12.9999L9 13L8.25 13ZM11.245 15.904L11.0562 16.6298C12.18 16.922 13.3757 16.6772 14.2941 15.9669L13.8353 15.3736L13.3765 14.7804C12.8254 15.2066 12.108 15.3534 11.4337 15.1781L11.245 15.904ZM13.8353 15.3736L14.2941 15.9669C15.2126 15.2566 15.7502 14.1609 15.75 12.9998L15 13L14.25 13.0001C14.2501 13.6968 13.9275 14.3542 13.3765 14.7804L13.8353 15.3736ZM12.75 10.095L12.9375 9.3688C11.8144 9.07883 10.6204 9.32486 9.70347 10.0352L10.1628 10.6281L10.6221 11.221C11.1722 10.7948 11.8887 10.6472 12.5625 10.8212L12.75 10.095ZM10.1628 10.6281L9.70347 10.0352C8.78653 10.7455 8.2499 11.8402 8.25 13L9 13L9.75 12.9999C9.74994 12.304 10.0719 11.6472 10.6221 11.221L10.1628 10.6281Z" fill="#2F2B3D" fill-opacity="0.9"/>
<path d="M14 13H16V15" stroke="#2F2B3D" stroke-opacity="0.9" stroke-width="1.5" stroke-linecap="round" stroke-linejoin="round"/>
<path d="M10 13H8V11" stroke="#2F2B3D" stroke-opacity="0.9" stroke-width="1.5" stroke-linecap="round" stroke-linejoin="round"/>
</svg>
