<svg width="24" height="24" viewBox="0 0 24 24" fill="none" xmlns="http://www.w3.org/2000/svg">
<path fill-rule="evenodd" clip-rule="evenodd" d="M7.04993 11.293L11.2929 7.04999C12.0739 6.26923 13.3399 6.26923 14.1209 7.04999L16.9499 9.87999C17.7307 10.661 17.7307 11.927 16.9499 12.708L12.7069 16.951C11.9259 17.7318 10.6599 17.7318 9.87893 16.951L7.04993 14.12C6.26916 13.339 6.26916 12.073 7.04993 11.292V11.293Z" stroke="#2F2B3D" stroke-opacity="0.9" stroke-width="1.5" stroke-linecap="round" stroke-linejoin="round"/>
<path d="M16.2431 9.17203L19.3291 8.40003C19.8534 8.26902 20.2667 7.86607 20.411 7.34522C20.5553 6.82437 20.4083 6.26617 20.0261 5.88403L17.8101 3.66703C17.4581 3.31481 16.9543 3.16021 16.4653 3.25439C15.9764 3.34858 15.566 3.67926 15.3701 4.13703L14.1221 7.05003" stroke="#2F2B3D" stroke-opacity="0.9" stroke-width="1.5" stroke-linecap="round" stroke-linejoin="round"/>
<path d="M9.17203 16.243L8.40003 19.329C8.26902 19.8534 7.86607 20.2667 7.34522 20.411C6.82437 20.5553 6.26617 20.4082 5.88403 20.026L3.66703 17.81C3.31481 17.458 3.16021 16.9542 3.25439 16.4653C3.34858 15.9763 3.67926 15.566 4.13703 15.37L7.05003 14.122" stroke="#2F2B3D" stroke-opacity="0.9" stroke-width="1.5" stroke-linecap="round" stroke-linejoin="round"/>
</svg>
