<svg width="24" height="24" viewBox="0 0 24 24" fill="none" xmlns="http://www.w3.org/2000/svg">
<circle cx="10" cy="17" r="2" stroke="#2F2B3D" stroke-opacity="0.9" stroke-width="1.5" stroke-linecap="round" stroke-linejoin="round"/>
<path d="M7.58565 5.53148C7.32689 5.20803 6.85493 5.15559 6.53148 5.41435C6.20803 5.67311 6.15559 6.14507 6.41435 6.46852L7 6L7.58565 5.53148ZM11 11L10.4143 11.4685C10.5567 11.6464 10.7722 11.75 11 11.75V11ZM14 17V17.75C14.4142 17.75 14.75 17.4142 14.75 17H14ZM12 16.25C11.5858 16.25 11.25 16.5858 11.25 17C11.25 17.4142 11.5858 17.75 12 17.75V17V16.25ZM8 17.75C8.41421 17.75 8.75 17.4142 8.75 17C8.75 16.5858 8.41421 16.25 8 16.25V17V17.75ZM3 16.25C2.58579 16.25 2.25 16.5858 2.25 17C2.25 17.4142 2.58579 17.75 3 17.75V17V16.25ZM3 10.25C2.58579 10.25 2.25 10.5858 2.25 11C2.25 11.4142 2.58579 11.75 3 11.75V11V10.25ZM11 11.75C11.4142 11.75 11.75 11.4142 11.75 11C11.75 10.5858 11.4142 10.25 11 10.25V11V11.75ZM4.25 11C4.25 11.4142 4.58579 11.75 5 11.75C5.41421 11.75 5.75 11.4142 5.75 11H5H4.25ZM5.75 6C5.75 5.58579 5.41421 5.25 5 5.25C4.58579 5.25 4.25 5.58579 4.25 6H5H5.75ZM7 6.75C7.41421 6.75 7.75 6.41421 7.75 6C7.75 5.58579 7.41421 5.25 7 5.25V6V6.75ZM3 5.25C2.58579 5.25 2.25 5.58579 2.25 6C2.25 6.41421 2.58579 6.75 3 6.75V6V5.25ZM7 6L6.41435 6.46852L10.4143 11.4685L11 11L11.5857 10.5315L7.58565 5.53148L7 6ZM11 11V11.75H12V11V10.25H11V11ZM12 11V11.75C12.6904 11.75 13.25 12.3096 13.25 13H14H14.75C14.75 11.4812 13.5188 10.25 12 10.25V11ZM14 13H13.25V17H14H14.75V13H14ZM14 17V16.25H12V17V17.75H14V17ZM8 17V16.25H3V17V17.75H8V17ZM3 11V11.75H11V11V10.25H3V11ZM5 11H5.75V6H5H4.25V11H5ZM7 6V5.25H3V6V6.75H7V6Z" fill="#2F2B3D" fill-opacity="0.9"/>
<path d="M14 8V6" stroke="#2F2B3D" stroke-opacity="0.9" stroke-width="1.5" stroke-linecap="round" stroke-linejoin="round"/>
<path d="M19 12H21" stroke="#2F2B3D" stroke-opacity="0.9" stroke-width="1.5" stroke-linecap="round" stroke-linejoin="round"/>
<path d="M17.5 15.5L19 17" stroke="#2F2B3D" stroke-opacity="0.9" stroke-width="1.5" stroke-linecap="round" stroke-linejoin="round"/>
<path d="M17.5 8.5L19 7" stroke="#2F2B3D" stroke-opacity="0.9" stroke-width="1.5" stroke-linecap="round" stroke-linejoin="round"/>
</svg>
