<svg width="24" height="24" viewBox="0 0 24 24" fill="none" xmlns="http://www.w3.org/2000/svg">
<circle cx="7" cy="17" r="2" stroke="#2F2B3D" stroke-opacity="0.9" stroke-width="1.5" stroke-linecap="round" stroke-linejoin="round"/>
<circle cx="17" cy="17" r="2" stroke="#2F2B3D" stroke-opacity="0.9" stroke-width="1.5" stroke-linecap="round" stroke-linejoin="round"/>
<path d="M5 17.75C5.41421 17.75 5.75 17.4142 5.75 17C5.75 16.5858 5.41421 16.25 5 16.25V17V17.75ZM3 17H2.25C2.25 17.4142 2.58579 17.75 3 17.75V17ZM3 11L2.30364 10.7215C2.26821 10.81 2.25 10.9046 2.25 11H3ZM5 6V5.25C4.69332 5.25 4.41754 5.43671 4.30364 5.72146L5 6ZM14 6L14.5857 5.53148C14.4433 5.35357 14.2278 5.25 14 5.25V6ZM18 11L17.4143 11.4685C17.5567 11.6464 17.7722 11.75 18 11.75V11ZM21 17V17.75C21.4142 17.75 21.75 17.4142 21.75 17H21ZM19 16.25C18.5858 16.25 18.25 16.5858 18.25 17C18.25 17.4142 18.5858 17.75 19 17.75V17V16.25ZM15 17.75C15.4142 17.75 15.75 17.4142 15.75 17C15.75 16.5858 15.4142 16.25 15 16.25V17V17.75ZM9 16.25C8.58579 16.25 8.25 16.5858 8.25 17C8.25 17.4142 8.58579 17.75 9 17.75V17V16.25ZM3 10.25C2.58579 10.25 2.25 10.5858 2.25 11C2.25 11.4142 2.58579 11.75 3 11.75V11V10.25ZM18 11.75C18.4142 11.75 18.75 11.4142 18.75 11C18.75 10.5858 18.4142 10.25 18 10.25V11V11.75ZM11.25 11C11.25 11.4142 11.5858 11.75 12 11.75C12.4142 11.75 12.75 11.4142 12.75 11H12H11.25ZM12.75 6C12.75 5.58579 12.4142 5.25 12 5.25C11.5858 5.25 11.25 5.58579 11.25 6H12H12.75ZM5 17V16.25H3V17V17.75H5V17ZM3 17H3.75V11H3H2.25V17H3ZM3 11L3.69636 11.2785L5.69636 6.27854L5 6L4.30364 5.72146L2.30364 10.7215L3 11ZM5 6V6.75H14V6V5.25H5V6ZM14 6L13.4143 6.46852L17.4143 11.4685L18 11L18.5857 10.5315L14.5857 5.53148L14 6ZM18 11V11.75H19V11V10.25H18V11ZM19 11V11.75C19.6904 11.75 20.25 12.3096 20.25 13H21H21.75C21.75 11.4812 20.5188 10.25 19 10.25V11ZM21 13H20.25V17H21H21.75V13H21ZM21 17V16.25H19V17V17.75H21V17ZM15 17V16.25H9V17V17.75H15V17ZM3 11V11.75H18V11V10.25H3V11ZM12 11H12.75V6H12H11.25V11H12Z" fill="#2F2B3D" fill-opacity="0.9"/>
</svg>
