<svg width="24" height="24" viewBox="0 0 24 24" fill="none" xmlns="http://www.w3.org/2000/svg">
<path fill-rule="evenodd" clip-rule="evenodd" d="M3 7V15.5C3 16.8807 4.11929 18 5.5 18H6.56C7.47113 17.9982 8.33207 17.5825 8.9 16.87L10.44 14.95C10.8196 14.4769 11.3934 14.2016 12 14.2016C12.6066 14.2016 13.1804 14.4769 13.56 14.95L15.1 16.87C15.6679 17.5825 16.5289 17.9982 17.44 18H18.5C19.8807 18 21 16.8807 21 15.5V7C21 5.89543 20.1046 5 19 5H5C3.89543 5 3 5.89543 3 7Z" stroke="#2F2B3D" stroke-opacity="0.9" stroke-width="1.5" stroke-linecap="round" stroke-linejoin="round"/>
<circle cx="8" cy="11" r="1" stroke="#2F2B3D" stroke-opacity="0.9" stroke-width="1.5" stroke-linecap="round" stroke-linejoin="round"/>
<circle cx="16" cy="11" r="1" stroke="#2F2B3D" stroke-opacity="0.9" stroke-width="1.5" stroke-linecap="round" stroke-linejoin="round"/>
</svg>
