<svg width="24" height="24" viewBox="0 0 24 24" fill="none" xmlns="http://www.w3.org/2000/svg">
<path d="M10.4059 10.4127C10.7012 10.1223 10.7051 9.64739 10.4147 9.35209C10.1242 9.05679 9.64936 9.05286 9.35406 9.34333L9.87999 9.87802L10.4059 10.4127ZM14.6566 14.6471C14.9471 14.3518 14.9433 13.877 14.648 13.5865C14.3528 13.2959 13.878 13.2997 13.5874 13.595L14.122 14.121L14.6566 14.6471ZM14.027 11.0228C14.2075 11.3957 14.656 11.5516 15.0289 11.3711C15.4017 11.1906 15.5576 10.742 15.3771 10.3692L14.702 10.696L14.027 11.0228ZM13.6135 8.61435C13.2398 8.43571 12.792 8.59385 12.6134 8.96756C12.4347 9.34127 12.5929 9.78904 12.9666 9.96768L13.29 9.29102L13.6135 8.61435ZM9.87999 9.87802L9.35406 9.34333C8.39373 10.2879 8.01381 11.675 8.35876 12.9771L9.08375 12.785L9.80874 12.593C9.60177 11.8117 9.82973 10.9795 10.4059 10.4127L9.87999 9.87802ZM9.08375 12.785L8.35876 12.9771C8.70371 14.2792 9.72053 15.2963 11.0226 15.6415L11.2148 14.9166L11.407 14.1916C10.6258 13.9845 10.0157 13.3742 9.80874 12.593L9.08375 12.785ZM11.2148 14.9166L11.0226 15.6415C12.3246 15.9868 13.7117 15.6072 14.6566 14.6471L14.122 14.121L13.5874 13.595C13.0205 14.171 12.1882 14.3988 11.407 14.1916L11.2148 14.9166ZM14.702 10.696L15.3771 10.3692C15.0053 9.60117 14.3834 8.98236 13.6135 8.61435L13.29 9.29102L12.9666 9.96768C13.4295 10.189 13.8034 10.561 14.027 11.0228L14.702 10.696Z" fill="#2F2B3D" fill-opacity="0.9"/>
<path d="M10 5.25C9.58579 5.25 9.25 5.58579 9.25 6C9.25 6.41421 9.58579 6.75 10 6.75V6V5.25ZM20.1391 16.5149C19.9678 16.892 20.1347 17.3366 20.5119 17.5079C20.889 17.6792 21.3336 17.5123 21.5049 17.1351L20.822 16.825L20.1391 16.5149ZM18 18.75C18.4142 18.75 18.75 18.4142 18.75 18C18.75 17.5858 18.4142 17.25 18 17.25V18V18.75ZM6 6.75C6.41421 6.75 6.75 6.41421 6.75 6C6.75 5.58579 6.41421 5.25 6 5.25V6V6.75ZM10 6V6.75H19V6V5.25H10V6ZM19 6V6.75C19.6904 6.75 20.25 7.30964 20.25 8H21H21.75C21.75 6.48122 20.5188 5.25 19 5.25V6ZM21 8H20.25V16H21H21.75V8H21ZM21 16H20.25C20.25 16.1845 20.2099 16.359 20.1391 16.5149L20.822 16.825L21.5049 17.1351C21.6621 16.789 21.75 16.4035 21.75 16H21ZM18 18V17.25H5V18V18.75H18V18ZM5 18V17.25C4.30964 17.25 3.75 16.6904 3.75 16H3H2.25C2.25 17.5188 3.48122 18.75 5 18.75V18ZM3 16H3.75V8H3H2.25V16H3ZM3 8H3.75C3.75 7.30964 4.30964 6.75 5 6.75V6V5.25C3.48122 5.25 2.25 6.48122 2.25 8H3ZM5 6V6.75H6V6V5.25H5V6Z" fill="#2F2B3D" fill-opacity="0.9"/>
<path d="M18 12H18.01" stroke="#2F2B3D" stroke-opacity="0.9" stroke-width="1.5" stroke-linecap="round" stroke-linejoin="round"/>
<path d="M6 12H6.01" stroke="#2F2B3D" stroke-opacity="0.9" stroke-width="1.5" stroke-linecap="round" stroke-linejoin="round"/>
<path d="M3 3L21 21" stroke="#2F2B3D" stroke-opacity="0.9" stroke-width="1.5" stroke-linecap="round" stroke-linejoin="round"/>
</svg>
