<svg width="24" height="24" viewBox="0 0 24 24" fill="none" xmlns="http://www.w3.org/2000/svg">
<path d="M10 3.19999C5.67001 4.20378 2.72126 8.21822 3.05844 12.6502C3.39562 17.0822 6.91776 20.6044 11.3498 20.9415C15.7818 21.2787 19.7962 18.33 20.8 14C20.8 13.4477 20.3523 13 19.8 13H13C11.8954 13 11 12.1046 11 11V3.99999C10.9749 3.76068 10.855 3.54138 10.6671 3.39107C10.4792 3.24075 10.239 3.17194 10 3.19999" stroke="#2F2B3D" stroke-opacity="0.9" stroke-width="1.5" stroke-linecap="round" stroke-linejoin="round"/>
<path d="M15 3.5C17.5718 4.40556 19.5944 6.42819 20.5 9H16C15.4477 9 15 8.55228 15 8V3.5" stroke="#2F2B3D" stroke-opacity="0.9" stroke-width="1.5" stroke-linecap="round" stroke-linejoin="round"/>
</svg>
