<svg width="24" height="24" viewBox="0 0 24 24" fill="none" xmlns="http://www.w3.org/2000/svg">
<path d="M7 12L12 17L22 7" stroke="#2F2B3D" stroke-opacity="0.9" stroke-width="1.5" stroke-linecap="round" stroke-linejoin="round"/>
<path d="M2.53033 11.4697C2.23744 11.1768 1.76256 11.1768 1.46967 11.4697C1.17678 11.7626 1.17678 12.2374 1.46967 12.5303L2 12L2.53033 11.4697ZM6.46967 17.5303C6.76256 17.8232 7.23744 17.8232 7.53033 17.5303C7.82322 17.2374 7.82322 16.7626 7.53033 16.4697L7 17L6.46967 17.5303ZM11.4697 11.4697C11.1768 11.7626 11.1768 12.2374 11.4697 12.5303C11.7626 12.8232 12.2374 12.8232 12.5303 12.5303L12 12L11.4697 11.4697ZM17.5303 7.53033C17.8232 7.23744 17.8232 6.76256 17.5303 6.46967C17.2374 6.17678 16.7626 6.17678 16.4697 6.46967L17 7L17.5303 7.53033ZM2 12L1.46967 12.5303L6.46967 17.5303L7 17L7.53033 16.4697L2.53033 11.4697L2 12ZM12 12L12.5303 12.5303L17.5303 7.53033L17 7L16.4697 6.46967L11.4697 11.4697L12 12Z" fill="#2F2B3D" fill-opacity="0.9"/>
</svg>
