<svg width="24" height="24" viewBox="0 0 24 24" fill="none" xmlns="http://www.w3.org/2000/svg">
<path d="M19.3723 15.7075C19.1859 16.0774 19.3347 16.5284 19.7046 16.7148C20.0745 16.9011 20.5255 16.7523 20.7119 16.3824L20.0421 16.045L19.3723 15.7075ZM7.61762 3.28817C7.2477 3.47455 7.09891 3.92551 7.28528 4.29542C7.47166 4.66534 7.92262 4.81413 8.29253 4.62776L7.95508 3.95797L7.61762 3.28817ZM6.16293 6.16971C6.45826 5.87927 6.46222 5.40441 6.17178 5.10909C5.88134 4.81376 5.40648 4.8098 5.11115 5.10025L5.63704 5.63498L6.16293 6.16971ZM18.8966 18.8911C19.1871 18.5959 19.1834 18.121 18.8881 17.8305C18.5929 17.5399 18.1181 17.5437 17.8275 17.8389L18.362 18.365L18.8966 18.8911ZM20.0421 16.045L20.7119 16.3824C22.6051 12.6247 21.8741 8.07646 18.8989 5.10119L18.3685 5.63152L17.8382 6.16185C20.3557 8.67938 20.9742 12.5279 19.3723 15.7075L20.0421 16.045ZM18.3685 5.63152L18.8989 5.10119C15.9236 2.12593 11.3753 1.39497 7.61762 3.28817L7.95508 3.95797L8.29253 4.62776C11.4721 3.02582 15.3207 3.64433 17.8382 6.16185L18.3685 5.63152ZM5.63704 5.63498L5.11115 5.10025C2.61413 7.55598 1.62604 11.1623 2.52264 14.5478L3.24765 14.3558L3.97265 14.1638C3.21399 11.2991 4.05006 8.24764 6.16293 6.16971L5.63704 5.63498ZM3.24765 14.3558L2.52264 14.5478C3.41924 17.9334 6.06277 20.5779 9.44795 21.4759L9.64024 20.7509L9.83253 20.026C6.96814 19.2662 4.73132 17.0285 3.97265 14.1638L3.24765 14.3558ZM9.64024 20.7509L9.44795 21.4759C12.8331 22.3738 16.4399 21.3871 18.8966 18.8911L18.362 18.365L17.8275 17.8389C15.7488 19.9509 12.6969 20.7858 9.83253 20.026L9.64024 20.7509Z" fill="#2F2B3D" fill-opacity="0.9"/>
<path d="M3 3L21 21" stroke="#2F2B3D" stroke-opacity="0.9" stroke-width="1.5" stroke-linecap="round" stroke-linejoin="round"/>
</svg>
