<svg width="24" height="24" viewBox="0 0 24 24" fill="none" xmlns="http://www.w3.org/2000/svg">
<path d="M8.55989 3.69C7.46797 4.14199 6.47576 4.8046 5.63989 5.64" stroke="#2F2B3D" stroke-opacity="0.9" stroke-width="1.5" stroke-linecap="round" stroke-linejoin="round"/>
<path d="M3.68997 8.56C3.23653 9.6503 3.00207 10.8192 2.99997 12" stroke="#2F2B3D" stroke-opacity="0.9" stroke-width="1.5" stroke-linecap="round" stroke-linejoin="round"/>
<path d="M3.68994 15.4399C4.14193 16.5319 4.80454 17.5241 5.63994 18.3599" stroke="#2F2B3D" stroke-opacity="0.9" stroke-width="1.5" stroke-linecap="round" stroke-linejoin="round"/>
<path d="M8.56006 20.31C9.65036 20.7635 10.8192 20.9979 12.0001 21" stroke="#2F2B3D" stroke-opacity="0.9" stroke-width="1.5" stroke-linecap="round" stroke-linejoin="round"/>
<path d="M15.4399 20.31C16.5319 19.858 17.5241 19.1954 18.3599 18.36" stroke="#2F2B3D" stroke-opacity="0.9" stroke-width="1.5" stroke-linecap="round" stroke-linejoin="round"/>
<path d="M20.31 15.44C20.7635 14.3497 20.9979 13.1808 21 12" stroke="#2F2B3D" stroke-opacity="0.9" stroke-width="1.5" stroke-linecap="round" stroke-linejoin="round"/>
<path d="M20.3101 8.56001C19.8581 7.4681 19.1955 6.47588 18.3601 5.64001" stroke="#2F2B3D" stroke-opacity="0.9" stroke-width="1.5" stroke-linecap="round" stroke-linejoin="round"/>
<path d="M15.44 3.68997C14.3497 3.23653 13.1808 3.00207 12 2.99997" stroke="#2F2B3D" stroke-opacity="0.9" stroke-width="1.5" stroke-linecap="round" stroke-linejoin="round"/>
</svg>
