<svg width="24" height="24" viewBox="0 0 24 24" fill="none" xmlns="http://www.w3.org/2000/svg">
<path d="M17.5303 14.4697C17.2374 14.1768 16.7626 14.1768 16.4697 14.4697C16.1768 14.7626 16.1768 15.2374 16.4697 15.5303L17 15L17.5303 14.4697ZM20.4697 19.5303C20.7626 19.8232 21.2374 19.8232 21.5303 19.5303C21.8232 19.2374 21.8232 18.7626 21.5303 18.4697L21 19L20.4697 19.5303ZM21.5303 15.5303C21.8232 15.2374 21.8232 14.7626 21.5303 14.4697C21.2374 14.1768 20.7626 14.1768 20.4697 14.4697L21 15L21.5303 15.5303ZM16.4697 18.4697C16.1768 18.7626 16.1768 19.2374 16.4697 19.5303C16.7626 19.8232 17.2374 19.8232 17.5303 19.5303L17 19L16.4697 18.4697ZM17 15L16.4697 15.5303L20.4697 19.5303L21 19L21.5303 18.4697L17.5303 14.4697L17 15ZM21 15L20.4697 14.4697L16.4697 18.4697L17 19L17.5303 19.5303L21.5303 15.5303L21 15Z" fill="#2F2B3D" fill-opacity="0.9"/>
<path d="M7 6V5H18V6" stroke="#2F2B3D" stroke-opacity="0.9" stroke-width="1.5" stroke-linecap="round" stroke-linejoin="round"/>
<path d="M7 19H11" stroke="#2F2B3D" stroke-opacity="0.9" stroke-width="1.5" stroke-linecap="round" stroke-linejoin="round"/>
<path d="M13 5L9 19" stroke="#2F2B3D" stroke-opacity="0.9" stroke-width="1.5" stroke-linecap="round" stroke-linejoin="round"/>
</svg>
