<svg width="24" height="24" viewBox="0 0 24 24" fill="none" xmlns="http://www.w3.org/2000/svg">
<path d="M9 5H7C5.89543 5 5 5.89543 5 7V19C5 20.1046 5.89543 21 7 21H17C18.1046 21 19 20.1046 19 19V7C19 5.89543 18.1046 5 17 5H15" stroke="#2F2B3D" stroke-opacity="0.9" stroke-width="1.5" stroke-linecap="round" stroke-linejoin="round"/>
<rect x="9" y="3" width="6" height="4" rx="2" stroke="#2F2B3D" stroke-opacity="0.9" stroke-width="1.5" stroke-linecap="round" stroke-linejoin="round"/>
<path d="M10.5303 11.4697C10.2374 11.1768 9.76256 11.1768 9.46967 11.4697C9.17678 11.7626 9.17678 12.2374 9.46967 12.5303L10 12L10.5303 11.4697ZM13.4697 16.5303C13.7626 16.8232 14.2374 16.8232 14.5303 16.5303C14.8232 16.2374 14.8232 15.7626 14.5303 15.4697L14 16L13.4697 16.5303ZM14.5303 12.5303C14.8232 12.2374 14.8232 11.7626 14.5303 11.4697C14.2374 11.1768 13.7626 11.1768 13.4697 11.4697L14 12L14.5303 12.5303ZM9.46967 15.4697C9.17678 15.7626 9.17678 16.2374 9.46967 16.5303C9.76256 16.8232 10.2374 16.8232 10.5303 16.5303L10 16L9.46967 15.4697ZM10 12L9.46967 12.5303L13.4697 16.5303L14 16L14.5303 15.4697L10.5303 11.4697L10 12ZM14 12L13.4697 11.4697L9.46967 15.4697L10 16L10.5303 16.5303L14.5303 12.5303L14 12Z" fill="#2F2B3D" fill-opacity="0.9"/>
</svg>
