<svg width="24" height="24" viewBox="0 0 24 24" fill="none" xmlns="http://www.w3.org/2000/svg">
<path d="M6.99996 18C4.40171 18 2.29541 15.9853 2.29541 13.5C2.29541 11.0148 4.40171 9.00004 6.99996 9.00004C7.39692 7.23157 8.81202 5.78804 10.7122 5.21321C12.6124 4.63838 14.709 5.01958 16.2122 6.21321C17.7154 7.40685 18.3969 9.23157 18 11H19C20.933 11 22.5 12.567 22.5 14.5C22.5 16.433 20.933 18 19 18" stroke="#2F2B3D" stroke-opacity="0.9" stroke-width="1.5" stroke-linecap="round" stroke-linejoin="round"/>
<path d="M11.75 13C11.75 12.5858 11.4142 12.25 11 12.25C10.5858 12.25 10.25 12.5858 10.25 13H11H11.75ZM10.25 15C10.25 15.4142 10.5858 15.75 11 15.75C11.4142 15.75 11.75 15.4142 11.75 15H11H10.25ZM11.75 18C11.75 17.5858 11.4142 17.25 11 17.25C10.5858 17.25 10.25 17.5858 10.25 18H11H11.75ZM10.25 20C10.25 20.4142 10.5858 20.75 11 20.75C11.4142 20.75 11.75 20.4142 11.75 20H11H10.25ZM15.75 15C15.75 14.5858 15.4142 14.25 15 14.25C14.5858 14.25 14.25 14.5858 14.25 15H15H15.75ZM14.25 17C14.25 17.4142 14.5858 17.75 15 17.75C15.4142 17.75 15.75 17.4142 15.75 17H15H14.25ZM15.75 20C15.75 19.5858 15.4142 19.25 15 19.25C14.5858 19.25 14.25 19.5858 14.25 20H15H15.75ZM14.25 22C14.25 22.4142 14.5858 22.75 15 22.75C15.4142 22.75 15.75 22.4142 15.75 22H15H14.25ZM11 13H10.25V15H11H11.75V13H11ZM11 18H10.25V20H11H11.75V18H11ZM15 15H14.25V17H15H15.75V15H15ZM15 20H14.25V22H15H15.75V20H15Z" fill="#2F2B3D" fill-opacity="0.9"/>
</svg>
