<svg width="24" height="24" viewBox="0 0 24 24" fill="none" xmlns="http://www.w3.org/2000/svg">
<path d="M3 3L21 21" stroke="#2F2B3D" stroke-opacity="0.9" stroke-width="1.5" stroke-linecap="round" stroke-linejoin="round"/>
<path d="M17.9999 18.75C18.4141 18.75 18.7499 18.4143 18.7499 18C18.7499 17.5858 18.4141 17.25 17.9999 17.25V18V18.75ZM6.99992 9.00004V9.75004C7.35097 9.75004 7.65505 9.50654 7.73179 9.16398L6.99992 9.00004ZM8.20974 7.98008C8.42404 7.62562 8.31043 7.16454 7.95596 6.95023C7.6015 6.73592 7.14042 6.84954 6.92611 7.204L7.56792 7.59204L8.20974 7.98008ZM9.31123 4.98106C8.94507 5.17471 8.80523 5.62853 8.99888 5.99468C9.19253 6.36084 9.64635 6.50069 10.0125 6.30703L9.66187 5.64405L9.31123 4.98106ZM10.7119 5.21405L10.9274 5.93242L10.9295 5.93179L10.7119 5.21405ZM16.2119 6.21405L15.7453 6.8013L15.7458 6.80168L16.2119 6.21405ZM17.9999 11L17.2681 10.8358C17.2182 11.0581 17.272 11.2909 17.4143 11.4687C17.5567 11.6465 17.7721 11.75 17.9999 11.75V11ZM18.9999 11L19 10.25H18.9999V11ZM20.7378 16.6309C20.4168 16.8927 20.3689 17.3652 20.6307 17.6861C20.8926 18.0071 21.365 18.055 21.686 17.7932L21.2119 17.212L20.7378 16.6309ZM17.9999 18V17.25H6.99992V18V18.75H17.9999V18ZM6.99992 18V17.25C4.78428 17.25 3.04492 15.5397 3.04492 13.5H2.29492H1.54492C1.54492 16.4304 4.01957 18.75 6.99992 18.75V18ZM2.29492 13.5H3.04492C3.04492 11.4604 4.78428 9.75004 6.99992 9.75004V9.00004V8.25004C4.01957 8.25004 1.54492 10.5697 1.54492 13.5H2.29492ZM6.99992 9.00004L7.73179 9.16398C7.82555 8.74537 7.98741 8.3478 8.20974 7.98008L7.56792 7.59204L6.92611 7.204C6.62243 7.70628 6.39829 8.25471 6.26806 8.8361L6.99992 9.00004ZM9.66187 5.64405L10.0125 6.30703C10.2988 6.15562 10.6046 6.02925 10.9274 5.93242L10.7119 5.21405L10.4964 4.49568C10.0791 4.62084 9.68293 4.78448 9.31123 4.98106L9.66187 5.64405ZM10.7119 5.21405L10.9295 5.93179C12.6031 5.4244 14.4426 5.7664 15.7453 6.8013L16.2119 6.21405L16.6784 5.6268C14.9751 4.27369 12.6206 3.85169 10.4943 4.4963L10.7119 5.21405ZM16.2119 6.21405L15.7458 6.80168C17.04 7.82806 17.5975 9.36788 17.2681 10.8358L17.9999 11L18.7317 11.1643C19.1962 9.09421 18.3897 6.98403 16.6779 5.62642L16.2119 6.21405ZM17.9999 11V11.75H18.9999V11V10.25H17.9999V11ZM18.9999 11L18.9998 11.75C20.1628 11.7502 21.1999 12.4819 21.59 13.5776L22.2966 13.326L23.0031 13.0744C22.4002 11.3812 20.7973 10.2503 19 10.25L18.9999 11ZM22.2966 13.326L21.59 13.5776C21.9802 14.6732 21.6389 15.8957 20.7378 16.6309L21.2119 17.212L21.686 17.7932C23.0787 16.657 23.6061 14.7676 23.0031 13.0744L22.2966 13.326Z" fill="#2F2B3D" fill-opacity="0.9"/>
</svg>
