<svg width="24" height="24" viewBox="0 0 24 24" fill="none" xmlns="http://www.w3.org/2000/svg">
<path d="M19 18C20.933 18 22.5 16.433 22.5 14.5C22.5 12.567 20.933 11 19 11H18C18.397 9.23204 17.715 7.40704 16.212 6.21304C14.709 5.02004 12.612 4.63804 10.712 5.21304C8.81201 5.78804 7.39701 7.23204 7.00001 9.00004C4.80101 8.91204 2.84501 10.326 2.33401 12.373C1.82201 14.42 2.89801 16.527 4.90001 17.4" stroke="#2F2B3D" stroke-opacity="0.9" stroke-width="1.5" stroke-linecap="round" stroke-linejoin="round"/>
<rect x="8" y="15" width="8" height="5" rx="1" stroke="#2F2B3D" stroke-opacity="0.9" stroke-width="1.5" stroke-linecap="round" stroke-linejoin="round"/>
<path d="M10 15V13C9.9996 12.0931 10.6094 11.2995 11.4858 11.0663C12.3621 10.8332 13.2857 11.2188 13.736 12.006" stroke="#2F2B3D" stroke-opacity="0.9" stroke-width="1.5" stroke-linecap="round" stroke-linejoin="round"/>
</svg>
