<svg width="24" height="24" viewBox="0 0 24 24" fill="none" xmlns="http://www.w3.org/2000/svg">
<path fill-rule="evenodd" clip-rule="evenodd" d="M12 3C13.5257 3.00008 14.9184 3.86806 15.5906 5.23771C16.2628 6.60735 16.0973 8.24009 15.164 9.447C17.0139 8.49067 19.2881 9.1137 20.3923 10.8793C21.4965 12.645 21.0613 14.9624 19.3917 16.2071C17.7221 17.4519 15.3769 17.2073 14 15.645V17L15 21H8.99997L9.99997 17L10.001 15.645C8.62385 17.2069 6.27882 17.451 4.60954 16.2062C2.94026 14.9615 2.50516 12.6443 3.60919 10.8788C4.71323 9.11327 6.98708 8.49008 8.83697 9.446C7.90434 8.23923 7.73911 6.60713 8.41097 5.23794C9.08282 3.86874 10.4748 3.00075 12 3Z" stroke="#2F2B3D" stroke-opacity="0.9" stroke-width="1.5" stroke-linecap="round" stroke-linejoin="round"/>
</svg>
