<svg width="24" height="24" viewBox="0 0 24 24" fill="none" xmlns="http://www.w3.org/2000/svg">
<path d="M3 14.0001C3.83 14.6421 5.077 15.0171 6.5 15.0001C7.923 15.0171 9.17 14.6421 10 14.0001C10.83 13.3581 12.077 12.9831 13.5 13.0001C14.923 12.9831 16.17 13.3581 17 14.0001" stroke="#2F2B3D" stroke-opacity="0.9" stroke-width="1.5" stroke-linecap="round" stroke-linejoin="round"/>
<path d="M8.00004 3C7.35753 3.46118 6.98348 4.20929 7.00004 5C6.98348 5.79071 7.35753 6.53882 8.00004 7" stroke="#2F2B3D" stroke-opacity="0.9" stroke-width="1.5" stroke-linecap="round" stroke-linejoin="round"/>
<path d="M12 3C11.3575 3.46118 10.9835 4.20929 11 5C10.9835 5.79071 11.3575 6.53882 12 7" stroke="#2F2B3D" stroke-opacity="0.9" stroke-width="1.5" stroke-linecap="round" stroke-linejoin="round"/>
<path fill-rule="evenodd" clip-rule="evenodd" d="M3 10H17V15C17 18.3137 14.3137 21 11 21H9C5.68629 21 3 18.3137 3 15V10Z" stroke="#2F2B3D" stroke-opacity="0.9" stroke-width="1.5" stroke-linecap="round" stroke-linejoin="round"/>
<path d="M16.746 16.726C17.9748 17.2901 19.4291 16.9624 20.2974 15.9259C21.1656 14.8894 21.2332 13.4001 20.4623 12.2893C19.6915 11.1784 18.2728 10.7204 16.998 11.171" stroke="#2F2B3D" stroke-opacity="0.9" stroke-width="1.5" stroke-linecap="round" stroke-linejoin="round"/>
</svg>
