<svg width="24" height="24" viewBox="0 0 24 24" fill="none" xmlns="http://www.w3.org/2000/svg">
<path d="M19 3H15C13.8954 3 13 3.89543 13 5V17C13 19.2091 14.7909 21 17 21C19.2091 21 21 19.2091 21 17V5C21 3.89543 20.1046 3 19 3" stroke="#2F2B3D" stroke-opacity="0.9" stroke-width="1.5" stroke-linecap="round" stroke-linejoin="round"/>
<path d="M13 7.34998L11 5.34998C10.219 4.56921 8.953 4.56921 8.172 5.34998L5.344 8.17798C4.56323 8.95898 4.56323 10.225 5.344 11.006L14.344 20.006" stroke="#2F2B3D" stroke-opacity="0.9" stroke-width="1.5" stroke-linecap="round" stroke-linejoin="round"/>
<path d="M7.3 13H5C3.89543 13 3 13.8954 3 15V19C3 20.1046 3.89543 21 5 21H17" stroke="#2F2B3D" stroke-opacity="0.9" stroke-width="1.5" stroke-linecap="round" stroke-linejoin="round"/>
<path d="M17 17V17.01" stroke="#2F2B3D" stroke-opacity="0.9" stroke-width="1.5" stroke-linecap="round" stroke-linejoin="round"/>
</svg>
