<svg width="24" height="24" viewBox="0 0 24 24" fill="none" xmlns="http://www.w3.org/2000/svg">
<path d="M17.3125 19.1817C17.689 19.0091 17.8544 18.564 17.6818 18.1874C17.5092 17.8109 17.064 17.6455 16.6875 17.8181L17 18.4999L17.3125 19.1817ZM12 18.4999L12.3125 17.8181C12.2904 17.808 12.2677 17.7989 12.2447 17.791L12 18.4999ZM7 18.9999L6.61973 18.3535C6.28752 18.5489 6.15751 18.9643 6.31905 19.3143C6.48059 19.6642 6.88108 19.8347 7.24531 19.7087L7 18.9999ZM9 16.4999L9.74531 16.5837C9.74843 16.5559 9.75 16.5279 9.75 16.4999H9ZM9 8.99993L8.25 8.99541V8.99993H9ZM15.8031 7.37945C16.0127 7.73672 16.4723 7.85642 16.8295 7.64682C17.1868 7.43721 17.3065 6.97768 17.0969 6.62041L16.45 6.99993L15.8031 7.37945ZM13.9 13.7499C14.3142 13.7499 14.65 13.4142 14.65 12.9999C14.65 12.5857 14.3142 12.2499 13.9 12.2499V12.9999V13.7499ZM6.90002 12.2499C6.48581 12.2499 6.15002 12.5857 6.15002 12.9999C6.15002 13.4142 6.48581 13.7499 6.90002 13.7499V12.9999V12.2499ZM17 18.4999L16.6875 17.8181C15.2986 18.4547 13.7014 18.4547 12.3125 17.8181L12 18.4999L11.6875 19.1817C13.4732 20.0002 15.5268 20.0002 17.3125 19.1817L17 18.4999ZM12 18.4999L12.2447 17.791C10.3777 17.1465 8.32213 17.3521 6.61973 18.3535L7 18.9999L7.38027 19.6464C8.70436 18.8675 10.3032 18.7076 11.7553 19.2089L12 18.4999ZM7 18.9999L7.24531 19.7087C8.61128 19.2359 9.5839 18.0201 9.74531 16.5837L9 16.4999L8.25469 16.4162C8.15785 17.278 7.57427 18.0075 6.75469 18.2912L7 18.9999ZM9 16.4999H9.75V8.99993H9H8.25V16.4999H9ZM9 8.99993L9.74999 9.00445C9.7588 7.54135 10.7442 6.26452 12.1573 5.88517L11.9628 5.16082L11.7684 4.43647C9.70309 4.99091 8.2629 6.85704 8.25001 8.99541L9 8.99993ZM11.9628 5.16082L12.1573 5.88517C13.5704 5.50582 15.0627 6.11748 15.8031 7.37945L16.45 6.99993L17.0969 6.62041C16.0148 4.77599 13.8336 3.88203 11.7684 4.43647L11.9628 5.16082ZM13.9 12.9999V12.2499H6.90002V12.9999V13.7499H13.9V12.9999Z" fill="#2F2B3D" fill-opacity="0.9"/>
</svg>
