<svg width="24" height="24" viewBox="0 0 24 24" fill="none" xmlns="http://www.w3.org/2000/svg">
<path d="M13 12V12.01" stroke="#2F2B3D" stroke-opacity="0.9" stroke-width="1.5" stroke-linecap="round" stroke-linejoin="round"/>
<path d="M3 21H21" stroke="#2F2B3D" stroke-opacity="0.9" stroke-width="1.5" stroke-linecap="round" stroke-linejoin="round"/>
<path d="M4.25 21C4.25 21.4142 4.58579 21.75 5 21.75C5.41421 21.75 5.75 21.4142 5.75 21H5H4.25ZM13 3.75C13.4142 3.75 13.75 3.41421 13.75 3C13.75 2.58579 13.4142 2.25 13 2.25V3V3.75ZM17.75 13.5C17.75 13.0858 17.4142 12.75 17 12.75C16.5858 12.75 16.25 13.0858 16.25 13.5H17H17.75ZM16.25 21C16.25 21.4142 16.5858 21.75 17 21.75C17.4142 21.75 17.75 21.4142 17.75 21H17H16.25ZM5 21H5.75V5H5H4.25V21H5ZM5 5H5.75C5.75 4.30964 6.30964 3.75 7 3.75V3V2.25C5.48122 2.25 4.25 3.48122 4.25 5H5ZM7 3V3.75H13V3V2.25H7V3ZM17 13.5H16.25V21H17H17.75V13.5H17Z" fill="#2F2B3D" fill-opacity="0.9"/>
<path d="M21 7.75C21.4142 7.75 21.75 7.41421 21.75 7C21.75 6.58579 21.4142 6.25 21 6.25V7V7.75ZM14 6.25C13.5858 6.25 13.25 6.58579 13.25 7C13.25 7.41421 13.5858 7.75 14 7.75V7V6.25ZM17.5303 4.53033C17.8232 4.23744 17.8232 3.76256 17.5303 3.46967C17.2374 3.17678 16.7626 3.17678 16.4697 3.46967L17 4L17.5303 4.53033ZM14 7L13.4697 6.46967C13.1768 6.76256 13.1768 7.23744 13.4697 7.53033L14 7ZM16.4697 10.5303C16.7626 10.8232 17.2374 10.8232 17.5303 10.5303C17.8232 10.2374 17.8232 9.76256 17.5303 9.46967L17 10L16.4697 10.5303ZM21 7V6.25H14V7V7.75H21V7ZM17 4L16.4697 3.46967L13.4697 6.46967L14 7L14.5303 7.53033L17.5303 4.53033L17 4ZM14 7L13.4697 7.53033L16.4697 10.5303L17 10L17.5303 9.46967L14.5303 6.46967L14 7Z" fill="#2F2B3D" fill-opacity="0.9"/>
</svg>
