<svg width="24" height="24" viewBox="0 0 24 24" fill="none" xmlns="http://www.w3.org/2000/svg">
<path d="M5.24976 10.0001C5.24976 10.4143 5.58554 10.7501 5.99976 10.7501C6.41397 10.7501 6.74976 10.4143 6.74976 10.0001H5.99976H5.24976ZM7.44614 7.12521C7.6362 6.75717 7.49193 6.30475 7.12389 6.11468C6.75586 5.92462 6.30343 6.06889 6.11337 6.43693L6.77976 6.78107L7.44614 7.12521ZM8.09746 3.99217C7.77665 4.25419 7.72899 4.72666 7.991 5.04747C8.25302 5.36829 8.72549 5.41595 9.04631 5.15394L8.57188 4.57305L8.09746 3.99217ZM18.9999 13.6001L19.5998 14.0501C19.6152 14.0296 19.6295 14.0083 19.6428 13.9864L18.9999 13.6001ZM17.8144 13.8548C17.5343 14.1599 17.5545 14.6344 17.8597 14.9145C18.1648 15.1947 18.6392 15.1744 18.9193 14.8693L18.3669 14.3621L17.8144 13.8548ZM16.8997 16.8002C17.1637 16.481 17.1191 16.0083 16.7999 15.7442C16.4808 15.4802 16.008 15.5248 15.744 15.844L16.3218 16.3221L16.8997 16.8002ZM14.9998 18.6001L15.6627 18.9509C15.6775 18.923 15.6905 18.8942 15.7016 18.8646L14.9998 18.6001ZM8.67024 19.416C8.34764 19.1562 7.8755 19.2071 7.61569 19.5297C7.35588 19.8523 7.40679 20.3244 7.72939 20.5842L8.19981 20.0001L8.67024 19.416ZM5.99976 10.0001H6.74976C6.74976 8.97557 6.99727 7.99439 7.44614 7.12521L6.77976 6.78107L6.11337 6.43693C5.55624 7.51575 5.24976 8.73256 5.24976 10.0001H5.99976ZM8.57188 4.57305L9.04631 5.15394C11.3993 3.23219 14.7934 3.28082 17.0904 5.2692L17.5812 4.70215L18.0721 4.13509C15.2239 1.66951 11.0152 1.60921 8.09746 3.99217L8.57188 4.57305ZM17.5812 4.70215L17.0904 5.2692C19.3874 7.25757 19.9218 10.6097 18.357 13.2138L18.9999 13.6001L19.6428 13.9864C21.5831 10.7573 20.9204 6.60068 18.0721 4.13509L17.5812 4.70215ZM18.9999 13.6001L18.3999 13.15C18.2165 13.3945 18.0211 13.6297 17.8144 13.8548L18.3669 14.3621L18.9193 14.8693C19.1596 14.6076 19.3867 14.3343 19.5998 14.0501L18.9999 13.6001ZM16.3218 16.3221L15.744 15.844C15.1276 16.5889 14.639 17.4308 14.298 18.3355L14.9998 18.6001L15.7016 18.8646C15.9842 18.115 16.389 17.4174 16.8997 16.8002L16.3218 16.3221ZM14.9998 18.6001L14.3369 18.2493C13.8133 19.2388 12.875 19.9426 11.7786 20.1683L11.9298 20.9029L12.081 21.6375C13.6161 21.3215 14.9297 20.3361 15.6627 18.9509L14.9998 18.6001ZM11.9298 20.9029L11.7786 20.1683C10.6821 20.3941 9.54211 20.1181 8.67024 19.416L8.19981 20.0001L7.72939 20.5842C8.95001 21.5672 10.546 21.9535 12.081 21.6375L11.9298 20.9029Z" fill="#2F2B3D" fill-opacity="0.9"/>
<path d="M11.4199 7.414C12.6037 6.67992 14.137 6.85718 15.122 7.84198C16.1071 8.82679 16.2847 10.3601 15.5509 11.544" stroke="#2F2B3D" stroke-opacity="0.9" stroke-width="1.5" stroke-linecap="round" stroke-linejoin="round"/>
<path d="M3 3L21 21" stroke="#2F2B3D" stroke-opacity="0.9" stroke-width="1.5" stroke-linecap="round" stroke-linejoin="round"/>
</svg>
