<svg width="24" height="24" viewBox="0 0 24 24" fill="none" xmlns="http://www.w3.org/2000/svg">
<path d="M16 5.75C16.4142 5.75 16.75 5.41421 16.75 5C16.75 4.58579 16.4142 4.25 16 4.25V5V5.75ZM8 5V4.25C7.58579 4.25 7.25 4.58579 7.25 5H8ZM8 15H7.25C7.25 15.4142 7.58579 15.75 8 15.75V15ZM16 15.75C16.4142 15.75 16.75 15.4142 16.75 15C16.75 14.5858 16.4142 14.25 16 14.25V15V15.75ZM15 10.75C15.4142 10.75 15.75 10.4142 15.75 10C15.75 9.58579 15.4142 9.25 15 9.25V10V10.75ZM8 9.25C7.58579 9.25 7.25 9.58579 7.25 10C7.25 10.4142 7.58579 10.75 8 10.75V10V9.25ZM16 5V4.25H8V5V5.75H16V5ZM8 5H7.25V15H8H8.75V5H8ZM8 15V15.75H16V15V14.25H8V15ZM15 10V9.25H8V10V10.75H15V10Z" fill="#2F2B3D" fill-opacity="0.9"/>
<path d="M6 20V20.01" stroke="#2F2B3D" stroke-opacity="0.9" stroke-width="1.5" stroke-linecap="round" stroke-linejoin="round"/>
<path d="M10 20V20.01" stroke="#2F2B3D" stroke-opacity="0.9" stroke-width="1.5" stroke-linecap="round" stroke-linejoin="round"/>
<path d="M14 20V20.01" stroke="#2F2B3D" stroke-opacity="0.9" stroke-width="1.5" stroke-linecap="round" stroke-linejoin="round"/>
<path d="M18 20V20.01" stroke="#2F2B3D" stroke-opacity="0.9" stroke-width="1.5" stroke-linecap="round" stroke-linejoin="round"/>
</svg>
