<svg width="24" height="24" viewBox="0 0 24 24" fill="none" xmlns="http://www.w3.org/2000/svg">
<path d="M3 10V16" stroke="#2F2B3D" stroke-opacity="0.9" stroke-width="1.5" stroke-linecap="round" stroke-linejoin="round"/>
<path d="M12 5V8" stroke="#2F2B3D" stroke-opacity="0.9" stroke-width="1.5" stroke-linecap="round" stroke-linejoin="round"/>
<path d="M10 5H14" stroke="#2F2B3D" stroke-opacity="0.9" stroke-width="1.5" stroke-linecap="round" stroke-linejoin="round"/>
<path d="M5 13H3" stroke="#2F2B3D" stroke-opacity="0.9" stroke-width="1.5" stroke-linecap="round" stroke-linejoin="round"/>
<path fill-rule="evenodd" clip-rule="evenodd" d="M6 10H8L10 8H13.382C13.7607 8.0002 14.1067 8.21427 14.276 8.553L15.724 11.447C15.8933 11.7857 16.2393 11.9998 16.618 12H18V10H20C20.5523 10 21 10.4477 21 11V17C21 17.5523 20.5523 18 20 18H18V16H15V18C15 18.5523 14.5523 19 14 19H10.535C10.2007 19.0001 9.88852 18.8331 9.703 18.555L8 16H6L6 10Z" stroke="#2F2B3D" stroke-opacity="0.9" stroke-width="1.5" stroke-linecap="round" stroke-linejoin="round"/>
</svg>
