<svg width="24" height="24" viewBox="0 0 24 24" fill="none" xmlns="http://www.w3.org/2000/svg">
<path d="M5 8.25C4.58579 8.25 4.25 8.58579 4.25 9C4.25 9.41421 4.58579 9.75 5 9.75V9V8.25ZM19 9.75C19.4142 9.75 19.75 9.41421 19.75 9C19.75 8.58579 19.4142 8.25 19 8.25V9V9.75ZM5 14.25C4.58579 14.25 4.25 14.5858 4.25 15C4.25 15.4142 4.58579 15.75 5 15.75V15V14.25ZM19 15.75C19.4142 15.75 19.75 15.4142 19.75 15C19.75 14.5858 19.4142 14.25 19 14.25V15V15.75ZM5 9V9.75H19V9V8.25H5V9ZM5 15V15.75H19V15V14.25H5V15Z" fill="#2F2B3D" fill-opacity="0.9"/>
</svg>
