<svg width="24" height="24" viewBox="0 0 24 24" fill="none" xmlns="http://www.w3.org/2000/svg">
<circle cx="5" cy="18" r="2" stroke="#2F2B3D" stroke-opacity="0.9" stroke-width="1.5" stroke-linecap="round" stroke-linejoin="round"/>
<circle cx="19" cy="6" r="2" stroke="#2F2B3D" stroke-opacity="0.9" stroke-width="1.5" stroke-linecap="round" stroke-linejoin="round"/>
<path d="M19.75 8C19.75 7.58579 19.4142 7.25 19 7.25C18.5858 7.25 18.25 7.58579 18.25 8H19H19.75ZM11 18L10.4697 17.4697C10.2552 17.6842 10.191 18.0068 10.3071 18.287C10.4232 18.5673 10.6967 18.75 11 18.75V18ZM14.5303 15.5303C14.8232 15.2374 14.8232 14.7626 14.5303 14.4697C14.2374 14.1768 13.7626 14.1768 13.4697 14.4697L14 15L14.5303 15.5303ZM13.4697 21.5303C13.7626 21.8232 14.2374 21.8232 14.5303 21.5303C14.8232 21.2374 14.8232 20.7626 14.5303 20.4697L14 21L13.4697 21.5303ZM11.5303 17.4697C11.2374 17.1768 10.7626 17.1768 10.4697 17.4697C10.1768 17.7626 10.1768 18.2374 10.4697 18.5303L11 18L11.5303 17.4697ZM19 8H18.25V13H19H19.75V8H19ZM19 13H18.25C18.25 15.3472 16.3472 17.25 14 17.25V18V18.75C17.1756 18.75 19.75 16.1756 19.75 13H19ZM14 18V17.25H11V18V18.75H14V18ZM11 18L11.5303 18.5303L14.5303 15.5303L14 15L13.4697 14.4697L10.4697 17.4697L11 18ZM14 21L14.5303 20.4697L11.5303 17.4697L11 18L10.4697 18.5303L13.4697 21.5303L14 21Z" fill="#2F2B3D" fill-opacity="0.9"/>
<path d="M4.25 16C4.25 16.4142 4.58579 16.75 5 16.75C5.41421 16.75 5.75 16.4142 5.75 16H5H4.25ZM13 6V6.75C13.3033 6.75 13.5768 6.56727 13.6929 6.28701C13.809 6.00676 13.7448 5.68417 13.5303 5.46967L13 6ZM10.5303 2.46967C10.2374 2.17678 9.76256 2.17678 9.46967 2.46967C9.17678 2.76256 9.17678 3.23744 9.46967 3.53033L10 3L10.5303 2.46967ZM9.46967 8.46967C9.17678 8.76256 9.17678 9.23744 9.46967 9.53033C9.76256 9.82322 10.2374 9.82322 10.5303 9.53033L10 9L9.46967 8.46967ZM13.5303 6.53033C13.8232 6.23744 13.8232 5.76256 13.5303 5.46967C13.2374 5.17678 12.7626 5.17678 12.4697 5.46967L13 6L13.5303 6.53033ZM5 16H5.75V11H5H4.25V16H5ZM5 11H5.75C5.75 8.65279 7.65279 6.75 10 6.75V6V5.25C6.82436 5.25 4.25 7.82436 4.25 11H5ZM10 6V6.75H13V6V5.25H10V6ZM13 6L13.5303 5.46967L10.5303 2.46967L10 3L9.46967 3.53033L12.4697 6.53033L13 6ZM10 9L10.5303 9.53033L13.5303 6.53033L13 6L12.4697 5.46967L9.46967 8.46967L10 9Z" fill="#2F2B3D" fill-opacity="0.9"/>
</svg>
