<svg width="24" height="24" viewBox="0 0 24 24" fill="none" xmlns="http://www.w3.org/2000/svg">
<rect x="4" y="4" width="16" height="16" rx="2" stroke="#2F2B3D" stroke-opacity="0.9" stroke-width="1.5" stroke-linecap="round" stroke-linejoin="round"/>
<path d="M4.59998 19.4L19.4 4.59998" stroke="#2F2B3D" stroke-opacity="0.9" stroke-width="1.5" stroke-linecap="round" stroke-linejoin="round"/>
<path d="M7 8.25C6.58579 8.25 6.25 8.58579 6.25 9C6.25 9.41421 6.58579 9.75 7 9.75V9V8.25ZM11 9.75C11.4142 9.75 11.75 9.41421 11.75 9C11.75 8.58579 11.4142 8.25 11 8.25V9V9.75ZM9.75 7C9.75 6.58579 9.41421 6.25 9 6.25C8.58579 6.25 8.25 6.58579 8.25 7H9H9.75ZM8.25 11C8.25 11.4142 8.58579 11.75 9 11.75C9.41421 11.75 9.75 11.4142 9.75 11H9H8.25ZM7 9V9.75H11V9V8.25H7V9ZM9 7H8.25V11H9H9.75V7H9Z" fill="#2F2B3D" fill-opacity="0.9"/>
<path d="M13 16H17" stroke="#2F2B3D" stroke-opacity="0.9" stroke-width="1.5" stroke-linecap="round" stroke-linejoin="round"/>
</svg>
