<svg width="24" height="24" viewBox="0 0 24 24" fill="none" xmlns="http://www.w3.org/2000/svg">
<path d="M5.00195 14.5H4.77995C3.24495 14.5 2.00195 13.38 2.00195 12C2.00195 10.62 3.24495 9.5 4.77995 9.5H5.00195" stroke="#2F2B3D" stroke-opacity="0.9" stroke-width="1.5" stroke-linecap="round" stroke-linejoin="round"/>
<path d="M19.002 14.5H19.224C20.758 14.5 22.002 13.38 22.002 12C22.002 10.62 20.758 9.5 19.224 9.5H19.002" stroke="#2F2B3D" stroke-opacity="0.9" stroke-width="1.5" stroke-linecap="round" stroke-linejoin="round"/>
<path d="M9 10H15" stroke="#2F2B3D" stroke-opacity="0.9" stroke-width="1.5" stroke-linecap="round" stroke-linejoin="round"/>
<path d="M9 14H15" stroke="#2F2B3D" stroke-opacity="0.9" stroke-width="1.5" stroke-linecap="round" stroke-linejoin="round"/>
<path fill-rule="evenodd" clip-rule="evenodd" d="M12.55 18.8429L17.55 17.4139C18.4084 17.1684 19 16.3837 19 15.4909V8.50992C19 7.61713 18.4084 6.83244 17.55 6.58692L12.55 5.15792C12.1905 5.05511 11.8095 5.05511 11.45 5.15792L6.45 6.58692C5.59199 6.83234 5.0004 7.61651 5 8.50892V15.4909C4.99995 16.3837 5.59164 17.1684 6.45 17.4139L11.45 18.8429C11.8095 18.9457 12.1905 18.9457 12.55 18.8429Z" stroke="#2F2B3D" stroke-opacity="0.9" stroke-width="1.5" stroke-linecap="round" stroke-linejoin="round"/>
</svg>
