<svg width="24" height="24" viewBox="0 0 24 24" fill="none" xmlns="http://www.w3.org/2000/svg">
<path d="M3.46967 19.4697C3.17678 19.7626 3.17678 20.2374 3.46967 20.5303C3.76256 20.8232 4.23744 20.8232 4.53033 20.5303L4 20L3.46967 19.4697ZM14.5303 10.5303C14.8232 10.2374 14.8232 9.76256 14.5303 9.46967C14.2374 9.17678 13.7626 9.17678 13.4697 9.46967L14 10L14.5303 10.5303ZM14.75 5C14.75 4.58579 14.4142 4.25 14 4.25C13.5858 4.25 13.25 4.58579 13.25 5H14H14.75ZM14 10H13.25C13.25 10.4142 13.5858 10.75 14 10.75V10ZM19 10.75C19.4142 10.75 19.75 10.4142 19.75 10C19.75 9.58579 19.4142 9.25 19 9.25V10V10.75ZM10.75 9C10.75 8.58579 10.4142 8.25 10 8.25C9.58579 8.25 9.25 8.58579 9.25 9H10H10.75ZM10 14H9.25C9.25 14.4142 9.58579 14.75 10 14.75V14ZM15 14.75C15.4142 14.75 15.75 14.4142 15.75 14C15.75 13.5858 15.4142 13.25 15 13.25V14V14.75ZM6.75 13C6.75 12.5858 6.41421 12.25 6 12.25C5.58579 12.25 5.25 12.5858 5.25 13H6H6.75ZM6 18H5.25C5.25 18.4142 5.58579 18.75 6 18.75V18ZM11 18.75C11.4142 18.75 11.75 18.4142 11.75 18C11.75 17.5858 11.4142 17.25 11 17.25V18V18.75ZM5.46967 12.4697C5.17678 12.7626 5.17678 13.2374 5.46967 13.5303C5.76256 13.8232 6.23744 13.8232 6.53033 13.5303L6 13L5.46967 12.4697ZM14.5303 5.53033C14.8232 5.23744 14.8232 4.76256 14.5303 4.46967C14.2374 4.17678 13.7626 4.17678 13.4697 4.46967L14 5L14.5303 5.53033ZM4 20L4.53033 20.5303L14.5303 10.5303L14 10L13.4697 9.46967L3.46967 19.4697L4 20ZM14 5H13.25V10H14H14.75V5H14ZM14 10V10.75H19V10V9.25H14V10ZM10 9H9.25V14H10H10.75V9H10ZM10 14V14.75H15V14V13.25H10V14ZM6 13H5.25V18H6H6.75V13H6ZM6 18V18.75H11V18V17.25H6V18ZM6 13L6.53033 13.5303L10.5303 9.53033L10 9L9.46967 8.46967L5.46967 12.4697L6 13ZM10 9L10.5303 9.53033L14.5303 5.53033L14 5L13.4697 4.46967L9.46967 8.46967L10 9Z" fill="#2F2B3D" fill-opacity="0.9"/>
<path d="M18.4705 9.46884C18.1772 9.76127 18.1764 10.2361 18.4688 10.5295C18.7613 10.8229 19.2361 10.8236 19.5295 10.5312L19 10L18.4705 9.46884ZM20 7.514H20.75V7.51379L20 7.514ZM16.483 4L16.483 4.75L16.4834 4.75L16.483 4ZM13.4709 4.46842C13.1773 4.76062 13.1762 5.23549 13.4684 5.52908C13.7606 5.82266 14.2355 5.82378 14.5291 5.53158L14 5L13.4709 4.46842ZM10.4697 17.4697C10.1768 17.7626 10.1768 18.2374 10.4697 18.5303C10.7626 18.8232 11.2374 18.8232 11.5303 18.5303L11 18L10.4697 17.4697ZM19.5303 10.5303C19.8232 10.2374 19.8232 9.76256 19.5303 9.46967C19.2374 9.17678 18.7626 9.17678 18.4697 9.46967L19 10L19.5303 10.5303ZM19 10L19.5295 10.5312C20.3154 9.74772 20.75 8.6746 20.75 7.514H20H19.25C19.25 8.2954 18.9606 8.98028 18.4705 9.46884L19 10ZM20 7.514L20.75 7.51379C20.7497 6.38243 20.2999 5.29755 19.4995 4.4979L18.9694 5.02846L18.4393 5.55902C18.9582 6.07743 19.2498 6.78075 19.25 7.51421L20 7.514ZM18.9694 5.02846L19.4995 4.4979C18.6992 3.69825 17.6139 3.24936 16.4826 3.25L16.483 4L16.4834 4.75C17.2169 4.74958 17.9205 5.0406 18.4393 5.55902L18.9694 5.02846ZM16.483 4V3.25C15.3203 3.25 14.2514 3.69165 13.4709 4.46842L14 5L14.5291 5.53158C15.0206 5.04235 15.7057 4.75 16.483 4.75V4ZM11 18L11.5303 18.5303L15.5303 14.5303L15 14L14.4697 13.4697L10.4697 17.4697L11 18ZM15 14L15.5303 14.5303L19.5303 10.5303L19 10L18.4697 9.46967L14.4697 13.4697L15 14Z" fill="#2F2B3D" fill-opacity="0.9"/>
</svg>
