<svg width="24" height="24" viewBox="0 0 24 24" fill="none" xmlns="http://www.w3.org/2000/svg">
<path fill-rule="evenodd" clip-rule="evenodd" d="M4 12V16H20V12H4Z" stroke="#2F2B3D" stroke-opacity="0.9" stroke-width="1.5" stroke-linecap="round" stroke-linejoin="round"/>
<path d="M6.75 16C6.75 15.5858 6.41421 15.25 6 15.25C5.58579 15.25 5.25 15.5858 5.25 16H6H6.75ZM6 20H5.25C5.25 20.4142 5.58579 20.75 6 20.75V20ZM10 20V20.75C10.4142 20.75 10.75 20.4142 10.75 20H10ZM10.75 16C10.75 15.5858 10.4142 15.25 10 15.25C9.58579 15.25 9.25 15.5858 9.25 16H10H10.75ZM9.25 12C9.25 12.4142 9.58579 12.75 10 12.75C10.4142 12.75 10.75 12.4142 10.75 12H10H9.25ZM10 6H10.75C10.75 5.80109 10.671 5.61032 10.5303 5.46967L10 6ZM8 4L8.53033 3.46967C8.23744 3.17678 7.76256 3.17678 7.46967 3.46967L8 4ZM6 6L5.46967 5.46967C5.32902 5.61032 5.25 5.80109 5.25 6H6ZM5.25 12C5.25 12.4142 5.58579 12.75 6 12.75C6.41421 12.75 6.75 12.4142 6.75 12H6H5.25ZM6 16H5.25V20H6H6.75V16H6ZM6 20V20.75H10V20V19.25H6V20ZM10 20H10.75V16H10H9.25V20H10ZM10 12H10.75V6H10H9.25V12H10ZM10 6L10.5303 5.46967L8.53033 3.46967L8 4L7.46967 4.53033L9.46967 6.53033L10 6ZM8 4L7.46967 3.46967L5.46967 5.46967L6 6L6.53033 6.53033L8.53033 4.53033L8 4ZM6 6H5.25V12H6H6.75V6H6Z" fill="#2F2B3D" fill-opacity="0.9"/>
<path d="M14.75 16C14.75 15.5858 14.4142 15.25 14 15.25C13.5858 15.25 13.25 15.5858 13.25 16H14H14.75ZM14 20H13.25C13.25 20.4142 13.5858 20.75 14 20.75V20ZM18 20V20.75C18.4142 20.75 18.75 20.4142 18.75 20H18ZM18.75 16C18.75 15.5858 18.4142 15.25 18 15.25C17.5858 15.25 17.25 15.5858 17.25 16H18H18.75ZM17.25 12C17.25 12.4142 17.5858 12.75 18 12.75C18.4142 12.75 18.75 12.4142 18.75 12H18H17.25ZM18 6H18.75C18.75 5.80109 18.671 5.61032 18.5303 5.46967L18 6ZM16 4L16.5303 3.46967C16.2374 3.17678 15.7626 3.17678 15.4697 3.46967L16 4ZM14 6L13.4697 5.46967C13.329 5.61032 13.25 5.80109 13.25 6H14ZM13.25 12C13.25 12.4142 13.5858 12.75 14 12.75C14.4142 12.75 14.75 12.4142 14.75 12H14H13.25ZM14 16H13.25V20H14H14.75V16H14ZM14 20V20.75H18V20V19.25H14V20ZM18 20H18.75V16H18H17.25V20H18ZM18 12H18.75V6H18H17.25V12H18ZM18 6L18.5303 5.46967L16.5303 3.46967L16 4L15.4697 4.53033L17.4697 6.53033L18 6ZM16 4L15.4697 3.46967L13.4697 5.46967L14 6L14.5303 6.53033L16.5303 4.53033L16 4ZM14 6H13.25V12H14H14.75V6H14Z" fill="#2F2B3D" fill-opacity="0.9"/>
</svg>
