<svg width="24" height="24" viewBox="0 0 24 24" fill="none" xmlns="http://www.w3.org/2000/svg">
<path d="M14 3V7C14 7.55228 14.4477 8 15 8H19" stroke="#2F2B3D" stroke-opacity="0.9" stroke-width="1.5" stroke-linecap="round" stroke-linejoin="round"/>
<path fill-rule="evenodd" clip-rule="evenodd" d="M17 21H7C5.89543 21 5 20.1046 5 19V5C5 3.89543 5.89543 3 7 3H14L19 8V19C19 20.1046 18.1046 21 17 21Z" stroke="#2F2B3D" stroke-opacity="0.9" stroke-width="1.5" stroke-linecap="round" stroke-linejoin="round"/>
<path d="M9 12C9 12.2761 9.22386 12.5 9.5 12.5C9.77614 12.5 10 12.2761 10 12V11C10 10.7239 9.77614 10.5 9.5 10.5C9.22386 10.5 9 10.7239 9 11V12C9 14.7614 11.2386 17 14 17H15C15.2761 17 15.5 16.7761 15.5 16.5C15.5 16.2239 15.2761 16 15 16H14C13.7239 16 13.5 16.2239 13.5 16.5C13.5 16.7761 13.7239 17 14 17" stroke="#2F2B3D" stroke-opacity="0.9" stroke-width="1.5" stroke-linecap="round" stroke-linejoin="round"/>
</svg>
