<svg width="24" height="24" viewBox="0 0 24 24" fill="none" xmlns="http://www.w3.org/2000/svg">
<path d="M3 3L21 21" stroke="#2F2B3D" stroke-opacity="0.9" stroke-width="1.5" stroke-linecap="round" stroke-linejoin="round"/>
<path d="M7 2.25C6.58579 2.25 6.25 2.58579 6.25 3C6.25 3.41421 6.58579 3.75 7 3.75V3V2.25ZM14 3L14.5303 2.46967C14.3897 2.32902 14.1989 2.25 14 2.25V3ZM19 8H19.75C19.75 7.80109 19.671 7.61032 19.5303 7.46967L19 8ZM18.25 15C18.25 15.4142 18.5858 15.75 19 15.75C19.4142 15.75 19.75 15.4142 19.75 15H19H18.25ZM19.75 19C19.75 18.5858 19.4142 18.25 19 18.25C18.5858 18.25 18.25 18.5858 18.25 19H19H19.75ZM5.75 5C5.75 4.58579 5.41421 4.25 5 4.25C4.58579 4.25 4.25 4.58579 4.25 5H5H5.75ZM7 3V3.75H14V3V2.25H7V3ZM14 3L13.4697 3.53033L18.4697 8.53033L19 8L19.5303 7.46967L14.5303 2.46967L14 3ZM19 8H18.25V15H19H19.75V8H19ZM19 19H18.25C18.25 19.6904 17.6904 20.25 17 20.25V21V21.75C18.5188 21.75 19.75 20.5188 19.75 19H19ZM17 21V20.25H7V21V21.75H17V21ZM7 21V20.25C6.30964 20.25 5.75 19.6904 5.75 19H5H4.25C4.25 20.5188 5.48122 21.75 7 21.75V21ZM5 19H5.75V5H5H4.25V19H5Z" fill="#2F2B3D" fill-opacity="0.9"/>
</svg>
