<svg width="24" height="24" viewBox="0 0 24 24" fill="none" xmlns="http://www.w3.org/2000/svg">
<circle cx="17" cy="17" r="4" stroke="#2F2B3D" stroke-opacity="0.9" stroke-width="1.5" stroke-linecap="round" stroke-linejoin="round"/>
<path d="M17 13V17H21" stroke="#2F2B3D" stroke-opacity="0.9" stroke-width="1.5" stroke-linecap="round" stroke-linejoin="round"/>
<path d="M12 3V7C12 7.55228 12.4477 8 13 8H17" stroke="#2F2B3D" stroke-opacity="0.9" stroke-width="1.5" stroke-linecap="round" stroke-linejoin="round"/>
<path d="M11.5 21.75C11.9142 21.75 12.25 21.4142 12.25 21C12.25 20.5858 11.9142 20.25 11.5 20.25V21V21.75ZM12 3L12.5303 2.46967C12.3897 2.32902 12.1989 2.25 12 2.25V3ZM17 8H17.75C17.75 7.80109 17.671 7.61032 17.5303 7.46967L17 8ZM16.25 10C16.25 10.4142 16.5858 10.75 17 10.75C17.4142 10.75 17.75 10.4142 17.75 10H17H16.25ZM17.75 13C17.75 12.5858 17.4142 12.25 17 12.25C16.5858 12.25 16.25 12.5858 16.25 13H17H17.75ZM16.25 17C16.25 17.4142 16.5858 17.75 17 17.75C17.4142 17.75 17.75 17.4142 17.75 17H17H16.25ZM11.5 21V20.25H5V21V21.75H11.5V21ZM5 21V20.25C4.30964 20.25 3.75 19.6904 3.75 19H3H2.25C2.25 20.5188 3.48122 21.75 5 21.75V21ZM3 19H3.75V5H3H2.25V19H3ZM3 5H3.75C3.75 4.30964 4.30964 3.75 5 3.75V3V2.25C3.48122 2.25 2.25 3.48122 2.25 5H3ZM5 3V3.75H12V3V2.25H5V3ZM12 3L11.4697 3.53033L16.4697 8.53033L17 8L17.5303 7.46967L12.5303 2.46967L12 3ZM17 8H16.25V10H17H17.75V8H17ZM17 13H16.25V17H17H17.75V13H17Z" fill="#2F2B3D" fill-opacity="0.9"/>
</svg>
