<svg width="24" height="24" viewBox="0 0 24 24" fill="none" xmlns="http://www.w3.org/2000/svg">
<rect x="3" y="16" width="3" height="5" rx="1" stroke="#2F2B3D" stroke-opacity="0.9" stroke-width="1.5" stroke-linecap="round" stroke-linejoin="round"/>
<path fill-rule="evenodd" clip-rule="evenodd" d="M6 20C6 20.5523 6.44772 21 7 21H10.756C11.1978 21 11.5872 20.7102 11.714 20.287L12.914 17.287C13.004 16.984 13.047 16.657 12.858 16.403C12.67 16.149 12.316 16 12 16H10V13.533C9.99976 13.0485 9.68248 12.6211 9.21872 12.4807C8.75496 12.3403 8.25395 12.5199 7.985 12.923L6 16V20H6Z" stroke="#2F2B3D" stroke-opacity="0.9" stroke-width="1.5" stroke-linecap="round" stroke-linejoin="round"/>
<path d="M14 3V7C14 7.55228 14.4477 8 15 8H19" stroke="#2F2B3D" stroke-opacity="0.9" stroke-width="1.5" stroke-linecap="round" stroke-linejoin="round"/>
<path d="M5 12.1V5C5 3.89543 5.89543 3 7 3H14L19 8V19C19 20.1046 18.1046 21 17 21H14.7" stroke="#2F2B3D" stroke-opacity="0.9" stroke-width="1.5" stroke-linecap="round" stroke-linejoin="round"/>
</svg>
