<svg width="24" height="24" viewBox="0 0 24 24" fill="none" xmlns="http://www.w3.org/2000/svg">
<path d="M14 3V7C14 7.55228 14.4477 8 15 8H19" stroke="#2F2B3D" stroke-opacity="0.9" stroke-width="1.5" stroke-linecap="round" stroke-linejoin="round"/>
<path d="M11.5 21.75C11.9142 21.75 12.25 21.4142 12.25 21C12.25 20.5858 11.9142 20.25 11.5 20.25V21V21.75ZM14 3L14.5303 2.46967C14.3897 2.32902 14.1989 2.25 14 2.25V3ZM19 8H19.75C19.75 7.80109 19.671 7.61032 19.5303 7.46967L19 8ZM18.25 13C18.25 13.4142 18.5858 13.75 19 13.75C19.4142 13.75 19.75 13.4142 19.75 13H19H18.25ZM14 18.25C13.5858 18.25 13.25 18.5858 13.25 19C13.25 19.4142 13.5858 19.75 14 19.75V19V18.25ZM21 19.75C21.4142 19.75 21.75 19.4142 21.75 19C21.75 18.5858 21.4142 18.25 21 18.25V19V19.75ZM18.5303 15.4697C18.2374 15.1768 17.7626 15.1768 17.4697 15.4697C17.1768 15.7626 17.1768 16.2374 17.4697 16.5303L18 16L18.5303 15.4697ZM21 19L21.5303 19.5303C21.8232 19.2374 21.8232 18.7626 21.5303 18.4697L21 19ZM17.4697 21.4697C17.1768 21.7626 17.1768 22.2374 17.4697 22.5303C17.7626 22.8232 18.2374 22.8232 18.5303 22.5303L18 22L17.4697 21.4697ZM11.5 21V20.25H7V21V21.75H11.5V21ZM7 21V20.25C6.30964 20.25 5.75 19.6904 5.75 19H5H4.25C4.25 20.5188 5.48122 21.75 7 21.75V21ZM5 19H5.75V5H5H4.25V19H5ZM5 5H5.75C5.75 4.30964 6.30964 3.75 7 3.75V3V2.25C5.48122 2.25 4.25 3.48122 4.25 5H5ZM7 3V3.75H14V3V2.25H7V3ZM14 3L13.4697 3.53033L18.4697 8.53033L19 8L19.5303 7.46967L14.5303 2.46967L14 3ZM19 8H18.25V13H19H19.75V8H19ZM14 19V19.75H21V19V18.25H14V19ZM18 16L17.4697 16.5303L20.4697 19.5303L21 19L21.5303 18.4697L18.5303 15.4697L18 16ZM21 19L20.4697 18.4697L17.4697 21.4697L18 22L18.5303 22.5303L21.5303 19.5303L21 19Z" fill="#2F2B3D" fill-opacity="0.9"/>
</svg>
