<svg width="24" height="24" viewBox="0 0 24 24" fill="none" xmlns="http://www.w3.org/2000/svg">
<path d="M14 3V7C14 7.55228 14.4477 8 15 8H19" stroke="#2F2B3D" stroke-opacity="0.9" stroke-width="1.5" stroke-linecap="round" stroke-linejoin="round"/>
<path d="M4.25 13C4.25 13.4142 4.58579 13.75 5 13.75C5.41421 13.75 5.75 13.4142 5.75 13H5H4.25ZM14 3L14.5303 2.46967C14.3897 2.32902 14.1989 2.25 14 2.25V3ZM19 8H19.75C19.75 7.80109 19.671 7.61032 19.5303 7.46967L19 8ZM11.5 20.25C11.0858 20.25 10.75 20.5858 10.75 21C10.75 21.4142 11.0858 21.75 11.5 21.75V21V20.25ZM2 18.25C1.58579 18.25 1.25 18.5858 1.25 19C1.25 19.4142 1.58579 19.75 2 19.75V19V18.25ZM9 19.75C9.41421 19.75 9.75 19.4142 9.75 19C9.75 18.5858 9.41421 18.25 9 18.25V19V19.75ZM6.53033 15.4697C6.23744 15.1768 5.76256 15.1768 5.46967 15.4697C5.17678 15.7626 5.17678 16.2374 5.46967 16.5303L6 16L6.53033 15.4697ZM9 19L9.53033 19.5303C9.82322 19.2374 9.82322 18.7626 9.53033 18.4697L9 19ZM5.46967 21.4697C5.17678 21.7626 5.17678 22.2374 5.46967 22.5303C5.76256 22.8232 6.23744 22.8232 6.53033 22.5303L6 22L5.46967 21.4697ZM5 13H5.75V5H5H4.25V13H5ZM5 5H5.75C5.75 4.30964 6.30964 3.75 7 3.75V3V2.25C5.48122 2.25 4.25 3.48122 4.25 5H5ZM7 3V3.75H14V3V2.25H7V3ZM14 3L13.4697 3.53033L18.4697 8.53033L19 8L19.5303 7.46967L14.5303 2.46967L14 3ZM19 8H18.25V19H19H19.75V8H19ZM19 19H18.25C18.25 19.6904 17.6904 20.25 17 20.25V21V21.75C18.5188 21.75 19.75 20.5188 19.75 19H19ZM17 21V20.25H11.5V21V21.75H17V21ZM2 19V19.75H9V19V18.25H2V19ZM6 16L5.46967 16.5303L8.46967 19.5303L9 19L9.53033 18.4697L6.53033 15.4697L6 16ZM9 19L8.46967 18.4697L5.46967 21.4697L6 22L6.53033 22.5303L9.53033 19.5303L9 19Z" fill="#2F2B3D" fill-opacity="0.9"/>
</svg>
