<svg width="24" height="24" viewBox="0 0 24 24" fill="none" xmlns="http://www.w3.org/2000/svg">
<path d="M15 3V7C15 7.55228 15.4477 8 16 8H20" stroke="#2F2B3D" stroke-opacity="0.9" stroke-width="1.5" stroke-linecap="round" stroke-linejoin="round"/>
<path d="M17 17.75C17.4142 17.75 17.75 17.4142 17.75 17C17.75 16.5858 17.4142 16.25 17 16.25V17V17.75ZM9.75 9C9.75 8.58579 9.41421 8.25 9 8.25C8.58579 8.25 8.25 8.58579 8.25 9H9H9.75ZM8.25 5C8.25 5.41421 8.58579 5.75 9 5.75C9.41421 5.75 9.75 5.41421 9.75 5H9H8.25ZM15 3L15.5303 2.46967C15.3897 2.32902 15.1989 2.25 15 2.25V3ZM20 8H20.75C20.75 7.80109 20.671 7.61032 20.5303 7.46967L20 8ZM19.1401 15.5129C18.9688 15.89 19.1357 16.3346 19.5129 16.5059C19.89 16.6772 20.3346 16.5103 20.5059 16.1331L19.823 15.823L19.1401 15.5129ZM17 17V16.25H11V17V17.75H17V17ZM11 17V16.25C10.3096 16.25 9.75 15.6904 9.75 15H9H8.25C8.25 16.5188 9.48122 17.75 11 17.75V17ZM9 15H9.75V9H9H8.25V15H9ZM9 5H9.75C9.75 4.30964 10.3096 3.75 11 3.75V3V2.25C9.48122 2.25 8.25 3.48122 8.25 5H9ZM11 3V3.75H15V3V2.25H11V3ZM15 3L14.4697 3.53033L19.4697 8.53033L20 8L20.5303 7.46967L15.5303 2.46967L15 3ZM20 8H19.25V15H20H20.75V8H20ZM20 15H19.25C19.25 15.1855 19.2105 15.3579 19.1401 15.5129L19.823 15.823L20.5059 16.1331C20.6635 15.7861 20.75 15.4025 20.75 15H20Z" fill="#2F2B3D" fill-opacity="0.9"/>
<path d="M16 17V19C16 20.1046 15.1046 21 14 21H7C5.89543 21 5 20.1046 5 19V9C5 7.89543 5.89543 7 7 7" stroke="#2F2B3D" stroke-opacity="0.9" stroke-width="1.5" stroke-linecap="round" stroke-linejoin="round"/>
<path d="M3 3L21 21" stroke="#2F2B3D" stroke-opacity="0.9" stroke-width="1.5" stroke-linecap="round" stroke-linejoin="round"/>
</svg>
