<svg width="24" height="24" viewBox="0 0 24 24" fill="none" xmlns="http://www.w3.org/2000/svg">
<rect x="3" y="14" width="3" height="5" rx="1" stroke="#2F2B3D" stroke-opacity="0.9" stroke-width="1.5" stroke-linecap="round" stroke-linejoin="round"/>
<path fill-rule="evenodd" clip-rule="evenodd" d="M6 15C6 14.4477 6.44772 14 7 14H10.756C11.1978 14 11.5872 14.2898 11.714 14.713L12.914 17.713C13.004 18.016 13.047 18.343 12.858 18.597C12.67 18.851 12.316 19 12 19H10V21.467C9.99976 21.9515 9.68248 22.3789 9.21872 22.5193C8.75496 22.6597 8.25395 22.4801 7.985 22.077L6 19V15H6Z" stroke="#2F2B3D" stroke-opacity="0.9" stroke-width="1.5" stroke-linecap="round" stroke-linejoin="round"/>
<path d="M14 3V7C14 7.55228 14.4477 8 15 8H19" stroke="#2F2B3D" stroke-opacity="0.9" stroke-width="1.5" stroke-linecap="round" stroke-linejoin="round"/>
<path d="M5 11V5C5 3.89543 5.89543 3 7 3H14L19 8V19C19 20.1046 18.1046 21 17 21H14.5" stroke="#2F2B3D" stroke-opacity="0.9" stroke-width="1.5" stroke-linecap="round" stroke-linejoin="round"/>
</svg>
