<svg width="24" height="24" viewBox="0 0 24 24" fill="none" xmlns="http://www.w3.org/2000/svg">
<path d="M3 3L21 21" stroke="#2F2B3D" stroke-opacity="0.9" stroke-width="1.5" stroke-linecap="round" stroke-linejoin="round"/>
<path d="M9 4.25C8.58579 4.25 8.25 4.58579 8.25 5C8.25 5.41421 8.58579 5.75 9 5.75V5V4.25ZM18.5 5L18.7482 4.29226C18.6684 4.26429 18.5845 4.25 18.5 4.25V5ZM19 6.5L19.555 7.0045C19.5798 6.97714 19.6026 6.94798 19.6232 6.91726L19 6.5ZM14.396 10.4495C14.1174 10.756 14.14 11.2303 14.4465 11.509C14.753 11.7876 15.2273 11.765 15.506 11.4585L14.951 10.954L14.396 10.4495ZM14.75 14C14.75 13.5858 14.4142 13.25 14 13.25C13.5858 13.25 13.25 13.5858 13.25 14H14H14.75ZM14 19L13.55 19.6C13.7773 19.7705 14.0813 19.7979 14.3354 19.6708C14.5895 19.5438 14.75 19.2841 14.75 19H14ZM10 16H9.25C9.25 16.2361 9.36115 16.4584 9.55 16.6L10 16ZM10 12H10.75C10.75 11.8134 10.6805 11.6336 10.555 11.4955L10 12ZM5 6.50002L4.37696 6.91753C4.39749 6.94817 4.42025 6.97724 4.44505 7.00453L5 6.50002ZM5.66805 5.75351C5.98257 5.48397 6.01903 5.0105 5.74949 4.69598C5.47995 4.38146 5.00648 4.345 4.69196 4.61453L5.18 5.18402L5.66805 5.75351ZM9 5V5.75H18.5V5V4.25H9V5ZM18.5 5L18.2518 5.70774C18.3248 5.73333 18.3818 5.79124 18.4062 5.86459L19.1177 5.62742L19.8292 5.39025C19.6581 4.87677 19.259 4.47139 18.7482 4.29226L18.5 5ZM19.1177 5.62742L18.4062 5.86459C18.4307 5.93795 18.4198 6.01849 18.3768 6.08274L19 6.5L19.6232 6.91726C19.9243 6.46751 20.0004 5.90373 19.8292 5.39025L19.1177 5.62742ZM19 6.5L18.445 5.9955L14.396 10.4495L14.951 10.954L15.506 11.4585L19.555 7.0045L19 6.5ZM14 14H13.25V19H14H14.75V14H14ZM14 19L14.45 18.4L10.45 15.4L10 16L9.55 16.6L13.55 19.6L14 19ZM10 16H10.75V12H10H9.25V16H10ZM10 12L10.555 11.4955L5.55496 5.99552L5 6.50002L4.44505 7.00453L9.44505 12.5045L10 12ZM5 6.50002L5.62305 6.08251C5.55253 5.97728 5.57186 5.83594 5.66805 5.75351L5.18 5.18402L4.69196 4.61453C4.01867 5.19154 3.88334 6.18093 4.37696 6.91753L5 6.50002Z" fill="#2F2B3D" fill-opacity="0.9"/>
</svg>
