<svg width="24" height="24" viewBox="0 0 24 24" fill="none" xmlns="http://www.w3.org/2000/svg">
<path d="M18.9 7C19.8045 8.50118 20.1909 10.2578 20 12V13C19.9989 14.0529 20.2748 15.0875 20.8 16" stroke="#2F2B3D" stroke-opacity="0.9" stroke-width="1.5" stroke-linecap="round" stroke-linejoin="round"/>
<path d="M8 11C8 8.79086 9.79086 7 12 7C14.2091 7 16 8.79086 16 11V12C16 14.1637 16.7018 16.269 18 18" stroke="#2F2B3D" stroke-opacity="0.9" stroke-width="1.5" stroke-linecap="round" stroke-linejoin="round"/>
<path d="M12 11V13C11.9968 15.8594 12.8693 18.6512 14.5 21" stroke="#2F2B3D" stroke-opacity="0.9" stroke-width="1.5" stroke-linecap="round" stroke-linejoin="round"/>
<path d="M8 15C8.2447 17.0898 8.85393 19.1206 9.8 21" stroke="#2F2B3D" stroke-opacity="0.9" stroke-width="1.5" stroke-linecap="round" stroke-linejoin="round"/>
<path d="M4.90006 19.0001C4.22531 16.7304 3.9214 14.3666 4.00006 12.0001V11.0001C3.99225 8.13807 5.51396 5.48991 7.9906 4.05552C10.4672 2.62113 13.5215 2.61906 16.0001 4.05009" stroke="#2F2B3D" stroke-opacity="0.9" stroke-width="1.5" stroke-linecap="round" stroke-linejoin="round"/>
</svg>
