<svg width="24" height="24" viewBox="0 0 24 24" fill="none" xmlns="http://www.w3.org/2000/svg">
<circle cx="5" cy="17" r="2" stroke="#2F2B3D" stroke-opacity="0.9" stroke-width="1.5" stroke-linecap="round" stroke-linejoin="round"/>
<circle cx="17" cy="17" r="2" stroke="#2F2B3D" stroke-opacity="0.9" stroke-width="1.5" stroke-linecap="round" stroke-linejoin="round"/>
<path d="M7 17.25C6.58579 17.25 6.25 17.5858 6.25 18C6.25 18.4142 6.58579 18.75 7 18.75V18V17.25ZM15 18.75C15.4142 18.75 15.75 18.4142 15.75 18C15.75 17.5858 15.4142 17.25 15 17.25V18V18.75ZM19 17.25C18.5858 17.25 18.25 17.5858 18.25 18C18.25 18.4142 18.5858 18.75 19 18.75V18V17.25ZM21 18V18.75C21.4142 18.75 21.75 18.4142 21.75 18H21ZM15 7V6.25C14.7629 6.25 14.5398 6.36209 14.3983 6.5523C14.2568 6.74251 14.2135 6.98843 14.2816 7.21551L15 7ZM16.5 12L15.7816 12.2155C15.8768 12.5327 16.1688 12.75 16.5 12.75V12ZM21 12.75C21.4142 12.75 21.75 12.4142 21.75 12C21.75 11.5858 21.4142 11.25 21 11.25V12V12.75ZM7 18V18.75H15V18V17.25H7V18ZM19 18V18.75H21V18V17.25H19V18ZM21 18H21.75V12H21H20.25V18H21ZM21 12H21.75C21.75 8.82436 19.1756 6.25 16 6.25V7V7.75C18.3472 7.75 20.25 9.65279 20.25 12H21ZM16 7V6.25H15V7V7.75H16V7ZM15 7L14.2816 7.21551L15.7816 12.2155L16.5 12L17.2184 11.7845L15.7184 6.78449L15 7ZM16.5 12V12.75H21V12V11.25H16.5V12Z" fill="#2F2B3D" fill-opacity="0.9"/>
<path d="M12 18V7H15" stroke="#2F2B3D" stroke-opacity="0.9" stroke-width="1.5" stroke-linecap="round" stroke-linejoin="round"/>
<path d="M3 17V12H12" stroke="#2F2B3D" stroke-opacity="0.9" stroke-width="1.5" stroke-linecap="round" stroke-linejoin="round"/>
<path d="M3 9L21 3" stroke="#2F2B3D" stroke-opacity="0.9" stroke-width="1.5" stroke-linecap="round" stroke-linejoin="round"/>
<path d="M6 12V8" stroke="#2F2B3D" stroke-opacity="0.9" stroke-width="1.5" stroke-linecap="round" stroke-linejoin="round"/>
</svg>
