<svg width="24" height="24" viewBox="0 0 24 24" fill="none" xmlns="http://www.w3.org/2000/svg">
<circle cx="12" cy="12" r="3" stroke="#2F2B3D" stroke-opacity="0.9" stroke-width="1.5" stroke-linecap="round" stroke-linejoin="round"/>
<path fill-rule="evenodd" clip-rule="evenodd" d="M12 2C13.6568 2 15 3.34315 15 5C15 5.562 14.741 6.442 14.224 7.64L13.5 9L15.26 7.107C15.759 6.507 16.182 6.105 16.53 5.902C17.2146 5.50448 18.0297 5.39696 18.794 5.60334C19.5583 5.80972 20.2085 6.3129 20.6 7.001C21.4232 8.4346 20.9367 10.2639 19.51 11.099C19.136 11.316 18.52 11.495 17.664 11.634L15 12L17.4 12.326C18.395 12.471 19.098 12.663 19.51 12.902C20.9367 13.7371 21.4232 15.5664 20.6 17C20.2083 17.6879 19.5581 18.1909 18.7938 18.3971C18.0295 18.6033 17.2145 18.4956 16.53 18.098C16.182 17.896 15.759 17.494 15.26 16.893L13.5 15L14.224 16.36C14.74 17.559 15 18.439 15 19C15 20.6569 13.6568 22 12 22C10.3431 22 8.99998 20.6569 8.99998 19C8.99998 18.438 9.25898 17.558 9.77598 16.36L10.5 15L8.73998 16.893C8.24098 17.494 7.81798 17.896 7.46998 18.098C6.78546 18.4956 5.97047 18.6033 5.20618 18.3971C4.44189 18.1909 3.79164 17.6879 3.39998 17C2.57671 15.5664 3.06326 13.7371 4.48998 12.902C4.86398 12.684 5.47998 12.506 6.33598 12.366L8.99998 12L6.59998 11.675C5.60498 11.53 4.90198 11.338 4.48998 11.099C3.06266 10.2638 2.57603 8.43383 3.39998 7C3.79147 6.3119 4.44165 5.80872 5.20595 5.60234C5.97026 5.39596 6.78534 5.50348 7.46998 5.901C7.81798 6.104 8.24098 6.505 8.73998 7.106L10.5 9C9.49998 6.708 8.99998 5.375 8.99998 5C8.99998 3.34315 10.3431 2 12 2V2Z" stroke="#2F2B3D" stroke-opacity="0.9" stroke-width="1.5" stroke-linecap="round" stroke-linejoin="round"/>
</svg>
