<svg width="24" height="24" viewBox="0 0 24 24" fill="none" xmlns="http://www.w3.org/2000/svg">
<path d="M3 3L21 21" stroke="#2F2B3D" stroke-opacity="0.9" stroke-width="1.5" stroke-linecap="round" stroke-linejoin="round"/>
<path d="M19 19.75C19.4142 19.75 19.75 19.4142 19.75 19C19.75 18.5857 19.4142 18.25 19 18.25V19V19.75ZM3 5.99996H3.75V5.99979L3 5.99996ZM4.4825 4.86166C4.85955 4.69018 5.02619 4.2455 4.85471 3.86846C4.68322 3.49141 4.23855 3.32476 3.8615 3.49625L4.172 4.17896L4.4825 4.86166ZM8 3.25C7.58579 3.25 7.25 3.58579 7.25 4C7.25 4.41421 7.58579 4.75 8 4.75V4V3.25ZM9 4L9.53033 3.46967C9.38968 3.32902 9.19891 3.25 9 3.25V4ZM12 7L11.4697 7.53033C11.6103 7.67098 11.8011 7.75 12 7.75V7ZM20.25 17C20.25 17.4142 20.5858 17.75 21 17.75C21.4142 17.75 21.75 17.4142 21.75 17H21H20.25ZM19 19V18.25H5V19V19.75H19V19ZM5 19V18.25C4.30964 18.25 3.75 17.6903 3.75 17H3H2.25C2.25 18.5187 3.48122 19.75 5 19.75V19ZM3 17H3.75V5.99996H3H2.25V17H3ZM3 5.99996L3.75 5.99979C3.74989 5.50961 4.0363 5.0646 4.4825 4.86166L4.172 4.17896L3.8615 3.49625C2.87986 3.94271 2.24976 4.92172 2.25 6.00012L3 5.99996ZM8 4V4.75H9V4V3.25H8V4ZM9 4L8.46967 4.53033L11.4697 7.53033L12 7L12.5303 6.46967L9.53033 3.46967L9 4ZM12 7V7.75H19V7V6.25H12V7ZM19 7V7.75C19.6904 7.75 20.25 8.30964 20.25 9H21H21.75C21.75 7.48122 20.5188 6.25 19 6.25V7ZM21 9H20.25V17H21H21.75V9H21Z" fill="#2F2B3D" fill-opacity="0.9"/>
</svg>
