<svg width="24" height="24" viewBox="0 0 24 24" fill="none" xmlns="http://www.w3.org/2000/svg">
<path d="M5 4H9L12 7H19C20.1046 7 21 7.89543 21 9V17C21 18.1046 20.1046 19 19 19H5C3.89543 19 3 18.1046 3 17V6C3 4.89543 3.89543 4 5 4" stroke="#2F2B3D" stroke-opacity="0.9" stroke-width="1.5" stroke-linecap="round" stroke-linejoin="round"/>
<path d="M10.5303 10.4697C10.2374 10.1768 9.76256 10.1768 9.46967 10.4697C9.17678 10.7626 9.17678 11.2374 9.46967 11.5303L10 11L10.5303 10.4697ZM13.4697 15.5303C13.7626 15.8232 14.2374 15.8232 14.5303 15.5303C14.8232 15.2374 14.8232 14.7626 14.5303 14.4697L14 15L13.4697 15.5303ZM14.5303 11.5303C14.8232 11.2374 14.8232 10.7626 14.5303 10.4697C14.2374 10.1768 13.7626 10.1768 13.4697 10.4697L14 11L14.5303 11.5303ZM9.46967 14.4697C9.17678 14.7626 9.17678 15.2374 9.46967 15.5303C9.76256 15.8232 10.2374 15.8232 10.5303 15.5303L10 15L9.46967 14.4697ZM10 11L9.46967 11.5303L13.4697 15.5303L14 15L14.5303 14.4697L10.5303 10.4697L10 11ZM14 11L13.4697 10.4697L9.46967 14.4697L10 15L10.5303 15.5303L14.5303 11.5303L14 11Z" fill="#2F2B3D" fill-opacity="0.9"/>
</svg>
