<svg width="24" height="24" viewBox="0 0 24 24" fill="none" xmlns="http://www.w3.org/2000/svg">
<path d="M13 10L20.383 17.418C21.206 18.238 21.206 19.566 20.383 20.385C19.5599 21.2037 18.2301 21.2037 17.407 20.385L10 13" stroke="#2F2B3D" stroke-opacity="0.9" stroke-width="1.5" stroke-linecap="round" stroke-linejoin="round"/>
<path d="M6 9L10 13" stroke="#2F2B3D" stroke-opacity="0.9" stroke-width="1.5" stroke-linecap="round" stroke-linejoin="round"/>
<path d="M13 10L9 6" stroke="#2F2B3D" stroke-opacity="0.9" stroke-width="1.5" stroke-linecap="round" stroke-linejoin="round"/>
<path d="M3 21H10" stroke="#2F2B3D" stroke-opacity="0.9" stroke-width="1.5" stroke-linecap="round" stroke-linejoin="round"/>
<path fill-rule="evenodd" clip-rule="evenodd" d="M6.79297 15.793L3.20697 12.207C2.81659 11.8165 2.81659 11.1835 3.20697 10.793L5.49997 8.49997L5.99997 8.99997L8.99997 5.99997L8.49997 5.49997L10.793 3.20697C11.1835 2.81659 11.8165 2.81659 12.207 3.20697L15.793 6.79297C16.1834 7.18347 16.1834 7.81647 15.793 8.20697L13.5 10.5L13 9.99997L9.99997 13L10.5 13.5L8.20697 15.793C7.81647 16.1834 7.18347 16.1834 6.79297 15.793Z" stroke="#2F2B3D" stroke-opacity="0.9" stroke-width="1.5" stroke-linecap="round" stroke-linejoin="round"/>
</svg>
