<svg width="24" height="24" viewBox="0 0 24 24" fill="none" xmlns="http://www.w3.org/2000/svg">
<path d="M6.28849 20.7628C6.1575 21.1558 6.36987 21.5805 6.76283 21.7115C7.15579 21.8425 7.58053 21.6301 7.71151 21.2372L7 21L6.28849 20.7628ZM11.7115 9.23717C11.8425 8.84421 11.6301 8.41947 11.2372 8.28849C10.8442 8.1575 10.4195 8.36987 10.2885 8.76283L11 9L11.7115 9.23717ZM13.7115 8.76278C13.5805 8.36983 13.1557 8.15749 12.7628 8.2885C12.3698 8.41952 12.1575 8.84427 12.2885 9.23722L13 9L13.7115 8.76278ZM13.7685 13.6762C13.8995 14.0692 14.3243 14.2815 14.7172 14.1505C15.1102 14.0195 15.3225 13.5947 15.1915 13.2018L14.48 13.439L13.7685 13.6762ZM16.1405 16.0489C16.0095 15.6559 15.5848 15.4435 15.1918 15.5745C14.7989 15.7054 14.5865 16.1302 14.7174 16.5231L15.429 16.286L16.1405 16.0489ZM16.2884 21.2371C16.4194 21.6301 16.8441 21.8425 17.2371 21.7115C17.63 21.5806 17.8424 21.1559 17.7115 20.7629L17 21L16.2884 21.2371ZM7 21L7.71151 21.2372L11.7115 9.23717L11 9L10.2885 8.76283L6.28849 20.7628L7 21ZM13 9L12.2885 9.23722L13.7685 13.6762L14.48 13.439L15.1915 13.2018L13.7115 8.76278L13 9ZM15.429 16.286L14.7174 16.5231L16.2884 21.2371L17 21L17.7115 20.7629L16.1405 16.0489L15.429 16.286Z" fill="#2F2B3D" fill-opacity="0.9"/>
<circle cx="12" cy="7" r="2" stroke="#2F2B3D" stroke-opacity="0.9" stroke-width="1.5" stroke-linecap="round" stroke-linejoin="round"/>
<path d="M4 12C5.526 14.955 8.588 17 12 17C15.41 17 18.473 14.952 20 12" stroke="#2F2B3D" stroke-opacity="0.9" stroke-width="1.5" stroke-linecap="round" stroke-linejoin="round"/>
<path d="M12 5V3" stroke="#2F2B3D" stroke-opacity="0.9" stroke-width="1.5" stroke-linecap="round" stroke-linejoin="round"/>
</svg>
