<svg width="24" height="24" viewBox="0 0 24 24" fill="none" xmlns="http://www.w3.org/2000/svg">
<path d="M4.99997 11C4.99997 7.13401 8.13397 4 12 4C15.866 4 19 7.13401 19 11V18C19.097 18.7747 18.6779 19.5222 17.9664 19.8435C17.2549 20.1649 16.417 19.985 15.9 19.4C15.5873 18.9999 15.1078 18.7661 14.6 18.7661C14.0922 18.7661 13.6127 18.9999 13.3 19.4C12.9873 19.8001 12.5078 20.0339 12 20.0339C11.4922 20.0339 11.0127 19.8001 10.7 19.4C10.3873 18.9999 9.90775 18.7661 9.39997 18.7661C8.89218 18.7661 8.41268 18.9999 8.09997 19.4C7.58296 19.985 6.74507 20.1649 6.03353 19.8435C5.32199 19.5222 4.9029 18.7747 4.99997 18V11" stroke="#2F2B3D" stroke-opacity="0.9" stroke-width="1.5" stroke-linecap="round" stroke-linejoin="round"/>
<path d="M10 10H10.01" stroke="#2F2B3D" stroke-opacity="0.9" stroke-width="1.5" stroke-linecap="round" stroke-linejoin="round"/>
<path d="M14 10H14.01" stroke="#2F2B3D" stroke-opacity="0.9" stroke-width="1.5" stroke-linecap="round" stroke-linejoin="round"/>
<path d="M10 14C11.202 14.8369 12.798 14.8369 14 14" stroke="#2F2B3D" stroke-opacity="0.9" stroke-width="1.5" stroke-linecap="round" stroke-linejoin="round"/>
</svg>
