<svg width="24" height="24" viewBox="0 0 24 24" fill="none" xmlns="http://www.w3.org/2000/svg">
<circle cx="6" cy="18" r="2" stroke="#2F2B3D" stroke-opacity="0.9" stroke-width="1.5" stroke-linecap="round" stroke-linejoin="round"/>
<circle cx="6" cy="6" r="2" stroke="#2F2B3D" stroke-opacity="0.9" stroke-width="1.5" stroke-linecap="round" stroke-linejoin="round"/>
<circle cx="18" cy="18" r="2" stroke="#2F2B3D" stroke-opacity="0.9" stroke-width="1.5" stroke-linecap="round" stroke-linejoin="round"/>
<path d="M6 8V16" stroke="#2F2B3D" stroke-opacity="0.9" stroke-width="1.5" stroke-linecap="round" stroke-linejoin="round"/>
<path d="M18 11V16" stroke="#2F2B3D" stroke-opacity="0.9" stroke-width="1.5" stroke-linecap="round" stroke-linejoin="round"/>
<path d="M16.5303 3.46967C16.2374 3.17678 15.7626 3.17678 15.4697 3.46967C15.1768 3.76256 15.1768 4.23744 15.4697 4.53033L16 4L16.5303 3.46967ZM19.4697 8.53033C19.7626 8.82322 20.2374 8.82322 20.5303 8.53033C20.8232 8.23744 20.8232 7.76256 20.5303 7.46967L20 8L19.4697 8.53033ZM20.5303 4.53033C20.8232 4.23744 20.8232 3.76256 20.5303 3.46967C20.2374 3.17678 19.7626 3.17678 19.4697 3.46967L20 4L20.5303 4.53033ZM15.4697 7.46967C15.1768 7.76256 15.1768 8.23744 15.4697 8.53033C15.7626 8.82322 16.2374 8.82322 16.5303 8.53033L16 8L15.4697 7.46967ZM16 4L15.4697 4.53033L19.4697 8.53033L20 8L20.5303 7.46967L16.5303 3.46967L16 4ZM20 4L19.4697 3.46967L15.4697 7.46967L16 8L16.5303 8.53033L20.5303 4.53033L20 4Z" fill="#2F2B3D" fill-opacity="0.9"/>
</svg>
