<svg width="24" height="24" viewBox="0 0 24 24" fill="none" xmlns="http://www.w3.org/2000/svg">
<path d="M8 21H16" stroke="#2F2B3D" stroke-opacity="0.9" stroke-width="1.5" stroke-linecap="round" stroke-linejoin="round"/>
<path d="M12 15V21" stroke="#2F2B3D" stroke-opacity="0.9" stroke-width="1.5" stroke-linecap="round" stroke-linejoin="round"/>
<path d="M7 2.25C6.58579 2.25 6.25 2.58579 6.25 3C6.25 3.41421 6.58579 3.75 7 3.75V3V2.25ZM17 3L17.7425 2.89393C17.6897 2.52445 17.3732 2.25 17 2.25V3ZM18 10L18.75 9.99286C18.7497 9.95975 18.7471 9.92671 18.7425 9.89393L18 10ZM16.3721 12.4583C16.1061 12.7758 16.1478 13.2489 16.4653 13.5149C16.7828 13.7809 17.2559 13.7392 17.5219 13.4217L16.947 12.94L16.3721 12.4583ZM14.8131 15.2714C15.2032 15.1322 15.4066 14.703 15.2674 14.3129C15.1281 13.9228 14.699 13.7194 14.3089 13.8586L14.561 14.565L14.8131 15.2714ZM12 15L12.0047 14.25H12V15ZM6 10L5.25756 9.89379C5.25253 9.92897 5.25 9.96447 5.25 10H6ZM7.24244 6.61122C7.3011 6.20118 7.01625 5.82122 6.60621 5.76256C6.19618 5.7039 5.81622 5.98875 5.75756 6.39879L6.5 6.505L7.24244 6.61122ZM7 3V3.75H17V3V2.25H7V3ZM17 3L16.2575 3.10607L17.2575 10.1061L18 10L18.7425 9.89393L17.7425 2.89393L17 3ZM18 10L17.25 10.0071C17.2586 10.9027 16.9473 11.7719 16.3721 12.4583L16.947 12.94L17.5219 13.4217C18.3264 12.4614 18.7619 11.2456 18.75 9.99286L18 10ZM14.561 14.565L14.3089 13.8586C13.5696 14.1225 12.7897 14.2549 12.0047 14.25L12 15L11.9953 15.75C12.9553 15.756 13.9089 15.594 14.8131 15.2714L14.561 14.565ZM12 15V14.25C8.93967 14.25 6.75 12.4537 6.75 10H6H5.25C5.25 13.5703 8.43233 15.75 12 15.75V15ZM6 10L6.74244 10.1062L7.24244 6.61122L6.5 6.505L5.75756 6.39879L5.25756 9.89379L6 10Z" fill="#2F2B3D" fill-opacity="0.9"/>
<path d="M3 3L21 21" stroke="#2F2B3D" stroke-opacity="0.9" stroke-width="1.5" stroke-linecap="round" stroke-linejoin="round"/>
</svg>
