<svg width="24" height="24" viewBox="0 0 24 24" fill="none" xmlns="http://www.w3.org/2000/svg">
<path d="M16.5 15.75C16.9142 15.75 17.25 15.4142 17.25 15C17.25 14.5858 16.9142 14.25 16.5 14.25V15V15.75ZM11.25 19.5C11.25 19.9142 11.5858 20.25 12 20.25C12.4142 20.25 12.75 19.9142 12.75 19.5H12H11.25ZM16.5 11.75C16.9142 11.75 17.25 11.4142 17.25 11C17.25 10.5858 16.9142 10.25 16.5 10.25V11V11.75ZM11.25 15.5C11.25 15.9142 11.5858 16.25 12 16.25C12.4142 16.25 12.75 15.9142 12.75 15.5H12H11.25ZM16.5 7.75C16.9142 7.75 17.25 7.41421 17.25 7C17.25 6.58579 16.9142 6.25 16.5 6.25V7V7.75ZM11.25 11.5C11.25 11.9142 11.5858 12.25 12 12.25C12.4142 12.25 12.75 11.9142 12.75 11.5H12H11.25ZM8 14.25C7.58579 14.25 7.25 14.5858 7.25 15C7.25 15.4142 7.58579 15.75 8 15.75V15V14.25ZM11.25 19.5C11.25 19.9142 11.5858 20.25 12 20.25C12.4142 20.25 12.75 19.9142 12.75 19.5H12H11.25ZM8 10.25C7.58579 10.25 7.25 10.5858 7.25 11C7.25 11.4142 7.58579 11.75 8 11.75V11V10.25ZM11.25 15.5C11.25 15.9142 11.5858 16.25 12 16.25C12.4142 16.25 12.75 15.9142 12.75 15.5H12H11.25ZM8 6.25C7.58579 6.25 7.25 6.58579 7.25 7C7.25 7.41421 7.58579 7.75 8 7.75V7V6.25ZM11.25 11.5C11.25 11.9142 11.5858 12.25 12 12.25C12.4142 12.25 12.75 11.9142 12.75 11.5H12H11.25ZM12.75 4C12.75 3.58579 12.4142 3.25 12 3.25C11.5858 3.25 11.25 3.58579 11.25 4H12H12.75ZM11.25 10C11.25 10.4142 11.5858 10.75 12 10.75C12.4142 10.75 12.75 10.4142 12.75 10H12H11.25ZM16.5 15V14.25C13.6005 14.25 11.25 16.6005 11.25 19.5H12H12.75C12.75 17.4289 14.4289 15.75 16.5 15.75V15ZM16.5 11V10.25C13.6005 10.25 11.25 12.6005 11.25 15.5H12H12.75C12.75 13.4289 14.4289 11.75 16.5 11.75V11ZM16.5 7V6.25C13.6005 6.25 11.25 8.6005 11.25 11.5H12H12.75C12.75 9.42893 14.4289 7.75 16.5 7.75V7ZM8 15V15.75C9.71505 15.75 11.25 17.3436 11.25 19.5H12H12.75C12.75 16.6864 10.7049 14.25 8 14.25V15ZM8 11V11.75C9.71505 11.75 11.25 13.3436 11.25 15.5H12H12.75C12.75 12.6864 10.7049 10.25 8 10.25V11ZM8 7V7.75C9.71505 7.75 11.25 9.34359 11.25 11.5H12H12.75C12.75 8.68641 10.7049 6.25 8 6.25V7ZM12 4H11.25V10H12H12.75V4H12Z" fill="#2F2B3D" fill-opacity="0.9"/>
</svg>
