<svg width="24" height="24" viewBox="0 0 24 24" fill="none" xmlns="http://www.w3.org/2000/svg">
<path d="M8 13V10.5C8 9.67157 8.67157 9 9.5 9C10.3284 9 11 9.67157 11 10.5V12" stroke="#2F2B3D" stroke-opacity="0.9" stroke-width="1.5" stroke-linecap="round" stroke-linejoin="round"/>
<path d="M16.9999 11.5C16.9999 10.6716 17.6715 10 18.4999 10C19.3283 10 19.9999 10.6716 19.9999 11.5V16C19.9999 19.3137 17.3136 22 13.9999 22H11.9999H12.2079C10.1895 22.0003 8.30608 20.9858 7.19592 19.3C7.13033 19.2002 7.065 19.1002 6.99992 19C6.68792 18.521 5.59292 16.612 3.71392 13.272C3.31562 12.5641 3.55323 11.6677 4.24992 11.25C4.9842 10.8094 5.92406 10.9248 6.52992 11.53L7.99992 13" stroke="#2F2B3D" stroke-opacity="0.9" stroke-width="1.5" stroke-linecap="round" stroke-linejoin="round"/>
<path d="M11 11.5V9.5C11 8.9641 11.2859 8.46891 11.75 8.20096C12.2141 7.93301 12.7859 7.93301 13.25 8.20096C13.7141 8.46891 14 8.9641 14 9.5V12" stroke="#2F2B3D" stroke-opacity="0.9" stroke-width="1.5" stroke-linecap="round" stroke-linejoin="round"/>
<path d="M14 12V5.5C14 4.67157 14.6716 4 15.5 4C16.3284 4 17 4.67157 17 5.5V12" stroke="#2F2B3D" stroke-opacity="0.9" stroke-width="1.5" stroke-linecap="round" stroke-linejoin="round"/>
</svg>
