<svg width="24" height="24" viewBox="0 0 24 24" fill="none" xmlns="http://www.w3.org/2000/svg">
<path d="M8 13V10.5C8 9.67157 8.67157 9 9.5 9C10.3284 9 11 9.67157 11 10.5V12" stroke="#2F2B3D" stroke-opacity="0.9" stroke-width="1.5" stroke-linecap="round" stroke-linejoin="round"/>
<path d="M11 11.5V10.5C11 9.67157 11.6716 9 12.5 9C13.3284 9 14 9.67157 14 10.5V12" stroke="#2F2B3D" stroke-opacity="0.9" stroke-width="1.5" stroke-linecap="round" stroke-linejoin="round"/>
<path d="M17 12V6.5C17 5.67157 17.6716 5 18.5 5C19.3285 5 20 5.67157 20 6.5V16C20 19.3137 17.3137 22 14 22H12H12.208C10.1896 22.0003 8.3062 20.9858 7.19604 19.3C7.13045 19.2002 7.06512 19.1002 7.00004 19C6.68804 18.521 5.59304 16.612 3.71404 13.272C3.31574 12.5641 3.55336 11.6677 4.25004 11.25C4.98432 10.8094 5.92419 10.9248 6.53004 11.53L8.00004 13" stroke="#2F2B3D" stroke-opacity="0.9" stroke-width="1.5" stroke-linecap="round" stroke-linejoin="round"/>
<path d="M14 10.5C14 9.67157 14.6716 9 15.5 9C16.3284 9 17 9.67157 17 10.5V12" stroke="#2F2B3D" stroke-opacity="0.9" stroke-width="1.5" stroke-linecap="round" stroke-linejoin="round"/>
</svg>
