<svg width="24" height="24" viewBox="0 0 24 24" fill="none" xmlns="http://www.w3.org/2000/svg">
<path d="M8 13V4.5C8 3.67157 8.67157 3 9.5 3C10.3284 3 11 3.67157 11 4.5V12" stroke="#2F2B3D" stroke-opacity="0.9" stroke-width="1.5" stroke-linecap="round" stroke-linejoin="round"/>
<path d="M11 11.5V9.5C11 8.67157 11.6716 8 12.5 8C13.3284 8 14 8.67157 14 9.5V12" stroke="#2F2B3D" stroke-opacity="0.9" stroke-width="1.5" stroke-linecap="round" stroke-linejoin="round"/>
<path d="M14 10.5C14 9.67157 14.6716 9 15.5 9C16.3284 9 17 9.67157 17 10.5V12" stroke="#2F2B3D" stroke-opacity="0.9" stroke-width="1.5" stroke-linecap="round" stroke-linejoin="round"/>
<path d="M17 11.5C17 10.6716 17.6716 10 18.5 10C19.3285 10 20 10.6716 20 11.5V16C20 19.3137 17.3137 22 14 22H12H12.208C10.1896 22.0003 8.3062 20.9858 7.19604 19.3L7.00004 19C6.68804 18.521 5.59304 16.612 3.71404 13.272C3.31574 12.5641 3.55336 11.6677 4.25004 11.25C4.98432 10.8094 5.92419 10.9248 6.53004 11.53L8.00004 13" stroke="#2F2B3D" stroke-opacity="0.9" stroke-width="1.5" stroke-linecap="round" stroke-linejoin="round"/>
<path d="M5 3L4 2" stroke="#2F2B3D" stroke-opacity="0.9" stroke-width="1.5" stroke-linecap="round" stroke-linejoin="round"/>
<path d="M4 7H3" stroke="#2F2B3D" stroke-opacity="0.9" stroke-width="1.5" stroke-linecap="round" stroke-linejoin="round"/>
<path d="M14 3L15 2" stroke="#2F2B3D" stroke-opacity="0.9" stroke-width="1.5" stroke-linecap="round" stroke-linejoin="round"/>
<path d="M15 6H16" stroke="#2F2B3D" stroke-opacity="0.9" stroke-width="1.5" stroke-linecap="round" stroke-linejoin="round"/>
</svg>
