<svg width="24" height="24" viewBox="0 0 24 24" fill="none" xmlns="http://www.w3.org/2000/svg">
<path d="M3 3L21 21" stroke="#2F2B3D" stroke-opacity="0.9" stroke-width="1.5" stroke-linecap="round" stroke-linejoin="round"/>
<path d="M7.25 13.5C7.25 13.9142 7.58579 14.25 8 14.25C8.41421 14.25 8.75 13.9142 8.75 13.5H8H7.25ZM8.75 8C8.75 7.58579 8.41421 7.25 8 7.25C7.58579 7.25 7.25 7.58579 7.25 8H8H8.75ZM7.91006 3.90733C7.61699 4.20004 7.61669 4.67492 7.9094 4.96799C8.20211 5.26107 8.67699 5.26136 8.97006 4.96865L8.44006 4.43799L7.91006 3.90733ZM11.0001 5.49999L10.2501 5.49965V5.49999H11.0001ZM10.2501 6.99999C10.2501 7.41421 10.5858 7.74999 11.0001 7.74999C11.4143 7.74999 11.7501 7.41421 11.7501 6.99999H11.0001H10.2501ZM11.75 11.008C11.75 10.5938 11.4142 10.258 11 10.258C10.5858 10.258 10.25 10.5938 10.25 11.008H11H11.75ZM10.25 12C10.25 12.4142 10.5858 12.75 11 12.75C11.4142 12.75 11.75 12.4142 11.75 12H11H10.25ZM10.25 5.5C10.25 5.91421 10.5858 6.25 11 6.25C11.4142 6.25 11.75 5.91421 11.75 5.5H11H10.25ZM11 3.5H11.75H11ZM14 3.5H13.25H14ZM13.25 10C13.25 10.4142 13.5858 10.75 14 10.75C14.4142 10.75 14.75 10.4142 14.75 10H14H13.25ZM13.25 5.5C13.25 5.91421 13.5858 6.25 14 6.25C14.4142 6.25 14.75 5.91421 14.75 5.5H14H13.25ZM16.25 12C16.25 12.4142 16.5858 12.75 17 12.75C17.4142 12.75 17.75 12.4142 17.75 12H17H16.25ZM16.25 7.5C16.25 7.91421 16.5858 8.25 17 8.25C17.4142 8.25 17.75 7.91421 17.75 7.5H17H16.25ZM12 22L11.8974 22.7429C11.9314 22.7476 11.9657 22.75 12 22.75V22ZM7.00004 19L6.33307 19.343C6.34476 19.3658 6.35761 19.3879 6.37157 19.4093L7.00004 19ZM4.30004 13.75L4.967 13.407C4.94941 13.3728 4.92921 13.34 4.90659 13.3089L4.30004 13.75ZM7.05004 11.75L7.717 11.407C7.69941 11.3728 7.67921 11.34 7.65659 11.3089L7.05004 11.75ZM7.28307 13.843C7.47251 14.2114 7.92469 14.3564 8.29305 14.167C8.6614 13.9775 8.80644 13.5253 8.617 13.157L7.95004 13.5L7.28307 13.843ZM8 13.5H8.75V8H8H7.25V13.5H8ZM8.44006 4.43799L8.97006 4.96865C9.18468 4.7543 9.50728 4.69033 9.78745 4.80656L10.0748 4.1138L10.3622 3.42105C9.5217 3.07236 8.55391 3.26429 7.91006 3.90733L8.44006 4.43799ZM10.0748 4.1138L9.78745 4.80656C10.0676 4.92278 10.2502 5.19633 10.2501 5.49965L11.0001 5.49999L11.7501 5.50033C11.7505 4.59036 11.2027 3.76973 10.3622 3.42105L10.0748 4.1138ZM11.0001 5.49999H10.2501V6.99999H11.0001H11.7501V5.49999H11.0001ZM11 11.008H10.25V12H11H11.75V11.008H11ZM11 5.5H11.75V3.5H11H10.25V5.5H11ZM11 3.5H11.75C11.75 3.23205 11.8929 2.98446 12.125 2.85048L11.75 2.20096L11.375 1.55144C10.6788 1.95337 10.25 2.69615 10.25 3.5H11ZM11.75 2.20096L12.125 2.85048C12.3571 2.71651 12.6429 2.71651 12.875 2.85048L13.25 2.20096L13.625 1.55144C12.9288 1.14952 12.0712 1.14952 11.375 1.55144L11.75 2.20096ZM13.25 2.20096L12.875 2.85048C13.1071 2.98446 13.25 3.23205 13.25 3.5H14H14.75C14.75 2.69615 14.3212 1.95337 13.625 1.55144L13.25 2.20096ZM14 3.5H13.25V10H14H14.75V3.5H14ZM14 5.5H14.75C14.75 5.08579 15.0858 4.75 15.5 4.75V4V3.25C14.2574 3.25 13.25 4.25736 13.25 5.5H14ZM15.5 4V4.75C15.9142 4.75 16.25 5.08579 16.25 5.5H17H17.75C17.75 4.25736 16.7426 3.25 15.5 3.25V4ZM17 5.5H16.25V12H17H17.75V5.5H17ZM17 7.5H17.75C17.75 7.08579 18.0858 6.75 18.5 6.75V6V5.25C17.2574 5.25 16.25 6.25736 16.25 7.5H17ZM18.5 6V6.75C18.9142 6.75 19.25 7.08579 19.25 7.5H20H20.75C20.75 6.25736 19.7427 5.25 18.5 5.25V6ZM20 7.5H19.25V16H20H20.75V7.5H20ZM20 16H19.25C19.25 18.8995 16.8995 21.25 14 21.25V22V22.75C17.728 22.75 20.75 19.7279 20.75 16H20ZM14 22V21.25H12V22V22.75H14V22ZM12 22L12.1027 21.2571C10.1761 20.9909 8.53928 19.9891 7.6285 18.5907L7.00004 19L6.37157 19.4093C7.54879 21.2169 9.59602 22.4251 11.8974 22.7429L12 22ZM7.00004 19L7.667 18.657L4.967 13.407L4.30004 13.75L3.63307 14.093L6.33307 19.343L7.00004 19ZM4.30004 13.75L4.90659 13.3089C4.59793 12.8845 4.69176 12.2902 5.11616 11.9816L4.67504 11.375L4.23391 10.7684C3.13953 11.5644 2.89757 13.0967 3.69348 14.1911L4.30004 13.75ZM4.67504 11.375L5.11616 11.9816C5.54057 11.6729 6.13483 11.7667 6.44348 12.1911L7.05004 11.75L7.65659 11.3089C6.86067 10.2145 5.32829 9.97253 4.23391 10.7684L4.67504 11.375ZM7.05004 11.75L6.38307 12.093L7.28307 13.843L7.95004 13.5L8.617 13.157L7.717 11.407L7.05004 11.75Z" fill="#2F2B3D" fill-opacity="0.9"/>
</svg>
