<svg width="24" height="24" viewBox="0 0 24 24" fill="none" xmlns="http://www.w3.org/2000/svg">
<path d="M3 3L21 21" stroke="#2F2B3D" stroke-opacity="0.9" stroke-width="1.5" stroke-linecap="round" stroke-linejoin="round"/>
<rect x="4" y="13" width="5" height="7" rx="2" stroke="#2F2B3D" stroke-opacity="0.9" stroke-width="1.5" stroke-linecap="round" stroke-linejoin="round"/>
<path d="M17 12.25C16.5858 12.25 16.25 12.5858 16.25 13C16.25 13.4142 16.5858 13.75 17 13.75V13V12.25ZM19.25 16C19.25 16.4142 19.5858 16.75 20 16.75C20.4142 16.75 20.75 16.4142 20.75 16H20H19.25ZM19.9406 19.9481C20.2339 19.6556 20.2346 19.1807 19.9421 18.8874C19.6496 18.5941 19.1747 18.5934 18.8814 18.8859L19.411 19.417L19.9406 19.9481ZM15.75 15C15.75 14.5858 15.4142 14.25 15 14.25C14.5858 14.25 14.25 14.5858 14.25 15H15H15.75ZM17 13V13.75H18V13V12.25H17V13ZM18 13V13.75C18.6904 13.75 19.25 14.3096 19.25 15H20H20.75C20.75 13.4812 19.5188 12.25 18 12.25V13ZM20 15H19.25V16H20H20.75V15H20ZM19.411 19.417L18.8814 18.8859C18.6553 19.1114 18.3446 19.25 18 19.25V20V20.75C18.7574 20.75 19.4447 20.4426 19.9406 19.9481L19.411 19.417ZM18 20V19.25H17V20V20.75H18V20ZM17 20V19.25C16.3096 19.25 15.75 18.6904 15.75 18H15H14.25C14.25 19.5188 15.4812 20.75 17 20.75V20ZM15 18H15.75V15H15H14.25V18H15Z" fill="#2F2B3D" fill-opacity="0.9"/>
<path d="M3.25 15C3.25 15.4143 3.58579 15.75 4 15.75C4.41421 15.75 4.75 15.4143 4.75 15H4H3.25ZM6.87433 6.87237C7.16722 6.57948 7.16722 6.1046 6.87433 5.81171C6.58144 5.51882 6.10656 5.51882 5.81367 5.81171L6.344 6.34204L6.87433 6.87237ZM8.40486 4.02028C8.02722 4.19047 7.85905 4.63457 8.02924 5.0122C8.19943 5.38984 8.64353 5.55801 9.02117 5.38782L8.71301 4.70405L8.40486 4.02028ZM20 12L19.25 11.9998V12H20ZM19.25 15C19.25 15.4143 19.5858 15.75 20 15.75C20.4142 15.75 20.75 15.4143 20.75 15H20H19.25ZM4 15H4.75V12H4H3.25V15H4ZM4 12H4.75C4.75 9.99705 5.56115 8.18555 6.87433 6.87237L6.344 6.34204L5.81367 5.81171C4.23085 7.39453 3.25 9.58303 3.25 12H4ZM8.71301 4.70405L9.02117 5.38782C11.2651 4.37655 13.8688 4.57276 15.9358 5.90889L16.3429 5.27902L16.7501 4.64916C14.2554 3.03659 11.113 2.79978 8.40486 4.02028L8.71301 4.70405ZM16.3429 5.27902L15.9358 5.90889C18.0028 7.24502 19.2508 9.53856 19.25 11.9998L20 12L20.75 12.0003C20.7509 9.0298 19.2448 6.26173 16.7501 4.64916L16.3429 5.27902ZM20 12H19.25V15H20H20.75V12H20Z" fill="#2F2B3D" fill-opacity="0.9"/>
</svg>
