<svg width="24" height="24" viewBox="0 0 24 24" fill="none" xmlns="http://www.w3.org/2000/svg">
<path d="M20.0278 14.1049C20.3221 13.8134 20.3244 13.3386 20.0329 13.0443C19.7414 12.75 19.2665 12.7477 18.9722 13.0391L19.5 13.572L20.0278 14.1049ZM12 21L11.4723 21.5329C11.7646 21.8224 12.2355 21.8224 12.5278 21.5329L12 21ZM9.63175 17.5991C9.33744 17.3077 8.86257 17.31 8.5711 17.6043C8.27964 17.8986 8.28194 18.3735 8.57626 18.6649L9.104 18.132L9.63175 17.5991ZM2.237 10.0339C2.24028 10.4481 2.57872 10.7813 2.99292 10.778C3.40712 10.7747 3.74023 10.4362 3.73695 10.022L2.98697 10.028L2.237 10.0339ZM12 7.00599L11.398 7.45335C11.5391 7.64316 11.7614 7.75532 11.9979 7.75599C12.2344 7.75665 12.4573 7.64574 12.5994 7.45672L12 7.00599ZM18.9744 13.0429C18.6789 13.3332 18.6747 13.808 18.9649 14.1035C19.2552 14.3991 19.73 14.4033 20.0255 14.1131L19.5 13.578L18.9744 13.0429ZM19.5 13.572L18.9722 13.0391L11.4722 20.4671L12 21L12.5278 21.5329L20.0278 14.1049L19.5 13.572ZM12 21L12.5278 20.4671L9.63175 17.5991L9.104 18.132L8.57626 18.6649L11.4723 21.5329L12 21ZM2.98697 10.028L3.73695 10.022C3.72238 8.18313 4.89217 6.54345 6.63574 5.95884L6.39732 5.24775L6.15889 4.53665C3.79994 5.3276 2.21728 7.54599 2.237 10.0339L2.98697 10.028ZM6.39732 5.24775L6.63574 5.95884C8.37932 5.37423 10.3011 5.97733 11.398 7.45335L12 7.00599L12.6019 6.55864C11.1179 4.56167 8.51785 3.74571 6.15889 4.53665L6.39732 5.24775ZM12 7.00599L12.5994 7.45672C13.5576 6.18239 15.1484 5.55155 16.7195 5.82287L16.8472 5.08381L16.9748 4.34475C14.8492 3.97766 12.6969 4.83116 11.4005 6.55526L12 7.00599ZM16.8472 5.08381L16.7195 5.82287C18.2907 6.09419 19.5778 7.22204 20.0531 8.74392L20.769 8.52034L21.4849 8.29676C20.8418 6.23774 19.1004 4.71183 16.9748 4.34475L16.8472 5.08381ZM20.769 8.52034L20.0531 8.74392C20.5284 10.2658 20.1119 11.9257 18.9744 13.0429L19.5 13.578L20.0255 14.1131C21.5644 12.6015 22.1279 10.3558 21.4849 8.29676L20.769 8.52034Z" fill="#2F2B3D" fill-opacity="0.9"/>
<path d="M3 13H5L7 16L9 10L10 13H13" stroke="#2F2B3D" stroke-opacity="0.9" stroke-width="1.5" stroke-linecap="round" stroke-linejoin="round"/>
</svg>
