<svg width="24" height="24" viewBox="0 0 24 24" fill="none" xmlns="http://www.w3.org/2000/svg">
<path d="M20.0278 14.1048C20.3221 13.8133 20.3244 13.3384 20.0329 13.0441C19.7414 12.7498 19.2665 12.7475 18.9722 13.039L19.5 13.5719L20.0278 14.1048ZM12 20.9999L11.4722 21.5328C11.7645 21.8223 12.2355 21.8223 12.5278 21.5328L12 20.9999ZM5.02777 13.039C4.73346 12.7475 4.2586 12.7498 3.96712 13.0441C3.67564 13.3384 3.67793 13.8133 3.97223 14.1048L4.5 13.5719L5.02777 13.039ZM3.9769 14.1095C4.27376 14.3983 4.74859 14.3919 5.03747 14.095C5.32634 13.7981 5.31986 13.3233 5.023 13.0344L4.49995 13.5719L3.9769 14.1095ZM12 7.00595L11.398 7.45334C11.5391 7.64314 11.7614 7.75529 11.9979 7.75595C12.2343 7.7566 12.4573 7.64569 12.5994 7.45668L12 7.00595ZM18.9744 13.0429C18.6789 13.3331 18.6746 13.808 18.9649 14.1035C19.2551 14.399 19.73 14.4033 20.0255 14.113L19.5 13.5779L18.9744 13.0429ZM19.5 13.5719L18.9722 13.039L11.4722 20.467L12 20.9999L12.5278 21.5328L20.0278 14.1048L19.5 13.5719ZM12 20.9999L12.5278 20.467L5.02777 13.039L4.5 13.5719L3.97223 14.1048L11.4722 21.5328L12 20.9999ZM4.49995 13.5719L5.023 13.0344C3.87661 11.9189 3.45367 10.2541 3.92861 8.72667L3.21243 8.50398L2.49626 8.2813C1.85369 10.3479 2.4259 12.6002 3.9769 14.1095L4.49995 13.5719ZM3.21243 8.50398L3.92861 8.72667C4.40355 7.19921 5.69591 6.06779 7.27275 5.79898L7.14672 5.05965L7.02068 4.32031C4.8873 4.684 3.13882 6.21474 2.49626 8.2813L3.21243 8.50398ZM7.14672 5.05965L7.27275 5.79898C8.8496 5.53017 10.4438 6.16951 11.398 7.45334L12 7.00595L12.6019 6.55856C11.3109 4.82161 9.15405 3.95663 7.02068 4.32031L7.14672 5.05965ZM12 7.00595L12.5994 7.45668C13.5576 6.18235 15.1484 5.5515 16.7195 5.82283L16.8472 5.08377L16.9748 4.34471C14.8492 3.97762 12.6969 4.83112 11.4005 6.55522L12 7.00595ZM16.8472 5.08377L16.7195 5.82283C18.2906 6.09415 19.5778 7.22199 20.053 8.74388L20.7689 8.5203L21.4848 8.29672C20.8418 6.2377 19.1004 4.71179 16.9748 4.34471L16.8472 5.08377ZM20.7689 8.5203L20.053 8.74388C20.5283 10.2658 20.1119 11.9256 18.9744 13.0429L19.5 13.5779L20.0255 14.113C21.5644 12.6015 22.1279 10.3557 21.4848 8.29672L20.7689 8.5203Z" fill="#2F2B3D" fill-opacity="0.9"/>
</svg>
