<svg width="24" height="24" viewBox="0 0 24 24" fill="none" xmlns="http://www.w3.org/2000/svg">
<path d="M8.30948 4.04545C7.95351 4.25726 7.83666 4.71754 8.04847 5.0735C8.26028 5.42946 8.72055 5.54632 9.07651 5.33451L8.69299 4.68998L8.30948 4.04545ZM11.029 3.29998L10.6642 2.64467C10.6579 2.64818 10.6517 2.65177 10.6455 2.65545L11.029 3.29998ZM13.029 3.29998L13.4127 2.65559C13.4065 2.65186 13.4001 2.64822 13.3938 2.64467L13.029 3.29998ZM19.029 6.87298V7.62298C19.3666 7.62298 19.6625 7.39746 19.7521 7.07198C19.8417 6.74651 19.7028 6.40131 19.4127 6.22859L19.029 6.87298ZM19 6.87298V6.12298C18.6605 6.12298 18.3634 6.35099 18.2755 6.67888C18.1877 7.00677 18.331 7.35279 18.625 7.52251L19 6.87298ZM20 8.61998L19.25 8.61439V8.61998H20ZM19.1696 15.5948C19.0215 15.9816 19.215 16.4153 19.6018 16.5634C19.9886 16.7115 20.4223 16.518 20.5704 16.1312L19.87 15.863L19.1696 15.5948ZM18.1137 18.342C18.4628 18.119 18.565 17.6553 18.3421 17.3062C18.1191 16.9571 17.6554 16.8549 17.3063 17.0779L17.71 17.7099L18.1137 18.342ZM12.971 20.7369L13.3351 21.3926C13.3486 21.3852 13.3618 21.3773 13.3747 21.369L12.971 20.7369ZM11.029 20.7369L10.6252 21.369C10.6382 21.3773 10.6514 21.3851 10.6649 21.3926L11.029 20.7369ZM5.029 16.9039L5.43277 16.2719C5.4198 16.2636 5.40658 16.2557 5.39312 16.2483L5.029 16.9039ZM4 15.1569H3.25L3.25 15.1575L4 15.1569ZM4 8.61994L3.25 8.61976V8.61994H4ZM5.029 6.87194L5.39313 7.52761C5.39969 7.52397 5.4062 7.52022 5.41265 7.51638L5.029 6.87194ZM6.56665 6.82938C6.92257 6.6175 7.03933 6.1572 6.82745 5.80128C6.61556 5.44537 6.15527 5.3286 5.79935 5.54049L6.183 6.18494L6.56665 6.82938ZM8.69299 4.68998L9.07651 5.33451L11.4125 3.94451L11.029 3.29998L10.6455 2.65545L8.30948 4.04545L8.69299 4.68998ZM11.029 3.29998L11.3938 3.95529C11.7887 3.73544 12.2693 3.73544 12.6642 3.95529L13.029 3.29998L13.3938 2.64467C12.5452 2.17232 11.5128 2.17232 10.6642 2.64467L11.029 3.29998ZM13.029 3.29998L12.6453 3.94438L18.6453 7.51738L19.029 6.87298L19.4127 6.22859L13.4127 2.65559L13.029 3.29998ZM19.029 6.87298V6.12298H19V6.87298V7.62298H19.029V6.87298ZM19 6.87298L18.625 7.52251C19.0147 7.74747 19.2534 8.16447 19.25 8.61439L20 8.61998L20.75 8.62558C20.7574 7.63576 20.2322 6.71835 19.375 6.22345L19 6.87298ZM20 8.61998H19.25V15.156H20H20.75V8.61998H20ZM20 15.156H19.25C19.25 15.3102 19.2218 15.4583 19.1696 15.5948L19.87 15.863L20.5704 16.1312C20.6882 15.8236 20.75 15.4937 20.75 15.156H20ZM17.71 17.7099L17.3063 17.0779L12.5673 20.1049L12.971 20.7369L13.3747 21.369L18.1137 18.342L17.71 17.7099ZM12.971 20.7369L12.6069 20.0813C12.2294 20.2909 11.7706 20.2909 11.3931 20.0813L11.029 20.7369L10.6649 21.3926C11.4952 21.8537 12.5048 21.8537 13.3351 21.3926L12.971 20.7369ZM11.029 20.7369L11.4328 20.1049L5.43277 16.2719L5.029 16.9039L4.62523 17.536L10.6252 21.369L11.029 20.7369ZM5.029 16.9039L5.39312 16.2483C4.99648 16.028 4.75033 15.6101 4.75 15.1564L4 15.1569L3.25 15.1575C3.25074 16.1556 3.79226 17.075 4.66488 17.5596L5.029 16.9039ZM4 15.1569H4.75V8.61994H4H3.25V15.1569H4ZM4 8.61994L4.75 8.62011C4.75011 8.16619 4.99629 7.748 5.39313 7.52761L5.029 6.87194L4.66488 6.21626C3.79183 6.7011 3.25024 7.62112 3.25 8.61976L4 8.61994ZM5.029 6.87194L5.41265 7.51638L6.56665 6.82938L6.183 6.18494L5.79935 5.54049L4.64535 6.22749L5.029 6.87194Z" fill="#2F2B3D" fill-opacity="0.9"/>
<path d="M3 3L21 21" stroke="#2F2B3D" stroke-opacity="0.9" stroke-width="1.5" stroke-linecap="round" stroke-linejoin="round"/>
</svg>
