<svg width="24" height="24" viewBox="0 0 24 24" fill="none" xmlns="http://www.w3.org/2000/svg">
<path d="M12 8V12L14 14" stroke="#2F2B3D" stroke-opacity="0.9" stroke-width="1.5" stroke-linecap="round" stroke-linejoin="round"/>
<path d="M2.30391 10.924C2.26193 11.336 2.56196 11.7041 2.97405 11.7461C3.38613 11.7881 3.75421 11.488 3.79619 11.076L3.05005 11L2.30391 10.924ZM4.25452 14.7426C4.1124 14.3536 3.68179 14.1534 3.29272 14.2955C2.90365 14.4376 2.70346 14.8682 2.84558 15.2573L3.55005 15L4.25452 14.7426ZM2.30005 20C2.30005 20.4142 2.63584 20.75 3.05005 20.75C3.46426 20.75 3.80005 20.4142 3.80005 20H3.05005H2.30005ZM3.05005 15V14.25C2.63584 14.25 2.30005 14.5858 2.30005 15H3.05005ZM8.05005 15.75C8.46426 15.75 8.80005 15.4142 8.80005 15C8.80005 14.5858 8.46426 14.25 8.05005 14.25V15V15.75ZM3.05005 11L3.79619 11.076C4.22146 6.90095 7.71316 3.71046 11.9095 3.66253L11.9009 2.91258L11.8924 2.16263C6.93306 2.21928 2.80651 5.98986 2.30391 10.924L3.05005 11ZM11.9009 2.91258L11.9095 3.66253C16.1058 3.6146 19.6695 6.72451 20.19 10.8887L20.9342 10.7957L21.6784 10.7027C21.0633 5.78133 16.8517 2.10599 11.8924 2.16263L11.9009 2.91258ZM20.9342 10.7957L20.19 10.8887C20.7105 15.0529 18.022 18.9443 13.943 19.9308L14.1193 20.6598L14.2956 21.3888C19.1163 20.2229 22.2936 15.624 21.6784 10.7027L20.9342 10.7957ZM14.1193 20.6598L13.943 19.9308C9.86401 20.9173 5.6944 18.6845 4.25452 14.7426L3.55005 15L2.84558 15.2573C4.54726 19.9158 9.47498 22.5546 14.2956 21.3888L14.1193 20.6598ZM3.05005 20H3.80005V15H3.05005H2.30005V20H3.05005ZM3.05005 15V15.75H8.05005V15V14.25H3.05005V15Z" fill="#2F2B3D" fill-opacity="0.9"/>
</svg>
