<svg width="24" height="24" viewBox="0 0 24 24" fill="none" xmlns="http://www.w3.org/2000/svg">
<path fill-rule="evenodd" clip-rule="evenodd" d="M8.5 10C7.67157 10 7 9.32843 7 8.5C7 5.46243 9.46243 3 12.5 3C15.5376 3 18 5.46243 18 8.5V19C18 20.1046 17.1046 21 16 21H9C7.89543 21 7 20.1046 7 19V17C7 15.62 7.71 14.556 8.88 13.825L13.304 11.06C14.359 10.4 15 9.744 15 8.5C15 7.11929 13.8807 6 12.5 6C11.1193 6 10 7.11929 10 8.5C10 9.32843 9.32843 10 8.5 10Z" stroke="#2F2B3D" stroke-opacity="0.9" stroke-width="1.5" stroke-linecap="round" stroke-linejoin="round"/>
</svg>
