<svg width="24" height="24" viewBox="0 0 24 24" fill="none" xmlns="http://www.w3.org/2000/svg">
<path d="M6.5 7H17.5" stroke="#2F2B3D" stroke-opacity="0.9" stroke-width="1.5" stroke-linecap="round" stroke-linejoin="round"/>
<path d="M6.5 17H17.5" stroke="#2F2B3D" stroke-opacity="0.9" stroke-width="1.5" stroke-linecap="round" stroke-linejoin="round"/>
<path fill-rule="evenodd" clip-rule="evenodd" d="M6 20V18C6 14.6863 8.68629 12 12 12C15.3137 12 18 14.6863 18 18V20C18 20.5523 17.5523 21 17 21H7C6.44772 21 6 20.5523 6 20V20Z" stroke="#2F2B3D" stroke-opacity="0.9" stroke-width="1.5" stroke-linecap="round" stroke-linejoin="round"/>
<path fill-rule="evenodd" clip-rule="evenodd" d="M6 4V6C6 9.31371 8.68629 12 12 12C15.3137 12 18 9.31371 18 6V4C18 3.44772 17.5523 3 17 3H7C6.44772 3 6 3.44772 6 4Z" stroke="#2F2B3D" stroke-opacity="0.9" stroke-width="1.5" stroke-linecap="round" stroke-linejoin="round"/>
</svg>
