<svg width="24" height="24" viewBox="0 0 24 24" fill="none" xmlns="http://www.w3.org/2000/svg">
<path fill-rule="evenodd" clip-rule="evenodd" d="M5.905 5H9.323C9.73182 5.00026 10.0993 5.24935 10.251 5.629L11.394 8.485C11.7717 9.4298 12.6026 10.1187 13.601 10.315L18.318 11.241C19.2953 11.4331 20.0001 12.29 20 13.286V14C20 14.5523 19.5523 15 19 15H5.105C4.82238 15 4.55296 14.8804 4.36337 14.6708C4.17378 14.4612 4.08174 14.1812 4.11 13.9L4.91 5.9C4.96135 5.38901 5.39143 4.99999 5.905 5Z" stroke="#2F2B3D" stroke-opacity="0.9" stroke-width="1.5" stroke-linecap="round" stroke-linejoin="round"/>
<path d="M3 19H20C20.5523 19 21 18.5523 21 18" stroke="#2F2B3D" stroke-opacity="0.9" stroke-width="1.5" stroke-linecap="round" stroke-linejoin="round"/>
<path d="M9 15V19" stroke="#2F2B3D" stroke-opacity="0.9" stroke-width="1.5" stroke-linecap="round" stroke-linejoin="round"/>
<path d="M15 15V19" stroke="#2F2B3D" stroke-opacity="0.9" stroke-width="1.5" stroke-linecap="round" stroke-linejoin="round"/>
</svg>
