<svg width="24" height="24" viewBox="0 0 24 24" fill="none" xmlns="http://www.w3.org/2000/svg">
<path d="M9.828 9.172C8.6841 8.02775 6.96354 7.68531 5.46869 8.30436C3.97385 8.92341 2.99915 10.382 2.99915 12C2.99915 13.618 3.97385 15.0766 5.46869 15.6956C6.96354 16.3147 8.6841 15.9722 9.828 14.828C10.7156 14.0231 11.4513 13.0652 12 12C12.5487 10.9348 13.2844 9.97692 14.172 9.172C15.3159 8.02775 17.0365 7.68531 18.5313 8.30436C20.0262 8.92341 21.0009 10.382 21.0009 12C21.0009 13.618 20.0262 15.0766 18.5313 15.6956C17.0365 16.3147 15.3159 15.9722 14.172 14.828C13.2844 14.0231 12.5487 13.0652 12 12C11.4513 10.9348 10.7156 9.97692 9.828 9.172" stroke="#2F2B3D" stroke-opacity="0.9" stroke-width="1.5" stroke-linecap="round" stroke-linejoin="round"/>
</svg>
