<svg width="24" height="24" viewBox="0 0 24 24" fill="none" xmlns="http://www.w3.org/2000/svg">
<path d="M15.25 15C15.25 15.4142 15.5858 15.75 16 15.75C16.4142 15.75 16.75 15.4142 16.75 15H16H15.25ZM20.25 15C20.25 15.4142 20.5858 15.75 21 15.75C21.4142 15.75 21.75 15.4142 21.75 15H21H20.25ZM21 13.75C21.4142 13.75 21.75 13.4142 21.75 13C21.75 12.5858 21.4142 12.25 21 12.25V13V13.75ZM16 12.25C15.5858 12.25 15.25 12.5858 15.25 13C15.25 13.4142 15.5858 13.75 16 13.75V13V12.25ZM16 15H16.75V11.5H16H15.25V15H16ZM16 11.5H16.75C16.75 10.5335 17.5335 9.75 18.5 9.75V9V8.25C16.7051 8.25 15.25 9.70507 15.25 11.5H16ZM18.5 9V9.75C19.4665 9.75 20.25 10.5335 20.25 11.5H21H21.75C21.75 9.70507 20.2949 8.25 18.5 8.25V9ZM21 11.5H20.25V15H21H21.75V11.5H21ZM21 13V12.25H16V13V13.75H21V13Z" fill="#2F2B3D" fill-opacity="0.9"/>
<path d="M3 9L6 15L9 9" stroke="#2F2B3D" stroke-opacity="0.9" stroke-width="1.5" stroke-linecap="round" stroke-linejoin="round"/>
<path d="M9 20L15 4" stroke="#2F2B3D" stroke-opacity="0.9" stroke-width="1.5" stroke-linecap="round" stroke-linejoin="round"/>
</svg>
