<svg width="24" height="24" viewBox="0 0 24 24" fill="none" xmlns="http://www.w3.org/2000/svg">
<path d="M18 18.75C18.4142 18.75 18.75 18.4142 18.75 18C18.75 17.5858 18.4142 17.25 18 17.25V18V18.75ZM6 6.75C6.41421 6.75 6.75 6.41421 6.75 6C6.75 5.58579 6.41421 5.25 6 5.25V6V6.75ZM10 5.25C9.58579 5.25 9.25 5.58579 9.25 6C9.25 6.41421 9.58579 6.75 10 6.75V6V5.25ZM20.8811 16.8862C20.5874 17.1783 20.5861 17.6532 20.8782 17.9469C21.1703 18.2406 21.6452 18.2419 21.9389 17.9498L21.41 17.418L20.8811 16.8862ZM18 18V17.25H4V18V18.75H18V18ZM4 18V17.25C3.30964 17.25 2.75 16.6904 2.75 16H2H1.25C1.25 17.5188 2.48122 18.75 4 18.75V18ZM2 16H2.75V8H2H1.25V16H2ZM2 8H2.75C2.75 7.30964 3.30964 6.75 4 6.75V6V5.25C2.48122 5.25 1.25 6.48122 1.25 8H2ZM4 6V6.75H6V6V5.25H4V6ZM10 6V6.75H20V6V5.25H10V6ZM20 6V6.75C20.6904 6.75 21.25 7.30964 21.25 8H22H22.75C22.75 6.48122 21.5188 5.25 20 5.25V6ZM22 8H21.25V16H22H22.75V8H22ZM22 16H21.25C21.25 16.346 21.1096 16.659 20.8811 16.8862L21.41 17.418L21.9389 17.9498C22.4384 17.453 22.75 16.762 22.75 16H22Z" fill="#2F2B3D" fill-opacity="0.9"/>
<path d="M6 10V10.01" stroke="#2F2B3D" stroke-opacity="0.9" stroke-width="1.5" stroke-linecap="round" stroke-linejoin="round"/>
<path d="M10 10V10.01" stroke="#2F2B3D" stroke-opacity="0.9" stroke-width="1.5" stroke-linecap="round" stroke-linejoin="round"/>
<path d="M14 10V10.01" stroke="#2F2B3D" stroke-opacity="0.9" stroke-width="1.5" stroke-linecap="round" stroke-linejoin="round"/>
<path d="M18 10V10.01" stroke="#2F2B3D" stroke-opacity="0.9" stroke-width="1.5" stroke-linecap="round" stroke-linejoin="round"/>
<path d="M6 14V14.01" stroke="#2F2B3D" stroke-opacity="0.9" stroke-width="1.5" stroke-linecap="round" stroke-linejoin="round"/>
<path d="M18 14V14.01" stroke="#2F2B3D" stroke-opacity="0.9" stroke-width="1.5" stroke-linecap="round" stroke-linejoin="round"/>
<path d="M10 14H14" stroke="#2F2B3D" stroke-opacity="0.9" stroke-width="1.5" stroke-linecap="round" stroke-linejoin="round"/>
<path d="M3 3L21 21" stroke="#2F2B3D" stroke-opacity="0.9" stroke-width="1.5" stroke-linecap="round" stroke-linejoin="round"/>
</svg>
