<svg width="24" height="24" viewBox="0 0 24 24" fill="none" xmlns="http://www.w3.org/2000/svg">
<rect x="4" y="4" width="6" height="6" rx="1" stroke="#2F2B3D" stroke-opacity="0.9" stroke-width="1.5" stroke-linecap="round" stroke-linejoin="round"/>
<rect x="14" y="4" width="6" height="6" rx="1" stroke="#2F2B3D" stroke-opacity="0.9" stroke-width="1.5" stroke-linecap="round" stroke-linejoin="round"/>
<rect x="4" y="14" width="6" height="6" rx="1" stroke="#2F2B3D" stroke-opacity="0.9" stroke-width="1.5" stroke-linecap="round" stroke-linejoin="round"/>
<path d="M14 16.25C13.5858 16.25 13.25 16.5858 13.25 17C13.25 17.4142 13.5858 17.75 14 17.75V17V16.25ZM20 17.75C20.4142 17.75 20.75 17.4142 20.75 17C20.75 16.5858 20.4142 16.25 20 16.25V17V17.75ZM17.75 14C17.75 13.5858 17.4142 13.25 17 13.25C16.5858 13.25 16.25 13.5858 16.25 14H17H17.75ZM16.25 20C16.25 20.4142 16.5858 20.75 17 20.75C17.4142 20.75 17.75 20.4142 17.75 20H17H16.25ZM14 17V17.75H20V17V16.25H14V17ZM17 14H16.25V20H17H17.75V14H17Z" fill="#2F2B3D" fill-opacity="0.9"/>
</svg>
