<svg width="24" height="24" viewBox="0 0 24 24" fill="none" xmlns="http://www.w3.org/2000/svg">
<path fill-rule="evenodd" clip-rule="evenodd" d="M18 4.00006C18.8642 4.00014 19.6306 4.55531 19.9001 5.37645C20.1696 6.19759 19.8811 7.09893 19.185 7.61106C20.735 10.5511 20.058 14.5281 17.293 17.2931C14.528 20.0581 10.55 20.7351 7.611 19.1851C7.14477 19.8194 6.34979 20.1212 5.58005 19.9561C4.81032 19.791 4.20903 19.1897 4.04394 18.42C3.87885 17.6503 4.18067 16.8553 4.815 16.3891C3.265 13.4491 3.942 9.47206 6.707 6.70706C9.472 3.94206 13.45 3.26506 16.389 4.81506C16.7658 4.30256 17.3639 3.99994 18 4.00006Z" stroke="#2F2B3D" stroke-opacity="0.9" stroke-width="1.5" stroke-linecap="round" stroke-linejoin="round"/>
</svg>
