<svg width="24" height="24" viewBox="0 0 24 24" fill="none" xmlns="http://www.w3.org/2000/svg">
<path d="M4.25 12C4.25 12.4142 4.58579 12.75 5 12.75C5.41421 12.75 5.75 12.4142 5.75 12H5H4.25ZM9.25 12C9.25 12.4142 9.58579 12.75 10 12.75C10.4142 12.75 10.75 12.4142 10.75 12H10H9.25ZM10 8.75C10.4142 8.75 10.75 8.41421 10.75 8C10.75 7.58579 10.4142 7.25 10 7.25V8V8.75ZM5 7.25C4.58579 7.25 4.25 7.58579 4.25 8C4.25 8.41421 4.58579 8.75 5 8.75V8V7.25ZM5 12H5.75V6.5H5H4.25V12H5ZM5 6.5H5.75C5.75 5.5335 6.5335 4.75 7.5 4.75V4V3.25C5.70507 3.25 4.25 4.70507 4.25 6.5H5ZM7.5 4V4.75C8.4665 4.75 9.25 5.5335 9.25 6.5H10H10.75C10.75 4.70507 9.29493 3.25 7.5 3.25V4ZM10 6.5H9.25V12H10H10.75V6.5H10ZM10 8V7.25H5V8V8.75H10V8Z" fill="#2F2B3D" fill-opacity="0.9"/>
<path d="M13 4L16 12L19 4" stroke="#2F2B3D" stroke-opacity="0.9" stroke-width="1.5" stroke-linecap="round" stroke-linejoin="round"/>
<path d="M5 18H19" stroke="#2F2B3D" stroke-opacity="0.9" stroke-width="1.5" stroke-linecap="round" stroke-linejoin="round"/>
<path d="M17 20L19 18L17 16" stroke="#2F2B3D" stroke-opacity="0.9" stroke-width="1.5" stroke-linecap="round" stroke-linejoin="round"/>
<path d="M7 16L5 18L7 20" stroke="#2F2B3D" stroke-opacity="0.9" stroke-width="1.5" stroke-linecap="round" stroke-linejoin="round"/>
</svg>
