<svg width="24" height="24" viewBox="0 0 24 24" fill="none" xmlns="http://www.w3.org/2000/svg">
<path d="M15 21.75C15.4142 21.75 15.75 21.4142 15.75 21C15.75 20.5858 15.4142 20.25 15 20.25V21V21.75ZM3 17V16.25C2.58579 16.25 2.25 16.5858 2.25 17H3ZM13 17H13.75C13.75 16.5858 13.4142 16.25 13 16.25V17ZM17 6.25C16.5858 6.25 16.25 6.58579 16.25 7C16.25 7.41421 16.5858 7.75 17 7.75V7V6.25ZM19 3.75C19.4142 3.75 19.75 3.41421 19.75 3C19.75 2.58579 19.4142 2.25 19 2.25V3V3.75ZM4.25 17C4.25 17.4142 4.58579 17.75 5 17.75C5.41421 17.75 5.75 17.4142 5.75 17H5H4.25ZM15 21V20.25H6V21V21.75H15V21ZM6 21V20.25C4.75736 20.25 3.75 19.2426 3.75 18H3H2.25C2.25 20.0711 3.92893 21.75 6 21.75V21ZM3 18H3.75V17H3H2.25V18H3ZM3 17V17.75H13V17V16.25H3V17ZM13 17H12.25V19H13H13.75V17H13ZM13 19H12.25C12.25 20.5188 13.4812 21.75 15 21.75V21V20.25C14.3096 20.25 13.75 19.6904 13.75 19H13ZM15 21V21.75C16.5188 21.75 17.75 20.5188 17.75 19H17H16.25C16.25 19.6904 15.6904 20.25 15 20.25V21ZM17 19H17.75V5H17H16.25V19H17ZM17 5H17.75C17.75 4.30964 18.3096 3.75 19 3.75V3V2.25C17.4812 2.25 16.25 3.48122 16.25 5H17ZM19 3V3.75C19.6904 3.75 20.25 4.30964 20.25 5H21H21.75C21.75 3.48122 20.5188 2.25 19 2.25V3ZM21 5H20.25C20.25 5.69036 19.6904 6.25 19 6.25V7V7.75C20.5188 7.75 21.75 6.51878 21.75 5H21ZM19 7V6.25H17V7V7.75H19V7ZM19 3V2.25H8V3V3.75H19V3ZM8 3V2.25C5.92893 2.25 4.25 3.92893 4.25 6H5H5.75C5.75 4.75736 6.75736 3.75 8 3.75V3ZM5 6H4.25V17H5H5.75V6H5Z" fill="#2F2B3D" fill-opacity="0.9"/>
<path d="M9 7H13" stroke="#2F2B3D" stroke-opacity="0.9" stroke-width="1.5" stroke-linecap="round" stroke-linejoin="round"/>
<path d="M9 11H13" stroke="#2F2B3D" stroke-opacity="0.9" stroke-width="1.5" stroke-linecap="round" stroke-linejoin="round"/>
</svg>
