<svg width="24" height="24" viewBox="0 0 24 24" fill="none" xmlns="http://www.w3.org/2000/svg">
<path d="M10 14C10.6583 14.6719 11.5594 15.0505 12.5 15.0505C13.4406 15.0505 14.3417 14.6719 15 14L19 10C20.3807 8.6193 20.3807 6.38072 19 5.00001C17.6193 3.6193 15.3807 3.6193 14 5.00001L13.5 5.50001" stroke="#2F2B3D" stroke-opacity="0.9" stroke-width="1.5" stroke-linecap="round" stroke-linejoin="round"/>
<path d="M13.9999 9.99997C13.3416 9.32809 12.4405 8.94946 11.4999 8.94946C10.5592 8.94946 9.6582 9.32809 8.99989 9.99997L4.99989 14C3.61918 15.3807 3.61918 17.6193 4.99989 19C6.3806 20.3807 8.61918 20.3807 9.99989 19L10.4999 18.5" stroke="#2F2B3D" stroke-opacity="0.9" stroke-width="1.5" stroke-linecap="round" stroke-linejoin="round"/>
</svg>
