<svg width="24" height="24" viewBox="0 0 24 24" fill="none" xmlns="http://www.w3.org/2000/svg">
<path d="M3 3L21 21" stroke="#2F2B3D" stroke-opacity="0.9" stroke-width="1.5" stroke-linecap="round" stroke-linejoin="round"/>
<path d="M19.75 19C19.75 18.5858 19.4142 18.25 19 18.25C18.5858 18.25 18.25 18.5858 18.25 19H19H19.75ZM11 11.75C11.4142 11.75 11.75 11.4142 11.75 11C11.75 10.5858 11.4142 10.25 11 10.25V11V11.75ZM15 10.25C14.5858 10.25 14.25 10.5858 14.25 11C14.25 11.4142 14.5858 11.75 15 11.75V11V10.25ZM18.25 15C18.25 15.4142 18.5858 15.75 19 15.75C19.4142 15.75 19.75 15.4142 19.75 15H19H18.25ZM19 19H18.25C18.25 19.6904 17.6904 20.25 17 20.25V21V21.75C18.5188 21.75 19.75 20.5188 19.75 19H19ZM17 21V20.25H7V21V21.75H17V21ZM7 21V20.25C6.30964 20.25 5.75 19.6904 5.75 19H5H4.25C4.25 20.5188 5.48122 21.75 7 21.75V21ZM5 19H5.75V13H5H4.25V19H5ZM5 13H5.75C5.75 12.3096 6.30964 11.75 7 11.75V11V10.25C5.48122 10.25 4.25 11.4812 4.25 13H5ZM7 11V11.75H11V11V10.25H7V11ZM15 11V11.75H17V11V10.25H15V11ZM17 11V11.75C17.6904 11.75 18.25 12.3096 18.25 13H19H19.75C19.75 11.4812 18.5188 10.25 17 10.25V11ZM19 13H18.25V15H19H19.75V13H19Z" fill="#2F2B3D" fill-opacity="0.9"/>
<circle cx="12" cy="16" r="1" stroke="#2F2B3D" stroke-opacity="0.9" stroke-width="1.5" stroke-linecap="round" stroke-linejoin="round"/>
<path d="M7.25 11C7.25 11.4142 7.58579 11.75 8 11.75C8.41421 11.75 8.75 11.4142 8.75 11H8H7.25ZM8.75 8C8.75 7.58579 8.41421 7.25 8 7.25C7.58579 7.25 7.25 7.58579 7.25 8H8H8.75ZM8.09554 4.29486C7.85965 4.63535 7.94444 5.10259 8.28492 5.33848C8.6254 5.57437 9.09265 5.48958 9.32854 5.14909L8.71204 4.72198L8.09554 4.29486ZM16 6.99998L15.25 6.99997V6.99998H16ZM15.25 11C15.25 11.4142 15.5858 11.75 16 11.75C16.4142 11.75 16.75 11.4142 16.75 11H16H15.25ZM8 11H8.75V8H8H7.25V11H8ZM8.71204 4.72198L9.32854 5.14909C10.138 3.98067 11.6129 3.47386 12.9696 3.89793L13.1934 3.18208L13.4171 2.46624C11.4342 1.84645 9.27864 2.58717 8.09554 4.29486L8.71204 4.72198ZM13.1934 3.18208L12.9696 3.89793C14.3263 4.32199 15.2501 5.57853 15.25 6.99997L16 6.99998L16.75 6.99999C16.7501 4.9225 15.4 3.08602 13.4171 2.46624L13.1934 3.18208ZM16 6.99998H15.25V11H16H16.75V6.99998H16Z" fill="#2F2B3D" fill-opacity="0.9"/>
</svg>
