<svg width="24" height="24" viewBox="0 0 24 24" fill="none" xmlns="http://www.w3.org/2000/svg">
<path d="M14 8V6C14 4.89543 13.1046 4 12 4H5C3.89543 4 3 4.89543 3 6V18C3 19.1046 3.89543 20 5 20H12C13.1046 20 14 19.1046 14 18V16" stroke="#2F2B3D" stroke-opacity="0.9" stroke-width="1.5" stroke-linecap="round" stroke-linejoin="round"/>
<path d="M20 12.75C20.4142 12.75 20.75 12.4142 20.75 12C20.75 11.5858 20.4142 11.25 20 11.25V12V12.75ZM7 12L6.46967 11.4697C6.25517 11.6842 6.191 12.0068 6.30709 12.287C6.42318 12.5673 6.69665 12.75 7 12.75V12ZM10.5303 9.53033C10.8232 9.23744 10.8232 8.76256 10.5303 8.46967C10.2374 8.17678 9.76256 8.17678 9.46967 8.46967L10 9L10.5303 9.53033ZM9.46967 15.5303C9.76256 15.8232 10.2374 15.8232 10.5303 15.5303C10.8232 15.2374 10.8232 14.7626 10.5303 14.4697L10 15L9.46967 15.5303ZM7.53033 11.4697C7.23744 11.1768 6.76256 11.1768 6.46967 11.4697C6.17678 11.7626 6.17678 12.2374 6.46967 12.5303L7 12L7.53033 11.4697ZM20 12V11.25H7V12V12.75H20V12ZM7 12L7.53033 12.5303L10.5303 9.53033L10 9L9.46967 8.46967L6.46967 11.4697L7 12ZM10 15L10.5303 14.4697L7.53033 11.4697L7 12L6.46967 12.5303L9.46967 15.5303L10 15Z" fill="#2F2B3D" fill-opacity="0.9"/>
</svg>
