<svg width="14" height="14" viewBox="0 0 14 14" fill="none" xmlns="http://www.w3.org/2000/svg">
<path d="M2.91671 12.8334C2.762 12.8334 2.61362 12.7719 2.50423 12.6625C2.39483 12.5531 2.33337 12.4047 2.33337 12.25V1.75002C2.33337 1.59531 2.39483 1.44694 2.50423 1.33754C2.61362 1.22815 2.762 1.16669 2.91671 1.16669H11.0834C11.2381 1.16669 11.3865 1.22815 11.4959 1.33754C11.6052 1.44694 11.6667 1.59531 11.6667 1.75002V3.50002H10.5V2.33335H3.50004V11.6667H10.5V10.5H11.6667V12.25C11.6667 12.4047 11.6052 12.5531 11.4959 12.6625C11.3865 12.7719 11.2381 12.8334 11.0834 12.8334H2.91671ZM10.5 9.33335V7.58335H6.41671V6.41669H10.5V4.66669L13.4167 7.00002L10.5 9.33335Z" fill="white"/>
</svg>
