<svg width="24" height="24" viewBox="0 0 24 24" fill="none" xmlns="http://www.w3.org/2000/svg">
<circle cx="14" cy="10" r="7" stroke="#2F2B3D" stroke-opacity="0.9" stroke-width="1.5" stroke-linecap="round" stroke-linejoin="round"/>
<path d="M21 10C21 8.067 19.433 6.5 17.5 6.5C15.567 6.5 14 8.067 14 10" stroke="#2F2B3D" stroke-opacity="0.9" stroke-width="1.5" stroke-linecap="round" stroke-linejoin="round"/>
<path d="M14 10C14 11.933 12.433 13.5 10.5 13.5C8.567 13.5 7 11.933 7 10" stroke="#2F2B3D" stroke-opacity="0.9" stroke-width="1.5" stroke-linecap="round" stroke-linejoin="round"/>
<path d="M14 17C15.933 17 17.5 15.433 17.5 13.5C17.5 11.567 15.933 10 14 10" stroke="#2F2B3D" stroke-opacity="0.9" stroke-width="1.5" stroke-linecap="round" stroke-linejoin="round"/>
<path d="M14 3C12.067 3 10.5 4.567 10.5 6.5C10.5 8.433 12.067 10 14 10" stroke="#2F2B3D" stroke-opacity="0.9" stroke-width="1.5" stroke-linecap="round" stroke-linejoin="round"/>
<path d="M3 21L9 15" stroke="#2F2B3D" stroke-opacity="0.9" stroke-width="1.5" stroke-linecap="round" stroke-linejoin="round"/>
</svg>
