<svg width="24" height="24" viewBox="0 0 24 24" fill="none" xmlns="http://www.w3.org/2000/svg">
<path d="M4 13V5C4 3.89543 4.89543 3 6 3H7C8.10457 3 9 3.89543 9 5V13C9 14.6569 10.3431 16 12 16C13.6569 16 15 14.6569 15 13V5C15 3.89543 15.8954 3 17 3H18C19.1046 3 20 3.89543 20 5V13C20 17.4183 16.4183 21 12 21C7.58172 21 4 17.4183 4 13" stroke="#2F2B3D" stroke-opacity="0.9" stroke-width="1.5" stroke-linecap="round" stroke-linejoin="round"/>
<path d="M4 8H9" stroke="#2F2B3D" stroke-opacity="0.9" stroke-width="1.5" stroke-linecap="round" stroke-linejoin="round"/>
<path d="M15 8H19" stroke="#2F2B3D" stroke-opacity="0.9" stroke-width="1.5" stroke-linecap="round" stroke-linejoin="round"/>
</svg>
