<svg width="24" height="24" viewBox="0 0 24 24" fill="none" xmlns="http://www.w3.org/2000/svg">
<path fill-rule="evenodd" clip-rule="evenodd" d="M10.828 9.828C11.9722 8.6841 12.3147 6.96354 11.6956 5.46869C11.0766 3.97385 9.61795 2.99915 8 2.99915C6.38204 2.99915 4.92341 3.97385 4.30436 5.46869C3.68531 6.96354 4.02775 8.6841 5.172 9.828L8 12.657L10.828 9.828V9.828Z" stroke="#2F2B3D" stroke-opacity="0.9" stroke-width="1.5" stroke-linecap="round" stroke-linejoin="round"/>
<path d="M8 6.99988V7.00988" stroke="#2F2B3D" stroke-opacity="0.9" stroke-width="1.5" stroke-linecap="round" stroke-linejoin="round"/>
<path fill-rule="evenodd" clip-rule="evenodd" d="M18.828 17.8279C19.9722 16.684 20.3147 14.9634 19.6956 13.4686C19.0766 11.9737 17.618 10.999 16 10.999C14.382 10.999 12.9234 11.9737 12.3044 13.4686C11.6853 14.9634 12.0278 16.684 13.172 17.8279L16 20.6569L18.828 17.8279Z" stroke="#2F2B3D" stroke-opacity="0.9" stroke-width="1.5" stroke-linecap="round" stroke-linejoin="round"/>
<path d="M16 14.9999V15.0099" stroke="#2F2B3D" stroke-opacity="0.9" stroke-width="1.5" stroke-linecap="round" stroke-linejoin="round"/>
</svg>
