<svg width="24" height="24" viewBox="0 0 24 24" fill="none" xmlns="http://www.w3.org/2000/svg">
<path d="M3 3L21 21" stroke="#2F2B3D" stroke-opacity="0.9" stroke-width="1.5" stroke-linecap="round" stroke-linejoin="round"/>
<path d="M10.0797 9.82651C10.2959 9.47319 10.1848 9.01151 9.83146 8.79532C9.47814 8.57913 9.01646 8.69029 8.80027 9.04361L9.44001 9.43506L10.0797 9.82651ZM13.9578 14.1986C14.311 13.9822 14.4219 13.5205 14.2056 13.1673C13.9892 12.8141 13.5275 12.7031 13.1742 12.9195L13.566 13.5591L13.9578 14.1986ZM14.25 11C14.25 11.4142 14.5858 11.75 15 11.75C15.4142 11.75 15.75 11.4142 15.75 11H15H14.25ZM12 7.25C11.5858 7.25 11.25 7.58579 11.25 8C11.25 8.41421 11.5858 8.75 12 8.75V8V7.25ZM9.44001 9.43506L8.80027 9.04361C7.89562 10.5221 8.12206 12.4278 9.34796 13.6532L9.87816 13.1227L10.4084 12.5922C9.67282 11.8571 9.53696 10.7136 10.0797 9.82651L9.44001 9.43506ZM9.87816 13.1227L9.34796 13.6532C10.5739 14.8785 12.4798 15.104 13.9578 14.1986L13.566 13.5591L13.1742 12.9195C12.2874 13.4627 11.1439 13.3274 10.4084 12.5922L9.87816 13.1227ZM15 11H15.75C15.75 8.92893 14.0711 7.25 12 7.25V8V8.75C13.2426 8.75 14.25 9.75736 14.25 11H15Z" fill="#2F2B3D" fill-opacity="0.9"/>
<path d="M7.67685 3.39029C7.31691 3.59526 7.19127 4.05321 7.39623 4.41316C7.60119 4.7731 8.05915 4.89874 8.41909 4.69378L8.04797 4.04203L7.67685 3.39029ZM18.3081 14.5792C18.1033 14.9392 18.2291 15.3971 18.5891 15.6019C18.9491 15.8067 19.407 15.6809 19.6119 15.3209L18.96 14.95L18.3081 14.5792ZM17.6903 17.6865C17.9832 17.3936 17.9833 16.9187 17.6904 16.6258C17.3975 16.3329 16.9227 16.3328 16.6297 16.6257L17.16 17.1561L17.6903 17.6865ZM13.415 20.9001L13.9451 21.4307L13.9453 21.4305L13.415 20.9001ZM10.588 20.9001L10.0577 21.4305L10.0579 21.4307L10.588 20.9001ZM6.344 16.6571L5.81371 17.1874L5.81373 17.1875L6.344 16.6571ZM6.43929 6.34826C6.70504 6.03053 6.66291 5.55753 6.34519 5.29178C6.02747 5.02602 5.55447 5.06815 5.28871 5.38588L5.864 5.86707L6.43929 6.34826ZM8.04797 4.04203L8.41909 4.69378C11.2562 3.07825 14.8232 3.55834 17.1322 5.8665L17.6624 5.33607L18.1926 4.80565C15.4059 2.01993 11.101 1.44051 7.67685 3.39029L8.04797 4.04203ZM17.6624 5.33607L17.1322 5.8665C19.4412 8.17467 19.9226 11.7414 18.3081 14.5792L18.96 14.95L19.6119 15.3209C21.5604 11.8961 20.9794 7.59136 18.1926 4.80565L17.6624 5.33607ZM17.16 17.1561L16.6297 16.6257L12.8847 20.3697L13.415 20.9001L13.9453 21.4305L17.6903 17.6865L17.16 17.1561ZM13.415 20.9001L12.8849 20.3695C12.3969 20.857 11.6061 20.857 11.1181 20.3695L10.588 20.9001L10.0579 21.4307C11.1317 22.5033 12.8713 22.5033 13.9451 21.4307L13.415 20.9001ZM10.588 20.9001L11.1183 20.3697L6.87427 16.1267L6.344 16.6571L5.81373 17.1875L10.0577 21.4305L10.588 20.9001ZM6.344 16.6571L6.87429 16.1267C4.21887 13.4717 4.03011 9.22855 6.43929 6.34826L5.864 5.86707L5.28871 5.38588C2.38109 8.86209 2.6089 13.9831 5.81371 17.1874L6.344 16.6571Z" fill="#2F2B3D" fill-opacity="0.9"/>
</svg>
