<svg width="24" height="24" viewBox="0 0 24 24" fill="none" xmlns="http://www.w3.org/2000/svg">
<rect x="3" y="5" width="18" height="14" rx="2" stroke="#2F2B3D" stroke-opacity="0.9" stroke-width="1.5" stroke-linecap="round" stroke-linejoin="round"/>
<path d="M7 15V9L9 11L11 9V15" stroke="#2F2B3D" stroke-opacity="0.9" stroke-width="1.5" stroke-linecap="round" stroke-linejoin="round"/>
<path d="M14.5303 12.4697C14.2374 12.1768 13.7626 12.1768 13.4697 12.4697C13.1768 12.7626 13.1768 13.2374 13.4697 13.5303L14 13L14.5303 12.4697ZM16 15L15.4697 15.5303C15.7626 15.8232 16.2374 15.8232 16.5303 15.5303L16 15ZM18.5303 13.5303C18.8232 13.2374 18.8232 12.7626 18.5303 12.4697C18.2374 12.1768 17.7626 12.1768 17.4697 12.4697L18 13L18.5303 13.5303ZM15.25 15C15.25 15.4142 15.5858 15.75 16 15.75C16.4142 15.75 16.75 15.4142 16.75 15H16H15.25ZM16.75 9C16.75 8.58579 16.4142 8.25 16 8.25C15.5858 8.25 15.25 8.58579 15.25 9H16H16.75ZM14 13L13.4697 13.5303L15.4697 15.5303L16 15L16.5303 14.4697L14.5303 12.4697L14 13ZM16 15L16.5303 15.5303L18.5303 13.5303L18 13L17.4697 12.4697L15.4697 14.4697L16 15ZM16 15H16.75V9H16H15.25V15H16Z" fill="#2F2B3D" fill-opacity="0.9"/>
</svg>
