<svg width="24" height="24" viewBox="0 0 24 24" fill="none" xmlns="http://www.w3.org/2000/svg">
<path d="M3.25 6C3.25 6.41421 3.58579 6.75 4 6.75C4.41421 6.75 4.75 6.41421 4.75 6H4H3.25ZM6 4.75C6.41421 4.75 6.75 4.41421 6.75 4C6.75 3.58579 6.41421 3.25 6 3.25V4V4.75ZM11 3.25C10.5858 3.25 10.25 3.58579 10.25 4C10.25 4.41421 10.5858 4.75 11 4.75V4V3.25ZM13 4.75C13.4142 4.75 13.75 4.41421 13.75 4C13.75 3.58579 13.4142 3.25 13 3.25V4V4.75ZM18 3.25C17.5858 3.25 17.25 3.58579 17.25 4C17.25 4.41421 17.5858 4.75 18 4.75V4V3.25ZM19.25 6C19.25 6.41421 19.5858 6.75 20 6.75C20.4142 6.75 20.75 6.41421 20.75 6H20H19.25ZM20.75 11C20.75 10.5858 20.4142 10.25 20 10.25C19.5858 10.25 19.25 10.5858 19.25 11H20H20.75ZM19.25 13C19.25 13.4142 19.5858 13.75 20 13.75C20.4142 13.75 20.75 13.4142 20.75 13H20H19.25ZM20.75 18C20.75 17.5858 20.4142 17.25 20 17.25C19.5858 17.25 19.25 17.5858 19.25 18H20H20.75ZM18 19.25C17.5858 19.25 17.25 19.5858 17.25 20C17.25 20.4142 17.5858 20.75 18 20.75V20V19.25ZM13 20.75C13.4142 20.75 13.75 20.4142 13.75 20C13.75 19.5858 13.4142 19.25 13 19.25V20V20.75ZM11 19.25C10.5858 19.25 10.25 19.5858 10.25 20C10.25 20.4142 10.5858 20.75 11 20.75V20V19.25ZM6 20.75C6.41421 20.75 6.75 20.4142 6.75 20C6.75 19.5858 6.41421 19.25 6 19.25V20V20.75ZM4.75 18C4.75 17.5858 4.41421 17.25 4 17.25C3.58579 17.25 3.25 17.5858 3.25 18H4H4.75ZM3.25 13C3.25 13.4142 3.58579 13.75 4 13.75C4.41421 13.75 4.75 13.4142 4.75 13H4H3.25ZM4.75 11C4.75 10.5858 4.41421 10.25 4 10.25C3.58579 10.25 3.25 10.5858 3.25 11H4H4.75ZM4 6H4.75V5H4H3.25V6H4ZM4 5H4.75C4.75 4.86193 4.86193 4.75 5 4.75V4V3.25C4.0335 3.25 3.25 4.0335 3.25 5H4ZM5 4V4.75H6V4V3.25H5V4ZM11 4V4.75H13V4V3.25H11V4ZM18 4V4.75H19V4V3.25H18V4ZM19 4V4.75C19.1381 4.75 19.25 4.86193 19.25 5H20H20.75C20.75 4.0335 19.9665 3.25 19 3.25V4ZM20 5H19.25V6H20H20.75V5H20ZM20 11H19.25V13H20H20.75V11H20ZM20 18H19.25V19H20H20.75V18H20ZM20 19H19.25C19.25 19.1381 19.1381 19.25 19 19.25V20V20.75C19.9665 20.75 20.75 19.9665 20.75 19H20ZM19 20V19.25H18V20V20.75H19V20ZM13 20V19.25H11V20V20.75H13V20ZM6 20V19.25H5V20V20.75H6V20ZM5 20V19.25C4.86193 19.25 4.75 19.1381 4.75 19H4H3.25C3.25 19.9665 4.0335 20.75 5 20.75V20ZM4 19H4.75V18H4H3.25V19H4ZM4 13H4.75V11H4H3.25V13H4Z" fill="#2F2B3D" fill-opacity="0.9"/>
</svg>
