<svg width="24" height="24" viewBox="0 0 24 24" fill="none" xmlns="http://www.w3.org/2000/svg">
<path d="M3.25 6C3.25 6.41421 3.58579 6.75 4 6.75C4.41421 6.75 4.75 6.41421 4.75 6H4H3.25ZM6 4.75C6.41421 4.75 6.75 4.41421 6.75 4C6.75 3.58579 6.41421 3.25 6 3.25V4V4.75ZM9 3.25C8.58579 3.25 8.25 3.58579 8.25 4C8.25 4.41421 8.58579 4.75 9 4.75V4V3.25ZM10.5 4.75C10.9142 4.75 11.25 4.41421 11.25 4C11.25 3.58579 10.9142 3.25 10.5 3.25V4V4.75ZM13.5 3.25C13.0858 3.25 12.75 3.58579 12.75 4C12.75 4.41421 13.0858 4.75 13.5 4.75V4V3.25ZM15 4.75C15.4142 4.75 15.75 4.41421 15.75 4C15.75 3.58579 15.4142 3.25 15 3.25V4V4.75ZM18 3.25C17.5858 3.25 17.25 3.58579 17.25 4C17.25 4.41421 17.5858 4.75 18 4.75V4V3.25ZM19.25 6C19.25 6.41421 19.5858 6.75 20 6.75C20.4142 6.75 20.75 6.41421 20.75 6H20H19.25ZM20.75 9C20.75 8.58579 20.4142 8.25 20 8.25C19.5858 8.25 19.25 8.58579 19.25 9H20H20.75ZM19.25 10.5C19.25 10.9142 19.5858 11.25 20 11.25C20.4142 11.25 20.75 10.9142 20.75 10.5H20H19.25ZM20.75 13.5C20.75 13.0858 20.4142 12.75 20 12.75C19.5858 12.75 19.25 13.0858 19.25 13.5H20H20.75ZM19.25 15C19.25 15.4142 19.5858 15.75 20 15.75C20.4142 15.75 20.75 15.4142 20.75 15H20H19.25ZM20.75 18C20.75 17.5858 20.4142 17.25 20 17.25C19.5858 17.25 19.25 17.5858 19.25 18H20H20.75ZM18 19.25C17.5858 19.25 17.25 19.5858 17.25 20C17.25 20.4142 17.5858 20.75 18 20.75V20V19.25ZM15 20.75C15.4142 20.75 15.75 20.4142 15.75 20C15.75 19.5858 15.4142 19.25 15 19.25V20V20.75ZM13.5 19.25C13.0858 19.25 12.75 19.5858 12.75 20C12.75 20.4142 13.0858 20.75 13.5 20.75V20V19.25ZM10.5 20.75C10.9142 20.75 11.25 20.4142 11.25 20C11.25 19.5858 10.9142 19.25 10.5 19.25V20V20.75ZM9 19.25C8.58579 19.25 8.25 19.5858 8.25 20C8.25 20.4142 8.58579 20.75 9 20.75V20V19.25ZM6 20.75C6.41421 20.75 6.75 20.4142 6.75 20C6.75 19.5858 6.41421 19.25 6 19.25V20V20.75ZM4.75 18C4.75 17.5858 4.41421 17.25 4 17.25C3.58579 17.25 3.25 17.5858 3.25 18H4H4.75ZM3.25 15C3.25 15.4142 3.58579 15.75 4 15.75C4.41421 15.75 4.75 15.4142 4.75 15H4H3.25ZM4.75 13.5C4.75 13.0858 4.41421 12.75 4 12.75C3.58579 12.75 3.25 13.0858 3.25 13.5H4H4.75ZM3.25 10.5C3.25 10.9142 3.58579 11.25 4 11.25C4.41421 11.25 4.75 10.9142 4.75 10.5H4H3.25ZM4.75 9C4.75 8.58579 4.41421 8.25 4 8.25C3.58579 8.25 3.25 8.58579 3.25 9H4H4.75ZM4 6H4.75C4.75 5.30964 5.30964 4.75 6 4.75V4V3.25C4.48122 3.25 3.25 4.48122 3.25 6H4ZM9 4V4.75H10.5V4V3.25H9V4ZM13.5 4V4.75H15V4V3.25H13.5V4ZM18 4V4.75C18.6904 4.75 19.25 5.30964 19.25 6H20H20.75C20.75 4.48122 19.5188 3.25 18 3.25V4ZM20 9H19.25V10.5H20H20.75V9H20ZM20 13.5H19.25V15H20H20.75V13.5H20ZM20 18H19.25C19.25 18.6904 18.6904 19.25 18 19.25V20V20.75C19.5188 20.75 20.75 19.5188 20.75 18H20ZM15 20V19.25H13.5V20V20.75H15V20ZM10.5 20V19.25H9V20V20.75H10.5V20ZM6 20V19.25C5.30964 19.25 4.75 18.6904 4.75 18H4H3.25C3.25 19.5188 4.48122 20.75 6 20.75V20ZM4 15H4.75V13.5H4H3.25V15H4ZM4 10.5H4.75V9H4H3.25V10.5H4Z" fill="#2F2B3D" fill-opacity="0.9"/>
</svg>
