<svg width="24" height="24" viewBox="0 0 24 24" fill="none" xmlns="http://www.w3.org/2000/svg">
<path d="M19.9519 19.9388C20.2439 19.645 20.2425 19.1701 19.9487 18.8781C19.655 18.5861 19.1801 18.5875 18.8881 18.8813L19.42 19.41L19.9519 19.9388ZM18 20L18.0006 19.25H18V20ZM5.1176 5.11407C5.41089 4.82158 5.41155 4.34671 5.11906 4.05341C4.82657 3.76011 4.3517 3.75946 4.0584 4.05195L4.588 4.58301L5.1176 5.11407ZM8 3.25C7.58579 3.25 7.25 3.58579 7.25 4C7.25 4.41421 7.58579 4.75 8 4.75V4V3.25ZM19.25 16C19.25 16.4142 19.5858 16.75 20 16.75C20.4142 16.75 20.75 16.4142 20.75 16H20H19.25ZM19.42 19.41L18.8881 18.8813C18.6532 19.1175 18.3337 19.2503 18.0006 19.25L18 20L17.9994 20.75C18.7323 20.7506 19.4352 20.4586 19.9519 19.9388L19.42 19.41ZM18 20V19.25H6V20V20.75H18V20ZM6 20V19.25C5.30964 19.25 4.75 18.6904 4.75 18H4H3.25C3.25 19.5188 4.48122 20.75 6 20.75V20ZM4 18H4.75V6.00001H4H3.25V18H4ZM4 6.00001H4.75C4.75 5.65336 4.88987 5.34117 5.1176 5.11407L4.588 4.58301L4.0584 4.05195C3.56013 4.54885 3.25 5.23866 3.25 6.00001H4ZM8 4V4.75H18V4V3.25H8V4ZM18 4V4.75C18.6904 4.75 19.25 5.30964 19.25 6H20H20.75C20.75 4.48122 19.5188 3.25 18 3.25V4ZM20 6H19.25V16H20H20.75V6H20Z" fill="#2F2B3D" fill-opacity="0.9"/>
<path d="M10.4113 10.4063C10.7064 10.1156 10.71 9.64072 10.4193 9.34563C10.1287 9.05054 9.6538 9.04696 9.35871 9.33764L9.88503 9.87195L10.4113 10.4063ZM14.665 14.6376C14.9553 14.3422 14.9511 13.8673 14.6557 13.577C14.3603 13.2867 13.8854 13.2908 13.5951 13.5863L14.13 14.1119L14.665 14.6376ZM14.0346 11.0377C14.2123 11.4119 14.6597 11.5711 15.0338 11.3934C15.408 11.2157 15.5672 10.7684 15.3895 10.3942L14.712 10.716L14.0346 11.0377ZM13.5935 8.60437C13.2187 8.42797 12.7719 8.58878 12.5955 8.96356C12.4191 9.33833 12.5799 9.78515 12.9546 9.96155L13.274 9.28296L13.5935 8.60437ZM9.88503 9.87195L9.35871 9.33764C8.39908 10.2829 8.02016 11.6702 8.36604 12.9721L9.09089 12.7795L9.81574 12.5869C9.60822 11.8058 9.83557 10.9734 10.4113 10.4063L9.88503 9.87195ZM9.09089 12.7795L8.36604 12.9721C8.71191 14.2739 9.72943 15.2903 11.0317 15.6346L11.2234 14.9095L11.4151 14.1844C10.6338 13.9778 10.0233 13.368 9.81574 12.5869L9.09089 12.7795ZM11.2234 14.9095L11.0317 15.6346C12.3339 15.9789 13.7208 15.5984 14.665 14.6376L14.13 14.1119L13.5951 13.5863C13.0286 14.1627 12.1965 14.391 11.4151 14.1844L11.2234 14.9095ZM14.712 10.716L15.3895 10.3942C15.016 9.60772 14.3812 8.97516 13.5935 8.60437L13.274 9.28296L12.9546 9.96155C13.4283 10.1845 13.81 10.5648 14.0346 11.0377L14.712 10.716Z" fill="#2F2B3D" fill-opacity="0.9"/>
<path d="M3 3L21 21" stroke="#2F2B3D" stroke-opacity="0.9" stroke-width="1.5" stroke-linecap="round" stroke-linejoin="round"/>
</svg>
