<svg width="24" height="24" viewBox="0 0 24 24" fill="none" xmlns="http://www.w3.org/2000/svg">
<path d="M16.5303 12.4697C16.2374 12.1768 15.7626 12.1768 15.4697 12.4697C15.1768 12.7626 15.1768 13.2374 15.4697 13.5303L16 13L16.5303 12.4697ZM19.4697 17.5303C19.7626 17.8232 20.2374 17.8232 20.5303 17.5303C20.8232 17.2374 20.8232 16.7626 20.5303 16.4697L20 17L19.4697 17.5303ZM20.5303 13.5303C20.8232 13.2374 20.8232 12.7626 20.5303 12.4697C20.2374 12.1768 19.7626 12.1768 19.4697 12.4697L20 13L20.5303 13.5303ZM15.4697 16.4697C15.1768 16.7626 15.1768 17.2374 15.4697 17.5303C15.7626 17.8232 16.2374 17.8232 16.5303 17.5303L16 17L15.4697 16.4697ZM16 13L15.4697 13.5303L19.4697 17.5303L20 17L20.5303 16.4697L16.5303 12.4697L16 13ZM20 13L19.4697 12.4697L15.4697 16.4697L16 17L16.5303 17.5303L20.5303 13.5303L20 13Z" fill="#2F2B3D" fill-opacity="0.9"/>
<path d="M20 5H13L9 19L6 13H4" stroke="#2F2B3D" stroke-opacity="0.9" stroke-width="1.5" stroke-linecap="round" stroke-linejoin="round"/>
</svg>
