<svg width="24" height="24" viewBox="0 0 24 24" fill="none" xmlns="http://www.w3.org/2000/svg">
<path d="M13.6201 8.38197L15.5861 6.41497C14.946 5.77501 14.8154 4.78488 15.2679 4.00089C15.7203 3.21689 16.6429 2.8345 17.5173 3.06857C18.3917 3.30264 18.9999 4.0948 19.0001 4.99997C19.9055 4.99933 20.6985 5.60704 20.9332 6.48151C21.1679 7.35599 20.7858 8.27907 20.0018 8.73189C19.2177 9.18471 18.2273 9.0543 17.5871 8.41397L15.7671 10.235" stroke="#2F2B3D" stroke-opacity="0.9" stroke-width="1.5" stroke-linecap="round" stroke-linejoin="round"/>
<ellipse cx="8.02496" cy="16.4749" rx="7" ry="3" transform="rotate(45 8.02496 16.4749)" stroke="#2F2B3D" stroke-opacity="0.9" stroke-width="1.5" stroke-linecap="round" stroke-linejoin="round"/>
<path d="M7.5 16L8.5 17" stroke="#2F2B3D" stroke-opacity="0.9" stroke-width="1.5" stroke-linecap="round" stroke-linejoin="round"/>
<path d="M12.9749 21.425C16.8799 17.519 17.8299 12.137 15.0959 9.40397C12.3629 6.66997 6.98093 7.61997 3.07593 11.525" stroke="#2F2B3D" stroke-opacity="0.9" stroke-width="1.5" stroke-linecap="round" stroke-linejoin="round"/>
</svg>
