<svg width="24" height="24" viewBox="0 0 24 24" fill="none" xmlns="http://www.w3.org/2000/svg">
<path fill-rule="evenodd" clip-rule="evenodd" d="M12.9999 3C13.5522 3 13.9999 3.44772 13.9999 4V8.535L17.9279 6.268C18.4062 5.99187 19.0178 6.15573 19.2939 6.634L20.2939 8.366C20.57 8.84428 20.4062 9.45585 19.9279 9.732L16.0009 12L19.9279 14.269C20.4062 14.5452 20.57 15.1567 20.2939 15.635L19.2939 17.367C19.0178 17.8453 18.4062 18.0091 17.9279 17.733L13.9999 15.464V20C13.9999 20.5523 13.5522 21 12.9999 21H10.9999C10.4476 21 9.99991 20.5523 9.99991 20V15.464L6.07191 17.732C5.59363 18.0081 4.98206 17.8443 4.70591 17.366L3.70591 15.634C3.42978 15.1557 3.59365 14.5442 4.07191 14.268L7.99891 12L4.07191 9.732C3.59365 9.45585 3.42978 8.84428 3.70591 8.366L4.70591 6.634C4.98206 6.15573 5.59363 5.99187 6.07191 6.268L9.99991 8.535V4C9.99991 3.44772 10.4476 3 10.9999 3H12.9999Z" stroke="#2F2B3D" stroke-opacity="0.9" stroke-width="1.5" stroke-linecap="round" stroke-linejoin="round"/>
</svg>
