<svg width="24" height="24" viewBox="0 0 24 24" fill="none" xmlns="http://www.w3.org/2000/svg">
<path d="M3 3L21 21" stroke="#2F2B3D" stroke-opacity="0.9" stroke-width="1.5" stroke-linecap="round" stroke-linejoin="round"/>
<path d="M8.32706 3.87656C7.93811 4.019 7.73826 4.44977 7.8807 4.83873C8.02313 5.22768 8.45391 5.42752 8.84286 5.28509L8.58496 4.58082L8.32706 3.87656ZM18.245 6.20682L17.7582 6.7774L17.7584 6.77757L18.245 6.20682ZM19.2436 15.4703C19.0235 15.8211 19.1295 16.284 19.4804 16.5042C19.8313 16.7243 20.2942 16.6183 20.5143 16.2674L19.879 15.8688L19.2436 15.4703ZM18.4345 18.5665C18.7601 18.3105 18.8166 17.839 18.5606 17.5134C18.3047 17.1877 17.8331 17.1313 17.5075 17.3872L17.971 17.9769L18.4345 18.5665ZM7.7 18.9999L8.02765 18.3252C7.87746 18.2523 7.70723 18.2315 7.54392 18.2663L7.7 18.9999ZM3 19.9999L2.28849 19.7627C2.20342 20.0179 2.26154 20.2991 2.44079 20.4997C2.62004 20.7002 2.89298 20.7894 3.15608 20.7334L3 19.9999ZM4.3 16.0999L5.01151 16.337C5.08525 16.1158 5.0519 15.8729 4.92128 15.6797L4.3 16.0999ZM6.48046 6.60316C6.80481 6.34554 6.85891 5.87376 6.60129 5.54941C6.34367 5.22505 5.87189 5.17096 5.54754 5.42858L6.014 6.01587L6.48046 6.60316ZM8.58496 4.58082L8.84286 5.28509C11.8317 4.19056 15.3503 4.72319 17.7582 6.7774L18.245 6.20682L18.7317 5.63625C15.8836 3.20646 11.7882 2.60909 8.32706 3.87656L8.58496 4.58082ZM18.245 6.20682L17.7584 6.77757C20.4697 9.08894 21.0059 12.6612 19.2436 15.4703L19.879 15.8688L20.5143 16.2674C22.688 12.8025 21.9862 8.41071 18.7315 5.63607L18.245 6.20682ZM17.971 17.9769L17.5075 17.3872C14.9502 19.3975 11.1538 19.8435 8.02765 18.3252L7.7 18.9999L7.37235 19.6745C11.0082 21.4403 15.4198 20.9363 18.4345 18.5665L17.971 17.9769ZM7.7 18.9999L7.54392 18.2663L2.84392 19.2663L3 19.9999L3.15608 20.7334L7.85608 19.7334L7.7 18.9999ZM3 19.9999L3.71151 20.237L5.01151 16.337L4.3 16.0999L3.58849 15.8627L2.28849 19.7627L3 19.9999ZM4.3 16.0999L4.92128 15.6797C2.91732 12.7163 3.56517 8.91865 6.48046 6.60316L6.014 6.01587L5.54754 5.42858C2.05683 8.20109 1.20868 12.8674 3.67872 16.52L4.3 16.0999Z" fill="#2F2B3D" fill-opacity="0.9"/>
</svg>
