<svg width="24" height="24" viewBox="0 0 24 24" fill="none" xmlns="http://www.w3.org/2000/svg">
<path d="M3 3L21 21" stroke="#2F2B3D" stroke-opacity="0.9" stroke-width="1.5" stroke-linecap="round" stroke-linejoin="round"/>
<path d="M17 17.75C17.4142 17.75 17.75 17.4142 17.75 17C17.75 16.5858 17.4142 16.25 17 16.25V17V17.75ZM8 17V16.25C7.80109 16.25 7.61032 16.329 7.46967 16.4697L8 17ZM4 21H3.25C3.25 21.3034 3.43273 21.5768 3.71299 21.6929C3.99324 21.809 4.31583 21.7448 4.53033 21.5303L4 21ZM5.83088 6.0771C6.18439 5.86123 6.29597 5.39965 6.08009 5.04613C5.86421 4.69262 5.40263 4.58105 5.04912 4.79692L5.44 5.43701L5.83088 6.0771ZM9.00098 4.25C8.58676 4.25 8.25098 4.58579 8.25098 5C8.25098 5.41421 8.58676 5.75 9.00098 5.75V5V4.25ZM18.9198 15.1756C18.7031 15.5285 18.8135 15.9904 19.1665 16.2071C19.5195 16.4239 19.9814 16.3134 20.1981 15.9604L19.559 15.568L18.9198 15.1756ZM17 17V16.25H8V17V17.75H17V17ZM8 17L7.46967 16.4697L3.46967 20.4697L4 21L4.53033 21.5303L8.53033 17.5303L8 17ZM4 21H4.75V8.00001H4H3.25V21H4ZM4 8.00001H4.75C4.75 7.18664 5.18115 6.47386 5.83088 6.0771L5.44 5.43701L5.04912 4.79692C3.97285 5.45416 3.25 6.64139 3.25 8.00001H4ZM9.00098 5V5.75H17.001V5V4.25H9.00098V5ZM17.001 5V5.75C18.2436 5.75 19.251 6.75736 19.251 8H20.001H20.751C20.751 5.92893 19.072 4.25 17.001 4.25V5ZM20.001 8H19.251V14H20.001H20.751V8H20.001ZM20.001 14H19.251C19.251 14.4322 19.1296 14.834 18.9198 15.1756L19.559 15.568L20.1981 15.9604C20.5484 15.39 20.751 14.7178 20.751 14H20.001Z" fill="#2F2B3D" fill-opacity="0.9"/>
</svg>
