<svg width="24" height="24" viewBox="0 0 24 24" fill="none" xmlns="http://www.w3.org/2000/svg">
<path d="M3 3L21 21" stroke="#2F2B3D" stroke-opacity="0.9" stroke-width="1.5" stroke-linecap="round" stroke-linejoin="round"/>
<path d="M11 11.75C11.4142 11.75 11.75 11.4142 11.75 11C11.75 10.5858 11.4142 10.25 11 10.25V11V11.75ZM10.75 10C10.75 9.58579 10.4142 9.25 10 9.25C9.58579 9.25 9.25 9.58579 9.25 10H10H10.75ZM9.25 6.032C9.25 6.44621 9.58579 6.782 10 6.782C10.4142 6.782 10.75 6.44621 10.75 6.032H10H9.25ZM21 14L20.4697 14.5303C20.6842 14.7448 21.0068 14.809 21.287 14.6929C21.5673 14.5768 21.75 14.3033 21.75 14H21ZM18 11L18.5303 10.4697C18.3897 10.329 18.1989 10.25 18 10.25V11ZM15 10.25C14.5858 10.25 14.25 10.5858 14.25 11C14.25 11.4142 14.5858 11.75 15 11.75V11V10.25ZM11 11V10.25C10.8619 10.25 10.75 10.1381 10.75 10H10H9.25C9.25 10.9665 10.0335 11.75 11 11.75V11ZM10 6.032H10.75V4H10H9.25V6.032H10ZM10 4H10.75C10.75 3.86193 10.8619 3.75 11 3.75V3V2.25C10.0335 2.25 9.25 3.0335 9.25 4H10ZM11 3V3.75H20V3V2.25H11V3ZM20 3V3.75C20.1381 3.75 20.25 3.86193 20.25 4H21H21.75C21.75 3.0335 20.9665 2.25 20 2.25V3ZM21 4H20.25V14H21H21.75V4H21ZM21 14L21.5303 13.4697L18.5303 10.4697L18 11L17.4697 11.5303L20.4697 14.5303L21 14ZM18 11V10.25H15V11V11.75H18V11Z" fill="#2F2B3D" fill-opacity="0.9"/>
<path d="M14 15V17C14 17.5523 13.5523 18 13 18H6L3 21V11C3 10.4477 3.44772 10 4 10H6" stroke="#2F2B3D" stroke-opacity="0.9" stroke-width="1.5" stroke-linecap="round" stroke-linejoin="round"/>
</svg>
