<svg width="24" height="24" viewBox="0 0 24 24" fill="none" xmlns="http://www.w3.org/2000/svg">
<path d="M3 3L21 21" stroke="#2F2B3D" stroke-opacity="0.9" stroke-width="1.5" stroke-linecap="round" stroke-linejoin="round"/>
<path d="M8.25 5C8.25 5.41421 8.58579 5.75 9 5.75C9.41421 5.75 9.75 5.41421 9.75 5H9H8.25ZM15 10H14.25V10.0001L15 10ZM14.1525 10.6556C14.0319 11.0519 14.2553 11.4709 14.6516 11.5915C15.0479 11.7121 15.4669 11.4887 15.5875 11.0924L14.87 10.874L14.1525 10.6556ZM13.0875 13.5917C13.4839 13.4716 13.7079 13.0529 13.5878 12.6565C13.4676 12.26 13.0489 12.0361 12.6525 12.1562L12.87 12.874L13.0875 13.5917ZM9 10.002L9.75 10.0022V10.002H9ZM9.75 9.00195C9.75 8.58774 9.41421 8.25195 9 8.25195C8.58579 8.25195 8.25 8.58774 8.25 9.00195H9H9.75ZM9 5H9.75C9.75 3.75736 10.7574 2.75 12 2.75V2V1.25C9.92893 1.25 8.25 2.92893 8.25 5H9ZM12 2V2.75C13.2426 2.75 14.25 3.75736 14.25 5H15H15.75C15.75 2.92893 14.0711 1.25 12 1.25V2ZM15 5H14.25V10H15H15.75V5H15ZM15 10L14.25 10.0001C14.25 10.2222 14.2172 10.4431 14.1525 10.6556L14.87 10.874L15.5875 11.0924C15.6953 10.7382 15.7501 10.3701 15.75 9.99989L15 10ZM12.87 12.874L12.6525 12.1562C11.9707 12.3628 11.2313 12.2343 10.6591 11.8097L10.2122 12.412L9.76522 13.0142C10.7188 13.7219 11.9511 13.9361 13.0875 13.5917L12.87 12.874ZM10.2122 12.412L10.6591 11.8097C10.087 11.3851 9.74978 10.7146 9.75 10.0022L9 10.002L8.25 10.0017C8.24964 11.1892 8.81168 12.3066 9.76522 13.0142L10.2122 12.412ZM9 10.002H9.75V9.00195H9H8.25V10.002H9Z" fill="#2F2B3D" fill-opacity="0.9"/>
<path d="M5.75 10.0001C5.75007 9.58592 5.41434 9.25007 5.00013 9.25C4.58592 9.24993 4.25007 9.58566 4.25 9.99987L5 10L5.75 10.0001ZM16.2581 16.4767C16.6042 16.2491 16.7002 15.784 16.4727 15.4379C16.2451 15.0918 15.78 14.9958 15.4339 15.2233L15.846 15.85L16.2581 16.4767ZM17.2219 13.4369C16.9938 13.7826 17.0891 14.2478 17.4348 14.476C17.7805 14.7041 18.2457 14.6088 18.4739 14.2631L17.8479 13.85L17.2219 13.4369ZM19.7499 9.99863C19.7491 9.58442 19.4127 9.24925 18.9985 9.25C18.5843 9.25076 18.2491 9.58715 18.2499 10.0014L18.9999 10L19.7499 9.99863ZM5 10L4.25 9.99987C4.24951 12.8495 5.81287 15.4695 8.32093 16.8223L8.67697 16.1622L9.03301 15.5021C7.01038 14.4111 5.7496 12.2982 5.75 10.0001L5 10ZM8.67697 16.1622L8.32093 16.8223C10.829 18.175 13.8771 18.0423 16.2581 16.4767L15.846 15.85L15.4339 15.2233C13.5138 16.486 11.0556 16.593 9.03301 15.5021L8.67697 16.1622ZM17.8479 13.85L18.4739 14.2631C19.3089 12.9978 19.7527 11.5146 19.7499 9.99863L18.9999 10L18.2499 10.0014C18.2521 11.2227 17.8946 12.4176 17.2219 13.4369L17.8479 13.85Z" fill="#2F2B3D" fill-opacity="0.9"/>
<path d="M8 21H16" stroke="#2F2B3D" stroke-opacity="0.9" stroke-width="1.5" stroke-linecap="round" stroke-linejoin="round"/>
<path d="M12 17V21" stroke="#2F2B3D" stroke-opacity="0.9" stroke-width="1.5" stroke-linecap="round" stroke-linejoin="round"/>
</svg>
