<svg width="24" height="24" viewBox="0 0 24 24" fill="none" xmlns="http://www.w3.org/2000/svg">
<path d="M5 4.25C4.58579 4.25 4.25 4.58579 4.25 5C4.25 5.41421 4.58579 5.75 5 5.75V5V4.25ZM8 5.75C8.41421 5.75 8.75 5.41421 8.75 5C8.75 4.58579 8.41421 4.25 8 4.25V5V5.75ZM12 4.25C11.5858 4.25 11.25 4.58579 11.25 5C11.25 5.41421 11.5858 5.75 12 5.75V5V4.25ZM21 5.75C21.4142 5.75 21.75 5.41421 21.75 5C21.75 4.58579 21.4142 4.25 21 4.25V5V5.75ZM5 5V5.75H8V5V4.25H5V5ZM12 5V5.75H21V5V4.25H12V5Z" fill="#2F2B3D" fill-opacity="0.9"/>
<path d="M3 9.25C2.58579 9.25 2.25 9.58579 2.25 10C2.25 10.4142 2.58579 10.75 3 10.75V10V9.25ZM14 10.75C14.4142 10.75 14.75 10.4142 14.75 10C14.75 9.58579 14.4142 9.25 14 9.25V10V10.75ZM18 9.25C17.5858 9.25 17.25 9.58579 17.25 10C17.25 10.4142 17.5858 10.75 18 10.75V10V9.25ZM19 10.75C19.4142 10.75 19.75 10.4142 19.75 10C19.75 9.58579 19.4142 9.25 19 9.25V10V10.75ZM3 10V10.75H14V10V9.25H3V10ZM18 10V10.75H19V10V9.25H18V10Z" fill="#2F2B3D" fill-opacity="0.9"/>
<path d="M5 14.25C4.58579 14.25 4.25 14.5858 4.25 15C4.25 15.4142 4.58579 15.75 5 15.75V15V14.25ZM10 15.75C10.4142 15.75 10.75 15.4142 10.75 15C10.75 14.5858 10.4142 14.25 10 14.25V15V15.75ZM14 14.25C13.5858 14.25 13.25 14.5858 13.25 15C13.25 15.4142 13.5858 15.75 14 15.75V15V14.25ZM21 15.75C21.4142 15.75 21.75 15.4142 21.75 15C21.75 14.5858 21.4142 14.25 21 14.25V15V15.75ZM5 15V15.75H10V15V14.25H5V15ZM14 15V15.75H21V15V14.25H14V15Z" fill="#2F2B3D" fill-opacity="0.9"/>
<path d="M3 19.25C2.58579 19.25 2.25 19.5858 2.25 20C2.25 20.4142 2.58579 20.75 3 20.75V20V19.25ZM12 20.75C12.4142 20.75 12.75 20.4142 12.75 20C12.75 19.5858 12.4142 19.25 12 19.25V20V20.75ZM16 19.25C15.5858 19.25 15.25 19.5858 15.25 20C15.25 20.4142 15.5858 20.75 16 20.75V20V19.25ZM19 20.75C19.4142 20.75 19.75 20.4142 19.75 20C19.75 19.5858 19.4142 19.25 19 19.25V20V20.75ZM3 20V20.75H12V20V19.25H3V20ZM16 20V20.75H19V20V19.25H16V20Z" fill="#2F2B3D" fill-opacity="0.9"/>
</svg>
