<svg width="24" height="24" viewBox="0 0 24 24" fill="none" xmlns="http://www.w3.org/2000/svg">
<circle cx="12" cy="12" r="9" stroke="#2F2B3D" stroke-opacity="0.9" stroke-width="1.5" stroke-linecap="round" stroke-linejoin="round"/>
<path d="M9 10H9.01" stroke="#2F2B3D" stroke-opacity="0.9" stroke-width="1.5" stroke-linecap="round" stroke-linejoin="round"/>
<path d="M15 10H15.01" stroke="#2F2B3D" stroke-opacity="0.9" stroke-width="1.5" stroke-linecap="round" stroke-linejoin="round"/>
<path d="M10.75 14C10.75 13.5858 10.4142 13.25 10 13.25C9.58579 13.25 9.25 13.5858 9.25 14H10H10.75ZM14.75 14C14.75 13.5858 14.4142 13.25 14 13.25C13.5858 13.25 13.25 13.5858 13.25 14H14H14.75ZM15.5 14.75C15.9142 14.75 16.25 14.4142 16.25 14C16.25 13.5858 15.9142 13.25 15.5 13.25V14V14.75ZM8.5 13.25C8.08579 13.25 7.75 13.5858 7.75 14C7.75 14.4142 8.08579 14.75 8.5 14.75V14V13.25ZM10 14H9.25V16H10H10.75V14H10ZM10 16H9.25C9.25 17.5188 10.4812 18.75 12 18.75V18V17.25C11.3096 17.25 10.75 16.6904 10.75 16H10ZM12 18V18.75C13.5188 18.75 14.75 17.5188 14.75 16H14H13.25C13.25 16.6904 12.6904 17.25 12 17.25V18ZM14 16H14.75V14H14H13.25V16H14ZM15.5 14V13.25H8.5V14V14.75H15.5V14Z" fill="#2F2B3D" fill-opacity="0.9"/>
</svg>
