<svg width="24" height="24" viewBox="0 0 24 24" fill="none" xmlns="http://www.w3.org/2000/svg">
<path d="M16.9999 4.5C19.0347 5.85679 20.4297 7.98322 20.8639 10.39C21.626 10.8828 22.0612 11.7498 22.001 12.6553C21.9407 13.5608 21.3946 14.3625 20.5739 14.75C19.3778 18.4724 15.9153 20.9967 12.0054 20.9967C8.09563 20.9967 4.63306 18.4724 3.43695 14.75C2.61634 14.3625 2.07015 13.5608 2.00992 12.6553C1.9497 11.7498 2.38489 10.8828 3.14695 10.39C3.57239 8.03188 4.92063 5.94077 6.89295 4.58" stroke="#2F2B3D" stroke-opacity="0.9" stroke-width="1.5" stroke-linecap="round" stroke-linejoin="round"/>
<path d="M9.5 16C10.1583 16.6719 11.0594 17.0505 12 17.0505C12.9406 17.0505 13.8417 16.6719 14.5 16" stroke="#2F2B3D" stroke-opacity="0.9" stroke-width="1.5" stroke-linecap="round" stroke-linejoin="round"/>
<path d="M8.5 2C10 3 11 5.5 11 7" stroke="#2F2B3D" stroke-opacity="0.9" stroke-width="1.5" stroke-linecap="round" stroke-linejoin="round"/>
<path d="M12.5 2C14 4 14.5 5.5 14.5 7" stroke="#2F2B3D" stroke-opacity="0.9" stroke-width="1.5" stroke-linecap="round" stroke-linejoin="round"/>
<path d="M9 12H9.01" stroke="#2F2B3D" stroke-opacity="0.9" stroke-width="1.5" stroke-linecap="round" stroke-linejoin="round"/>
<path d="M15 12H15.01" stroke="#2F2B3D" stroke-opacity="0.9" stroke-width="1.5" stroke-linecap="round" stroke-linejoin="round"/>
</svg>
