<svg width="24" height="24" viewBox="0 0 24 24" fill="none" xmlns="http://www.w3.org/2000/svg">
<path d="M9 10H9.01" stroke="#2F2B3D" stroke-opacity="0.9" stroke-width="1.5" stroke-linecap="round" stroke-linejoin="round"/>
<path d="M15 10H15.01" stroke="#2F2B3D" stroke-opacity="0.9" stroke-width="1.5" stroke-linecap="round" stroke-linejoin="round"/>
<path d="M9.5 15.25C10.1583 14.5781 11.0594 14.1995 12 14.1995C12.9406 14.1995 13.8417 14.5781 14.5 15.25" stroke="#2F2B3D" stroke-opacity="0.9" stroke-width="1.5" stroke-linecap="round" stroke-linejoin="round"/>
<path fill-rule="evenodd" clip-rule="evenodd" d="M17.566 17.606C16.8051 18.3889 16.8126 19.6374 17.583 20.4111C18.3533 21.1847 19.6018 21.1977 20.388 20.4401C21.1742 19.6826 21.2076 18.4345 20.463 17.636L19 16L17.566 17.606V17.606Z" stroke="#2F2B3D" stroke-opacity="0.9" stroke-width="1.5" stroke-linecap="round" stroke-linejoin="round"/>
<path d="M20.865 13.517C20.9531 13.0161 20.9982 12.5086 21 12C21 7.02944 16.9706 3 12 3C7.02944 3 3 7.02944 3 12C3 16.9706 7.02944 21 12 21C12.69 21 13.36 20.924 14 20.778" stroke="#2F2B3D" stroke-opacity="0.9" stroke-width="1.5" stroke-linecap="round" stroke-linejoin="round"/>
</svg>
