<svg width="24" height="24" viewBox="0 0 24 24" fill="none" xmlns="http://www.w3.org/2000/svg">
<circle cx="5" cy="16" r="3" stroke="#2F2B3D" stroke-opacity="0.9" stroke-width="1.5" stroke-linecap="round" stroke-linejoin="round"/>
<circle cx="19" cy="16" r="3" stroke="#2F2B3D" stroke-opacity="0.9" stroke-width="1.5" stroke-linecap="round" stroke-linejoin="round"/>
<path d="M7.5 13.25C7.08579 13.25 6.75 13.5858 6.75 14C6.75 14.4142 7.08579 14.75 7.5 14.75V14V13.25ZM12.5 14V14.75C12.6989 14.75 12.8897 14.671 13.0303 14.5303L12.5 14ZM16.5 10L17.0303 10.5303C17.2448 10.3158 17.309 9.99324 17.1929 9.71299C17.0768 9.43273 16.8033 9.25 16.5 9.25V10ZM6 9.25C5.58579 9.25 5.25 9.58579 5.25 10C5.25 10.4142 5.58579 10.75 6 10.75V10V9.25ZM6.96967 13.4697C6.67678 13.7626 6.67678 14.2374 6.96967 14.5303C7.26256 14.8232 7.73744 14.8232 8.03033 14.5303L7.5 14L6.96967 13.4697ZM12.0303 10.5303C12.3232 10.2374 12.3232 9.76256 12.0303 9.46967C11.7374 9.17678 11.2626 9.17678 10.9697 9.46967L11.5 10L12.0303 10.5303ZM7.5 14V14.75H12.5V14V13.25H7.5V14ZM12.5 14L13.0303 14.5303L17.0303 10.5303L16.5 10L15.9697 9.46967L11.9697 13.4697L12.5 14ZM16.5 10V9.25H6V10V10.75H16.5V10ZM7.5 14L8.03033 14.5303L12.0303 10.5303L11.5 10L10.9697 9.46967L6.96967 13.4697L7.5 14Z" fill="#2F2B3D" fill-opacity="0.9"/>
<path d="M13 6H15L16.5 9L18.5 13" stroke="#2F2B3D" stroke-opacity="0.9" stroke-width="1.5" stroke-linecap="round" stroke-linejoin="round"/>
</svg>
