<svg width="24" height="24" viewBox="0 0 24 24" fill="none" xmlns="http://www.w3.org/2000/svg">
<path d="M4.083 5H14.917C15.2034 4.99921 15.4785 5.11223 15.6816 5.31421C15.8847 5.51618 15.9992 5.79057 16 6.077V14.692C16 17.072 14.06 19 11.667 19H7.333C4.94 19 3 17.071 3 14.692V6.077C3.00079 5.79057 3.11534 5.51618 3.31844 5.31421C3.52155 5.11223 3.79657 4.99921 4.083 5" stroke="#2F2B3D" stroke-opacity="0.9" stroke-width="1.5" stroke-linecap="round" stroke-linejoin="round"/>
<path d="M16 8H18.5C19.88 8 21 9.045 21 10.333V12.667C21 13.955 19.88 15 18.5 15H16" stroke="#2F2B3D" stroke-opacity="0.9" stroke-width="1.5" stroke-linecap="round" stroke-linejoin="round"/>
</svg>
