<svg width="24" height="24" viewBox="0 0 24 24" fill="none" xmlns="http://www.w3.org/2000/svg">
<path d="M6 3.25C5.58579 3.25 5.25 3.58579 5.25 4C5.25 4.41421 5.58579 4.75 6 4.75V4V3.25ZM6 4.75C6.41421 4.75 6.75 4.41421 6.75 4C6.75 3.58579 6.41421 3.25 6 3.25V4V4.75ZM9.75 4C9.75 3.58579 9.41421 3.25 9 3.25C8.58579 3.25 8.25 3.58579 8.25 4H9H9.75ZM8.25 22C8.25 22.4142 8.58579 22.75 9 22.75C9.41421 22.75 9.75 22.4142 9.75 22H9H8.25ZM6 4V4.75H17V4V3.25H6V4ZM17 4V4.75C17.6904 4.75 18.25 5.30964 18.25 6H19H19.75C19.75 4.48122 18.5188 3.25 17 3.25V4ZM19 6H18.25V18H19H19.75V6H19ZM19 18H18.25C18.25 18.6904 17.6904 19.25 17 19.25V20V20.75C18.5188 20.75 19.75 19.5188 19.75 18H19ZM17 20V19.25H6V20V20.75H17V20ZM6 20V19.25C5.86193 19.25 5.75 19.1381 5.75 19H5H4.25C4.25 19.9665 5.0335 20.75 6 20.75V20ZM5 19H5.75V5H5H4.25V19H5ZM5 5H5.75C5.75 4.86193 5.86193 4.75 6 4.75V4V3.25C5.0335 3.25 4.25 4.0335 4.25 5H5ZM9 4H8.25V22H9H9.75V4H9Z" fill="#2F2B3D" fill-opacity="0.9"/>
<path d="M13 8H15" stroke="#2F2B3D" stroke-opacity="0.9" stroke-width="1.5" stroke-linecap="round" stroke-linejoin="round"/>
<path d="M13 12H15" stroke="#2F2B3D" stroke-opacity="0.9" stroke-width="1.5" stroke-linecap="round" stroke-linejoin="round"/>
</svg>
