<svg width="24" height="24" viewBox="0 0 24 24" fill="none" xmlns="http://www.w3.org/2000/svg">
<path d="M7.11664 3.12267C6.82375 3.41556 6.82375 3.89044 7.11664 4.18333C7.40954 4.47622 7.88441 4.47622 8.1773 4.18333L7.64697 3.653L7.11664 3.12267ZM7.99997 3.3L8.5303 3.83033V3.83033L7.99997 3.3ZM16 3.3L15.4696 3.83033V3.83033L16 3.3ZM20.7 8L21.2303 7.46967L20.7 8ZM19.8196 15.8197C19.5267 16.1126 19.5267 16.5874 19.8196 16.8803C20.1125 17.1732 20.5874 17.1732 20.8803 16.8803L20.35 16.35L19.8196 15.8197ZM18.8833 18.8774C19.1762 18.5845 19.1762 18.1096 18.8833 17.8167C18.5904 17.5238 18.1156 17.5238 17.8227 17.8167L18.353 18.347L18.8833 18.8774ZM8 20.7L8.53033 20.1697L8 20.7ZM3.3 16L2.76967 16.5304L3.3 16ZM3.3 8.00002L2.76967 7.46969H2.76967L3.3 8.00002ZM6.18033 6.18035C6.47322 5.88746 6.47322 5.41259 6.18033 5.11969C5.88744 4.8268 5.41256 4.8268 5.11967 5.11969L5.65 5.65002L6.18033 6.18035ZM7.64697 3.653L8.1773 4.18333L8.5303 3.83033L7.99997 3.3L7.46964 2.76967L7.11664 3.12267L7.64697 3.653ZM7.99997 3.3L8.5303 3.83033C8.58603 3.77461 8.61195 3.76264 8.61708 3.76036C8.61894 3.75953 8.63749 3.75 8.69997 3.75V3V2.25C8.46246 2.25 8.231 2.29047 8.00787 2.38964C7.788 2.48736 7.61392 2.62539 7.46964 2.76967L7.99997 3.3ZM8.69997 3V3.75H15.3V3V2.25H8.69997V3ZM15.3 3V3.75C15.3625 3.75 15.381 3.75953 15.3829 3.76036C15.388 3.76264 15.4139 3.77461 15.4696 3.83033L16 3.3L16.5303 2.76967C16.386 2.62539 16.212 2.48736 15.9921 2.38964C15.7689 2.29047 15.5375 2.25 15.3 2.25V3ZM16 3.3L15.4696 3.83033L20.1696 8.53033L20.7 8L21.2303 7.46967L16.5303 2.76967L16 3.3ZM20.7 8L20.1696 8.53033C20.2254 8.58605 20.2373 8.61198 20.2396 8.6171C20.2404 8.61897 20.25 8.63751 20.25 8.7H21H21.75C21.75 8.46249 21.7095 8.23103 21.6103 8.0079C21.5126 7.78802 21.3746 7.61395 21.2303 7.46967L20.7 8ZM21 8.7H20.25V15.3H21H21.75V8.7H21ZM21 15.3H20.25C20.25 15.3625 20.2404 15.381 20.2396 15.3829C20.2373 15.388 20.2254 15.4139 20.1696 15.4697L20.7 16L21.2303 16.5303C21.3746 16.3861 21.5126 16.212 21.6103 15.9921C21.7095 15.769 21.75 15.5375 21.75 15.3H21ZM20.7 16L20.1696 15.4697L19.8196 15.8197L20.35 16.35L20.8803 16.8803L21.2303 16.5303L20.7 16ZM18.353 18.347L17.8227 17.8167L15.4697 20.1697L16 20.7L16.5303 21.2304L18.8833 18.8774L18.353 18.347ZM16 20.7L15.4697 20.1697C15.4139 20.2254 15.388 20.2374 15.3829 20.2397C15.381 20.2405 15.3625 20.25 15.3 20.25V21V21.75C15.5375 21.75 15.769 21.7096 15.9921 21.6104C16.212 21.5127 16.3861 21.3746 16.5303 21.2304L16 20.7ZM15.3 21V20.25H8.7V21V21.75H15.3V21ZM8.7 21V20.25C8.63751 20.25 8.61897 20.2405 8.6171 20.2397C8.61198 20.2374 8.58605 20.2254 8.53033 20.1697L8 20.7L7.46967 21.2304C7.61395 21.3746 7.78802 21.5127 8.0079 21.6104C8.23103 21.7096 8.46249 21.75 8.7 21.75V21ZM8 20.7L8.53033 20.1697L3.83033 15.4697L3.3 16L2.76967 16.5304L7.46967 21.2304L8 20.7ZM3.3 16L3.83033 15.4697C3.77461 15.414 3.76264 15.388 3.76036 15.3829C3.75953 15.3811 3.75 15.3625 3.75 15.3H3H2.25C2.25 15.5375 2.29047 15.769 2.38964 15.9921C2.48736 16.212 2.62539 16.3861 2.76967 16.5304L3.3 16ZM3 15.3H3.75V8.70002H3H2.25V15.3H3ZM3 8.70002H3.75C3.75 8.63754 3.75953 8.619 3.76036 8.61713C3.76264 8.612 3.77461 8.58608 3.83033 8.53035L3.3 8.00002L2.76967 7.46969C2.62539 7.61397 2.48736 7.78805 2.38964 8.00792C2.29047 8.23105 2.25 8.46251 2.25 8.70002H3ZM3.3 8.00002L3.83033 8.53035L6.18033 6.18035L5.65 5.65002L5.11967 5.11969L2.76967 7.46969L3.3 8.00002Z" fill="#2F2B3D" fill-opacity="0.9"/>
<path d="M3 3L21 21" stroke="#2F2B3D" stroke-opacity="0.9" stroke-width="1.5" stroke-linecap="round" stroke-linejoin="round"/>
</svg>
