<svg width="24" height="24" viewBox="0 0 24 24" fill="none" xmlns="http://www.w3.org/2000/svg">
<path d="M14 3V7C14 7.55228 14.4477 8 15 8H19" stroke="#2F2B3D" stroke-opacity="0.9" stroke-width="1.5" stroke-linecap="round" stroke-linejoin="round"/>
<path d="M19 18V19C19 20.1046 18.1046 21 17 21H7C5.89543 21 5 20.1046 5 19V18" stroke="#2F2B3D" stroke-opacity="0.9" stroke-width="1.5" stroke-linecap="round" stroke-linejoin="round"/>
<path d="M3 13.25C2.58579 13.25 2.25 13.5858 2.25 14C2.25 14.4142 2.58579 14.75 3 14.75V14V13.25ZM6 14.75C6.41421 14.75 6.75 14.4142 6.75 14C6.75 13.5858 6.41421 13.25 6 13.25V14V14.75ZM10.5 13.25C10.0858 13.25 9.75 13.5858 9.75 14C9.75 14.4142 10.0858 14.75 10.5 14.75V14V13.25ZM13.5 14.75C13.9142 14.75 14.25 14.4142 14.25 14C14.25 13.5858 13.9142 13.25 13.5 13.25V14V14.75ZM18 13.25C17.5858 13.25 17.25 13.5858 17.25 14C17.25 14.4142 17.5858 14.75 18 14.75V14V13.25ZM21 14.75C21.4142 14.75 21.75 14.4142 21.75 14C21.75 13.5858 21.4142 13.25 21 13.25V14V14.75ZM3 14V14.75H6V14V13.25H3V14ZM10.5 14V14.75H13.5V14V13.25H10.5V14ZM18 14V14.75H21V14V13.25H18V14Z" fill="#2F2B3D" fill-opacity="0.9"/>
<path d="M5 10V5C5 3.89543 5.89543 3 7 3H14L19 8V10" stroke="#2F2B3D" stroke-opacity="0.9" stroke-width="1.5" stroke-linecap="round" stroke-linejoin="round"/>
</svg>
