<svg width="24" height="24" viewBox="0 0 24 24" fill="none" xmlns="http://www.w3.org/2000/svg">
<path d="M12 21C8.78461 21 5.81347 19.2846 4.20577 16.5C2.59808 13.7154 2.59808 10.2846 4.20577 7.5C5.81347 4.71539 8.78461 3 12 3C16.9706 3 21 6.58172 21 11C21 12.0609 20.5259 13.0783 19.682 13.8284C18.8381 14.5786 17.6935 15 16.5 15H14C13.082 14.9852 12.2719 15.5973 12.0353 16.4844C11.7987 17.3715 12.1965 18.3057 13 18.75C13.4094 19.1278 13.5326 19.7244 13.3064 20.2334C13.0801 20.7424 12.5547 21.0507 12 21" stroke="#2F2B3D" stroke-opacity="0.9" stroke-width="1.5" stroke-linecap="round" stroke-linejoin="round"/>
<circle cx="7.5" cy="10.5" r="0.5" fill="#2F2B3D" fill-opacity="0.9" stroke="#2F2B3D" stroke-opacity="0.9" stroke-width="1.5" stroke-linecap="round" stroke-linejoin="round"/>
<circle cx="12" cy="7.5" r="0.5" fill="#2F2B3D" fill-opacity="0.9" stroke="#2F2B3D" stroke-opacity="0.9" stroke-width="1.5" stroke-linecap="round" stroke-linejoin="round"/>
<circle cx="16.5" cy="10.5" r="0.5" fill="#2F2B3D" fill-opacity="0.9" stroke="#2F2B3D" stroke-opacity="0.9" stroke-width="1.5" stroke-linecap="round" stroke-linejoin="round"/>
</svg>
