<svg width="24" height="24" viewBox="0 0 24 24" fill="none" xmlns="http://www.w3.org/2000/svg">
<path d="M3 21L21 3" stroke="#2F2B3D" stroke-opacity="0.9" stroke-width="1.5" stroke-linecap="round" stroke-linejoin="round"/>
<path d="M5.21549 14.5895C5.45216 14.9295 5.9196 15.0132 6.25953 14.7765C6.59947 14.5398 6.68319 14.0724 6.44651 13.7325L5.831 14.161L5.21549 14.5895ZM3 6H2.25C2.25 6.01491 2.25044 6.02981 2.25133 6.04469L3 6ZM9 4L9.69636 3.72146C9.58246 3.43671 9.30668 3.25 9 3.25V4ZM11 9L11.3859 9.64312C11.7015 9.45373 11.8331 9.06324 11.6964 8.72146L11 9ZM8.5 10.5L8.11413 9.85688C7.77988 10.0574 7.65498 10.4806 7.82675 10.8305L8.5 10.5ZM8.19649 11.5218C8.40457 11.8799 8.86359 12.0016 9.22175 11.7935C9.57991 11.5854 9.70158 11.1264 9.49351 10.7682L8.845 11.145L8.19649 11.5218ZM11.1254 12.8907C10.832 12.5984 10.3571 12.5992 10.0647 12.8926C9.77236 13.186 9.77321 13.6609 10.0666 13.9533L10.596 13.422L11.1254 12.8907ZM13.5 15.5L13.1681 16.1726C13.5182 16.3453 13.9423 16.2206 14.1431 15.8859L13.5 15.5ZM15 13L15.2785 12.3036C14.9368 12.1669 14.5463 12.2985 14.3569 12.6141L15 13ZM20 15H20.75C20.75 14.6933 20.5633 14.4175 20.2785 14.3036L20 15ZM18 21L17.9552 21.7487C17.9701 21.7496 17.9851 21.75 18 21.75V21ZM8.18681 15.8131C7.89418 15.52 7.4193 15.5196 7.12615 15.8122C6.83299 16.1048 6.83257 16.5797 7.1252 16.8729L7.65601 16.343L8.18681 15.8131ZM5.831 14.161L6.44651 13.7325C4.84883 11.4377 3.91529 8.74653 3.74867 5.95531L3 6L2.25133 6.04469C2.4344 9.11144 3.46009 12.0682 5.21549 14.5895L5.831 14.161ZM3 6H3.75C3.75 5.30964 4.30964 4.75 5 4.75V4V3.25C3.48122 3.25 2.25 4.48122 2.25 6H3ZM5 4V4.75H9V4V3.25H5V4ZM9 4L8.30364 4.27854L10.3036 9.27854L11 9L11.6964 8.72146L9.69636 3.72146L9 4ZM11 9L10.6141 8.35688L8.11413 9.85688L8.5 10.5L8.88587 11.1431L11.3859 9.64312L11 9ZM8.5 10.5L7.82675 10.8305C7.94239 11.0661 8.06563 11.2965 8.19649 11.5218L8.845 11.145L9.49351 10.7682C9.38037 10.5735 9.27361 10.3739 9.17325 10.1695L8.5 10.5ZM10.596 13.422L10.0666 13.9533C10.9669 14.8503 12.0124 15.6022 13.1681 16.1726L13.5 15.5L13.8319 14.8274C12.8236 14.3298 11.9111 13.6737 11.1254 12.8907L10.596 13.422ZM13.5 15.5L14.1431 15.8859L15.6431 13.3859L15 13L14.3569 12.6141L12.8569 15.1141L13.5 15.5ZM15 13L14.7215 13.6964L19.7215 15.6964L20 15L20.2785 14.3036L15.2785 12.3036L15 13ZM20 15H19.25V19H20H20.75V15H20ZM20 19H19.25C19.25 19.6904 18.6904 20.25 18 20.25V21V21.75C19.5188 21.75 20.75 20.5188 20.75 19H20ZM18 21L18.0448 20.2513C14.3262 20.0288 10.8186 18.4496 8.18681 15.8131L7.65601 16.343L7.1252 16.8729C10.0165 19.7693 13.87 21.5042 17.9552 21.7487L18 21Z" fill="#2F2B3D" fill-opacity="0.9"/>
</svg>
