<svg width="24" height="24" viewBox="0 0 24 24" fill="none" xmlns="http://www.w3.org/2000/svg">
<path d="M3 3L21 21" stroke="#2F2B3D" stroke-opacity="0.9" stroke-width="1.5" stroke-linecap="round" stroke-linejoin="round"/>
<path d="M14.9999 8H15.0099" stroke="#2F2B3D" stroke-opacity="0.9" stroke-width="1.5" stroke-linecap="round" stroke-linejoin="round"/>
<path d="M19.6512 19.6525C19.9441 19.3597 19.9443 18.8848 19.6515 18.5919C19.3587 18.2989 18.8838 18.2987 18.5908 18.5915L19.121 19.122L19.6512 19.6525ZM17 20L17.0001 19.25H17V20ZM5.41638 5.40129C5.71035 5.10947 5.71209 4.6346 5.42027 4.34063C5.12845 4.04667 4.65358 4.04493 4.35962 4.33675L4.888 4.86902L5.41638 5.40129ZM8 3.25C7.58579 3.25 7.25 3.58579 7.25 4C7.25 4.41421 7.58579 4.75 8 4.75V4V3.25ZM19.25 16C19.25 16.4142 19.5858 16.75 20 16.75C20.4142 16.75 20.75 16.4142 20.75 16H20H19.25ZM19.121 19.122L18.5908 18.5915C18.1689 19.0132 17.5967 19.2501 17.0001 19.25L17 20L16.9999 20.75C17.9942 20.7501 18.9479 20.3554 19.6512 19.6525L19.121 19.122ZM17 20V19.25H7V20V20.75H17V20ZM7 20V19.25C5.75736 19.25 4.75 18.2427 4.75 17H4H3.25C3.25 19.0711 4.92893 20.75 7 20.75V20ZM4 17H4.75V7.00002H4H3.25V17H4ZM4 7.00002H4.75C4.75 6.37535 5.0041 5.81056 5.41638 5.40129L4.888 4.86902L4.35962 4.33675C3.6759 5.01548 3.25 5.95869 3.25 7.00002H4ZM8 4V4.75H17V4V3.25H8V4ZM17 4V4.75C18.2426 4.75 19.25 5.75736 19.25 7H20H20.75C20.75 4.92893 19.0711 3.25 17 3.25V4ZM20 7H19.25V16H20H20.75V7H20Z" fill="#2F2B3D" fill-opacity="0.9"/>
<path d="M4 14.9998L8 10.9998C8.928 10.1068 10.072 10.1068 11 10.9998L16 15.9998" stroke="#2F2B3D" stroke-opacity="0.9" stroke-width="1.5" stroke-linecap="round" stroke-linejoin="round"/>
<path d="M16.3201 12.3399C16.8971 12.2809 17.4821 12.5019 18.0001 12.9999L20.0001 14.9999" stroke="#2F2B3D" stroke-opacity="0.9" stroke-width="1.5" stroke-linecap="round" stroke-linejoin="round"/>
</svg>
