<svg width="24" height="24" viewBox="0 0 24 24" fill="none" xmlns="http://www.w3.org/2000/svg">
<path d="M15 10.9999V11.0099" stroke="#2F2B3D" stroke-opacity="0.9" stroke-width="1.5" stroke-linecap="round" stroke-linejoin="round"/>
<path fill-rule="evenodd" clip-rule="evenodd" d="M16 3V6.803C17.2376 7.51912 18.1799 8.65245 18.658 10H19.999C20.5513 10 20.999 10.4477 20.999 11V13C20.999 13.5523 20.5513 14 19.999 14H18.657C18.3206 14.9504 17.7504 15.8008 16.999 16.473V18.5C16.999 19.3284 16.3274 20 15.499 20C14.6706 20 13.999 19.3284 13.999 18.5V17.917C13.6685 17.9724 13.3341 18.0001 12.999 18H8.999C8.66394 18.0001 8.32945 17.9724 7.999 17.917V18.5C7.999 19.3284 7.32743 20 6.499 20C5.67057 20 4.999 19.3284 4.999 18.5V16.5L5 16.473C3.14525 14.8148 2.50627 12.1839 3.39376 9.85969C4.28125 7.53544 6.51107 6.00001 8.999 6H11.499L15.999 3L16 3Z" stroke="#2F2B3D" stroke-opacity="0.9" stroke-width="1.5" stroke-linecap="round" stroke-linejoin="round"/>
</svg>
