<svg width="24" height="24" viewBox="0 0 24 24" fill="none" xmlns="http://www.w3.org/2000/svg">
<path d="M3 3L21 21" stroke="#2F2B3D" stroke-opacity="0.9" stroke-width="1.5" stroke-linecap="round" stroke-linejoin="round"/>
<path d="M15.5303 5.03033C15.8232 4.73744 15.8232 4.26256 15.5303 3.96967C15.2374 3.67678 14.7625 3.67678 14.4696 3.96967L15 4.5L15.5303 5.03033ZM11.2206 7.21867C10.9278 7.51156 10.9278 7.98644 11.2206 8.27933C11.5135 8.57222 11.9884 8.57222 12.2813 8.27933L11.751 7.749L11.2206 7.21867ZM9.44438 9.88424C9.83221 9.73878 10.0287 9.30646 9.88323 8.91863C9.73777 8.5308 9.30545 8.33431 8.91762 8.47977L9.181 9.18201L9.44438 9.88424ZM7 10L6.73662 9.29777C6.63639 9.33537 6.54537 9.39398 6.46967 9.46968L7 10ZM5.5 11.5L4.96967 10.9697C4.67678 11.2626 4.67678 11.7374 4.96967 12.0303L5.5 11.5ZM12.5 18.5L11.9697 19.0303C12.2626 19.3232 12.7374 19.3232 13.0303 19.0303L12.5 18.5ZM14 17L14.5303 17.5303C14.606 17.4546 14.6646 17.3636 14.7022 17.2634L14 17ZM15.5222 15.0774C15.6677 14.6896 15.4712 14.2573 15.0834 14.1118C14.6956 13.9663 14.2633 14.1628 14.1178 14.5506L14.82 14.814L15.5222 15.0774ZM15.7196 11.7208C15.4267 12.0137 15.4268 12.4886 15.7198 12.7814C16.0127 13.0743 16.4876 13.0742 16.7804 12.7812L16.25 12.251L15.7196 11.7208ZM20.0304 9.53025C20.3233 9.23731 20.3232 8.76244 20.0302 8.46959C19.7373 8.17674 19.2624 8.17681 18.9696 8.46975L19.5 9L20.0304 9.53025ZM15 4.5L14.4696 3.96967L11.2206 7.21867L11.751 7.749L12.2813 8.27933L15.5303 5.03033L15 4.5ZM9.181 9.18201L8.91762 8.47977L6.73662 9.29777L7 10L7.26338 10.7022L9.44438 9.88424L9.181 9.18201ZM7 10L6.46967 9.46968L4.96967 10.9697L5.5 11.5L6.03033 12.0303L7.53033 10.5303L7 10ZM5.5 11.5L4.96967 12.0303L11.9697 19.0303L12.5 18.5L13.0303 17.9697L6.03033 10.9697L5.5 11.5ZM12.5 18.5L13.0303 19.0303L14.5303 17.5303L14 17L13.4697 16.4697L11.9697 17.9697L12.5 18.5ZM14 17L14.7022 17.2634L15.5222 15.0774L14.82 14.814L14.1178 14.5506L13.2978 16.7366L14 17ZM16.25 12.251L16.7804 12.7812L20.0304 9.53025L19.5 9L18.9696 8.46975L15.7196 11.7208L16.25 12.251Z" fill="#2F2B3D" fill-opacity="0.9"/>
<path d="M9 15L4.5 19.5" stroke="#2F2B3D" stroke-opacity="0.9" stroke-width="1.5" stroke-linecap="round" stroke-linejoin="round"/>
<path d="M14.5 4L20 9.5" stroke="#2F2B3D" stroke-opacity="0.9" stroke-width="1.5" stroke-linecap="round" stroke-linejoin="round"/>
</svg>
