<svg width="24" height="24" viewBox="0 0 24 24" fill="none" xmlns="http://www.w3.org/2000/svg">
<path d="M2 20C2.46118 20.6425 3.20929 21.0166 4 21C4.79071 21.0166 5.53882 20.6425 6 20C6.46118 19.3575 7.20929 18.9835 8 19C8.79071 18.9835 9.53882 19.3575 10 20C10.4612 20.6425 11.2093 21.0166 12 21C12.7907 21.0166 13.5388 20.6425 14 20C14.4612 19.3575 15.2093 18.9835 16 19C16.7907 18.9835 17.5388 19.3575 18 20C18.4612 20.6425 19.2093 21.0166 20 21C20.7907 21.0166 21.5388 20.6425 22 20" stroke="#2F2B3D" stroke-opacity="0.9" stroke-width="1.5" stroke-linecap="round" stroke-linejoin="round"/>
<path d="M2 16C2.46118 16.6425 3.20929 17.0166 4 17C4.79071 17.0166 5.53882 16.6425 6 16C6.46118 15.3575 7.20929 14.9835 8 15C8.79071 14.9835 9.53882 15.3575 10 16C10.4612 16.6425 11.2093 17.0166 12 17C12.7907 17.0166 13.5388 16.6425 14 16C14.4612 15.3575 15.2093 14.9835 16 15C16.7907 14.9835 17.5388 15.3575 18 16C18.4612 16.6425 19.2093 17.0166 20 17C20.7907 17.0166 21.5388 16.6425 22 16" stroke="#2F2B3D" stroke-opacity="0.9" stroke-width="1.5" stroke-linecap="round" stroke-linejoin="round"/>
<path d="M15 12V4.5C15 3.67157 15.6716 3 16.5 3C17.3284 3 18 3.67157 18 4.5" stroke="#2F2B3D" stroke-opacity="0.9" stroke-width="1.5" stroke-linecap="round" stroke-linejoin="round"/>
<path d="M9 12V4.5C9 3.67157 8.32843 3 7.5 3C6.67157 3 6 3.67157 6 4.5" stroke="#2F2B3D" stroke-opacity="0.9" stroke-width="1.5" stroke-linecap="round" stroke-linejoin="round"/>
<path d="M15 5H9" stroke="#2F2B3D" stroke-opacity="0.9" stroke-width="1.5" stroke-linecap="round" stroke-linejoin="round"/>
<path d="M9 10H15" stroke="#2F2B3D" stroke-opacity="0.9" stroke-width="1.5" stroke-linecap="round" stroke-linejoin="round"/>
</svg>
