<svg width="24" height="24" viewBox="0 0 24 24" fill="none" xmlns="http://www.w3.org/2000/svg">
<circle cx="12" cy="13" r="3" stroke="#2F2B3D" stroke-opacity="0.9" stroke-width="1.5" stroke-linecap="round" stroke-linejoin="round"/>
<path d="M14.1671 10.5C14.8891 8.962 15.3231 7.457 15.4701 5.986C15.6901 4.356 14.7081 3 12.0001 3C9.29205 3 8.31005 4.357 8.53005 5.986C8.67705 7.457 9.11105 8.962 9.83305 10.5" stroke="#2F2B3D" stroke-opacity="0.9" stroke-width="1.5" stroke-linecap="round" stroke-linejoin="round"/>
<path d="M13.1689 16.751C14.1389 18.146 15.2259 19.274 16.4259 20.137C17.7259 21.143 19.3929 20.97 20.7469 18.625C22.1009 16.28 21.4169 14.751 19.8969 14.127C18.5489 13.519 17.0289 13.142 15.3349 12.999" stroke="#2F2B3D" stroke-opacity="0.9" stroke-width="1.5" stroke-linecap="round" stroke-linejoin="round"/>
<path d="M8.66391 12.999C6.97091 13.142 5.45091 13.519 4.10391 14.127C2.58191 14.75 1.89791 16.28 3.25191 18.625C4.60591 20.97 6.27191 21.142 7.57291 20.137C8.77291 19.274 9.85991 18.146 10.8309 16.751" stroke="#2F2B3D" stroke-opacity="0.9" stroke-width="1.5" stroke-linecap="round" stroke-linejoin="round"/>
</svg>
