<svg width="24" height="24" viewBox="0 0 24 24" fill="none" xmlns="http://www.w3.org/2000/svg">
<path d="M4 7H7C7.55228 7 8 6.55228 8 6V5C8 3.89543 8.89543 3 10 3C11.1046 3 12 3.89543 12 5V6C12 6.55228 12.4477 7 13 7H16C16.5523 7 17 7.44772 17 8V11C17 11.5523 17.4477 12 18 12H19C20.1046 12 21 12.8954 21 14C21 15.1046 20.1046 16 19 16H18C17.4477 16 17 16.4477 17 17V20C17 20.5523 16.5523 21 16 21H13C12.4477 21 12 20.5523 12 20V19C12 17.8954 11.1046 17 10 17C8.89543 17 8 17.8954 8 19V20C8 20.5523 7.55228 21 7 21H4C3.44772 21 3 20.5523 3 20V17C3 16.4477 3.44772 16 4 16H5C6.10457 16 7 15.1046 7 14C7 12.8954 6.10457 12 5 12H4C3.44772 12 3 11.5523 3 11V8C3 7.44772 3.44772 7 4 7" stroke="#2F2B3D" stroke-opacity="0.9" stroke-width="1.5" stroke-linecap="round" stroke-linejoin="round"/>
</svg>
