<svg width="24" height="24" viewBox="0 0 24 24" fill="none" xmlns="http://www.w3.org/2000/svg">
<rect x="4" y="4" width="16" height="16" rx="2" stroke="#2F2B3D" stroke-opacity="0.9" stroke-width="1.5" stroke-linecap="round" stroke-linejoin="round"/>
<path d="M12 4V6.5C12 6.77614 11.7761 7 11.5 7C10.6716 7 10 7.67157 10 8.5C10 9.32843 10.6716 10 11.5 10C11.7761 10 12 10.2239 12 10.5V12" stroke="#2F2B3D" stroke-opacity="0.9" stroke-width="1.5" stroke-linecap="round" stroke-linejoin="round"/>
<path d="M12 12V13.5C12 13.7761 12.2239 14 12.5 14C13.3284 14 14 14.6716 14 15.5C14 16.3284 13.3284 17 12.5 17C12.2239 17 12 17.2239 12 17.5V20" stroke="#2F2B3D" stroke-opacity="0.9" stroke-width="1.5" stroke-linecap="round" stroke-linejoin="round"/>
<path d="M20 12H17.5C17.2239 12 17 11.7761 17 11.5C17 10.6716 16.3284 10 15.5 10C14.6716 10 14 10.6716 14 11.5C14 11.7761 13.7761 12 13.5 12H12" stroke="#2F2B3D" stroke-opacity="0.9" stroke-width="1.5" stroke-linecap="round" stroke-linejoin="round"/>
<path d="M12 12H10.5C10.2239 12 10 12.2239 10 12.5C10 13.3284 9.32843 14 8.5 14C7.67157 14 7 13.3284 7 12.5C7 12.2239 6.77614 12 6.5 12H4" stroke="#2F2B3D" stroke-opacity="0.9" stroke-width="1.5" stroke-linecap="round" stroke-linejoin="round"/>
</svg>
