<svg width="24" height="24" viewBox="0 0 24 24" fill="none" xmlns="http://www.w3.org/2000/svg">
<path d="M10 11H6C5.44772 11 5 10.5523 5 10V7C5 6.44772 5.44772 6 6 6H9C9.55228 6 10 6.44772 10 7V13C10 15.667 8.667 17.333 6 18" stroke="#2F2B3D" stroke-opacity="0.9" stroke-width="1.5" stroke-linecap="round" stroke-linejoin="round"/>
<path d="M19 11H15C14.4477 11 14 10.5523 14 10V7C14 6.44772 14.4477 6 15 6H18C18.5523 6 19 6.44772 19 7V13C19 15.667 17.667 17.333 15 18" stroke="#2F2B3D" stroke-opacity="0.9" stroke-width="1.5" stroke-linecap="round" stroke-linejoin="round"/>
</svg>
