<svg width="24" height="24" viewBox="0 0 24 24" fill="none" xmlns="http://www.w3.org/2000/svg">
<path d="M5 21V5C5 3.89543 5.89543 3 7 3H17C18.1046 3 19 3.89543 19 5V21L16 19L14 21L12 19L10 21L8 19L5 21" stroke="#2F2B3D" stroke-opacity="0.9" stroke-width="1.5" stroke-linecap="round" stroke-linejoin="round"/>
<path d="M14 8.75C14.4142 8.75 14.75 8.41421 14.75 8C14.75 7.58579 14.4142 7.25 14 7.25V8V8.75ZM12.5 11V10.25V11ZM12.5 14V14.75V14ZM10 13.25C9.58579 13.25 9.25 13.5858 9.25 14C9.25 14.4142 9.58579 14.75 10 14.75V14V13.25ZM12.75 14C12.75 13.5858 12.4142 13.25 12 13.25C11.5858 13.25 11.25 13.5858 11.25 14H12H12.75ZM11.25 15.5C11.25 15.9142 11.5858 16.25 12 16.25C12.4142 16.25 12.75 15.9142 12.75 15.5H12H11.25ZM12.75 6.5C12.75 6.08579 12.4142 5.75 12 5.75C11.5858 5.75 11.25 6.08579 11.25 6.5H12H12.75ZM11.25 8C11.25 8.41421 11.5858 8.75 12 8.75C12.4142 8.75 12.75 8.41421 12.75 8H12H11.25ZM14 8V7.25H11.5V8V8.75H14V8ZM11.5 8V7.25C10.2574 7.25 9.25 8.25736 9.25 9.5H10H10.75C10.75 9.08579 11.0858 8.75 11.5 8.75V8ZM10 9.5H9.25C9.25 10.7426 10.2574 11.75 11.5 11.75V11V10.25C11.0858 10.25 10.75 9.91421 10.75 9.5H10ZM11.5 11V11.75H12.5V11V10.25H11.5V11ZM12.5 11V11.75C12.9142 11.75 13.25 12.0858 13.25 12.5H14H14.75C14.75 11.2574 13.7426 10.25 12.5 10.25V11ZM14 12.5H13.25C13.25 12.9142 12.9142 13.25 12.5 13.25V14V14.75C13.7426 14.75 14.75 13.7426 14.75 12.5H14ZM12.5 14V13.25H10V14V14.75H12.5V14ZM12 14H11.25V15.5H12H12.75V14H12ZM12 6.5H11.25V8H12H12.75V6.5H12Z" fill="#2F2B3D" fill-opacity="0.9"/>
</svg>
