<svg width="24" height="24" viewBox="0 0 24 24" fill="none" xmlns="http://www.w3.org/2000/svg">
<path d="M5 21V5C5 3.89543 5.89543 3 7 3H17C18.1046 3 19 3.89543 19 5V21L16 19L14 21L12 19L10 21L8 19L5 21" stroke="#2F2B3D" stroke-opacity="0.9" stroke-width="1.5" stroke-linecap="round" stroke-linejoin="round"/>
<path d="M14.25 14C14.25 14.4142 14.5858 14.75 15 14.75C15.4142 14.75 15.75 14.4142 15.75 14H15H14.25ZM9 10L8.46967 9.46967C8.25517 9.68417 8.191 10.0068 8.30709 10.287C8.42318 10.5673 8.69665 10.75 9 10.75V10ZM11.5303 8.53033C11.8232 8.23744 11.8232 7.76256 11.5303 7.46967C11.2374 7.17678 10.7626 7.17678 10.4697 7.46967L11 8L11.5303 8.53033ZM10.4697 12.5303C10.7626 12.8232 11.2374 12.8232 11.5303 12.5303C11.8232 12.2374 11.8232 11.7626 11.5303 11.4697L11 12L10.4697 12.5303ZM9.53033 9.46967C9.23744 9.17678 8.76256 9.17678 8.46967 9.46967C8.17678 9.76256 8.17678 10.2374 8.46967 10.5303L9 10L9.53033 9.46967ZM15 14H15.75V12H15H14.25V14H15ZM15 12H15.75C15.75 10.4812 14.5188 9.25 13 9.25V10V10.75C13.6904 10.75 14.25 11.3096 14.25 12H15ZM13 10V9.25H9V10V10.75H13V10ZM9 10L9.53033 10.5303L11.5303 8.53033L11 8L10.4697 7.46967L8.46967 9.46967L9 10ZM11 12L11.5303 11.4697L9.53033 9.46967L9 10L8.46967 10.5303L10.4697 12.5303L11 12Z" fill="#2F2B3D" fill-opacity="0.9"/>
</svg>
