<svg width="24" height="24" viewBox="0 0 24 24" fill="none" xmlns="http://www.w3.org/2000/svg">
<path d="M4.25 21C4.25 21.4142 4.58579 21.75 5 21.75C5.41421 21.75 5.75 21.4142 5.75 21H5H4.25ZM19 21L18.584 21.624C18.8141 21.7775 19.11 21.7918 19.3539 21.6613C19.5978 21.5307 19.75 21.2766 19.75 21H19ZM16 19L16.416 18.376C16.1186 18.1777 15.7225 18.2169 15.4697 18.4697L16 19ZM14 21L13.4697 21.5303C13.7626 21.8232 14.2374 21.8232 14.5303 21.5303L14 21ZM12 19L12.5303 18.4697C12.2374 18.1768 11.7626 18.1768 11.4697 18.4697L12 19ZM10 21L9.46967 21.5303C9.76256 21.8232 10.2374 21.8232 10.5303 21.5303L10 21ZM8 19L8.53033 18.4697C8.27753 18.2169 7.88144 18.1777 7.58397 18.376L8 19ZM4.58397 20.376C4.23933 20.6057 4.1462 21.0714 4.37596 21.416C4.60573 21.7607 5.07138 21.8538 5.41603 21.624L5 21L4.58397 20.376ZM9 6.25C8.58579 6.25 8.25 6.58579 8.25 7C8.25 7.41421 8.58579 7.75 9 7.75V7V6.25ZM15 7.75C15.4142 7.75 15.75 7.41421 15.75 7C15.75 6.58579 15.4142 6.25 15 6.25V7V7.75ZM9 10.25C8.58579 10.25 8.25 10.5858 8.25 11C8.25 11.4142 8.58579 11.75 9 11.75V11V10.25ZM15 11.75C15.4142 11.75 15.75 11.4142 15.75 11C15.75 10.5858 15.4142 10.25 15 10.25V11V11.75ZM13 14.25C12.5858 14.25 12.25 14.5858 12.25 15C12.25 15.4142 12.5858 15.75 13 15.75V15V14.25ZM15 15.75C15.4142 15.75 15.75 15.4142 15.75 15C15.75 14.5858 15.4142 14.25 15 14.25V15V15.75ZM5 21H5.75V5H5H4.25V21H5ZM5 5H5.75C5.75 4.30964 6.30964 3.75 7 3.75V3V2.25C5.48122 2.25 4.25 3.48122 4.25 5H5ZM7 3V3.75H17V3V2.25H7V3ZM17 3V3.75C17.6904 3.75 18.25 4.30964 18.25 5H19H19.75C19.75 3.48122 18.5188 2.25 17 2.25V3ZM19 5H18.25V21H19H19.75V5H19ZM19 21L19.416 20.376L16.416 18.376L16 19L15.584 19.624L18.584 21.624L19 21ZM16 19L15.4697 18.4697L13.4697 20.4697L14 21L14.5303 21.5303L16.5303 19.5303L16 19ZM14 21L14.5303 20.4697L12.5303 18.4697L12 19L11.4697 19.5303L13.4697 21.5303L14 21ZM12 19L11.4697 18.4697L9.46967 20.4697L10 21L10.5303 21.5303L12.5303 19.5303L12 19ZM10 21L10.5303 20.4697L8.53033 18.4697L8 19L7.46967 19.5303L9.46967 21.5303L10 21ZM8 19L7.58397 18.376L4.58397 20.376L5 21L5.41603 21.624L8.41603 19.624L8 19ZM9 7V7.75H15V7V6.25H9V7ZM9 11V11.75H15V11V10.25H9V11ZM13 15V15.75H15V15V14.25H13V15Z" fill="#2F2B3D" fill-opacity="0.9"/>
</svg>
