<svg width="24" height="24" viewBox="0 0 24 24" fill="none" xmlns="http://www.w3.org/2000/svg">
<path d="M12.5303 17.5303C12.8232 17.2374 12.8232 16.7626 12.5303 16.4697C12.2374 16.1768 11.7626 16.1768 11.4697 16.4697L12 17L12.5303 17.5303ZM10 19L9.46967 18.4697C9.17678 18.7626 9.17678 19.2374 9.46967 19.5303L10 19ZM11.4697 21.5303C11.7626 21.8232 12.2374 21.8232 12.5303 21.5303C12.8232 21.2374 12.8232 20.7626 12.5303 20.4697L12 21L11.4697 21.5303ZM10 18.25C9.58579 18.25 9.25 18.5858 9.25 19C9.25 19.4142 9.58579 19.75 10 19.75V19V18.25ZM19 19V19.75C19.0129 19.75 19.0258 19.7497 19.0386 19.749L19 19ZM20.75 16.25L21.4449 15.9678C21.4339 15.9406 21.4213 15.9142 21.4072 15.8886L20.75 16.25ZM20.8572 14.8886C20.6575 14.5256 20.2015 14.3932 19.8386 14.5928C19.4756 14.7925 19.3432 15.2485 19.5428 15.6114L20.2 15.25L20.8572 14.8886ZM12 17L11.4697 16.4697L9.46967 18.4697L10 19L10.5303 19.5303L12.5303 17.5303L12 17ZM10 19L9.46967 19.5303L11.4697 21.5303L12 21L12.5303 20.4697L10.5303 18.4697L10 19ZM10 19V19.75H19V19V18.25H10V19ZM19 19L19.0386 19.749C19.9275 19.7032 20.7392 19.23 21.2171 18.4791L20.5843 18.0764L19.9516 17.6737C19.7344 18.0151 19.3654 18.2302 18.9614 18.251L19 19ZM20.5843 18.0764L21.2171 18.4791C21.695 17.7281 21.7798 16.7924 21.4449 15.9678L20.75 16.25L20.0551 16.5322C20.2074 16.9071 20.1688 17.3324 19.9516 17.6737L20.5843 18.0764ZM20.75 16.25L21.4072 15.8886L20.8572 14.8886L20.2 15.25L19.5428 15.6114L20.0928 16.6114L20.75 16.25Z" fill="#2F2B3D" fill-opacity="0.9"/>
<path d="M7.81143 11.194C7.91864 11.5941 8.32989 11.8315 8.72999 11.7243C9.13009 11.6171 9.36753 11.2059 9.26032 10.8058L8.53588 10.9999L7.81143 11.194ZM7.80383 8.26784L8.52827 8.07373C8.42107 7.67363 8.00981 7.43619 7.60971 7.5434L7.80383 8.26784ZM4.87766 8.27545C4.47756 8.38265 4.24013 8.79391 4.34733 9.19401C4.45454 9.5941 4.86579 9.83154 5.26589 9.72434L5.07178 8.99989L4.87766 8.27545ZM8.45331 8.64284C8.66041 8.28412 8.53751 7.82543 8.17879 7.61832C7.82007 7.41121 7.36137 7.53412 7.15427 7.89284L7.80379 8.26784L8.45331 8.64284ZM3.30379 16.0621L2.65427 15.6871C2.64783 15.6982 2.64168 15.7095 2.63582 15.721L3.30379 16.0621ZM4.81036 18.9526L4.70735 19.6955C4.73634 19.6995 4.76553 19.7018 4.79479 19.7025L4.81036 18.9526ZM5.93582 19.7261C6.34994 19.7347 6.69262 19.406 6.70122 18.9919C6.70982 18.5777 6.38107 18.2351 5.96695 18.2265L5.95138 18.9763L5.93582 19.7261ZM8.53588 10.9999L9.26032 10.8058L8.52827 8.07373L7.80383 8.26784L7.07938 8.46195L7.81143 11.194L8.53588 10.9999ZM7.80383 8.26784L7.60971 7.5434L4.87766 8.27545L5.07178 8.99989L5.26589 9.72434L7.99794 8.99228L7.80383 8.26784ZM7.80379 8.26784L7.15427 7.89284L2.65427 15.6871L3.30379 16.0621L3.95331 16.4371L8.45331 8.64284L7.80379 8.26784ZM3.30379 16.0621L2.63582 15.721C2.23107 16.5137 2.235 17.4533 2.64639 18.2426L3.31147 17.896L3.97655 17.5493C3.78956 17.1905 3.78777 16.7635 3.97175 16.4031L3.30379 16.0621ZM3.31147 17.896L2.64639 18.2426C3.05777 19.0319 3.82572 19.5733 4.70735 19.6955L4.81036 18.9526L4.91336 18.2097C4.51262 18.1542 4.16355 17.9081 3.97655 17.5493L3.31147 17.896ZM4.81036 18.9526L4.79479 19.7025L5.93582 19.7261L5.95138 18.9763L5.96695 18.2265L4.82592 18.2028L4.81036 18.9526Z" fill="#2F2B3D" fill-opacity="0.9"/>
<path d="M15.6582 10.2754C15.2581 10.1682 14.8469 10.4057 14.7397 10.8058C14.6325 11.2059 14.8699 11.6171 15.27 11.7243L15.4641 10.9999L15.6582 10.2754ZM18.1962 11.7319L18.002 12.4564C18.4021 12.5636 18.8134 12.3261 18.9206 11.926L18.1962 11.7319ZM19.6527 9.194C19.7599 8.7939 19.5224 8.38265 19.1223 8.27544C18.7222 8.16823 18.311 8.40567 18.2038 8.80577L18.9282 8.99988L19.6527 9.194ZM17.5467 12.1069C17.7538 12.4657 18.2125 12.5886 18.5712 12.3815C18.9299 12.1743 19.0528 11.7157 18.8457 11.3569L18.1962 11.7319L17.5467 12.1069ZM13.6962 3.93771L14.3457 3.56271C14.3393 3.55155 14.3326 3.54057 14.3256 3.52976L13.6962 3.93771ZM10.4396 3.79716L9.84777 3.33651C9.8298 3.3596 9.81319 3.38373 9.79804 3.40876L10.4396 3.79716ZM9.20701 4.38508C8.99251 4.73942 9.10587 5.20056 9.46021 5.41507C9.81455 5.62958 10.2757 5.51622 10.4902 5.16187L9.84861 4.77347L9.20701 4.38508ZM15.4641 10.9999L15.27 11.7243L18.002 12.4564L18.1962 11.7319L18.3903 11.0075L15.6582 10.2754L15.4641 10.9999ZM18.1962 11.7319L18.9206 11.926L19.6527 9.194L18.9282 8.99988L18.2038 8.80577L17.4717 11.5378L18.1962 11.7319ZM18.1962 11.7319L18.8457 11.3569L14.3457 3.56271L13.6962 3.93771L13.0467 4.31271L17.5467 12.1069L18.1962 11.7319ZM13.6962 3.93771L14.3256 3.52976C13.8414 2.78288 13.0257 2.31649 12.1365 2.27811L12.1042 3.02742L12.0718 3.77672C12.476 3.79416 12.8468 4.00616 13.0669 4.34565L13.6962 3.93771ZM12.1042 3.02742L12.1365 2.27811C11.2473 2.23974 10.3944 2.63411 9.84777 3.33651L10.4396 3.79716L11.0315 4.25781C11.28 3.93854 11.6676 3.75928 12.0718 3.77672L12.1042 3.02742ZM10.4396 3.79716L9.79804 3.40876L9.20701 4.38508L9.84861 4.77347L10.4902 5.16187L11.0812 4.18556L10.4396 3.79716Z" fill="#2F2B3D" fill-opacity="0.9"/>
</svg>
