<svg width="24" height="24" viewBox="0 0 24 24" fill="none" xmlns="http://www.w3.org/2000/svg">
<path d="M19.2571 11.1033C19.3142 11.5136 19.693 11.8 20.1032 11.7429C20.5135 11.6859 20.7999 11.3071 20.7429 10.8968L20 11.0001L19.2571 11.1033ZM3.80768 8.71166C3.64838 9.09402 3.82922 9.53311 4.21158 9.6924C4.59394 9.85169 5.03303 9.67086 5.19232 9.2885L4.5 9.00008L3.80768 8.71166ZM4.75 5.00012C4.75 4.58591 4.41421 4.25012 4 4.25012C3.58579 4.25012 3.25 4.58591 3.25 5.00012H4H4.75ZM4 9.00012H3.25C3.25 9.41434 3.58579 9.75012 4 9.75012V9.00012ZM8 9.75012C8.41421 9.75012 8.75 9.41434 8.75 9.00012C8.75 8.58591 8.41421 8.25012 8 8.25012V9.00012V9.75012ZM20 11.0001L20.7429 10.8968C20.1936 6.94443 17.0672 3.84845 13.1096 3.3378L13.0137 4.08163L12.9177 4.82547C16.2045 5.24957 18.801 7.8208 19.2571 11.1033L20 11.0001ZM13.0137 4.08163L13.1096 3.3378C9.15206 2.82714 5.34223 5.02813 3.80768 8.71166L4.5 9.00008L5.19232 9.2885C6.46679 6.2293 9.63088 4.40136 12.9177 4.82547L13.0137 4.08163ZM4 5.00012H3.25V9.00012H4H4.75V5.00012H4ZM4 9.00012V9.75012H8V9.00012V8.25012H4V9.00012Z" fill="#2F2B3D" fill-opacity="0.9"/>
<path d="M4.74286 12.8968C4.68584 12.4865 4.30703 12.2001 3.89676 12.2571C3.48649 12.3142 3.20012 12.693 3.25714 13.1032L4 13L4.74286 12.8968ZM20.1923 15.2884C20.3516 14.9061 20.1708 14.467 19.7884 14.3077C19.4061 14.1484 18.967 14.3292 18.8077 14.7116L19.5 15L20.1923 15.2884ZM19.25 19C19.25 19.4142 19.5858 19.75 20 19.75C20.4142 19.75 20.75 19.4142 20.75 19H20H19.25ZM20 15H20.75C20.75 14.5858 20.4142 14.25 20 14.25V15ZM16 14.25C15.5858 14.25 15.25 14.5858 15.25 15C15.25 15.4142 15.5858 15.75 16 15.75V15V14.25ZM4 13L3.25714 13.1032C3.80641 17.0556 6.93276 20.1516 10.8904 20.6623L10.9863 19.9184L11.0823 19.1746C7.7955 18.7505 5.19904 16.1793 4.74286 12.8968L4 13ZM10.9863 19.9184L10.8904 20.6623C14.8479 21.1729 18.6578 18.972 20.1923 15.2884L19.5 15L18.8077 14.7116C17.5332 17.7708 14.3691 19.5987 11.0823 19.1746L10.9863 19.9184ZM20 19H20.75V15H20H19.25V19H20ZM20 15V14.25H16V15V15.75H20V15Z" fill="#2F2B3D" fill-opacity="0.9"/>
<circle cx="12" cy="12" r="1" stroke="#2F2B3D" stroke-opacity="0.9" stroke-width="1.5" stroke-linecap="round" stroke-linejoin="round"/>
</svg>
