<svg width="24" height="24" viewBox="0 0 24 24" fill="none" xmlns="http://www.w3.org/2000/svg">
<path d="M3.25 12C3.25 12.4142 3.58579 12.75 4 12.75C4.41421 12.75 4.75 12.4142 4.75 12H4H3.25ZM20 6.75C20.4142 6.75 20.75 6.41421 20.75 6C20.75 5.58579 20.4142 5.25 20 5.25V6V6.75ZM17.5303 2.46967C17.2374 2.17678 16.7626 2.17678 16.4697 2.46967C16.1768 2.76256 16.1768 3.23744 16.4697 3.53033L17 3L17.5303 2.46967ZM20 6L20.5303 6.53033C20.8232 6.23744 20.8232 5.76256 20.5303 5.46967L20 6ZM16.4697 8.46967C16.1768 8.76256 16.1768 9.23744 16.4697 9.53033C16.7626 9.82322 17.2374 9.82322 17.5303 9.53033L17 9L16.4697 8.46967ZM4 12H4.75V9H4H3.25V12H4ZM4 9H4.75C4.75 7.75736 5.75736 6.75 7 6.75V6V5.25C4.92893 5.25 3.25 6.92893 3.25 9H4ZM7 6V6.75H20V6V5.25H7V6ZM17 3L16.4697 3.53033L19.4697 6.53033L20 6L20.5303 5.46967L17.5303 2.46967L17 3ZM20 6L19.4697 5.46967L16.4697 8.46967L17 9L17.5303 9.53033L20.5303 6.53033L20 6Z" fill="#2F2B3D" fill-opacity="0.9"/>
<path d="M20.75 12C20.75 11.5858 20.4142 11.25 20 11.25C19.5858 11.25 19.25 11.5858 19.25 12H20H20.75ZM4 17.25C3.58579 17.25 3.25 17.5858 3.25 18C3.25 18.4142 3.58579 18.75 4 18.75V18V17.25ZM6.46967 21.5303C6.76256 21.8232 7.23744 21.8232 7.53033 21.5303C7.82322 21.2374 7.82322 20.7626 7.53033 20.4697L7 21L6.46967 21.5303ZM4 18L3.46967 17.4697C3.17678 17.7626 3.17678 18.2374 3.46967 18.5303L4 18ZM7.53033 15.5303C7.82322 15.2374 7.82322 14.7626 7.53033 14.4697C7.23744 14.1768 6.76256 14.1768 6.46967 14.4697L7 15L7.53033 15.5303ZM20 12H19.25V15H20H20.75V12H20ZM20 15H19.25C19.25 16.2426 18.2426 17.25 17 17.25V18V18.75C19.0711 18.75 20.75 17.0711 20.75 15H20ZM17 18V17.25H4V18V18.75H17V18ZM7 21L7.53033 20.4697L4.53033 17.4697L4 18L3.46967 18.5303L6.46967 21.5303L7 21ZM4 18L4.53033 18.5303L7.53033 15.5303L7 15L6.46967 14.4697L3.46967 17.4697L4 18Z" fill="#2F2B3D" fill-opacity="0.9"/>
<path d="M11 11L12 10V14" stroke="#2F2B3D" stroke-opacity="0.9" stroke-width="1.5" stroke-linecap="round" stroke-linejoin="round"/>
</svg>
