<svg width="24" height="24" viewBox="0 0 24 24" fill="none" xmlns="http://www.w3.org/2000/svg">
<path d="M9.56046 3.47926C9.26757 3.77216 9.26757 4.24703 9.56046 4.53992C9.85336 4.83282 10.3282 4.83282 10.6211 4.53992L10.0908 4.00959L9.56046 3.47926ZM7.05023 7.05015L7.58056 7.58048C7.79506 7.36598 7.85923 7.0434 7.74314 6.76314C7.62706 6.48288 7.35358 6.30015 7.05023 6.30015V7.05015ZM3.06215 6.30015C2.64794 6.30015 2.31215 6.63594 2.31215 7.05015C2.31215 7.46437 2.64794 7.80015 3.06215 7.80015L3.06215 7.05015L3.06215 6.30015ZM6.30019 11.0382C6.30019 11.4524 6.63598 11.7882 7.05019 11.7882C7.46441 11.7882 7.80019 11.4524 7.80019 11.0382H7.05019L6.30019 11.0382ZM7.80019 7.05015C7.80019 6.63593 7.46441 6.30015 7.05019 6.30015C6.63598 6.30015 6.30019 6.63594 6.30019 7.05015L7.05019 7.05015H7.80019ZM10.0908 4.00959L10.6211 4.53992L11.1161 4.04495L10.5858 3.51462L10.0554 2.98429L9.56046 3.47926L10.0908 4.00959ZM10.5858 3.51462L11.1161 4.04495C11.6043 3.55679 12.3957 3.55679 12.8839 4.04495L13.4142 3.51462L13.9445 2.98429C12.8706 1.91035 11.1294 1.91035 10.0554 2.98429L10.5858 3.51462ZM13.4142 3.51462L12.8839 4.04495L19.9549 11.116L20.4853 10.5857L21.0156 10.0554L13.9445 2.98429L13.4142 3.51462ZM20.4853 10.5857L19.9549 11.116C20.4431 11.6042 20.4431 12.3956 19.9549 12.8838L20.4853 13.4141L21.0156 13.9444C22.0895 12.8705 22.0895 11.1293 21.0156 10.0554L20.4853 10.5857ZM20.4853 13.4141L19.9549 12.8838L12.8839 19.9549L13.4142 20.4852L13.9445 21.0155L21.0156 13.9444L20.4853 13.4141ZM13.4142 20.4852L12.8839 19.9549C12.3957 20.443 11.6043 20.443 11.1161 19.9549L10.5858 20.4852L10.0554 21.0155C11.1294 22.0895 12.8706 22.0895 13.9445 21.0155L13.4142 20.4852ZM10.5858 20.4852L11.1161 19.9549L4.04503 12.8838L3.5147 13.4141L2.98437 13.9444L10.0554 21.0155L10.5858 20.4852ZM3.5147 13.4141L4.04503 12.8838C3.55687 12.3956 3.55687 11.6042 4.04503 11.116L3.5147 10.5857L2.98437 10.0554C1.91043 11.1293 1.91043 12.8705 2.98437 13.9444L3.5147 13.4141ZM3.5147 10.5857L4.04503 11.116L7.58056 7.58048L7.05023 7.05015L6.5199 6.51982L2.98437 10.0554L3.5147 10.5857ZM7.05023 7.05015V6.30015L3.06215 6.30015L3.06215 7.05015L3.06215 7.80015L7.05023 7.80015V7.05015ZM7.05019 11.0382H7.80019V7.05015H7.05019L6.30019 7.05015V11.0382L7.05019 11.0382Z" fill="#2F2B3D" fill-opacity="0.9"/>
</svg>
