<svg width="24" height="24" viewBox="0 0 24 24" fill="none" xmlns="http://www.w3.org/2000/svg">
<path d="M3.30641 10.9023C3.25258 11.313 3.54187 11.6896 3.95257 11.7435C4.36327 11.7973 4.73985 11.508 4.79369 11.0973L4.05005 10.9998L3.30641 10.9023ZM5.24681 14.7223C5.09354 14.3375 4.65734 14.1498 4.27252 14.3031C3.88771 14.4563 3.70001 14.8925 3.85329 15.2773L4.55005 14.9998L5.24681 14.7223ZM3.30005 19.9999C3.30005 20.4141 3.63584 20.7499 4.05005 20.7499C4.46426 20.7499 4.80005 20.4141 4.80005 19.9999H4.05005H3.30005ZM4.05005 14.9999V14.2499C3.63584 14.2499 3.30005 14.5857 3.30005 14.9999H4.05005ZM9.05005 15.7499C9.46426 15.7499 9.80005 15.4141 9.80005 14.9999C9.80005 14.5857 9.46426 14.2499 9.05005 14.2499V14.9999V15.7499ZM4.05005 10.9998L4.79369 11.0973C5.26782 7.48015 8.3558 4.77868 12.0039 4.78958L12.0061 4.03959L12.0084 3.28959C7.60552 3.27643 3.87863 6.53683 3.30641 10.9023L4.05005 10.9998ZM12.0061 4.03959L12.0039 4.78958C15.6519 4.80049 18.7237 7.52038 19.1762 11.1403L19.9204 11.0473L20.6646 10.9542C20.1185 6.58538 16.4112 3.30276 12.0084 3.28959L12.0061 4.03959ZM19.9204 11.0473L19.1762 11.1403C19.6287 14.7602 17.321 18.1525 13.7878 19.0611L13.9746 19.7875L14.1614 20.5138C18.4255 19.4173 21.2107 15.3231 20.6646 10.9542L19.9204 11.0473ZM13.9746 19.7875L13.7878 19.0611C10.2547 19.9697 6.59673 18.1114 5.24681 14.7223L4.55005 14.9998L3.85329 15.2773C5.48249 19.3677 9.89726 21.6104 14.1614 20.5138L13.9746 19.7875ZM4.05005 19.9999H4.80005V14.9999H4.05005H3.30005V19.9999H4.05005ZM4.05005 14.9999V15.7499H9.05005V14.9999V14.2499H4.05005V14.9999Z" fill="#2F2B3D" fill-opacity="0.9"/>
</svg>
