<svg width="24" height="24" viewBox="0 0 24 24" fill="none" xmlns="http://www.w3.org/2000/svg">
<path d="M19.2064 11.0973C19.2603 11.508 19.6368 11.7973 20.0475 11.7435C20.4582 11.6896 20.7475 11.313 20.6937 10.9023L19.9501 10.9998L19.2064 11.0973ZM20.1468 15.2773C20.3001 14.8925 20.1124 14.4563 19.7276 14.3031C19.3428 14.1498 18.9066 14.3375 18.7533 14.7223L19.4501 14.9998L20.1468 15.2773ZM19.2 19.9999C19.2 20.4141 19.5357 20.7499 19.95 20.7499C20.3642 20.7499 20.7 20.4141 20.7 19.9999H19.95H19.2ZM19.95 14.9999H20.7C20.7 14.5857 20.3642 14.2499 19.95 14.2499V14.9999ZM14.95 14.2499C14.5357 14.2499 14.2 14.5857 14.2 14.9999C14.2 15.4141 14.5357 15.7499 14.95 15.7499V14.9999V14.2499ZM19.9501 10.9998L20.6937 10.9023C20.1215 6.53683 16.3946 3.27643 11.9917 3.28959L11.994 4.03959L11.9962 4.78958C15.6443 4.77868 18.7323 7.48015 19.2064 11.0973L19.9501 10.9998ZM11.994 4.03959L11.9917 3.28959C7.5889 3.30276 3.88159 6.58538 3.33548 10.9542L4.07969 11.0473L4.8239 11.1403C5.27639 7.52038 8.34816 4.80049 11.9962 4.78958L11.994 4.03959ZM4.07969 11.0473L3.33548 10.9542C2.78937 15.3231 5.57459 19.4173 9.83872 20.5138L10.0255 19.7875L10.2123 19.0611C6.67916 18.1525 4.37141 14.7602 4.8239 11.1403L4.07969 11.0473ZM10.0255 19.7875L9.83872 20.5138C14.1028 21.6104 18.5176 19.3677 20.1468 15.2773L19.4501 14.9998L18.7533 14.7223C17.4034 18.1114 13.7454 19.9697 10.2123 19.0611L10.0255 19.7875ZM19.95 19.9999H20.7V14.9999H19.95H19.2V19.9999H19.95ZM19.95 14.9999V14.2499H14.95V14.9999V15.7499H19.95V14.9999Z" fill="#2F2B3D" fill-opacity="0.9"/>
</svg>
