<svg width="24" height="24" viewBox="0 0 24 24" fill="none" xmlns="http://www.w3.org/2000/svg">
<path d="M14.7199 5.24574C15.1041 5.40046 15.541 5.21441 15.6957 4.83018C15.8505 4.44595 15.6644 4.00904 15.2802 3.85432L15 4.55003L14.7199 5.24574ZM8.71988 20.1457C9.10411 20.3005 9.54102 20.1144 9.69574 19.7302C9.85046 19.346 9.66441 18.909 9.28018 18.7543L9.00003 19.45L8.71988 20.1457ZM9.75 15C9.75 14.5858 9.41421 14.25 9 14.25C8.58579 14.25 8.25 14.5858 8.25 15H9H9.75ZM9 20V20.75C9.41421 20.75 9.75 20.4142 9.75 20H9ZM4 19.25C3.58579 19.25 3.25 19.5858 3.25 20C3.25 20.4142 3.58579 20.75 4 20.75V20V19.25ZM15 4.55003L15.2802 3.85432C10.7814 2.04274 5.66589 4.22112 3.85432 8.71988L4.55003 9.00003L5.24574 9.28018C6.74787 5.54989 10.9896 3.74361 14.7199 5.24574L15 4.55003ZM4.55003 9.00003L3.85432 8.71988C2.04274 13.2186 4.22112 18.3342 8.71988 20.1457L9.00003 19.45L9.28018 18.7543C5.54989 17.2522 3.74361 13.0105 5.24574 9.28018L4.55003 9.00003ZM9 15H8.25V20H9H9.75V15H9ZM9 20V19.25H4V20V20.75H9V20Z" fill="#2F2B3D" fill-opacity="0.9"/>
<path d="M18.37 7.16004V7.17004" stroke="#2F2B3D" stroke-opacity="0.9" stroke-width="1.5" stroke-linecap="round" stroke-linejoin="round"/>
<path d="M13 19.9398V19.9498" stroke="#2F2B3D" stroke-opacity="0.9" stroke-width="1.5" stroke-linecap="round" stroke-linejoin="round"/>
<path d="M16.84 18.37V18.38" stroke="#2F2B3D" stroke-opacity="0.9" stroke-width="1.5" stroke-linecap="round" stroke-linejoin="round"/>
<path d="M19.37 15.1V15.11" stroke="#2F2B3D" stroke-opacity="0.9" stroke-width="1.5" stroke-linecap="round" stroke-linejoin="round"/>
<path d="M19.9399 10.9999V11.0099" stroke="#2F2B3D" stroke-opacity="0.9" stroke-width="1.5" stroke-linecap="round" stroke-linejoin="round"/>
</svg>
