<svg width="24" height="24" viewBox="0 0 24 24" fill="none" xmlns="http://www.w3.org/2000/svg">
<path d="M12 12.9999V13.0099" stroke="#2F2B3D" stroke-opacity="0.9" stroke-width="1.5" stroke-linecap="round" stroke-linejoin="round"/>
<path d="M10 15.9999V16.0099" stroke="#2F2B3D" stroke-opacity="0.9" stroke-width="1.5" stroke-linecap="round" stroke-linejoin="round"/>
<path d="M14 15.9999V16.0099" stroke="#2F2B3D" stroke-opacity="0.9" stroke-width="1.5" stroke-linecap="round" stroke-linejoin="round"/>
<path fill-rule="evenodd" clip-rule="evenodd" d="M7.5 8H16.5L16.219 5.752C16.0939 4.75095 15.2428 3.99978 14.234 4H9.766C8.75678 3.99928 7.90514 4.75057 7.78 5.752L7.5 8H7.5Z" stroke="#2F2B3D" stroke-opacity="0.9" stroke-width="1.5" stroke-linecap="round" stroke-linejoin="round"/>
<path d="M7.49998 8L5.88798 17.671C5.79126 18.251 5.95464 18.8441 6.33471 19.2928C6.71477 19.7414 7.273 20.0001 7.86098 20H16.139C16.727 20.0001 17.2852 19.7414 17.6653 19.2928C18.0453 18.8441 18.2087 18.251 18.112 17.671L16.5 8" stroke="#2F2B3D" stroke-opacity="0.9" stroke-width="1.5" stroke-linecap="round" stroke-linejoin="round"/>
</svg>
