<svg width="24" height="24" viewBox="0 0 24 24" fill="none" xmlns="http://www.w3.org/2000/svg">
<path fill-rule="evenodd" clip-rule="evenodd" d="M3.70697 6.29285L6.29297 3.70685C6.68347 3.31647 7.31647 3.31647 7.70697 3.70685L13.293 9.29285C13.6834 9.68335 13.6834 10.3163 13.293 10.7068L10.707 13.2928C10.3165 13.6832 9.68347 13.6832 9.29297 13.2928L3.70697 7.70685C3.31659 7.31635 3.31659 6.68335 3.70697 6.29285Z" stroke="#2F2B3D" stroke-opacity="0.9" stroke-width="1.5" stroke-linecap="round" stroke-linejoin="round"/>
<path d="M6 10L3 13L6 16L9 13" stroke="#2F2B3D" stroke-opacity="0.9" stroke-width="1.5" stroke-linecap="round" stroke-linejoin="round"/>
<path d="M10 6L13 3L16 6L13 9" stroke="#2F2B3D" stroke-opacity="0.9" stroke-width="1.5" stroke-linecap="round" stroke-linejoin="round"/>
<path d="M12 12L13.5 13.5" stroke="#2F2B3D" stroke-opacity="0.9" stroke-width="1.5" stroke-linecap="round" stroke-linejoin="round"/>
<path d="M14.5 17C15.8807 17 17 15.8807 17 14.5" stroke="#2F2B3D" stroke-opacity="0.9" stroke-width="1.5" stroke-linecap="round" stroke-linejoin="round"/>
<path d="M15 21C18.3137 21 21 18.3137 21 15" stroke="#2F2B3D" stroke-opacity="0.9" stroke-width="1.5" stroke-linecap="round" stroke-linejoin="round"/>
</svg>
