<svg width="24" height="24" viewBox="0 0 24 24" fill="none" xmlns="http://www.w3.org/2000/svg">
<path fill-rule="evenodd" clip-rule="evenodd" d="M5.5 5.5C4.11929 5.5 3 6.61929 3 8C3 15.18 8.82 21 16 21C17.3807 21 18.5 19.8807 18.5 18.5C18.5 17.1193 17.3807 16 16 16C11.5817 16 8 12.4183 8 8C8 6.61929 6.88071 5.5 5.5 5.5Z" stroke="#2F2B3D" stroke-opacity="0.9" stroke-width="1.5" stroke-linecap="round" stroke-linejoin="round"/>
<path d="M5.19505 5.519L3.95205 3.53C3.75938 3.22173 3.74918 2.83319 3.92541 2.51523C4.10163 2.19728 4.43653 2 4.80005 2H6.19205C6.55558 2 6.89047 2.19728 7.0667 2.51523C7.24292 2.83319 7.23272 3.22173 7.04005 3.53L5.79505 5.52" stroke="#2F2B3D" stroke-opacity="0.9" stroke-width="1.5" stroke-linecap="round" stroke-linejoin="round"/>
<path d="M18.482 18.2251L20.471 16.9821C20.7792 16.7894 21.1678 16.7792 21.4857 16.9554C21.8037 17.1317 22.001 17.4666 22.001 17.8301V19.2221C22.001 19.5856 21.8037 19.9205 21.4857 20.0967C21.1678 20.273 20.7792 20.2627 20.471 20.0701L18.48 18.8251" stroke="#2F2B3D" stroke-opacity="0.9" stroke-width="1.5" stroke-linecap="round" stroke-linejoin="round"/>
</svg>
