<svg width="24" height="24" viewBox="0 0 24 24" fill="none" xmlns="http://www.w3.org/2000/svg">
<path d="M21 12V15C21 15.5523 20.5523 16 20 16H4C3.44772 16 3 15.5523 3 15V5C3 4.44772 3.44772 4 4 4H13" stroke="#2F2B3D" stroke-opacity="0.9" stroke-width="1.5" stroke-linecap="round" stroke-linejoin="round"/>
<path d="M7 20H17" stroke="#2F2B3D" stroke-opacity="0.9" stroke-width="1.5" stroke-linecap="round" stroke-linejoin="round"/>
<path d="M9 16V20" stroke="#2F2B3D" stroke-opacity="0.9" stroke-width="1.5" stroke-linecap="round" stroke-linejoin="round"/>
<path d="M15 16V20" stroke="#2F2B3D" stroke-opacity="0.9" stroke-width="1.5" stroke-linecap="round" stroke-linejoin="round"/>
<path d="M16.4697 7.46967C16.1768 7.76256 16.1768 8.23744 16.4697 8.53033C16.7626 8.82322 17.2374 8.82322 17.5303 8.53033L17 8L16.4697 7.46967ZM21.5303 4.53033C21.8232 4.23744 21.8232 3.76256 21.5303 3.46967C21.2374 3.17678 20.7626 3.17678 20.4697 3.46967L21 4L21.5303 4.53033ZM17.5303 3.46967C17.2374 3.17678 16.7626 3.17678 16.4697 3.46967C16.1768 3.76256 16.1768 4.23744 16.4697 4.53033L17 4L17.5303 3.46967ZM20.4697 8.53033C20.7626 8.82322 21.2374 8.82322 21.5303 8.53033C21.8232 8.23744 21.8232 7.76256 21.5303 7.46967L21 8L20.4697 8.53033ZM17 8L17.5303 8.53033L21.5303 4.53033L21 4L20.4697 3.46967L16.4697 7.46967L17 8ZM17 4L16.4697 4.53033L20.4697 8.53033L21 8L21.5303 7.46967L17.5303 3.46967L17 4Z" fill="#2F2B3D" fill-opacity="0.9"/>
</svg>
