<svg width="24" height="24" viewBox="0 0 24 24" fill="none" xmlns="http://www.w3.org/2000/svg">
<path fill-rule="evenodd" clip-rule="evenodd" d="M4 7H16C16.5523 7 17 7.44772 17 8V12.5C17 13.8807 15.8807 15 14.5 15H14C12.8954 15 12 14.1046 12 13C12 11.8954 11.1046 11 10 11C8.89543 11 8 11.8954 8 13C8 14.1046 7.10457 15 6 15H5.5C4.11929 15 3 13.8807 3 12.5V8C3 7.44772 3.44772 7 4 7Z" stroke="#2F2B3D" stroke-opacity="0.9" stroke-width="1.5" stroke-linecap="round" stroke-linejoin="round"/>
<path d="M10 17C10 18.1046 10.8954 19 12 19H15.5C18.5376 19 21 16.5376 21 13.5V4" stroke="#2F2B3D" stroke-opacity="0.9" stroke-width="1.5" stroke-linecap="round" stroke-linejoin="round"/>
</svg>
