<svg width="24" height="24" viewBox="0 0 24 24" fill="none" xmlns="http://www.w3.org/2000/svg">
<path d="M6.16863 6.16403C6.45912 5.86875 6.45523 5.3939 6.15995 5.10341C5.86467 4.81292 5.38982 4.81681 5.09933 5.11209L5.63398 5.63806L6.16863 6.16403ZM18.888 18.8997C19.1833 18.6092 19.1871 18.1343 18.8966 17.839C18.6061 17.5438 18.1312 17.5399 17.836 17.8305L18.362 18.3651L18.888 18.8997ZM19.3722 15.7075C19.1858 16.0774 19.3345 16.5284 19.7044 16.7148C20.0743 16.9012 20.5253 16.7524 20.7117 16.3825L20.0419 16.045L19.3722 15.7075ZM7.61853 3.2872C7.2486 3.47354 7.09977 3.92449 7.28611 4.29442C7.47245 4.66436 7.9234 4.81319 8.29333 4.62684L7.95593 3.95702L7.61853 3.2872ZM5.63398 5.63806L5.09933 5.11209C1.34473 8.92864 1.36993 15.0587 5.15578 18.8443L5.68609 18.3139L6.2164 17.7836C3.01299 14.5804 2.99166 9.39343 6.16863 6.16403L5.63398 5.63806ZM5.68609 18.3139L5.15578 18.8443C8.94164 22.6299 15.0717 22.6546 18.888 18.8997L18.362 18.3651L17.836 17.8305C14.6068 21.0077 9.41982 20.9868 6.2164 17.7836L5.68609 18.3139ZM20.0419 16.045L20.7117 16.3825C22.6052 12.625 21.8746 8.07666 18.8996 5.10116L18.3692 5.63144L17.8389 6.16173C20.3562 8.67947 20.9744 12.5281 19.3722 15.7075L20.0419 16.045ZM18.3692 5.63144L18.8996 5.10116C15.9246 2.12565 11.3764 1.39431 7.61853 3.2872L7.95593 3.95702L8.29333 4.62684C11.473 3.02517 15.3215 3.64399 17.8389 6.16173L18.3692 5.63144Z" fill="#2F2B3D" fill-opacity="0.9"/>
<path d="M16 12H18" stroke="#2F2B3D" stroke-opacity="0.9" stroke-width="1.5" stroke-linecap="round" stroke-linejoin="round"/>
<path d="M13 15H15" stroke="#2F2B3D" stroke-opacity="0.9" stroke-width="1.5" stroke-linecap="round" stroke-linejoin="round"/>
<path d="M13 18H14" stroke="#2F2B3D" stroke-opacity="0.9" stroke-width="1.5" stroke-linecap="round" stroke-linejoin="round"/>
<path d="M13 9H17" stroke="#2F2B3D" stroke-opacity="0.9" stroke-width="1.5" stroke-linecap="round" stroke-linejoin="round"/>
<path d="M13 6H14" stroke="#2F2B3D" stroke-opacity="0.9" stroke-width="1.5" stroke-linecap="round" stroke-linejoin="round"/>
<path d="M3 3L21 21" stroke="#2F2B3D" stroke-opacity="0.9" stroke-width="1.5" stroke-linecap="round" stroke-linejoin="round"/>
</svg>
