<svg width="24" height="24" viewBox="0 0 24 24" fill="none" xmlns="http://www.w3.org/2000/svg">
<circle cx="5" cy="5" r="2" stroke="#2F2B3D" stroke-opacity="0.9" stroke-width="1.5" stroke-linecap="round" stroke-linejoin="round"/>
<circle cx="19" cy="19" r="2" stroke="#2F2B3D" stroke-opacity="0.9" stroke-width="1.5" stroke-linecap="round" stroke-linejoin="round"/>
<circle cx="19" cy="5" r="2" stroke="#2F2B3D" stroke-opacity="0.9" stroke-width="1.5" stroke-linecap="round" stroke-linejoin="round"/>
<circle cx="5" cy="19" r="2" stroke="#2F2B3D" stroke-opacity="0.9" stroke-width="1.5" stroke-linecap="round" stroke-linejoin="round"/>
<path d="M7 4.25C6.58579 4.25 6.25 4.58579 6.25 5C6.25 5.41421 6.58579 5.75 7 5.75V5V4.25ZM17 5.75C17.4142 5.75 17.75 5.41421 17.75 5C17.75 4.58579 17.4142 4.25 17 4.25V5V5.75ZM5.75 7C5.75 6.58579 5.41421 6.25 5 6.25C4.58579 6.25 4.25 6.58579 4.25 7H5H5.75ZM4.25 17C4.25 17.4142 4.58579 17.75 5 17.75C5.41421 17.75 5.75 17.4142 5.75 17H5H4.25ZM19.75 7C19.75 6.58579 19.4142 6.25 19 6.25C18.5858 6.25 18.25 6.58579 18.25 7H19H19.75ZM18.25 17C18.25 17.4142 18.5858 17.75 19 17.75C19.4142 17.75 19.75 17.4142 19.75 17H19H18.25ZM7 5V5.75H17V5V4.25H7V5ZM5 7H4.25V17H5H5.75V7H5ZM19 7H18.25V17H19H19.75V7H19Z" fill="#2F2B3D" fill-opacity="0.9"/>
</svg>
