<svg width="24" height="24" viewBox="0 0 24 24" fill="none" xmlns="http://www.w3.org/2000/svg">
<path d="M3 3L21 21" stroke="#2F2B3D" stroke-opacity="0.9" stroke-width="1.5" stroke-linecap="round" stroke-linejoin="round"/>
<path d="M18.2117 18.1868C18.4976 17.8872 18.4866 17.4124 18.1869 17.1265C17.8873 16.8405 17.4125 16.8516 17.1265 17.1512L17.6691 17.669L18.2117 18.1868ZM12.0001 21L11.8118 21.726C11.9353 21.758 12.0649 21.758 12.1884 21.726L12.0001 21ZM3.5001 6.00002L3.53395 5.25079C3.18897 5.2352 2.87794 5.45719 2.78055 5.7885L3.5001 6.00002ZM5.98616 6.61435C6.39503 6.54805 6.67274 6.16284 6.60643 5.75397C6.54013 5.3451 6.15492 5.06739 5.74605 5.13369L5.86611 5.87402L5.98616 6.61435ZM8.65121 4.27762C8.27324 4.44706 8.10419 4.89082 8.27363 5.2688C8.44307 5.64677 8.88683 5.81582 9.26481 5.64638L8.95801 4.962L8.65121 4.27762ZM12 3L12.497 2.43828C12.2132 2.18725 11.7868 2.18724 11.5031 2.43825L12 3ZM20.5 6L21.2196 5.78844C21.1221 5.45699 20.8108 5.23499 20.4657 5.25078L20.5 6ZM18.7333 15.0044C18.5264 15.3632 18.6495 15.8218 19.0084 16.0287C19.3672 16.2356 19.8258 16.1125 20.0327 15.7536L19.383 15.379L18.7333 15.0044ZM17.6691 17.669L17.1265 17.1512C15.6803 18.6667 13.8396 19.7482 11.8118 20.274L12.0001 21L12.1884 21.726C14.4865 21.1301 16.5726 19.9043 18.2117 18.1868L17.6691 17.669ZM12.0001 21L12.1884 20.274C9.23964 19.5092 6.72711 17.5812 5.22522 14.9308L4.5727 15.3006L3.92018 15.6703C5.62232 18.6741 8.46986 20.8592 11.8118 21.726L12.0001 21ZM4.5727 15.3006L5.22522 14.9308C3.72333 12.2804 3.36049 9.13423 4.21966 6.21155L3.5001 6.00002L2.78055 5.7885C1.80683 9.10088 2.21804 12.6665 3.92018 15.6703L4.5727 15.3006ZM3.5001 6.00002L3.46626 6.74926C4.30793 6.78728 5.152 6.74962 5.98616 6.61435L5.86611 5.87402L5.74605 5.13369C5.02621 5.25043 4.28627 5.28477 3.53395 5.25079L3.5001 6.00002ZM8.95801 4.962L9.26481 5.64638C10.4414 5.11893 11.5312 4.41606 12.4969 3.56175L12 3L11.5031 2.43825C10.6509 3.19205 9.68937 3.81223 8.65121 4.27762L8.95801 4.962ZM12 3L11.503 3.56172C13.9849 5.75745 17.224 6.90069 20.5343 6.74922L20.5 6L20.4657 5.25078C17.5449 5.38444 14.6868 4.3757 12.497 2.43828L12 3ZM20.5 6L19.7805 6.21156C20.6481 9.16241 20.2696 12.3398 18.7333 15.0044L19.383 15.379L20.0327 15.7536C21.774 12.7338 22.2028 9.13275 21.2196 5.78844L20.5 6Z" fill="#2F2B3D" fill-opacity="0.9"/>
</svg>
