<svg width="24" height="24" viewBox="0 0 24 24" fill="none" xmlns="http://www.w3.org/2000/svg">
<path d="M12.0001 3C14.3359 5.06658 17.3846 6.14257 20.5001 6C21.4165 9.11753 21.0295 12.4734 19.4275 15.3005C17.8255 18.1276 15.1455 20.1842 12.0001 21C8.85475 20.1842 6.17472 18.1276 4.5727 15.3005C2.97069 12.4734 2.58366 9.11753 3.5001 6C6.61563 6.14257 9.66427 5.06658 12.0001 3" stroke="#2F2B3D" stroke-opacity="0.9" stroke-width="1.5" stroke-linecap="round" stroke-linejoin="round"/>
<path d="M10.5303 9.46967C10.2374 9.17678 9.76256 9.17678 9.46967 9.46967C9.17678 9.76256 9.17678 10.2374 9.46967 10.5303L10 10L10.5303 9.46967ZM13.4697 14.5303C13.7626 14.8232 14.2374 14.8232 14.5303 14.5303C14.8232 14.2374 14.8232 13.7626 14.5303 13.4697L14 14L13.4697 14.5303ZM14.5303 10.5303C14.8232 10.2374 14.8232 9.76256 14.5303 9.46967C14.2374 9.17678 13.7626 9.17678 13.4697 9.46967L14 10L14.5303 10.5303ZM9.46967 13.4697C9.17678 13.7626 9.17678 14.2374 9.46967 14.5303C9.76256 14.8232 10.2374 14.8232 10.5303 14.5303L10 14L9.46967 13.4697ZM10 10L9.46967 10.5303L13.4697 14.5303L14 14L14.5303 13.4697L10.5303 9.46967L10 10ZM14 10L13.4697 9.46967L9.46967 13.4697L10 14L10.5303 14.5303L14.5303 10.5303L14 10Z" fill="#2F2B3D" fill-opacity="0.9"/>
</svg>
