<svg width="24" height="24" viewBox="0 0 24 24" fill="none" xmlns="http://www.w3.org/2000/svg">
<path d="M2 20C2.46118 20.6425 3.20929 21.0166 4 21C4.79071 21.0166 5.53882 20.6425 6 20C6.46118 19.3575 7.20929 18.9835 8 19C8.79071 18.9835 9.53882 19.3575 10 20C10.4612 20.6425 11.2093 21.0166 12 21C12.7907 21.0166 13.5388 20.6425 14 20C14.4612 19.3575 15.2093 18.9835 16 19C16.7907 18.9835 17.5388 19.3575 18 20C18.4612 20.6425 19.2093 21.0166 20 21C20.7907 21.0166 21.5388 20.6425 22 20" stroke="#2F2B3D" stroke-opacity="0.9" stroke-width="1.5" stroke-linecap="round" stroke-linejoin="round"/>
<path d="M4 18L3 13H21L19 17" stroke="#2F2B3D" stroke-opacity="0.9" stroke-width="1.5" stroke-linecap="round" stroke-linejoin="round"/>
<path d="M5 13V7H13L17 13" stroke="#2F2B3D" stroke-opacity="0.9" stroke-width="1.5" stroke-linecap="round" stroke-linejoin="round"/>
<path d="M7 7V3H6" stroke="#2F2B3D" stroke-opacity="0.9" stroke-width="1.5" stroke-linecap="round" stroke-linejoin="round"/>
</svg>
