<svg width="24" height="24" viewBox="0 0 24 24" fill="none" xmlns="http://www.w3.org/2000/svg">
<path fill-rule="evenodd" clip-rule="evenodd" d="M4 6H9.426C9.78136 6.00025 10.1099 6.18907 10.289 6.496L11.353 8.319C11.7661 9.02743 12.4513 9.53586 13.249 9.726L17.926 10.84C19.7276 11.2687 20.9994 12.8781 21 14.73V17C21 17.5523 20.5523 18 20 18H4C3.44772 18 3 17.5523 3 17V7C3 6.44772 3.44772 6 4 6V6Z" stroke="#2F2B3D" stroke-opacity="0.9" stroke-width="1.5" stroke-linecap="round" stroke-linejoin="round"/>
<path d="M14 13L15 11" stroke="#2F2B3D" stroke-opacity="0.9" stroke-width="1.5" stroke-linecap="round" stroke-linejoin="round"/>
<path d="M8 18V17C8 14.7909 6.20914 13 4 13H3" stroke="#2F2B3D" stroke-opacity="0.9" stroke-width="1.5" stroke-linecap="round" stroke-linejoin="round"/>
<path d="M10 12L11.5 9" stroke="#2F2B3D" stroke-opacity="0.9" stroke-width="1.5" stroke-linecap="round" stroke-linejoin="round"/>
</svg>
