<svg width="24" height="24" viewBox="0 0 24 24" fill="none" xmlns="http://www.w3.org/2000/svg">
<circle cx="6" cy="19" r="2" stroke="#2F2B3D" stroke-opacity="0.9" stroke-width="1.5" stroke-linecap="round" stroke-linejoin="round"/>
<circle cx="17" cy="19" r="2" stroke="#2F2B3D" stroke-opacity="0.9" stroke-width="1.5" stroke-linecap="round" stroke-linejoin="round"/>
<path d="M17 17H6V3H4" stroke="#2F2B3D" stroke-opacity="0.9" stroke-width="1.5" stroke-linecap="round" stroke-linejoin="round"/>
<path d="M6.05344 4.25191C5.64028 4.22239 5.28142 4.5334 5.25191 4.94656C5.22239 5.35972 5.5334 5.71858 5.94656 5.74809L6 5L6.05344 4.25191ZM11.9516 6.17709C12.3647 6.20661 12.7236 5.8956 12.7531 5.48244C12.7826 5.06928 12.4716 4.71042 12.0584 4.68091L12.005 5.429L11.9516 6.17709ZM19.8854 12.1084C19.9442 11.6984 19.6594 11.3183 19.2494 11.2596C18.8394 11.2008 18.4593 11.4856 18.4006 11.8956L19.143 12.002L19.8854 12.1084ZM19 13V13.75C19.3731 13.75 19.6895 13.4757 19.7424 13.1064L19 13ZM6 12.25C5.58579 12.25 5.25 12.5858 5.25 13C5.25 13.4142 5.58579 13.75 6 13.75V13V12.25ZM6 5L5.94656 5.74809L11.9516 6.17709L12.005 5.429L12.0584 4.68091L6.05344 4.25191L6 5ZM19.143 12.002L18.4006 11.8956L18.2576 12.8936L19 13L19.7424 13.1064L19.8854 12.1084L19.143 12.002ZM19 13V12.25H6V13V13.75H19V13Z" fill="#2F2B3D" fill-opacity="0.9"/>
<path d="M15 5.25C14.5858 5.25 14.25 5.58579 14.25 6C14.25 6.41421 14.5858 6.75 15 6.75V6V5.25ZM21 6.75C21.4142 6.75 21.75 6.41421 21.75 6C21.75 5.58579 21.4142 5.25 21 5.25V6V6.75ZM18.75 3C18.75 2.58579 18.4142 2.25 18 2.25C17.5858 2.25 17.25 2.58579 17.25 3H18H18.75ZM17.25 9C17.25 9.41421 17.5858 9.75 18 9.75C18.4142 9.75 18.75 9.41421 18.75 9H18H17.25ZM15 6V6.75H21V6V5.25H15V6ZM18 3H17.25V9H18H18.75V3H18Z" fill="#2F2B3D" fill-opacity="0.9"/>
</svg>
