<svg width="24" height="24" viewBox="0 0 24 24" fill="none" xmlns="http://www.w3.org/2000/svg">
<circle cx="6" cy="19" r="2" stroke="#2F2B3D" stroke-opacity="0.9" stroke-width="1.5" stroke-linecap="round" stroke-linejoin="round"/>
<circle cx="17" cy="19" r="2" stroke="#2F2B3D" stroke-opacity="0.9" stroke-width="1.5" stroke-linecap="round" stroke-linejoin="round"/>
<path d="M17 17H6V3H4" stroke="#2F2B3D" stroke-opacity="0.9" stroke-width="1.5" stroke-linecap="round" stroke-linejoin="round"/>
<path d="M6.0534 4.25166C5.64024 4.22217 5.2814 4.53319 5.2519 4.94635C5.22241 5.35952 5.53344 5.71836 5.9466 5.74785L6 4.99976L6.0534 4.25166ZM13.9456 6.31885C14.3588 6.34835 14.7176 6.03732 14.7471 5.62416C14.7766 5.211 14.4656 4.85215 14.0524 4.82266L13.999 5.57076L13.9456 6.31885ZM20.1714 10.107C20.2301 9.697 19.9452 9.31704 19.5352 9.25839C19.1252 9.19973 18.7452 9.48459 18.6866 9.89463L19.429 10.0008L20.1714 10.107ZM19 12.9998V13.7498C19.3732 13.7498 19.6896 13.4755 19.7424 13.106L19 12.9998ZM6 12.2498C5.58579 12.2498 5.25 12.5856 5.25 12.9998C5.25 13.414 5.58579 13.7498 6 13.7498V12.9998V12.2498ZM6 4.99976L5.9466 5.74785L13.9456 6.31885L13.999 5.57076L14.0524 4.82266L6.0534 4.25166L6 4.99976ZM19.429 10.0008L18.6866 9.89463L18.2576 12.8936L19 12.9998L19.7424 13.106L20.1714 10.107L19.429 10.0008ZM19 12.9998V12.2498H6V12.9998V13.7498H19V12.9998Z" fill="#2F2B3D" fill-opacity="0.9"/>
<path d="M17 3L21 7" stroke="#2F2B3D" stroke-opacity="0.9" stroke-width="1.5" stroke-linecap="round" stroke-linejoin="round"/>
<path d="M21 3L17 7" stroke="#2F2B3D" stroke-opacity="0.9" stroke-width="1.5" stroke-linecap="round" stroke-linejoin="round"/>
</svg>
