<svg width="24" height="24" viewBox="0 0 24 24" fill="none" xmlns="http://www.w3.org/2000/svg">
<circle cx="6" cy="19" r="2" stroke="#2F2B3D" stroke-opacity="0.9" stroke-width="1.5" stroke-linecap="round" stroke-linejoin="round"/>
<path d="M17 17C15.8954 17 15 17.8954 15 19C15 20.1046 15.8954 21 17 21C18.1046 21 19 20.1046 19 19" stroke="#2F2B3D" stroke-opacity="0.9" stroke-width="1.5" stroke-linecap="round" stroke-linejoin="round"/>
<path d="M17 17H6V6" stroke="#2F2B3D" stroke-opacity="0.9" stroke-width="1.5" stroke-linecap="round" stroke-linejoin="round"/>
<path d="M9.29247 4.48286C8.87931 4.45334 8.52045 4.76434 8.49092 5.1775C8.4614 5.59066 8.77239 5.94952 9.18555 5.97905L9.23901 5.23096L9.29247 4.48286ZM20 5.99996L20.7425 6.10602C20.7719 5.90002 20.7144 5.69104 20.5838 5.52907C20.4531 5.3671 20.261 5.2667 20.0535 5.25186L20 5.99996ZM19 13V13.75C19.3733 13.75 19.6897 13.4755 19.7425 13.106L19 13ZM17 12.25C16.5858 12.25 16.25 12.5857 16.25 13C16.25 13.4142 16.5858 13.75 17 13.75V13V12.25ZM13 13.75C13.4142 13.75 13.75 13.4142 13.75 13C13.75 12.5858 13.4142 12.25 13 12.25V13V13.75ZM6 12.25C5.58579 12.25 5.25 12.5858 5.25 13C5.25 13.4142 5.58579 13.75 6 13.75V13V12.25ZM9.23901 5.23096L9.18555 5.97905L19.9466 6.74805L20 5.99996L20.0535 5.25186L9.29247 4.48286L9.23901 5.23096ZM20 5.99996L19.2576 5.89389L18.2576 12.8939L19 13L19.7425 13.106L20.7425 6.10602L20 5.99996ZM19 13V12.25H17V13V13.75H19V13ZM13 13V12.25H6V13V13.75H13V13Z" fill="#2F2B3D" fill-opacity="0.9"/>
<path d="M3 3L21 21" stroke="#2F2B3D" stroke-opacity="0.9" stroke-width="1.5" stroke-linecap="round" stroke-linejoin="round"/>
</svg>
