<svg width="24" height="24" viewBox="0 0 24 24" fill="none" xmlns="http://www.w3.org/2000/svg">
<rect x="4" y="10" width="16" height="5" rx="1" stroke="#2F2B3D" stroke-opacity="0.9" stroke-width="1.5" stroke-linecap="round" stroke-linejoin="round"/>
<path d="M16.25 10C16.25 10.4142 16.5858 10.75 17 10.75C17.4142 10.75 17.75 10.4142 17.75 10H17H16.25ZM6.25 10C6.25 10.4142 6.58579 10.75 7 10.75C7.41421 10.75 7.75 10.4142 7.75 10H7H6.25ZM12.75 15C12.75 14.5858 12.4142 14.25 12 14.25C11.5858 14.25 11.25 14.5858 11.25 15H12H12.75ZM11.25 20C11.25 20.4142 11.5858 20.75 12 20.75C12.4142 20.75 12.75 20.4142 12.75 20H12H11.25ZM16.75 15C16.75 14.5858 16.4142 14.25 16 14.25C15.5858 14.25 15.25 14.5858 15.25 15H16H16.75ZM15.25 17C15.25 17.4142 15.5858 17.75 16 17.75C16.4142 17.75 16.75 17.4142 16.75 17H16H15.25ZM8.75 15C8.75 14.5858 8.41421 14.25 8 14.25C7.58579 14.25 7.25 14.5858 7.25 15H8H8.75ZM7.25 18C7.25 18.4142 7.58579 18.75 8 18.75C8.41421 18.75 8.75 18.4142 8.75 18H8H7.25ZM17 10H17.75V6H17H16.25V10H17ZM17 6H17.75C17.75 4.48122 16.5188 3.25 15 3.25V4V4.75C15.6904 4.75 16.25 5.30964 16.25 6H17ZM15 4V3.25H9V4V4.75H15V4ZM9 4V3.25C7.48122 3.25 6.25 4.48122 6.25 6H7H7.75C7.75 5.30964 8.30964 4.75 9 4.75V4ZM7 6H6.25V10H7H7.75V6H7ZM12 15H11.25V20H12H12.75V15H12ZM16 15H15.25V17H16H16.75V15H16ZM8 15H7.25V18H8H8.75V15H8Z" fill="#2F2B3D" fill-opacity="0.9"/>
</svg>
