<svg width="24" height="24" viewBox="0 0 24 24" fill="none" xmlns="http://www.w3.org/2000/svg">
<path d="M8 13V17" stroke="#2F2B3D" stroke-opacity="0.9" stroke-width="1.5" stroke-linecap="round" stroke-linejoin="round"/>
<path d="M16 5V5.5C16 6.60457 16.8954 7.5 18 7.5C19.1046 7.5 20 8.39543 20 9.5V10" stroke="#2F2B3D" stroke-opacity="0.9" stroke-width="1.5" stroke-linecap="round" stroke-linejoin="round"/>
<path d="M3 3L21 21" stroke="#2F2B3D" stroke-opacity="0.9" stroke-width="1.5" stroke-linecap="round" stroke-linejoin="round"/>
<path d="M17 12.25C16.5858 12.25 16.25 12.5858 16.25 13C16.25 13.4142 16.5858 13.75 17 13.75V13V12.25ZM20.1755 16.1779C19.8794 16.4676 19.8742 16.9424 20.1639 17.2385C20.4536 17.5346 20.9284 17.5398 21.2245 17.2501L20.7 16.714L20.1755 16.1779ZM17 17.75C17.4142 17.75 17.75 17.4142 17.75 17C17.75 16.5858 17.4142 16.25 17 16.25V17V17.75ZM13 13.75C13.4142 13.75 13.75 13.4142 13.75 13C13.75 12.5858 13.4142 12.25 13 12.25V13V13.75ZM17 13V13.75H20V13V12.25H17V13ZM20 13V13.75C20.1381 13.75 20.25 13.8619 20.25 14H21H21.75C21.75 13.0335 20.9665 12.25 20 12.25V13ZM21 14H20.25V16H21H21.75V14H21ZM21 16H20.25C20.25 16.0705 20.2219 16.1325 20.1755 16.1779L20.7 16.714L21.2245 17.2501C21.5481 16.9335 21.75 16.4895 21.75 16H21ZM17 17V16.25H4V17V17.75H17V17ZM4 17V16.25C3.86193 16.25 3.75 16.1381 3.75 16H3H2.25C2.25 16.9665 3.0335 17.75 4 17.75V17ZM3 16H3.75V14H3H2.25V16H3ZM3 14H3.75C3.75 13.8619 3.86193 13.75 4 13.75V13V12.25C3.0335 12.25 2.25 13.0335 2.25 14H3ZM4 13V13.75H13V13V12.25H4V13Z" fill="#2F2B3D" fill-opacity="0.9"/>
</svg>
