<svg width="24" height="24" viewBox="0 0 24 24" fill="none" xmlns="http://www.w3.org/2000/svg">
<path d="M10.3354 3.32918C9.96493 3.14394 9.51442 3.29411 9.32918 3.66459C9.14394 4.03507 9.29411 4.48558 9.66459 4.67082L10 4L10.3354 3.32918ZM12 5L11.6646 5.67082C11.8757 5.77639 12.1243 5.77639 12.3354 5.67082L12 5ZM14.3354 4.67082C14.7059 4.48558 14.8561 4.03507 14.6708 3.66459C14.4856 3.29411 14.0351 3.14394 13.6646 3.32918L14 4L14.3354 4.67082ZM12.75 2C12.75 1.58579 12.4142 1.25 12 1.25C11.5858 1.25 11.25 1.58579 11.25 2H12H12.75ZM12 8.5H11.25C11.25 8.76876 11.3938 9.01697 11.627 9.15065L12 8.5ZM14.627 10.8706C14.9863 11.0767 15.4446 10.9524 15.6506 10.593C15.8567 10.2337 15.7324 9.77538 15.373 9.56935L15 10.22L14.627 10.8706ZM10 4L9.66459 4.67082L11.6646 5.67082L12 5L12.3354 4.32918L10.3354 3.32918L10 4ZM12 5L12.3354 5.67082L14.3354 4.67082L14 4L13.6646 3.32918L11.6646 4.32918L12 5ZM12 2H11.25V8.5H12H12.75V2H12ZM12 8.5L11.627 9.15065L14.627 10.8706L15 10.22L15.373 9.56935L12.373 7.84935L12 8.5Z" fill="#2F2B3D" fill-opacity="0.9"/>
<path d="M18.6769 6.22316C18.6521 5.80969 18.2968 5.49463 17.8834 5.51945C17.4699 5.54426 17.1548 5.89956 17.1796 6.31303L17.9283 6.2681L18.6769 6.22316ZM18.0623 8.50015L17.3136 8.54508C17.3278 8.78073 17.452 8.99596 17.649 9.12603L18.0623 8.50015ZM19.5151 10.3581C19.8607 10.5863 20.326 10.4911 20.5542 10.1454C20.7824 9.79978 20.6872 9.33454 20.3415 9.10632L19.9283 9.7322L19.5151 10.3581ZM21.0354 7.64955C21.3941 7.44244 21.517 6.98375 21.3099 6.62503C21.1028 6.26631 20.6441 6.14341 20.2854 6.35051L20.6604 7.00003L21.0354 7.64955ZM15.0312 10.25L14.6562 9.60051C14.4234 9.73489 14.2804 9.98354 14.2812 10.2523L15.0312 10.25ZM14.2916 13.7104C14.2929 14.1246 14.6297 14.4594 15.0439 14.4581C15.4581 14.4569 15.7929 14.1201 15.7916 13.7058L15.0416 13.7081L14.2916 13.7104ZM17.9283 6.2681L17.1796 6.31303L17.3136 8.54508L18.0623 8.50015L18.8109 8.45521L18.6769 6.22316L17.9283 6.2681ZM18.0623 8.50015L17.649 9.12603L19.5151 10.3581L19.9283 9.7322L20.3415 9.10632L18.4755 7.87426L18.0623 8.50015ZM20.6604 7.00003L20.2854 6.35051L14.6562 9.60051L15.0312 10.25L15.4062 10.8996L21.0354 7.64955L20.6604 7.00003ZM15.0312 10.25L14.2812 10.2523L14.2916 13.7104L15.0416 13.7081L15.7916 13.7058L15.7812 10.2478L15.0312 10.25Z" fill="#2F2B3D" fill-opacity="0.9"/>
<path d="M20.3414 14.894C20.6871 14.6658 20.7823 14.2005 20.554 13.8549C20.3258 13.5092 19.8606 13.414 19.5149 13.6422L19.9282 14.2681L20.3414 14.894ZM18.0621 15.5001L17.6489 14.8743C17.4519 15.0043 17.3276 15.2196 17.3135 15.4552L18.0621 15.5001ZM17.1795 17.6873C17.1547 18.1007 17.4697 18.456 17.8832 18.4808C18.2967 18.5057 18.652 18.1906 18.6768 17.7771L17.9282 17.7322L17.1795 17.6873ZM20.2852 17.6495C20.6439 17.8567 21.1026 17.7337 21.3097 17.375C21.5168 17.0163 21.3939 16.5576 21.0352 16.3505L20.6602 17L20.2852 17.6495ZM15.031 13.75L15.406 13.1005C15.1733 12.9661 14.8864 12.9666 14.6541 13.1016L15.031 13.75ZM11.6645 14.8397C11.3064 15.0479 11.1849 15.507 11.3931 15.8651C11.6013 16.2232 12.0603 16.3447 12.4184 16.1365L12.0415 15.4881L11.6645 14.8397ZM19.9282 14.2681L19.5149 13.6422L17.6489 14.8743L18.0621 15.5001L18.4754 16.126L20.3414 14.894L19.9282 14.2681ZM18.0621 15.5001L17.3135 15.4552L17.1795 17.6873L17.9282 17.7322L18.6768 17.7771L18.8108 15.5451L18.0621 15.5001ZM20.6602 17L21.0352 16.3505L15.406 13.1005L15.031 13.75L14.656 14.3995L20.2852 17.6495L20.6602 17ZM15.031 13.75L14.6541 13.1016L11.6645 14.8397L12.0415 15.4881L12.4184 16.1365L15.408 14.3984L15.031 13.75Z" fill="#2F2B3D" fill-opacity="0.9"/>
<path d="M13.6646 20.6708C14.0351 20.8561 14.4856 20.7059 14.6708 20.3354C14.8561 19.9649 14.7059 19.5144 14.3354 19.3292L14 20L13.6646 20.6708ZM12 19L12.3354 18.3292C12.1243 18.2236 11.8757 18.2236 11.6646 18.3292L12 19ZM9.66459 19.3292C9.29411 19.5144 9.14394 19.9649 9.32918 20.3354C9.51442 20.7059 9.96493 20.8561 10.3354 20.6708L10 20L9.66459 19.3292ZM11.25 22C11.25 22.4142 11.5858 22.75 12 22.75C12.4142 22.75 12.75 22.4142 12.75 22H12H11.25ZM12 15.5H12.75C12.75 15.2312 12.6062 14.983 12.373 14.8494L12 15.5ZM9.37304 13.1294C9.0137 12.9233 8.55538 13.0476 8.34935 13.407C8.14333 13.7663 8.26762 14.2246 8.62696 14.4306L9 13.78L9.37304 13.1294ZM14 20L14.3354 19.3292L12.3354 18.3292L12 19L11.6646 19.6708L13.6646 20.6708L14 20ZM12 19L11.6646 18.3292L9.66459 19.3292L10 20L10.3354 20.6708L12.3354 19.6708L12 19ZM12 22H12.75V15.5H12H11.25V22H12ZM12 15.5L12.373 14.8494L9.37304 13.1294L9 13.78L8.62696 14.4306L11.627 16.1506L12 15.5Z" fill="#2F2B3D" fill-opacity="0.9"/>
<path d="M5.32305 17.7768C5.34787 18.1903 5.70317 18.5054 6.11664 18.4806C6.53011 18.4557 6.84518 18.1004 6.82036 17.687L6.0717 17.7319L5.32305 17.7768ZM5.93773 15.4999L6.68638 15.4549C6.67224 15.2193 6.54797 15.004 6.35097 14.874L5.93773 15.4999ZM4.48495 13.6419C4.13928 13.4137 3.67405 13.5089 3.44582 13.8546C3.21759 14.2002 3.3128 14.6655 3.65846 14.8937L4.0717 14.2678L4.48495 13.6419ZM2.96465 16.3504C2.60593 16.5576 2.48302 17.0162 2.69013 17.375C2.89724 17.7337 3.35593 17.8566 3.71465 17.6495L3.33965 17L2.96465 16.3504ZM8.96881 13.75L9.34381 14.3995C9.57657 14.2651 9.71962 14.0165 9.71881 13.7477L8.96881 13.75ZM9.70838 10.2896C9.70712 9.87542 9.37033 9.54065 8.95611 9.5419C8.5419 9.54315 8.20713 9.87994 8.20838 10.2942L8.95838 10.2919L9.70838 10.2896ZM6.0717 17.7319L6.82036 17.687L6.68638 15.4549L5.93773 15.4999L5.18908 15.5448L5.32305 17.7768L6.0717 17.7319ZM5.93773 15.4999L6.35097 14.874L4.48495 13.6419L4.0717 14.2678L3.65846 14.8937L5.52449 16.1257L5.93773 15.4999ZM3.33965 17L3.71465 17.6495L9.34381 14.3995L8.96881 13.75L8.59381 13.1004L2.96465 16.3504L3.33965 17ZM8.96881 13.75L9.71881 13.7477L9.70838 10.2896L8.95838 10.2919L8.20838 10.2942L8.21882 13.7522L8.96881 13.75Z" fill="#2F2B3D" fill-opacity="0.9"/>
<path d="M3.6586 9.10602C3.31294 9.33425 3.21774 9.79948 3.44596 10.1451C3.67419 10.4908 4.13942 10.586 4.48509 10.3578L4.07185 9.73191L3.6586 9.10602ZM5.93787 8.49986L6.35112 9.12574C6.54812 8.99567 6.67238 8.78044 6.68653 8.54479L5.93787 8.49986ZM6.8205 6.31274C6.84532 5.89927 6.53025 5.54397 6.11678 5.51915C5.70331 5.49433 5.34801 5.8094 5.32319 6.22287L6.07185 6.2678L6.8205 6.31274ZM3.71479 6.35045C3.35607 6.14335 2.89738 6.26625 2.69027 6.62497C2.48317 6.98369 2.60607 7.44239 2.96479 7.64949L3.33979 6.99997L3.71479 6.35045ZM8.96896 10.25L8.59396 10.8995C8.82671 11.0339 9.11357 11.0334 9.34592 10.8984L8.96896 10.25ZM12.3355 9.16028C12.6936 8.95209 12.8151 8.49303 12.6069 8.13494C12.3987 7.77685 11.9397 7.65532 11.5816 7.86351L11.9585 8.5119L12.3355 9.16028ZM4.07185 9.73191L4.48509 10.3578L6.35112 9.12574L5.93787 8.49986L5.52463 7.87397L3.6586 9.10602L4.07185 9.73191ZM5.93787 8.49986L6.68653 8.54479L6.8205 6.31274L6.07185 6.2678L5.32319 6.22287L5.18922 8.45492L5.93787 8.49986ZM3.33979 6.99997L2.96479 7.64949L8.59396 10.8995L8.96896 10.25L9.34396 9.60045L3.71479 6.35045L3.33979 6.99997ZM8.96896 10.25L9.34592 10.8984L12.3355 9.16028L11.9585 8.5119L11.5816 7.86351L8.592 9.60159L8.96896 10.25Z" fill="#2F2B3D" fill-opacity="0.9"/>
</svg>
