<svg width="24" height="24" viewBox="0 0 24 24" fill="none" xmlns="http://www.w3.org/2000/svg">
<path fill-rule="evenodd" clip-rule="evenodd" d="M4 11C5.10457 11 6 11.8954 6 13V14H18V13C18 11.8954 18.8954 11 20 11C21.1046 11 22 11.8954 22 13V18C22 18.5523 21.5523 19 21 19H3C2.44772 19 2 18.5523 2 18V13C2 11.8954 2.89543 11 4 11Z" stroke="#2F2B3D" stroke-opacity="0.9" stroke-width="1.5" stroke-linecap="round" stroke-linejoin="round"/>
<path d="M4 11V8C4 6.34315 5.34315 5 7 5H17C18.6569 5 20 6.34315 20 8V11" stroke="#2F2B3D" stroke-opacity="0.9" stroke-width="1.5" stroke-linecap="round" stroke-linejoin="round"/>
<path d="M12 5V14" stroke="#2F2B3D" stroke-opacity="0.9" stroke-width="1.5" stroke-linecap="round" stroke-linejoin="round"/>
</svg>
