<svg width="24" height="24" viewBox="0 0 24 24" fill="none" xmlns="http://www.w3.org/2000/svg">
<path d="M14.25 21C14.25 21.4142 14.5858 21.75 15 21.75C15.4142 21.75 15.75 21.4142 15.75 21H15H14.25ZM18.25 21C18.25 21.4142 18.5858 21.75 19 21.75C19.4142 21.75 19.75 21.4142 19.75 21H19H18.25ZM19 18.75C19.4142 18.75 19.75 18.4142 19.75 18C19.75 17.5858 19.4142 17.25 19 17.25V18V18.75ZM15 17.25C14.5858 17.25 14.25 17.5858 14.25 18C14.25 18.4142 14.5858 18.75 15 18.75V18V17.25ZM15 21H15.75V16H15H14.25V21H15ZM15 16H15.75C15.75 15.4054 15.8853 15.1404 16.0128 15.0128C16.1404 14.8853 16.4054 14.75 17 14.75V14V13.25C16.2146 13.25 15.4796 13.4247 14.9522 13.9522C14.4247 14.4796 14.25 15.2146 14.25 16H15ZM17 14V14.75C17.5946 14.75 17.8596 14.8853 17.9872 15.0128C18.1147 15.1404 18.25 15.4054 18.25 16H19H19.75C19.75 15.2146 19.5753 14.4796 19.0478 13.9522C18.5204 13.4247 17.7854 13.25 17 13.25V14ZM19 16H18.25V21H19H19.75V16H19ZM19 18V17.25H15V18V18.75H19V18Z" fill="#2F2B3D" fill-opacity="0.9"/>
<path d="M19 10H15L19 3H15" stroke="#2F2B3D" stroke-opacity="0.9" stroke-width="1.5" stroke-linecap="round" stroke-linejoin="round"/>
<path d="M4 15L7 18L10 15" stroke="#2F2B3D" stroke-opacity="0.9" stroke-width="1.5" stroke-linecap="round" stroke-linejoin="round"/>
<path d="M7 6V18" stroke="#2F2B3D" stroke-opacity="0.9" stroke-width="1.5" stroke-linecap="round" stroke-linejoin="round"/>
</svg>
