<svg width="24" height="24" viewBox="0 0 24 24" fill="none" xmlns="http://www.w3.org/2000/svg">
<path d="M14.25 10C14.25 10.4142 14.5858 10.75 15 10.75C15.4142 10.75 15.75 10.4142 15.75 10H15H14.25ZM18.25 10C18.25 10.4142 18.5858 10.75 19 10.75C19.4142 10.75 19.75 10.4142 19.75 10H19H18.25ZM19 7.75C19.4142 7.75 19.75 7.41421 19.75 7C19.75 6.58579 19.4142 6.25 19 6.25V7V7.75ZM15 6.25C14.5858 6.25 14.25 6.58579 14.25 7C14.25 7.41421 14.5858 7.75 15 7.75V7V6.25ZM15 10H15.75V5H15H14.25V10H15ZM15 5H15.75C15.75 4.40545 15.8853 4.14038 16.0128 4.01283C16.1404 3.88528 16.4054 3.75 17 3.75V3V2.25C16.2146 2.25 15.4796 2.42472 14.9522 2.95217C14.4247 3.47962 14.25 4.21455 14.25 5H15ZM17 3V3.75C17.5946 3.75 17.8596 3.88528 17.9872 4.01283C18.1147 4.14038 18.25 4.40545 18.25 5H19H19.75C19.75 4.21455 19.5753 3.47962 19.0478 2.95217C18.5204 2.42472 17.7854 2.25 17 2.25V3ZM19 5H18.25V10H19H19.75V5H19ZM19 7V6.25H15V7V7.75H19V7Z" fill="#2F2B3D" fill-opacity="0.9"/>
<path d="M19 21H15L19 14H15" stroke="#2F2B3D" stroke-opacity="0.9" stroke-width="1.5" stroke-linecap="round" stroke-linejoin="round"/>
<path d="M4 15L7 18L10 15" stroke="#2F2B3D" stroke-opacity="0.9" stroke-width="1.5" stroke-linecap="round" stroke-linejoin="round"/>
<path d="M7 6V18" stroke="#2F2B3D" stroke-opacity="0.9" stroke-width="1.5" stroke-linecap="round" stroke-linejoin="round"/>
</svg>
