<svg width="24" height="24" viewBox="0 0 24 24" fill="none" xmlns="http://www.w3.org/2000/svg">
<path d="M18 8C19.6569 8 21 9.34315 21 11C21 12.6569 19.6569 14 18 14" stroke="#2F2B3D" stroke-opacity="0.9" stroke-width="1.5" stroke-linecap="round" stroke-linejoin="round"/>
<path d="M10 8V19C10 19.5523 9.55228 20 9 20H8C7.44772 20 7 19.5523 7 19V14" stroke="#2F2B3D" stroke-opacity="0.9" stroke-width="1.5" stroke-linecap="round" stroke-linejoin="round"/>
<path d="M12 7.99996V7.99996L16.524 4.22996C16.7924 4.00643 17.1658 3.95835 17.482 4.10661C17.7983 4.25487 18.0002 4.5727 18 4.92196V17.078C18.0002 17.4272 17.7983 17.745 17.482 17.8933C17.1658 18.0416 16.7924 17.9935 16.524 17.77L12 14H4C3.44772 14 3 13.5522 3 13V8.99996C3 8.44767 3.44772 7.99996 4 7.99996H12" stroke="#2F2B3D" stroke-opacity="0.9" stroke-width="1.5" stroke-linecap="round" stroke-linejoin="round"/>
</svg>
