<svg width="24" height="24" viewBox="0 0 24 24" fill="none" xmlns="http://www.w3.org/2000/svg">
<path d="M17.4943 17.4824C17.7872 17.1895 17.7873 16.7147 17.4944 16.4217C17.2016 16.1288 16.7267 16.1287 16.4338 16.4216L16.964 16.952L17.4943 17.4824ZM13.502 20.413L12.9718 19.8826L12.9713 19.883L13.502 20.413ZM10.498 20.413L11.0287 19.883L11.0283 19.8826L10.498 20.413ZM3.58701 13.503L3.05668 14.0333L3.05671 14.0334L3.58701 13.503ZM3.58701 10.498L4.117 11.0287L4.11741 11.0282L3.58701 10.498ZM7.57241 7.57225C7.86526 7.27931 7.86519 6.80444 7.57226 6.51159C7.27932 6.21873 6.80445 6.2188 6.5116 6.51174L7.04201 7.04199L7.57241 7.57225ZM8.5149 4.50849C8.2219 4.80129 8.22174 5.27616 8.51453 5.56915C8.80732 5.86215 9.2822 5.86231 9.57519 5.56952L9.04504 5.03901L8.5149 4.50849ZM10.498 3.58701L11.0282 4.11752L11.0287 4.117L10.498 3.58701ZM13.502 3.58701L12.9714 4.117L12.9718 4.11737L13.502 3.58701ZM20.413 10.497L20.9434 9.96668L20.9433 9.96664L20.413 10.497ZM20.413 13.502L19.8831 12.9713L19.8823 12.972L20.413 13.502ZM18.4343 14.422C18.1417 14.7151 18.142 15.19 18.4351 15.4827C18.7282 15.7754 19.203 15.7751 19.4957 15.482L18.965 14.952L18.4343 14.422ZM16.964 16.952L16.4338 16.4216L12.9718 19.8826L13.502 20.413L14.0323 20.9434L17.4943 17.4824L16.964 16.952ZM13.502 20.413L12.9713 19.883C12.7427 20.1119 12.3894 20.2502 12 20.2502C11.6107 20.2502 11.2573 20.1119 11.0287 19.883L10.498 20.413L9.96734 20.943C10.5207 21.497 11.2784 21.7502 12 21.7502C12.7217 21.7502 13.4793 21.497 14.0327 20.943L13.502 20.413ZM10.498 20.413L11.0283 19.8826L4.1173 12.9726L3.58701 13.503L3.05671 14.0334L9.96771 20.9434L10.498 20.413ZM3.58701 13.503L4.11734 12.9727C3.88808 12.7434 3.74976 12.3896 3.74976 12.0001C3.74976 11.6106 3.88808 11.2573 4.117 11.0287L3.58701 10.498L3.05701 9.96732C2.50294 10.5207 2.24976 11.2784 2.24976 12.0001C2.24976 12.7219 2.50293 13.4796 3.05668 14.0333L3.58701 13.503ZM3.58701 10.498L4.11741 11.0282L7.57241 7.57225L7.04201 7.04199L6.5116 6.51174L3.0566 9.96774L3.58701 10.498ZM9.04504 5.03901L9.57519 5.56952L11.0282 4.11752L10.498 3.58701L9.9679 3.05649L8.5149 4.50849L9.04504 5.03901ZM10.498 3.58701L11.0287 4.117C11.2574 3.88806 11.6107 3.74976 12 3.74976C12.3894 3.74976 12.7427 3.88806 12.9714 4.117L13.502 3.58701L14.0327 3.05701C13.4794 2.50295 12.7217 2.24976 12 2.24976C11.2784 2.24976 10.5207 2.50295 9.96738 3.05701L10.498 3.58701ZM13.502 3.58701L12.9718 4.11737L19.8828 11.0274L20.413 10.497L20.9433 9.96664L14.0323 3.05664L13.502 3.58701ZM20.413 10.497L19.8827 11.0273C20.112 11.2566 20.2503 11.6104 20.2503 11.9999C20.2503 12.3894 20.112 12.7427 19.8831 12.9713L20.413 13.502L20.943 14.0327C21.4971 13.4793 21.7503 12.7216 21.7503 11.9999C21.7503 11.2781 21.4971 10.5204 20.9434 9.96668L20.413 10.497ZM20.413 13.502L19.8823 12.972L18.4343 14.422L18.965 14.952L19.4957 15.482L20.9437 14.032L20.413 13.502Z" fill="#2F2B3D" fill-opacity="0.9"/>
<path d="M3 3L21 21" stroke="#2F2B3D" stroke-opacity="0.9" stroke-width="1.5" stroke-linecap="round" stroke-linejoin="round"/>
</svg>
