<svg width="24" height="24" viewBox="0 0 24 24" fill="none" xmlns="http://www.w3.org/2000/svg">
<path d="M8 3.25C7.58579 3.25 7.25 3.58579 7.25 4C7.25 4.41421 7.58579 4.75 8 4.75V4V3.25ZM19.25 16C19.25 16.4142 19.5858 16.75 20 16.75C20.4142 16.75 20.75 16.4142 20.75 16H20H19.25ZM19.9478 19.9408C20.2399 19.6471 20.2386 19.1722 19.9448 18.8801C19.6511 18.588 19.1762 18.5894 18.8842 18.8831L19.416 19.4119L19.9478 19.9408ZM18 19.9999L18.0008 19.2499H18V19.9999ZM5.11633 5.11627C5.40922 4.82337 5.40922 4.3485 5.11633 4.05561C4.82344 3.76271 4.34856 3.76271 4.05567 4.05561L4.586 4.58594L5.11633 5.11627ZM8 4V4.75H18V4V3.25H8V4ZM18 4V4.75C18.6904 4.75 19.25 5.30964 19.25 6H20H20.75C20.75 4.48122 19.5188 3.25 18 3.25V4ZM20 6H19.25V16H20H20.75V6H20ZM19.416 19.4119L18.8842 18.8831C18.6504 19.1182 18.3324 19.2503 18.0008 19.2499L18 19.9999L17.9992 20.7499C18.7306 20.7507 19.4321 20.4594 19.9478 19.9408L19.416 19.4119ZM18 19.9999V19.2499H6V19.9999V20.7499H18V19.9999ZM6 19.9999V19.2499C5.30964 19.2499 4.75 18.6903 4.75 17.9999H4H3.25C3.25 19.5187 4.48122 20.7499 6 20.7499V19.9999ZM4 17.9999H4.75V5.99994H4H3.25V17.9999H4ZM4 5.99994H4.75C4.75 5.65505 4.88908 5.34352 5.11633 5.11627L4.586 4.58594L4.05567 4.05561C3.55892 4.55236 3.25 5.24083 3.25 5.99994H4Z" fill="#2F2B3D" fill-opacity="0.9"/>
<path d="M3 3L21 21" stroke="#2F2B3D" stroke-opacity="0.9" stroke-width="1.5" stroke-linecap="round" stroke-linejoin="round"/>
</svg>
