<svg width="24" height="24" viewBox="0 0 24 24" fill="none" xmlns="http://www.w3.org/2000/svg">
<path d="M4 20H8V16H12V12H16V8H20" stroke="#2F2B3D" stroke-opacity="0.9" stroke-width="1.5" stroke-linecap="round" stroke-linejoin="round"/>
<path d="M3.46967 10.4697C3.17678 10.7626 3.17678 11.2374 3.46967 11.5303C3.76256 11.8232 4.23744 11.8232 4.53033 11.5303L4 11L3.46967 10.4697ZM11 4H11.75C11.75 3.69665 11.5673 3.42318 11.287 3.30709C11.0068 3.191 10.6842 3.25517 10.4697 3.46967L11 4ZM10.25 8C10.25 8.41421 10.5858 8.75 11 8.75C11.4142 8.75 11.75 8.41421 11.75 8H11H10.25ZM7 3.25C6.58579 3.25 6.25 3.58579 6.25 4C6.25 4.41421 6.58579 4.75 7 4.75V4V3.25ZM11 4.75C11.4142 4.75 11.75 4.41421 11.75 4C11.75 3.58579 11.4142 3.25 11 3.25V4V4.75ZM4 11L4.53033 11.5303L11.5303 4.53033L11 4L10.4697 3.46967L3.46967 10.4697L4 11ZM11 4H10.25V8H11H11.75V4H11ZM7 4V4.75H11V4V3.25H7V4Z" fill="#2F2B3D" fill-opacity="0.9"/>
</svg>
