<svg width="24" height="24" viewBox="0 0 24 24" fill="none" xmlns="http://www.w3.org/2000/svg">
<path d="M4 20H8V16H12V12H16V8H20" stroke="#2F2B3D" stroke-opacity="0.9" stroke-width="1.5" stroke-linecap="round" stroke-linejoin="round"/>
<path d="M11.5303 4.53033C11.8232 4.23744 11.8232 3.76256 11.5303 3.46967C11.2374 3.17678 10.7626 3.17678 10.4697 3.46967L11 4L11.5303 4.53033ZM4 11H3.25C3.25 11.3033 3.43273 11.5768 3.71299 11.6929C3.99324 11.809 4.31583 11.7448 4.53033 11.5303L4 11ZM4.75 7C4.75 6.58579 4.41421 6.25 4 6.25C3.58579 6.25 3.25 6.58579 3.25 7H4H4.75ZM8 11.75C8.41421 11.75 8.75 11.4142 8.75 11C8.75 10.5858 8.41421 10.25 8 10.25V11V11.75ZM4 10.25C3.58579 10.25 3.25 10.5858 3.25 11C3.25 11.4142 3.58579 11.75 4 11.75V11V10.25ZM11 4L10.4697 3.46967L3.46967 10.4697L4 11L4.53033 11.5303L11.5303 4.53033L11 4ZM4 11H4.75V7H4H3.25V11H4ZM8 11V10.25H4V11V11.75H8V11Z" fill="#2F2B3D" fill-opacity="0.9"/>
</svg>
