<svg width="24" height="24" viewBox="0 0 24 24" fill="none" xmlns="http://www.w3.org/2000/svg">
<path d="M3 3L21 21" stroke="#2F2B3D" stroke-opacity="0.9" stroke-width="1.5" stroke-linecap="round" stroke-linejoin="round"/>
<path d="M9.33941 5.68403C9.15609 6.05547 9.3086 6.50519 9.68004 6.68851C10.0515 6.87182 10.5012 6.71932 10.6845 6.34787L10.012 6.01595L9.33941 5.68403ZM11.993 2.00195L12.6655 1.67003C12.5392 1.41403 12.2784 1.25195 11.993 1.25195C11.7075 1.25195 11.4468 1.41403 11.3204 1.67003L11.993 2.00195ZM15.079 8.25495L14.4064 8.58687C14.5157 8.80832 14.727 8.96178 14.9714 8.9972L15.079 8.25495ZM21.979 9.25495L22.5021 9.79235C22.7068 9.59311 22.7805 9.29493 22.6923 9.02328C22.6041 8.75163 22.3692 8.55367 22.0865 8.51271L21.979 9.25495ZM17.0348 13.0216C16.738 13.3105 16.7316 13.7853 17.0206 14.0821C17.3095 14.3789 17.7843 14.3853 18.0811 14.0963L17.558 13.559L17.0348 13.0216ZM18.3093 17.442C18.2392 17.0338 17.8515 16.7596 17.4432 16.8297C17.035 16.8998 16.7608 17.2875 16.8309 17.6958L17.5701 17.5689L18.3093 17.442ZM18.1581 20.9949L17.8084 21.6584C18.0611 21.7916 18.3675 21.7696 18.5987 21.6018C18.8298 21.434 18.9456 21.1495 18.8973 20.868L18.1581 20.9949ZM12.0001 17.7499L12.3497 17.0864C12.1311 16.9712 11.8698 16.9711 11.6511 17.0861L12.0001 17.7499ZM5.82808 20.9949L5.08888 20.8681C5.04061 21.1495 5.15628 21.4338 5.38724 21.6017C5.61821 21.7695 5.92441 21.7916 6.1771 21.6587L5.82808 20.9949ZM7.00708 14.1219L7.74628 14.2487C7.78805 14.0052 7.70724 13.7568 7.53021 13.5845L7.00708 14.1219ZM2.00708 9.25489L1.8995 8.51265C1.61683 8.55361 1.38197 8.75159 1.29375 9.02325C1.20553 9.29491 1.27927 9.59309 1.48395 9.79232L2.00708 9.25489ZM8.44166 9.08014C8.85159 9.02072 9.13574 8.64024 9.07632 8.23031C9.01691 7.82038 8.63643 7.53623 8.2265 7.59565L8.33408 8.33789L8.44166 9.08014ZM10.012 6.01595L10.6845 6.34787L12.6655 2.33387L11.993 2.00195L11.3204 1.67003L9.33941 5.68403L10.012 6.01595ZM11.993 2.00195L11.3204 2.33387L14.4064 8.58687L15.079 8.25495L15.7515 7.92303L12.6655 1.67003L11.993 2.00195ZM15.079 8.25495L14.9714 8.9972L21.8714 9.9972L21.979 9.25495L22.0865 8.51271L15.1865 7.51271L15.079 8.25495ZM21.979 9.25495L21.4558 8.71756L17.0348 13.0216L17.558 13.559L18.0811 14.0963L22.5021 9.79235L21.979 9.25495ZM17.5701 17.5689L16.8309 17.6958L17.4189 21.1218L18.1581 20.9949L18.8973 20.868L18.3093 17.442L17.5701 17.5689ZM18.1581 20.9949L18.5077 20.3314L12.3497 17.0864L12.0001 17.7499L11.6504 18.4134L17.8084 21.6584L18.1581 20.9949ZM12.0001 17.7499L11.6511 17.0861L5.47906 20.3311L5.82808 20.9949L6.1771 21.6587L12.3491 18.4137L12.0001 17.7499ZM5.82808 20.9949L6.56728 21.1217L7.74628 14.2487L7.00708 14.1219L6.26788 13.9951L5.08888 20.8681L5.82808 20.9949ZM7.00708 14.1219L7.53021 13.5845L2.53021 8.71746L2.00708 9.25489L1.48395 9.79232L6.48395 14.6593L7.00708 14.1219ZM2.00708 9.25489L2.11466 9.99714L8.44166 9.08014L8.33408 8.33789L8.2265 7.59565L1.8995 8.51265L2.00708 9.25489Z" fill="#2F2B3D" fill-opacity="0.9"/>
</svg>
