<svg width="24" height="24" viewBox="0 0 24 24" fill="none" xmlns="http://www.w3.org/2000/svg">
<path fill-rule="evenodd" clip-rule="evenodd" d="M17.8 19.817L15.628 20.955C15.4966 21.0234 15.3378 21.0118 15.2176 20.9251C15.0974 20.8384 15.0365 20.6913 15.06 20.545L15.475 18.134L13.718 16.427C13.611 16.3235 13.5724 16.1681 13.6186 16.0266C13.6647 15.8851 13.7876 15.7824 13.935 15.762L16.363 15.41L17.449 13.217C17.5153 13.0837 17.6512 12.9995 17.8 12.9995C17.9488 12.9995 18.0848 13.0837 18.151 13.217L19.237 15.41L21.665 15.762C21.812 15.7831 21.9342 15.8859 21.9802 16.027C22.0263 16.1682 21.9882 16.3232 21.882 16.427L20.125 18.134L20.539 20.544C20.5644 20.6906 20.5041 20.8389 20.3836 20.9262C20.2631 21.0135 20.1035 21.0247 19.972 20.955L17.8 19.817V19.817Z" stroke="#2F2B3D" stroke-opacity="0.9" stroke-width="1.5" stroke-linecap="round" stroke-linejoin="round"/>
<path fill-rule="evenodd" clip-rule="evenodd" d="M6.19991 19.817L4.02791 20.955C3.89645 21.0234 3.73766 21.0118 3.6175 20.9251C3.49734 20.8384 3.43636 20.6913 3.45991 20.545L3.87491 18.134L2.11791 16.427C2.01091 16.3235 1.9723 16.1681 2.01847 16.0266C2.06464 15.8851 2.18749 15.7824 2.33491 15.762L4.76291 15.41L5.84891 13.217C5.91516 13.0837 6.05112 12.9995 6.19991 12.9995C6.3487 12.9995 6.48466 13.0837 6.55091 13.217L7.63691 15.41L10.0649 15.762C10.2119 15.7831 10.3341 15.8859 10.3801 16.027C10.4262 16.1682 10.3881 16.3232 10.2819 16.427L8.52491 18.134L8.93891 20.544C8.96426 20.6906 8.90397 20.8389 8.7835 20.9262C8.66303 21.0135 8.50336 21.0247 8.37191 20.955L6.19991 19.817V19.817Z" stroke="#2F2B3D" stroke-opacity="0.9" stroke-width="1.5" stroke-linecap="round" stroke-linejoin="round"/>
<path fill-rule="evenodd" clip-rule="evenodd" d="M12 9.81698L9.82796 10.955C9.6965 11.0234 9.53771 11.0118 9.41755 10.9251C9.29739 10.8384 9.23641 10.6913 9.25996 10.545L9.67496 8.13398L7.91796 6.42698C7.81095 6.32353 7.77235 6.16811 7.81852 6.02662C7.86469 5.88514 7.98754 5.78239 8.13496 5.76198L10.563 5.40998L11.649 3.21698C11.7152 3.08375 11.8512 2.99951 12 2.99951C12.1487 2.99951 12.2847 3.08375 12.351 3.21698L13.437 5.40998L15.865 5.76198C16.0119 5.78312 16.1341 5.88587 16.1802 6.02702C16.2262 6.16816 16.1882 6.32322 16.082 6.42698L14.325 8.13398L14.739 10.544C14.7643 10.6906 14.704 10.8389 14.5835 10.9262C14.4631 11.0135 14.3034 11.0247 14.172 10.955L12 9.81698V9.81698Z" stroke="#2F2B3D" stroke-opacity="0.9" stroke-width="1.5" stroke-linecap="round" stroke-linejoin="round"/>
</svg>
