<svg width="24" height="24" viewBox="0 0 24 24" fill="none" xmlns="http://www.w3.org/2000/svg">
<path d="M5.58565 6.53148C5.32689 6.20803 4.85493 6.15559 4.53148 6.41435C4.20803 6.67311 4.15559 7.14507 4.41435 7.46852L5 7L5.58565 6.53148ZM12.4143 17.4685C12.6731 17.792 13.1451 17.8444 13.4685 17.5857C13.792 17.3269 13.8444 16.8549 13.5857 16.5315L13 17L12.4143 17.4685ZM4.41435 16.5315C4.15559 16.8549 4.20803 17.3269 4.53148 17.5857C4.85493 17.8444 5.32689 17.792 5.58565 17.4685L5 17L4.41435 16.5315ZM13.5857 7.46852C13.8444 7.14507 13.792 6.67311 13.4685 6.41435C13.1451 6.15559 12.6731 6.20803 12.4143 6.53148L13 7L13.5857 7.46852ZM5 7L4.41435 7.46852L12.4143 17.4685L13 17L13.5857 16.5315L5.58565 6.53148L5 7ZM5 17L5.58565 17.4685L13.5857 7.46852L13 7L12.4143 6.53148L4.41435 16.5315L5 17Z" fill="#2F2B3D" fill-opacity="0.9"/>
<path d="M21 19.9999H17L20.5 15.9999C20.8573 15.3747 20.8538 14.6064 20.491 13.9844C20.1282 13.3624 19.4611 12.9812 18.741 12.9844C18.0209 12.9876 17.3573 13.3747 17 13.9999" stroke="#2F2B3D" stroke-opacity="0.9" stroke-width="1.5" stroke-linecap="round" stroke-linejoin="round"/>
</svg>
