<svg width="24" height="24" viewBox="0 0 24 24" fill="none" xmlns="http://www.w3.org/2000/svg">
<circle cx="12" cy="12" r="4" stroke="#2F2B3D" stroke-opacity="0.9" stroke-width="1.5" stroke-linecap="round" stroke-linejoin="round"/>
<path d="M3 11.25C2.58579 11.25 2.25 11.5858 2.25 12C2.25 12.4142 2.58579 12.75 3 12.75V12V11.25ZM4 12.75C4.41421 12.75 4.75 12.4142 4.75 12C4.75 11.5858 4.41421 11.25 4 11.25V12V12.75ZM12.75 3C12.75 2.58579 12.4142 2.25 12 2.25C11.5858 2.25 11.25 2.58579 11.25 3H12H12.75ZM11.25 4C11.25 4.41421 11.5858 4.75 12 4.75C12.4142 4.75 12.75 4.41421 12.75 4H12H11.25ZM20 11.25C19.5858 11.25 19.25 11.5858 19.25 12C19.25 12.4142 19.5858 12.75 20 12.75V12V11.25ZM21 12.75C21.4142 12.75 21.75 12.4142 21.75 12C21.75 11.5858 21.4142 11.25 21 11.25V12V12.75ZM12.75 20C12.75 19.5858 12.4142 19.25 12 19.25C11.5858 19.25 11.25 19.5858 11.25 20H12H12.75ZM11.25 21C11.25 21.4142 11.5858 21.75 12 21.75C12.4142 21.75 12.75 21.4142 12.75 21H12H11.25ZM6.13028 5.06962C5.83739 4.77673 5.36251 4.77673 5.06962 5.06962C4.77673 5.36251 4.77673 5.83739 5.06962 6.13028L5.59995 5.59995L6.13028 5.06962ZM5.76962 6.83028C6.06251 7.12317 6.53739 7.12317 6.83028 6.83028C7.12317 6.53739 7.12317 6.06251 6.83028 5.76962L6.29995 6.29995L5.76962 6.83028ZM18.9304 6.13028C19.2233 5.83739 19.2233 5.36251 18.9304 5.06962C18.6375 4.77673 18.1626 4.77673 17.8697 5.06962L18.4 5.59995L18.9304 6.13028ZM17.1697 5.76962C16.8768 6.06251 16.8768 6.53739 17.1697 6.83028C17.4626 7.12317 17.9375 7.12317 18.2304 6.83028L17.7 6.29995L17.1697 5.76962ZM18.2304 17.1697C17.9375 16.8768 17.4626 16.8768 17.1697 17.1697C16.8768 17.4626 16.8768 17.9375 17.1697 18.2304L17.7 17.7L18.2304 17.1697ZM17.8697 18.9304C18.1626 19.2233 18.6375 19.2233 18.9304 18.9304C19.2233 18.6375 19.2233 18.1626 18.9304 17.8697L18.4 18.4L17.8697 18.9304ZM6.83028 18.2304C7.12317 17.9375 7.12317 17.4626 6.83028 17.1697C6.53739 16.8768 6.06251 16.8768 5.76962 17.1697L6.29995 17.7L6.83028 18.2304ZM5.06962 17.8697C4.77673 18.1626 4.77673 18.6375 5.06962 18.9304C5.36251 19.2233 5.83739 19.2233 6.13028 18.9304L5.59995 18.4L5.06962 17.8697ZM3 12V12.75H4V12V11.25H3V12ZM12 3H11.25V4H12H12.75V3H12ZM20 12V12.75H21V12V11.25H20V12ZM12 20H11.25V21H12H12.75V20H12ZM5.59995 5.59995L5.06962 6.13028L5.76962 6.83028L6.29995 6.29995L6.83028 5.76962L6.13028 5.06962L5.59995 5.59995ZM18.4 5.59995L17.8697 5.06962L17.1697 5.76962L17.7 6.29995L18.2304 6.83028L18.9304 6.13028L18.4 5.59995ZM17.7 17.7L17.1697 18.2304L17.8697 18.9304L18.4 18.4L18.9304 17.8697L18.2304 17.1697L17.7 17.7ZM6.29995 17.7L5.76962 17.1697L5.06962 17.8697L5.59995 18.4L6.13028 18.9304L6.83028 18.2304L6.29995 17.7Z" fill="#2F2B3D" fill-opacity="0.9"/>
</svg>
