<svg width="24" height="24" viewBox="0 0 24 24" fill="none" xmlns="http://www.w3.org/2000/svg">
<path d="M3 16.2501C2.58579 16.2501 2.25 16.5859 2.25 17.0001C2.25 17.4144 2.58579 17.7501 3 17.7501V17.0001V16.2501ZM4 17.7501C4.41421 17.7501 4.75 17.4144 4.75 17.0001C4.75 16.5859 4.41421 16.2501 4 16.2501V17.0001V17.7501ZM20 16.2501C19.5858 16.2501 19.25 16.5859 19.25 17.0001C19.25 17.4144 19.5858 17.7501 20 17.7501V17.0001V16.2501ZM21 17.7501C21.4142 17.7501 21.75 17.4144 21.75 17.0001C21.75 16.5859 21.4142 16.2501 21 16.2501V17.0001V17.7501ZM6.13028 10.07C5.83739 9.77712 5.36251 9.77712 5.06962 10.07C4.77673 10.3629 4.77673 10.8378 5.06962 11.1307L5.59995 10.6003L6.13028 10.07ZM5.76962 11.8307C6.06251 12.1236 6.53739 12.1236 6.83028 11.8307C7.12317 11.5378 7.12317 11.0629 6.83028 10.77L6.29995 11.3003L5.76962 11.8307ZM18.9304 11.1307C19.2233 10.8378 19.2233 10.3629 18.9304 10.07C18.6375 9.77712 18.1626 9.77712 17.8697 10.07L18.4 10.6003L18.9304 11.1307ZM17.1697 10.77C16.8768 11.0629 16.8768 11.5378 17.1697 11.8307C17.4626 12.1236 17.9375 12.1236 18.2304 11.8307L17.7 11.3003L17.1697 10.77ZM7.25 17.0001C7.25 17.4144 7.58579 17.7501 8 17.7501C8.41421 17.7501 8.75 17.4144 8.75 17.0001H8H7.25ZM15.25 17.0001C15.25 17.4144 15.5858 17.7501 16 17.7501C16.4142 17.7501 16.75 17.4144 16.75 17.0001H16H15.25ZM3 17.0001V17.7501H4V17.0001V16.2501H3V17.0001ZM20 17.0001V17.7501H21V17.0001V16.2501H20V17.0001ZM5.59995 10.6003L5.06962 11.1307L5.76962 11.8307L6.29995 11.3003L6.83028 10.77L6.13028 10.07L5.59995 10.6003ZM18.4 10.6003L17.8697 10.07L17.1697 10.77L17.7 11.3003L18.2304 11.8307L18.9304 11.1307L18.4 10.6003ZM8 17.0001H8.75C8.75 15.2052 10.2051 13.7501 12 13.7501V13.0001V12.2501C9.37665 12.2501 7.25 14.3768 7.25 17.0001H8ZM12 13.0001V13.7501C13.7949 13.7501 15.25 15.2052 15.25 17.0001H16H16.75C16.75 14.3768 14.6234 12.2501 12 12.2501V13.0001Z" fill="#2F2B3D" fill-opacity="0.9"/>
<path d="M3 21H21" stroke="#2F2B3D" stroke-opacity="0.9" stroke-width="1.5" stroke-linecap="round" stroke-linejoin="round"/>
<path d="M11.25 9C11.25 9.41421 11.5858 9.75 12 9.75C12.4142 9.75 12.75 9.41421 12.75 9H12H11.25ZM12 3L12.5303 2.46967C12.3158 2.25517 11.9932 2.191 11.713 2.30709C11.4327 2.42318 11.25 2.69665 11.25 3H12ZM14.4697 6.53033C14.7626 6.82322 15.2374 6.82322 15.5303 6.53033C15.8232 6.23744 15.8232 5.76256 15.5303 5.46967L15 6L14.4697 6.53033ZM8.46967 5.46967C8.17678 5.76256 8.17678 6.23744 8.46967 6.53033C8.76256 6.82322 9.23744 6.82322 9.53033 6.53033L9 6L8.46967 5.46967ZM12.5303 3.53033C12.8232 3.23744 12.8232 2.76256 12.5303 2.46967C12.2374 2.17678 11.7626 2.17678 11.4697 2.46967L12 3L12.5303 3.53033ZM12 9H12.75V3H12H11.25V9H12ZM12 3L11.4697 3.53033L14.4697 6.53033L15 6L15.5303 5.46967L12.5303 2.46967L12 3ZM9 6L9.53033 6.53033L12.5303 3.53033L12 3L11.4697 2.46967L8.46967 5.46967L9 6Z" fill="#2F2B3D" fill-opacity="0.9"/>
</svg>
