<svg width="24" height="24" viewBox="0 0 24 24" fill="none" xmlns="http://www.w3.org/2000/svg">
<circle cx="16" cy="9" r="1" stroke="#2F2B3D" stroke-opacity="0.9" stroke-width="1.5" stroke-linecap="round" stroke-linejoin="round"/>
<path d="M6 11L10 9L13.5 12L12 14" stroke="#2F2B3D" stroke-opacity="0.9" stroke-width="1.5" stroke-linecap="round" stroke-linejoin="round"/>
<path d="M3 16.75C3.31129 16.9048 3.65249 16.9901 4 17C4.79071 17.0166 5.53882 16.6425 6 16C6.46118 15.3575 7.20929 14.9835 8 15C8.79071 14.9835 9.53882 15.3575 10 16C10.4612 16.6425 11.2093 17.0166 12 17C12.7907 17.0166 13.5388 16.6425 14 16C14.4612 15.3575 15.2093 14.9835 16 15C16.7907 14.9835 17.5388 15.3575 18 16C18.4612 16.6425 19.2093 17.0166 20 17C20.3475 16.9901 20.6887 16.9048 21 16.75" stroke="#2F2B3D" stroke-opacity="0.9" stroke-width="1.5" stroke-linecap="round" stroke-linejoin="round"/>
</svg>
