<svg width="24" height="24" viewBox="0 0 24 24" fill="none" xmlns="http://www.w3.org/2000/svg">
<path d="M3 16.25C2.58579 16.25 2.25 16.5858 2.25 17C2.25 17.4142 2.58579 17.75 3 17.75V17V16.25ZM5.397 17V17.75H5.39706L5.397 17ZM9.493 14.867L10.1075 15.2971L10.1075 15.2969L9.493 14.867ZM10.2845 15.0439C10.522 14.7045 10.4393 14.2369 10.0999 13.9995C9.76053 13.762 9.29291 13.8447 9.05546 14.1841L9.67 14.614L10.2845 15.0439ZM12.7147 8.95821C12.4779 9.29804 12.5614 9.76552 12.9013 10.0023C13.2411 10.2392 13.7086 10.1556 13.9454 9.81579L13.3301 9.387L12.7147 8.95821ZM13.5071 9.133L12.8926 8.70295L12.8917 8.70421L13.5071 9.133ZM17.6031 7L17.6031 6.25H17.603L17.6031 7ZM21.0001 7.75C21.4143 7.75 21.7501 7.41421 21.7501 7C21.7501 6.58579 21.4143 6.25 21.0001 6.25V7V7.75ZM3 17V17.75H5.397V17V16.25H3V17ZM5.397 17L5.39706 17.75C7.27336 17.7499 9.03158 16.8343 10.1075 15.2971L9.493 14.867L8.87854 14.437C8.08333 15.5732 6.78378 16.2499 5.39694 16.25L5.397 17ZM9.493 14.867L10.1075 15.2969L10.2845 15.0439L9.67 14.614L9.05546 14.1841L8.87846 14.4371L9.493 14.867ZM13.3301 9.387L13.9454 9.81579L14.1224 9.56179L13.5071 9.133L12.8917 8.70421L12.7147 8.95821L13.3301 9.387ZM13.5071 9.133L14.1215 9.56305C14.9167 8.42685 16.2163 7.7501 17.6031 7.75L17.6031 7L17.603 6.25C15.7267 6.25014 13.9685 7.16574 12.8926 8.70295L13.5071 9.133ZM17.6031 7V7.75H21.0001V7V6.25H17.6031V7Z" fill="#2F2B3D" fill-opacity="0.9"/>
<path d="M18 4L21 7L18 10" stroke="#2F2B3D" stroke-opacity="0.9" stroke-width="1.5" stroke-linecap="round" stroke-linejoin="round"/>
<path d="M3 7H5.397C7.02857 7.00012 8.55746 7.79629 9.493 9.133L13.507 14.867C14.4425 16.2037 15.9714 16.9999 17.603 17H21" stroke="#2F2B3D" stroke-opacity="0.9" stroke-width="1.5" stroke-linecap="round" stroke-linejoin="round"/>
<path d="M18 20L21 17L18 14" stroke="#2F2B3D" stroke-opacity="0.9" stroke-width="1.5" stroke-linecap="round" stroke-linejoin="round"/>
</svg>
