<svg width="24" height="24" viewBox="0 0 24 24" fill="none" xmlns="http://www.w3.org/2000/svg">
<path d="M3 16.25C2.58579 16.25 2.25 16.5858 2.25 17C2.25 17.4142 2.58579 17.75 3 17.75V17V16.25ZM8 17V17.75C8.24475 17.75 8.4741 17.6306 8.61445 17.4301L8 17ZM10.2844 15.0441C10.522 14.7047 10.4394 14.2371 10.1001 13.9996C9.76071 13.762 9.29307 13.8446 9.05555 14.184L9.67 14.614L10.2844 15.0441ZM12.7155 8.95706C12.4781 9.29646 12.5607 9.76408 12.9001 10.0015C13.2395 10.239 13.7072 10.1563 13.9446 9.81694L13.3301 9.387L12.7155 8.95706ZM15.0001 7V6.25C14.7553 6.25 14.5259 6.36947 14.3855 6.57006L15.0001 7ZM21.0001 7.75C21.4143 7.75 21.7501 7.41421 21.7501 7C21.7501 6.58579 21.4143 6.25 21.0001 6.25V7V7.75ZM3 17V17.75H8V17V16.25H3V17ZM8 17L8.61445 17.4301L10.2844 15.0441L9.67 14.614L9.05555 14.184L7.38555 16.57L8 17ZM13.3301 9.387L13.9446 9.81694L15.6146 7.42994L15.0001 7L14.3855 6.57006L12.7155 8.95706L13.3301 9.387ZM15.0001 7V7.75H21.0001V7V6.25H15.0001V7Z" fill="#2F2B3D" fill-opacity="0.9"/>
<path d="M18 4L21 7L18 10" stroke="#2F2B3D" stroke-opacity="0.9" stroke-width="1.5" stroke-linecap="round" stroke-linejoin="round"/>
<path d="M3 7H8L15 17H21" stroke="#2F2B3D" stroke-opacity="0.9" stroke-width="1.5" stroke-linecap="round" stroke-linejoin="round"/>
<path d="M18 20L21 17L18 14" stroke="#2F2B3D" stroke-opacity="0.9" stroke-width="1.5" stroke-linecap="round" stroke-linejoin="round"/>
</svg>
