<svg width="24" height="24" viewBox="0 0 24 24" fill="none" xmlns="http://www.w3.org/2000/svg">
<path d="M8 3.25C7.58579 3.25 7.25 3.58579 7.25 4C7.25 4.41421 7.58579 4.75 8 4.75V4V3.25ZM19.25 16C19.25 16.4142 19.5858 16.75 20 16.75C20.4142 16.75 20.75 16.4142 20.75 16H20H19.25ZM19.9409 19.9487C20.2346 19.6567 20.2359 19.1818 19.9438 18.8881C19.6517 18.5944 19.1768 18.5931 18.8831 18.8851L19.412 19.4169L19.9409 19.9487ZM5.1156 5.117C5.40889 4.82451 5.40955 4.34964 5.11706 4.05634C4.82458 3.76304 4.3497 3.76239 4.0564 4.05487L4.586 4.58594L5.1156 5.117ZM8 4V4.75H18V4V3.25H8V4ZM18 4V4.75C18.6904 4.75 19.25 5.30964 19.25 6H20H20.75C20.75 4.48122 19.5188 3.25 18 3.25V4ZM20 6H19.25V16H20H20.75V6H20ZM19.412 19.4169L18.8831 18.8851C18.6555 19.1116 18.3452 19.2499 18 19.2499V19.9999V20.7499C18.7588 20.7499 19.4445 20.4423 19.9409 19.9487L19.412 19.4169ZM18 19.9999V19.2499H6V19.9999V20.7499H18V19.9999ZM6 19.9999V19.2499C5.30964 19.2499 4.75 18.6903 4.75 17.9999H4H3.25C3.25 19.5187 4.48122 20.7499 6 20.7499V19.9999ZM4 17.9999H4.75V5.99994H4H3.25V17.9999H4ZM4 5.99994H4.75C4.75 5.65447 4.88947 5.3425 5.1156 5.117L4.586 4.58594L4.0564 4.05487C3.55853 4.55137 3.25 5.2414 3.25 5.99994H4Z" fill="#2F2B3D" fill-opacity="0.9"/>
<path d="M4 9.25C3.58579 9.25 3.25 9.58579 3.25 10C3.25 10.4142 3.58579 10.75 4 10.75V10V9.25ZM10 10.75C10.4142 10.75 10.75 10.4142 10.75 10C10.75 9.58579 10.4142 9.25 10 9.25V10V10.75ZM14 9.25C13.5858 9.25 13.25 9.58579 13.25 10C13.25 10.4142 13.5858 10.75 14 10.75V10V9.25ZM20 10.75C20.4142 10.75 20.75 10.4142 20.75 10C20.75 9.58579 20.4142 9.25 20 9.25V10V10.75ZM4 10V10.75H10V10V9.25H4V10ZM14 10V10.75H20V10V9.25H14V10Z" fill="#2F2B3D" fill-opacity="0.9"/>
<path d="M10.75 4C10.75 3.58579 10.4142 3.25 10 3.25C9.58579 3.25 9.25 3.58579 9.25 4H10H10.75ZM9.25 6C9.25 6.41421 9.58579 6.75 10 6.75C10.4142 6.75 10.75 6.41421 10.75 6H10H9.25ZM10.75 10C10.75 9.58579 10.4142 9.25 10 9.25C9.58579 9.25 9.25 9.58579 9.25 10H10H10.75ZM9.25 20C9.25 20.4142 9.58579 20.75 10 20.75C10.4142 20.75 10.75 20.4142 10.75 20H10H9.25ZM10 4H9.25V6H10H10.75V4H10ZM10 10H9.25V20H10H10.75V10H10Z" fill="#2F2B3D" fill-opacity="0.9"/>
<path d="M3 3L21 21" stroke="#2F2B3D" stroke-opacity="0.9" stroke-width="1.5" stroke-linecap="round" stroke-linejoin="round"/>
</svg>
