<svg width="24" height="24" viewBox="0 0 24 24" fill="none" xmlns="http://www.w3.org/2000/svg">
<path d="M7.79194 7.79297C7.41297 8.18535 7.41839 8.80905 7.80412 9.19479C8.18986 9.58052 8.81356 9.58594 9.20594 9.20697" stroke="#2F2B3D" stroke-opacity="0.9" stroke-width="1.5" stroke-linecap="round" stroke-linejoin="round"/>
<path d="M5.40927 5.40835C5.70275 5.11604 5.7037 4.64117 5.4114 4.34769C5.11909 4.05421 4.64422 4.05325 4.35074 4.34556L4.88 4.87695L5.40927 5.40835ZM4 6.99995H4.75L4.75 6.99882L4 6.99995ZM4.593 12.291L4.06267 12.8213L4.593 12.291ZM12.709 20.407L13.2394 19.8767L13.2393 19.8766L12.709 20.407ZM15.573 20.407L15.0427 19.8766L15.0426 19.8767L15.573 20.407ZM18.5193 18.5213C18.8122 18.2284 18.8122 17.7535 18.5193 17.4606C18.2264 17.1677 17.7516 17.1677 17.4587 17.4606L17.989 17.991L18.5193 18.5213ZM19.4607 15.4587C19.1678 15.7516 19.1678 16.2264 19.4607 16.5193C19.7536 16.8122 20.2284 16.8122 20.5213 16.5193L19.991 15.989L19.4607 15.4587ZM20.407 15.573L19.8767 15.0426L19.8767 15.0427L20.407 15.573ZM20.407 12.709L19.8767 13.2394L19.8767 13.2394L20.407 12.709ZM12.29 4.593L12.8203 4.06264L12.8203 4.06263L12.29 4.593ZM10.859 4L10.8593 3.25H10.859V4ZM8 3.25C7.58579 3.25 7.25 3.58579 7.25 4C7.25 4.41421 7.58579 4.75 8 4.75V4V3.25ZM4.88 4.87695L4.35074 4.34556C3.64472 5.04875 3.2485 6.00462 3.25 7.00108L4 6.99995L4.75 6.99882C4.7491 6.40201 4.98641 5.82951 5.40927 5.40835L4.88 4.87695ZM4 6.99995H3.25V10.859H4H4.75V6.99995H4ZM4 10.859H3.25C3.25 11.5946 3.54186 12.3005 4.06267 12.8213L4.593 12.291L5.12333 11.7606C4.88414 11.5214 4.75 11.1973 4.75 10.859H4ZM4.593 12.291L4.06267 12.8213L12.1787 20.9373L12.709 20.407L13.2393 19.8766L5.12333 11.7606L4.593 12.291ZM12.709 20.407L12.1786 20.9372C12.6991 21.4577 13.405 21.7502 14.141 21.7502V21.0002V20.2502C13.8028 20.2502 13.4785 20.1158 13.2394 19.8767L12.709 20.407ZM14.141 21.0002V21.7502C14.8771 21.7502 15.5829 21.4577 16.1034 20.9372L15.573 20.407L15.0426 19.8767C14.8035 20.1158 14.4792 20.2502 14.141 20.2502V21.0002ZM15.573 20.407L16.1033 20.9373L18.5193 18.5213L17.989 17.991L17.4587 17.4606L15.0427 19.8766L15.573 20.407ZM19.991 15.989L20.5213 16.5193L20.9373 16.1033L20.407 15.573L19.8767 15.0427L19.4607 15.4587L19.991 15.989ZM20.407 15.573L20.9373 16.1034C21.4578 15.5829 21.7502 14.877 21.7502 14.141H21.0002H20.2502C20.2502 14.4792 20.1159 14.8035 19.8767 15.0426L20.407 15.573ZM21.0002 14.141H21.7502C21.7502 13.405 21.4578 12.6991 20.9373 12.1786L20.407 12.709L19.8767 13.2394C20.1159 13.4785 20.2502 13.8028 20.2502 14.141H21.0002ZM20.407 12.709L20.9373 12.1786L12.8203 4.06264L12.29 4.593L11.7597 5.12336L19.8767 13.2394L20.407 12.709ZM12.29 4.593L12.8203 4.06263C12.3002 3.54257 11.5948 3.25028 10.8593 3.25L10.859 4L10.8587 4.75C11.1967 4.75013 11.5207 4.88442 11.7597 5.12337L12.29 4.593ZM10.859 4V3.25H8V4V4.75H10.859V4Z" fill="#2F2B3D" fill-opacity="0.9"/>
<path d="M3 3L21 21" stroke="#2F2B3D" stroke-opacity="0.9" stroke-width="1.5" stroke-linecap="round" stroke-linejoin="round"/>
</svg>
