<svg width="24" height="24" viewBox="0 0 24 24" fill="none" xmlns="http://www.w3.org/2000/svg">
<path d="M6 6H5.025C3.90662 6 3 6.90662 3 8.025V10.859C3 11.396 3.213 11.911 3.593 12.291L9.709 18.407C10.0888 18.7868 10.6039 19.0002 11.141 19.0002C11.6781 19.0002 12.1932 18.7868 12.573 18.407L15.407 15.573C15.435 15.545 15.462 15.517 15.487 15.488" stroke="#2F2B3D" stroke-opacity="0.9" stroke-width="1.5" stroke-linecap="round" stroke-linejoin="round"/>
<path d="M17.0427 17.8767C16.7498 18.1696 16.7498 18.6444 17.0427 18.9373C17.3355 19.2302 17.8104 19.2302 18.1033 18.9373L17.573 18.407L17.0427 17.8767ZM18.5213 18.5193C18.8142 18.2264 18.8142 17.7516 18.5213 17.4587C18.2284 17.1658 17.7535 17.1658 17.4607 17.4587L17.991 17.989L18.5213 18.5193ZM19.4577 15.4617C19.1648 15.7546 19.1648 16.2295 19.4577 16.5223C19.7506 16.8152 20.2255 16.8152 20.5184 16.5223L19.988 15.992L19.4577 15.4617ZM20.407 15.573L19.8767 15.0426L19.8767 15.0427L20.407 15.573ZM20.407 12.709L19.8767 13.2394L19.8767 13.2394L20.407 12.709ZM13.8203 5.06265C13.5274 4.76978 13.0525 4.76981 12.7597 5.06272C12.4668 5.35564 12.4668 5.83051 12.7597 6.12338L13.29 5.59302L13.8203 5.06265ZM17.573 18.407L18.1033 18.9373L18.5213 18.5193L17.991 17.989L17.4607 17.4587L17.0427 17.8767L17.573 18.407ZM19.988 15.992L20.5184 16.5223L20.9374 16.1033L20.407 15.573L19.8767 15.0427L19.4577 15.4617L19.988 15.992ZM20.407 15.573L20.9373 16.1034C21.4578 15.583 21.7503 14.8771 21.7503 14.141H21.0003H20.2503C20.2503 14.4792 20.1159 14.8035 19.8767 15.0426L20.407 15.573ZM21.0003 14.141H21.7503C21.7503 13.405 21.4578 12.6991 20.9373 12.1786L20.407 12.709L19.8767 13.2394C20.1159 13.4785 20.2503 13.8028 20.2503 14.141H21.0003ZM20.407 12.709L20.9373 12.1787L13.8203 5.06265L13.29 5.59302L12.7597 6.12338L19.8767 13.2394L20.407 12.709Z" fill="#2F2B3D" fill-opacity="0.9"/>
<path d="M6 9H5.99" stroke="#2F2B3D" stroke-opacity="0.9" stroke-width="1.5" stroke-linecap="round" stroke-linejoin="round"/>
<path d="M3 3L21 21" stroke="#2F2B3D" stroke-opacity="0.9" stroke-width="1.5" stroke-linecap="round" stroke-linejoin="round"/>
</svg>
