<svg width="24" height="24" viewBox="0 0 24 24" fill="none" xmlns="http://www.w3.org/2000/svg">
<path fill-rule="evenodd" clip-rule="evenodd" d="M7.859 6H5.025C3.90662 6 3 6.90662 3 8.025V10.859C3 11.396 3.213 11.911 3.593 12.291L9.709 18.407C10.0888 18.7868 10.6039 19.0002 11.141 19.0002C11.6781 19.0002 12.1932 18.7868 12.573 18.407L15.407 15.573C15.7868 15.1932 16.0002 14.6781 16.0002 14.141C16.0002 13.6039 15.7868 13.0888 15.407 12.709L9.29 6.593C8.91044 6.2135 8.39574 6.00021 7.859 6Z" stroke="#2F2B3D" stroke-opacity="0.9" stroke-width="1.5" stroke-linecap="round" stroke-linejoin="round"/>
<path d="M17.573 18.407L20.407 15.573C20.7869 15.1932 21.0003 14.6781 21.0003 14.141C21.0003 13.6039 20.7869 13.0888 20.407 12.709L13.29 5.59302" stroke="#2F2B3D" stroke-opacity="0.9" stroke-width="1.5" stroke-linecap="round" stroke-linejoin="round"/>
<path d="M6 9H5.99" stroke="#2F2B3D" stroke-opacity="0.9" stroke-width="1.5" stroke-linecap="round" stroke-linejoin="round"/>
</svg>
