<svg width="24" height="24" viewBox="0 0 24 24" fill="none" xmlns="http://www.w3.org/2000/svg">
<path d="M4 6H14" stroke="#2F2B3D" stroke-opacity="0.9" stroke-width="1.5" stroke-linecap="round" stroke-linejoin="round"/>
<path d="M4 18H14" stroke="#2F2B3D" stroke-opacity="0.9" stroke-width="1.5" stroke-linecap="round" stroke-linejoin="round"/>
<path d="M4 11.25C3.58579 11.25 3.25 11.5858 3.25 12C3.25 12.4142 3.58579 12.75 4 12.75V12V11.25ZM21 12V12.75C21.3033 12.75 21.5768 12.5673 21.6929 12.287C21.809 12.0068 21.7448 11.6842 21.5303 11.4697L21 12ZM18.5303 8.46967C18.2374 8.17678 17.7626 8.17678 17.4697 8.46967C17.1768 8.76256 17.1768 9.23744 17.4697 9.53033L18 9L18.5303 8.46967ZM17.4697 14.4697C17.1768 14.7626 17.1768 15.2374 17.4697 15.5303C17.7626 15.8232 18.2374 15.8232 18.5303 15.5303L18 15L17.4697 14.4697ZM21.5303 12.5303C21.8232 12.2374 21.8232 11.7626 21.5303 11.4697C21.2374 11.1768 20.7626 11.1768 20.4697 11.4697L21 12L21.5303 12.5303ZM4 12V12.75H21V12V11.25H4V12ZM21 12L21.5303 11.4697L18.5303 8.46967L18 9L17.4697 9.53033L20.4697 12.5303L21 12ZM18 15L18.5303 15.5303L21.5303 12.5303L21 12L20.4697 11.4697L17.4697 14.4697L18 15Z" fill="#2F2B3D" fill-opacity="0.9"/>
</svg>
