<svg width="24" height="24" viewBox="0 0 24 24" fill="none" xmlns="http://www.w3.org/2000/svg">
<path d="M4 6H20" stroke="#2F2B3D" stroke-opacity="0.9" stroke-width="1.5" stroke-linecap="round" stroke-linejoin="round"/>
<path d="M4 18H9" stroke="#2F2B3D" stroke-opacity="0.9" stroke-width="1.5" stroke-linecap="round" stroke-linejoin="round"/>
<path d="M4 11.25C3.58579 11.25 3.25 11.5858 3.25 12C3.25 12.4142 3.58579 12.75 4 12.75V12V11.25ZM13 18L12.4697 17.4697C12.2552 17.6842 12.191 18.0068 12.3071 18.287C12.4232 18.5673 12.6967 18.75 13 18.75V18ZM15.5303 16.5303C15.8232 16.2374 15.8232 15.7626 15.5303 15.4697C15.2374 15.1768 14.7626 15.1768 14.4697 15.4697L15 16L15.5303 16.5303ZM14.4697 20.5303C14.7626 20.8232 15.2374 20.8232 15.5303 20.5303C15.8232 20.2374 15.8232 19.7626 15.5303 19.4697L15 20L14.4697 20.5303ZM13.5303 17.4697C13.2374 17.1768 12.7626 17.1768 12.4697 17.4697C12.1768 17.7626 12.1768 18.2374 12.4697 18.5303L13 18L13.5303 17.4697ZM4 12V12.75H17V12V11.25H4V12ZM17 12V12.75C18.2426 12.75 19.25 13.7574 19.25 15H20H20.75C20.75 12.9289 19.0711 11.25 17 11.25V12ZM20 15H19.25C19.25 16.2426 18.2426 17.25 17 17.25V18V18.75C19.0711 18.75 20.75 17.0711 20.75 15H20ZM17 18V17.25H13V18V18.75H17V18ZM13 18L13.5303 18.5303L15.5303 16.5303L15 16L14.4697 15.4697L12.4697 17.4697L13 18ZM15 20L15.5303 19.4697L13.5303 17.4697L13 18L12.4697 18.5303L14.4697 20.5303L15 20Z" fill="#2F2B3D" fill-opacity="0.9"/>
</svg>
