<svg width="24" height="24" viewBox="0 0 24 24" fill="none" xmlns="http://www.w3.org/2000/svg">
<path d="M7 13V4.99997C7 4.44768 6.55228 3.99997 6 3.99997H4C3.44772 3.99997 3 4.44768 3 4.99997V12C3 12.5523 3.44772 13 4 13H7C9.20914 13 11 14.7908 11 17V18C11 19.1045 11.8954 20 13 20C14.1046 20 15 19.1045 15 18V13H18C19.1046 13 20 12.1045 20 11L19 5.99997C18.7046 4.73971 17.8892 3.92432 17 3.99997H10C8.34315 3.99997 7 5.34311 7 6.99997" stroke="#2F2B3D" stroke-opacity="0.9" stroke-width="1.5" stroke-linecap="round" stroke-linejoin="round"/>
</svg>
