<svg width="24" height="24" viewBox="0 0 24 24" fill="none" xmlns="http://www.w3.org/2000/svg">
<circle cx="5" cy="17" r="2" stroke="#2F2B3D" stroke-opacity="0.9" stroke-width="1.5" stroke-linecap="round" stroke-linejoin="round"/>
<circle cx="17" cy="17" r="2" stroke="#2F2B3D" stroke-opacity="0.9" stroke-width="1.5" stroke-linecap="round" stroke-linejoin="round"/>
<path d="M7 17.25C6.58579 17.25 6.25 17.5858 6.25 18C6.25 18.4142 6.58579 18.75 7 18.75V18V17.25ZM15 18.75C15.4142 18.75 15.75 18.4142 15.75 18C15.75 17.5858 15.4142 17.25 15 17.25V18V18.75ZM19 17.25C18.5858 17.25 18.25 17.5858 18.25 18C18.25 18.4142 18.5858 18.75 19 18.75V18V17.25ZM21 18V18.75C21.4142 18.75 21.75 18.4142 21.75 18H21ZM15 5V4.25C14.7735 4.25 14.5591 4.35235 14.4168 4.52849C14.2744 4.70463 14.2192 4.93568 14.2666 5.15715L15 5ZM16.5 12L15.7666 12.1571C15.8407 12.5029 16.1463 12.75 16.5 12.75V12ZM21 12.75C21.4142 12.75 21.75 12.4142 21.75 12C21.75 11.5858 21.4142 11.25 21 11.25V12V12.75ZM7 18V18.75H15V18V17.25H7V18ZM19 18V18.75H21V18V17.25H19V18ZM21 18H21.75V12H21H20.25V18H21ZM21 12H21.75C21.75 9.92871 21.1515 8.02219 20.1458 6.61432C19.1412 5.20789 17.6858 4.25 16 4.25V5V5.75C17.0756 5.75 18.1202 6.35911 18.9252 7.48618C19.7293 8.61181 20.25 10.2053 20.25 12H21ZM16 5V4.25H15V5V5.75H16V5ZM15 5L14.2666 5.15715L15.7666 12.1571L16.5 12L17.2334 11.8429L15.7334 4.84285L15 5ZM16.5 12V12.75H21V12V11.25H16.5V12Z" fill="#2F2B3D" fill-opacity="0.9"/>
<path d="M12 18V5H15" stroke="#2F2B3D" stroke-opacity="0.9" stroke-width="1.5" stroke-linecap="round" stroke-linejoin="round"/>
<path d="M3 17V12H12" stroke="#2F2B3D" stroke-opacity="0.9" stroke-width="1.5" stroke-linecap="round" stroke-linejoin="round"/>
</svg>
