<svg width="24" height="24" viewBox="0 0 24 24" fill="none" xmlns="http://www.w3.org/2000/svg">
<path d="M19 3H19.75C19.75 2.69987 19.5711 2.42864 19.2952 2.31052C19.0193 2.19241 18.6995 2.25015 18.4824 2.45731L19 3ZM19 15V15.75C19.4143 15.75 19.75 15.4142 19.75 15H19ZM14 15L13.2501 15.0047C13.2526 15.4171 13.5877 15.75 14 15.75V15ZM19.75 15C19.75 14.5858 19.4142 14.25 19 14.25C18.5858 14.25 18.25 14.5858 18.25 15H19H19.75ZM19 21V21.75C19.4142 21.75 19.75 21.4142 19.75 21H19ZM18 21H17.25C17.25 21.4142 17.5858 21.75 18 21.75V21ZM18.75 18C18.75 17.5858 18.4142 17.25 18 17.25C17.5858 17.25 17.25 17.5858 17.25 18H18H18.75ZM8.75 4C8.75 3.58579 8.41421 3.25 8 3.25C7.58579 3.25 7.25 3.58579 7.25 4H8H8.75ZM7.25 21C7.25 21.4142 7.58579 21.75 8 21.75C8.41421 21.75 8.75 21.4142 8.75 21H8H7.25ZM5.75 4C5.75 3.58579 5.41421 3.25 5 3.25C4.58579 3.25 4.25 3.58579 4.25 4H5H5.75ZM11.75 4C11.75 3.58579 11.4142 3.25 11 3.25C10.5858 3.25 10.25 3.58579 10.25 4H11H11.75ZM19 3H18.25V15H19H19.75V3H19ZM19 15V14.25H14V15V15.75H19V15ZM14 15L14.75 14.9953C14.7386 13.1651 14.7878 11.4193 15.3974 9.57813C16.0034 7.74795 17.1832 5.76962 19.5177 3.54269L19 3L18.4824 2.45731C16.0009 4.82438 14.6692 7.00555 13.9734 9.10662C13.2813 11.1967 13.2385 13.1539 13.2501 15.0047L14 15ZM19 15H18.25V21H19H19.75V15H19ZM19 21V20.25H18V21V21.75H19V21ZM18 21H18.75V18H18H17.25V21H18ZM8 4H7.25V21H8H8.75V4H8ZM5 4H4.25V7H5H5.75V4H5ZM5 7H4.25C4.25 9.07107 5.92893 10.75 8 10.75V10V9.25C6.75736 9.25 5.75 8.24264 5.75 7H5ZM8 10V10.75C10.0711 10.75 11.75 9.07107 11.75 7H11H10.25C10.25 8.24264 9.24264 9.25 8 9.25V10ZM11 7H11.75V4H11H10.25V7H11Z" fill="#2F2B3D" fill-opacity="0.9"/>
</svg>
