<svg width="24" height="24" viewBox="0 0 24 24" fill="none" xmlns="http://www.w3.org/2000/svg">
<path d="M3.46967 14.4697C3.17678 14.7626 3.17678 15.2374 3.46967 15.5303C3.76256 15.8232 4.23744 15.8232 4.53033 15.5303L4 15L3.46967 14.4697ZM15.5303 4.53033C15.8232 4.23744 15.8232 3.76256 15.5303 3.46967C15.2374 3.17678 14.7626 3.17678 14.4697 3.46967L15 4L15.5303 4.53033ZM20.5303 9.53033C20.8232 9.23744 20.8232 8.76256 20.5303 8.46967C20.2374 8.17678 19.7626 8.17678 19.4697 8.46967L20 9L20.5303 9.53033ZM8.46967 19.4697C8.17678 19.7626 8.17678 20.2374 8.46967 20.5303C8.76256 20.8232 9.23744 20.8232 9.53033 20.5303L9 20L8.46967 19.4697ZM5.53033 11.4697C5.23744 11.1768 4.76256 11.1768 4.46967 11.4697C4.17678 11.7626 4.17678 12.2374 4.46967 12.5303L5 12L5.53033 11.4697ZM11.4697 19.5303C11.7626 19.8232 12.2374 19.8232 12.5303 19.5303C12.8232 19.2374 12.8232 18.7626 12.5303 18.4697L12 19L11.4697 19.5303ZM9.03033 7.96967C8.73744 7.67678 8.26256 7.67678 7.96967 7.96967C7.67678 8.26256 7.67678 8.73744 7.96967 9.03033L8.5 8.5L9.03033 7.96967ZM14.9697 16.0303C15.2626 16.3232 15.7374 16.3232 16.0303 16.0303C16.3232 15.7374 16.3232 15.2626 16.0303 14.9697L15.5 15.5L14.9697 16.0303ZM12.5303 4.46967C12.2374 4.17678 11.7626 4.17678 11.4697 4.46967C11.1768 4.76256 11.1768 5.23744 11.4697 5.53033L12 5L12.5303 4.46967ZM18.4697 12.5303C18.7626 12.8232 19.2374 12.8232 19.5303 12.5303C19.8232 12.2374 19.8232 11.7626 19.5303 11.4697L19 12L18.4697 12.5303ZM4 15L4.53033 15.5303L15.5303 4.53033L15 4L14.4697 3.46967L3.46967 14.4697L4 15ZM20 9L19.4697 8.46967L8.46967 19.4697L9 20L9.53033 20.5303L20.5303 9.53033L20 9ZM5 12L4.46967 12.5303L11.4697 19.5303L12 19L12.5303 18.4697L5.53033 11.4697L5 12ZM8.5 8.5L7.96967 9.03033L14.9697 16.0303L15.5 15.5L16.0303 14.9697L9.03033 7.96967L8.5 8.5ZM12 5L11.4697 5.53033L18.4697 12.5303L19 12L19.5303 11.4697L12.5303 4.46967L12 5Z" fill="#2F2B3D" fill-opacity="0.9"/>
</svg>
