<svg width="24" height="24" viewBox="0 0 24 24" fill="none" xmlns="http://www.w3.org/2000/svg">
<path d="M4.5 8.25C4.08579 8.25 3.75 8.58579 3.75 9C3.75 9.41421 4.08579 9.75 4.5 9.75V9V8.25ZM9.5 9.75C9.91421 9.75 10.25 9.41421 10.25 9C10.25 8.58579 9.91421 8.25 9.5 8.25V9V9.75ZM7.75 9C7.75 8.58579 7.41421 8.25 7 8.25C6.58579 8.25 6.25 8.58579 6.25 9H7H7.75ZM6.25 15C6.25 15.4142 6.58579 15.75 7 15.75C7.41421 15.75 7.75 15.4142 7.75 15H7H6.25ZM4.5 9V9.75H9.5V9V8.25H4.5V9ZM7 9H6.25V15H7H7.75V9H7Z" fill="#2F2B3D" fill-opacity="0.9"/>
<path d="M13 15V9L16 13L19 9V15" stroke="#2F2B3D" stroke-opacity="0.9" stroke-width="1.5" stroke-linecap="round" stroke-linejoin="round"/>
</svg>
