<svg width="24" height="24" viewBox="0 0 24 24" fill="none" xmlns="http://www.w3.org/2000/svg">
<path d="M12 13L10 11" stroke="#2F2B3D" stroke-opacity="0.9" stroke-width="1.5" stroke-linecap="round" stroke-linejoin="round"/>
<path d="M12 12L14 10" stroke="#2F2B3D" stroke-opacity="0.9" stroke-width="1.5" stroke-linecap="round" stroke-linejoin="round"/>
<path d="M12 21V8" stroke="#2F2B3D" stroke-opacity="0.9" stroke-width="1.5" stroke-linecap="round" stroke-linejoin="round"/>
<path fill-rule="evenodd" clip-rule="evenodd" d="M9.824 15.9951C8.93831 15.9432 8.121 15.502 7.5917 14.7899C7.06241 14.0779 6.87543 13.1681 7.081 12.3051C6.34491 11.6932 5.94523 10.7666 6.00531 9.81135C6.0654 8.85605 6.57804 7.98687 7.385 7.47207C6.66501 6.193 6.97623 4.58079 8.12056 3.6616C9.2649 2.74241 10.9063 2.78619 12 3.76507C13.0939 2.78777 14.7341 2.74485 15.8777 3.6636C17.0212 4.58234 17.3327 6.19329 16.614 7.47207C17.4215 7.98641 17.9346 8.85558 17.9949 9.81105C18.0552 10.7665 17.6554 11.6933 16.919 12.3051C17.1317 13.1981 16.9238 14.1394 16.3547 14.8597C15.7856 15.5801 14.918 16.0003 14 16.0001H10L9.824 15.9951Z" stroke="#2F2B3D" stroke-opacity="0.9" stroke-width="1.5" stroke-linecap="round" stroke-linejoin="round"/>
</svg>
