<svg width="24" height="24" viewBox="0 0 24 24" fill="none" xmlns="http://www.w3.org/2000/svg">
<path d="M16 5L19 8L17 9L21 13L18 14L22 18H13" stroke="#2F2B3D" stroke-opacity="0.9" stroke-width="1.5" stroke-linecap="round" stroke-linejoin="round"/>
<path d="M15 21V18" stroke="#2F2B3D" stroke-opacity="0.9" stroke-width="1.5" stroke-linecap="round" stroke-linejoin="round"/>
<path d="M8 13L6 11" stroke="#2F2B3D" stroke-opacity="0.9" stroke-width="1.5" stroke-linecap="round" stroke-linejoin="round"/>
<path d="M8 12L10 10" stroke="#2F2B3D" stroke-opacity="0.9" stroke-width="1.5" stroke-linecap="round" stroke-linejoin="round"/>
<path d="M8 21V8" stroke="#2F2B3D" stroke-opacity="0.9" stroke-width="1.5" stroke-linecap="round" stroke-linejoin="round"/>
<path fill-rule="evenodd" clip-rule="evenodd" d="M5.824 15.9951C4.93831 15.9432 4.121 15.502 3.5917 14.7899C3.06241 14.0779 2.87543 13.1681 3.081 12.3051C2.34491 11.6932 1.94523 10.7666 2.00531 9.81135C2.0654 8.85605 2.57804 7.98687 3.385 7.47207C2.66501 6.193 2.97623 4.58079 4.12056 3.6616C5.2649 2.74241 6.90629 2.78619 8 3.76507C9.09392 2.78777 10.7341 2.74485 11.8777 3.6636C13.0212 4.58234 13.3327 6.19329 12.614 7.47207C13.4215 7.98641 13.9346 8.85558 13.9949 9.81105C14.0552 10.7665 13.6554 11.6933 12.919 12.3051C13.1317 13.1981 12.9238 14.1394 12.3547 14.8597C11.7856 15.5801 10.918 16.0003 10 16.0001H6L5.824 15.9951Z" stroke="#2F2B3D" stroke-opacity="0.9" stroke-width="1.5" stroke-linecap="round" stroke-linejoin="round"/>
</svg>
