<svg width="24" height="24" viewBox="0 0 24 24" fill="none" xmlns="http://www.w3.org/2000/svg">
<path d="M5 18.25C4.58579 18.25 4.25 18.5858 4.25 19C4.25 19.4142 4.58579 19.75 5 19.75V19V18.25ZM19 19.75C19.4142 19.75 19.75 19.4142 19.75 19C19.75 18.5858 19.4142 18.25 19 18.25V19V19.75ZM20.2359 16.9914C20.2389 17.4056 20.5771 17.7389 20.9913 17.736C21.4055 17.733 21.7388 17.3949 21.7359 16.9807L20.9859 16.986L20.2359 16.9914ZM20.8399 16.25L21.5351 15.9687C21.5219 15.936 21.5065 15.9044 21.4888 15.8739L20.8399 16.25ZM13.7399 4.00002L13.0837 4.36311C13.0861 4.36747 13.0885 4.3718 13.091 4.37611L13.7399 4.00002ZM10.2399 4.00002L10.8889 4.37599C10.8913 4.37172 10.8938 4.36743 10.8962 4.36311L10.2399 4.00002ZM8.76596 5.04804C8.55832 5.40645 8.68053 5.86533 9.03894 6.07297C9.39735 6.28062 9.85623 6.1584 10.0639 5.79999L9.41492 5.42402L8.76596 5.04804ZM8.59685 8.33017C8.80455 7.9718 8.6824 7.5129 8.32403 7.3052C7.96565 7.0975 7.50675 7.21965 7.29905 7.57803L7.94795 7.9541L8.59685 8.33017ZM3.13995 16.2501L2.49105 15.874C2.47357 15.9042 2.45821 15.9356 2.44509 15.9679L3.13995 16.2501ZM4.85134 19.7491C5.265 19.7704 5.61763 19.4524 5.63896 19.0387C5.66028 18.6251 5.34223 18.2724 4.92857 18.2511L4.88995 19.0001L4.85134 19.7491ZM5 19V19.75H19V19V18.25H5V19ZM20.9859 16.986L21.7359 16.9807C21.7334 16.6337 21.6653 16.2903 21.5351 15.9687L20.8399 16.25L20.1447 16.5314C20.2039 16.6776 20.2348 16.8336 20.2359 16.9914L20.9859 16.986ZM20.8399 16.25L21.4888 15.8739L14.3888 3.62393L13.7399 4.00002L13.091 4.37611L20.191 16.6261L20.8399 16.25ZM13.7399 4.00002L14.3962 3.63692C13.9118 2.76156 12.9903 2.21826 11.9899 2.21826V2.96826V3.71826C12.4447 3.71826 12.8635 3.96521 13.0837 4.36311L13.7399 4.00002ZM11.9899 2.96826V2.21826C10.9895 2.21826 10.068 2.76156 9.58367 3.63692L10.2399 4.00002L10.8962 4.36311C11.1163 3.96521 11.5352 3.71826 11.9899 3.71826V2.96826ZM10.2399 4.00002L9.59096 3.62404L8.76596 5.04804L9.41492 5.42402L10.0639 5.79999L10.8889 4.37599L10.2399 4.00002ZM7.94795 7.9541L7.29905 7.57803L2.49105 15.874L3.13995 16.2501L3.78885 16.6262L8.59685 8.33017L7.94795 7.9541ZM3.13995 16.2501L2.44509 15.9679C2.11013 16.7925 2.195 17.7282 2.67286 18.4792L3.3056 18.0765L3.93835 17.6738C3.72114 17.3325 3.68256 16.9072 3.83482 16.5323L3.13995 16.2501ZM3.3056 18.0765L2.67286 18.4792C3.15071 19.2301 3.96245 19.7033 4.85134 19.7491L4.88995 19.0001L4.92857 18.2511C4.52453 18.2303 4.15556 18.0152 3.93835 17.6738L3.3056 18.0765Z" fill="#2F2B3D" fill-opacity="0.9"/>
<path d="M3 3L21 21" stroke="#2F2B3D" stroke-opacity="0.9" stroke-width="1.5" stroke-linecap="round" stroke-linejoin="round"/>
</svg>
