<svg width="24" height="24" viewBox="0 0 24 24" fill="none" xmlns="http://www.w3.org/2000/svg">
<path d="M3 6L5 4V7C5 10.866 8.13401 14 12 14C15.866 14 19 10.866 19 7V4L21 6" stroke="#2F2B3D" stroke-opacity="0.9" stroke-width="1.5" stroke-linecap="round" stroke-linejoin="round"/>
<path d="M11.25 21C11.25 21.4142 11.5858 21.75 12 21.75C12.4142 21.75 12.75 21.4142 12.75 21H12H11.25ZM12 3H12.75C12.75 2.69665 12.5673 2.42318 12.287 2.30709C12.0068 2.191 11.6842 2.25517 11.4697 2.46967L12 3ZM9.46967 4.46967C9.17678 4.76256 9.17678 5.23744 9.46967 5.53033C9.76256 5.82322 10.2374 5.82322 10.5303 5.53033L10 5L9.46967 4.46967ZM13.4697 5.53033C13.7626 5.82322 14.2374 5.82322 14.5303 5.53033C14.8232 5.23744 14.8232 4.76256 14.5303 4.46967L14 5L13.4697 5.53033ZM12.5303 2.46967C12.2374 2.17678 11.7626 2.17678 11.4697 2.46967C11.1768 2.76256 11.1768 3.23744 11.4697 3.53033L12 3L12.5303 2.46967ZM12 21H12.75V3H12H11.25V21H12ZM12 3L11.4697 2.46967L9.46967 4.46967L10 5L10.5303 5.53033L12.5303 3.53033L12 3ZM14 5L14.5303 4.46967L12.5303 2.46967L12 3L11.4697 3.53033L13.4697 5.53033L14 5Z" fill="#2F2B3D" fill-opacity="0.9"/>
</svg>
