<svg width="24" height="24" viewBox="0 0 24 24" fill="none" xmlns="http://www.w3.org/2000/svg">
<circle cx="7" cy="17" r="2" stroke="#2F2B3D" stroke-opacity="0.9" stroke-width="1.5" stroke-linecap="round" stroke-linejoin="round"/>
<circle cx="17" cy="17" r="2" stroke="#2F2B3D" stroke-opacity="0.9" stroke-width="1.5" stroke-linecap="round" stroke-linejoin="round"/>
<path d="M5 17.75C5.41421 17.75 5.75 17.4142 5.75 17C5.75 16.5858 5.41421 16.25 5 16.25V17V17.75ZM3 17H2.25C2.25 17.4142 2.58579 17.75 3 17.75V17ZM13 5H13.75C13.75 4.58579 13.4142 4.25 13 4.25V5ZM13 11V11.75C13.4142 11.75 13.75 11.4142 13.75 11H13ZM8 11V10.25C7.69665 10.25 7.42318 10.4327 7.30709 10.713C7.191 10.9932 7.25517 11.3158 7.46967 11.5303L8 11ZM9.46967 13.5303C9.76256 13.8232 10.2374 13.8232 10.5303 13.5303C10.8232 13.2374 10.8232 12.7626 10.5303 12.4697L10 13L9.46967 13.5303ZM10.5303 9.53033C10.8232 9.23744 10.8232 8.76256 10.5303 8.46967C10.2374 8.17678 9.76256 8.17678 9.46967 8.46967L10 9L10.5303 9.53033ZM7.46967 10.4697C7.17678 10.7626 7.17678 11.2374 7.46967 11.5303C7.76256 11.8232 8.23744 11.8232 8.53033 11.5303L8 11L7.46967 10.4697ZM5 17V16.25H3V17V17.75H5V17ZM3 17H3.75V6H3H2.25V17H3ZM3 6H3.75C3.75 5.86193 3.86193 5.75 4 5.75V5V4.25C3.0335 4.25 2.25 5.0335 2.25 6H3ZM4 5V5.75H13V5V4.25H4V5ZM13 5H12.25V11H13H13.75V5H13ZM13 11V10.25H8V11V11.75H13V11ZM8 11L7.46967 11.5303L9.46967 13.5303L10 13L10.5303 12.4697L8.53033 10.4697L8 11ZM10 9L9.46967 8.46967L7.46967 10.4697L8 11L8.53033 11.5303L10.5303 9.53033L10 9Z" fill="#2F2B3D" fill-opacity="0.9"/>
<path d="M9 17H15" stroke="#2F2B3D" stroke-opacity="0.9" stroke-width="1.5" stroke-linecap="round" stroke-linejoin="round"/>
<path d="M13 6H18L21 11V17H19" stroke="#2F2B3D" stroke-opacity="0.9" stroke-width="1.5" stroke-linecap="round" stroke-linejoin="round"/>
</svg>
