<svg width="24" height="24" viewBox="0 0 24 24" fill="none" xmlns="http://www.w3.org/2000/svg">
<circle cx="7" cy="17" r="2" stroke="#2F2B3D" stroke-opacity="0.9" stroke-width="1.5" stroke-linecap="round" stroke-linejoin="round"/>
<circle cx="17" cy="17" r="2" stroke="#2F2B3D" stroke-opacity="0.9" stroke-width="1.5" stroke-linecap="round" stroke-linejoin="round"/>
<path d="M5 17.75C5.41421 17.75 5.75 17.4142 5.75 17C5.75 16.5858 5.41421 16.25 5 16.25V17V17.75ZM3 17H2.25C2.25 17.4142 2.58579 17.75 3 17.75V17ZM13 5H13.75C13.75 4.58579 13.4142 4.25 13 4.25V5ZM12.25 17C12.25 17.4142 12.5858 17.75 13 17.75C13.4142 17.75 13.75 17.4142 13.75 17H13H12.25ZM9 16.25C8.58579 16.25 8.25 16.5858 8.25 17C8.25 17.4142 8.58579 17.75 9 17.75V17V16.25ZM15 17.75C15.4142 17.75 15.75 17.4142 15.75 17C15.75 16.5858 15.4142 16.25 15 16.25V17V17.75ZM19 16.25C18.5858 16.25 18.25 16.5858 18.25 17C18.25 17.4142 18.5858 17.75 19 17.75V17V16.25ZM21 17V17.75C21.4142 17.75 21.75 17.4142 21.75 17H21ZM21 11H21.75C21.75 10.5858 21.4142 10.25 21 10.25V11ZM13 10.25C12.5858 10.25 12.25 10.5858 12.25 11C12.25 11.4142 12.5858 11.75 13 11.75V11V10.25ZM13 5.25C12.5858 5.25 12.25 5.58579 12.25 6C12.25 6.41421 12.5858 6.75 13 6.75V6V5.25ZM18 6L18.6431 5.61413C18.5076 5.38822 18.2634 5.25 18 5.25V6ZM20.3569 11.3859C20.57 11.7411 21.0307 11.8562 21.3859 11.6431C21.7411 11.43 21.8562 10.9693 21.6431 10.6141L21 11L20.3569 11.3859ZM5 17V16.25H3V17V17.75H5V17ZM3 17H3.75V6H3H2.25V17H3ZM3 6H3.75C3.75 5.86193 3.86193 5.75 4 5.75V5V4.25C3.0335 4.25 2.25 5.0335 2.25 6H3ZM4 5V5.75H13V5V4.25H4V5ZM13 5H12.25V17H13H13.75V5H13ZM9 17V17.75H15V17V16.25H9V17ZM19 17V17.75H21V17V16.25H19V17ZM21 17H21.75V11H21H20.25V17H21ZM21 11V10.25H13V11V11.75H21V11ZM13 6V6.75H18V6V5.25H13V6ZM18 6L17.3569 6.38587L20.3569 11.3859L21 11L21.6431 10.6141L18.6431 5.61413L18 6Z" fill="#2F2B3D" fill-opacity="0.9"/>
</svg>
