<svg width="24" height="24" viewBox="0 0 24 24" fill="none" xmlns="http://www.w3.org/2000/svg">
<circle cx="7" cy="17" r="2" stroke="#2F2B3D" stroke-opacity="0.9" stroke-width="1.5" stroke-linecap="round" stroke-linejoin="round"/>
<path d="M15.5849 15.5859C15.0792 16.0908 14.8812 16.827 15.0655 17.5174C15.2499 18.2077 15.7885 18.7473 16.4785 18.9329C17.1686 19.1184 17.9052 18.9218 18.4109 18.4169" stroke="#2F2B3D" stroke-opacity="0.9" stroke-width="1.5" stroke-linecap="round" stroke-linejoin="round"/>
<path d="M5 17.75C5.41421 17.75 5.75 17.4142 5.75 17C5.75 16.5858 5.41421 16.25 5 16.25V17V17.75ZM3 17H2.25C2.25 17.4142 2.58579 17.75 3 17.75V17ZM5 5.75C5.41421 5.75 5.75 5.41421 5.75 5C5.75 4.58579 5.41421 4.25 5 4.25V5V5.75ZM8.95996 4.25C8.54575 4.25 8.20996 4.58579 8.20996 5C8.20996 5.41421 8.54575 5.75 8.95996 5.75V5V4.25ZM13 5H13.75C13.75 4.58579 13.4142 4.25 13 4.25V5ZM12.25 9C12.25 9.41421 12.5857 9.75 13 9.75C13.4142 9.75 13.75 9.41421 13.75 9H13H12.25ZM13.75 13C13.75 12.5858 13.4142 12.25 13 12.25C12.5858 12.25 12.25 12.5858 12.25 13H13H13.75ZM12.25 17C12.25 17.4142 12.5858 17.75 13 17.75C13.4142 17.75 13.75 17.4142 13.75 17H13H12.25ZM9 16.25C8.58579 16.25 8.25 16.5858 8.25 17C8.25 17.4142 8.58579 17.75 9 17.75V17V16.25ZM15 17.75C15.4142 17.75 15.75 17.4142 15.75 17C15.75 16.5858 15.4142 16.25 15 16.25V17V17.75ZM20.25 17C20.25 17.4142 20.5858 17.75 21 17.75C21.4142 17.75 21.75 17.4142 21.75 17H21H20.25ZM21 11H21.75C21.75 10.5858 21.4142 10.25 21 10.25V11ZM15 10.25C14.5858 10.25 14.25 10.5858 14.25 11C14.25 11.4142 14.5858 11.75 15 11.75V11V10.25ZM13 5.25C12.5858 5.25 12.25 5.58579 12.25 6C12.25 6.41421 12.5858 6.75 13 6.75V6V5.25ZM18 6L18.6431 5.61413C18.5076 5.38822 18.2634 5.25 18 5.25V6ZM20.3569 11.3859C20.57 11.7411 21.0307 11.8562 21.3859 11.6431C21.7411 11.43 21.8562 10.9693 21.6431 10.6141L21 11L20.3569 11.3859ZM5 17V16.25H3V17V17.75H5V17ZM3 17H3.75V6H3H2.25V17H3ZM3 6H3.75C3.75 5.86193 3.86193 5.75 4 5.75V5V4.25C3.0335 4.25 2.25 5.0335 2.25 6H3ZM4 5V5.75H5V5V4.25H4V5ZM8.95996 5V5.75H13V5V4.25H8.95996V5ZM13 5H12.25V9H13H13.75V5H13ZM13 13H12.25V17H13H13.75V13H13ZM9 17V17.75H15V17V16.25H9V17ZM21 17H21.75V11H21H20.25V17H21ZM21 11V10.25H15V11V11.75H21V11ZM13 6V6.75H18V6V5.25H13V6ZM18 6L17.3569 6.38587L20.3569 11.3859L21 11L21.6431 10.6141L18.6431 5.61413L18 6Z" fill="#2F2B3D" fill-opacity="0.9"/>
<path d="M3 3L21 21" stroke="#2F2B3D" stroke-opacity="0.9" stroke-width="1.5" stroke-linecap="round" stroke-linejoin="round"/>
</svg>
