<svg width="24" height="24" viewBox="0 0 24 24" fill="none" xmlns="http://www.w3.org/2000/svg">
<path d="M10 13.9999C10.6583 14.6718 11.5594 15.0504 12.5 15.0504C13.4406 15.0504 14.3417 14.6718 15 13.9999L19 9.99989C20.3807 8.61918 20.3807 6.3806 19 4.99989C17.6193 3.61918 15.3807 3.61918 14 4.99989L13.5 5.49989" stroke="#2F2B3D" stroke-opacity="0.9" stroke-width="1.5" stroke-linecap="round" stroke-linejoin="round"/>
<path d="M14 9.99997C13.3417 9.32809 12.4407 8.94946 11.5 8.94946C10.5594 8.94946 9.65832 9.32809 9.00001 9.99997L5.00001 14C3.6193 15.3807 3.6193 17.6193 5.00001 19C6.38072 20.3807 8.6193 20.3807 10 19L10.5 18.5" stroke="#2F2B3D" stroke-opacity="0.9" stroke-width="1.5" stroke-linecap="round" stroke-linejoin="round"/>
<path d="M16 21V19" stroke="#2F2B3D" stroke-opacity="0.9" stroke-width="1.5" stroke-linecap="round" stroke-linejoin="round"/>
<path d="M19 16H21" stroke="#2F2B3D" stroke-opacity="0.9" stroke-width="1.5" stroke-linecap="round" stroke-linejoin="round"/>
<path d="M3 8H5" stroke="#2F2B3D" stroke-opacity="0.9" stroke-width="1.5" stroke-linecap="round" stroke-linejoin="round"/>
<path d="M8 3V5" stroke="#2F2B3D" stroke-opacity="0.9" stroke-width="1.5" stroke-linecap="round" stroke-linejoin="round"/>
</svg>
