<svg width="24" height="24" viewBox="0 0 24 24" fill="none" xmlns="http://www.w3.org/2000/svg">
<circle cx="9" cy="7" r="4" stroke="#2F2B3D" stroke-opacity="0.9" stroke-width="1.5" stroke-linecap="round" stroke-linejoin="round"/>
<path d="M3 21V19C3 16.7909 4.79086 15 7 15H11C13.2091 15 15 16.7909 15 19V21" stroke="#2F2B3D" stroke-opacity="0.9" stroke-width="1.5" stroke-linecap="round" stroke-linejoin="round"/>
<path d="M17.5303 8.46967C17.2374 8.17678 16.7626 8.17678 16.4697 8.46967C16.1768 8.76256 16.1768 9.23744 16.4697 9.53033L17 9L17.5303 8.46967ZM20.4697 13.5303C20.7626 13.8232 21.2374 13.8232 21.5303 13.5303C21.8232 13.2374 21.8232 12.7626 21.5303 12.4697L21 13L20.4697 13.5303ZM21.5303 9.53033C21.8232 9.23744 21.8232 8.76256 21.5303 8.46967C21.2374 8.17678 20.7626 8.17678 20.4697 8.46967L21 9L21.5303 9.53033ZM16.4697 12.4697C16.1768 12.7626 16.1768 13.2374 16.4697 13.5303C16.7626 13.8232 17.2374 13.8232 17.5303 13.5303L17 13L16.4697 12.4697ZM17 9L16.4697 9.53033L20.4697 13.5303L21 13L21.5303 12.4697L17.5303 8.46967L17 9ZM21 9L20.4697 8.46967L16.4697 12.4697L17 13L17.5303 13.5303L21.5303 9.53033L21 9Z" fill="#2F2B3D" fill-opacity="0.9"/>
</svg>
