<svg width="24" height="24" viewBox="0 0 24 24" fill="none" xmlns="http://www.w3.org/2000/svg">
<circle cx="9" cy="7" r="4" stroke="#2F2B3D" stroke-opacity="0.9" stroke-width="1.5" stroke-linecap="round" stroke-linejoin="round"/>
<path d="M3 21V19C3 16.7909 4.79086 15 7 15H11C13.2091 15 15 16.7909 15 19V21" stroke="#2F2B3D" stroke-opacity="0.9" stroke-width="1.5" stroke-linecap="round" stroke-linejoin="round"/>
<path d="M16 10.25C15.5858 10.25 15.25 10.5858 15.25 11C15.25 11.4142 15.5858 11.75 16 11.75V11V10.25ZM22 11.75C22.4142 11.75 22.75 11.4142 22.75 11C22.75 10.5858 22.4142 10.25 22 10.25V11V11.75ZM19.75 8C19.75 7.58579 19.4142 7.25 19 7.25C18.5858 7.25 18.25 7.58579 18.25 8H19H19.75ZM18.25 14C18.25 14.4142 18.5858 14.75 19 14.75C19.4142 14.75 19.75 14.4142 19.75 14H19H18.25ZM16 11V11.75H22V11V10.25H16V11ZM19 8H18.25V14H19H19.75V8H19Z" fill="#2F2B3D" fill-opacity="0.9"/>
</svg>
