<svg width="24" height="24" viewBox="0 0 24 24" fill="none" xmlns="http://www.w3.org/2000/svg">
<path d="M13.8476 9.67403C13.5069 9.90949 13.4215 10.3766 13.6569 10.7174C13.8924 11.0582 14.3595 11.1436 14.7003 10.9081L14.274 10.2911L13.8476 9.67403ZM8.10492 4.28187C7.86788 4.62156 7.95108 5.08908 8.29077 5.32613C8.63045 5.56317 9.09797 5.47997 9.33502 5.14028L8.71997 4.71108L8.10492 4.28187ZM8.88928 7.94496C8.76827 7.54881 8.34904 7.32577 7.95289 7.44678C7.55675 7.56779 7.33371 7.98702 7.45472 8.38317L8.172 8.16406L8.88928 7.94496ZM10.5647 11.5288C10.9595 11.6543 11.3812 11.4361 11.5067 11.0413C11.6322 10.6466 11.414 10.2248 11.0193 10.0993L10.792 10.8141L10.5647 11.5288ZM14.274 10.2911L14.7003 10.9081C16.264 9.82776 17.0331 7.91931 16.6556 6.05659L15.9205 6.20558L15.1855 6.35457C15.4438 7.62906 14.9175 8.93484 13.8476 9.67403L14.274 10.2911ZM15.9205 6.20558L16.6556 6.05659C16.278 4.19388 14.8265 2.73554 12.9655 2.34929L12.8131 3.08364L12.6607 3.81799C13.934 4.08226 14.9271 5.08008 15.1855 6.35457L15.9205 6.20558ZM12.8131 3.08364L12.9655 2.34929C11.1046 1.96305 9.19258 2.72327 8.10492 4.28187L8.71997 4.71108L9.33502 5.14028C10.0792 4.07387 11.3874 3.55372 12.6607 3.81799L12.8131 3.08364ZM8.172 8.16406L7.45472 8.38317C7.91163 9.87898 9.07423 11.0549 10.5647 11.5288L10.792 10.8141L11.0193 10.0993C9.99844 9.77475 9.20221 8.9694 8.88928 7.94496L8.172 8.16406Z" fill="#2F2B3D" fill-opacity="0.9"/>
<path d="M5.25 21C5.25 21.4142 5.58579 21.75 6 21.75C6.41421 21.75 6.75 21.4142 6.75 21H6H5.25ZM14 15V15.75L14.0006 15.75L14 15ZM14.9326 15.8857C15.3295 16.0041 15.7473 15.7784 15.8657 15.3815C15.9841 14.9845 15.7584 14.5668 15.3615 14.4483L15.147 15.167L14.9326 15.8857ZM18.5505 17.6328C18.4317 17.236 18.0138 17.0106 17.6169 17.1294C17.2201 17.2482 16.9947 17.6662 17.1135 18.063L17.832 17.8479L18.5505 17.6328ZM18 18.9999L17.25 18.999V18.9999H18ZM17.25 20.9999C17.25 21.4141 17.5858 21.7499 18 21.7499C18.4142 21.7499 18.75 21.4141 18.75 20.9999H18H17.25ZM6 21H6.75V19H6H5.25V21H6ZM6 19H6.75C6.75 17.2051 8.20507 15.75 10 15.75V15V14.25C7.37665 14.25 5.25 16.3766 5.25 19H6ZM10 15V15.75H14V15V14.25H10V15ZM14 15L14.0006 15.75C14.3162 15.7497 14.6301 15.7955 14.9326 15.8857L15.147 15.167L15.3615 14.4483C14.9195 14.3164 14.4606 14.2496 13.9994 14.25L14 15ZM17.832 17.8479L17.1135 18.063C17.2044 18.3667 17.2504 18.682 17.25 18.999L18 18.9999L18.75 19.0008C18.7506 18.5375 18.6834 18.0767 18.5505 17.6328L17.832 17.8479ZM18 18.9999H17.25V20.9999H18H18.75V18.9999H18Z" fill="#2F2B3D" fill-opacity="0.9"/>
<path d="M3 3L21 21" stroke="#2F2B3D" stroke-opacity="0.9" stroke-width="1.5" stroke-linecap="round" stroke-linejoin="round"/>
</svg>
