<svg width="24" height="24" viewBox="0 0 24 24" fill="none" xmlns="http://www.w3.org/2000/svg">
<path d="M5.67082 4.33541C5.85606 3.96493 5.70589 3.51442 5.33541 3.32918C4.96493 3.14394 4.51442 3.29411 4.32918 3.66459L5 4L5.67082 4.33541ZM4.30769 20.2885C4.46701 20.6708 4.90611 20.8516 5.28846 20.6923C5.67081 20.533 5.85162 20.0939 5.69231 19.7115L5 20L4.30769 20.2885ZM19.6708 3.66459C19.4856 3.29411 19.0351 3.14394 18.6646 3.32918C18.2941 3.51442 18.1439 3.96493 18.3292 4.33541L19 4L19.6708 3.66459ZM18.3077 19.7115C18.1484 20.0939 18.3292 20.533 18.7115 20.6923C19.0939 20.8516 19.533 20.6708 19.6923 20.2885L19 20L18.3077 19.7115ZM9 8.25C8.58579 8.25 8.25 8.58579 8.25 9C8.25 9.41421 8.58579 9.75 9 9.75V9V8.25ZM12.016 12.527L12.7129 12.2497L12.7119 12.2472L12.016 12.527ZM15 16.75C15.4142 16.75 15.75 16.4142 15.75 16C15.75 15.5858 15.4142 15.25 15 15.25V16V16.75ZM5 4L4.32918 3.66459C1.71541 8.89213 1.73897 14.1235 4.30769 20.2885L5 20L5.69231 19.7115C3.26103 13.8765 3.28459 9.10787 5.67082 4.33541L5 4ZM19 4L18.3292 4.33541C20.7154 9.10787 20.739 13.8765 18.3077 19.7115L19 20L19.6923 20.2885C22.261 14.1235 22.2846 8.89213 19.6708 3.66459L19 4ZM9 9V9.75H10V9V8.25H9V9ZM10 9V9.75C10.0628 9.75 10.0902 9.75785 10.0968 9.76003C10.1001 9.76115 10.1014 9.76132 10.1078 9.76681C10.134 9.7891 10.204 9.86761 10.3169 10.121C10.4277 10.3699 10.5427 10.6974 10.7058 11.1594C10.8648 11.6101 11.0598 12.1592 11.3201 12.8068L12.016 12.527L12.7119 12.2472C12.4642 11.6313 12.2782 11.1078 12.1202 10.6602C11.9663 10.224 11.8283 9.82774 11.6871 9.51077C11.548 9.19827 11.367 8.86884 11.0802 8.62466C10.7621 8.35385 10.3909 8.25 10 8.25V9ZM12.016 12.527L11.3191 12.8043C11.5588 13.4065 11.7388 13.9197 11.8923 14.36C12.0419 14.7888 12.1769 15.1805 12.3164 15.495C12.454 15.8052 12.6342 16.1334 12.9212 16.3769C13.2387 16.6464 13.6095 16.75 14 16.75V16V15.25C13.9372 15.25 13.9096 15.2421 13.9028 15.2399C13.8991 15.2387 13.8979 15.2384 13.8918 15.2333C13.8668 15.212 13.798 15.1356 13.6876 14.8868C13.5791 14.6421 13.4671 14.3201 13.3087 13.8659C13.1542 13.4232 12.9652 12.884 12.7129 12.2497L12.016 12.527ZM14 16V16.75H15V16V15.25H14V16Z" fill="#2F2B3D" fill-opacity="0.9"/>
<path d="M8 16C9.5 16 11 14 12 12.5C13 11 14.5 9 16 9" stroke="#2F2B3D" stroke-opacity="0.9" stroke-width="1.5" stroke-linecap="round" stroke-linejoin="round"/>
</svg>
