<svg width="24" height="24" viewBox="0 0 24 24" fill="none" xmlns="http://www.w3.org/2000/svg">
<path d="M3 3L21 21" stroke="#2F2B3D" stroke-opacity="0.9" stroke-width="1.5" stroke-linecap="round" stroke-linejoin="round"/>
<path d="M15 11.0001V10.0001L19.553 7.72412C19.8629 7.56926 20.2309 7.58583 20.5256 7.76792C20.8203 7.95002 20.9998 8.27168 21 8.61812V15.3821C21.0001 15.8092 20.7289 16.1893 20.325 16.3281" stroke="#2F2B3D" stroke-opacity="0.9" stroke-width="1.5" stroke-linecap="round" stroke-linejoin="round"/>
<path d="M10 5.25C9.58579 5.25 9.25 5.58579 9.25 6C9.25 6.41421 9.58579 6.75 10 6.75V6V5.25ZM14.25 11C14.25 11.4142 14.5858 11.75 15 11.75C15.4142 11.75 15.75 11.4142 15.75 11H15H14.25ZM15.75 15C15.75 14.5858 15.4142 14.25 15 14.25C14.5858 14.25 14.25 14.5858 14.25 15H15H15.75ZM6 6.75C6.41421 6.75 6.75 6.41421 6.75 6C6.75 5.58579 6.41421 5.25 6 5.25V6V6.75ZM10 6V6.75H13V6V5.25H10V6ZM13 6V6.75C13.6904 6.75 14.25 7.30964 14.25 8H15H15.75C15.75 6.48122 14.5188 5.25 13 5.25V6ZM15 8H14.25V11H15H15.75V8H15ZM15 15H14.25V16H15H15.75V15H15ZM15 16H14.25C14.25 16.6904 13.6904 17.25 13 17.25V18V18.75C14.5188 18.75 15.75 17.5188 15.75 16H15ZM13 18V17.25H5V18V18.75H13V18ZM5 18V17.25C4.30964 17.25 3.75 16.6904 3.75 16H3H2.25C2.25 17.5188 3.48122 18.75 5 18.75V18ZM3 16H3.75V8H3H2.25V16H3ZM3 8H3.75C3.75 7.30964 4.30964 6.75 5 6.75V6V5.25C3.48122 5.25 2.25 6.48122 2.25 8H3ZM5 6V6.75H6V6V5.25H5V6Z" fill="#2F2B3D" fill-opacity="0.9"/>
</svg>
