<svg width="24" height="24" viewBox="0 0 24 24" fill="none" xmlns="http://www.w3.org/2000/svg">
<path d="M10 12.75C10.4142 12.75 10.75 12.4142 10.75 12C10.75 11.5858 10.4142 11.25 10 11.25V12V12.75ZM3 12L2.46967 11.4697C2.25517 11.6842 2.191 12.0068 2.30709 12.287C2.42318 12.5673 2.69665 12.75 3 12.75V12ZM6.53033 9.53033C6.82322 9.23744 6.82322 8.76256 6.53033 8.46967C6.23744 8.17678 5.76256 8.17678 5.46967 8.46967L6 9L6.53033 9.53033ZM5.46967 15.5303C5.76256 15.8232 6.23744 15.8232 6.53033 15.5303C6.82322 15.2374 6.82322 14.7626 6.53033 14.4697L6 15L5.46967 15.5303ZM3.53033 11.4697C3.23744 11.1768 2.76256 11.1768 2.46967 11.4697C2.17678 11.7626 2.17678 12.2374 2.46967 12.5303L3 12L3.53033 11.4697ZM10 12V11.25H3V12V12.75H10V12ZM3 12L3.53033 12.5303L6.53033 9.53033L6 9L5.46967 8.46967L2.46967 11.4697L3 12ZM6 15L6.53033 14.4697L3.53033 11.4697L3 12L2.46967 12.5303L5.46967 15.5303L6 15Z" fill="#2F2B3D" fill-opacity="0.9"/>
<path d="M14 11.25C13.5858 11.25 13.25 11.5858 13.25 12C13.25 12.4142 13.5858 12.75 14 12.75V12V11.25ZM21 12V12.75C21.3033 12.75 21.5768 12.5673 21.6929 12.287C21.809 12.0068 21.7448 11.6842 21.5303 11.4697L21 12ZM18.5303 8.46967C18.2374 8.17678 17.7626 8.17678 17.4697 8.46967C17.1768 8.76256 17.1768 9.23744 17.4697 9.53033L18 9L18.5303 8.46967ZM17.4697 14.4697C17.1768 14.7626 17.1768 15.2374 17.4697 15.5303C17.7626 15.8232 18.2374 15.8232 18.5303 15.5303L18 15L17.4697 14.4697ZM21.5303 12.5303C21.8232 12.2374 21.8232 11.7626 21.5303 11.4697C21.2374 11.1768 20.7626 11.1768 20.4697 11.4697L21 12L21.5303 12.5303ZM14 12V12.75H21V12V11.25H14V12ZM21 12L21.5303 11.4697L18.5303 8.46967L18 9L17.4697 9.53033L20.4697 12.5303L21 12ZM18 15L18.5303 15.5303L21.5303 12.5303L21 12L20.4697 11.4697L17.4697 14.4697L18 15Z" fill="#2F2B3D" fill-opacity="0.9"/>
<path d="M3 6V3H21V6" stroke="#2F2B3D" stroke-opacity="0.9" stroke-width="1.5" stroke-linecap="round" stroke-linejoin="round"/>
<path d="M3 18V21H21V18" stroke="#2F2B3D" stroke-opacity="0.9" stroke-width="1.5" stroke-linecap="round" stroke-linejoin="round"/>
</svg>
