<svg width="24" height="24" viewBox="0 0 24 24" fill="none" xmlns="http://www.w3.org/2000/svg">
<path d="M3 11.25C2.58579 11.25 2.25 11.5858 2.25 12C2.25 12.4142 2.58579 12.75 3 12.75V12V11.25ZM10 12V12.75C10.3033 12.75 10.5768 12.5673 10.6929 12.287C10.809 12.0068 10.7448 11.6842 10.5303 11.4697L10 12ZM7.53033 8.46967C7.23744 8.17678 6.76256 8.17678 6.46967 8.46967C6.17678 8.76256 6.17678 9.23744 6.46967 9.53033L7 9L7.53033 8.46967ZM6.46967 14.4697C6.17678 14.7626 6.17678 15.2374 6.46967 15.5303C6.76256 15.8232 7.23744 15.8232 7.53033 15.5303L7 15L6.46967 14.4697ZM10.5303 12.5303C10.8232 12.2374 10.8232 11.7626 10.5303 11.4697C10.2374 11.1768 9.76256 11.1768 9.46967 11.4697L10 12L10.5303 12.5303ZM3 12V12.75H10V12V11.25H3V12ZM10 12L10.5303 11.4697L7.53033 8.46967L7 9L6.46967 9.53033L9.46967 12.5303L10 12ZM7 15L7.53033 15.5303L10.5303 12.5303L10 12L9.46967 11.4697L6.46967 14.4697L7 15Z" fill="#2F2B3D" fill-opacity="0.9"/>
<path d="M21 12.75C21.4142 12.75 21.75 12.4142 21.75 12C21.75 11.5858 21.4142 11.25 21 11.25V12V12.75ZM14 12L13.4697 11.4697C13.2552 11.6842 13.191 12.0068 13.3071 12.287C13.4232 12.5673 13.6967 12.75 14 12.75V12ZM17.5303 9.53033C17.8232 9.23744 17.8232 8.76256 17.5303 8.46967C17.2374 8.17678 16.7626 8.17678 16.4697 8.46967L17 9L17.5303 9.53033ZM16.4697 15.5303C16.7626 15.8232 17.2374 15.8232 17.5303 15.5303C17.8232 15.2374 17.8232 14.7626 17.5303 14.4697L17 15L16.4697 15.5303ZM14.5303 11.4697C14.2374 11.1768 13.7626 11.1768 13.4697 11.4697C13.1768 11.7626 13.1768 12.2374 13.4697 12.5303L14 12L14.5303 11.4697ZM21 12V11.25H14V12V12.75H21V12ZM14 12L14.5303 12.5303L17.5303 9.53033L17 9L16.4697 8.46967L13.4697 11.4697L14 12ZM17 15L17.5303 14.4697L14.5303 11.4697L14 12L13.4697 12.5303L16.4697 15.5303L17 15Z" fill="#2F2B3D" fill-opacity="0.9"/>
<path d="M9 6V3H15V6" stroke="#2F2B3D" stroke-opacity="0.9" stroke-width="1.5" stroke-linecap="round" stroke-linejoin="round"/>
<path d="M9 18V21H15V18" stroke="#2F2B3D" stroke-opacity="0.9" stroke-width="1.5" stroke-linecap="round" stroke-linejoin="round"/>
</svg>
