<svg width="24" height="24" viewBox="0 0 24 24" fill="none" xmlns="http://www.w3.org/2000/svg">
<path d="M3 3L21 21" stroke="#2F2B3D" stroke-opacity="0.9" stroke-width="1.5" stroke-linecap="round" stroke-linejoin="round"/>
<path d="M9.00047 8.98916C9.29273 8.69564 9.29172 8.22077 8.9982 7.9285C8.70468 7.63623 8.22981 7.63725 7.93754 7.93077L8.46901 8.45996L9.00047 8.98916ZM16.0542 16.0774C16.3488 15.7862 16.3516 15.3113 16.0604 15.0167C15.7692 14.7221 15.2944 14.7194 14.9998 15.0106L15.527 15.544L16.0542 16.0774ZM16.1763 12.7954C16.0987 13.2022 16.3656 13.595 16.7724 13.6727C17.1793 13.7503 17.5721 13.4835 17.6497 13.0766L16.913 12.936L16.1763 12.7954ZM10.9498 6.34564C10.5426 6.42141 10.2739 6.81295 10.3497 7.22018C10.4255 7.6274 10.817 7.8961 11.2242 7.82032L11.087 7.08298L10.9498 6.34564ZM8.46901 8.45996L7.93754 7.93077C5.70313 10.1747 5.70367 13.803 7.93875 16.0463L8.47006 15.517L9.00136 14.9876C7.34934 13.3295 7.34894 10.6478 9.00047 8.98916L8.46901 8.45996ZM8.47006 15.517L7.93875 16.0463C10.1738 18.2896 13.8021 18.3035 16.0542 16.0774L15.527 15.544L14.9998 15.0106C13.3351 16.656 10.6534 16.6457 9.00136 14.9876L8.47006 15.517ZM16.913 12.936L17.6497 13.0766C18.0059 11.2104 17.4173 9.28869 16.0769 7.94216L15.5454 8.47126L15.0138 9.00036C16.0045 9.99563 16.4396 11.416 16.1763 12.7954L16.913 12.936ZM15.5454 8.47126L16.0769 7.94216C14.7366 6.59562 12.8177 5.99809 10.9498 6.34564L11.087 7.08298L11.2242 7.82032C12.6048 7.56344 14.0232 8.0051 15.0138 9.00036L15.5454 8.47126Z" fill="#2F2B3D" fill-opacity="0.9"/>
<path d="M11.25 7C11.25 7.41421 11.5858 7.75 12 7.75C12.4142 7.75 12.75 7.41421 12.75 7H12H11.25ZM12.75 3C12.75 2.58579 12.4142 2.25 12 2.25C11.5858 2.25 11.25 2.58579 11.25 3H12H12.75ZM11 2.25C10.5858 2.25 10.25 2.58579 10.25 3C10.25 3.41421 10.5858 3.75 11 3.75V3V2.25ZM13 3.75C13.4142 3.75 13.75 3.41421 13.75 3C13.75 2.58579 13.4142 2.25 13 2.25V3V3.75ZM12 7H12.75V3H12H11.25V7H12ZM11 3V3.75H13V3V2.25H11V3Z" fill="#2F2B3D" fill-opacity="0.9"/>
<path d="M15.0052 7.93412C14.7123 8.22701 14.7123 8.70189 15.0052 8.99478C15.2981 9.28767 15.7729 9.28767 16.0658 8.99478L15.5355 8.46445L15.0052 7.93412ZM18.8943 6.16635C19.1872 5.87346 19.1872 5.39859 18.8943 5.10569C18.6014 4.8128 18.1265 4.8128 17.8336 5.10569L18.3639 5.63602L18.8943 6.16635ZM18.1872 4.39866C17.8943 4.10577 17.4194 4.10577 17.1265 4.39866C16.8336 4.69156 16.8336 5.16643 17.1265 5.45932L17.6568 4.92899L18.1872 4.39866ZM18.5407 6.87354C18.8336 7.16643 19.3085 7.16643 19.6014 6.87354C19.8943 6.58064 19.8943 6.10577 19.6014 5.81288L19.071 6.34321L18.5407 6.87354ZM15.5355 8.46445L16.0658 8.99478L18.8943 6.16635L18.3639 5.63602L17.8336 5.10569L15.0052 7.93412L15.5355 8.46445ZM17.6568 4.92899L17.1265 5.45932L18.5407 6.87354L19.071 6.34321L19.6014 5.81288L18.1872 4.39866L17.6568 4.92899Z" fill="#2F2B3D" fill-opacity="0.9"/>
<path d="M17 11.25C16.5858 11.25 16.25 11.5858 16.25 12C16.25 12.4142 16.5858 12.75 17 12.75V12V11.25ZM21 12.75C21.4142 12.75 21.75 12.4142 21.75 12C21.75 11.5858 21.4142 11.25 21 11.25V12V12.75ZM21.75 11C21.75 10.5858 21.4142 10.25 21 10.25C20.5858 10.25 20.25 10.5858 20.25 11H21H21.75ZM20.25 13C20.25 13.4142 20.5858 13.75 21 13.75C21.4142 13.75 21.75 13.4142 21.75 13H21H20.25ZM17 12V12.75H21V12V11.25H17V12ZM21 11H20.25V13H21H21.75V11H21Z" fill="#2F2B3D" fill-opacity="0.9"/>
<path d="M18.364 18.364L17.6569 19.0711" stroke="#2F2B3D" stroke-opacity="0.9" stroke-width="1.5" stroke-linecap="round" stroke-linejoin="round"/>
<path d="M12.75 17C12.75 16.5858 12.4142 16.25 12 16.25C11.5858 16.25 11.25 16.5858 11.25 17H12H12.75ZM11.25 21C11.25 21.4142 11.5858 21.75 12 21.75C12.4142 21.75 12.75 21.4142 12.75 21H12H11.25ZM13 21.75C13.4142 21.75 13.75 21.4142 13.75 21C13.75 20.5858 13.4142 20.25 13 20.25V21V21.75ZM11 20.25C10.5858 20.25 10.25 20.5858 10.25 21C10.25 21.4142 10.5858 21.75 11 21.75V21V20.25ZM12 17H11.25V21H12H12.75V17H12ZM13 21V20.25H11V21V21.75H13V21Z" fill="#2F2B3D" fill-opacity="0.9"/>
<path d="M8.99483 16.0659C9.28772 15.773 9.28772 15.2981 8.99483 15.0052C8.70193 14.7123 8.22706 14.7123 7.93417 15.0052L8.4645 15.5355L8.99483 16.0659ZM5.10574 17.8336C4.81285 18.1265 4.81285 18.6014 5.10574 18.8943C5.39863 19.1872 5.87351 19.1872 6.1664 18.8943L5.63607 18.364L5.10574 17.8336ZM5.81285 19.6013C6.10574 19.8942 6.58061 19.8942 6.87351 19.6013C7.1664 19.3084 7.1664 18.8336 6.87351 18.5407L6.34318 19.071L5.81285 19.6013ZM5.45929 17.1265C5.1664 16.8336 4.69153 16.8336 4.39863 17.1265C4.10574 17.4194 4.10574 17.8942 4.39863 18.1871L4.92896 17.6568L5.45929 17.1265ZM8.4645 15.5355L7.93417 15.0052L5.10574 17.8336L5.63607 18.364L6.1664 18.8943L8.99483 16.0659L8.4645 15.5355ZM6.34318 19.071L6.87351 18.5407L5.45929 17.1265L4.92896 17.6568L4.39863 18.1871L5.81285 19.6013L6.34318 19.071Z" fill="#2F2B3D" fill-opacity="0.9"/>
<path d="M7 12.75C7.41421 12.75 7.75 12.4142 7.75 12C7.75 11.5858 7.41421 11.25 7 11.25L7 12V12.75ZM3 11.25C2.58579 11.25 2.25 11.5858 2.25 12C2.25 12.4142 2.58579 12.75 3 12.75L3 12L3 11.25ZM2.25 13C2.25 13.4142 2.58579 13.75 3 13.75C3.41421 13.75 3.75 13.4142 3.75 13H3H2.25ZM3.75 11C3.75 10.5858 3.41421 10.25 3 10.25C2.58579 10.25 2.25 10.5858 2.25 11H3H3.75ZM7 12L7 11.25L3 11.25L3 12L3 12.75L7 12.75V12ZM3 13H3.75L3.75 11H3H2.25L2.25 13H3Z" fill="#2F2B3D" fill-opacity="0.9"/>
<path d="M5.6361 5.63595L4.92899 6.34306" stroke="#2F2B3D" stroke-opacity="0.9" stroke-width="1.5" stroke-linecap="round" stroke-linejoin="round"/>
</svg>
