<svg width="24" height="24" viewBox="0 0 24 24" fill="none" xmlns="http://www.w3.org/2000/svg">
<path d="M6 15.0001H4C3.44772 15.0001 3 14.5524 3 14.0001V10.0001C3 9.4478 3.44772 9.00009 4 9.00009H6L9.5 4.50009C9.6806 4.14931 10.09 3.98257 10.4643 4.10733C10.8385 4.2321 11.066 4.61111 11 5.00009V19.0001C11.066 19.3891 10.8385 19.7681 10.4643 19.8928C10.09 20.0176 9.6806 19.8509 9.5 19.5001L6 15.0001" stroke="#2F2B3D" stroke-opacity="0.9" stroke-width="1.5" stroke-linecap="round" stroke-linejoin="round"/>
<path d="M16.5303 9.46967C16.2374 9.17678 15.7626 9.17678 15.4697 9.46967C15.1768 9.76256 15.1768 10.2374 15.4697 10.5303L16 10L16.5303 9.46967ZM19.4697 14.5303C19.7626 14.8232 20.2374 14.8232 20.5303 14.5303C20.8232 14.2374 20.8232 13.7626 20.5303 13.4697L20 14L19.4697 14.5303ZM20.5303 10.5303C20.8232 10.2374 20.8232 9.76256 20.5303 9.46967C20.2374 9.17678 19.7626 9.17678 19.4697 9.46967L20 10L20.5303 10.5303ZM15.4697 13.4697C15.1768 13.7626 15.1768 14.2374 15.4697 14.5303C15.7626 14.8232 16.2374 14.8232 16.5303 14.5303L16 14L15.4697 13.4697ZM16 10L15.4697 10.5303L19.4697 14.5303L20 14L20.5303 13.4697L16.5303 9.46967L16 10ZM20 10L19.4697 9.46967L15.4697 13.4697L16 14L16.5303 14.5303L20.5303 10.5303L20 10Z" fill="#2F2B3D" fill-opacity="0.9"/>
</svg>
