<svg width="24" height="24" viewBox="0 0 24 24" fill="none" xmlns="http://www.w3.org/2000/svg">
<path d="M15 8C16.259 8.94427 17 10.4262 17 12C17 13.5738 16.259 15.0557 15 16" stroke="#2F2B3D" stroke-opacity="0.9" stroke-width="1.5" stroke-linecap="round" stroke-linejoin="round"/>
<path d="M6 15.0001H4C3.44772 15.0001 3 14.5524 3 14.0001V10.0001C3 9.4478 3.44772 9.00009 4 9.00009H6L9.5 4.50009C9.6806 4.14931 10.09 3.98257 10.4643 4.10733C10.8385 4.2321 11.066 4.61111 11 5.00009V19.0001C11.066 19.3891 10.8385 19.7681 10.4643 19.8928C10.09 20.0176 9.6806 19.8509 9.5 19.5001L6 15.0001" stroke="#2F2B3D" stroke-opacity="0.9" stroke-width="1.5" stroke-linecap="round" stroke-linejoin="round"/>
</svg>
