<svg width="24" height="24" viewBox="0 0 24 24" fill="none" xmlns="http://www.w3.org/2000/svg">
<path d="M16.25 8C16.25 8.41421 16.5858 8.75 17 8.75C17.4142 8.75 17.75 8.41421 17.75 8H17H16.25ZM18.25 12C18.25 12.4142 18.5858 12.75 19 12.75C19.4142 12.75 19.75 12.4142 19.75 12H19H18.25ZM19.75 16C19.75 15.5858 19.4142 15.25 19 15.25C18.5858 15.25 18.25 15.5858 18.25 16H19H19.75ZM4.75 6C4.75 5.58579 4.41421 5.25 4 5.25C3.58579 5.25 3.25 5.58579 3.25 6H4H4.75ZM17 8H17.75V5H17H16.25V8H17ZM17 5H17.75C17.75 4.0335 16.9665 3.25 16 3.25V4V4.75C16.1381 4.75 16.25 4.86193 16.25 5H17ZM16 4V3.25H6V4V4.75H16V4ZM6 4V3.25C4.48122 3.25 3.25 4.48122 3.25 6H4H4.75C4.75 5.30964 5.30964 4.75 6 4.75V4ZM4 6H3.25C3.25 7.51878 4.48122 8.75 6 8.75V8V7.25C5.30964 7.25 4.75 6.69036 4.75 6H4ZM6 8V8.75H18V8V7.25H6V8ZM18 8V8.75C18.1381 8.75 18.25 8.86193 18.25 9H19H19.75C19.75 8.0335 18.9665 7.25 18 7.25V8ZM19 9H18.25V12H19H19.75V9H19ZM19 16H18.25V19H19H19.75V16H19ZM19 19H18.25C18.25 19.1381 18.1381 19.25 18 19.25V20V20.75C18.9665 20.75 19.75 19.9665 19.75 19H19ZM18 20V19.25H6V20V20.75H18V20ZM6 20V19.25C5.30964 19.25 4.75 18.6904 4.75 18H4H3.25C3.25 19.5188 4.48122 20.75 6 20.75V20ZM4 18H4.75V6H4H3.25V18H4Z" fill="#2F2B3D" fill-opacity="0.9"/>
<path d="M20 12V16H16C14.8954 16 14 15.1046 14 14C14 12.8954 14.8954 12 16 12H20" stroke="#2F2B3D" stroke-opacity="0.9" stroke-width="1.5" stroke-linecap="round" stroke-linejoin="round"/>
</svg>
