<svg width="24" height="24" viewBox="0 0 24 24" fill="none" xmlns="http://www.w3.org/2000/svg">
<path d="M6 21L21 6L18 3L3 18L6 21" stroke="#2F2B3D" stroke-opacity="0.9" stroke-width="1.5" stroke-linecap="round" stroke-linejoin="round"/>
<path d="M15 6L18 9" stroke="#2F2B3D" stroke-opacity="0.9" stroke-width="1.5" stroke-linecap="round" stroke-linejoin="round"/>
<path d="M9 3C9 4.10457 9.89543 5 11 5C9.89543 5 9 5.89543 9 7C9 5.89543 8.10457 5 7 5C8.10457 5 9 4.10457 9 3" stroke="#2F2B3D" stroke-opacity="0.9" stroke-width="1.5" stroke-linecap="round" stroke-linejoin="round"/>
<path d="M19 13C19 14.1046 19.8954 15 21 15C19.8954 15 19 15.8954 19 17C19 15.8954 18.1046 15 17 15C18.1046 15 19 14.1046 19 13" stroke="#2F2B3D" stroke-opacity="0.9" stroke-width="1.5" stroke-linecap="round" stroke-linejoin="round"/>
</svg>
