<svg width="24" height="24" viewBox="0 0 24 24" fill="none" xmlns="http://www.w3.org/2000/svg">
<path d="M12 18H12.01" stroke="#2F2B3D" stroke-opacity="0.9" stroke-width="1.5" stroke-linecap="round" stroke-linejoin="round"/>
<path d="M9.172 15.1721C10.734 13.6106 13.266 13.6106 14.828 15.1721" stroke="#2F2B3D" stroke-opacity="0.9" stroke-width="1.5" stroke-linecap="round" stroke-linejoin="round"/>
<path d="M5.81194 11.8133C5.51946 12.1066 5.52013 12.5815 5.81344 12.874C6.10674 13.1664 6.58162 13.1658 6.8741 12.8725L6.34302 12.3429L5.81194 11.8133ZM10.3742 10.934C10.778 10.8417 11.0305 10.4395 10.9382 10.0357C10.8458 9.63194 10.4437 9.37943 10.0399 9.47174L10.207 10.2029L10.3742 10.934ZM14.5935 9.642C14.1982 9.51854 13.7776 9.73897 13.6541 10.1344C13.5306 10.5297 13.7511 10.9504 14.1464 11.0738L14.37 10.3579L14.5935 9.642ZM17.1239 12.8855C17.4153 13.1799 17.8902 13.1823 18.1846 12.891C18.479 12.5996 18.4814 12.1247 18.1901 11.8303L17.657 12.3579L17.1239 12.8855ZM6.34302 12.3429L6.8741 12.8725C7.83465 11.9092 9.04802 11.2372 10.3742 10.934L10.207 10.2029L10.0399 9.47174C8.43795 9.83796 6.97225 10.6497 5.81194 11.8133L6.34302 12.3429ZM14.37 10.3579L14.1464 11.0738C15.2721 11.4253 16.2944 12.0474 17.1239 12.8855L17.657 12.3579L18.1901 11.8303C17.1881 10.8179 15.9532 10.0666 14.5935 9.642L14.37 10.3579Z" fill="#2F2B3D" fill-opacity="0.9"/>
<path d="M2.98413 8.98504C2.69154 9.27823 2.69204 9.75311 2.98524 10.0457C3.27844 10.3383 3.75331 10.3378 4.0459 10.0446L3.51501 9.51481L2.98413 8.98504ZM7.3684 7.74303C7.74573 7.57216 7.9131 7.12776 7.74223 6.75043C7.57136 6.3731 7.12696 6.20573 6.74963 6.3766L7.05901 7.05981L7.3684 7.74303ZM10.0451 5.39875C9.63579 5.46222 9.35542 5.84549 9.41889 6.25481C9.48236 6.66413 9.86563 6.9445 10.275 6.88103L10.16 6.13989L10.0451 5.39875ZM19.9546 10.0442C20.2475 10.3371 20.7224 10.3371 21.0153 10.0443C21.3082 9.75142 21.3083 9.27655 21.0154 8.98362L20.485 9.51389L19.9546 10.0442ZM3.51501 9.51481L4.0459 10.0446C5.00537 9.08312 6.13103 8.30335 7.3684 7.74303L7.05901 7.05981L6.74963 6.3766C5.34729 7.01163 4.07154 7.89537 2.98413 8.98504L3.51501 9.51481ZM10.16 6.13989L10.275 6.88103C13.8213 6.33114 17.4173 7.50622 19.9546 10.0442L20.485 9.51389L21.0154 8.98362C18.1398 6.10729 14.0644 4.77553 10.0451 5.39875L10.16 6.13989Z" fill="#2F2B3D" fill-opacity="0.9"/>
<path d="M3 3L21 21" stroke="#2F2B3D" stroke-opacity="0.9" stroke-width="1.5" stroke-linecap="round" stroke-linejoin="round"/>
</svg>
