<svg width="24" height="24" viewBox="0 0 24 24" fill="none" xmlns="http://www.w3.org/2000/svg">
<path d="M5 7.99992H13.5C14.7897 8.02459 15.8865 7.06396 16.0319 5.78224C16.1773 4.50052 15.3237 3.31858 14.0612 3.05366C12.7988 2.78875 11.5421 3.52785 11.16 4.75992" stroke="#2F2B3D" stroke-opacity="0.9" stroke-width="1.5" stroke-linecap="round" stroke-linejoin="round"/>
<path d="M3 12H18.5C19.7897 11.9753 20.8865 12.9359 21.0319 14.2177C21.1773 15.4994 20.3237 16.6813 19.0612 16.9462C17.7988 17.2111 16.5421 16.472 16.16 15.24" stroke="#2F2B3D" stroke-opacity="0.9" stroke-width="1.5" stroke-linecap="round" stroke-linejoin="round"/>
<path d="M4 16H9.5C10.7897 15.9753 11.8865 16.9359 12.0319 18.2177C12.1773 19.4994 11.3237 20.6813 10.0612 20.9462C8.7988 21.2111 7.54206 20.472 7.16 19.24" stroke="#2F2B3D" stroke-opacity="0.9" stroke-width="1.5" stroke-linecap="round" stroke-linejoin="round"/>
</svg>
