<svg width="24" height="24" viewBox="0 0 24 24" fill="none" xmlns="http://www.w3.org/2000/svg">
<path d="M21 12C21 7.02944 16.9706 3 12 3C7.02944 3 3 7.02944 3 12C3 16.9706 7.02944 21 12 21" stroke="#2F2B3D" stroke-opacity="0.9" stroke-width="1.5" stroke-linecap="round" stroke-linejoin="round"/>
<path d="M3.59998 9H20.4" stroke="#2F2B3D" stroke-opacity="0.9" stroke-width="1.5" stroke-linecap="round" stroke-linejoin="round"/>
<path d="M3.59998 15H12" stroke="#2F2B3D" stroke-opacity="0.9" stroke-width="1.5" stroke-linecap="round" stroke-linejoin="round"/>
<path d="M11.578 3C8.14098 8.50778 8.14098 15.4922 11.578 21" stroke="#2F2B3D" stroke-opacity="0.9" stroke-width="1.5" stroke-linecap="round" stroke-linejoin="round"/>
<path d="M12.5 3C14.219 5.755 15 8.876 15 12" stroke="#2F2B3D" stroke-opacity="0.9" stroke-width="1.5" stroke-linecap="round" stroke-linejoin="round"/>
<path d="M18.75 14C18.75 13.5858 18.4142 13.25 18 13.25C17.5858 13.25 17.25 13.5858 17.25 14H18H18.75ZM17.25 21C17.25 21.4142 17.5858 21.75 18 21.75C18.4142 21.75 18.75 21.4142 18.75 21H18H17.25ZM15.5303 17.4697C15.2374 17.1768 14.7626 17.1768 14.4697 17.4697C14.1768 17.7626 14.1768 18.2374 14.4697 18.5303L15 18L15.5303 17.4697ZM18 21L17.4697 21.5303C17.7626 21.8232 18.2374 21.8232 18.5303 21.5303L18 21ZM21.5303 18.5303C21.8232 18.2374 21.8232 17.7626 21.5303 17.4697C21.2374 17.1768 20.7626 17.1768 20.4697 17.4697L21 18L21.5303 18.5303ZM18 14H17.25V21H18H18.75V14H18ZM15 18L14.4697 18.5303L17.4697 21.5303L18 21L18.5303 20.4697L15.5303 17.4697L15 18ZM18 21L18.5303 21.5303L21.5303 18.5303L21 18L20.4697 17.4697L17.4697 20.4697L18 21Z" fill="#2F2B3D" fill-opacity="0.9"/>
</svg>
