<svg width="24" height="24" viewBox="0 0 24 24" fill="none" xmlns="http://www.w3.org/2000/svg">
<path d="M3 4C4.10457 4 5 4.89543 5 6V15" stroke="#2F2B3D" stroke-opacity="0.9" stroke-width="1.5" stroke-linecap="round" stroke-linejoin="round"/>
<path d="M5 6C5 4.89543 5.89543 4 7 4C8.10457 4 9 4.89543 9 6V15" stroke="#2F2B3D" stroke-opacity="0.9" stroke-width="1.5" stroke-linecap="round" stroke-linejoin="round"/>
<path d="M8.25 6C8.25 6.41421 8.58579 6.75 9 6.75C9.41421 6.75 9.75 6.41421 9.75 6H9H8.25ZM21 19V19.75C21.3033 19.75 21.5768 19.5673 21.6929 19.287C21.809 19.0068 21.7448 18.6842 21.5303 18.4697L21 19ZM18.5303 15.4697C18.2374 15.1768 17.7626 15.1768 17.4697 15.4697C17.1768 15.7626 17.1768 16.2374 17.4697 16.5303L18 16L18.5303 15.4697ZM17.4697 21.4697C17.1768 21.7626 17.1768 22.2374 17.4697 22.5303C17.7626 22.8232 18.2374 22.8232 18.5303 22.5303L18 22L17.4697 21.4697ZM21.5303 19.5303C21.8232 19.2374 21.8232 18.7626 21.5303 18.4697C21.2374 18.1768 20.7626 18.1768 20.4697 18.4697L21 19L21.5303 19.5303ZM9 6H9.75C9.75 5.30964 10.3096 4.75 11 4.75V4V3.25C9.48122 3.25 8.25 4.48122 8.25 6H9ZM11 4V4.75C11.6904 4.75 12.25 5.30964 12.25 6H13H13.75C13.75 4.48122 12.5188 3.25 11 3.25V4ZM13 6H12.25V16H13H13.75V6H13ZM13 16H12.25C12.25 18.0711 13.9289 19.75 16 19.75V19V18.25C14.7574 18.25 13.75 17.2426 13.75 16H13ZM16 19V19.75H21V19V18.25H16V19ZM21 19L21.5303 18.4697L18.5303 15.4697L18 16L17.4697 16.5303L20.4697 19.5303L21 19ZM18 22L18.5303 22.5303L21.5303 19.5303L21 19L20.4697 18.4697L17.4697 21.4697L18 22Z" fill="#2F2B3D" fill-opacity="0.9"/>
</svg>
