<svg width="24" height="24" viewBox="0 0 24 24" fill="none" xmlns="http://www.w3.org/2000/svg">
<path d="M3 4C4.10457 4 5 4.89543 5 6V15" stroke="#2F2B3D" stroke-opacity="0.9" stroke-width="1.5" stroke-linecap="round" stroke-linejoin="round"/>
<path d="M5 6C5 4.89543 5.89543 4 7 4C8.10457 4 9 4.89543 9 6V15" stroke="#2F2B3D" stroke-opacity="0.9" stroke-width="1.5" stroke-linecap="round" stroke-linejoin="round"/>
<path d="M9 6C9 4.89543 9.89543 4 11 4C12.1046 4 13 4.89543 13 6V16C13 18.7614 16.134 21 20 21" stroke="#2F2B3D" stroke-opacity="0.9" stroke-width="1.5" stroke-linecap="round" stroke-linejoin="round"/>
<path d="M12 21C15.866 21 19 18.7614 19 16V14C19 12.3431 17.6569 11 16 11C14.3431 11 13 12.3431 13 14" stroke="#2F2B3D" stroke-opacity="0.9" stroke-width="1.5" stroke-linecap="round" stroke-linejoin="round"/>
</svg>
