<svg width="24" height="24" viewBox="0 0 24 24" fill="none" xmlns="http://www.w3.org/2000/svg">
<circle cx="10" cy="10" r="7" stroke="#2F2B3D" stroke-opacity="0.9" stroke-width="1.5" stroke-linecap="round" stroke-linejoin="round"/>
<path d="M21 21L15 15" stroke="#2F2B3D" stroke-opacity="0.9" stroke-width="1.5" stroke-linecap="round" stroke-linejoin="round"/>
<path d="M12 7H9.5C8.67157 7 8 7.67157 8 8.5C8 9.32843 8.67157 10 9.5 10H10.5C11.3284 10 12 10.6716 12 11.5C12 12.3284 11.3284 13 10.5 13H8" stroke="#2F2B3D" stroke-opacity="0.9" stroke-width="1.5" stroke-linecap="round" stroke-linejoin="round"/>
<path d="M10.75 13C10.75 12.5858 10.4142 12.25 10 12.25C9.58579 12.25 9.25 12.5858 9.25 13H10H10.75ZM9.25 14C9.25 14.4142 9.58579 14.75 10 14.75C10.4142 14.75 10.75 14.4142 10.75 14H10H9.25ZM10.75 6C10.75 5.58579 10.4142 5.25 10 5.25C9.58579 5.25 9.25 5.58579 9.25 6H10H10.75ZM9.25 7C9.25 7.41421 9.58579 7.75 10 7.75C10.4142 7.75 10.75 7.41421 10.75 7H10H9.25ZM10 13H9.25V14H10H10.75V13H10ZM10 6H9.25V7H10H10.75V6H10Z" fill="#2F2B3D" fill-opacity="0.9"/>
</svg>
