<svg width="24" height="24" viewBox="0 0 24 24" fill="none" xmlns="http://www.w3.org/2000/svg">
<path d="M10.2239 15.5521H9.34733V16.4286V19.3047H3.52695V8.48047C3.52695 6.39136 5.22421 4.69535 7.32539 4.69535H20.4738V19.3047H14.6067V16.4286V15.5521H13.7301H10.2239Z" fill="#C9C9C9" stroke="#2F2F2F" stroke-width="1.75313" stroke-miterlimit="10"/>
<path d="M3.52734 8.49377C3.52734 10.1066 4.78959 11.4156 6.35572 11.4156C7.91016 11.4156 9.18409 10.1066 9.18409 8.49377C9.18409 10.1066 10.4463 11.4156 12.0125 11.4156C13.5669 11.4156 14.8408 10.1066 14.8408 8.49377C14.8408 10.1066 16.1031 11.4156 17.6692 11.4156C19.2237 11.4156 20.4976 10.2352 20.4976 8.49377" stroke="#2F2F2F" stroke-width="1.75313" stroke-miterlimit="10"/>
</svg>
