<svg width="50" height="50" viewBox="0 0 50 50" fill="none" xmlns="http://www.w3.org/2000/svg">
<g clip-path="url(#clip0_2826_50343)">
<g filter="url(#filter0_d_2826_50343)">
<path d="M38.3523 4.88086C38.7299 4.88086 39.0275 5.20261 38.998 5.57906L38.6469 10.068L37.5723 23.8102L35.9532 44.522C35.9268 44.8591 35.6456 45.1192 35.3075 45.1192H14.6918C14.3536 45.1192 14.0724 44.8591 14.0461 44.522L11.5589 12.7077L11.002 5.57898C10.9725 5.20253 11.2701 4.88086 11.6477 4.88086H38.3523Z" fill="#D6F3FF"/>
<path opacity="0.4" d="M35.0831 13.0922C35.5111 12.988 35.9168 13.3306 35.8839 13.7698L35.4336 19.7949L34.906 26.8561L33.7982 41.6851C33.773 42.0231 33.4913 42.2845 33.1523 42.2845H16.8878C16.5489 42.2845 16.2672 42.0231 16.2419 41.685L14.2957 15.6274C14.2732 15.3261 14.4613 15.0481 14.7504 14.9602C16.9002 14.307 20.2122 13.7336 23.265 14.9821C27.1174 16.5572 30.3863 14.396 34.4073 13.2696C34.6299 13.2072 34.8552 13.1477 35.0831 13.0922Z" fill="#00ABEA"/>
<path d="M32.2257 18.6622C31.8903 18.6622 31.6185 18.3904 31.6185 18.0551V17.9103C31.6185 17.5749 31.8903 17.3031 32.2257 17.3031C32.561 17.3031 32.8329 17.5749 32.8329 17.9103V18.0551C32.833 18.3904 32.5611 18.6622 32.2257 18.6622Z" fill="white"/>
<path d="M32.2257 27.8198C31.8903 27.8198 31.6185 27.548 31.6185 27.2126V27.0679C31.6185 26.7325 31.8903 26.4607 32.2257 26.4607C32.561 26.4607 32.8329 26.7325 32.8329 27.0679V27.2126C32.833 27.548 32.5611 27.8198 32.2257 27.8198Z" fill="white"/>
<path d="M18.2734 20.2473C17.938 20.2473 17.6662 19.9755 17.6662 19.6401V19.4954C17.6662 19.16 17.938 18.8882 18.2734 18.8882C18.6087 18.8882 18.8806 19.16 18.8806 19.4954V19.6401C18.8806 19.9755 18.6087 20.2473 18.2734 20.2473Z" fill="white"/>
<path d="M25.4033 36.5348H21.592C21.2343 36.5348 20.9444 36.2448 20.9444 35.8871V32.0758C20.9444 31.718 21.2343 31.4281 21.592 31.4281H25.4033C25.7611 31.4281 26.051 31.7181 26.051 32.0758V35.8871C26.051 36.2448 25.761 36.5348 25.4033 36.5348Z" fill="white"/>
<path d="M27.3448 27.8598L23.7426 26.6147C23.4045 26.4979 23.2252 26.129 23.3421 25.7909L24.5872 22.1887C24.704 21.8506 25.0729 21.6713 25.411 21.7882L29.0132 23.0333C29.3513 23.1501 29.5306 23.519 29.4137 23.8571L28.1686 27.4593C28.0518 27.7973 27.6829 27.9767 27.3448 27.8598Z" fill="white"/>
</g>
</g>
<defs>
<filter id="filter0_d_2826_50343" x="-4.06662" y="-10.1858" width="58.1332" height="70.3716" filterUnits="userSpaceOnUse" color-interpolation-filters="sRGB">
<feFlood flood-opacity="0" result="BackgroundImageFix"/>
<feColorMatrix in="SourceAlpha" type="matrix" values="0 0 0 0 0 0 0 0 0 0 0 0 0 0 0 0 0 0 127 0" result="hardAlpha"/>
<feOffset/>
<feGaussianBlur stdDeviation="7.53331"/>
<feComposite in2="hardAlpha" operator="out"/>
<feColorMatrix type="matrix" values="0 0 0 0 0 0 0 0 0 0 0 0 0 0 0 0 0 0 0.05 0"/>
<feBlend mode="normal" in2="BackgroundImageFix" result="effect1_dropShadow_2826_50343"/>
<feBlend mode="normal" in="SourceGraphic" in2="effect1_dropShadow_2826_50343" result="shape"/>
</filter>
<clipPath id="clip0_2826_50343">
<rect width="50" height="50" fill="white"/>
</clipPath>
</defs>
</svg>
