<?xml version="1.0" standalone="no"?>
<svg id="배경" width="360" height="419" viewBox="0 0 360 419" fill="none" xmlns="http://www.w3.org/2000/svg" style="max-width: 100%; max-height: 100%;">
<rect width="360" height="419" fill="#141414" stroke-dasharray="0,0,0,0,0,1558"><animate attributeType="XML" attributeName="stroke-dasharray" repeatCount="indefinite" dur="6.298358743646063s" values="0,0,0,0,0,1558; 
          0,0,0,285.68910316364963,700.9326905090512,571.3782063272993; 
          0,0,519.3333333333334,0,1038.6666666666667,1558; 
          0,0,1038.6666666666667,0,519.3333333333334,1558; 
          0,0,1298.3333333333333,259.6666666666667,0,0; 
          0,1558,0,519.3333333333334,0,1558" keyTimes="0; 0.16666666666666666; 0.3333; 0.6666; 0.8333; 1" begin="1.0345801698419892s"></animate></rect>
<g opacity="0.4">
<path fill-rule="evenodd" clip-rule="evenodd" d="M138 25C138 38.2548 148.745 49 162 49C175.255 49 186 38.2548 186 25C186 11.7452 175.255 1 162 1C148.745 1 138 11.7452 138 25ZM162 0C148.193 0 137 11.1929 137 25C137 38.8071 148.193 50 162 50C175.807 50 187 38.8071 187 25C187 11.1929 175.807 0 162 0Z" fill="white" stroke-dasharray="0,0,0,0,0,307.9197692871094"><animate attributeType="XML" attributeName="stroke-dasharray" repeatCount="indefinite" dur="6.255429367803085s" values="0,0,0,0,0,307.9197692871094; 
          0,0,0,61.32841570706527,123.93452216591355,122.65683141413054; 
          0,0,102.63992309570312,0,205.27984619140625,307.9197692871094; 
          0,0,205.27984619140625,0,102.63992309570312,307.9197692871094; 
          0,0,256.5998077392578,51.31996154785156,0,0; 
          0,307.9197692871094,0,102.63992309570312,0,307.9197692871094" keyTimes="0; 0.16666666666666666; 0.3333; 0.6666; 0.8333; 1" begin="1.651081886460466s"></animate></path>
<path fill-rule="evenodd" clip-rule="evenodd" d="M166.558 27.9687L166.292 19.8898L168.59 19.8141L168.987 31.876L157.253 32.0292L157.223 29.73L164.966 29.6289L154.237 18.8994L155.863 17.2735L166.558 27.9687Z" fill="white" stroke-dasharray="0,0,0,0,0,76.82704162597656"><animate attributeType="XML" attributeName="stroke-dasharray" repeatCount="indefinite" dur="6.128279007496439s" values="0,0,0,0,0,76.82704162597656; 
          0,0,0,13.27978771856953,36.98767847026797,26.55957543713906; 
          0,0,25.60901387532552,0,51.21802775065104,76.82704162597656; 
          0,0,51.21802775065104,0,25.60901387532552,76.82704162597656; 
          0,0,64.0225346883138,12.80450693766276,0,0; 
          0,76.82704162597656,0,25.60901387532552,0,76.82704162597656" keyTimes="0; 0.16666666666666666; 0.3333; 0.6666; 0.8333; 1" begin="1.9795952622394863s"></animate></path>
</g>
<g clip-path="url(#clip0_2763_30670)">
<path d="M135.244 329.576C135.272 329.436 135.356 329.324 135.356 329.324L135.44 329.212C135.552 329.212 135.692 329.1 135.692 329.1C135.804 329.1 136.112 328.904 136.224 328.904C136.364 328.848 137.568 328.372 137.68 328.288L138.044 328.232C138.268 328.148 138.884 327.924 138.968 327.924L139.164 327.84L140.116 327.532C140.116 327.532 140.396 327.448 140.48 327.448L140.9 327.364L141.18 327.28L141.348 327.196C141.432 327.196 141.936 327.028 142.048 327.028C142.132 327.028 142.552 326.832 142.664 326.832C142.748 326.832 143.42 326.664 143.504 326.664L143.784 326.58C143.896 326.58 144.4 326.496 144.512 326.496C144.568 326.496 144.932 326.356 145.016 326.356L145.268 326.3L146.22 326.104H146.388L146.64 326.02C146.808 326.02 147.872 325.712 148.012 325.712L148.376 325.656C148.46 325.656 148.74 325.6 148.824 325.6C148.992 325.6 149.468 325.488 149.468 325.488C149.468 325.488 149.692 325.6 149.776 325.6L149.86 325.656V325.712L149.748 326.132C149.692 326.216 149.328 326.356 149.328 326.356C149.244 326.356 148.936 326.552 148.824 326.636C148.824 326.636 148.376 326.832 148.292 326.832C148.236 326.832 147.76 326.944 147.704 326.944L147.452 327.084C146.696 327.28 146.388 327.504 145.604 327.588C145.548 327.588 145.212 327.812 145.1 327.812L144.652 327.868C144.568 327.868 144.26 328.064 144.12 328.064C144.036 328.064 143.616 328.232 143.504 328.232L143.28 328.316L142.916 328.372L142.748 328.512L142.496 328.596C142.496 328.596 142.132 328.764 142.048 328.764H141.88L141.684 328.82C141.628 328.82 141.264 329.016 141.264 329.016C141.18 329.016 140.732 329.156 140.648 329.156C140.592 329.156 139.892 329.548 139.808 329.548L139.416 329.576C139.36 329.576 138.716 329.912 138.604 329.884C138.548 329.996 137.4 330.276 137.288 330.416L137.12 330.444C137.008 330.528 136.588 330.612 136.588 330.612L135.804 330.584L135.636 330.5L135.412 330.164C135.412 330.108 135.244 329.856 135.244 329.744V329.576ZM135.356 324.928V323.388L135.468 322.24V321.988L135.608 321.708C135.608 321.624 135.72 320.952 135.72 320.84C135.72 320.756 135.944 320.168 135.944 320.084V319.86C136 319.636 136.28 318.656 136.364 318.432L136.476 317.956C136.476 317.9 136.644 317.536 136.644 317.48L136.7 317.116C136.7 317.004 136.952 316.472 136.952 316.416C136.952 316.36 137.176 316.024 137.176 316.024L137.484 315.772H137.848C137.932 315.772 138.128 315.968 138.128 316.024V316.948C138.128 316.948 138.044 317.704 137.932 317.956C137.932 317.956 137.848 318.292 137.848 318.432V318.656C137.848 318.768 137.792 319.104 137.792 319.104C137.792 319.188 137.652 319.524 137.652 319.636L137.568 319.776C137.568 319.86 137.428 320.476 137.428 320.7V320.84C137.428 320.84 137.316 321.092 137.316 321.204L137.232 321.456L137.176 321.876L137.036 322.24C137.036 322.324 136.896 323.052 136.812 323.304C136.812 323.304 136.7 323.612 136.7 323.724C136.7 324.004 136.476 325.04 136.476 325.32C136.476 325.376 136.28 325.572 136.28 325.628C136.28 325.628 136.112 325.852 136 325.852H135.72C135.664 325.852 135.412 325.572 135.412 325.432C135.412 325.432 135.356 325.04 135.356 324.928ZM138.548 321.12L138.604 320.728L138.716 320.448C138.8 320.392 139.444 320.112 139.64 320.084C139.78 320.084 140.032 319.944 140.088 319.944L140.396 319.86C140.564 319.888 141.18 319.692 141.208 319.72L141.628 319.692H141.88C141.936 319.664 142.496 319.636 142.552 319.636C142.664 319.664 143.42 319.58 143.504 319.636C143.728 319.636 144.064 319.58 144.176 319.58C144.344 319.636 145.52 319.692 145.772 319.72L146.332 319.776C146.332 319.776 146.584 319.86 146.64 320.028L146.836 320.168L146.808 320.42C146.808 320.42 146.556 320.588 146.472 320.7L146.276 320.756C146.276 320.756 146.108 320.84 146.024 320.812C145.94 320.812 145.772 320.896 145.66 320.896L145.604 320.84L144.288 320.952C144.12 320.924 143.812 320.952 143.728 320.924C143.644 320.924 143.14 321.064 142.608 321.064C142.104 321.064 140.368 321.26 140.116 321.372C140.06 321.344 139.444 321.512 139.388 321.456L138.8 321.428C138.66 321.4 138.52 321.232 138.548 321.12ZM161.601 320.196C161.601 320.056 161.685 318.908 161.685 318.6C161.685 318.46 161.853 318.18 161.853 317.984L162.021 317.704H162.665L162.805 317.872L162.945 318.18C162.945 318.32 163.253 320.336 163.253 320.672V321.092C163.253 321.4 163.337 323.472 163.337 323.78L163.841 323.528C163.981 323.388 164.989 322.94 165.157 322.94L165.577 322.8C165.577 322.8 166.445 322.464 166.585 322.464H167.033C167.033 322.464 167.312 322.604 167.312 322.772V322.8C167.312 322.912 167.145 323.08 167.033 323.248C166.837 323.416 165.493 324.34 165.213 324.452C165.045 324.648 164.149 325.04 163.981 325.236L163.673 325.348L163.421 325.516C163.421 325.796 163.337 328.064 163.337 328.372L163.281 329.996L163.141 330.304C163.141 330.5 162.805 330.612 162.805 330.612H162.357L162.217 330.5C162.077 330.164 161.909 329.884 161.909 329.548C161.909 329.268 161.713 327.924 161.713 327.588V326.104C161.713 325.628 161.601 324.424 161.601 324.284V320.196ZM150.009 319.496C150.177 319.328 150.653 318.908 150.821 318.796C150.961 318.628 152.221 318.096 152.669 317.788L153.257 317.536C153.453 317.536 153.901 317.088 154.097 317.088L154.517 316.976L154.825 316.864C155.133 316.724 156.085 316.444 156.225 316.444C156.365 316.444 156.981 316.276 157.121 316.304H157.737L157.877 316.444L158.017 316.78L157.849 317.032L157.541 317.284C157.401 317.48 156.169 317.844 156.001 317.984C155.833 317.984 154.741 318.628 154.573 318.628L153.957 318.88L153.817 319.02L151.66 319.944C151.521 319.888 151.045 320.196 150.877 320.196L150.597 320.168L150.121 320.028L149.953 319.832L150.009 319.496ZM151.409 329.968V329.744L151.745 329.436C151.745 329.436 152.025 329.128 152.221 329.128C152.333 328.988 154.489 327.896 154.657 327.728C154.825 327.588 155.049 327.56 155.161 327.448C155.161 327.336 155.049 325.964 155.049 325.656V322.296C155.049 322.296 155.161 321.568 155.161 321.232C155.161 320.952 155.357 320.336 155.357 320.336C155.357 320.196 155.637 319.86 155.637 319.86C155.637 319.86 155.721 319.776 155.861 319.776H156.029L156.197 319.888L156.309 320.224C156.309 320.7 156.477 322.324 156.477 322.8V326.888L156.701 326.804L157.093 326.58L157.485 326.412C158.101 326.104 158.717 325.796 159.445 325.796H159.725L160.201 325.964L160.341 326.104V326.356C160.341 326.356 160.061 326.72 159.921 326.832L159.613 326.972C159.445 326.972 158.997 327.448 158.829 327.448C158.241 327.728 155.077 329.408 154.321 329.716C154.181 329.716 153.425 330.164 153.229 330.164C153.117 330.164 152.501 330.444 152.333 330.444H152.025L151.745 330.248L151.409 329.968ZM151.521 322.66C151.521 322.52 151.633 321.736 151.633 321.624L151.773 321.316L152.053 321.008H152.249L152.529 321.316L152.669 321.736C152.669 322.352 152.865 325.068 152.865 325.684V327.364L152.669 327.672H152.053C152.053 327.672 151.941 327.504 151.941 327.364C151.941 327.224 151.773 326.888 151.773 326.888C151.773 326.776 151.633 326.16 151.633 325.992C151.633 325.684 151.521 324.788 151.521 324.648V322.66ZM173.737 322.492C173.569 322.492 172.533 323.08 172.365 323.08C172.365 323.08 171.637 323.444 171.469 323.444L170.209 324.004C170.209 324.004 169.593 324.144 169.425 324.144H169.229L168.893 323.976C168.669 323.976 168.557 323.584 168.557 323.584V323.164C168.557 323.164 168.949 322.632 169.089 322.632C169.089 322.632 169.985 322.268 170.209 322.128C170.377 322.128 171.665 321.652 172.029 321.456C172.225 321.456 173.121 321.008 173.317 321.008C173.485 321.008 173.821 320.84 173.821 320.84V317.368H173.625L171.105 318.628C170.909 318.628 169.985 319.02 169.845 319.188C169.649 319.188 169.285 319.384 169.285 319.384H168.557L168.221 319.188L168.025 319.02V318.46C168.025 318.46 168.557 318.124 168.753 317.928C168.949 317.928 170.209 317.2 170.545 317.032C170.769 316.864 172.029 316.472 172.225 316.304C172.561 316.136 173.625 315.744 173.625 315.744H174.745L175.081 316.136C175.081 316.304 175.305 317.032 175.305 317.2V320.7L175.781 320.812V321.204L175.669 321.568C175.669 321.736 175.305 321.876 175.165 321.988L175.081 323.388C175.081 323.724 174.913 324.984 174.913 325.124C174.913 325.124 174.745 325.544 174.745 325.684L174.577 326.048L174.269 326.244H174.129L173.933 326.048C173.933 325.908 173.737 325.544 173.737 325.544V322.492ZM167.465 329.66C167.465 329.66 167.521 329.38 167.521 329.24L167.857 328.82L168.249 328.652L168.753 328.512C168.949 328.484 169.901 328.12 170.097 328.12L170.601 327.924C170.993 327.728 172.057 327.42 172.225 327.42L172.533 327.336C172.701 327.336 173.793 326.888 173.989 326.86C174.157 326.86 174.717 326.664 174.885 326.636C175.445 326.608 176.341 326.132 176.901 326.132C177.041 326.132 178.301 325.74 178.525 325.74L178.721 325.712L179.057 325.908L179.281 326.104V326.44L178.917 326.804C178.917 326.804 178.217 327.224 178.049 327.224C176.621 327.812 176.005 327.84 174.577 328.456C174.213 328.624 171.777 329.352 171.469 329.548C171.245 329.548 170.489 329.884 170.153 329.912C169.929 329.912 169.229 330.192 169.229 330.192L168.333 330.164C168.137 330.164 167.773 330.024 167.773 330.024C167.605 330.024 167.465 329.66 167.465 329.66ZM184.198 336.828C184.198 336.772 184.254 336.576 184.254 336.576L184.814 335.932L184.954 335.652L185.178 335.316L185.402 335.036L185.654 334.812L186.242 333.888L187.362 332.46C187.278 332.46 187.026 332.768 186.942 332.768C186.858 332.768 185.458 333.496 185.402 333.496C185.262 333.496 184.954 333.664 184.87 333.664H184.114C184.002 333.664 183.862 333.496 183.862 333.44V332.824C183.862 332.768 184.058 332.488 184.058 332.432C184.226 332.236 184.646 331.9 184.702 331.732C184.702 331.732 184.926 331.564 184.926 331.48L184.982 331.284L185.15 331.116L185.318 330.864C185.318 330.808 185.486 330.584 185.598 330.528C185.598 330.472 185.906 330.22 185.906 330.108C186.242 329.688 186.942 328.54 186.942 328.54L187.054 328.372L185.598 329.072C185.486 329.072 185.234 329.324 185.15 329.324L184.674 329.492C184.618 329.576 184.226 329.744 184.226 329.744C184.17 329.744 184.114 329.884 183.946 329.996C183.666 330.052 183.358 330.024 183.218 329.968L183.022 329.856L182.966 329.772L182.938 329.548L182.966 329.128C182.966 329.128 183.134 328.988 183.134 328.876C183.218 328.82 183.61 328.512 183.666 328.4C183.75 328.344 184.002 328.232 184.114 328.232L185.066 327.784C185.15 327.728 185.486 327.56 185.598 327.56C185.738 327.448 186.746 327.028 187.026 326.916C187.11 326.916 187.474 326.776 187.558 326.776L187.866 326.692L188.09 326.58C188.146 326.524 188.566 326.468 188.566 326.468H188.986L189.154 326.524C189.294 326.524 189.35 326.692 189.35 326.692V327.196C189.35 327.28 188.986 327.616 188.986 327.728C188.986 327.728 188.818 328.036 188.734 328.12C188.734 328.232 188.398 328.596 188.398 328.736C188.398 328.736 188.146 329.072 188.146 329.128L188.09 329.324C188.09 329.408 187.866 329.688 187.81 329.744C187.726 329.856 187.362 330.36 187.222 330.5L187.11 330.752L186.97 330.92C186.97 331.004 186.634 331.34 186.634 331.508L187.11 331.2C187.194 331.2 187.558 330.976 187.614 330.976C187.614 330.976 187.81 330.864 187.866 330.864H187.922C188.09 330.864 188.398 330.584 188.454 330.584C188.454 330.584 188.818 330.528 188.93 330.528H188.986C189.07 330.528 189.406 330.584 189.406 330.584L189.546 330.696C189.602 330.808 189.658 331.032 189.658 331.032L189.602 331.48C189.602 331.48 189.546 331.564 189.546 331.648L188.818 332.712L188.538 333.02C188.538 333.076 188.202 333.44 188.202 333.524L187.362 334.728L186.326 335.932L186.13 336.184L186.074 336.24L185.934 336.436H186.13C187.166 336.24 188.734 335.736 189.658 335.484C189.77 335.484 190.106 335.316 190.19 335.316C190.274 335.316 190.946 335.036 191.03 335.036C191.114 335.036 191.31 334.98 191.31 334.98C191.394 334.98 192.094 334.644 192.15 334.644C192.234 334.644 192.402 334.532 192.514 334.532H192.822L193.018 334.644V334.896L192.934 335.036L192.514 335.484L192.15 335.736C192.094 335.736 191.394 336.128 191.226 336.184L190.946 336.24C190.89 336.24 190.526 336.492 190.414 336.492L190.05 336.716L189.854 336.772C189.602 336.828 188.734 337.164 188.678 337.304L187.922 337.556L187.194 337.724C187.11 337.724 186.886 337.92 186.746 337.92H186.69C186.494 337.92 186.186 337.976 186.102 337.976L185.85 338.06C185.598 338.172 185.318 338.2 184.954 338.06L184.814 337.976C184.702 337.976 184.506 337.78 184.506 337.78C184.45 337.724 184.254 337.472 184.254 337.388C184.254 337.388 184.198 337.108 184.198 336.968V336.828ZM179.634 325.656C179.634 325.6 179.886 325.376 180.026 325.348C180.11 325.348 180.642 325.04 180.81 324.956C180.894 324.816 181.902 324.564 181.958 324.536C182.07 324.564 182.574 324.2 182.63 324.2L182.91 324.144L183.162 324.032L183.61 323.864C183.666 323.864 184.366 323.5 184.45 323.5C184.506 323.5 185.262 323.332 185.402 323.332C185.458 323.276 186.046 323.164 186.13 323.108C186.214 323.108 186.55 322.828 186.634 322.828C186.718 322.828 187.026 322.744 187.166 322.744L187.278 322.688L187.586 322.632C187.81 322.52 188.958 322.268 189.07 322.184C189.182 322.184 189.602 322.016 189.686 322.016C189.966 321.988 190.946 321.792 191.086 321.736L191.534 321.652L191.898 321.596C192.066 321.512 192.71 321.484 192.71 321.484L192.878 321.512C192.878 321.512 193.074 321.596 193.074 321.652L193.158 321.792V321.876C193.158 321.96 193.018 322.044 192.962 322.1C192.822 322.1 192.71 322.268 192.71 322.268C192.178 322.52 191.646 322.576 191.114 322.828C191.002 322.828 190.61 323.052 190.47 323.052L190.218 323.136C190.162 323.136 189.63 323.416 189.546 323.416L189.294 323.5L188.93 323.64L188.454 323.78C188.37 323.78 187.838 324.088 187.782 324.06C187.67 324.032 187.222 324.284 187.166 324.284L186.858 324.452C186.746 324.424 186.27 324.676 186.186 324.676L185.906 324.816H185.654C185.598 324.816 185.066 325.152 185.01 325.152L184.618 325.18C184.534 325.18 184.226 325.46 184.142 325.46H183.862L183.498 325.684L183.218 325.74C183.106 325.852 182.098 326.076 182.042 326.16L181.762 326.188L181.37 326.356C181.37 326.356 180.978 326.524 180.754 326.496C180.698 326.496 180.446 326.552 180.446 326.552L180.026 326.524L179.83 326.412C179.802 326.328 179.606 326.16 179.606 326.16L179.634 325.656ZM180.222 314.792L180.306 314.372L180.362 314.204C180.446 314.12 180.642 313.896 180.726 313.952C180.81 313.952 181.678 313.364 181.986 313.196C182.07 313.196 182.35 313.084 182.406 313L183.022 312.692L183.274 312.664L183.526 312.58C183.666 312.44 184.338 312.272 184.338 312.272C184.478 312.188 185.906 311.88 186.382 311.74C186.438 311.74 186.914 311.6 186.998 311.6L187.25 311.544L187.362 311.572C187.53 311.572 188.51 311.292 188.734 311.292L189.126 311.404L189.35 311.572L189.294 311.796C189.294 311.796 189.098 312.076 188.986 312.048C188.986 312.048 188.706 312.16 188.482 312.216C188.426 312.328 187.614 312.496 187.53 312.58C187.362 312.72 186.914 312.944 186.802 312.888L186.55 313.056L186.102 313.14L185.99 313.196C185.934 313.196 185.598 313.42 185.486 313.476C185.43 313.476 184.814 313.784 184.674 313.784L184.478 313.868C184.394 313.812 183.918 314.12 183.862 314.092C183.666 314.176 183.134 314.4 183.05 314.54L182.602 314.624C182.546 314.624 182.014 314.932 181.93 314.932C181.874 314.932 181.398 315.016 181.342 315.072L181.146 315.156L180.67 315.128L180.418 314.96C180.334 314.96 180.222 314.792 180.222 314.792ZM180.726 321.092C180.726 321.008 181.09 320.784 181.174 320.7C181.258 320.7 182.07 320.28 182.378 320.14L182.63 320.056C182.658 320.056 182.742 320.056 182.882 320.028V319.944C182.882 319.888 182.714 319.552 182.714 319.468V319.02C182.714 318.88 182.602 317.228 182.602 317.032V316.948C182.602 316.948 182.658 316.64 182.658 316.556V316.108L182.742 315.828L182.882 315.436C182.882 315.324 183.022 315.1 183.022 315.1C183.022 315.1 183.19 314.96 183.246 314.96H183.638C183.638 314.96 183.778 315.1 183.778 315.156C183.778 315.156 183.89 315.324 183.89 315.436C183.89 315.492 184.058 315.828 184.058 315.828C184.142 316.78 184.058 318.32 183.946 319.692L184.254 319.552C184.618 319.468 185.038 319.216 186.13 318.936L187.11 318.628L187.026 318.208C187.026 318.04 186.914 317.172 186.914 317.032L186.858 314.904V314.708C186.858 314.596 186.914 313.952 186.914 313.784C186.914 313.7 187.11 313.504 187.166 313.504C187.278 313.448 187.502 313.364 187.502 313.364L187.922 313.42L188.09 313.504C188.09 313.504 188.202 313.616 188.202 313.7L188.426 314.344L188.454 314.848L188.37 316.556L188.342 317.984V318.208L188.398 318.18C188.65 318.04 188.874 317.956 189.154 317.872C189.238 317.872 189.714 317.704 189.77 317.704L189.966 317.62C190.05 317.62 190.498 317.536 190.61 317.536L190.89 317.424C190.946 317.424 191.03 317.536 191.17 317.564L191.31 317.676L191.282 317.956L191.254 318.152L191.03 318.264L190.526 318.628L190.078 318.824C189.994 318.824 189.574 319.16 189.434 319.132L189.322 319.216L189.154 319.272C189.098 319.384 188.23 319.524 188.146 319.608C188.062 319.692 187.67 319.86 187.67 319.86L185.794 320.644C185.71 320.588 185.346 320.784 185.15 320.84C185.094 320.84 184.366 321.204 184.31 321.204L184.114 321.26L182.938 321.624C182.882 321.624 182.406 321.82 182.35 321.82L182.07 321.904C181.622 321.932 181.342 322.016 181.062 321.904L180.782 321.596L180.726 321.4V321.092ZM195.582 329.408C195.582 329.296 195.694 328.82 195.694 328.82C195.862 328.708 196.59 327.252 196.758 326.832C196.758 326.832 197.038 326.244 197.178 326.104C197.29 325.852 198.046 324.788 198.158 324.48C198.326 324.368 198.746 323.78 198.746 323.668L198.886 323.5L199.026 323.192L199.39 322.66L199.026 322.8C199.026 322.8 197.738 323.388 197.262 323.668C196.702 323.976 196.282 324.368 195.582 324.368H195.386C195.386 324.368 195.106 324.2 195.106 324.088L194.994 323.78V323.5L195.106 323.192C195.274 323.08 195.694 322.324 195.862 322.212L195.974 322.044L196.282 321.624C196.422 321.512 197.262 320.168 197.458 320.056L197.57 319.748C197.85 319.16 198.326 318.572 198.578 317.984V317.872H198.438L196.87 318.572C196.702 318.572 195.974 319.048 195.862 319.048L195.582 319.16C195.386 319.16 195.106 319.328 194.994 319.328H194.546L194.266 319.048V318.46C194.266 318.46 194.546 317.984 194.686 317.984C194.854 317.984 195.862 317.48 196.17 317.284L196.562 317.172L196.87 317.004C196.982 317.004 197.458 316.696 197.57 316.696C197.85 316.584 198.578 316.304 198.746 316.304C198.886 316.136 199.614 315.996 199.614 315.996H200.034L200.314 316.136L200.482 316.304V316.696L200.51 317.004L200.23 317.48L200.09 317.732C199.922 317.984 198.634 320.056 198.494 320.336L198.382 320.616C198.382 320.756 197.71 321.512 197.71 321.624L197.29 322.156C197.486 322.156 198.046 321.708 198.158 321.708C198.326 321.708 199.166 321.344 199.334 321.344H200.482C200.622 321.344 200.902 321.764 200.902 321.904V322.324C200.902 322.492 200.482 323.192 200.314 323.5C200.202 323.78 198.606 326.356 198.466 326.664C198.354 326.832 197.822 327.7 197.822 327.84L197.57 328.288C197.738 328.288 197.99 328.148 197.99 328.148C198.13 328.148 198.858 327.868 198.998 327.868C199.11 327.868 200.538 327.28 200.678 327.28C200.958 327.14 201.686 326.972 201.686 326.972H202.134C202.274 326.972 202.638 327.028 202.638 327.028L202.694 327.252V327.532C202.694 327.7 202.33 328.064 202.162 328.064C201.49 328.456 200.146 329.072 199.698 329.24C199.558 329.352 198.13 329.94 197.682 330.052C197.234 330.22 196.898 330.36 196.478 330.36H196.198C196.198 330.36 195.862 330.136 195.694 329.996L195.582 329.716V329.408ZM201.742 323.696L201.77 323.304L201.994 322.996C202.134 322.884 202.47 322.492 202.638 322.492C202.638 322.492 203.254 322.296 203.366 322.156C203.534 322.184 204.626 321.54 204.794 321.54L205.242 321.316L205.55 321.148C205.69 321.064 206.194 320.84 206.194 320.84L206.502 320.728L206.446 317.872C206.446 317.732 206.614 317.172 206.614 317.004V316.696C206.614 316.584 206.726 316.136 206.726 315.996L206.894 315.716L207.202 315.576H207.51L207.734 315.716L207.874 315.996C207.874 316.136 208.014 316.416 208.014 316.584C208.014 316.696 208.154 317.732 208.154 317.984C208.154 318.572 208.238 320.168 208.238 320.336V323.5L208.266 326.832C208.266 327.14 208.182 328.708 208.182 329.128C208.182 329.296 208.042 329.884 208.042 329.996L207.902 330.276L207.762 330.444C207.762 330.444 207.594 330.584 207.482 330.584H207.342L207.034 330.276L206.922 329.996C206.922 329.884 206.754 328.988 206.754 328.82C206.754 328.708 206.614 326.552 206.614 325.852V324.592L206.558 322.184C206.362 322.184 205.83 322.548 205.69 322.548L205.522 322.66C205.522 322.66 205.186 322.912 205.046 322.912C204.738 322.996 203.002 323.976 202.722 324.06L202.386 324.144C202.386 324.144 202.134 324.06 202.022 324.06L201.742 323.696ZM211.588 329.576C211.616 329.436 211.7 329.324 211.7 329.324L211.784 329.212C211.896 329.212 212.035 329.1 212.035 329.1C212.148 329.1 212.456 328.904 212.568 328.904C212.708 328.848 213.912 328.372 214.024 328.288L214.388 328.232C214.612 328.148 215.228 327.924 215.312 327.924L215.508 327.84L216.46 327.532C216.46 327.532 216.74 327.448 216.824 327.448L217.244 327.364L217.524 327.28L217.692 327.196C217.776 327.196 218.28 327.028 218.392 327.028C218.476 327.028 218.896 326.832 219.008 326.832C219.092 326.832 219.764 326.664 219.848 326.664L220.128 326.58C220.24 326.58 220.744 326.496 220.856 326.496C220.912 326.496 221.276 326.356 221.36 326.356L221.612 326.3L222.564 326.104H222.732L222.984 326.02C223.152 326.02 224.216 325.712 224.356 325.712L224.72 325.656C224.804 325.656 225.084 325.6 225.168 325.6C225.336 325.6 225.812 325.488 225.812 325.488C225.812 325.488 226.036 325.6 226.12 325.6L226.204 325.656V325.712L226.092 326.132C226.036 326.216 225.672 326.356 225.672 326.356C225.588 326.356 225.28 326.552 225.168 326.636C225.168 326.636 224.72 326.832 224.636 326.832C224.579 326.832 224.104 326.944 224.048 326.944L223.796 327.084C223.04 327.28 222.732 327.504 221.948 327.588C221.892 327.588 221.556 327.812 221.444 327.812L220.996 327.868C220.912 327.868 220.604 328.064 220.464 328.064C220.38 328.064 219.96 328.232 219.848 328.232L219.624 328.316L219.26 328.372L219.092 328.512L218.84 328.596C218.84 328.596 218.476 328.764 218.392 328.764H218.224L218.028 328.82C217.972 328.82 217.608 329.016 217.608 329.016C217.524 329.016 217.076 329.156 216.992 329.156C216.936 329.156 216.236 329.548 216.152 329.548L215.76 329.576C215.704 329.576 215.06 329.912 214.948 329.884C214.892 329.996 213.744 330.276 213.632 330.416L213.464 330.444C213.352 330.528 212.932 330.612 212.932 330.612L212.148 330.584L211.98 330.5L211.756 330.164C211.756 330.108 211.588 329.856 211.588 329.744V329.576ZM211.7 324.928V323.388L211.812 322.24V321.988L211.952 321.708C211.952 321.624 212.064 320.952 212.064 320.84C212.064 320.756 212.288 320.168 212.288 320.084V319.86C212.344 319.636 212.624 318.656 212.708 318.432L212.82 317.956C212.82 317.9 212.988 317.536 212.988 317.48L213.044 317.116C213.044 317.004 213.296 316.472 213.296 316.416C213.296 316.36 213.52 316.024 213.52 316.024L213.828 315.772H214.192C214.276 315.772 214.472 315.968 214.472 316.024V316.948C214.472 316.948 214.388 317.704 214.276 317.956C214.276 317.956 214.192 318.292 214.192 318.432V318.656C214.192 318.768 214.136 319.104 214.136 319.104C214.136 319.188 213.996 319.524 213.996 319.636L213.912 319.776C213.912 319.86 213.772 320.476 213.772 320.7V320.84C213.772 320.84 213.66 321.092 213.66 321.204L213.576 321.456L213.52 321.876L213.38 322.24C213.38 322.324 213.24 323.052 213.156 323.304C213.156 323.304 213.044 323.612 213.044 323.724C213.044 324.004 212.82 325.04 212.82 325.32C212.82 325.376 212.624 325.572 212.624 325.628C212.624 325.628 212.456 325.852 212.344 325.852H212.064C212.008 325.852 211.756 325.572 211.756 325.432C211.756 325.432 211.7 325.04 211.7 324.928ZM214.892 321.12L214.948 320.728L215.06 320.448C215.144 320.392 215.788 320.112 215.984 320.084C216.124 320.084 216.376 319.944 216.432 319.944L216.74 319.86C216.908 319.888 217.524 319.692 217.552 319.72L217.972 319.692H218.224C218.28 319.664 218.84 319.636 218.896 319.636C219.008 319.664 219.764 319.58 219.848 319.636C220.072 319.636 220.408 319.58 220.52 319.58C220.688 319.636 221.864 319.692 222.116 319.72L222.676 319.776C222.676 319.776 222.928 319.86 222.984 320.028L223.18 320.168L223.152 320.42C223.152 320.42 222.9 320.588 222.816 320.7L222.62 320.756C222.62 320.756 222.452 320.84 222.368 320.812C222.284 320.812 222.116 320.896 222.004 320.896L221.948 320.84L220.632 320.952C220.464 320.924 220.156 320.952 220.072 320.924C219.988 320.924 219.484 321.064 218.952 321.064C218.448 321.064 216.712 321.26 216.46 321.372C216.404 321.344 215.788 321.512 215.732 321.456L215.144 321.428C215.004 321.4 214.864 321.232 214.892 321.12Z" fill="white" stroke-dasharray="0,0,0,0,0,578.8602905273438"><animate attributeType="XML" attributeName="stroke-dasharray" repeatCount="indefinite" dur="5.514314481416187s" values="0,0,0,0,0,578.8602905273438; 
          0,0,0,111.42049139667664,244.59881633731385,222.84098279335328; 
          0,0,192.95343017578125,0,385.9068603515625,578.8602905273438; 
          0,0,385.9068603515625,0,192.95343017578125,578.8602905273438; 
          0,0,482.3835754394531,96.47671508789062,0,0; 
          0,578.8602905273438,0,192.95343017578125,0,578.8602905273438" keyTimes="0; 0.16666666666666666; 0.3333; 0.6666; 0.8333; 1" begin="1.5920657949147394s"></animate></path>
<rect x="94.5" y="300.5" width="171" height="47" rx="23.5" stroke="#2DCD6F" stroke-width="3" stroke-dasharray="0,0,0,0,0,394.7033386230469"><animate attributeType="XML" attributeName="stroke-dasharray" repeatCount="indefinite" dur="6.084508916860408s" values="0,0,0,0,0,394.7033386230469; 
          0,0,0,75.39331720985727,168.52338699347504,150.78663441971455; 
          0,0,131.56777954101562,0,263.13555908203125,394.7033386230469; 
          0,0,263.13555908203125,0,131.56777954101562,394.7033386230469; 
          0,0,328.91944885253906,65.78388977050781,0,0; 
          0,394.7033386230469,0,131.56777954101562,0,394.7033386230469" keyTimes="0; 0.16666666666666666; 0.3333; 0.6666; 0.8333; 1" begin="0.5142312721355445s"></animate></rect>
<rect x="94.5" y="300.5" width="171" height="47" rx="23.5" stroke="#FFD53F" stroke-width="3" stroke-dasharray="0,0,0,0,0,394.7033386230469"><animate attributeType="XML" attributeName="stroke-dasharray" repeatCount="indefinite" dur="6.763437300732569s" values="0,0,0,0,0,394.7033386230469; 
          0,0,0,71.63543584772827,179.79703107986205,143.27087169545655; 
          0,0,131.56777954101562,0,263.13555908203125,394.7033386230469; 
          0,0,263.13555908203125,0,131.56777954101562,394.7033386230469; 
          0,0,328.91944885253906,65.78388977050781,0,0; 
          0,394.7033386230469,0,131.56777954101562,0,394.7033386230469" keyTimes="0; 0.16666666666666666; 0.3333; 0.6666; 0.8333; 1" begin="0.9992597659753327s"></animate></rect>
<rect x="94.5" y="300.5" width="171" height="47" rx="23.5" stroke="#AF7DFF" stroke-width="3" stroke-dasharray="0,0,0,0,0,394.7033386230469"><animate attributeType="XML" attributeName="stroke-dasharray" repeatCount="indefinite" dur="5.715860025297226s" values="0,0,0,0,0,394.7033386230469; 
          0,0,0,78.13785041808706,160.28978736878568,156.2757008361741; 
          0,0,131.56777954101562,0,263.13555908203125,394.7033386230469; 
          0,0,263.13555908203125,0,131.56777954101562,394.7033386230469; 
          0,0,328.91944885253906,65.78388977050781,0,0; 
          0,394.7033386230469,0,131.56777954101562,0,394.7033386230469" keyTimes="0; 0.16666666666666666; 0.3333; 0.6666; 0.8333; 1" begin="0.12926129599657685s"></animate></rect>
<rect x="94.5" y="300.5" width="171" height="47" rx="23.5" stroke="white" stroke-width="3" stroke-dasharray="0,0,0,0,0,394.7033386230469"><animate attributeType="XML" attributeName="stroke-dasharray" repeatCount="indefinite" dur="6.796215379359298s" values="0,0,0,0,0,394.7033386230469; 
          0,0,0,67.24465681397845,192.9693681811115,134.4893136279569; 
          0,0,131.56777954101562,0,263.13555908203125,394.7033386230469; 
          0,0,263.13555908203125,0,131.56777954101562,394.7033386230469; 
          0,0,328.91944885253906,65.78388977050781,0,0; 
          0,394.7033386230469,0,131.56777954101562,0,394.7033386230469" keyTimes="0; 0.16666666666666666; 0.3333; 0.6666; 0.8333; 1" begin="0.0012849189936762673s"></animate></rect>
<rect x="94.5" y="300.5" width="171" height="47" rx="23.5" stroke="#FFD53F" stroke-width="3" stroke-dasharray="0,0,0,0,0,394.7033386230469"><animate attributeType="XML" attributeName="stroke-dasharray" repeatCount="indefinite" dur="6.390912651223614s" values="0,0,0,0,0,394.7033386230469; 
          0,0,0,77.28296364449459,162.85444768956307,154.56592728898917; 
          0,0,131.56777954101562,0,263.13555908203125,394.7033386230469; 
          0,0,263.13555908203125,0,131.56777954101562,394.7033386230469; 
          0,0,328.91944885253906,65.78388977050781,0,0; 
          0,394.7033386230469,0,131.56777954101562,0,394.7033386230469" keyTimes="0; 0.16666666666666666; 0.3333; 0.6666; 0.8333; 1" begin="0.9991079018649662s"></animate></rect>
</g>
<path opacity="0.4" fill-rule="evenodd" clip-rule="evenodd" d="M315 370H215C201.745 370 191 380.745 191 394C191 407.255 201.745 418 215 418H315C328.255 418 339 407.255 339 394C339 380.745 328.255 370 315 370ZM215 369C201.193 369 190 380.193 190 394C190 407.807 201.193 419 215 419H315C328.807 419 340 407.807 340 394C340 380.193 328.807 369 315 369H215Z" fill="url(#paint0_linear_2763_30670)" stroke-dasharray="0,0,0,0,0,707.9197387695312"><animate attributeType="XML" attributeName="stroke-dasharray" repeatCount="indefinite" dur="5.600321958849266s" values="0,0,0,0,0,707.9197387695312; 
          0,0,0,137.91735648278433,294.16766932117827,275.83471296556866; 
          0,0,235.9732462565104,0,471.9464925130208,707.9197387695312; 
          0,0,471.9464925130208,0,235.9732462565104,707.9197387695312; 
          0,0,589.933115641276,117.9866231282552,0,0; 
          0,707.9197387695312,0,235.9732462565104,0,707.9197387695312" keyTimes="0; 0.16666666666666666; 0.3333; 0.6666; 0.8333; 1" begin="1.1018972945838619s"></animate></path>
<path opacity="0.4" fill-rule="evenodd" clip-rule="evenodd" d="M85 370H45C31.7452 370 21 380.745 21 394C21 407.255 31.7452 418 45 418H85C98.2548 418 109 407.255 109 394C109 380.745 98.2548 370 85 370ZM45 369C31.1929 369 20 380.193 20 394C20 407.807 31.1929 419 45 419H85C98.8071 419 110 407.807 110 394C110 380.193 98.8071 369 85 369H45Z" fill="url(#paint1_linear_2763_30670)" stroke-dasharray="0,0,0,0,0,467.9197082519531"><animate attributeType="XML" attributeName="stroke-dasharray" repeatCount="indefinite" dur="6.690154774689585s" values="0,0,0,0,0,467.9197082519531; 
          0,0,0,92.36896020564483,190.8128276350186,184.73792041128965; 
          0,0,155.97323608398438,0,311.94647216796875,467.9197082519531; 
          0,0,311.94647216796875,0,155.97323608398438,467.9197082519531; 
          0,0,389.93309020996094,77.98661804199219,0,0; 
          0,467.9197082519531,0,155.97323608398438,0,467.9197082519531" keyTimes="0; 0.16666666666666666; 0.3333; 0.6666; 0.8333; 1" begin="0.867783398041935s"></animate></path>
<path opacity="0.4" fill-rule="evenodd" clip-rule="evenodd" d="M315 300H300C286.745 300 276 310.745 276 324C276 337.255 286.745 348 300 348H315C328.255 348 339 337.255 339 324C339 310.745 328.255 300 315 300ZM300 299C286.193 299 275 310.193 275 324C275 337.807 286.193 349 300 349H315C328.807 349 340 337.807 340 324C340 310.193 328.807 299 315 299H300Z" fill="url(#paint2_linear_2763_30670)" stroke-dasharray="0,0,0,0,0,367.91973876953125"><animate attributeType="XML" attributeName="stroke-dasharray" repeatCount="indefinite" dur="6.799152439786889s" values="0,0,0,0,0,367.91973876953125; 
          0,0,0,72.113623364222,151.57886867686526,144.227246728444; 
          0,0,122.63991292317708,0,245.27982584635416,367.91973876953125; 
          0,0,245.27982584635416,0,122.63991292317708,367.91973876953125; 
          0,0,306.5997823079427,61.31995646158854,0,0; 
          0,367.91973876953125,0,122.63991292317708,0,367.91973876953125" keyTimes="0; 0.16666666666666666; 0.3333; 0.6666; 0.8333; 1" begin="1.5748609288525321s"></animate></path>
<path opacity="0.4" fill-rule="evenodd" clip-rule="evenodd" d="M315 1H221C207.745 1 197 11.7452 197 25C197 38.2548 207.745 49 221 49H315C328.255 49 339 38.2548 339 25C339 11.7452 328.255 1 315 1ZM221 0C207.193 0 196 11.1929 196 25C196 38.8071 207.193 50 221 50H315C328.807 50 340 38.8071 340 25C340 11.1929 328.807 0 315 0H221Z" fill="url(#paint3_linear_2763_30670)" stroke-dasharray="0,0,0,0,0,683.9197387695312"><animate attributeType="XML" attributeName="stroke-dasharray" repeatCount="indefinite" dur="5.514322963353806s" values="0,0,0,0,0,683.9197387695312; 
          0,0,0,130.9938906615231,290.93806678496196,261.9877813230462; 
          0,0,227.9732462565104,0,455.9464925130208,683.9197387695312; 
          0,0,455.9464925130208,0,227.9732462565104,683.9197387695312; 
          0,0,569.933115641276,113.9866231282552,0,0; 
          0,683.9197387695312,0,227.9732462565104,0,683.9197387695312" keyTimes="0; 0.16666666666666666; 0.3333; 0.6666; 0.8333; 1" begin="0.46325976539773117s"></animate></path>
<g opacity="0.4">
<path d="M52.6475 32V19.2708H55.289V24.9144H55.4569L60.0812 19.2708H63.2573L58.5149 24.9703L63.3132 32H60.1433L56.6254 26.7417L55.289 28.364V32H52.6475Z" fill="#2DCD6F" stroke-dasharray="0,0,0,0,0,65.45600128173828"><animate attributeType="XML" attributeName="stroke-dasharray" repeatCount="indefinite" dur="6.642020208667983s" values="0,0,0,0,0,65.45600128173828; 
          0,0,0,10.971938550043244,32.54018563160854,21.94387710008649; 
          0,0,21.81866709391276,0,43.63733418782552,65.45600128173828; 
          0,0,43.63733418782552,0,21.81866709391276,65.45600128173828; 
          0,0,54.5466677347819,10.90933354695638,0,0; 
          0,65.45600128173828,0,21.81866709391276,0,65.45600128173828" keyTimes="0; 0.16666666666666666; 0.3333; 0.6666; 0.8333; 1" begin="2.056607845001391s"></animate></path>
<path d="M68.1499 32.1865C65.2224 32.1865 63.4262 30.297 63.4262 27.2701C63.4262 24.3239 65.2473 22.3288 68.0442 22.3288C70.5491 22.3288 72.5256 23.9137 72.5256 27.1706V27.8978H65.9994C65.9994 29.346 66.8571 30.2348 68.1934 30.2348C69.0884 30.2348 69.7224 29.8495 69.9835 29.2839H72.4572C72.0843 31.0429 70.5056 32.1865 68.1499 32.1865ZM65.9994 26.2694H70.0705C70.0581 25.1133 69.2563 24.2742 68.094 24.2742C66.8944 24.2742 66.0615 25.1754 65.9994 26.2694Z" fill="#2DCD6F" stroke-dasharray="0,0,0,0,0,54.35011291503906"><animate attributeType="XML" attributeName="stroke-dasharray" repeatCount="indefinite" dur="5.576906978392854s" values="0,0,0,0,0,54.35011291503906; 
          0,0,0,9.778310115830473,25.015182567547647,19.556620231660947; 
          0,0,18.11670430501302,0,36.23340861002604,54.35011291503906; 
          0,0,36.23340861002604,0,18.11670430501302,54.35011291503906; 
          0,0,45.291760762532554,9.05835215250651,0,0; 
          0,54.35011291503906,0,18.11670430501302,0,54.35011291503906" keyTimes="0; 0.16666666666666666; 0.3333; 0.6666; 0.8333; 1" begin="0.8293950965918103s"></animate></path>
<path d="M78.4858 32.1865C75.5584 32.1865 73.7621 30.297 73.7621 27.2701C73.7621 24.3239 75.5832 22.3288 78.3802 22.3288C80.885 22.3288 82.8615 23.9137 82.8615 27.1706V27.8978H76.3353C76.3353 29.346 77.193 30.2348 78.5294 30.2348C79.4244 30.2348 80.0584 29.8495 80.3194 29.2839H82.7932C82.4202 31.0429 80.8415 32.1865 78.4858 32.1865ZM76.3353 26.2694H80.4064C80.394 25.1133 79.5922 24.2742 78.4299 24.2742C77.2303 24.2742 76.3975 25.1754 76.3353 26.2694Z" fill="#2DCD6F" stroke-dasharray="0,0,0,0,0,54.35025405883789"><animate attributeType="XML" attributeName="stroke-dasharray" repeatCount="indefinite" dur="6.1465822494634645s" values="0,0,0,0,0,54.35025405883789; 
          0,0,0,10.869619758470385,21.741394783426735,21.73923951694077; 
          0,0,18.116751352945965,0,36.23350270589193,54.35025405883789; 
          0,0,36.23350270589193,0,18.116751352945965,54.35025405883789; 
          0,0,45.29187838236491,9.058375676472982,0,0; 
          0,54.35025405883789,0,18.116751352945965,0,54.35025405883789" keyTimes="0; 0.16666666666666666; 0.3333; 0.6666; 0.8333; 1" begin="1.6622028857186861s"></animate></path>
<path d="M84.4896 35.5801V22.4531H87.0566V24.0567H87.1747C87.529 23.2859 88.2873 22.3288 89.8908 22.3288C92.0041 22.3288 93.7693 23.9696 93.7693 27.239C93.7693 30.4275 92.0725 32.1554 89.8908 32.1554C88.337 32.1554 87.5414 31.2604 87.1747 30.4772H87.0939V35.5801H84.4896ZM87.0379 27.2266C87.0379 28.942 87.7776 30.0795 89.0766 30.0795C90.3943 30.0795 91.1091 28.9109 91.1091 27.2266C91.1091 25.5546 90.4067 24.4109 89.0766 24.4109C87.7652 24.4109 87.0379 25.5049 87.0379 27.2266Z" fill="#2DCD6F" stroke-dasharray="0,0,0,0,0,61.778560638427734"><animate attributeType="XML" attributeName="stroke-dasharray" repeatCount="indefinite" dur="6.585742277924143s" values="0,0,0,0,0,61.778560638427734; 
          0,0,0,11.518103615248839,27.224249792681217,23.036207230497677; 
          0,0,20.592853546142578,0,41.185707092285156,61.778560638427734; 
          0,0,41.185707092285156,0,20.592853546142578,61.778560638427734; 
          0,0,51.482133865356445,10.296426773071289,0,0; 
          0,61.778560638427734,0,20.592853546142578,0,61.778560638427734" keyTimes="0; 0.16666666666666666; 0.3333; 0.6666; 0.8333; 1" begin="0.14197513932768363s"></animate></path>
<path fill-rule="evenodd" clip-rule="evenodd" d="M101 1H45C31.7452 1 21 11.7452 21 25C21 38.2548 31.7452 49 45 49H101C114.255 49 125 38.2548 125 25C125 11.7452 114.255 1 101 1ZM45 0C31.1929 0 20 11.1929 20 25C20 38.8071 31.1929 50 45 50H101C114.807 50 126 38.8071 126 25C126 11.1929 114.807 0 101 0H45Z" fill="url(#paint4_linear_2763_30670)" stroke-dasharray="0,0,0,0,0,531.9194946289062"><animate attributeType="XML" attributeName="stroke-dasharray" repeatCount="indefinite" dur="6.415292059696727s" values="0,0,0,0,0,531.9194946289062; 
          0,0,0,102.03311900591898,225.82013761114933,204.06623801183795; 
          0,0,177.3064982096354,0,354.6129964192708,531.9194946289062; 
          0,0,354.6129964192708,0,177.3064982096354,531.9194946289062; 
          0,0,443.26624552408856,88.6532491048177,0,0; 
          0,531.9194946289062,0,177.3064982096354,0,531.9194946289062" keyTimes="0; 0.16666666666666666; 0.3333; 0.6666; 0.8333; 1" begin="1.351478074795469s"></animate></path>
</g>
<g opacity="0.4">
<path d="M226 400.729V388H234.54V390.188H228.642V393.271H234.099V395.452H228.642V398.541H234.565V400.729H226Z" fill="#2DCD6F" stroke-dasharray="0,0,0,0,0,65.29800415039062"><animate attributeType="XML" attributeName="stroke-dasharray" repeatCount="indefinite" dur="6.489590834601455s" values="0,0,0,0,0,65.29800415039062; 
          0,0,0,11.368940661567649,31.191182165687678,22.737881323135298; 
          0,0,21.766001383463543,0,43.532002766927086,65.29800415039062; 
          0,0,43.532002766927086,0,21.766001383463543,65.29800415039062; 
          0,0,54.41500345865885,10.883000691731771,0,0; 
          0,65.29800415039062,0,21.766001383463543,0,65.29800415039062" keyTimes="0; 0.16666666666666666; 0.3333; 0.6666; 0.8333; 1" begin="1.9588784880131267s"></animate></path>
<path d="M245.395 391.182L242.051 400.729H239.123L235.779 391.182H238.533L240.54 398.044H240.64L242.641 391.182H245.395Z" fill="#2DCD6F" stroke-dasharray="0,0,0,0,0,43.0646858215332"><animate attributeType="XML" attributeName="stroke-dasharray" repeatCount="indefinite" dur="5.607307079138687s" values="0,0,0,0,0,43.0646858215332; 
          0,0,0,8.14020567674746,18.64406879129082,16.28041135349492; 
          0,0,14.3548952738444,0,28.7097905476888,43.0646858215332; 
          0,0,28.7097905476888,0,14.3548952738444,43.0646858215332; 
          0,0,35.887238184611,7.1774476369222,0,0; 
          0,43.0646858215332,0,14.3548952738444,0,43.0646858215332" keyTimes="0; 0.16666666666666666; 0.3333; 0.6666; 0.8333; 1" begin="1.4515017747395644s"></animate></path>
<path d="M250.678 400.916C247.751 400.916 245.954 399.026 245.954 395.999C245.954 393.053 247.776 391.058 250.573 391.058C253.077 391.058 255.054 392.643 255.054 395.9V396.627H248.528C248.528 398.075 249.385 398.964 250.722 398.964C251.617 398.964 252.251 398.579 252.512 398.013H254.986C254.613 399.772 253.034 400.916 250.678 400.916ZM248.528 394.999H252.599C252.586 393.843 251.785 393.003 250.622 393.003C249.423 393.003 248.59 393.905 248.528 394.999Z" fill="#2DCD6F" stroke-dasharray="0,0,0,0,0,54.3525276184082"><animate attributeType="XML" attributeName="stroke-dasharray" repeatCount="indefinite" dur="6.682916427794471s" values="0,0,0,0,0,54.3525276184082; 
          0,0,0,10.267623706022112,23.549656500341868,20.535247412044225; 
          0,0,18.117509206136067,0,36.23501841227213,54.3525276184082; 
          0,0,36.23501841227213,0,18.117509206136067,54.3525276184082; 
          0,0,45.29377301534017,9.058754603068033,0,0; 
          0,54.3525276184082,0,18.117509206136067,0,54.3525276184082" keyTimes="0; 0.16666666666666666; 0.3333; 0.6666; 0.8333; 1" begin="1.7954857280456207s"></animate></path>
<path d="M256.682 400.729V391.182H259.205V392.842H259.305C259.653 391.667 260.536 391.046 261.605 391.046C261.872 391.046 262.208 391.083 262.438 391.126V393.451C262.195 393.376 261.692 393.308 261.325 393.308C260.15 393.308 259.286 394.128 259.286 395.303V400.729H256.682Z" fill="#2DCD6F" stroke-dasharray="0,0,0,0,0,32.492286682128906"><animate attributeType="XML" attributeName="stroke-dasharray" repeatCount="indefinite" dur="6.532604454128673s" values="0,0,0,0,0,32.492286682128906; 
          0,0,0,5.797333126694764,15.100287302044613,11.594666253389528; 
          0,0,10.830762227376303,0,21.661524454752605,32.492286682128906; 
          0,0,21.661524454752605,0,10.830762227376303,32.492286682128906; 
          0,0,27.076905568440754,5.415381113688151,0,0; 
          0,32.492286682128906,0,10.830762227376303,0,32.492286682128906" keyTimes="0; 0.16666666666666666; 0.3333; 0.6666; 0.8333; 1" begin="0.40269774154695925s"></animate></path>
<path d="M265.547 404.309C265.044 404.309 264.565 404.297 264.223 404.266L264.23 402.24C264.559 402.265 264.957 402.271 265.28 402.271C265.802 402.271 266.219 402.227 266.536 401.401L266.685 400.997L263.254 391.182H265.995L267.996 398.218H268.096L270.116 391.182H272.869L269.146 401.78C268.605 403.321 267.561 404.309 265.547 404.309Z" fill="#2DCD6F" stroke-dasharray="0,0,0,0,0,53.11417007446289"><animate attributeType="XML" attributeName="stroke-dasharray" repeatCount="indefinite" dur="6.509053150695639s" values="0,0,0,0,0,53.11417007446289; 
          0,0,0,9.129276710756626,25.72633994219301,18.258553421513252; 
          0,0,17.704723358154297,0,35.409446716308594,53.11417007446289; 
          0,0,35.409446716308594,0,17.704723358154297,53.11417007446289; 
          0,0,44.26180839538574,8.852361679077148,0,0; 
          0,53.11417007446289,0,17.704723358154297,0,53.11417007446289" keyTimes="0; 0.16666666666666666; 0.3333; 0.6666; 0.8333; 1" begin="1.3483938033677259s"></animate></path>
<path d="M277.345 400.885C275.157 400.885 273.46 399.157 273.46 395.968C273.46 392.699 275.232 391.058 277.339 391.058C278.948 391.058 279.707 392.015 280.061 392.786H280.136V388H282.734V400.729H280.173V399.206H280.061C279.688 399.99 278.899 400.885 277.345 400.885ZM276.12 395.956C276.12 397.64 276.835 398.809 278.159 398.809C279.446 398.809 280.192 397.671 280.192 395.956C280.192 394.234 279.458 393.14 278.159 393.14C276.823 393.14 276.12 394.284 276.12 395.956Z" fill="#2DCD6F" stroke-dasharray="0,0,0,0,0,60.96672821044922"><animate attributeType="XML" attributeName="stroke-dasharray" repeatCount="indefinite" dur="6.2894752743363505s" values="0,0,0,0,0,60.96672821044922; 
          0,0,0,11.162573192479288,27.47900863301136,22.325146384958575; 
          0,0,20.322242736816406,0,40.64448547363281,60.96672821044922; 
          0,0,40.64448547363281,0,20.322242736816406,60.96672821044922; 
          0,0,50.805606842041016,10.161121368408203,0,0; 
          0,60.96672821044922,0,20.322242736816406,0,60.96672821044922" keyTimes="0; 0.16666666666666666; 0.3333; 0.6666; 0.8333; 1" begin="0.9594142099226569s"></animate></path>
<path d="M284.377 398.063C284.377 395.925 286.093 395.235 287.926 395.117C288.604 395.073 289.896 395.017 290.294 395.005V394.234C290.288 393.426 289.741 392.966 288.778 392.966C287.883 392.966 287.323 393.37 287.18 394.023H284.713C284.862 392.363 286.304 391.058 288.84 391.058C290.922 391.058 292.886 391.997 292.886 394.296V400.729H290.418V399.405H290.344C289.884 400.288 288.97 400.91 287.553 400.91C285.732 400.91 284.377 399.946 284.377 398.063ZM286.869 397.982C286.869 398.722 287.46 399.101 288.293 399.101C289.48 399.101 290.313 398.324 290.307 397.317V396.621C289.921 396.64 288.796 396.702 288.349 396.745C287.441 396.82 286.869 397.249 286.869 397.982Z" fill="#2DCD6F" stroke-dasharray="0,0,0,0,0,54.906166076660156"><animate attributeType="XML" attributeName="stroke-dasharray" repeatCount="indefinite" dur="6.747436957737632s" values="0,0,0,0,0,54.906166076660156; 
          0,0,0,10.865788540657363,22.308800454688065,21.731577081314725; 
          0,0,18.30205535888672,0,36.60411071777344,54.906166076660156; 
          0,0,36.60411071777344,0,18.30205535888672,54.906166076660156; 
          0,0,45.7551383972168,9.15102767944336,0,0; 
          0,54.906166076660156,0,18.30205535888672,0,54.906166076660156" keyTimes="0; 0.16666666666666666; 0.3333; 0.6666; 0.8333; 1" begin="1.44101571737443s"></animate></path>
<path d="M296.045 404.309C295.542 404.309 295.063 404.297 294.721 404.266L294.728 402.24C295.057 402.265 295.455 402.271 295.778 402.271C296.3 402.271 296.717 402.227 297.034 401.401L297.183 400.997L293.752 391.182H296.493L298.494 398.218H298.594L300.614 391.182H303.367L299.644 401.78C299.103 403.321 298.059 404.309 296.045 404.309Z" fill="#2DCD6F" stroke-dasharray="0,0,0,0,0,53.114173889160156"><animate attributeType="XML" attributeName="stroke-dasharray" repeatCount="indefinite" dur="6.069794478523685s" values="0,0,0,0,0,53.114173889160156; 
          0,0,0,9.459353315121113,24.736113943796813,18.918706630242227; 
          0,0,17.70472462972005,0,35.4094492594401,53.114173889160156; 
          0,0,35.4094492594401,0,17.70472462972005,53.114173889160156; 
          0,0,44.26181157430013,8.852362314860025,0,0; 
          0,53.114173889160156,0,17.70472462972005,0,53.114173889160156" keyTimes="0; 0.16666666666666666; 0.3333; 0.6666; 0.8333; 1" begin="1.9490182169247996s"></animate></path>
</g>
<g opacity="0.4">
<path fill-rule="evenodd" clip-rule="evenodd" d="M126 394C126 407.255 136.745 418 150 418C163.255 418 174 407.255 174 394C174 380.745 163.255 370 150 370C136.745 370 126 380.745 126 394ZM150 369C136.193 369 125 380.193 125 394C125 407.807 136.193 419 150 419C163.807 419 175 407.807 175 394C175 380.193 163.807 369 150 369Z" fill="white" stroke-dasharray="0,0,0,0,0,307.9197998046875"><animate attributeType="XML" attributeName="stroke-dasharray" repeatCount="indefinite" dur="6.225859696782335s" values="0,0,0,0,0,307.9197998046875; 
          0,0,0,51.62663853114903,153.0398842112404,103.25327706229805; 
          0,0,102.63993326822917,0,205.27986653645834,307.9197998046875; 
          0,0,205.27986653645834,0,102.63993326822917,307.9197998046875; 
          0,0,256.59983317057294,51.319966634114586,0,0; 
          0,307.9197998046875,0,102.63993326822917,0,307.9197998046875" keyTimes="0; 0.16666666666666666; 0.3333; 0.6666; 0.8333; 1" begin="2.01905378204671s"></animate></path>
<rect x="141" y="392.468" width="18.6667" height="3.73333" fill="white" stroke-dasharray="0,0,0,0,0,44.800079345703125"><animate attributeType="XML" attributeName="stroke-dasharray" repeatCount="indefinite" dur="6.083841453839533s" values="0,0,0,0,0,44.800079345703125; 
          0,0,0,8.283725731028449,19.948902152617777,16.567451462056898; 
          0,0,14.933359781901041,0,29.866719563802082,44.800079345703125; 
          0,0,29.866719563802082,0,14.933359781901041,44.800079345703125; 
          0,0,37.3333994547526,7.4666798909505205,0,0; 
          0,44.800079345703125,0,14.933359781901041,0,44.800079345703125" keyTimes="0; 0.16666666666666666; 0.3333; 0.6666; 0.8333; 1" begin="0.08941298189028606s"></animate></rect>
<rect x="152.201" y="385" width="18.6667" height="3.73333" transform="rotate(90 152.201 385)" fill="white" stroke-dasharray="0,0,0,0,0,44.800079345703125"><animate attributeType="XML" attributeName="stroke-dasharray" repeatCount="indefinite" dur="6.636324148240762s" values="0,0,0,0,0,44.800079345703125; 
          0,0,0,8.169324187134778,20.29210678429879,16.338648374269557; 
          0,0,14.933359781901041,0,29.866719563802082,44.800079345703125; 
          0,0,29.866719563802082,0,14.933359781901041,44.800079345703125; 
          0,0,37.3333994547526,7.4666798909505205,0,0; 
          0,44.800079345703125,0,14.933359781901041,0,44.800079345703125" keyTimes="0; 0.16666666666666666; 0.3333; 0.6666; 0.8333; 1" begin="1.5569135301093613s"></animate></rect>
</g>
<g opacity="0.4">
<path fill-rule="evenodd" clip-rule="evenodd" d="M21 324C21 337.255 31.7452 348 45 348C58.2548 348 69 337.255 69 324C69 310.745 58.2548 300 45 300C31.7452 300 21 310.745 21 324ZM45 299C31.1929 299 20 310.193 20 324C20 337.807 31.1929 349 45 349C58.8071 349 70 337.807 70 324C70 310.193 58.8071 299 45 299Z" fill="white" stroke-dasharray="0,0,0,0,0,307.9197082519531"><animate attributeType="XML" attributeName="stroke-dasharray" repeatCount="indefinite" dur="6.420295509849309s" values="0,0,0,0,0,307.9197082519531; 
          0,0,0,54.59635122597133,144.13065457403914,109.19270245194267; 
          0,0,102.63990275065105,0,205.2798055013021,307.9197082519531; 
          0,0,205.2798055013021,0,102.63990275065105,307.9197082519531; 
          0,0,256.5997568766276,51.31995137532552,0,0; 
          0,307.9197082519531,0,102.63990275065105,0,307.9197082519531" keyTimes="0; 0.16666666666666666; 0.3333; 0.6666; 0.8333; 1" begin="0.8806191672498224s"></animate></path>
<path fill-rule="evenodd" clip-rule="evenodd" d="M50.3221 322.876L44.4212 317.352L45.9927 315.673L54.8028 323.921L46.6138 332.327L44.9668 330.722L50.3705 325.176L35.1968 325.176L35.1968 322.876L50.3221 322.876Z" fill="white" stroke-dasharray="0,0,0,0,0,76.82855224609375"><animate attributeType="XML" attributeName="stroke-dasharray" repeatCount="indefinite" dur="5.7810480101840165s" values="0,0,0,0,0,76.82855224609375; 
          0,0,0,13.254431413490956,37.065258005620876,26.50886282698191; 
          0,0,25.609517415364582,0,51.219034830729164,76.82855224609375; 
          0,0,51.219034830729164,0,25.609517415364582,76.82855224609375; 
          0,0,64.02379353841145,12.804758707682291,0,0; 
          0,76.82855224609375,0,25.609517415364582,0,76.82855224609375" keyTimes="0; 0.16666666666666666; 0.3333; 0.6666; 0.8333; 1" begin="1.6033665784923943s"></animate></path>
</g>
<g opacity="0.4">
<path d="M55.3701 401V388.271H63.761V390.459H58.0117V393.541H63.2016V395.723H58.0117V401H55.3701Z" fill="#2DCD6F" stroke-dasharray="0,0,0,0,0,52.61961364746094"><animate attributeType="XML" attributeName="stroke-dasharray" repeatCount="indefinite" dur="6.123168191372721s" values="0,0,0,0,0,52.61961364746094; 
          0,0,0,10.411589734946036,21.384844442622825,20.82317946989207; 
          0,0,17.539871215820312,0,35.079742431640625,52.61961364746094; 
          0,0,35.079742431640625,0,17.539871215820312,52.61961364746094; 
          0,0,43.84967803955078,8.769935607910156,0,0; 
          0,52.61961364746094,0,17.539871215820312,0,52.61961364746094" keyTimes="0; 0.16666666666666666; 0.3333; 0.6666; 0.8333; 1" begin="0.36291933226773604s"></animate></path>
<path d="M65.433 401V391.453H68.0372V401H65.433ZM65.3211 388.88C65.3211 388.153 65.9613 387.556 66.7382 387.556C67.5151 387.556 68.1553 388.153 68.1553 388.88C68.1553 389.613 67.5151 390.204 66.7382 390.204C65.9613 390.204 65.3211 389.613 65.3211 388.88Z" fill="#2DCD6F" stroke-dasharray="0,0,0,0,0,32.911834716796875"><animate attributeType="XML" attributeName="stroke-dasharray" repeatCount="indefinite" dur="6.644875440652648s" values="0,0,0,0,0,32.911834716796875; 
          0,0,0,5.96560500952165,15.015019688231924,11.9312100190433; 
          0,0,10.970611572265625,0,21.94122314453125,32.911834716796875; 
          0,0,21.94122314453125,0,10.970611572265625,32.911834716796875; 
          0,0,27.426528930664062,5.4853057861328125,0,0; 
          0,32.911834716796875,0,10.970611572265625,0,32.911834716796875" keyTimes="0; 0.16666666666666666; 0.3333; 0.6666; 0.8333; 1" begin="0.9562239081556223s"></animate></path>
<path d="M75.0968 391.453V393.411H73.2943V398.072C73.2943 398.831 73.6672 399.011 74.2017 399.03C74.4566 399.036 74.9103 399.005 75.2211 398.986V401.037C74.9476 401.081 74.4814 401.13 73.8474 401.13C71.9579 401.13 70.6776 400.285 70.69 398.427V393.411H69.3785V391.453H70.69V389.166H73.2943V391.453H75.0968Z" fill="#2DCD6F" stroke-dasharray="0,0,0,0,0,37.70433807373047"><animate attributeType="XML" attributeName="stroke-dasharray" repeatCount="indefinite" dur="6.526013735405918s" values="0,0,0,0,0,37.70433807373047; 
          0,0,0,7.053296966681131,16.544447173687075,14.106593933362262; 
          0,0,12.56811269124349,0,25.13622538248698,37.70433807373047; 
          0,0,25.13622538248698,0,12.56811269124349,37.70433807373047; 
          0,0,31.420281728108723,6.284056345621745,0,0; 
          0,37.70433807373047,0,12.56811269124349,0,37.70433807373047" keyTimes="0; 0.16666666666666666; 0.3333; 0.6666; 0.8333; 1" begin="0.5000524186109535s"></animate></path>
</g>
<defs>
<linearGradient id="paint0_linear_2763_30670" x1="265" y1="394" x2="265" y2="419" gradientUnits="userSpaceOnUse">
<stop stop-color="#2DCD6F"></stop>
<stop offset="1" stop-color="#2BBF68"></stop>
</linearGradient>
<linearGradient id="paint1_linear_2763_30670" x1="65" y1="394" x2="65" y2="419" gradientUnits="userSpaceOnUse">
<stop stop-color="#2DCD6F"></stop>
<stop offset="1" stop-color="#2BBF68"></stop>
</linearGradient>
<linearGradient id="paint2_linear_2763_30670" x1="307.5" y1="324" x2="307.5" y2="349" gradientUnits="userSpaceOnUse">
<stop stop-color="#2DCD6F"></stop>
<stop offset="1" stop-color="#2BBF68"></stop>
</linearGradient>
<linearGradient id="paint3_linear_2763_30670" x1="268" y1="25" x2="268" y2="50" gradientUnits="userSpaceOnUse">
<stop stop-color="#2DCD6F"></stop>
<stop offset="1" stop-color="#2BBF68"></stop>
</linearGradient>
<linearGradient id="paint4_linear_2763_30670" x1="73" y1="25" x2="73" y2="50" gradientUnits="userSpaceOnUse">
<stop stop-color="#2DCD6F"></stop>
<stop offset="1" stop-color="#2BBF68"></stop>
</linearGradient>
<clipPath id="clip0_2763_30670">
<rect width="174" height="50" fill="white" transform="translate(93 299)" stroke-dasharray="0,0,0,0,0,448"><animate attributeType="XML" attributeName="stroke-dasharray" repeatCount="indefinite" dur="5.957727696550155s" values="0,0,0,0,0,448; 
          0,0,0,79.02754702738298,210.91735891785112,158.05509405476596; 
          0,0,149.33333333333334,0,298.6666666666667,448; 
          0,0,298.6666666666667,0,149.33333333333334,448; 
          0,0,373.3333333333333,74.66666666666667,0,0; 
          0,448,0,149.33333333333334,0,448" keyTimes="0; 0.16666666666666666; 0.3333; 0.6666; 0.8333; 1" begin="1.9644848381257998s"></animate></rect>
</clipPath>
</defs>
<setting>{"type":"delay","speed":11,"random":0.8,"shift":0.5,"size":0.8,"rupture":50}</setting></svg>