<svg width="25" height="24" viewBox="0 0 25 24" fill="none" xmlns="http://www.w3.org/2000/svg">
<circle cx="12.5" cy="12" r="9" stroke="#2F2B3D" stroke-opacity="0.9" stroke-width="1.5" stroke-linecap="round" stroke-linejoin="round"/>
<path d="M9.87596 16.084C9.6462 16.4286 9.73933 16.8943 10.084 17.124C10.4286 17.3538 10.8943 17.2607 11.124 16.916L9.87596 16.084ZM12.5 13.5L13.124 13.084C12.9849 12.8753 12.7508 12.75 12.5 12.75C12.2492 12.75 12.0151 12.8753 11.876 13.084L12.5 13.5ZM13.876 16.916C14.1057 17.2607 14.5714 17.3538 14.916 17.124C15.2607 16.8943 15.3538 16.4286 15.124 16.084L13.876 16.916ZM11.75 13.5C11.75 13.9142 12.0858 14.25 12.5 14.25C12.9142 14.25 13.25 13.9142 13.25 13.5H11.75ZM12.5 11.5L12.2628 10.7885C11.9566 10.8906 11.75 11.1772 11.75 11.5H12.5ZM15.7372 11.2115C16.1301 11.0805 16.3425 10.6558 16.2115 10.2628C16.0805 9.86987 15.6558 9.6575 15.2628 9.78849L15.7372 11.2115ZM9.73717 9.78849C9.34421 9.6575 8.91947 9.86987 8.78849 10.2628C8.6575 10.6558 8.86987 11.0805 9.26283 11.2115L9.73717 9.78849ZM12.2628 12.2115C12.6558 12.3425 13.0805 12.1301 13.2115 11.7372C13.3425 11.3442 13.1301 10.9195 12.7372 10.7885L12.2628 12.2115ZM11.124 16.916L13.124 13.916L11.876 13.084L9.87596 16.084L11.124 16.916ZM11.876 13.916L13.876 16.916L15.124 16.084L13.124 13.084L11.876 13.916ZM13.25 13.5V11.5H11.75V13.5H13.25ZM12.7372 12.2115L15.7372 11.2115L15.2628 9.78849L12.2628 10.7885L12.7372 12.2115ZM9.26283 11.2115L12.2628 12.2115L12.7372 10.7885L9.73717 9.78849L9.26283 11.2115Z" fill="#2F2B3D" fill-opacity="0.9"/>
<circle cx="12.5" cy="7.5" r="0.5" fill="#2F2B3D" fill-opacity="0.9" stroke="#2F2B3D" stroke-opacity="0.9" stroke-width="1.5" stroke-linecap="round" stroke-linejoin="round"/>
</svg>
