<svg width="25" height="24" viewBox="0 0 25 24" fill="none" xmlns="http://www.w3.org/2000/svg">
<path d="M4.40697 4.25579C3.99596 4.30717 3.70441 4.68201 3.75579 5.09303C3.80717 5.50404 4.18201 5.79559 4.59303 5.74421L4.40697 4.25579ZM20.593 3.74421C21.004 3.69283 21.2956 3.31799 21.2442 2.90697C21.1928 2.49596 20.818 2.20441 20.407 2.25579L20.593 3.74421ZM13.25 4C13.25 3.58579 12.9142 3.25 12.5 3.25C12.0858 3.25 11.75 3.58579 11.75 4H13.25ZM11.75 14C11.75 14.4142 12.0858 14.75 12.5 14.75C12.9142 14.75 13.25 14.4142 13.25 14H11.75ZM7.39396 8V7.25C7.17363 7.25 6.96445 7.34688 6.82194 7.51493L7.39396 8ZM17.7 8L18.2809 7.5256C18.1384 7.35118 17.9252 7.25 17.7 7.25V8ZM17.5 20V20.75C17.715 20.75 17.9197 20.6577 18.0621 20.4965L17.5 20ZM7.39396 20L6.82194 20.4851C6.96445 20.6531 7.17363 20.75 7.39396 20.75V20ZM5.5 13.25C5.08579 13.25 4.75 13.5858 4.75 14C4.75 14.4142 5.08579 14.75 5.5 14.75V13.25ZM19.5 14.75C19.9142 14.75 20.25 14.4142 20.25 14C20.25 13.5858 19.9142 13.25 19.5 13.25V14.75ZM4.59303 5.74421L20.593 3.74421L20.407 2.25579L4.40697 4.25579L4.59303 5.74421ZM11.75 4V14H13.25V4H11.75ZM7.39396 8.75H17.7V7.25H7.39396V8.75ZM17.1191 8.4744C18.201 9.79924 18.7862 11.8594 18.7625 13.9917C18.7388 16.1232 18.1085 18.1783 16.9379 19.5035L18.0621 20.4965C19.5415 18.8217 20.2361 16.3768 20.2624 14.0083C20.2887 11.6406 19.6489 9.20076 18.2809 7.5256L17.1191 8.4744ZM17.5 19.25H7.39396V20.75H17.5V19.25ZM7.96598 19.5149C6.84249 18.1901 6.23596 16.1323 6.23596 14C6.23596 11.8677 6.84249 9.80995 7.96598 8.48507L6.82194 7.51493C5.40144 9.19005 4.73596 11.6323 4.73596 14C4.73596 16.3677 5.40144 18.8099 6.82194 20.4851L7.96598 19.5149ZM5.5 14.75H19.5V13.25H5.5V14.75Z" fill="#E1DEF5" fill-opacity="0.7"/>
</svg>
