<svg width="25" height="24" viewBox="0 0 25 24" fill="none" xmlns="http://www.w3.org/2000/svg">
<path d="M7.14939 6.72048C7.03034 6.32374 6.61221 6.09863 6.21547 6.21768C5.81874 6.33673 5.59363 6.75486 5.71267 7.15159L7.14939 6.72048ZM6.98767 11.4006C7.10672 11.7973 7.52485 12.0224 7.92159 11.9034C8.31832 11.7843 8.54344 11.3662 8.42439 10.9695L6.98767 11.4006ZM13.5285 16.0757C13.1317 15.9567 12.7136 16.1818 12.5946 16.5786C12.4756 16.9753 12.7008 17.3934 13.0975 17.5124L13.5285 16.0757ZM17.3485 18.7874C17.7453 18.9064 18.1634 18.6813 18.2824 18.2845C18.4014 17.8877 18.1762 17.4697 17.7795 17.3507L17.3485 18.7874ZM5.71267 7.15159L6.98767 11.4006L8.42439 10.9695L7.14939 6.72048L5.71267 7.15159ZM13.0975 17.5124L17.3485 18.7874L17.7795 17.3507L13.5285 16.0757L13.0975 17.5124Z" fill="#ACAAB1"/>
<path d="M12.183 12.317L17.942 6.55798" stroke="#ACAAB1" stroke-width="1.5" stroke-linecap="round" stroke-linejoin="round"/>
<circle cx="6" cy="5.5" r="1.5" stroke="#ACAAB1" stroke-width="1.5" stroke-linecap="round" stroke-linejoin="round"/>
<circle cx="19" cy="5.5" r="1.5" stroke="#ACAAB1" stroke-width="1.5" stroke-linecap="round" stroke-linejoin="round"/>
<circle cx="19" cy="18.5" r="1.5" stroke="#ACAAB1" stroke-width="1.5" stroke-linecap="round" stroke-linejoin="round"/>
<circle cx="9" cy="15.5" r="4.5" stroke="#ACAAB1" stroke-width="1.5" stroke-linecap="round" stroke-linejoin="round"/>
</svg>
