<svg width="21" height="20" viewBox="0 0 21 20" fill="none" xmlns="http://www.w3.org/2000/svg">
<g id="AlertCheckCircle">
<path id="Vector" d="M14.4913 6.31667L8.99967 11.8083L6.00801 8.82501L4.83301 10L8.99967 14.1667L15.6663 7.50001L14.4913 6.31667ZM10.6663 1.66667C6.06634 1.66667 2.33301 5.40001 2.33301 10C2.33301 14.6 6.06634 18.3333 10.6663 18.3333C15.2663 18.3333 18.9997 14.6 18.9997 10C18.9997 5.40001 15.2663 1.66667 10.6663 1.66667ZM10.6663 16.6667C6.98301 16.6667 3.99967 13.6833 3.99967 10C3.99967 6.31667 6.98301 3.33334 10.6663 3.33334C14.3497 3.33334 17.333 6.31667 17.333 10C17.333 13.6833 14.3497 16.6667 10.6663 16.6667Z" fill="#28C76F"/>
</g>
</svg>
