<svg width="25" height="24" viewBox="0 0 25 24" fill="none" xmlns="http://www.w3.org/2000/svg">
<path d="M11.5 17C12.1376 17.2783 12.8624 17.2783 13.5 17" stroke="#6D6B77" stroke-width="1.5" stroke-linecap="round" stroke-linejoin="round"/>
<path fill-rule="evenodd" clip-rule="evenodd" d="M12.4999 3C7.83591 3 5.10391 5.331 4.63791 8.595C4.17037 11.6098 4.88704 14.6886 6.63791 17.187C7.48058 18.4188 8.56992 19.4622 9.83691 20.251C11.5029 21.251 13.5009 21.251 15.1669 20.251C16.4339 19.4622 17.5232 18.4188 18.3659 17.187C20.1097 14.6854 20.8257 11.6095 20.3659 8.595C19.8999 5.33 17.1679 3 12.5039 3L12.4999 3Z" stroke="#6D6B77" stroke-width="1.5" stroke-linecap="round" stroke-linejoin="round"/>
<path d="M8.5 11L10.5 13" stroke="#6D6B77" stroke-width="1.5" stroke-linecap="round" stroke-linejoin="round"/>
<path d="M16.5 11L14.5 13" stroke="#6D6B77" stroke-width="1.5" stroke-linecap="round" stroke-linejoin="round"/>
</svg>
