<svg width="25" height="24" viewBox="0 0 25 24" fill="none" xmlns="http://www.w3.org/2000/svg">
<path d="M13.25 9C13.25 8.58579 12.9142 8.25 12.5 8.25C12.0858 8.25 11.75 8.58579 11.75 9H13.25ZM11.75 21C11.75 21.4142 12.0858 21.75 12.5 21.75C12.9142 21.75 13.25 21.4142 13.25 21H11.75ZM5.25 13C5.25 12.5858 4.91421 12.25 4.5 12.25C4.08579 12.25 3.75 12.5858 3.75 13H5.25ZM21.25 13C21.25 12.5858 20.9142 12.25 20.5 12.25C20.0858 12.25 19.75 12.5858 19.75 13H21.25ZM21.5 13.75C21.9142 13.75 22.25 13.4142 22.25 13C22.25 12.5858 21.9142 12.25 21.5 12.25V13.75ZM19.5 12.25C19.0858 12.25 18.75 12.5858 18.75 13C18.75 13.4142 19.0858 13.75 19.5 13.75V12.25ZM5.5 13.75C5.91421 13.75 6.25 13.4142 6.25 13C6.25 12.5858 5.91421 12.25 5.5 12.25V13.75ZM3.5 12.25C3.08579 12.25 2.75 12.5858 2.75 13C2.75 13.4142 3.08579 13.75 3.5 13.75V12.25ZM11.75 9V21H13.25V9H11.75ZM3.75 13C3.75 17.8325 7.66751 21.75 12.5 21.75V20.25C8.49594 20.25 5.25 17.0041 5.25 13H3.75ZM12.5 21.75C17.3325 21.75 21.25 17.8325 21.25 13H19.75C19.75 17.0041 16.5041 20.25 12.5 20.25V21.75ZM21.5 12.25H19.5V13.75H21.5V12.25ZM5.5 12.25H3.5V13.75H5.5V12.25Z" fill="#6D6B77"/>
<circle cx="12.5" cy="6" r="3" stroke="#6D6B77" stroke-width="1.5" stroke-linecap="round" stroke-linejoin="round"/>
</svg>
