<svg width="25" height="24" viewBox="0 0 25 24" fill="none" xmlns="http://www.w3.org/2000/svg">
<path d="M5.5 10V6C5.5 4.34315 6.84315 3 8.5 3H16.5C18.1569 3 19.5 4.34315 19.5 6V10" stroke="#6D6B77" stroke-width="1.5" stroke-linecap="round" stroke-linejoin="round"/>
<path d="M16.5 15V13C16.5 11.3431 17.8431 10 19.5 10C21.1569 10 22.5 11.3431 22.5 13C22.5 14.6569 21.1569 16 19.5 16V19H5.5V16C3.84315 16 2.5 14.6569 2.5 13C2.5 11.3431 3.84315 10 5.5 10C7.15685 10 8.5 11.3431 8.5 13V15" stroke="#6D6B77" stroke-width="1.5" stroke-linecap="round" stroke-linejoin="round"/>
<path d="M8.5 12H16.5" stroke="#6D6B77" stroke-width="1.5" stroke-linecap="round" stroke-linejoin="round"/>
<path d="M7.5 19V21" stroke="#6D6B77" stroke-width="1.5" stroke-linecap="round" stroke-linejoin="round"/>
<path d="M17.5 19V21" stroke="#6D6B77" stroke-width="1.5" stroke-linecap="round" stroke-linejoin="round"/>
</svg>
