<svg width="25" height="24" viewBox="0 0 25 24" fill="none" xmlns="http://www.w3.org/2000/svg">
<path fill-rule="evenodd" clip-rule="evenodd" d="M5.5 11C6.60457 11 7.5 11.8954 7.5 13V15H17.5V13C17.5 11.8954 18.3954 11 19.5 11C20.6046 11 21.5 11.8954 21.5 13V17C21.5 18.1046 20.6046 19 19.5 19H5.5C4.39543 19 3.5 18.1046 3.5 17V13C3.5 11.8954 4.39543 11 5.5 11Z" stroke="#2F2B3D" stroke-opacity="0.9" stroke-width="1.5" stroke-linecap="round" stroke-linejoin="round"/>
<path d="M5.5 11V6C5.5 4.34315 6.84315 3 8.5 3H16.5C18.1569 3 19.5 4.34315 19.5 6V11" stroke="#2F2B3D" stroke-opacity="0.9" stroke-width="1.5" stroke-linecap="round" stroke-linejoin="round"/>
<path d="M6.5 19V21" stroke="#2F2B3D" stroke-opacity="0.9" stroke-width="1.5" stroke-linecap="round" stroke-linejoin="round"/>
<path d="M18.5 19V21" stroke="#2F2B3D" stroke-opacity="0.9" stroke-width="1.5" stroke-linecap="round" stroke-linejoin="round"/>
</svg>
