<svg width="25" height="24" viewBox="0 0 25 24" fill="none" xmlns="http://www.w3.org/2000/svg">
<path d="M10.0303 11.5303C10.3232 11.2374 10.3232 10.7626 10.0303 10.4697C9.73744 10.1768 9.26256 10.1768 8.96967 10.4697L10.0303 11.5303ZM5.5 15L4.96967 14.4697C4.67678 14.7626 4.67678 15.2374 4.96967 15.5303L5.5 15ZM8.96967 19.5303C9.26256 19.8232 9.73744 19.8232 10.0303 19.5303C10.3232 19.2374 10.3232 18.7626 10.0303 18.4697L8.96967 19.5303ZM5.5 14.25C5.08579 14.25 4.75 14.5858 4.75 15C4.75 15.4142 5.08579 15.75 5.5 15.75V14.25ZM15.5 6.25C15.0858 6.25 14.75 6.58579 14.75 7C14.75 7.41421 15.0858 7.75 15.5 7.75V6.25ZM8.96967 10.4697L4.96967 14.4697L6.03033 15.5303L10.0303 11.5303L8.96967 10.4697ZM4.96967 15.5303L8.96967 19.5303L10.0303 18.4697L6.03033 14.4697L4.96967 15.5303ZM5.5 15.75H16.5V14.25H5.5V15.75ZM16.5 15.75C19.1234 15.75 21.25 13.6234 21.25 11H19.75C19.75 12.7949 18.2949 14.25 16.5 14.25V15.75ZM21.25 11C21.25 8.37665 19.1234 6.25 16.5 6.25V7.75C18.2949 7.75 19.75 9.20507 19.75 11H21.25ZM16.5 6.25H15.5V7.75H16.5V6.25Z" fill="#6D6B77"/>
</svg>
