<svg width="25" height="24" viewBox="0 0 25 24" fill="none" xmlns="http://www.w3.org/2000/svg">
<path d="M16.0303 10.4697C15.7374 10.1768 15.2626 10.1768 14.9697 10.4697C14.6768 10.7626 14.6768 11.2374 14.9697 11.5303L16.0303 10.4697ZM19.5 15L20.0303 15.5303C20.3232 15.2374 20.3232 14.7626 20.0303 14.4697L19.5 15ZM14.9697 18.4697C14.6768 18.7626 14.6768 19.2374 14.9697 19.5303C15.2626 19.8232 15.7374 19.8232 16.0303 19.5303L14.9697 18.4697ZM19.5 15.75C19.9142 15.75 20.25 15.4142 20.25 15C20.25 14.5858 19.9142 14.25 19.5 14.25V15.75ZM9.5 7.75C9.91421 7.75 10.25 7.41421 10.25 7C10.25 6.58579 9.91421 6.25 9.5 6.25V7.75ZM14.9697 11.5303L18.9697 15.5303L20.0303 14.4697L16.0303 10.4697L14.9697 11.5303ZM18.9697 14.4697L14.9697 18.4697L16.0303 19.5303L20.0303 15.5303L18.9697 14.4697ZM19.5 14.25H8.5V15.75H19.5V14.25ZM8.5 14.25C6.70507 14.25 5.25 12.7949 5.25 11H3.75C3.75 13.6234 5.87665 15.75 8.5 15.75V14.25ZM5.25 11C5.25 9.20507 6.70507 7.75 8.5 7.75V6.25C5.87665 6.25 3.75 8.37665 3.75 11H5.25ZM8.5 7.75H9.5V6.25H8.5V7.75Z" fill="#2F2B3D" fill-opacity="0.9"/>
</svg>
