<svg width="25" height="24" viewBox="0 0 25 24" fill="none" xmlns="http://www.w3.org/2000/svg">
<path d="M2.96967 8.46967C2.67678 8.76256 2.67678 9.23744 2.96967 9.53033C3.26256 9.82322 3.73744 9.82322 4.03033 9.53033L2.96967 8.46967ZM7.5 5L8.03033 4.46967C7.73744 4.17678 7.26256 4.17678 6.96967 4.46967L7.5 5ZM10.9697 9.53033C11.2626 9.82322 11.7374 9.82322 12.0303 9.53033C12.3232 9.23744 12.3232 8.76256 12.0303 8.46967L10.9697 9.53033ZM8.25 5C8.25 4.58579 7.91421 4.25 7.5 4.25C7.08579 4.25 6.75 4.58579 6.75 5H8.25ZM6.75 19C6.75 19.4142 7.08579 19.75 7.5 19.75C7.91421 19.75 8.25 19.4142 8.25 19H6.75ZM4.03033 9.53033L8.03033 5.53033L6.96967 4.46967L2.96967 8.46967L4.03033 9.53033ZM6.96967 5.53033L10.9697 9.53033L12.0303 8.46967L8.03033 4.46967L6.96967 5.53033ZM6.75 5V19H8.25V5H6.75Z" fill="#E1DEF5" fill-opacity="0.9"/>
<path d="M22.0303 15.5303C22.3232 15.2374 22.3232 14.7626 22.0303 14.4697C21.7374 14.1768 21.2626 14.1768 20.9697 14.4697L22.0303 15.5303ZM17.5 19L16.9697 19.5303C17.2626 19.8232 17.7374 19.8232 18.0303 19.5303L17.5 19ZM14.0303 14.4697C13.7374 14.1768 13.2626 14.1768 12.9697 14.4697C12.6768 14.7626 12.6768 15.2374 12.9697 15.5303L14.0303 14.4697ZM16.75 19C16.75 19.4142 17.0858 19.75 17.5 19.75C17.9142 19.75 18.25 19.4142 18.25 19H16.75ZM18.25 5C18.25 4.58579 17.9142 4.25 17.5 4.25C17.0858 4.25 16.75 4.58579 16.75 5H18.25ZM20.9697 14.4697L16.9697 18.4697L18.0303 19.5303L22.0303 15.5303L20.9697 14.4697ZM18.0303 18.4697L14.0303 14.4697L12.9697 15.5303L16.9697 19.5303L18.0303 18.4697ZM18.25 19V5H16.75V19H18.25Z" fill="#E1DEF5" fill-opacity="0.9"/>
</svg>
