<svg width="25" height="24" viewBox="0 0 25 24" fill="none" xmlns="http://www.w3.org/2000/svg">
<path d="M8.96967 13.5303C9.26256 13.8232 9.73744 13.8232 10.0303 13.5303C10.3232 13.2374 10.3232 12.7626 10.0303 12.4697L8.96967 13.5303ZM5.5 9L4.96967 8.46967C4.67678 8.76256 4.67678 9.23744 4.96967 9.53033L5.5 9ZM10.0303 5.53033C10.3232 5.23744 10.3232 4.76256 10.0303 4.46967C9.73744 4.17678 9.26256 4.17678 8.96967 4.46967L10.0303 5.53033ZM5.5 8.25C5.08579 8.25 4.75 8.58579 4.75 9C4.75 9.41421 5.08579 9.75 5.5 9.75V8.25ZM15.5 16.25C15.0858 16.25 14.75 16.5858 14.75 17C14.75 17.4142 15.0858 17.75 15.5 17.75V16.25ZM10.0303 12.4697L6.03033 8.46967L4.96967 9.53033L8.96967 13.5303L10.0303 12.4697ZM6.03033 9.53033L10.0303 5.53033L8.96967 4.46967L4.96967 8.46967L6.03033 9.53033ZM5.5 9.75H16.5V8.25H5.5V9.75ZM16.5 9.75C18.2949 9.75 19.75 11.2051 19.75 13H21.25C21.25 10.3766 19.1234 8.25 16.5 8.25V9.75ZM19.75 13C19.75 14.7949 18.2949 16.25 16.5 16.25V17.75C19.1234 17.75 21.25 15.6234 21.25 13H19.75ZM16.5 16.25H15.5V17.75H16.5V16.25Z" fill="#E1DEF5" fill-opacity="0.7"/>
</svg>
