<svg width="25" height="24" viewBox="0 0 25 24" fill="none" xmlns="http://www.w3.org/2000/svg">
<path d="M14.9697 12.4697C14.6768 12.7626 14.6768 13.2374 14.9697 13.5303C15.2626 13.8232 15.7374 13.8232 16.0303 13.5303L14.9697 12.4697ZM19.5 9L20.0303 9.53033C20.3232 9.23744 20.3232 8.76256 20.0303 8.46967L19.5 9ZM16.0303 4.46967C15.7374 4.17678 15.2626 4.17678 14.9697 4.46967C14.6768 4.76256 14.6768 5.23744 14.9697 5.53033L16.0303 4.46967ZM19.5 9.75C19.9142 9.75 20.25 9.41421 20.25 9C20.25 8.58579 19.9142 8.25 19.5 8.25V9.75ZM9.5 17.75C9.91421 17.75 10.25 17.4142 10.25 17C10.25 16.5858 9.91421 16.25 9.5 16.25V17.75ZM16.0303 13.5303L20.0303 9.53033L18.9697 8.46967L14.9697 12.4697L16.0303 13.5303ZM20.0303 8.46967L16.0303 4.46967L14.9697 5.53033L18.9697 9.53033L20.0303 8.46967ZM19.5 8.25H8.5V9.75H19.5V8.25ZM8.5 8.25C5.87665 8.25 3.75 10.3766 3.75 13H5.25C5.25 11.2051 6.70507 9.75 8.5 9.75V8.25ZM3.75 13C3.75 15.6234 5.87665 17.75 8.5 17.75V16.25C6.70507 16.25 5.25 14.7949 5.25 13H3.75ZM8.5 17.75H9.5V16.25H8.5V17.75Z" fill="#E1DEF5" fill-opacity="0.4"/>
</svg>
