<svg width="25" height="24" viewBox="0 0 25 24" fill="none" xmlns="http://www.w3.org/2000/svg">
<path fill-rule="evenodd" clip-rule="evenodd" d="M20.5 6C21.0523 6 21.5 6.44772 21.5 7V17C21.5 17.5523 21.0523 18 20.5 18H9.50001L4.50001 13C3.99072 12.4306 3.99072 11.5694 4.50001 11L9.50001 6H20.5Z" stroke="#E1DEF5" stroke-opacity="0.7" stroke-width="1.5" stroke-linecap="round" stroke-linejoin="round"/>
<path d="M13.0303 9.46967C12.7374 9.17678 12.2626 9.17678 11.9697 9.46967C11.6768 9.76256 11.6768 10.2374 11.9697 10.5303L13.0303 9.46967ZM15.9697 14.5303C16.2626 14.8232 16.7374 14.8232 17.0303 14.5303C17.3232 14.2374 17.3232 13.7626 17.0303 13.4697L15.9697 14.5303ZM17.0303 10.5303C17.3232 10.2374 17.3232 9.76256 17.0303 9.46967C16.7374 9.17678 16.2626 9.17678 15.9697 9.46967L17.0303 10.5303ZM11.9697 13.4697C11.6768 13.7626 11.6768 14.2374 11.9697 14.5303C12.2626 14.8232 12.7374 14.8232 13.0303 14.5303L11.9697 13.4697ZM11.9697 10.5303L15.9697 14.5303L17.0303 13.4697L13.0303 9.46967L11.9697 10.5303ZM15.9697 9.46967L11.9697 13.4697L13.0303 14.5303L17.0303 10.5303L15.9697 9.46967Z" fill="#E1DEF5" fill-opacity="0.7"/>
</svg>
