<svg width="25" height="24" viewBox="0 0 25 24" fill="none" xmlns="http://www.w3.org/2000/svg">
<circle cx="12.5" cy="12" r="9" stroke="#6D6B77" stroke-width="1.5" stroke-linecap="round" stroke-linejoin="round"/>
<path d="M13.1531 11.6313C12.9495 11.2706 12.492 11.1433 12.1313 11.3469C11.7706 11.5505 11.6433 12.008 11.8469 12.3687L13.1531 11.6313ZM20.5969 16.7437C21.0076 16.6902 21.2972 16.3138 21.2437 15.9031C21.1902 15.4924 20.8138 15.2028 20.4031 15.2563L20.5969 16.7437ZM8.67342 13.1698C8.49109 12.7979 8.04177 12.6442 7.66985 12.8266C7.29793 13.0089 7.14424 13.4582 7.32658 13.8302L8.67342 13.1698ZM16.3578 20.7364C16.7645 20.8149 17.1579 20.5489 17.2364 20.1422C17.3149 19.7355 17.0489 19.3421 16.6422 19.2636L16.3578 20.7364ZM11.8469 12.3687C13.5998 15.4736 17.0613 17.2043 20.5969 16.7437L20.4031 15.2563C17.4736 15.6379 14.6055 14.2039 13.1531 11.6313L11.8469 12.3687ZM7.32658 13.8302C9.08717 17.4213 12.4308 19.9782 16.3578 20.7364L16.6422 19.2636C13.1772 18.5946 10.2269 16.3385 8.67342 13.1698L7.32658 13.8302Z" fill="#6D6B77"/>
<path d="M12.4928 12.75C12.907 12.754 13.246 12.4214 13.25 12.0072C13.254 11.593 12.9214 11.254 12.5072 11.25L12.4928 12.75ZM4.34339 16.6403C4.18436 17.0227 4.36549 17.4617 4.74796 17.6207C5.13043 17.7798 5.5694 17.5986 5.72843 17.2162L4.34339 16.6403ZM13.4001 8.10117C13.8134 8.12922 14.1712 7.81695 14.1992 7.40368C14.2273 6.99042 13.915 6.63267 13.5017 6.60461L13.4001 8.10117ZM3.00512 10.9728C2.73377 11.2857 2.76749 11.7594 3.08045 12.0308C3.3934 12.3021 3.86708 12.2684 4.13843 11.9554L3.00512 10.9728ZM12.5072 11.25C8.94191 11.2156 5.71228 13.348 4.34339 16.6403L5.72843 17.2162C6.86266 14.4883 9.53864 12.7215 12.4928 12.75L12.5072 11.25ZM13.5017 6.60461C9.5114 6.33375 5.62521 7.95099 3.00512 10.9728L4.13843 11.9554C6.45027 9.28915 9.87927 7.86217 13.4001 8.10117L13.5017 6.60461Z" fill="#6D6B77"/>
<path d="M11.8541 11.6187C11.6436 11.9754 11.762 12.4353 12.1187 12.6458C12.4754 12.8564 12.9353 12.7379 13.1459 12.3812L11.8541 11.6187ZM12.5597 2.616C12.308 2.28704 11.8373 2.22442 11.5083 2.47614C11.1794 2.72785 11.1168 3.19858 11.3685 3.52753L12.5597 2.616ZM15.4264 14.729C15.1955 15.0728 15.2871 15.5388 15.6309 15.7697C15.9748 16.0006 16.4408 15.9091 16.6717 15.5652L15.4264 14.729ZM18.1371 4.29079C18.0017 3.89931 17.5746 3.69168 17.1832 3.82703C16.7917 3.96238 16.5841 4.38946 16.7194 4.78094L18.1371 4.29079ZM13.1459 12.3812C14.9583 9.31075 14.7265 5.44762 12.5597 2.616L11.3685 3.52753C13.1638 5.87374 13.3559 9.07461 11.8541 11.6187L13.1459 12.3812ZM16.6717 15.5652C18.9014 12.2449 19.444 8.07075 18.1371 4.29079L16.7194 4.78094C17.8725 8.1162 17.3938 11.7993 15.4264 14.729L16.6717 15.5652Z" fill="#6D6B77"/>
</svg>
