<svg width="25" height="24" viewBox="0 0 25 24" fill="none" xmlns="http://www.w3.org/2000/svg">
<path d="M19.8711 15.7082C19.6846 16.0781 19.8333 16.5291 20.2032 16.7156C20.573 16.902 21.024 16.7534 21.2105 16.3835L19.8711 15.7082ZM8.1195 3.28599C7.74953 3.47227 7.60063 3.92319 7.78691 4.29316C7.97319 4.66312 8.42412 4.81202 8.79408 4.62574L8.1195 3.28599ZM6.66413 6.16928C6.95707 5.87644 6.95714 5.40156 6.66429 5.10862C6.37145 4.81568 5.89657 4.81561 5.60363 5.10846L6.66413 6.16928ZM19.3901 18.8993C19.6831 18.6064 19.6831 18.1316 19.3903 17.8386C19.0974 17.5457 18.6226 17.5456 18.3296 17.8385L19.3901 18.8993ZM21.2105 16.3835C23.1046 12.6263 22.3748 8.07781 19.4003 5.10181L18.3394 6.1622C20.8563 8.68036 21.4738 12.5291 19.8711 15.7082L21.2105 16.3835ZM19.4003 5.10181C16.4258 2.12581 11.8776 1.39372 8.1195 3.28599L8.79408 4.62574C11.9741 3.02459 15.8224 3.64405 18.3394 6.1622L19.4003 5.10181ZM5.60363 5.10846C1.7954 8.91549 1.79443 15.0889 5.60147 18.8971L6.66229 17.8366C3.44095 14.6143 3.44177 9.39062 6.66413 6.16928L5.60363 5.10846ZM5.60147 18.8971C9.4085 22.7053 15.5819 22.7063 19.3901 18.8993L18.3296 17.8385C15.1073 21.0598 9.88364 21.059 6.66229 17.8366L5.60147 18.8971Z" fill="#2F2B3D" fill-opacity="0.9"/>
<path fill-rule="evenodd" clip-rule="evenodd" d="M12.5001 7L17.2551 10.455L16.6891 12.198L15.7091 15.212L15.5001 16H9.50012L7.74512 10.455L9.60512 9.104L11.9181 7.423L12.5001 7Z" stroke="#2F2B3D" stroke-opacity="0.9" stroke-width="1.5" stroke-linecap="round" stroke-linejoin="round"/>
<path d="M12.5 7V3" stroke="#2F2B3D" stroke-opacity="0.9" stroke-width="1.5" stroke-linecap="round" stroke-linejoin="round"/>
<path d="M15.5 16L18 19" stroke="#2F2B3D" stroke-opacity="0.9" stroke-width="1.5" stroke-linecap="round" stroke-linejoin="round"/>
<path d="M17.2549 10.455L20.9999 9" stroke="#2F2B3D" stroke-opacity="0.9" stroke-width="1.5" stroke-linecap="round" stroke-linejoin="round"/>
<path d="M9.561 16.0449L7 18.9999" stroke="#2F2B3D" stroke-opacity="0.9" stroke-width="1.5" stroke-linecap="round" stroke-linejoin="round"/>
<path d="M7.745 10.455L4 9" stroke="#2F2B3D" stroke-opacity="0.9" stroke-width="1.5" stroke-linecap="round" stroke-linejoin="round"/>
<path d="M3.5 3L21.5 21" stroke="#2F2B3D" stroke-opacity="0.9" stroke-width="1.5" stroke-linecap="round" stroke-linejoin="round"/>
</svg>
