<svg width="25" height="24" viewBox="0 0 25 24" fill="none" xmlns="http://www.w3.org/2000/svg">
<circle cx="12.5" cy="12" r="9" stroke="#E1DEF5" stroke-opacity="0.9" stroke-width="1.5" stroke-linecap="round" stroke-linejoin="round"/>
<path fill-rule="evenodd" clip-rule="evenodd" d="M12.5 7L17.26 10.45L15.5 16H9.49999L7.73999 10.45L12.5 7Z" stroke="#E1DEF5" stroke-opacity="0.9" stroke-width="1.5" stroke-linecap="round" stroke-linejoin="round"/>
<path d="M11.75 7C11.75 7.41421 12.0858 7.75 12.5 7.75C12.9142 7.75 13.25 7.41421 13.25 7H11.75ZM13.25 3C13.25 2.58579 12.9142 2.25 12.5 2.25C12.0858 2.25 11.75 2.58579 11.75 3H13.25ZM16.0762 15.5199C15.811 15.2017 15.3381 15.1587 15.0199 15.4238C14.7017 15.689 14.6587 16.1619 14.9238 16.4801L16.0762 15.5199ZM17.4238 19.4801C17.689 19.7983 18.1619 19.8413 18.4801 19.5762C18.7983 19.311 18.8413 18.8381 18.5762 18.5199L17.4238 19.4801ZM16.9889 9.75072C16.6027 9.90045 16.411 10.3349 16.5607 10.7211C16.7105 11.1073 17.1449 11.299 17.5311 11.1493L16.9889 9.75072ZM21.2711 9.69928C21.6573 9.54955 21.849 9.11509 21.6993 8.72889C21.5496 8.34268 21.1151 8.15098 20.7289 8.30072L21.2711 9.69928ZM10.1265 16.5416C10.3979 16.2287 10.3644 15.755 10.0516 15.4836C9.73872 15.2121 9.26503 15.2456 8.99355 15.5584L10.1265 16.5416ZM6.43355 18.5084C6.16207 18.8213 6.1956 19.295 6.50844 19.5665C6.82128 19.8379 7.29497 19.8044 7.56645 19.4916L6.43355 18.5084ZM7.46889 11.1493C7.85509 11.299 8.28955 11.1073 8.43928 10.7211C8.58902 10.3349 8.39732 9.90045 8.01111 9.75072L7.46889 11.1493ZM4.27111 8.30072C3.88491 8.15098 3.45045 8.34268 3.30072 8.72889C3.15098 9.11509 3.34268 9.54955 3.72889 9.69928L4.27111 8.30072ZM13.25 7V3H11.75V7H13.25ZM14.9238 16.4801L17.4238 19.4801L18.5762 18.5199L16.0762 15.5199L14.9238 16.4801ZM17.5311 11.1493L21.2711 9.69928L20.7289 8.30072L16.9889 9.75072L17.5311 11.1493ZM8.99355 15.5584L6.43355 18.5084L7.56645 19.4916L10.1265 16.5416L8.99355 15.5584ZM8.01111 9.75072L4.27111 8.30072L3.72889 9.69928L7.46889 11.1493L8.01111 9.75072Z" fill="#E1DEF5" fill-opacity="0.9"/>
</svg>
