<svg width="25" height="24" viewBox="0 0 25 24" fill="none" xmlns="http://www.w3.org/2000/svg">
<circle cx="12.5" cy="12" r="9" stroke="#2F2B3D" stroke-opacity="0.9" stroke-width="1.5" stroke-linecap="round" stroke-linejoin="round"/>
<path d="M13.1531 11.6313C12.9495 11.2706 12.492 11.1433 12.1313 11.3469C11.7706 11.5505 11.6433 12.008 11.8469 12.3687L13.1531 11.6313ZM20.5969 16.7437C21.0076 16.6902 21.2972 16.3138 21.2437 15.9031C21.1902 15.4924 20.8138 15.2028 20.4031 15.2563L20.5969 16.7437ZM8.67342 13.1698C8.49109 12.7979 8.04177 12.6442 7.66985 12.8266C7.29793 13.0089 7.14424 13.4582 7.32658 13.8302L8.67342 13.1698ZM16.3578 20.7364C16.7645 20.8149 17.1579 20.5489 17.2364 20.1422C17.3149 19.7355 17.0489 19.3421 16.6422 19.2636L16.3578 20.7364ZM11.8469 12.3687C13.5998 15.4736 17.0613 17.2043 20.5969 16.7437L20.4031 15.2563C17.4736 15.6379 14.6055 14.2039 13.1531 11.6313L11.8469 12.3687ZM7.32658 13.8302C9.08717 17.4213 12.4308 19.9782 16.3578 20.7364L16.6422 19.2636C13.1772 18.5946 10.2269 16.3385 8.67342 13.1698L7.32658 13.8302Z" fill="#2F2B3D" fill-opacity="0.9"/>
<path d="M12.4928 12.7501C12.907 12.7541 13.246 12.4216 13.25 12.0074C13.254 11.5932 12.9214 11.2542 12.5072 11.2502L12.4928 12.7501ZM4.34339 16.6404C4.18436 17.0229 4.36549 17.4618 4.74796 17.6208C5.13043 17.7799 5.5694 17.5987 5.72843 17.2163L4.34339 16.6404ZM13.4001 8.10129C13.8134 8.12934 14.1712 7.81707 14.1992 7.40381C14.2273 6.99054 13.915 6.63279 13.5017 6.60474L13.4001 8.10129ZM3.00512 10.9729C2.73377 11.2859 2.76749 11.7595 3.08045 12.0309C3.3934 12.3022 3.86708 12.2685 4.13843 11.9556L3.00512 10.9729ZM12.5072 11.2502C8.94191 11.2158 5.71228 13.3481 4.34339 16.6404L5.72843 17.2163C6.86266 14.4884 9.53864 12.7216 12.4928 12.7501L12.5072 11.2502ZM13.5017 6.60474C9.5114 6.33387 5.62521 7.95111 3.00512 10.9729L4.13843 11.9556C6.45027 9.28927 9.87927 7.8623 13.4001 8.10129L13.5017 6.60474Z" fill="#2F2B3D" fill-opacity="0.9"/>
<path d="M11.8541 11.6186C11.6436 11.9753 11.762 12.4352 12.1187 12.6457C12.4754 12.8563 12.9353 12.7378 13.1459 12.3811L11.8541 11.6186ZM12.5597 2.61588C12.308 2.28692 11.8373 2.2243 11.5083 2.47601C11.1794 2.72773 11.1168 3.19846 11.3685 3.52741L12.5597 2.61588ZM15.4264 14.7288C15.1955 15.0727 15.2871 15.5387 15.6309 15.7696C15.9748 16.0005 16.4408 15.909 16.6717 15.5651L15.4264 14.7288ZM18.1371 4.29067C18.0017 3.89919 17.5746 3.69156 17.1832 3.82691C16.7917 3.96226 16.5841 4.38934 16.7194 4.78081L18.1371 4.29067ZM13.1459 12.3811C14.9583 9.31063 14.7265 5.4475 12.5597 2.61588L11.3685 3.52741C13.1638 5.87362 13.3559 9.07449 11.8541 11.6186L13.1459 12.3811ZM16.6717 15.5651C18.9014 12.2448 19.444 8.07063 18.1371 4.29067L16.7194 4.78081C17.8725 8.11607 17.3938 11.7992 15.4264 14.7288L16.6717 15.5651Z" fill="#2F2B3D" fill-opacity="0.9"/>
</svg>
