<svg width="25" height="24" viewBox="0 0 25 24" fill="none" xmlns="http://www.w3.org/2000/svg">
<path fill-rule="evenodd" clip-rule="evenodd" d="M6.13606 18.3641C8.40969 20.6377 11.7236 21.5257 14.8294 20.6934C17.9353 19.8612 20.3612 17.4353 21.1934 14.3294C22.0257 11.2236 21.1377 7.90969 18.8641 5.63606C15.3493 2.12132 9.6508 2.12132 6.13606 5.63606C2.62132 9.1508 2.62132 14.8493 6.13606 18.3641V18.3641Z" stroke="#2F2B3D" stroke-opacity="0.9" stroke-width="1.5" stroke-linecap="round" stroke-linejoin="round"/>
<path d="M12.995 3.02002C13.1337 5.57295 12.1801 8.06438 10.3722 9.87223C8.56438 11.6801 6.07295 12.6337 3.52002 12.495" stroke="#2F2B3D" stroke-opacity="0.9" stroke-width="1.5" stroke-linecap="round" stroke-linejoin="round"/>
<path d="M21.48 11.505C18.927 11.3663 16.4356 12.3199 14.6278 14.1278C12.8199 15.9356 11.8663 18.427 12.005 20.98" stroke="#2F2B3D" stroke-opacity="0.9" stroke-width="1.5" stroke-linecap="round" stroke-linejoin="round"/>
<path d="M9.5 9L11.5 11" stroke="#2F2B3D" stroke-opacity="0.9" stroke-width="1.5" stroke-linecap="round" stroke-linejoin="round"/>
<path d="M13.5 13L15.5 15" stroke="#2F2B3D" stroke-opacity="0.9" stroke-width="1.5" stroke-linecap="round" stroke-linejoin="round"/>
<path d="M11.5 7L13.5 8" stroke="#2F2B3D" stroke-opacity="0.9" stroke-width="1.5" stroke-linecap="round" stroke-linejoin="round"/>
<path d="M7.5 11L8.5 13" stroke="#2F2B3D" stroke-opacity="0.9" stroke-width="1.5" stroke-linecap="round" stroke-linejoin="round"/>
<path d="M16.5 11L17.5 13" stroke="#2F2B3D" stroke-opacity="0.9" stroke-width="1.5" stroke-linecap="round" stroke-linejoin="round"/>
<path d="M11.5 16L13.5 17" stroke="#2F2B3D" stroke-opacity="0.9" stroke-width="1.5" stroke-linecap="round" stroke-linejoin="round"/>
</svg>
