<svg width="25" height="24" viewBox="0 0 25 24" fill="none" xmlns="http://www.w3.org/2000/svg">
<path d="M19.8711 15.7084C19.6846 16.0782 19.8333 16.5292 20.2032 16.7157C20.573 16.9022 21.024 16.7535 21.2105 16.3836L19.8711 15.7084ZM8.1195 3.28611C7.74953 3.47239 7.60063 3.92332 7.78691 4.29328C7.97319 4.66324 8.42411 4.81214 8.79408 4.62586L8.1195 3.28611ZM6.66413 6.16941C6.95707 5.87656 6.95714 5.40168 6.66429 5.10875C6.37145 4.81581 5.89657 4.81573 5.60363 5.10858L6.66413 6.16941ZM19.3901 18.8994C19.6831 18.6066 19.6831 18.1317 19.3903 17.8387C19.0974 17.5458 18.6226 17.5457 18.3296 17.8386L19.3901 18.8994ZM21.2105 16.3836C23.1046 12.6264 22.3748 8.07793 19.4003 5.10193L18.3394 6.16233C20.8563 8.68048 21.4738 12.5292 19.8711 15.7084L21.2105 16.3836ZM19.4003 5.10193C16.4258 2.12593 11.8776 1.39384 8.1195 3.28611L8.79408 4.62586C11.9741 3.02471 15.8224 3.64417 18.3394 6.16233L19.4003 5.10193ZM5.60363 5.10858C1.7954 8.91561 1.79443 15.089 5.60147 18.8972L6.66229 17.8367C3.44095 14.6144 3.44177 9.39075 6.66413 6.16941L5.60363 5.10858ZM5.60147 18.8972C9.4085 22.7055 15.5819 22.7064 19.3901 18.8994L18.3296 17.8386C15.1073 21.0599 9.88364 21.0591 6.66229 17.8367L5.60147 18.8972Z" fill="#E1DEF5" fill-opacity="0.4"/>
<path fill-rule="evenodd" clip-rule="evenodd" d="M12.5001 7L17.2551 10.455L16.6891 12.198L15.7091 15.212L15.5001 16H9.50012L7.74512 10.455L9.60512 9.104L11.9181 7.423L12.5001 7Z" stroke="#E1DEF5" stroke-opacity="0.4" stroke-width="1.5" stroke-linecap="round" stroke-linejoin="round"/>
<path d="M12.5 7V3" stroke="#E1DEF5" stroke-opacity="0.4" stroke-width="1.5" stroke-linecap="round" stroke-linejoin="round"/>
<path d="M15.5 16L18 19" stroke="#E1DEF5" stroke-opacity="0.4" stroke-width="1.5" stroke-linecap="round" stroke-linejoin="round"/>
<path d="M17.2549 10.455L20.9999 9" stroke="#E1DEF5" stroke-opacity="0.4" stroke-width="1.5" stroke-linecap="round" stroke-linejoin="round"/>
<path d="M9.561 16.045L7 19" stroke="#E1DEF5" stroke-opacity="0.4" stroke-width="1.5" stroke-linecap="round" stroke-linejoin="round"/>
<path d="M7.745 10.455L4 9" stroke="#E1DEF5" stroke-opacity="0.4" stroke-width="1.5" stroke-linecap="round" stroke-linejoin="round"/>
<path d="M3.5 3L21.5 21" stroke="#E1DEF5" stroke-opacity="0.4" stroke-width="1.5" stroke-linecap="round" stroke-linejoin="round"/>
</svg>
