<svg width="25" height="24" viewBox="0 0 25 24" fill="none" xmlns="http://www.w3.org/2000/svg">
<path d="M2.5 12H3.5" stroke="#E1DEF5" stroke-opacity="0.4" stroke-width="1.5" stroke-linecap="round" stroke-linejoin="round"/>
<path d="M6.5 8H4.5C3.94772 8 3.5 8.44772 3.5 9V15C3.5 15.5523 3.94772 16 4.5 16H6.5" stroke="#E1DEF5" stroke-opacity="0.4" stroke-width="1.5" stroke-linecap="round" stroke-linejoin="round"/>
<path fill-rule="evenodd" clip-rule="evenodd" d="M6.5 7V17C6.5 17.5523 6.94772 18 7.5 18H8.5C9.05228 18 9.5 17.5523 9.5 17V7C9.5 6.44772 9.05228 6 8.5 6H7.5C6.94772 6 6.5 6.44772 6.5 7Z" stroke="#E1DEF5" stroke-opacity="0.4" stroke-width="1.5" stroke-linecap="round" stroke-linejoin="round"/>
<path d="M9.5 12H15.5" stroke="#E1DEF5" stroke-opacity="0.4" stroke-width="1.5" stroke-linecap="round" stroke-linejoin="round"/>
<path fill-rule="evenodd" clip-rule="evenodd" d="M15.5 7V17C15.5 17.5523 15.9477 18 16.5 18H17.5C18.0523 18 18.5 17.5523 18.5 17V7C18.5 6.44772 18.0523 6 17.5 6H16.5C15.9477 6 15.5 6.44772 15.5 7Z" stroke="#E1DEF5" stroke-opacity="0.4" stroke-width="1.5" stroke-linecap="round" stroke-linejoin="round"/>
<path d="M18.5 8H20.5C21.0523 8 21.5 8.44772 21.5 9V15C21.5 15.5523 21.0523 16 20.5 16H18.5" stroke="#E1DEF5" stroke-opacity="0.4" stroke-width="1.5" stroke-linecap="round" stroke-linejoin="round"/>
<path d="M22.5 12H21.5" stroke="#E1DEF5" stroke-opacity="0.4" stroke-width="1.5" stroke-linecap="round" stroke-linejoin="round"/>
</svg>
