<svg width="25" height="24" viewBox="0 0 25 24" fill="none" xmlns="http://www.w3.org/2000/svg">
<path d="M3.5 3L21.5 21" stroke="#2F2B3D" stroke-opacity="0.9" stroke-width="1.5" stroke-linecap="round" stroke-linejoin="round"/>
<path d="M11.5 6.25C11.0858 6.25 10.75 6.58579 10.75 7C10.75 7.41421 11.0858 7.75 11.5 7.75V6.25ZM18.75 15C18.75 15.4142 19.0858 15.75 19.5 15.75C19.9142 15.75 20.25 15.4142 20.25 15H18.75ZM17.5 17.75C17.9142 17.75 18.25 17.4142 18.25 17C18.25 16.5858 17.9142 16.25 17.5 16.25V17.75ZM7.5 7.75C7.91421 7.75 8.25 7.41421 8.25 7C8.25 6.58579 7.91421 6.25 7.5 6.25V7.75ZM11.5 7.75H17.5V6.25H11.5V7.75ZM17.5 7.75C18.1904 7.75 18.75 8.30964 18.75 9H20.25C20.25 7.48122 19.0188 6.25 17.5 6.25V7.75ZM18.75 9V9.5H20.25V9H18.75ZM18.75 9.5C18.75 10.1904 19.3096 10.75 20 10.75V9.25C20.1381 9.25 20.25 9.36193 20.25 9.5H18.75ZM20 10.75C19.8619 10.75 19.75 10.6381 19.75 10.5H21.25C21.25 9.80964 20.6904 9.25 20 9.25V10.75ZM19.75 10.5V13.5H21.25V10.5H19.75ZM19.75 13.5C19.75 13.3619 19.8619 13.25 20 13.25V14.75C20.6904 14.75 21.25 14.1904 21.25 13.5H19.75ZM20 13.25C19.3096 13.25 18.75 13.8096 18.75 14.5H20.25C20.25 14.6381 20.1381 14.75 20 14.75V13.25ZM18.75 14.5V15H20.25V14.5H18.75ZM17.5 16.25H6.5V17.75H17.5V16.25ZM6.5 16.25C5.80964 16.25 5.25 15.6904 5.25 15H3.75C3.75 16.5188 4.98122 17.75 6.5 17.75V16.25ZM5.25 15V9H3.75V15H5.25ZM5.25 9C5.25 8.30964 5.80964 7.75 6.5 7.75V6.25C4.98122 6.25 3.75 7.48122 3.75 9H5.25ZM6.5 7.75H7.5V6.25H6.5V7.75Z" fill="#2F2B3D" fill-opacity="0.9"/>
</svg>
