<svg width="25" height="24" viewBox="0 0 25 24" fill="none" xmlns="http://www.w3.org/2000/svg">
<path d="M16.5 7H17.5C18.6046 7 19.5 7.89543 19.5 9V9.5C19.5 9.77614 19.7239 10 20 10C20.2761 10 20.5 10.2239 20.5 10.5V13.5C20.5 13.7761 20.2761 14 20 14C19.7239 14 19.5 14.2239 19.5 14.5V15C19.5 16.1046 18.6046 17 17.5 17H15.5" stroke="#ACAAB1" stroke-width="1.5" stroke-linecap="round" stroke-linejoin="round"/>
<path d="M8.5 7H6.5C5.39543 7 4.5 7.89543 4.5 9V15C4.5 16.1046 5.39543 17 6.5 17H7.5" stroke="#ACAAB1" stroke-width="1.5" stroke-linecap="round" stroke-linejoin="round"/>
<path d="M12.5 8L10.5 12H13.5L11.5 16" stroke="#ACAAB1" stroke-width="1.5" stroke-linecap="round" stroke-linejoin="round"/>
</svg>
