<svg width="25" height="24" viewBox="0 0 25 24" fill="none" xmlns="http://www.w3.org/2000/svg">
<path d="M4.5 9C4.5 7.89543 5.39543 7 6.5 7H17.5C18.6046 7 19.5 7.89543 19.5 9V9.5C19.5 9.77614 19.7239 10 20 10C20.2761 10 20.5 10.2239 20.5 10.5V13.5C20.5 13.7761 20.2761 14 20 14C19.7239 14 19.5 14.2239 19.5 14.5V15C19.5 16.1046 18.6046 17 17.5 17H13" stroke="#6D6B77" stroke-width="1.5" stroke-linecap="round" stroke-linejoin="round"/>
<path fill-rule="evenodd" clip-rule="evenodd" d="M3.5 15H9.5V17C9.5 18.1046 8.60457 19 7.5 19H5.5C4.39543 19 3.5 18.1046 3.5 17V15Z" stroke="#6D6B77" stroke-width="1.5" stroke-linecap="round" stroke-linejoin="round"/>
<path d="M6.5 22V19" stroke="#6D6B77" stroke-width="1.5" stroke-linecap="round" stroke-linejoin="round"/>
<path d="M4.5 15V12.5" stroke="#6D6B77" stroke-width="1.5" stroke-linecap="round" stroke-linejoin="round"/>
<path d="M8.5 15V12.5" stroke="#6D6B77" stroke-width="1.5" stroke-linecap="round" stroke-linejoin="round"/>
</svg>
