<svg width="25" height="24" viewBox="0 0 25 24" fill="none" xmlns="http://www.w3.org/2000/svg">
<path d="M18.053 16.7501C15.1242 13.8216 10.3759 13.8216 7.44702 16.7501" stroke="#2F2B3D" stroke-opacity="0.9" stroke-width="1.5" stroke-linecap="round" stroke-linejoin="round"/>
<path fill-rule="evenodd" clip-rule="evenodd" d="M18.5 3.80384C15.6303 2.14707 11.9609 3.13024 10.304 5.99984L20.696 11.9998C22.3527 9.13016 21.3696 5.46075 18.5 3.80384V3.80384Z" stroke="#2F2B3D" stroke-opacity="0.9" stroke-width="1.5" stroke-linecap="round" stroke-linejoin="round"/>
<path d="M17.2319 9.99978C18.8899 7.12978 19.4569 4.35578 18.4999 3.80378C17.5429 3.25178 15.4249 5.12978 13.7679 7.99978" stroke="#2F2B3D" stroke-opacity="0.9" stroke-width="1.5" stroke-linecap="round" stroke-linejoin="round"/>
<path d="M15.5 9L12.5 14.196" stroke="#2F2B3D" stroke-opacity="0.9" stroke-width="1.5" stroke-linecap="round" stroke-linejoin="round"/>
<path d="M3.5 19.25C3.81129 19.0953 4.15249 19.01 4.5 19C5.29071 18.9835 6.03882 19.3575 6.5 20C6.96118 20.6425 7.70929 21.0166 8.5 21C9.29071 21.0166 10.0388 20.6425 10.5 20C10.9612 19.3575 11.7093 18.9835 12.5 19C13.2907 18.9835 14.0388 19.3575 14.5 20C14.9612 20.6425 15.7093 21.0166 16.5 21C17.2907 21.0166 18.0388 20.6425 18.5 20C18.9612 19.3575 19.7093 18.9835 20.5 19C20.8475 19.01 21.1887 19.0953 21.5 19.25" stroke="#2F2B3D" stroke-opacity="0.9" stroke-width="1.5" stroke-linecap="round" stroke-linejoin="round"/>
</svg>
