<svg width="25" height="24" viewBox="0 0 25 24" fill="none" xmlns="http://www.w3.org/2000/svg">
<path d="M18.053 16.75C15.1242 13.8215 10.3759 13.8215 7.44702 16.75" stroke="#E1DEF5" stroke-opacity="0.7" stroke-width="1.5" stroke-linecap="round" stroke-linejoin="round"/>
<path fill-rule="evenodd" clip-rule="evenodd" d="M18.5 3.80397C15.6303 2.14719 11.9609 3.13036 10.304 5.99997L20.696 12C22.3527 9.13028 21.3696 5.46087 18.5 3.80397V3.80397Z" stroke="#E1DEF5" stroke-opacity="0.7" stroke-width="1.5" stroke-linecap="round" stroke-linejoin="round"/>
<path d="M17.2319 10C18.8899 7.13003 19.4569 4.35603 18.4999 3.80403C17.5429 3.25203 15.4249 5.13003 13.7679 8.00003" stroke="#E1DEF5" stroke-opacity="0.7" stroke-width="1.5" stroke-linecap="round" stroke-linejoin="round"/>
<path d="M15.5 9L12.5 14.196" stroke="#E1DEF5" stroke-opacity="0.7" stroke-width="1.5" stroke-linecap="round" stroke-linejoin="round"/>
<path d="M3.5 19.25C3.81129 19.0953 4.15249 19.01 4.5 19C5.29071 18.9835 6.03882 19.3575 6.5 20C6.96118 20.6425 7.70929 21.0166 8.5 21C9.29071 21.0166 10.0388 20.6425 10.5 20C10.9612 19.3575 11.7093 18.9835 12.5 19C13.2907 18.9835 14.0388 19.3575 14.5 20C14.9612 20.6425 15.7093 21.0166 16.5 21C17.2907 21.0166 18.0388 20.6425 18.5 20C18.9612 19.3575 19.7093 18.9835 20.5 19C20.8475 19.01 21.1887 19.0953 21.5 19.25" stroke="#E1DEF5" stroke-opacity="0.7" stroke-width="1.5" stroke-linecap="round" stroke-linejoin="round"/>
</svg>
