<svg width="25" height="24" viewBox="0 0 25 24" fill="none" xmlns="http://www.w3.org/2000/svg">
<path d="M4.25 7C4.25 6.58579 3.91421 6.25 3.5 6.25C3.08579 6.25 2.75 6.58579 2.75 7H4.25ZM2.75 18C2.75 18.4142 3.08579 18.75 3.5 18.75C3.91421 18.75 4.25 18.4142 4.25 18H2.75ZM3.5 13.25C3.08579 13.25 2.75 13.5858 2.75 14C2.75 14.4142 3.08579 14.75 3.5 14.75V13.25ZM21.5 14.75C21.9142 14.75 22.25 14.4142 22.25 14C22.25 13.5858 21.9142 13.25 21.5 13.25V14.75ZM20.75 18C20.75 18.4142 21.0858 18.75 21.5 18.75C21.9142 18.75 22.25 18.4142 22.25 18H20.75ZM11.5 8V7.25C11.0858 7.25 10.75 7.58579 10.75 8H11.5ZM10.75 14C10.75 14.4142 11.0858 14.75 11.5 14.75C11.9142 14.75 12.25 14.4142 12.25 14H10.75ZM2.75 7V18H4.25V7H2.75ZM3.5 14.75H21.5V13.25H3.5V14.75ZM22.25 18V10H20.75V18H22.25ZM22.25 10C22.25 8.48122 21.0188 7.25 19.5 7.25V8.75C20.1904 8.75 20.75 9.30964 20.75 10H22.25ZM19.5 7.25H11.5V8.75H19.5V7.25ZM10.75 8V14H12.25V8H10.75Z" fill="#ACAAB1"/>
<circle cx="7.5" cy="10" r="1" stroke="#ACAAB1" stroke-width="1.5" stroke-linecap="round" stroke-linejoin="round"/>
</svg>
