<svg width="25" height="24" viewBox="0 0 25 24" fill="none" xmlns="http://www.w3.org/2000/svg">
<path d="M10.5 5C10.5 3.89543 11.3954 3 12.5 3C13.6046 3 14.5 3.89543 14.5 5C16.8402 6.10655 18.3786 8.41425 18.5 11V14C18.6526 15.2608 19.3949 16.3742 20.5 17H4.5C5.60511 16.3742 6.34739 15.2608 6.5 14V11C6.62137 8.41425 8.15983 6.10655 10.5 5" stroke="#2F2B3D" stroke-opacity="0.9" stroke-width="1.5" stroke-linecap="round" stroke-linejoin="round"/>
<path d="M9.5 17V18C9.5 19.6569 10.8431 21 12.5 21C14.1569 21 15.5 19.6569 15.5 18V17" stroke="#2F2B3D" stroke-opacity="0.9" stroke-width="1.5" stroke-linecap="round" stroke-linejoin="round"/>
<path d="M11.5303 8.96967C11.2374 8.67678 10.7626 8.67678 10.4697 8.96967C10.1768 9.26256 10.1768 9.73744 10.4697 10.0303L11.5303 8.96967ZM13.4697 13.0303C13.7626 13.3232 14.2374 13.3232 14.5303 13.0303C14.8232 12.7374 14.8232 12.2626 14.5303 11.9697L13.4697 13.0303ZM14.5303 10.0303C14.8232 9.73744 14.8232 9.26256 14.5303 8.96967C14.2374 8.67678 13.7626 8.67678 13.4697 8.96967L14.5303 10.0303ZM10.4697 11.9697C10.1768 12.2626 10.1768 12.7374 10.4697 13.0303C10.7626 13.3232 11.2374 13.3232 11.5303 13.0303L10.4697 11.9697ZM10.4697 10.0303L13.4697 13.0303L14.5303 11.9697L11.5303 8.96967L10.4697 10.0303ZM13.4697 8.96967L10.4697 11.9697L11.5303 13.0303L14.5303 10.0303L13.4697 8.96967Z" fill="#2F2B3D" fill-opacity="0.9"/>
</svg>
