<svg width="25" height="24" viewBox="0 0 25 24" fill="none" xmlns="http://www.w3.org/2000/svg">
<path d="M3.5 3L21.5 21" stroke="#E1DEF5" stroke-opacity="0.7" stroke-width="1.5" stroke-linecap="round" stroke-linejoin="round"/>
<path d="M17.5 17.75C17.9142 17.75 18.25 17.4142 18.25 17C18.25 16.5858 17.9142 16.25 17.5 16.25V17.75ZM4.5 17L4.13043 16.3474C3.83404 16.5152 3.68797 16.8617 3.77475 17.1911C3.86154 17.5205 4.15938 17.75 4.5 17.75V17ZM6.5 14L7.24457 14.0901C7.24819 14.0602 7.25 14.0301 7.25 14H6.5ZM6.5 11L5.75083 10.9648C5.75028 10.9765 5.75 10.9883 5.75 11L6.5 11ZM8.39114 7.71734C8.63047 7.37927 8.55042 6.91119 8.21234 6.67186C7.87427 6.43253 7.40619 6.51258 7.16686 6.85065L8.39114 7.71734ZM9.4616 4.70906C9.10762 4.92416 8.99503 5.38549 9.21013 5.73947C9.42523 6.09346 9.88656 6.20605 10.2405 5.99094L9.4616 4.70906ZM10.5001 5L10.8209 5.67793C11.083 5.55391 11.2501 5.28994 11.2501 5H10.5001ZM14.5001 5H13.7501C13.7501 5.29002 13.9173 5.55405 14.1795 5.67802L14.5001 5ZM18.5001 11H19.2501C19.2501 10.9883 19.2498 10.9765 19.2492 10.9648L18.5001 11ZM17.7501 14C17.7501 14.4142 18.0859 14.75 18.5001 14.75C18.9143 14.75 19.2501 14.4142 19.2501 14H17.7501ZM17.5 16.25H4.5V17.75H17.5V16.25ZM4.86957 17.6526C6.18189 16.9095 7.06334 15.5873 7.24457 14.0901L5.75543 13.9099C5.63144 14.9343 5.02834 15.8389 4.13043 16.3474L4.86957 17.6526ZM7.25 14V11H5.75V14H7.25ZM7.24917 11.0352C7.3052 9.84289 7.70147 8.69156 8.39114 7.71734L7.16686 6.85065C6.31168 8.05868 5.8203 9.48633 5.75083 10.9648L7.24917 11.0352ZM10.2405 5.99094C10.4282 5.87691 10.6213 5.77236 10.8209 5.67793L10.1793 4.32207C9.93083 4.43964 9.69194 4.56909 9.4616 4.70906L10.2405 5.99094ZM11.2501 5C11.2501 4.30964 11.8097 3.75 12.5001 3.75V2.25C10.9813 2.25 9.75007 3.48122 9.75007 5H11.2501ZM12.5001 3.75C13.1904 3.75 13.7501 4.30964 13.7501 5H15.2501C15.2501 3.48122 14.0189 2.25 12.5001 2.25V3.75ZM14.1795 5.67802C16.2689 6.66602 17.6425 8.72646 17.7509 11.0352L19.2492 10.9648C19.1149 8.10204 17.4116 5.54709 14.8207 4.32198L14.1795 5.67802ZM17.7501 11V14H19.2501V11H17.7501Z" fill="#E1DEF5" fill-opacity="0.7"/>
<path d="M9.5 17V18C9.5 19.6569 10.8431 21 12.5 21C14.1569 21 15.5 19.6569 15.5 18V17" stroke="#E1DEF5" stroke-opacity="0.7" stroke-width="1.5" stroke-linecap="round" stroke-linejoin="round"/>
</svg>
