<svg width="25" height="24" viewBox="0 0 25 24" fill="none" xmlns="http://www.w3.org/2000/svg">
<path fill-rule="evenodd" clip-rule="evenodd" d="M19.8641 4.63587C20.6449 5.41687 20.6449 6.68287 19.8641 7.46387C20.7368 9.9013 20.193 12.6214 18.4501 14.5359L16.3281 16.6559C15.5444 17.6554 15.282 18.9678 15.6211 20.1919L4.30811 8.87987C5.53186 9.21864 6.84378 8.95626 7.84311 8.17287L9.96411 6.04987C11.8786 4.307 14.5987 3.76313 17.0361 4.63587C17.8171 3.8551 19.0831 3.8551 19.8641 4.63587V4.63587Z" stroke="#2F2B3D" stroke-opacity="0.9" stroke-width="1.5" stroke-linecap="round" stroke-linejoin="round"/>
<path d="M7.84308 12.4141L7.13608 13.1211C5.96441 14.2927 5.96441 16.1924 7.13608 17.3641C8.30775 18.5357 10.2074 18.5357 11.3791 17.3641L12.0861 16.6571" stroke="#2F2B3D" stroke-opacity="0.9" stroke-width="1.5" stroke-linecap="round" stroke-linejoin="round"/>
</svg>
