<svg width="25" height="24" viewBox="0 0 25 24" fill="none" xmlns="http://www.w3.org/2000/svg">
<path fill-rule="evenodd" clip-rule="evenodd" d="M19.8641 4.63599C20.6449 5.41699 20.6449 6.68299 19.8641 7.46399C20.7368 9.90142 20.193 12.6215 18.4501 14.536L16.3281 16.656C15.5444 17.6556 15.282 18.9679 15.6211 20.192L4.30811 8.87999C5.53186 9.21877 6.84378 8.95638 7.84311 8.17299L9.96411 6.04999C11.8786 4.30712 14.5987 3.76326 17.0361 4.63599C17.8171 3.85522 19.0831 3.85522 19.8641 4.63599V4.63599Z" stroke="#E1DEF5" stroke-opacity="0.4" stroke-width="1.5" stroke-linecap="round" stroke-linejoin="round"/>
<path d="M7.84308 12.4141L7.13608 13.1211C5.96441 14.2927 5.96441 16.1924 7.13608 17.3641C8.30775 18.5357 10.2074 18.5357 11.3791 17.3641L12.0861 16.6571" stroke="#E1DEF5" stroke-opacity="0.4" stroke-width="1.5" stroke-linecap="round" stroke-linejoin="round"/>
</svg>
