<svg width="25" height="24" viewBox="0 0 25 24" fill="none" xmlns="http://www.w3.org/2000/svg">
<path d="M10.75 10C10.75 10.4142 11.0858 10.75 11.5 10.75C11.9142 10.75 12.25 10.4142 12.25 10H10.75ZM11.5 5H12.25C12.25 4.58579 11.9142 4.25 11.5 4.25V5ZM10.5 4.25C10.0858 4.25 9.75 4.58579 9.75 5C9.75 5.41421 10.0858 5.75 10.5 5.75V4.25ZM17.75 19C17.75 19.4142 18.0858 19.75 18.5 19.75C18.9142 19.75 19.25 19.4142 19.25 19H17.75ZM18.5 14H19.25C19.25 13.5858 18.9142 13.25 18.5 13.25V14ZM17.5 13.25C17.0858 13.25 16.75 13.5858 16.75 14C16.75 14.4142 17.0858 14.75 17.5 14.75V13.25ZM12.25 10V5H10.75V10H12.25ZM11.5 4.25H10.5V5.75H11.5V4.25ZM19.25 19V14H17.75V19H19.25ZM18.5 13.25H17.5V14.75H18.5V13.25Z" fill="#ACAAB1"/>
<rect x="15.5" y="5" width="3" height="5" rx="0.5" stroke="#ACAAB1" stroke-width="1.5" stroke-linecap="round" stroke-linejoin="round"/>
<rect x="10.5" y="14" width="3" height="5" rx="0.5" stroke="#ACAAB1" stroke-width="1.5" stroke-linecap="round" stroke-linejoin="round"/>
</svg>
