<svg width="25" height="24" viewBox="0 0 25 24" fill="none" xmlns="http://www.w3.org/2000/svg">
<circle cx="12.5" cy="12" r="2" stroke="#E1DEF5" stroke-opacity="0.7" stroke-width="1.5" stroke-linecap="round" stroke-linejoin="round"/>
<path d="M13.189 14.0001C13.189 13.5858 12.8532 13.2501 12.439 13.2501C12.0248 13.2501 11.689 13.5858 11.689 14.0001H13.189ZM12.495 14.5331H13.245C13.245 14.5221 13.2448 14.5111 13.2443 14.5001L12.495 14.5331ZM12.495 14.7501L13.245 14.7501V14.7501H12.495ZM7.962 19.4951V20.2451C7.97342 20.2451 7.98484 20.2448 7.99626 20.2443L7.962 19.4951ZM7.745 18.7451C7.33078 18.7451 6.995 19.0808 6.995 19.4951C6.995 19.9093 7.33078 20.2451 7.745 20.2451V18.7451ZM2.245 14.745C2.24497 15.1592 2.58074 15.495 2.99495 15.4951C3.40916 15.4951 3.74497 15.1593 3.745 14.7451L2.245 14.745ZM10.2604 11.6352C10.5824 11.8957 11.0547 11.8458 11.3151 11.5237C11.5756 11.2016 11.5257 10.7294 11.2036 10.4689L10.2604 11.6352ZM17.245 20.2451C17.6592 20.2451 17.995 19.9093 17.995 19.495C17.995 19.0808 17.6592 18.7451 17.245 18.7451L17.245 20.2451ZM12.555 13.9921L13.2955 14.111C13.3303 13.894 13.2683 13.6728 13.1258 13.5056C12.9833 13.3384 12.7747 13.2421 12.555 13.2421V13.9921ZM12.495 13.2421C12.0808 13.2421 11.745 13.5778 11.745 13.9921C11.745 14.4063 12.0808 14.7421 12.495 14.7421V13.2421ZM13.7876 10.4648C13.4654 10.7252 13.4154 11.1974 13.6758 11.5195C13.9361 11.8417 14.4084 11.8917 14.7305 11.6313L13.7876 10.4648ZM21.99 14.5251H22.74C22.74 14.5136 22.7398 14.5022 22.7392 14.4908L21.99 14.5251ZM21.24 14.7421C21.24 15.1563 21.5758 15.4921 21.99 15.4921C22.4042 15.4921 22.74 15.1563 22.74 14.7421H21.24ZM10.5275 11.6297C10.9144 11.7775 11.3479 11.5836 11.4957 11.1966C11.6434 10.8097 11.4495 10.3762 11.0626 10.2284L10.5275 11.6297ZM8.96701 3.30506L8.42421 2.7875C8.41969 2.79225 8.41522 2.79705 8.41082 2.80192L8.96701 3.30506ZM9.67382 3.65061C9.95966 3.35083 9.94835 2.87609 9.64857 2.59025C9.34879 2.30441 8.87405 2.31572 8.58821 2.6155L9.67382 3.65061ZM16.3791 2.60256C16.0861 2.30976 15.6113 2.30991 15.3185 2.6029C15.0257 2.89588 15.0258 3.37076 15.3188 3.66356L16.3791 2.60256ZM13.9167 10.2303C13.5297 10.3779 13.3356 10.8113 13.4832 11.1983C13.6308 11.5853 14.0642 11.7794 14.4512 11.6318L13.9167 10.2303ZM11.689 14.0001C11.689 14.1481 11.7094 14.2863 11.7219 14.3717C11.7368 14.4738 11.7438 14.5213 11.7457 14.566L13.2443 14.5001C13.2382 14.3628 13.2172 14.2304 13.2061 14.1546C13.1926 14.0623 13.189 14.025 13.189 14.0001H11.689ZM11.745 14.5331V14.7501H13.245V14.5331H11.745ZM11.745 14.75C11.745 16.8881 10.0636 18.6482 7.92773 18.7458L7.99626 20.2443C10.933 20.11 13.245 17.6899 13.245 14.7501L11.745 14.75ZM7.962 18.7451H7.745V20.2451H7.962V18.7451ZM3.745 14.7451C3.74509 13.2037 4.63087 11.7995 6.02195 11.1355L5.3758 9.78178C3.46307 10.6948 2.24512 12.6256 2.245 14.745L3.745 14.7451ZM6.02195 11.1355C7.41303 10.4715 9.06186 10.6659 10.2604 11.6352L11.2036 10.4689C9.55568 9.13611 7.28854 8.8688 5.3758 9.78178L6.02195 11.1355ZM17.245 18.7451C16.0733 18.7451 14.9605 18.2314 14.2006 17.3396L13.0589 18.3126C14.1039 19.5388 15.634 20.2451 17.245 20.2451L17.245 18.7451ZM14.2006 17.3396C13.4406 16.4479 13.1098 15.2678 13.2955 14.111L11.8145 13.8732C11.5591 15.4638 12.0139 17.0865 13.0589 18.3126L14.2006 17.3396ZM12.555 13.2421H12.495V14.7421H12.555V13.2421ZM14.7305 11.6313C15.9035 10.6832 17.5101 10.4755 18.8857 11.0941L19.501 9.72614C17.6095 8.87548 15.4005 9.16108 13.7876 10.4648L14.7305 11.6313ZM18.8857 11.0941C20.2613 11.7128 21.1719 13.0526 21.2408 14.5593L22.7392 14.4908C22.6445 12.4191 21.3924 10.5768 19.501 9.72614L18.8857 11.0941ZM21.24 14.5251V14.7421H22.74V14.5251H21.24ZM11.0626 10.2284C9.82918 9.7574 8.90765 8.70812 8.59982 7.42425L7.14116 7.77399C7.56443 9.53932 8.83154 10.9821 10.5275 11.6297L11.0626 10.2284ZM8.59982 7.42425C8.29199 6.14037 8.63751 4.78729 9.52321 3.8082L8.41082 2.80192C7.19298 4.14817 6.71789 6.00866 7.14116 7.77399L8.59982 7.42425ZM9.50982 3.82261L9.67382 3.65061L8.58821 2.6155L8.42421 2.7875L9.50982 3.82261ZM15.3188 3.66356C16.2781 4.62226 16.6863 6.00177 16.4031 7.32813L17.87 7.64134C18.2594 5.8176 17.6982 3.92078 16.3791 2.60256L15.3188 3.66356ZM16.4031 7.32813C16.1199 8.65448 15.1839 9.74699 13.9167 10.2303L14.4512 11.6318C16.1936 10.9673 17.4806 9.46508 17.87 7.64134L16.4031 7.32813Z" fill="#E1DEF5" fill-opacity="0.7"/>
</svg>
