<svg width="25" height="24" viewBox="0 0 25 24" fill="none" xmlns="http://www.w3.org/2000/svg">
<circle cx="12.5" cy="12" r="2" stroke="#2F2B3D" stroke-opacity="0.9" stroke-width="1.5" stroke-linecap="round" stroke-linejoin="round"/>
<path d="M13.189 13.9998C13.189 13.5856 12.8532 13.2498 12.439 13.2498C12.0248 13.2498 11.689 13.5856 11.689 13.9998H13.189ZM12.495 14.5328H13.245C13.245 14.5218 13.2448 14.5108 13.2443 14.4999L12.495 14.5328ZM12.495 14.7498L13.245 14.7498V14.7498H12.495ZM7.962 19.4948V20.2448C7.97342 20.2448 7.98484 20.2445 7.99626 20.244L7.962 19.4948ZM7.745 18.7448C7.33078 18.7448 6.995 19.0806 6.995 19.4948C6.995 19.909 7.33078 20.2448 7.745 20.2448V18.7448ZM2.245 14.7448C2.24497 15.159 2.58074 15.4948 2.99495 15.4948C3.40916 15.4948 3.74497 15.1591 3.745 14.7449L2.245 14.7448ZM10.2604 11.635C10.5824 11.8954 11.0547 11.8455 11.3151 11.5234C11.5756 11.2014 11.5257 10.7291 11.2036 10.4687L10.2604 11.635ZM17.245 20.2448C17.6592 20.2448 17.995 19.909 17.995 19.4948C17.995 19.0806 17.6592 18.7448 17.245 18.7448L17.245 20.2448ZM12.555 13.9918L13.2955 14.1107C13.3303 13.8938 13.2683 13.6725 13.1258 13.5053C12.9833 13.3381 12.7747 13.2418 12.555 13.2418V13.9918ZM12.495 13.2418C12.0808 13.2418 11.745 13.5776 11.745 13.9918C11.745 14.406 12.0808 14.7418 12.495 14.7418V13.2418ZM13.7876 10.4645C13.4654 10.7249 13.4154 11.1971 13.6758 11.5193C13.9361 11.8414 14.4084 11.8915 14.7305 11.6311L13.7876 10.4645ZM21.99 14.5248H22.74C22.74 14.5134 22.7398 14.502 22.7393 14.4905L21.99 14.5248ZM21.24 14.7418C21.24 15.156 21.5758 15.4918 21.99 15.4918C22.4042 15.4918 22.74 15.156 22.74 14.7418H21.24ZM10.5275 11.6295C10.9144 11.7772 11.3479 11.5833 11.4957 11.1964C11.6434 10.8094 11.4495 10.3759 11.0626 10.2282L10.5275 11.6295ZM8.96701 3.30481L8.42421 2.78726C8.41969 2.792 8.41522 2.79681 8.41082 2.80167L8.96701 3.30481ZM9.67382 3.65037C9.95966 3.35059 9.94835 2.87585 9.64857 2.59001C9.34879 2.30417 8.87405 2.31547 8.58821 2.61526L9.67382 3.65037ZM16.3791 2.60231C16.0861 2.30951 15.6113 2.30967 15.3185 2.60265C15.0257 2.89564 15.0258 3.37051 15.3188 3.66331L16.3791 2.60231ZM13.9167 10.23C13.5297 10.3777 13.3356 10.8111 13.4832 11.1981C13.6308 11.5851 14.0642 11.7792 14.4512 11.6316L13.9167 10.23ZM11.689 13.9998C11.689 14.1479 11.7094 14.286 11.7219 14.3715C11.7368 14.4735 11.7438 14.5211 11.7457 14.5657L13.2443 14.4999C13.2382 14.3625 13.2172 14.2301 13.2061 14.1544C13.1926 14.0621 13.189 14.0247 13.189 13.9998H11.689ZM11.745 14.5328V14.7498H13.245V14.5328H11.745ZM11.745 14.7498C11.745 16.8879 10.0636 18.6479 7.92773 18.7456L7.99626 20.244C10.933 20.1097 13.245 17.6897 13.245 14.7498L11.745 14.7498ZM7.962 18.7448H7.745V20.2448H7.962V18.7448ZM3.745 14.7449C3.74509 13.2034 4.63087 11.7992 6.02195 11.1352L5.3758 9.78154C3.46307 10.6945 2.24512 12.6253 2.245 14.7448L3.745 14.7449ZM6.02195 11.1352C7.41303 10.4712 9.06186 10.6657 10.2604 11.635L11.2036 10.4687C9.55568 9.13586 7.28854 8.86856 5.3758 9.78154L6.02195 11.1352ZM17.245 18.7448C16.0733 18.7448 14.9605 18.2311 14.2006 17.3394L13.0589 18.3124C14.1039 19.5385 15.634 20.2448 17.245 20.2448L17.245 18.7448ZM14.2006 17.3394C13.4406 16.4477 13.1097 15.2676 13.2955 14.1107L11.8145 13.8729C11.5591 15.4636 12.0139 17.0862 13.0589 18.3124L14.2006 17.3394ZM12.555 13.2418H12.495V14.7418H12.555V13.2418ZM14.7305 11.6311C15.9035 10.683 17.5101 10.4752 18.8857 11.0939L19.501 9.72589C17.6095 8.87524 15.4005 9.16083 13.7876 10.4645L14.7305 11.6311ZM18.8857 11.0939C20.2613 11.7126 21.1719 13.0524 21.2408 14.5591L22.7393 14.4905C22.6445 12.4188 21.3924 10.5765 19.501 9.72589L18.8857 11.0939ZM21.24 14.5248V14.7418H22.74V14.5248H21.24ZM11.0626 10.2282C9.82919 9.75716 8.90765 8.70788 8.59982 7.424L7.14116 7.77374C7.56443 9.53907 8.83154 10.9818 10.5275 11.6295L11.0626 10.2282ZM8.59982 7.424C8.29199 6.14013 8.63751 4.78705 9.52321 3.80795L8.41082 2.80167C7.19298 4.14793 6.71789 6.00842 7.14116 7.77374L8.59982 7.424ZM9.50982 3.82237L9.67382 3.65037L8.58821 2.61526L8.42421 2.78726L9.50982 3.82237ZM15.3188 3.66331C16.2781 4.62202 16.6863 6.00153 16.4031 7.32788L17.87 7.6411C18.2594 5.81736 17.6982 3.92054 16.3791 2.60231L15.3188 3.66331ZM16.4031 7.32788C16.1199 8.65424 15.1839 9.74674 13.9167 10.23L14.4512 11.6316C16.1936 10.967 17.4806 9.46484 17.87 7.6411L16.4031 7.32788Z" fill="#2F2B3D" fill-opacity="0.9"/>
</svg>
