<svg width="25" height="24" viewBox="0 0 25 24" fill="none" xmlns="http://www.w3.org/2000/svg">
<path d="M6.5 15H21.5" stroke="#E1DEF5" stroke-opacity="0.7" stroke-width="1.5" stroke-linecap="round" stroke-linejoin="round"/>
<path d="M21.5 19H6.5" stroke="#E1DEF5" stroke-opacity="0.7" stroke-width="1.5" stroke-linecap="round" stroke-linejoin="round"/>
<path d="M15.5 11H21.5" stroke="#E1DEF5" stroke-opacity="0.7" stroke-width="1.5" stroke-linecap="round" stroke-linejoin="round"/>
<path d="M21.5 7H15.5" stroke="#E1DEF5" stroke-opacity="0.7" stroke-width="1.5" stroke-linecap="round" stroke-linejoin="round"/>
<path d="M9.5 9H10.5C11.0523 9 11.5 9.44772 11.5 10C11.5 10.5523 11.0523 11 10.5 11C9.94772 11 9.5 10.5523 9.5 10V7.5C9.5 6.39543 10.3954 5.5 11.5 5.5" stroke="#E1DEF5" stroke-opacity="0.7" stroke-width="1.5" stroke-linecap="round" stroke-linejoin="round"/>
<path d="M3.5 9H4.5C5.05228 9 5.5 9.44772 5.5 10C5.5 10.5523 5.05228 11 4.5 11C3.94772 11 3.5 10.5523 3.5 10V7.5C3.5 6.39543 4.39543 5.5 5.5 5.5" stroke="#E1DEF5" stroke-opacity="0.7" stroke-width="1.5" stroke-linecap="round" stroke-linejoin="round"/>
</svg>
