<svg width="25" height="24" viewBox="0 0 25 24" fill="none" xmlns="http://www.w3.org/2000/svg">
<path d="M3.5 3L21.5 21" stroke="#6D6B77" stroke-width="1.5" stroke-linecap="round" stroke-linejoin="round"/>
<path d="M17.4065 17.0357C17.7299 16.7769 17.7824 16.305 17.5237 15.9815C17.2649 15.6581 16.793 15.6056 16.4695 15.8643L17.4065 17.0357ZM12.5 20H11.75C11.75 20.2883 11.9153 20.5511 12.1751 20.676C12.4349 20.8009 12.7434 20.7658 12.9685 20.5857L12.5 20ZM13.25 12C13.25 11.5858 12.9142 11.25 12.5 11.25C12.0858 11.25 11.75 11.5858 11.75 12H13.25ZM11.75 8C11.75 8.41421 12.0858 8.75 12.5 8.75C12.9142 8.75 13.25 8.41421 13.25 8H11.75ZM12.5 4L12.9685 3.41435C12.7434 3.23425 12.435 3.19913 12.1751 3.32402C11.9153 3.44891 11.75 3.7117 11.75 4H12.5ZM17.5 8L17.9684 8.58573C18.1464 8.44342 18.25 8.22793 18.25 8.00007C18.25 7.77221 18.1465 7.55669 17.9685 7.41435L17.5 8ZM14.2556 9.63427C13.9321 9.89297 13.8796 10.3649 14.1383 10.6884C14.397 11.0119 14.8689 11.0644 15.1924 10.8057L14.2556 9.63427ZM12.9705 12.5847C13.2939 12.3259 13.3464 11.8539 13.0876 11.5305C12.8288 11.207 12.3569 11.1546 12.0334 11.4133L12.9705 12.5847ZM7.03343 15.4133C6.70999 15.6721 6.65754 16.1441 6.9163 16.4675C7.17506 16.791 7.64703 16.8434 7.97047 16.5847L7.03343 15.4133ZM16.4695 15.8643L12.0315 19.4143L12.9685 20.5857L17.4065 17.0357L16.4695 15.8643ZM13.25 20V12H11.75V20H13.25ZM13.25 8V4H11.75V8H13.25ZM12.0315 4.58565L17.0315 8.58565L17.9685 7.41435L12.9685 3.41435L12.0315 4.58565ZM17.0316 7.41427L14.2556 9.63427L15.1924 10.8057L17.9684 8.58573L17.0316 7.41427ZM12.0334 11.4133L7.03343 15.4133L7.97047 16.5847L12.9705 12.5847L12.0334 11.4133Z" fill="#6D6B77"/>
</svg>
