<svg width="25" height="24" viewBox="0 0 25 24" fill="none" xmlns="http://www.w3.org/2000/svg">
<path d="M3.5 3L21.5 21" stroke="#E1DEF5" stroke-opacity="0.4" stroke-width="1.5" stroke-linecap="round" stroke-linejoin="round"/>
<path d="M16.3185 15.6512C16.5622 15.3162 16.4882 14.8472 16.1532 14.6035C15.8182 14.3598 15.3492 14.4338 15.1055 14.7688L16.3185 15.6512ZM11.5 21H10.75C10.75 21.3248 10.9591 21.6128 11.268 21.7132C11.5769 21.8137 11.9154 21.7039 12.1065 21.4412L11.5 21ZM11.5 14H12.25C12.25 13.5858 11.9142 13.25 11.5 13.25V14ZM5.5 14L4.8935 13.5588C4.72754 13.7869 4.70364 14.0889 4.83164 14.3403C4.95964 14.5917 5.21789 14.75 5.5 14.75V14ZM9.8965 9.2312C10.1402 8.89624 10.0662 8.42717 9.7312 8.1835C9.39624 7.93983 8.92717 8.01384 8.6835 8.3488L9.8965 9.2312ZM10.3685 6.02872C10.1248 6.36364 10.1988 6.83272 10.5337 7.07644C10.8686 7.32015 11.3377 7.24621 11.5814 6.91128L10.3685 6.02872ZM13.5 3H14.25C14.25 2.67518 14.0409 2.38728 13.732 2.28679C13.4231 2.1863 13.0847 2.29607 12.8935 2.55872L13.5 3ZM12.75 9C12.75 9.41421 13.0858 9.75 13.5 9.75C13.9142 9.75 14.25 9.41421 14.25 9H12.75ZM14.5 9.25C14.0858 9.25 13.75 9.58579 13.75 10C13.75 10.4142 14.0858 10.75 14.5 10.75V9.25ZM19.5 10L20.1066 10.4411C20.2725 10.213 20.2963 9.91104 20.1683 9.65967C20.0403 9.40829 19.7821 9.25 19.5 9.25V10ZM16.7894 12.4519C16.5458 12.7869 16.6199 13.2559 16.9549 13.4996C17.2899 13.7432 17.7589 13.6691 18.0026 13.3341L16.7894 12.4519ZM15.1055 14.7688L10.8935 20.5588L12.1065 21.4412L16.3185 15.6512L15.1055 14.7688ZM12.25 21V14H10.75V21H12.25ZM11.5 13.25H5.5V14.75H11.5V13.25ZM6.1065 14.4412L9.8965 9.2312L8.6835 8.3488L4.8935 13.5588L6.1065 14.4412ZM11.5814 6.91128L14.1064 3.44128L12.8935 2.55872L10.3685 6.02872L11.5814 6.91128ZM12.75 3V9H14.25V3H12.75ZM14.5 10.75H19.5V9.25H14.5V10.75ZM18.8934 9.55887L16.7894 12.4519L18.0026 13.3341L20.1066 10.4411L18.8934 9.55887Z" fill="#E1DEF5" fill-opacity="0.4"/>
</svg>
