<svg width="25" height="24" viewBox="0 0 25 24" fill="none" xmlns="http://www.w3.org/2000/svg">
<path fill-rule="evenodd" clip-rule="evenodd" d="M15.5 3C17.1569 3 18.5 4.34315 18.5 6C19.8578 5.99971 21.0465 6.9114 21.3982 8.22282C21.75 9.53425 21.1771 10.9184 20.0014 11.5976C18.8257 12.2769 17.3404 12.0818 16.38 11.122L11.622 15.88C12.5662 16.825 12.7718 18.2803 12.1264 19.4499C11.481 20.6194 10.1401 21.2214 8.83727 20.9264C7.53445 20.6314 6.58362 19.5105 6.505 18.177L6.5 18L6.324 17.995C4.98999 17.9168 3.86852 16.9657 3.57352 15.6624C3.27852 14.3591 3.88113 13.0178 5.05145 12.3728C6.22178 11.7277 7.67762 11.9346 8.622 12.88L13.38 8.122C12.5217 7.26424 12.2646 5.97389 12.7287 4.85269C13.1928 3.73149 14.2866 3.00026 15.5 3Z" stroke="#E1DEF5" stroke-opacity="0.4" stroke-width="1.5" stroke-linecap="round" stroke-linejoin="round"/>
</svg>
