<svg width="25" height="24" viewBox="0 0 25 24" fill="none" xmlns="http://www.w3.org/2000/svg">
<path d="M3.5 3L21.5 21" stroke="#2F2B3D" stroke-opacity="0.9" stroke-width="1.5" stroke-linecap="round" stroke-linejoin="round"/>
<path d="M18.25 16.9999C18.25 16.5856 17.9142 16.2499 17.5 16.2499C17.0858 16.2499 16.75 16.5856 16.75 16.9999H18.25ZM17.5 19.9999L17.1141 20.643C17.3458 20.782 17.6344 20.7856 17.8695 20.6525C18.1047 20.5194 18.25 20.2701 18.25 19.9999H17.5ZM12.5 16.9999L12.8859 16.3567C12.6484 16.2142 12.3516 16.2142 12.1141 16.3567L12.5 16.9999ZM7.5 19.9999H6.75C6.75 20.2701 6.89534 20.5194 7.13048 20.6525C7.36561 20.7856 7.65417 20.782 7.88587 20.643L7.5 19.9999ZM8.25 6.99986C8.25 6.58565 7.91421 6.24986 7.5 6.24986C7.08579 6.24986 6.75 6.58565 6.75 6.99986H8.25ZM8.37111 3.49751C7.99315 3.66699 7.82415 4.11077 7.99363 4.48873C8.16311 4.86668 8.60689 5.03569 8.98485 4.86621L8.37111 3.49751ZM16.75 13.0059C16.75 13.4201 17.0858 13.7559 17.5 13.7559C17.9142 13.7559 18.25 13.4201 18.25 13.0059H16.75ZM16.75 16.9999V19.9999H18.25V16.9999H16.75ZM17.8859 19.3567L12.8859 16.3567L12.1141 17.643L17.1141 20.643L17.8859 19.3567ZM12.1141 16.3567L7.11413 19.3567L7.88587 20.643L12.8859 17.643L12.1141 16.3567ZM8.25 19.9999V6.99986H6.75V19.9999H8.25ZM8.98485 4.86621C9.14332 4.79514 9.31698 4.75586 9.49998 4.75586V3.25586C9.09897 3.25586 8.71663 3.34257 8.37111 3.49751L8.98485 4.86621ZM9.49998 4.75586H15.5V3.25586H9.49998V4.75586ZM15.5 4.75586C16.1903 4.75586 16.75 5.3155 16.75 6.00586H18.25C18.25 4.48708 17.0188 3.25586 15.5 3.25586V4.75586ZM16.75 6.00586V13.0059H18.25V6.00586H16.75Z" fill="#2F2B3D" fill-opacity="0.9"/>
</svg>
