<svg width="25" height="24" viewBox="0 0 25 24" fill="none" xmlns="http://www.w3.org/2000/svg">
<path d="M3.5 3L21.5 21" stroke="#E1DEF5" stroke-opacity="0.9" stroke-width="1.5" stroke-linecap="round" stroke-linejoin="round"/>
<path d="M18.25 17C18.25 16.5858 17.9142 16.25 17.5 16.25C17.0858 16.25 16.75 16.5858 16.75 17H18.25ZM17.5 20L17.1141 20.6431C17.3458 20.7821 17.6344 20.7858 17.8695 20.6526C18.1047 20.5195 18.25 20.2702 18.25 20H17.5ZM12.5 17L12.8859 16.3569C12.6484 16.2144 12.3516 16.2144 12.1141 16.3569L12.5 17ZM7.5 20H6.75C6.75 20.2702 6.89534 20.5195 7.13048 20.6526C7.36561 20.7858 7.65417 20.7821 7.88587 20.6431L7.5 20ZM8.25 6.99998C8.25 6.58577 7.91421 6.24998 7.5 6.24998C7.08579 6.24998 6.75 6.58577 6.75 6.99998H8.25ZM8.37111 3.49763C7.99315 3.66711 7.82415 4.1109 7.99363 4.48885C8.16311 4.86681 8.60689 5.03581 8.98485 4.86633L8.37111 3.49763ZM16.75 13.006C16.75 13.4202 17.0858 13.756 17.5 13.756C17.9142 13.756 18.25 13.4202 18.25 13.006H16.75ZM16.75 17V20H18.25V17H16.75ZM17.8859 19.3569L12.8859 16.3569L12.1141 17.6431L17.1141 20.6431L17.8859 19.3569ZM12.1141 16.3569L7.11413 19.3569L7.88587 20.6431L12.8859 17.6431L12.1141 16.3569ZM8.25 20V6.99998H6.75V20H8.25ZM8.98485 4.86633C9.14332 4.79527 9.31698 4.75598 9.49998 4.75598V3.25598C9.09897 3.25598 8.71663 3.3427 8.37111 3.49763L8.98485 4.86633ZM9.49998 4.75598H15.5V3.25598H9.49998V4.75598ZM15.5 4.75598C16.1903 4.75598 16.75 5.31563 16.75 6.00598H18.25C18.25 4.4872 17.0188 3.25598 15.5 3.25598V4.75598ZM16.75 6.00598V13.006H18.25V6.00598H16.75Z" fill="#E1DEF5" fill-opacity="0.9"/>
</svg>
