<svg width="25" height="24" viewBox="0 0 25 24" fill="none" xmlns="http://www.w3.org/2000/svg">
<path fill-rule="evenodd" clip-rule="evenodd" d="M10.5 5H14.5V3C14.5 2.44772 14.0523 2 13.5 2H11.5C10.9477 2 10.5 2.44772 10.5 3V5Z" stroke="#E1DEF5" stroke-opacity="0.7" stroke-width="1.5" stroke-linecap="round" stroke-linejoin="round"/>
<path d="M14.5 3.5C14.5 5.126 15.007 6.712 15.95 8.037L16 8.107C16.9758 9.4777 17.5001 11.1184 17.5 12.801V19C17.5 20.1046 16.6046 21 15.5 21H9.5C8.39543 21 7.5 20.1046 7.5 19V12.8C7.5 11.118 8.024 9.478 9 8.107L9.05 8.037C9.99317 6.71215 10.5 5.12629 10.5 3.5" stroke="#E1DEF5" stroke-opacity="0.7" stroke-width="1.5" stroke-linecap="round" stroke-linejoin="round"/>
<path d="M7.50305 14.803C7.90196 14.6306 8.24655 14.353 8.50005 14C8.96123 13.3575 9.70934 12.9835 10.5001 13C11.2908 12.9835 12.0389 13.3575 12.5001 14C12.9612 14.6425 13.7093 15.0166 14.5001 15C15.2908 15.0166 16.0389 14.6425 16.5001 14C16.7541 13.6459 17.0998 13.3676 17.5001 13.195" stroke="#E1DEF5" stroke-opacity="0.7" stroke-width="1.5" stroke-linecap="round" stroke-linejoin="round"/>
</svg>
