<svg width="25" height="24" viewBox="0 0 25 24" fill="none" xmlns="http://www.w3.org/2000/svg">
<rect x="7.5" y="3" width="14" height="14" rx="2" stroke="#E1DEF5" stroke-opacity="0.4" stroke-width="1.5" stroke-linecap="round" stroke-linejoin="round"/>
<path d="M17.5 17V19C17.5 20.1046 16.6046 21 15.5 21H5.5C4.39543 21 3.5 20.1046 3.5 19V9C3.5 7.89543 4.39543 7 5.5 7H7.5" stroke="#E1DEF5" stroke-opacity="0.4" stroke-width="1.5" stroke-linecap="round" stroke-linejoin="round"/>
<path d="M14.5 10C15.6046 10 16.5 9.10457 16.5 8C16.5 6.89543 15.6046 6 14.5 6C13.3954 6 12.5 6.89543 12.5 8" stroke="#E1DEF5" stroke-opacity="0.4" stroke-width="1.5" stroke-linecap="round" stroke-linejoin="round"/>
<path d="M12.5 12C12.5 13.1046 13.3954 14 14.5 14C15.6046 14 16.5 13.1046 16.5 12C16.5 10.8954 15.6046 10 14.5 10" stroke="#E1DEF5" stroke-opacity="0.4" stroke-width="1.5" stroke-linecap="round" stroke-linejoin="round"/>
</svg>
