<svg width="25" height="24" viewBox="0 0 25 24" fill="none" xmlns="http://www.w3.org/2000/svg">
<path fill-rule="evenodd" clip-rule="evenodd" d="M18.302 17.2918C18.302 17.2918 18.379 17.2368 18.502 17.1428C20.345 15.7178 21.5 13.6528 21.5 11.3538C21.5 7.06784 17.47 3.58984 12.502 3.58984C7.532 3.58984 3.5 7.06784 3.5 11.3538C3.5 15.6418 7.53 18.9998 12.5 18.9998C12.924 18.9998 13.62 18.9718 14.588 18.9158C15.85 19.7358 17.692 20.4088 19.304 20.4088C19.803 20.4088 20.038 19.9988 19.718 19.5808C19.232 18.9848 18.562 18.0298 18.302 17.2908V17.2918Z" stroke="#2F2B3D" stroke-opacity="0.9" stroke-width="1.5" stroke-linecap="round" stroke-linejoin="round"/>
<path d="M8 13.5C10.5 16 14.5 16 17 13.5" stroke="#2F2B3D" stroke-opacity="0.9" stroke-width="1.5" stroke-linecap="round" stroke-linejoin="round"/>
</svg>
