<svg width="25" height="24" viewBox="0 0 25 24" fill="none" xmlns="http://www.w3.org/2000/svg">
<path d="M21.478 11.372C21.1716 6.99826 17.7581 3.48175 13.3954 3.04555C9.03268 2.60935 4.99049 5.38041 3.82423 9.60691C2.65797 13.8334 4.70706 18.2853 8.67609 20.1482C12.6451 22.011 17.379 20.7427 19.885 17.145" stroke="#E1DEF5" stroke-opacity="0.4" stroke-width="1.5" stroke-linecap="round" stroke-linejoin="round"/>
<path d="M21.4781 11.372C21.6881 14.365 16.4441 13.785 14.5651 12.858C15.9571 11.258 14.9671 8.81998 12.2911 9.00698C10.5461 9.12898 9.36406 10.164 9.50706 12.209C9.78706 16.199 13.9511 18.414 19.8671 16.999" stroke="#E1DEF5" stroke-opacity="0.4" stroke-width="1.5" stroke-linecap="round" stroke-linejoin="round"/>
<path d="M3.52203 12.628C3.23903 8.58499 12.239 5.39999 14.77 9.93999" stroke="#E1DEF5" stroke-opacity="0.4" stroke-width="1.5" stroke-linecap="round" stroke-linejoin="round"/>
<path d="M13.128 20.978C10.135 21.188 7.96604 16.253 9.56104 11.23" stroke="#E1DEF5" stroke-opacity="0.4" stroke-width="1.5" stroke-linecap="round" stroke-linejoin="round"/>
</svg>
