<svg width="25" height="24" viewBox="0 0 25 24" fill="none" xmlns="http://www.w3.org/2000/svg">
<circle cx="15.5" cy="12" r="3" stroke="#6D6B77" stroke-width="1.5" stroke-linecap="round" stroke-linejoin="round"/>
<rect x="6.5" y="3" width="12" height="6" rx="3" stroke="#6D6B77" stroke-width="1.5" stroke-linecap="round" stroke-linejoin="round"/>
<path d="M9.5 9.75C9.91421 9.75 10.25 9.41421 10.25 9C10.25 8.58579 9.91421 8.25 9.5 8.25V9.75ZM12.5 15.75C12.9142 15.75 13.25 15.4142 13.25 15C13.25 14.5858 12.9142 14.25 12.5 14.25V15.75ZM9.5 15.75C9.91421 15.75 10.25 15.4142 10.25 15C10.25 14.5858 9.91421 14.25 9.5 14.25V15.75ZM13.25 3C13.25 2.58579 12.9142 2.25 12.5 2.25C12.0858 2.25 11.75 2.58579 11.75 3H13.25ZM9.5 8.25C7.42893 8.25 5.75 9.92893 5.75 12H7.25C7.25 10.7574 8.25736 9.75 9.5 9.75V8.25ZM5.75 12C5.75 14.0711 7.42893 15.75 9.5 15.75V14.25C8.25736 14.25 7.25 13.2426 7.25 12H5.75ZM9.5 15.75H12.5V14.25H9.5V15.75ZM9.5 14.25C7.42893 14.25 5.75 15.9289 5.75 18H7.25C7.25 16.7574 8.25736 15.75 9.5 15.75V14.25ZM5.75 18C5.75 20.0711 7.42893 21.75 9.5 21.75V20.25C8.25736 20.25 7.25 19.2426 7.25 18H5.75ZM9.5 21.75C11.5711 21.75 13.25 20.0711 13.25 18H11.75C11.75 19.2426 10.7426 20.25 9.5 20.25V21.75ZM13.25 18V3H11.75V18H13.25Z" fill="#6D6B77"/>
</svg>
