<svg width="25" height="24" viewBox="0 0 25 24" fill="none" xmlns="http://www.w3.org/2000/svg">
<path d="M3.5 21.0002L5.15 17.2002C2.53818 13.4926 3.09303 8.42091 6.44471 5.36574C9.79638 2.31056 14.8977 2.2265 18.3482 5.16959C21.7987 8.11267 22.5203 13.1634 20.0321 16.955C17.5439 20.7466 12.6232 22.0945 8.55 20.1002L3.5 21.0002" stroke="#2F2B3D" stroke-opacity="0.9" stroke-width="1.5" stroke-linecap="round" stroke-linejoin="round"/>
<path d="M9.5 10C9.5 10.2761 9.72386 10.5 10 10.5C10.2761 10.5 10.5 10.2761 10.5 10V9C10.5 8.72386 10.2761 8.5 10 8.5C9.72386 8.5 9.5 8.72386 9.5 9V10C9.5 12.7614 11.7386 15 14.5 15H15.5C15.7761 15 16 14.7761 16 14.5C16 14.2239 15.7761 14 15.5 14H14.5C14.2239 14 14 14.2239 14 14.5C14 14.7761 14.2239 15 14.5 15" stroke="#2F2B3D" stroke-opacity="0.9" stroke-width="1.5" stroke-linecap="round" stroke-linejoin="round"/>
</svg>
