<svg width="24" height="24" viewBox="0 0 24 24" fill="none" xmlns="http://www.w3.org/2000/svg">
<g clip-path="url(#clip0_1_11487)">
<path d="M5.31505 2.09988C6.10605 1.98688 7.21505 2.24488 8.64805 3.06588L8.92005 3.22688L9.08005 3.32688L9.47705 3.24388C10.9908 2.95137 12.544 2.9243 14.0671 3.16388L14.5231 3.24388L14.9191 3.32688L15.0801 3.22688C16.4651 2.38688 17.5671 2.05688 18.4021 2.07888L18.5661 2.08688L18.7131 2.10388L18.7891 2.11788L18.8391 2.12888L18.9831 2.17588C19.2188 2.27334 19.4084 2.45721 19.5131 2.68988C19.9223 3.60158 20.0601 4.61188 19.9101 5.59988L19.8631 5.86688L19.8171 6.06288L19.9401 6.22588C20.5141 7.02088 20.8701 7.95388 20.9701 8.93288L20.9931 9.22788L21.0001 9.49988C21.0001 13.3549 19.3411 15.3829 16.3561 16.1799L16.1111 16.2409L15.9791 16.2699L15.9931 16.4309L16.001 16.5879L16.005 16.9529L16.0031 17.1659L16.0001 20.9999C16 21.2448 15.9101 21.4812 15.7473 21.6643C15.5846 21.8473 15.3603 21.9642 15.1171 21.9929L15.0001 21.9999H9.00005C8.75512 21.9998 8.51871 21.9099 8.33568 21.7472C8.15264 21.5844 8.03571 21.3601 8.00705 21.1169L8.00005 20.9999V20.2659C6.18205 20.5259 4.97005 19.8419 3.89005 18.3879L3.35505 17.6219C3.07505 17.2259 2.90005 17.0429 2.76605 16.9779L2.71805 16.9589C2.47046 16.8784 2.26401 16.7046 2.14257 16.4743C2.02113 16.244 1.99428 15.9755 2.06772 15.7257C2.14116 15.476 2.30911 15.2647 2.53587 15.1368C2.76263 15.0089 3.03032 14.9745 3.28205 15.0409C3.92405 15.2289 4.35605 15.6089 4.85205 16.2799L5.39005 17.0489C6.15005 18.1279 6.75005 18.5079 7.99905 18.2399L8.00005 17.5619L7.98205 17.3939C7.95252 17.1202 7.9455 16.8447 7.96105 16.5699L7.97805 16.3849L7.99705 16.2649L7.88905 16.2409C4.91305 15.5309 3.18605 13.6679 3.01405 10.1019L3.00405 9.79188L3.00005 9.49988C3.00121 8.41646 3.31662 7.35663 3.90805 6.44888L4.06005 6.22688L4.18205 6.06388L4.13705 5.86788C3.95677 4.98944 4.00672 4.07931 4.28205 3.22588L4.38205 2.94388L4.48805 2.69088C4.59245 2.4584 4.78166 2.27455 5.01705 2.17688L5.16105 2.12988L5.31505 2.09988Z" fill="#2F2B3D" fill-opacity="0.9"/>
</g>
<defs>
<clipPath id="clip0_1_11487">
<rect width="24" height="24" fill="white"/>
</clipPath>
</defs>
</svg>
