<svg width="25" height="24" viewBox="0 0 25 24" fill="none" xmlns="http://www.w3.org/2000/svg">
<path d="M9.73219 19.7131C10.1261 19.5849 10.3414 19.1616 10.2132 18.7678C10.0849 18.3739 9.66167 18.1586 9.26781 18.2868L9.73219 19.7131ZM3.71162 15.2804C3.31424 15.1635 2.89735 15.3909 2.78048 15.7883C2.6636 16.1857 2.89099 16.6026 3.28838 16.7195L3.71162 15.2804ZM14.75 21C14.75 21.4142 15.0858 21.75 15.5 21.75C15.9142 21.75 16.25 21.4142 16.25 21H14.75ZM15 15.5L14.9201 14.7542C14.6329 14.785 14.3889 14.9779 14.2928 15.2503C14.1966 15.5227 14.2654 15.826 14.4697 16.0303L15 15.5ZM20.5 9.49995H21.25V9.49919L20.5 9.49995ZM19.2 6.29995L18.498 6.03589C18.3958 6.30771 18.4596 6.61412 18.662 6.82245L19.2 6.29995ZM19.1 3.09995L19.7841 2.79258C19.6922 2.58806 19.5137 2.43537 19.2973 2.37638L19.1 3.09995ZM15.6 4.39995L15.411 5.12574C15.6179 5.17964 15.8381 5.14262 16.016 5.02399L15.6 4.39995ZM9.4 4.39995L8.98397 5.02399C9.16193 5.14262 9.38206 5.17964 9.58902 5.12574L9.4 4.39995ZM5.9 3.09995L5.70266 2.37638C5.48635 2.43537 5.30777 2.58806 5.21588 2.79258L5.9 3.09995ZM5.8 6.29995L6.33804 6.82245C6.54036 6.61412 6.60422 6.30771 6.50198 6.03589L5.8 6.29995ZM4.5 9.49995L3.75 9.49919V9.49995H4.5ZM10 15.5L10.5303 16.0303C10.7346 15.826 10.8034 15.5227 10.7072 15.2503C10.6111 14.9779 10.3671 14.785 10.0799 14.7542L10 15.5ZM9.5 17.5H10.25C10.25 17.4689 10.2481 17.4378 10.2442 17.4069L9.5 17.5ZM8.75 21C8.75 21.4142 9.08579 21.75 9.5 21.75C9.91421 21.75 10.25 21.4142 10.25 21H8.75ZM9.26781 18.2868C8.28835 18.6057 7.63859 18.5955 7.18952 18.4699C6.74534 18.3456 6.40666 18.0834 6.09095 17.7203C5.7345 17.3104 5.52471 16.9331 5.15299 16.4305C4.83436 15.9997 4.38999 15.4799 3.71162 15.2804L3.28838 16.7195C3.46001 16.77 3.65314 16.9252 3.94701 17.3225C4.18779 17.648 4.5655 18.252 4.95905 18.7046C5.39334 19.204 5.96716 19.6855 6.78548 19.9144C7.59891 20.1419 8.56165 20.0942 9.73219 19.7131L9.26781 18.2868ZM16.25 21V17.5H14.75V21H16.25ZM16.25 17.5C16.25 17.0827 16.2784 16.6083 16.2148 16.2267C16.1351 15.7485 15.9223 15.3616 15.5303 14.9696L14.4697 16.0303C14.6777 16.2383 14.7149 16.3514 14.7352 16.4732C14.7716 16.6916 14.75 16.9172 14.75 17.5H16.25ZM15.0799 16.2457C16.5298 16.0903 18.0915 15.718 19.2909 14.6794C20.5225 13.6131 21.25 11.955 21.25 9.49995H19.75C19.75 11.6449 19.1275 12.8368 18.3091 13.5455C17.4585 14.2819 16.2702 14.6096 14.9201 14.7542L15.0799 16.2457ZM21.25 9.49919C21.2486 8.10931 20.7063 6.77453 19.738 5.77745L18.662 6.82245C19.3588 7.53998 19.749 8.50052 19.75 9.50071L21.25 9.49919ZM19.902 6.56401C20.3622 5.34061 20.3198 3.98485 19.7841 2.79258L18.4159 3.40732C18.7892 4.2383 18.8188 5.18322 18.498 6.03589L19.902 6.56401ZM19.1 3.09995C19.2973 2.37638 19.2967 2.37619 19.296 2.37601C19.2957 2.37594 19.2951 2.37576 19.2946 2.37563C19.2937 2.37538 19.2927 2.37513 19.2917 2.37487C19.2898 2.37436 19.2878 2.37383 19.2857 2.3733C19.2815 2.37223 19.2771 2.37112 19.2723 2.36998C19.2629 2.3677 19.2523 2.3653 19.2405 2.36284C19.217 2.35793 19.189 2.35282 19.1564 2.34806C19.0913 2.33854 19.0083 2.33051 18.9073 2.32826C18.7049 2.32376 18.4333 2.34258 18.0907 2.41707C17.406 2.56592 16.4449 2.93527 15.184 3.77591L16.016 5.02399C17.1551 4.26463 17.944 3.98398 18.4093 3.88283C18.6417 3.83232 18.7951 3.82614 18.874 3.82789C18.9136 3.82877 18.9353 3.83168 18.9396 3.83231C18.9419 3.83263 18.9398 3.8324 18.9336 3.8311C18.9305 3.83046 18.9264 3.82954 18.9212 3.8283C18.9186 3.82768 18.9158 3.82697 18.9127 3.82618C18.9111 3.82578 18.9095 3.82536 18.9079 3.82492C18.907 3.8247 18.9062 3.82447 18.9053 3.82424C18.9049 3.82412 18.9042 3.82395 18.904 3.82389C18.9033 3.82371 18.9027 3.82352 19.1 3.09995ZM15.789 3.67416C13.6323 3.11247 11.3677 3.11247 9.21098 3.67416L9.58902 5.12574C11.4978 4.62861 13.5022 4.62861 15.411 5.12574L15.789 3.67416ZM9.81603 3.77591C8.55506 2.93527 7.59403 2.56592 6.90932 2.41707C6.56668 2.34258 6.29511 2.32376 6.09271 2.32826C5.99172 2.33051 5.90874 2.33854 5.84355 2.34806C5.81099 2.35282 5.78298 2.35793 5.75948 2.36284C5.74773 2.3653 5.73712 2.3677 5.72765 2.36998C5.72292 2.37112 5.71847 2.37223 5.7143 2.3733C5.71222 2.37383 5.71021 2.37436 5.70827 2.37487C5.7073 2.37513 5.70635 2.37538 5.70541 2.37563C5.70494 2.37576 5.70426 2.37594 5.70402 2.37601C5.70334 2.37619 5.70266 2.37638 5.9 3.09995C6.09734 3.82352 6.09667 3.82371 6.096 3.82389C6.09579 3.82395 6.09512 3.82412 6.09469 3.82424C6.09382 3.82447 6.09297 3.8247 6.09214 3.82492C6.09046 3.82536 6.08886 3.82578 6.08731 3.82618C6.08422 3.82697 6.08139 3.82768 6.07881 3.8283C6.07364 3.82954 6.06951 3.83046 6.0664 3.8311C6.06019 3.8324 6.05815 3.83263 6.06035 3.83231C6.0647 3.83168 6.08641 3.82877 6.12604 3.82789C6.20489 3.82614 6.35832 3.83232 6.59068 3.88283C7.05597 3.98398 7.84494 4.26463 8.98397 5.02399L9.81603 3.77591ZM5.21588 2.79258C4.6802 3.98485 4.63783 5.34061 5.09802 6.56401L6.50198 6.03589C6.18124 5.18322 6.21077 4.2383 6.58412 3.40732L5.21588 2.79258ZM5.26196 5.77745C4.29367 6.77453 3.75142 8.10931 3.75 9.49919L5.25 9.50071C5.25102 8.50052 5.64124 7.53998 6.33804 6.82245L5.26196 5.77745ZM3.75 9.49995C3.75 11.955 4.47747 13.6131 5.70907 14.6794C6.9085 15.718 8.47021 16.0903 9.9201 16.2457L10.0799 14.7542C8.72979 14.6096 7.5415 14.2819 6.69093 13.5455C5.87253 12.8368 5.25 11.6449 5.25 9.49995H3.75ZM9.46967 14.9696C9.06968 15.3696 8.84339 15.8029 8.751 16.2833C8.66443 16.7334 8.70483 17.1853 8.75579 17.593L10.2442 17.4069C10.1952 17.0146 10.1856 16.7665 10.224 16.5666C10.2566 16.397 10.3303 16.2303 10.5303 16.0303L9.46967 14.9696ZM8.75 17.5V21H10.25V17.5H8.75Z" fill="#2F2B3D" fill-opacity="0.9"/>
</svg>
