<svg width="25" height="24" viewBox="0 0 25 24" fill="none" xmlns="http://www.w3.org/2000/svg">
<path fill-rule="evenodd" clip-rule="evenodd" d="M19.5 6.8731C20.1235 7.23303 20.5054 7.90024 20.5 8.6201V15.1561C20.4998 15.8824 20.1059 16.5515 19.471 16.9041L13.471 20.7371C12.8671 21.0725 12.1329 21.0725 11.529 20.7371L5.529 16.9041C4.89437 16.5517 4.50053 15.883 4.5 15.1571V8.6201C4.50017 7.89382 4.89406 7.22471 5.529 6.8721L11.529 3.3001C12.1507 2.954 12.9073 2.954 13.529 3.3001L19.529 6.8731H19.5V6.8731Z" stroke="#2F2B3D" stroke-opacity="0.9" stroke-width="1.5" stroke-linecap="round" stroke-linejoin="round"/>
<path fill-rule="evenodd" clip-rule="evenodd" d="M16 9.42991C16.3119 9.60996 16.5029 9.9438 16.5 10.3039V13.5719C16.4998 13.9352 16.3027 14.2697 15.985 14.4459L12.985 16.3629C12.6833 16.5302 12.3167 16.5302 12.015 16.3629L9.015 14.4459C8.69765 14.2699 8.50055 13.9358 8.5 13.5729V10.3039C8.49999 9.94087 8.69672 9.60635 9.014 9.42991L12.014 7.64391C12.325 7.47091 12.704 7.47091 13.014 7.64391L16.014 9.43091H16V9.42991Z" stroke="#2F2B3D" stroke-opacity="0.9" stroke-width="1.5" stroke-linecap="round" stroke-linejoin="round"/>
<path d="M12.5 21V12L5 7.5" stroke="#2F2B3D" stroke-opacity="0.9" stroke-width="1.5" stroke-linecap="round" stroke-linejoin="round"/>
<path d="M12.5 12L20 7.5" stroke="#2F2B3D" stroke-opacity="0.9" stroke-width="1.5" stroke-linecap="round" stroke-linejoin="round"/>
<path d="M12.5 3V7.5" stroke="#2F2B3D" stroke-opacity="0.9" stroke-width="1.5" stroke-linecap="round" stroke-linejoin="round"/>
<path d="M20 16L16.5 14" stroke="#2F2B3D" stroke-opacity="0.9" stroke-width="1.5" stroke-linecap="round" stroke-linejoin="round"/>
<path d="M8.5 14L5 16" stroke="#2F2B3D" stroke-opacity="0.9" stroke-width="1.5" stroke-linecap="round" stroke-linejoin="round"/>
</svg>
