<svg width="25" height="24" viewBox="0 0 25 24" fill="none" xmlns="http://www.w3.org/2000/svg">
<path fill-rule="evenodd" clip-rule="evenodd" d="M17 5C18.6849 5.00162 20.2278 5.9444 20.998 7.44302C21.7682 8.94163 21.6367 10.745 20.6572 12.116C19.6777 13.487 18.0144 14.1959 16.347 13.953L12 16.962V17C12.0001 18.5886 10.7618 19.9018 9.176 19.995L9 20C7.57358 20.0001 6.34433 18.9958 6.06 17.598L3.5 16.5V13L7.01 14.755C7.78144 14.0678 8.85307 13.8277 9.844 14.12L12.571 10.302C12.3333 8.98935 12.6902 7.63887 13.5454 6.61507C14.4006 5.59127 15.666 4.99969 17 5Z" stroke="#ACAAB1" stroke-width="1.5" stroke-linecap="round" stroke-linejoin="round"/>
<circle cx="17" cy="9.5" r="1" fill="#ACAAB1" stroke="#ACAAB1" stroke-width="1.5" stroke-linecap="round" stroke-linejoin="round"/>
</svg>
