<svg width="25" height="24" viewBox="0 0 25 24" fill="none" xmlns="http://www.w3.org/2000/svg">
<path fill-rule="evenodd" clip-rule="evenodd" d="M12.5 8C15.148 8 17.528 8.826 19.175 10.14C20.3392 9.73191 21.627 10.2341 22.2077 11.3225C22.7884 12.411 22.4883 13.7603 21.501 14.5C21.501 18.09 17.471 21 12.501 21C7.62595 21 3.65595 18.2 3.50095 14.706L2.50095 14.5C1.51365 13.7603 1.21354 12.411 1.79421 11.3225C2.37489 10.2341 3.66274 9.73191 4.82695 10.14C6.47295 8.827 8.85295 8 11.501 8H12.5Z" stroke="#ACAAB1" stroke-width="1.5" stroke-linecap="round" stroke-linejoin="round"/>
<path d="M12.5 8L13.5 3L19.5 4" stroke="#ACAAB1" stroke-width="1.5" stroke-linecap="round" stroke-linejoin="round"/>
<circle cx="19.5" cy="4" r="1" stroke="#ACAAB1" stroke-width="1.5" stroke-linecap="round" stroke-linejoin="round"/>
<circle cx="9.5" cy="13" r="0.5" fill="#ACAAB1" stroke="#ACAAB1" stroke-width="1.5" stroke-linecap="round" stroke-linejoin="round"/>
<circle cx="15.5" cy="13" r="0.5" fill="#ACAAB1" stroke="#ACAAB1" stroke-width="1.5" stroke-linecap="round" stroke-linejoin="round"/>
<path d="M10.5 17C11.167 17.333 11.833 17.5 12.5 17.5C13.167 17.5 13.833 17.333 14.5 17" stroke="#ACAAB1" stroke-width="1.5" stroke-linecap="round" stroke-linejoin="round"/>
</svg>
