<svg width="24" height="24" viewBox="0 0 24 24" fill="none" xmlns="http://www.w3.org/2000/svg">
<g clip-path="url(#clip0_4_11698)">
<path d="M5.315 2.1C6.106 1.987 7.215 2.245 8.648 3.066L8.92 3.227L9.08 3.327L9.47701 3.244C10.9908 2.95149 12.5439 2.92442 14.067 3.164L14.523 3.244L14.919 3.327L15.08 3.227C16.465 2.387 17.567 2.057 18.402 2.079L18.566 2.087L18.713 2.104L18.789 2.118L18.839 2.129L18.983 2.176C19.2188 2.27346 19.4084 2.45734 19.513 2.69C19.9222 3.6017 20.06 4.61201 19.91 5.6L19.863 5.867L19.817 6.063L19.94 6.226C20.514 7.021 20.87 7.954 20.97 8.933L20.993 9.228L21 9.5C21 13.355 19.341 15.383 16.356 16.18L16.111 16.241L15.979 16.27L15.993 16.431L16.001 16.588L16.005 16.953L16.003 17.166L16 21C16 21.2449 15.91 21.4813 15.7473 21.6644C15.5845 21.8474 15.3603 21.9643 15.117 21.993L15 22H9C8.75507 22 8.51867 21.91 8.33563 21.7473C8.1526 21.5845 8.03566 21.3603 8.007 21.117L8 21V20.266C6.182 20.526 4.97001 19.842 3.89 18.388L3.355 17.622C3.075 17.226 2.9 17.043 2.766 16.978L2.718 16.959C2.47042 16.8785 2.26396 16.7047 2.14252 16.4744C2.02108 16.2442 1.99423 15.9756 2.06767 15.7258C2.14112 15.4761 2.30907 15.2648 2.53582 15.1369C2.76258 15.009 3.03027 14.9746 3.282 15.041C3.924 15.229 4.356 15.609 4.85201 16.28L5.39 17.049C6.15 18.128 6.75 18.508 7.999 18.24L8 17.562L7.982 17.394C7.95247 17.1204 7.94545 16.8448 7.961 16.57L7.978 16.385L7.997 16.265L7.889 16.241C4.913 15.531 3.186 13.668 3.014 10.102L3.004 9.792L3 9.5C3.00116 8.41658 3.31657 7.35675 3.908 6.449L4.06 6.227L4.182 6.064L4.137 5.868C3.95672 4.98956 4.00667 4.07943 4.282 3.226L4.382 2.944L4.488 2.691C4.5924 2.45852 4.78162 2.27467 5.017 2.177L5.161 2.13L5.315 2.1Z" fill="#E1DEF5" fill-opacity="0.9"/>
</g>
<defs>
<clipPath id="clip0_4_11698">
<rect width="24" height="24" fill="white"/>
</clipPath>
</defs>
</svg>
