<svg width="28" height="28" viewBox="0 0 28 28" fill="none" xmlns="http://www.w3.org/2000/svg">
<g id="brand-angular">
<path id="Path" fill-rule="evenodd" clip-rule="evenodd" d="M6.33268 20.1192L13.4214 24.1687C13.7799 24.3735 14.2201 24.3735 14.5787 24.1687L21.6674 20.1192C21.9826 19.9391 22.1961 19.6226 22.2449 19.2628L23.7884 7.94151C23.8631 7.39329 23.5424 6.868 23.0207 6.68384L14.3874 3.63651C14.1363 3.548 13.8626 3.548 13.6115 3.63651L4.97935 6.68501C4.45762 6.86917 4.13698 7.39446 4.21168 7.94268L5.75518 19.264C5.80396 19.6238 6.01743 19.9403 6.33268 20.1203V20.1192Z" stroke="#FF4C51" stroke-width="1.5" stroke-linecap="round" stroke-linejoin="round"/>
<path id="Path_2" d="M10.5 17.5L14 8.16669L17.5 17.5" stroke="#FF4C51" stroke-width="1.5" stroke-linecap="round" stroke-linejoin="round"/>
<path id="Path_3" d="M11.6667 15.1666H16.3334" stroke="#FF4C51" stroke-width="1.5" stroke-linecap="round" stroke-linejoin="round"/>
</g>
</svg>
