<svg width="25" height="24" viewBox="0 0 25 24" fill="none" xmlns="http://www.w3.org/2000/svg">
<path d="M6.857 9C4.22 9.68 2.5 10.845 2.5 12.175C2.5 14.282 6.905 16 12.35 16C13.09 16 13.61 15.961 14.3 15.903" stroke="#E1DEF5" stroke-opacity="0.7" stroke-width="1.5" stroke-linecap="round" stroke-linejoin="round"/>
<path d="M10.3371 15.9C9.92411 15.304 9.53111 14.767 9.15711 14.1C6.40611 9.19998 5.66911 4.32998 7.52711 3.22698C8.67711 2.52998 10.5741 3.47998 12.5011 5.48098" stroke="#E1DEF5" stroke-opacity="0.7" stroke-width="1.5" stroke-linecap="round" stroke-linejoin="round"/>
<path d="M6.92897 15.387C6.22697 18.075 6.36897 20.103 7.48897 20.782C9.27197 21.862 12.876 18.824 15.532 13.978C15.892 13.308 16.215 12.649 16.5 12" stroke="#E1DEF5" stroke-opacity="0.7" stroke-width="1.5" stroke-linecap="round" stroke-linejoin="round"/>
<path d="M12.5 18.52C14.428 20.52 16.317 21.47 17.478 20.773C19.328 19.671 18.599 14.801 15.845 9.89998C15.461 9.22298 15.068 8.69598 14.665 8.09998" stroke="#E1DEF5" stroke-opacity="0.7" stroke-width="1.5" stroke-linecap="round" stroke-linejoin="round"/>
<path d="M18.16 15C20.772 14.313 22.5 13.15 22.5 11.824C22.5 9.714 18.092 8 12.655 8C11.908 8 11.389 8.029 10.7 8.087" stroke="#E1DEF5" stroke-opacity="0.7" stroke-width="1.5" stroke-linecap="round" stroke-linejoin="round"/>
<path d="M8.5 12C8.785 11.34 9.107 10.692 9.468 10.022C12.115 5.178 15.721 2.132 17.514 3.221C18.624 3.9 18.776 5.927 18.074 8.614" stroke="#E1DEF5" stroke-opacity="0.7" stroke-width="1.5" stroke-linecap="round" stroke-linejoin="round"/>
<path d="M12.76 12.015H12.75C12.74 12.145 12.63 12.255 12.49 12.255C12.351 12.2481 12.2414 12.1341 12.24 11.995C12.24 11.855 12.35 11.745 12.48 11.745H12.47C12.6 11.735 12.72 11.855 12.72 11.985" stroke="#E1DEF5" stroke-opacity="0.7" stroke-width="1.5" stroke-linecap="round" stroke-linejoin="round"/>
</svg>
