<svg width="25" height="24" viewBox="0 0 25 24" fill="none" xmlns="http://www.w3.org/2000/svg">
<path d="M2.5 12C3.60457 12 4.5 11.1046 4.5 10V6C4.5 4.89543 5.39543 4 6.5 4H18.5C19.6046 4 20.5 4.89543 20.5 6V10C20.5 11.1046 21.3954 12 22.5 12" stroke="#ACAAB1" stroke-width="1.5" stroke-linecap="round" stroke-linejoin="round"/>
<path d="M2.5 12C3.60457 12 4.5 12.8954 4.5 14V18C4.5 19.1046 5.39543 20 6.5 20H18.5C19.6046 20 20.5 19.1046 20.5 18V14C20.5 12.8954 21.3954 12 22.5 12" stroke="#ACAAB1" stroke-width="1.5" stroke-linecap="round" stroke-linejoin="round"/>
<path fill-rule="evenodd" clip-rule="evenodd" d="M9.5 16V8H13C14.1046 8 15 8.89543 15 10C15 11.1046 14.1046 12 13 12H9.5H13.5C14.6046 12 15.5 12.8954 15.5 14C15.5 15.1046 14.6046 16 13.5 16H9.5Z" stroke="#ACAAB1" stroke-width="1.5" stroke-linecap="round" stroke-linejoin="round"/>
</svg>
