<svg width="23" height="23" viewBox="0 0 23 23" fill="none" xmlns="http://www.w3.org/2000/svg">
<g id="brand-paypal">
<path id="Shape" d="M5.83333 3.87507L6.5758 3.98114C6.58081 3.946 6.58333 3.91056 6.58333 3.87507H5.83333ZM4 16.7084L3.25754 16.6023C3.25252 16.6375 3.25 16.6729 3.25 16.7084H4ZM7.48333 17.6251V18.3751C7.83012 18.3751 8.13169 18.1373 8.21262 17.8001L7.48333 17.6251ZM8.58333 13.0417L9.31262 13.2168C9.31673 13.1997 9.32023 13.1824 9.32313 13.165L8.58333 13.0417ZM16.7552 6.16195C16.3982 5.95194 15.9385 6.07111 15.7285 6.42814C15.5185 6.78516 15.6377 7.24484 15.9947 7.45485L16.7552 6.16195ZM11.7 15.3334V14.5834C11.3333 14.5834 11.0205 14.8485 10.9602 15.2101L11.7 15.3334ZM11.15 18.6334L11.8849 18.7832C11.8867 18.7744 11.8883 18.7656 11.8898 18.7567L11.15 18.6334ZM10.2333 19.3667L10.2484 18.6169C10.2434 18.6168 10.2383 18.6167 10.2333 18.6167V19.3667ZM7.75831 19.3667V18.6167C7.75325 18.6167 7.74818 18.6168 7.74312 18.6169L7.75831 19.3667ZM7.29997 18.8167L8.03479 18.9669C8.03778 18.9523 8.04033 18.9376 8.04244 18.9228L7.29997 18.8167ZM8.22577 17.6395C8.28435 17.2294 7.99942 16.8495 7.58937 16.7909C7.17932 16.7324 6.79942 17.0173 6.74084 17.4273L8.22577 17.6395ZM9.5 12.8751H11.7917V11.3751H9.5V12.8751ZM11.7917 12.8751C13.1814 12.8751 14.5084 12.1877 15.473 11.2231C16.4377 10.2585 17.125 8.93149 17.125 7.54174H15.625C15.625 8.44365 15.1665 9.40833 14.4124 10.1624C13.6583 10.9166 12.6936 11.3751 11.7917 11.3751V12.8751ZM17.125 7.54174C17.125 6.00696 16.6362 4.65921 15.6831 3.69232C14.7283 2.72372 13.3776 2.2084 11.7917 2.2084V3.7084C13.0474 3.7084 13.9883 4.10976 14.6148 4.74532C15.243 5.3826 15.625 6.32652 15.625 7.54174H17.125ZM11.7917 2.2084H6.75V3.7084H11.7917V2.2084ZM6.75 2.2084C6.27691 2.2084 5.8666 2.4374 5.58946 2.71453C5.31233 2.99167 5.08333 3.40198 5.08333 3.87507H6.58333C6.58333 3.88533 6.58105 3.87858 6.59175 3.85565C6.60247 3.83268 6.62177 3.80354 6.65012 3.77519C6.67847 3.74684 6.70761 3.72754 6.73058 3.71682C6.75351 3.70612 6.76026 3.7084 6.75 3.7084V2.2084ZM5.09087 3.76901L3.25754 16.6023L4.74246 16.8145L6.5758 3.98114L5.09087 3.76901ZM3.25 16.7084C3.25 17.1815 3.47899 17.5918 3.75613 17.8689C4.03326 18.1461 4.44358 18.3751 4.91667 18.3751V16.8751C4.92693 16.8751 4.92017 16.8774 4.89724 16.8667C4.87427 16.8559 4.84514 16.8366 4.81679 16.8083C4.78844 16.7799 4.76913 16.7508 4.75841 16.7278C4.74771 16.7049 4.75 16.6981 4.75 16.7084H3.25ZM4.91667 18.3751H7.48333V16.8751H4.91667V18.3751ZM8.21262 17.8001L9.31262 13.2168L7.85404 12.8667L6.75404 17.45L8.21262 17.8001ZM9.32313 13.165C9.35543 12.9712 9.40671 12.9011 9.41939 12.8875C9.42264 12.884 9.42208 12.8849 9.42271 12.8847C9.42495 12.8837 9.44658 12.8751 9.5 12.8751V11.3751C9.04024 11.3751 8.62648 11.537 8.3202 11.8668C8.03496 12.174 7.9029 12.5622 7.84354 12.9184L9.32313 13.165ZM15.9947 7.45485C17.2712 8.20573 17.9166 9.57335 17.9166 11.2084H19.4166C19.4166 9.17679 18.5954 7.2444 16.7552 6.16195L15.9947 7.45485ZM17.9166 11.2084C17.9166 12.0936 17.4738 12.9303 16.7432 13.5635C16.0104 14.1986 15.0362 14.5834 14.0833 14.5834V16.0834C15.4221 16.0834 16.7396 15.5516 17.7255 14.697C18.7136 13.8407 19.4166 12.6149 19.4166 11.2084H17.9166ZM14.0833 14.5834H11.7V16.0834H14.0833V14.5834ZM10.9602 15.2101L10.4102 18.5101L11.8898 18.7567L12.4398 15.4567L10.9602 15.2101ZM10.4151 18.4836C10.399 18.5624 10.3289 18.6185 10.2484 18.6169L10.2182 20.1166C11.0228 20.1328 11.7241 19.5718 11.8849 18.7832L10.4151 18.4836ZM10.2333 18.6167H7.75831V20.1167H10.2333V18.6167ZM7.74312 18.6169C7.83173 18.6151 7.91635 18.6537 7.97309 18.7218L6.82076 19.6821C7.05582 19.9641 7.40639 20.124 7.77349 20.1166L7.74312 18.6169ZM7.97309 18.7218C8.02983 18.7899 8.05253 18.8801 8.03479 18.9669L6.56516 18.6666C6.49165 19.0263 6.5857 19.4 6.82076 19.6821L7.97309 18.7218ZM8.04244 18.9228L8.22577 17.6395L6.74084 17.4273L6.55751 18.7107L8.04244 18.9228Z" fill="#7367F0"/>
</g>
</svg>
