<svg width="25" height="24" viewBox="0 0 25 24" fill="none" xmlns="http://www.w3.org/2000/svg">
<circle cx="12.5" cy="12" r="9" stroke="#ACAAB1" stroke-width="1.5" stroke-linecap="round" stroke-linejoin="round"/>
<path d="M7.84444 15.6357C7.64322 15.9977 7.7736 16.4543 8.13566 16.6556C8.49771 16.8568 8.95433 16.7264 9.15556 16.3643L7.84444 15.6357ZM10.2616 14.3743C10.4628 14.0123 10.3324 13.5557 9.97034 13.3544C9.60829 13.1532 9.15167 13.2836 8.95044 13.6457L10.2616 14.3743ZM10.3504 11.1237C10.1492 11.4858 10.2796 11.9424 10.6417 12.1436C11.0037 12.3448 11.4604 12.2144 11.6616 11.8523L10.3504 11.1237ZM14.1556 7.36431C14.3568 7.00224 14.2264 6.54562 13.8643 6.34442C13.5022 6.14322 13.0456 6.27363 12.8444 6.63569L14.1556 7.36431ZM9.15556 16.3643L10.2616 14.3743L8.95044 13.6457L7.84444 15.6357L9.15556 16.3643ZM11.6616 11.8523L14.1556 7.36431L12.8444 6.63569L10.3504 11.1237L11.6616 11.8523Z" fill="#ACAAB1"/>
<path d="M7.5 13.25C7.08579 13.25 6.75 13.5858 6.75 14C6.75 14.4142 7.08579 14.75 7.5 14.75V13.25ZM12.5 14.75C12.9142 14.75 13.25 14.4142 13.25 14C13.25 13.5858 12.9142 13.25 12.5 13.25V14.75ZM15.4 13.25C14.9858 13.25 14.65 13.5858 14.65 14C14.65 14.4142 14.9858 14.75 15.4 14.75V13.25ZM17.5 14.75C17.9142 14.75 18.25 14.4142 18.25 14C18.25 13.5858 17.9142 13.25 17.5 13.25V14.75ZM7.5 14.75H12.5V13.25H7.5V14.75ZM15.4 14.75H17.5V13.25H15.4V14.75Z" fill="#ACAAB1"/>
<path d="M15.8444 16.3642C16.0455 16.7263 16.5021 16.8568 16.8642 16.6556C17.2263 16.4545 17.3568 15.9979 17.1556 15.6358L15.8444 16.3642ZM14.6456 11.1178C14.4444 10.7557 13.9878 10.6252 13.6258 10.8264C13.2637 11.0275 13.1332 11.4841 13.3344 11.8462L14.6456 11.1178ZM11.8474 9.16929C12.0486 9.53136 12.5052 9.66178 12.8673 9.46058C13.2294 9.25939 13.3598 8.80278 13.1586 8.44071L11.8474 9.16929ZM12.1556 6.63571C11.9544 6.27364 11.4978 6.14322 11.1357 6.34442C10.7736 6.54561 10.6432 7.00222 10.8444 7.36429L12.1556 6.63571ZM17.1556 15.6358L14.6456 11.1178L13.3344 11.8462L15.8444 16.3642L17.1556 15.6358ZM13.1586 8.44071L12.1556 6.63571L10.8444 7.36429L11.8474 9.16929L13.1586 8.44071Z" fill="#ACAAB1"/>
</svg>
