<svg width="24" height="24" viewBox="0 0 24 24" fill="none" xmlns="http://www.w3.org/2000/svg">
<g clip-path="url(#clip0_4_11704)">
<path d="M14.058 3.41001C12.251 4.17701 11.063 5.86301 11.002 7.79001L11 7.97201L10.757 7.94901C8.36499 7.68001 6.25899 6.43701 4.81299 4.41801C4.71507 4.28118 4.58422 4.17126 4.43253 4.09844C4.28085 4.02562 4.11324 3.99226 3.94523 4.00143C3.77722 4.0106 3.61425 4.06202 3.47139 4.15092C3.32854 4.23982 3.21042 4.36333 3.12799 4.51001L3.03099 4.69601L2.98199 4.79501C2.26299 6.28001 1.79199 8.08501 1.96499 9.99801L1.99499 10.271C2.27799 12.534 3.49499 14.486 5.77399 15.95L5.94699 16.057L5.86599 16.1C4.55099 16.763 3.34799 17.052 2.03899 17C0.982988 16.96 0.592988 18.372 1.52099 18.878C5.11899 20.839 8.98199 21.444 12.313 20.478C16.373 19.298 19.465 16.255 20.648 12.045L20.775 11.55C21.013 10.557 21.147 9.54401 21.176 8.52601L21.179 8.19401L21.572 7.41501L22.012 6.55301L22.226 6.11901L22.344 5.87201C22.609 5.30701 22.8 4.83901 22.918 4.44201L22.932 4.38601L22.94 4.36801C23.16 3.77501 22.774 3.01001 21.999 3.01001L21.877 3.01701C21.798 3.02672 21.7204 3.04586 21.646 3.07401L21.56 3.11201C21.2746 3.2506 20.9807 3.37084 20.68 3.47201L20.324 3.58701L20.053 3.66701L19.281 3.88101C17.945 2.76301 16.137 2.62701 14.269 3.32701L14.058 3.41001Z" fill="#E1DEF5" fill-opacity="0.4"/>
</g>
<defs>
<clipPath id="clip0_4_11704">
<rect width="24" height="24" fill="white"/>
</clipPath>
</defs>
</svg>
