<svg width="25" height="24" viewBox="0 0 25 24" fill="none" xmlns="http://www.w3.org/2000/svg">
<circle cx="12.5" cy="5" r="2" stroke="#6D6B77" stroke-width="1.5" stroke-linecap="round" stroke-linejoin="round"/>
<path d="M17.6861 7.93369C17.9754 8.2302 18.4502 8.23609 18.7467 7.94686C19.0432 7.65762 19.0491 7.18279 18.7599 6.88628L17.6861 7.93369ZM14.6689 4.52139C14.2676 4.41872 13.8591 4.6608 13.7564 5.06209C13.6537 5.46338 13.8958 5.87191 14.2971 5.97458L14.6689 4.52139ZM10.6983 5.97447C11.0995 5.87157 11.3414 5.4629 11.2385 5.06167C11.1356 4.66044 10.7269 4.4186 10.3257 4.5215L10.6983 5.97447ZM6.18116 6.94543C5.89476 7.24468 5.90519 7.71944 6.20445 8.00583C6.5037 8.29222 6.97846 8.2818 7.26485 7.98254L6.18116 6.94543ZM5.55994 10.8959C5.67976 10.4994 5.45546 10.0809 5.05895 9.96105C4.66244 9.84123 4.24388 10.0655 4.12406 10.462L5.55994 10.8959ZM4.5 12.999L5.25 12.999L5.25 12.9984L4.5 12.999ZM4.06392 15.3301C4.1739 15.7295 4.5868 15.964 4.98614 15.8541C5.38549 15.7441 5.62006 15.3312 5.51008 14.9318L4.06392 15.3301ZM7.28659 18.0382C6.99894 17.7401 6.52414 17.7317 6.22609 18.0193C5.92805 18.307 5.91962 18.7818 6.20727 19.0798L7.28659 18.0382ZM10.319 21.4753C10.7201 21.5786 11.129 21.3371 11.2323 20.9359C11.3355 20.5348 11.094 20.1259 10.6929 20.0227L10.319 21.4753ZM14.316 20.0199C13.9151 20.1237 13.6741 20.5329 13.7779 20.9339C13.8818 21.3349 14.291 21.5759 14.692 21.472L14.316 20.0199ZM18.7906 19.0809C19.0783 18.7829 19.0699 18.3081 18.772 18.0204C18.474 17.7327 17.9992 17.741 17.7115 18.039L18.7906 19.0809ZM19.4899 14.931C19.38 15.3304 19.6147 15.7432 20.014 15.8531C20.4134 15.963 20.8263 15.7283 20.9362 15.329L19.4899 14.931ZM20.5 12.999L19.75 12.999L19.75 12.9996L20.5 12.999ZM20.9142 10.5899C20.8004 10.1917 20.3853 9.96105 19.987 10.0748C19.5887 10.1886 19.3581 10.6038 19.4719 11.002L20.9142 10.5899ZM18.7599 6.88628C17.6392 5.73739 16.2238 4.9192 14.6689 4.52139L14.2971 5.97458C15.5852 6.30414 16.7577 6.98194 17.6861 7.93369L18.7599 6.88628ZM10.3257 4.5215C8.74504 4.92687 7.30939 5.76652 6.18116 6.94543L7.26485 7.98254C8.19952 7.00589 9.38886 6.3103 10.6983 5.97447L10.3257 4.5215ZM4.12406 10.462C3.87541 11.2849 3.74937 12.1399 3.75 12.9995L5.25 12.9984C5.24948 12.2862 5.35391 11.5777 5.55994 10.8959L4.12406 10.462ZM3.75 12.999C3.75 13.805 3.85925 14.587 4.06392 15.3301L5.51008 14.9318C5.34075 14.317 5.25 13.669 5.25 12.999H3.75ZM6.20727 19.0798C7.33 20.2431 8.75329 21.0723 10.319 21.4753L10.6929 20.0227C9.3958 19.6888 8.21669 19.0019 7.28659 18.0382L6.20727 19.0798ZM14.692 21.472C16.2525 21.0681 17.6709 20.2406 18.7906 19.0809L17.7115 18.039C16.7839 18.9997 15.6088 19.6853 14.316 20.0199L14.692 21.472ZM20.9362 15.329C21.1451 14.5698 21.2507 13.7858 21.25 12.9984L19.75 12.9996C19.7506 13.6522 19.6631 14.3018 19.4899 14.931L20.9362 15.329ZM21.25 12.999C21.25 12.1646 21.1331 11.3563 20.9142 10.5899L19.4719 11.002C19.6529 11.6357 19.75 12.3053 19.75 12.999H21.25Z" fill="#6D6B77"/>
<circle cx="5.5" cy="17" r="2" stroke="#6D6B77" stroke-width="1.5" stroke-linecap="round" stroke-linejoin="round"/>
<circle cx="19.5" cy="17" r="2" stroke="#6D6B77" stroke-width="1.5" stroke-linecap="round" stroke-linejoin="round"/>
</svg>
