<svg width="25" height="24" viewBox="0 0 25 24" fill="none" xmlns="http://www.w3.org/2000/svg">
<circle cx="12.5" cy="5" r="2" stroke="#E1DEF5" stroke-opacity="0.9" stroke-width="1.5" stroke-linecap="round" stroke-linejoin="round"/>
<path d="M17.6862 7.93369C17.9754 8.2302 18.4503 8.23609 18.7468 7.94686C19.0433 7.65762 19.0492 7.18279 18.7599 6.88628L17.6862 7.93369ZM14.669 4.52139C14.2677 4.41872 13.8591 4.6608 13.7565 5.06209C13.6538 5.46338 13.8959 5.87191 14.2972 5.97458L14.669 4.52139ZM10.6984 5.97447C11.0996 5.87157 11.3415 5.4629 11.2386 5.06167C11.1357 4.66044 10.727 4.4186 10.3257 4.5215L10.6984 5.97447ZM6.18122 6.94543C5.89483 7.24468 5.90525 7.71944 6.20451 8.00583C6.50376 8.29222 6.97852 8.2818 7.26491 7.98254L6.18122 6.94543ZM5.56 10.8959C5.67982 10.4994 5.45552 10.0809 5.05901 9.96105C4.6625 9.84123 4.24394 10.0655 4.12413 10.462L5.56 10.8959ZM4.50006 12.999H5.25006L5.25006 12.9984L4.50006 12.999ZM4.06398 15.3301C4.17397 15.7295 4.58686 15.964 4.9862 15.8541C5.38555 15.7441 5.62012 15.3312 5.51014 14.9318L4.06398 15.3301ZM7.28665 18.0382C6.999 17.7401 6.5242 17.7317 6.22615 18.0193C5.92811 18.307 5.91968 18.7818 6.20733 19.0798L7.28665 18.0382ZM10.319 21.4753C10.7202 21.5786 11.1291 21.3371 11.2323 20.9359C11.3356 20.5348 11.0941 20.1259 10.6929 20.0227L10.319 21.4753ZM14.3161 20.0199C13.9151 20.1237 13.6742 20.5329 13.778 20.9339C13.8818 21.3349 14.291 21.5759 14.692 21.472L14.3161 20.0199ZM18.7906 19.0809C19.0783 18.7829 19.07 18.3081 18.772 18.0204C18.474 17.7327 17.9992 17.741 17.7115 18.039L18.7906 19.0809ZM19.49 14.931C19.3801 15.3304 19.6147 15.7432 20.0141 15.8531C20.4135 15.963 20.8263 15.7283 20.9362 15.329L19.49 14.931ZM20.5001 12.999H19.7501V12.9996L20.5001 12.999ZM20.9142 10.5899C20.8004 10.1917 20.3853 9.96105 19.9871 10.0748C19.5888 10.1886 19.3582 10.6038 19.472 11.002L20.9142 10.5899ZM18.7599 6.88628C17.6392 5.73739 16.2239 4.9192 14.669 4.52139L14.2972 5.97458C15.5853 6.30414 16.7578 6.98194 17.6862 7.93369L18.7599 6.88628ZM10.3257 4.5215C8.7451 4.92687 7.30945 5.76652 6.18122 6.94543L7.26491 7.98254C8.19958 7.00589 9.38892 6.3103 10.6984 5.97447L10.3257 4.5215ZM4.12413 10.462C3.87547 11.2849 3.74943 12.1399 3.75006 12.9995L5.25006 12.9984C5.24954 12.2862 5.35397 11.5777 5.56 10.8959L4.12413 10.462ZM3.75006 12.999C3.75006 13.805 3.85932 14.587 4.06398 15.3301L5.51014 14.9318C5.34081 14.317 5.25006 13.669 5.25006 12.999H3.75006ZM6.20733 19.0798C7.33006 20.2431 8.75336 21.0723 10.319 21.4753L10.6929 20.0227C9.39586 19.6888 8.21675 19.0019 7.28665 18.0382L6.20733 19.0798ZM14.692 21.472C16.2525 21.0681 17.671 20.2406 18.7906 19.0809L17.7115 18.039C16.784 18.9997 15.6089 19.6853 14.3161 20.0199L14.692 21.472ZM20.9362 15.329C21.1451 14.5698 21.2507 13.7858 21.2501 12.9984L19.7501 12.9996C19.7506 13.6522 19.6631 14.3018 19.49 14.931L20.9362 15.329ZM21.2501 12.999C21.2501 12.1646 21.1332 11.3563 20.9142 10.5899L19.472 11.002C19.653 11.6357 19.7501 12.3053 19.7501 12.999H21.2501Z" fill="#E1DEF5" fill-opacity="0.9"/>
<circle cx="5.5" cy="17" r="2" stroke="#E1DEF5" stroke-opacity="0.9" stroke-width="1.5" stroke-linecap="round" stroke-linejoin="round"/>
<circle cx="19.5" cy="17" r="2" stroke="#E1DEF5" stroke-opacity="0.9" stroke-width="1.5" stroke-linecap="round" stroke-linejoin="round"/>
</svg>
