<svg width="25" height="24" viewBox="0 0 25 24" fill="none" xmlns="http://www.w3.org/2000/svg">
<path fill-rule="evenodd" clip-rule="evenodd" d="M12.5 3.00004C15.3571 2.99941 18.0447 4.35536 19.742 6.65368C21.4392 8.952 21.9443 11.9196 21.103 14.65C21.8731 16.3558 21.507 18.3602 20.1836 19.6836C18.8602 21.007 16.8558 21.3731 15.15 20.603C11.9623 21.5864 8.49211 20.7258 6.13322 18.3669C3.77433 16.008 2.91372 12.5378 3.89705 9.35004C3.12629 7.64414 3.49211 5.63926 4.81565 4.31549C6.1392 2.99172 8.14402 2.62557 9.85005 3.39604C10.7086 3.13236 11.6019 2.99887 12.5 3.00004Z" stroke="#6D6B77" stroke-width="1.5" stroke-linecap="round" stroke-linejoin="round"/>
<path d="M8.5 14.5C9 16.5 10.858 17 12.5 17C15.405 17 16.5 15.813 16.5 14.5C16.5 12.997 14.573 12 12.5 12C10.427 12 8.5 11.003 8.5 9.5C8.5 8.187 9.595 7 12.5 7C14.142 7 16 7.5 16.5 9.5" stroke="#6D6B77" stroke-width="1.5" stroke-linecap="round" stroke-linejoin="round"/>
</svg>
