<svg width="22" height="22" viewBox="0 0 22 22" fill="none" xmlns="http://www.w3.org/2000/svg">
<g id="brand-apple">
<path id="Path" fill-rule="evenodd" clip-rule="evenodd" d="M8.25065 6.41681C5.50065 6.41681 4.58398 9.16681 4.58398 11.4585C4.58398 14.2085 6.41732 18.3335 8.25065 18.3335C9.24798 18.2913 9.78973 17.8751 11.0007 17.8751C12.2033 17.8751 12.3757 18.3335 13.7507 18.3335C15.1256 18.3335 17.4173 15.5835 17.4173 13.7501C17.3916 13.741 15.1513 13.3807 15.1256 11.0001C15.1082 9.01098 17.3403 8.29231 17.4173 8.25015C16.4796 6.88248 14.7122 6.45073 14.209 6.41681C12.8954 6.31506 11.6148 7.33348 11.0007 7.33348C10.3773 7.33348 9.25898 6.41681 8.25065 6.41681Z" stroke="#808390" stroke-width="1.5" stroke-linecap="round" stroke-linejoin="round"/>
<path id="Path_2" d="M11 3.66683C12.0125 3.66683 12.8333 2.84602 12.8333 1.8335C11.8208 1.8335 11 2.65431 11 3.66683" stroke="#808390" stroke-width="1.5" stroke-linecap="round" stroke-linejoin="round"/>
</g>
</svg>
