<svg width="25" height="24" viewBox="0 0 25 24" fill="none" xmlns="http://www.w3.org/2000/svg">
<ellipse cx="12.5" cy="12" rx="10" ry="9" stroke="#ACAAB1" stroke-width="1.5" stroke-linecap="round" stroke-linejoin="round"/>
<path d="M6 15L6.395 13.026L7 10H8.32C8.6138 10.0001 8.89268 10.1295 9.08258 10.3536C9.27248 10.5778 9.35418 10.8742 9.306 11.164L9.139 12.164C9.05883 12.6462 8.64182 12.9998 8.153 13H6.5" stroke="#ACAAB1" stroke-width="1.5" stroke-linecap="round" stroke-linejoin="round"/>
<path d="M16 15L16.395 13.026L17 10H18.32C18.6138 10.0001 18.8927 10.1295 19.0826 10.3536C19.2725 10.5778 19.3542 10.8742 19.306 11.164L19.139 12.164C19.0588 12.6462 18.6418 12.9998 18.153 13H16.5" stroke="#ACAAB1" stroke-width="1.5" stroke-linecap="round" stroke-linejoin="round"/>
<path d="M12.5 7.5L11.5 13" stroke="#ACAAB1" stroke-width="1.5" stroke-linecap="round" stroke-linejoin="round"/>
<path d="M12.1001 10H14.5001L14.0001 13" stroke="#ACAAB1" stroke-width="1.5" stroke-linecap="round" stroke-linejoin="round"/>
</svg>
