<svg width="25" height="24" viewBox="0 0 25 24" fill="none" xmlns="http://www.w3.org/2000/svg">
<path fill-rule="evenodd" clip-rule="evenodd" d="M4.5 18V8.5C4.5 6.01472 6.51472 4 9 4H16C17.1935 4 18.3381 4.47411 19.182 5.31802C20.0259 6.16193 20.5 7.30653 20.5 8.5V15.5C20.5 16.6935 20.0259 17.8381 19.182 18.682C18.3381 19.5259 17.1935 20 16 20H6.5C5.39543 20 4.5 19.1046 4.5 18Z" stroke="#E1DEF5" stroke-opacity="0.7" stroke-width="1.5" stroke-linecap="round" stroke-linejoin="round"/>
<path d="M8.5 12H12C13.1046 12 14 12.8954 14 14C14 15.1046 13.1046 16 12 16H8.5V9C8.5 8.44772 8.94772 8 9.5 8H11C12.1046 8 13 8.89543 13 10C13 11.1046 12.1046 12 11 12H9.5" stroke="#E1DEF5" stroke-opacity="0.7" stroke-width="1.5" stroke-linecap="round" stroke-linejoin="round"/>
<path d="M16.5 16H16.51" stroke="#E1DEF5" stroke-opacity="0.7" stroke-width="1.5" stroke-linecap="round" stroke-linejoin="round"/>
</svg>
