<svg width="25" height="24" viewBox="0 0 25 24" fill="none" xmlns="http://www.w3.org/2000/svg">
<path fill-rule="evenodd" clip-rule="evenodd" d="M3.5 8.5L4.5 9.5C4.5 9.5 6 8.398 6.5 9C7.009 9.609 8.363 16.65 9 18C9.556 19.184 10.978 20.89 13 19.5C15 18 20.5 14 21.5 8C21.944 5.339 20.5 4 19 4C17 4 14.953 5.202 14.5 8C16.55 6.746 17.051 9.003 16 11C14.948 13.005 14 14 13.5 14C13.01 14 12.576 12.835 12 10.5C11.41 8.08 11.5 4 9 4C6.5 4 3.5 8.5 3.5 8.5Z" stroke="#ACAAB1" stroke-width="1.5" stroke-linecap="round" stroke-linejoin="round"/>
</svg>
