<svg width="28" height="28" viewBox="0 0 28 28" fill="none" xmlns="http://www.w3.org/2000/svg">
<g id="brand-react-native">
<path id="Path" d="M7.41642 10.5C4.33992 11.2933 2.33325 12.6525 2.33325 14.2042C2.33325 16.6623 7.47242 18.6667 13.8249 18.6667C14.6883 18.6667 15.2949 18.6212 16.0999 18.5535" stroke="#00BAD1" stroke-width="1.5" stroke-linecap="round" stroke-linejoin="round"/>
<path id="Path_2" d="M11.4767 18.55C10.9949 17.8547 10.5364 17.2282 10.1 16.45C6.89055 10.7333 6.03071 5.05168 8.19838 3.76485C9.54005 2.95168 11.7532 4.06002 14.0014 6.39452" stroke="#00BAD1" stroke-width="1.5" stroke-linecap="round" stroke-linejoin="round"/>
<path id="Path_3" d="M7.50043 17.9515C6.68143 21.0875 6.84709 23.4535 8.15376 24.2457C10.2339 25.5057 14.4386 21.9613 17.5373 16.3077C17.9573 15.526 18.3341 14.7572 18.6666 14" stroke="#00BAD1" stroke-width="1.5" stroke-linecap="round" stroke-linejoin="round"/>
<path id="Path_4" d="M14 21.6067C16.2493 23.94 18.4532 25.0483 19.8077 24.2352C21.966 22.9495 21.1155 17.2678 17.9025 11.55C17.4545 10.7602 16.996 10.1453 16.5258 9.45001" stroke="#00BAD1" stroke-width="1.5" stroke-linecap="round" stroke-linejoin="round"/>
<path id="Path_5" d="M20.6032 17.5C23.6506 16.6985 25.6666 15.3416 25.6666 13.7946C25.6666 11.333 20.5239 9.33331 14.1807 9.33331C13.3092 9.33331 12.7037 9.36715 11.8999 9.43481" stroke="#00BAD1" stroke-width="1.5" stroke-linecap="round" stroke-linejoin="round"/>
<path id="Path_6" d="M9.33325 14C9.66575 13.23 10.0414 12.474 10.4626 11.6924C13.5508 6.04102 17.7578 2.48736 19.8496 3.75786C21.1446 4.55002 21.3219 6.91486 20.5029 10.0497" stroke="#00BAD1" stroke-width="1.5" stroke-linecap="round" stroke-linejoin="round"/>
<path id="Path_7" d="M14.3034 14.0175H14.2917C14.2801 14.1692 14.1517 14.2975 13.9884 14.2975C13.8262 14.2895 13.6984 14.1565 13.6967 13.9942C13.6967 13.8308 13.8251 13.7025 13.9767 13.7025H13.9651C14.1167 13.6908 14.2567 13.8308 14.2567 13.9825" stroke="#00BAD1" stroke-width="1.5" stroke-linecap="round" stroke-linejoin="round"/>
</g>
</svg>
