<svg width="25" height="24" viewBox="0 0 25 24" fill="none" xmlns="http://www.w3.org/2000/svg">
<circle cx="9.5" cy="12" r="1" stroke="#2F2B3D" stroke-opacity="0.9" stroke-width="1.5" stroke-linecap="round" stroke-linejoin="round"/>
<circle cx="15.5" cy="12" r="1" stroke="#2F2B3D" stroke-opacity="0.9" stroke-width="1.5" stroke-linecap="round" stroke-linejoin="round"/>
<path d="M8 7.5C11.5 6.5 13.5 6.5 17 7.5" stroke="#2F2B3D" stroke-opacity="0.9" stroke-width="1.5" stroke-linecap="round" stroke-linejoin="round"/>
<path d="M7.5 16.5C11 17.5 14 17.5 17.5 16.5" stroke="#2F2B3D" stroke-opacity="0.9" stroke-width="1.5" stroke-linecap="round" stroke-linejoin="round"/>
<path d="M16 17C16 18 17.5 20 18 20C19.5 20 20.833 18.333 21.5 17C22.167 15.333 22 11.167 20 5.5C18.543 4.485 17 4.16 15.5 4L14.5 6.5" stroke="#2F2B3D" stroke-opacity="0.9" stroke-width="1.5" stroke-linecap="round" stroke-linejoin="round"/>
<path d="M9.00011 17C9.00011 18 7.64411 20 7.16811 20C5.73911 20 4.47011 18.333 3.83511 17C3.20011 15.333 3.35911 11.167 5.26311 5.5C6.65111 4.485 8.04511 4.16 9.50011 4L10.5001 6.5" stroke="#2F2B3D" stroke-opacity="0.9" stroke-width="1.5" stroke-linecap="round" stroke-linejoin="round"/>
</svg>
