<svg width="25" height="24" viewBox="0 0 25 24" fill="none" xmlns="http://www.w3.org/2000/svg">
<path d="M9.73219 19.7132C10.1261 19.5849 10.3414 19.1617 10.2132 18.7678C10.0849 18.374 9.66167 18.1586 9.26781 18.2869L9.73219 19.7132ZM3.71162 15.2805C3.31424 15.1636 2.89735 15.391 2.78048 15.7884C2.6636 16.1858 2.89099 16.6027 3.28838 16.7195L3.71162 15.2805ZM14.75 21C14.75 21.4142 15.0858 21.75 15.5 21.75C15.9142 21.75 16.25 21.4142 16.25 21H14.75ZM15 15.5L14.9201 14.7543C14.6329 14.7851 14.3889 14.978 14.2928 15.2504C14.1966 15.5227 14.2654 15.8261 14.4697 16.0303L15 15.5ZM20.5 9.50001L21.25 9.50001L21.25 9.49925L20.5 9.50001ZM19.2 6.30001L18.498 6.03596C18.3958 6.30777 18.4596 6.61418 18.662 6.82252L19.2 6.30001ZM19.1 3.10001L19.7841 2.79264C19.6922 2.58812 19.5137 2.43543 19.2973 2.37644L19.1 3.10001ZM15.6 4.40001L15.411 5.1258C15.6179 5.1797 15.8381 5.14268 16.016 5.02405L15.6 4.40001ZM9.4 4.40001L8.98397 5.02405C9.16193 5.14268 9.38206 5.1797 9.58902 5.1258L9.4 4.40001ZM5.9 3.10001L5.70266 2.37644C5.48635 2.43543 5.30777 2.58812 5.21588 2.79264L5.9 3.10001ZM5.8 6.30001L6.33804 6.82252C6.54036 6.61418 6.60422 6.30777 6.50198 6.03596L5.8 6.30001ZM4.5 9.50001L3.75 9.49925V9.50001H4.5ZM10 15.5L10.5303 16.0303C10.7346 15.8261 10.8034 15.5227 10.7072 15.2504C10.6111 14.978 10.3671 14.7851 10.0799 14.7543L10 15.5ZM9.5 17.5H10.25C10.25 17.4689 10.2481 17.4378 10.2442 17.407L9.5 17.5ZM8.75 21C8.75 21.4142 9.08579 21.75 9.5 21.75C9.91421 21.75 10.25 21.4142 10.25 21H8.75ZM9.26781 18.2869C8.28835 18.6058 7.63859 18.5955 7.18952 18.4699C6.74534 18.3457 6.40666 18.0834 6.09095 17.7204C5.7345 17.3105 5.52471 16.9332 5.15299 16.4306C4.83436 15.9998 4.38999 15.48 3.71162 15.2805L3.28838 16.7195C3.46001 16.77 3.65314 16.9252 3.94701 17.3226C4.18779 17.6481 4.5655 18.2521 4.95905 18.7046C5.39334 19.2041 5.96716 19.6856 6.78548 19.9145C7.59891 20.142 8.56165 20.0943 9.73219 19.7132L9.26781 18.2869ZM16.25 21V17.5H14.75V21H16.25ZM16.25 17.5C16.25 17.0828 16.2784 16.6083 16.2148 16.2267C16.1351 15.7485 15.9223 15.3617 15.5303 14.9697L14.4697 16.0303C14.6777 16.2384 14.7149 16.3515 14.7352 16.4733C14.7716 16.6917 14.75 16.9172 14.75 17.5H16.25ZM15.0799 16.2457C16.5298 16.0904 18.0915 15.718 19.2909 14.6795C20.5225 13.6131 21.25 11.955 21.25 9.50001H19.75C19.75 11.645 19.1275 12.8369 18.3091 13.5455C17.4585 14.282 16.2702 14.6096 14.9201 14.7543L15.0799 16.2457ZM21.25 9.49925C21.2486 8.10937 20.7063 6.7746 19.738 5.77751L18.662 6.82252C19.3588 7.54004 19.749 8.50058 19.75 9.50078L21.25 9.49925ZM19.902 6.56407C20.3622 5.34067 20.3198 3.98492 19.7841 2.79264L18.4159 3.40738C18.7892 4.23836 18.8188 5.18328 18.498 6.03596L19.902 6.56407ZM19.1 3.10001C19.2973 2.37644 19.2967 2.37625 19.296 2.37607C19.2957 2.37601 19.2951 2.37582 19.2946 2.37569C19.2937 2.37544 19.2927 2.37519 19.2917 2.37493C19.2898 2.37442 19.2878 2.37389 19.2857 2.37336C19.2815 2.37229 19.2771 2.37118 19.2723 2.37004C19.2629 2.36776 19.2523 2.36536 19.2405 2.3629C19.217 2.35799 19.189 2.35288 19.1564 2.34812C19.0913 2.3386 19.0083 2.33057 18.9073 2.32832C18.7049 2.32382 18.4333 2.34264 18.0907 2.41713C17.406 2.56598 16.4449 2.93533 15.184 3.77597L16.016 5.02405C17.1551 4.26469 17.944 3.98404 18.4093 3.88289C18.6417 3.83238 18.7951 3.8262 18.874 3.82795C18.9136 3.82883 18.9353 3.83174 18.9396 3.83237C18.9419 3.83269 18.9398 3.83246 18.9336 3.83116C18.9305 3.83052 18.9264 3.8296 18.9212 3.82836C18.9186 3.82774 18.9158 3.82703 18.9127 3.82624C18.9111 3.82584 18.9095 3.82543 18.9079 3.82498C18.907 3.82476 18.9062 3.82453 18.9053 3.8243C18.9049 3.82419 18.9042 3.82401 18.904 3.82395C18.9033 3.82377 18.9027 3.82358 19.1 3.10001ZM15.789 3.67422C13.6323 3.11253 11.3677 3.11253 9.21098 3.67422L9.58902 5.1258C11.4978 4.62867 13.5022 4.62867 15.411 5.1258L15.789 3.67422ZM9.81603 3.77597C8.55506 2.93533 7.59403 2.56598 6.90932 2.41713C6.56668 2.34264 6.29511 2.32382 6.09271 2.32832C5.99172 2.33057 5.90874 2.3386 5.84355 2.34812C5.81099 2.35288 5.78298 2.35799 5.75948 2.3629C5.74773 2.36536 5.73712 2.36776 5.72765 2.37004C5.72292 2.37118 5.71847 2.37229 5.7143 2.37336C5.71222 2.37389 5.71021 2.37442 5.70827 2.37493C5.7073 2.37519 5.70635 2.37544 5.70541 2.37569C5.70494 2.37582 5.70426 2.37601 5.70402 2.37607C5.70334 2.37625 5.70266 2.37644 5.9 3.10001C6.09734 3.82358 6.09667 3.82377 6.096 3.82395C6.09579 3.82401 6.09512 3.82419 6.09469 3.8243C6.09382 3.82453 6.09297 3.82476 6.09214 3.82498C6.09046 3.82543 6.08886 3.82584 6.08731 3.82624C6.08422 3.82703 6.08139 3.82774 6.07881 3.82836C6.07364 3.8296 6.06951 3.83052 6.0664 3.83116C6.06019 3.83246 6.05815 3.83269 6.06035 3.83237C6.0647 3.83174 6.08641 3.82883 6.12604 3.82795C6.20489 3.8262 6.35832 3.83238 6.59068 3.88289C7.05597 3.98404 7.84494 4.26469 8.98397 5.02405L9.81603 3.77597ZM5.21588 2.79264C4.6802 3.98492 4.63783 5.34067 5.09802 6.56407L6.50198 6.03596C6.18124 5.18328 6.21077 4.23836 6.58412 3.40738L5.21588 2.79264ZM5.26196 5.77751C4.29367 6.7746 3.75142 8.10937 3.75 9.49925L5.25 9.50078C5.25102 8.50058 5.64124 7.54004 6.33804 6.82252L5.26196 5.77751ZM3.75 9.50001C3.75 11.955 4.47747 13.6131 5.70907 14.6795C6.9085 15.718 8.47021 16.0904 9.9201 16.2457L10.0799 14.7543C8.72979 14.6096 7.5415 14.282 6.69093 13.5455C5.87253 12.8369 5.25 11.645 5.25 9.50001H3.75ZM9.46967 14.9697C9.06968 15.3697 8.84339 15.8029 8.751 16.2834C8.66443 16.7335 8.70483 17.1853 8.75579 17.593L10.2442 17.407C10.1952 17.0147 10.1856 16.7665 10.224 16.5666C10.2566 16.3971 10.3303 16.2304 10.5303 16.0303L9.46967 14.9697ZM8.75 17.5V21H10.25V17.5H8.75Z" fill="#E1DEF5" fill-opacity="0.7"/>
</svg>
