<svg width="25" height="24" viewBox="0 0 25 24" fill="none" xmlns="http://www.w3.org/2000/svg">
<path d="M4.528 7.8199C2.26646 12.1325 3.84518 17.4616 8.09077 19.8465C12.3364 22.2313 17.7088 20.8069 20.215 16.6317C22.7212 12.4566 21.4522 7.0454 17.351 4.4199C15.715 3.3999 14.287 3.3999 12.5 3.3999H10.853" stroke="#2F2B3D" stroke-opacity="0.9" stroke-width="1.5" stroke-linecap="round" stroke-linejoin="round"/>
<path d="M5.41404 9.48503C3.65804 7.91603 4.60904 4.10503 5.52304 3.31503C5.60904 4.21103 6.10804 4.52303 6.63404 5.00003C7.51404 4.72503 7.94704 4.71803 8.50104 5.00003C9.32104 4.09003 10.195 2.64603 11.129 2.90703C10.047 4.64803 11.059 6.64003 12.5 7.08003C12.33 8.05503 11.016 8.99303 9.74004 9.76603C8.44404 10.704 9.01804 11.616 9.74004 12C10.689 12.506 13.351 11.005 14.285 12.354C12.587 12.456 12.749 15.461 10.302 15.081C12.825 16.038 14.647 15.543 15.76 14.741C17.725 13.221 18.639 11.199 18.639 9.18403C18.625 7.78603 18.833 6.48903 17.379 4.43403" stroke="#2F2B3D" stroke-opacity="0.9" stroke-width="1.5" stroke-linecap="round" stroke-linejoin="round"/>
</svg>
