<svg width="19" height="18" viewBox="0 0 19 18" fill="none" xmlns="http://www.w3.org/2000/svg">
<g id="brand-paypal">
<path id="Shape" d="M5.16699 3L5.90945 3.10607C5.91447 3.07093 5.91699 3.03549 5.91699 3H5.16699ZM3.66699 13.5L2.92453 13.3939C2.91951 13.4291 2.91699 13.4645 2.91699 13.5H3.66699ZM6.51699 14.25V15C6.86378 15 7.16535 14.7622 7.24628 14.425L6.51699 14.25ZM7.41699 10.5L8.14628 10.675C8.15039 10.6579 8.15389 10.6407 8.15679 10.6233L7.41699 10.5ZM14.1722 4.75355C13.8152 4.54353 13.3555 4.66271 13.1455 5.01973C12.9355 5.37676 13.0547 5.83643 13.4117 6.04645L14.1722 4.75355ZM9.96697 12.375V11.625C9.60034 11.625 9.28745 11.8901 9.22718 12.2517L9.96697 12.375ZM9.51697 15.075L10.2518 15.2248C10.2536 15.216 10.2553 15.2072 10.2568 15.1983L9.51697 15.075ZM8.76697 15.675L8.78209 14.9251C8.77705 14.925 8.77201 14.925 8.76697 14.925V15.675ZM6.74197 15.675V14.925C6.73691 14.925 6.73185 14.925 6.72679 14.9252L6.74197 15.675ZM6.36697 15.225L7.10179 15.3752C7.10477 15.3605 7.10732 15.3458 7.10943 15.3311L6.36697 15.225ZM7.25943 14.2811C7.31801 13.871 7.03309 13.4911 6.62304 13.4325C6.21299 13.374 5.83309 13.6589 5.77451 14.0689L7.25943 14.2811ZM8.16699 10.5H10.042V9H8.16699V10.5ZM10.042 10.5C11.2234 10.5 12.3421 9.91684 13.1504 9.10846C13.9588 8.30007 14.542 7.18142 14.542 6H13.042C13.042 6.69358 12.6877 7.44993 12.0898 8.04779C11.4919 8.64566 10.7356 9 10.042 9V10.5ZM14.542 6C14.542 4.71522 14.1323 3.5758 13.323 2.75475C12.512 1.93198 11.3696 1.5 10.042 1.5V3C11.0393 3 11.772 3.31802 12.2547 3.80775C12.7392 4.2992 13.042 5.03478 13.042 6H14.542ZM10.042 1.5H5.91699V3H10.042V1.5ZM5.91699 1.5C5.48557 1.5 5.11692 1.70816 4.87104 1.95404C4.62515 2.19993 4.41699 2.56858 4.41699 3H5.91699C5.91699 3.01569 5.91503 3.02714 5.91344 3.03382C5.91188 3.0404 5.91054 3.04293 5.91108 3.04177C5.91162 3.04062 5.91345 3.03703 5.91722 3.03172C5.92097 3.02643 5.92585 3.02056 5.9317 3.01471C5.93755 3.00885 5.94342 3.00398 5.94871 3.00023C5.95403 2.99646 5.95761 2.99463 5.95877 2.99409C5.95993 2.99355 5.95739 2.99488 5.95081 2.99645C5.94414 2.99804 5.93268 3 5.91699 3V1.5ZM4.42453 2.89393L2.92453 13.3939L4.40945 13.6061L5.90945 3.10607L4.42453 2.89393ZM2.91699 13.5C2.91699 13.9314 3.12515 14.3001 3.37104 14.546C3.61692 14.7918 3.98557 15 4.41699 15V13.5C4.43268 13.5 4.44414 13.502 4.45082 13.5035C4.45739 13.5051 4.45993 13.5065 4.45877 13.5059C4.45761 13.5054 4.45403 13.5035 4.44871 13.4998C4.44342 13.496 4.43755 13.4911 4.4317 13.4853C4.42585 13.4794 4.42097 13.4736 4.41722 13.4683C4.41345 13.463 4.41162 13.4594 4.41108 13.4582C4.41054 13.4571 4.41188 13.4596 4.41344 13.4662C4.41503 13.4729 4.41699 13.4843 4.41699 13.5H2.91699ZM4.41699 15H6.51699V13.5H4.41699V15ZM7.24628 14.425L8.14628 10.675L6.6877 10.325L5.7877 14.075L7.24628 14.425ZM8.15679 10.6233C8.16801 10.5559 8.18211 10.5116 8.19326 10.4852C8.20414 10.4595 8.20935 10.4576 8.20096 10.4666C8.19067 10.4777 8.17397 10.4901 8.15559 10.4976C8.13882 10.5045 8.13858 10.5 8.16699 10.5V9C7.75723 9 7.38097 9.14523 7.10177 9.44591C6.84362 9.72392 6.72823 10.0705 6.6772 10.3767L8.15679 10.6233ZM13.4117 6.04645C14.4049 6.63066 14.917 7.69828 14.917 9H16.417C16.417 7.30172 15.7291 5.66933 14.1722 4.75355L13.4117 6.04645ZM14.917 9C14.917 9.67687 14.5783 10.326 14.0039 10.8239C13.4274 11.3235 12.6615 11.625 11.917 11.625V13.125C13.0474 13.125 14.1566 12.6765 14.9863 11.9574C15.8181 11.2365 16.417 10.1981 16.417 9H14.917ZM11.917 11.625H9.96697V13.125H11.917V11.625ZM9.22718 12.2517L8.77718 14.9517L10.2568 15.1983L10.7068 12.4983L9.22718 12.2517ZM8.78209 14.9251L8.75185 16.4248C9.47599 16.4394 10.1071 15.9345 10.2518 15.2248L8.78209 14.9251ZM8.76697 14.925H6.74197V16.425H8.76697V14.925ZM6.72679 14.9252C6.84071 14.9228 6.94951 14.9725 7.02246 15.06L5.87013 16.0203C6.08898 16.2829 6.41537 16.4318 6.75716 16.4248L6.72679 14.9252ZM7.02246 15.06C7.09541 15.1475 7.1246 15.2635 7.10179 15.3752L5.63216 15.0748C5.56371 15.4098 5.65128 15.7577 5.87013 16.0203L7.02246 15.06ZM7.10943 15.3311L7.25943 14.2811L5.77451 14.0689L5.62451 15.1189L7.10943 15.3311Z" fill="#FF4C51"/>
</g>
</svg>
