<svg width="25" height="24" viewBox="0 0 25 24" fill="none" xmlns="http://www.w3.org/2000/svg">
<path fill-rule="evenodd" clip-rule="evenodd" d="M5.92805 17.245L12.0041 20.716C12.3114 20.8915 12.6887 20.8915 12.996 20.716L19.0721 17.245C19.3423 17.0906 19.5252 16.8193 19.567 16.511L20.8901 6.80696C20.9541 6.33706 20.6793 5.8868 20.232 5.72896L12.8321 3.11696C12.6169 3.04109 12.3822 3.04109 12.1671 3.11696L4.76805 5.72996C4.32085 5.8878 4.04602 6.33806 4.11005 6.80796L5.43305 16.512C5.47486 16.8203 5.65783 17.0916 5.92805 17.246V17.245Z" stroke="#2F2B3D" stroke-opacity="0.9" stroke-width="1.5" stroke-linecap="round" stroke-linejoin="round"/>
<path d="M9.5 15L12.5 7L15.5 15" stroke="#2F2B3D" stroke-opacity="0.9" stroke-width="1.5" stroke-linecap="round" stroke-linejoin="round"/>
<path d="M10.5 13H14.5" stroke="#2F2B3D" stroke-opacity="0.9" stroke-width="1.5" stroke-linecap="round" stroke-linejoin="round"/>
</svg>
