<svg width="25" height="24" viewBox="0 0 25 24" fill="none" xmlns="http://www.w3.org/2000/svg">
<path fill-rule="evenodd" clip-rule="evenodd" d="M22.5 4.01001C21.5 4.50001 20.52 4.69901 19.5 5.00001C18.379 3.73501 16.717 3.66501 15.12 4.26301C13.523 4.86101 12.477 6.32301 12.5 8.00001V9.00001C9.255 9.08301 6.365 7.60501 4.5 5.00001C4.5 5.00001 0.318 12.433 8.5 16C6.628 17.247 4.761 18.088 2.5 18C5.808 19.803 9.413 20.423 12.534 19.517C16.114 18.477 19.056 15.794 20.185 11.775C20.5218 10.5527 20.689 9.28987 20.682 8.02201C20.68 7.77301 22.192 5.25001 22.5 4.00901V4.01001Z" stroke="#E1DEF5" stroke-opacity="0.9" stroke-width="1.5" stroke-linecap="round" stroke-linejoin="round"/>
</svg>
