<svg width="25" height="24" viewBox="0 0 25 24" fill="none" xmlns="http://www.w3.org/2000/svg">
<path fill-rule="evenodd" clip-rule="evenodd" d="M12.5 10C10.5 10 9.5 11 9.5 13C9.5 14.5 10.994 16.535 12.5 18.5C13.5 19.5 14 20 15 20.5C16 21 17.5 21.5 19.5 20C21.5 18.5 21 16.5 20 14C19 11.5 17.667 8.5 15 4.5C14.166 3.5 13.5 3 12.497 3C11.497 3 10.874 3.45 10 4.5C7.333 8.5 6 11.5 5 14C4 16.5 3.5 18.5 5.5 20C7.5 21.5 9 21 10 20.5C11 20 11.5 19.5 12.5 18.5C14.006 16.535 15.5 14.5 15.5 13C15.5 11 14.5 10 12.5 10Z" stroke="#E1DEF5" stroke-opacity="0.7" stroke-width="1.5" stroke-linecap="round" stroke-linejoin="round"/>
</svg>
