<svg width="25" height="24" viewBox="0 0 25 24" fill="none" xmlns="http://www.w3.org/2000/svg">
<path d="M11.75 12C11.75 12.4142 12.0858 12.75 12.5 12.75C12.9142 12.75 13.25 12.4142 13.25 12H11.75ZM15.75 12C15.75 12.4142 16.0858 12.75 16.5 12.75C16.9142 12.75 17.25 12.4142 17.25 12H15.75ZM15.75 10C15.75 10.4142 16.0858 10.75 16.5 10.75C16.9142 10.75 17.25 10.4142 17.25 10H15.75ZM12.5 11.25C12.0858 11.25 11.75 11.5858 11.75 12C11.75 12.4142 12.0858 12.75 12.5 12.75V11.25ZM13.25 12V6H11.75V12H13.25ZM13.25 6C13.25 5.30964 13.8096 4.75 14.5 4.75V3.25C12.9812 3.25 11.75 4.48122 11.75 6H13.25ZM14.5 4.75C15.1904 4.75 15.75 5.30964 15.75 6H17.25C17.25 4.48122 16.0188 3.25 14.5 3.25V4.75ZM15.75 6V12H17.25V6H15.75ZM17.25 10C17.25 9.30964 17.8096 8.75 18.5 8.75V7.25C16.9812 7.25 15.75 8.48122 15.75 10H17.25ZM18.5 8.75C19.1904 8.75 19.75 9.30964 19.75 10H21.25C21.25 8.48122 20.0188 7.25 18.5 7.25V8.75ZM19.75 10C19.75 10.6904 19.1904 11.25 18.5 11.25V12.75C20.0188 12.75 21.25 11.5188 21.25 10H19.75ZM18.5 11.25H12.5V12.75H18.5V11.25Z" fill="#2F2B3D" fill-opacity="0.9"/>
<path d="M12.5 11.25C12.0858 11.25 11.75 11.5858 11.75 12C11.75 12.4142 12.0858 12.75 12.5 12.75V11.25ZM12.5 15.25C12.0858 15.25 11.75 15.5858 11.75 16C11.75 16.4142 12.0858 16.75 12.5 16.75V15.25ZM14.5 15.25C14.0858 15.25 13.75 15.5858 13.75 16C13.75 16.4142 14.0858 16.75 14.5 16.75V15.25ZM13.25 12C13.25 11.5858 12.9142 11.25 12.5 11.25C12.0858 11.25 11.75 11.5858 11.75 12H13.25ZM12.5 12.75H18.5V11.25H12.5V12.75ZM18.5 12.75C19.1904 12.75 19.75 13.3096 19.75 14H21.25C21.25 12.4812 20.0188 11.25 18.5 11.25V12.75ZM19.75 14C19.75 14.6904 19.1904 15.25 18.5 15.25V16.75C20.0188 16.75 21.25 15.5188 21.25 14H19.75ZM18.5 15.25H12.5V16.75H18.5V15.25ZM14.5 16.75C15.1904 16.75 15.75 17.3096 15.75 18H17.25C17.25 16.4812 16.0188 15.25 14.5 15.25V16.75ZM15.75 18C15.75 18.6904 15.1904 19.25 14.5 19.25V20.75C16.0188 20.75 17.25 19.5188 17.25 18H15.75ZM14.5 19.25C13.8096 19.25 13.25 18.6904 13.25 18H11.75C11.75 19.5188 12.9812 20.75 14.5 20.75V19.25ZM13.25 18V12H11.75V18H13.25Z" fill="#2F2B3D" fill-opacity="0.9"/>
<path d="M13.25 12C13.25 11.5858 12.9142 11.25 12.5 11.25C12.0858 11.25 11.75 11.5858 11.75 12H13.25ZM9.25 12C9.25 11.5858 8.91421 11.25 8.5 11.25C8.08579 11.25 7.75 11.5858 7.75 12H9.25ZM9.25 14C9.25 13.5858 8.91421 13.25 8.5 13.25C8.08579 13.25 7.75 13.5858 7.75 14H9.25ZM12.5 12.75C12.9142 12.75 13.25 12.4142 13.25 12C13.25 11.5858 12.9142 11.25 12.5 11.25V12.75ZM11.75 12V18H13.25V12H11.75ZM11.75 18C11.75 18.6904 11.1904 19.25 10.5 19.25V20.75C12.0188 20.75 13.25 19.5188 13.25 18H11.75ZM10.5 19.25C9.80964 19.25 9.25 18.6904 9.25 18H7.75C7.75 19.5188 8.98122 20.75 10.5 20.75V19.25ZM9.25 18V12H7.75V18H9.25ZM7.75 14C7.75 14.6904 7.19036 15.25 6.5 15.25V16.75C8.01878 16.75 9.25 15.5188 9.25 14H7.75ZM6.5 15.25C5.80964 15.25 5.25 14.6904 5.25 14H3.75C3.75 15.5188 4.98122 16.75 6.5 16.75V15.25ZM5.25 14C5.25 13.3096 5.80964 12.75 6.5 12.75V11.25C4.98122 11.25 3.75 12.4812 3.75 14H5.25ZM6.5 12.75H12.5V11.25H6.5V12.75Z" fill="#2F2B3D" fill-opacity="0.9"/>
<path d="M12.5 12.75C12.9142 12.75 13.25 12.4142 13.25 12C13.25 11.5858 12.9142 11.25 12.5 11.25V12.75ZM12.5 8.75C12.9142 8.75 13.25 8.41421 13.25 8C13.25 7.58579 12.9142 7.25 12.5 7.25V8.75ZM10.5 8.75C10.9142 8.75 11.25 8.41421 11.25 8C11.25 7.58579 10.9142 7.25 10.5 7.25V8.75ZM11.75 12C11.75 12.4142 12.0858 12.75 12.5 12.75C12.9142 12.75 13.25 12.4142 13.25 12H11.75ZM12.5 11.25H6.5V12.75H12.5V11.25ZM6.5 11.25C5.80964 11.25 5.25 10.6904 5.25 10H3.75C3.75 11.5188 4.98122 12.75 6.5 12.75V11.25ZM5.25 10C5.25 9.30964 5.80964 8.75 6.5 8.75V7.25C4.98122 7.25 3.75 8.48122 3.75 10H5.25ZM6.5 8.75H12.5V7.25H6.5V8.75ZM10.5 7.25C9.80964 7.25 9.25 6.69036 9.25 6H7.75C7.75 7.51878 8.98122 8.75 10.5 8.75V7.25ZM9.25 6C9.25 5.30964 9.80964 4.75 10.5 4.75V3.25C8.98122 3.25 7.75 4.48122 7.75 6H9.25ZM10.5 4.75C11.1904 4.75 11.75 5.30964 11.75 6H13.25C13.25 4.48122 12.0188 3.25 10.5 3.25V4.75ZM11.75 6V12H13.25V6H11.75Z" fill="#2F2B3D" fill-opacity="0.9"/>
</svg>
