<svg width="25" height="24" viewBox="0 0 25 24" fill="none" xmlns="http://www.w3.org/2000/svg">
<path fill-rule="evenodd" clip-rule="evenodd" d="M12.5 10.174C14.266 7.39 15.815 6 17.148 6C19.148 6 20.411 8.213 21.148 11.217C21.852 14.086 21.648 18 19.148 18C18.034 18 16.5 16.435 15 14.348C14.0455 13.0329 13.209 11.6361 12.5 10.174Z" stroke="#2F2B3D" stroke-opacity="0.9" stroke-width="1.5" stroke-linecap="round" stroke-linejoin="round"/>
<path fill-rule="evenodd" clip-rule="evenodd" d="M12.5 10.174C10.734 7.39 9.18499 6 7.85199 6C5.85199 6 4.58899 8.213 3.85199 11.217C3.14799 14.086 3.35199 18 5.85199 18C6.96599 18 8.49999 16.435 9.99999 14.348C11 12.957 11.833 11.565 12.5 10.174Z" stroke="#2F2B3D" stroke-opacity="0.9" stroke-width="1.5" stroke-linecap="round" stroke-linejoin="round"/>
</svg>
