<svg width="25" height="24" viewBox="0 0 25 24" fill="none" xmlns="http://www.w3.org/2000/svg">
<path fill-rule="evenodd" clip-rule="evenodd" d="M11.5 9L14.475 4.35C15.09 3.45 15.88 3 16.852 3C17.642 3 18.326 3.286 18.906 3.858C19.482 4.432 19.772 5.114 19.772 5.912C19.772 6.5 19.619 7.021 19.312 7.471L16.5 11.5L19.965 16.412C20.321 16.872 20.5 17.41 20.5 18.025C20.5121 18.8092 20.2083 19.5652 19.657 20.123C19.096 20.707 18.415 21 17.617 21C16.741 21 16.072 20.71 15.612 20.13L11.5 14.433V17.5C11.5 18.376 11.187 19.19 10.889 19.675C10.346 20.558 9.539 21 8.5 21C7.556 21 6.747 20.673 6.229 20.026C5.743 19.426 5.5 18.634 5.5 17.646V6.275C5.5 5.341 5.747 4.569 6.24 3.962C6.752 3.321 7.587 3 8.5 3C9.368 3 10.321 3.321 10.9 3.962C11.223 4.318 11.415 4.676 11.5 5.042C11.552 5.266 11.5 5.685 11.5 6.302V9V9Z" stroke="#E1DEF5" stroke-opacity="0.7" stroke-width="1.5" stroke-linecap="round" stroke-linejoin="round"/>
</svg>
