<svg width="25" height="24" viewBox="0 0 25 24" fill="none" xmlns="http://www.w3.org/2000/svg">
<path d="M7.5 9.667L6.77322 9.48181C6.6852 9.82724 6.85249 10.1869 7.17337 10.3421C7.49426 10.4974 7.88008 10.4053 8.09629 10.1219L7.5 9.667ZM10.767 8.292L10.5884 9.02043L10.5885 9.02044L10.767 8.292ZM12.545 9.532L12.0151 10.0628L12.0158 10.0635L12.545 9.532ZM21.5 7.833L22.2268 8.01819C22.3148 7.67276 22.1475 7.3131 21.8266 7.15786C21.5057 7.00262 21.1199 7.09469 20.9037 7.3781L21.5 7.833ZM18.233 9.208L18.4116 8.47957L18.4115 8.47956L18.233 9.208ZM16.455 7.968L16.9849 7.4372L16.9842 7.43651L16.455 7.968ZM3.5 16.167L2.77322 15.9818C2.6852 16.3272 2.85249 16.6869 3.17337 16.8421C3.49426 16.9974 3.88008 16.9053 4.09629 16.6219L3.5 16.167ZM6.767 14.792L6.58841 15.5204L6.58848 15.5204L6.767 14.792ZM8.545 16.032L8.01514 16.5628L8.01583 16.5635L8.545 16.032ZM17.5 14.333L18.2268 14.5182C18.3148 14.1728 18.1475 13.8131 17.8266 13.6579C17.5057 13.5026 17.1199 13.5947 16.9037 13.8781L17.5 14.333ZM14.233 15.708L14.4116 14.9796L14.4115 14.9796L14.233 15.708ZM12.455 14.468L12.9849 13.9372L12.9842 13.9365L12.455 14.468ZM12.167 5.25C10.7982 5.25 9.61077 5.58755 8.66995 6.32694C7.7302 7.06547 7.11413 8.1439 6.77322 9.48181L8.22678 9.85219C8.50887 8.7451 8.9813 7.99003 9.5968 7.50631C10.2112 7.02345 11.0458 6.75 12.167 6.75V5.25ZM8.09629 10.1219C8.50653 9.58415 8.91467 9.26308 9.30758 9.09787C9.69092 8.93668 10.1086 8.90279 10.5884 9.02043L10.9456 7.56357C10.1814 7.37621 9.43208 7.41832 8.72617 7.71513C8.02983 8.00792 7.42647 8.52685 6.90371 9.2121L8.09629 10.1219ZM10.5885 9.02044C11.0602 9.13604 11.4227 9.47138 12.0151 10.0628L13.0749 9.0012C12.5453 8.47262 11.8938 7.79596 10.9455 7.56356L10.5885 9.02044ZM12.0158 10.0635C12.4708 10.5165 13.0356 11.0776 13.8066 11.5116C14.5932 11.9544 15.5634 12.25 16.833 12.25V10.75C15.8146 10.75 15.0988 10.5176 14.5424 10.2044C13.9704 9.88243 13.5352 9.4595 13.0742 9.00051L12.0158 10.0635ZM16.833 12.25C18.2018 12.25 19.3892 11.9124 20.3301 11.1731C21.2698 10.4345 21.8859 9.3561 22.2268 8.01819L20.7732 7.64781C20.4911 8.7549 20.0187 9.50997 19.4032 9.99369C18.7888 10.4766 17.9542 10.75 16.833 10.75V12.25ZM20.9037 7.3781C20.4935 7.91585 20.0853 8.23692 19.6924 8.40213C19.3091 8.56332 18.8914 8.59721 18.4116 8.47957L18.0544 9.93643C18.8186 10.1238 19.5679 10.0817 20.2738 9.78487C20.9702 9.49208 21.5735 8.97315 22.0963 8.2879L20.9037 7.3781ZM18.4115 8.47956C17.9398 8.36396 17.5773 8.02862 16.9849 7.4372L15.9251 8.4988C16.4547 9.02738 17.1062 9.70404 18.0545 9.93644L18.4115 8.47956ZM16.9842 7.43651C16.5323 6.98663 15.9726 6.4238 15.2041 5.98917C14.4188 5.54505 13.4479 5.25 12.167 5.25V6.75C13.1991 6.75 13.9142 6.98295 14.4657 7.29483C15.0339 7.6162 15.4617 8.03737 15.9258 8.49949L16.9842 7.43651ZM8.167 11.75C6.79821 11.75 5.61077 12.0876 4.66995 12.8269C3.7302 13.5655 3.11413 14.6439 2.77322 15.9818L4.22678 16.3522C4.50887 15.2451 4.9813 14.49 5.5968 14.0063C6.21123 13.5234 7.04579 13.25 8.167 13.25V11.75ZM4.09629 16.6219C4.50653 16.0842 4.91467 15.7631 5.30758 15.5979C5.69092 15.4367 6.10863 15.4028 6.58841 15.5204L6.94559 14.0636C6.18137 13.8762 5.43208 13.9183 4.72617 14.2151C4.02983 14.5079 3.42647 15.0268 2.90371 15.7121L4.09629 16.6219ZM6.58848 15.5204C7.06015 15.636 7.42267 15.9714 8.01514 16.5628L9.07486 15.5012C8.54533 14.9726 7.89385 14.296 6.94552 14.0636L6.58848 15.5204ZM8.01583 16.5635C8.46769 17.0134 9.02742 17.5762 9.79592 18.0108C10.5812 18.4549 11.5521 18.75 12.833 18.75V17.25C11.8009 17.25 11.0858 17.0171 10.5343 16.7052C9.96609 16.3838 9.53831 15.9626 9.07417 15.5005L8.01583 16.5635ZM12.833 18.75C14.2018 18.75 15.3892 18.4124 16.3301 17.6731C17.2698 16.9345 17.8859 15.8561 18.2268 14.5182L16.7732 14.1478C16.4911 15.2549 16.0187 16.01 15.4032 16.4937C14.7888 16.9766 13.9542 17.25 12.833 17.25V18.75ZM16.9037 13.8781C16.4935 14.4158 16.0853 14.7369 15.6924 14.9021C15.3091 15.0633 14.8914 15.0972 14.4116 14.9796L14.0544 16.4364C14.8186 16.6238 15.5679 16.5817 16.2738 16.2849C16.9702 15.9921 17.5735 15.4732 18.0963 14.7879L16.9037 13.8781ZM14.4115 14.9796C13.9398 14.864 13.5773 14.5286 12.9849 13.9372L11.9251 14.9988C12.4547 15.5274 13.1062 16.204 14.0545 16.4364L14.4115 14.9796ZM12.9842 13.9365C12.5323 13.4866 11.9726 12.9238 11.2041 12.4892C10.4188 12.0451 9.44788 11.75 8.167 11.75V13.25C9.19912 13.25 9.91421 13.4829 10.4657 13.7948C11.0339 14.1162 11.4617 14.5374 11.9258 14.9995L12.9842 13.9365Z" fill="#6D6B77"/>
</svg>
