<svg width="25" height="24" viewBox="0 0 25 24" fill="none" xmlns="http://www.w3.org/2000/svg">
<path d="M3.5 21L5.15 17.2C2.53818 13.4924 3.09303 8.42067 6.44471 5.36549C9.79638 2.31032 14.8977 2.22626 18.3482 5.16935C21.7987 8.11243 22.5203 13.1631 20.0321 16.9547C17.5439 20.7464 12.6232 22.0943 8.55 20.1L3.5 21" stroke="#E1DEF5" stroke-opacity="0.7" stroke-width="1.5" stroke-linecap="round" stroke-linejoin="round"/>
<path d="M9.5 10C9.5 10.2761 9.72386 10.5 10 10.5C10.2761 10.5 10.5 10.2761 10.5 10V9C10.5 8.72386 10.2761 8.5 10 8.5C9.72386 8.5 9.5 8.72386 9.5 9V10C9.5 12.7614 11.7386 15 14.5 15H15.5C15.7761 15 16 14.7761 16 14.5C16 14.2239 15.7761 14 15.5 14H14.5C14.2239 14 14 14.2239 14 14.5C14 14.7761 14.2239 15 14.5 15" stroke="#E1DEF5" stroke-opacity="0.7" stroke-width="1.5" stroke-linecap="round" stroke-linejoin="round"/>
</svg>
