<svg width="25" height="24" viewBox="0 0 25 24" fill="none" xmlns="http://www.w3.org/2000/svg">
<circle cx="12.5" cy="12" r="9" stroke="#E1DEF5" stroke-opacity="0.7" stroke-width="1.5" stroke-linecap="round" stroke-linejoin="round"/>
<path d="M12.5 10.523C14.96 9.69701 16.502 9.69701 16.502 8.36801C16.502 7.00201 15.155 7.00201 13.767 7.00201C11.857 7.00201 10.415 7.49201 9.23004 8.75001C8.38204 9.65201 8.20304 11.199 9.07704 12.057C10.05 13.013 12.283 13.846 11.961 15.55C11.728 16.785 10.492 17.373 9.34404 16.752C8.56204 16.328 8.89004 15.006 9.97004 14.24C11.05 13.474 12.792 13.248 14.07 14C15.05 14.575 15.116 15.724 14.504 16.193" stroke="#E1DEF5" stroke-opacity="0.7" stroke-width="1.5" stroke-linecap="round" stroke-linejoin="round"/>
</svg>
