<svg width="25" height="24" viewBox="0 0 25 24" fill="none" xmlns="http://www.w3.org/2000/svg">
<circle cx="12.5" cy="5" r="2" stroke="#2F2B3D" stroke-opacity="0.9" stroke-width="1.5" stroke-linecap="round" stroke-linejoin="round"/>
<path d="M17.6861 7.93375C17.9754 8.23026 18.4502 8.23615 18.7467 7.94692C19.0432 7.65768 19.0491 7.18285 18.7599 6.88634L17.6861 7.93375ZM14.6689 4.52145C14.2676 4.41878 13.8591 4.66086 13.7564 5.06215C13.6537 5.46344 13.8958 5.87198 14.2971 5.97464L14.6689 4.52145ZM10.6983 5.97454C11.0995 5.87163 11.3414 5.46296 11.2385 5.06173C11.1356 4.6605 10.7269 4.41866 10.3257 4.52156L10.6983 5.97454ZM6.18116 6.94549C5.89476 7.24474 5.90519 7.7195 6.20445 8.00589C6.5037 8.29229 6.97846 8.28186 7.26485 7.9826L6.18116 6.94549ZM5.55994 10.896C5.67976 10.4995 5.45546 10.0809 5.05895 9.96111C4.66244 9.84129 4.24388 10.0656 4.12406 10.4621L5.55994 10.896ZM4.5 12.999H5.25L5.25 12.9985L4.5 12.999ZM4.06392 15.3302C4.1739 15.7295 4.5868 15.9641 4.98614 15.8541C5.38549 15.7441 5.62006 15.3313 5.51008 14.9319L4.06392 15.3302ZM7.28659 18.0382C6.99894 17.7402 6.52414 17.7317 6.22609 18.0194C5.92805 18.307 5.91962 18.7818 6.20727 19.0799L7.28659 18.0382ZM10.319 21.4754C10.7201 21.5786 11.129 21.3371 11.2323 20.936C11.3355 20.5349 11.094 20.126 10.6929 20.0227L10.319 21.4754ZM14.316 20.02C13.9151 20.1238 13.6741 20.533 13.7779 20.934C13.8818 21.335 14.291 21.5759 14.692 21.4721L14.316 20.02ZM18.7906 19.081C19.0783 18.783 19.0699 18.3082 18.772 18.0205C18.474 17.7328 17.9992 17.7411 17.7115 18.0391L18.7906 19.081ZM19.4899 14.9311C19.38 15.3304 19.6147 15.7433 20.014 15.8532C20.4134 15.9631 20.8263 15.7284 20.9362 15.329L19.4899 14.9311ZM20.5 12.9991H19.75V12.9996L20.5 12.9991ZM20.9142 10.59C20.8004 10.1917 20.3853 9.96111 19.987 10.0749C19.5887 10.1887 19.3581 10.6038 19.4719 11.0021L20.9142 10.59ZM18.7599 6.88634C17.6392 5.73745 16.2238 4.91926 14.6689 4.52145L14.2971 5.97464C15.5852 6.3042 16.7577 6.982 17.6861 7.93375L18.7599 6.88634ZM10.3257 4.52156C8.74504 4.92694 7.30939 5.76658 6.18116 6.94549L7.26485 7.9826C8.19952 7.00595 9.38886 6.31036 10.6983 5.97454L10.3257 4.52156ZM4.12406 10.4621C3.87541 11.285 3.74937 12.14 3.75 12.9996L5.25 12.9985C5.24948 12.2862 5.35391 11.5778 5.55994 10.896L4.12406 10.4621ZM3.75 12.999C3.75 13.8051 3.85925 14.587 4.06392 15.3302L5.51008 14.9319C5.34075 14.3171 5.25 13.669 5.25 12.999H3.75ZM6.20727 19.0799C7.33 20.2432 8.75329 21.0724 10.319 21.4754L10.6929 20.0227C9.3958 19.6889 8.21669 19.0019 7.28659 18.0382L6.20727 19.0799ZM14.692 21.4721C16.2525 21.0681 17.6709 20.2406 18.7906 19.081L17.7115 18.0391C16.7839 18.9998 15.6088 19.6853 14.316 20.02L14.692 21.4721ZM20.9362 15.329C21.1451 14.5698 21.2507 13.7859 21.25 12.9985L19.75 12.9996C19.7506 13.6522 19.6631 14.3019 19.4899 14.9311L20.9362 15.329ZM21.25 12.9991C21.25 12.1647 21.1331 11.3564 20.9142 10.59L19.4719 11.0021C19.6529 11.6357 19.75 12.3054 19.75 12.9991H21.25Z" fill="#2F2B3D" fill-opacity="0.9"/>
<circle cx="5.5" cy="17" r="2" stroke="#2F2B3D" stroke-opacity="0.9" stroke-width="1.5" stroke-linecap="round" stroke-linejoin="round"/>
<circle cx="19.5" cy="17" r="2" stroke="#2F2B3D" stroke-opacity="0.9" stroke-width="1.5" stroke-linecap="round" stroke-linejoin="round"/>
</svg>
