<svg width="25" height="24" viewBox="0 0 25 24" fill="none" xmlns="http://www.w3.org/2000/svg">
<path d="M17.382 7.84202L18.132 7.84202V7.84202L17.382 7.84202ZM7.618 7.84202L6.868 7.84202V7.84202H7.618ZM3.5 15.96L3.1993 15.2729C2.92671 15.3922 2.75042 15.6614 2.75 15.959C2.74958 16.2565 2.92511 16.5262 3.19737 16.6463L3.5 15.96ZM6.5 18.96L5.82179 19.2802C5.94568 19.5426 6.20982 19.71 6.5 19.71V18.96ZM18.5 18.96V19.71C18.7902 19.71 19.0543 19.5426 19.1782 19.2802L18.5 18.96ZM21.5 15.96L21.8026 16.6463C22.0749 16.5262 22.2504 16.2565 22.25 15.9589C22.2496 15.6614 22.0733 15.3922 21.8006 15.2729L21.5 15.96ZM3.14904 15.2982C2.78297 15.492 2.64335 15.9459 2.83718 16.312C3.03101 16.678 3.4849 16.8177 3.85096 16.6238L3.14904 15.2982ZM5.03033 8.31269C4.73744 8.01979 4.26256 8.01979 3.96967 8.31269C3.67678 8.60558 3.67678 9.08045 3.96967 9.37335L5.03033 8.31269ZM21.149 16.6238C21.5151 16.8177 21.969 16.678 22.1628 16.312C22.3567 15.9459 22.217 15.492 21.851 15.2982L21.149 16.6238ZM21.0303 9.37335C21.3232 9.08045 21.3232 8.60558 21.0303 8.31269C20.7374 8.01979 20.2626 8.01979 19.9697 8.31269L21.0303 9.37335ZM18.132 7.84202C18.132 4.73155 15.6105 2.21002 12.5 2.21002V3.71002C14.782 3.71002 16.632 5.55998 16.632 7.84202L18.132 7.84202ZM12.5 2.21002C9.38953 2.21002 6.868 4.73155 6.868 7.84202L8.368 7.84202C8.368 5.55998 10.218 3.71002 12.5 3.71002V2.21002ZM6.868 7.84202C6.868 10.0088 6.80455 11.453 6.33247 12.5707C5.89034 13.6175 5.04381 14.4657 3.1993 15.2729L3.8007 16.6471C5.86119 15.7453 7.07366 14.6711 7.71428 13.1543C8.32495 11.7085 8.368 9.94822 8.368 7.84202H6.868ZM3.19737 16.6463C4.25004 17.1105 4.59204 17.2742 4.84467 17.5269C5.10502 17.7872 5.29654 18.1677 5.82179 19.2802L7.17821 18.6398C6.70346 17.6343 6.39498 16.9558 5.90533 16.4662C5.40796 15.9688 4.74996 15.6916 3.80263 15.2738L3.19737 16.6463ZM6.5 19.71C7.8061 19.71 8.66928 20.1349 9.5029 20.6112C10.3068 21.0706 11.2549 21.71 12.5 21.71V20.21C11.7451 20.21 11.1932 19.8495 10.2471 19.3088C9.33072 18.7852 8.1939 18.21 6.5 18.21V19.71ZM12.5 21.71C13.7451 21.71 14.6932 21.0706 15.4971 20.6112C16.3307 20.1349 17.1939 19.71 18.5 19.71V18.21C16.8061 18.21 15.6693 18.7852 14.7529 19.3088C13.8068 19.8495 13.2549 20.21 12.5 20.21V21.71ZM19.1782 19.2802C19.7035 18.1677 19.895 17.7872 20.1553 17.5269C20.408 17.2742 20.75 17.1105 21.8026 16.6463L21.1974 15.2738C20.25 15.6916 19.592 15.9688 19.0947 16.4662C18.605 16.9558 18.2965 17.6343 17.8218 18.6398L19.1782 19.2802ZM21.8006 15.2729C19.9556 14.4657 19.1092 13.6175 18.6672 12.5708C18.1952 11.4531 18.132 10.0089 18.132 7.84202H16.632C16.632 9.94812 16.6748 11.7085 17.2853 13.1543C17.9258 14.6711 19.1384 15.7454 21.1994 16.6471L21.8006 15.2729ZM3.85096 16.6238C5.87027 15.5546 7.20066 14.3634 7.37053 12.8145C7.5373 11.2939 6.5329 9.81526 5.03033 8.31269L3.96967 9.37335C5.4671 10.8708 5.9627 11.8921 5.87947 12.651C5.79934 13.3817 5.12973 14.2494 3.14904 15.2982L3.85096 16.6238ZM21.851 15.2982C19.8703 14.2494 19.2007 13.3817 19.1205 12.651C19.0373 11.8921 19.5329 10.8708 21.0303 9.37335L19.9697 8.31269C18.4671 9.81526 17.4627 11.2939 17.6295 12.8145C17.7993 14.3634 19.1297 15.5546 21.149 16.6238L21.851 15.2982Z" fill="#E1DEF5" fill-opacity="0.7"/>
</svg>
