<svg width="25" height="24" viewBox="0 0 25 24" fill="none" xmlns="http://www.w3.org/2000/svg">
<path d="M3.50003 18C3.49357 18.381 3.60005 18.7554 3.80603 19.076C4.1534 19.6222 4.74362 19.9665 5.39003 20C6.03603 20.033 4.85303 20 5.50003 20H8.50003C8.49958 17.7564 7.00233 15.7887 4.84003 15.19C5.39803 14.217 6.08003 13.041 6.88003 11.659C10.2776 13.0349 12.5008 16.3344 12.5 20H16.5C17.163 20 18.837 20.005 19.5 20C20.1626 19.9954 20.7798 19.6629 21.1482 19.1123C21.5167 18.5616 21.5885 17.8642 21.34 17.25L14.24 5.00002C13.8878 4.36338 13.2176 3.96826 12.49 3.96826C11.7625 3.96826 11.0923 4.36338 10.74 5.00002L8.90003 8.17602C13.382 10.226 16.5 14.747 16.5 20" stroke="#6D6B77" stroke-width="1.5" stroke-linecap="round" stroke-linejoin="round"/>
</svg>
