<svg width="25" height="24" viewBox="0 0 25 24" fill="none" xmlns="http://www.w3.org/2000/svg">
<path d="M4.5 11V10.25C4.08579 10.25 3.75 10.5858 3.75 11H4.5ZM9.5 11H10.25C10.25 10.5858 9.91421 10.25 9.5 10.25V11ZM9.5 15H8.75C8.75 15.4142 9.08579 15.75 9.5 15.75V15ZM15.5 15V15.75C15.9142 15.75 16.25 15.4142 16.25 15H15.5ZM15.5 11V10.25C15.0858 10.25 14.75 10.5858 14.75 11H15.5ZM20.5 11H21.25C21.25 10.5858 20.9142 10.25 20.5 10.25V11ZM20.5 20V20.75C20.9142 20.75 21.25 20.4142 21.25 20H20.5ZM4.5 20H3.75C3.75 20.4142 4.08579 20.75 4.5 20.75V20ZM9.5 4V3.25C9.08579 3.25 8.75 3.58579 8.75 4H9.5ZM15.5 4H16.25C16.25 3.58579 15.9142 3.25 15.5 3.25V4ZM15.5 8V8.75C15.9142 8.75 16.25 8.41421 16.25 8H15.5ZM9.5 8H8.75C8.75 8.41421 9.08579 8.75 9.5 8.75V8ZM4.5 11.75H9.5V10.25H4.5V11.75ZM8.75 11V15H10.25V11H8.75ZM9.5 15.75H15.5V14.25H9.5V15.75ZM16.25 15V11H14.75V15H16.25ZM15.5 11.75H20.5V10.25H15.5V11.75ZM19.75 11V20H21.25V11H19.75ZM20.5 19.25H4.5V20.75H20.5V19.25ZM5.25 20V11H3.75V20H5.25ZM9.5 4.75H15.5V3.25H9.5V4.75ZM14.75 4V8H16.25V4H14.75ZM15.5 7.25H9.5V8.75H15.5V7.25ZM10.25 8V4H8.75V8H10.25Z" fill="#2F2B3D" fill-opacity="0.9"/>
</svg>
