<svg width="25" height="24" viewBox="0 0 25 24" fill="none" xmlns="http://www.w3.org/2000/svg">
<circle cx="12.5" cy="5" r="2" stroke="#6D6B77" stroke-width="1.5" stroke-linecap="round" stroke-linejoin="round"/>
<path d="M20.5 12.5V17.25C20.5065 17.3611 20.4877 17.4722 20.445 17.575C20.3782 17.7358 20.2542 17.8662 20.097 17.941L14.635 20.521C13.2833 21.1596 11.7167 21.1596 10.365 20.521L4.90295 17.941C4.63908 17.8159 4.47962 17.5412 4.50195 17.25L4.49995 12.5" stroke="#6D6B77" stroke-width="1.5" stroke-linecap="round" stroke-linejoin="round"/>
<path fill-rule="evenodd" clip-rule="evenodd" d="M4.93097 12.2159L10.565 9.88394C11.8041 9.37169 13.1958 9.37169 14.435 9.88394L20.069 12.2159C20.324 12.3202 20.493 12.5658 20.4991 12.8413C20.5051 13.1167 20.3472 13.3696 20.097 13.4849L14.635 16.0279C13.2812 16.6574 11.7187 16.6574 10.365 16.0279L4.90297 13.4849C4.65134 13.3705 4.49212 13.1171 4.49822 12.8407C4.50431 12.5643 4.67454 12.3182 4.93097 12.2149V12.2159Z" stroke="#6D6B77" stroke-width="1.5" stroke-linecap="round" stroke-linejoin="round"/>
<path d="M12.5 7V13" stroke="#6D6B77" stroke-width="1.5" stroke-linecap="round" stroke-linejoin="round"/>
</svg>
