<svg width="25" height="24" viewBox="0 0 25 24" fill="none" xmlns="http://www.w3.org/2000/svg">
<path d="M21.478 11.372C21.1716 6.99826 17.7581 3.48175 13.3954 3.04555C9.03268 2.60935 4.99049 5.38041 3.82423 9.60691C2.65797 13.8334 4.70706 18.2853 8.67609 20.1482C12.6451 22.011 17.379 20.7427 19.885 17.145" stroke="#2F2B3D" stroke-opacity="0.9" stroke-width="1.5" stroke-linecap="round" stroke-linejoin="round"/>
<path d="M21.4781 11.3722C21.6881 14.3652 16.4441 13.7852 14.5651 12.8582C15.9571 11.2582 14.9671 8.82022 12.2911 9.00722C10.5461 9.12922 9.36406 10.1642 9.50706 12.2092C9.78706 16.1992 13.9511 18.4142 19.8671 16.9992" stroke="#2F2B3D" stroke-opacity="0.9" stroke-width="1.5" stroke-linecap="round" stroke-linejoin="round"/>
<path d="M3.52203 12.6279C3.23903 8.58487 12.239 5.39987 14.77 9.93987" stroke="#2F2B3D" stroke-opacity="0.9" stroke-width="1.5" stroke-linecap="round" stroke-linejoin="round"/>
<path d="M13.128 20.978C10.135 21.188 7.96604 16.253 9.56104 11.23" stroke="#2F2B3D" stroke-opacity="0.9" stroke-width="1.5" stroke-linecap="round" stroke-linejoin="round"/>
</svg>
