<svg width="25" height="24" viewBox="0 0 25 24" fill="none" xmlns="http://www.w3.org/2000/svg">
<path d="M17.382 7.84196H18.132H17.382ZM7.618 7.84196H6.868H7.618ZM3.5 15.96L3.1993 15.2729C2.92671 15.3922 2.75042 15.6613 2.75 15.9589C2.74958 16.2565 2.92511 16.5261 3.19737 16.6462L3.5 15.96ZM6.5 18.96L5.82179 19.2802C5.94568 19.5426 6.20982 19.71 6.5 19.71V18.96ZM18.5 18.96V19.71C18.7902 19.71 19.0543 19.5426 19.1782 19.2802L18.5 18.96ZM21.5 15.96L21.8026 16.6462C22.0749 16.5261 22.2504 16.2564 22.25 15.9589C22.2496 15.6613 22.0732 15.3921 21.8006 15.2729L21.5 15.96ZM3.14904 15.2981C2.78297 15.492 2.64335 15.9459 2.83718 16.3119C3.03101 16.678 3.4849 16.8176 3.85096 16.6238L3.14904 15.2981ZM5.03033 8.31263C4.73744 8.01973 4.26256 8.01973 3.96967 8.31263C3.67678 8.60552 3.67678 9.08039 3.96967 9.37329L5.03033 8.31263ZM21.149 16.6238C21.5151 16.8176 21.969 16.678 22.1628 16.3119C22.3567 15.9459 22.217 15.492 21.851 15.2981L21.149 16.6238ZM21.0303 9.37329C21.3232 9.08039 21.3232 8.60552 21.0303 8.31263C20.7374 8.01973 20.2626 8.01973 19.9697 8.31263L21.0303 9.37329ZM18.132 7.84196C18.132 4.73149 15.6105 2.20996 12.5 2.20996V3.70996C14.782 3.70996 16.632 5.55992 16.632 7.84196H18.132ZM12.5 2.20996C9.38953 2.20996 6.868 4.73149 6.868 7.84196H8.368C8.368 5.55992 10.218 3.70996 12.5 3.70996V2.20996ZM6.868 7.84196C6.868 10.0088 6.80455 11.453 6.33247 12.5706C5.89034 13.6174 5.04381 14.4656 3.1993 15.2729L3.8007 16.647C5.86119 15.7453 7.07366 14.671 7.71428 13.1543C8.32495 11.7085 8.368 9.94816 8.368 7.84196H6.868ZM3.19737 16.6462C4.25004 17.1104 4.59204 17.2742 4.84467 17.5268C5.10502 17.7871 5.29654 18.1677 5.82179 19.2802L7.17821 18.6397C6.70346 17.6342 6.39498 16.9558 5.90533 16.4661C5.40796 15.9688 4.74996 15.6915 3.80263 15.2737L3.19737 16.6462ZM6.5 19.71C7.80611 19.71 8.66928 20.1348 9.5029 20.6111C10.3068 21.0705 11.2549 21.71 12.5 21.71V20.21C11.7451 20.21 11.1932 19.8494 10.2471 19.3088C9.33072 18.7851 8.19389 18.21 6.5 18.21V19.71ZM12.5 21.71C13.7451 21.71 14.6932 21.0705 15.4971 20.6111C16.3307 20.1348 17.1939 19.71 18.5 19.71V18.21C16.8061 18.21 15.6693 18.7851 14.7529 19.3088C13.8068 19.8494 13.2549 20.21 12.5 20.21V21.71ZM19.1782 19.2802C19.7035 18.1677 19.895 17.7871 20.1553 17.5268C20.408 17.2742 20.75 17.1104 21.8026 16.6462L21.1974 15.2737C20.25 15.6915 19.592 15.9688 19.0947 16.4661C18.605 16.9558 18.2965 17.6342 17.8218 18.6397L19.1782 19.2802ZM21.8006 15.2729C19.9556 14.4656 19.1092 13.6174 18.6672 12.5707C18.1952 11.453 18.132 10.0089 18.132 7.84196H16.632C16.632 9.94806 16.6748 11.7084 17.2853 13.1542C17.9258 14.671 19.1384 15.7453 21.1994 16.6471L21.8006 15.2729ZM3.85096 16.6238C5.87027 15.5546 7.20066 14.3633 7.37053 12.8145C7.5373 11.2939 6.5329 9.8152 5.03033 8.31263L3.96967 9.37329C5.4671 10.8707 5.9627 11.892 5.87947 12.6509C5.79934 13.3816 5.12973 14.2494 3.14904 15.2981L3.85096 16.6238ZM21.851 15.2981C19.8703 14.2494 19.2007 13.3816 19.1205 12.6509C19.0373 11.892 19.5329 10.8707 21.0303 9.37329L19.9697 8.31263C18.4671 9.8152 17.4627 11.2939 17.6295 12.8145C17.7993 14.3633 19.1297 15.5546 21.149 16.6238L21.851 15.2981Z" fill="#2F2B3D" fill-opacity="0.9"/>
</svg>
