<svg width="25" height="24" viewBox="0 0 25 24" fill="none" xmlns="http://www.w3.org/2000/svg">
<path d="M3.5 18V6H8C9.65685 6 11 7.34315 11 9C11 10.6569 9.65685 12 8 12C9.65685 12 11 13.3431 11 15C11 16.6569 9.65685 18 8 18H3.5" stroke="#E1DEF5" stroke-opacity="0.7" stroke-width="1.5" stroke-linecap="round" stroke-linejoin="round"/>
<path d="M3.5 12H8" stroke="#E1DEF5" stroke-opacity="0.7" stroke-width="1.5" stroke-linecap="round" stroke-linejoin="round"/>
<path d="M14.5 13H21.5C21.5 11.067 19.933 9.5 18 9.5C16.067 9.5 14.5 11.067 14.5 13V15C14.7119 16.5377 15.9111 17.7521 17.446 17.9833C18.9809 18.2144 20.4847 17.4071 21.14 16" stroke="#E1DEF5" stroke-opacity="0.7" stroke-width="1.5" stroke-linecap="round" stroke-linejoin="round"/>
<path d="M16.5 6H19.5" stroke="#E1DEF5" stroke-opacity="0.7" stroke-width="1.5" stroke-linecap="round" stroke-linejoin="round"/>
</svg>
