<svg width="25" height="24" viewBox="0 0 25 24" fill="none" xmlns="http://www.w3.org/2000/svg">
<path d="M11.5359 5.05811C7.53368 5.54427 4.51836 8.93234 4.49984 12.964C4.48133 16.9956 7.46541 20.4112 11.463 20.9341C15.4607 21.457 19.2229 18.9239 20.2419 15.0231" stroke="#2F2B3D" stroke-opacity="0.9" stroke-width="1.5" stroke-linecap="round" stroke-linejoin="round"/>
<path d="M12.5 21V10L5 14" stroke="#2F2B3D" stroke-opacity="0.9" stroke-width="1.5" stroke-linecap="round" stroke-linejoin="round"/>
<path d="M18 3.00001C19.3807 3.00001 20.5 4.11929 20.5 5.50001C20.5 6.88072 19.3807 8.00001 18 8.00001L6.99997 3.00001C5.74788 2.99737 4.68695 3.9214 4.51766 5.16199C4.34837 6.40259 5.12295 7.57708 6.32997 7.91001" stroke="#2F2B3D" stroke-opacity="0.9" stroke-width="1.5" stroke-linecap="round" stroke-linejoin="round"/>
<path d="M9.5 12V20" stroke="#2F2B3D" stroke-opacity="0.9" stroke-width="1.5" stroke-linecap="round" stroke-linejoin="round"/>
<path d="M16.5 13H16.49" stroke="#2F2B3D" stroke-opacity="0.9" stroke-width="1.5" stroke-linecap="round" stroke-linejoin="round"/>
</svg>
