<svg width="25" height="24" viewBox="0 0 25 24" fill="none" xmlns="http://www.w3.org/2000/svg">
<path d="M5.03003 17.05L11.18 5.33H11.16C11.54 4.59 12.44 4.31 13.17 4.7C13.43 4.84 13.65 5.06 13.79 5.32L14.85 7.33" stroke="#E1DEF5" stroke-opacity="0.7" stroke-width="1.5" stroke-linecap="round" stroke-linejoin="round"/>
<path d="M15.9699 6.45C16.5499 5.86 17.4999 5.86 18.0799 6.44C18.2999 6.66 18.4399 6.94 18.4899 7.25L19.9899 16.36C20.0899 16.98 19.7899 17.6 19.2299 17.9L13.1599 20.8C12.6999 21.05 12.1499 21.06 11.6999 20.8L5.67994 17.88C5.12994 17.57 4.82994 16.96 4.92994 16.34L6.88994 4.3C7.00994 3.48 7.77994 2.92 8.58994 3.05C9.04994 3.12 9.45994 3.41 9.67994 3.82L10.9199 5.58" stroke="#E1DEF5" stroke-opacity="0.7" stroke-width="1.5" stroke-linecap="round" stroke-linejoin="round"/>
<path d="M5.06995 17.18L15.9999 6.5" stroke="#E1DEF5" stroke-opacity="0.7" stroke-width="1.5" stroke-linecap="round" stroke-linejoin="round"/>
</svg>
