<svg width="25" height="24" viewBox="0 0 25 24" fill="none" xmlns="http://www.w3.org/2000/svg">
<path d="M6.5 4L7.24246 4.10607C7.24748 4.07093 7.25 4.03549 7.25 4H6.5ZM4.5 18L3.75754 17.8939C3.75252 17.9291 3.75 17.9645 3.75 18H4.5ZM8.3 19V19.75C8.64679 19.75 8.94836 19.5122 9.02929 19.175L8.3 19ZM9.5 14L10.2293 14.175C10.2334 14.1579 10.2369 14.1407 10.2398 14.1233L9.5 14ZM18.3802 6.55355C18.0232 6.34353 17.5635 6.46271 17.3535 6.81973C17.1435 7.17676 17.2627 7.63643 17.6197 7.84645L18.3802 6.55355ZM12.9 16.5V15.75C12.5333 15.75 12.2204 16.0151 12.1602 16.3767L12.9 16.5ZM12.3 20.1L13.0348 20.2498C13.0366 20.241 13.0383 20.2322 13.0398 20.2233L12.3 20.1ZM11.3 20.9L11.3151 20.1501C11.3101 20.15 11.305 20.15 11.3 20.15V20.9ZM8.59997 20.9V20.15C8.59491 20.15 8.58985 20.15 8.58479 20.1502L8.59997 20.9ZM8.09997 20.3L8.83479 20.4502C8.83777 20.4355 8.84032 20.4208 8.84243 20.4061L8.09997 20.3ZM9.04243 19.0061C9.10101 18.596 8.81609 18.2161 8.40604 18.1575C7.99599 18.099 7.61609 18.3839 7.55751 18.7939L9.04243 19.0061ZM10.5 13.75H13V12.25H10.5V13.75ZM13 13.75C14.4939 13.75 15.9251 13.0106 16.9678 11.9678C18.0106 10.9251 18.75 9.49392 18.75 8H17.25C17.25 9.00608 16.7394 10.0749 15.9072 10.9072C15.0749 11.7394 14.0061 12.25 13 12.25V13.75ZM18.75 8C18.75 6.34022 18.2216 4.8883 17.1966 3.8485C16.17 2.80698 14.7151 2.25 13 2.25V3.75C14.3849 3.75 15.43 4.19302 16.1284 4.9015C16.8284 5.6117 17.25 6.65978 17.25 8H18.75ZM13 2.25H7.5V3.75H13V2.25ZM7.5 2.25C7.00608 2.25 6.57493 2.48941 6.28217 2.78217C5.98941 3.07493 5.75 3.50608 5.75 4H7.25C7.25 3.99392 7.26059 3.92507 7.34283 3.84283C7.42507 3.76059 7.49392 3.75 7.5 3.75V2.25ZM5.75754 3.89393L3.75754 17.8939L5.24246 18.1061L7.24246 4.10607L5.75754 3.89393ZM3.75 18C3.75 18.4939 3.98941 18.9251 4.28217 19.2178C4.57493 19.5106 5.00608 19.75 5.5 19.75V18.25C5.49392 18.25 5.42507 18.2394 5.34283 18.1572C5.26059 18.0749 5.25 18.0061 5.25 18H3.75ZM5.5 19.75H8.3V18.25H5.5V19.75ZM9.02929 19.175L10.2293 14.175L8.77071 13.825L7.57071 18.825L9.02929 19.175ZM10.2398 14.1233C10.2763 13.9045 10.3359 13.8136 10.3621 13.7853C10.3721 13.7745 10.3796 13.7697 10.3898 13.7656C10.4015 13.7608 10.4341 13.75 10.5 13.75V12.25C10.0152 12.25 9.58273 12.4202 9.2629 12.7647C8.96413 13.0864 8.82374 13.4955 8.7602 13.8767L10.2398 14.1233ZM17.6197 7.84645C19.0379 8.68066 19.75 10.1983 19.75 12H21.25C21.25 9.80172 20.3621 7.71933 18.3802 6.55355L17.6197 7.84645ZM19.75 12C19.75 12.9894 19.255 13.9198 18.4463 14.6207C17.6354 15.3235 16.557 15.75 15.5 15.75V17.25C16.9429 17.25 18.3646 16.6765 19.4287 15.7543C20.4949 14.8302 21.25 13.5106 21.25 12H19.75ZM15.5 15.75H12.9V17.25H15.5V15.75ZM12.1602 16.3767L11.5602 19.9767L13.0398 20.2233L13.6398 16.6233L12.1602 16.3767ZM11.5651 19.9501C11.541 20.0684 11.4358 20.1526 11.3151 20.1501L11.2848 21.6498C12.1297 21.6669 12.866 21.0778 13.0348 20.2498L11.5651 19.9501ZM11.3 20.15H8.59997V21.65H11.3V20.15ZM8.58479 20.1502C8.66074 20.1486 8.73327 20.1817 8.7819 20.2401L7.62957 21.2003C7.87274 21.4921 8.2354 21.6575 8.61516 21.6498L8.58479 20.1502ZM8.7819 20.2401C8.83054 20.2984 8.85 20.3757 8.83479 20.4502L7.36516 20.1498C7.28911 20.522 7.3864 20.9085 7.62957 21.2003L8.7819 20.2401ZM8.84243 20.4061L9.04243 19.0061L7.55751 18.7939L7.35751 20.1939L8.84243 20.4061Z" fill="#2F2B3D" fill-opacity="0.9"/>
</svg>
