<svg width="25" height="24" viewBox="0 0 25 24" fill="none" xmlns="http://www.w3.org/2000/svg">
<path d="M17.964 6.51801C16.5954 3.50615 13.0475 2.17001 10.0321 3.53087C7.01671 4.89174 5.67144 8.43625 7.02455 11.4551C8.37766 14.474 11.9187 15.8284 14.941 14.483" stroke="#ACAAB1" stroke-width="1.5" stroke-linecap="round" stroke-linejoin="round"/>
<path d="M17.982 17.464C20.9939 16.0954 22.33 12.5475 20.9692 9.53208C19.6083 6.51671 16.0638 5.17144 13.0449 6.52455C10.0261 7.87766 8.67171 11.4187 10.017 14.441" stroke="#ACAAB1" stroke-width="1.5" stroke-linecap="round" stroke-linejoin="round"/>
<path d="M7.04004 17.482C8.40843 20.4939 11.9562 21.8303 14.9716 20.4697C17.9871 19.1092 19.3327 15.5649 17.98 12.5459C16.6273 9.52696 13.0865 8.17213 10.064 9.51698" stroke="#ACAAB1" stroke-width="1.5" stroke-linecap="round" stroke-linejoin="round"/>
<path d="M7.01802 6.53998C4.00612 7.90837 2.66972 11.4561 4.03027 14.4716C5.39082 17.487 8.9351 18.8326 11.9541 17.4799C14.973 16.1272 16.3279 12.5865 14.983 9.56398" stroke="#ACAAB1" stroke-width="1.5" stroke-linecap="round" stroke-linejoin="round"/>
</svg>
