<svg width="25" height="24" viewBox="0 0 25 24" fill="none" xmlns="http://www.w3.org/2000/svg">
<path fill-rule="evenodd" clip-rule="evenodd" d="M19.5 6.87298C20.1235 7.23291 20.5054 7.90012 20.5 8.61998V15.156C20.4998 15.8823 20.1059 16.5514 19.471 16.904L13.471 20.737C12.8671 21.0724 12.1329 21.0724 11.529 20.737L5.529 16.904C4.89437 16.5515 4.50053 15.8829 4.5 15.157V8.61998C4.50017 7.8937 4.89406 7.22459 5.529 6.87198L11.529 3.29998C12.1507 2.95388 12.9073 2.95388 13.529 3.29998L19.529 6.87298H19.5V6.87298Z" stroke="#E1DEF5" stroke-opacity="0.4" stroke-width="1.5" stroke-linecap="round" stroke-linejoin="round"/>
<path fill-rule="evenodd" clip-rule="evenodd" d="M16 9.43003C16.3119 9.61008 16.5029 9.94392 16.5 10.304V13.572C16.4998 13.9353 16.3027 14.2699 15.985 14.446L12.985 16.363C12.6833 16.5303 12.3167 16.5303 12.015 16.363L9.015 14.446C8.69765 14.27 8.50055 13.9359 8.5 13.573V10.304C8.49999 9.941 8.69672 9.60647 9.014 9.43003L12.014 7.64403C12.325 7.47103 12.704 7.47103 13.014 7.64403L16.014 9.43103H16V9.43003Z" stroke="#E1DEF5" stroke-opacity="0.4" stroke-width="1.5" stroke-linecap="round" stroke-linejoin="round"/>
<path d="M12.5 21V12L5 7.5" stroke="#E1DEF5" stroke-opacity="0.4" stroke-width="1.5" stroke-linecap="round" stroke-linejoin="round"/>
<path d="M12.5 12L20 7.5" stroke="#E1DEF5" stroke-opacity="0.4" stroke-width="1.5" stroke-linecap="round" stroke-linejoin="round"/>
<path d="M12.5 3V7.5" stroke="#E1DEF5" stroke-opacity="0.4" stroke-width="1.5" stroke-linecap="round" stroke-linejoin="round"/>
<path d="M20 16L16.5 14" stroke="#E1DEF5" stroke-opacity="0.4" stroke-width="1.5" stroke-linecap="round" stroke-linejoin="round"/>
<path d="M8.5 14L5 16" stroke="#E1DEF5" stroke-opacity="0.4" stroke-width="1.5" stroke-linecap="round" stroke-linejoin="round"/>
</svg>
