<svg width="25" height="24" viewBox="0 0 25 24" fill="none" xmlns="http://www.w3.org/2000/svg">
<path d="M12.5 9H5.5C4.39543 9 3.5 9.89543 3.5 11V15C3.5 16.1046 4.39543 17 5.5 17H8.5" stroke="#2F2B3D" stroke-opacity="0.9" stroke-width="1.5" stroke-linecap="round" stroke-linejoin="round"/>
<path d="M12.5 15H19.5C20.6046 15 21.5 14.1046 21.5 13V9C21.5 7.89543 20.6046 7 19.5 7H16.5" stroke="#2F2B3D" stroke-opacity="0.9" stroke-width="1.5" stroke-linecap="round" stroke-linejoin="round"/>
<path d="M8.5 9V5C8.5 3.89543 9.39543 3 10.5 3H14.5C15.6046 3 16.5 3.89543 16.5 5V10C16.5 11.1046 15.6046 12 14.5 12H10.5C9.39543 12 8.5 12.8954 8.5 14V19C8.5 20.1046 9.39543 21 10.5 21H14.5C15.6046 21 16.5 20.1046 16.5 19V15" stroke="#2F2B3D" stroke-opacity="0.9" stroke-width="1.5" stroke-linecap="round" stroke-linejoin="round"/>
<path d="M11.5 5.99988V6.00988" stroke="#2F2B3D" stroke-opacity="0.9" stroke-width="1.5" stroke-linecap="round" stroke-linejoin="round"/>
<path d="M13.5 17.9999V18.0099" stroke="#2F2B3D" stroke-opacity="0.9" stroke-width="1.5" stroke-linecap="round" stroke-linejoin="round"/>
</svg>
