<svg width="25" height="24" viewBox="0 0 25 24" fill="none" xmlns="http://www.w3.org/2000/svg">
<path d="M6.857 9C4.22 9.68 2.5 10.845 2.5 12.175C2.5 14.282 6.905 16 12.35 16C13.09 16 13.61 15.961 14.3 15.903" stroke="#2F2B3D" stroke-opacity="0.9" stroke-width="1.5" stroke-linecap="round" stroke-linejoin="round"/>
<path d="M10.3371 15.9002C9.92411 15.3042 9.53111 14.7672 9.15711 14.1002C6.40611 9.20022 5.66911 4.33022 7.52711 3.22722C8.67711 2.53022 10.5741 3.48022 12.5011 5.48122" stroke="#2F2B3D" stroke-opacity="0.9" stroke-width="1.5" stroke-linecap="round" stroke-linejoin="round"/>
<path d="M6.92897 15.387C6.22697 18.075 6.36897 20.103 7.48897 20.782C9.27197 21.862 12.876 18.824 15.532 13.978C15.892 13.308 16.215 12.649 16.5 12" stroke="#2F2B3D" stroke-opacity="0.9" stroke-width="1.5" stroke-linecap="round" stroke-linejoin="round"/>
<path d="M12.5 18.5201C14.428 20.5201 16.317 21.4701 17.478 20.7731C19.328 19.6711 18.599 14.8011 15.845 9.9001C15.461 9.2231 15.068 8.6961 14.665 8.1001" stroke="#2F2B3D" stroke-opacity="0.9" stroke-width="1.5" stroke-linecap="round" stroke-linejoin="round"/>
<path d="M18.16 15C20.772 14.313 22.5 13.15 22.5 11.824C22.5 9.714 18.092 8 12.655 8C11.908 8 11.389 8.029 10.7 8.087" stroke="#2F2B3D" stroke-opacity="0.9" stroke-width="1.5" stroke-linecap="round" stroke-linejoin="round"/>
<path d="M8.5 11.9998C8.785 11.3398 9.107 10.6918 9.468 10.0218C12.115 5.17776 15.721 2.13176 17.514 3.22076C18.624 3.89976 18.776 5.92676 18.074 8.61376" stroke="#2F2B3D" stroke-opacity="0.9" stroke-width="1.5" stroke-linecap="round" stroke-linejoin="round"/>
<path d="M12.76 12.0148H12.75C12.74 12.1448 12.63 12.2548 12.49 12.2548C12.351 12.2479 12.2414 12.134 12.24 11.9948C12.24 11.8548 12.35 11.7448 12.48 11.7448H12.47C12.6 11.7348 12.72 11.8548 12.72 11.9848" stroke="#2F2B3D" stroke-opacity="0.9" stroke-width="1.5" stroke-linecap="round" stroke-linejoin="round"/>
</svg>
