<svg width="25" height="24" viewBox="0 0 25 24" fill="none" xmlns="http://www.w3.org/2000/svg">
<path fill-rule="evenodd" clip-rule="evenodd" d="M9.5 6.99998C6.5 6.99998 5.5 9.99998 5.5 12.5C5.5 15.5 7.5 20 9.5 20C10.588 19.954 11.179 19.5 12.5 19.5C13.812 19.5 14 20 15.5 20C17 20 19.5 17 19.5 15C19.472 14.99 17.028 14.597 17 12C16.981 9.82998 19.416 9.04598 19.5 8.99998C18.477 7.50798 16.549 7.03698 16 6.99998C14.567 6.88898 13.17 7.99998 12.5 7.99998C11.82 7.99998 10.6 6.99998 9.5 6.99998Z" stroke="#2F2B3D" stroke-opacity="0.9" stroke-width="1.5" stroke-linecap="round" stroke-linejoin="round"/>
<path d="M12.5 4C13.6046 4 14.5 3.10457 14.5 2C13.3954 2 12.5 2.89543 12.5 4" stroke="#2F2B3D" stroke-opacity="0.9" stroke-width="1.5" stroke-linecap="round" stroke-linejoin="round"/>
</svg>
