<svg width="25" height="24" viewBox="0 0 25 24" fill="none" xmlns="http://www.w3.org/2000/svg">
<path d="M17.964 6.51789C16.5954 3.50603 13.0475 2.16988 10.0321 3.53075C7.01671 4.89162 5.67144 8.43613 7.02455 11.455C8.37766 14.4738 11.9187 15.8282 14.941 14.4829" stroke="#2F2B3D" stroke-opacity="0.9" stroke-width="1.5" stroke-linecap="round" stroke-linejoin="round"/>
<path d="M17.982 17.4639C20.9939 16.0953 22.33 12.5473 20.9692 9.53196C19.6083 6.51659 16.0638 5.17132 13.0449 6.52443C10.0261 7.87754 8.67171 11.4186 10.017 14.4409" stroke="#2F2B3D" stroke-opacity="0.9" stroke-width="1.5" stroke-linecap="round" stroke-linejoin="round"/>
<path d="M7.04004 17.4818C8.40843 20.4937 11.9562 21.8301 14.9716 20.4695C17.9871 19.109 19.3327 15.5647 17.98 12.5457C16.6273 9.52678 13.0865 8.17194 10.064 9.5168" stroke="#2F2B3D" stroke-opacity="0.9" stroke-width="1.5" stroke-linecap="round" stroke-linejoin="round"/>
<path d="M7.01802 6.54004C4.00612 7.90843 2.66972 11.4562 4.03027 14.4716C5.39082 17.4871 8.9351 18.8327 11.9541 17.48C14.973 16.1273 16.3279 12.5865 14.983 9.56404" stroke="#2F2B3D" stroke-opacity="0.9" stroke-width="1.5" stroke-linecap="round" stroke-linejoin="round"/>
</svg>
