<svg width="25" height="24" viewBox="0 0 25 24" fill="none" xmlns="http://www.w3.org/2000/svg">
<path d="M9.5 9V8C9.5 6.34315 10.8431 5 12.5 5C14.1569 5 15.5 6.34315 15.5 8V9" stroke="#6D6B77" stroke-width="1.5" stroke-linecap="round" stroke-linejoin="round"/>
<path d="M8.5 9H16.5C17.0956 9.89259 17.4409 10.9286 17.5 12V15C17.5 17.7614 15.2614 20 12.5 20C9.73858 20 7.5 17.7614 7.5 15V12C7.55907 10.9286 7.9044 9.89259 8.5 9" stroke="#6D6B77" stroke-width="1.5" stroke-linecap="round" stroke-linejoin="round"/>
<path d="M3.5 13H7.5" stroke="#6D6B77" stroke-width="1.5" stroke-linecap="round" stroke-linejoin="round"/>
<path d="M17.5 13H21.5" stroke="#6D6B77" stroke-width="1.5" stroke-linecap="round" stroke-linejoin="round"/>
<path d="M12.5 20V14" stroke="#6D6B77" stroke-width="1.5" stroke-linecap="round" stroke-linejoin="round"/>
<path d="M4.5 19L7.85 17" stroke="#6D6B77" stroke-width="1.5" stroke-linecap="round" stroke-linejoin="round"/>
<path d="M20.5 19L17.15 17" stroke="#6D6B77" stroke-width="1.5" stroke-linecap="round" stroke-linejoin="round"/>
<path d="M4.5 7L8.25 9.4" stroke="#6D6B77" stroke-width="1.5" stroke-linecap="round" stroke-linejoin="round"/>
<path d="M20.5 7L16.75 9.4" stroke="#6D6B77" stroke-width="1.5" stroke-linecap="round" stroke-linejoin="round"/>
</svg>
