<svg width="25" height="24" viewBox="0 0 25 24" fill="none" xmlns="http://www.w3.org/2000/svg">
<path d="M4.5 21C5.647 16.98 6.483 12.973 6.5 9H12.5C12.517 12.973 13.353 16.98 14.5 21" stroke="#2F2B3D" stroke-opacity="0.9" stroke-width="1.5" stroke-linecap="round" stroke-linejoin="round"/>
<path d="M13 13H17.5C17.525 15.612 18.394 18.296 19.5 21" stroke="#2F2B3D" stroke-opacity="0.9" stroke-width="1.5" stroke-linecap="round" stroke-linejoin="round"/>
<path d="M9.5 5.00004C9.96118 4.35753 10.7093 3.98348 11.5 4.00004C12.2907 3.98348 13.0388 4.35753 13.5 5.00004C13.9612 5.64255 14.7093 6.0166 15.5 6.00004C16.2907 6.0166 17.0388 5.64255 17.5 5.00004C17.9612 4.35753 18.7093 3.98348 19.5 4.00004C20.2907 3.98348 21.0388 4.35753 21.5 5.00004" stroke="#2F2B3D" stroke-opacity="0.9" stroke-width="1.5" stroke-linecap="round" stroke-linejoin="round"/>
<path d="M3.5 21H22.5" stroke="#2F2B3D" stroke-opacity="0.9" stroke-width="1.5" stroke-linecap="round" stroke-linejoin="round"/>
</svg>
