<svg width="25" height="24" viewBox="0 0 25 24" fill="none" xmlns="http://www.w3.org/2000/svg">
<path d="M9.03033 8.46967C8.73744 8.17678 8.26256 8.17678 7.96967 8.46967C7.67678 8.76256 7.67678 9.23744 7.96967 9.53033L9.03033 8.46967ZM13.5 14H14.25C14.25 13.8011 14.171 13.6103 14.0303 13.4697L13.5 14ZM13.5 21V21.75C13.9142 21.75 14.25 21.4142 14.25 21H13.5ZM8.5 21H7.75C7.75 21.4142 8.08579 21.75 8.5 21.75V21ZM9.25 17C9.25 16.5858 8.91421 16.25 8.5 16.25C8.08579 16.25 7.75 16.5858 7.75 17H9.25ZM8.5 21.75C8.91421 21.75 9.25 21.4142 9.25 21C9.25 20.5858 8.91421 20.25 8.5 20.25V21.75ZM3.5 21H2.75C2.75 21.4142 3.08579 21.75 3.5 21.75V21ZM3.5 14L2.96967 13.4697C2.82902 13.6103 2.75 13.8011 2.75 14H3.5ZM9.03033 9.53033C9.32322 9.23744 9.32322 8.76256 9.03033 8.46967C8.73744 8.17678 8.26256 8.17678 7.96967 8.46967L9.03033 9.53033ZM8.75 10C8.75 10.4142 9.08579 10.75 9.5 10.75C9.91421 10.75 10.25 10.4142 10.25 10H8.75ZM21.5 21V21.75C21.9142 21.75 22.25 21.4142 22.25 21H21.5ZM13.5 20.25C13.0858 20.25 12.75 20.5858 12.75 21C12.75 21.4142 13.0858 21.75 13.5 21.75V20.25ZM7.96967 9.53033L12.9697 14.5303L14.0303 13.4697L9.03033 8.46967L7.96967 9.53033ZM12.75 14V21H14.25V14H12.75ZM13.5 20.25H8.5V21.75H13.5V20.25ZM9.25 21V17H7.75V21H9.25ZM8.5 20.25H3.5V21.75H8.5V20.25ZM4.25 21V14H2.75V21H4.25ZM4.03033 14.5303L9.03033 9.53033L7.96967 8.46967L2.96967 13.4697L4.03033 14.5303ZM10.25 10V4H8.75V10H10.25ZM10.25 4C10.25 3.86193 10.3619 3.75 10.5 3.75V2.25C9.5335 2.25 8.75 3.0335 8.75 4H10.25ZM10.5 3.75H20.5V2.25H10.5V3.75ZM20.5 3.75C20.6381 3.75 20.75 3.86193 20.75 4H22.25C22.25 3.0335 21.4665 2.25 20.5 2.25V3.75ZM20.75 4V21H22.25V4H20.75ZM21.5 20.25H13.5V21.75H21.5V20.25Z" fill="#2F2B3D" fill-opacity="0.9"/>
<path d="M13.5 6.99988V7.00988" stroke="#2F2B3D" stroke-opacity="0.9" stroke-width="1.5" stroke-linecap="round" stroke-linejoin="round"/>
<path d="M17.5 6.99988V7.00988" stroke="#2F2B3D" stroke-opacity="0.9" stroke-width="1.5" stroke-linecap="round" stroke-linejoin="round"/>
<path d="M17.5 10.9999V11.0099" stroke="#2F2B3D" stroke-opacity="0.9" stroke-width="1.5" stroke-linecap="round" stroke-linejoin="round"/>
<path d="M17.5 14.9999V15.0099" stroke="#2F2B3D" stroke-opacity="0.9" stroke-width="1.5" stroke-linecap="round" stroke-linejoin="round"/>
</svg>
