<svg width="25" height="24" viewBox="0 0 25 24" fill="none" xmlns="http://www.w3.org/2000/svg">
<path d="M3.5 21H21.5" stroke="#E1DEF5" stroke-opacity="0.7" stroke-width="1.5" stroke-linecap="round" stroke-linejoin="round"/>
<path d="M4.25 7C4.25 6.58579 3.91421 6.25 3.5 6.25C3.08579 6.25 2.75 6.58579 2.75 7H4.25ZM10.25 7C10.25 6.58579 9.91421 6.25 9.5 6.25C9.08579 6.25 8.75 6.58579 8.75 7H10.25ZM10.25 8C10.25 7.58579 9.91421 7.25 9.5 7.25C9.08579 7.25 8.75 7.58579 8.75 8H10.25ZM16.25 7C16.25 6.58579 15.9142 6.25 15.5 6.25C15.0858 6.25 14.75 6.58579 14.75 7H16.25ZM16.25 8C16.25 7.58579 15.9142 7.25 15.5 7.25C15.0858 7.25 14.75 7.58579 14.75 8H16.25ZM21.5 7H22.25C22.25 6.58579 21.9142 6.25 21.5 6.25V7ZM3.5 7L2.82918 6.66459C2.71293 6.89708 2.72536 7.17319 2.86201 7.3943C2.99867 7.61541 3.24007 7.75 3.5 7.75V7ZM5.5 3V2.25C5.21592 2.25 4.95622 2.4105 4.82918 2.66459L5.5 3ZM19.5 3L20.1708 2.66459C20.0438 2.4105 19.7841 2.25 19.5 2.25V3ZM20.8292 7.33541C21.0144 7.70589 21.4649 7.85606 21.8354 7.67082C22.2059 7.48558 22.3561 7.03507 22.1708 6.66459L20.8292 7.33541ZM2.75 7V8H4.25V7H2.75ZM2.75 8C2.75 10.0711 4.42893 11.75 6.5 11.75V10.25C5.25736 10.25 4.25 9.24264 4.25 8H2.75ZM6.5 11.75C8.57107 11.75 10.25 10.0711 10.25 8H8.75C8.75 9.24264 7.74264 10.25 6.5 10.25V11.75ZM10.25 8V7H8.75V8H10.25ZM8.75 8C8.75 10.0711 10.4289 11.75 12.5 11.75V10.25C11.2574 10.25 10.25 9.24264 10.25 8H8.75ZM12.5 11.75C14.5711 11.75 16.25 10.0711 16.25 8H14.75C14.75 9.24264 13.7426 10.25 12.5 10.25V11.75ZM16.25 8V7H14.75V8H16.25ZM14.75 8C14.75 10.0711 16.4289 11.75 18.5 11.75V10.25C17.2574 10.25 16.25 9.24264 16.25 8H14.75ZM18.5 11.75C20.5711 11.75 22.25 10.0711 22.25 8H20.75C20.75 9.24264 19.7426 10.25 18.5 10.25V11.75ZM22.25 8V7H20.75V8H22.25ZM21.5 6.25H3.5V7.75H21.5V6.25ZM4.17082 7.33541L6.17082 3.33541L4.82918 2.66459L2.82918 6.66459L4.17082 7.33541ZM5.5 3.75H19.5V2.25H5.5V3.75ZM18.8292 3.33541L20.8292 7.33541L22.1708 6.66459L20.1708 2.66459L18.8292 3.33541Z" fill="#E1DEF5" fill-opacity="0.7"/>
<path d="M5.5 21V10.85" stroke="#E1DEF5" stroke-opacity="0.7" stroke-width="1.5" stroke-linecap="round" stroke-linejoin="round"/>
<path d="M19.5 21V10.85" stroke="#E1DEF5" stroke-opacity="0.7" stroke-width="1.5" stroke-linecap="round" stroke-linejoin="round"/>
<path d="M9.5 21V17C9.5 15.8954 10.3954 15 11.5 15H13.5C14.6046 15 15.5 15.8954 15.5 17V21" stroke="#E1DEF5" stroke-opacity="0.7" stroke-width="1.5" stroke-linecap="round" stroke-linejoin="round"/>
</svg>
