<svg width="25" height="24" viewBox="0 0 25 24" fill="none" xmlns="http://www.w3.org/2000/svg">
<path d="M7.5 20.25C7.08579 20.25 6.75 20.5858 6.75 21C6.75 21.4142 7.08579 21.75 7.5 21.75V20.25ZM14.75 19C14.75 19.4142 15.0858 19.75 15.5 19.75C15.9142 19.75 16.25 19.4142 16.25 19H14.75ZM18.5 20.25C18.0858 20.25 17.75 20.5858 17.75 21C17.75 21.4142 18.0858 21.75 18.5 21.75V20.25ZM20.5 5H21.25C21.25 4.74924 21.1247 4.51506 20.916 4.37596L20.5 5ZM17.5 3L17.916 2.37596C17.6641 2.20801 17.3359 2.20801 17.084 2.37596L17.5 3ZM14.5 5L14.084 4.37596C13.8753 4.51506 13.75 4.74924 13.75 5H14.5ZM14.5 11V11.75C14.9142 11.75 15.25 11.4142 15.25 11H14.5ZM10.5 11H9.75C9.75 11.4142 10.0858 11.75 10.5 11.75V11ZM10.5 5H11.25C11.25 4.74924 11.1247 4.51506 10.916 4.37596L10.5 5ZM7.5 3L7.91603 2.37596C7.6641 2.20801 7.3359 2.20801 7.08397 2.37596L7.5 3ZM4.5 5L4.08397 4.37596C3.87533 4.51506 3.75 4.74924 3.75 5H4.5ZM7.5 21.75C7.91421 21.75 8.25 21.4142 8.25 21C8.25 20.5858 7.91421 20.25 7.5 20.25V21.75ZM16.25 19C16.25 18.5858 15.9142 18.25 15.5 18.25C15.0858 18.25 14.75 18.5858 14.75 19H16.25ZM18.5 21.75C18.9142 21.75 19.25 21.4142 19.25 21C19.25 20.5858 18.9142 20.25 18.5 20.25V21.75ZM7.5 21.75H8.5V20.25H7.5V21.75ZM8.5 21.75C9.4665 21.75 10.25 20.9665 10.25 20H8.75C8.75 20.1381 8.63807 20.25 8.5 20.25V21.75ZM10.25 20V19H8.75V20H10.25ZM10.25 19C10.25 17.7574 11.2574 16.75 12.5 16.75V15.25C10.4289 15.25 8.75 16.9289 8.75 19H10.25ZM12.5 16.75C13.7426 16.75 14.75 17.7574 14.75 19H16.25C16.25 16.9289 14.5711 15.25 12.5 15.25V16.75ZM18.5 21.75H19.5V20.25H18.5V21.75ZM19.5 21.75C20.4665 21.75 21.25 20.9665 21.25 20H19.75C19.75 20.1381 19.6381 20.25 19.5 20.25V21.75ZM21.25 20V5H19.75V20H21.25ZM20.916 4.37596L17.916 2.37596L17.084 3.62404L20.084 5.62404L20.916 4.37596ZM17.084 2.37596L14.084 4.37596L14.916 5.62404L17.916 3.62404L17.084 2.37596ZM13.75 5V11H15.25V5H13.75ZM14.5 10.25H10.5V11.75H14.5V10.25ZM11.25 11V5H9.75V11H11.25ZM10.916 4.37596L7.91603 2.37596L7.08397 3.62404L10.084 5.62404L10.916 4.37596ZM7.08397 2.37596L4.08397 4.37596L4.91603 5.62404L7.91603 3.62404L7.08397 2.37596ZM3.75 5V20H5.25V5H3.75ZM3.75 20C3.75 20.9665 4.5335 21.75 5.5 21.75V20.25C5.36193 20.25 5.25 20.1381 5.25 20H3.75ZM5.5 21.75H7.5V20.25H5.5V21.75ZM14.75 19V20H16.25V19H14.75ZM14.75 20C14.75 20.9665 15.5335 21.75 16.5 21.75V20.25C16.3619 20.25 16.25 20.1381 16.25 20H14.75ZM16.5 21.75H18.5V20.25H16.5V21.75Z" fill="#6D6B77"/>
<path d="M7.5 7V7V7.01" stroke="#6D6B77" stroke-width="1.5" stroke-linecap="round" stroke-linejoin="round"/>
<path d="M7.5 10V10V10.01" stroke="#6D6B77" stroke-width="1.5" stroke-linecap="round" stroke-linejoin="round"/>
<path d="M7.5 13V13V13.01" stroke="#6D6B77" stroke-width="1.5" stroke-linecap="round" stroke-linejoin="round"/>
<path d="M17.5 7V7V7.01" stroke="#6D6B77" stroke-width="1.5" stroke-linecap="round" stroke-linejoin="round"/>
<path d="M17.5 10V10V10.01" stroke="#6D6B77" stroke-width="1.5" stroke-linecap="round" stroke-linejoin="round"/>
<path d="M17.5 13V13V13.01" stroke="#6D6B77" stroke-width="1.5" stroke-linecap="round" stroke-linejoin="round"/>
</svg>
