<svg width="25" height="24" viewBox="0 0 25 24" fill="none" xmlns="http://www.w3.org/2000/svg">
<path d="M3.5 21H21.5" stroke="#E1DEF5" stroke-opacity="0.7" stroke-width="1.5" stroke-linecap="round" stroke-linejoin="round"/>
<path d="M10.5 21V17C10.5 15.8954 11.3954 15 12.5 15C13.6046 15 14.5 15.8954 14.5 17V21" stroke="#E1DEF5" stroke-opacity="0.7" stroke-width="1.5" stroke-linecap="round" stroke-linejoin="round"/>
<path d="M10.5 5H14.5" stroke="#E1DEF5" stroke-opacity="0.7" stroke-width="1.5" stroke-linecap="round" stroke-linejoin="round"/>
<path d="M12.5 3V8" stroke="#E1DEF5" stroke-opacity="0.7" stroke-width="1.5" stroke-linecap="round" stroke-linejoin="round"/>
<path d="M5.75 21C5.75 21.4142 6.08579 21.75 6.5 21.75C6.91421 21.75 7.25 21.4142 7.25 21H5.75ZM7.25 14C7.25 13.5858 6.91421 13.25 6.5 13.25C6.08579 13.25 5.75 13.5858 5.75 14H7.25ZM3.96967 15.4697C3.67678 15.7626 3.67678 16.2374 3.96967 16.5303C4.26256 16.8232 4.73744 16.8232 5.03033 16.5303L3.96967 15.4697ZM12.5 8L13.0303 7.46967C12.7374 7.17678 12.2626 7.17678 11.9697 7.46967L12.5 8ZM19.9697 16.5303C20.2626 16.8232 20.7374 16.8232 21.0303 16.5303C21.3232 16.2374 21.3232 15.7626 21.0303 15.4697L19.9697 16.5303ZM19.25 14C19.25 13.5858 18.9142 13.25 18.5 13.25C18.0858 13.25 17.75 13.5858 17.75 14H19.25ZM17.75 21C17.75 21.4142 18.0858 21.75 18.5 21.75C18.9142 21.75 19.25 21.4142 19.25 21H17.75ZM7.25 21V14H5.75V21H7.25ZM5.03033 16.5303L13.0303 8.53033L11.9697 7.46967L3.96967 15.4697L5.03033 16.5303ZM11.9697 8.53033L19.9697 16.5303L21.0303 15.4697L13.0303 7.46967L11.9697 8.53033ZM17.75 14V21H19.25V14H17.75Z" fill="#E1DEF5" fill-opacity="0.7"/>
</svg>
