<svg width="25" height="24" viewBox="0 0 25 24" fill="none" xmlns="http://www.w3.org/2000/svg">
<path d="M4.5 21C5.647 16.98 6.483 12.973 6.5 9H12.5C12.517 12.973 13.353 16.98 14.5 21" stroke="#E1DEF5" stroke-opacity="0.4" stroke-width="1.5" stroke-linecap="round" stroke-linejoin="round"/>
<path d="M13 13H17.5C17.525 15.612 18.394 18.296 19.5 21" stroke="#E1DEF5" stroke-opacity="0.4" stroke-width="1.5" stroke-linecap="round" stroke-linejoin="round"/>
<path d="M9.5 4.99998C9.96118 4.35747 10.7093 3.98342 11.5 3.99998C12.2907 3.98342 13.0388 4.35747 13.5 4.99998C13.9612 5.64249 14.7093 6.01654 15.5 5.99998C16.2907 6.01654 17.0388 5.64249 17.5 4.99998C17.9612 4.35747 18.7093 3.98342 19.5 3.99998C20.2907 3.98342 21.0388 4.35747 21.5 4.99998" stroke="#E1DEF5" stroke-opacity="0.4" stroke-width="1.5" stroke-linecap="round" stroke-linejoin="round"/>
<path d="M3.5 21H22.5" stroke="#E1DEF5" stroke-opacity="0.4" stroke-width="1.5" stroke-linecap="round" stroke-linejoin="round"/>
</svg>
