<svg width="25" height="24" viewBox="0 0 25 24" fill="none" xmlns="http://www.w3.org/2000/svg">
<path d="M3.5 11.25C3.08579 11.25 2.75 11.5858 2.75 12C2.75 12.4142 3.08579 12.75 3.5 12.75V11.25ZM4.5 12.75C4.91421 12.75 5.25 12.4142 5.25 12C5.25 11.5858 4.91421 11.25 4.5 11.25V12.75ZM13.25 3C13.25 2.58579 12.9142 2.25 12.5 2.25C12.0858 2.25 11.75 2.58579 11.75 3H13.25ZM11.75 4C11.75 4.41421 12.0858 4.75 12.5 4.75C12.9142 4.75 13.25 4.41421 13.25 4H11.75ZM20.5 11.25C20.0858 11.25 19.75 11.5858 19.75 12C19.75 12.4142 20.0858 12.75 20.5 12.75V11.25ZM21.5 12.75C21.9142 12.75 22.25 12.4142 22.25 12C22.25 11.5858 21.9142 11.25 21.5 11.25V12.75ZM6.63028 5.06967C6.33739 4.77677 5.86251 4.77677 5.56962 5.06967C5.27673 5.36256 5.27673 5.83743 5.56962 6.13033L6.63028 5.06967ZM6.26962 6.83033C6.56251 7.12322 7.03739 7.12322 7.33028 6.83033C7.62317 6.53743 7.62317 6.06256 7.33028 5.76967L6.26962 6.83033ZM19.4304 6.13033C19.7233 5.83743 19.7233 5.36256 19.4304 5.06967C19.1375 4.77677 18.6626 4.77677 18.3697 5.06967L19.4304 6.13033ZM17.6697 5.76967C17.3768 6.06256 17.3768 6.53743 17.6697 6.83033C17.9626 7.12322 18.4375 7.12322 18.7304 6.83033L17.6697 5.76967ZM3.5 12.75H4.5V11.25H3.5V12.75ZM11.75 3V4H13.25V3H11.75ZM20.5 12.75H21.5V11.25H20.5V12.75ZM5.56962 6.13033L6.26962 6.83033L7.33028 5.76967L6.63028 5.06967L5.56962 6.13033ZM18.3697 5.06967L17.6697 5.76967L18.7304 6.83033L19.4304 6.13033L18.3697 5.06967Z" fill="#E1DEF5" fill-opacity="0.7"/>
<path d="M9.50008 16C7.77836 14.7087 7.07609 12.4606 7.75666 10.4189C8.43723 8.37715 10.3479 7 12.5001 7C14.6522 7 16.5629 8.37715 17.2435 10.4189C17.9241 12.4606 17.2218 14.7087 15.5001 16C14.7082 16.7838 14.3369 17.8978 14.5001 19C14.5001 20.1046 13.6046 21 12.5001 21C11.3955 21 10.5001 20.1046 10.5001 19C10.6633 17.8978 10.2919 16.7838 9.50008 16" stroke="#E1DEF5" stroke-opacity="0.7" stroke-width="1.5" stroke-linecap="round" stroke-linejoin="round"/>
<path d="M10.2 17H14.8" stroke="#E1DEF5" stroke-opacity="0.7" stroke-width="1.5" stroke-linecap="round" stroke-linejoin="round"/>
</svg>
