<svg width="25" height="24" viewBox="0 0 25 24" fill="none" xmlns="http://www.w3.org/2000/svg">
<circle cx="6.5" cy="17" r="2" stroke="#ACAAB1" stroke-width="1.5" stroke-linecap="round" stroke-linejoin="round"/>
<circle cx="18.5" cy="17" r="2" stroke="#ACAAB1" stroke-width="1.5" stroke-linecap="round" stroke-linejoin="round"/>
<path d="M4.5 17.75C4.91421 17.75 5.25 17.4142 5.25 17C5.25 16.5858 4.91421 16.25 4.5 16.25V17.75ZM2.5 17H1.75C1.75 17.4142 2.08579 17.75 2.5 17.75V17ZM22.5 17V17.75C22.9142 17.75 23.25 17.4142 23.25 17H22.5ZM20.5 16.25C20.0858 16.25 19.75 16.5858 19.75 17C19.75 17.4142 20.0858 17.75 20.5 17.75V16.25ZM16.5 17.75C16.9142 17.75 17.25 17.4142 17.25 17C17.25 16.5858 16.9142 16.25 16.5 16.25V17.75ZM8.5 16.25C8.08579 16.25 7.75 16.5858 7.75 17C7.75 17.4142 8.08579 17.75 8.5 17.75V16.25ZM4.5 16.25H2.5V17.75H4.5V16.25ZM3.25 17V6H1.75V17H3.25ZM3.25 6C3.25 5.86193 3.36193 5.75 3.5 5.75V4.25C2.5335 4.25 1.75 5.0335 1.75 6H3.25ZM3.5 5.75H17.5V4.25H3.5V5.75ZM17.5 5.75C18.5756 5.75 19.6202 6.35911 20.4252 7.48618C21.2293 8.61181 21.75 10.2053 21.75 12H23.25C23.25 9.92871 22.6515 8.02219 21.6458 6.61432C20.6412 5.20789 19.1858 4.25 17.5 4.25V5.75ZM21.75 12V17H23.25V12H21.75ZM22.5 16.25H20.5V17.75H22.5V16.25ZM16.5 16.25H8.5V17.75H16.5V16.25Z" fill="#ACAAB1"/>
<path d="M16.5 5L18 12H22.5" stroke="#ACAAB1" stroke-width="1.5" stroke-linecap="round" stroke-linejoin="round"/>
<path d="M2.5 10H17.5" stroke="#ACAAB1" stroke-width="1.5" stroke-linecap="round" stroke-linejoin="round"/>
<path d="M7.5 5V10" stroke="#ACAAB1" stroke-width="1.5" stroke-linecap="round" stroke-linejoin="round"/>
<path d="M12.5 5V10" stroke="#ACAAB1" stroke-width="1.5" stroke-linecap="round" stroke-linejoin="round"/>
</svg>
