<svg width="25" height="24" viewBox="0 0 25 24" fill="none" xmlns="http://www.w3.org/2000/svg">
<ellipse cx="16.5" cy="6" rx="5" ry="3" stroke="#E1DEF5" stroke-opacity="0.9" stroke-width="1.5" stroke-linecap="round" stroke-linejoin="round"/>
<path d="M11.5 6V10C11.5 11.657 13.739 13 16.5 13C19.261 13 21.5 11.657 21.5 10V6" stroke="#E1DEF5" stroke-opacity="0.9" stroke-width="1.5" stroke-linecap="round" stroke-linejoin="round"/>
<path d="M11.5 10V14C11.5 15.657 13.739 17 16.5 17C19.261 17 21.5 15.657 21.5 14V10" stroke="#E1DEF5" stroke-opacity="0.9" stroke-width="1.5" stroke-linecap="round" stroke-linejoin="round"/>
<path d="M11.5 14V18C11.5 19.657 13.739 21 16.5 21C19.261 21 21.5 19.657 21.5 18V14" stroke="#E1DEF5" stroke-opacity="0.9" stroke-width="1.5" stroke-linecap="round" stroke-linejoin="round"/>
<path d="M7.5 9H5C4.17157 9 3.5 9.67157 3.5 10.5C3.5 11.3284 4.17157 12 5 12H6C6.82843 12 7.5 12.6716 7.5 13.5C7.5 14.3284 6.82843 15 6 15H3.5" stroke="#E1DEF5" stroke-opacity="0.9" stroke-width="1.5" stroke-linecap="round" stroke-linejoin="round"/>
<path d="M6.25 15C6.25 14.5858 5.91421 14.25 5.5 14.25C5.08579 14.25 4.75 14.5858 4.75 15H6.25ZM4.75 16C4.75 16.4142 5.08579 16.75 5.5 16.75C5.91421 16.75 6.25 16.4142 6.25 16H4.75ZM6.25 8C6.25 7.58579 5.91421 7.25 5.5 7.25C5.08579 7.25 4.75 7.58579 4.75 8H6.25ZM4.75 9C4.75 9.41421 5.08579 9.75 5.5 9.75C5.91421 9.75 6.25 9.41421 6.25 9H4.75ZM4.75 15V16H6.25V15H4.75ZM4.75 8V9H6.25V8H4.75Z" fill="#E1DEF5" fill-opacity="0.9"/>
</svg>
