<svg width="25" height="24" viewBox="0 0 25 24" fill="none" xmlns="http://www.w3.org/2000/svg">
<path fill-rule="evenodd" clip-rule="evenodd" d="M12.495 18.176C12.4149 19.5372 11.4269 20.6732 10.0899 20.9412C8.75299 21.2093 7.40343 20.542 6.80478 19.3169C6.20612 18.0918 6.50898 16.617 7.542 15.727L7.517 15.75C5.44759 15.0238 4.20261 12.912 4.56909 10.7497C4.93557 8.58739 6.80686 7.00379 9 7C10.414 7 11.675 7.652 12.5 8.671C13.7007 7.18754 15.7066 6.62285 17.5049 7.26205C19.3032 7.90124 20.5027 9.60528 20.4978 11.5138C20.4928 13.4223 19.2846 15.1201 17.483 15.75C18.5197 16.6632 18.7987 18.1663 18.1588 19.3907C17.519 20.615 16.1257 21.2442 14.7841 20.9145C13.4425 20.5848 12.4995 19.3815 12.5 18L12.495 18.176Z" stroke="#2F2B3D" stroke-opacity="0.9" stroke-width="1.5" stroke-linecap="round" stroke-linejoin="round"/>
<path d="M12.5 19V9" stroke="#2F2B3D" stroke-opacity="0.9" stroke-width="1.5" stroke-linecap="round" stroke-linejoin="round"/>
<path d="M9.5 3L12.5 5L15.5 3" stroke="#2F2B3D" stroke-opacity="0.9" stroke-width="1.5" stroke-linecap="round" stroke-linejoin="round"/>
</svg>
