<svg width="25" height="24" viewBox="0 0 25 24" fill="none" xmlns="http://www.w3.org/2000/svg">
<path d="M21.0064 20.133C21.177 19.7556 21.0094 19.3113 20.632 19.1406C20.2546 18.97 19.8103 19.1376 19.6396 19.515L21.0064 20.133ZM18.5 21L18.5002 20.25H18.5V21ZM4.5 7L5.25 7L5.25 6.9996L4.5 7ZM5.98438 5.86022C6.36171 5.68936 6.52908 5.24496 6.35822 4.86763C6.18736 4.4903 5.74296 4.32292 5.36563 4.49378L5.98438 5.86022ZM9.5 4.25C9.08579 4.25 8.75 4.58579 8.75 5C8.75 5.41421 9.08579 5.75 9.5 5.75V4.25ZM19.75 16C19.75 16.4142 20.0858 16.75 20.5 16.75C20.9142 16.75 21.25 16.4142 21.25 16H19.75ZM19.6396 19.515C19.4372 19.9626 18.9915 20.2502 18.5002 20.25L18.4998 21.75C19.5804 21.7503 20.5611 21.1177 21.0064 20.133L19.6396 19.515ZM18.5 20.25H6.5V21.75H18.5V20.25ZM6.5 20.25C5.80964 20.25 5.25 19.6904 5.25 19H3.75C3.75 20.5188 4.98122 21.75 6.5 21.75V20.25ZM5.25 19V7H3.75V19H5.25ZM5.25 6.9996C5.24973 6.50852 5.53703 6.06279 5.98438 5.86022L5.36563 4.49378C4.38146 4.93943 3.74941 5.92005 3.75 7.00041L5.25 6.9996ZM9.5 5.75H18.5V4.25H9.5V5.75ZM18.5 5.75C19.1904 5.75 19.75 6.30964 19.75 7H21.25C21.25 5.48122 20.0188 4.25 18.5 4.25V5.75ZM19.75 7V16H21.25V7H19.75Z" fill="#6D6B77"/>
<path d="M16.5 3V7" stroke="#6D6B77" stroke-width="1.5" stroke-linecap="round" stroke-linejoin="round"/>
<path d="M8.5 3V4" stroke="#6D6B77" stroke-width="1.5" stroke-linecap="round" stroke-linejoin="round"/>
<path d="M4.5 10.25C4.08579 10.25 3.75 10.5858 3.75 11C3.75 11.4142 4.08579 11.75 4.5 11.75V10.25ZM11.5 11.75C11.9142 11.75 12.25 11.4142 12.25 11C12.25 10.5858 11.9142 10.25 11.5 10.25V11.75ZM15.5 10.25C15.0858 10.25 14.75 10.5858 14.75 11C14.75 11.4142 15.0858 11.75 15.5 11.75V10.25ZM20.5 11.75C20.9142 11.75 21.25 11.4142 21.25 11C21.25 10.5858 20.9142 10.25 20.5 10.25V11.75ZM4.5 11.75H11.5V10.25H4.5V11.75ZM15.5 11.75H20.5V10.25H15.5V11.75Z" fill="#6D6B77"/>
<path d="M11.5 15H12.5" stroke="#6D6B77" stroke-width="1.5" stroke-linecap="round" stroke-linejoin="round"/>
<path d="M12.5 15V18" stroke="#6D6B77" stroke-width="1.5" stroke-linecap="round" stroke-linejoin="round"/>
<path d="M3.5 3L21.5 21" stroke="#6D6B77" stroke-width="1.5" stroke-linecap="round" stroke-linejoin="round"/>
</svg>
