<svg width="25" height="24" viewBox="0 0 25 24" fill="none" xmlns="http://www.w3.org/2000/svg">
<path d="M5.5 7H6.5C7.60457 7 8.5 6.10457 8.5 5C8.5 4.44772 8.94772 4 9.5 4H15.5C16.0523 4 16.5 4.44772 16.5 5C16.5 6.10457 17.3954 7 18.5 7H19.5C20.6046 7 21.5 7.89543 21.5 9V18C21.5 19.1046 20.6046 20 19.5 20H5.5C4.39543 20 3.5 19.1046 3.5 18V9C3.5 7.89543 4.39543 7 5.5 7" stroke="#E1DEF5" stroke-opacity="0.9" stroke-width="1.5" stroke-linecap="round" stroke-linejoin="round"/>
<circle cx="12.5" cy="13" r="3" stroke="#E1DEF5" stroke-opacity="0.9" stroke-width="1.5" stroke-linecap="round" stroke-linejoin="round"/>
</svg>
