<svg width="25" height="24" viewBox="0 0 25 24" fill="none" xmlns="http://www.w3.org/2000/svg">
<path d="M5.5 7H6.5C7.60457 7 8.5 6.10457 8.5 5C8.5 4.44772 8.94772 4 9.5 4H15.5C16.0523 4 16.5 4.44772 16.5 5C16.5 6.10457 17.3954 7 18.5 7H19.5C20.6046 7 21.5 7.89543 21.5 9V18C21.5 19.1046 20.6046 20 19.5 20H5.5C4.39543 20 3.5 19.1046 3.5 18V9C3.5 7.89543 4.39543 7 5.5 7" stroke="#E1DEF5" stroke-opacity="0.7" stroke-width="1.5" stroke-linecap="round" stroke-linejoin="round"/>
<path d="M11.9337 15.1781C11.5329 15.0739 11.1234 15.3143 11.0191 15.7152C10.9149 16.1161 11.1554 16.5256 11.5562 16.6298L11.9337 15.1781ZM16.25 12.9998C16.2499 12.5856 15.9141 12.2499 15.4999 12.25C15.0856 12.25 14.7499 12.5859 14.75 13.0001L16.25 12.9998ZM13.0625 10.8212C13.4636 10.9247 13.8726 10.6835 13.9762 10.2825C14.0797 9.88142 13.8386 9.47235 13.4375 9.3688L13.0625 10.8212ZM8.75 13C8.75004 13.4143 9.08585 13.75 9.50007 13.75C9.91428 13.7499 10.25 13.4141 10.25 12.9999L8.75 13ZM11.5562 16.6298C12.68 16.922 13.8757 16.6772 14.7941 15.9669L13.8765 14.7804C13.3254 15.2066 12.608 15.3534 11.9337 15.1781L11.5562 16.6298ZM14.7941 15.9669C15.7126 15.2566 16.2502 14.1609 16.25 12.9998L14.75 13.0001C14.7501 13.6968 14.4275 14.3542 13.8765 14.7804L14.7941 15.9669ZM13.4375 9.3688C12.3144 9.07883 11.1204 9.32486 10.2035 10.0352L11.1221 11.221C11.6722 10.7948 12.3887 10.6472 13.0625 10.8212L13.4375 9.3688ZM10.2035 10.0352C9.28653 10.7455 8.7499 11.8402 8.75 13L10.25 12.9999C10.2499 12.304 10.5719 11.6472 11.1221 11.221L10.2035 10.0352Z" fill="#E1DEF5" fill-opacity="0.7"/>
<path d="M14.5 13H16.5V15" stroke="#E1DEF5" stroke-opacity="0.7" stroke-width="1.5" stroke-linecap="round" stroke-linejoin="round"/>
<path d="M10.5 13H8.5V11" stroke="#E1DEF5" stroke-opacity="0.7" stroke-width="1.5" stroke-linecap="round" stroke-linejoin="round"/>
</svg>
