<svg width="25" height="24" viewBox="0 0 25 24" fill="none" xmlns="http://www.w3.org/2000/svg">
<path d="M5.5 7H6.5C7.60457 7 8.5 6.10457 8.5 5C8.5 4.44772 8.94772 4 9.5 4H15.5C16.0523 4 16.5 4.44772 16.5 5C16.5 6.10457 17.3954 7 18.5 7H19.5C20.6046 7 21.5 7.89543 21.5 9V18C21.5 19.1046 20.6046 20 19.5 20H5.5C4.39543 20 3.5 19.1046 3.5 18V9C3.5 7.89543 4.39543 7 5.5 7" stroke="#2F2B3D" stroke-opacity="0.9" stroke-width="1.5" stroke-linecap="round" stroke-linejoin="round"/>
<path d="M11.9337 15.1779C11.5329 15.0737 11.1234 15.3142 11.0191 15.715C10.9149 16.1159 11.1554 16.5254 11.5562 16.6296L11.9337 15.1779ZM16.25 12.9996C16.2499 12.5854 15.9141 12.2497 15.4999 12.2498C15.0856 12.2499 14.7499 12.5857 14.75 12.9999L16.25 12.9996ZM13.0625 10.821C13.4636 10.9245 13.8726 10.6834 13.9762 10.2823C14.0797 9.88124 13.8386 9.47217 13.4375 9.36862L13.0625 10.821ZM8.75 12.9999C8.75004 13.4141 9.08585 13.7498 9.50007 13.7498C9.91428 13.7498 10.25 13.4139 10.25 12.9997L8.75 12.9999ZM11.5562 16.6296C12.68 16.9219 13.8757 16.6771 14.7941 15.9667L13.8765 14.7802C13.3254 15.2064 12.608 15.3533 11.9337 15.1779L11.5562 16.6296ZM14.7941 15.9667C15.7126 15.2564 16.2502 14.1607 16.25 12.9996L14.75 12.9999C14.7501 13.6966 14.4275 14.354 13.8765 14.7802L14.7941 15.9667ZM13.4375 9.36862C12.3144 9.07865 11.1204 9.32468 10.2035 10.035L11.1221 11.2208C11.6722 10.7946 12.3887 10.647 13.0625 10.821L13.4375 9.36862ZM10.2035 10.035C9.28653 10.7453 8.7499 11.84 8.75 12.9999L10.25 12.9997C10.2499 12.3038 10.5719 11.647 11.1221 11.2208L10.2035 10.035Z" fill="#2F2B3D" fill-opacity="0.9"/>
<path d="M14.5 13H16.5V15" stroke="#2F2B3D" stroke-opacity="0.9" stroke-width="1.5" stroke-linecap="round" stroke-linejoin="round"/>
<path d="M10.5 13H8.5V11" stroke="#2F2B3D" stroke-opacity="0.9" stroke-width="1.5" stroke-linecap="round" stroke-linejoin="round"/>
</svg>
