<svg width="25" height="24" viewBox="0 0 25 24" fill="none" xmlns="http://www.w3.org/2000/svg">
<path d="M8.25739 3.768C7.96578 4.06217 7.96786 4.53704 8.26204 4.82865C8.55621 5.12026 9.03108 5.11817 9.32269 4.824L8.25739 3.768ZM9.50004 4L9.50004 3.25L9.49989 3.25L9.50004 4ZM19.5 7V6.25V7ZM20.75 17C20.75 17.4142 21.0858 17.75 21.5 17.75C21.9143 17.75 22.25 17.4142 22.25 17H20.75ZM20.6299 20.5074C21.0074 20.3368 21.175 19.8925 21.0044 19.5151C20.8338 19.1377 20.3895 18.97 20.0121 19.1406L20.6299 20.5074ZM7.62691 7.50844C8.00436 7.33783 8.17203 6.89355 8.00143 6.5161C7.83082 6.13866 7.38654 5.97098 7.00909 6.14158L7.62691 7.50844ZM9.32269 4.824C9.36962 4.77665 9.43352 4.75001 9.50019 4.75L9.49989 3.25C9.03322 3.25009 8.58592 3.43657 8.25739 3.768L9.32269 4.824ZM9.50004 4.75H15.5V3.25H9.50004V4.75ZM15.5 4.75C15.6381 4.75 15.75 4.86193 15.75 5H17.25C17.25 4.0335 16.4665 3.25 15.5 3.25V4.75ZM15.75 5C15.75 6.51878 16.9813 7.75 18.5 7.75V6.25C17.8097 6.25 17.25 5.69036 17.25 5H15.75ZM18.5 7.75H19.5V6.25H18.5V7.75ZM19.5 7.75C20.1904 7.75 20.75 8.30964 20.75 9H22.25C22.25 7.48122 21.0188 6.25 19.5 6.25V7.75ZM20.75 9V17H22.25V9H20.75ZM20.0121 19.1406C19.8574 19.2105 19.6846 19.25 19.5 19.25V20.75C19.9014 20.75 20.2846 20.6635 20.6299 20.5074L20.0121 19.1406ZM19.5 19.25H5.5V20.75H19.5V19.25ZM5.5 19.25C4.80964 19.25 4.25 18.6904 4.25 18H2.75C2.75 19.5188 3.98122 20.75 5.5 20.75V19.25ZM4.25 18V9.00001H2.75V18H4.25ZM4.25 9.00001C4.25 8.30966 4.80964 7.75001 5.5 7.75001V6.25001C3.98122 6.25001 2.75 7.48123 2.75 9.00001H4.25ZM5.5 7.75001H6.5V6.25001H5.5V7.75001ZM6.5 7.75001C6.89963 7.75001 7.28085 7.66486 7.62691 7.50844L7.00909 6.14158C6.85515 6.21116 6.68437 6.25001 6.5 6.25001V7.75001Z" fill="#E1DEF5" fill-opacity="0.4"/>
<path d="M10.936 10.44C9.87552 11.0885 9.32482 12.3239 9.55136 13.5461C9.7779 14.7684 10.7348 15.7243 11.9572 15.9497C13.1797 16.175 14.4146 15.6231 15.062 14.562" stroke="#E1DEF5" stroke-opacity="0.4" stroke-width="1.5" stroke-linecap="round" stroke-linejoin="round"/>
<path d="M3.5 3L21.5 21" stroke="#E1DEF5" stroke-opacity="0.4" stroke-width="1.5" stroke-linecap="round" stroke-linejoin="round"/>
</svg>
