<svg width="25" height="24" viewBox="0 0 25 24" fill="none" xmlns="http://www.w3.org/2000/svg">
<circle cx="12.5" cy="13" r="3" stroke="#E1DEF5" stroke-opacity="0.4" stroke-width="1.5" stroke-linecap="round" stroke-linejoin="round"/>
<path d="M5.5 6.25C5.08579 6.25 4.75 6.58579 4.75 7C4.75 7.41421 5.08579 7.75 5.5 7.75V6.25ZM12.5 4.75C12.9142 4.75 13.25 4.41421 13.25 4C13.25 3.58579 12.9142 3.25 12.5 3.25V4.75ZM22.25 10C22.25 9.58579 21.9142 9.25 21.5 9.25C21.0858 9.25 20.75 9.58579 20.75 10H22.25ZM5.5 7.75C5.91421 7.75 6.25 7.41421 6.25 7C6.25 6.58579 5.91421 6.25 5.5 6.25V7.75ZM5.5 7.75H6.5V6.25H5.5V7.75ZM6.5 7.75C8.01878 7.75 9.25 6.51878 9.25 5H7.75C7.75 5.69036 7.19036 6.25 6.5 6.25V7.75ZM9.25 5C9.25 4.86193 9.36193 4.75 9.5 4.75V3.25C8.5335 3.25 7.75 4.0335 7.75 5H9.25ZM9.5 4.75H12.5V3.25H9.5V4.75ZM20.75 10V18H22.25V10H20.75ZM20.75 18C20.75 18.6904 20.1904 19.25 19.5 19.25V20.75C21.0188 20.75 22.25 19.5188 22.25 18H20.75ZM19.5 19.25H5.5V20.75H19.5V19.25ZM5.5 19.25C4.80964 19.25 4.25 18.6904 4.25 18H2.75C2.75 19.5188 3.98122 20.75 5.5 20.75V19.25ZM4.25 18V9H2.75V18H4.25ZM4.25 9C4.25 8.30964 4.80964 7.75 5.5 7.75V6.25C3.98122 6.25 2.75 7.48122 2.75 9H4.25Z" fill="#E1DEF5" fill-opacity="0.4"/>
<path d="M15.5 6H21.5" stroke="#E1DEF5" stroke-opacity="0.4" stroke-width="1.5" stroke-linecap="round" stroke-linejoin="round"/>
</svg>
