<svg width="25" height="24" viewBox="0 0 25 24" fill="none" xmlns="http://www.w3.org/2000/svg">
<path fill-rule="evenodd" clip-rule="evenodd" d="M7.54993 11.2929L11.7929 7.04993C12.5739 6.26916 13.8399 6.26916 14.6209 7.04993L17.4499 9.87993C18.2307 10.6609 18.2307 11.9269 17.4499 12.7079L13.2069 16.9509C12.4259 17.7317 11.1599 17.7317 10.3789 16.9509L7.54993 14.1199C6.76916 13.3389 6.76916 12.0729 7.54993 11.2919V11.2929Z" stroke="#2F2B3D" stroke-opacity="0.9" stroke-width="1.5" stroke-linecap="round" stroke-linejoin="round"/>
<path d="M16.7431 9.17178L19.8291 8.39978C20.3534 8.26878 20.7667 7.86582 20.911 7.34497C21.0553 6.82413 20.9083 6.26593 20.5261 5.88378L18.3101 3.66678C17.9581 3.31456 17.4543 3.15997 16.9653 3.25415C16.4764 3.34833 16.066 3.67902 15.8701 4.13678L14.6221 7.04978" stroke="#2F2B3D" stroke-opacity="0.9" stroke-width="1.5" stroke-linecap="round" stroke-linejoin="round"/>
<path d="M9.67203 16.2431L8.90003 19.3291C8.76902 19.8534 8.36607 20.2667 7.84522 20.411C7.32437 20.5553 6.76617 20.4083 6.38403 20.0261L4.16703 17.8101C3.81481 17.4581 3.66021 16.9543 3.75439 16.4653C3.84858 15.9764 4.17926 15.566 4.63703 15.3701L7.55003 14.1221" stroke="#2F2B3D" stroke-opacity="0.9" stroke-width="1.5" stroke-linecap="round" stroke-linejoin="round"/>
</svg>
