<svg width="25" height="24" viewBox="0 0 25 24" fill="none" xmlns="http://www.w3.org/2000/svg">
<path fill-rule="evenodd" clip-rule="evenodd" d="M7.54993 11.293L11.7929 7.04999C12.5739 6.26923 13.8399 6.26923 14.6209 7.04999L17.4499 9.87999C18.2307 10.661 18.2307 11.927 17.4499 12.708L13.2069 16.951C12.4259 17.7318 11.1599 17.7318 10.3789 16.951L7.54993 14.12C6.76916 13.339 6.76916 12.073 7.54993 11.292V11.293Z" stroke="#6D6B77" stroke-width="1.5" stroke-linecap="round" stroke-linejoin="round"/>
<path d="M16.7431 9.17203L19.8291 8.40003C20.3534 8.26902 20.7667 7.86607 20.911 7.34522C21.0553 6.82437 20.9083 6.26617 20.5261 5.88403L18.3101 3.66703C17.9581 3.31481 17.4543 3.16021 16.9653 3.25439C16.4764 3.34858 16.066 3.67926 15.8701 4.13703L14.6221 7.05003" stroke="#6D6B77" stroke-width="1.5" stroke-linecap="round" stroke-linejoin="round"/>
<path d="M9.67203 16.243L8.90003 19.329C8.76902 19.8534 8.36607 20.2667 7.84522 20.411C7.32437 20.5553 6.76617 20.4082 6.38403 20.026L4.16703 17.81C3.81481 17.458 3.66021 16.9542 3.75439 16.4653C3.84858 15.9763 4.17926 15.566 4.63703 15.37L7.55003 14.122" stroke="#6D6B77" stroke-width="1.5" stroke-linecap="round" stroke-linejoin="round"/>
</svg>
