<svg width="25" height="24" viewBox="0 0 25 24" fill="none" xmlns="http://www.w3.org/2000/svg">
<circle cx="10.5" cy="17" r="2" stroke="#2F2B3D" stroke-opacity="0.9" stroke-width="1.5" stroke-linecap="round" stroke-linejoin="round"/>
<path d="M8.08565 5.53148C7.82689 5.20803 7.35493 5.15559 7.03148 5.41435C6.70803 5.67311 6.65559 6.14507 6.91435 6.46852L8.08565 5.53148ZM11.5 11L10.9143 11.4685C11.0567 11.6464 11.2722 11.75 11.5 11.75V11ZM14.5 17V17.75C14.9142 17.75 15.25 17.4142 15.25 17H14.5ZM12.5 16.25C12.0858 16.25 11.75 16.5858 11.75 17C11.75 17.4142 12.0858 17.75 12.5 17.75V16.25ZM8.5 17.75C8.91421 17.75 9.25 17.4142 9.25 17C9.25 16.5858 8.91421 16.25 8.5 16.25V17.75ZM3.5 16.25C3.08579 16.25 2.75 16.5858 2.75 17C2.75 17.4142 3.08579 17.75 3.5 17.75V16.25ZM3.5 10.25C3.08579 10.25 2.75 10.5858 2.75 11C2.75 11.4142 3.08579 11.75 3.5 11.75V10.25ZM11.5 11.75C11.9142 11.75 12.25 11.4142 12.25 11C12.25 10.5858 11.9142 10.25 11.5 10.25V11.75ZM4.75 11C4.75 11.4142 5.08579 11.75 5.5 11.75C5.91421 11.75 6.25 11.4142 6.25 11H4.75ZM6.25 6C6.25 5.58579 5.91421 5.25 5.5 5.25C5.08579 5.25 4.75 5.58579 4.75 6H6.25ZM7.5 6.75C7.91421 6.75 8.25 6.41421 8.25 6C8.25 5.58579 7.91421 5.25 7.5 5.25V6.75ZM3.5 5.25C3.08579 5.25 2.75 5.58579 2.75 6C2.75 6.41421 3.08579 6.75 3.5 6.75V5.25ZM6.91435 6.46852L10.9143 11.4685L12.0857 10.5315L8.08565 5.53148L6.91435 6.46852ZM11.5 11.75H12.5V10.25H11.5V11.75ZM12.5 11.75C13.1904 11.75 13.75 12.3096 13.75 13H15.25C15.25 11.4812 14.0188 10.25 12.5 10.25V11.75ZM13.75 13V17H15.25V13H13.75ZM14.5 16.25H12.5V17.75H14.5V16.25ZM8.5 16.25H3.5V17.75H8.5V16.25ZM3.5 11.75H11.5V10.25H3.5V11.75ZM6.25 11V6H4.75V11H6.25ZM7.5 5.25H3.5V6.75H7.5V5.25Z" fill="#2F2B3D" fill-opacity="0.9"/>
<path d="M14.5 8V6" stroke="#2F2B3D" stroke-opacity="0.9" stroke-width="1.5" stroke-linecap="round" stroke-linejoin="round"/>
<path d="M19.5 12H21.5" stroke="#2F2B3D" stroke-opacity="0.9" stroke-width="1.5" stroke-linecap="round" stroke-linejoin="round"/>
<path d="M18 15.5L19.5 17" stroke="#2F2B3D" stroke-opacity="0.9" stroke-width="1.5" stroke-linecap="round" stroke-linejoin="round"/>
<path d="M18 8.5L19.5 7" stroke="#2F2B3D" stroke-opacity="0.9" stroke-width="1.5" stroke-linecap="round" stroke-linejoin="round"/>
</svg>
