<svg width="25" height="24" viewBox="0 0 25 24" fill="none" xmlns="http://www.w3.org/2000/svg">
<circle cx="7.5" cy="17" r="2" stroke="#ACAAB1" stroke-width="1.5" stroke-linecap="round" stroke-linejoin="round"/>
<circle cx="17.5" cy="17" r="2" stroke="#ACAAB1" stroke-width="1.5" stroke-linecap="round" stroke-linejoin="round"/>
<path d="M5.5 17.75C5.91421 17.75 6.25 17.4142 6.25 17C6.25 16.5858 5.91421 16.25 5.5 16.25V17.75ZM3.5 17H2.75C2.75 17.4142 3.08579 17.75 3.5 17.75V17ZM3.5 11L2.80364 10.7215C2.76821 10.81 2.75 10.9046 2.75 11H3.5ZM5.5 6V5.25C5.19332 5.25 4.91754 5.43671 4.80364 5.72146L5.5 6ZM14.5 6L15.0857 5.53148C14.9433 5.35357 14.7278 5.25 14.5 5.25V6ZM18.5 11L17.9143 11.4685C18.0567 11.6464 18.2722 11.75 18.5 11.75V11ZM21.5 17V17.75C21.9142 17.75 22.25 17.4142 22.25 17H21.5ZM19.5 16.25C19.0858 16.25 18.75 16.5858 18.75 17C18.75 17.4142 19.0858 17.75 19.5 17.75V16.25ZM15.5 17.75C15.9142 17.75 16.25 17.4142 16.25 17C16.25 16.5858 15.9142 16.25 15.5 16.25V17.75ZM9.5 16.25C9.08579 16.25 8.75 16.5858 8.75 17C8.75 17.4142 9.08579 17.75 9.5 17.75V16.25ZM3.5 10.25C3.08579 10.25 2.75 10.5858 2.75 11C2.75 11.4142 3.08579 11.75 3.5 11.75V10.25ZM18.5 11.75C18.9142 11.75 19.25 11.4142 19.25 11C19.25 10.5858 18.9142 10.25 18.5 10.25V11.75ZM11.75 11C11.75 11.4142 12.0858 11.75 12.5 11.75C12.9142 11.75 13.25 11.4142 13.25 11H11.75ZM13.25 6C13.25 5.58579 12.9142 5.25 12.5 5.25C12.0858 5.25 11.75 5.58579 11.75 6H13.25ZM5.5 16.25H3.5V17.75H5.5V16.25ZM4.25 17V11H2.75V17H4.25ZM4.19636 11.2785L6.19636 6.27854L4.80364 5.72146L2.80364 10.7215L4.19636 11.2785ZM5.5 6.75H14.5V5.25H5.5V6.75ZM13.9143 6.46852L17.9143 11.4685L19.0857 10.5315L15.0857 5.53148L13.9143 6.46852ZM18.5 11.75H19.5V10.25H18.5V11.75ZM19.5 11.75C20.1904 11.75 20.75 12.3096 20.75 13H22.25C22.25 11.4812 21.0188 10.25 19.5 10.25V11.75ZM20.75 13V17H22.25V13H20.75ZM21.5 16.25H19.5V17.75H21.5V16.25ZM15.5 16.25H9.5V17.75H15.5V16.25ZM3.5 11.75H18.5V10.25H3.5V11.75ZM13.25 11V6H11.75V11H13.25Z" fill="#ACAAB1"/>
</svg>
