<svg width="18" height="18" viewBox="0 0 18 18" fill="none" xmlns="http://www.w3.org/2000/svg">
<circle cx="5.25" cy="12.75" r="1.5" stroke="#7367F0" stroke-linecap="round" stroke-linejoin="round"/>
<circle cx="12.75" cy="12.75" r="1.5" stroke="#7367F0" stroke-linecap="round" stroke-linejoin="round"/>
<path d="M3.75 13.25C4.02614 13.25 4.25 13.0261 4.25 12.75C4.25 12.4739 4.02614 12.25 3.75 12.25V13.25ZM2.25 12.75H1.75C1.75 13.0261 1.97386 13.25 2.25 13.25V12.75ZM2.25 8.25L1.78576 8.0643C1.76214 8.12336 1.75 8.18639 1.75 8.25H2.25ZM3.75 4.5V4C3.54555 4 3.36169 4.12448 3.28576 4.3143L3.75 4.5ZM10.5 4.5L10.8904 4.18765C10.7955 4.06904 10.6519 4 10.5 4V4.5ZM13.5 8.25L13.1096 8.56235C13.2045 8.68096 13.3481 8.75 13.5 8.75V8.25ZM15.75 12.75V13.25C16.0261 13.25 16.25 13.0261 16.25 12.75H15.75ZM14.25 12.25C13.9739 12.25 13.75 12.4739 13.75 12.75C13.75 13.0261 13.9739 13.25 14.25 13.25V12.25ZM11.25 13.25C11.5261 13.25 11.75 13.0261 11.75 12.75C11.75 12.4739 11.5261 12.25 11.25 12.25V13.25ZM6.75 12.25C6.47386 12.25 6.25 12.4739 6.25 12.75C6.25 13.0261 6.47386 13.25 6.75 13.25V12.25ZM2.25 7.75C1.97386 7.75 1.75 7.97386 1.75 8.25C1.75 8.52614 1.97386 8.75 2.25 8.75V7.75ZM13.5 8.75C13.7761 8.75 14 8.52614 14 8.25C14 7.97386 13.7761 7.75 13.5 7.75V8.75ZM8.5 8.25C8.5 8.52614 8.72386 8.75 9 8.75C9.27614 8.75 9.5 8.52614 9.5 8.25H8.5ZM9.5 4.5C9.5 4.22386 9.27614 4 9 4C8.72386 4 8.5 4.22386 8.5 4.5H9.5ZM3.75 12.25H2.25V13.25H3.75V12.25ZM2.75 12.75V8.25H1.75V12.75H2.75ZM2.71424 8.4357L4.21424 4.6857L3.28576 4.3143L1.78576 8.0643L2.71424 8.4357ZM3.75 5H10.5V4H3.75V5ZM10.1096 4.81235L13.1096 8.56235L13.8904 7.93765L10.8904 4.18765L10.1096 4.81235ZM13.5 8.75H14.25V7.75H13.5V8.75ZM14.25 8.75C14.8023 8.75 15.25 9.19772 15.25 9.75H16.25C16.25 8.64543 15.3546 7.75 14.25 7.75V8.75ZM15.25 9.75V12.75H16.25V9.75H15.25ZM15.75 12.25H14.25V13.25H15.75V12.25ZM11.25 12.25H6.75V13.25H11.25V12.25ZM2.25 8.75H13.5V7.75H2.25V8.75ZM9.5 8.25V4.5H8.5V8.25H9.5Z" fill="#7367F0"/>
</svg>
