<svg width="25" height="24" viewBox="0 0 25 24" fill="none" xmlns="http://www.w3.org/2000/svg">
<path fill-rule="evenodd" clip-rule="evenodd" d="M3.5 7V15.5C3.5 16.8807 4.61929 18 6 18H7.06C7.97113 17.9982 8.83207 17.5825 9.4 16.87L10.94 14.95C11.3196 14.4769 11.8934 14.2016 12.5 14.2016C13.1066 14.2016 13.6804 14.4769 14.06 14.95L15.6 16.87C16.1679 17.5825 17.0289 17.9982 17.94 18H19C20.3807 18 21.5 16.8807 21.5 15.5V7C21.5 5.89543 20.6046 5 19.5 5H5.5C4.39543 5 3.5 5.89543 3.5 7Z" stroke="#2F2B3D" stroke-opacity="0.9" stroke-width="1.5" stroke-linecap="round" stroke-linejoin="round"/>
<circle cx="8.5" cy="11" r="1" stroke="#2F2B3D" stroke-opacity="0.9" stroke-width="1.5" stroke-linecap="round" stroke-linejoin="round"/>
<circle cx="16.5" cy="11" r="1" stroke="#2F2B3D" stroke-opacity="0.9" stroke-width="1.5" stroke-linecap="round" stroke-linejoin="round"/>
</svg>
