<svg width="25" height="24" viewBox="0 0 25 24" fill="none" xmlns="http://www.w3.org/2000/svg">
<path d="M10.9059 10.4127C11.2012 10.1223 11.2051 9.64739 10.9147 9.35209C10.6242 9.05679 10.1494 9.05286 9.85406 9.34333L10.9059 10.4127ZM15.1566 14.6471C15.4471 14.3518 15.4433 13.877 15.148 13.5865C14.8528 13.2959 14.378 13.2997 14.0874 13.595L15.1566 14.6471ZM14.527 11.0228C14.7075 11.3957 15.156 11.5516 15.5289 11.3711C15.9017 11.1906 16.0576 10.742 15.8771 10.3692L14.527 11.0228ZM14.1135 8.61435C13.7398 8.43571 13.292 8.59385 13.1134 8.96756C12.9347 9.34127 13.0929 9.78904 13.4666 9.96768L14.1135 8.61435ZM9.85406 9.34333C8.89373 10.2879 8.51381 11.675 8.85876 12.9771L10.3087 12.593C10.1018 11.8117 10.3297 10.9795 10.9059 10.4127L9.85406 9.34333ZM8.85876 12.9771C9.20371 14.2792 10.2205 15.2963 11.5226 15.6415L11.907 14.1916C11.1258 13.9845 10.5157 13.3742 10.3087 12.593L8.85876 12.9771ZM11.5226 15.6415C12.8246 15.9868 14.2117 15.6072 15.1566 14.6471L14.0874 13.595C13.5205 14.171 12.6882 14.3988 11.907 14.1916L11.5226 15.6415ZM15.8771 10.3692C15.5053 9.60117 14.8834 8.98236 14.1135 8.61435L13.4666 9.96768C13.9295 10.189 14.3034 10.561 14.527 11.0228L15.8771 10.3692Z" fill="#ACAAB1"/>
<path d="M10.5 5.25C10.0858 5.25 9.75 5.58579 9.75 6C9.75 6.41421 10.0858 6.75 10.5 6.75V5.25ZM20.6391 16.5149C20.4678 16.892 20.6347 17.3366 21.0119 17.5079C21.389 17.6792 21.8336 17.5123 22.0049 17.1351L20.6391 16.5149ZM18.5 18.75C18.9142 18.75 19.25 18.4142 19.25 18C19.25 17.5858 18.9142 17.25 18.5 17.25V18.75ZM6.5 6.75C6.91421 6.75 7.25 6.41421 7.25 6C7.25 5.58579 6.91421 5.25 6.5 5.25V6.75ZM10.5 6.75H19.5V5.25H10.5V6.75ZM19.5 6.75C20.1904 6.75 20.75 7.30964 20.75 8H22.25C22.25 6.48122 21.0188 5.25 19.5 5.25V6.75ZM20.75 8V16H22.25V8H20.75ZM20.75 16C20.75 16.1845 20.7099 16.359 20.6391 16.5149L22.0049 17.1351C22.1621 16.789 22.25 16.4035 22.25 16H20.75ZM18.5 17.25H5.5V18.75H18.5V17.25ZM5.5 17.25C4.80964 17.25 4.25 16.6904 4.25 16H2.75C2.75 17.5188 3.98122 18.75 5.5 18.75V17.25ZM4.25 16V8H2.75V16H4.25ZM4.25 8C4.25 7.30964 4.80964 6.75 5.5 6.75V5.25C3.98122 5.25 2.75 6.48122 2.75 8H4.25ZM5.5 6.75H6.5V5.25H5.5V6.75Z" fill="#ACAAB1"/>
<path d="M18.5 12H18.51" stroke="#ACAAB1" stroke-width="1.5" stroke-linecap="round" stroke-linejoin="round"/>
<path d="M6.5 12H6.51" stroke="#ACAAB1" stroke-width="1.5" stroke-linecap="round" stroke-linejoin="round"/>
<path d="M3.5 3L21.5 21" stroke="#ACAAB1" stroke-width="1.5" stroke-linecap="round" stroke-linejoin="round"/>
</svg>
