<svg width="20" height="20" viewBox="0 0 20 20" fill="none" xmlns="http://www.w3.org/2000/svg">
<g id="Icon">
<path id="Shape" d="M10.75 2.5C10.75 2.08579 10.4142 1.75 10 1.75C9.58579 1.75 9.25 2.08579 9.25 2.5H10.75ZM9.25 6.66667C9.25 7.08088 9.58579 7.41667 10 7.41667C10.4142 7.41667 10.75 7.08088 10.75 6.66667H9.25ZM13.3333 9.25C12.9191 9.25 12.5833 9.58579 12.5833 10C12.5833 10.4142 12.9191 10.75 13.3333 10.75V9.25ZM17.5 10.75C17.9142 10.75 18.25 10.4142 18.25 10C18.25 9.58579 17.9142 9.25 17.5 9.25V10.75ZM9.25 2.5V6.66667H10.75V2.5H9.25ZM13.3333 10.75H17.5V9.25H13.3333V10.75Z" fill="#E1DEF5" fill-opacity="0.9"/>
<path id="Path" d="M7.44075 12.1517L4.58325 14.5833" stroke="#E1DEF5" stroke-opacity="0.9" stroke-width="1.5" stroke-linecap="round" stroke-linejoin="round"/>
<circle id="Oval" cx="10.0001" cy="10" r="3.33333" stroke="#E1DEF5" stroke-opacity="0.9" stroke-width="1.5" stroke-linecap="round" stroke-linejoin="round"/>
<circle id="Oval_2" cx="10" cy="10" r="7.5" stroke="#E1DEF5" stroke-opacity="0.9" stroke-width="1.5" stroke-linecap="round" stroke-linejoin="round"/>
</g>
</svg>
