<svg width="25" height="24" viewBox="0 0 25 24" fill="none" xmlns="http://www.w3.org/2000/svg">
<path d="M10.5 3.19999C6.17001 4.20378 3.22126 8.21822 3.55844 12.6502C3.89562 17.0822 7.41776 20.6044 11.8498 20.9415C16.2818 21.2787 20.2962 18.33 21.3 14C21.3 13.4477 20.8523 13 20.3 13H13.5C12.3954 13 11.5 12.1046 11.5 11V3.99999C11.4749 3.76068 11.355 3.54138 11.1671 3.39107C10.9792 3.24075 10.739 3.17194 10.5 3.19999" stroke="#E1DEF5" stroke-opacity="0.9" stroke-width="1.5" stroke-linecap="round" stroke-linejoin="round"/>
<path d="M15.5 3.5C18.0718 4.40556 20.0944 6.42819 21 9H16.5C15.9477 9 15.5 8.55228 15.5 8V3.5" stroke="#E1DEF5" stroke-opacity="0.9" stroke-width="1.5" stroke-linecap="round" stroke-linejoin="round"/>
</svg>
