<svg width="25" height="24" viewBox="0 0 25 24" fill="none" xmlns="http://www.w3.org/2000/svg">
<path d="M7.5 12L12.5 17L22.5 7" stroke="#ACAAB1" stroke-width="1.5" stroke-linecap="round" stroke-linejoin="round"/>
<path d="M3.03033 11.4697C2.73744 11.1768 2.26256 11.1768 1.96967 11.4697C1.67678 11.7626 1.67678 12.2374 1.96967 12.5303L3.03033 11.4697ZM6.96967 17.5303C7.26256 17.8232 7.73744 17.8232 8.03033 17.5303C8.32322 17.2374 8.32322 16.7626 8.03033 16.4697L6.96967 17.5303ZM11.9697 11.4697C11.6768 11.7626 11.6768 12.2374 11.9697 12.5303C12.2626 12.8232 12.7374 12.8232 13.0303 12.5303L11.9697 11.4697ZM18.0303 7.53033C18.3232 7.23744 18.3232 6.76256 18.0303 6.46967C17.7374 6.17678 17.2626 6.17678 16.9697 6.46967L18.0303 7.53033ZM1.96967 12.5303L6.96967 17.5303L8.03033 16.4697L3.03033 11.4697L1.96967 12.5303ZM13.0303 12.5303L18.0303 7.53033L16.9697 6.46967L11.9697 11.4697L13.0303 12.5303Z" fill="#ACAAB1"/>
</svg>
