<svg width="25" height="24" viewBox="0 0 25 24" fill="none" xmlns="http://www.w3.org/2000/svg">
<path d="M9.05989 3.69C7.96797 4.14199 6.97576 4.8046 6.13989 5.64" stroke="#E1DEF5" stroke-opacity="0.9" stroke-width="1.5" stroke-linecap="round" stroke-linejoin="round"/>
<path d="M4.18997 8.56C3.73653 9.6503 3.50207 10.8192 3.49997 12" stroke="#E1DEF5" stroke-opacity="0.9" stroke-width="1.5" stroke-linecap="round" stroke-linejoin="round"/>
<path d="M4.18994 15.44C4.64193 16.5319 5.30454 17.5241 6.13994 18.36" stroke="#E1DEF5" stroke-opacity="0.9" stroke-width="1.5" stroke-linecap="round" stroke-linejoin="round"/>
<path d="M9.06006 20.31C10.1504 20.7635 11.3192 20.9979 12.5001 21" stroke="#E1DEF5" stroke-opacity="0.9" stroke-width="1.5" stroke-linecap="round" stroke-linejoin="round"/>
<path d="M15.9399 20.31C17.0319 19.858 18.0241 19.1954 18.8599 18.36" stroke="#E1DEF5" stroke-opacity="0.9" stroke-width="1.5" stroke-linecap="round" stroke-linejoin="round"/>
<path d="M20.81 15.44C21.2635 14.3497 21.4979 13.1808 21.5 12" stroke="#E1DEF5" stroke-opacity="0.9" stroke-width="1.5" stroke-linecap="round" stroke-linejoin="round"/>
<path d="M20.8101 8.56001C20.3581 7.4681 19.6955 6.47588 18.8601 5.64001" stroke="#E1DEF5" stroke-opacity="0.9" stroke-width="1.5" stroke-linecap="round" stroke-linejoin="round"/>
<path d="M15.94 3.68997C14.8497 3.23653 13.6808 3.00207 12.5 2.99997" stroke="#E1DEF5" stroke-opacity="0.9" stroke-width="1.5" stroke-linecap="round" stroke-linejoin="round"/>
</svg>
