<svg width="25" height="24" viewBox="0 0 25 24" fill="none" xmlns="http://www.w3.org/2000/svg">
<path d="M9.05989 3.68994C7.96797 4.14193 6.97576 4.80454 6.13989 5.63994" stroke="#2F2B3D" stroke-opacity="0.9" stroke-width="1.5" stroke-linecap="round" stroke-linejoin="round"/>
<path d="M4.18997 8.56006C3.73653 9.65036 3.50207 10.8192 3.49997 12.0001" stroke="#2F2B3D" stroke-opacity="0.9" stroke-width="1.5" stroke-linecap="round" stroke-linejoin="round"/>
<path d="M4.18994 15.4399C4.64193 16.5319 5.30454 17.5241 6.13994 18.3599" stroke="#2F2B3D" stroke-opacity="0.9" stroke-width="1.5" stroke-linecap="round" stroke-linejoin="round"/>
<path d="M9.06006 20.3098C10.1504 20.7632 11.3192 20.9977 12.5001 20.9998" stroke="#2F2B3D" stroke-opacity="0.9" stroke-width="1.5" stroke-linecap="round" stroke-linejoin="round"/>
<path d="M15.9399 20.3099C17.0319 19.8579 18.0241 19.1953 18.8599 18.3599" stroke="#2F2B3D" stroke-opacity="0.9" stroke-width="1.5" stroke-linecap="round" stroke-linejoin="round"/>
<path d="M20.81 15.44C21.2635 14.3497 21.4979 13.1808 21.5 12" stroke="#2F2B3D" stroke-opacity="0.9" stroke-width="1.5" stroke-linecap="round" stroke-linejoin="round"/>
<path d="M20.8101 8.56014C20.3581 7.46822 19.6955 6.47601 18.8601 5.64014" stroke="#2F2B3D" stroke-opacity="0.9" stroke-width="1.5" stroke-linecap="round" stroke-linejoin="round"/>
<path d="M15.94 3.69021C14.8497 3.23677 13.6808 3.00232 12.5 3.00021" stroke="#2F2B3D" stroke-opacity="0.9" stroke-width="1.5" stroke-linecap="round" stroke-linejoin="round"/>
</svg>
