<svg width="25" height="24" viewBox="0 0 25 24" fill="none" xmlns="http://www.w3.org/2000/svg">
<path d="M19.8723 15.7075C19.6859 16.0774 19.8347 16.5284 20.2046 16.7148C20.5745 16.9011 21.0255 16.7523 21.2119 16.3824L19.8723 15.7075ZM8.11762 3.28817C7.7477 3.47455 7.59891 3.92551 7.78528 4.29542C7.97166 4.66534 8.42262 4.81413 8.79253 4.62776L8.11762 3.28817ZM6.66293 6.16971C6.95826 5.87927 6.96222 5.40441 6.67178 5.10909C6.38134 4.81376 5.90648 4.8098 5.61115 5.10025L6.66293 6.16971ZM19.3966 18.8911C19.6871 18.5959 19.6834 18.121 19.3881 17.8305C19.0929 17.5399 18.6181 17.5437 18.3275 17.8389L19.3966 18.8911ZM21.2119 16.3824C23.1051 12.6247 22.3741 8.07646 19.3989 5.10119L18.3382 6.16185C20.8557 8.67938 21.4742 12.5279 19.8723 15.7075L21.2119 16.3824ZM19.3989 5.10119C16.4236 2.12593 11.8753 1.39497 8.11762 3.28817L8.79253 4.62776C11.9721 3.02582 15.8207 3.64433 18.3382 6.16185L19.3989 5.10119ZM5.61115 5.10025C3.11413 7.55598 2.12604 11.1623 3.02264 14.5478L4.47265 14.1638C3.71399 11.2991 4.55006 8.24764 6.66293 6.16971L5.61115 5.10025ZM3.02264 14.5478C3.91924 17.9334 6.56277 20.5779 9.94795 21.4759L10.3325 20.026C7.46814 19.2662 5.23132 17.0285 4.47265 14.1638L3.02264 14.5478ZM9.94795 21.4759C13.3331 22.3738 16.9399 21.3871 19.3966 18.8911L18.3275 17.8389C16.2488 19.9509 13.1969 20.7858 10.3325 20.026L9.94795 21.4759Z" fill="#E1DEF5" fill-opacity="0.7"/>
<path d="M3.5 3L21.5 21" stroke="#E1DEF5" stroke-opacity="0.7" stroke-width="1.5" stroke-linecap="round" stroke-linejoin="round"/>
</svg>
