<svg width="24" height="24" viewBox="0 0 24 24" fill="none" xmlns="http://www.w3.org/2000/svg">
<g clip-path="url(#clip0_1_11477)">
<path d="M7 3.34011C8.89444 2.24642 11.0952 1.80409 13.2651 2.08088C15.435 2.35768 17.4543 3.33835 19.0135 4.87259C20.5727 6.40684 21.5859 8.41003 21.8977 10.5752C22.2095 12.7403 21.8027 14.948 20.7397 16.8598C19.6768 18.7717 18.0162 20.2822 16.0126 21.16C14.009 22.0378 11.7728 22.2344 9.64672 21.7197C7.52066 21.205 5.62203 20.0073 4.24177 18.3103C2.86152 16.6133 2.07579 14.5104 2.005 12.3241L2 12.0001L2.005 11.6761C2.06016 9.97657 2.5478 8.31917 3.42181 6.86055C4.29583 5.40194 5.52736 4.19028 7 3.34011Z" fill="#2F2B3D" fill-opacity="0.9"/>
</g>
<defs>
<clipPath id="clip0_1_11477">
<rect width="24" height="24" fill="white"/>
</clipPath>
</defs>
</svg>
