<svg width="25" height="24" viewBox="0 0 25 24" fill="none" xmlns="http://www.w3.org/2000/svg">
<circle cx="12.5" cy="12" r="9" stroke="#E1DEF5" stroke-opacity="0.7" stroke-width="1.5" stroke-linecap="round" stroke-linejoin="round"/>
<path d="M11.0303 9.46967C10.7374 9.17678 10.2626 9.17678 9.96967 9.46967C9.67678 9.76256 9.67678 10.2374 9.96967 10.5303L11.0303 9.46967ZM13.9697 14.5303C14.2626 14.8232 14.7374 14.8232 15.0303 14.5303C15.3232 14.2374 15.3232 13.7626 15.0303 13.4697L13.9697 14.5303ZM15.0303 10.5303C15.3232 10.2374 15.3232 9.76256 15.0303 9.46967C14.7374 9.17678 14.2626 9.17678 13.9697 9.46967L15.0303 10.5303ZM9.96967 13.4697C9.67678 13.7626 9.67678 14.2374 9.96967 14.5303C10.2626 14.8232 10.7374 14.8232 11.0303 14.5303L9.96967 13.4697ZM9.96967 10.5303L13.9697 14.5303L15.0303 13.4697L11.0303 9.46967L9.96967 10.5303ZM13.9697 9.46967L9.96967 13.4697L11.0303 14.5303L15.0303 10.5303L13.9697 9.46967Z" fill="#E1DEF5" fill-opacity="0.7"/>
</svg>
