<svg width="25" height="24" viewBox="0 0 25 24" fill="none" xmlns="http://www.w3.org/2000/svg">
<path d="M19.8723 15.7074C19.6859 16.0773 19.8347 16.5283 20.2046 16.7146C20.5745 16.901 21.0255 16.7522 21.2119 16.3823L19.8723 15.7074ZM8.11762 3.28805C7.7477 3.47442 7.59891 3.92539 7.78528 4.2953C7.97166 4.66522 8.42262 4.81401 8.79253 4.62764L8.11762 3.28805ZM6.66293 6.16959C6.95826 5.87915 6.96222 5.40429 6.67178 5.10897C6.38134 4.81364 5.90648 4.80968 5.61115 5.10012L6.66293 6.16959ZM19.3966 18.891C19.6871 18.5957 19.6834 18.1209 19.3881 17.8303C19.0929 17.5398 18.6181 17.5435 18.3275 17.8388L19.3966 18.891ZM21.2119 16.3823C23.1051 12.6246 22.3741 8.07633 19.3989 5.10107L18.3382 6.16173C20.8557 8.67926 21.4742 12.5278 19.8723 15.7074L21.2119 16.3823ZM19.3989 5.10107C16.4236 2.12581 11.8753 1.39485 8.11762 3.28805L8.79253 4.62764C11.9721 3.0257 15.8207 3.6442 18.3382 6.16173L19.3989 5.10107ZM5.61115 5.10012C3.11413 7.55586 2.12604 11.1622 3.02264 14.5477L4.47265 14.1637C3.71399 11.299 4.55006 8.24752 6.66293 6.16959L5.61115 5.10012ZM3.02264 14.5477C3.91924 17.9333 6.56277 20.5778 9.94795 21.4758L10.3325 20.0259C7.46814 19.2661 5.23132 17.0284 4.47265 14.1637L3.02264 14.5477ZM9.94795 21.4758C13.3331 22.3737 16.9399 21.387 19.3966 18.891L18.3275 17.8388C16.2488 19.9508 13.1969 20.7857 10.3325 20.0259L9.94795 21.4758Z" fill="#2F2B3D" fill-opacity="0.9"/>
<path d="M3.5 3L21.5 21" stroke="#2F2B3D" stroke-opacity="0.9" stroke-width="1.5" stroke-linecap="round" stroke-linejoin="round"/>
</svg>
