<svg width="25" height="24" viewBox="0 0 25 24" fill="none" xmlns="http://www.w3.org/2000/svg">
<path d="M18.0303 14.4697C17.7374 14.1768 17.2626 14.1768 16.9697 14.4697C16.6768 14.7626 16.6768 15.2374 16.9697 15.5303L18.0303 14.4697ZM20.9697 19.5303C21.2626 19.8232 21.7374 19.8232 22.0303 19.5303C22.3232 19.2374 22.3232 18.7626 22.0303 18.4697L20.9697 19.5303ZM22.0303 15.5303C22.3232 15.2374 22.3232 14.7626 22.0303 14.4697C21.7374 14.1768 21.2626 14.1768 20.9697 14.4697L22.0303 15.5303ZM16.9697 18.4697C16.6768 18.7626 16.6768 19.2374 16.9697 19.5303C17.2626 19.8232 17.7374 19.8232 18.0303 19.5303L16.9697 18.4697ZM16.9697 15.5303L20.9697 19.5303L22.0303 18.4697L18.0303 14.4697L16.9697 15.5303ZM20.9697 14.4697L16.9697 18.4697L18.0303 19.5303L22.0303 15.5303L20.9697 14.4697Z" fill="#E1DEF5" fill-opacity="0.7"/>
<path d="M7.5 6V5H18.5V6" stroke="#E1DEF5" stroke-opacity="0.7" stroke-width="1.5" stroke-linecap="round" stroke-linejoin="round"/>
<path d="M7.5 19H11.5" stroke="#E1DEF5" stroke-opacity="0.7" stroke-width="1.5" stroke-linecap="round" stroke-linejoin="round"/>
<path d="M13.5 5L9.5 19" stroke="#E1DEF5" stroke-opacity="0.7" stroke-width="1.5" stroke-linecap="round" stroke-linejoin="round"/>
</svg>
