<svg width="25" height="24" viewBox="0 0 25 24" fill="none" xmlns="http://www.w3.org/2000/svg">
<path d="M3.5 3L21.5 21" stroke="#ACAAB1" stroke-width="1.5" stroke-linecap="round" stroke-linejoin="round"/>
<path d="M18.4999 18.75C18.9141 18.75 19.2499 18.4142 19.2499 18C19.2499 17.5858 18.9141 17.25 18.4999 17.25V18.75ZM7.49992 8.99998V9.74998C7.85097 9.74998 8.15505 9.50648 8.23179 9.16392L7.49992 8.99998ZM8.70974 7.98002C8.92404 7.62556 8.81043 7.16447 8.45596 6.95017C8.1015 6.73586 7.64042 6.84948 7.42611 7.20394L8.70974 7.98002ZM9.81123 4.981C9.44507 5.17465 9.30523 5.62846 9.49888 5.99462C9.69253 6.36078 10.1463 6.50062 10.5125 6.30697L9.81123 4.981ZM11.2119 5.21399L11.4274 5.93236L11.4295 5.93173L11.2119 5.21399ZM16.7119 6.21399L16.2453 6.80123L16.2458 6.80161L16.7119 6.21399ZM18.4999 11L17.7681 10.8358C17.7182 11.058 17.772 11.2909 17.9143 11.4687C18.0567 11.6465 18.2721 11.75 18.4999 11.75V11ZM19.4999 11L19.5 10.25H19.4999V11ZM21.2378 16.6308C20.9168 16.8927 20.8689 17.3651 21.1307 17.6861C21.3926 18.007 21.865 18.055 22.186 17.7931L21.2378 16.6308ZM18.4999 17.25H7.49992V18.75H18.4999V17.25ZM7.49992 17.25C5.28428 17.25 3.54492 15.5396 3.54492 13.5H2.04492C2.04492 16.4304 4.51957 18.75 7.49992 18.75V17.25ZM3.54492 13.5C3.54492 11.4604 5.28428 9.74998 7.49992 9.74998V8.24998C4.51957 8.24998 2.04492 10.5696 2.04492 13.5H3.54492ZM8.23179 9.16392C8.32555 8.74531 8.48741 8.34774 8.70974 7.98002L7.42611 7.20394C7.12243 7.70622 6.89829 8.25465 6.76806 8.83604L8.23179 9.16392ZM10.5125 6.30697C10.7988 6.15555 11.1046 6.02919 11.4274 5.93235L10.9964 4.49562C10.5791 4.62078 10.1829 4.78442 9.81123 4.981L10.5125 6.30697ZM11.4295 5.93173C13.1031 5.42434 14.9426 5.76634 16.2453 6.80123L17.1784 5.62674C15.4751 4.27363 13.1206 3.85163 10.9943 4.49624L11.4295 5.93173ZM16.2458 6.80161C17.54 7.828 18.0975 9.36782 17.7681 10.8358L19.2317 11.1642C19.6962 9.09415 18.8897 6.98397 17.1779 5.62636L16.2458 6.80161ZM18.4999 11.75H19.4999V10.25H18.4999V11.75ZM19.4998 11.75C20.6628 11.7501 21.6999 12.4819 22.09 13.5775L23.5031 13.0743C22.9002 11.3811 21.2973 10.2502 19.5 10.25L19.4998 11.75ZM22.09 13.5775C22.4802 14.6731 22.1389 15.8957 21.2378 16.6308L22.186 17.7931C23.5787 16.657 24.1061 14.7675 23.5031 13.0743L22.09 13.5775Z" fill="#ACAAB1"/>
</svg>
