<svg width="25" height="24" viewBox="0 0 25 24" fill="none" xmlns="http://www.w3.org/2000/svg">
<path d="M3.5 3L21.5 21" stroke="#2F2B3D" stroke-opacity="0.9" stroke-width="1.5" stroke-linecap="round" stroke-linejoin="round"/>
<path d="M18.4999 18.75C18.9141 18.75 19.2499 18.4143 19.2499 18C19.2499 17.5858 18.9141 17.25 18.4999 17.25V18.75ZM7.49992 9.00004V9.75004C7.85097 9.75004 8.15505 9.50654 8.23179 9.16398L7.49992 9.00004ZM8.70974 7.98008C8.92404 7.62562 8.81043 7.16454 8.45596 6.95023C8.1015 6.73592 7.64042 6.84954 7.42611 7.204L8.70974 7.98008ZM9.81123 4.98106C9.44507 5.17471 9.30523 5.62853 9.49888 5.99468C9.69253 6.36084 10.1463 6.50069 10.5125 6.30703L9.81123 4.98106ZM11.2119 5.21405L11.4274 5.93242L11.4295 5.93179L11.2119 5.21405ZM16.7119 6.21405L16.2453 6.8013L16.2458 6.80168L16.7119 6.21405ZM18.4999 11L17.7681 10.8358C17.7182 11.0581 17.772 11.2909 17.9143 11.4687C18.0567 11.6465 18.2721 11.75 18.4999 11.75V11ZM19.4999 11L19.5 10.25H19.4999V11ZM21.2378 16.6309C20.9168 16.8927 20.8689 17.3652 21.1307 17.6861C21.3926 18.0071 21.865 18.055 22.186 17.7932L21.2378 16.6309ZM18.4999 17.25H7.49992V18.75H18.4999V17.25ZM7.49992 17.25C5.28428 17.25 3.54492 15.5397 3.54492 13.5H2.04492C2.04492 16.4304 4.51957 18.75 7.49992 18.75V17.25ZM3.54492 13.5C3.54492 11.4604 5.28428 9.75004 7.49992 9.75004V8.25004C4.51957 8.25004 2.04492 10.5697 2.04492 13.5H3.54492ZM8.23179 9.16398C8.32555 8.74537 8.48741 8.3478 8.70974 7.98008L7.42611 7.204C7.12243 7.70628 6.89829 8.25471 6.76806 8.8361L8.23179 9.16398ZM10.5125 6.30703C10.7988 6.15562 11.1046 6.02925 11.4274 5.93242L10.9964 4.49568C10.5791 4.62084 10.1829 4.78448 9.81123 4.98106L10.5125 6.30703ZM11.4295 5.93179C13.1031 5.4244 14.9426 5.7664 16.2453 6.8013L17.1784 5.6268C15.4751 4.27369 13.1206 3.85169 10.9943 4.4963L11.4295 5.93179ZM16.2458 6.80168C17.54 7.82806 18.0975 9.36788 17.7681 10.8358L19.2317 11.1643C19.6962 9.09421 18.8897 6.98403 17.1779 5.62642L16.2458 6.80168ZM18.4999 11.75H19.4999V10.25H18.4999V11.75ZM19.4998 11.75C20.6628 11.7502 21.6999 12.4819 22.09 13.5776L23.5031 13.0744C22.9002 11.3812 21.2973 10.2503 19.5 10.25L19.4998 11.75ZM22.09 13.5776C22.4802 14.6732 22.1389 15.8957 21.2378 16.6309L22.186 17.7932C23.5787 16.657 24.1061 14.7676 23.5031 13.0744L22.09 13.5776Z" fill="#2F2B3D" fill-opacity="0.9"/>
</svg>
