<svg width="25" height="24" viewBox="0 0 25 24" fill="none" xmlns="http://www.w3.org/2000/svg">
<path d="M19.5 17.9999C21.433 17.9999 23 16.4329 23 14.4999C23 12.5669 21.433 10.9999 19.5 10.9999H18.5C18.897 9.23192 18.215 7.40692 16.712 6.21292C15.209 5.01992 13.112 4.63792 11.212 5.21292C9.31201 5.78792 7.89701 7.23192 7.50001 8.99992C5.30101 8.91192 3.34501 10.3259 2.83401 12.3729C2.32201 14.4199 3.39801 16.5269 5.40001 17.3999" stroke="#2F2B3D" stroke-opacity="0.9" stroke-width="1.5" stroke-linecap="round" stroke-linejoin="round"/>
<rect x="8.5" y="15" width="8" height="5" rx="1" stroke="#2F2B3D" stroke-opacity="0.9" stroke-width="1.5" stroke-linecap="round" stroke-linejoin="round"/>
<path d="M10.5 15.0001V13.0001C10.4996 12.0932 11.1094 11.2996 11.9858 11.0664C12.8621 10.8333 13.7857 11.2189 14.236 12.0061" stroke="#2F2B3D" stroke-opacity="0.9" stroke-width="1.5" stroke-linecap="round" stroke-linejoin="round"/>
</svg>
