<svg width="25" height="24" viewBox="0 0 25 24" fill="none" xmlns="http://www.w3.org/2000/svg">
<path d="M19.5 18C21.433 18 23 16.433 23 14.5C23 12.567 21.433 11 19.5 11H18.5C18.897 9.23204 18.215 7.40704 16.712 6.21304C15.209 5.02004 13.112 4.63804 11.212 5.21304C9.31201 5.78804 7.89701 7.23204 7.50001 9.00004C5.30101 8.91204 3.34501 10.326 2.83401 12.373C2.32201 14.42 3.39801 16.527 5.40001 17.4" stroke="#6D6B77" stroke-width="1.5" stroke-linecap="round" stroke-linejoin="round"/>
<rect x="8.5" y="15" width="8" height="5" rx="1" stroke="#6D6B77" stroke-width="1.5" stroke-linecap="round" stroke-linejoin="round"/>
<path d="M10.5 15V13C10.4996 12.0931 11.1094 11.2995 11.9858 11.0663C12.8621 10.8332 13.7857 11.2188 14.236 12.006" stroke="#6D6B77" stroke-width="1.5" stroke-linecap="round" stroke-linejoin="round"/>
</svg>
