<svg width="25" height="24" viewBox="0 0 25 24" fill="none" xmlns="http://www.w3.org/2000/svg">
<path d="M7.49996 17.9998C4.90171 17.9998 2.79541 15.9851 2.79541 13.4998C2.79541 11.0145 4.90171 8.99979 7.49996 8.99979C7.89692 7.23133 9.31202 5.7878 11.2122 5.21297C13.1124 4.63814 15.209 5.01934 16.7122 6.21297C18.2154 7.4066 18.8969 9.23133 18.5 10.9998H19.5C21.433 10.9998 23 12.5668 23 14.4998C23 16.4328 21.433 17.9998 19.5 17.9998" stroke="#2F2B3D" stroke-opacity="0.9" stroke-width="1.5" stroke-linecap="round" stroke-linejoin="round"/>
<path d="M12.25 13C12.25 12.5858 11.9142 12.25 11.5 12.25C11.0858 12.25 10.75 12.5858 10.75 13H12.25ZM10.75 15C10.75 15.4142 11.0858 15.75 11.5 15.75C11.9142 15.75 12.25 15.4142 12.25 15H10.75ZM12.25 18C12.25 17.5858 11.9142 17.25 11.5 17.25C11.0858 17.25 10.75 17.5858 10.75 18H12.25ZM10.75 20C10.75 20.4142 11.0858 20.75 11.5 20.75C11.9142 20.75 12.25 20.4142 12.25 20H10.75ZM16.25 15C16.25 14.5858 15.9142 14.25 15.5 14.25C15.0858 14.25 14.75 14.5858 14.75 15H16.25ZM14.75 17C14.75 17.4142 15.0858 17.75 15.5 17.75C15.9142 17.75 16.25 17.4142 16.25 17H14.75ZM16.25 20C16.25 19.5858 15.9142 19.25 15.5 19.25C15.0858 19.25 14.75 19.5858 14.75 20H16.25ZM14.75 22C14.75 22.4142 15.0858 22.75 15.5 22.75C15.9142 22.75 16.25 22.4142 16.25 22H14.75ZM10.75 13V15H12.25V13H10.75ZM10.75 18V20H12.25V18H10.75ZM14.75 15V17H16.25V15H14.75ZM14.75 20V22H16.25V20H14.75Z" fill="#2F2B3D" fill-opacity="0.9"/>
</svg>
