<svg width="25" height="24" viewBox="0 0 25 24" fill="none" xmlns="http://www.w3.org/2000/svg">
<path fill-rule="evenodd" clip-rule="evenodd" d="M12.5 3C14.0257 3.00008 15.4184 3.86806 16.0906 5.23771C16.7628 6.60735 16.5973 8.24009 15.664 9.447C17.5139 8.49067 19.7881 9.1137 20.8923 10.8793C21.9965 12.645 21.5613 14.9624 19.8917 16.2071C18.2221 17.4519 15.8769 17.2073 14.5 15.645V17L15.5 21H9.49997L10.5 17L10.501 15.645C9.12385 17.2069 6.77882 17.451 5.10954 16.2062C3.44026 14.9615 3.00516 12.6443 4.10919 10.8788C5.21323 9.11327 7.48708 8.49008 9.33697 9.446C8.40434 8.23923 8.23911 6.60713 8.91097 5.23794C9.58282 3.86874 10.9748 3.00075 12.5 3Z" stroke="#ACAAB1" stroke-width="1.5" stroke-linecap="round" stroke-linejoin="round"/>
</svg>
