<svg width="25" height="24" viewBox="0 0 25 24" fill="none" xmlns="http://www.w3.org/2000/svg">
<path d="M3.5 14C4.33 14.642 5.577 15.017 7 15C8.423 15.017 9.67 14.642 10.5 14C11.33 13.358 12.577 12.983 14 13C15.423 12.983 16.67 13.358 17.5 14" stroke="#ACAAB1" stroke-width="1.5" stroke-linecap="round" stroke-linejoin="round"/>
<path d="M8.50004 3C7.85753 3.46118 7.48348 4.20929 7.50004 5C7.48348 5.79071 7.85753 6.53882 8.50004 7" stroke="#ACAAB1" stroke-width="1.5" stroke-linecap="round" stroke-linejoin="round"/>
<path d="M12.5 3C11.8575 3.46118 11.4835 4.20929 11.5 5C11.4835 5.79071 11.8575 6.53882 12.5 7" stroke="#ACAAB1" stroke-width="1.5" stroke-linecap="round" stroke-linejoin="round"/>
<path fill-rule="evenodd" clip-rule="evenodd" d="M3.5 10H17.5V15C17.5 18.3137 14.8137 21 11.5 21H9.5C6.18629 21 3.5 18.3137 3.5 15V10Z" stroke="#ACAAB1" stroke-width="1.5" stroke-linecap="round" stroke-linejoin="round"/>
<path d="M17.246 16.726C18.4748 17.2901 19.9291 16.9625 20.7974 15.926C21.6656 14.8894 21.7332 13.4002 20.9623 12.2893C20.1915 11.1784 18.7728 10.7205 17.498 11.171" stroke="#ACAAB1" stroke-width="1.5" stroke-linecap="round" stroke-linejoin="round"/>
</svg>
