<svg width="25" height="24" viewBox="0 0 25 24" fill="none" xmlns="http://www.w3.org/2000/svg">
<path d="M3.5 14.0001C4.33 14.6421 5.577 15.0171 7 15.0001C8.423 15.0171 9.67 14.6421 10.5 14.0001C11.33 13.3581 12.577 12.9831 14 13.0001C15.423 12.9831 16.67 13.3581 17.5 14.0001" stroke="#2F2B3D" stroke-opacity="0.9" stroke-width="1.5" stroke-linecap="round" stroke-linejoin="round"/>
<path d="M8.50004 3C7.85753 3.46118 7.48348 4.20929 7.50004 5C7.48348 5.79071 7.85753 6.53882 8.50004 7" stroke="#2F2B3D" stroke-opacity="0.9" stroke-width="1.5" stroke-linecap="round" stroke-linejoin="round"/>
<path d="M12.5 3C11.8575 3.46118 11.4835 4.20929 11.5 5C11.4835 5.79071 11.8575 6.53882 12.5 7" stroke="#2F2B3D" stroke-opacity="0.9" stroke-width="1.5" stroke-linecap="round" stroke-linejoin="round"/>
<path fill-rule="evenodd" clip-rule="evenodd" d="M3.5 10H17.5V15C17.5 18.3137 14.8137 21 11.5 21H9.5C6.18629 21 3.5 18.3137 3.5 15V10Z" stroke="#2F2B3D" stroke-opacity="0.9" stroke-width="1.5" stroke-linecap="round" stroke-linejoin="round"/>
<path d="M17.246 16.7262C18.4748 17.2903 19.9291 16.9627 20.7974 15.9262C21.6656 14.8896 21.7332 13.4004 20.9623 12.2895C20.1915 11.1786 18.7728 10.7207 17.498 11.1712" stroke="#2F2B3D" stroke-opacity="0.9" stroke-width="1.5" stroke-linecap="round" stroke-linejoin="round"/>
</svg>
