<svg width="25" height="24" viewBox="0 0 25 24" fill="none" xmlns="http://www.w3.org/2000/svg">
<circle cx="12.5" cy="12" r="9" stroke="#2F2B3D" stroke-opacity="0.9" stroke-width="1.5" stroke-linecap="round" stroke-linejoin="round"/>
<path d="M15.3 9.00016C14.9309 8.35984 14.2387 7.97529 13.5 8.00016H11.5C10.3954 8.00016 9.5 8.89559 9.5 10.0002C9.5 11.1047 10.3954 12.0002 11.5 12.0002H13.5C14.6046 12.0002 15.5 12.8956 15.5 14.0002C15.5 15.1047 14.6046 16.0002 13.5 16.0002H11.5C10.7613 16.025 10.0691 15.6405 9.7 15.0002" stroke="#2F2B3D" stroke-opacity="0.9" stroke-width="1.5" stroke-linecap="round" stroke-linejoin="round"/>
<path d="M13.25 6C13.25 5.58579 12.9142 5.25 12.5 5.25C12.0858 5.25 11.75 5.58579 11.75 6H13.25ZM11.75 8C11.75 8.41421 12.0858 8.75 12.5 8.75C12.9142 8.75 13.25 8.41421 13.25 8H11.75ZM13.25 16C13.25 15.5858 12.9142 15.25 12.5 15.25C12.0858 15.25 11.75 15.5858 11.75 16H13.25ZM11.75 18C11.75 18.4142 12.0858 18.75 12.5 18.75C12.9142 18.75 13.25 18.4142 13.25 18H11.75ZM11.75 6V8H13.25V6H11.75ZM11.75 16V18H13.25V16H11.75Z" fill="#2F2B3D" fill-opacity="0.9"/>
</svg>
