<svg width="25" height="24" viewBox="0 0 25 24" fill="none" xmlns="http://www.w3.org/2000/svg">
<path d="M19.5 3H15.5C14.3954 3 13.5 3.89543 13.5 5V17C13.5 19.2091 15.2909 21 17.5 21C19.7091 21 21.5 19.2091 21.5 17V5C21.5 3.89543 20.6046 3 19.5 3" stroke="#2F2B3D" stroke-opacity="0.9" stroke-width="1.5" stroke-linecap="round" stroke-linejoin="round"/>
<path d="M13.5 7.35022L11.5 5.35022C10.719 4.56946 9.453 4.56946 8.672 5.35022L5.844 8.17822C5.06323 8.95922 5.06323 10.2252 5.844 11.0062L14.844 20.0062" stroke="#2F2B3D" stroke-opacity="0.9" stroke-width="1.5" stroke-linecap="round" stroke-linejoin="round"/>
<path d="M7.8 13H5.5C4.39543 13 3.5 13.8954 3.5 15V19C3.5 20.1046 4.39543 21 5.5 21H17.5" stroke="#2F2B3D" stroke-opacity="0.9" stroke-width="1.5" stroke-linecap="round" stroke-linejoin="round"/>
<path d="M17.5 16.9999V17.0099" stroke="#2F2B3D" stroke-opacity="0.9" stroke-width="1.5" stroke-linecap="round" stroke-linejoin="round"/>
</svg>
