<svg width="25" height="24" viewBox="0 0 25 24" fill="none" xmlns="http://www.w3.org/2000/svg">
<path d="M19.5 3H15.5C14.3954 3 13.5 3.89543 13.5 5V17C13.5 19.2091 15.2909 21 17.5 21C19.7091 21 21.5 19.2091 21.5 17V5C21.5 3.89543 20.6046 3 19.5 3" stroke="#E1DEF5" stroke-opacity="0.4" stroke-width="1.5" stroke-linecap="round" stroke-linejoin="round"/>
<path d="M13.5 7.34998L11.5 5.34998C10.719 4.56921 9.453 4.56921 8.672 5.34998L5.844 8.17798C5.06323 8.95898 5.06323 10.225 5.844 11.006L14.844 20.006" stroke="#E1DEF5" stroke-opacity="0.4" stroke-width="1.5" stroke-linecap="round" stroke-linejoin="round"/>
<path d="M7.8 13H5.5C4.39543 13 3.5 13.8954 3.5 15V19C3.5 20.1046 4.39543 21 5.5 21H17.5" stroke="#E1DEF5" stroke-opacity="0.4" stroke-width="1.5" stroke-linecap="round" stroke-linejoin="round"/>
<path d="M17.5 17V17.01" stroke="#E1DEF5" stroke-opacity="0.4" stroke-width="1.5" stroke-linecap="round" stroke-linejoin="round"/>
</svg>
