<svg width="25" height="24" viewBox="0 0 25 24" fill="none" xmlns="http://www.w3.org/2000/svg">
<path d="M7.5 9C6.39543 9 5.5 8.10457 5.5 7C5.5 5.89543 6.39543 5 7.5 5C8.60457 5 9.5 5.89543 9.5 7V17C9.5 18.1046 8.60457 19 7.5 19C6.39543 19 5.5 18.1046 5.5 17C5.5 15.8954 6.39543 15 7.5 15H17.5C18.6046 15 19.5 15.8954 19.5 17C19.5 18.1046 18.6046 19 17.5 19C16.3954 19 15.5 18.1046 15.5 17V7C15.5 5.89543 16.3954 5 17.5 5C18.6046 5 19.5 5.89543 19.5 7C19.5 8.10457 18.6046 9 17.5 9H7.5" stroke="#E1DEF5" stroke-opacity="0.4" stroke-width="1.5" stroke-linecap="round" stroke-linejoin="round"/>
</svg>
