<svg width="24" height="24" viewBox="0 0 24 24" fill="none" xmlns="http://www.w3.org/2000/svg">
<path d="M8 13V13.01" stroke="#E1DEF5" stroke-opacity="0.4" stroke-width="1.5" stroke-linecap="round" stroke-linejoin="round"/>
<path d="M12 17V17.01" stroke="#E1DEF5" stroke-opacity="0.4" stroke-width="1.5" stroke-linecap="round" stroke-linejoin="round"/>
<path d="M12 12V12.01" stroke="#E1DEF5" stroke-opacity="0.4" stroke-width="1.5" stroke-linecap="round" stroke-linejoin="round"/>
<path d="M16 14V14.01" stroke="#E1DEF5" stroke-opacity="0.4" stroke-width="1.5" stroke-linecap="round" stroke-linejoin="round"/>
<path d="M11 8V8.01" stroke="#E1DEF5" stroke-opacity="0.4" stroke-width="1.5" stroke-linecap="round" stroke-linejoin="round"/>
<path fill-rule="evenodd" clip-rule="evenodd" d="M13.148 3.47602L15.815 4.58002C14.7287 6.0092 14.7276 7.98702 15.8123 9.41742C16.897 10.8478 18.8018 11.3804 20.471 10.72L20.524 10.852C20.8285 11.5871 20.8285 12.413 20.524 13.148C20.027 13.934 19.686 14.552 19.5 15C19.311 15.456 19.091 16.194 18.84 17.216C18.5353 17.951 17.9511 18.5348 17.216 18.839C16.168 19.102 15.429 19.322 15 19.5C14.525 19.697 13.908 20.038 13.148 20.524C12.413 20.8285 11.5871 20.8285 10.852 20.524C10.05 20.021 9.43302 19.68 9.00002 19.5C8.52902 19.305 7.79002 19.085 6.78402 18.84C6.04908 18.5353 5.46528 17.9511 5.16102 17.216C4.89602 16.164 4.67602 15.426 4.50002 15C4.30202 14.521 3.96002 13.904 3.47602 13.148C3.17157 12.413 3.17157 11.5871 3.47602 10.852C3.95602 10.108 4.29602 9.49102 4.50002 9.00002C4.67102 8.58702 4.89102 7.84802 5.16002 6.78402C5.46473 6.04908 6.04889 5.46528 6.78402 5.16102C7.81602 4.90502 8.55402 4.68502 9.00002 4.50002C9.45802 4.31002 10.075 3.96902 10.852 3.47602C11.5871 3.17157 12.413 3.17157 13.148 3.47602Z" stroke="#E1DEF5" stroke-opacity="0.4" stroke-width="1.5" stroke-linecap="round" stroke-linejoin="round"/>
</svg>
