<svg width="24" height="24" viewBox="0 0 24 24" fill="none" xmlns="http://www.w3.org/2000/svg">
<path d="M8 12.9999V13.0099" stroke="#2F2B3D" stroke-opacity="0.9" stroke-width="1.5" stroke-linecap="round" stroke-linejoin="round"/>
<path d="M12 16.9999V17.0099" stroke="#2F2B3D" stroke-opacity="0.9" stroke-width="1.5" stroke-linecap="round" stroke-linejoin="round"/>
<path d="M12 11.9999V12.0099" stroke="#2F2B3D" stroke-opacity="0.9" stroke-width="1.5" stroke-linecap="round" stroke-linejoin="round"/>
<path d="M16 13.9999V14.0099" stroke="#2F2B3D" stroke-opacity="0.9" stroke-width="1.5" stroke-linecap="round" stroke-linejoin="round"/>
<path d="M11 7.99988V8.00988" stroke="#2F2B3D" stroke-opacity="0.9" stroke-width="1.5" stroke-linecap="round" stroke-linejoin="round"/>
<path fill-rule="evenodd" clip-rule="evenodd" d="M13.148 3.4759L15.815 4.5799C14.7287 6.00907 14.7276 7.9869 15.8123 9.41729C16.897 10.8477 18.8018 11.3803 20.471 10.7199L20.524 10.8519C20.8285 11.587 20.8285 12.4128 20.524 13.1479C20.027 13.9339 19.686 14.5519 19.5 14.9999C19.311 15.4559 19.091 16.1939 18.84 17.2159C18.5353 17.9508 17.9511 18.5346 17.216 18.8389C16.168 19.1019 15.429 19.3219 15 19.4999C14.525 19.6969 13.908 20.0379 13.148 20.5239C12.413 20.8284 11.5871 20.8284 10.852 20.5239C10.05 20.0209 9.43302 19.6799 9.00002 19.4999C8.52902 19.3049 7.79002 19.0849 6.78402 18.8399C6.04908 18.5352 5.46528 17.951 5.16102 17.2159C4.89602 16.1639 4.67602 15.4259 4.50002 14.9999C4.30202 14.5209 3.96002 13.9039 3.47602 13.1479C3.17157 12.4128 3.17157 11.587 3.47602 10.8519C3.95602 10.1079 4.29602 9.4909 4.50002 8.9999C4.67102 8.5869 4.89102 7.8479 5.16002 6.7839C5.46473 6.04896 6.04889 5.46515 6.78402 5.1609C7.81602 4.9049 8.55402 4.6849 9.00002 4.4999C9.45802 4.3099 10.075 3.9689 10.852 3.4759C11.5871 3.17145 12.413 3.17145 13.148 3.4759Z" stroke="#2F2B3D" stroke-opacity="0.9" stroke-width="1.5" stroke-linecap="round" stroke-linejoin="round"/>
</svg>
