<svg width="24" height="24" viewBox="0 0 24 24" fill="none" xmlns="http://www.w3.org/2000/svg">
<path d="M4 5V11C4 12.6569 5.34315 14 7 14H14" stroke="#6D6B77" stroke-width="1.5" stroke-linecap="round" stroke-linejoin="round"/>
<path d="M10.5303 9.46967C10.2374 9.17678 9.76256 9.17678 9.46967 9.46967C9.17678 9.76256 9.17678 10.2374 9.46967 10.5303L10.5303 9.46967ZM14 14L14.5303 14.5303C14.8232 14.2374 14.8232 13.7626 14.5303 13.4697L14 14ZM9.46967 17.4697C9.17678 17.7626 9.17678 18.2374 9.46967 18.5303C9.76256 18.8232 10.2374 18.8232 10.5303 18.5303L9.46967 17.4697ZM15.5303 9.46967C15.2374 9.17678 14.7626 9.17678 14.4697 9.46967C14.1768 9.76256 14.1768 10.2374 14.4697 10.5303L15.5303 9.46967ZM19 14L19.5303 14.5303C19.8232 14.2374 19.8232 13.7626 19.5303 13.4697L19 14ZM14.4697 17.4697C14.1768 17.7626 14.1768 18.2374 14.4697 18.5303C14.7626 18.8232 15.2374 18.8232 15.5303 18.5303L14.4697 17.4697ZM9.46967 10.5303L13.4697 14.5303L14.5303 13.4697L10.5303 9.46967L9.46967 10.5303ZM13.4697 13.4697L9.46967 17.4697L10.5303 18.5303L14.5303 14.5303L13.4697 13.4697ZM14.4697 10.5303L18.4697 14.5303L19.5303 13.4697L15.5303 9.46967L14.4697 10.5303ZM18.4697 13.4697L14.4697 17.4697L15.5303 18.5303L19.5303 14.5303L18.4697 13.4697Z" fill="#6D6B77"/>
</svg>
