<svg width="24" height="24" viewBox="0 0 24 24" fill="none" xmlns="http://www.w3.org/2000/svg">
<path d="M18.75 6C18.75 5.58579 18.4142 5.25 18 5.25C17.5858 5.25 17.25 5.58579 17.25 6H18.75ZM5 15L4.46967 14.4697C4.25517 14.6842 4.191 15.0068 4.30709 15.287C4.42318 15.5673 4.69665 15.75 5 15.75V15ZM9.53033 11.5303C9.82322 11.2374 9.82322 10.7626 9.53033 10.4697C9.23744 10.1768 8.76256 10.1768 8.46967 10.4697L9.53033 11.5303ZM8.46967 19.5303C8.76256 19.8232 9.23744 19.8232 9.53033 19.5303C9.82322 19.2374 9.82322 18.7626 9.53033 18.4697L8.46967 19.5303ZM5.53033 14.4697C5.23744 14.1768 4.76256 14.1768 4.46967 14.4697C4.17678 14.7626 4.17678 15.2374 4.46967 15.5303L5.53033 14.4697ZM17.25 6V12H18.75V6H17.25ZM17.25 12C17.25 13.2426 16.2426 14.25 15 14.25V15.75C17.0711 15.75 18.75 14.0711 18.75 12H17.25ZM15 14.25H5V15.75H15V14.25ZM5.53033 15.5303L9.53033 11.5303L8.46967 10.4697L4.46967 14.4697L5.53033 15.5303ZM9.53033 18.4697L5.53033 14.4697L4.46967 15.5303L8.46967 19.5303L9.53033 18.4697Z" fill="#ACAAB1"/>
</svg>
