<svg width="24" height="24" viewBox="0 0 24 24" fill="none" xmlns="http://www.w3.org/2000/svg">
<path d="M6 5.25C5.58579 5.25 5.25 5.58579 5.25 6C5.25 6.41421 5.58579 6.75 6 6.75V5.25ZM15 19L14.4697 19.5303C14.6842 19.7448 15.0068 19.809 15.287 19.6929C15.5673 19.5768 15.75 19.3033 15.75 19H15ZM11.5303 14.4697C11.2374 14.1768 10.7626 14.1768 10.4697 14.4697C10.1768 14.7626 10.1768 15.2374 10.4697 15.5303L11.5303 14.4697ZM19.5303 15.5303C19.8232 15.2374 19.8232 14.7626 19.5303 14.4697C19.2374 14.1768 18.7626 14.1768 18.4697 14.4697L19.5303 15.5303ZM14.4697 18.4697C14.1768 18.7626 14.1768 19.2374 14.4697 19.5303C14.7626 19.8232 15.2374 19.8232 15.5303 19.5303L14.4697 18.4697ZM6 6.75H12V5.25H6V6.75ZM12 6.75C13.2426 6.75 14.25 7.75736 14.25 9H15.75C15.75 6.92893 14.0711 5.25 12 5.25V6.75ZM14.25 9V19H15.75V9H14.25ZM15.5303 18.4697L11.5303 14.4697L10.4697 15.5303L14.4697 19.5303L15.5303 18.4697ZM18.4697 14.4697L14.4697 18.4697L15.5303 19.5303L19.5303 15.5303L18.4697 14.4697Z" fill="#ACAAB1"/>
</svg>
