<svg width="24" height="24" viewBox="0 0 24 24" fill="none" xmlns="http://www.w3.org/2000/svg">
<path d="M17.25 18C17.25 18.4142 17.5858 18.75 18 18.75C18.4142 18.75 18.75 18.4142 18.75 18H17.25ZM5 9L4.46967 8.46967C4.25517 8.68417 4.191 9.00676 4.30709 9.28701C4.42318 9.56727 4.69665 9.75 5 9.75V9ZM9.53033 5.53033C9.82322 5.23744 9.82322 4.76256 9.53033 4.46967C9.23744 4.17678 8.76256 4.17678 8.46967 4.46967L9.53033 5.53033ZM8.46967 13.5303C8.76256 13.8232 9.23744 13.8232 9.53033 13.5303C9.82322 13.2374 9.82322 12.7626 9.53033 12.4697L8.46967 13.5303ZM5.53033 8.46967C5.23744 8.17678 4.76256 8.17678 4.46967 8.46967C4.17678 8.76256 4.17678 9.23744 4.46967 9.53033L5.53033 8.46967ZM18.75 18V12H17.25V18H18.75ZM18.75 12C18.75 9.92893 17.0711 8.25 15 8.25V9.75C16.2426 9.75 17.25 10.7574 17.25 12H18.75ZM15 8.25H5V9.75H15V8.25ZM5.53033 9.53033L9.53033 5.53033L8.46967 4.46967L4.46967 8.46967L5.53033 9.53033ZM9.53033 12.4697L5.53033 8.46967L4.46967 9.53033L8.46967 13.5303L9.53033 12.4697Z" fill="#ACAAB1"/>
</svg>
