<svg width="24" height="24" viewBox="0 0 24 24" fill="none" xmlns="http://www.w3.org/2000/svg">
<path d="M5 19H11C12.6569 19 14 17.6569 14 16V9" stroke="#E1DEF5" stroke-opacity="0.4" stroke-width="1.5" stroke-linecap="round" stroke-linejoin="round"/>
<path d="M9.46967 12.4697C9.17678 12.7626 9.17678 13.2374 9.46967 13.5303C9.76256 13.8232 10.2374 13.8232 10.5303 13.5303L9.46967 12.4697ZM14 9L14.5303 8.46967C14.2374 8.17678 13.7626 8.17678 13.4697 8.46967L14 9ZM17.4697 13.5303C17.7626 13.8232 18.2374 13.8232 18.5303 13.5303C18.8232 13.2374 18.8232 12.7626 18.5303 12.4697L17.4697 13.5303ZM9.46967 7.46967C9.17678 7.76256 9.17678 8.23744 9.46967 8.53033C9.76256 8.82322 10.2374 8.82322 10.5303 8.53033L9.46967 7.46967ZM14 4L14.5303 3.46967C14.2374 3.17678 13.7626 3.17678 13.4697 3.46967L14 4ZM17.4697 8.53033C17.7626 8.82322 18.2374 8.82322 18.5303 8.53033C18.8232 8.23744 18.8232 7.76256 18.5303 7.46967L17.4697 8.53033ZM10.5303 13.5303L14.5303 9.53033L13.4697 8.46967L9.46967 12.4697L10.5303 13.5303ZM13.4697 9.53033L17.4697 13.5303L18.5303 12.4697L14.5303 8.46967L13.4697 9.53033ZM10.5303 8.53033L14.5303 4.53033L13.4697 3.46967L9.46967 7.46967L10.5303 8.53033ZM13.4697 4.53033L17.4697 8.53033L18.5303 7.46967L14.5303 3.46967L13.4697 4.53033Z" fill="#E1DEF5" fill-opacity="0.4"/>
</svg>
