<svg width="24" height="24" viewBox="0 0 24 24" fill="none" xmlns="http://www.w3.org/2000/svg">
<path d="M6 17.25C5.58579 17.25 5.25 17.5858 5.25 18C5.25 18.4142 5.58579 18.75 6 18.75V17.25ZM15 5H15.75C15.75 4.69665 15.5673 4.42318 15.287 4.30709C15.0068 4.191 14.6842 4.25517 14.4697 4.46967L15 5ZM10.4697 8.46967C10.1768 8.76256 10.1768 9.23744 10.4697 9.53033C10.7626 9.82322 11.2374 9.82322 11.5303 9.53033L10.4697 8.46967ZM18.4697 9.53033C18.7626 9.82322 19.2374 9.82322 19.5303 9.53033C19.8232 9.23744 19.8232 8.76256 19.5303 8.46967L18.4697 9.53033ZM15.5303 4.46967C15.2374 4.17678 14.7626 4.17678 14.4697 4.46967C14.1768 4.76256 14.1768 5.23744 14.4697 5.53033L15.5303 4.46967ZM6 18.75H12V17.25H6V18.75ZM12 18.75C14.0711 18.75 15.75 17.0711 15.75 15H14.25C14.25 16.2426 13.2426 17.25 12 17.25V18.75ZM15.75 15V5H14.25V15H15.75ZM14.4697 4.46967L10.4697 8.46967L11.5303 9.53033L15.5303 5.53033L14.4697 4.46967ZM19.5303 8.46967L15.5303 4.46967L14.4697 5.53033L18.4697 9.53033L19.5303 8.46967Z" fill="#E1DEF5" fill-opacity="0.4"/>
</svg>
