<svg width="24" height="24" viewBox="0 0 24 24" fill="none" xmlns="http://www.w3.org/2000/svg">
<path d="M18 4H12C10.3431 4 9 5.34315 9 7V14" stroke="#E1DEF5" stroke-opacity="0.7" stroke-width="1.5" stroke-linecap="round" stroke-linejoin="round"/>
<path d="M13.5303 10.5303C13.8232 10.2374 13.8232 9.76256 13.5303 9.46967C13.2374 9.17678 12.7626 9.17678 12.4697 9.46967L13.5303 10.5303ZM9 14L8.46967 14.5303C8.76256 14.8232 9.23744 14.8232 9.53033 14.5303L9 14ZM5.53033 9.46967C5.23744 9.17678 4.76256 9.17678 4.46967 9.46967C4.17678 9.76256 4.17678 10.2374 4.46967 10.5303L5.53033 9.46967ZM13.5303 15.5303C13.8232 15.2374 13.8232 14.7626 13.5303 14.4697C13.2374 14.1768 12.7626 14.1768 12.4697 14.4697L13.5303 15.5303ZM9 19L8.46967 19.5303C8.76256 19.8232 9.23744 19.8232 9.53033 19.5303L9 19ZM5.53033 14.4697C5.23744 14.1768 4.76256 14.1768 4.46967 14.4697C4.17678 14.7626 4.17678 15.2374 4.46967 15.5303L5.53033 14.4697ZM12.4697 9.46967L8.46967 13.4697L9.53033 14.5303L13.5303 10.5303L12.4697 9.46967ZM9.53033 13.4697L5.53033 9.46967L4.46967 10.5303L8.46967 14.5303L9.53033 13.4697ZM12.4697 14.4697L8.46967 18.4697L9.53033 19.5303L13.5303 15.5303L12.4697 14.4697ZM9.53033 18.4697L5.53033 14.4697L4.46967 15.5303L8.46967 19.5303L9.53033 18.4697Z" fill="#E1DEF5" fill-opacity="0.7"/>
</svg>
