<svg width="24" height="24" viewBox="0 0 24 24" fill="none" xmlns="http://www.w3.org/2000/svg">
<path d="M5 4H11C12.6569 4 14 5.34315 14 7V14" stroke="#E1DEF5" stroke-opacity="0.9" stroke-width="1.5" stroke-linecap="round" stroke-linejoin="round"/>
<path d="M10.5303 9.46967C10.2374 9.17678 9.76256 9.17678 9.46967 9.46967C9.17678 9.76256 9.17678 10.2374 9.46967 10.5303L10.5303 9.46967ZM14 14L13.4697 14.5303C13.7626 14.8232 14.2374 14.8232 14.5303 14.5303L14 14ZM18.5303 10.5303C18.8232 10.2374 18.8232 9.76256 18.5303 9.46967C18.2374 9.17678 17.7626 9.17678 17.4697 9.46967L18.5303 10.5303ZM10.5303 14.4697C10.2374 14.1768 9.76256 14.1768 9.46967 14.4697C9.17678 14.7626 9.17678 15.2374 9.46967 15.5303L10.5303 14.4697ZM14 19L13.4697 19.5303C13.7626 19.8232 14.2374 19.8232 14.5303 19.5303L14 19ZM18.5303 15.5303C18.8232 15.2374 18.8232 14.7626 18.5303 14.4697C18.2374 14.1768 17.7626 14.1768 17.4697 14.4697L18.5303 15.5303ZM9.46967 10.5303L13.4697 14.5303L14.5303 13.4697L10.5303 9.46967L9.46967 10.5303ZM14.5303 14.5303L18.5303 10.5303L17.4697 9.46967L13.4697 13.4697L14.5303 14.5303ZM9.46967 15.5303L13.4697 19.5303L14.5303 18.4697L10.5303 14.4697L9.46967 15.5303ZM14.5303 19.5303L18.5303 15.5303L17.4697 14.4697L13.4697 18.4697L14.5303 19.5303Z" fill="#E1DEF5" fill-opacity="0.9"/>
</svg>
