<svg width="24" height="24" viewBox="0 0 24 24" fill="none" xmlns="http://www.w3.org/2000/svg">
<path d="M5.25 18C5.25 18.4142 5.58579 18.75 6 18.75C6.41421 18.75 6.75 18.4142 6.75 18H5.25ZM19 9V9.75C19.3033 9.75 19.5768 9.56727 19.6929 9.28701C19.809 9.00676 19.7448 8.68417 19.5303 8.46967L19 9ZM15.5303 4.46967C15.2374 4.17678 14.7626 4.17678 14.4697 4.46967C14.1768 4.76256 14.1768 5.23744 14.4697 5.53033L15.5303 4.46967ZM14.4697 12.4697C14.1768 12.7626 14.1768 13.2374 14.4697 13.5303C14.7626 13.8232 15.2374 13.8232 15.5303 13.5303L14.4697 12.4697ZM19.5303 9.53033C19.8232 9.23744 19.8232 8.76256 19.5303 8.46967C19.2374 8.17678 18.7626 8.17678 18.4697 8.46967L19.5303 9.53033ZM6.75 18V12H5.25V18H6.75ZM6.75 12C6.75 10.7574 7.75736 9.75 9 9.75V8.25C6.92893 8.25 5.25 9.92893 5.25 12H6.75ZM9 9.75H19V8.25H9V9.75ZM19.5303 8.46967L15.5303 4.46967L14.4697 5.53033L18.4697 9.53033L19.5303 8.46967ZM15.5303 13.5303L19.5303 9.53033L18.4697 8.46967L14.4697 12.4697L15.5303 13.5303Z" fill="#E1DEF5" fill-opacity="0.9"/>
</svg>
