<svg width="24" height="24" viewBox="0 0 24 24" fill="none" xmlns="http://www.w3.org/2000/svg">
<path d="M18 19H12C10.3431 19 9 17.6569 9 16V9" stroke="#E1DEF5" stroke-opacity="0.9" stroke-width="1.5" stroke-linecap="round" stroke-linejoin="round"/>
<path d="M12.4697 13.5303C12.7626 13.8232 13.2374 13.8232 13.5303 13.5303C13.8232 13.2374 13.8232 12.7626 13.5303 12.4697L12.4697 13.5303ZM9 9L9.53033 8.46967C9.23744 8.17678 8.76256 8.17678 8.46967 8.46967L9 9ZM4.46967 12.4697C4.17678 12.7626 4.17678 13.2374 4.46967 13.5303C4.76256 13.8232 5.23744 13.8232 5.53033 13.5303L4.46967 12.4697ZM12.4697 8.53033C12.7626 8.82322 13.2374 8.82322 13.5303 8.53033C13.8232 8.23744 13.8232 7.76256 13.5303 7.46967L12.4697 8.53033ZM9 4L9.53033 3.46967C9.23744 3.17678 8.76256 3.17678 8.46967 3.46967L9 4ZM4.46967 7.46967C4.17678 7.76256 4.17678 8.23744 4.46967 8.53033C4.76256 8.82322 5.23744 8.82322 5.53033 8.53033L4.46967 7.46967ZM13.5303 12.4697L9.53033 8.46967L8.46967 9.53033L12.4697 13.5303L13.5303 12.4697ZM8.46967 8.46967L4.46967 12.4697L5.53033 13.5303L9.53033 9.53033L8.46967 8.46967ZM13.5303 7.46967L9.53033 3.46967L8.46967 4.53033L12.4697 8.53033L13.5303 7.46967ZM8.46967 3.46967L4.46967 7.46967L5.53033 8.53033L9.53033 4.53033L8.46967 3.46967Z" fill="#E1DEF5" fill-opacity="0.9"/>
</svg>
