<svg width="24" height="24" viewBox="0 0 24 24" fill="none" xmlns="http://www.w3.org/2000/svg">
<path d="M19 18V12C19 10.3431 17.6569 9 16 9H9" stroke="#2F2B3D" stroke-opacity="0.9" stroke-width="1.5" stroke-linecap="round" stroke-linejoin="round"/>
<path d="M12.4697 13.5303C12.7626 13.8232 13.2374 13.8232 13.5303 13.5303C13.8232 13.2374 13.8232 12.7626 13.5303 12.4697L12.4697 13.5303ZM9 9L8.46967 8.46967C8.17678 8.76256 8.17678 9.23744 8.46967 9.53033L9 9ZM13.5303 5.53033C13.8232 5.23744 13.8232 4.76256 13.5303 4.46967C13.2374 4.17678 12.7626 4.17678 12.4697 4.46967L13.5303 5.53033ZM7.46967 13.5303C7.76256 13.8232 8.23744 13.8232 8.53033 13.5303C8.82322 13.2374 8.82322 12.7626 8.53033 12.4697L7.46967 13.5303ZM4 9L3.46967 8.46967C3.17678 8.76256 3.17678 9.23744 3.46967 9.53033L4 9ZM8.53033 5.53033C8.82322 5.23744 8.82322 4.76256 8.53033 4.46967C8.23744 4.17678 7.76256 4.17678 7.46967 4.46967L8.53033 5.53033ZM13.5303 12.4697L9.53033 8.46967L8.46967 9.53033L12.4697 13.5303L13.5303 12.4697ZM9.53033 9.53033L13.5303 5.53033L12.4697 4.46967L8.46967 8.46967L9.53033 9.53033ZM8.53033 12.4697L4.53033 8.46967L3.46967 9.53033L7.46967 13.5303L8.53033 12.4697ZM4.53033 9.53033L8.53033 5.53033L7.46967 4.46967L3.46967 8.46967L4.53033 9.53033Z" fill="#2F2B3D" fill-opacity="0.9"/>
</svg>
