<svg width="24" height="24" viewBox="0 0 24 24" fill="none" xmlns="http://www.w3.org/2000/svg">
<path d="M19 5V11C19 12.6569 17.6569 14 16 14H9" stroke="#E1DEF5" stroke-opacity="0.7" stroke-width="1.5" stroke-linecap="round" stroke-linejoin="round"/>
<path d="M13.5303 10.5303C13.8232 10.2374 13.8232 9.76256 13.5303 9.46967C13.2374 9.17678 12.7626 9.17678 12.4697 9.46967L13.5303 10.5303ZM9 14L8.46967 13.4697C8.17678 13.7626 8.17678 14.2374 8.46967 14.5303L9 14ZM12.4697 18.5303C12.7626 18.8232 13.2374 18.8232 13.5303 18.5303C13.8232 18.2374 13.8232 17.7626 13.5303 17.4697L12.4697 18.5303ZM8.53033 10.5303C8.82322 10.2374 8.82322 9.76256 8.53033 9.46967C8.23744 9.17678 7.76256 9.17678 7.46967 9.46967L8.53033 10.5303ZM4 14L3.46967 13.4697C3.17678 13.7626 3.17678 14.2374 3.46967 14.5303L4 14ZM7.46967 18.5303C7.76256 18.8232 8.23744 18.8232 8.53033 18.5303C8.82322 18.2374 8.82322 17.7626 8.53033 17.4697L7.46967 18.5303ZM12.4697 9.46967L8.46967 13.4697L9.53033 14.5303L13.5303 10.5303L12.4697 9.46967ZM8.46967 14.5303L12.4697 18.5303L13.5303 17.4697L9.53033 13.4697L8.46967 14.5303ZM7.46967 9.46967L3.46967 13.4697L4.53033 14.5303L8.53033 10.5303L7.46967 9.46967ZM3.46967 14.5303L7.46967 18.5303L8.53033 17.4697L4.53033 13.4697L3.46967 14.5303Z" fill="#E1DEF5" fill-opacity="0.7"/>
</svg>
