<svg width="24" height="24" viewBox="0 0 24 24" fill="none" xmlns="http://www.w3.org/2000/svg">
<g id="Icon">
<path id="Shape" d="M18 6.75C18.4142 6.75 18.75 6.41421 18.75 6C18.75 5.58579 18.4142 5.25 18 5.25V6.75ZM9 19L8.46967 19.5303C8.68417 19.7448 9.00676 19.809 9.28701 19.6929C9.56727 19.5768 9.75 19.3033 9.75 19H9ZM5.53033 14.4697C5.23744 14.1768 4.76256 14.1768 4.46967 14.4697C4.17678 14.7626 4.17678 15.2374 4.46967 15.5303L5.53033 14.4697ZM13.5303 15.5303C13.8232 15.2374 13.8232 14.7626 13.5303 14.4697C13.2374 14.1768 12.7626 14.1768 12.4697 14.4697L13.5303 15.5303ZM8.46967 18.4697C8.17678 18.7626 8.17678 19.2374 8.46967 19.5303C8.76256 19.8232 9.23744 19.8232 9.53033 19.5303L8.46967 18.4697ZM18 5.25H12V6.75H18V5.25ZM12 5.25C9.92893 5.25 8.25 6.92893 8.25 9H9.75C9.75 7.75736 10.7574 6.75 12 6.75V5.25ZM8.25 9V19H9.75V9H8.25ZM9.53033 18.4697L5.53033 14.4697L4.46967 15.5303L8.46967 19.5303L9.53033 18.4697ZM12.4697 14.4697L8.46967 18.4697L9.53033 19.5303L13.5303 15.5303L12.4697 14.4697Z" fill="#2F2B3D" fill-opacity="0.4"/>
</g>
</svg>
