<svg width="24" height="24" viewBox="0 0 24 24" fill="none" xmlns="http://www.w3.org/2000/svg">
<path d="M6.75 6C6.75 5.58579 6.41421 5.25 6 5.25C5.58579 5.25 5.25 5.58579 5.25 6H6.75ZM19 15V15.75C19.3033 15.75 19.5768 15.5673 19.6929 15.287C19.809 15.0068 19.7448 14.6842 19.5303 14.4697L19 15ZM15.5303 10.4697C15.2374 10.1768 14.7626 10.1768 14.4697 10.4697C14.1768 10.7626 14.1768 11.2374 14.4697 11.5303L15.5303 10.4697ZM14.4697 18.4697C14.1768 18.7626 14.1768 19.2374 14.4697 19.5303C14.7626 19.8232 15.2374 19.8232 15.5303 19.5303L14.4697 18.4697ZM19.5303 15.5303C19.8232 15.2374 19.8232 14.7626 19.5303 14.4697C19.2374 14.1768 18.7626 14.1768 18.4697 14.4697L19.5303 15.5303ZM5.25 6V12H6.75V6H5.25ZM5.25 12C5.25 14.0711 6.92893 15.75 9 15.75V14.25C7.75736 14.25 6.75 13.2426 6.75 12H5.25ZM9 15.75H19V14.25H9V15.75ZM19.5303 14.4697L15.5303 10.4697L14.4697 11.5303L18.4697 15.5303L19.5303 14.4697ZM15.5303 19.5303L19.5303 15.5303L18.4697 14.4697L14.4697 18.4697L15.5303 19.5303Z" fill="#6D6B77"/>
</svg>
