<svg width="24" height="24" viewBox="0 0 24 24" fill="none" xmlns="http://www.w3.org/2000/svg">
<path d="M4 18V12C4 10.3431 5.34315 9 7 9H14" stroke="#E1DEF5" stroke-opacity="0.9" stroke-width="1.5" stroke-linecap="round" stroke-linejoin="round"/>
<path d="M9.46967 12.4697C9.17678 12.7626 9.17678 13.2374 9.46967 13.5303C9.76256 13.8232 10.2374 13.8232 10.5303 13.5303L9.46967 12.4697ZM14 9L14.5303 9.53033C14.8232 9.23744 14.8232 8.76256 14.5303 8.46967L14 9ZM10.5303 4.46967C10.2374 4.17678 9.76256 4.17678 9.46967 4.46967C9.17678 4.76256 9.17678 5.23744 9.46967 5.53033L10.5303 4.46967ZM14.4697 12.4697C14.1768 12.7626 14.1768 13.2374 14.4697 13.5303C14.7626 13.8232 15.2374 13.8232 15.5303 13.5303L14.4697 12.4697ZM19 9L19.5303 9.53033C19.8232 9.23744 19.8232 8.76256 19.5303 8.46967L19 9ZM15.5303 4.46967C15.2374 4.17678 14.7626 4.17678 14.4697 4.46967C14.1768 4.76256 14.1768 5.23744 14.4697 5.53033L15.5303 4.46967ZM10.5303 13.5303L14.5303 9.53033L13.4697 8.46967L9.46967 12.4697L10.5303 13.5303ZM14.5303 8.46967L10.5303 4.46967L9.46967 5.53033L13.4697 9.53033L14.5303 8.46967ZM15.5303 13.5303L19.5303 9.53033L18.4697 8.46967L14.4697 12.4697L15.5303 13.5303ZM19.5303 8.46967L15.5303 4.46967L14.4697 5.53033L18.4697 9.53033L19.5303 8.46967Z" fill="#E1DEF5" fill-opacity="0.9"/>
</svg>
