<svg width="24" height="24" viewBox="0 0 24 24" fill="none" xmlns="http://www.w3.org/2000/svg">
<path d="M18 18.75C18.4142 18.75 18.75 18.4142 18.75 18C18.75 17.5858 18.4142 17.25 18 17.25V18.75ZM9 5H9.75C9.75 4.69665 9.56727 4.42318 9.28701 4.30709C9.00676 4.191 8.68417 4.25517 8.46967 4.46967L9 5ZM4.46967 8.46967C4.17678 8.76256 4.17678 9.23744 4.46967 9.53033C4.76256 9.82322 5.23744 9.82322 5.53033 9.53033L4.46967 8.46967ZM12.4697 9.53033C12.7626 9.82322 13.2374 9.82322 13.5303 9.53033C13.8232 9.23744 13.8232 8.76256 13.5303 8.46967L12.4697 9.53033ZM9.53033 4.46967C9.23744 4.17678 8.76256 4.17678 8.46967 4.46967C8.17678 4.76256 8.17678 5.23744 8.46967 5.53033L9.53033 4.46967ZM18 17.25H12V18.75H18V17.25ZM12 17.25C10.7574 17.25 9.75 16.2426 9.75 15H8.25C8.25 17.0711 9.92893 18.75 12 18.75V17.25ZM9.75 15V5H8.25V15H9.75ZM8.46967 4.46967L4.46967 8.46967L5.53033 9.53033L9.53033 5.53033L8.46967 4.46967ZM13.5303 8.46967L9.53033 4.46967L8.46967 5.53033L12.4697 9.53033L13.5303 8.46967Z" fill="#E1DEF5" fill-opacity="0.7"/>
</svg>
