<svg width="24" height="24" viewBox="0 0 24 24" fill="none" xmlns="http://www.w3.org/2000/svg">
<path d="M18.0001 18.75C18.4143 18.75 18.7501 18.4142 18.7501 18C18.7501 17.5858 18.4143 17.25 18.0001 17.25V18.75ZM5.00006 18L4.26462 18.147C4.33472 18.4976 4.64254 18.75 5.00006 18.75V18ZM3.13506 8.67299L2.39871 8.81548L2.39962 8.82004L3.13506 8.67299ZM3.53506 8.42899L4.00352 7.84325L3.99872 7.83948L3.53506 8.42899ZM8.00006 12L7.53162 12.5857C7.69577 12.717 7.90747 12.7734 8.11517 12.7411C8.32287 12.7088 8.5075 12.5909 8.6241 12.416L8.00006 12ZM10.2241 10.016C10.4539 9.67137 10.3607 9.20571 10.0161 8.97595C9.67144 8.74618 9.20579 8.83932 8.97602 9.18396L10.2241 10.016ZM10.572 6.78997C10.3422 7.13462 10.4354 7.60027 10.78 7.83004C11.1247 8.0598 11.5903 7.96667 11.8201 7.62203L10.572 6.78997ZM12 6L12.6241 5.58397C12.485 5.37533 12.2508 5.25 12 5.25C11.7493 5.25 11.5151 5.37533 11.376 5.58397L12 6ZM16 12L15.376 12.416C15.4926 12.5909 15.6773 12.7089 15.885 12.7411C16.0927 12.7734 16.3044 12.717 16.4685 12.5857L16 12ZM20.464 8.429L19.9968 7.8423L19.9955 7.84334L20.464 8.429ZM20.865 8.673L21.6005 8.82003L21.6008 8.8183L20.865 8.673ZM18.7666 15.344C18.6854 15.7502 18.9488 16.1452 19.355 16.2264C19.7612 16.3076 20.1563 16.0442 20.2375 15.638L18.7666 15.344ZM18.0001 17.25H5.00006V18.75H18.0001V17.25ZM5.7355 17.8529L3.8705 8.52593L2.39962 8.82004L4.26462 18.147L5.7355 17.8529ZM3.8714 8.53049C3.91107 8.73551 3.81916 8.9436 3.64089 9.05234L2.85975 7.77179C2.5032 7.98928 2.31937 8.40544 2.39872 8.81548L3.8714 8.53049ZM3.64089 9.05234C3.46261 9.16109 3.23553 9.14759 3.0714 9.01849L3.99872 7.83948C3.67045 7.58129 3.21629 7.55429 2.85975 7.77179L3.64089 9.05234ZM3.06662 9.0147L7.53162 12.5857L8.4685 11.4143L4.0035 7.84327L3.06662 9.0147ZM8.6241 12.416L10.2241 10.016L8.97602 9.18396L7.37602 11.584L8.6241 12.416ZM11.8201 7.62203L12.6241 6.41603L11.376 5.58397L10.572 6.78997L11.8201 7.62203ZM11.376 6.41603L15.376 12.416L16.6241 11.584L12.6241 5.58397L11.376 6.41603ZM16.4685 12.5857L20.9326 9.01466L19.9955 7.84334L15.5315 11.4143L16.4685 12.5857ZM20.9313 9.0157C20.7672 9.14635 20.539 9.16072 20.3599 9.05171L21.1396 7.77029C20.7813 7.55225 20.325 7.58101 19.9968 7.8423L20.9313 9.0157ZM20.3599 9.05171C20.1807 8.94269 20.0886 8.73344 20.1293 8.5277L21.6008 8.8183C21.6821 8.40681 21.4979 7.98832 21.1396 7.77029L20.3599 9.05171ZM20.1296 8.52598L18.7666 15.344L20.2375 15.638L21.6005 8.82002L20.1296 8.52598Z" fill="#2F2B3D" fill-opacity="0.9"/>
<path d="M3 3L21 21" stroke="#2F2B3D" stroke-opacity="0.9" stroke-width="1.5" stroke-linecap="round" stroke-linejoin="round"/>
</svg>
