<svg width="23" height="23" viewBox="0 0 23 23" fill="none" xmlns="http://www.w3.org/2000/svg">
<g id="currency-dollar">
<path id="Path" d="M15.6417 7.54171C15.2684 6.48257 14.2886 5.75682 13.1667 5.70837H9.5C7.98122 5.70837 6.75 6.93959 6.75 8.45837C6.75 9.97716 7.98122 11.2084 9.5 11.2084H13.1667C14.6854 11.2084 15.9167 12.4396 15.9167 13.9584C15.9167 15.4772 14.6854 16.7084 13.1667 16.7084H9.5C8.37806 16.6599 7.39828 15.9342 7.025 14.875" stroke="#808390" stroke-width="1.5" stroke-linecap="round" stroke-linejoin="round"/>
<path id="Shape" d="M12.0833 2.95837C12.0833 2.54416 11.7475 2.20837 11.3333 2.20837C10.9191 2.20837 10.5833 2.54416 10.5833 2.95837H12.0833ZM10.5833 5.70837C10.5833 6.12259 10.9191 6.45837 11.3333 6.45837C11.7475 6.45837 12.0833 6.12259 12.0833 5.70837H10.5833ZM12.0833 16.7084C12.0833 16.2942 11.7475 15.9584 11.3333 15.9584C10.9191 15.9584 10.5833 16.2942 10.5833 16.7084H12.0833ZM10.5833 19.4584C10.5833 19.8726 10.9191 20.2084 11.3333 20.2084C11.7475 20.2084 12.0833 19.8726 12.0833 19.4584H10.5833ZM10.5833 2.95837V5.70837H12.0833V2.95837H10.5833ZM10.5833 16.7084V19.4584H12.0833V16.7084H10.5833Z" fill="#808390"/>
</g>
</svg>
