<svg width="22" height="22" viewBox="0 0 22 22" fill="none" xmlns="http://www.w3.org/2000/svg">
<g id="currency-dollar">
<path id="Path" d="M15.3082 7.33333C14.9349 6.2742 13.9551 5.54844 12.8332 5.5H9.1665C7.64772 5.5 6.4165 6.73122 6.4165 8.25C6.4165 9.76878 7.64772 11 9.1665 11H12.8332C14.352 11 15.5832 12.2312 15.5832 13.75C15.5832 15.2688 14.352 16.5 12.8332 16.5H9.1665C8.04456 16.4516 7.06479 15.7258 6.6915 14.6667" stroke="#00BAD1" stroke-width="1.5" stroke-linecap="round" stroke-linejoin="round"/>
<path id="Shape" d="M11.7498 2.75C11.7498 2.33579 11.4141 2 10.9998 2C10.5856 2 10.2498 2.33579 10.2498 2.75H11.7498ZM10.2498 5.5C10.2498 5.91421 10.5856 6.25 10.9998 6.25C11.4141 6.25 11.7498 5.91421 11.7498 5.5H10.2498ZM11.7498 16.5C11.7498 16.0858 11.4141 15.75 10.9998 15.75C10.5856 15.75 10.2498 16.0858 10.2498 16.5H11.7498ZM10.2498 19.25C10.2498 19.6642 10.5856 20 10.9998 20C11.4141 20 11.7498 19.6642 11.7498 19.25H10.2498ZM10.2498 2.75V5.5H11.7498V2.75H10.2498ZM10.2498 16.5V19.25H11.7498V16.5H10.2498Z" fill="#00BAD1"/>
</g>
</svg>
