<svg width="24" height="24" viewBox="0 0 24 24" fill="none" xmlns="http://www.w3.org/2000/svg">
<path d="M17.3125 19.182C17.689 19.0094 17.8544 18.5642 17.6818 18.1877C17.5092 17.8111 17.064 17.6458 16.6875 17.8184L17.3125 19.182ZM12 18.5002L12.3125 17.8184C12.2904 17.8082 12.2677 17.7992 12.2447 17.7912L12 18.5002ZM7 19.0002L6.61973 18.3537C6.28752 18.5491 6.15751 18.9646 6.31905 19.3145C6.48059 19.6645 6.88108 19.835 7.24531 19.7089L7 19.0002ZM9 16.5002L9.74531 16.5839C9.74843 16.5561 9.75 16.5282 9.75 16.5002H9ZM9 9.00017L8.25 8.99565V9.00017H9ZM15.8031 7.37969C16.0127 7.73696 16.4723 7.85666 16.8295 7.64706C17.1868 7.43746 17.3065 6.97792 17.0969 6.62065L15.8031 7.37969ZM13.9 13.7502C14.3142 13.7502 14.65 13.4144 14.65 13.0002C14.65 12.586 14.3142 12.2502 13.9 12.2502V13.7502ZM6.90002 12.2502C6.48581 12.2502 6.15002 12.586 6.15002 13.0002C6.15002 13.4144 6.48581 13.7502 6.90002 13.7502V12.2502ZM16.6875 17.8184C15.2986 18.455 13.7014 18.455 12.3125 17.8184L11.6875 19.182C13.4732 20.0004 15.5268 20.0004 17.3125 19.182L16.6875 17.8184ZM12.2447 17.7912C10.3777 17.1467 8.32213 17.3523 6.61973 18.3537L7.38027 19.6466C8.70436 18.8677 10.3032 18.7079 11.7553 19.2091L12.2447 17.7912ZM7.24531 19.7089C8.61128 19.2361 9.5839 18.0204 9.74531 16.5839L8.25469 16.4164C8.15785 17.2783 7.57427 18.0078 6.75469 18.2914L7.24531 19.7089ZM9.75 16.5002V9.00017H8.25V16.5002H9.75ZM9.74999 9.00469C9.7588 7.5416 10.7442 6.26477 12.1573 5.88542L11.7684 4.43671C9.70309 4.99115 8.2629 6.85729 8.25001 8.99565L9.74999 9.00469ZM12.1573 5.88542C13.5704 5.50606 15.0627 6.11772 15.8031 7.37969L17.0969 6.62065C16.0148 4.77624 13.8336 3.88227 11.7684 4.43671L12.1573 5.88542ZM13.9 12.2502H6.90002V13.7502H13.9V12.2502Z" fill="#2F2B3D" fill-opacity="0.9"/>
</svg>
