<svg width="24" height="24" viewBox="0 0 24 24" fill="none" xmlns="http://www.w3.org/2000/svg">
<path d="M16.7 8C16.2928 6.84458 15.2239 6.05285 14 6H10C8.34315 6 7 7.34315 7 9C7 10.6569 8.34315 12 10 12H14C15.6569 12 17 13.3431 17 15C17 16.6569 15.6569 18 14 18H10C8.77606 17.9472 7.70722 17.1554 7.3 16" stroke="#E1DEF5" stroke-opacity="0.4" stroke-width="1.5" stroke-linecap="round" stroke-linejoin="round"/>
<path d="M12.75 3C12.75 2.58579 12.4142 2.25 12 2.25C11.5858 2.25 11.25 2.58579 11.25 3H12.75ZM11.25 6C11.25 6.41421 11.5858 6.75 12 6.75C12.4142 6.75 12.75 6.41421 12.75 6H11.25ZM12.75 18C12.75 17.5858 12.4142 17.25 12 17.25C11.5858 17.25 11.25 17.5858 11.25 18H12.75ZM11.25 21C11.25 21.4142 11.5858 21.75 12 21.75C12.4142 21.75 12.75 21.4142 12.75 21H11.25ZM11.25 3V6H12.75V3H11.25ZM11.25 18V21H12.75V18H11.25Z" fill="#E1DEF5" fill-opacity="0.4"/>
</svg>
