<svg width="24" height="24" viewBox="0 0 24 24" fill="none" xmlns="http://www.w3.org/2000/svg">
<path d="M14 20.01V20" stroke="#E1DEF5" stroke-opacity="0.7" stroke-width="1.5" stroke-linecap="round" stroke-linejoin="round"/>
<path d="M6 13L8.386 12.1C8.79266 11.9467 9.05379 11.5484 9.03211 11.1144C9.01044 10.6803 8.71091 10.31 8.291 10.198L6.777 9.794C6.35792 9.68273 6.0583 9.31407 6.03505 8.88109C6.01181 8.44812 6.27024 8.04949 6.675 7.894L9 7" stroke="#E1DEF5" stroke-opacity="0.7" stroke-width="1.5" stroke-linecap="round" stroke-linejoin="round"/>
<path d="M3 14V15C3 16.6569 4.34315 18 6 18H10.161C11.0124 18 11.8237 17.6383 12.3927 17.005C12.9617 16.3717 13.2348 15.5265 13.144 14.68L12 4" stroke="#E1DEF5" stroke-opacity="0.7" stroke-width="1.5" stroke-linecap="round" stroke-linejoin="round"/>
<path d="M16 17L17 18H19.004C19.7462 17.9998 20.4272 17.5887 20.7731 16.932C21.1189 16.2753 21.0727 15.4811 20.653 14.869L18 11" stroke="#E1DEF5" stroke-opacity="0.7" stroke-width="1.5" stroke-linecap="round" stroke-linejoin="round"/>
</svg>
