<svg width="29" height="28" viewBox="0 0 29 28" fill="none" xmlns="http://www.w3.org/2000/svg">
<g id="currency-dollar">
<path id="Path" d="M19.9832 9.33333C19.5081 7.98535 18.2611 7.06165 16.8332 7H12.1665C10.2335 7 8.6665 8.567 8.6665 10.5C8.6665 12.433 10.2335 14 12.1665 14H16.8332C18.7662 14 20.3332 15.567 20.3332 17.5C20.3332 19.433 18.7662 21 16.8332 21H12.1665C10.7386 20.9383 9.49159 20.0147 9.0165 18.6667" stroke="#28C76F" stroke-width="1.5" stroke-linecap="round" stroke-linejoin="round"/>
<path id="Shape" d="M15.2498 3.5C15.2498 3.08579 14.9141 2.75 14.4998 2.75C14.0856 2.75 13.7498 3.08579 13.7498 3.5H15.2498ZM13.7498 7C13.7498 7.41421 14.0856 7.75 14.4998 7.75C14.9141 7.75 15.2498 7.41421 15.2498 7H13.7498ZM15.2498 21C15.2498 20.5858 14.9141 20.25 14.4998 20.25C14.0856 20.25 13.7498 20.5858 13.7498 21H15.2498ZM13.7498 24.5C13.7498 24.9142 14.0856 25.25 14.4998 25.25C14.9141 25.25 15.2498 24.9142 15.2498 24.5H13.7498ZM13.7498 3.5V7H15.2498V3.5H13.7498ZM13.7498 21V24.5H15.2498V21H13.7498Z" fill="#28C76F"/>
</g>
</svg>
