<svg width="24" height="24" viewBox="0 0 24 24" fill="none" xmlns="http://www.w3.org/2000/svg">
<path d="M17.2001 7C14.8445 4.30738 11.0679 4.33735 8.74393 7.06712C6.41999 9.79689 6.41999 14.2031 8.74393 16.9329C11.0679 19.6627 14.8445 19.6926 17.2001 17" stroke="#2F2B3D" stroke-opacity="0.9" stroke-width="1.5" stroke-linecap="round" stroke-linejoin="round"/>
<path d="M13 10.75C13.4142 10.75 13.75 10.4142 13.75 10C13.75 9.58579 13.4142 9.25 13 9.25V10.75ZM5 9.25C4.58579 9.25 4.25 9.58579 4.25 10C4.25 10.4142 4.58579 10.75 5 10.75V9.25ZM5 13.25C4.58579 13.25 4.25 13.5858 4.25 14C4.25 14.4142 4.58579 14.75 5 14.75V13.25ZM13 14.75C13.4142 14.75 13.75 14.4142 13.75 14C13.75 13.5858 13.4142 13.25 13 13.25V14.75ZM13 9.25H5V10.75H13V9.25ZM5 14.75H13V13.25H5V14.75Z" fill="#2F2B3D" fill-opacity="0.9"/>
</svg>
