<svg width="24" height="24" viewBox="0 0 24 24" fill="none" xmlns="http://www.w3.org/2000/svg">
<path d="M11.25 19C11.25 19.4142 11.5858 19.75 12 19.75C12.4142 19.75 12.75 19.4142 12.75 19H11.25ZM12 12H12.75C12.75 11.8437 12.7012 11.6913 12.6103 11.5641L12 12ZM7.6103 4.56407C7.36954 4.22701 6.90113 4.14894 6.56407 4.3897C6.22701 4.63046 6.14894 5.09887 6.3897 5.43593L7.6103 4.56407ZM17.6103 5.43593C17.8511 5.09887 17.773 4.63046 17.4359 4.3897C17.0989 4.14894 16.6305 4.22701 16.3897 4.56407L17.6103 5.43593ZM11.3897 11.5641C11.1489 11.9011 11.227 12.3695 11.5641 12.6103C11.9011 12.8511 12.3695 12.773 12.6103 12.4359L11.3897 11.5641ZM12.75 19V12H11.25V19H12.75ZM12.6103 11.5641L7.6103 4.56407L6.3897 5.43593L11.3897 12.4359L12.6103 11.5641ZM16.3897 4.56407L11.3897 11.5641L12.6103 12.4359L17.6103 5.43593L16.3897 4.56407Z" fill="#6D6B77"/>
<path d="M8 17H16" stroke="#6D6B77" stroke-width="1.5" stroke-linecap="round" stroke-linejoin="round"/>
<path d="M8 13H16" stroke="#6D6B77" stroke-width="1.5" stroke-linecap="round" stroke-linejoin="round"/>
</svg>
