<svg width="22" height="22" viewBox="0 0 22 22" fill="none" xmlns="http://www.w3.org/2000/svg">
<g id="Icon">
<path id="Path" d="M15.3084 7.33333C14.9351 6.2742 13.9554 5.54844 12.8334 5.5H9.16675C7.64796 5.5 6.41675 6.73122 6.41675 8.25C6.41675 9.76878 7.64796 11 9.16675 11H12.8334C14.3522 11 15.5834 12.2312 15.5834 13.75C15.5834 15.2688 14.3522 16.5 12.8334 16.5H9.16675C8.0448 16.4516 7.06503 15.7258 6.69175 14.6667" stroke="#E1DEF5" stroke-opacity="0.9" stroke-width="1.5" stroke-linecap="round" stroke-linejoin="round"/>
<path id="Shape" d="M11.7501 2.75C11.7501 2.33579 11.4143 2 11.0001 2C10.5859 2 10.2501 2.33579 10.2501 2.75H11.7501ZM10.2501 5.5C10.2501 5.91421 10.5859 6.25 11.0001 6.25C11.4143 6.25 11.7501 5.91421 11.7501 5.5H10.2501ZM11.7501 16.5C11.7501 16.0858 11.4143 15.75 11.0001 15.75C10.5859 15.75 10.2501 16.0858 10.2501 16.5H11.7501ZM10.2501 19.25C10.2501 19.6642 10.5859 20 11.0001 20C11.4143 20 11.7501 19.6642 11.7501 19.25H10.2501ZM10.2501 2.75V5.5H11.7501V2.75H10.2501ZM10.2501 16.5V19.25H11.7501V16.5H10.2501Z" fill="#E1DEF5" fill-opacity="0.9"/>
</g>
</svg>
