<svg width="24" height="24" viewBox="0 0 24 24" fill="none" xmlns="http://www.w3.org/2000/svg">
<path d="M17.3125 19.1818C17.689 19.0092 17.8544 18.564 17.6818 18.1875C17.5092 17.8109 17.064 17.6456 16.6875 17.8182L17.3125 19.1818ZM12 18.5L12.3125 17.8182C12.2904 17.808 12.2677 17.799 12.2447 17.791L12 18.5ZM7 19L6.61973 18.3535C6.28752 18.549 6.15751 18.9644 6.31905 19.3143C6.48059 19.6643 6.88108 19.8348 7.24531 19.7087L7 19ZM9 16.5L9.74531 16.5837C9.74843 16.5559 9.75 16.528 9.75 16.5H9ZM9 8.99999L8.25 8.99547V8.99999H9ZM15.8031 7.37951C16.0127 7.73678 16.4723 7.85648 16.8295 7.64688C17.1868 7.43728 17.3065 6.97774 17.0969 6.62047L15.8031 7.37951ZM13.9 13.75C14.3142 13.75 14.65 13.4142 14.65 13C14.65 12.5858 14.3142 12.25 13.9 12.25V13.75ZM6.90002 12.25C6.48581 12.25 6.15002 12.5858 6.15002 13C6.15002 13.4142 6.48581 13.75 6.90002 13.75V12.25ZM16.6875 17.8182C15.2986 18.4548 13.7014 18.4548 12.3125 17.8182L11.6875 19.1818C13.4732 20.0002 15.5268 20.0002 17.3125 19.1818L16.6875 17.8182ZM12.2447 17.791C10.3777 17.1466 8.32213 17.3521 6.61973 18.3535L7.38027 19.6464C8.70436 18.8675 10.3032 18.7077 11.7553 19.2089L12.2447 17.791ZM7.24531 19.7087C8.61128 19.236 9.5839 18.0202 9.74531 16.5837L8.25469 16.4162C8.15785 17.2781 7.57427 18.0076 6.75469 18.2912L7.24531 19.7087ZM9.75 16.5V8.99999H8.25V16.5H9.75ZM9.74999 9.00451C9.7588 7.54142 10.7442 6.26459 12.1573 5.88523L11.7684 4.43653C9.70309 4.99097 8.2629 6.8571 8.25001 8.99547L9.74999 9.00451ZM12.1573 5.88523C13.5704 5.50588 15.0627 6.11754 15.8031 7.37951L17.0969 6.62047C16.0148 4.77606 13.8336 3.88209 11.7684 4.43653L12.1573 5.88523ZM13.9 12.25H6.90002V13.75H13.9V12.25Z" fill="#E1DEF5" fill-opacity="0.9"/>
</svg>
