<svg width="25" height="25" viewBox="0 0 25 25" fill="none" xmlns="http://www.w3.org/2000/svg">
<g id="currency-dollar">
<path id="Path" d="M17.3665 8.58667C16.9593 7.43125 15.8904 6.63952 14.6665 6.58667H10.6665C9.00965 6.58667 7.6665 7.92982 7.6665 9.58667C7.6665 11.2435 9.00965 12.5867 10.6665 12.5867H14.6665C16.3234 12.5867 17.6665 13.9298 17.6665 15.5867C17.6665 17.2435 16.3234 18.5867 14.6665 18.5867H10.6665C9.44257 18.5338 8.37372 17.7421 7.9665 16.5867" stroke="#FF9F43" stroke-width="1.5" stroke-linecap="round" stroke-linejoin="round"/>
<path id="Shape" d="M13.4165 3.58667C13.4165 3.17246 13.0807 2.83667 12.6665 2.83667C12.2523 2.83667 11.9165 3.17246 11.9165 3.58667H13.4165ZM11.9165 6.58667C11.9165 7.00088 12.2523 7.33667 12.6665 7.33667C13.0807 7.33667 13.4165 7.00088 13.4165 6.58667H11.9165ZM13.4165 18.5867C13.4165 18.1725 13.0807 17.8367 12.6665 17.8367C12.2523 17.8367 11.9165 18.1725 11.9165 18.5867H13.4165ZM11.9165 21.5867C11.9165 22.0009 12.2523 22.3367 12.6665 22.3367C13.0807 22.3367 13.4165 22.0009 13.4165 21.5867H11.9165ZM11.9165 3.58667V6.58667H13.4165V3.58667H11.9165ZM11.9165 18.5867V21.5867H13.4165V18.5867H11.9165Z" fill="#FF9F43"/>
</g>
</svg>
