<svg width="24" height="24" viewBox="0 0 24 24" fill="none" xmlns="http://www.w3.org/2000/svg">
<ellipse cx="12" cy="6" rx="8" ry="3" stroke="#E1DEF5" stroke-opacity="0.7" stroke-width="1.5" stroke-linecap="round" stroke-linejoin="round"/>
<path d="M4.75 6C4.75 5.58579 4.41421 5.25 4 5.25C3.58579 5.25 3.25 5.58579 3.25 6H4.75ZM3.25 14C3.25 14.4142 3.58579 14.75 4 14.75C4.41421 14.75 4.75 14.4142 4.75 14H3.25ZM9.12139 14.0415C8.71185 13.9794 8.32955 14.2611 8.2675 14.6706C8.20545 15.0802 8.48714 15.4625 8.89668 15.5245L9.12139 14.0415ZM20.75 6C20.75 5.58579 20.4142 5.25 20 5.25C19.5858 5.25 19.25 5.58579 19.25 6H20.75ZM3.25 6V14H4.75V6H3.25ZM8.89668 15.5245C9.85965 15.6704 10.9063 15.75 12 15.75V14.25C10.9778 14.25 10.0064 14.1756 9.12139 14.0415L8.89668 15.5245ZM12 15.75C14.2752 15.75 16.3684 15.4055 17.9201 14.8236C18.6932 14.5337 19.3709 14.1705 19.8689 13.729C20.3659 13.2883 20.75 12.7058 20.75 12H19.25C19.25 12.1227 19.1864 12.3294 18.8738 12.6066C18.562 12.883 18.0681 13.1661 17.3935 13.4191C16.0496 13.923 14.1429 14.25 12 14.25V15.75ZM20.75 12V6H19.25V12H20.75Z" fill="#E1DEF5" fill-opacity="0.7"/>
<path d="M11.2794 20.2375C10.8654 20.2224 10.5176 20.5456 10.5025 20.9596C10.4873 21.3735 10.8106 21.7214 11.2245 21.7365L11.2794 20.2375ZM20.75 12C20.75 11.5858 20.4142 11.25 20 11.25C19.5857 11.25 19.25 11.5858 19.25 12H20.75ZM2 18.25C1.58579 18.25 1.25 18.5858 1.25 19C1.25 19.4142 1.58579 19.75 2 19.75V18.25ZM9 19.75C9.41421 19.75 9.75 19.4142 9.75 19C9.75 18.5858 9.41421 18.25 9 18.25V19.75ZM6.53033 15.4697C6.23744 15.1768 5.76256 15.1768 5.46967 15.4697C5.17678 15.7626 5.17678 16.2374 5.46967 16.5303L6.53033 15.4697ZM9 19L9.53033 19.5303C9.82322 19.2374 9.82322 18.7626 9.53033 18.4697L9 19ZM5.46967 21.4697C5.17678 21.7626 5.17678 22.2374 5.46967 22.5303C5.76256 22.8232 6.23744 22.8232 6.53033 22.5303L5.46967 21.4697ZM11.2245 21.7365C11.4809 21.7459 11.7401 21.75 12 21.75V20.25C11.7558 20.25 11.515 20.2461 11.2794 20.2375L11.2245 21.7365ZM12 21.75C14.2751 21.75 16.3683 21.4055 17.92 20.8236C18.6931 20.5337 19.3708 20.1705 19.8688 19.729C20.3658 19.2883 20.75 18.7058 20.75 18H19.25C19.25 18.1227 19.1863 18.3294 18.8737 18.6066C18.5619 18.883 18.068 19.1661 17.3934 19.4191C16.0496 19.923 14.1428 20.25 12 20.25V21.75ZM20.75 18V12H19.25V18H20.75ZM2 19.75H9V18.25H2V19.75ZM5.46967 16.5303L8.46967 19.5303L9.53033 18.4697L6.53033 15.4697L5.46967 16.5303ZM8.46967 18.4697L5.46967 21.4697L6.53033 22.5303L9.53033 19.5303L8.46967 18.4697Z" fill="#E1DEF5" fill-opacity="0.7"/>
</svg>
