<svg width="24" height="24" viewBox="0 0 24 24" fill="none" xmlns="http://www.w3.org/2000/svg">
<ellipse cx="12" cy="6" rx="8" ry="3" stroke="#2F2B3D" stroke-opacity="0.9" stroke-width="1.5" stroke-linecap="round" stroke-linejoin="round"/>
<path d="M4.75 6C4.75 5.58579 4.41421 5.25 4 5.25C3.58579 5.25 3.25 5.58579 3.25 6H4.75ZM12 15L12.0022 14.25H12V15ZM15.4246 15.4729C15.8333 15.4052 16.1096 15.019 16.0419 14.6104C15.9742 14.2017 15.588 13.9254 15.1794 13.9931L15.4246 15.4729ZM19.25 12C19.25 12.4142 19.5858 12.75 20 12.75C20.4142 12.75 20.75 12.4142 20.75 12H19.25ZM20.75 6C20.75 5.58579 20.4142 5.25 20 5.25C19.5858 5.25 19.25 5.58579 19.25 6H20.75ZM3.25 6V12H4.75V6H3.25ZM3.25 12C3.25 12.7058 3.6341 13.2883 4.13117 13.729C4.62911 14.1705 5.30684 14.5337 6.07992 14.8236C7.63161 15.4055 9.72488 15.75 12 15.75V14.25C9.85712 14.25 7.95039 13.923 6.60658 13.4191C5.93191 13.1661 5.43801 12.883 5.12626 12.6066C4.81365 12.3294 4.75 12.1227 4.75 12H3.25ZM11.9978 15.75C13.1458 15.7533 14.2921 15.6606 15.4246 15.4729L15.1794 13.9931C14.1293 14.1672 13.0665 14.2531 12.0022 14.25L11.9978 15.75ZM20.75 12V6H19.25V12H20.75Z" fill="#2F2B3D" fill-opacity="0.9"/>
<path d="M4.75 12C4.75 11.5858 4.41421 11.25 4 11.25C3.58579 11.25 3.25 11.5858 3.25 12H4.75ZM11.5219 21.7448C11.9361 21.7537 12.279 21.4252 12.2878 21.0111C12.2967 20.5969 11.9682 20.254 11.5541 20.2452L11.5219 21.7448ZM19.25 14C19.25 14.4142 19.5858 14.75 20 14.75C20.4142 14.75 20.75 14.4142 20.75 14H19.25ZM20.75 12C20.75 11.5858 20.4142 11.25 20 11.25C19.5858 11.25 19.25 11.5858 19.25 12H20.75ZM14 18.25C13.5858 18.25 13.25 18.5858 13.25 19C13.25 19.4142 13.5858 19.75 14 19.75V18.25ZM21 19.75C21.4142 19.75 21.75 19.4142 21.75 19C21.75 18.5858 21.4142 18.25 21 18.25V19.75ZM18.5303 15.4697C18.2374 15.1768 17.7626 15.1768 17.4697 15.4697C17.1768 15.7626 17.1768 16.2374 17.4697 16.5303L18.5303 15.4697ZM21 19L21.5303 19.5303C21.8232 19.2374 21.8232 18.7626 21.5303 18.4697L21 19ZM17.4697 21.4697C17.1768 21.7626 17.1768 22.2374 17.4697 22.5303C17.7626 22.8232 18.2374 22.8232 18.5303 22.5303L17.4697 21.4697ZM3.25 12V18H4.75V12H3.25ZM3.25 18C3.25 18.6807 3.60792 19.2477 4.07847 19.6814C4.54841 20.1145 5.18798 20.4724 5.917 20.7608C7.37987 21.3395 9.3571 21.6985 11.5219 21.7448L11.5541 20.2452C9.5159 20.2015 7.72413 19.8625 6.46875 19.366C5.83864 19.1167 5.38177 18.8427 5.09506 18.5784C4.80895 18.3147 4.75 18.1188 4.75 18H3.25ZM20.75 14V12H19.25V14H20.75ZM14 19.75H21V18.25H14V19.75ZM17.4697 16.5303L20.4697 19.5303L21.5303 18.4697L18.5303 15.4697L17.4697 16.5303ZM20.4697 18.4697L17.4697 21.4697L18.5303 22.5303L21.5303 19.5303L20.4697 18.4697Z" fill="#2F2B3D" fill-opacity="0.9"/>
</svg>
