<svg width="24" height="24" viewBox="0 0 24 24" fill="none" xmlns="http://www.w3.org/2000/svg">
<path d="M12.9485 8.22879C12.5347 8.24783 12.2147 8.5987 12.2338 9.01248C12.2528 9.42625 12.6037 9.74625 13.0174 9.72721L12.9485 8.22879ZM7.33226 2.7881C6.9308 2.89011 6.68806 3.29825 6.79007 3.69971C6.89208 4.10116 7.30022 4.34391 7.70168 4.2419L7.33226 2.7881ZM5.20643 5.32548C5.52814 5.06457 5.57742 4.59226 5.3165 4.27055C5.05558 3.94884 4.58327 3.89956 4.26157 4.16048L5.20643 5.32548ZM8.60967 9.4796C9.01815 9.54827 9.40496 9.27279 9.47362 8.86431C9.54229 8.45583 9.26681 8.06902 8.85833 8.00036L8.60967 9.4796ZM13.0174 9.72721C15.0555 9.63342 16.9021 9.26036 18.2655 8.68652C18.9453 8.40043 19.5421 8.04897 19.9806 7.62562C20.4211 7.2004 20.75 6.65179 20.75 6H19.25C19.25 6.11421 19.1961 6.2981 18.9388 6.54644C18.6796 6.79666 18.2638 7.05982 17.6837 7.30398C16.5273 7.79064 14.8655 8.14058 12.9485 8.22879L13.0174 9.72721ZM20.75 6C20.75 5.29424 20.3659 4.71169 19.8688 4.271C19.3709 3.82954 18.6931 3.46626 17.92 3.17637C16.3684 2.59452 14.2751 2.25 12 2.25V3.75C14.1428 3.75 16.0496 4.07698 17.3934 4.58088C18.0681 4.83386 18.562 5.11702 18.8737 5.39341C19.1863 5.67056 19.25 5.87726 19.25 6H20.75ZM12 2.25C10.285 2.25 8.67915 2.44585 7.33226 2.7881L7.70168 4.2419C8.91278 3.93415 10.393 3.75 12 3.75V2.25ZM4.26157 4.16048C3.69974 4.61614 3.25 5.23464 3.25 5.99998H4.75C4.75 5.86733 4.82626 5.63382 5.20643 5.32548L4.26157 4.16048ZM3.25 5.99998C3.25 7.03555 4.05839 7.79741 4.95049 8.30384C5.88735 8.83568 7.16344 9.23649 8.60967 9.4796L8.85833 8.00036C7.51456 7.77447 6.42365 7.41528 5.69101 6.99937C4.91361 6.55805 4.75 6.18441 4.75 5.99998H3.25Z" fill="#E1DEF5" fill-opacity="0.4"/>
<path d="M4.75 6C4.75 5.58579 4.41421 5.25 4 5.25C3.58579 5.25 3.25 5.58579 3.25 6H4.75ZM14.9068 15.5526C15.3169 15.4948 15.6025 15.1154 15.5446 14.7052C15.4868 14.2951 15.1074 14.0095 14.6972 14.0674L14.9068 15.5526ZM17.6964 13.2994C17.315 13.461 17.1368 13.9012 17.2984 14.2826C17.46 14.664 17.9002 14.8422 18.2816 14.6806L17.6964 13.2994ZM20.75 6C20.75 5.58579 20.4142 5.25 20 5.25C19.5858 5.25 19.25 5.58579 19.25 6H20.75ZM3.25 6V12H4.75V6H3.25ZM3.25 12C3.25 12.7058 3.6341 13.2883 4.13117 13.729C4.62911 14.1705 5.30684 14.5337 6.07992 14.8236C7.63161 15.4055 9.72488 15.75 12 15.75V14.25C9.85712 14.25 7.95039 13.923 6.60658 13.4191C5.93191 13.1661 5.43801 12.883 5.12626 12.6066C4.81365 12.3294 4.75 12.1227 4.75 12H3.25ZM12 15.75C13.0195 15.75 13.9985 15.6808 14.9068 15.5526L14.6972 14.0674C13.8615 14.1852 12.9525 14.25 12 14.25V15.75ZM18.2816 14.6806C18.9571 14.3944 19.5501 14.043 19.9858 13.6203C20.4234 13.1959 20.75 12.6489 20.75 12H19.25C19.25 12.1131 19.1967 12.2961 18.9414 12.5437C18.6844 12.793 18.2719 13.0556 17.6964 13.2994L18.2816 14.6806ZM20.75 12V6H19.25V12H20.75Z" fill="#E1DEF5" fill-opacity="0.4"/>
<path d="M4.75 12C4.75 11.5858 4.41421 11.25 4 11.25C3.58579 11.25 3.25 11.5858 3.25 12H4.75ZM19.7329 19.843C20.0548 19.5823 20.1046 19.1101 19.844 18.7881C19.5833 18.4662 19.1111 18.4164 18.7891 18.677L19.7329 19.843ZM19.25 16C19.25 16.4142 19.5858 16.75 20 16.75C20.4142 16.75 20.75 16.4142 20.75 16H19.25ZM20.75 12C20.75 11.5858 20.4142 11.25 20 11.25C19.5858 11.25 19.25 11.5858 19.25 12H20.75ZM3.25 12V18H4.75V12H3.25ZM3.25 18C3.25 18.7058 3.6341 19.2883 4.13117 19.729C4.62911 20.1705 5.30684 20.5337 6.07992 20.8236C7.63161 21.4055 9.72488 21.75 12 21.75V20.25C9.85712 20.25 7.95039 19.923 6.60658 19.4191C5.93191 19.1661 5.43801 18.883 5.12626 18.6066C4.81365 18.3294 4.75 18.1227 4.75 18H3.25ZM12 21.75C13.661 21.75 15.2192 21.5665 16.5386 21.2441C17.8426 20.9254 18.9752 20.4563 19.7329 19.843L18.7891 18.677C18.2768 19.0917 17.3874 19.4926 16.1826 19.7869C14.9933 20.0775 13.556 20.25 12 20.25V21.75ZM20.75 16V12H19.25V16H20.75Z" fill="#E1DEF5" fill-opacity="0.4"/>
<path d="M3 3L21 21" stroke="#E1DEF5" stroke-opacity="0.4" stroke-width="1.5" stroke-linecap="round" stroke-linejoin="round"/>
</svg>
