<svg width="24" height="24" viewBox="0 0 24 24" fill="none" xmlns="http://www.w3.org/2000/svg">
<path d="M6.77642 6.56547C7.00421 6.21951 6.90842 5.7544 6.56247 5.52661C6.21651 5.29882 5.7514 5.39461 5.52361 5.74056L6.77642 6.56547ZM16.2585 16.4754C16.6044 16.2476 16.7002 15.7825 16.4724 15.4366C16.2446 15.0906 15.7795 14.9948 15.4336 15.2226L16.2585 16.4754ZM17.2197 13.4364C16.9918 13.7823 17.0874 14.2474 17.4333 14.4753C17.7792 14.7032 18.2444 14.6075 18.4723 14.2617L17.2197 13.4364ZM7.73408 3.52791C7.38828 3.75594 7.29282 4.22112 7.52086 4.56692C7.7489 4.91271 8.21408 5.00817 8.55987 4.78013L7.73408 3.52791ZM5.52361 5.74056C3.50114 8.81215 3.9159 12.8822 6.51638 15.4826L7.57704 14.422C5.47988 12.3248 5.1454 9.04255 6.77642 6.56547L5.52361 5.74056ZM6.51638 15.4826C9.11686 18.0831 13.1869 18.4979 16.2585 16.4754L15.4336 15.2226C12.9565 16.8536 9.67421 16.5191 7.57704 14.422L6.51638 15.4826ZM18.4723 14.2617C20.4964 11.1895 20.0817 7.11751 17.4796 4.51653L16.4192 5.57741C18.5176 7.67497 18.8521 10.9588 17.2197 13.4364L18.4723 14.2617ZM17.4796 4.51653C14.8776 1.91556 10.8054 1.50247 7.73408 3.52791L8.55987 4.78013C11.0368 3.14671 14.3207 3.47985 16.4192 5.57741L17.4796 4.51653Z" fill="#E1DEF5" fill-opacity="0.9"/>
<path d="M9.84708 9.34185C9.96849 8.94583 9.74588 8.52637 9.34987 8.40495C8.95385 8.28354 8.53438 8.50615 8.41297 8.90217L9.84708 9.34185ZM13.0917 13.5884C13.4879 13.4676 13.7112 13.0485 13.5904 12.6523C13.4696 12.2561 13.0505 12.0328 12.6543 12.1536L13.0917 13.5884ZM14.1547 10.6552C14.0355 11.0519 14.2605 11.4701 14.6572 11.5893C15.0539 11.7085 15.4721 11.4835 15.5913 11.0868L14.1547 10.6552ZM10.92 6.41677C10.5234 6.53604 10.2985 6.95429 10.4178 7.35096C10.537 7.74763 10.9553 7.97251 11.3519 7.85324L10.92 6.41677ZM8.41297 8.90217C8.00652 10.2279 8.36478 11.6696 9.34447 12.6509L10.406 11.5911C9.81817 11.0023 9.60321 10.1373 9.84708 9.34185L8.41297 8.90217ZM9.34447 12.6509C10.3242 13.6322 11.7654 13.9927 13.0917 13.5884L12.6543 12.1536C11.8585 12.3962 10.9938 12.1799 10.406 11.5911L9.34447 12.6509ZM15.5913 11.0868C15.9883 9.7649 15.6272 8.33177 14.6511 7.35594L13.5906 8.41675C14.1762 9.00224 14.3929 9.86212 14.1547 10.6552L15.5913 11.0868ZM14.6511 7.35594C13.675 6.38012 12.2418 6.01935 10.92 6.41677L11.3519 7.85324C12.145 7.61479 13.0049 7.83125 13.5906 8.41675L14.6511 7.35594Z" fill="#E1DEF5" fill-opacity="0.9"/>
<path d="M8.00006 16L5.90906 19.486C5.724 19.7948 5.71924 20.1793 5.89659 20.4926C6.07395 20.8059 6.40603 20.9997 6.76606 21H17.2341C17.5941 20.9997 17.9262 20.8059 18.1035 20.4926C18.2809 20.1793 18.2761 19.7948 18.0911 19.486L16.0001 16" stroke="#E1DEF5" stroke-opacity="0.9" stroke-width="1.5" stroke-linecap="round" stroke-linejoin="round"/>
<path d="M3 3L21 21" stroke="#E1DEF5" stroke-opacity="0.9" stroke-width="1.5" stroke-linecap="round" stroke-linejoin="round"/>
</svg>
