<svg width="24" height="24" viewBox="0 0 24 24" fill="none" xmlns="http://www.w3.org/2000/svg">
<path d="M8 3.25C7.58579 3.25 7.25 3.58579 7.25 4C7.25 4.41421 7.58579 4.75 8 4.75V3.25ZM20 15.25C19.5858 15.25 19.25 15.5858 19.25 16C19.25 16.4142 19.5858 16.75 20 16.75V15.25ZM16 16.75C16.4142 16.75 16.75 16.4142 16.75 16C16.75 15.5858 16.4142 15.25 16 15.25V16.75ZM4 4.75C4.41421 4.75 4.75 4.41421 4.75 4C4.75 3.58579 4.41421 3.25 4 3.25V4.75ZM8 4.75H20V3.25H8V4.75ZM20 4.75C20.1381 4.75 20.25 4.86193 20.25 5H21.75C21.75 4.0335 20.9665 3.25 20 3.25V4.75ZM20.25 5V15H21.75V5H20.25ZM20.25 15C20.25 15.1381 20.1381 15.25 20 15.25V16.75C20.9665 16.75 21.75 15.9665 21.75 15H20.25ZM16 15.25H4V16.75H16V15.25ZM4 15.25C3.86193 15.25 3.75 15.1381 3.75 15H2.25C2.25 15.9665 3.0335 16.75 4 16.75V15.25ZM3.75 15V5H2.25V15H3.75ZM3.75 5C3.75 4.86193 3.86193 4.75 4 4.75V3.25C3.0335 3.25 2.25 4.0335 2.25 5H3.75Z" fill="#6D6B77"/>
<path d="M7 20H17" stroke="#6D6B77" stroke-width="1.5" stroke-linecap="round" stroke-linejoin="round"/>
<path d="M9 16V20" stroke="#6D6B77" stroke-width="1.5" stroke-linecap="round" stroke-linejoin="round"/>
<path d="M15 16V20" stroke="#6D6B77" stroke-width="1.5" stroke-linecap="round" stroke-linejoin="round"/>
<path d="M3 3L21 21" stroke="#6D6B77" stroke-width="1.5" stroke-linecap="round" stroke-linejoin="round"/>
</svg>
