<svg width="24" height="24" viewBox="0 0 24 24" fill="none" xmlns="http://www.w3.org/2000/svg">
<path d="M6.77642 6.56541C7.00421 6.21945 6.90842 5.75434 6.56247 5.52655C6.21651 5.29876 5.7514 5.39455 5.52361 5.7405L6.77642 6.56541ZM16.2585 16.4754C16.6044 16.2476 16.7002 15.7825 16.4724 15.4365C16.2446 15.0905 15.7795 14.9948 15.4336 15.2225L16.2585 16.4754ZM17.2197 13.4363C16.9918 13.7822 17.0874 14.2473 17.4333 14.4752C17.7792 14.7031 18.2444 14.6075 18.4723 14.2616L17.2197 13.4363ZM7.73408 3.52785C7.38828 3.75588 7.29282 4.22106 7.52086 4.56685C7.7489 4.91265 8.21408 5.00811 8.55987 4.78007L7.73408 3.52785ZM5.52361 5.7405C3.50114 8.81209 3.9159 12.8821 6.51638 15.4826L7.57704 14.4219C5.47988 12.3248 5.1454 9.04249 6.77642 6.56541L5.52361 5.7405ZM6.51638 15.4826C9.11686 18.0831 13.1869 18.4978 16.2585 16.4754L15.4336 15.2225C12.9565 16.8536 9.67421 16.5191 7.57704 14.4219L6.51638 15.4826ZM18.4723 14.2616C20.4964 11.1894 20.0817 7.11745 17.4796 4.51647L16.4192 5.57735C18.5176 7.67491 18.8521 10.9587 17.2197 13.4363L18.4723 14.2616ZM17.4796 4.51647C14.8776 1.9155 10.8054 1.5024 7.73408 3.52785L8.55987 4.78007C11.0368 3.14665 14.3207 3.47979 16.4192 5.57735L17.4796 4.51647Z" fill="#2F2B3D" fill-opacity="0.9"/>
<path d="M9.84708 9.34179C9.96849 8.94577 9.74588 8.52631 9.34987 8.40489C8.95385 8.28348 8.53438 8.50609 8.41297 8.90211L9.84708 9.34179ZM13.0917 13.5884C13.4879 13.4676 13.7112 13.0485 13.5904 12.6523C13.4696 12.256 13.0505 12.0328 12.6543 12.1535L13.0917 13.5884ZM14.1547 10.6552C14.0355 11.0519 14.2605 11.4701 14.6572 11.5892C15.0539 11.7084 15.4721 11.4834 15.5913 11.0867L14.1547 10.6552ZM10.92 6.41671C10.5234 6.53598 10.2985 6.95423 10.4178 7.3509C10.537 7.74757 10.9553 7.97245 11.3519 7.85318L10.92 6.41671ZM8.41297 8.90211C8.00652 10.2278 8.36478 11.6696 9.34447 12.6508L10.406 11.591C9.81817 11.0023 9.60321 10.1372 9.84708 9.34179L8.41297 8.90211ZM9.34447 12.6508C10.3242 13.6321 11.7654 13.9927 13.0917 13.5884L12.6543 12.1535C11.8585 12.3961 10.9938 12.1798 10.406 11.591L9.34447 12.6508ZM15.5913 11.0867C15.9883 9.76484 15.6272 8.33171 14.6511 7.35588L13.5906 8.41668C14.1762 9.00218 14.3929 9.86206 14.1547 10.6552L15.5913 11.0867ZM14.6511 7.35588C13.675 6.38006 12.2418 6.01929 10.92 6.41671L11.3519 7.85318C12.145 7.61473 13.0049 7.83119 13.5906 8.41668L14.6511 7.35588Z" fill="#2F2B3D" fill-opacity="0.9"/>
<path d="M8.00006 16L5.90906 19.486C5.724 19.7948 5.71924 20.1793 5.89659 20.4926C6.07395 20.8059 6.40603 20.9997 6.76606 21H17.2341C17.5941 20.9997 17.9262 20.8059 18.1035 20.4926C18.2809 20.1793 18.2761 19.7948 18.0911 19.486L16.0001 16" stroke="#2F2B3D" stroke-opacity="0.9" stroke-width="1.5" stroke-linecap="round" stroke-linejoin="round"/>
<path d="M3 3L21 21" stroke="#2F2B3D" stroke-opacity="0.9" stroke-width="1.5" stroke-linecap="round" stroke-linejoin="round"/>
</svg>
