<svg width="24" height="24" viewBox="0 0 24 24" fill="none" xmlns="http://www.w3.org/2000/svg">
<path d="M9 15L15 9" stroke="#E1DEF5" stroke-opacity="0.4" stroke-width="1.5" stroke-linecap="round" stroke-linejoin="round"/>
<circle cx="9.5" cy="9.5" r="0.5" fill="#E1DEF5" fill-opacity="0.4" stroke="#E1DEF5" stroke-opacity="0.4" stroke-width="1.5" stroke-linecap="round" stroke-linejoin="round"/>
<circle cx="14.5" cy="14.5" r="0.5" fill="#E1DEF5" fill-opacity="0.4" stroke="#E1DEF5" stroke-opacity="0.4" stroke-width="1.5" stroke-linecap="round" stroke-linejoin="round"/>
<path d="M4.99997 7.19997C4.99997 5.98495 5.98495 4.99997 7.19997 4.99997H8.19997C8.78087 4.99964 9.33806 4.76957 9.74997 4.35997L10.45 3.65997C10.8629 3.24472 11.4244 3.01123 12.01 3.01123C12.5956 3.01123 13.157 3.24472 13.57 3.65997L14.27 4.35997C14.6819 4.76957 15.2391 4.99964 15.82 4.99997H16.82C18.035 4.99997 19.02 5.98495 19.02 7.19997V8.19997C19.0203 8.78087 19.2504 9.33806 19.66 9.74997L20.36 10.45C20.7752 10.8629 21.0087 11.4244 21.0087 12.01C21.0087 12.5956 20.7752 13.157 20.36 13.57L19.66 14.27C19.2504 14.6819 19.0203 15.2391 19.02 15.82V16.82C19.02 18.035 18.035 19.02 16.82 19.02H15.82C15.2391 19.0203 14.6819 19.2504 14.27 19.66L13.57 20.36C13.157 20.7752 12.5956 21.0087 12.01 21.0087C11.4244 21.0087 10.8629 20.7752 10.45 20.36L9.74997 19.66C9.33806 19.2504 8.78087 19.0203 8.19997 19.02H7.19997C5.98495 19.02 4.99997 18.035 4.99997 16.82V15.82C4.99964 15.2391 4.76957 14.6819 4.35997 14.27L3.65997 13.57C3.24472 13.157 3.01123 12.5956 3.01123 12.01C3.01123 11.4244 3.24472 10.8629 3.65997 10.45L4.35997 9.74997C4.76957 9.33806 4.99964 8.78087 4.99997 8.19997V7.19997" stroke="#E1DEF5" stroke-opacity="0.4" stroke-width="1.5" stroke-linecap="round" stroke-linejoin="round"/>
</svg>
