<svg width="24" height="24" viewBox="0 0 24 24" fill="none" xmlns="http://www.w3.org/2000/svg">
<path d="M10 15L15.586 9.41497C14.9458 8.77501 14.8153 7.78488 15.2678 7.00089C15.7202 6.21689 16.6428 5.8345 17.5172 6.06857C18.3916 6.30264 18.9997 7.0948 19 7.99997C19.9054 7.99933 20.6983 8.60704 20.9331 9.48151C21.1678 10.356 20.7857 11.2791 20.0017 11.7319C19.2176 12.1847 18.2271 12.0543 17.587 11.414L14 15" stroke="#E1DEF5" stroke-opacity="0.7" stroke-width="1.5" stroke-linecap="round" stroke-linejoin="round"/>
<path d="M11.9999 13L8.4139 9.41497C9.05405 8.77501 9.18458 7.78488 8.73215 7.00089C8.27971 6.21689 7.35712 5.8345 6.48273 6.06857C5.60834 6.30264 5.00016 7.0948 4.9999 7.99997C4.09447 7.99933 3.30155 8.60704 3.06684 9.48151C2.83213 10.356 3.21417 11.2791 3.99823 11.7319C4.78229 12.1847 5.77276 12.0543 6.4129 11.414L9.9999 15" stroke="#E1DEF5" stroke-opacity="0.7" stroke-width="1.5" stroke-linecap="round" stroke-linejoin="round"/>
<path fill-rule="evenodd" clip-rule="evenodd" d="M3 20H21C20.825 18.329 20.954 16.655 19 15H5C3.667 16 3 17.667 3 20Z" stroke="#E1DEF5" stroke-opacity="0.7" stroke-width="1.5" stroke-linecap="round" stroke-linejoin="round"/>
</svg>
