<svg width="24" height="24" viewBox="0 0 24 24" fill="none" xmlns="http://www.w3.org/2000/svg">
<path d="M10 15.0001L15.586 9.4151C14.9458 8.77514 14.8153 7.785 15.2678 7.00101C15.7202 6.21701 16.6428 5.83463 17.5172 6.06869C18.3916 6.30276 18.9997 7.09492 19 8.0001C19.9054 7.99945 20.6983 8.60716 20.9331 9.48164C21.1678 10.3561 20.7857 11.2792 20.0017 11.732C19.2176 12.1848 18.2271 12.0544 17.587 11.4141L14 15.0001" stroke="#2F2B3D" stroke-opacity="0.9" stroke-width="1.5" stroke-linecap="round" stroke-linejoin="round"/>
<path d="M11.9999 13.0001L8.4139 9.4151C9.05405 8.77514 9.18458 7.785 8.73215 7.00101C8.27971 6.21701 7.35712 5.83463 6.48273 6.06869C5.60834 6.30276 5.00016 7.09492 4.9999 8.0001C4.09447 7.99945 3.30155 8.60716 3.06684 9.48164C2.83213 10.3561 3.21417 11.2792 3.99823 11.732C4.78229 12.1848 5.77276 12.0544 6.4129 11.4141L9.9999 15.0001" stroke="#2F2B3D" stroke-opacity="0.9" stroke-width="1.5" stroke-linecap="round" stroke-linejoin="round"/>
<path fill-rule="evenodd" clip-rule="evenodd" d="M3 20H21C20.825 18.329 20.954 16.655 19 15H5C3.667 16 3 17.667 3 20Z" stroke="#2F2B3D" stroke-opacity="0.9" stroke-width="1.5" stroke-linecap="round" stroke-linejoin="round"/>
</svg>
