<svg width="24" height="24" viewBox="0 0 24 24" fill="none" xmlns="http://www.w3.org/2000/svg">
<path d="M13 12V12.01" stroke="#E1DEF5" stroke-opacity="0.4" stroke-width="1.5" stroke-linecap="round" stroke-linejoin="round"/>
<path d="M3 21H21" stroke="#E1DEF5" stroke-opacity="0.4" stroke-width="1.5" stroke-linecap="round" stroke-linejoin="round"/>
<path d="M4.25 21C4.25 21.4142 4.58579 21.75 5 21.75C5.41421 21.75 5.75 21.4142 5.75 21H4.25ZM14.5 3.75C14.9142 3.75 15.25 3.41421 15.25 3C15.25 2.58579 14.9142 2.25 14.5 2.25V3.75ZM17.75 13.5C17.75 13.0858 17.4142 12.75 17 12.75C16.5858 12.75 16.25 13.0858 16.25 13.5H17.75ZM16.25 21C16.25 21.4142 16.5858 21.75 17 21.75C17.4142 21.75 17.75 21.4142 17.75 21H16.25ZM5.75 21V5H4.25V21H5.75ZM5.75 5C5.75 4.30964 6.30964 3.75 7 3.75V2.25C5.48122 2.25 4.25 3.48122 4.25 5H5.75ZM7 3.75H14.5V2.25H7V3.75ZM16.25 13.5V21H17.75V13.5H16.25Z" fill="#E1DEF5" fill-opacity="0.4"/>
<path d="M14 6.25C13.5858 6.25 13.25 6.58579 13.25 7C13.25 7.41421 13.5858 7.75 14 7.75V6.25ZM21 7.75C21.4142 7.75 21.75 7.41421 21.75 7C21.75 6.58579 21.4142 6.25 21 6.25V7.75ZM18.5303 3.46967C18.2374 3.17678 17.7626 3.17678 17.4697 3.46967C17.1768 3.76256 17.1768 4.23744 17.4697 4.53033L18.5303 3.46967ZM21 7L21.5303 7.53033C21.8232 7.23744 21.8232 6.76256 21.5303 6.46967L21 7ZM17.4697 9.46967C17.1768 9.76256 17.1768 10.2374 17.4697 10.5303C17.7626 10.8232 18.2374 10.8232 18.5303 10.5303L17.4697 9.46967ZM14 7.75H21V6.25H14V7.75ZM17.4697 4.53033L20.4697 7.53033L21.5303 6.46967L18.5303 3.46967L17.4697 4.53033ZM20.4697 6.46967L17.4697 9.46967L18.5303 10.5303L21.5303 7.53033L20.4697 6.46967Z" fill="#E1DEF5" fill-opacity="0.4"/>
</svg>
