<svg width="24" height="24" viewBox="0 0 24 24" fill="none" xmlns="http://www.w3.org/2000/svg">
<path d="M14 14H10V10" stroke="#6D6B77" stroke-width="1.5" stroke-linecap="round" stroke-linejoin="round"/>
<path d="M10 10L6.5 6.5" stroke="#6D6B77" stroke-width="1.5" stroke-linecap="round" stroke-linejoin="round"/>
<path d="M9.21637 6.06789C9.28149 6.47696 9.66589 6.75577 10.075 6.69065C10.484 6.62553 10.7628 6.24112 10.6977 5.83206L9.21637 6.06789ZM7.15618 2.29902C6.74696 2.23488 6.36323 2.51462 6.29909 2.92384C6.23495 3.33306 6.51469 3.71679 6.9239 3.78093L7.15618 2.29902ZM4.55105 4.55863C4.84356 4.26535 4.84294 3.79048 4.54966 3.49797C4.25638 3.20546 3.78151 3.20608 3.489 3.49936L4.55105 4.55863ZM5.89329 10.7074C6.30328 10.7663 6.68344 10.4817 6.74239 10.0717C6.80134 9.66173 6.51676 9.28158 6.10676 9.22263L5.89329 10.7074ZM10.6977 5.83206C10.4078 4.01121 8.97771 2.58453 7.15618 2.29902L6.9239 3.78093C8.103 3.96574 9.02872 4.88925 9.21637 6.06789L10.6977 5.83206ZM3.489 3.49936C2.3534 4.63793 1.95768 6.31994 2.46651 7.8454L3.88944 7.37077C3.5602 6.38371 3.81625 5.29535 4.55105 4.55863L3.489 3.49936ZM2.46651 7.8454C2.97534 9.37086 4.30157 10.4785 5.89329 10.7074L6.10676 9.22263C5.07683 9.07454 4.21868 8.35783 3.88944 7.37077L2.46651 7.8454Z" fill="#6D6B77"/>
<path d="M14 10L17.5 6.5" stroke="#6D6B77" stroke-width="1.5" stroke-linecap="round" stroke-linejoin="round"/>
<path d="M18.0001 9.96502C19.7846 9.70635 21.0806 8.13418 20.9939 6.33305C20.9073 4.53192 19.4664 3.0914 17.6653 3.00522C15.8641 2.91903 14.2923 4.21539 14.0341 6.00002" stroke="#6D6B77" stroke-width="1.5" stroke-linecap="round" stroke-linejoin="round"/>
<path d="M14 14L17.5 17.5" stroke="#6D6B77" stroke-width="1.5" stroke-linecap="round" stroke-linejoin="round"/>
<path d="M14.7774 17.8933C14.7184 17.4833 14.3383 17.1987 13.9283 17.2576C13.5183 17.3166 13.2337 17.6967 13.2927 18.1067L14.7774 17.8933ZM20.5007 20.511C20.7939 20.2185 20.7946 19.7436 20.5021 19.4504C20.2095 19.1571 19.7347 19.1565 19.4414 19.449L20.5007 20.511ZM20.2173 17.0713C20.282 17.4804 20.6662 17.7596 21.0753 17.6948C21.4844 17.63 21.7636 17.2458 21.6988 16.8367L20.2173 17.0713ZM18.1561 13.3C17.7468 13.236 17.3631 13.5158 17.2991 13.925C17.235 14.3342 17.5148 14.7179 17.924 14.782L18.1561 13.3ZM13.2927 18.1067C13.5215 19.6985 14.6292 21.0247 16.1546 21.5335L16.6293 20.1106C15.6422 19.7813 14.9255 18.9232 14.7774 17.8933L13.2927 18.1067ZM16.1546 21.5335C17.6801 22.0423 19.3621 21.6466 20.5007 20.511L19.4414 19.449C18.7047 20.1838 17.6163 20.4398 16.6293 20.1106L16.1546 21.5335ZM21.6988 16.8367C21.4102 15.0141 19.9792 13.5855 18.1561 13.3L17.924 14.782C19.1041 14.9668 20.0305 15.8915 20.2173 17.0713L21.6988 16.8367Z" fill="#6D6B77"/>
<path d="M10 14L6.5 17.5" stroke="#6D6B77" stroke-width="1.5" stroke-linecap="round" stroke-linejoin="round"/>
<path d="M5.99994 14.035C4.21538 14.2936 2.91941 15.8658 3.00605 17.6669C3.09269 19.4681 4.53358 20.9086 6.33473 20.9948C8.13587 21.081 9.70772 19.7846 9.96594 18" stroke="#6D6B77" stroke-width="1.5" stroke-linecap="round" stroke-linejoin="round"/>
<path d="M3 3L21 21" stroke="#6D6B77" stroke-width="1.5" stroke-linecap="round" stroke-linejoin="round"/>
</svg>
