<svg width="24" height="24" viewBox="0 0 24 24" fill="none" xmlns="http://www.w3.org/2000/svg">
<path fill-rule="evenodd" clip-rule="evenodd" d="M10 10H14V14H10V10Z" stroke="#E1DEF5" stroke-opacity="0.7" stroke-width="1.5" stroke-linecap="round" stroke-linejoin="round"/>
<path d="M10 10L6.5 6.5" stroke="#E1DEF5" stroke-opacity="0.7" stroke-width="1.5" stroke-linecap="round" stroke-linejoin="round"/>
<path d="M9.95996 6.00002C9.70459 4.21331 8.13246 2.91377 6.32961 2.99915C4.52676 3.08453 3.08447 4.52682 2.99909 6.32967C2.91371 8.13252 4.21325 9.70466 5.99996 9.96002" stroke="#E1DEF5" stroke-opacity="0.7" stroke-width="1.5" stroke-linecap="round" stroke-linejoin="round"/>
<path d="M14 10L17.5 6.5" stroke="#E1DEF5" stroke-opacity="0.7" stroke-width="1.5" stroke-linecap="round" stroke-linejoin="round"/>
<path d="M18 9.96002C19.7867 9.70466 21.0863 8.13252 21.0009 6.32967C20.9155 4.52682 19.4732 3.08453 17.6704 2.99915C15.8675 2.91377 14.2954 4.21331 14.04 6.00002" stroke="#E1DEF5" stroke-opacity="0.7" stroke-width="1.5" stroke-linecap="round" stroke-linejoin="round"/>
<path d="M14 14L17.5 17.5" stroke="#E1DEF5" stroke-opacity="0.7" stroke-width="1.5" stroke-linecap="round" stroke-linejoin="round"/>
<path d="M14.04 18C14.2954 19.7867 15.8675 21.0862 17.6704 21.0008C19.4732 20.9155 20.9155 19.4732 21.0009 17.6703C21.0863 15.8675 19.7867 14.2953 18 14.04" stroke="#E1DEF5" stroke-opacity="0.7" stroke-width="1.5" stroke-linecap="round" stroke-linejoin="round"/>
<path d="M10 14L6.5 17.5" stroke="#E1DEF5" stroke-opacity="0.7" stroke-width="1.5" stroke-linecap="round" stroke-linejoin="round"/>
<path d="M5.99996 14.04C4.21325 14.2953 2.91371 15.8675 2.99909 17.6703C3.08447 19.4732 4.52676 20.9155 6.32961 21.0008C8.13246 21.0862 9.70459 19.7867 9.95996 18" stroke="#E1DEF5" stroke-opacity="0.7" stroke-width="1.5" stroke-linecap="round" stroke-linejoin="round"/>
</svg>
