<svg width="24" height="24" viewBox="0 0 24 24" fill="none" xmlns="http://www.w3.org/2000/svg">
<path fill-rule="evenodd" clip-rule="evenodd" d="M10 10H14V14H10V10Z" stroke="#2F2B3D" stroke-opacity="0.9" stroke-width="1.5" stroke-linecap="round" stroke-linejoin="round"/>
<path d="M10 10L6.5 6.5" stroke="#2F2B3D" stroke-opacity="0.9" stroke-width="1.5" stroke-linecap="round" stroke-linejoin="round"/>
<path d="M9.95996 5.99996C9.70459 4.21325 8.13246 2.91371 6.32961 2.99909C4.52676 3.08447 3.08447 4.52676 2.99909 6.32961C2.91371 8.13246 4.21325 9.70459 5.99996 9.95996" stroke="#2F2B3D" stroke-opacity="0.9" stroke-width="1.5" stroke-linecap="round" stroke-linejoin="round"/>
<path d="M14 10L17.5 6.5" stroke="#2F2B3D" stroke-opacity="0.9" stroke-width="1.5" stroke-linecap="round" stroke-linejoin="round"/>
<path d="M18 9.95996C19.7867 9.70459 21.0863 8.13246 21.0009 6.32961C20.9155 4.52676 19.4732 3.08447 17.6704 2.99909C15.8675 2.91371 14.2954 4.21325 14.04 5.99996" stroke="#2F2B3D" stroke-opacity="0.9" stroke-width="1.5" stroke-linecap="round" stroke-linejoin="round"/>
<path d="M14 14L17.5 17.5" stroke="#2F2B3D" stroke-opacity="0.9" stroke-width="1.5" stroke-linecap="round" stroke-linejoin="round"/>
<path d="M14.04 18C14.2954 19.7867 15.8675 21.0863 17.6704 21.0009C19.4732 20.9155 20.9155 19.4732 21.0009 17.6704C21.0863 15.8675 19.7867 14.2954 18 14.04" stroke="#2F2B3D" stroke-opacity="0.9" stroke-width="1.5" stroke-linecap="round" stroke-linejoin="round"/>
<path d="M10 14L6.5 17.5" stroke="#2F2B3D" stroke-opacity="0.9" stroke-width="1.5" stroke-linecap="round" stroke-linejoin="round"/>
<path d="M5.99996 14.04C4.21325 14.2954 2.91371 15.8675 2.99909 17.6704C3.08447 19.4732 4.52676 20.9155 6.32961 21.0009C8.13246 21.0863 9.70459 19.7867 9.95996 18" stroke="#2F2B3D" stroke-opacity="0.9" stroke-width="1.5" stroke-linecap="round" stroke-linejoin="round"/>
</svg>
