<svg width="24" height="24" viewBox="0 0 24 24" fill="none" xmlns="http://www.w3.org/2000/svg">
<path d="M6 10.0001C5.99766 7.04162 7.85544 4.40114 10.6408 3.40406C13.4261 2.40697 16.5376 3.26861 18.4133 5.55644C20.2889 7.84427 20.5238 11.0643 19 13.6001C18.4315 14.3581 17.7581 15.0315 17 15.6001C16.1137 16.4348 15.4297 17.4609 15 18.6001C14.3717 19.7874 13.2458 20.632 11.93 20.9029C10.6142 21.1738 9.24625 20.8427 8.2 20.0001" stroke="#2F2B3D" stroke-opacity="0.9" stroke-width="1.5" stroke-linecap="round" stroke-linejoin="round"/>
<path d="M9.99997 10C9.98343 8.61717 10.9144 7.40218 12.2539 7.05835C13.5935 6.71453 14.9945 7.33098 15.646 8.55087C16.2975 9.77076 16.0307 11.278 15 12.2" stroke="#2F2B3D" stroke-opacity="0.9" stroke-width="1.5" stroke-linecap="round" stroke-linejoin="round"/>
</svg>
