<svg width="24" height="24" viewBox="0 0 24 24" fill="none" xmlns="http://www.w3.org/2000/svg">
<path d="M5.24979 10C5.24979 10.4142 5.58557 10.75 5.99979 10.75C6.414 10.75 6.74979 10.4142 6.74979 10H5.24979ZM7.44617 7.12514C7.63623 6.75711 7.49196 6.30468 7.12393 6.11462C6.75589 5.92456 6.30346 6.06883 6.1134 6.43687L7.44617 7.12514ZM8.0975 3.99211C7.77668 4.25413 7.72902 4.7266 7.99103 5.04741C8.25305 5.36823 8.72552 5.41589 9.04634 5.15388L8.0975 3.99211ZM18.9999 13.6L19.5999 14.0501C19.6152 14.0296 19.6296 14.0083 19.6428 13.9863L18.9999 13.6ZM17.8145 13.8548C17.5343 14.1599 17.5546 14.6343 17.8597 14.9145C18.1648 15.1946 18.6392 15.1743 18.9194 14.8692L17.8145 13.8548ZM16.8997 16.8001C17.1638 16.481 17.1191 16.0082 16.7999 15.7442C16.4808 15.4801 16.008 15.5248 15.744 15.8439L16.8997 16.8001ZM14.9998 18.6L15.6628 18.9508C15.6775 18.9229 15.6905 18.8941 15.7016 18.8646L14.9998 18.6ZM8.67027 19.4159C8.34767 19.1561 7.87553 19.207 7.61572 19.5296C7.35591 19.8522 7.40682 20.3243 7.72942 20.5841L8.67027 19.4159ZM6.74979 10C6.74979 8.97551 6.9973 7.99433 7.44617 7.12514L6.1134 6.43687C5.55627 7.51568 5.24979 8.7325 5.24979 10H6.74979ZM9.04634 5.15388C11.3993 3.23213 14.7934 3.28076 17.0904 5.26914L18.0721 4.13503C15.2239 1.66945 11.0152 1.60915 8.0975 3.99211L9.04634 5.15388ZM17.0904 5.26914C19.3874 7.25751 19.9218 10.6096 18.3571 13.2137L19.6428 13.9863C21.5831 10.7572 20.9204 6.60062 18.0721 4.13503L17.0904 5.26914ZM18.4 13.1499C18.2166 13.3944 18.0212 13.6296 17.8145 13.8548L18.9194 14.8692C19.1596 14.6076 19.3867 14.3342 19.5999 14.0501L18.4 13.1499ZM15.744 15.8439C15.1277 16.5889 14.6391 17.4308 14.298 18.3355L15.7016 18.8646C15.9842 18.1149 16.389 17.4173 16.8997 16.8001L15.744 15.8439ZM14.3369 18.2492C13.8133 19.2387 12.8751 19.9425 11.7786 20.1682L12.0811 21.6374C13.6161 21.3214 14.9297 20.3361 15.6628 18.9508L14.3369 18.2492ZM11.7786 20.1682C10.6821 20.394 9.54214 20.1181 8.67027 19.4159L7.72942 20.5841C8.95004 21.5672 10.546 21.9535 12.0811 21.6374L11.7786 20.1682Z" fill="#ACAAB1"/>
<path d="M11.4199 7.414C12.6037 6.67992 14.137 6.85718 15.122 7.84198C16.1071 8.82679 16.2847 10.3601 15.5509 11.544" stroke="#ACAAB1" stroke-width="1.5" stroke-linecap="round" stroke-linejoin="round"/>
<path d="M3 3L21 21" stroke="#ACAAB1" stroke-width="1.5" stroke-linecap="round" stroke-linejoin="round"/>
</svg>
