<svg width="24" height="24" viewBox="0 0 24 24" fill="none" xmlns="http://www.w3.org/2000/svg">
<path d="M6 10C5.99766 7.04156 7.85544 4.40108 10.6408 3.404C13.4261 2.40691 16.5376 3.26854 18.4133 5.55638C20.2889 7.84421 20.5238 11.0642 19 13.6C18.4315 14.3581 17.7581 15.0315 17 15.6C16.1137 16.4348 15.4297 17.4608 15 18.6C14.3717 19.7874 13.2458 20.6319 11.93 20.9028C10.6142 21.1737 9.24625 20.8426 8.2 20" stroke="#ACAAB1" stroke-width="1.5" stroke-linecap="round" stroke-linejoin="round"/>
<path d="M9.99997 9.99998C9.98343 8.61711 10.9144 7.40212 12.2539 7.05829C13.5935 6.71447 14.9945 7.33092 15.646 8.55081C16.2975 9.7707 16.0307 11.2779 15 12.2" stroke="#ACAAB1" stroke-width="1.5" stroke-linecap="round" stroke-linejoin="round"/>
</svg>
