<svg width="25" height="24" viewBox="0 0 25 24" fill="none" xmlns="http://www.w3.org/2000/svg">
<path d="M16.5 5.75C16.9142 5.75 17.25 5.41421 17.25 5C17.25 4.58579 16.9142 4.25 16.5 4.25V5.75ZM8.5 5V4.25C8.08579 4.25 7.75 4.58579 7.75 5H8.5ZM8.5 15H7.75C7.75 15.4142 8.08579 15.75 8.5 15.75V15ZM16.5 15.75C16.9142 15.75 17.25 15.4142 17.25 15C17.25 14.5858 16.9142 14.25 16.5 14.25V15.75ZM15.5 10.75C15.9142 10.75 16.25 10.4142 16.25 10C16.25 9.58579 15.9142 9.25 15.5 9.25V10.75ZM8.5 9.25C8.08579 9.25 7.75 9.58579 7.75 10C7.75 10.4142 8.08579 10.75 8.5 10.75V9.25ZM16.5 4.25H8.5V5.75H16.5V4.25ZM7.75 5V15H9.25V5H7.75ZM8.5 15.75H16.5V14.25H8.5V15.75ZM15.5 9.25H8.5V10.75H15.5V9.25Z" fill="#6D6B77"/>
<path d="M6.5 20V20.01" stroke="#6D6B77" stroke-width="1.5" stroke-linecap="round" stroke-linejoin="round"/>
<path d="M10.5 20V20.01" stroke="#6D6B77" stroke-width="1.5" stroke-linecap="round" stroke-linejoin="round"/>
<path d="M14.5 20V20.01" stroke="#6D6B77" stroke-width="1.5" stroke-linecap="round" stroke-linejoin="round"/>
<path d="M18.5 20V20.01" stroke="#6D6B77" stroke-width="1.5" stroke-linecap="round" stroke-linejoin="round"/>
</svg>
