<svg width="25" height="24" viewBox="0 0 25 24" fill="none" xmlns="http://www.w3.org/2000/svg">
<path d="M3.5 10V16" stroke="#E1DEF5" stroke-opacity="0.4" stroke-width="1.5" stroke-linecap="round" stroke-linejoin="round"/>
<path d="M12.5 5V8" stroke="#E1DEF5" stroke-opacity="0.4" stroke-width="1.5" stroke-linecap="round" stroke-linejoin="round"/>
<path d="M10.5 5H14.5" stroke="#E1DEF5" stroke-opacity="0.4" stroke-width="1.5" stroke-linecap="round" stroke-linejoin="round"/>
<path d="M5.5 13H3.5" stroke="#E1DEF5" stroke-opacity="0.4" stroke-width="1.5" stroke-linecap="round" stroke-linejoin="round"/>
<path fill-rule="evenodd" clip-rule="evenodd" d="M6.5 10H8.5L10.5 8H13.882C14.2607 8.0002 14.6067 8.21427 14.776 8.553L16.224 11.447C16.3933 11.7857 16.7393 11.9998 17.118 12H18.5V10H20.5C21.0523 10 21.5 10.4477 21.5 11V17C21.5 17.5523 21.0523 18 20.5 18H18.5V16H15.5V18C15.5 18.5523 15.0523 19 14.5 19H11.035C10.7007 19.0001 10.3885 18.8331 10.203 18.555L8.5 16H6.5L6.5 10Z" stroke="#E1DEF5" stroke-opacity="0.4" stroke-width="1.5" stroke-linecap="round" stroke-linejoin="round"/>
</svg>
