<svg width="25" height="24" viewBox="0 0 25 24" fill="none" xmlns="http://www.w3.org/2000/svg">
<path d="M5.5 8.25C5.08579 8.25 4.75 8.58579 4.75 9C4.75 9.41421 5.08579 9.75 5.5 9.75V8.25ZM19.5 9.75C19.9142 9.75 20.25 9.41421 20.25 9C20.25 8.58579 19.9142 8.25 19.5 8.25V9.75ZM5.5 14.25C5.08579 14.25 4.75 14.5858 4.75 15C4.75 15.4142 5.08579 15.75 5.5 15.75V14.25ZM19.5 15.75C19.9142 15.75 20.25 15.4142 20.25 15C20.25 14.5858 19.9142 14.25 19.5 14.25V15.75ZM5.5 9.75H19.5V8.25H5.5V9.75ZM5.5 15.75H19.5V14.25H5.5V15.75Z" fill="#E1DEF5" fill-opacity="0.9"/>
</svg>
