<svg width="25" height="24" viewBox="0 0 25 24" fill="none" xmlns="http://www.w3.org/2000/svg">
<path d="M5.5 8.25C5.08579 8.25 4.75 8.58579 4.75 9C4.75 9.41421 5.08579 9.75 5.5 9.75V8.25ZM19.5 9.75C19.9142 9.75 20.25 9.41421 20.25 9C20.25 8.58579 19.9142 8.25 19.5 8.25V9.75ZM5.5 14.25C5.08579 14.25 4.75 14.5858 4.75 15C4.75 15.4142 5.08579 15.75 5.5 15.75V14.25ZM19.5 15.75C19.9142 15.75 20.25 15.4142 20.25 15C20.25 14.5858 19.9142 14.25 19.5 14.25V15.75ZM20.0303 5.53033C20.3232 5.23744 20.3232 4.76256 20.0303 4.46967C19.7374 4.17678 19.2626 4.17678 18.9697 4.46967L20.0303 5.53033ZM4.96967 18.4697C4.67678 18.7626 4.67678 19.2374 4.96967 19.5303C5.26256 19.8232 5.73744 19.8232 6.03033 19.5303L4.96967 18.4697ZM5.5 9.75H19.5V8.25H5.5V9.75ZM5.5 15.75H19.5V14.25H5.5V15.75ZM18.9697 4.46967L4.96967 18.4697L6.03033 19.5303L20.0303 5.53033L18.9697 4.46967Z" fill="#2F2B3D" fill-opacity="0.9"/>
</svg>
