<svg width="25" height="24" viewBox="0 0 25 24" fill="none" xmlns="http://www.w3.org/2000/svg">
<circle cx="5.5" cy="18" r="2" stroke="#ACAAB1" stroke-width="1.5" stroke-linecap="round" stroke-linejoin="round"/>
<circle cx="19.5" cy="6" r="2" stroke="#ACAAB1" stroke-width="1.5" stroke-linecap="round" stroke-linejoin="round"/>
<path d="M20.25 8C20.25 7.58579 19.9142 7.25 19.5 7.25C19.0858 7.25 18.75 7.58579 18.75 8H20.25ZM11.5 18L10.9697 17.4697C10.7552 17.6842 10.691 18.0068 10.8071 18.287C10.9232 18.5673 11.1967 18.75 11.5 18.75V18ZM15.0303 15.5303C15.3232 15.2374 15.3232 14.7626 15.0303 14.4697C14.7374 14.1768 14.2626 14.1768 13.9697 14.4697L15.0303 15.5303ZM13.9697 21.5303C14.2626 21.8232 14.7374 21.8232 15.0303 21.5303C15.3232 21.2374 15.3232 20.7626 15.0303 20.4697L13.9697 21.5303ZM12.0303 17.4697C11.7374 17.1768 11.2626 17.1768 10.9697 17.4697C10.6768 17.7626 10.6768 18.2374 10.9697 18.5303L12.0303 17.4697ZM18.75 8V13H20.25V8H18.75ZM18.75 13C18.75 15.3472 16.8472 17.25 14.5 17.25V18.75C17.6756 18.75 20.25 16.1756 20.25 13H18.75ZM14.5 17.25H11.5V18.75H14.5V17.25ZM12.0303 18.5303L15.0303 15.5303L13.9697 14.4697L10.9697 17.4697L12.0303 18.5303ZM15.0303 20.4697L12.0303 17.4697L10.9697 18.5303L13.9697 21.5303L15.0303 20.4697Z" fill="#ACAAB1"/>
<path d="M4.75 16C4.75 16.4142 5.08579 16.75 5.5 16.75C5.91421 16.75 6.25 16.4142 6.25 16H4.75ZM13.5 6V6.75C13.8033 6.75 14.0768 6.56727 14.1929 6.28701C14.309 6.00676 14.2448 5.68417 14.0303 5.46967L13.5 6ZM11.0303 2.46967C10.7374 2.17678 10.2626 2.17678 9.96967 2.46967C9.67678 2.76256 9.67678 3.23744 9.96967 3.53033L11.0303 2.46967ZM9.96967 8.46967C9.67678 8.76256 9.67678 9.23744 9.96967 9.53033C10.2626 9.82322 10.7374 9.82322 11.0303 9.53033L9.96967 8.46967ZM14.0303 6.53033C14.3232 6.23744 14.3232 5.76256 14.0303 5.46967C13.7374 5.17678 13.2626 5.17678 12.9697 5.46967L14.0303 6.53033ZM6.25 16V11H4.75V16H6.25ZM6.25 11C6.25 8.65279 8.15279 6.75 10.5 6.75V5.25C7.32436 5.25 4.75 7.82436 4.75 11H6.25ZM10.5 6.75H13.5V5.25H10.5V6.75ZM14.0303 5.46967L11.0303 2.46967L9.96967 3.53033L12.9697 6.53033L14.0303 5.46967ZM11.0303 9.53033L14.0303 6.53033L12.9697 5.46967L9.96967 8.46967L11.0303 9.53033Z" fill="#ACAAB1"/>
</svg>
