<svg width="25" height="24" viewBox="0 0 25 24" fill="none" xmlns="http://www.w3.org/2000/svg">
<rect x="4.5" y="4" width="16" height="16" rx="2" stroke="#E1DEF5" stroke-opacity="0.4" stroke-width="1.5" stroke-linecap="round" stroke-linejoin="round"/>
<path d="M5.09998 19.4L19.9 4.59998" stroke="#E1DEF5" stroke-opacity="0.4" stroke-width="1.5" stroke-linecap="round" stroke-linejoin="round"/>
<path d="M7.5 8.25C7.08579 8.25 6.75 8.58579 6.75 9C6.75 9.41421 7.08579 9.75 7.5 9.75V8.25ZM11.5 9.75C11.9142 9.75 12.25 9.41421 12.25 9C12.25 8.58579 11.9142 8.25 11.5 8.25V9.75ZM10.25 7C10.25 6.58579 9.91421 6.25 9.5 6.25C9.08579 6.25 8.75 6.58579 8.75 7H10.25ZM8.75 11C8.75 11.4142 9.08579 11.75 9.5 11.75C9.91421 11.75 10.25 11.4142 10.25 11H8.75ZM7.5 9.75H11.5V8.25H7.5V9.75ZM8.75 7V11H10.25V7H8.75Z" fill="#E1DEF5" fill-opacity="0.4"/>
<path d="M13.5 16H17.5" stroke="#E1DEF5" stroke-opacity="0.4" stroke-width="1.5" stroke-linecap="round" stroke-linejoin="round"/>
</svg>
