<svg width="25" height="24" viewBox="0 0 25 24" fill="none" xmlns="http://www.w3.org/2000/svg">
<path d="M3.5 3L21.5 21" stroke="#2F2B3D" stroke-opacity="0.9" stroke-width="1.5" stroke-linecap="round" stroke-linejoin="round"/>
<path d="M11.084 10.5869C10.3025 11.3678 10.302 12.6344 11.083 13.4159C11.8639 14.1974 13.1305 14.1978 13.912 13.4169" stroke="#2F2B3D" stroke-opacity="0.9" stroke-width="1.5" stroke-linecap="round" stroke-linejoin="round"/>
<path d="M9.65676 4.64398C9.25852 4.75791 9.02804 5.1731 9.14196 5.57133C9.25588 5.96957 9.67107 6.20006 10.0693 6.08614L9.65676 4.64398ZM12.5 5.00006L12.4974 5.75006H12.5V5.00006ZM22.5 12.0001L23.1512 12.3723C23.283 12.1417 23.283 11.8586 23.1512 11.6279L22.5 12.0001ZM19.4463 14.979C19.1651 15.2832 19.1838 15.7577 19.488 16.0388C19.7922 16.32 20.2667 16.3013 20.5478 15.9971L19.4463 14.979ZM18.2764 17.9709C18.6198 17.7393 18.7104 17.2731 18.4788 16.9297C18.2472 16.5863 17.781 16.4956 17.4376 16.7273L18.2764 17.9709ZM2.5 12.0001L1.84887 11.6279C1.71706 11.8585 1.71704 12.1416 1.84883 12.3722L2.5 12.0001ZM7.55301 7.27974C7.89581 7.04722 7.9852 6.58084 7.75268 6.23805C7.52017 5.89525 7.05378 5.80585 6.71099 6.03837L7.55301 7.27974ZM10.0693 6.08614C10.8588 5.86029 11.6762 5.74715 12.4974 5.75005L12.5027 4.25006C11.5402 4.24665 10.5821 4.37927 9.65676 4.64398L10.0693 6.08614ZM12.5 5.75006C16.14 5.75006 19.2632 7.84749 21.8489 12.3722L23.1512 11.6279C20.4029 6.81863 16.86 4.25006 12.5 4.25006V5.75006ZM21.8489 11.6279C21.0937 12.949 20.292 14.064 19.4463 14.979L20.5478 15.9971C21.4841 14.9842 22.3504 13.7731 23.1512 12.3723L21.8489 11.6279ZM17.4376 16.7273C15.9284 17.7451 14.29 18.2501 12.5 18.2501V19.7501C14.594 19.7501 16.5236 19.153 18.2764 17.9709L17.4376 16.7273ZM12.5 18.2501C8.86001 18.2501 5.73685 16.1526 3.15117 11.6279L1.84883 12.3722C4.59715 17.1815 8.13999 19.7501 12.5 19.7501V18.2501ZM3.15113 12.3722C4.48114 10.0455 5.95439 8.36409 7.55301 7.27974L6.71099 6.03837C4.87161 7.28603 3.25686 9.16465 1.84887 11.6279L3.15113 12.3722Z" fill="#2F2B3D" fill-opacity="0.9"/>
</svg>
