<svg width="22" height="22" viewBox="0 0 22 22" fill="none" xmlns="http://www.w3.org/2000/svg">
<g id="remix-icons/line/logos/facebook-circle-line">
<path id="Vector" d="M11.9163 18.2767C13.7655 18.0414 15.4557 17.1108 16.6434 15.674C17.8311 14.2373 18.4272 12.4022 18.3104 10.5418C18.1937 8.68137 17.373 6.93519 16.015 5.65818C14.657 4.38116 12.8638 3.66914 10.9997 3.66683C9.1333 3.66544 7.33663 4.37572 5.97574 5.65295C4.61484 6.93018 3.79214 8.67824 3.67527 10.5409C3.5584 12.4037 4.15615 14.2408 5.34672 15.6782C6.5373 17.1155 8.2311 18.0448 10.083 18.2767V12.8335H8.24967V11.0002H10.083V9.484C10.083 8.25841 10.2113 7.81383 10.4497 7.36558C10.6844 6.92208 11.0473 6.55954 11.491 6.32516C11.8412 6.13725 12.2766 6.0245 13.0374 5.97591C13.339 5.95666 13.7295 5.9805 14.2089 6.04925V7.79091H13.7497C12.9091 7.79091 12.5617 7.83033 12.3545 7.94125C12.2309 8.00482 12.1303 8.10546 12.0667 8.22908C11.9567 8.43625 11.9163 8.64158 11.9163 9.48308V11.0002H14.208L13.7497 12.8335H11.9163V18.2767ZM10.9997 20.1668C5.93692 20.1668 1.83301 16.0629 1.83301 11.0002C1.83301 5.93741 5.93692 1.8335 10.9997 1.8335C16.0624 1.8335 20.1663 5.93741 20.1663 11.0002C20.1663 16.0629 16.0624 20.1668 10.9997 20.1668Z" fill="white"/>
</g>
</svg>
