<svg width="25" height="24" viewBox="0 0 25 24" fill="none" xmlns="http://www.w3.org/2000/svg">
<path d="M5.50195 14.5H5.27995C3.74495 14.5 2.50195 13.38 2.50195 12C2.50195 10.62 3.74495 9.5 5.27995 9.5H5.50195" stroke="#E1DEF5" stroke-opacity="0.4" stroke-width="1.5" stroke-linecap="round" stroke-linejoin="round"/>
<path d="M19.502 14.5H19.724C21.258 14.5 22.502 13.38 22.502 12C22.502 10.62 21.258 9.5 19.724 9.5H19.502" stroke="#E1DEF5" stroke-opacity="0.4" stroke-width="1.5" stroke-linecap="round" stroke-linejoin="round"/>
<path d="M9.5 10H15.5" stroke="#E1DEF5" stroke-opacity="0.4" stroke-width="1.5" stroke-linecap="round" stroke-linejoin="round"/>
<path d="M9.5 14H15.5" stroke="#E1DEF5" stroke-opacity="0.4" stroke-width="1.5" stroke-linecap="round" stroke-linejoin="round"/>
<path fill-rule="evenodd" clip-rule="evenodd" d="M13.05 18.843L18.05 17.414C18.9084 17.1685 19.5 16.3838 19.5 15.491V8.50998C19.5 7.6172 18.9084 6.8325 18.05 6.58698L13.05 5.15798C12.6905 5.05517 12.3095 5.05517 11.95 5.15798L6.95 6.58698C6.09199 6.8324 5.5004 7.61657 5.5 8.50898V15.491C5.49995 16.3838 6.09164 17.1685 6.95 17.414L11.95 18.843C12.3095 18.9458 12.6905 18.9458 13.05 18.843Z" stroke="#E1DEF5" stroke-opacity="0.4" stroke-width="1.5" stroke-linecap="round" stroke-linejoin="round"/>
</svg>
