<svg width="25" height="24" viewBox="0 0 25 24" fill="none" xmlns="http://www.w3.org/2000/svg">
<path d="M5.50195 14.5H5.27995C3.74495 14.5 2.50195 13.38 2.50195 12C2.50195 10.62 3.74495 9.5 5.27995 9.5H5.50195" stroke="#2F2B3D" stroke-opacity="0.9" stroke-width="1.5" stroke-linecap="round" stroke-linejoin="round"/>
<path d="M19.502 14.5H19.724C21.258 14.5 22.502 13.38 22.502 12C22.502 10.62 21.258 9.5 19.724 9.5H19.502" stroke="#2F2B3D" stroke-opacity="0.9" stroke-width="1.5" stroke-linecap="round" stroke-linejoin="round"/>
<path d="M9.5 10H15.5" stroke="#2F2B3D" stroke-opacity="0.9" stroke-width="1.5" stroke-linecap="round" stroke-linejoin="round"/>
<path d="M9.5 14H15.5" stroke="#2F2B3D" stroke-opacity="0.9" stroke-width="1.5" stroke-linecap="round" stroke-linejoin="round"/>
<path fill-rule="evenodd" clip-rule="evenodd" d="M13.05 18.8432L18.05 17.4142C18.9084 17.1687 19.5 16.384 19.5 15.4912V8.51017C19.5 7.61738 18.9084 6.83268 18.05 6.58717L13.05 5.15817C12.6905 5.05535 12.3095 5.05535 11.95 5.15817L6.95 6.58717C6.09199 6.83258 5.5004 7.61675 5.5 8.50917V15.4912C5.49995 16.384 6.09164 17.1687 6.95 17.4142L11.95 18.8432C12.3095 18.946 12.6905 18.946 13.05 18.8432Z" stroke="#2F2B3D" stroke-opacity="0.9" stroke-width="1.5" stroke-linecap="round" stroke-linejoin="round"/>
</svg>
