<svg width="25" height="24" viewBox="0 0 25 24" fill="none" xmlns="http://www.w3.org/2000/svg">
<path d="M3.96967 19.4697C3.67678 19.7626 3.67678 20.2374 3.96967 20.5303C4.26256 20.8232 4.73744 20.8232 5.03033 20.5303L3.96967 19.4697ZM15.0303 10.5303C15.3232 10.2374 15.3232 9.76256 15.0303 9.46967C14.7374 9.17678 14.2626 9.17678 13.9697 9.46967L15.0303 10.5303ZM15.25 5C15.25 4.58579 14.9142 4.25 14.5 4.25C14.0858 4.25 13.75 4.58579 13.75 5H15.25ZM14.5 10H13.75C13.75 10.4142 14.0858 10.75 14.5 10.75V10ZM19.5 10.75C19.9142 10.75 20.25 10.4142 20.25 10C20.25 9.58579 19.9142 9.25 19.5 9.25V10.75ZM11.25 9C11.25 8.58579 10.9142 8.25 10.5 8.25C10.0858 8.25 9.75 8.58579 9.75 9H11.25ZM10.5 14H9.75C9.75 14.4142 10.0858 14.75 10.5 14.75V14ZM15.5 14.75C15.9142 14.75 16.25 14.4142 16.25 14C16.25 13.5858 15.9142 13.25 15.5 13.25V14.75ZM7.25 13C7.25 12.5858 6.91421 12.25 6.5 12.25C6.08579 12.25 5.75 12.5858 5.75 13H7.25ZM6.5 18H5.75C5.75 18.4142 6.08579 18.75 6.5 18.75V18ZM11.5 18.75C11.9142 18.75 12.25 18.4142 12.25 18C12.25 17.5858 11.9142 17.25 11.5 17.25V18.75ZM5.96967 12.4697C5.67678 12.7626 5.67678 13.2374 5.96967 13.5303C6.26256 13.8232 6.73744 13.8232 7.03033 13.5303L5.96967 12.4697ZM15.0303 5.53033C15.3232 5.23744 15.3232 4.76256 15.0303 4.46967C14.7374 4.17678 14.2626 4.17678 13.9697 4.46967L15.0303 5.53033ZM5.03033 20.5303L15.0303 10.5303L13.9697 9.46967L3.96967 19.4697L5.03033 20.5303ZM13.75 5V10H15.25V5H13.75ZM14.5 10.75H19.5V9.25H14.5V10.75ZM9.75 9V14H11.25V9H9.75ZM10.5 14.75H15.5V13.25H10.5V14.75ZM5.75 13V18H7.25V13H5.75ZM6.5 18.75H11.5V17.25H6.5V18.75ZM7.03033 13.5303L11.0303 9.53033L9.96967 8.46967L5.96967 12.4697L7.03033 13.5303ZM11.0303 9.53033L15.0303 5.53033L13.9697 4.46967L9.96967 8.46967L11.0303 9.53033Z" fill="#2F2B3D" fill-opacity="0.9"/>
<path d="M18.9705 9.46884C18.6772 9.76127 18.6764 10.2361 18.9688 10.5295C19.2613 10.8229 19.7361 10.8236 20.0295 10.5312L18.9705 9.46884ZM20.5 7.514H21.25V7.51379L20.5 7.514ZM16.983 4L16.983 4.75L16.9834 4.75L16.983 4ZM13.9709 4.46842C13.6773 4.76062 13.6762 5.23549 13.9684 5.52908C14.2606 5.82266 14.7355 5.82378 15.0291 5.53158L13.9709 4.46842ZM10.9697 17.4697C10.6768 17.7626 10.6768 18.2374 10.9697 18.5303C11.2626 18.8232 11.7374 18.8232 12.0303 18.5303L10.9697 17.4697ZM20.0303 10.5303C20.3232 10.2374 20.3232 9.76256 20.0303 9.46967C19.7374 9.17678 19.2626 9.17678 18.9697 9.46967L20.0303 10.5303ZM20.0295 10.5312C20.8154 9.74772 21.25 8.6746 21.25 7.514H19.75C19.75 8.2954 19.4606 8.98028 18.9705 9.46884L20.0295 10.5312ZM21.25 7.51379C21.2497 6.38243 20.7999 5.29755 19.9995 4.4979L18.9393 5.55902C19.4582 6.07743 19.7498 6.78075 19.75 7.51421L21.25 7.51379ZM19.9995 4.4979C19.1992 3.69825 18.1139 3.24936 16.9826 3.25L16.9834 4.75C17.7169 4.74958 18.4205 5.0406 18.9393 5.55902L19.9995 4.4979ZM16.983 3.25C15.8203 3.25 14.7514 3.69165 13.9709 4.46842L15.0291 5.53158C15.5206 5.04235 16.2057 4.75 16.983 4.75V3.25ZM12.0303 18.5303L16.0303 14.5303L14.9697 13.4697L10.9697 17.4697L12.0303 18.5303ZM16.0303 14.5303L20.0303 10.5303L18.9697 9.46967L14.9697 13.4697L16.0303 14.5303Z" fill="#2F2B3D" fill-opacity="0.9"/>
</svg>
