<svg width="25" height="24" viewBox="0 0 25 24" fill="none" xmlns="http://www.w3.org/2000/svg">
<path fill-rule="evenodd" clip-rule="evenodd" d="M4.5 12V16H20.5V12H4.5Z" stroke="#E1DEF5" stroke-opacity="0.4" stroke-width="1.5" stroke-linecap="round" stroke-linejoin="round"/>
<path d="M7.25 16C7.25 15.5858 6.91421 15.25 6.5 15.25C6.08579 15.25 5.75 15.5858 5.75 16H7.25ZM6.5 20H5.75C5.75 20.4142 6.08579 20.75 6.5 20.75V20ZM10.5 20V20.75C10.9142 20.75 11.25 20.4142 11.25 20H10.5ZM11.25 16C11.25 15.5858 10.9142 15.25 10.5 15.25C10.0858 15.25 9.75 15.5858 9.75 16H11.25ZM9.75 12C9.75 12.4142 10.0858 12.75 10.5 12.75C10.9142 12.75 11.25 12.4142 11.25 12H9.75ZM10.5 6H11.25C11.25 5.80109 11.171 5.61032 11.0303 5.46967L10.5 6ZM8.5 4L9.03033 3.46967C8.73744 3.17678 8.26256 3.17678 7.96967 3.46967L8.5 4ZM6.5 6L5.96967 5.46967C5.82902 5.61032 5.75 5.80109 5.75 6H6.5ZM5.75 12C5.75 12.4142 6.08579 12.75 6.5 12.75C6.91421 12.75 7.25 12.4142 7.25 12H5.75ZM5.75 16V20H7.25V16H5.75ZM6.5 20.75H10.5V19.25H6.5V20.75ZM11.25 20V16H9.75V20H11.25ZM11.25 12V6H9.75V12H11.25ZM11.0303 5.46967L9.03033 3.46967L7.96967 4.53033L9.96967 6.53033L11.0303 5.46967ZM7.96967 3.46967L5.96967 5.46967L7.03033 6.53033L9.03033 4.53033L7.96967 3.46967ZM5.75 6V12H7.25V6H5.75Z" fill="#E1DEF5" fill-opacity="0.4"/>
<path d="M15.25 16C15.25 15.5858 14.9142 15.25 14.5 15.25C14.0858 15.25 13.75 15.5858 13.75 16H15.25ZM14.5 20H13.75C13.75 20.4142 14.0858 20.75 14.5 20.75V20ZM18.5 20V20.75C18.9142 20.75 19.25 20.4142 19.25 20H18.5ZM19.25 16C19.25 15.5858 18.9142 15.25 18.5 15.25C18.0858 15.25 17.75 15.5858 17.75 16H19.25ZM17.75 12C17.75 12.4142 18.0858 12.75 18.5 12.75C18.9142 12.75 19.25 12.4142 19.25 12H17.75ZM18.5 6H19.25C19.25 5.80109 19.171 5.61032 19.0303 5.46967L18.5 6ZM16.5 4L17.0303 3.46967C16.7374 3.17678 16.2626 3.17678 15.9697 3.46967L16.5 4ZM14.5 6L13.9697 5.46967C13.829 5.61032 13.75 5.80109 13.75 6H14.5ZM13.75 12C13.75 12.4142 14.0858 12.75 14.5 12.75C14.9142 12.75 15.25 12.4142 15.25 12H13.75ZM13.75 16V20H15.25V16H13.75ZM14.5 20.75H18.5V19.25H14.5V20.75ZM19.25 20V16H17.75V20H19.25ZM19.25 12V6H17.75V12H19.25ZM19.0303 5.46967L17.0303 3.46967L15.9697 4.53033L17.9697 6.53033L19.0303 5.46967ZM15.9697 3.46967L13.9697 5.46967L15.0303 6.53033L17.0303 4.53033L15.9697 3.46967ZM13.75 6V12H15.25V6H13.75Z" fill="#E1DEF5" fill-opacity="0.4"/>
</svg>
