<svg width="25" height="24" viewBox="0 0 25 24" fill="none" xmlns="http://www.w3.org/2000/svg">
<path d="M3.5 3L21.5 21" stroke="#E1DEF5" stroke-opacity="0.9" stroke-width="1.5" stroke-linecap="round" stroke-linejoin="round"/>
<path d="M7.5 2.25C7.08579 2.25 6.75 2.58579 6.75 3C6.75 3.41421 7.08579 3.75 7.5 3.75V2.25ZM14.5 3L15.0303 2.46967C14.8897 2.32902 14.6989 2.25 14.5 2.25V3ZM19.5 8H20.25C20.25 7.80109 20.171 7.61032 20.0303 7.46967L19.5 8ZM18.75 15C18.75 15.4142 19.0858 15.75 19.5 15.75C19.9142 15.75 20.25 15.4142 20.25 15H18.75ZM20.25 19C20.25 18.5858 19.9142 18.25 19.5 18.25C19.0858 18.25 18.75 18.5858 18.75 19H20.25ZM6.25 5C6.25 4.58579 5.91421 4.25 5.5 4.25C5.08579 4.25 4.75 4.58579 4.75 5H6.25ZM7.5 3.75H14.5V2.25H7.5V3.75ZM13.9697 3.53033L18.9697 8.53033L20.0303 7.46967L15.0303 2.46967L13.9697 3.53033ZM18.75 8V15H20.25V8H18.75ZM18.75 19C18.75 19.6904 18.1904 20.25 17.5 20.25V21.75C19.0188 21.75 20.25 20.5188 20.25 19H18.75ZM17.5 20.25H7.5V21.75H17.5V20.25ZM7.5 20.25C6.80964 20.25 6.25 19.6904 6.25 19H4.75C4.75 20.5188 5.98122 21.75 7.5 21.75V20.25ZM6.25 19V5H4.75V19H6.25Z" fill="#E1DEF5" fill-opacity="0.9"/>
</svg>
