<svg width="25" height="24" viewBox="0 0 25 24" fill="none" xmlns="http://www.w3.org/2000/svg">
<path d="M15.5 3V7C15.5 7.55228 15.9477 8 16.5 8H20.5" stroke="#2F2B3D" stroke-opacity="0.9" stroke-width="1.5" stroke-linecap="round" stroke-linejoin="round"/>
<path fill-rule="evenodd" clip-rule="evenodd" d="M18.5 17H11.5C10.3954 17 9.5 16.1046 9.5 15V5C9.5 3.89543 10.3954 3 11.5 3H15.5L20.5 8V15C20.5 16.1046 19.6046 17 18.5 17Z" stroke="#2F2B3D" stroke-opacity="0.9" stroke-width="1.5" stroke-linecap="round" stroke-linejoin="round"/>
<path d="M16.5 17V19C16.5 20.1046 15.6046 21 14.5 21H7.5C6.39543 21 5.5 20.1046 5.5 19V9C5.5 7.89543 6.39543 7 7.5 7H9.5" stroke="#2F2B3D" stroke-opacity="0.9" stroke-width="1.5" stroke-linecap="round" stroke-linejoin="round"/>
</svg>
