<svg width="25" height="24" viewBox="0 0 25 24" fill="none" xmlns="http://www.w3.org/2000/svg">
<path d="M14.5 3V7C14.5 7.55228 14.9477 8 15.5 8H19.5" stroke="#2F2B3D" stroke-opacity="0.9" stroke-width="1.5" stroke-linecap="round" stroke-linejoin="round"/>
<path d="M4.75 13C4.75 13.4142 5.08579 13.75 5.5 13.75C5.91421 13.75 6.25 13.4142 6.25 13H4.75ZM14.5 3L15.0303 2.46967C14.8897 2.32902 14.6989 2.25 14.5 2.25V3ZM19.5 8H20.25C20.25 7.80109 20.171 7.61032 20.0303 7.46967L19.5 8ZM12 20.25C11.5858 20.25 11.25 20.5858 11.25 21C11.25 21.4142 11.5858 21.75 12 21.75V20.25ZM2.5 18.25C2.08579 18.25 1.75 18.5858 1.75 19C1.75 19.4142 2.08579 19.75 2.5 19.75V18.25ZM9.5 19.75C9.91421 19.75 10.25 19.4142 10.25 19C10.25 18.5858 9.91421 18.25 9.5 18.25V19.75ZM7.03033 15.4697C6.73744 15.1768 6.26256 15.1768 5.96967 15.4697C5.67678 15.7626 5.67678 16.2374 5.96967 16.5303L7.03033 15.4697ZM9.5 19L10.0303 19.5303C10.3232 19.2374 10.3232 18.7626 10.0303 18.4697L9.5 19ZM5.96967 21.4697C5.67678 21.7626 5.67678 22.2374 5.96967 22.5303C6.26256 22.8232 6.73744 22.8232 7.03033 22.5303L5.96967 21.4697ZM6.25 13V5H4.75V13H6.25ZM6.25 5C6.25 4.30964 6.80964 3.75 7.5 3.75V2.25C5.98122 2.25 4.75 3.48122 4.75 5H6.25ZM7.5 3.75H14.5V2.25H7.5V3.75ZM13.9697 3.53033L18.9697 8.53033L20.0303 7.46967L15.0303 2.46967L13.9697 3.53033ZM18.75 8V19H20.25V8H18.75ZM18.75 19C18.75 19.6904 18.1904 20.25 17.5 20.25V21.75C19.0188 21.75 20.25 20.5188 20.25 19H18.75ZM17.5 20.25H12V21.75H17.5V20.25ZM2.5 19.75H9.5V18.25H2.5V19.75ZM5.96967 16.5303L8.96967 19.5303L10.0303 18.4697L7.03033 15.4697L5.96967 16.5303ZM8.96967 18.4697L5.96967 21.4697L7.03033 22.5303L10.0303 19.5303L8.96967 18.4697Z" fill="#2F2B3D" fill-opacity="0.9"/>
</svg>
