<svg width="25" height="24" viewBox="0 0 25 24" fill="none" xmlns="http://www.w3.org/2000/svg">
<path d="M14.5 3V7C14.5 7.55228 14.9477 8 15.5 8H19.5" stroke="#2F2B3D" stroke-opacity="0.9" stroke-width="1.5" stroke-linecap="round" stroke-linejoin="round"/>
<path fill-rule="evenodd" clip-rule="evenodd" d="M17.5 21H7.5C6.39543 21 5.5 20.1046 5.5 19V5C5.5 3.89543 6.39543 3 7.5 3H14.5L19.5 8V19C19.5 20.1046 18.6046 21 17.5 21Z" stroke="#2F2B3D" stroke-opacity="0.9" stroke-width="1.5" stroke-linecap="round" stroke-linejoin="round"/>
<path d="M9.5 12C9.5 12.2761 9.72386 12.5 10 12.5C10.2761 12.5 10.5 12.2761 10.5 12V11C10.5 10.7239 10.2761 10.5 10 10.5C9.72386 10.5 9.5 10.7239 9.5 11V12C9.5 14.7614 11.7386 17 14.5 17H15.5C15.7761 17 16 16.7761 16 16.5C16 16.2239 15.7761 16 15.5 16H14.5C14.2239 16 14 16.2239 14 16.5C14 16.7761 14.2239 17 14.5 17" stroke="#2F2B3D" stroke-opacity="0.9" stroke-width="1.5" stroke-linecap="round" stroke-linejoin="round"/>
</svg>
