<svg width="25" height="24" viewBox="0 0 25 24" fill="none" xmlns="http://www.w3.org/2000/svg">
<path d="M14.5 3V7C14.5 7.55228 14.9477 8 15.5 8H19.5" stroke="#6D6B77" stroke-width="1.5" stroke-linecap="round" stroke-linejoin="round"/>
<path d="M12 21.75C12.4142 21.75 12.75 21.4142 12.75 21C12.75 20.5858 12.4142 20.25 12 20.25V21.75ZM14.5 3L15.0303 2.46967C14.8897 2.32902 14.6989 2.25 14.5 2.25V3ZM19.5 8H20.25C20.25 7.80109 20.171 7.61032 20.0303 7.46967L19.5 8ZM18.75 13C18.75 13.4142 19.0858 13.75 19.5 13.75C19.9142 13.75 20.25 13.4142 20.25 13H18.75ZM14.5 18.25C14.0858 18.25 13.75 18.5858 13.75 19C13.75 19.4142 14.0858 19.75 14.5 19.75V18.25ZM21.5 19.75C21.9142 19.75 22.25 19.4142 22.25 19C22.25 18.5858 21.9142 18.25 21.5 18.25V19.75ZM19.0303 15.4697C18.7374 15.1768 18.2626 15.1768 17.9697 15.4697C17.6768 15.7626 17.6768 16.2374 17.9697 16.5303L19.0303 15.4697ZM21.5 19L22.0303 19.5303C22.3232 19.2374 22.3232 18.7626 22.0303 18.4697L21.5 19ZM17.9697 21.4697C17.6768 21.7626 17.6768 22.2374 17.9697 22.5303C18.2626 22.8232 18.7374 22.8232 19.0303 22.5303L17.9697 21.4697ZM12 20.25H7.5V21.75H12V20.25ZM7.5 20.25C6.80964 20.25 6.25 19.6904 6.25 19H4.75C4.75 20.5188 5.98122 21.75 7.5 21.75V20.25ZM6.25 19V5H4.75V19H6.25ZM6.25 5C6.25 4.30964 6.80964 3.75 7.5 3.75V2.25C5.98122 2.25 4.75 3.48122 4.75 5H6.25ZM7.5 3.75H14.5V2.25H7.5V3.75ZM13.9697 3.53033L18.9697 8.53033L20.0303 7.46967L15.0303 2.46967L13.9697 3.53033ZM18.75 8V13H20.25V8H18.75ZM14.5 19.75H21.5V18.25H14.5V19.75ZM17.9697 16.5303L20.9697 19.5303L22.0303 18.4697L19.0303 15.4697L17.9697 16.5303ZM20.9697 18.4697L17.9697 21.4697L19.0303 22.5303L22.0303 19.5303L20.9697 18.4697Z" fill="#6D6B77"/>
</svg>
