<svg width="25" height="24" viewBox="0 0 25 24" fill="none" xmlns="http://www.w3.org/2000/svg">
<path d="M14.5 3V7C14.5 7.55228 14.9477 8 15.5 8H19.5" stroke="#E1DEF5" stroke-opacity="0.4" stroke-width="1.5" stroke-linecap="round" stroke-linejoin="round"/>
<path fill-rule="evenodd" clip-rule="evenodd" d="M17.5 21H7.5C6.39543 21 5.5 20.1046 5.5 19V5C5.5 3.89543 6.39543 3 7.5 3H14.5L19.5 8V19C19.5 20.1046 18.6046 21 17.5 21Z" stroke="#E1DEF5" stroke-opacity="0.4" stroke-width="1.5" stroke-linecap="round" stroke-linejoin="round"/>
<path d="M12.5 14H9.5" stroke="#E1DEF5" stroke-opacity="0.4" stroke-width="1.5" stroke-linecap="round" stroke-linejoin="round"/>
<path d="M14.504 11.172C13.2608 10.7316 11.8757 11.1549 11.091 12.215C10.3063 13.2751 10.3061 14.7234 11.0904 15.7838C11.8747 16.8442 13.2596 17.268 14.503 16.828" stroke="#E1DEF5" stroke-opacity="0.4" stroke-width="1.5" stroke-linecap="round" stroke-linejoin="round"/>
</svg>
