<svg width="25" height="24" viewBox="0 0 25 24" fill="none" xmlns="http://www.w3.org/2000/svg">
<path d="M15.5 3V7C15.5 7.55228 15.9477 8 16.5 8H20.5" stroke="#2F2B3D" stroke-opacity="0.9" stroke-width="1.5" stroke-linecap="round" stroke-linejoin="round"/>
<path d="M17.5 17.75C17.9142 17.75 18.25 17.4142 18.25 17C18.25 16.5858 17.9142 16.25 17.5 16.25V17.75ZM10.25 9C10.25 8.58579 9.91421 8.25 9.5 8.25C9.08579 8.25 8.75 8.58579 8.75 9H10.25ZM8.75 5C8.75 5.41421 9.08579 5.75 9.5 5.75C9.91421 5.75 10.25 5.41421 10.25 5H8.75ZM15.5 3L16.0303 2.46967C15.8897 2.32902 15.6989 2.25 15.5 2.25V3ZM20.5 8H21.25C21.25 7.80109 21.171 7.61032 21.0303 7.46967L20.5 8ZM19.6401 15.5129C19.4688 15.89 19.6357 16.3346 20.0129 16.5059C20.39 16.6772 20.8346 16.5103 21.0059 16.1331L19.6401 15.5129ZM17.5 16.25H11.5V17.75H17.5V16.25ZM11.5 16.25C10.8096 16.25 10.25 15.6904 10.25 15H8.75C8.75 16.5188 9.98122 17.75 11.5 17.75V16.25ZM10.25 15V9H8.75V15H10.25ZM10.25 5C10.25 4.30964 10.8096 3.75 11.5 3.75V2.25C9.98122 2.25 8.75 3.48122 8.75 5H10.25ZM11.5 3.75H15.5V2.25H11.5V3.75ZM14.9697 3.53033L19.9697 8.53033L21.0303 7.46967L16.0303 2.46967L14.9697 3.53033ZM19.75 8V15H21.25V8H19.75ZM19.75 15C19.75 15.1855 19.7105 15.3579 19.6401 15.5129L21.0059 16.1331C21.1635 15.7861 21.25 15.4025 21.25 15H19.75Z" fill="#2F2B3D" fill-opacity="0.9"/>
<path d="M16.5 17V19C16.5 20.1046 15.6046 21 14.5 21H7.5C6.39543 21 5.5 20.1046 5.5 19V9C5.5 7.89543 6.39543 7 7.5 7" stroke="#2F2B3D" stroke-opacity="0.9" stroke-width="1.5" stroke-linecap="round" stroke-linejoin="round"/>
<path d="M3.5 3L21.5 21" stroke="#2F2B3D" stroke-opacity="0.9" stroke-width="1.5" stroke-linecap="round" stroke-linejoin="round"/>
</svg>
