<svg width="25" height="24" viewBox="0 0 25 24" fill="none" xmlns="http://www.w3.org/2000/svg">
<rect x="3.5" y="16" width="3" height="5" rx="1" stroke="#E1DEF5" stroke-opacity="0.7" stroke-width="1.5" stroke-linecap="round" stroke-linejoin="round"/>
<path fill-rule="evenodd" clip-rule="evenodd" d="M6.5 20C6.5 20.5523 6.94772 21 7.5 21H11.256C11.6978 21 12.0872 20.7102 12.214 20.287L13.414 17.287C13.504 16.984 13.547 16.657 13.358 16.403C13.17 16.149 12.816 16 12.5 16H10.5V13.533C10.4998 13.0485 10.1825 12.6211 9.71872 12.4807C9.25496 12.3403 8.75395 12.5199 8.485 12.923L6.5 16V20H6.5Z" stroke="#E1DEF5" stroke-opacity="0.7" stroke-width="1.5" stroke-linecap="round" stroke-linejoin="round"/>
<path d="M14.5 3V7C14.5 7.55228 14.9477 8 15.5 8H19.5" stroke="#E1DEF5" stroke-opacity="0.7" stroke-width="1.5" stroke-linecap="round" stroke-linejoin="round"/>
<path d="M5.5 12.1V5C5.5 3.89543 6.39543 3 7.5 3H14.5L19.5 8V19C19.5 20.1046 18.6046 21 17.5 21H15.2" stroke="#E1DEF5" stroke-opacity="0.7" stroke-width="1.5" stroke-linecap="round" stroke-linejoin="round"/>
</svg>
