<svg width="25" height="24" viewBox="0 0 25 24" fill="none" xmlns="http://www.w3.org/2000/svg">
<rect x="3.5" y="14" width="3" height="5" rx="1" stroke="#E1DEF5" stroke-opacity="0.9" stroke-width="1.5" stroke-linecap="round" stroke-linejoin="round"/>
<path fill-rule="evenodd" clip-rule="evenodd" d="M6.5 15C6.5 14.4477 6.94772 14 7.5 14H11.256C11.6978 14 12.0872 14.2898 12.214 14.713L13.414 17.713C13.504 18.016 13.547 18.343 13.358 18.597C13.17 18.851 12.816 19 12.5 19H10.5V21.467C10.4998 21.9515 10.1825 22.3789 9.71872 22.5193C9.25496 22.6597 8.75395 22.4801 8.485 22.077L6.5 19V15H6.5Z" stroke="#E1DEF5" stroke-opacity="0.9" stroke-width="1.5" stroke-linecap="round" stroke-linejoin="round"/>
<path d="M14.5 3V7C14.5 7.55228 14.9477 8 15.5 8H19.5" stroke="#E1DEF5" stroke-opacity="0.9" stroke-width="1.5" stroke-linecap="round" stroke-linejoin="round"/>
<path d="M5.5 11V5C5.5 3.89543 6.39543 3 7.5 3H14.5L19.5 8V19C19.5 20.1046 18.6046 21 17.5 21H15" stroke="#E1DEF5" stroke-opacity="0.9" stroke-width="1.5" stroke-linecap="round" stroke-linejoin="round"/>
</svg>
