<svg width="26" height="26" viewBox="0 0 26 26" fill="none" xmlns="http://www.w3.org/2000/svg">
<g id="icon">
<path id="Path" d="M15.167 3.25V7.58333C15.167 8.18164 15.652 8.66667 16.2503 8.66667H20.5837" stroke="#E1DEF5" stroke-opacity="0.9" stroke-width="1.5" stroke-linecap="round" stroke-linejoin="round"/>
<path id="Path_2" fill-rule="evenodd" clip-rule="evenodd" d="M18.417 22.75H7.58366C6.38704 22.75 5.41699 21.78 5.41699 20.5833V5.41667C5.41699 4.22005 6.38704 3.25 7.58366 3.25H15.167L20.5837 8.66667V20.5833C20.5837 21.78 19.6136 22.75 18.417 22.75Z" stroke="#E1DEF5" stroke-opacity="0.9" stroke-width="1.5" stroke-linecap="round" stroke-linejoin="round"/>
<path id="Path_3" d="M15.1663 11.9167H12.458C11.5605 11.9167 10.833 12.6442 10.833 13.5417C10.833 14.4391 11.5605 15.1667 12.458 15.1667H13.5413C14.4388 15.1667 15.1663 15.8942 15.1663 16.7917C15.1663 17.6891 14.4388 18.4167 13.5413 18.4167H10.833" stroke="#E1DEF5" stroke-opacity="0.9" stroke-width="1.5" stroke-linecap="round" stroke-linejoin="round"/>
<path id="Shape" d="M13.7497 18.4166C13.7497 18.0024 13.4139 17.6666 12.9997 17.6666C12.5855 17.6666 12.2497 18.0024 12.2497 18.4166H13.7497ZM12.2497 19.5C12.2497 19.9142 12.5855 20.25 12.9997 20.25C13.4139 20.25 13.7497 19.9142 13.7497 19.5H12.2497ZM13.7497 10.8333C13.7497 10.4191 13.4139 10.0833 12.9997 10.0833C12.5855 10.0833 12.2497 10.4191 12.2497 10.8333H13.7497ZM12.2497 11.9166C12.2497 12.3309 12.5855 12.6666 12.9997 12.6666C13.4139 12.6666 13.7497 12.3309 13.7497 11.9166H12.2497ZM12.2497 18.4166V19.5H13.7497V18.4166H12.2497ZM12.2497 10.8333V11.9166H13.7497V10.8333H12.2497Z" fill="#E1DEF5" fill-opacity="0.9"/>
</g>
</svg>
