<svg width="25" height="24" viewBox="0 0 25 24" fill="none" xmlns="http://www.w3.org/2000/svg">
<circle cx="17.5" cy="17" r="4" stroke="#E1DEF5" stroke-opacity="0.7" stroke-width="1.5" stroke-linecap="round" stroke-linejoin="round"/>
<path d="M17.5 13V17H21.5" stroke="#E1DEF5" stroke-opacity="0.7" stroke-width="1.5" stroke-linecap="round" stroke-linejoin="round"/>
<path d="M12.5 3V7C12.5 7.55228 12.9477 8 13.5 8H17.5" stroke="#E1DEF5" stroke-opacity="0.7" stroke-width="1.5" stroke-linecap="round" stroke-linejoin="round"/>
<path d="M12 21.75C12.4142 21.75 12.75 21.4142 12.75 21C12.75 20.5858 12.4142 20.25 12 20.25V21.75ZM12.5 3L13.0303 2.46967C12.8897 2.32902 12.6989 2.25 12.5 2.25V3ZM17.5 8H18.25C18.25 7.80109 18.171 7.61032 18.0303 7.46967L17.5 8ZM16.75 10C16.75 10.4142 17.0858 10.75 17.5 10.75C17.9142 10.75 18.25 10.4142 18.25 10H16.75ZM18.25 13C18.25 12.5858 17.9142 12.25 17.5 12.25C17.0858 12.25 16.75 12.5858 16.75 13H18.25ZM16.75 17C16.75 17.4142 17.0858 17.75 17.5 17.75C17.9142 17.75 18.25 17.4142 18.25 17H16.75ZM12 20.25H5.5V21.75H12V20.25ZM5.5 20.25C4.80964 20.25 4.25 19.6904 4.25 19H2.75C2.75 20.5188 3.98122 21.75 5.5 21.75V20.25ZM4.25 19V5H2.75V19H4.25ZM4.25 5C4.25 4.30964 4.80964 3.75 5.5 3.75V2.25C3.98122 2.25 2.75 3.48122 2.75 5H4.25ZM5.5 3.75H12.5V2.25H5.5V3.75ZM11.9697 3.53033L16.9697 8.53033L18.0303 7.46967L13.0303 2.46967L11.9697 3.53033ZM16.75 8V10H18.25V8H16.75ZM16.75 13V17H18.25V13H16.75Z" fill="#E1DEF5" fill-opacity="0.7"/>
</svg>
