<svg width="25" height="24" viewBox="0 0 25 24" fill="none" xmlns="http://www.w3.org/2000/svg">
<rect x="3.5" y="16" width="3" height="5" rx="1" stroke="#2F2B3D" stroke-opacity="0.9" stroke-width="1.5" stroke-linecap="round" stroke-linejoin="round"/>
<path fill-rule="evenodd" clip-rule="evenodd" d="M6.5 20.0001C6.5 20.5524 6.94772 21.0001 7.5 21.0001H11.256C11.6978 21.0002 12.0872 20.7103 12.214 20.2871L13.414 17.2871C13.504 16.9841 13.547 16.6571 13.358 16.4031C13.17 16.1491 12.816 16.0001 12.5 16.0001H10.5V13.5331C10.4998 13.0486 10.1825 12.6213 9.71872 12.4809C9.25496 12.3405 8.75395 12.5201 8.485 12.9231L6.5 16.0001V20.0001H6.5Z" stroke="#2F2B3D" stroke-opacity="0.9" stroke-width="1.5" stroke-linecap="round" stroke-linejoin="round"/>
<path d="M14.5 3V7C14.5 7.55228 14.9477 8 15.5 8H19.5" stroke="#2F2B3D" stroke-opacity="0.9" stroke-width="1.5" stroke-linecap="round" stroke-linejoin="round"/>
<path d="M5.5 12.1V5C5.5 3.89543 6.39543 3 7.5 3H14.5L19.5 8V19C19.5 20.1046 18.6046 21 17.5 21H15.2" stroke="#2F2B3D" stroke-opacity="0.9" stroke-width="1.5" stroke-linecap="round" stroke-linejoin="round"/>
</svg>
