<svg width="25" height="24" viewBox="0 0 25 24" fill="none" xmlns="http://www.w3.org/2000/svg">
<path d="M3.5 3L21.5 21" stroke="#E1DEF5" stroke-opacity="0.4" stroke-width="1.5" stroke-linecap="round" stroke-linejoin="round"/>
<path d="M9.5 4.25C9.08579 4.25 8.75 4.58579 8.75 5C8.75 5.41421 9.08579 5.75 9.5 5.75V4.25ZM19 5L19.2482 4.29226C19.1684 4.26429 19.0845 4.25 19 4.25V5ZM19.5 6.5L20.055 7.0045C20.0798 6.97714 20.1026 6.94798 20.1232 6.91726L19.5 6.5ZM14.896 10.4495C14.6174 10.756 14.64 11.2303 14.9465 11.509C15.253 11.7876 15.7273 11.765 16.006 11.4585L14.896 10.4495ZM15.25 14C15.25 13.5858 14.9142 13.25 14.5 13.25C14.0858 13.25 13.75 13.5858 13.75 14H15.25ZM14.5 19L14.05 19.6C14.2773 19.7705 14.5813 19.7979 14.8354 19.6708C15.0895 19.5438 15.25 19.2841 15.25 19H14.5ZM10.5 16H9.75C9.75 16.2361 9.86115 16.4584 10.05 16.6L10.5 16ZM10.5 12H11.25C11.25 11.8134 11.1805 11.6336 11.055 11.4955L10.5 12ZM5.5 6.50002L4.87696 6.91753C4.89749 6.94817 4.92025 6.97724 4.94505 7.00453L5.5 6.50002ZM6.16805 5.75351C6.48257 5.48397 6.51903 5.0105 6.24949 4.69598C5.97995 4.38146 5.50648 4.345 5.19196 4.61453L6.16805 5.75351ZM9.5 5.75H19V4.25H9.5V5.75ZM18.7518 5.70774C18.8248 5.73333 18.8818 5.79124 18.9062 5.86459L20.3292 5.39025C20.1581 4.87677 19.759 4.47139 19.2482 4.29226L18.7518 5.70774ZM18.9062 5.86459C18.9307 5.93795 18.9198 6.01849 18.8768 6.08274L20.1232 6.91726C20.4243 6.46751 20.5004 5.90373 20.3292 5.39025L18.9062 5.86459ZM18.945 5.9955L14.896 10.4495L16.006 11.4585L20.055 7.0045L18.945 5.9955ZM13.75 14V19H15.25V14H13.75ZM14.95 18.4L10.95 15.4L10.05 16.6L14.05 19.6L14.95 18.4ZM11.25 16V12H9.75V16H11.25ZM11.055 11.4955L6.05496 5.99552L4.94505 7.00453L9.94505 12.5045L11.055 11.4955ZM6.12305 6.08251C6.05253 5.97728 6.07186 5.83594 6.16805 5.75351L5.19196 4.61453C4.51867 5.19154 4.38334 6.18093 4.87696 6.91753L6.12305 6.08251Z" fill="#E1DEF5" fill-opacity="0.4"/>
</svg>
