<svg width="25" height="24" viewBox="0 0 25 24" fill="none" xmlns="http://www.w3.org/2000/svg">
<path d="M19.4 7C20.3045 8.50118 20.6909 10.2578 20.5 12V13C20.4989 14.0529 20.7748 15.0875 21.3 16" stroke="#ACAAB1" stroke-width="1.5" stroke-linecap="round" stroke-linejoin="round"/>
<path d="M8.5 11C8.5 8.79086 10.2909 7 12.5 7C14.7091 7 16.5 8.79086 16.5 11V12C16.5 14.1637 17.2018 16.269 18.5 18" stroke="#ACAAB1" stroke-width="1.5" stroke-linecap="round" stroke-linejoin="round"/>
<path d="M12.5 11V13C12.4968 15.8594 13.3693 18.6512 15 21" stroke="#ACAAB1" stroke-width="1.5" stroke-linecap="round" stroke-linejoin="round"/>
<path d="M8.5 15C8.7447 17.0898 9.35393 19.1206 10.3 21" stroke="#ACAAB1" stroke-width="1.5" stroke-linecap="round" stroke-linejoin="round"/>
<path d="M5.40006 19C4.72531 16.7303 4.4214 14.3666 4.50006 12V11C4.49225 8.13801 6.01396 5.48985 8.4906 4.05546C10.9672 2.62107 14.0215 2.619 16.5001 4.05002" stroke="#ACAAB1" stroke-width="1.5" stroke-linecap="round" stroke-linejoin="round"/>
</svg>
