<svg width="25" height="24" viewBox="0 0 25 24" fill="none" xmlns="http://www.w3.org/2000/svg">
<circle cx="5.5" cy="17" r="2" stroke="#E1DEF5" stroke-opacity="0.7" stroke-width="1.5" stroke-linecap="round" stroke-linejoin="round"/>
<circle cx="17.5" cy="17" r="2" stroke="#E1DEF5" stroke-opacity="0.7" stroke-width="1.5" stroke-linecap="round" stroke-linejoin="round"/>
<path d="M7.5 17.25C7.08579 17.25 6.75 17.5858 6.75 18C6.75 18.4142 7.08579 18.75 7.5 18.75V17.25ZM15.5 18.75C15.9142 18.75 16.25 18.4142 16.25 18C16.25 17.5858 15.9142 17.25 15.5 17.25V18.75ZM19.5 17.25C19.0858 17.25 18.75 17.5858 18.75 18C18.75 18.4142 19.0858 18.75 19.5 18.75V17.25ZM21.5 18V18.75C21.9142 18.75 22.25 18.4142 22.25 18H21.5ZM15.5 7V6.25C15.2629 6.25 15.0398 6.36209 14.8983 6.5523C14.7568 6.74251 14.7135 6.98843 14.7816 7.21551L15.5 7ZM17 12L16.2816 12.2155C16.3768 12.5327 16.6688 12.75 17 12.75V12ZM21.5 12.75C21.9142 12.75 22.25 12.4142 22.25 12C22.25 11.5858 21.9142 11.25 21.5 11.25V12.75ZM7.5 18.75H15.5V17.25H7.5V18.75ZM19.5 18.75H21.5V17.25H19.5V18.75ZM22.25 18V12H20.75V18H22.25ZM22.25 12C22.25 8.82436 19.6756 6.25 16.5 6.25V7.75C18.8472 7.75 20.75 9.65279 20.75 12H22.25ZM16.5 6.25H15.5V7.75H16.5V6.25ZM14.7816 7.21551L16.2816 12.2155L17.7184 11.7845L16.2184 6.78449L14.7816 7.21551ZM17 12.75H21.5V11.25H17V12.75Z" fill="#E1DEF5" fill-opacity="0.7"/>
<path d="M12.5 18V7H15.5" stroke="#E1DEF5" stroke-opacity="0.7" stroke-width="1.5" stroke-linecap="round" stroke-linejoin="round"/>
<path d="M3.5 17V12H12.5" stroke="#E1DEF5" stroke-opacity="0.7" stroke-width="1.5" stroke-linecap="round" stroke-linejoin="round"/>
<path d="M3.5 9L21.5 3" stroke="#E1DEF5" stroke-opacity="0.7" stroke-width="1.5" stroke-linecap="round" stroke-linejoin="round"/>
<path d="M6.5 12V8" stroke="#E1DEF5" stroke-opacity="0.7" stroke-width="1.5" stroke-linecap="round" stroke-linejoin="round"/>
</svg>
