<svg width="25" height="24" viewBox="0 0 25 24" fill="none" xmlns="http://www.w3.org/2000/svg">
<circle cx="12.5" cy="12" r="2" stroke="#E1DEF5" stroke-opacity="0.7" stroke-width="1.5" stroke-linecap="round" stroke-linejoin="round"/>
<path d="M3.5 11.25C3.08579 11.25 2.75 11.5858 2.75 12C2.75 12.4142 3.08579 12.75 3.5 12.75V11.25ZM7.5 12.75C7.91421 12.75 8.25 12.4142 8.25 12C8.25 11.5858 7.91421 11.25 7.5 11.25V12.75ZM13.25 3C13.25 2.58579 12.9142 2.25 12.5 2.25C12.0858 2.25 11.75 2.58579 11.75 3H13.25ZM11.75 7C11.75 7.41421 12.0858 7.75 12.5 7.75C12.9142 7.75 13.25 7.41421 13.25 7H11.75ZM17.5 11.25C17.0858 11.25 16.75 11.5858 16.75 12C16.75 12.4142 17.0858 12.75 17.5 12.75V11.25ZM21.5 12.75C21.9142 12.75 22.25 12.4142 22.25 12C22.25 11.5858 21.9142 11.25 21.5 11.25V12.75ZM13.25 17C13.25 16.5858 12.9142 16.25 12.5 16.25C12.0858 16.25 11.75 16.5858 11.75 17H13.25ZM11.75 21C11.75 21.4142 12.0858 21.75 12.5 21.75C12.9142 21.75 13.25 21.4142 13.25 21H11.75ZM8.53033 6.96967C8.23744 6.67678 7.76256 6.67678 7.46967 6.96967C7.17678 7.26256 7.17678 7.73744 7.46967 8.03033L8.53033 6.96967ZM8.46967 9.03033C8.76256 9.32322 9.23744 9.32322 9.53033 9.03033C9.82322 8.73744 9.82322 8.26256 9.53033 7.96967L8.46967 9.03033ZM17.5303 8.03033C17.8232 7.73744 17.8232 7.26256 17.5303 6.96967C17.2374 6.67678 16.7626 6.67678 16.4697 6.96967L17.5303 8.03033ZM15.4697 7.96967C15.1768 8.26256 15.1768 8.73744 15.4697 9.03033C15.7626 9.32322 16.2374 9.32322 16.5303 9.03033L15.4697 7.96967ZM16.5303 14.9697C16.2374 14.6768 15.7626 14.6768 15.4697 14.9697C15.1768 15.2626 15.1768 15.7374 15.4697 16.0303L16.5303 14.9697ZM16.4697 17.0303C16.7626 17.3232 17.2374 17.3232 17.5303 17.0303C17.8232 16.7374 17.8232 16.2626 17.5303 15.9697L16.4697 17.0303ZM9.53033 16.0303C9.82322 15.7374 9.82322 15.2626 9.53033 14.9697C9.23744 14.6768 8.76256 14.6768 8.46967 14.9697L9.53033 16.0303ZM7.46967 15.9697C7.17678 16.2626 7.17678 16.7374 7.46967 17.0303C7.76256 17.3232 8.23744 17.3232 8.53033 17.0303L7.46967 15.9697ZM3.5 12.75H7.5V11.25H3.5V12.75ZM11.75 3V7H13.25V3H11.75ZM17.5 12.75H21.5V11.25H17.5V12.75ZM11.75 17V21H13.25V17H11.75ZM7.46967 8.03033L8.46967 9.03033L9.53033 7.96967L8.53033 6.96967L7.46967 8.03033ZM16.4697 6.96967L15.4697 7.96967L16.5303 9.03033L17.5303 8.03033L16.4697 6.96967ZM15.4697 16.0303L16.4697 17.0303L17.5303 15.9697L16.5303 14.9697L15.4697 16.0303ZM8.46967 14.9697L7.46967 15.9697L8.53033 17.0303L9.53033 16.0303L8.46967 14.9697Z" fill="#E1DEF5" fill-opacity="0.7"/>
</svg>
