<svg width="25" height="24" viewBox="0 0 25 24" fill="none" xmlns="http://www.w3.org/2000/svg">
<circle cx="12.5" cy="12" r="3" stroke="#E1DEF5" stroke-opacity="0.9" stroke-width="1.5" stroke-linecap="round" stroke-linejoin="round"/>
<path fill-rule="evenodd" clip-rule="evenodd" d="M12.5 2C14.1568 2 15.5 3.34315 15.5 5C15.5 5.562 15.241 6.442 14.724 7.64L14 9L15.76 7.107C16.259 6.507 16.682 6.105 17.03 5.902C17.7146 5.50448 18.5297 5.39696 19.294 5.60334C20.0583 5.80972 20.7085 6.3129 21.1 7.001C21.9232 8.4346 21.4367 10.2639 20.01 11.099C19.636 11.316 19.02 11.495 18.164 11.634L15.5 12L17.9 12.326C18.895 12.471 19.598 12.663 20.01 12.902C21.4367 13.7371 21.9232 15.5664 21.1 17C20.7083 17.6879 20.0581 18.1909 19.2938 18.3971C18.5295 18.6033 17.7145 18.4956 17.03 18.098C16.682 17.896 16.259 17.494 15.76 16.893L14 15L14.724 16.36C15.24 17.559 15.5 18.439 15.5 19C15.5 20.6569 14.1568 22 12.5 22C10.8431 22 9.49998 20.6569 9.49998 19C9.49998 18.438 9.75898 17.558 10.276 16.36L11 15L9.23998 16.893C8.74098 17.494 8.31798 17.896 7.96998 18.098C7.28546 18.4956 6.47047 18.6033 5.70618 18.3971C4.94189 18.1909 4.29164 17.6879 3.89998 17C3.07671 15.5664 3.56326 13.7371 4.98998 12.902C5.36398 12.684 5.97998 12.506 6.83598 12.366L9.49998 12L7.09998 11.675C6.10498 11.53 5.40198 11.338 4.98998 11.099C3.56266 10.2638 3.07603 8.43383 3.89998 7C4.29147 6.3119 4.94165 5.80872 5.70595 5.60234C6.47026 5.39596 7.28534 5.50348 7.96998 5.901C8.31798 6.104 8.74098 6.505 9.23998 7.106L11 9C9.99998 6.708 9.49998 5.375 9.49998 5C9.49998 3.34315 10.8431 2 12.5 2V2Z" stroke="#E1DEF5" stroke-opacity="0.9" stroke-width="1.5" stroke-linecap="round" stroke-linejoin="round"/>
</svg>
