<svg width="25" height="24" viewBox="0 0 25 24" fill="none" xmlns="http://www.w3.org/2000/svg">
<path d="M3.5 3L21.5 21" stroke="#E1DEF5" stroke-opacity="0.7" stroke-width="1.5" stroke-linecap="round" stroke-linejoin="round"/>
<path d="M19.5 19.75C19.9142 19.75 20.25 19.4142 20.25 19C20.25 18.5857 19.9142 18.25 19.5 18.25V19.75ZM3.5 5.99996L4.25 5.99996L4.25 5.99979L3.5 5.99996ZM4.9825 4.86166C5.35955 4.69018 5.52619 4.2455 5.35471 3.86846C5.18322 3.49141 4.73855 3.32476 4.3615 3.49625L4.9825 4.86166ZM8.5 3.25C8.08579 3.25 7.75 3.58579 7.75 4C7.75 4.41421 8.08579 4.75 8.5 4.75V3.25ZM9.5 4L10.0303 3.46967C9.88968 3.32902 9.69891 3.25 9.5 3.25V4ZM12.5 7L11.9697 7.53033C12.1103 7.67098 12.3011 7.75 12.5 7.75V7ZM20.75 17C20.75 17.4142 21.0858 17.75 21.5 17.75C21.9142 17.75 22.25 17.4142 22.25 17H20.75ZM19.5 18.25H5.5V19.75H19.5V18.25ZM5.5 18.25C4.80964 18.25 4.25 17.6903 4.25 17H2.75C2.75 18.5187 3.98122 19.75 5.5 19.75V18.25ZM4.25 17V5.99996H2.75V17H4.25ZM4.25 5.99979C4.24989 5.50961 4.5363 5.0646 4.9825 4.86166L4.3615 3.49625C3.37986 3.94271 2.74976 4.92172 2.75 6.00012L4.25 5.99979ZM8.5 4.75H9.5V3.25H8.5V4.75ZM8.96967 4.53033L11.9697 7.53033L13.0303 6.46967L10.0303 3.46967L8.96967 4.53033ZM12.5 7.75H19.5V6.25H12.5V7.75ZM19.5 7.75C20.1904 7.75 20.75 8.30964 20.75 9H22.25C22.25 7.48122 21.0188 6.25 19.5 6.25V7.75ZM20.75 9V17H22.25V9H20.75Z" fill="#E1DEF5" fill-opacity="0.7"/>
</svg>
