<svg width="25" height="24" viewBox="0 0 25 24" fill="none" xmlns="http://www.w3.org/2000/svg">
<path d="M5.5 4H9.5L12.5 7H19.5C20.6046 7 21.5 7.89543 21.5 9V17C21.5 18.1046 20.6046 19 19.5 19H5.5C4.39543 19 3.5 18.1046 3.5 17V6C3.5 4.89543 4.39543 4 5.5 4" stroke="#6D6B77" stroke-width="1.5" stroke-linecap="round" stroke-linejoin="round"/>
<path d="M11.0303 10.4697C10.7374 10.1768 10.2626 10.1768 9.96967 10.4697C9.67678 10.7626 9.67678 11.2374 9.96967 11.5303L11.0303 10.4697ZM13.9697 15.5303C14.2626 15.8232 14.7374 15.8232 15.0303 15.5303C15.3232 15.2374 15.3232 14.7626 15.0303 14.4697L13.9697 15.5303ZM15.0303 11.5303C15.3232 11.2374 15.3232 10.7626 15.0303 10.4697C14.7374 10.1768 14.2626 10.1768 13.9697 10.4697L15.0303 11.5303ZM9.96967 14.4697C9.67678 14.7626 9.67678 15.2374 9.96967 15.5303C10.2626 15.8232 10.7374 15.8232 11.0303 15.5303L9.96967 14.4697ZM9.96967 11.5303L13.9697 15.5303L15.0303 14.4697L11.0303 10.4697L9.96967 11.5303ZM13.9697 10.4697L9.96967 14.4697L11.0303 15.5303L15.0303 11.5303L13.9697 10.4697Z" fill="#6D6B77"/>
</svg>
