<svg width="25" height="24" viewBox="0 0 25 24" fill="none" xmlns="http://www.w3.org/2000/svg">
<path d="M12.5 3C10.8431 3 9.5 4.34315 9.5 6V18C9.5 19.6569 10.8431 21 12.5 21" stroke="#ACAAB1" stroke-width="1.5" stroke-linecap="round" stroke-linejoin="round"/>
<path d="M6.5 3C8.15685 3 9.5 4.34315 9.5 6V18C9.5 19.6569 8.15685 21 6.5 21" stroke="#ACAAB1" stroke-width="1.5" stroke-linecap="round" stroke-linejoin="round"/>
<path d="M13.5 7H20.5C21.0523 7 21.5 7.44772 21.5 8V16C21.5 16.5523 21.0523 17 20.5 17H13.5" stroke="#ACAAB1" stroke-width="1.5" stroke-linecap="round" stroke-linejoin="round"/>
<path d="M5.5 7H4.5C3.94772 7 3.5 7.44772 3.5 8V16C3.5 16.5523 3.94772 17 4.5 17H5.5" stroke="#ACAAB1" stroke-width="1.5" stroke-linecap="round" stroke-linejoin="round"/>
<path d="M17.4999 12H17.5099" stroke="#ACAAB1" stroke-width="1.5" stroke-linecap="round" stroke-linejoin="round"/>
<path d="M13.4999 12H13.5099" stroke="#ACAAB1" stroke-width="1.5" stroke-linecap="round" stroke-linejoin="round"/>
</svg>
