<svg width="25" height="24" viewBox="0 0 25 24" fill="none" xmlns="http://www.w3.org/2000/svg">
<circle cx="12.5" cy="12" r="9" stroke="#6D6B77" stroke-width="1.5" stroke-linecap="round" stroke-linejoin="round"/>
<path d="M14.367 9.75003C14.121 9.27003 13.659 8.98103 13.167 9.00003H11.833C11.097 9.00003 10.5 9.67003 10.5 10.5C10.5 11.327 11.097 11.999 11.833 11.999H13.167C13.903 11.999 14.5 12.67 14.5 13.499C14.5 14.327 13.903 14.998 13.167 14.998H11.833C11.341 15.017 10.879 14.728 10.633 14.248" stroke="#6D6B77" stroke-width="1.5" stroke-linecap="round" stroke-linejoin="round"/>
<path d="M12.5 7V9" stroke="#6D6B77" stroke-width="1.5" stroke-linecap="round" stroke-linejoin="round"/>
<path d="M12.5 15V17" stroke="#6D6B77" stroke-width="1.5" stroke-linecap="round" stroke-linejoin="round"/>
<path d="M6.5 6L8 7.5" stroke="#6D6B77" stroke-width="1.5" stroke-linecap="round" stroke-linejoin="round"/>
<path d="M17 16.5L18.5 18" stroke="#6D6B77" stroke-width="1.5" stroke-linecap="round" stroke-linejoin="round"/>
</svg>
