<svg width="25" height="24" viewBox="0 0 25 24" fill="none" xmlns="http://www.w3.org/2000/svg">
<path d="M13.5 10L20.883 17.418C21.706 18.238 21.706 19.566 20.883 20.385C20.0599 21.2037 18.7301 21.2037 17.907 20.385L10.5 13" stroke="#2F2B3D" stroke-opacity="0.9" stroke-width="1.5" stroke-linecap="round" stroke-linejoin="round"/>
<path d="M6.5 9L10.5 13" stroke="#2F2B3D" stroke-opacity="0.9" stroke-width="1.5" stroke-linecap="round" stroke-linejoin="round"/>
<path d="M13.5 10L9.5 6" stroke="#2F2B3D" stroke-opacity="0.9" stroke-width="1.5" stroke-linecap="round" stroke-linejoin="round"/>
<path d="M3.5 21H10.5" stroke="#2F2B3D" stroke-opacity="0.9" stroke-width="1.5" stroke-linecap="round" stroke-linejoin="round"/>
<path fill-rule="evenodd" clip-rule="evenodd" d="M7.29297 15.7928L3.70697 12.2068C3.31659 11.8163 3.31659 11.1833 3.70697 10.7928L5.99997 8.49985L6.49997 8.99985L9.49997 5.99985L8.99997 5.49985L11.293 3.20685C11.6835 2.81647 12.3165 2.81647 12.707 3.20685L16.293 6.79285C16.6834 7.18335 16.6834 7.81635 16.293 8.20685L14 10.4998L13.5 9.99985L10.5 12.9998L11 13.4998L8.70697 15.7928C8.31647 16.1832 7.68347 16.1832 7.29297 15.7928Z" stroke="#2F2B3D" stroke-opacity="0.9" stroke-width="1.5" stroke-linecap="round" stroke-linejoin="round"/>
</svg>
