<svg width="25" height="24" viewBox="0 0 25 24" fill="none" xmlns="http://www.w3.org/2000/svg">
<path d="M13.5 10L20.883 17.418C21.706 18.238 21.706 19.566 20.883 20.385C20.0599 21.2037 18.7301 21.2037 17.907 20.385L10.5 13" stroke="#E1DEF5" stroke-opacity="0.4" stroke-width="1.5" stroke-linecap="round" stroke-linejoin="round"/>
<path d="M6.5 9L10.5 13" stroke="#E1DEF5" stroke-opacity="0.4" stroke-width="1.5" stroke-linecap="round" stroke-linejoin="round"/>
<path d="M13.5 10L9.5 6" stroke="#E1DEF5" stroke-opacity="0.4" stroke-width="1.5" stroke-linecap="round" stroke-linejoin="round"/>
<path d="M3.5 21H10.5" stroke="#E1DEF5" stroke-opacity="0.4" stroke-width="1.5" stroke-linecap="round" stroke-linejoin="round"/>
<path fill-rule="evenodd" clip-rule="evenodd" d="M7.29297 15.793L3.70697 12.207C3.31659 11.8165 3.31659 11.1835 3.70697 10.793L5.99997 8.49997L6.49997 8.99997L9.49997 5.99997L8.99997 5.49997L11.293 3.20697C11.6835 2.81659 12.3165 2.81659 12.707 3.20697L16.293 6.79297C16.6834 7.18347 16.6834 7.81647 16.293 8.20697L14 10.5L13.5 9.99997L10.5 13L11 13.5L8.70697 15.793C8.31647 16.1834 7.68347 16.1834 7.29297 15.793Z" stroke="#E1DEF5" stroke-opacity="0.4" stroke-width="1.5" stroke-linecap="round" stroke-linejoin="round"/>
</svg>
