<svg width="25" height="24" viewBox="0 0 25 24" fill="none" xmlns="http://www.w3.org/2000/svg">
<path d="M6.78849 20.7628C6.6575 21.1558 6.86987 21.5805 7.26283 21.7115C7.65579 21.8425 8.08053 21.6301 8.21151 21.2372L6.78849 20.7628ZM12.2115 9.23717C12.3425 8.84421 12.1301 8.41947 11.7372 8.28849C11.3442 8.1575 10.9195 8.36987 10.7885 8.76283L12.2115 9.23717ZM14.2115 8.76278C14.0805 8.36983 13.6557 8.15749 13.2628 8.2885C12.8698 8.41952 12.6575 8.84427 12.7885 9.23722L14.2115 8.76278ZM14.2685 13.6762C14.3995 14.0692 14.8243 14.2815 15.2172 14.1505C15.6102 14.0195 15.8225 13.5947 15.6915 13.2018L14.2685 13.6762ZM16.6405 16.0489C16.5095 15.6559 16.0848 15.4435 15.6918 15.5745C15.2989 15.7054 15.0865 16.1302 15.2174 16.5231L16.6405 16.0489ZM16.7884 21.2371C16.9194 21.6301 17.3441 21.8425 17.7371 21.7115C18.13 21.5806 18.3424 21.1559 18.2115 20.7629L16.7884 21.2371ZM8.21151 21.2372L12.2115 9.23717L10.7885 8.76283L6.78849 20.7628L8.21151 21.2372ZM12.7885 9.23722L14.2685 13.6762L15.6915 13.2018L14.2115 8.76278L12.7885 9.23722ZM15.2174 16.5231L16.7884 21.2371L18.2115 20.7629L16.6405 16.0489L15.2174 16.5231Z" fill="#ACAAB1"/>
<circle cx="12.5" cy="7" r="2" stroke="#ACAAB1" stroke-width="1.5" stroke-linecap="round" stroke-linejoin="round"/>
<path d="M4.5 12C6.026 14.955 9.088 17 12.5 17C15.91 17 18.973 14.952 20.5 12" stroke="#ACAAB1" stroke-width="1.5" stroke-linecap="round" stroke-linejoin="round"/>
<path d="M12.5 5V3" stroke="#ACAAB1" stroke-width="1.5" stroke-linecap="round" stroke-linejoin="round"/>
</svg>
