<svg width="25" height="24" viewBox="0 0 25 24" fill="none" xmlns="http://www.w3.org/2000/svg">
<path d="M5.49997 11C5.49997 7.13401 8.63397 4 12.5 4C16.366 4 19.5 7.13401 19.5 11V18C19.597 18.7747 19.1779 19.5222 18.4664 19.8435C17.7549 20.1649 16.917 19.985 16.4 19.4C16.0873 18.9999 15.6078 18.7661 15.1 18.7661C14.5922 18.7661 14.1127 18.9999 13.8 19.4C13.4873 19.8001 13.0078 20.0339 12.5 20.0339C11.9922 20.0339 11.5127 19.8001 11.2 19.4C10.8873 18.9999 10.4078 18.7661 9.89997 18.7661C9.39218 18.7661 8.91268 18.9999 8.59997 19.4C8.08296 19.985 7.24507 20.1649 6.53353 19.8435C5.82199 19.5222 5.4029 18.7747 5.49997 18V11" stroke="#E1DEF5" stroke-opacity="0.7" stroke-width="1.5" stroke-linecap="round" stroke-linejoin="round"/>
<path d="M10.5 10H10.51" stroke="#E1DEF5" stroke-opacity="0.7" stroke-width="1.5" stroke-linecap="round" stroke-linejoin="round"/>
<path d="M14.5 10H14.51" stroke="#E1DEF5" stroke-opacity="0.7" stroke-width="1.5" stroke-linecap="round" stroke-linejoin="round"/>
<path d="M10.5 14C11.702 14.8369 13.298 14.8369 14.5 14" stroke="#E1DEF5" stroke-opacity="0.7" stroke-width="1.5" stroke-linecap="round" stroke-linejoin="round"/>
</svg>
