<svg width="25" height="24" viewBox="0 0 25 24" fill="none" xmlns="http://www.w3.org/2000/svg">
<rect x="3.5" y="8" width="18" height="4" rx="1" stroke="#ACAAB1" stroke-width="1.5" stroke-linecap="round" stroke-linejoin="round"/>
<path d="M12.5 8V21" stroke="#ACAAB1" stroke-width="1.5" stroke-linecap="round" stroke-linejoin="round"/>
<path d="M19.5 12V19C19.5 20.1046 18.6046 21 17.5 21H7.5C6.39543 21 5.5 20.1046 5.5 19V12" stroke="#ACAAB1" stroke-width="1.5" stroke-linecap="round" stroke-linejoin="round"/>
<path d="M8 7.99995C6.61929 7.99995 5.5 6.88066 5.5 5.49995C5.5 4.11924 6.61929 2.99995 8 2.99995C9.97423 2.96556 11.7597 4.94944 12.5 7.99995C13.2403 4.94944 15.0258 2.96556 17 2.99995C18.3807 2.99995 19.5 4.11924 19.5 5.49995C19.5 6.88066 18.3807 7.99995 17 7.99995" stroke="#ACAAB1" stroke-width="1.5" stroke-linecap="round" stroke-linejoin="round"/>
</svg>
