<svg width="24" height="24" viewBox="0 0 24 24" fill="none" xmlns="http://www.w3.org/2000/svg">
<g id="gift">
<rect id="Rectangle" x="3" y="8" width="18" height="4" rx="1" stroke="#28C76F" stroke-width="1.5" stroke-linecap="round" stroke-linejoin="round"/>
<path id="Path" d="M12 8V21" stroke="#28C76F" stroke-width="1.5" stroke-linecap="round" stroke-linejoin="round"/>
<path id="Path_2" d="M19 12V19C19 20.1046 18.1046 21 17 21H7C5.89543 21 5 20.1046 5 19V12" stroke="#28C76F" stroke-width="1.5" stroke-linecap="round" stroke-linejoin="round"/>
<path id="Path_3" d="M7.5 7.99995C6.11929 7.99995 5 6.88066 5 5.49995C5 4.11924 6.11929 2.99995 7.5 2.99995C9.47423 2.96556 11.2597 4.94944 12 7.99995C12.7403 4.94944 14.5258 2.96556 16.5 2.99995C17.8807 2.99995 19 4.11924 19 5.49995C19 6.88066 17.8807 7.99995 16.5 7.99995" stroke="#28C76F" stroke-width="1.5" stroke-linecap="round" stroke-linejoin="round"/>
</g>
</svg>
