<svg width="25" height="24" viewBox="0 0 25 24" fill="none" xmlns="http://www.w3.org/2000/svg">
<circle cx="6.5" cy="18" r="2" stroke="#ACAAB1" stroke-width="1.5" stroke-linecap="round" stroke-linejoin="round"/>
<circle cx="6.5" cy="6" r="2" stroke="#ACAAB1" stroke-width="1.5" stroke-linecap="round" stroke-linejoin="round"/>
<circle cx="18.5" cy="18" r="2" stroke="#ACAAB1" stroke-width="1.5" stroke-linecap="round" stroke-linejoin="round"/>
<path d="M6.5 8V16" stroke="#ACAAB1" stroke-width="1.5" stroke-linecap="round" stroke-linejoin="round"/>
<path d="M18.5 11V16" stroke="#ACAAB1" stroke-width="1.5" stroke-linecap="round" stroke-linejoin="round"/>
<path d="M17.0303 3.46967C16.7374 3.17678 16.2626 3.17678 15.9697 3.46967C15.6768 3.76256 15.6768 4.23744 15.9697 4.53033L17.0303 3.46967ZM19.9697 8.53033C20.2626 8.82322 20.7374 8.82322 21.0303 8.53033C21.3232 8.23744 21.3232 7.76256 21.0303 7.46967L19.9697 8.53033ZM21.0303 4.53033C21.3232 4.23744 21.3232 3.76256 21.0303 3.46967C20.7374 3.17678 20.2626 3.17678 19.9697 3.46967L21.0303 4.53033ZM15.9697 7.46967C15.6768 7.76256 15.6768 8.23744 15.9697 8.53033C16.2626 8.82322 16.7374 8.82322 17.0303 8.53033L15.9697 7.46967ZM15.9697 4.53033L19.9697 8.53033L21.0303 7.46967L17.0303 3.46967L15.9697 4.53033ZM19.9697 3.46967L15.9697 7.46967L17.0303 8.53033L21.0303 4.53033L19.9697 3.46967Z" fill="#ACAAB1"/>
</svg>
