<svg width="25" height="24" viewBox="0 0 25 24" fill="none" xmlns="http://www.w3.org/2000/svg">
<path d="M8.5 21H16.5" stroke="#E1DEF5" stroke-opacity="0.4" stroke-width="1.5" stroke-linecap="round" stroke-linejoin="round"/>
<path d="M12.5 15V21" stroke="#E1DEF5" stroke-opacity="0.4" stroke-width="1.5" stroke-linecap="round" stroke-linejoin="round"/>
<path d="M7.5 2.25C7.08579 2.25 6.75 2.58579 6.75 3C6.75 3.41421 7.08579 3.75 7.5 3.75V2.25ZM17.5 3L18.2425 2.89393C18.1897 2.52445 17.8732 2.25 17.5 2.25V3ZM18.5 10L19.25 9.99286C19.2497 9.95975 19.2471 9.92671 19.2425 9.89393L18.5 10ZM16.8721 12.4583C16.6061 12.7758 16.6478 13.2489 16.9653 13.5149C17.2828 13.7809 17.7559 13.7392 18.0219 13.4217L16.8721 12.4583ZM15.3131 15.2714C15.7032 15.1322 15.9066 14.703 15.7674 14.3129C15.6282 13.9228 15.199 13.7194 14.8089 13.8586L15.3131 15.2714ZM12.5 15L12.5047 14.25H12.5V15ZM6.5 10L5.75756 9.89379C5.75253 9.92897 5.75 9.96447 5.75 10H6.5ZM7.74244 6.61122C7.8011 6.20118 7.51625 5.82122 7.10621 5.76256C6.69618 5.7039 6.31622 5.98875 6.25756 6.39879L7.74244 6.61122ZM7.5 3.75H17.5V2.25H7.5V3.75ZM16.7575 3.10607L17.7575 10.1061L19.2425 9.89393L18.2425 2.89393L16.7575 3.10607ZM17.75 10.0071C17.7586 10.9027 17.4473 11.7719 16.8721 12.4583L18.0219 13.4217C18.8264 12.4614 19.2619 11.2456 19.25 9.99286L17.75 10.0071ZM14.8089 13.8586C14.0696 14.1225 13.2897 14.2549 12.5047 14.25L12.4953 15.75C13.4553 15.756 14.4089 15.594 15.3131 15.2714L14.8089 13.8586ZM12.5 14.25C9.43967 14.25 7.25 12.4537 7.25 10H5.75C5.75 13.5703 8.93233 15.75 12.5 15.75V14.25ZM7.24244 10.1062L7.74244 6.61122L6.25756 6.39879L5.75756 9.89379L7.24244 10.1062Z" fill="#E1DEF5" fill-opacity="0.4"/>
<path d="M3.5 3L21.5 21" stroke="#E1DEF5" stroke-opacity="0.4" stroke-width="1.5" stroke-linecap="round" stroke-linejoin="round"/>
</svg>
