<svg width="22" height="22" viewBox="0 0 22 22" fill="none" xmlns="http://www.w3.org/2000/svg">
<path d="M12.8333 9.16667H9.16667V12.8333H12.8333V9.16667ZM14.6667 9.16667V12.8333H17.4167V9.16667H14.6667ZM12.8333 17.4167V14.6667H9.16667V17.4167H12.8333ZM14.6667 17.4167H17.4167V14.6667H14.6667V17.4167ZM12.8333 4.58333H9.16667V7.33333H12.8333V4.58333ZM14.6667 4.58333V7.33333H17.4167V4.58333H14.6667ZM7.33333 9.16667H4.58333V12.8333H7.33333V9.16667ZM7.33333 17.4167V14.6667H4.58333V17.4167H7.33333ZM7.33333 4.58333H4.58333V7.33333H7.33333V4.58333ZM3.66667 2.75H18.3333C18.5764 2.75 18.8096 2.84658 18.9815 3.01849C19.1534 3.19039 19.25 3.42355 19.25 3.66667V18.3333C19.25 18.5764 19.1534 18.8096 18.9815 18.9815C18.8096 19.1534 18.5764 19.25 18.3333 19.25H3.66667C3.42355 19.25 3.19039 19.1534 3.01849 18.9815C2.84658 18.8096 2.75 18.5764 2.75 18.3333V3.66667C2.75 3.42355 2.84658 3.19039 3.01849 3.01849C3.19039 2.84658 3.42355 2.75 3.66667 2.75Z" fill="#E1DEF5" fill-opacity="0.9"/>
</svg>
