<svg width="25" height="24" viewBox="0 0 25 24" fill="none" xmlns="http://www.w3.org/2000/svg">
<path d="M17 15.75C17.4142 15.75 17.75 15.4142 17.75 15C17.75 14.5858 17.4142 14.25 17 14.25V15.75ZM11.75 19.5C11.75 19.9142 12.0858 20.25 12.5 20.25C12.9142 20.25 13.25 19.9142 13.25 19.5H11.75ZM17 11.75C17.4142 11.75 17.75 11.4142 17.75 11C17.75 10.5858 17.4142 10.25 17 10.25V11.75ZM11.75 15.5C11.75 15.9142 12.0858 16.25 12.5 16.25C12.9142 16.25 13.25 15.9142 13.25 15.5H11.75ZM17 7.75C17.4142 7.75 17.75 7.41421 17.75 7C17.75 6.58579 17.4142 6.25 17 6.25V7.75ZM11.75 11.5C11.75 11.9142 12.0858 12.25 12.5 12.25C12.9142 12.25 13.25 11.9142 13.25 11.5H11.75ZM8.5 14.25C8.08579 14.25 7.75 14.5858 7.75 15C7.75 15.4142 8.08579 15.75 8.5 15.75V14.25ZM11.75 19.5C11.75 19.9142 12.0858 20.25 12.5 20.25C12.9142 20.25 13.25 19.9142 13.25 19.5H11.75ZM8.5 10.25C8.08579 10.25 7.75 10.5858 7.75 11C7.75 11.4142 8.08579 11.75 8.5 11.75V10.25ZM11.75 15.5C11.75 15.9142 12.0858 16.25 12.5 16.25C12.9142 16.25 13.25 15.9142 13.25 15.5H11.75ZM8.5 6.25C8.08579 6.25 7.75 6.58579 7.75 7C7.75 7.41421 8.08579 7.75 8.5 7.75V6.25ZM11.75 11.5C11.75 11.9142 12.0858 12.25 12.5 12.25C12.9142 12.25 13.25 11.9142 13.25 11.5H11.75ZM13.25 4C13.25 3.58579 12.9142 3.25 12.5 3.25C12.0858 3.25 11.75 3.58579 11.75 4H13.25ZM11.75 10C11.75 10.4142 12.0858 10.75 12.5 10.75C12.9142 10.75 13.25 10.4142 13.25 10H11.75ZM17 14.25C14.1005 14.25 11.75 16.6005 11.75 19.5H13.25C13.25 17.4289 14.9289 15.75 17 15.75V14.25ZM17 10.25C14.1005 10.25 11.75 12.6005 11.75 15.5H13.25C13.25 13.4289 14.9289 11.75 17 11.75V10.25ZM17 6.25C14.1005 6.25 11.75 8.6005 11.75 11.5H13.25C13.25 9.42893 14.9289 7.75 17 7.75V6.25ZM8.5 15.75C10.2151 15.75 11.75 17.3436 11.75 19.5H13.25C13.25 16.6864 11.2049 14.25 8.5 14.25V15.75ZM8.5 11.75C10.2151 11.75 11.75 13.3436 11.75 15.5H13.25C13.25 12.6864 11.2049 10.25 8.5 10.25V11.75ZM8.5 7.75C10.2151 7.75 11.75 9.34359 11.75 11.5H13.25C13.25 8.68641 11.2049 6.25 8.5 6.25V7.75ZM11.75 4V10H13.25V4H11.75Z" fill="#E1DEF5" fill-opacity="0.4"/>
</svg>
