<svg width="25" height="24" viewBox="0 0 25 24" fill="none" xmlns="http://www.w3.org/2000/svg">
<path d="M8.5 13V10.5C8.5 9.67157 9.17157 9 10 9C10.8284 9 11.5 9.67157 11.5 10.5V12" stroke="#6D6B77" stroke-width="1.5" stroke-linecap="round" stroke-linejoin="round"/>
<path d="M11.5 11.5V10.5C11.5 9.67157 12.1716 9 13 9C13.8284 9 14.5 9.67157 14.5 10.5V12" stroke="#6D6B77" stroke-width="1.5" stroke-linecap="round" stroke-linejoin="round"/>
<path d="M17.5 12V6.5C17.5 5.67157 18.1716 5 19 5C19.8285 5 20.5 5.67157 20.5 6.5V16C20.5 19.3137 17.8137 22 14.5 22H12.5H12.708C10.6896 22.0003 8.8062 20.9858 7.69604 19.3C7.63045 19.2002 7.56512 19.1002 7.50004 19C7.18804 18.521 6.09304 16.612 4.21404 13.272C3.81574 12.5641 4.05336 11.6677 4.75004 11.25C5.48432 10.8094 6.42419 10.9248 7.03004 11.53L8.50004 13" stroke="#6D6B77" stroke-width="1.5" stroke-linecap="round" stroke-linejoin="round"/>
<path d="M14.5 10.5C14.5 9.67157 15.1716 9 16 9C16.8284 9 17.5 9.67157 17.5 10.5V12" stroke="#6D6B77" stroke-width="1.5" stroke-linecap="round" stroke-linejoin="round"/>
</svg>
