<svg width="25" height="24" viewBox="0 0 25 24" fill="none" xmlns="http://www.w3.org/2000/svg">
<path d="M8.5 13V4.5C8.5 3.67157 9.17157 3 10 3C10.8284 3 11.5 3.67157 11.5 4.5V12" stroke="#ACAAB1" stroke-width="1.5" stroke-linecap="round" stroke-linejoin="round"/>
<path d="M11.5 11.5V9.5C11.5 8.67157 12.1716 8 13 8C13.8284 8 14.5 8.67157 14.5 9.5V12" stroke="#ACAAB1" stroke-width="1.5" stroke-linecap="round" stroke-linejoin="round"/>
<path d="M14.5 10.5C14.5 9.67157 15.1716 9 16 9C16.8284 9 17.5 9.67157 17.5 10.5V12" stroke="#ACAAB1" stroke-width="1.5" stroke-linecap="round" stroke-linejoin="round"/>
<path d="M17.5 11.5C17.5 10.6716 18.1716 10 19 10C19.8285 10 20.5 10.6716 20.5 11.5V16C20.5 19.3137 17.8137 22 14.5 22H12.5H12.708C10.6896 22.0003 8.8062 20.9858 7.69604 19.3L7.50004 19C7.18804 18.521 6.09304 16.612 4.21404 13.272C3.81574 12.5641 4.05336 11.6677 4.75004 11.25C5.48432 10.8094 6.42419 10.9248 7.03004 11.53L8.50004 13" stroke="#ACAAB1" stroke-width="1.5" stroke-linecap="round" stroke-linejoin="round"/>
<path d="M5.5 3L4.5 2" stroke="#ACAAB1" stroke-width="1.5" stroke-linecap="round" stroke-linejoin="round"/>
<path d="M4.5 7H3.5" stroke="#ACAAB1" stroke-width="1.5" stroke-linecap="round" stroke-linejoin="round"/>
<path d="M14.5 3L15.5 2" stroke="#ACAAB1" stroke-width="1.5" stroke-linecap="round" stroke-linejoin="round"/>
<path d="M15.5 6H16.5" stroke="#ACAAB1" stroke-width="1.5" stroke-linecap="round" stroke-linejoin="round"/>
</svg>
