<svg width="25" height="24" viewBox="0 0 25 24" fill="none" xmlns="http://www.w3.org/2000/svg">
<path d="M8.5 13V4.5C8.5 3.67157 9.17157 3 10 3C10.8284 3 11.5 3.67157 11.5 4.5V12" stroke="#E1DEF5" stroke-opacity="0.9" stroke-width="1.5" stroke-linecap="round" stroke-linejoin="round"/>
<path d="M17.4999 11.5C17.4999 10.6716 18.1715 10 18.9999 10C19.8283 10 20.4999 10.6716 20.4999 11.5V16C20.4999 19.3137 17.8136 22 14.4999 22H12.4999H12.7079C10.6895 22.0003 8.80608 20.9858 7.69592 19.3C7.63033 19.2002 7.565 19.1002 7.49992 19C7.18792 18.521 6.09292 16.612 4.21392 13.272C3.81562 12.5641 4.05323 11.6677 4.74992 11.25C5.4842 10.8094 6.42406 10.9248 7.02992 11.53L8.49992 13" stroke="#E1DEF5" stroke-opacity="0.9" stroke-width="1.5" stroke-linecap="round" stroke-linejoin="round"/>
<path d="M11.5 5.5V3.5C11.5 2.9641 11.7859 2.46891 12.25 2.20096C12.7141 1.93301 13.2859 1.93301 13.75 2.20096C14.2141 2.46891 14.5 2.9641 14.5 3.5V12" stroke="#E1DEF5" stroke-opacity="0.9" stroke-width="1.5" stroke-linecap="round" stroke-linejoin="round"/>
<path d="M14.5 5.5C14.5 4.67157 15.1716 4 16 4C16.8284 4 17.5 4.67157 17.5 5.5V12" stroke="#E1DEF5" stroke-opacity="0.9" stroke-width="1.5" stroke-linecap="round" stroke-linejoin="round"/>
</svg>
