<svg width="25" height="24" viewBox="0 0 25 24" fill="none" xmlns="http://www.w3.org/2000/svg">
<path d="M3.5 3L21.5 21" stroke="#E1DEF5" stroke-opacity="0.4" stroke-width="1.5" stroke-linecap="round" stroke-linejoin="round"/>
<path d="M7.75 13.5C7.75 13.9142 8.08579 14.25 8.5 14.25C8.91421 14.25 9.25 13.9142 9.25 13.5H7.75ZM9.25 8C9.25 7.58579 8.91421 7.25 8.5 7.25C8.08579 7.25 7.75 7.58579 7.75 8H9.25ZM8.41006 3.90733C8.11699 4.20004 8.11669 4.67492 8.4094 4.96799C8.70211 5.26107 9.17699 5.26136 9.47006 4.96865L8.41006 3.90733ZM11.5001 5.49999L10.7501 5.49965V5.49999H11.5001ZM10.7501 6.99999C10.7501 7.4142 11.0858 7.74999 11.5001 7.74999C11.9143 7.74999 12.2501 7.4142 12.2501 6.99999H10.7501ZM12.25 11.008C12.25 10.5938 11.9142 10.258 11.5 10.258C11.0858 10.258 10.75 10.5938 10.75 11.008H12.25ZM10.75 12C10.75 12.4142 11.0858 12.75 11.5 12.75C11.9142 12.75 12.25 12.4142 12.25 12H10.75ZM10.75 5.5C10.75 5.91421 11.0858 6.25 11.5 6.25C11.9142 6.25 12.25 5.91421 12.25 5.5H10.75ZM11.5 3.5L12.25 3.5V3.5L11.5 3.5ZM14.5 3.5L13.75 3.5V3.5H14.5ZM13.75 10C13.75 10.4142 14.0858 10.75 14.5 10.75C14.9142 10.75 15.25 10.4142 15.25 10H13.75ZM13.75 5.5C13.75 5.91421 14.0858 6.25 14.5 6.25C14.9142 6.25 15.25 5.91421 15.25 5.5H13.75ZM16.75 12C16.75 12.4142 17.0858 12.75 17.5 12.75C17.9142 12.75 18.25 12.4142 18.25 12H16.75ZM16.75 7.5C16.75 7.91421 17.0858 8.25 17.5 8.25C17.9142 8.25 18.25 7.91421 18.25 7.5H16.75ZM12.5 22L12.3974 22.7429C12.4314 22.7476 12.4657 22.75 12.5 22.75L12.5 22ZM7.50004 19L6.83307 19.343C6.84476 19.3658 6.85761 19.3879 6.87157 19.4093L7.50004 19ZM4.80004 13.75L5.467 13.407C5.44941 13.3728 5.42921 13.34 5.40659 13.3089L4.80004 13.75ZM7.55004 11.75L8.217 11.407C8.19941 11.3728 8.17921 11.34 8.15659 11.3089L7.55004 11.75ZM7.78307 13.843C7.97251 14.2114 8.42469 14.3564 8.79305 14.167C9.1614 13.9775 9.30644 13.5253 9.117 13.157L7.78307 13.843ZM9.25 13.5V8H7.75V13.5H9.25ZM9.47006 4.96865C9.68468 4.7543 10.0073 4.69033 10.2874 4.80656L10.8622 3.42105C10.0217 3.07236 9.05391 3.26429 8.41006 3.90733L9.47006 4.96865ZM10.2874 4.80656C10.5676 4.92278 10.7502 5.19633 10.7501 5.49965L12.2501 5.50033C12.2505 4.59036 11.7027 3.76973 10.8622 3.42105L10.2874 4.80656ZM10.7501 5.49999V6.99999H12.2501V5.49999H10.7501ZM10.75 11.008V12H12.25V11.008H10.75ZM12.25 5.5V3.5H10.75V5.5H12.25ZM12.25 3.5C12.25 3.23205 12.3929 2.98446 12.625 2.85048L11.875 1.55144C11.1788 1.95337 10.75 2.69615 10.75 3.5L12.25 3.5ZM12.625 2.85048C12.8571 2.71651 13.1429 2.71651 13.375 2.85048L14.125 1.55144C13.4288 1.14952 12.5712 1.14952 11.875 1.55144L12.625 2.85048ZM13.375 2.85048C13.6071 2.98446 13.75 3.23205 13.75 3.5L15.25 3.5C15.25 2.69615 14.8212 1.95337 14.125 1.55144L13.375 2.85048ZM13.75 3.5V10H15.25V3.5H13.75ZM15.25 5.5C15.25 5.08579 15.5858 4.75 16 4.75V3.25C14.7574 3.25 13.75 4.25736 13.75 5.5H15.25ZM16 4.75C16.4142 4.75 16.75 5.08579 16.75 5.5H18.25C18.25 4.25736 17.2426 3.25 16 3.25V4.75ZM16.75 5.5V12H18.25V5.5H16.75ZM18.25 7.5C18.25 7.08579 18.5858 6.75 19 6.75V5.25C17.7574 5.25 16.75 6.25736 16.75 7.5H18.25ZM19 6.75C19.4142 6.75 19.75 7.08579 19.75 7.5H21.25C21.25 6.25736 20.2427 5.25 19 5.25V6.75ZM19.75 7.5V16H21.25V7.5H19.75ZM19.75 16C19.75 18.8995 17.3995 21.25 14.5 21.25V22.75C18.228 22.75 21.25 19.7279 21.25 16H19.75ZM14.5 21.25H12.5V22.75H14.5V21.25ZM12.6027 21.2571C10.6761 20.9909 9.03928 19.9891 8.1285 18.5907L6.87157 19.4093C8.04879 21.2169 10.096 22.4251 12.3974 22.7429L12.6027 21.2571ZM8.167 18.657L5.467 13.407L4.13307 14.093L6.83307 19.343L8.167 18.657ZM5.40659 13.3089C5.09793 12.8845 5.19176 12.2902 5.61616 11.9816L4.73391 10.7684C3.63953 11.5644 3.39757 13.0967 4.19348 14.1911L5.40659 13.3089ZM5.61616 11.9816C6.04057 11.6729 6.63483 11.7667 6.94348 12.1911L8.15659 11.3089C7.36067 10.2145 5.82829 9.97253 4.73391 10.7684L5.61616 11.9816ZM6.88307 12.093L7.78307 13.843L9.117 13.157L8.217 11.407L6.88307 12.093Z" fill="#E1DEF5" fill-opacity="0.4"/>
</svg>
