<svg width="25" height="24" viewBox="0 0 25 24" fill="none" xmlns="http://www.w3.org/2000/svg">
<path d="M11.5 11.5V10.5C11.5 9.67157 12.1716 9 13 9C13.8284 9 14.5 9.67157 14.5 10.5V12" stroke="#E1DEF5" stroke-opacity="0.9" stroke-width="1.5" stroke-linecap="round" stroke-linejoin="round"/>
<path d="M17.4999 12V5.5C17.4999 4.67157 18.1715 4 18.9999 4C19.8283 4 20.4999 4.67157 20.4999 5.5V16C20.4999 19.3137 17.8136 22 14.4999 22H12.4999H12.7079C10.6895 22.0003 8.80608 20.9858 7.69592 19.3C7.63033 19.2002 7.565 19.1002 7.49992 19C7.18792 18.521 6.09292 16.612 4.21392 13.272C3.81562 12.5641 4.05323 11.6677 4.74992 11.25C5.4842 10.8094 6.42406 10.9248 7.02992 11.53L8.49992 13" stroke="#E1DEF5" stroke-opacity="0.9" stroke-width="1.5" stroke-linecap="round" stroke-linejoin="round"/>
<path d="M14.5 10.5C14.5 9.67157 15.1716 9 16 9C16.8284 9 17.5 9.67157 17.5 10.5V12" stroke="#E1DEF5" stroke-opacity="0.9" stroke-width="1.5" stroke-linecap="round" stroke-linejoin="round"/>
<path d="M8.5 13V4.5C8.5 3.67157 9.17157 3 10 3C10.8284 3 11.5 3.67157 11.5 4.5V12" stroke="#E1DEF5" stroke-opacity="0.9" stroke-width="1.5" stroke-linecap="round" stroke-linejoin="round"/>
</svg>
