<svg width="25" height="24" viewBox="0 0 25 24" fill="none" xmlns="http://www.w3.org/2000/svg">
<path d="M14.75 7C14.75 7.41421 15.0858 7.75 15.5 7.75C15.9142 7.75 16.25 7.41421 16.25 7H14.75ZM12.5 10H13.25C13.25 9.58579 12.9142 9.25 12.5 9.25V10ZM11.75 12C11.75 12.4142 12.0858 12.75 12.5 12.75C12.9142 12.75 13.25 12.4142 13.25 12H11.75ZM3.87599 17.488L4.27836 18.1209L4.27865 18.1207L3.87599 17.488ZM4.31599 19L4.31599 18.25L4.31592 18.25L4.31599 19ZM20.684 19L20.6841 18.25H20.684V19ZM21.124 17.488L20.7213 18.1207L20.7216 18.1209L21.124 17.488ZM16.25 7C16.25 4.92893 14.5711 3.25 12.5 3.25V4.75C13.7426 4.75 14.75 5.75736 14.75 7H16.25ZM12.5 3.25C10.4289 3.25 8.75 4.92893 8.75 7H10.25C10.25 5.75736 11.2574 4.75 12.5 4.75V3.25ZM8.75 7C8.75 9.07107 10.4289 10.75 12.5 10.75V9.25C11.2574 9.25 10.25 8.24264 10.25 7H8.75ZM11.75 10V12H13.25V10H11.75ZM12.0973 11.3673L3.47333 16.8553L4.27865 18.1207L12.9026 12.6327L12.0973 11.3673ZM3.47362 16.8551C2.88442 17.2296 2.61337 17.9483 2.80845 18.6187L4.24871 18.1996C4.24001 18.1697 4.25209 18.1376 4.27836 18.1209L3.47362 16.8551ZM2.80845 18.6187C3.00353 19.2891 3.61787 19.7501 4.31606 19.75L4.31592 18.25C4.28479 18.25 4.2574 18.2294 4.24871 18.1996L2.80845 18.6187ZM4.31599 19.75H20.684V18.25H4.31599V19.75ZM20.6839 19.75C21.3821 19.7501 21.9964 19.2891 22.1915 18.6187L20.7513 18.1996C20.7426 18.2294 20.7152 18.25 20.6841 18.25L20.6839 19.75ZM22.1915 18.6187C22.3866 17.9483 22.1156 17.2296 21.5264 16.8551L20.7216 18.1209C20.7479 18.1376 20.76 18.1697 20.7513 18.1996L22.1915 18.6187ZM21.5266 16.8553L12.9026 11.3673L12.0973 12.6327L20.7213 18.1207L21.5266 16.8553Z" fill="#ACAAB1"/>
</svg>
