<svg width="25" height="24" viewBox="0 0 25 24" fill="none" xmlns="http://www.w3.org/2000/svg">
<path d="M3.5 3L21.5 21" stroke="#ACAAB1" stroke-width="1.5" stroke-linecap="round" stroke-linejoin="round"/>
<rect x="4.5" y="13" width="5" height="7" rx="2" stroke="#ACAAB1" stroke-width="1.5" stroke-linecap="round" stroke-linejoin="round"/>
<path d="M17.5 12.25C17.0858 12.25 16.75 12.5858 16.75 13C16.75 13.4142 17.0858 13.75 17.5 13.75V12.25ZM19.75 16C19.75 16.4142 20.0858 16.75 20.5 16.75C20.9142 16.75 21.25 16.4142 21.25 16H19.75ZM20.4406 19.9481C20.7339 19.6556 20.7346 19.1807 20.4421 18.8874C20.1496 18.5941 19.6747 18.5934 19.3814 18.8859L20.4406 19.9481ZM16.25 15C16.25 14.5858 15.9142 14.25 15.5 14.25C15.0858 14.25 14.75 14.5858 14.75 15H16.25ZM17.5 13.75H18.5V12.25H17.5V13.75ZM18.5 13.75C19.1904 13.75 19.75 14.3096 19.75 15H21.25C21.25 13.4812 20.0188 12.25 18.5 12.25V13.75ZM19.75 15V16H21.25V15H19.75ZM19.3814 18.8859C19.1553 19.1114 18.8446 19.25 18.5 19.25V20.75C19.2574 20.75 19.9447 20.4426 20.4406 19.9481L19.3814 18.8859ZM18.5 19.25H17.5V20.75H18.5V19.25ZM17.5 19.25C16.8096 19.25 16.25 18.6904 16.25 18H14.75C14.75 19.5188 15.9812 20.75 17.5 20.75V19.25ZM16.25 18V15H14.75V18H16.25Z" fill="#ACAAB1"/>
<path d="M3.75 15C3.75 15.4143 4.08579 15.75 4.5 15.75C4.91421 15.75 5.25 15.4143 5.25 15H3.75ZM7.37433 6.87237C7.66722 6.57948 7.66722 6.1046 7.37433 5.81171C7.08144 5.51882 6.60656 5.51882 6.31367 5.81171L7.37433 6.87237ZM8.90486 4.02028C8.52722 4.19047 8.35905 4.63457 8.52924 5.0122C8.69943 5.38984 9.14353 5.55801 9.52117 5.38782L8.90486 4.02028ZM20.5 12L19.75 11.9998V12H20.5ZM19.75 15C19.75 15.4143 20.0858 15.75 20.5 15.75C20.9142 15.75 21.25 15.4143 21.25 15H19.75ZM5.25 15V12H3.75V15H5.25ZM5.25 12C5.25 9.99705 6.06115 8.18555 7.37433 6.87237L6.31367 5.81171C4.73085 7.39453 3.75 9.58303 3.75 12H5.25ZM9.52117 5.38782C11.7651 4.37655 14.3688 4.57276 16.4358 5.90889L17.2501 4.64916C14.7554 3.03659 11.613 2.79978 8.90486 4.02028L9.52117 5.38782ZM16.4358 5.90889C18.5028 7.24502 19.7508 9.53856 19.75 11.9998L21.25 12.0003C21.2509 9.0298 19.7448 6.26173 17.2501 4.64916L16.4358 5.90889ZM19.75 12V15H21.25V12H19.75Z" fill="#ACAAB1"/>
</svg>
