<svg width="25" height="24" viewBox="0 0 25 24" fill="none" xmlns="http://www.w3.org/2000/svg">
<path d="M20.5278 14.1049C20.8221 13.8134 20.8244 13.3386 20.5329 13.0443C20.2414 12.75 19.7665 12.7477 19.4722 13.0391L20.5278 14.1049ZM12.5 21L11.9723 21.5329C12.2646 21.8224 12.7355 21.8224 13.0278 21.5329L12.5 21ZM10.1318 17.5991C9.83744 17.3077 9.36257 17.31 9.0711 17.6043C8.77964 17.8986 8.78194 18.3735 9.07626 18.6649L10.1318 17.5991ZM2.737 10.0339C2.74028 10.4481 3.07872 10.7813 3.49292 10.778C3.90712 10.7747 4.24023 10.4362 4.23695 10.022L2.737 10.0339ZM12.5 7.00599L11.898 7.45335C12.0391 7.64316 12.2614 7.75532 12.4979 7.75599C12.7344 7.75665 12.9573 7.64574 13.0994 7.45672L12.5 7.00599ZM19.4744 13.0429C19.1789 13.3332 19.1747 13.808 19.4649 14.1035C19.7552 14.3991 20.23 14.4033 20.5255 14.1131L19.4744 13.0429ZM19.4722 13.0391L11.9722 20.4671L13.0278 21.5329L20.5278 14.1049L19.4722 13.0391ZM13.0278 20.4671L10.1318 17.5991L9.07626 18.6649L11.9723 21.5329L13.0278 20.4671ZM4.23695 10.022C4.22238 8.18313 5.39217 6.54345 7.13574 5.95884L6.65889 4.53665C4.29994 5.3276 2.71728 7.54599 2.737 10.0339L4.23695 10.022ZM7.13574 5.95884C8.87932 5.37423 10.8011 5.97733 11.898 7.45335L13.1019 6.55864C11.6179 4.56167 9.01785 3.74571 6.65889 4.53665L7.13574 5.95884ZM13.0994 7.45672C14.0576 6.18239 15.6484 5.55155 17.2195 5.82287L17.4748 4.34475C15.3492 3.97766 13.1969 4.83116 11.9005 6.55526L13.0994 7.45672ZM17.2195 5.82287C18.7907 6.09419 20.0778 7.22204 20.5531 8.74392L21.9849 8.29676C21.3418 6.23774 19.6004 4.71183 17.4748 4.34475L17.2195 5.82287ZM20.5531 8.74392C21.0284 10.2658 20.6119 11.9257 19.4744 13.0429L20.5255 14.1131C22.0644 12.6015 22.6279 10.3558 21.9849 8.29676L20.5531 8.74392Z" fill="#E1DEF5" fill-opacity="0.4"/>
<path d="M3.5 13H5.5L7.5 16L9.5 10L10.5 13H13.5" stroke="#E1DEF5" stroke-opacity="0.4" stroke-width="1.5" stroke-linecap="round" stroke-linejoin="round"/>
</svg>
