<svg width="25" height="24" viewBox="0 0 25 24" fill="none" xmlns="http://www.w3.org/2000/svg">
<path d="M20.5278 14.1047C20.8221 13.8132 20.8244 13.3383 20.5329 13.044C20.2414 12.7497 19.7665 12.7474 19.4722 13.0389L20.5278 14.1047ZM12.5 20.9998L11.9722 21.5327C12.2645 21.8221 12.7355 21.8221 13.0278 21.5327L12.5 20.9998ZM5.52777 13.0389C5.23346 12.7474 4.7586 12.7497 4.46712 13.044C4.17564 13.3383 4.17793 13.8132 4.47223 14.1047L5.52777 13.0389ZM4.4769 14.1093C4.77376 14.3982 5.24859 14.3917 5.53747 14.0949C5.82634 13.798 5.81986 13.3232 5.523 13.0343L4.4769 14.1093ZM12.5 7.00583L11.898 7.45322C12.0391 7.64301 12.2614 7.75517 12.4979 7.75582C12.7343 7.75648 12.9573 7.64557 13.0994 7.45656L12.5 7.00583ZM19.4744 13.0428C19.1789 13.333 19.1746 13.8079 19.4649 14.1034C19.7551 14.3989 20.23 14.4031 20.5255 14.1129L19.4744 13.0428ZM19.4722 13.0389L11.9722 20.4669L13.0278 21.5327L20.5278 14.1047L19.4722 13.0389ZM13.0278 20.4669L5.52777 13.0389L4.47223 14.1047L11.9722 21.5327L13.0278 20.4669ZM5.523 13.0343C4.37661 11.9188 3.95367 10.254 4.42861 8.72654L2.99626 8.28118C2.35369 10.3477 2.9259 12.6001 4.4769 14.1093L5.523 13.0343ZM4.42861 8.72654C4.90355 7.19909 6.19591 6.06767 7.77275 5.79886L7.52068 4.32019C5.3873 4.68387 3.63882 6.21462 2.99626 8.28118L4.42861 8.72654ZM7.77275 5.79886C9.3496 5.53005 10.9438 6.16939 11.898 7.45322L13.1019 6.55844C11.8109 4.82149 9.65405 3.95651 7.52068 4.32019L7.77275 5.79886ZM13.0994 7.45656C14.0576 6.18223 15.6484 5.55138 17.2195 5.8227L17.4748 4.34458C15.3492 3.9775 13.1969 4.831 11.9005 6.55509L13.0994 7.45656ZM17.2195 5.8227C18.7906 6.09403 20.0778 7.22187 20.553 8.74376L21.9848 8.2966C21.3418 6.23757 19.6004 4.71167 17.4748 4.34458L17.2195 5.8227ZM20.553 8.74376C21.0283 10.2656 20.6119 11.9255 19.4744 13.0428L20.5255 14.1129C22.0644 12.6013 22.6279 10.3556 21.9848 8.2966L20.553 8.74376Z" fill="#2F2B3D" fill-opacity="0.9"/>
</svg>
