<svg width="25" height="24" viewBox="0 0 25 24" fill="none" xmlns="http://www.w3.org/2000/svg">
<path d="M20.5278 14.1051C20.8221 13.8137 20.8244 13.3388 20.5329 13.0445C20.2414 12.7502 19.7665 12.7479 19.4722 13.0394L20.5278 14.1051ZM12.5 21.0003L11.9723 21.5332C12.2646 21.8226 12.7355 21.8226 13.0278 21.5331L12.5 21.0003ZM10.1318 17.5994C9.83744 17.3079 9.36257 17.3102 9.0711 17.6045C8.77964 17.8988 8.78194 18.3737 9.07626 18.6652L10.1318 17.5994ZM2.737 10.0342C2.74028 10.4484 3.07872 10.7815 3.49292 10.7782C3.90712 10.7749 4.24023 10.4365 4.23695 10.0223L2.737 10.0342ZM12.5 7.00624L11.898 7.45359C12.0391 7.6434 12.2614 7.75557 12.4979 7.75623C12.7344 7.7569 12.9573 7.64599 13.0994 7.45697L12.5 7.00624ZM19.4744 13.0432C19.1789 13.3334 19.1747 13.8083 19.4649 14.1038C19.7552 14.3993 20.23 14.4036 20.5255 14.1133L19.4744 13.0432ZM19.4722 13.0394L11.9722 20.4674L13.0278 21.5331L20.5278 14.1051L19.4722 13.0394ZM13.0278 20.4674L10.1318 17.5994L9.07626 18.6652L11.9723 21.5332L13.0278 20.4674ZM4.23695 10.0223C4.22238 8.18338 5.39217 6.54369 7.13574 5.95908L6.65889 4.5369C4.29994 5.32784 2.71728 7.54624 2.737 10.0342L4.23695 10.0223ZM7.13574 5.95908C8.87932 5.37448 10.8011 5.97758 11.898 7.45359L13.1019 6.55888C11.6179 4.56191 9.01785 3.74596 6.65889 4.5369L7.13574 5.95908ZM13.0994 7.45697C14.0576 6.18264 15.6484 5.55179 17.2195 5.82311L17.4748 4.34499C15.3492 3.97791 13.1969 4.83141 11.9005 6.5555L13.0994 7.45697ZM17.2195 5.82311C18.7907 6.09444 20.0778 7.22228 20.5531 8.74417L21.9849 8.297C21.3418 6.23798 19.6004 4.71208 17.4748 4.34499L17.2195 5.82311ZM20.5531 8.74417C21.0284 10.2661 20.6119 11.9259 19.4744 13.0432L20.5255 14.1133C22.0644 12.6018 22.6279 10.356 21.9849 8.297L20.5531 8.74417Z" fill="#2F2B3D" fill-opacity="0.9"/>
<path d="M3.5 13H5.5L7.5 16L9.5 10L10.5 13H13.5" stroke="#2F2B3D" stroke-opacity="0.9" stroke-width="1.5" stroke-linecap="round" stroke-linejoin="round"/>
</svg>
