<svg width="25" height="24" viewBox="0 0 25 24" fill="none" xmlns="http://www.w3.org/2000/svg">
<path d="M20.5278 14.1048C20.8221 13.8133 20.8244 13.3384 20.5329 13.0441C20.2414 12.7498 19.7665 12.7475 19.4722 13.039L20.5278 14.1048ZM12.5 20.9999L11.9722 21.5328C12.2645 21.8223 12.7355 21.8223 13.0278 21.5328L12.5 20.9999ZM5.52777 13.039C5.23346 12.7475 4.7586 12.7498 4.46712 13.0441C4.17564 13.3384 4.17793 13.8133 4.47223 14.1048L5.52777 13.039ZM4.4769 14.1095C4.77376 14.3983 5.24859 14.3919 5.53747 14.095C5.82634 13.7981 5.81986 13.3233 5.523 13.0344L4.4769 14.1095ZM12.5 7.00595L11.898 7.45334C12.0391 7.64314 12.2614 7.75529 12.4979 7.75595C12.7343 7.7566 12.9573 7.64569 13.0994 7.45668L12.5 7.00595ZM19.4744 13.0429C19.1789 13.3331 19.1746 13.808 19.4649 14.1035C19.7551 14.399 20.23 14.4033 20.5255 14.113L19.4744 13.0429ZM19.4722 13.039L11.9722 20.467L13.0278 21.5328L20.5278 14.1048L19.4722 13.039ZM13.0278 20.467L5.52777 13.039L4.47223 14.1048L11.9722 21.5328L13.0278 20.467ZM5.523 13.0344C4.37661 11.9189 3.95367 10.2541 4.42861 8.72667L2.99626 8.2813C2.35369 10.3479 2.9259 12.6002 4.4769 14.1095L5.523 13.0344ZM4.42861 8.72667C4.90355 7.19921 6.19591 6.06779 7.77275 5.79898L7.52068 4.32031C5.3873 4.684 3.63882 6.21474 2.99626 8.2813L4.42861 8.72667ZM7.77275 5.79898C9.34959 5.53017 10.9438 6.16951 11.898 7.45334L13.1019 6.55856C11.8109 4.82161 9.65405 3.95663 7.52068 4.32031L7.77275 5.79898ZM13.0994 7.45668C14.0576 6.18235 15.6484 5.5515 17.2195 5.82283L17.4748 4.34471C15.3492 3.97762 13.1969 4.83112 11.9005 6.55522L13.0994 7.45668ZM17.2195 5.82283C18.7906 6.09415 20.0778 7.22199 20.553 8.74388L21.9848 8.29672C21.3418 6.2377 19.6004 4.71179 17.4748 4.34471L17.2195 5.82283ZM20.553 8.74388C21.0283 10.2658 20.6119 11.9256 19.4744 13.0429L20.5255 14.113C22.0644 12.6015 22.6279 10.3557 21.9848 8.29672L20.553 8.74388Z" fill="#6D6B77"/>
</svg>
