<svg width="25" height="24" viewBox="0 0 25 24" fill="none" xmlns="http://www.w3.org/2000/svg">
<path d="M8.80948 4.04558C8.45351 4.25739 8.33666 4.71766 8.54847 5.07362C8.76028 5.42958 9.22055 5.54644 9.57651 5.33463L8.80948 4.04558ZM11.529 3.3001L11.1642 2.64479C11.1579 2.6483 11.1517 2.65189 11.1455 2.65558L11.529 3.3001ZM13.529 3.3001L13.9127 2.65571C13.9065 2.65198 13.9001 2.64834 13.8938 2.64479L13.529 3.3001ZM19.529 6.8731V7.6231C19.8666 7.6231 20.1625 7.39758 20.2521 7.07211C20.3417 6.74663 20.2028 6.40143 19.9127 6.22871L19.529 6.8731ZM19.5 6.8731V6.1231C19.1605 6.1231 18.8634 6.35111 18.7755 6.679C18.6877 7.0069 18.831 7.35292 19.125 7.52264L19.5 6.8731ZM20.5 8.6201L19.75 8.61451V8.6201H20.5ZM19.6696 15.5949C19.5215 15.9818 19.715 16.4154 20.1018 16.5635C20.4886 16.7116 20.9223 16.5181 21.0704 16.1313L19.6696 15.5949ZM18.6137 18.3421C18.9628 18.1192 19.065 17.6554 18.8421 17.3063C18.6191 16.9573 18.1554 16.855 17.8063 17.078L18.6137 18.3421ZM13.471 20.7371L13.8351 21.3927C13.8486 21.3853 13.8618 21.3774 13.8747 21.3691L13.471 20.7371ZM11.529 20.7371L11.1252 21.3691C11.1382 21.3774 11.1514 21.3853 11.1649 21.3927L11.529 20.7371ZM5.529 16.9041L5.93277 16.272C5.9198 16.2637 5.90658 16.2559 5.89312 16.2484L5.529 16.9041ZM4.5 15.1571H3.75L3.75 15.1576L4.5 15.1571ZM4.5 8.62006L3.75 8.61988V8.62006H4.5ZM5.529 6.87206L5.89313 7.52774C5.89969 7.52409 5.9062 7.52035 5.91265 7.5165L5.529 6.87206ZM7.06665 6.8295C7.42257 6.61762 7.53933 6.15732 7.32745 5.80141C7.11556 5.44549 6.65527 5.32873 6.29935 5.54061L7.06665 6.8295ZM9.57651 5.33463L11.9125 3.94463L11.1455 2.65558L8.80948 4.04558L9.57651 5.33463ZM11.8938 3.95541C12.2887 3.73557 12.7693 3.73557 13.1642 3.95541L13.8938 2.64479C13.0452 2.17244 12.0128 2.17244 11.1642 2.64479L11.8938 3.95541ZM13.1453 3.9445L19.1453 7.5175L19.9127 6.22871L13.9127 2.65571L13.1453 3.9445ZM19.529 6.1231H19.5V7.6231H19.529V6.1231ZM19.125 7.52264C19.5147 7.74759 19.7534 8.16459 19.75 8.61451L21.25 8.6257C21.2574 7.63588 20.7322 6.71847 19.875 6.22357L19.125 7.52264ZM19.75 8.6201V15.1561H21.25V8.6201H19.75ZM19.75 15.1561C19.75 15.3103 19.7218 15.4585 19.6696 15.5949L21.0704 16.1313C21.1882 15.8238 21.25 15.4939 21.25 15.1561H19.75ZM17.8063 17.078L13.0673 20.105L13.8747 21.3691L18.6137 18.3421L17.8063 17.078ZM13.1069 20.0814C12.7294 20.291 12.2706 20.291 11.8931 20.0814L11.1649 21.3927C11.9952 21.8539 13.0048 21.8539 13.8351 21.3927L13.1069 20.0814ZM11.9328 20.105L5.93277 16.272L5.12523 17.5361L11.1252 21.3691L11.9328 20.105ZM5.89312 16.2484C5.49648 16.0281 5.25033 15.6102 5.25 15.1565L3.75 15.1576C3.75074 16.1558 4.29226 17.0751 5.16488 17.5597L5.89312 16.2484ZM5.25 15.1571V8.62006H3.75V15.1571H5.25ZM5.25 8.62024C5.25011 8.16631 5.49629 7.74812 5.89313 7.52774L5.16488 6.21638C4.29183 6.70122 3.75024 7.62124 3.75 8.61988L5.25 8.62024ZM5.91265 7.5165L7.06665 6.8295L6.29935 5.54061L5.14535 6.22761L5.91265 7.5165Z" fill="#2F2B3D" fill-opacity="0.9"/>
<path d="M3.5 3L21.5 21" stroke="#2F2B3D" stroke-opacity="0.9" stroke-width="1.5" stroke-linecap="round" stroke-linejoin="round"/>
</svg>
