<svg width="25" height="24" viewBox="0 0 25 24" fill="none" xmlns="http://www.w3.org/2000/svg">
<path d="M8.80948 4.04545C8.45351 4.25726 8.33666 4.71754 8.54847 5.0735C8.76028 5.42946 9.22055 5.54632 9.57651 5.33451L8.80948 4.04545ZM11.529 3.29998L11.1642 2.64467C11.1579 2.64818 11.1517 2.65177 11.1455 2.65545L11.529 3.29998ZM13.529 3.29998L13.9127 2.65559C13.9065 2.65186 13.9001 2.64822 13.8938 2.64467L13.529 3.29998ZM19.529 6.87298V7.62298C19.8666 7.62298 20.1625 7.39746 20.2521 7.07198C20.3417 6.74651 20.2028 6.40131 19.9127 6.22859L19.529 6.87298ZM19.5 6.87298V6.12298C19.1605 6.12298 18.8634 6.35099 18.7755 6.67888C18.6877 7.00677 18.831 7.35279 19.125 7.52251L19.5 6.87298ZM20.5 8.61998L19.75 8.61439V8.61998H20.5ZM19.6696 15.5948C19.5215 15.9816 19.715 16.4153 20.1018 16.5634C20.4886 16.7115 20.9223 16.518 21.0704 16.1312L19.6696 15.5948ZM18.6137 18.342C18.9628 18.119 19.065 17.6553 18.8421 17.3062C18.6191 16.9571 18.1554 16.8549 17.8063 17.0779L18.6137 18.342ZM13.471 20.7369L13.8351 21.3926C13.8486 21.3852 13.8618 21.3773 13.8747 21.369L13.471 20.7369ZM11.529 20.7369L11.1252 21.369C11.1382 21.3773 11.1514 21.3851 11.1649 21.3926L11.529 20.7369ZM5.529 16.9039L5.93277 16.2719C5.9198 16.2636 5.90658 16.2557 5.89312 16.2483L5.529 16.9039ZM4.5 15.1569L3.75 15.1569L3.75 15.1575L4.5 15.1569ZM4.5 8.61994L3.75 8.61976V8.61994H4.5ZM5.529 6.87194L5.89313 7.52761C5.89969 7.52397 5.9062 7.52022 5.91265 7.51638L5.529 6.87194ZM7.06665 6.82938C7.42257 6.6175 7.53933 6.1572 7.32745 5.80128C7.11556 5.44537 6.65527 5.3286 6.29935 5.54049L7.06665 6.82938ZM9.57651 5.33451L11.9125 3.94451L11.1455 2.65545L8.80948 4.04545L9.57651 5.33451ZM11.8938 3.95529C12.2887 3.73544 12.7693 3.73544 13.1642 3.95529L13.8938 2.64467C13.0452 2.17232 12.0128 2.17232 11.1642 2.64467L11.8938 3.95529ZM13.1453 3.94438L19.1453 7.51738L19.9127 6.22859L13.9127 2.65559L13.1453 3.94438ZM19.529 6.12298H19.5V7.62298H19.529V6.12298ZM19.125 7.52251C19.5147 7.74747 19.7534 8.16447 19.75 8.61439L21.25 8.62558C21.2574 7.63576 20.7322 6.71835 19.875 6.22345L19.125 7.52251ZM19.75 8.61998V15.156H21.25V8.61998H19.75ZM19.75 15.156C19.75 15.3102 19.7218 15.4583 19.6696 15.5948L21.0704 16.1312C21.1882 15.8236 21.25 15.4937 21.25 15.156H19.75ZM17.8063 17.0779L13.0673 20.1049L13.8747 21.369L18.6137 18.342L17.8063 17.0779ZM13.1069 20.0813C12.7294 20.2909 12.2706 20.2909 11.8931 20.0813L11.1649 21.3926C11.9952 21.8537 13.0048 21.8537 13.8351 21.3926L13.1069 20.0813ZM11.9328 20.1049L5.93277 16.2719L5.12523 17.536L11.1252 21.369L11.9328 20.1049ZM5.89312 16.2483C5.49648 16.028 5.25033 15.6101 5.25 15.1564L3.75 15.1575C3.75074 16.1556 4.29226 17.075 5.16488 17.5596L5.89312 16.2483ZM5.25 15.1569V8.61994H3.75V15.1569H5.25ZM5.25 8.62011C5.25011 8.16619 5.49629 7.748 5.89313 7.52761L5.16488 6.21626C4.29183 6.7011 3.75024 7.62112 3.75 8.61976L5.25 8.62011ZM5.91265 7.51638L7.06665 6.82938L6.29935 5.54049L5.14535 6.22749L5.91265 7.51638Z" fill="#6D6B77"/>
<path d="M3.5 3L21.5 21" stroke="#6D6B77" stroke-width="1.5" stroke-linecap="round" stroke-linejoin="round"/>
</svg>
