<svg width="25" height="24" viewBox="0 0 25 24" fill="none" xmlns="http://www.w3.org/2000/svg">
<path d="M12.5 8V12L14.5 14" stroke="#2F2B3D" stroke-opacity="0.9" stroke-width="1.5" stroke-linecap="round" stroke-linejoin="round"/>
<path d="M2.80391 10.9241C2.76193 11.3362 3.06196 11.7042 3.47405 11.7462C3.88613 11.7882 4.25421 11.4882 4.29619 11.0761L2.80391 10.9241ZM4.75452 14.7427C4.6124 14.3537 4.18179 14.1535 3.79272 14.2956C3.40365 14.4377 3.20346 14.8683 3.34558 15.2574L4.75452 14.7427ZM2.80005 20.0001C2.80005 20.4143 3.13584 20.7501 3.55005 20.7501C3.96426 20.7501 4.30005 20.4143 4.30005 20.0001H2.80005ZM3.55005 15.0001V14.2501C3.13584 14.2501 2.80005 14.5859 2.80005 15.0001H3.55005ZM8.55005 15.7501C8.96426 15.7501 9.30005 15.4143 9.30005 15.0001C9.30005 14.5859 8.96426 14.2501 8.55005 14.2501V15.7501ZM4.29619 11.0761C4.72146 6.90108 8.21316 3.71059 12.4095 3.66266L12.3924 2.16275C7.43306 2.2194 3.30651 5.98998 2.80391 10.9241L4.29619 11.0761ZM12.4095 3.66266C16.6058 3.61473 20.1695 6.72463 20.69 10.8888L22.1784 10.7028C21.5633 5.78145 17.3517 2.10611 12.3924 2.16275L12.4095 3.66266ZM20.69 10.8888C21.2105 15.053 18.522 18.9445 14.443 19.9309L14.7956 21.3889C19.6163 20.2231 22.7936 15.6241 22.1784 10.7028L20.69 10.8888ZM14.443 19.9309C10.364 20.9174 6.1944 18.6846 4.75452 14.7427L3.34558 15.2574C5.04726 19.916 9.97498 22.5548 14.7956 21.3889L14.443 19.9309ZM4.30005 20.0001V15.0001H2.80005V20.0001H4.30005ZM3.55005 15.7501H8.55005V14.2501H3.55005V15.7501Z" fill="#2F2B3D" fill-opacity="0.9"/>
</svg>
