<svg width="25" height="24" viewBox="0 0 25 24" fill="none" xmlns="http://www.w3.org/2000/svg">
<path fill-rule="evenodd" clip-rule="evenodd" d="M9 10C8.17157 10 7.5 9.32843 7.5 8.5C7.5 5.46243 9.96243 3 13 3C16.0376 3 18.5 5.46243 18.5 8.5V19C18.5 20.1046 17.6046 21 16.5 21H9.5C8.39543 21 7.5 20.1046 7.5 19V17C7.5 15.62 8.21 14.556 9.38 13.825L13.804 11.06C14.859 10.4 15.5 9.744 15.5 8.5C15.5 7.11929 14.3807 6 13 6C11.6193 6 10.5 7.11929 10.5 8.5C10.5 9.32843 9.82843 10 9 10Z" stroke="#2F2B3D" stroke-opacity="0.9" stroke-width="1.5" stroke-linecap="round" stroke-linejoin="round"/>
</svg>
