<svg width="25" height="24" viewBox="0 0 25 24" fill="none" xmlns="http://www.w3.org/2000/svg">
<path d="M7 7H18" stroke="#2F2B3D" stroke-opacity="0.9" stroke-width="1.5" stroke-linecap="round" stroke-linejoin="round"/>
<path d="M7 17H18" stroke="#2F2B3D" stroke-opacity="0.9" stroke-width="1.5" stroke-linecap="round" stroke-linejoin="round"/>
<path fill-rule="evenodd" clip-rule="evenodd" d="M6.5 20V18C6.5 14.6863 9.18629 12 12.5 12C15.8137 12 18.5 14.6863 18.5 18V20C18.5 20.5523 18.0523 21 17.5 21H7.5C6.94772 21 6.5 20.5523 6.5 20V20Z" stroke="#2F2B3D" stroke-opacity="0.9" stroke-width="1.5" stroke-linecap="round" stroke-linejoin="round"/>
<path fill-rule="evenodd" clip-rule="evenodd" d="M6.5 4V6C6.5 9.31371 9.18629 12 12.5 12C15.8137 12 18.5 9.31371 18.5 6V4C18.5 3.44772 18.0523 3 17.5 3H7.5C6.94772 3 6.5 3.44772 6.5 4Z" stroke="#2F2B3D" stroke-opacity="0.9" stroke-width="1.5" stroke-linecap="round" stroke-linejoin="round"/>
</svg>
