<svg width="25" height="24" viewBox="0 0 25 24" fill="none" xmlns="http://www.w3.org/2000/svg">
<path fill-rule="evenodd" clip-rule="evenodd" d="M6.405 5H9.823C10.2318 5.00026 10.5993 5.24935 10.751 5.629L11.894 8.485C12.2717 9.4298 13.1026 10.1187 14.101 10.315L18.818 11.241C19.7953 11.4331 20.5001 12.29 20.5 13.286V14C20.5 14.5523 20.0523 15 19.5 15H5.605C5.32238 15 5.05296 14.8804 4.86337 14.6708C4.67378 14.4612 4.58174 14.1812 4.61 13.9L5.41 5.9C5.46135 5.38901 5.89143 4.99999 6.405 5Z" stroke="#6D6B77" stroke-width="1.5" stroke-linecap="round" stroke-linejoin="round"/>
<path d="M3.5 19H20.5C21.0523 19 21.5 18.5523 21.5 18" stroke="#6D6B77" stroke-width="1.5" stroke-linecap="round" stroke-linejoin="round"/>
<path d="M9.5 15V19" stroke="#6D6B77" stroke-width="1.5" stroke-linecap="round" stroke-linejoin="round"/>
<path d="M15.5 15V19" stroke="#6D6B77" stroke-width="1.5" stroke-linecap="round" stroke-linejoin="round"/>
</svg>
