<svg width="24" height="24" viewBox="0 0 24 24" fill="none" xmlns="http://www.w3.org/2000/svg">
<g id="Icon">
<path id="Path" d="M9.82788 9.17212C8.68398 8.02787 6.96341 7.68543 5.46857 8.30448C3.97372 8.92354 2.99902 10.3822 2.99902 12.0001C2.99902 13.6181 3.97372 15.0767 5.46857 15.6958C6.96341 16.3148 8.68398 15.9724 9.82788 14.8281C10.7155 14.0232 11.4512 13.0653 11.9999 12.0001C12.5486 10.9349 13.2843 9.97705 14.1719 9.17212C15.3158 8.02787 17.0363 7.68543 18.5312 8.30448C20.026 8.92354 21.0007 10.3822 21.0007 12.0001C21.0007 13.6181 20.026 15.0767 18.5312 15.6958C17.0363 16.3148 15.3158 15.9724 14.1719 14.8281C13.2843 14.0232 12.5486 13.0653 11.9999 12.0001C11.4512 10.9349 10.7155 9.97705 9.82788 9.17212" stroke="#00BAD1" stroke-width="1.5" stroke-linecap="round" stroke-linejoin="round"/>
</g>
</svg>
