<svg width="25" height="24" viewBox="0 0 25 24" fill="none" xmlns="http://www.w3.org/2000/svg">
<path d="M10.328 9.17212C9.1841 8.02787 7.46354 7.68543 5.96869 8.30448C4.47385 8.92354 3.49915 10.3822 3.49915 12.0001C3.49915 13.6181 4.47385 15.0767 5.96869 15.6958C7.46354 16.3148 9.1841 15.9724 10.328 14.8281C11.2156 14.0232 11.9513 13.0653 12.5 12.0001C13.0487 10.9349 13.7844 9.97705 14.672 9.17212C15.8159 8.02787 17.5365 7.68543 19.0313 8.30448C20.5262 8.92354 21.5009 10.3822 21.5009 12.0001C21.5009 13.6181 20.5262 15.0767 19.0313 15.6958C17.5365 16.3148 15.8159 15.9724 14.672 14.8281C13.7844 14.0232 13.0487 13.0653 12.5 12.0001C11.9513 10.9349 11.2156 9.97705 10.328 9.17212" stroke="#2F2B3D" stroke-opacity="0.9" stroke-width="1.5" stroke-linecap="round" stroke-linejoin="round"/>
</svg>
