<svg width="25" height="24" viewBox="0 0 25 24" fill="none" xmlns="http://www.w3.org/2000/svg">
<path d="M10.328 9.172C9.1841 8.02775 7.46354 7.68531 5.96869 8.30436C4.47385 8.92341 3.49915 10.382 3.49915 12C3.49915 13.618 4.47385 15.0766 5.96869 15.6956C7.46354 16.3147 9.1841 15.9722 10.328 14.828C11.2156 14.0231 11.9513 13.0652 12.5 12C13.0487 10.9348 13.7844 9.97692 14.672 9.172C15.8159 8.02775 17.5365 7.68531 19.0313 8.30436C20.5262 8.92341 21.5009 10.382 21.5009 12C21.5009 13.618 20.5262 15.0766 19.0313 15.6956C17.5365 16.3147 15.8159 15.9722 14.672 14.828C13.7844 14.0231 13.0487 13.0652 12.5 12C11.9513 10.9348 11.2156 9.97692 10.328 9.172" stroke="#E1DEF5" stroke-opacity="0.7" stroke-width="1.5" stroke-linecap="round" stroke-linejoin="round"/>
</svg>
