<svg width="25" height="24" viewBox="0 0 25 24" fill="none" xmlns="http://www.w3.org/2000/svg">
<path d="M15.75 15C15.75 15.4142 16.0858 15.75 16.5 15.75C16.9142 15.75 17.25 15.4142 17.25 15H15.75ZM20.75 15C20.75 15.4142 21.0858 15.75 21.5 15.75C21.9142 15.75 22.25 15.4142 22.25 15H20.75ZM21.5 13.75C21.9142 13.75 22.25 13.4142 22.25 13C22.25 12.5858 21.9142 12.25 21.5 12.25V13.75ZM16.5 12.25C16.0858 12.25 15.75 12.5858 15.75 13C15.75 13.4142 16.0858 13.75 16.5 13.75V12.25ZM17.25 15V11.5H15.75V15H17.25ZM17.25 11.5C17.25 10.5335 18.0335 9.75 19 9.75V8.25C17.2051 8.25 15.75 9.70507 15.75 11.5H17.25ZM19 9.75C19.9665 9.75 20.75 10.5335 20.75 11.5H22.25C22.25 9.70507 20.7949 8.25 19 8.25V9.75ZM20.75 11.5V15H22.25V11.5H20.75ZM21.5 12.25H16.5V13.75H21.5V12.25Z" fill="#E1DEF5" fill-opacity="0.7"/>
<path d="M3.5 9L6.5 15L9.5 9" stroke="#E1DEF5" stroke-opacity="0.7" stroke-width="1.5" stroke-linecap="round" stroke-linejoin="round"/>
<path d="M9.5 20L15.5 4" stroke="#E1DEF5" stroke-opacity="0.7" stroke-width="1.5" stroke-linecap="round" stroke-linejoin="round"/>
</svg>
