<svg width="25" height="24" viewBox="0 0 25 24" fill="none" xmlns="http://www.w3.org/2000/svg">
<path d="M18.5 18.75C18.9142 18.75 19.25 18.4142 19.25 18C19.25 17.5858 18.9142 17.25 18.5 17.25V18.75ZM6.5 6.75C6.91421 6.75 7.25 6.41421 7.25 6C7.25 5.58579 6.91421 5.25 6.5 5.25V6.75ZM10.5 5.25C10.0858 5.25 9.75 5.58579 9.75 6C9.75 6.41421 10.0858 6.75 10.5 6.75V5.25ZM21.3811 16.8862C21.0874 17.1783 21.0861 17.6532 21.3782 17.9469C21.6703 18.2406 22.1452 18.2419 22.4389 17.9498L21.3811 16.8862ZM18.5 17.25H4.5V18.75H18.5V17.25ZM4.5 17.25C3.80964 17.25 3.25 16.6904 3.25 16H1.75C1.75 17.5188 2.98122 18.75 4.5 18.75V17.25ZM3.25 16V8H1.75V16H3.25ZM3.25 8C3.25 7.30964 3.80964 6.75 4.5 6.75V5.25C2.98122 5.25 1.75 6.48122 1.75 8H3.25ZM4.5 6.75H6.5V5.25H4.5V6.75ZM10.5 6.75H20.5V5.25H10.5V6.75ZM20.5 6.75C21.1904 6.75 21.75 7.30964 21.75 8H23.25C23.25 6.48122 22.0188 5.25 20.5 5.25V6.75ZM21.75 8V16H23.25V8H21.75ZM21.75 16C21.75 16.346 21.6096 16.659 21.3811 16.8862L22.4389 17.9498C22.9384 17.453 23.25 16.762 23.25 16H21.75Z" fill="#2F2B3D" fill-opacity="0.9"/>
<path d="M6.5 9.99988V10.0099" stroke="#2F2B3D" stroke-opacity="0.9" stroke-width="1.5" stroke-linecap="round" stroke-linejoin="round"/>
<path d="M10.5 9.99988V10.0099" stroke="#2F2B3D" stroke-opacity="0.9" stroke-width="1.5" stroke-linecap="round" stroke-linejoin="round"/>
<path d="M14.5 9.99988V10.0099" stroke="#2F2B3D" stroke-opacity="0.9" stroke-width="1.5" stroke-linecap="round" stroke-linejoin="round"/>
<path d="M18.5 9.99988V10.0099" stroke="#2F2B3D" stroke-opacity="0.9" stroke-width="1.5" stroke-linecap="round" stroke-linejoin="round"/>
<path d="M6.5 13.9999V14.0099" stroke="#2F2B3D" stroke-opacity="0.9" stroke-width="1.5" stroke-linecap="round" stroke-linejoin="round"/>
<path d="M18.5 13.9999V14.0099" stroke="#2F2B3D" stroke-opacity="0.9" stroke-width="1.5" stroke-linecap="round" stroke-linejoin="round"/>
<path d="M10.5 14H14.5" stroke="#2F2B3D" stroke-opacity="0.9" stroke-width="1.5" stroke-linecap="round" stroke-linejoin="round"/>
<path d="M3.5 3L21.5 21" stroke="#2F2B3D" stroke-opacity="0.9" stroke-width="1.5" stroke-linecap="round" stroke-linejoin="round"/>
</svg>
