<svg width="25" height="24" viewBox="0 0 25 24" fill="none" xmlns="http://www.w3.org/2000/svg">
<path d="M16.5 16V18C16.5 19.1046 15.6046 20 14.5 20H6.5C5.39543 20 4.5 19.1046 4.5 18V10C4.5 8.89543 5.39543 8 6.5 8H8.5V6C8.5 4.89543 9.39543 4 10.5 4H18.5C19.6046 4 20.5 4.89543 20.5 6V14C20.5 15.1046 19.6046 16 18.5 16H16.5" stroke="#ACAAB1" stroke-width="1.5" stroke-linecap="round" stroke-linejoin="round"/>
<path d="M10.5 8H8.5V10" stroke="#ACAAB1" stroke-width="1.5" stroke-linecap="round" stroke-linejoin="round"/>
<path d="M8.5 14V16H10.5" stroke="#ACAAB1" stroke-width="1.5" stroke-linecap="round" stroke-linejoin="round"/>
<path d="M14.5 8H16.5V10" stroke="#ACAAB1" stroke-width="1.5" stroke-linecap="round" stroke-linejoin="round"/>
<path d="M16.5 14V16H14.5" stroke="#ACAAB1" stroke-width="1.5" stroke-linecap="round" stroke-linejoin="round"/>
</svg>
