<svg width="25" height="24" viewBox="0 0 25 24" fill="none" xmlns="http://www.w3.org/2000/svg">
<path d="M19.5 8.268C20.1188 8.62526 20.5 9.28549 20.5 10V18C20.5 19.1046 19.6046 20 18.5 20H10.5C9.39543 20 8.5 19.1046 8.5 18V10C8.5 8.89543 9.39543 8 10.5 8H13.5" stroke="#6D6B77" stroke-width="1.5" stroke-linecap="round" stroke-linejoin="round"/>
<path d="M5.503 15.734C4.88244 15.3772 4.49992 14.7158 4.5 14V6C4.5 4.89543 5.39543 4 6.5 4H14.5C15.6046 4 16.5 4.89543 16.5 6V14C16.5 15.1046 15.6046 16 14.5 16H11.5" stroke="#6D6B77" stroke-width="1.5" stroke-linecap="round" stroke-linejoin="round"/>
</svg>
