<svg width="22" height="22" viewBox="0 0 22 22" fill="none" xmlns="http://www.w3.org/2000/svg">
<g id="layout-grid-add">
<rect id="Rectangle" x="3.66675" y="3.66666" width="5.5" height="5.5" rx="1" stroke="#E1DEF5" stroke-opacity="0.9" stroke-width="1.5" stroke-linecap="round" stroke-linejoin="round"/>
<rect id="Rectangle_2" x="12.8333" y="3.66666" width="5.5" height="5.5" rx="1" stroke="#E1DEF5" stroke-opacity="0.9" stroke-width="1.5" stroke-linecap="round" stroke-linejoin="round"/>
<rect id="Rectangle_3" x="3.66675" y="12.8333" width="5.5" height="5.5" rx="1" stroke="#E1DEF5" stroke-opacity="0.9" stroke-width="1.5" stroke-linecap="round" stroke-linejoin="round"/>
<path id="Shape" d="M12.8333 14.8333C12.419 14.8333 12.0833 15.1691 12.0833 15.5833C12.0833 15.9975 12.419 16.3333 12.8333 16.3333V14.8333ZM18.3333 16.3333C18.7475 16.3333 19.0833 15.9975 19.0833 15.5833C19.0833 15.1691 18.7475 14.8333 18.3333 14.8333V16.3333ZM16.3333 12.8333C16.3333 12.4191 15.9975 12.0833 15.5833 12.0833C15.169 12.0833 14.8333 12.4191 14.8333 12.8333H16.3333ZM14.8333 18.3333C14.8333 18.7476 15.169 19.0833 15.5833 19.0833C15.9975 19.0833 16.3333 18.7476 16.3333 18.3333H14.8333ZM12.8333 16.3333H18.3333V14.8333H12.8333V16.3333ZM14.8333 12.8333V18.3333H16.3333V12.8333H14.8333Z" fill="#E1DEF5" fill-opacity="0.9"/>
</g>
</svg>
