<svg width="25" height="24" viewBox="0 0 25 24" fill="none" xmlns="http://www.w3.org/2000/svg">
<rect x="4.5" y="4" width="6" height="6" rx="1" stroke="#6D6B77" stroke-width="1.5" stroke-linecap="round" stroke-linejoin="round"/>
<rect x="14.5" y="4" width="6" height="6" rx="1" stroke="#6D6B77" stroke-width="1.5" stroke-linecap="round" stroke-linejoin="round"/>
<rect x="4.5" y="14" width="6" height="6" rx="1" stroke="#6D6B77" stroke-width="1.5" stroke-linecap="round" stroke-linejoin="round"/>
<path d="M14.5 16.25C14.0858 16.25 13.75 16.5858 13.75 17C13.75 17.4142 14.0858 17.75 14.5 17.75V16.25ZM20.5 17.75C20.9142 17.75 21.25 17.4142 21.25 17C21.25 16.5858 20.9142 16.25 20.5 16.25V17.75ZM18.25 14C18.25 13.5858 17.9142 13.25 17.5 13.25C17.0858 13.25 16.75 13.5858 16.75 14H18.25ZM16.75 20C16.75 20.4142 17.0858 20.75 17.5 20.75C17.9142 20.75 18.25 20.4142 18.25 20H16.75ZM14.5 17.75H20.5V16.25H14.5V17.75ZM16.75 14V20H18.25V14H16.75Z" fill="#6D6B77"/>
</svg>
