<svg width="25" height="24" viewBox="0 0 25 24" fill="none" xmlns="http://www.w3.org/2000/svg">
<path fill-rule="evenodd" clip-rule="evenodd" d="M18.5 4.00006C19.3642 4.00014 20.1306 4.55531 20.4001 5.37645C20.6696 6.19759 20.3811 7.09893 19.685 7.61106C21.235 10.5511 20.558 14.5281 17.793 17.2931C15.028 20.0581 11.05 20.7351 8.111 19.1851C7.64477 19.8194 6.84979 20.1212 6.08005 19.9561C5.31032 19.791 4.70903 19.1897 4.54394 18.42C4.37885 17.6503 4.68067 16.8553 5.315 16.3891C3.765 13.4491 4.442 9.47206 7.207 6.70706C9.972 3.94206 13.95 3.26506 16.889 4.81506C17.2658 4.30256 17.8639 3.99994 18.5 4.00006Z" stroke="#6D6B77" stroke-width="1.5" stroke-linecap="round" stroke-linejoin="round"/>
</svg>
