<svg width="25" height="24" viewBox="0 0 25 24" fill="none" xmlns="http://www.w3.org/2000/svg">
<path d="M4.75 12C4.75 12.4142 5.08579 12.75 5.5 12.75C5.91421 12.75 6.25 12.4142 6.25 12H4.75ZM9.75 12C9.75 12.4142 10.0858 12.75 10.5 12.75C10.9142 12.75 11.25 12.4142 11.25 12H9.75ZM10.5 8.75C10.9142 8.75 11.25 8.41421 11.25 8C11.25 7.58579 10.9142 7.25 10.5 7.25V8.75ZM5.5 7.25C5.08579 7.25 4.75 7.58579 4.75 8C4.75 8.41421 5.08579 8.75 5.5 8.75V7.25ZM6.25 12V6.5H4.75V12H6.25ZM6.25 6.5C6.25 5.5335 7.0335 4.75 8 4.75V3.25C6.20507 3.25 4.75 4.70507 4.75 6.5H6.25ZM8 4.75C8.9665 4.75 9.75 5.5335 9.75 6.5H11.25C11.25 4.70507 9.79493 3.25 8 3.25V4.75ZM9.75 6.5V12H11.25V6.5H9.75ZM10.5 7.25H5.5V8.75H10.5V7.25Z" fill="#E1DEF5" fill-opacity="0.4"/>
<path d="M13.5 4L16.5 12L19.5 4" stroke="#E1DEF5" stroke-opacity="0.4" stroke-width="1.5" stroke-linecap="round" stroke-linejoin="round"/>
<path d="M5.5 18H19.5" stroke="#E1DEF5" stroke-opacity="0.4" stroke-width="1.5" stroke-linecap="round" stroke-linejoin="round"/>
<path d="M17.5 20L19.5 18L17.5 16" stroke="#E1DEF5" stroke-opacity="0.4" stroke-width="1.5" stroke-linecap="round" stroke-linejoin="round"/>
<path d="M7.5 16L5.5 18L7.5 20" stroke="#E1DEF5" stroke-opacity="0.4" stroke-width="1.5" stroke-linecap="round" stroke-linejoin="round"/>
</svg>
