<svg width="25" height="24" viewBox="0 0 25 24" fill="none" xmlns="http://www.w3.org/2000/svg">
<path d="M15.5 21.75C15.9142 21.75 16.25 21.4142 16.25 21C16.25 20.5858 15.9142 20.25 15.5 20.25V21.75ZM3.5 17V16.25C3.08579 16.25 2.75 16.5858 2.75 17H3.5ZM13.5 17H14.25C14.25 16.5858 13.9142 16.25 13.5 16.25V17ZM17.5 6.25C17.0858 6.25 16.75 6.58579 16.75 7C16.75 7.41421 17.0858 7.75 17.5 7.75V6.25ZM19.5 3.75C19.9142 3.75 20.25 3.41421 20.25 3C20.25 2.58579 19.9142 2.25 19.5 2.25V3.75ZM4.75 17C4.75 17.4142 5.08579 17.75 5.5 17.75C5.91421 17.75 6.25 17.4142 6.25 17H4.75ZM15.5 20.25H6.5V21.75H15.5V20.25ZM6.5 20.25C5.25736 20.25 4.25 19.2426 4.25 18H2.75C2.75 20.0711 4.42893 21.75 6.5 21.75V20.25ZM4.25 18V17H2.75V18H4.25ZM3.5 17.75H13.5V16.25H3.5V17.75ZM12.75 17V19H14.25V17H12.75ZM12.75 19C12.75 20.5188 13.9812 21.75 15.5 21.75V20.25C14.8096 20.25 14.25 19.6904 14.25 19H12.75ZM15.5 21.75C17.0188 21.75 18.25 20.5188 18.25 19H16.75C16.75 19.6904 16.1904 20.25 15.5 20.25V21.75ZM18.25 19V5H16.75V19H18.25ZM18.25 5C18.25 4.30964 18.8096 3.75 19.5 3.75V2.25C17.9812 2.25 16.75 3.48122 16.75 5H18.25ZM19.5 3.75C20.1904 3.75 20.75 4.30964 20.75 5H22.25C22.25 3.48122 21.0188 2.25 19.5 2.25V3.75ZM20.75 5C20.75 5.69036 20.1904 6.25 19.5 6.25V7.75C21.0188 7.75 22.25 6.51878 22.25 5H20.75ZM19.5 6.25H17.5V7.75H19.5V6.25ZM19.5 2.25H8.5V3.75H19.5V2.25ZM8.5 2.25C6.42893 2.25 4.75 3.92893 4.75 6H6.25C6.25 4.75736 7.25736 3.75 8.5 3.75V2.25ZM4.75 6V17H6.25V6H4.75Z" fill="#E1DEF5" fill-opacity="0.9"/>
<path d="M9.5 7H13.5" stroke="#E1DEF5" stroke-opacity="0.9" stroke-width="1.5" stroke-linecap="round" stroke-linejoin="round"/>
<path d="M9.5 11H13.5" stroke="#E1DEF5" stroke-opacity="0.9" stroke-width="1.5" stroke-linecap="round" stroke-linejoin="round"/>
</svg>
