<svg width="38" height="38" viewBox="0 0 38 38" fill="none" xmlns="http://www.w3.org/2000/svg">
<g id="Lightbulb">
<path id="Vector" opacity="0.2" d="M11.6819 24.7891C10.2682 23.6898 9.12318 22.2832 8.33364 20.6759C7.5441 19.0685 7.13075 17.3025 7.12488 15.5117C7.0952 9.06954 12.2757 3.71095 18.7179 3.56251C21.2111 3.50341 23.6597 4.23078 25.7163 5.64147C27.773 7.05217 29.3332 9.07457 30.1759 11.4219C31.0186 13.7691 31.1008 16.3221 30.411 18.7188C29.7211 21.1154 28.2943 23.2341 26.3327 24.7742C25.8994 25.1092 25.5484 25.5388 25.3066 26.0301C25.0647 26.5215 24.9384 27.0617 24.9374 27.6094V28.5C24.9374 28.815 24.8123 29.117 24.5896 29.3397C24.3669 29.5624 24.0648 29.6875 23.7499 29.6875H14.2499C13.9349 29.6875 13.6329 29.5624 13.4102 29.3397C13.1875 29.117 13.0624 28.815 13.0624 28.5V27.6094C13.0587 27.0658 12.9327 26.5301 12.6937 26.0418C12.4547 25.5536 12.1089 25.1255 11.6819 24.7891Z" fill="#00BAD1"/>
<path id="Union" fill-rule="evenodd" clip-rule="evenodd" d="M25.1507 6.46609C23.2672 5.17419 21.0248 4.50807 18.7416 4.5622L18.7409 4.56221C18.498 4.56781 18.2571 4.58151 18.0184 4.60305L18.6948 2.56275C21.3978 2.49881 24.0523 3.28743 26.282 4.8168C28.5118 6.34629 30.2035 8.53899 31.1171 11.0839C32.0307 13.6289 32.1199 16.3969 31.372 18.9954C30.624 21.5938 29.077 23.8909 26.9502 25.5607L26.9443 25.5654L26.9443 25.5654C26.6316 25.8071 26.3783 26.1171 26.2038 26.4717C26.0293 26.8263 25.9381 27.2161 25.9374 27.6113V28.5C25.9374 29.0801 25.7069 29.6365 25.2967 30.0468C24.8864 30.457 24.33 30.6875 23.7499 30.6875H14.2499C13.6697 30.6875 13.1133 30.457 12.7031 30.0468C12.2929 29.6365 12.0624 29.0801 12.0624 28.5V27.6131C12.0592 27.2206 11.968 26.8339 11.7955 26.4815C11.6229 26.1289 11.3734 25.8196 11.0653 25.5764L11.7412 23.5378C11.9205 23.6976 12.1055 23.8517 12.2957 23.9996L11.6819 24.7891L12.3007 24.0035C12.8456 24.4328 13.2869 24.9792 13.5919 25.6022C13.8968 26.2252 14.0576 26.9089 14.0624 27.6025L14.0624 27.6094L14.0624 28.5C14.0624 28.5497 14.0821 28.5974 14.1173 28.6326C14.1525 28.6677 14.2002 28.6875 14.2499 28.6875H23.7499C23.7996 28.6875 23.8473 28.6677 23.8825 28.6326C23.9176 28.5974 23.9374 28.5497 23.9374 28.5V27.6094L23.9374 27.6074C23.9387 26.9073 24.1002 26.2167 24.4093 25.5885C24.7179 24.9616 25.1654 24.4133 25.7179 23.9855C27.5129 22.5752 28.8186 20.6359 29.45 18.4422C30.0817 16.2473 30.0064 13.9093 29.2347 11.7597C28.463 9.61009 27.0341 7.75799 25.1507 6.46609ZM11.7411 23.5378L11.7412 23.5378L18.0184 4.60305L18.0178 4.6031L18.6942 2.56276C11.7041 2.72418 6.09307 8.53234 6.12489 15.5156C6.13135 17.458 6.57973 19.3733 7.43608 21.1167C8.29201 22.8593 9.53308 24.3843 11.0653 25.5764L11.7411 23.5378ZM11.7411 23.5378C10.7006 22.6109 9.84757 21.4898 9.23121 20.235C8.50857 18.7638 8.13024 17.1475 8.12488 15.5084L8.12487 15.5071C8.0988 9.84987 12.4635 5.10456 18.0178 4.6031L11.7411 23.5378ZM12.0625 34.4375C12.0625 33.8852 12.5102 33.4375 13.0625 33.4375H24.9375C25.4898 33.4375 25.9375 33.8852 25.9375 34.4375C25.9375 34.9898 25.4898 35.4375 24.9375 35.4375H13.0625C12.5102 35.4375 12.0625 34.9898 12.0625 34.4375ZM20.3695 7.44532C19.8249 7.35302 19.3087 7.71961 19.2164 8.26412C19.1241 8.80864 19.4907 9.32489 20.0352 9.41719C21.2825 9.62862 22.4333 10.222 23.329 11.1154C24.2247 12.0087 24.821 13.1581 25.0356 14.4048C25.1293 14.9491 25.6465 15.3144 26.1907 15.2207C26.735 15.127 27.1003 14.6098 27.0066 14.0655C26.7217 12.4107 25.9303 10.8851 24.7414 9.69934C23.5526 8.51353 22.025 7.72596 20.3695 7.44532Z" fill="#00BAD1"/>
</g>
</svg>
