<svg width="25" height="24" viewBox="0 0 25 24" fill="none" xmlns="http://www.w3.org/2000/svg">
<path d="M10.5 13.9999C11.1583 14.6718 12.0594 15.0504 13 15.0504C13.9406 15.0504 14.8417 14.6718 15.5 13.9999L19.5 9.99989C20.8807 8.61918 20.8807 6.3806 19.5 4.99989C18.1193 3.61918 15.8807 3.61918 14.5 4.99989L14 5.49989" stroke="#2F2B3D" stroke-opacity="0.9" stroke-width="1.5" stroke-linecap="round" stroke-linejoin="round"/>
<path d="M14.4999 9.99973C13.8416 9.32784 12.9405 8.94922 11.9999 8.94922C11.0592 8.94922 10.1582 9.32784 9.49989 9.99973L5.49989 13.9997C4.11918 15.3804 4.11918 17.619 5.49989 18.9997C6.8806 20.3804 9.11918 20.3804 10.4999 18.9997L10.9999 18.4997" stroke="#2F2B3D" stroke-opacity="0.9" stroke-width="1.5" stroke-linecap="round" stroke-linejoin="round"/>
</svg>
