<svg width="23" height="23" viewBox="0 0 23 23" fill="none" xmlns="http://www.w3.org/2000/svg">
<g id="link">
<path id="Path" d="M9.83301 13.4333C10.4365 14.0492 11.2624 14.3963 12.1247 14.3963C12.9869 14.3963 13.8129 14.0492 14.4163 13.4333L18.083 9.76667C19.3487 8.50102 19.3487 6.44899 18.083 5.18334C16.8174 3.91769 14.7653 3.91769 13.4997 5.18334L13.0413 5.64167" stroke="#00BAD1" stroke-width="1.5" stroke-linecap="round" stroke-linejoin="round"/>
<path id="Path_2" d="M13.4995 9.76665C12.8961 9.15075 12.0701 8.80368 11.2079 8.80368C10.3456 8.80368 9.51965 9.15075 8.9162 9.76665L5.24953 13.4333C3.98388 14.699 3.98388 16.751 5.24953 18.0166C6.51519 19.2823 8.56721 19.2823 9.83287 18.0166L10.2912 17.5583" stroke="#00BAD1" stroke-width="1.5" stroke-linecap="round" stroke-linejoin="round"/>
</g>
</svg>
