<svg width="18" height="18" viewBox="0 0 18 18" fill="none" xmlns="http://www.w3.org/2000/svg">
<g id="Icon">
<path id="Path" d="M7.5 10.5C7.99373 11.0039 8.66952 11.2879 9.375 11.2879C10.0805 11.2879 10.7563 11.0039 11.25 10.5L14.25 7.50001C15.2855 6.46447 15.2855 4.78554 14.25 3.75001C13.2145 2.71447 11.5355 2.71447 10.5 3.75001L10.125 4.12501" stroke="#7367F0" stroke-width="1.5" stroke-linecap="round" stroke-linejoin="round"/>
<path id="Path_2" d="M10.4998 7.49998C10.0061 6.99607 9.33028 6.7121 8.62479 6.7121C7.91931 6.7121 7.24353 6.99607 6.74979 7.49998L3.74979 10.5C2.71426 11.5355 2.71426 13.2144 3.74979 14.25C4.78533 15.2855 6.46426 15.2855 7.49979 14.25L7.87479 13.875" stroke="#7367F0" stroke-width="1.5" stroke-linecap="round" stroke-linejoin="round"/>
</g>
</svg>
