<svg width="18" height="18" viewBox="0 0 18 18" fill="none" xmlns="http://www.w3.org/2000/svg">
<path d="M7.5 10.4998C7.99373 11.0037 8.66952 11.2877 9.375 11.2877C10.0805 11.2877 10.7563 11.0037 11.25 10.4998L14.25 7.49979C15.2855 6.46426 15.2855 4.78533 14.25 3.74979C13.2145 2.71426 11.5355 2.71426 10.5 3.74979L10.125 4.12479" stroke="#F8F7FA" stroke-linecap="round" stroke-linejoin="round"/>
<path d="M10.4993 7.4998C10.0056 6.99588 9.32979 6.71191 8.62431 6.71191C7.91883 6.71191 7.24304 6.99588 6.74931 7.4998L3.74931 10.4998C2.71377 11.5353 2.71377 13.2143 3.74931 14.2498C4.78484 15.2853 6.46377 15.2853 7.49931 14.2498L7.87431 13.8748" stroke="#F8F7FA" stroke-linecap="round" stroke-linejoin="round"/>
</svg>
