<svg width="25" height="24" viewBox="0 0 25 24" fill="none" xmlns="http://www.w3.org/2000/svg">
<path d="M4.5 8V6C4.5 4.89543 5.39543 4 6.5 4H8.5" stroke="#E1DEF5" stroke-opacity="0.7" stroke-width="1.5" stroke-linecap="round" stroke-linejoin="round"/>
<path d="M4.5 16V18C4.5 19.1046 5.39543 20 6.5 20H8.5" stroke="#E1DEF5" stroke-opacity="0.7" stroke-width="1.5" stroke-linecap="round" stroke-linejoin="round"/>
<path d="M16.5 4H18.5C19.6046 4 20.5 4.89543 20.5 6V8" stroke="#E1DEF5" stroke-opacity="0.7" stroke-width="1.5" stroke-linecap="round" stroke-linejoin="round"/>
<path d="M16.5 20H18.5C19.6046 20 20.5 19.1046 20.5 18V16" stroke="#E1DEF5" stroke-opacity="0.7" stroke-width="1.5" stroke-linecap="round" stroke-linejoin="round"/>
<path d="M12.5 11V11.01" stroke="#E1DEF5" stroke-opacity="0.7" stroke-width="1.5" stroke-linecap="round" stroke-linejoin="round"/>
<path d="M12.5 18L8.99998 13C8.06909 11.3175 8.46704 9.21072 9.9475 7.98372C11.428 6.75673 13.572 6.75673 15.0525 7.98372C16.5329 9.21072 16.9309 11.3175 16 13L12.5 18" stroke="#E1DEF5" stroke-opacity="0.7" stroke-width="1.5" stroke-linecap="round" stroke-linejoin="round"/>
</svg>
