<svg width="14" height="14" viewBox="0 0 14 14" fill="none" xmlns="http://www.w3.org/2000/svg">
<g id="Loading">
<circle id="Ellipse" cx="7" cy="7" r="6" stroke="#2F2B3D" stroke-opacity="0.3" stroke-width="2"/>
<g id="Ellipse_2">
<mask id="path-2-inside-1_4_339214" fill="white">
<path d="M14 7C14 5.70904 13.643 4.44323 12.9685 3.34251C12.294 2.24179 11.3282 1.34904 10.1779 0.762954C9.02768 0.176872 7.73776 -0.0797086 6.45079 0.0215786C5.16381 0.122866 3.92991 0.578076 2.8855 1.33688L4.03756 2.92255C4.78953 2.37621 5.67794 2.04846 6.60457 1.97554C7.53119 1.90261 8.45993 2.08735 9.28811 2.50933C10.1163 2.93131 10.8117 3.57409 11.2973 4.36661C11.783 5.15913 12.04 6.07051 12.04 7H14Z"/>
</mask>
<path d="M14 7C14 5.70904 13.643 4.44323 12.9685 3.34251C12.294 2.24179 11.3282 1.34904 10.1779 0.762954C9.02768 0.176872 7.73776 -0.0797086 6.45079 0.0215786C5.16381 0.122866 3.92991 0.578076 2.8855 1.33688L4.03756 2.92255C4.78953 2.37621 5.67794 2.04846 6.60457 1.97554C7.53119 1.90261 8.45993 2.08735 9.28811 2.50933C10.1163 2.93131 10.8117 3.57409 11.2973 4.36661C11.783 5.15913 12.04 6.07051 12.04 7H14Z" stroke="#2F2B3D" stroke-opacity="0.7" stroke-width="4" mask="url(#path-2-inside-1_4_339214)"/>
</g>
</g>
</svg>
