<svg width="25" height="24" viewBox="0 0 25 24" fill="none" xmlns="http://www.w3.org/2000/svg">
<path d="M3.5 3L21.5 21" stroke="#2F2B3D" stroke-opacity="0.9" stroke-width="1.5" stroke-linecap="round" stroke-linejoin="round"/>
<path d="M20.25 19C20.25 18.5858 19.9142 18.25 19.5 18.25C19.0858 18.25 18.75 18.5858 18.75 19H20.25ZM11.5 11.75C11.9142 11.75 12.25 11.4142 12.25 11C12.25 10.5858 11.9142 10.25 11.5 10.25V11.75ZM15.5 10.25C15.0858 10.25 14.75 10.5858 14.75 11C14.75 11.4142 15.0858 11.75 15.5 11.75V10.25ZM18.75 15C18.75 15.4142 19.0858 15.75 19.5 15.75C19.9142 15.75 20.25 15.4142 20.25 15H18.75ZM18.75 19C18.75 19.6904 18.1904 20.25 17.5 20.25V21.75C19.0188 21.75 20.25 20.5188 20.25 19H18.75ZM17.5 20.25H7.5V21.75H17.5V20.25ZM7.5 20.25C6.80964 20.25 6.25 19.6904 6.25 19H4.75C4.75 20.5188 5.98122 21.75 7.5 21.75V20.25ZM6.25 19V13H4.75V19H6.25ZM6.25 13C6.25 12.3096 6.80964 11.75 7.5 11.75V10.25C5.98122 10.25 4.75 11.4812 4.75 13H6.25ZM7.5 11.75H11.5V10.25H7.5V11.75ZM15.5 11.75H17.5V10.25H15.5V11.75ZM17.5 11.75C18.1904 11.75 18.75 12.3096 18.75 13H20.25C20.25 11.4812 19.0188 10.25 17.5 10.25V11.75ZM18.75 13V15H20.25V13H18.75Z" fill="#2F2B3D" fill-opacity="0.9"/>
<circle cx="12.5" cy="16" r="1" stroke="#2F2B3D" stroke-opacity="0.9" stroke-width="1.5" stroke-linecap="round" stroke-linejoin="round"/>
<path d="M7.75 10.9999C7.75 11.4141 8.08579 11.7499 8.5 11.7499C8.91421 11.7499 9.25 11.4141 9.25 10.9999H7.75ZM9.25 7.99988C9.25 7.58566 8.91421 7.24988 8.5 7.24988C8.08579 7.24988 7.75 7.58566 7.75 7.99988H9.25ZM8.59554 4.29474C8.35965 4.63522 8.44444 5.10247 8.78492 5.33836C9.1254 5.57425 9.59265 5.48946 9.82854 5.14897L8.59554 4.29474ZM16.5 6.99986L15.75 6.99985V6.99986H16.5ZM15.75 10.9999C15.75 11.4141 16.0858 11.7499 16.5 11.7499C16.9142 11.7499 17.25 11.4141 17.25 10.9999H15.75ZM9.25 10.9999V7.99988H7.75V10.9999H9.25ZM9.82854 5.14897C10.638 3.98055 12.1129 3.47374 13.4696 3.89781L13.9171 2.46611C11.9342 1.84633 9.77864 2.58704 8.59554 4.29474L9.82854 5.14897ZM13.4696 3.89781C14.8263 4.32187 15.7501 5.57841 15.75 6.99985L17.25 6.99987C17.2501 4.92237 15.9 3.0859 13.9171 2.46611L13.4696 3.89781ZM15.75 6.99986V10.9999H17.25V6.99986H15.75Z" fill="#2F2B3D" fill-opacity="0.9"/>
</svg>
