<svg width="25" height="24" viewBox="0 0 25 24" fill="none" xmlns="http://www.w3.org/2000/svg">
<path d="M14.5 8V6C14.5 4.89543 13.6046 4 12.5 4H5.5C4.39543 4 3.5 4.89543 3.5 6V18C3.5 19.1046 4.39543 20 5.5 20H12.5C13.6046 20 14.5 19.1046 14.5 18V16" stroke="#6D6B77" stroke-width="1.5" stroke-linecap="round" stroke-linejoin="round"/>
<path d="M20.5 12.75C20.9142 12.75 21.25 12.4142 21.25 12C21.25 11.5858 20.9142 11.25 20.5 11.25V12.75ZM7.5 12L6.96967 11.4697C6.75517 11.6842 6.691 12.0068 6.80709 12.287C6.92318 12.5673 7.19665 12.75 7.5 12.75V12ZM11.0303 9.53033C11.3232 9.23744 11.3232 8.76256 11.0303 8.46967C10.7374 8.17678 10.2626 8.17678 9.96967 8.46967L11.0303 9.53033ZM9.96967 15.5303C10.2626 15.8232 10.7374 15.8232 11.0303 15.5303C11.3232 15.2374 11.3232 14.7626 11.0303 14.4697L9.96967 15.5303ZM8.03033 11.4697C7.73744 11.1768 7.26256 11.1768 6.96967 11.4697C6.67678 11.7626 6.67678 12.2374 6.96967 12.5303L8.03033 11.4697ZM20.5 11.25H7.5V12.75H20.5V11.25ZM8.03033 12.5303L11.0303 9.53033L9.96967 8.46967L6.96967 11.4697L8.03033 12.5303ZM11.0303 14.4697L8.03033 11.4697L6.96967 12.5303L9.96967 15.5303L11.0303 14.4697Z" fill="#6D6B77"/>
</svg>
