<svg width="15" height="14" viewBox="0 0 15 14" fill="none" xmlns="http://www.w3.org/2000/svg">
<g id="remix-icons/line/system/logout-box-r-line">
<path id="Vector" d="M3.41634 12.8333C3.26163 12.8333 3.11326 12.7719 3.00386 12.6625C2.89447 12.5531 2.83301 12.4047 2.83301 12.25V1.74999C2.83301 1.59528 2.89447 1.44691 3.00386 1.33751C3.11326 1.22811 3.26163 1.16666 3.41634 1.16666H11.583C11.7377 1.16666 11.8861 1.22811 11.9955 1.33751C12.1049 1.44691 12.1663 1.59528 12.1663 1.74999V3.49999H10.9997V2.33332H3.99967V11.6667H10.9997V10.5H12.1663V12.25C12.1663 12.4047 12.1049 12.5531 11.9955 12.6625C11.8861 12.7719 11.7377 12.8333 11.583 12.8333H3.41634ZM10.9997 9.33332V7.58332H6.91634V6.41666H10.9997V4.66666L13.9163 6.99999L10.9997 9.33332Z" fill="white"/>
</g>
</svg>
