<svg width="25" height="24" viewBox="0 0 25 24" fill="none" xmlns="http://www.w3.org/2000/svg">
<circle cx="14.5" cy="10" r="7" stroke="#6D6B77" stroke-width="1.5" stroke-linecap="round" stroke-linejoin="round"/>
<path d="M21.5 10C21.5 8.067 19.933 6.5 18 6.5C16.067 6.5 14.5 8.067 14.5 10" stroke="#6D6B77" stroke-width="1.5" stroke-linecap="round" stroke-linejoin="round"/>
<path d="M14.5 10C14.5 11.933 12.933 13.5 11 13.5C9.067 13.5 7.5 11.933 7.5 10" stroke="#6D6B77" stroke-width="1.5" stroke-linecap="round" stroke-linejoin="round"/>
<path d="M14.5 17C16.433 17 18 15.433 18 13.5C18 11.567 16.433 10 14.5 10" stroke="#6D6B77" stroke-width="1.5" stroke-linecap="round" stroke-linejoin="round"/>
<path d="M14.5 3C12.567 3 11 4.567 11 6.5C11 8.433 12.567 10 14.5 10" stroke="#6D6B77" stroke-width="1.5" stroke-linecap="round" stroke-linejoin="round"/>
<path d="M3.5 21L9.5 15" stroke="#6D6B77" stroke-width="1.5" stroke-linecap="round" stroke-linejoin="round"/>
</svg>
