<svg width="25" height="24" viewBox="0 0 25 24" fill="none" xmlns="http://www.w3.org/2000/svg">
<path fill-rule="evenodd" clip-rule="evenodd" d="M6.58104 20C8.19304 20 9.50004 18.665 9.50004 17.02V7.257C9.50004 6.563 8.94804 6 8.26804 6C8.06304 6 7.86304 6.052 7.68404 6.15L7.55404 6.233C6.09404 7.292 5.12204 8.88 4.15004 12.057C3.73004 13.427 3.51404 15.019 3.50204 16.832C3.49004 18.507 4.76304 19.886 6.37904 19.993L6.58204 20H6.58104Z" stroke="#E1DEF5" stroke-opacity="0.9" stroke-width="1.5" stroke-linecap="round" stroke-linejoin="round"/>
<path fill-rule="evenodd" clip-rule="evenodd" d="M18.42 20C16.807 20 15.5 18.665 15.5 17.02V7.257C15.5 6.563 16.052 6 16.733 6C16.937 6 17.138 6.052 17.317 6.15L17.447 6.233C18.907 7.292 19.879 8.88 20.852 12.057C21.272 13.427 21.488 15.019 21.5 16.832C21.512 18.507 20.239 19.886 18.622 19.993L18.42 20V20Z" stroke="#E1DEF5" stroke-opacity="0.9" stroke-width="1.5" stroke-linecap="round" stroke-linejoin="round"/>
<path d="M9.5 12C11.1569 12 12.5 10.6569 12.5 9C12.5 10.6569 13.8431 12 15.5 12" stroke="#E1DEF5" stroke-opacity="0.9" stroke-width="1.5" stroke-linecap="round" stroke-linejoin="round"/>
<path d="M12.5 4V9" stroke="#E1DEF5" stroke-opacity="0.9" stroke-width="1.5" stroke-linecap="round" stroke-linejoin="round"/>
</svg>
