<svg width="25" height="24" viewBox="0 0 25 24" fill="none" xmlns="http://www.w3.org/2000/svg">
<path d="M6.5 15C6.5 18.3137 9.18629 21 12.5 21C15.8137 21 18.5 18.3137 18.5 15" stroke="#6D6B77" stroke-width="1.5" stroke-linecap="round" stroke-linejoin="round"/>
<path d="M18.5 15C15.1863 15 12.5 17.6863 12.5 21" stroke="#6D6B77" stroke-width="1.5" stroke-linecap="round" stroke-linejoin="round"/>
<path d="M12.5 21C12.5 17.6863 9.81371 15 6.5 15" stroke="#6D6B77" stroke-width="1.5" stroke-linecap="round" stroke-linejoin="round"/>
<path d="M12.5 21V11" stroke="#6D6B77" stroke-width="1.5" stroke-linecap="round" stroke-linejoin="round"/>
<path fill-rule="evenodd" clip-rule="evenodd" d="M12.5 11C9.73858 11 7.5 8.76142 7.5 6V3L10.5 5L12.5 3L14.5 5L17.5 3V6C17.5 7.32608 16.9732 8.59785 16.0355 9.53553C15.0979 10.4732 13.8261 11 12.5 11V11Z" stroke="#6D6B77" stroke-width="1.5" stroke-linecap="round" stroke-linejoin="round"/>
</svg>
