<svg width="25" height="24" viewBox="0 0 25 24" fill="none" xmlns="http://www.w3.org/2000/svg">
<path d="M4.5 13V5C4.5 3.89543 5.39543 3 6.5 3H7.5C8.60457 3 9.5 3.89543 9.5 5V13C9.5 14.6569 10.8431 16 12.5 16C14.1569 16 15.5 14.6569 15.5 13V5C15.5 3.89543 16.3954 3 17.5 3H18.5C19.6046 3 20.5 3.89543 20.5 5V13C20.5 17.4183 16.9183 21 12.5 21C8.08172 21 4.5 17.4183 4.5 13" stroke="#2F2B3D" stroke-opacity="0.9" stroke-width="1.5" stroke-linecap="round" stroke-linejoin="round"/>
<path d="M4.5 8H9.5" stroke="#2F2B3D" stroke-opacity="0.9" stroke-width="1.5" stroke-linecap="round" stroke-linejoin="round"/>
<path d="M15.5 8H19.5" stroke="#2F2B3D" stroke-opacity="0.9" stroke-width="1.5" stroke-linecap="round" stroke-linejoin="round"/>
</svg>
