<svg width="25" height="24" viewBox="0 0 25 24" fill="none" xmlns="http://www.w3.org/2000/svg">
<path d="M3.5 3L21.5 21" stroke="#ACAAB1" stroke-width="1.5" stroke-linecap="round" stroke-linejoin="round"/>
<path d="M10.5797 9.82651C10.7959 9.47319 10.6848 9.01151 10.3315 8.79532C9.97814 8.57913 9.51646 8.69029 9.30027 9.04361L10.5797 9.82651ZM14.4578 14.1986C14.811 13.9822 14.9219 13.5205 14.7056 13.1673C14.4892 12.8141 14.0275 12.7031 13.6742 12.9195L14.4578 14.1986ZM14.75 11C14.75 11.4142 15.0858 11.75 15.5 11.75C15.9142 11.75 16.25 11.4142 16.25 11H14.75ZM12.5 7.25C12.0858 7.25 11.75 7.58579 11.75 8C11.75 8.41421 12.0858 8.75 12.5 8.75V7.25ZM9.30027 9.04361C8.39562 10.5221 8.62206 12.4278 9.84796 13.6532L10.9084 12.5922C10.1728 11.8571 10.037 10.7136 10.5797 9.82651L9.30027 9.04361ZM9.84796 13.6532C11.0739 14.8785 12.9798 15.104 14.4578 14.1986L13.6742 12.9195C12.7874 13.4627 11.6439 13.3274 10.9084 12.5922L9.84796 13.6532ZM16.25 11C16.25 8.92893 14.5711 7.25 12.5 7.25V8.75C13.7426 8.75 14.75 9.75736 14.75 11H16.25Z" fill="#ACAAB1"/>
<path d="M8.17685 3.39029C7.81691 3.59526 7.69127 4.05321 7.89623 4.41316C8.10119 4.7731 8.55915 4.89874 8.91909 4.69378L8.17685 3.39029ZM18.8081 14.5792C18.6033 14.9392 18.7291 15.3971 19.0891 15.6019C19.4491 15.8067 19.907 15.6809 20.1119 15.3209L18.8081 14.5792ZM18.1903 17.6865C18.4832 17.3936 18.4833 16.9187 18.1904 16.6258C17.8975 16.3329 17.4227 16.3328 17.1297 16.6257L18.1903 17.6865ZM13.915 20.9001L14.4451 21.4307L14.4453 21.4305L13.915 20.9001ZM11.088 20.9001L10.5577 21.4305L10.5579 21.4307L11.088 20.9001ZM6.844 16.6571L6.31371 17.1874L6.31373 17.1875L6.844 16.6571ZM6.93929 6.34826C7.20504 6.03053 7.16291 5.55753 6.84519 5.29178C6.52747 5.02602 6.05447 5.06815 5.78871 5.38588L6.93929 6.34826ZM8.91909 4.69378C11.7562 3.07825 15.3232 3.55834 17.6322 5.8665L18.6926 4.80565C15.9059 2.01993 11.601 1.44051 8.17685 3.39029L8.91909 4.69378ZM17.6322 5.8665C19.9412 8.17467 20.4226 11.7414 18.8081 14.5792L20.1119 15.3209C22.0604 11.8961 21.4794 7.59136 18.6926 4.80565L17.6322 5.8665ZM17.1297 16.6257L13.3847 20.3697L14.4453 21.4305L18.1903 17.6865L17.1297 16.6257ZM13.3849 20.3695C12.8969 20.857 12.1061 20.857 11.6181 20.3695L10.5579 21.4307C11.6317 22.5033 13.3713 22.5033 14.4451 21.4307L13.3849 20.3695ZM11.6183 20.3697L7.37427 16.1267L6.31373 17.1875L10.5577 21.4305L11.6183 20.3697ZM7.37429 16.1267C4.71887 13.4717 4.53011 9.22855 6.93929 6.34826L5.78871 5.38588C2.88109 8.86209 3.1089 13.9831 6.31371 17.1874L7.37429 16.1267Z" fill="#ACAAB1"/>
</svg>
