<svg width="25" height="24" viewBox="0 0 25 24" fill="none" xmlns="http://www.w3.org/2000/svg">
<path fill-rule="evenodd" clip-rule="evenodd" d="M11.328 9.828C12.4722 8.6841 12.8147 6.96354 12.1956 5.46869C11.5766 3.97385 10.118 2.99915 8.5 2.99915C6.88204 2.99915 5.42341 3.97385 4.80436 5.46869C4.18531 6.96354 4.52775 8.6841 5.672 9.828L8.5 12.657L11.328 9.828V9.828Z" stroke="#E1DEF5" stroke-opacity="0.7" stroke-width="1.5" stroke-linecap="round" stroke-linejoin="round"/>
<path d="M8.5 7V7.01" stroke="#E1DEF5" stroke-opacity="0.7" stroke-width="1.5" stroke-linecap="round" stroke-linejoin="round"/>
<path fill-rule="evenodd" clip-rule="evenodd" d="M19.328 17.828C20.4722 16.6841 20.8147 14.9635 20.1956 13.4687C19.5766 11.9738 18.118 10.9991 16.5 10.9991C14.882 10.9991 13.4234 11.9738 12.8044 13.4687C12.1853 14.9635 12.5278 16.6841 13.672 17.828L16.5 20.657L19.328 17.828Z" stroke="#E1DEF5" stroke-opacity="0.7" stroke-width="1.5" stroke-linecap="round" stroke-linejoin="round"/>
<path d="M16.5 15V15.01" stroke="#E1DEF5" stroke-opacity="0.7" stroke-width="1.5" stroke-linecap="round" stroke-linejoin="round"/>
</svg>
