<svg width="25" height="24" viewBox="0 0 25 24" fill="none" xmlns="http://www.w3.org/2000/svg">
<path fill-rule="evenodd" clip-rule="evenodd" d="M11.328 9.82788C12.4722 8.68398 12.8147 6.96341 12.1956 5.46857C11.5766 3.97372 10.118 2.99902 8.5 2.99902C6.88204 2.99902 5.42341 3.97372 4.80436 5.46857C4.18531 6.96341 4.52775 8.68398 5.672 9.82788L8.5 12.6569L11.328 9.82788V9.82788Z" stroke="#2F2B3D" stroke-opacity="0.9" stroke-width="1.5" stroke-linecap="round" stroke-linejoin="round"/>
<path d="M8.5 6.99988V7.00988" stroke="#2F2B3D" stroke-opacity="0.9" stroke-width="1.5" stroke-linecap="round" stroke-linejoin="round"/>
<path fill-rule="evenodd" clip-rule="evenodd" d="M19.328 17.8279C20.4722 16.684 20.8147 14.9634 20.1956 13.4686C19.5766 11.9737 18.118 10.999 16.5 10.999C14.882 10.999 13.4234 11.9737 12.8044 13.4686C12.1853 14.9634 12.5278 16.684 13.672 17.8279L16.5 20.6569L19.328 17.8279Z" stroke="#2F2B3D" stroke-opacity="0.9" stroke-width="1.5" stroke-linecap="round" stroke-linejoin="round"/>
<path d="M16.5 14.9999V15.0099" stroke="#2F2B3D" stroke-opacity="0.9" stroke-width="1.5" stroke-linecap="round" stroke-linejoin="round"/>
</svg>
