<svg width="25" height="24" viewBox="0 0 25 24" fill="none" xmlns="http://www.w3.org/2000/svg">
<rect x="3.5" y="5" width="18" height="14" rx="2" stroke="#ACAAB1" stroke-width="1.5" stroke-linecap="round" stroke-linejoin="round"/>
<path d="M7.5 15V9L9.5 11L11.5 9V15" stroke="#ACAAB1" stroke-width="1.5" stroke-linecap="round" stroke-linejoin="round"/>
<path d="M15.0303 12.4697C14.7374 12.1768 14.2626 12.1768 13.9697 12.4697C13.6768 12.7626 13.6768 13.2374 13.9697 13.5303L15.0303 12.4697ZM16.5 15L15.9697 15.5303C16.2626 15.8232 16.7374 15.8232 17.0303 15.5303L16.5 15ZM19.0303 13.5303C19.3232 13.2374 19.3232 12.7626 19.0303 12.4697C18.7374 12.1768 18.2626 12.1768 17.9697 12.4697L19.0303 13.5303ZM15.75 15C15.75 15.4142 16.0858 15.75 16.5 15.75C16.9142 15.75 17.25 15.4142 17.25 15H15.75ZM17.25 9C17.25 8.58579 16.9142 8.25 16.5 8.25C16.0858 8.25 15.75 8.58579 15.75 9H17.25ZM13.9697 13.5303L15.9697 15.5303L17.0303 14.4697L15.0303 12.4697L13.9697 13.5303ZM17.0303 15.5303L19.0303 13.5303L17.9697 12.4697L15.9697 14.4697L17.0303 15.5303ZM17.25 15V9H15.75V15H17.25Z" fill="#ACAAB1"/>
</svg>
