<svg width="25" height="24" viewBox="0 0 25 24" fill="none" xmlns="http://www.w3.org/2000/svg">
<path d="M3.75 6C3.75 6.41421 4.08579 6.75 4.5 6.75C4.91421 6.75 5.25 6.41421 5.25 6H3.75ZM6.5 4.75C6.91421 4.75 7.25 4.41421 7.25 4C7.25 3.58579 6.91421 3.25 6.5 3.25V4.75ZM9.5 3.25C9.08579 3.25 8.75 3.58579 8.75 4C8.75 4.41421 9.08579 4.75 9.5 4.75V3.25ZM11 4.75C11.4142 4.75 11.75 4.41421 11.75 4C11.75 3.58579 11.4142 3.25 11 3.25V4.75ZM14 3.25C13.5858 3.25 13.25 3.58579 13.25 4C13.25 4.41421 13.5858 4.75 14 4.75V3.25ZM15.5 4.75C15.9142 4.75 16.25 4.41421 16.25 4C16.25 3.58579 15.9142 3.25 15.5 3.25V4.75ZM18.5 3.25C18.0858 3.25 17.75 3.58579 17.75 4C17.75 4.41421 18.0858 4.75 18.5 4.75V3.25ZM19.75 6C19.75 6.41421 20.0858 6.75 20.5 6.75C20.9142 6.75 21.25 6.41421 21.25 6H19.75ZM21.25 9C21.25 8.58579 20.9142 8.25 20.5 8.25C20.0858 8.25 19.75 8.58579 19.75 9H21.25ZM19.75 10.5C19.75 10.9142 20.0858 11.25 20.5 11.25C20.9142 11.25 21.25 10.9142 21.25 10.5H19.75ZM21.25 13.5C21.25 13.0858 20.9142 12.75 20.5 12.75C20.0858 12.75 19.75 13.0858 19.75 13.5H21.25ZM19.75 15C19.75 15.4142 20.0858 15.75 20.5 15.75C20.9142 15.75 21.25 15.4142 21.25 15H19.75ZM21.25 18C21.25 17.5858 20.9142 17.25 20.5 17.25C20.0858 17.25 19.75 17.5858 19.75 18H21.25ZM18.5 19.25C18.0858 19.25 17.75 19.5858 17.75 20C17.75 20.4142 18.0858 20.75 18.5 20.75V19.25ZM15.5 20.75C15.9142 20.75 16.25 20.4142 16.25 20C16.25 19.5858 15.9142 19.25 15.5 19.25V20.75ZM14 19.25C13.5858 19.25 13.25 19.5858 13.25 20C13.25 20.4142 13.5858 20.75 14 20.75V19.25ZM11 20.75C11.4142 20.75 11.75 20.4142 11.75 20C11.75 19.5858 11.4142 19.25 11 19.25V20.75ZM9.5 19.25C9.08579 19.25 8.75 19.5858 8.75 20C8.75 20.4142 9.08579 20.75 9.5 20.75V19.25ZM6.5 20.75C6.91421 20.75 7.25 20.4142 7.25 20C7.25 19.5858 6.91421 19.25 6.5 19.25V20.75ZM5.25 18C5.25 17.5858 4.91421 17.25 4.5 17.25C4.08579 17.25 3.75 17.5858 3.75 18H5.25ZM3.75 15C3.75 15.4142 4.08579 15.75 4.5 15.75C4.91421 15.75 5.25 15.4142 5.25 15H3.75ZM5.25 13.5C5.25 13.0858 4.91421 12.75 4.5 12.75C4.08579 12.75 3.75 13.0858 3.75 13.5H5.25ZM3.75 10.5C3.75 10.9142 4.08579 11.25 4.5 11.25C4.91421 11.25 5.25 10.9142 5.25 10.5H3.75ZM5.25 9C5.25 8.58579 4.91421 8.25 4.5 8.25C4.08579 8.25 3.75 8.58579 3.75 9H5.25ZM5.25 6C5.25 5.30964 5.80964 4.75 6.5 4.75V3.25C4.98122 3.25 3.75 4.48122 3.75 6H5.25ZM9.5 4.75H11V3.25H9.5V4.75ZM14 4.75H15.5V3.25H14V4.75ZM18.5 4.75C19.1904 4.75 19.75 5.30964 19.75 6H21.25C21.25 4.48122 20.0188 3.25 18.5 3.25V4.75ZM19.75 9V10.5H21.25V9H19.75ZM19.75 13.5V15H21.25V13.5H19.75ZM19.75 18C19.75 18.6904 19.1904 19.25 18.5 19.25V20.75C20.0188 20.75 21.25 19.5188 21.25 18H19.75ZM15.5 19.25H14V20.75H15.5V19.25ZM11 19.25H9.5V20.75H11V19.25ZM6.5 19.25C5.80964 19.25 5.25 18.6904 5.25 18H3.75C3.75 19.5188 4.98122 20.75 6.5 20.75V19.25ZM5.25 15V13.5H3.75V15H5.25ZM5.25 10.5V9H3.75V10.5H5.25Z" fill="#2F2B3D" fill-opacity="0.9"/>
</svg>
