<svg width="25" height="24" viewBox="0 0 25 24" fill="none" xmlns="http://www.w3.org/2000/svg">
<path d="M20.4519 19.9388C20.7439 19.645 20.7425 19.1701 20.4487 18.8781C20.155 18.5861 19.6801 18.5875 19.3881 18.8813L20.4519 19.9388ZM18.5 20L18.5006 19.25H18.5V20ZM5.6176 5.11407C5.91089 4.82158 5.91155 4.34671 5.61906 4.05341C5.32657 3.76011 4.8517 3.75946 4.5584 4.05195L5.6176 5.11407ZM8.5 3.25C8.08579 3.25 7.75 3.58579 7.75 4C7.75 4.41421 8.08579 4.75 8.5 4.75V3.25ZM19.75 16C19.75 16.4142 20.0858 16.75 20.5 16.75C20.9142 16.75 21.25 16.4142 21.25 16H19.75ZM19.3881 18.8813C19.1532 19.1175 18.8337 19.2503 18.5006 19.25L18.4994 20.75C19.2323 20.7506 19.9352 20.4586 20.4519 19.9388L19.3881 18.8813ZM18.5 19.25H6.5V20.75H18.5V19.25ZM6.5 19.25C5.80964 19.25 5.25 18.6904 5.25 18H3.75C3.75 19.5188 4.98122 20.75 6.5 20.75V19.25ZM5.25 18V6.00001H3.75V18H5.25ZM5.25 6.00001C5.25 5.65336 5.38987 5.34117 5.6176 5.11407L4.5584 4.05195C4.06013 4.54885 3.75 5.23866 3.75 6.00001H5.25ZM8.5 4.75H18.5V3.25H8.5V4.75ZM18.5 4.75C19.1904 4.75 19.75 5.30964 19.75 6H21.25C21.25 4.48122 20.0188 3.25 18.5 3.25V4.75ZM19.75 6V16H21.25V6H19.75Z" fill="#2F2B3D" fill-opacity="0.9"/>
<path d="M10.9113 10.4065C11.2064 10.1158 11.21 9.64096 10.9193 9.34587C10.6287 9.05078 10.1538 9.0472 9.85871 9.33788L10.9113 10.4065ZM15.165 14.6379C15.4553 14.3424 15.4511 13.8676 15.1557 13.5773C14.8603 13.2869 14.3854 13.2911 14.0951 13.5865L15.165 14.6379ZM14.5346 11.038C14.7123 11.4121 15.1597 11.5714 15.5338 11.3937C15.908 11.216 16.0672 10.7686 15.8895 10.3944L14.5346 11.038ZM14.0935 8.60462C13.7187 8.42821 13.2719 8.58903 13.0955 8.9638C12.9191 9.33857 13.0799 9.78539 13.4546 9.96179L14.0935 8.60462ZM9.85871 9.33788C8.89908 10.2832 8.52016 11.6705 8.86604 12.9723L10.3157 12.5872C10.1082 11.8061 10.3356 10.9737 10.9113 10.4065L9.85871 9.33788ZM8.86604 12.9723C9.21191 14.2742 10.2294 15.2905 11.5317 15.6348L11.9151 14.1847C11.1338 13.9781 10.5233 13.3683 10.3157 12.5872L8.86604 12.9723ZM11.5317 15.6348C12.8339 15.9792 14.2208 15.5986 15.165 14.6379L14.0951 13.5865C13.5286 14.1629 12.6965 14.3913 11.9151 14.1847L11.5317 15.6348ZM15.8895 10.3944C15.516 9.60797 14.8812 8.97541 14.0935 8.60462L13.4546 9.96179C13.9283 10.1847 14.31 10.5651 14.5346 11.038L15.8895 10.3944Z" fill="#2F2B3D" fill-opacity="0.9"/>
<path d="M3.5 3L21.5 21" stroke="#2F2B3D" stroke-opacity="0.9" stroke-width="1.5" stroke-linecap="round" stroke-linejoin="round"/>
</svg>
