<svg width="25" height="24" viewBox="0 0 25 24" fill="none" xmlns="http://www.w3.org/2000/svg">
<path d="M20.4519 19.9388C20.7439 19.645 20.7425 19.1701 20.4487 18.8781C20.155 18.5861 19.6801 18.5875 19.3881 18.8813L20.4519 19.9388ZM18.5 20L18.5006 19.25H18.5V20ZM5.6176 5.11407C5.9109 4.82158 5.91155 4.34671 5.61906 4.05341C5.32657 3.76011 4.8517 3.75946 4.5584 4.05195L5.6176 5.11407ZM8.5 3.25C8.08579 3.25 7.75 3.58579 7.75 4C7.75 4.41421 8.08579 4.75 8.5 4.75V3.25ZM19.75 16C19.75 16.4142 20.0858 16.75 20.5 16.75C20.9142 16.75 21.25 16.4142 21.25 16H19.75ZM19.3881 18.8813C19.1532 19.1175 18.8337 19.2503 18.5006 19.25L18.4994 20.75C19.2323 20.7506 19.9352 20.4586 20.4519 19.9388L19.3881 18.8813ZM18.5 19.25H6.5V20.75H18.5V19.25ZM6.5 19.25C5.80964 19.25 5.25 18.6904 5.25 18H3.75C3.75 19.5188 4.98122 20.75 6.5 20.75V19.25ZM5.25 18V6.00001H3.75V18H5.25ZM5.25 6.00001C5.25 5.65336 5.38987 5.34117 5.6176 5.11407L4.5584 4.05195C4.06013 4.54885 3.75 5.23866 3.75 6.00001H5.25ZM8.5 4.75H18.5V3.25H8.5V4.75ZM18.5 4.75C19.1904 4.75 19.75 5.30964 19.75 6H21.25C21.25 4.48122 20.0188 3.25 18.5 3.25V4.75ZM19.75 6V16H21.25V6H19.75Z" fill="#E1DEF5" fill-opacity="0.7"/>
<path d="M10.9113 10.4063C11.2064 10.1156 11.21 9.64072 10.9193 9.34563C10.6287 9.05054 10.1538 9.04696 9.85871 9.33764L10.9113 10.4063ZM15.165 14.6376C15.4553 14.3422 15.4511 13.8673 15.1557 13.577C14.8603 13.2867 14.3854 13.2908 14.0951 13.5863L15.165 14.6376ZM14.5346 11.0377C14.7123 11.4119 15.1597 11.5711 15.5338 11.3934C15.908 11.2157 16.0672 10.7684 15.8895 10.3942L14.5346 11.0377ZM14.0935 8.60437C13.7187 8.42797 13.2719 8.58878 13.0955 8.96356C12.9191 9.33833 13.0799 9.78515 13.4546 9.96155L14.0935 8.60437ZM9.85871 9.33764C8.89908 10.2829 8.52016 11.6702 8.86604 12.9721L10.3157 12.5869C10.1082 11.8058 10.3356 10.9734 10.9113 10.4063L9.85871 9.33764ZM8.86604 12.9721C9.21191 14.2739 10.2294 15.2903 11.5317 15.6346L11.9151 14.1844C11.1338 13.9778 10.5233 13.368 10.3157 12.5869L8.86604 12.9721ZM11.5317 15.6346C12.8339 15.9789 14.2208 15.5984 15.165 14.6376L14.0951 13.5863C13.5286 14.1627 12.6965 14.391 11.9151 14.1844L11.5317 15.6346ZM15.8895 10.3942C15.516 9.60772 14.8812 8.97516 14.0935 8.60437L13.4546 9.96155C13.9283 10.1845 14.31 10.5648 14.5346 11.0377L15.8895 10.3942Z" fill="#E1DEF5" fill-opacity="0.7"/>
<path d="M3.5 3L21.5 21" stroke="#E1DEF5" stroke-opacity="0.7" stroke-width="1.5" stroke-linecap="round" stroke-linejoin="round"/>
</svg>
