<svg width="25" height="24" viewBox="0 0 25 24" fill="none" xmlns="http://www.w3.org/2000/svg">
<path d="M17.0303 12.4697C16.7374 12.1768 16.2626 12.1768 15.9697 12.4697C15.6768 12.7626 15.6768 13.2374 15.9697 13.5303L17.0303 12.4697ZM19.9697 17.5303C20.2626 17.8232 20.7374 17.8232 21.0303 17.5303C21.3232 17.2374 21.3232 16.7626 21.0303 16.4697L19.9697 17.5303ZM21.0303 13.5303C21.3232 13.2374 21.3232 12.7626 21.0303 12.4697C20.7374 12.1768 20.2626 12.1768 19.9697 12.4697L21.0303 13.5303ZM15.9697 16.4697C15.6768 16.7626 15.6768 17.2374 15.9697 17.5303C16.2626 17.8232 16.7374 17.8232 17.0303 17.5303L15.9697 16.4697ZM15.9697 13.5303L19.9697 17.5303L21.0303 16.4697L17.0303 12.4697L15.9697 13.5303ZM19.9697 12.4697L15.9697 16.4697L17.0303 17.5303L21.0303 13.5303L19.9697 12.4697Z" fill="#ACAAB1"/>
<path d="M20.5 5H13.5L9.5 19L6.5 13H4.5" stroke="#ACAAB1" stroke-width="1.5" stroke-linecap="round" stroke-linejoin="round"/>
</svg>
