<svg width="25" height="24" viewBox="0 0 25 24" fill="none" xmlns="http://www.w3.org/2000/svg">
<path d="M14.5 10H15.5C16.5 10 16.5 11 17.516 13.527C18.5 16 18.5 17 19.5 17H20.5" stroke="#E1DEF5" stroke-opacity="0.4" stroke-width="1.5" stroke-linecap="round" stroke-linejoin="round"/>
<path d="M13.5 17C15 17 16.5 15 17.5 13.5C18.5 12 20 10 21.5 10" stroke="#E1DEF5" stroke-opacity="0.4" stroke-width="1.5" stroke-linecap="round" stroke-linejoin="round"/>
<path d="M3.5 19C3.5 20.5 4 21 5.5 21C7 21 7.5 17 8.5 12C9.5 7 10 3 11.5 3C13 3 13.5 3.5 13.5 5" stroke="#E1DEF5" stroke-opacity="0.4" stroke-width="1.5" stroke-linecap="round" stroke-linejoin="round"/>
<path d="M5.5 12H11.5" stroke="#E1DEF5" stroke-opacity="0.4" stroke-width="1.5" stroke-linecap="round" stroke-linejoin="round"/>
</svg>
