<svg width="25" height="24" viewBox="0 0 25 24" fill="none" xmlns="http://www.w3.org/2000/svg">
<path d="M14.1201 8.38197L16.0861 6.41497C15.446 5.77501 15.3154 4.78488 15.7679 4.00089C16.2203 3.21689 17.1429 2.8345 18.0173 3.06857C18.8917 3.30264 19.4999 4.0948 19.5001 4.99997C20.4055 4.99933 21.1985 5.60704 21.4332 6.48151C21.6679 7.35599 21.2858 8.27907 20.5018 8.73189C19.7177 9.18471 18.7273 9.0543 18.0871 8.41397L16.2671 10.235" stroke="#E1DEF5" stroke-opacity="0.9" stroke-width="1.5" stroke-linecap="round" stroke-linejoin="round"/>
<ellipse cx="8.52496" cy="16.475" rx="7" ry="3" transform="rotate(45 8.52496 16.475)" stroke="#E1DEF5" stroke-opacity="0.9" stroke-width="1.5" stroke-linecap="round" stroke-linejoin="round"/>
<path d="M8 16L9 17" stroke="#E1DEF5" stroke-opacity="0.9" stroke-width="1.5" stroke-linecap="round" stroke-linejoin="round"/>
<path d="M13.4749 21.425C17.3799 17.519 18.3299 12.137 15.5959 9.40397C12.8629 6.66997 7.48093 7.61997 3.57593 11.525" stroke="#E1DEF5" stroke-opacity="0.9" stroke-width="1.5" stroke-linecap="round" stroke-linejoin="round"/>
</svg>
