<svg width="25" height="24" viewBox="0 0 25 24" fill="none" xmlns="http://www.w3.org/2000/svg">
<path d="M14.1201 8.3821L16.0861 6.4151C15.446 5.77514 15.3154 4.785 15.7679 4.00101C16.2203 3.21701 17.1429 2.83463 18.0173 3.06869C18.8917 3.30276 19.4999 4.09492 19.5001 5.0001C20.4055 4.99945 21.1985 5.60716 21.4332 6.48164C21.6679 7.35611 21.2858 8.27919 20.5018 8.73201C19.7177 9.18483 18.7273 9.05442 18.0871 8.4141L16.2671 10.2351" stroke="#2F2B3D" stroke-opacity="0.9" stroke-width="1.5" stroke-linecap="round" stroke-linejoin="round"/>
<ellipse cx="8.52496" cy="16.4749" rx="7" ry="3" transform="rotate(45 8.52496 16.4749)" stroke="#2F2B3D" stroke-opacity="0.9" stroke-width="1.5" stroke-linecap="round" stroke-linejoin="round"/>
<path d="M8 16L9 17" stroke="#2F2B3D" stroke-opacity="0.9" stroke-width="1.5" stroke-linecap="round" stroke-linejoin="round"/>
<path d="M13.4749 21.425C17.3799 17.519 18.3299 12.137 15.5959 9.40397C12.8629 6.66997 7.48093 7.61997 3.57593 11.525" stroke="#2F2B3D" stroke-opacity="0.9" stroke-width="1.5" stroke-linecap="round" stroke-linejoin="round"/>
</svg>
