<svg width="25" height="24" viewBox="0 0 25 24" fill="none" xmlns="http://www.w3.org/2000/svg">
<path d="M13.25 4C13.25 3.58579 12.9142 3.25 12.5 3.25C12.0858 3.25 11.75 3.58579 11.75 4H13.25ZM11.75 7C11.75 7.41421 12.0858 7.75 12.5 7.75C12.9142 7.75 13.25 7.41421 13.25 7H11.75ZM9.25 4C9.25 3.58579 8.91421 3.25 8.5 3.25C8.08579 3.25 7.75 3.58579 7.75 4H9.25ZM7.75 10C7.75 10.4142 8.08579 10.75 8.5 10.75C8.91421 10.75 9.25 10.4142 9.25 10H7.75ZM17.25 4C17.25 3.58579 16.9142 3.25 16.5 3.25C16.0858 3.25 15.75 3.58579 15.75 4H17.25ZM15.75 10C15.75 10.4142 16.0858 10.75 16.5 10.75C16.9142 10.75 17.25 10.4142 17.25 10H15.75ZM11.75 4V7H13.25V4H11.75ZM7.75 4V10H9.25V4H7.75ZM15.75 4V10H17.25V4H15.75Z" fill="#E1DEF5" fill-opacity="0.9"/>
<path fill-rule="evenodd" clip-rule="evenodd" d="M12.5 18.5L9.5 20L10 16.5L8 14.5L11 14L12.5 11L14 14L17 14.5L15 16.5L15.5 20L12.5 18.5Z" stroke="#E1DEF5" stroke-opacity="0.9" stroke-width="1.5" stroke-linecap="round" stroke-linejoin="round"/>
</svg>
