<svg width="25" height="24" viewBox="0 0 25 24" fill="none" xmlns="http://www.w3.org/2000/svg">
<path fill-rule="evenodd" clip-rule="evenodd" d="M13.4999 3C14.0522 3 14.4999 3.44772 14.4999 4V8.535L18.4279 6.268C18.9062 5.99187 19.5178 6.15573 19.7939 6.634L20.7939 8.366C21.07 8.84428 20.9062 9.45585 20.4279 9.732L16.5009 12L20.4279 14.269C20.9062 14.5452 21.07 15.1567 20.7939 15.635L19.7939 17.367C19.5178 17.8453 18.9062 18.0091 18.4279 17.733L14.4999 15.464V20C14.4999 20.5523 14.0522 21 13.4999 21H11.4999C10.9476 21 10.4999 20.5523 10.4999 20V15.464L6.57191 17.732C6.09363 18.0081 5.48206 17.8443 5.20591 17.366L4.20591 15.634C3.92978 15.1557 4.09365 14.5442 4.57191 14.268L8.49891 12L4.57191 9.732C4.09365 9.45585 3.92978 8.84428 4.20591 8.366L5.20591 6.634C5.48206 6.15573 6.09363 5.99187 6.57191 6.268L10.4999 8.535V4C10.4999 3.44772 10.9476 3 11.4999 3H13.4999Z" stroke="#E1DEF5" stroke-opacity="0.7" stroke-width="1.5" stroke-linecap="round" stroke-linejoin="round"/>
</svg>
