<svg width="25" height="24" viewBox="0 0 25 24" fill="none" xmlns="http://www.w3.org/2000/svg">
<path d="M3.5 3L21.5 21" stroke="#2F2B3D" stroke-opacity="0.9" stroke-width="1.5" stroke-linecap="round" stroke-linejoin="round"/>
<path d="M8.82706 3.87656C8.43811 4.019 8.23826 4.44977 8.3807 4.83873C8.52313 5.22768 8.95391 5.42752 9.34286 5.28509L8.82706 3.87656ZM18.745 6.20682L18.2582 6.7774L18.2584 6.77757L18.745 6.20682ZM19.7436 15.4703C19.5235 15.8211 19.6295 16.284 19.9804 16.5042C20.3313 16.7243 20.7942 16.6183 21.0143 16.2674L19.7436 15.4703ZM18.9345 18.5665C19.2601 18.3105 19.3166 17.839 19.0606 17.5134C18.8047 17.1877 18.3331 17.1313 18.0075 17.3872L18.9345 18.5665ZM8.2 18.9999L8.52765 18.3252C8.37746 18.2523 8.20723 18.2315 8.04392 18.2663L8.2 18.9999ZM3.5 19.9999L2.78849 19.7627C2.70342 20.0179 2.76154 20.2991 2.94079 20.4997C3.12004 20.7002 3.39298 20.7894 3.65608 20.7334L3.5 19.9999ZM4.8 16.0999L5.51151 16.337C5.58525 16.1158 5.5519 15.8729 5.42128 15.6797L4.8 16.0999ZM6.98046 6.60316C7.30481 6.34554 7.35891 5.87376 7.10129 5.54941C6.84367 5.22505 6.37189 5.17096 6.04754 5.42858L6.98046 6.60316ZM9.34286 5.28509C12.3317 4.19056 15.8503 4.72319 18.2582 6.7774L19.2317 5.63625C16.3836 3.20646 12.2882 2.60909 8.82706 3.87656L9.34286 5.28509ZM18.2584 6.77757C20.9697 9.08894 21.5059 12.6612 19.7436 15.4703L21.0143 16.2674C23.188 12.8025 22.4862 8.41071 19.2315 5.63607L18.2584 6.77757ZM18.0075 17.3872C15.4502 19.3975 11.6538 19.8435 8.52765 18.3252L7.87235 19.6745C11.5082 21.4403 15.9198 20.9363 18.9345 18.5665L18.0075 17.3872ZM8.04392 18.2663L3.34392 19.2663L3.65608 20.7334L8.35608 19.7334L8.04392 18.2663ZM4.21151 20.237L5.51151 16.337L4.08849 15.8627L2.78849 19.7627L4.21151 20.237ZM5.42128 15.6797C3.41732 12.7163 4.06517 8.91865 6.98046 6.60316L6.04754 5.42858C2.55683 8.20109 1.70868 12.8674 4.17872 16.52L5.42128 15.6797Z" fill="#2F2B3D" fill-opacity="0.9"/>
</svg>
