<svg width="25" height="24" viewBox="0 0 25 24" fill="none" xmlns="http://www.w3.org/2000/svg">
<path d="M3.5 3L21.5 21" stroke="#E1DEF5" stroke-opacity="0.4" stroke-width="1.5" stroke-linecap="round" stroke-linejoin="round"/>
<path d="M11.5 11.75C11.9142 11.75 12.25 11.4142 12.25 11C12.25 10.5858 11.9142 10.25 11.5 10.25V11.75ZM11.25 10C11.25 9.58579 10.9142 9.25 10.5 9.25C10.0858 9.25 9.75 9.58579 9.75 10H11.25ZM9.75 6.032C9.75 6.44621 10.0858 6.782 10.5 6.782C10.9142 6.782 11.25 6.44621 11.25 6.032H9.75ZM21.5 14L20.9697 14.5303C21.1842 14.7448 21.5068 14.809 21.787 14.6929C22.0673 14.5768 22.25 14.3033 22.25 14H21.5ZM18.5 11L19.0303 10.4697C18.8897 10.329 18.6989 10.25 18.5 10.25V11ZM15.5 10.25C15.0858 10.25 14.75 10.5858 14.75 11C14.75 11.4142 15.0858 11.75 15.5 11.75V10.25ZM11.5 10.25C11.3619 10.25 11.25 10.1381 11.25 10H9.75C9.75 10.9665 10.5335 11.75 11.5 11.75V10.25ZM11.25 6.032V4H9.75V6.032H11.25ZM11.25 4C11.25 3.86193 11.3619 3.75 11.5 3.75V2.25C10.5335 2.25 9.75 3.0335 9.75 4H11.25ZM11.5 3.75H20.5V2.25H11.5V3.75ZM20.5 3.75C20.6381 3.75 20.75 3.86193 20.75 4H22.25C22.25 3.0335 21.4665 2.25 20.5 2.25V3.75ZM20.75 4V14H22.25V4H20.75ZM22.0303 13.4697L19.0303 10.4697L17.9697 11.5303L20.9697 14.5303L22.0303 13.4697ZM18.5 10.25H15.5V11.75H18.5V10.25Z" fill="#E1DEF5" fill-opacity="0.4"/>
<path d="M14.5 15V17C14.5 17.5523 14.0523 18 13.5 18H6.5L3.5 21V11C3.5 10.4477 3.94772 10 4.5 10H6.5" stroke="#E1DEF5" stroke-opacity="0.4" stroke-width="1.5" stroke-linecap="round" stroke-linejoin="round"/>
</svg>
