<svg width="25" height="24" viewBox="0 0 25 24" fill="none" xmlns="http://www.w3.org/2000/svg">
<path d="M3.5 3L21.5 21" stroke="#E1DEF5" stroke-opacity="0.4" stroke-width="1.5" stroke-linecap="round" stroke-linejoin="round"/>
<path d="M8.82706 3.87668C8.4381 4.01912 8.23826 4.44989 8.3807 4.83885C8.52313 5.2278 8.95391 5.42764 9.34286 5.28521L8.82706 3.87668ZM18.745 6.20695L18.2582 6.77752L18.2584 6.7777L18.745 6.20695ZM19.7436 15.4704C19.5235 15.8213 19.6295 16.2841 19.9804 16.5043C20.3313 16.7244 20.7942 16.6184 21.0143 16.2675L19.7436 15.4704ZM18.9345 18.5666C19.2601 18.3106 19.3166 17.8391 19.0606 17.5135C18.8047 17.1878 18.3331 17.1314 18.0075 17.3874L18.9345 18.5666ZM8.2 19L8.52765 18.3253C8.37746 18.2524 8.20723 18.2317 8.04392 18.2664L8.2 19ZM3.5 20L2.78849 19.7628C2.70342 20.018 2.76154 20.2992 2.94079 20.4998C3.12004 20.7003 3.39298 20.7896 3.65608 20.7336L3.5 20ZM4.8 16.1L5.51151 16.3372C5.58525 16.1159 5.5519 15.873 5.42128 15.6799L4.8 16.1ZM6.98046 6.60328C7.30481 6.34567 7.35891 5.87388 7.10129 5.54953C6.84367 5.22518 6.37189 5.17108 6.04754 5.4287L6.98046 6.60328ZM9.34286 5.28521C12.3317 4.19068 15.8503 4.72331 18.2582 6.77752L19.2317 5.63637C16.3836 3.20658 12.2882 2.60921 8.82706 3.87668L9.34286 5.28521ZM18.2584 6.7777C20.9697 9.08906 21.5059 12.6613 19.7436 15.4704L21.0143 16.2675C23.188 12.8026 22.4862 8.41083 19.2315 5.6362L18.2584 6.7777ZM18.0075 17.3874C15.4502 19.3976 11.6538 19.8436 8.52765 18.3253L7.87235 19.6746C11.5082 21.4404 15.9198 20.9364 18.9345 18.5666L18.0075 17.3874ZM8.04392 18.2664L3.34392 19.2664L3.65608 20.7336L8.35608 19.7336L8.04392 18.2664ZM4.21151 20.2372L5.51151 16.3372L4.08849 15.8628L2.78849 19.7628L4.21151 20.2372ZM5.42128 15.6799C3.41732 12.7165 4.06517 8.91877 6.98046 6.60328L6.04754 5.4287C2.55683 8.20121 1.70868 12.8675 4.17872 16.5201L5.42128 15.6799Z" fill="#E1DEF5" fill-opacity="0.4"/>
</svg>
