<svg width="25" height="24" viewBox="0 0 25 24" fill="none" xmlns="http://www.w3.org/2000/svg">
<path d="M3.5 3L21.5 21" stroke="#E1DEF5" stroke-opacity="0.9" stroke-width="1.5" stroke-linecap="round" stroke-linejoin="round"/>
<path d="M17.5 17.75C17.9142 17.75 18.25 17.4142 18.25 17C18.25 16.5858 17.9142 16.25 17.5 16.25V17.75ZM8.5 17V16.25C8.30109 16.25 8.11032 16.329 7.96967 16.4697L8.5 17ZM4.5 21H3.75C3.75 21.3034 3.93273 21.5768 4.21299 21.6929C4.49324 21.809 4.81583 21.7448 5.03033 21.5303L4.5 21ZM6.33088 6.0771C6.68439 5.86123 6.79597 5.39965 6.58009 5.04613C6.36421 4.69262 5.90263 4.58105 5.54912 4.79692L6.33088 6.0771ZM9.50098 4.25C9.08676 4.25 8.75098 4.58579 8.75098 5C8.75098 5.41421 9.08676 5.75 9.50098 5.75V4.25ZM19.4198 15.1756C19.2031 15.5285 19.3135 15.9904 19.6665 16.2071C20.0195 16.4239 20.4814 16.3134 20.6981 15.9604L19.4198 15.1756ZM17.5 16.25H8.5V17.75H17.5V16.25ZM7.96967 16.4697L3.96967 20.4697L5.03033 21.5303L9.03033 17.5303L7.96967 16.4697ZM5.25 21V8.00001H3.75V21H5.25ZM5.25 8.00001C5.25 7.18664 5.68115 6.47386 6.33088 6.0771L5.54912 4.79692C4.47285 5.45416 3.75 6.64139 3.75 8.00001H5.25ZM9.50098 5.75H17.501V4.25H9.50098V5.75ZM17.501 5.75C18.7436 5.75 19.751 6.75736 19.751 8H21.251C21.251 5.92893 19.572 4.25 17.501 4.25V5.75ZM19.751 8V14H21.251V8H19.751ZM19.751 14C19.751 14.4322 19.6296 14.834 19.4198 15.1756L20.6981 15.9604C21.0484 15.39 21.251 14.7178 21.251 14H19.751Z" fill="#E1DEF5" fill-opacity="0.9"/>
</svg>
