<svg width="25" height="24" viewBox="0 0 25 24" fill="none" xmlns="http://www.w3.org/2000/svg">
<path d="M3.5 3L21.5 21" stroke="#6D6B77" stroke-width="1.5" stroke-linecap="round" stroke-linejoin="round"/>
<path d="M8.75 5C8.75 5.41421 9.08579 5.75 9.5 5.75C9.91421 5.75 10.25 5.41421 10.25 5H8.75ZM15.5 10L14.75 10L14.75 10.0001L15.5 10ZM14.6525 10.6556C14.5319 11.0519 14.7553 11.4709 15.1516 11.5915C15.5479 11.7121 15.9669 11.4887 16.0875 11.0924L14.6525 10.6556ZM13.5875 13.5917C13.9839 13.4716 14.2079 13.0529 14.0878 12.6565C13.9676 12.26 13.5489 12.0361 13.1525 12.1562L13.5875 13.5917ZM9.5 10.002L10.25 10.0022V10.002H9.5ZM10.25 9.00195C10.25 8.58774 9.91421 8.25195 9.5 8.25195C9.08579 8.25195 8.75 8.58774 8.75 9.00195H10.25ZM10.25 5C10.25 3.75736 11.2574 2.75 12.5 2.75V1.25C10.4289 1.25 8.75 2.92893 8.75 5H10.25ZM12.5 2.75C13.7426 2.75 14.75 3.75736 14.75 5H16.25C16.25 2.92893 14.5711 1.25 12.5 1.25V2.75ZM14.75 5V10H16.25V5H14.75ZM14.75 10.0001C14.75 10.2222 14.7172 10.4431 14.6525 10.6556L16.0875 11.0924C16.1953 10.7382 16.2501 10.3701 16.25 9.99989L14.75 10.0001ZM13.1525 12.1562C12.4707 12.3628 11.7313 12.2343 11.1591 11.8097L10.2652 13.0142C11.2188 13.7219 12.4511 13.9361 13.5875 13.5917L13.1525 12.1562ZM11.1591 11.8097C10.587 11.3851 10.2498 10.7146 10.25 10.0022L8.75 10.0017C8.74964 11.1892 9.31168 12.3066 10.2652 13.0142L11.1591 11.8097ZM10.25 10.002V9.00195H8.75V10.002H10.25Z" fill="#6D6B77"/>
<path d="M6.25 10.0001C6.25007 9.58592 5.91434 9.25007 5.50013 9.25C5.08592 9.24993 4.75007 9.58566 4.75 9.99987L6.25 10.0001ZM16.7581 16.4767C17.1042 16.2491 17.2002 15.784 16.9727 15.4379C16.7451 15.0918 16.28 14.9958 15.9339 15.2233L16.7581 16.4767ZM17.7219 13.4369C17.4938 13.7826 17.5891 14.2478 17.9348 14.476C18.2805 14.7041 18.7457 14.6088 18.9739 14.2631L17.7219 13.4369ZM20.2499 9.99863C20.2491 9.58442 19.9127 9.24925 19.4985 9.25C19.0843 9.25076 18.7491 9.58715 18.7499 10.0014L20.2499 9.99863ZM4.75 9.99987C4.74951 12.8495 6.31287 15.4695 8.82093 16.8223L9.53301 15.5021C7.51038 14.4111 6.2496 12.2982 6.25 10.0001L4.75 9.99987ZM8.82093 16.8223C11.329 18.175 14.3771 18.0423 16.7581 16.4767L15.9339 15.2233C14.0138 16.486 11.5556 16.593 9.53301 15.5021L8.82093 16.8223ZM18.9739 14.2631C19.8089 12.9978 20.2527 11.5146 20.2499 9.99863L18.7499 10.0014C18.7521 11.2227 18.3946 12.4176 17.7219 13.4369L18.9739 14.2631Z" fill="#6D6B77"/>
<path d="M8.5 21H16.5" stroke="#6D6B77" stroke-width="1.5" stroke-linecap="round" stroke-linejoin="round"/>
<path d="M12.5 17V21" stroke="#6D6B77" stroke-width="1.5" stroke-linecap="round" stroke-linejoin="round"/>
</svg>
