<svg width="25" height="24" viewBox="0 0 25 24" fill="none" xmlns="http://www.w3.org/2000/svg">
<path d="M5.5 4.25C5.08579 4.25 4.75 4.58579 4.75 5C4.75 5.41421 5.08579 5.75 5.5 5.75V4.25ZM8.5 5.75C8.91421 5.75 9.25 5.41421 9.25 5C9.25 4.58579 8.91421 4.25 8.5 4.25V5.75ZM12.5 4.25C12.0858 4.25 11.75 4.58579 11.75 5C11.75 5.41421 12.0858 5.75 12.5 5.75V4.25ZM21.5 5.75C21.9142 5.75 22.25 5.41421 22.25 5C22.25 4.58579 21.9142 4.25 21.5 4.25V5.75ZM5.5 5.75H8.5V4.25H5.5V5.75ZM12.5 5.75H21.5V4.25H12.5V5.75Z" fill="#E1DEF5" fill-opacity="0.7"/>
<path d="M3.5 9.25C3.08579 9.25 2.75 9.58579 2.75 10C2.75 10.4142 3.08579 10.75 3.5 10.75V9.25ZM14.5 10.75C14.9142 10.75 15.25 10.4142 15.25 10C15.25 9.58579 14.9142 9.25 14.5 9.25V10.75ZM18.5 9.25C18.0858 9.25 17.75 9.58579 17.75 10C17.75 10.4142 18.0858 10.75 18.5 10.75V9.25ZM19.5 10.75C19.9142 10.75 20.25 10.4142 20.25 10C20.25 9.58579 19.9142 9.25 19.5 9.25V10.75ZM3.5 10.75H14.5V9.25H3.5V10.75ZM18.5 10.75H19.5V9.25H18.5V10.75Z" fill="#E1DEF5" fill-opacity="0.7"/>
<path d="M5.5 14.25C5.08579 14.25 4.75 14.5858 4.75 15C4.75 15.4142 5.08579 15.75 5.5 15.75V14.25ZM10.5 15.75C10.9142 15.75 11.25 15.4142 11.25 15C11.25 14.5858 10.9142 14.25 10.5 14.25V15.75ZM14.5 14.25C14.0858 14.25 13.75 14.5858 13.75 15C13.75 15.4142 14.0858 15.75 14.5 15.75V14.25ZM21.5 15.75C21.9142 15.75 22.25 15.4142 22.25 15C22.25 14.5858 21.9142 14.25 21.5 14.25V15.75ZM5.5 15.75H10.5V14.25H5.5V15.75ZM14.5 15.75H21.5V14.25H14.5V15.75Z" fill="#E1DEF5" fill-opacity="0.7"/>
<path d="M3.5 19.25C3.08579 19.25 2.75 19.5858 2.75 20C2.75 20.4142 3.08579 20.75 3.5 20.75V19.25ZM12.5 20.75C12.9142 20.75 13.25 20.4142 13.25 20C13.25 19.5858 12.9142 19.25 12.5 19.25V20.75ZM16.5 19.25C16.0858 19.25 15.75 19.5858 15.75 20C15.75 20.4142 16.0858 20.75 16.5 20.75V19.25ZM19.5 20.75C19.9142 20.75 20.25 20.4142 20.25 20C20.25 19.5858 19.9142 19.25 19.5 19.25V20.75ZM3.5 20.75H12.5V19.25H3.5V20.75ZM16.5 20.75H19.5V19.25H16.5V20.75Z" fill="#E1DEF5" fill-opacity="0.7"/>
</svg>
