<svg width="25" height="24" viewBox="0 0 25 24" fill="none" xmlns="http://www.w3.org/2000/svg">
<circle cx="12.5" cy="12" r="9" stroke="#E1DEF5" stroke-opacity="0.7" stroke-width="1.5" stroke-linecap="round" stroke-linejoin="round"/>
<path d="M9.5 10H9.51" stroke="#E1DEF5" stroke-opacity="0.7" stroke-width="1.5" stroke-linecap="round" stroke-linejoin="round"/>
<path d="M15.5 10H15.51" stroke="#E1DEF5" stroke-opacity="0.7" stroke-width="1.5" stroke-linecap="round" stroke-linejoin="round"/>
<path d="M11.25 14C11.25 13.5858 10.9142 13.25 10.5 13.25C10.0858 13.25 9.75 13.5858 9.75 14H11.25ZM15.25 14C15.25 13.5858 14.9142 13.25 14.5 13.25C14.0858 13.25 13.75 13.5858 13.75 14H15.25ZM16 14.75C16.4142 14.75 16.75 14.4142 16.75 14C16.75 13.5858 16.4142 13.25 16 13.25V14.75ZM9 13.25C8.58579 13.25 8.25 13.5858 8.25 14C8.25 14.4142 8.58579 14.75 9 14.75V13.25ZM9.75 14V16H11.25V14H9.75ZM9.75 16C9.75 17.5188 10.9812 18.75 12.5 18.75V17.25C11.8096 17.25 11.25 16.6904 11.25 16H9.75ZM12.5 18.75C14.0188 18.75 15.25 17.5188 15.25 16H13.75C13.75 16.6904 13.1904 17.25 12.5 17.25V18.75ZM15.25 16V14H13.75V16H15.25ZM16 13.25H9V14.75H16V13.25Z" fill="#E1DEF5" fill-opacity="0.7"/>
</svg>
