<svg width="25" height="24" viewBox="0 0 25 24" fill="none" xmlns="http://www.w3.org/2000/svg">
<circle cx="12.5" cy="12" r="9" stroke="#2F2B3D" stroke-opacity="0.9" stroke-width="1.5" stroke-linecap="round" stroke-linejoin="round"/>
<path d="M9.5 9H9.51" stroke="#2F2B3D" stroke-opacity="0.9" stroke-width="1.5" stroke-linecap="round" stroke-linejoin="round"/>
<path d="M15.5 9H15.51" stroke="#2F2B3D" stroke-opacity="0.9" stroke-width="1.5" stroke-linecap="round" stroke-linejoin="round"/>
<path d="M9.25 13C9.25 12.5858 8.91421 12.25 8.5 12.25C8.08579 12.25 7.75 12.5858 7.75 13H9.25ZM17.25 13C17.25 12.5858 16.9142 12.25 16.5 12.25C16.0858 12.25 15.75 12.5858 15.75 13H17.25ZM16.5 13.75C16.9142 13.75 17.25 13.4142 17.25 13C17.25 12.5858 16.9142 12.25 16.5 12.25V13.75ZM8.5 12.25C8.08579 12.25 7.75 12.5858 7.75 13C7.75 13.4142 8.08579 13.75 8.5 13.75V12.25ZM7.75 13C7.75 15.6234 9.87665 17.75 12.5 17.75V16.25C10.7051 16.25 9.25 14.7949 9.25 13H7.75ZM12.5 17.75C15.1234 17.75 17.25 15.6234 17.25 13H15.75C15.75 14.7949 14.2949 16.25 12.5 16.25V17.75ZM16.5 12.25H8.5V13.75H16.5V12.25Z" fill="#2F2B3D" fill-opacity="0.9"/>
</svg>
