<svg width="25" height="24" viewBox="0 0 25 24" fill="none" xmlns="http://www.w3.org/2000/svg">
<path d="M17.4999 4.5C19.5347 5.85679 20.9297 7.98322 21.3639 10.39C22.126 10.8828 22.5612 11.7498 22.501 12.6553C22.4407 13.5608 21.8946 14.3625 21.0739 14.75C19.8778 18.4724 16.4153 20.9967 12.5054 20.9967C8.59563 20.9967 5.13306 18.4724 3.93695 14.75C3.11634 14.3625 2.57015 13.5608 2.50992 12.6553C2.4497 11.7498 2.88489 10.8828 3.64695 10.39C4.07239 8.03188 5.42063 5.94077 7.39295 4.58" stroke="#2F2B3D" stroke-opacity="0.9" stroke-width="1.5" stroke-linecap="round" stroke-linejoin="round"/>
<path d="M10 16C10.6583 16.6719 11.5594 17.0505 12.5 17.0505C13.4406 17.0505 14.3417 16.6719 15 16" stroke="#2F2B3D" stroke-opacity="0.9" stroke-width="1.5" stroke-linecap="round" stroke-linejoin="round"/>
<path d="M9 2C10.5 3 11.5 5.5 11.5 7" stroke="#2F2B3D" stroke-opacity="0.9" stroke-width="1.5" stroke-linecap="round" stroke-linejoin="round"/>
<path d="M13 2C14.5 4 15 5.5 15 7" stroke="#2F2B3D" stroke-opacity="0.9" stroke-width="1.5" stroke-linecap="round" stroke-linejoin="round"/>
<path d="M9.5 12H9.51" stroke="#2F2B3D" stroke-opacity="0.9" stroke-width="1.5" stroke-linecap="round" stroke-linejoin="round"/>
<path d="M15.5 12H15.51" stroke="#2F2B3D" stroke-opacity="0.9" stroke-width="1.5" stroke-linecap="round" stroke-linejoin="round"/>
</svg>
