<svg width="25" height="24" viewBox="0 0 25 24" fill="none" xmlns="http://www.w3.org/2000/svg">
<path d="M9.5 10H9.51" stroke="#E1DEF5" stroke-opacity="0.4" stroke-width="1.5" stroke-linecap="round" stroke-linejoin="round"/>
<path d="M15.5 10H15.51" stroke="#E1DEF5" stroke-opacity="0.4" stroke-width="1.5" stroke-linecap="round" stroke-linejoin="round"/>
<path d="M10 15.25C10.6583 14.5781 11.5594 14.1995 12.5 14.1995C13.4406 14.1995 14.3417 14.5781 15 15.25" stroke="#E1DEF5" stroke-opacity="0.4" stroke-width="1.5" stroke-linecap="round" stroke-linejoin="round"/>
<path fill-rule="evenodd" clip-rule="evenodd" d="M18.066 17.606C17.3051 18.3889 17.3126 19.6374 18.083 20.4111C18.8533 21.1847 20.1018 21.1977 20.888 20.4401C21.6742 19.6826 21.7076 18.4345 20.963 17.636L19.5 16L18.066 17.606V17.606Z" stroke="#E1DEF5" stroke-opacity="0.4" stroke-width="1.5" stroke-linecap="round" stroke-linejoin="round"/>
<path d="M21.365 13.517C21.4531 13.0161 21.4982 12.5086 21.5 12C21.5 7.02944 17.4706 3 12.5 3C7.52944 3 3.5 7.02944 3.5 12C3.5 16.9706 7.52944 21 12.5 21C13.19 21 13.86 20.924 14.5 20.778" stroke="#E1DEF5" stroke-opacity="0.4" stroke-width="1.5" stroke-linecap="round" stroke-linejoin="round"/>
</svg>
