<svg width="22" height="22" viewBox="0 0 22 22" fill="none" xmlns="http://www.w3.org/2000/svg">
<path fill-rule="evenodd" clip-rule="evenodd" d="M11.0001 2.74995C11.1211 2.74995 11.2412 2.74995 11.3604 2.74995C8.93042 5.00785 8.45914 8.67881 10.2399 11.4773C12.0208 14.2758 15.5458 15.4037 18.6204 14.1588C17.032 17.9805 12.858 20.034 8.86119 18.96C4.86435 17.886 2.28177 14.0169 2.82293 9.91386C3.36409 5.81078 6.86149 2.74361 11.0001 2.74261V2.74995Z" stroke="#7367F0" stroke-width="1.5" stroke-linecap="round" stroke-linejoin="round"/>
<path d="M15.5833 3.66669C15.5833 4.67921 16.4041 5.50002 17.4167 5.50002C16.4041 5.50002 15.5833 6.32083 15.5833 7.33335C15.5833 6.32083 14.7625 5.50002 13.75 5.50002C14.7625 5.50002 15.5833 4.67921 15.5833 3.66669" stroke="#7367F0" stroke-width="1.5" stroke-linecap="round" stroke-linejoin="round"/>
<path d="M17.4165 9.33335C17.0023 9.33335 16.6665 9.66914 16.6665 10.0834C16.6665 10.4976 17.0023 10.8334 17.4165 10.8334V9.33335ZM19.2498 10.8334C19.6641 10.8334 19.9998 10.4976 19.9998 10.0834C19.9998 9.66914 19.6641 9.33335 19.2498 9.33335V10.8334ZM19.0832 9.16669C19.0832 8.75247 18.7474 8.41669 18.3332 8.41669C17.919 8.41669 17.5832 8.75247 17.5832 9.16669H19.0832ZM17.5832 11C17.5832 11.4142 17.919 11.75 18.3332 11.75C18.7474 11.75 19.0832 11.4142 19.0832 11H17.5832ZM17.4165 10.8334H19.2498V9.33335H17.4165V10.8334ZM17.5832 9.16669V11H19.0832V9.16669H17.5832Z" fill="#7367F0"/>
</svg>
