<svg width="24" height="24" viewBox="0 0 24 24" fill="none" xmlns="http://www.w3.org/2000/svg">
<g id="moon-stars">
<path id="Path" fill-rule="evenodd" clip-rule="evenodd" d="M12 2.99994C12.132 2.99994 12.263 2.99994 12.393 2.99994C9.74214 5.46311 9.22802 9.46779 11.1707 12.5207C13.1134 15.5736 16.9589 16.804 20.313 15.4459C18.5803 19.6151 14.0268 21.8552 9.66662 20.6836C5.30643 19.512 2.48907 15.2912 3.07943 10.8151C3.66978 6.33903 7.48513 2.99303 12 2.99194V2.99994Z" stroke="#E1DEF5" stroke-opacity="0.9" stroke-width="2" stroke-linecap="round" stroke-linejoin="round"/>
<path id="Path_2" d="M17 4C17 5.10457 17.8954 6 19 6C17.8954 6 17 6.89543 17 8C17 6.89543 16.1046 6 15 6C16.1046 6 17 5.10457 17 4" stroke="#E1DEF5" stroke-opacity="0.9" stroke-width="2" stroke-linecap="round" stroke-linejoin="round"/>
<path id="Shape" d="M19 10C18.4477 10 18 10.4477 18 11C18 11.5523 18.4477 12 19 12V10ZM21 12C21.5523 12 22 11.5523 22 11C22 10.4477 21.5523 10 21 10V12ZM21 10C21 9.44772 20.5523 9 20 9C19.4477 9 19 9.44772 19 10H21ZM19 12C19 12.5523 19.4477 13 20 13C20.5523 13 21 12.5523 21 12H19ZM19 12H21V10H19V12ZM19 10V12H21V10H19Z" fill="#E1DEF5" fill-opacity="0.9"/>
</g>
</svg>
