<svg width="25" height="24" viewBox="0 0 25 24" fill="none" xmlns="http://www.w3.org/2000/svg">
<circle cx="5.5" cy="16" r="3" stroke="#E1DEF5" stroke-opacity="0.9" stroke-width="1.5" stroke-linecap="round" stroke-linejoin="round"/>
<circle cx="19.5" cy="16" r="3" stroke="#E1DEF5" stroke-opacity="0.9" stroke-width="1.5" stroke-linecap="round" stroke-linejoin="round"/>
<path d="M8 13.25C7.58579 13.25 7.25 13.5858 7.25 14C7.25 14.4142 7.58579 14.75 8 14.75V13.25ZM13 14V14.75C13.1989 14.75 13.3897 14.671 13.5303 14.5303L13 14ZM17 10L17.5303 10.5303C17.7448 10.3158 17.809 9.99324 17.6929 9.71299C17.5768 9.43273 17.3033 9.25 17 9.25V10ZM6.5 9.25C6.08579 9.25 5.75 9.58579 5.75 10C5.75 10.4142 6.08579 10.75 6.5 10.75V9.25ZM7.46967 13.4697C7.17678 13.7626 7.17678 14.2374 7.46967 14.5303C7.76256 14.8232 8.23744 14.8232 8.53033 14.5303L7.46967 13.4697ZM12.5303 10.5303C12.8232 10.2374 12.8232 9.76256 12.5303 9.46967C12.2374 9.17678 11.7626 9.17678 11.4697 9.46967L12.5303 10.5303ZM8 14.75H13V13.25H8V14.75ZM13.5303 14.5303L17.5303 10.5303L16.4697 9.46967L12.4697 13.4697L13.5303 14.5303ZM17 9.25H6.5V10.75H17V9.25ZM8.53033 14.5303L12.5303 10.5303L11.4697 9.46967L7.46967 13.4697L8.53033 14.5303Z" fill="#E1DEF5" fill-opacity="0.9"/>
<path d="M13.5 6H15.5L17 9L19 13" stroke="#E1DEF5" stroke-opacity="0.9" stroke-width="1.5" stroke-linecap="round" stroke-linejoin="round"/>
</svg>
