<svg width="25" height="24" viewBox="0 0 25 24" fill="none" xmlns="http://www.w3.org/2000/svg">
<path d="M4.583 5H15.417C15.7034 4.99921 15.9785 5.11223 16.1816 5.31421C16.3847 5.51618 16.4992 5.79057 16.5 6.077V14.692C16.5 17.072 14.56 19 12.167 19H7.833C5.44 19 3.5 17.071 3.5 14.692V6.077C3.50079 5.79057 3.61534 5.51618 3.81844 5.31421C4.02155 5.11223 4.29657 4.99921 4.583 5" stroke="#2F2B3D" stroke-opacity="0.9" stroke-width="1.5" stroke-linecap="round" stroke-linejoin="round"/>
<path d="M16.5 8H19C20.38 8 21.5 9.045 21.5 10.333V12.667C21.5 13.955 20.38 15 19 15H16.5" stroke="#2F2B3D" stroke-opacity="0.9" stroke-width="1.5" stroke-linecap="round" stroke-linejoin="round"/>
</svg>
