<svg width="25" height="24" viewBox="0 0 25 24" fill="none" xmlns="http://www.w3.org/2000/svg">
<path d="M9.5 12H15.5" stroke="#E1DEF5" stroke-opacity="0.9" stroke-width="1.5" stroke-linecap="round" stroke-linejoin="round"/>
<path d="M12.5 9V15" stroke="#E1DEF5" stroke-opacity="0.9" stroke-width="1.5" stroke-linecap="round" stroke-linejoin="round"/>
<path d="M3.75 6C3.75 6.41421 4.08579 6.75 4.5 6.75C4.91421 6.75 5.25 6.41421 5.25 6H3.75ZM6.5 4.75C6.91421 4.75 7.25 4.41421 7.25 4C7.25 3.58579 6.91421 3.25 6.5 3.25V4.75ZM11.5 3.25C11.0858 3.25 10.75 3.58579 10.75 4C10.75 4.41421 11.0858 4.75 11.5 4.75V3.25ZM13.5 4.75C13.9142 4.75 14.25 4.41421 14.25 4C14.25 3.58579 13.9142 3.25 13.5 3.25V4.75ZM18.5 3.25C18.0858 3.25 17.75 3.58579 17.75 4C17.75 4.41421 18.0858 4.75 18.5 4.75V3.25ZM19.75 6C19.75 6.41421 20.0858 6.75 20.5 6.75C20.9142 6.75 21.25 6.41421 21.25 6H19.75ZM21.25 11C21.25 10.5858 20.9142 10.25 20.5 10.25C20.0858 10.25 19.75 10.5858 19.75 11H21.25ZM19.75 13C19.75 13.4142 20.0858 13.75 20.5 13.75C20.9142 13.75 21.25 13.4142 21.25 13H19.75ZM21.25 18C21.25 17.5858 20.9142 17.25 20.5 17.25C20.0858 17.25 19.75 17.5858 19.75 18H21.25ZM18.5 19.25C18.0858 19.25 17.75 19.5858 17.75 20C17.75 20.4142 18.0858 20.75 18.5 20.75V19.25ZM13.5 20.75C13.9142 20.75 14.25 20.4142 14.25 20C14.25 19.5858 13.9142 19.25 13.5 19.25V20.75ZM11.5 19.25C11.0858 19.25 10.75 19.5858 10.75 20C10.75 20.4142 11.0858 20.75 11.5 20.75V19.25ZM6.5 20.75C6.91421 20.75 7.25 20.4142 7.25 20C7.25 19.5858 6.91421 19.25 6.5 19.25V20.75ZM5.25 18C5.25 17.5858 4.91421 17.25 4.5 17.25C4.08579 17.25 3.75 17.5858 3.75 18H5.25ZM3.75 13C3.75 13.4142 4.08579 13.75 4.5 13.75C4.91421 13.75 5.25 13.4142 5.25 13H3.75ZM5.25 11C5.25 10.5858 4.91421 10.25 4.5 10.25C4.08579 10.25 3.75 10.5858 3.75 11H5.25ZM5.25 6V5H3.75V6H5.25ZM5.25 5C5.25 4.86193 5.36193 4.75 5.5 4.75V3.25C4.5335 3.25 3.75 4.0335 3.75 5H5.25ZM5.5 4.75H6.5V3.25H5.5V4.75ZM11.5 4.75H13.5V3.25H11.5V4.75ZM18.5 4.75H19.5V3.25H18.5V4.75ZM19.5 4.75C19.6381 4.75 19.75 4.86193 19.75 5H21.25C21.25 4.0335 20.4665 3.25 19.5 3.25V4.75ZM19.75 5V6H21.25V5H19.75ZM19.75 11V13H21.25V11H19.75ZM19.75 18V19H21.25V18H19.75ZM19.75 19C19.75 19.1381 19.6381 19.25 19.5 19.25V20.75C20.4665 20.75 21.25 19.9665 21.25 19H19.75ZM19.5 19.25H18.5V20.75H19.5V19.25ZM13.5 19.25H11.5V20.75H13.5V19.25ZM6.5 19.25H5.5V20.75H6.5V19.25ZM5.5 19.25C5.36193 19.25 5.25 19.1381 5.25 19H3.75C3.75 19.9665 4.5335 20.75 5.5 20.75V19.25ZM5.25 19V18H3.75V19H5.25ZM5.25 13V11H3.75V13H5.25Z" fill="#E1DEF5" fill-opacity="0.9"/>
</svg>
