<svg width="25" height="24" viewBox="0 0 25 24" fill="none" xmlns="http://www.w3.org/2000/svg">
<circle cx="12.5" cy="12" r="9" stroke="#6D6B77" stroke-width="1.5" stroke-linecap="round" stroke-linejoin="round"/>
<path d="M11 10.5C10.153 9.79004 8.86796 9.84204 8.08596 10.616C7.71156 10.9792 7.50024 11.4785 7.50024 12C7.50024 12.5216 7.71156 13.0209 8.08596 13.384C8.86796 14.158 10.153 14.209 11 13.5" stroke="#6D6B77" stroke-width="1.5" stroke-linecap="round" stroke-linejoin="round"/>
<path d="M17 10.5C16.153 9.79004 14.868 9.84204 14.086 10.616C13.7116 10.9792 13.5002 11.4785 13.5002 12C13.5002 12.5216 13.7116 13.0209 14.086 13.384C14.868 14.158 16.153 14.209 17 13.5" stroke="#6D6B77" stroke-width="1.5" stroke-linecap="round" stroke-linejoin="round"/>
<path d="M6.5 6L8 7.5" stroke="#6D6B77" stroke-width="1.5" stroke-linecap="round" stroke-linejoin="round"/>
<path d="M17 16.5L18.5 18" stroke="#6D6B77" stroke-width="1.5" stroke-linecap="round" stroke-linejoin="round"/>
</svg>
