<svg width="25" height="24" viewBox="0 0 25 24" fill="none" xmlns="http://www.w3.org/2000/svg">
<circle cx="12.5" cy="12" r="9" stroke="#2F2B3D" stroke-opacity="0.9" stroke-width="1.5" stroke-linecap="round" stroke-linejoin="round"/>
<path d="M11 10.5003C10.153 9.79028 8.86796 9.84228 8.08596 10.6163C7.71156 10.9794 7.50024 11.4787 7.50024 12.0003C7.50024 12.5218 7.71156 13.0212 8.08596 13.3843C8.86796 14.1583 10.153 14.2093 11 13.5003" stroke="#2F2B3D" stroke-opacity="0.9" stroke-width="1.5" stroke-linecap="round" stroke-linejoin="round"/>
<path d="M17 10.5003C16.153 9.79028 14.868 9.84228 14.086 10.6163C13.7116 10.9794 13.5002 11.4787 13.5002 12.0003C13.5002 12.5218 13.7116 13.0212 14.086 13.3843C14.868 14.1583 16.153 14.2093 17 13.5003" stroke="#2F2B3D" stroke-opacity="0.9" stroke-width="1.5" stroke-linecap="round" stroke-linejoin="round"/>
<path d="M6.5 6L8 7.5" stroke="#2F2B3D" stroke-opacity="0.9" stroke-width="1.5" stroke-linecap="round" stroke-linejoin="round"/>
<path d="M17 16.5L18.5 18" stroke="#2F2B3D" stroke-opacity="0.9" stroke-width="1.5" stroke-linecap="round" stroke-linejoin="round"/>
</svg>
