<svg width="25" height="24" viewBox="0 0 25 24" fill="none" xmlns="http://www.w3.org/2000/svg">
<path d="M6.5 3.25C6.08579 3.25 5.75 3.58579 5.75 4C5.75 4.41421 6.08579 4.75 6.5 4.75V3.25ZM6.5 4.75C6.91421 4.75 7.25 4.41421 7.25 4C7.25 3.58579 6.91421 3.25 6.5 3.25V4.75ZM10.25 4C10.25 3.58579 9.91421 3.25 9.5 3.25C9.08579 3.25 8.75 3.58579 8.75 4H10.25ZM8.75 22C8.75 22.4142 9.08579 22.75 9.5 22.75C9.91421 22.75 10.25 22.4142 10.25 22H8.75ZM6.5 4.75H17.5V3.25H6.5V4.75ZM17.5 4.75C18.1904 4.75 18.75 5.30964 18.75 6H20.25C20.25 4.48122 19.0188 3.25 17.5 3.25V4.75ZM18.75 6V18H20.25V6H18.75ZM18.75 18C18.75 18.6904 18.1904 19.25 17.5 19.25V20.75C19.0188 20.75 20.25 19.5188 20.25 18H18.75ZM17.5 19.25H6.5V20.75H17.5V19.25ZM6.5 19.25C6.36193 19.25 6.25 19.1381 6.25 19H4.75C4.75 19.9665 5.5335 20.75 6.5 20.75V19.25ZM6.25 19V5H4.75V19H6.25ZM6.25 5C6.25 4.86193 6.36193 4.75 6.5 4.75V3.25C5.5335 3.25 4.75 4.0335 4.75 5H6.25ZM8.75 4V22H10.25V4H8.75Z" fill="#ACAAB1"/>
<path d="M13.5 8H15.5" stroke="#ACAAB1" stroke-width="1.5" stroke-linecap="round" stroke-linejoin="round"/>
<path d="M13.5 12H15.5" stroke="#ACAAB1" stroke-width="1.5" stroke-linecap="round" stroke-linejoin="round"/>
</svg>
