<svg width="25" height="24" viewBox="0 0 25 24" fill="none" xmlns="http://www.w3.org/2000/svg">
<path d="M7.61664 3.12267C7.32375 3.41556 7.32375 3.89044 7.61664 4.18333C7.90954 4.47622 8.38441 4.47622 8.6773 4.18333L7.61664 3.12267ZM8.49997 3.3L9.0303 3.83033L9.0303 3.83033L8.49997 3.3ZM16.5 3.3L15.9696 3.83033L15.9696 3.83033L16.5 3.3ZM21.2 8L21.7303 7.46967L21.7303 7.46967L21.2 8ZM20.3196 15.8197C20.0267 16.1126 20.0267 16.5874 20.3196 16.8803C20.6125 17.1732 21.0874 17.1732 21.3803 16.8803L20.3196 15.8197ZM19.3833 18.8774C19.6762 18.5845 19.6762 18.1096 19.3833 17.8167C19.0904 17.5238 18.6156 17.5238 18.3227 17.8167L19.3833 18.8774ZM8.5 20.7L9.03033 20.1697L8.5 20.7ZM3.8 16L3.26967 16.5304L3.8 16ZM3.8 8.00002L3.26967 7.46969L3.26967 7.46969L3.8 8.00002ZM6.68033 6.18035C6.97322 5.88746 6.97322 5.41259 6.68033 5.11969C6.38744 4.8268 5.91256 4.8268 5.61967 5.11969L6.68033 6.18035ZM8.6773 4.18333L9.0303 3.83033L7.96964 2.76967L7.61664 3.12267L8.6773 4.18333ZM9.0303 3.83033C9.08603 3.77461 9.11195 3.76264 9.11708 3.76036C9.11894 3.75953 9.13749 3.75 9.19997 3.75V2.25C8.96246 2.25 8.731 2.29047 8.50787 2.38964C8.288 2.48736 8.11392 2.62539 7.96964 2.76967L9.0303 3.83033ZM9.19997 3.75H15.8V2.25H9.19997V3.75ZM15.8 3.75C15.8625 3.75 15.881 3.75953 15.8829 3.76036C15.888 3.76264 15.9139 3.77461 15.9696 3.83033L17.0303 2.76967C16.886 2.62539 16.7119 2.48736 16.4921 2.38964C16.2689 2.29047 16.0375 2.25 15.8 2.25V3.75ZM15.9696 3.83033L20.6696 8.53033L21.7303 7.46967L17.0303 2.76967L15.9696 3.83033ZM20.6696 8.53033C20.7254 8.58605 20.7373 8.61198 20.7396 8.6171C20.7404 8.61897 20.75 8.63751 20.75 8.7H22.25C22.25 8.46249 22.2095 8.23103 22.1103 8.0079C22.0126 7.78802 21.8746 7.61395 21.7303 7.46967L20.6696 8.53033ZM20.75 8.7V15.3H22.25V8.7H20.75ZM20.75 15.3C20.75 15.3625 20.7404 15.381 20.7396 15.3829C20.7373 15.388 20.7254 15.4139 20.6696 15.4697L21.7303 16.5303C21.8746 16.3861 22.0126 16.212 22.1103 15.9921C22.2095 15.769 22.25 15.5375 22.25 15.3H20.75ZM20.6696 15.4697L20.3196 15.8197L21.3803 16.8803L21.7303 16.5303L20.6696 15.4697ZM18.3227 17.8167L15.9697 20.1697L17.0303 21.2304L19.3833 18.8774L18.3227 17.8167ZM15.9697 20.1697C15.9139 20.2254 15.888 20.2374 15.8829 20.2397C15.881 20.2405 15.8625 20.25 15.8 20.25V21.75C16.0375 21.75 16.269 21.7096 16.4921 21.6104C16.712 21.5127 16.8861 21.3746 17.0303 21.2304L15.9697 20.1697ZM15.8 20.25H9.2V21.75H15.8V20.25ZM9.2 20.25C9.13751 20.25 9.11897 20.2405 9.1171 20.2397C9.11198 20.2374 9.08605 20.2254 9.03033 20.1697L7.96967 21.2304C8.11395 21.3746 8.28802 21.5127 8.5079 21.6104C8.73103 21.7096 8.96249 21.75 9.2 21.75V20.25ZM9.03033 20.1697L4.33033 15.4697L3.26967 16.5304L7.96967 21.2304L9.03033 20.1697ZM4.33033 15.4697C4.27461 15.414 4.26264 15.388 4.26036 15.3829C4.25953 15.3811 4.25 15.3625 4.25 15.3H2.75C2.75 15.5375 2.79047 15.769 2.88964 15.9921C2.98736 16.212 3.12539 16.3861 3.26967 16.5304L4.33033 15.4697ZM4.25 15.3V8.70002H2.75V15.3H4.25ZM4.25 8.70002C4.25 8.63754 4.25953 8.619 4.26036 8.61713C4.26264 8.612 4.27461 8.58608 4.33033 8.53035L3.26967 7.46969C3.12539 7.61397 2.98736 7.78805 2.88964 8.00792C2.79047 8.23105 2.75 8.46251 2.75 8.70002H4.25ZM4.33033 8.53035L6.68033 6.18035L5.61967 5.11969L3.26967 7.46969L4.33033 8.53035Z" fill="#6D6B77"/>
<path d="M3.5 3L21.5 21" stroke="#6D6B77" stroke-width="1.5" stroke-linecap="round" stroke-linejoin="round"/>
</svg>
