<svg width="25" height="24" viewBox="0 0 25 24" fill="none" xmlns="http://www.w3.org/2000/svg">
<path d="M14.5 3V7C14.5 7.55228 14.9477 8 15.5 8H19.5" stroke="#E1DEF5" stroke-opacity="0.7" stroke-width="1.5" stroke-linecap="round" stroke-linejoin="round"/>
<path d="M19.5 18V19C19.5 20.1046 18.6046 21 17.5 21H7.5C6.39543 21 5.5 20.1046 5.5 19V18" stroke="#E1DEF5" stroke-opacity="0.7" stroke-width="1.5" stroke-linecap="round" stroke-linejoin="round"/>
<path d="M3.5 13.25C3.08579 13.25 2.75 13.5858 2.75 14C2.75 14.4142 3.08579 14.75 3.5 14.75V13.25ZM6.5 14.75C6.91421 14.75 7.25 14.4142 7.25 14C7.25 13.5858 6.91421 13.25 6.5 13.25V14.75ZM11 13.25C10.5858 13.25 10.25 13.5858 10.25 14C10.25 14.4142 10.5858 14.75 11 14.75V13.25ZM14 14.75C14.4142 14.75 14.75 14.4142 14.75 14C14.75 13.5858 14.4142 13.25 14 13.25V14.75ZM18.5 13.25C18.0858 13.25 17.75 13.5858 17.75 14C17.75 14.4142 18.0858 14.75 18.5 14.75V13.25ZM21.5 14.75C21.9142 14.75 22.25 14.4142 22.25 14C22.25 13.5858 21.9142 13.25 21.5 13.25V14.75ZM3.5 14.75H6.5V13.25H3.5V14.75ZM11 14.75H14V13.25H11V14.75ZM18.5 14.75H21.5V13.25H18.5V14.75Z" fill="#E1DEF5" fill-opacity="0.7"/>
<path d="M5.5 10V5C5.5 3.89543 6.39543 3 7.5 3H14.5L19.5 8V10" stroke="#E1DEF5" stroke-opacity="0.7" stroke-width="1.5" stroke-linecap="round" stroke-linejoin="round"/>
</svg>
