<svg width="28" height="28" viewBox="0 0 28 28" fill="none" xmlns="http://www.w3.org/2000/svg">
<g id="palette">
<path id="Path" d="M14 24.5C10.2487 24.5 6.78238 22.4987 4.90673 19.25C3.03109 16.0013 3.03109 11.9987 4.90673 8.75C6.78238 5.50129 10.2487 3.5 14 3.5C19.799 3.5 24.5 7.67868 24.5 12.8333C24.5 14.071 23.9469 15.258 22.9623 16.1332C21.9777 17.0083 20.6424 17.5 19.25 17.5H16.3333C15.2624 17.4827 14.3172 18.1969 14.0412 19.2318C13.7652 20.2668 14.2293 21.3567 15.1667 21.875C15.6443 22.3157 15.788 23.0117 15.5241 23.6056C15.2601 24.1995 14.6472 24.5592 14 24.5" stroke="#FF9F43" stroke-width="1.5" stroke-linecap="round" stroke-linejoin="round"/>
<circle id="Oval" cx="8.75008" cy="12.25" r="0.583333" fill="#FF9F43" stroke="#FF9F43" stroke-width="1.5" stroke-linecap="round" stroke-linejoin="round"/>
<circle id="Oval_2" cx="14.0001" cy="8.75002" r="0.583333" fill="#FF9F43" stroke="#FF9F43" stroke-width="1.5" stroke-linecap="round" stroke-linejoin="round"/>
<ellipse id="Oval_3" cx="19.2501" cy="12.25" rx="0.583334" ry="0.583333" fill="#FF9F43" stroke="#FF9F43" stroke-width="1.5" stroke-linecap="round" stroke-linejoin="round"/>
</g>
</svg>
