<svg width="25" height="24" viewBox="0 0 25 24" fill="none" xmlns="http://www.w3.org/2000/svg">
<path d="M12.5 21C9.28461 21 6.31347 19.2846 4.70577 16.5C3.09808 13.7154 3.09808 10.2846 4.70577 7.5C6.31347 4.71539 9.28461 3 12.5 3C17.4706 3 21.5 6.58172 21.5 11C21.5 12.0609 21.0259 13.0783 20.182 13.8284C19.3381 14.5786 18.1935 15 17 15H14.5C13.582 14.9852 12.7719 15.5973 12.5353 16.4844C12.2987 17.3715 12.6965 18.3057 13.5 18.75C13.9094 19.1278 14.0326 19.7244 13.8064 20.2334C13.5801 20.7424 13.0547 21.0507 12.5 21" stroke="#ACAAB1" stroke-width="1.5" stroke-linecap="round" stroke-linejoin="round"/>
<circle cx="8" cy="10.5" r="0.5" fill="#ACAAB1" stroke="#ACAAB1" stroke-width="1.5" stroke-linecap="round" stroke-linejoin="round"/>
<circle cx="12.5" cy="7.5" r="0.5" fill="#ACAAB1" stroke="#ACAAB1" stroke-width="1.5" stroke-linecap="round" stroke-linejoin="round"/>
<circle cx="17" cy="10.5" r="0.5" fill="#ACAAB1" stroke="#ACAAB1" stroke-width="1.5" stroke-linecap="round" stroke-linejoin="round"/>
</svg>
