<svg width="25" height="24" viewBox="0 0 25 24" fill="none" xmlns="http://www.w3.org/2000/svg">
<path fill-rule="evenodd" clip-rule="evenodd" d="M15.2 13.5C14.1 11.504 13.759 11 12.5 11C11.241 11 10.764 11.755 9.66401 13.747C8.72201 15.45 6.81801 15.592 6.34301 17.038C6.24601 17.303 6.19801 17.715 6.20001 18C6.20001 19.176 6.98701 20 8.00001 20C9.25901 20 11.004 19 12.5 19C13.996 19 15.741 20 17 20C18.013 20 18.8 19.177 18.8 18C18.8 17.715 18.751 17.303 18.654 17.038C18.179 15.587 16.142 15.203 15.2 13.5Z" stroke="#E1DEF5" stroke-opacity="0.9" stroke-width="1.5" stroke-linecap="round" stroke-linejoin="round"/>
<path fill-rule="evenodd" clip-rule="evenodd" d="M20.6879 8.082C20.5595 8.0277 20.4214 7.99981 20.2819 8H20.2669C19.5319 8.012 18.7069 8.75 18.2739 9.866C17.7549 11.201 17.9939 12.566 18.8119 12.918C18.9409 12.973 19.0789 13 19.2179 13C19.9569 13 20.7929 12.258 21.2289 11.134C21.7449 9.799 21.5019 8.434 20.6889 8.082H20.6879Z" stroke="#E1DEF5" stroke-opacity="0.9" stroke-width="1.5" stroke-linecap="round" stroke-linejoin="round"/>
<path fill-rule="evenodd" clip-rule="evenodd" d="M9.97407 9C10.0291 9 10.0831 8.996 10.1371 8.989C11.0811 8.861 11.6701 7.643 11.4571 6.267C11.2541 4.97 10.4101 4 9.52507 4C9.47007 4 9.41607 4.004 9.36207 4.011C8.41807 4.139 7.82907 5.357 8.04207 6.733C8.24607 8.026 9.09007 9 9.97507 9H9.97407Z" stroke="#E1DEF5" stroke-opacity="0.9" stroke-width="1.5" stroke-linecap="round" stroke-linejoin="round"/>
<path fill-rule="evenodd" clip-rule="evenodd" d="M16.9559 6.733C17.1699 5.357 16.5809 4.139 15.6359 4.011C15.5822 4.00357 15.5281 3.99989 15.4739 4C14.5889 4 13.7459 4.97 13.5439 6.267C13.3299 7.643 13.9189 8.861 14.8639 8.989C14.9179 8.996 14.9719 9 15.0259 9C15.9109 9 16.7559 8.026 16.9559 6.733V6.733Z" stroke="#E1DEF5" stroke-opacity="0.9" stroke-width="1.5" stroke-linecap="round" stroke-linejoin="round"/>
<path fill-rule="evenodd" clip-rule="evenodd" d="M6.19007 12.918C7.00607 12.566 7.24407 11.199 6.72607 9.866C6.29007 8.742 5.45507 8 4.71707 8C4.57707 8 4.44007 8.027 4.31007 8.082C3.49407 8.434 3.25607 9.801 3.77407 11.134C4.21007 12.258 5.04507 13 5.78307 13C5.92307 13 6.06007 12.973 6.19007 12.918Z" stroke="#E1DEF5" stroke-opacity="0.9" stroke-width="1.5" stroke-linecap="round" stroke-linejoin="round"/>
</svg>
