<svg width="25" height="24" viewBox="0 0 25 24" fill="none" xmlns="http://www.w3.org/2000/svg">
<path d="M5.5 4H9.5L11.5 9L9 10.5C10.071 12.6715 11.8285 14.429 14 15.5L15.5 13L20.5 15V19C20.5 20.1046 19.6046 21 18.5 21C10.4276 20.5094 3.99056 14.0724 3.5 6C3.5 4.89543 4.39543 4 5.5 4" stroke="#2F2B3D" stroke-opacity="0.9" stroke-width="1.5" stroke-linecap="round" stroke-linejoin="round"/>
<path d="M17.0303 3.46967C16.7374 3.17678 16.2626 3.17678 15.9697 3.46967C15.6768 3.76256 15.6768 4.23744 15.9697 4.53033L17.0303 3.46967ZM19.9697 8.53033C20.2626 8.82322 20.7374 8.82322 21.0303 8.53033C21.3232 8.23744 21.3232 7.76256 21.0303 7.46967L19.9697 8.53033ZM21.0303 4.53033C21.3232 4.23744 21.3232 3.76256 21.0303 3.46967C20.7374 3.17678 20.2626 3.17678 19.9697 3.46967L21.0303 4.53033ZM15.9697 7.46967C15.6768 7.76256 15.6768 8.23744 15.9697 8.53033C16.2626 8.82322 16.7374 8.82322 17.0303 8.53033L15.9697 7.46967ZM15.9697 4.53033L19.9697 8.53033L21.0303 7.46967L17.0303 3.46967L15.9697 4.53033ZM19.9697 3.46967L15.9697 7.46967L17.0303 8.53033L21.0303 4.53033L19.9697 3.46967Z" fill="#2F2B3D" fill-opacity="0.9"/>
</svg>
