<svg width="25" height="24" viewBox="0 0 25 24" fill="none" xmlns="http://www.w3.org/2000/svg">
<path d="M3.5 21L21.5 3" stroke="#ACAAB1" stroke-width="1.5" stroke-linecap="round" stroke-linejoin="round"/>
<path d="M5.71549 14.5895C5.95216 14.9295 6.41959 15.0132 6.75953 14.7765C7.09947 14.5398 7.18319 14.0724 6.94651 13.7325L5.71549 14.5895ZM3.5 6H2.75C2.75 6.01491 2.75044 6.02981 2.75133 6.04469L3.5 6ZM9.5 4L10.1964 3.72146C10.0825 3.43671 9.80668 3.25 9.5 3.25V4ZM11.5 9L11.8859 9.64312C12.2015 9.45373 12.3331 9.06324 12.1964 8.72146L11.5 9ZM9 10.5L8.61413 9.85688C8.27988 10.0574 8.15498 10.4806 8.32675 10.8305L9 10.5ZM8.69649 11.5218C8.90457 11.8799 9.36359 12.0016 9.72175 11.7935C10.0799 11.5854 10.2016 11.1264 9.9935 10.7682L8.69649 11.5218ZM11.6254 12.8907C11.332 12.5984 10.8571 12.5992 10.5647 12.8926C10.2724 13.186 10.2732 13.6609 10.5666 13.9533L11.6254 12.8907ZM14 15.5L13.6681 16.1726C14.0182 16.3453 14.4423 16.2206 14.6431 15.8859L14 15.5ZM15.5 13L15.7785 12.3036C15.4368 12.1669 15.0463 12.2985 14.8569 12.6141L15.5 13ZM20.5 15H21.25C21.25 14.6933 21.0633 14.4175 20.7785 14.3036L20.5 15ZM18.5 21L18.4552 21.7487C18.4701 21.7496 18.4851 21.75 18.5 21.75V21ZM8.68681 15.8131C8.39418 15.52 7.9193 15.5196 7.62615 15.8122C7.33299 16.1048 7.33257 16.5797 7.6252 16.8729L8.68681 15.8131ZM6.94651 13.7325C5.34883 11.4377 4.41529 8.74653 4.24867 5.95531L2.75133 6.04469C2.9344 9.11144 3.96009 12.0682 5.71549 14.5895L6.94651 13.7325ZM4.25 6C4.25 5.30964 4.80964 4.75 5.5 4.75V3.25C3.98122 3.25 2.75 4.48122 2.75 6H4.25ZM5.5 4.75H9.5V3.25H5.5V4.75ZM8.80364 4.27854L10.8036 9.27854L12.1964 8.72146L10.1964 3.72146L8.80364 4.27854ZM11.1141 8.35688L8.61413 9.85688L9.38587 11.1431L11.8859 9.64312L11.1141 8.35688ZM8.32675 10.8305C8.44239 11.0661 8.56563 11.2965 8.69649 11.5218L9.9935 10.7682C9.88037 10.5735 9.77361 10.3739 9.67325 10.1695L8.32675 10.8305ZM10.5666 13.9533C11.4669 14.8503 12.5124 15.6022 13.6681 16.1726L14.3319 14.8274C13.3236 14.3298 12.4111 13.6737 11.6254 12.8907L10.5666 13.9533ZM14.6431 15.8859L16.1431 13.3859L14.8569 12.6141L13.3569 15.1141L14.6431 15.8859ZM15.2215 13.6964L20.2215 15.6964L20.7785 14.3036L15.7785 12.3036L15.2215 13.6964ZM19.75 15V19H21.25V15H19.75ZM19.75 19C19.75 19.6904 19.1904 20.25 18.5 20.25V21.75C20.0188 21.75 21.25 20.5188 21.25 19H19.75ZM18.5448 20.2513C14.8262 20.0288 11.3186 18.4496 8.68681 15.8131L7.6252 16.8729C10.5165 19.7693 14.37 21.5042 18.4552 21.7487L18.5448 20.2513Z" fill="#ACAAB1"/>
</svg>
