<svg width="25" height="24" viewBox="0 0 25 24" fill="none" xmlns="http://www.w3.org/2000/svg">
<path d="M5.5 4H9.5L11.5 9L9 10.5C10.071 12.6715 11.8285 14.429 14 15.5L15.5 13L20.5 15V19C20.5 20.1046 19.6046 21 18.5 21C10.4276 20.5094 3.99056 14.0724 3.5 6C3.5 4.89543 4.39543 4 5.5 4" stroke="#ACAAB1" stroke-width="1.5" stroke-linecap="round" stroke-linejoin="round"/>
<path d="M15.5 5.25C15.0858 5.25 14.75 5.58579 14.75 6C14.75 6.41421 15.0858 6.75 15.5 6.75V5.25ZM21.5 6.75C21.9142 6.75 22.25 6.41421 22.25 6C22.25 5.58579 21.9142 5.25 21.5 5.25V6.75ZM19.25 3C19.25 2.58579 18.9142 2.25 18.5 2.25C18.0858 2.25 17.75 2.58579 17.75 3H19.25ZM17.75 9C17.75 9.41421 18.0858 9.75 18.5 9.75C18.9142 9.75 19.25 9.41421 19.25 9H17.75ZM15.5 6.75H21.5V5.25H15.5V6.75ZM17.75 3V9H19.25V3H17.75Z" fill="#ACAAB1"/>
</svg>
