<svg width="25" height="24" viewBox="0 0 25 24" fill="none" xmlns="http://www.w3.org/2000/svg">
<path d="M3.5 3L21.5 21" stroke="#6D6B77" stroke-width="1.5" stroke-linecap="round" stroke-linejoin="round"/>
<path d="M15.4999 8H15.5099" stroke="#6D6B77" stroke-width="1.5" stroke-linecap="round" stroke-linejoin="round"/>
<path d="M20.1512 19.6525C20.4441 19.3597 20.4443 18.8848 20.1515 18.5919C19.8587 18.2989 19.3838 18.2987 19.0908 18.5915L20.1512 19.6525ZM17.5 20L17.5001 19.25H17.5V20ZM5.91638 5.40129C6.21035 5.10947 6.21209 4.6346 5.92027 4.34063C5.62845 4.04667 5.15358 4.04493 4.85962 4.33675L5.91638 5.40129ZM8.5 3.25C8.08579 3.25 7.75 3.58579 7.75 4C7.75 4.41421 8.08579 4.75 8.5 4.75V3.25ZM19.75 16C19.75 16.4142 20.0858 16.75 20.5 16.75C20.9142 16.75 21.25 16.4142 21.25 16H19.75ZM19.0908 18.5915C18.6689 19.0132 18.0967 19.2501 17.5001 19.25L17.4999 20.75C18.4942 20.7501 19.4479 20.3554 20.1512 19.6525L19.0908 18.5915ZM17.5 19.25H7.5V20.75H17.5V19.25ZM7.5 19.25C6.25736 19.25 5.25 18.2427 5.25 17H3.75C3.75 19.0711 5.42893 20.75 7.5 20.75V19.25ZM5.25 17V7.00002H3.75V17H5.25ZM5.25 7.00002C5.25 6.37535 5.5041 5.81056 5.91638 5.40129L4.85962 4.33675C4.1759 5.01548 3.75 5.95869 3.75 7.00002H5.25ZM8.5 4.75H17.5V3.25H8.5V4.75ZM17.5 4.75C18.7426 4.75 19.75 5.75736 19.75 7H21.25C21.25 4.92893 19.5711 3.25 17.5 3.25V4.75ZM19.75 7V16H21.25V7H19.75Z" fill="#6D6B77"/>
<path d="M4.5 15L8.5 11C9.428 10.107 10.572 10.107 11.5 11L16.5 16" stroke="#6D6B77" stroke-width="1.5" stroke-linecap="round" stroke-linejoin="round"/>
<path d="M16.8201 12.34C17.3971 12.281 17.9821 12.502 18.5001 13L20.5001 15" stroke="#6D6B77" stroke-width="1.5" stroke-linecap="round" stroke-linejoin="round"/>
</svg>
