<svg width="25" height="24" viewBox="0 0 25 24" fill="none" xmlns="http://www.w3.org/2000/svg">
<path d="M15.5 11V11.01" stroke="#E1DEF5" stroke-opacity="0.9" stroke-width="1.5" stroke-linecap="round" stroke-linejoin="round"/>
<path fill-rule="evenodd" clip-rule="evenodd" d="M16.5 3V6.803C17.7376 7.51912 18.6799 8.65245 19.158 10H20.499C21.0513 10 21.499 10.4477 21.499 11V13C21.499 13.5523 21.0513 14 20.499 14H19.157C18.8206 14.9504 18.2504 15.8008 17.499 16.473V18.5C17.499 19.3284 16.8274 20 15.999 20C15.1706 20 14.499 19.3284 14.499 18.5V17.917C14.1685 17.9724 13.8341 18.0001 13.499 18H9.499C9.16394 18.0001 8.82945 17.9724 8.499 17.917V18.5C8.499 19.3284 7.82743 20 6.999 20C6.17057 20 5.499 19.3284 5.499 18.5V16.5L5.5 16.473C3.64525 14.8148 3.00627 12.1839 3.89376 9.85969C4.78125 7.53544 7.01107 6.00001 9.499 6H11.999L16.499 3L16.5 3Z" stroke="#E1DEF5" stroke-opacity="0.9" stroke-width="1.5" stroke-linecap="round" stroke-linejoin="round"/>
</svg>
