<svg width="25" height="24" viewBox="0 0 25 24" fill="none" xmlns="http://www.w3.org/2000/svg">
<path d="M3.5 3L21.5 21" stroke="#2F2B3D" stroke-opacity="0.9" stroke-width="1.5" stroke-linecap="round" stroke-linejoin="round"/>
<path d="M16.0303 5.03033C16.3232 4.73744 16.3232 4.26256 16.0303 3.96967C15.7374 3.67678 15.2625 3.67678 14.9696 3.96967L16.0303 5.03033ZM11.7206 7.21867C11.4278 7.51156 11.4278 7.98644 11.7206 8.27933C12.0135 8.57222 12.4884 8.57222 12.7813 8.27933L11.7206 7.21867ZM9.94438 9.88424C10.3322 9.73878 10.5287 9.30646 10.3832 8.91863C10.2378 8.5308 9.80545 8.33431 9.41762 8.47977L9.94438 9.88424ZM7.5 10L7.23662 9.29777C7.13639 9.33537 7.04537 9.39398 6.96967 9.46968L7.5 10ZM6 11.5L5.46967 10.9697C5.17678 11.2626 5.17678 11.7374 5.46967 12.0303L6 11.5ZM13 18.5L12.4697 19.0303C12.7626 19.3232 13.2374 19.3232 13.5303 19.0303L13 18.5ZM14.5 17L15.0303 17.5303C15.106 17.4546 15.1646 17.3636 15.2022 17.2634L14.5 17ZM16.0222 15.0774C16.1677 14.6896 15.9712 14.2573 15.5834 14.1118C15.1956 13.9663 14.7633 14.1628 14.6178 14.5506L16.0222 15.0774ZM16.2196 11.7208C15.9267 12.0137 15.9268 12.4886 16.2198 12.7814C16.5127 13.0743 16.9876 13.0742 17.2804 12.7812L16.2196 11.7208ZM20.5304 9.53025C20.8233 9.23731 20.8232 8.76244 20.5302 8.46959C20.2373 8.17674 19.7624 8.17681 19.4696 8.46975L20.5304 9.53025ZM14.9696 3.96967L11.7206 7.21867L12.7813 8.27933L16.0303 5.03033L14.9696 3.96967ZM9.41762 8.47977L7.23662 9.29777L7.76338 10.7022L9.94438 9.88424L9.41762 8.47977ZM6.96967 9.46968L5.46967 10.9697L6.53033 12.0303L8.03033 10.5303L6.96967 9.46968ZM5.46967 12.0303L12.4697 19.0303L13.5303 17.9697L6.53033 10.9697L5.46967 12.0303ZM13.5303 19.0303L15.0303 17.5303L13.9697 16.4697L12.4697 17.9697L13.5303 19.0303ZM15.2022 17.2634L16.0222 15.0774L14.6178 14.5506L13.7978 16.7366L15.2022 17.2634ZM17.2804 12.7812L20.5304 9.53025L19.4696 8.46975L16.2196 11.7208L17.2804 12.7812Z" fill="#2F2B3D" fill-opacity="0.9"/>
<path d="M9.5 15L5 19.5" stroke="#2F2B3D" stroke-opacity="0.9" stroke-width="1.5" stroke-linecap="round" stroke-linejoin="round"/>
<path d="M15 4L20.5 9.5" stroke="#2F2B3D" stroke-opacity="0.9" stroke-width="1.5" stroke-linecap="round" stroke-linejoin="round"/>
</svg>
