<svg width="25" height="24" viewBox="0 0 25 24" fill="none" xmlns="http://www.w3.org/2000/svg">
<circle cx="12.5" cy="13" r="3" stroke="#E1DEF5" stroke-opacity="0.9" stroke-width="1.5" stroke-linecap="round" stroke-linejoin="round"/>
<path d="M14.6671 10.5C15.3891 8.962 15.8231 7.457 15.9701 5.986C16.1901 4.356 15.2081 3 12.5001 3C9.79205 3 8.81005 4.357 9.03005 5.986C9.17705 7.457 9.61105 8.962 10.3331 10.5" stroke="#E1DEF5" stroke-opacity="0.9" stroke-width="1.5" stroke-linecap="round" stroke-linejoin="round"/>
<path d="M13.6689 16.751C14.6389 18.146 15.7259 19.274 16.9259 20.137C18.2259 21.143 19.8929 20.97 21.2469 18.625C22.6009 16.28 21.9169 14.751 20.3969 14.127C19.0489 13.519 17.5289 13.142 15.8349 12.999" stroke="#E1DEF5" stroke-opacity="0.9" stroke-width="1.5" stroke-linecap="round" stroke-linejoin="round"/>
<path d="M9.16391 12.999C7.47091 13.142 5.95091 13.519 4.60391 14.127C3.08191 14.75 2.39791 16.28 3.75191 18.625C5.10591 20.97 6.77191 21.142 8.07291 20.137C9.27291 19.274 10.3599 18.146 11.3309 16.751" stroke="#E1DEF5" stroke-opacity="0.9" stroke-width="1.5" stroke-linecap="round" stroke-linejoin="round"/>
</svg>
