<svg width="25" height="24" viewBox="0 0 25 24" fill="none" xmlns="http://www.w3.org/2000/svg">
<rect x="4.5" y="4" width="16" height="16" rx="2" stroke="#E1DEF5" stroke-opacity="0.7" stroke-width="1.5" stroke-linecap="round" stroke-linejoin="round"/>
<path d="M12.5 4V6.5C12.5 6.77614 12.2761 7 12 7C11.1716 7 10.5 7.67157 10.5 8.5C10.5 9.32843 11.1716 10 12 10C12.2761 10 12.5 10.2239 12.5 10.5V12" stroke="#E1DEF5" stroke-opacity="0.7" stroke-width="1.5" stroke-linecap="round" stroke-linejoin="round"/>
<path d="M12.5 12V13.5C12.5 13.7761 12.7239 14 13 14C13.8284 14 14.5 14.6716 14.5 15.5C14.5 16.3284 13.8284 17 13 17C12.7239 17 12.5 17.2239 12.5 17.5V20" stroke="#E1DEF5" stroke-opacity="0.7" stroke-width="1.5" stroke-linecap="round" stroke-linejoin="round"/>
<path d="M20.5 12H18C17.7239 12 17.5 11.7761 17.5 11.5C17.5 10.6716 16.8284 10 16 10C15.1716 10 14.5 10.6716 14.5 11.5C14.5 11.7761 14.2761 12 14 12H12.5" stroke="#E1DEF5" stroke-opacity="0.7" stroke-width="1.5" stroke-linecap="round" stroke-linejoin="round"/>
<path d="M12.5 12H11C10.7239 12 10.5 12.2239 10.5 12.5C10.5 13.3284 9.82843 14 9 14C8.17157 14 7.5 13.3284 7.5 12.5C7.5 12.2239 7.27614 12 7 12H4.5" stroke="#E1DEF5" stroke-opacity="0.7" stroke-width="1.5" stroke-linecap="round" stroke-linejoin="round"/>
</svg>
