<svg width="25" height="24" viewBox="0 0 25 24" fill="none" xmlns="http://www.w3.org/2000/svg">
<path d="M10.5 11H6.5C5.94772 11 5.5 10.5523 5.5 10V7C5.5 6.44772 5.94772 6 6.5 6H9.5C10.0523 6 10.5 6.44772 10.5 7V13C10.5 15.667 9.167 17.333 6.5 18" stroke="#2F2B3D" stroke-opacity="0.9" stroke-width="1.5" stroke-linecap="round" stroke-linejoin="round"/>
<path d="M19.5 11H15.5C14.9477 11 14.5 10.5523 14.5 10V7C14.5 6.44772 14.9477 6 15.5 6H18.5C19.0523 6 19.5 6.44772 19.5 7V13C19.5 15.667 18.167 17.333 15.5 18" stroke="#2F2B3D" stroke-opacity="0.9" stroke-width="1.5" stroke-linecap="round" stroke-linejoin="round"/>
</svg>
