<svg width="25" height="24" viewBox="0 0 25 24" fill="none" xmlns="http://www.w3.org/2000/svg">
<path d="M5.5 21V5C5.5 3.89543 6.39543 3 7.5 3H17.5C18.6046 3 19.5 3.89543 19.5 5V21L16.5 19L14.5 21L12.5 19L10.5 21L8.5 19L5.5 21" stroke="#ACAAB1" stroke-width="1.5" stroke-linecap="round" stroke-linejoin="round"/>
<path d="M14.75 14C14.75 14.4142 15.0858 14.75 15.5 14.75C15.9142 14.75 16.25 14.4142 16.25 14H14.75ZM9.5 10L8.96967 9.46967C8.75517 9.68417 8.691 10.0068 8.80709 10.287C8.92318 10.5673 9.19665 10.75 9.5 10.75V10ZM12.0303 8.53033C12.3232 8.23744 12.3232 7.76256 12.0303 7.46967C11.7374 7.17678 11.2626 7.17678 10.9697 7.46967L12.0303 8.53033ZM10.9697 12.5303C11.2626 12.8232 11.7374 12.8232 12.0303 12.5303C12.3232 12.2374 12.3232 11.7626 12.0303 11.4697L10.9697 12.5303ZM10.0303 9.46967C9.73744 9.17678 9.26256 9.17678 8.96967 9.46967C8.67678 9.76256 8.67678 10.2374 8.96967 10.5303L10.0303 9.46967ZM16.25 14V12H14.75V14H16.25ZM16.25 12C16.25 10.4812 15.0188 9.25 13.5 9.25V10.75C14.1904 10.75 14.75 11.3096 14.75 12H16.25ZM13.5 9.25H9.5V10.75H13.5V9.25ZM10.0303 10.5303L12.0303 8.53033L10.9697 7.46967L8.96967 9.46967L10.0303 10.5303ZM12.0303 11.4697L10.0303 9.46967L8.96967 10.5303L10.9697 12.5303L12.0303 11.4697Z" fill="#ACAAB1"/>
</svg>
