<svg width="25" height="24" viewBox="0 0 25 24" fill="none" xmlns="http://www.w3.org/2000/svg">
<path d="M4.75 21C4.75 21.4142 5.08579 21.75 5.5 21.75C5.91421 21.75 6.25 21.4142 6.25 21H4.75ZM6.25 5C6.25 4.58579 5.91421 4.25 5.5 4.25C5.08579 4.25 4.75 4.58579 4.75 5H6.25ZM7.5 2.25C7.08579 2.25 6.75 2.58579 6.75 3C6.75 3.41421 7.08579 3.75 7.5 3.75V2.25ZM18.75 15C18.75 15.4142 19.0858 15.75 19.5 15.75C19.9142 15.75 20.25 15.4142 20.25 15H18.75ZM20.25 19.01C20.25 18.5958 19.9142 18.26 19.5 18.26C19.0858 18.26 18.75 18.5958 18.75 19.01H20.25ZM19.5 21L19.084 21.624C19.3141 21.7775 19.61 21.7918 19.8539 21.6613C20.0978 21.5307 20.25 21.2766 20.25 21H19.5ZM16.5 19L16.916 18.376C16.6186 18.1777 16.2225 18.2169 15.9697 18.4697L16.5 19ZM14.5 21L13.9697 21.5303C14.2626 21.8232 14.7374 21.8232 15.0303 21.5303L14.5 21ZM12.5 19L13.0303 18.4697C12.7374 18.1768 12.2626 18.1768 11.9697 18.4697L12.5 19ZM10.5 21L9.96967 21.5303C10.2626 21.8232 10.7374 21.8232 11.0303 21.5303L10.5 21ZM8.5 19L9.03033 18.4697C8.77753 18.2169 8.38144 18.1777 8.08397 18.376L8.5 19ZM5.08397 20.376C4.73933 20.6057 4.6462 21.0714 4.87596 21.416C5.10573 21.7607 5.57138 21.8538 5.91603 21.624L5.08397 20.376ZM6.25 21V5H4.75V21H6.25ZM7.5 3.75H17.5V2.25H7.5V3.75ZM17.5 3.75C18.1904 3.75 18.75 4.30964 18.75 5H20.25C20.25 3.48122 19.0188 2.25 17.5 2.25V3.75ZM18.75 5V15H20.25V5H18.75ZM18.75 19.01V21H20.25V19.01H18.75ZM19.916 20.376L16.916 18.376L16.084 19.624L19.084 21.624L19.916 20.376ZM15.9697 18.4697L13.9697 20.4697L15.0303 21.5303L17.0303 19.5303L15.9697 18.4697ZM15.0303 20.4697L13.0303 18.4697L11.9697 19.5303L13.9697 21.5303L15.0303 20.4697ZM11.9697 18.4697L9.96967 20.4697L11.0303 21.5303L13.0303 19.5303L11.9697 18.4697ZM11.0303 20.4697L9.03033 18.4697L7.96967 19.5303L9.96967 21.5303L11.0303 20.4697ZM8.08397 18.376L5.08397 20.376L5.91603 21.624L8.91603 19.624L8.08397 18.376Z" fill="#E1DEF5" fill-opacity="0.9"/>
<path d="M11.5 7H15.5" stroke="#E1DEF5" stroke-opacity="0.9" stroke-width="1.5" stroke-linecap="round" stroke-linejoin="round"/>
<path d="M9.5 11H11.5" stroke="#E1DEF5" stroke-opacity="0.9" stroke-width="1.5" stroke-linecap="round" stroke-linejoin="round"/>
<path d="M13.5 15H15.5" stroke="#E1DEF5" stroke-opacity="0.9" stroke-width="1.5" stroke-linecap="round" stroke-linejoin="round"/>
<path d="M15.5 11V11.01" stroke="#E1DEF5" stroke-opacity="0.9" stroke-width="1.5" stroke-linecap="round" stroke-linejoin="round"/>
<path d="M3.5 3L21.5 21" stroke="#E1DEF5" stroke-opacity="0.9" stroke-width="1.5" stroke-linecap="round" stroke-linejoin="round"/>
</svg>
