<svg width="25" height="24" viewBox="0 0 25 24" fill="none" xmlns="http://www.w3.org/2000/svg">
<path d="M4.75 21C4.75 21.4142 5.08579 21.75 5.5 21.75C5.91421 21.75 6.25 21.4142 6.25 21H4.75ZM19.5 21L19.084 21.624C19.3141 21.7775 19.61 21.7918 19.8539 21.6613C20.0978 21.5307 20.25 21.2766 20.25 21H19.5ZM16.5 19L16.916 18.376C16.6186 18.1777 16.2225 18.2169 15.9697 18.4697L16.5 19ZM14.5 21L13.9697 21.5303C14.2626 21.8232 14.7374 21.8232 15.0303 21.5303L14.5 21ZM12.5 19L13.0303 18.4697C12.7374 18.1768 12.2626 18.1768 11.9697 18.4697L12.5 19ZM10.5 21L9.96967 21.5303C10.2626 21.8232 10.7374 21.8232 11.0303 21.5303L10.5 21ZM8.5 19L9.03033 18.4697C8.77753 18.2169 8.38144 18.1777 8.08397 18.376L8.5 19ZM5.08397 20.376C4.73933 20.6057 4.6462 21.0714 4.87596 21.416C5.10573 21.7607 5.57138 21.8538 5.91603 21.624L5.08397 20.376ZM9.5 6.25C9.08579 6.25 8.75 6.58579 8.75 7C8.75 7.41421 9.08579 7.75 9.5 7.75V6.25ZM15.5 7.75C15.9142 7.75 16.25 7.41421 16.25 7C16.25 6.58579 15.9142 6.25 15.5 6.25V7.75ZM9.5 10.25C9.08579 10.25 8.75 10.5858 8.75 11C8.75 11.4142 9.08579 11.75 9.5 11.75V10.25ZM15.5 11.75C15.9142 11.75 16.25 11.4142 16.25 11C16.25 10.5858 15.9142 10.25 15.5 10.25V11.75ZM13.5 14.25C13.0858 14.25 12.75 14.5858 12.75 15C12.75 15.4142 13.0858 15.75 13.5 15.75V14.25ZM15.5 15.75C15.9142 15.75 16.25 15.4142 16.25 15C16.25 14.5858 15.9142 14.25 15.5 14.25V15.75ZM6.25 21V5H4.75V21H6.25ZM6.25 5C6.25 4.30964 6.80964 3.75 7.5 3.75V2.25C5.98122 2.25 4.75 3.48122 4.75 5H6.25ZM7.5 3.75H17.5V2.25H7.5V3.75ZM17.5 3.75C18.1904 3.75 18.75 4.30964 18.75 5H20.25C20.25 3.48122 19.0188 2.25 17.5 2.25V3.75ZM18.75 5V21H20.25V5H18.75ZM19.916 20.376L16.916 18.376L16.084 19.624L19.084 21.624L19.916 20.376ZM15.9697 18.4697L13.9697 20.4697L15.0303 21.5303L17.0303 19.5303L15.9697 18.4697ZM15.0303 20.4697L13.0303 18.4697L11.9697 19.5303L13.9697 21.5303L15.0303 20.4697ZM11.9697 18.4697L9.96967 20.4697L11.0303 21.5303L13.0303 19.5303L11.9697 18.4697ZM11.0303 20.4697L9.03033 18.4697L7.96967 19.5303L9.96967 21.5303L11.0303 20.4697ZM8.08397 18.376L5.08397 20.376L5.91603 21.624L8.91603 19.624L8.08397 18.376ZM9.5 7.75H15.5V6.25H9.5V7.75ZM9.5 11.75H15.5V10.25H9.5V11.75ZM13.5 15.75H15.5V14.25H13.5V15.75Z" fill="#2F2B3D" fill-opacity="0.9"/>
</svg>
