<svg width="25" height="24" viewBox="0 0 25 24" fill="none" xmlns="http://www.w3.org/2000/svg">
<path d="M5.5 21V5C5.5 3.89543 6.39543 3 7.5 3H17.5C18.6046 3 19.5 3.89543 19.5 5V21L16.5 19L14.5 21L12.5 19L10.5 21L8.5 19L5.5 21" stroke="#E1DEF5" stroke-opacity="0.9" stroke-width="1.5" stroke-linecap="round" stroke-linejoin="round"/>
<path d="M14.5 8.75C14.9142 8.75 15.25 8.41421 15.25 8C15.25 7.58579 14.9142 7.25 14.5 7.25V8.75ZM13 11V10.25V11ZM13 14V14.75V14ZM10.5 13.25C10.0858 13.25 9.75 13.5858 9.75 14C9.75 14.4142 10.0858 14.75 10.5 14.75V13.25ZM13.25 14C13.25 13.5858 12.9142 13.25 12.5 13.25C12.0858 13.25 11.75 13.5858 11.75 14H13.25ZM11.75 15.5C11.75 15.9142 12.0858 16.25 12.5 16.25C12.9142 16.25 13.25 15.9142 13.25 15.5H11.75ZM13.25 6.5C13.25 6.08579 12.9142 5.75 12.5 5.75C12.0858 5.75 11.75 6.08579 11.75 6.5H13.25ZM11.75 8C11.75 8.41421 12.0858 8.75 12.5 8.75C12.9142 8.75 13.25 8.41421 13.25 8H11.75ZM14.5 7.25H12V8.75H14.5V7.25ZM12 7.25C10.7574 7.25 9.75 8.25736 9.75 9.5H11.25C11.25 9.08579 11.5858 8.75 12 8.75V7.25ZM9.75 9.5C9.75 10.7426 10.7574 11.75 12 11.75V10.25C11.5858 10.25 11.25 9.91421 11.25 9.5H9.75ZM12 11.75H13V10.25H12V11.75ZM13 11.75C13.4142 11.75 13.75 12.0858 13.75 12.5H15.25C15.25 11.2574 14.2426 10.25 13 10.25V11.75ZM13.75 12.5C13.75 12.9142 13.4142 13.25 13 13.25V14.75C14.2426 14.75 15.25 13.7426 15.25 12.5H13.75ZM13 13.25H10.5V14.75H13V13.25ZM11.75 14V15.5H13.25V14H11.75ZM11.75 6.5V8H13.25V6.5H11.75Z" fill="#E1DEF5" fill-opacity="0.9"/>
</svg>
