<svg width="25" height="24" viewBox="0 0 25 24" fill="none" xmlns="http://www.w3.org/2000/svg">
<path d="M7.53797 4.5C6.55222 5.15156 5.70443 5.99086 5.04297 6.97" stroke="#6D6B77" stroke-width="1.5" stroke-linecap="round" stroke-linejoin="round"/>
<path d="M3.68602 10.209C3.45592 11.367 3.45592 12.559 3.68602 13.717" stroke="#6D6B77" stroke-width="1.5" stroke-linecap="round" stroke-linejoin="round"/>
<path d="M5 16.962C5.65156 17.9478 6.49086 18.7956 7.47 19.457" stroke="#6D6B77" stroke-width="1.5" stroke-linecap="round" stroke-linejoin="round"/>
<path d="M10.709 20.814C11.8644 21.0431 13.0536 21.0431 14.209 20.814" stroke="#6D6B77" stroke-width="1.5" stroke-linecap="round" stroke-linejoin="round"/>
<path d="M17.462 19.5C18.4478 18.8485 19.2956 18.0092 19.957 17.03" stroke="#6D6B77" stroke-width="1.5" stroke-linecap="round" stroke-linejoin="round"/>
<path d="M21.314 13.791C21.5441 12.6329 21.5441 11.441 21.314 10.283" stroke="#6D6B77" stroke-width="1.5" stroke-linecap="round" stroke-linejoin="round"/>
<path d="M20 7.03797C19.3485 6.05222 18.5092 5.20443 17.53 4.54297" stroke="#6D6B77" stroke-width="1.5" stroke-linecap="round" stroke-linejoin="round"/>
<path d="M14.291 3.18597C13.1343 2.94926 11.9423 2.94247 10.783 3.16597" stroke="#6D6B77" stroke-width="1.5" stroke-linecap="round" stroke-linejoin="round"/>
<path d="M12.5 8L10.5 12H14.5L12.5 16" stroke="#6D6B77" stroke-width="1.5" stroke-linecap="round" stroke-linejoin="round"/>
<path d="M12.5 21C17.4706 21 21.5 16.9706 21.5 12C21.5 7.02944 17.4706 3 12.5 3" stroke="#6D6B77" stroke-width="1.5" stroke-linecap="round" stroke-linejoin="round"/>
</svg>
