<svg width="25" height="24" viewBox="0 0 25 24" fill="none" xmlns="http://www.w3.org/2000/svg">
<path d="M13.0303 17.5303C13.3232 17.2374 13.3232 16.7626 13.0303 16.4697C12.7374 16.1768 12.2626 16.1768 11.9697 16.4697L13.0303 17.5303ZM10.5 19L9.96967 18.4697C9.67678 18.7626 9.67678 19.2374 9.96967 19.5303L10.5 19ZM11.9697 21.5303C12.2626 21.8232 12.7374 21.8232 13.0303 21.5303C13.3232 21.2374 13.3232 20.7626 13.0303 20.4697L11.9697 21.5303ZM10.5 18.25C10.0858 18.25 9.75 18.5858 9.75 19C9.75 19.4142 10.0858 19.75 10.5 19.75V18.25ZM19.5 19V19.75C19.5129 19.75 19.5258 19.7497 19.5386 19.749L19.5 19ZM21.25 16.25L21.9449 15.9678C21.9339 15.9406 21.9213 15.9142 21.9072 15.8886L21.25 16.25ZM21.3572 14.8886C21.1575 14.5256 20.7015 14.3932 20.3386 14.5928C19.9756 14.7925 19.8432 15.2485 20.0428 15.6114L21.3572 14.8886ZM11.9697 16.4697L9.96967 18.4697L11.0303 19.5303L13.0303 17.5303L11.9697 16.4697ZM9.96967 19.5303L11.9697 21.5303L13.0303 20.4697L11.0303 18.4697L9.96967 19.5303ZM10.5 19.75H19.5V18.25H10.5V19.75ZM19.5386 19.749C20.4275 19.7032 21.2392 19.23 21.7171 18.4791L20.4516 17.6737C20.2344 18.0151 19.8654 18.2302 19.4614 18.251L19.5386 19.749ZM21.7171 18.4791C22.195 17.7281 22.2798 16.7924 21.9449 15.9678L20.5551 16.5322C20.7074 16.9071 20.6688 17.3324 20.4516 17.6737L21.7171 18.4791ZM21.9072 15.8886L21.3572 14.8886L20.0428 15.6114L20.5928 16.6114L21.9072 15.8886Z" fill="#2F2B3D" fill-opacity="0.9"/>
<path d="M8.31143 11.194C8.41864 11.5941 8.82989 11.8315 9.22999 11.7243C9.63009 11.6171 9.86753 11.2059 9.76032 10.8058L8.31143 11.194ZM8.30383 8.26784L9.02827 8.07373C8.92107 7.67363 8.50981 7.43619 8.10971 7.5434L8.30383 8.26784ZM5.37766 8.27545C4.97756 8.38265 4.74013 8.79391 4.84733 9.19401C4.95454 9.5941 5.36579 9.83154 5.76589 9.72434L5.37766 8.27545ZM8.95331 8.64284C9.16041 8.28412 9.03751 7.82543 8.67879 7.61832C8.32007 7.41121 7.86137 7.53412 7.65427 7.89284L8.95331 8.64284ZM3.80379 16.0621L3.15427 15.6871C3.14783 15.6982 3.14168 15.7095 3.13582 15.721L3.80379 16.0621ZM5.31036 18.9526L5.20735 19.6955C5.23634 19.6995 5.26553 19.7018 5.29479 19.7025L5.31036 18.9526ZM6.43582 19.7261C6.84994 19.7347 7.19262 19.406 7.20122 18.9919C7.20982 18.5777 6.88107 18.2351 6.46695 18.2265L6.43582 19.7261ZM9.76032 10.8058L9.02827 8.07373L7.57938 8.46195L8.31143 11.194L9.76032 10.8058ZM8.10971 7.5434L5.37766 8.27545L5.76589 9.72434L8.49794 8.99228L8.10971 7.5434ZM7.65427 7.89284L3.15427 15.6871L4.45331 16.4371L8.95331 8.64284L7.65427 7.89284ZM3.13582 15.721C2.73107 16.5137 2.735 17.4533 3.14639 18.2426L4.47655 17.5493C4.28956 17.1905 4.28777 16.7635 4.47175 16.4031L3.13582 15.721ZM3.14639 18.2426C3.55777 19.0319 4.32572 19.5733 5.20735 19.6955L5.41336 18.2097C5.01262 18.1542 4.66355 17.9081 4.47655 17.5493L3.14639 18.2426ZM5.29479 19.7025L6.43582 19.7261L6.46695 18.2265L5.32592 18.2028L5.29479 19.7025Z" fill="#2F2B3D" fill-opacity="0.9"/>
<path d="M16.1582 10.2754C15.7581 10.1682 15.3469 10.4057 15.2397 10.8058C15.1325 11.2059 15.3699 11.6171 15.77 11.7243L16.1582 10.2754ZM18.6962 11.7319L18.502 12.4564C18.6942 12.5079 18.8989 12.4809 19.0712 12.3815C19.2434 12.282 19.3691 12.1182 19.4206 11.926L18.6962 11.7319ZM20.1527 9.194C20.2599 8.7939 20.0224 8.38265 19.6223 8.27544C19.2222 8.16823 18.811 8.40567 18.7038 8.80577L20.1527 9.194ZM18.0467 12.1069C18.2538 12.4657 18.7125 12.5886 19.0712 12.3815C19.4299 12.1743 19.5528 11.7157 19.3457 11.3569L18.0467 12.1069ZM14.1962 3.93771L14.8457 3.56271C14.8393 3.55155 14.8326 3.54057 14.8256 3.52976L14.1962 3.93771ZM10.9396 3.79716L10.3478 3.33651C10.3298 3.3596 10.3132 3.38373 10.298 3.40876L10.9396 3.79716ZM9.70701 4.38508C9.49251 4.73942 9.60587 5.20056 9.96021 5.41507C10.3146 5.62958 10.7757 5.51622 10.9902 5.16187L9.70701 4.38508ZM15.77 11.7243L18.502 12.4564L18.8903 11.0075L16.1582 10.2754L15.77 11.7243ZM19.4206 11.926L20.1527 9.194L18.7038 8.80577L17.9717 11.5378L19.4206 11.926ZM19.3457 11.3569L14.8457 3.56271L13.5467 4.31271L18.0467 12.1069L19.3457 11.3569ZM14.8256 3.52976C14.3414 2.78288 13.5257 2.31649 12.6365 2.27811L12.5718 3.77672C12.976 3.79416 13.3468 4.00616 13.5669 4.34565L14.8256 3.52976ZM12.6365 2.27811C11.7473 2.23974 10.8944 2.63411 10.3478 3.33651L11.5315 4.25781C11.78 3.93854 12.1676 3.75928 12.5718 3.77672L12.6365 2.27811ZM10.298 3.40876L9.70701 4.38508L10.9902 5.16187L11.5812 4.18556L10.298 3.40876Z" fill="#2F2B3D" fill-opacity="0.9"/>
</svg>
