<svg width="25" height="24" viewBox="0 0 25 24" fill="none" xmlns="http://www.w3.org/2000/svg">
<path d="M13.0303 17.5303C13.3232 17.2374 13.3232 16.7626 13.0303 16.4697C12.7374 16.1768 12.2626 16.1768 11.9697 16.4697L13.0303 17.5303ZM10.5 19L9.96967 18.4697C9.67678 18.7626 9.67678 19.2374 9.96967 19.5303L10.5 19ZM11.9697 21.5303C12.2626 21.8232 12.7374 21.8232 13.0303 21.5303C13.3232 21.2374 13.3232 20.7626 13.0303 20.4697L11.9697 21.5303ZM10.5 18.25C10.0858 18.25 9.75 18.5858 9.75 19C9.75 19.4142 10.0858 19.75 10.5 19.75V18.25ZM19.5 19V19.75C19.5129 19.75 19.5258 19.7497 19.5386 19.749L19.5 19ZM21.25 16.25L21.9449 15.9678C21.9339 15.9406 21.9213 15.9142 21.9072 15.8886L21.25 16.25ZM21.3572 14.8886C21.1575 14.5256 20.7015 14.3932 20.3386 14.5928C19.9756 14.7925 19.8432 15.2485 20.0428 15.6114L21.3572 14.8886ZM11.9697 16.4697L9.96967 18.4697L11.0303 19.5303L13.0303 17.5303L11.9697 16.4697ZM9.96967 19.5303L11.9697 21.5303L13.0303 20.4697L11.0303 18.4697L9.96967 19.5303ZM10.5 19.75H19.5V18.25H10.5V19.75ZM19.5386 19.749C20.4275 19.7032 21.2392 19.23 21.7171 18.4791L20.4516 17.6737C20.2344 18.0151 19.8654 18.2302 19.4614 18.251L19.5386 19.749ZM21.7171 18.4791C22.1949 17.7281 22.2798 16.7924 21.9449 15.9678L20.5551 16.5322C20.7074 16.9071 20.6688 17.3324 20.4516 17.6737L21.7171 18.4791ZM21.9072 15.8886L21.3572 14.8886L20.0428 15.6114L20.5928 16.6114L21.9072 15.8886Z" fill="#6D6B77"/>
<path d="M8.31143 11.1941C8.41864 11.5942 8.82989 11.8316 9.22999 11.7244C9.63009 11.6172 9.86753 11.2059 9.76032 10.8058L8.31143 11.1941ZM8.30383 8.2679L9.02827 8.07379C8.92107 7.67369 8.50981 7.43625 8.10971 7.54346L8.30383 8.2679ZM5.37766 8.27551C4.97756 8.38271 4.74013 8.79397 4.84733 9.19407C4.95454 9.59417 5.36579 9.8316 5.76589 9.7244L5.37766 8.27551ZM8.95331 8.6429C9.16041 8.28418 9.03751 7.82549 8.67879 7.61838C8.32007 7.41127 7.86137 7.53418 7.65427 7.8929L8.95331 8.6429ZM3.80379 16.0621L3.15427 15.6871C3.14783 15.6983 3.14168 15.7096 3.13582 15.7211L3.80379 16.0621ZM5.31036 18.9527L5.20735 19.6956C5.23634 19.6996 5.26553 19.7019 5.29479 19.7025L5.31036 18.9527ZM6.43582 19.7262C6.84994 19.7348 7.19262 19.406 7.20122 18.9919C7.20982 18.5778 6.88107 18.2351 6.46695 18.2265L6.43582 19.7262ZM9.76032 10.8058L9.02827 8.07379L7.57938 8.46202L8.31143 11.1941L9.76032 10.8058ZM8.10971 7.54346L5.37766 8.27551L5.76589 9.7244L8.49794 8.99235L8.10971 7.54346ZM7.65427 7.8929L3.15427 15.6871L4.45331 16.4371L8.95331 8.6429L7.65427 7.8929ZM3.13582 15.7211C2.73107 16.5138 2.735 17.4534 3.14639 18.2427L4.47655 17.5494C4.28956 17.1906 4.28777 16.7635 4.47175 16.4032L3.13582 15.7211ZM3.14639 18.2427C3.55777 19.032 4.32572 19.5733 5.20735 19.6956L5.41336 18.2098C5.01262 18.1542 4.66355 17.9081 4.47655 17.5494L3.14639 18.2427ZM5.29479 19.7025L6.43582 19.7262L6.46695 18.2265L5.32592 18.2028L5.29479 19.7025Z" fill="#6D6B77"/>
<path d="M16.1582 10.2756C15.7581 10.1684 15.3469 10.4058 15.2397 10.8059C15.1325 11.206 15.3699 11.6172 15.77 11.7244L16.1582 10.2756ZM18.6962 11.7321L18.502 12.4565C18.9021 12.5637 19.3134 12.3263 19.4206 11.9262L18.6962 11.7321ZM20.1527 9.19412C20.2599 8.79402 20.0224 8.38277 19.6223 8.27556C19.2222 8.16835 18.811 8.40579 18.7038 8.80589L20.1527 9.19412ZM18.0467 12.1071C18.2538 12.4658 18.7125 12.5887 19.0712 12.3816C19.4299 12.1745 19.5528 11.7158 19.3457 11.3571L18.0467 12.1071ZM14.1962 3.93783L14.8457 3.56283C14.8393 3.55167 14.8326 3.54069 14.8256 3.52988L14.1962 3.93783ZM10.9396 3.79728L10.3478 3.33663C10.3298 3.35973 10.3132 3.38385 10.298 3.40888L10.9396 3.79728ZM9.70701 4.3852C9.49251 4.73954 9.60587 5.20069 9.96021 5.41519C10.3146 5.6297 10.7757 5.51634 10.9902 5.162L9.70701 4.3852ZM15.77 11.7244L18.502 12.4565L18.8903 11.0076L16.1582 10.2756L15.77 11.7244ZM19.4206 11.9262L20.1527 9.19412L18.7038 8.80589L17.9717 11.5379L19.4206 11.9262ZM19.3457 11.3571L14.8457 3.56283L13.5467 4.31283L18.0467 12.1071L19.3457 11.3571ZM14.8256 3.52988C14.3414 2.783 13.5257 2.31661 12.6365 2.27824L12.5718 3.77684C12.976 3.79429 13.3468 4.00628 13.5669 4.34577L14.8256 3.52988ZM12.6365 2.27824C11.7473 2.23986 10.8944 2.63424 10.3478 3.33663L11.5315 4.25793C11.78 3.93866 12.1676 3.7594 12.5718 3.77684L12.6365 2.27824ZM10.298 3.40888L9.70701 4.3852L10.9902 5.162L11.5812 4.18568L10.298 3.40888Z" fill="#6D6B77"/>
</svg>
