<svg width="25" height="24" viewBox="0 0 25 24" fill="none" xmlns="http://www.w3.org/2000/svg">
<path d="M19.7571 11.1033C19.8142 11.5136 20.193 11.8 20.6032 11.7429C21.0135 11.6859 21.2999 11.3071 21.2429 10.8968L19.7571 11.1033ZM4.30768 8.71166C4.14838 9.09402 4.32922 9.53311 4.71158 9.6924C5.09394 9.85169 5.53303 9.67086 5.69232 9.2885L4.30768 8.71166ZM5.25 5.00012C5.25 4.58591 4.91421 4.25012 4.5 4.25012C4.08579 4.25012 3.75 4.58591 3.75 5.00012H5.25ZM4.5 9.00012H3.75C3.75 9.41434 4.08579 9.75012 4.5 9.75012V9.00012ZM8.5 9.75012C8.91421 9.75012 9.25 9.41434 9.25 9.00012C9.25 8.58591 8.91421 8.25012 8.5 8.25012V9.75012ZM21.2429 10.8968C20.6936 6.94443 17.5672 3.84845 13.6096 3.3378L13.4177 4.82547C16.7045 5.24957 19.301 7.8208 19.7571 11.1033L21.2429 10.8968ZM13.6096 3.3378C9.65206 2.82714 5.84223 5.02813 4.30768 8.71166L5.69232 9.2885C6.96679 6.2293 10.1309 4.40136 13.4177 4.82547L13.6096 3.3378ZM3.75 5.00012V9.00012H5.25V5.00012H3.75ZM4.5 9.75012H8.5V8.25012H4.5V9.75012Z" fill="#2F2B3D" fill-opacity="0.9"/>
<path d="M5.24286 12.8968C5.18584 12.4865 4.80703 12.2001 4.39676 12.2571C3.98649 12.3142 3.70012 12.693 3.75714 13.1032L5.24286 12.8968ZM20.6923 15.2884C20.8516 14.9061 20.6708 14.467 20.2884 14.3077C19.9061 14.1484 19.467 14.3292 19.3077 14.7116L20.6923 15.2884ZM19.75 19C19.75 19.4142 20.0858 19.75 20.5 19.75C20.9142 19.75 21.25 19.4142 21.25 19H19.75ZM20.5 15H21.25C21.25 14.5858 20.9142 14.25 20.5 14.25V15ZM16.5 14.25C16.0858 14.25 15.75 14.5858 15.75 15C15.75 15.4142 16.0858 15.75 16.5 15.75V14.25ZM3.75714 13.1032C4.30641 17.0556 7.43276 20.1516 11.3904 20.6623L11.5823 19.1746C8.2955 18.7505 5.69904 16.1793 5.24286 12.8968L3.75714 13.1032ZM11.3904 20.6623C15.3479 21.1729 19.1578 18.972 20.6923 15.2884L19.3077 14.7116C18.0332 17.7708 14.8691 19.5987 11.5823 19.1746L11.3904 20.6623ZM21.25 19V15H19.75V19H21.25ZM20.5 14.25H16.5V15.75H20.5V14.25Z" fill="#2F2B3D" fill-opacity="0.9"/>
<path d="M12.5 9V12" stroke="#2F2B3D" stroke-opacity="0.9" stroke-width="1.5" stroke-linecap="round" stroke-linejoin="round"/>
<path d="M12.4999 15H12.5099" stroke="#2F2B3D" stroke-opacity="0.9" stroke-width="1.5" stroke-linecap="round" stroke-linejoin="round"/>
</svg>
