<svg width="25" height="24" viewBox="0 0 25 24" fill="none" xmlns="http://www.w3.org/2000/svg">
<path d="M3.75 12C3.75 12.4142 4.08579 12.75 4.5 12.75C4.91421 12.75 5.25 12.4142 5.25 12H3.75ZM20.5 6.75C20.9142 6.75 21.25 6.41421 21.25 6C21.25 5.58579 20.9142 5.25 20.5 5.25V6.75ZM18.0303 2.46967C17.7374 2.17678 17.2626 2.17678 16.9697 2.46967C16.6768 2.76256 16.6768 3.23744 16.9697 3.53033L18.0303 2.46967ZM20.5 6L21.0303 6.53033C21.3232 6.23744 21.3232 5.76256 21.0303 5.46967L20.5 6ZM16.9697 8.46967C16.6768 8.76256 16.6768 9.23744 16.9697 9.53033C17.2626 9.82322 17.7374 9.82322 18.0303 9.53033L16.9697 8.46967ZM5.25 12V9H3.75V12H5.25ZM5.25 9C5.25 7.75736 6.25736 6.75 7.5 6.75V5.25C5.42893 5.25 3.75 6.92893 3.75 9H5.25ZM7.5 6.75H20.5V5.25H7.5V6.75ZM16.9697 3.53033L19.9697 6.53033L21.0303 5.46967L18.0303 2.46967L16.9697 3.53033ZM19.9697 5.46967L16.9697 8.46967L18.0303 9.53033L21.0303 6.53033L19.9697 5.46967Z" fill="#2F2B3D" fill-opacity="0.9"/>
<path d="M21.25 12C21.25 11.5858 20.9142 11.25 20.5 11.25C20.0858 11.25 19.75 11.5858 19.75 12H21.25ZM4.5 17.25C4.08579 17.25 3.75 17.5858 3.75 18C3.75 18.4142 4.08579 18.75 4.5 18.75V17.25ZM6.96967 21.5303C7.26256 21.8232 7.73744 21.8232 8.03033 21.5303C8.32322 21.2374 8.32322 20.7626 8.03033 20.4697L6.96967 21.5303ZM4.5 18L3.96967 17.4697C3.67678 17.7626 3.67678 18.2374 3.96967 18.5303L4.5 18ZM8.03033 15.5303C8.32322 15.2374 8.32322 14.7626 8.03033 14.4697C7.73744 14.1768 7.26256 14.1768 6.96967 14.4697L8.03033 15.5303ZM19.75 12V15H21.25V12H19.75ZM19.75 15C19.75 16.2426 18.7426 17.25 17.5 17.25V18.75C19.5711 18.75 21.25 17.0711 21.25 15H19.75ZM17.5 17.25H4.5V18.75H17.5V17.25ZM8.03033 20.4697L5.03033 17.4697L3.96967 18.5303L6.96967 21.5303L8.03033 20.4697ZM5.03033 18.5303L8.03033 15.5303L6.96967 14.4697L3.96967 17.4697L5.03033 18.5303Z" fill="#2F2B3D" fill-opacity="0.9"/>
<path d="M11.5 11L12.5 10V14" stroke="#2F2B3D" stroke-opacity="0.9" stroke-width="1.5" stroke-linecap="round" stroke-linejoin="round"/>
</svg>
