<svg width="25" height="24" viewBox="0 0 25 24" fill="none" xmlns="http://www.w3.org/2000/svg">
<rect x="3.5" y="3" width="6" height="6" rx="1" stroke="#ACAAB1" stroke-width="1.5" stroke-linecap="round" stroke-linejoin="round"/>
<rect x="15.5" y="15" width="6" height="6" rx="1" stroke="#ACAAB1" stroke-width="1.5" stroke-linecap="round" stroke-linejoin="round"/>
<path d="M20.75 11C20.75 11.4142 21.0858 11.75 21.5 11.75C21.9142 11.75 22.25 11.4142 22.25 11H20.75ZM13.5 6V5.25C13.1967 5.25 12.9232 5.43273 12.8071 5.71299C12.691 5.99324 12.7552 6.31583 12.9697 6.53033L13.5 6ZM15.9697 9.53033C16.2626 9.82322 16.7374 9.82322 17.0303 9.53033C17.3232 9.23744 17.3232 8.76256 17.0303 8.46967L15.9697 9.53033ZM17.0303 3.53033C17.3232 3.23744 17.3232 2.76256 17.0303 2.46967C16.7374 2.17678 16.2626 2.17678 15.9697 2.46967L17.0303 3.53033ZM12.9697 5.46967C12.6768 5.76256 12.6768 6.23744 12.9697 6.53033C13.2626 6.82322 13.7374 6.82322 14.0303 6.53033L12.9697 5.46967ZM22.25 11V8H20.75V11H22.25ZM22.25 8C22.25 6.48122 21.0188 5.25 19.5 5.25V6.75C20.1904 6.75 20.75 7.30964 20.75 8H22.25ZM19.5 5.25H13.5V6.75H19.5V5.25ZM12.9697 6.53033L15.9697 9.53033L17.0303 8.46967L14.0303 5.46967L12.9697 6.53033ZM15.9697 2.46967L12.9697 5.46967L14.0303 6.53033L17.0303 3.53033L15.9697 2.46967Z" fill="#ACAAB1"/>
<path d="M4.25 13C4.25 12.5858 3.91421 12.25 3.5 12.25C3.08579 12.25 2.75 12.5858 2.75 13H4.25ZM11.5 18V18.75C11.8033 18.75 12.0768 18.5673 12.1929 18.287C12.309 18.0068 12.2448 17.6842 12.0303 17.4697L11.5 18ZM9.03033 14.4697C8.73744 14.1768 8.26256 14.1768 7.96967 14.4697C7.67678 14.7626 7.67678 15.2374 7.96967 15.5303L9.03033 14.4697ZM7.96967 20.4697C7.67678 20.7626 7.67678 21.2374 7.96967 21.5303C8.26256 21.8232 8.73744 21.8232 9.03033 21.5303L7.96967 20.4697ZM12.0303 18.5303C12.3232 18.2374 12.3232 17.7626 12.0303 17.4697C11.7374 17.1768 11.2626 17.1768 10.9697 17.4697L12.0303 18.5303ZM2.75 13V16H4.25V13H2.75ZM2.75 16C2.75 17.5188 3.98122 18.75 5.5 18.75V17.25C4.80964 17.25 4.25 16.6904 4.25 16H2.75ZM5.5 18.75H11.5V17.25H5.5V18.75ZM12.0303 17.4697L9.03033 14.4697L7.96967 15.5303L10.9697 18.5303L12.0303 17.4697ZM9.03033 21.5303L12.0303 18.5303L10.9697 17.4697L7.96967 20.4697L9.03033 21.5303Z" fill="#ACAAB1"/>
</svg>
