<svg width="25" height="24" viewBox="0 0 25 24" fill="none" xmlns="http://www.w3.org/2000/svg">
<path d="M9.5 5H7.5C6.39543 5 5.5 5.89543 5.5 7V19C5.5 20.1046 6.39543 21 7.5 21H17.5C18.6046 21 19.5 20.1046 19.5 19V7C19.5 5.89543 18.6046 5 17.5 5H15.5" stroke="#6D6B77" stroke-width="1.5" stroke-linecap="round" stroke-linejoin="round"/>
<rect x="9.5" y="3" width="6" height="4" rx="2" stroke="#6D6B77" stroke-width="1.5" stroke-linecap="round" stroke-linejoin="round"/>
<path d="M14.5 11H12C11.1716 11 10.5 11.6716 10.5 12.5C10.5 13.3284 11.1716 14 12 14H13C13.8284 14 14.5 14.6716 14.5 15.5C14.5 16.3284 13.8284 17 13 17H10.5" stroke="#6D6B77" stroke-width="1.5" stroke-linecap="round" stroke-linejoin="round"/>
<path d="M13.25 17C13.25 16.5858 12.9142 16.25 12.5 16.25C12.0858 16.25 11.75 16.5858 11.75 17H13.25ZM11.75 18C11.75 18.4142 12.0858 18.75 12.5 18.75C12.9142 18.75 13.25 18.4142 13.25 18H11.75ZM13.25 10C13.25 9.58579 12.9142 9.25 12.5 9.25C12.0858 9.25 11.75 9.58579 11.75 10H13.25ZM11.75 11C11.75 11.4142 12.0858 11.75 12.5 11.75C12.9142 11.75 13.25 11.4142 13.25 11H11.75ZM11.75 17V18H13.25V17H11.75ZM11.75 10V11H13.25V10H11.75Z" fill="#6D6B77"/>
</svg>
