<svg width="25" height="24" viewBox="0 0 25 24" fill="none" xmlns="http://www.w3.org/2000/svg">
<path d="M19.7064 11.0974C19.7603 11.5081 20.1368 11.7974 20.5475 11.7436C20.9582 11.6897 21.2475 11.3132 21.1937 10.9025L19.7064 11.0974ZM20.6468 15.2775C20.8001 14.8927 20.6124 14.4565 20.2276 14.3032C19.8428 14.1499 19.4066 14.3376 19.2533 14.7224L20.6468 15.2775ZM19.7 20C19.7 20.4142 20.0357 20.75 20.45 20.75C20.8642 20.75 21.2 20.4142 21.2 20H19.7ZM20.45 15H21.2C21.2 14.5858 20.8642 14.25 20.45 14.25V15ZM15.45 14.25C15.0357 14.25 14.7 14.5858 14.7 15C14.7 15.4142 15.0357 15.75 15.45 15.75V14.25ZM21.1937 10.9025C20.6215 6.53695 16.8946 3.27655 12.4917 3.28971L12.4962 4.78971C16.1443 4.7788 19.2323 7.48027 19.7064 11.0974L21.1937 10.9025ZM12.4917 3.28971C8.0889 3.30288 4.38159 6.58551 3.83548 10.9544L5.3239 11.1404C5.77639 7.52051 8.84816 4.80061 12.4962 4.78971L12.4917 3.28971ZM3.83548 10.9544C3.28937 15.3232 6.07459 19.4174 10.3387 20.514L10.7123 19.0612C7.17916 18.1527 4.87141 14.7603 5.3239 11.1404L3.83548 10.9544ZM10.3387 20.514C14.6028 21.6105 19.0176 19.3678 20.6468 15.2775L19.2533 14.7224C17.9034 18.1116 14.2454 19.9698 10.7123 19.0612L10.3387 20.514ZM21.2 20V15H19.7V20H21.2ZM20.45 14.25H15.45V15.75H20.45V14.25Z" fill="#E1DEF5" fill-opacity="0.4"/>
<circle cx="12.5" cy="12" r="1" stroke="#E1DEF5" stroke-opacity="0.4" stroke-width="1.5" stroke-linecap="round" stroke-linejoin="round"/>
</svg>
