<svg width="25" height="24" viewBox="0 0 25 24" fill="none" xmlns="http://www.w3.org/2000/svg">
<path d="M10.0605 3.47939C9.76757 3.77228 9.76757 4.24715 10.0605 4.54005C10.3534 4.83294 10.8282 4.83294 11.1211 4.54005L10.0605 3.47939ZM7.55023 7.05028L8.08056 7.58061C8.29506 7.36611 8.35923 7.04352 8.24314 6.76326C8.12706 6.48301 7.85358 6.30028 7.55023 6.30028L7.55023 7.05028ZM3.56215 6.30028C3.14794 6.30028 2.81215 6.63606 2.81215 7.05028C2.81215 7.46449 3.14794 7.80028 3.56215 7.80028L3.56215 6.30028ZM6.80019 11.0384C6.80019 11.4526 7.13598 11.7884 7.55019 11.7884C7.96441 11.7884 8.30019 11.4526 8.30019 11.0384H6.80019ZM8.30019 7.05027C8.30019 6.63606 7.96441 6.30027 7.55019 6.30027C7.13598 6.30027 6.80019 6.63606 6.80019 7.05027H8.30019ZM11.1211 4.54005L11.6161 4.04507L10.5554 2.98441L10.0605 3.47939L11.1211 4.54005ZM11.6161 4.04507C12.1043 3.55692 12.8957 3.55692 13.3839 4.04507L14.4445 2.98441C13.3706 1.91047 11.6294 1.91047 10.5554 2.98441L11.6161 4.04507ZM13.3839 4.04507L20.4549 11.1161L21.5156 10.0555L14.4445 2.98441L13.3839 4.04507ZM20.4549 11.1161C20.9431 11.6043 20.9431 12.3958 20.4549 12.8839L21.5156 13.9446C22.5895 12.8706 22.5895 11.1294 21.5156 10.0555L20.4549 11.1161ZM20.4549 12.8839L13.3839 19.955L14.4445 21.0156L21.5156 13.9446L20.4549 12.8839ZM13.3839 19.955C12.8957 20.4431 12.1043 20.4431 11.6161 19.955L10.5554 21.0156C11.6294 22.0896 13.3706 22.0896 14.4445 21.0156L13.3839 19.955ZM11.6161 19.955L4.54503 12.8839L3.48437 13.9446L10.5554 21.0156L11.6161 19.955ZM4.54503 12.8839C4.05687 12.3958 4.05687 11.6043 4.54503 11.1161L3.48437 10.0555C2.41043 11.1294 2.41043 12.8706 3.48437 13.9446L4.54503 12.8839ZM4.54503 11.1161L8.08056 7.58061L7.0199 6.51995L3.48437 10.0555L4.54503 11.1161ZM7.55023 6.30028L3.56215 6.30028L3.56215 7.80028L7.55023 7.80028L7.55023 6.30028ZM8.30019 11.0384V7.05027H6.80019L6.80019 11.0384H8.30019Z" fill="#E1DEF5" fill-opacity="0.4"/>
</svg>
