<svg width="25" height="24" viewBox="0 0 25 24" fill="none" xmlns="http://www.w3.org/2000/svg">
<path d="M3.80641 10.9025C3.75258 11.3132 4.04187 11.6897 4.45257 11.7436C4.86327 11.7974 5.23985 11.5081 5.29369 11.0974L3.80641 10.9025ZM5.74681 14.7224C5.59354 14.3376 5.15734 14.1499 4.77252 14.3032C4.38771 14.4565 4.20001 14.8927 4.35329 15.2775L5.74681 14.7224ZM3.80005 20C3.80005 20.4142 4.13584 20.75 4.55005 20.75C4.96426 20.75 5.30005 20.4142 5.30005 20H3.80005ZM4.55005 15V14.25C4.13584 14.25 3.80005 14.5858 3.80005 15H4.55005ZM9.55005 15.75C9.96426 15.75 10.3 15.4142 10.3 15C10.3 14.5858 9.96426 14.25 9.55005 14.25V15.75ZM5.29369 11.0974C5.76782 7.48027 8.8558 4.7788 12.5039 4.78971L12.5084 3.28971C8.10552 3.27655 4.37863 6.53695 3.80641 10.9025L5.29369 11.0974ZM12.5039 4.78971C16.1519 4.80061 19.2237 7.52051 19.6762 11.1404L21.1646 10.9544C20.6185 6.58551 16.9112 3.30288 12.5084 3.28971L12.5039 4.78971ZM19.6762 11.1404C20.1287 14.7603 17.821 18.1527 14.2878 19.0612L14.6614 20.514C18.9255 19.4174 21.7107 15.3232 21.1646 10.9544L19.6762 11.1404ZM14.2878 19.0612C10.7547 19.9698 7.09673 18.1116 5.74681 14.7224L4.35329 15.2775C5.98249 19.3678 10.3973 21.6105 14.6614 20.514L14.2878 19.0612ZM5.30005 20V15H3.80005V20H5.30005ZM4.55005 15.75H9.55005V14.25H4.55005V15.75Z" fill="#ACAAB1"/>
</svg>
