<svg width="25" height="24" viewBox="0 0 25 24" fill="none" xmlns="http://www.w3.org/2000/svg">
<path d="M3.80641 10.9023C3.75258 11.313 4.04187 11.6896 4.45257 11.7435C4.86327 11.7973 5.23985 11.508 5.29369 11.0973L3.80641 10.9023ZM5.74681 14.7223C5.59354 14.3375 5.15734 14.1498 4.77252 14.3031C4.38771 14.4563 4.20001 14.8925 4.35329 15.2773L5.74681 14.7223ZM3.80005 19.9999C3.80005 20.4141 4.13584 20.7499 4.55005 20.7499C4.96426 20.7499 5.30005 20.4141 5.30005 19.9999H3.80005ZM4.55005 14.9999V14.2499C4.13584 14.2499 3.80005 14.5857 3.80005 14.9999H4.55005ZM9.55005 15.7499C9.96426 15.7499 10.3 15.4141 10.3 14.9999C10.3 14.5857 9.96426 14.2499 9.55005 14.2499V15.7499ZM5.29369 11.0973C5.76782 7.48015 8.8558 4.77868 12.5039 4.78958L12.5084 3.28959C8.10552 3.27643 4.37863 6.53683 3.80641 10.9023L5.29369 11.0973ZM12.5039 4.78958C16.1519 4.80049 19.2237 7.52038 19.6762 11.1403L21.1646 10.9542C20.6185 6.58538 16.9112 3.30276 12.5084 3.28959L12.5039 4.78958ZM19.6762 11.1403C20.1287 14.7602 17.821 18.1525 14.2878 19.0611L14.6614 20.5138C18.9255 19.4173 21.7107 15.3231 21.1646 10.9542L19.6762 11.1403ZM14.2878 19.0611C10.7547 19.9697 7.09673 18.1114 5.74681 14.7223L4.35329 15.2773C5.98249 19.3677 10.3973 21.6104 14.6614 20.5138L14.2878 19.0611ZM5.30005 19.9999V14.9999H3.80005V19.9999H5.30005ZM4.55005 15.7499H9.55005V14.2499H4.55005V15.7499Z" fill="#2F2B3D" fill-opacity="0.9"/>
</svg>
