<svg width="25" height="24" viewBox="0 0 25 24" fill="none" xmlns="http://www.w3.org/2000/svg">
<path d="M10.0605 3.47926C9.76757 3.77216 9.76757 4.24703 10.0605 4.53992C10.3534 4.83282 10.8282 4.83282 11.1211 4.53992L10.0605 3.47926ZM13.9142 3.51462L13.3839 4.04495L13.9142 3.51462ZM20.9853 10.5857L21.5156 10.0554L20.9853 10.5857ZM11.0858 20.4852L11.6161 19.9549L11.0858 20.4852ZM4.0147 13.4141L3.48437 13.9444L4.0147 13.4141ZM7.55023 7.05015L8.08056 7.58048C8.29506 7.36598 8.35923 7.0434 8.24314 6.76314C8.12706 6.48288 7.85358 6.30015 7.55023 6.30015V7.05015ZM3.56215 6.30015C3.14794 6.30015 2.81215 6.63594 2.81215 7.05015C2.81215 7.46437 3.14794 7.80015 3.56215 7.80015L3.56215 6.30015ZM6.80019 11.0382C6.80019 11.4524 7.13598 11.7882 7.55019 11.7882C7.96441 11.7882 8.30019 11.4524 8.30019 11.0382L6.80019 11.0382ZM8.30019 7.05015C8.30019 6.63593 7.96441 6.30015 7.55019 6.30015C7.13598 6.30015 6.80019 6.63594 6.80019 7.05015L8.30019 7.05015ZM11.1211 4.53992L11.6161 4.04495L10.5554 2.98429L10.0605 3.47926L11.1211 4.53992ZM11.6161 4.04495C12.1043 3.55679 12.8957 3.55679 13.3839 4.04495L14.4445 2.98429C13.3706 1.91035 11.6294 1.91035 10.5554 2.98429L11.6161 4.04495ZM13.3839 4.04495L20.4549 11.116L21.5156 10.0554L14.4445 2.98429L13.3839 4.04495ZM20.4549 11.116C20.9431 11.6042 20.9431 12.3956 20.4549 12.8838L21.5156 13.9444C22.5895 12.8705 22.5895 11.1293 21.5156 10.0554L20.4549 11.116ZM20.4549 12.8838L13.3839 19.9549L14.4445 21.0155L21.5156 13.9444L20.4549 12.8838ZM13.3839 19.9549C12.8957 20.443 12.1043 20.443 11.6161 19.9549L10.5554 21.0155C11.6294 22.0895 13.3706 22.0895 14.4445 21.0155L13.3839 19.9549ZM11.6161 19.9549L4.54503 12.8838L3.48437 13.9444L10.5554 21.0155L11.6161 19.9549ZM4.54503 12.8838C4.05687 12.3956 4.05687 11.6042 4.54503 11.116L3.48437 10.0554C2.41043 11.1293 2.41043 12.8705 3.48437 13.9444L4.54503 12.8838ZM4.54503 11.116L8.08056 7.58048L7.0199 6.51982L3.48437 10.0554L4.54503 11.116ZM7.55023 6.30015L3.56215 6.30015L3.56215 7.80015L7.55023 7.80015V6.30015ZM8.30019 11.0382V7.05015L6.80019 7.05015V11.0382L8.30019 11.0382Z" fill="#2F2B3D" fill-opacity="0.9"/>
</svg>
