<svg width="25" height="24" viewBox="0 0 25 24" fill="none" xmlns="http://www.w3.org/2000/svg">
<path d="M15.2199 5.24574C15.6041 5.40046 16.041 5.21441 16.1957 4.83018C16.3505 4.44595 16.1644 4.00904 15.7802 3.85432L15.2199 5.24574ZM9.21988 20.1457C9.60411 20.3005 10.041 20.1144 10.1957 19.7302C10.3505 19.3459 10.1644 18.909 9.78018 18.7543L9.21988 20.1457ZM10.25 15C10.25 14.5858 9.91421 14.25 9.5 14.25C9.08579 14.25 8.75 14.5858 8.75 15H10.25ZM9.5 20V20.75C9.91421 20.75 10.25 20.4142 10.25 20H9.5ZM4.5 19.25C4.08579 19.25 3.75 19.5858 3.75 20C3.75 20.4142 4.08579 20.75 4.5 20.75V19.25ZM15.7802 3.85432C11.2814 2.04274 6.16589 4.22112 4.35432 8.71988L5.74574 9.28018C7.24787 5.54989 11.4896 3.74361 15.2199 5.24574L15.7802 3.85432ZM4.35432 8.71988C2.54274 13.2186 4.72112 18.3342 9.21988 20.1457L9.78018 18.7543C6.04989 17.2522 4.24361 13.0105 5.74574 9.28018L4.35432 8.71988ZM8.75 15V20H10.25V15H8.75ZM9.5 19.25H4.5V20.75H9.5V19.25Z" fill="#E1DEF5" fill-opacity="0.7"/>
<path d="M18.87 7.16004V7.17004" stroke="#E1DEF5" stroke-opacity="0.7" stroke-width="1.5" stroke-linecap="round" stroke-linejoin="round"/>
<path d="M13.5 19.9399V19.9499" stroke="#E1DEF5" stroke-opacity="0.7" stroke-width="1.5" stroke-linecap="round" stroke-linejoin="round"/>
<path d="M17.34 18.37V18.38" stroke="#E1DEF5" stroke-opacity="0.7" stroke-width="1.5" stroke-linecap="round" stroke-linejoin="round"/>
<path d="M19.87 15.1V15.11" stroke="#E1DEF5" stroke-opacity="0.7" stroke-width="1.5" stroke-linecap="round" stroke-linejoin="round"/>
<path d="M20.4399 11V11.01" stroke="#E1DEF5" stroke-opacity="0.7" stroke-width="1.5" stroke-linecap="round" stroke-linejoin="round"/>
</svg>
