<svg width="25" height="24" viewBox="0 0 25 24" fill="none" xmlns="http://www.w3.org/2000/svg">
<path d="M19.7064 11.0973C19.7603 11.508 20.1368 11.7973 20.5475 11.7435C20.9582 11.6896 21.2475 11.313 21.1937 10.9023L19.7064 11.0973ZM20.6468 15.2773C20.8001 14.8925 20.6124 14.4563 20.2276 14.3031C19.8428 14.1498 19.4066 14.3375 19.2533 14.7223L20.6468 15.2773ZM19.7 19.9999C19.7 20.4141 20.0357 20.7499 20.45 20.7499C20.8642 20.7499 21.2 20.4141 21.2 19.9999H19.7ZM20.45 14.9999H21.2C21.2 14.5857 20.8642 14.2499 20.45 14.2499V14.9999ZM15.45 14.2499C15.0357 14.2499 14.7 14.5857 14.7 14.9999C14.7 15.4141 15.0357 15.7499 15.45 15.7499V14.2499ZM21.1937 10.9023C20.6215 6.53683 16.8946 3.27643 12.4917 3.28959L12.4962 4.78958C16.1443 4.77868 19.2323 7.48015 19.7064 11.0973L21.1937 10.9023ZM12.4917 3.28959C8.0889 3.30276 4.38159 6.58538 3.83548 10.9542L5.3239 11.1403C5.77639 7.52038 8.84816 4.80049 12.4962 4.78958L12.4917 3.28959ZM3.83548 10.9542C3.28937 15.3231 6.07459 19.4173 10.3387 20.5138L10.7123 19.0611C7.17916 18.1525 4.87141 14.7602 5.3239 11.1403L3.83548 10.9542ZM10.3387 20.5138C14.6028 21.6104 19.0176 19.3677 20.6468 15.2773L19.2533 14.7223C17.9034 18.1114 14.2454 19.9697 10.7123 19.0611L10.3387 20.5138ZM21.2 19.9999V14.9999H19.7V19.9999H21.2ZM20.45 14.2499H15.45V15.7499H20.45V14.2499Z" fill="#2F2B3D" fill-opacity="0.9"/>
<circle cx="12.5" cy="12" r="1" stroke="#2F2B3D" stroke-opacity="0.9" stroke-width="1.5" stroke-linecap="round" stroke-linejoin="round"/>
</svg>
