<svg width="25" height="24" viewBox="0 0 25 24" fill="none" xmlns="http://www.w3.org/2000/svg">
<path d="M9.21985 3.85432C8.83562 4.00904 8.64956 4.44595 8.80429 4.83018C8.95901 5.21441 9.39592 5.40046 9.78015 5.24574L9.21985 3.85432ZM15.2198 18.7543C14.8356 18.909 14.6496 19.346 14.8043 19.7302C14.959 20.1144 15.3959 20.3005 15.7802 20.1457L15.2198 18.7543ZM16.25 15C16.25 14.5858 15.9142 14.25 15.5 14.25C15.0858 14.25 14.75 14.5858 14.75 15H16.25ZM15.5 20H14.75C14.75 20.4142 15.0858 20.75 15.5 20.75V20ZM20.5 20.75C20.9142 20.75 21.25 20.4142 21.25 20C21.25 19.5858 20.9142 19.25 20.5 19.25V20.75ZM9.78015 5.24574C13.5104 3.74361 17.7522 5.54989 19.2543 9.28018L20.6457 8.71988C18.8341 4.22112 13.7186 2.04274 9.21985 3.85432L9.78015 5.24574ZM19.2543 9.28018C20.7564 13.0105 18.9501 17.2522 15.2198 18.7543L15.7802 20.1457C20.2789 18.3342 22.4573 13.2186 20.6457 8.71988L19.2543 9.28018ZM14.75 15V20H16.25V15H14.75ZM15.5 20.75H20.5V19.25H15.5V20.75Z" fill="#E1DEF5" fill-opacity="0.9"/>
<path d="M6.13 7.16004V7.17004" stroke="#E1DEF5" stroke-opacity="0.9" stroke-width="1.5" stroke-linecap="round" stroke-linejoin="round"/>
<path d="M4.56006 11V11.01" stroke="#E1DEF5" stroke-opacity="0.9" stroke-width="1.5" stroke-linecap="round" stroke-linejoin="round"/>
<path d="M5.13 15.1V15.11" stroke="#E1DEF5" stroke-opacity="0.9" stroke-width="1.5" stroke-linecap="round" stroke-linejoin="round"/>
<path d="M7.66003 18.37V18.38" stroke="#E1DEF5" stroke-opacity="0.9" stroke-width="1.5" stroke-linecap="round" stroke-linejoin="round"/>
<path d="M11.5 19.9399V19.9499" stroke="#E1DEF5" stroke-opacity="0.9" stroke-width="1.5" stroke-linecap="round" stroke-linejoin="round"/>
</svg>
