<svg width="25" height="24" viewBox="0 0 25 24" fill="none" xmlns="http://www.w3.org/2000/svg">
<path d="M5.5 4H19.5C20.0523 4 20.5 4.44772 20.5 5V10C20.5 10.5523 20.0523 11 19.5 11H12.5C11.9477 11 11.5 11.4477 11.5 12V19C11.5 19.5523 11.0523 20 10.5 20H5.5C4.94772 20 4.5 19.5523 4.5 19V5C4.5 4.44772 4.94772 4 5.5 4" stroke="#E1DEF5" stroke-opacity="0.7" stroke-width="1.5" stroke-linecap="round" stroke-linejoin="round"/>
<path d="M4.5 8H6.5" stroke="#E1DEF5" stroke-opacity="0.7" stroke-width="1.5" stroke-linecap="round" stroke-linejoin="round"/>
<path d="M4.5 12H7.5" stroke="#E1DEF5" stroke-opacity="0.7" stroke-width="1.5" stroke-linecap="round" stroke-linejoin="round"/>
<path d="M4.5 16H6.5" stroke="#E1DEF5" stroke-opacity="0.7" stroke-width="1.5" stroke-linecap="round" stroke-linejoin="round"/>
<path d="M8.5 4V6" stroke="#E1DEF5" stroke-opacity="0.7" stroke-width="1.5" stroke-linecap="round" stroke-linejoin="round"/>
<path d="M12.5 4V7" stroke="#E1DEF5" stroke-opacity="0.7" stroke-width="1.5" stroke-linecap="round" stroke-linejoin="round"/>
<path d="M16.5 4V6" stroke="#E1DEF5" stroke-opacity="0.7" stroke-width="1.5" stroke-linecap="round" stroke-linejoin="round"/>
</svg>
