<svg width="25" height="24" viewBox="0 0 25 24" fill="none" xmlns="http://www.w3.org/2000/svg">
<path d="M12.5 13V13.01" stroke="#6D6B77" stroke-width="1.5" stroke-linecap="round" stroke-linejoin="round"/>
<path d="M10.5 16V16.01" stroke="#6D6B77" stroke-width="1.5" stroke-linecap="round" stroke-linejoin="round"/>
<path d="M14.5 16V16.01" stroke="#6D6B77" stroke-width="1.5" stroke-linecap="round" stroke-linejoin="round"/>
<path fill-rule="evenodd" clip-rule="evenodd" d="M8 8H17L16.719 5.752C16.5939 4.75095 15.7428 3.99978 14.734 4H10.266C9.25678 3.99928 8.40514 4.75057 8.28 5.752L8 8V8Z" stroke="#6D6B77" stroke-width="1.5" stroke-linecap="round" stroke-linejoin="round"/>
<path d="M7.99998 8L6.38798 17.671C6.29126 18.251 6.45464 18.8441 6.83471 19.2928C7.21477 19.7414 7.773 20.0001 8.36098 20H16.639C17.227 20.0001 17.7852 19.7414 18.1653 19.2928C18.5453 18.8441 18.7087 18.251 18.612 17.671L17 8" stroke="#6D6B77" stroke-width="1.5" stroke-linecap="round" stroke-linejoin="round"/>
</svg>
