<svg width="25" height="24" viewBox="0 0 25 24" fill="none" xmlns="http://www.w3.org/2000/svg">
<path fill-rule="evenodd" clip-rule="evenodd" d="M4.20697 6.29297L6.79297 3.70697C7.18347 3.31659 7.81647 3.31659 8.20697 3.70697L13.793 9.29297C14.1834 9.68347 14.1834 10.3165 13.793 10.707L11.207 13.293C10.8165 13.6834 10.1835 13.6834 9.79297 13.293L4.20697 7.70697C3.81659 7.31647 3.81659 6.68347 4.20697 6.29297Z" stroke="#E1DEF5" stroke-opacity="0.4" stroke-width="1.5" stroke-linecap="round" stroke-linejoin="round"/>
<path d="M6.5 10L3.5 13L6.5 16L9.5 13" stroke="#E1DEF5" stroke-opacity="0.4" stroke-width="1.5" stroke-linecap="round" stroke-linejoin="round"/>
<path d="M10.5 6L13.5 3L16.5 6L13.5 9" stroke="#E1DEF5" stroke-opacity="0.4" stroke-width="1.5" stroke-linecap="round" stroke-linejoin="round"/>
<path d="M12.5 12L14 13.5" stroke="#E1DEF5" stroke-opacity="0.4" stroke-width="1.5" stroke-linecap="round" stroke-linejoin="round"/>
<path d="M15 17C16.3807 17 17.5 15.8807 17.5 14.5" stroke="#E1DEF5" stroke-opacity="0.4" stroke-width="1.5" stroke-linecap="round" stroke-linejoin="round"/>
<path d="M15.5 21C18.8137 21 21.5 18.3137 21.5 15" stroke="#E1DEF5" stroke-opacity="0.4" stroke-width="1.5" stroke-linecap="round" stroke-linejoin="round"/>
</svg>
