<svg width="25" height="24" viewBox="0 0 25 24" fill="none" xmlns="http://www.w3.org/2000/svg">
<path fill-rule="evenodd" clip-rule="evenodd" d="M6 5.5C4.61929 5.5 3.5 6.61929 3.5 8C3.5 15.18 9.32 21 16.5 21C17.8807 21 19 19.8807 19 18.5C19 17.1193 17.8807 16 16.5 16C12.0817 16 8.5 12.4183 8.5 8C8.5 6.61929 7.38071 5.5 6 5.5Z" stroke="#2F2B3D" stroke-opacity="0.9" stroke-width="1.5" stroke-linecap="round" stroke-linejoin="round"/>
<path d="M5.69505 5.519L4.45205 3.53C4.25938 3.22173 4.24918 2.83319 4.42541 2.51523C4.60163 2.19728 4.93653 2 5.30005 2H6.69205C7.05558 2 7.39047 2.19728 7.5667 2.51523C7.74292 2.83319 7.73272 3.22173 7.54005 3.53L6.29505 5.52" stroke="#2F2B3D" stroke-opacity="0.9" stroke-width="1.5" stroke-linecap="round" stroke-linejoin="round"/>
<path d="M18.982 18.2251L20.971 16.9821C21.2792 16.7894 21.6678 16.7792 21.9857 16.9554C22.3037 17.1317 22.501 17.4666 22.501 17.8301V19.2221C22.501 19.5856 22.3037 19.9205 21.9857 20.0967C21.6678 20.273 21.2792 20.2627 20.971 20.0701L18.98 18.8251" stroke="#2F2B3D" stroke-opacity="0.9" stroke-width="1.5" stroke-linecap="round" stroke-linejoin="round"/>
</svg>
