<svg width="25" height="24" viewBox="0 0 25 24" fill="none" xmlns="http://www.w3.org/2000/svg">
<path d="M21.5 12V15C21.5 15.5523 21.0523 16 20.5 16H4.5C3.94772 16 3.5 15.5523 3.5 15V5C3.5 4.44772 3.94772 4 4.5 4H13.5" stroke="#ACAAB1" stroke-width="1.5" stroke-linecap="round" stroke-linejoin="round"/>
<path d="M7.5 20H17.5" stroke="#ACAAB1" stroke-width="1.5" stroke-linecap="round" stroke-linejoin="round"/>
<path d="M9.5 16V20" stroke="#ACAAB1" stroke-width="1.5" stroke-linecap="round" stroke-linejoin="round"/>
<path d="M15.5 16V20" stroke="#ACAAB1" stroke-width="1.5" stroke-linecap="round" stroke-linejoin="round"/>
<path d="M16.9697 7.46967C16.6768 7.76256 16.6768 8.23744 16.9697 8.53033C17.2626 8.82322 17.7374 8.82322 18.0303 8.53033L16.9697 7.46967ZM22.0303 4.53033C22.3232 4.23744 22.3232 3.76256 22.0303 3.46967C21.7374 3.17678 21.2626 3.17678 20.9697 3.46967L22.0303 4.53033ZM18.0303 3.46967C17.7374 3.17678 17.2626 3.17678 16.9697 3.46967C16.6768 3.76256 16.6768 4.23744 16.9697 4.53033L18.0303 3.46967ZM20.9697 8.53033C21.2626 8.82322 21.7374 8.82322 22.0303 8.53033C22.3232 8.23744 22.3232 7.76256 22.0303 7.46967L20.9697 8.53033ZM18.0303 8.53033L22.0303 4.53033L20.9697 3.46967L16.9697 7.46967L18.0303 8.53033ZM16.9697 4.53033L20.9697 8.53033L22.0303 7.46967L18.0303 3.46967L16.9697 4.53033Z" fill="#ACAAB1"/>
</svg>
