<svg width="25" height="24" viewBox="0 0 25 24" fill="none" xmlns="http://www.w3.org/2000/svg">
<path fill-rule="evenodd" clip-rule="evenodd" d="M4.5 7H16.5C17.0523 7 17.5 7.44772 17.5 8V12.5C17.5 13.8807 16.3807 15 15 15H14.5C13.3954 15 12.5 14.1046 12.5 13C12.5 11.8954 11.6046 11 10.5 11C9.39543 11 8.5 11.8954 8.5 13C8.5 14.1046 7.60457 15 6.5 15H6C4.61929 15 3.5 13.8807 3.5 12.5V8C3.5 7.44772 3.94772 7 4.5 7Z" stroke="#E1DEF5" stroke-opacity="0.4" stroke-width="1.5" stroke-linecap="round" stroke-linejoin="round"/>
<path d="M10.5 17C10.5 18.1046 11.3954 19 12.5 19H16C19.0376 19 21.5 16.5376 21.5 13.5V4" stroke="#E1DEF5" stroke-opacity="0.4" stroke-width="1.5" stroke-linecap="round" stroke-linejoin="round"/>
</svg>
