<svg width="23" height="22" viewBox="0 0 23 22" fill="none" xmlns="http://www.w3.org/2000/svg">
<path fill-rule="evenodd" clip-rule="evenodd" d="M10.2646 3.95725C10.6551 2.34758 12.9449 2.34758 13.3354 3.95725C13.4542 4.44772 13.8002 4.85194 14.2664 5.0451C14.7327 5.23826 15.2631 5.19713 15.694 4.93442C17.1084 4.07275 18.7282 5.69158 17.8665 7.10692C17.6041 7.53762 17.5631 8.06766 17.7561 8.5336C17.949 8.99954 18.3527 9.34542 18.8427 9.46458C20.4524 9.85508 20.4524 12.1449 18.8427 12.5354C18.3523 12.6543 17.948 13.0002 17.7549 13.4664C17.5617 13.9327 17.6029 14.4631 17.8656 14.894C18.7272 16.3084 17.1084 17.9282 15.6931 17.0665C15.2624 16.8042 14.7323 16.7631 14.2664 16.9561C13.8005 17.149 13.4546 17.5527 13.3354 18.0428C12.9449 19.6524 10.6551 19.6524 10.2646 18.0428C10.1457 17.5523 9.79979 17.1481 9.33356 16.9549C8.86732 16.7617 8.33688 16.8029 7.90599 17.0656C6.49157 17.9272 4.87182 16.3084 5.73349 14.8931C5.99583 14.4624 6.03685 13.9323 5.84392 13.4664C5.65099 13.0005 5.24726 12.6546 4.75724 12.5354C3.14757 12.1449 3.14757 9.85508 4.75724 9.46458C5.24771 9.34574 5.65193 8.9998 5.84509 8.53357C6.03825 8.06734 5.99712 7.53689 5.7344 7.106C4.87274 5.69158 6.49157 4.07183 7.9069 4.9335C8.82357 5.49083 10.0116 4.99767 10.2646 3.95725Z" stroke="#E1DEF5" stroke-opacity="0.9" stroke-width="1.5" stroke-linecap="round" stroke-linejoin="round"/>
<circle cx="11.8" cy="11" r="2.75" stroke="#E1DEF5" stroke-opacity="0.9" stroke-width="1.5" stroke-linecap="round" stroke-linejoin="round"/>
</svg>
