<svg width="25" height="24" viewBox="0 0 25 24" fill="none" xmlns="http://www.w3.org/2000/svg">
<path d="M6.66863 6.16403C6.95912 5.86875 6.95523 5.3939 6.65995 5.10341C6.36467 4.81292 5.88982 4.81681 5.59933 5.11209L6.66863 6.16403ZM19.388 18.8997C19.6833 18.6092 19.6871 18.1343 19.3966 17.839C19.1061 17.5438 18.6312 17.5399 18.336 17.8305L19.388 18.8997ZM19.8722 15.7075C19.6858 16.0774 19.8345 16.5284 20.2044 16.7148C20.5743 16.9012 21.0253 16.7524 21.2117 16.3825L19.8722 15.7075ZM8.11853 3.2872C7.7486 3.47354 7.59977 3.92449 7.78611 4.29442C7.97245 4.66436 8.4234 4.81319 8.79333 4.62684L8.11853 3.2872ZM5.59933 5.11209C1.84473 8.92864 1.86993 15.0587 5.65578 18.8443L6.7164 17.7836C3.51299 14.5804 3.49166 9.39343 6.66863 6.16403L5.59933 5.11209ZM5.65578 18.8443C9.44164 22.6299 15.5717 22.6546 19.388 18.8997L18.336 17.8305C15.1068 21.0077 9.91982 20.9868 6.7164 17.7836L5.65578 18.8443ZM21.2117 16.3825C23.1052 12.625 22.3746 8.07666 19.3996 5.10115L18.3389 6.16173C20.8562 8.67947 21.4744 12.5281 19.8722 15.7075L21.2117 16.3825ZM19.3996 5.10115C16.4246 2.12565 11.8764 1.39431 8.11853 3.2872L8.79333 4.62684C11.973 3.02517 15.8215 3.64399 18.3389 6.16173L19.3996 5.10115Z" fill="#6D6B77"/>
<path d="M16.5 12H18.5" stroke="#6D6B77" stroke-width="1.5" stroke-linecap="round" stroke-linejoin="round"/>
<path d="M13.5 15H15.5" stroke="#6D6B77" stroke-width="1.5" stroke-linecap="round" stroke-linejoin="round"/>
<path d="M13.5 18H14.5" stroke="#6D6B77" stroke-width="1.5" stroke-linecap="round" stroke-linejoin="round"/>
<path d="M13.5 9H17.5" stroke="#6D6B77" stroke-width="1.5" stroke-linecap="round" stroke-linejoin="round"/>
<path d="M13.5 6H14.5" stroke="#6D6B77" stroke-width="1.5" stroke-linecap="round" stroke-linejoin="round"/>
<path d="M3.5 3L21.5 21" stroke="#6D6B77" stroke-width="1.5" stroke-linecap="round" stroke-linejoin="round"/>
</svg>
