<svg width="25" height="24" viewBox="0 0 25 24" fill="none" xmlns="http://www.w3.org/2000/svg">
<circle cx="5.5" cy="5" r="2" stroke="#E1DEF5" stroke-opacity="0.4" stroke-width="1.5" stroke-linecap="round" stroke-linejoin="round"/>
<circle cx="19.5" cy="19" r="2" stroke="#E1DEF5" stroke-opacity="0.4" stroke-width="1.5" stroke-linecap="round" stroke-linejoin="round"/>
<circle cx="19.5" cy="5" r="2" stroke="#E1DEF5" stroke-opacity="0.4" stroke-width="1.5" stroke-linecap="round" stroke-linejoin="round"/>
<circle cx="5.5" cy="19" r="2" stroke="#E1DEF5" stroke-opacity="0.4" stroke-width="1.5" stroke-linecap="round" stroke-linejoin="round"/>
<path d="M6.46967 16.9697C6.17678 17.2626 6.17678 17.7374 6.46967 18.0303C6.76256 18.3232 7.23744 18.3232 7.53033 18.0303L6.46967 16.9697ZM18.5303 7.03033C18.8232 6.73744 18.8232 6.26256 18.5303 5.96967C18.2374 5.67678 17.7626 5.67678 17.4697 5.96967L18.5303 7.03033ZM6.25 7C6.25 6.58579 5.91421 6.25 5.5 6.25C5.08579 6.25 4.75 6.58579 4.75 7H6.25ZM4.75 17C4.75 17.4142 5.08579 17.75 5.5 17.75C5.91421 17.75 6.25 17.4142 6.25 17H4.75ZM20.25 7C20.25 6.58579 19.9142 6.25 19.5 6.25C19.0858 6.25 18.75 6.58579 18.75 7H20.25ZM18.75 17C18.75 17.4142 19.0858 17.75 19.5 17.75C19.9142 17.75 20.25 17.4142 20.25 17H18.75ZM7.53033 18.0303L18.5303 7.03033L17.4697 5.96967L6.46967 16.9697L7.53033 18.0303ZM4.75 7V17H6.25V7H4.75ZM18.75 7V17H20.25V7H18.75Z" fill="#E1DEF5" fill-opacity="0.4"/>
</svg>
