<svg width="25" height="24" viewBox="0 0 25 24" fill="none" xmlns="http://www.w3.org/2000/svg">
<circle cx="5.5" cy="5" r="2" stroke="#E1DEF5" stroke-opacity="0.4" stroke-width="1.5" stroke-linecap="round" stroke-linejoin="round"/>
<circle cx="19.5" cy="19" r="2" stroke="#E1DEF5" stroke-opacity="0.4" stroke-width="1.5" stroke-linecap="round" stroke-linejoin="round"/>
<circle cx="19.5" cy="5" r="2" stroke="#E1DEF5" stroke-opacity="0.4" stroke-width="1.5" stroke-linecap="round" stroke-linejoin="round"/>
<circle cx="5.5" cy="19" r="2" stroke="#E1DEF5" stroke-opacity="0.4" stroke-width="1.5" stroke-linecap="round" stroke-linejoin="round"/>
<path d="M7.5 4.25C7.08579 4.25 6.75 4.58579 6.75 5C6.75 5.41421 7.08579 5.75 7.5 5.75V4.25ZM17.5 5.75C17.9142 5.75 18.25 5.41421 18.25 5C18.25 4.58579 17.9142 4.25 17.5 4.25V5.75ZM6.25 7C6.25 6.58579 5.91421 6.25 5.5 6.25C5.08579 6.25 4.75 6.58579 4.75 7H6.25ZM4.75 17C4.75 17.4142 5.08579 17.75 5.5 17.75C5.91421 17.75 6.25 17.4142 6.25 17H4.75ZM20.25 7C20.25 6.58579 19.9142 6.25 19.5 6.25C19.0858 6.25 18.75 6.58579 18.75 7H20.25ZM18.75 17C18.75 17.4142 19.0858 17.75 19.5 17.75C19.9142 17.75 20.25 17.4142 20.25 17H18.75ZM7.5 5.75H17.5V4.25H7.5V5.75ZM4.75 7V17H6.25V7H4.75ZM18.75 7V17H20.25V7H18.75Z" fill="#E1DEF5" fill-opacity="0.4"/>
</svg>
