<svg width="25" height="24" viewBox="0 0 25 24" fill="none" xmlns="http://www.w3.org/2000/svg">
<path d="M3.5 3L21.5 21" stroke="#2F2B3D" stroke-opacity="0.9" stroke-width="1.5" stroke-linecap="round" stroke-linejoin="round"/>
<path d="M18.7117 18.1868C18.9976 17.8872 18.9866 17.4124 18.6869 17.1265C18.3873 16.8405 17.9125 16.8516 17.6265 17.1512L18.7117 18.1868ZM12.5001 21L12.3118 21.726C12.4353 21.758 12.5649 21.758 12.6884 21.726L12.5001 21ZM4.0001 6.00002L4.03395 5.25079C3.68897 5.2352 3.37794 5.45719 3.28055 5.7885L4.0001 6.00002ZM6.48616 6.61435C6.89503 6.54805 7.17274 6.16284 7.10643 5.75397C7.04013 5.3451 6.65492 5.06739 6.24605 5.13369L6.48616 6.61435ZM9.15121 4.27762C8.77324 4.44706 8.60419 4.89082 8.77363 5.2688C8.94307 5.64677 9.38683 5.81582 9.76481 5.64638L9.15121 4.27762ZM12.5 3L12.997 2.43828C12.7132 2.18725 12.2868 2.18724 12.0031 2.43825L12.5 3ZM21 6L21.7196 5.78844C21.6221 5.45699 21.3108 5.23499 20.9657 5.25078L21 6ZM19.2333 15.0044C19.0264 15.3632 19.1495 15.8218 19.5084 16.0287C19.8672 16.2356 20.3258 16.1125 20.5327 15.7536L19.2333 15.0044ZM17.6265 17.1512C16.1803 18.6667 14.3396 19.7482 12.3118 20.274L12.6884 21.726C14.9865 21.1301 17.0726 19.9043 18.7117 18.1868L17.6265 17.1512ZM12.6884 20.274C9.73964 19.5092 7.22711 17.5812 5.72522 14.9308L4.42018 15.6703C6.12232 18.6741 8.96986 20.8592 12.3118 21.726L12.6884 20.274ZM5.72522 14.9308C4.22333 12.2804 3.86049 9.13423 4.71966 6.21155L3.28055 5.7885C2.30683 9.10088 2.71804 12.6665 4.42018 15.6703L5.72522 14.9308ZM3.96626 6.74926C4.80793 6.78728 5.652 6.74962 6.48616 6.61435L6.24605 5.13369C5.52621 5.25043 4.78627 5.28477 4.03395 5.25079L3.96626 6.74926ZM9.76481 5.64638C10.9414 5.11893 12.0312 4.41606 12.9969 3.56175L12.0031 2.43825C11.1509 3.19205 10.1894 3.81223 9.15121 4.27762L9.76481 5.64638ZM12.003 3.56172C14.4849 5.75745 17.724 6.90069 21.0343 6.74922L20.9657 5.25078C18.0449 5.38444 15.1868 4.3757 12.997 2.43828L12.003 3.56172ZM20.2805 6.21156C21.1481 9.16241 20.7696 12.3398 19.2333 15.0044L20.5327 15.7536C22.274 12.7338 22.7028 9.13275 21.7196 5.78844L20.2805 6.21156Z" fill="#2F2B3D" fill-opacity="0.9"/>
</svg>
