<svg width="25" height="24" viewBox="0 0 25 24" fill="none" xmlns="http://www.w3.org/2000/svg">
<path d="M12.5001 3C14.8359 5.06658 17.8846 6.14257 21.0001 6C21.9165 9.11753 21.5295 12.4734 19.9275 15.3005C18.3255 18.1276 15.6455 20.1842 12.5001 21C9.35475 20.1842 6.67472 18.1276 5.0727 15.3005C3.47069 12.4734 3.08366 9.11753 4.0001 6C7.11563 6.14257 10.1643 5.06658 12.5001 3" stroke="#ACAAB1" stroke-width="1.5" stroke-linecap="round" stroke-linejoin="round"/>
<path d="M11.0303 9.46967C10.7374 9.17678 10.2626 9.17678 9.96967 9.46967C9.67678 9.76256 9.67678 10.2374 9.96967 10.5303L11.0303 9.46967ZM13.9697 14.5303C14.2626 14.8232 14.7374 14.8232 15.0303 14.5303C15.3232 14.2374 15.3232 13.7626 15.0303 13.4697L13.9697 14.5303ZM15.0303 10.5303C15.3232 10.2374 15.3232 9.76256 15.0303 9.46967C14.7374 9.17678 14.2626 9.17678 13.9697 9.46967L15.0303 10.5303ZM9.96967 13.4697C9.67678 13.7626 9.67678 14.2374 9.96967 14.5303C10.2626 14.8232 10.7374 14.8232 11.0303 14.5303L9.96967 13.4697ZM9.96967 10.5303L13.9697 14.5303L15.0303 13.4697L11.0303 9.46967L9.96967 10.5303ZM13.9697 9.46967L9.96967 13.4697L11.0303 14.5303L15.0303 10.5303L13.9697 9.46967Z" fill="#ACAAB1"/>
</svg>
