<svg width="25" height="24" viewBox="0 0 25 24" fill="none" xmlns="http://www.w3.org/2000/svg">
<path d="M2.5 20C2.96118 20.6425 3.70929 21.0166 4.5 21C5.29071 21.0166 6.03882 20.6425 6.5 20C6.96118 19.3575 7.70929 18.9835 8.5 19C9.29071 18.9835 10.0388 19.3575 10.5 20C10.9612 20.6425 11.7093 21.0166 12.5 21C13.2907 21.0166 14.0388 20.6425 14.5 20C14.9612 19.3575 15.7093 18.9835 16.5 19C17.2907 18.9835 18.0388 19.3575 18.5 20C18.9612 20.6425 19.7093 21.0166 20.5 21C21.2907 21.0166 22.0388 20.6425 22.5 20" stroke="#2F2B3D" stroke-opacity="0.9" stroke-width="1.5" stroke-linecap="round" stroke-linejoin="round"/>
<path d="M4.5 18L3.5 13H21.5L19.5 17" stroke="#2F2B3D" stroke-opacity="0.9" stroke-width="1.5" stroke-linecap="round" stroke-linejoin="round"/>
<path d="M5.5 13V7H13.5L17.5 13" stroke="#2F2B3D" stroke-opacity="0.9" stroke-width="1.5" stroke-linecap="round" stroke-linejoin="round"/>
<path d="M7.5 7V3H6.5" stroke="#2F2B3D" stroke-opacity="0.9" stroke-width="1.5" stroke-linecap="round" stroke-linejoin="round"/>
</svg>
