<svg width="20" height="20" viewBox="0 0 20 20" fill="none" xmlns="http://www.w3.org/2000/svg">
<g id="ship">
<path id="Path" d="M1.66699 16.6674C2.05131 17.2028 2.67473 17.5145 3.33366 17.5007C3.99259 17.5145 4.61601 17.2028 5.00033 16.6674C5.38464 16.132 6.00807 15.8203 6.66699 15.8341C7.32592 15.8203 7.94935 16.132 8.33366 16.6674C8.71797 17.2028 9.3414 17.5145 10.0003 17.5007C10.6593 17.5145 11.2827 17.2028 11.667 16.6674C12.0513 16.132 12.6747 15.8203 13.3337 15.8341C13.9926 15.8203 14.616 16.132 15.0003 16.6674C15.3846 17.2028 16.0081 17.5145 16.667 17.5007C17.3259 17.5145 17.9493 17.2028 18.3337 16.6674" stroke="#E1DEF5" stroke-opacity="0.9" stroke-width="1.5" stroke-linecap="round" stroke-linejoin="round"/>
<path id="Path_2" d="M3.33333 15.0008L2.5 10.8341H17.5L15.8333 14.1674" stroke="#E1DEF5" stroke-opacity="0.9" stroke-width="1.5" stroke-linecap="round" stroke-linejoin="round"/>
<path id="Path_3" d="M4.16699 10.8341V5.83411H10.8337L14.167 10.8341" stroke="#E1DEF5" stroke-opacity="0.9" stroke-width="1.5" stroke-linecap="round" stroke-linejoin="round"/>
<path id="Path_4" d="M5.83333 5.83407V2.50073H5" stroke="#E1DEF5" stroke-opacity="0.9" stroke-width="1.5" stroke-linecap="round" stroke-linejoin="round"/>
</g>
</svg>
