<svg width="25" height="24" viewBox="0 0 25 24" fill="none" xmlns="http://www.w3.org/2000/svg">
<path fill-rule="evenodd" clip-rule="evenodd" d="M4.5 6H9.926C10.2814 6.00025 10.6099 6.18907 10.789 6.496L11.853 8.319C12.2661 9.02743 12.9513 9.53586 13.749 9.726L18.426 10.84C20.2276 11.2687 21.4994 12.8781 21.5 14.73V17C21.5 17.5523 21.0523 18 20.5 18H4.5C3.94772 18 3.5 17.5523 3.5 17V7C3.5 6.44772 3.94772 6 4.5 6V6Z" stroke="#E1DEF5" stroke-opacity="0.9" stroke-width="1.5" stroke-linecap="round" stroke-linejoin="round"/>
<path d="M14.5 13L15.5 11" stroke="#E1DEF5" stroke-opacity="0.9" stroke-width="1.5" stroke-linecap="round" stroke-linejoin="round"/>
<path d="M8.5 18V17C8.5 14.7909 6.70914 13 4.5 13H3.5" stroke="#E1DEF5" stroke-opacity="0.9" stroke-width="1.5" stroke-linecap="round" stroke-linejoin="round"/>
<path d="M10.5 12L12 9" stroke="#E1DEF5" stroke-opacity="0.9" stroke-width="1.5" stroke-linecap="round" stroke-linejoin="round"/>
</svg>
