<svg width="22" height="23" viewBox="0 0 22 23" fill="none" xmlns="http://www.w3.org/2000/svg">
<g id="shoe">
<path id="Path" fill-rule="evenodd" clip-rule="evenodd" d="M3.66667 6H8.6405C8.96625 6.00023 9.26741 6.17332 9.43158 6.45467L10.4069 8.12575C10.7856 8.77515 11.4136 9.24121 12.1449 9.4155L16.4322 10.4367C18.0837 10.8297 19.2494 12.3049 19.25 14.0025V16.0833C19.25 16.5896 18.8396 17 18.3333 17H3.66667C3.16041 17 2.75 16.5896 2.75 16.0833V6.91667C2.75 6.41041 3.16041 6 3.66667 6V6Z" stroke="#28C76F" stroke-width="1.5" stroke-linecap="round" stroke-linejoin="round"/>
<path id="Path_2" d="M12.832 12.4168L13.7487 10.5835" stroke="#28C76F" stroke-width="1.5" stroke-linecap="round" stroke-linejoin="round"/>
<path id="Path_3" d="M7.33333 16.9998V16.0832C7.33333 14.0581 5.69171 12.4165 3.66667 12.4165H2.75" stroke="#28C76F" stroke-width="1.5" stroke-linecap="round" stroke-linejoin="round"/>
<path id="Path_4" d="M9.16797 11.5L10.543 8.75" stroke="#28C76F" stroke-width="1.5" stroke-linecap="round" stroke-linejoin="round"/>
</g>
</svg>
