<svg width="25" height="24" viewBox="0 0 25 24" fill="none" xmlns="http://www.w3.org/2000/svg">
<circle cx="6.5" cy="19" r="2" stroke="#2F2B3D" stroke-opacity="0.9" stroke-width="1.5" stroke-linecap="round" stroke-linejoin="round"/>
<circle cx="17.5" cy="19" r="2" stroke="#2F2B3D" stroke-opacity="0.9" stroke-width="1.5" stroke-linecap="round" stroke-linejoin="round"/>
<path d="M17.5 17H6.5V3H4.5" stroke="#2F2B3D" stroke-opacity="0.9" stroke-width="1.5" stroke-linecap="round" stroke-linejoin="round"/>
<path d="M6.5534 4.25166C6.14024 4.22217 5.7814 4.53319 5.7519 4.94635C5.72241 5.35952 6.03344 5.71836 6.4466 5.74785L6.5534 4.25166ZM14.4456 6.31885C14.8588 6.34835 15.2176 6.03732 15.2471 5.62416C15.2766 5.211 14.9656 4.85215 14.5524 4.82266L14.4456 6.31885ZM20.6714 10.107C20.7301 9.697 20.4452 9.31704 20.0352 9.25839C19.6252 9.19973 19.2452 9.48459 19.1866 9.89463L20.6714 10.107ZM19.5 12.9998V13.7498C19.8732 13.7498 20.1896 13.4755 20.2424 13.106L19.5 12.9998ZM6.5 12.2498C6.08579 12.2498 5.75 12.5856 5.75 12.9998C5.75 13.414 6.08579 13.7498 6.5 13.7498V12.2498ZM6.4466 5.74785L14.4456 6.31885L14.5524 4.82266L6.5534 4.25166L6.4466 5.74785ZM19.1866 9.89463L18.7576 12.8936L20.2424 13.106L20.6714 10.107L19.1866 9.89463ZM19.5 12.2498H6.5V13.7498H19.5V12.2498Z" fill="#2F2B3D" fill-opacity="0.9"/>
<path d="M17.5 3L21.5 7" stroke="#2F2B3D" stroke-opacity="0.9" stroke-width="1.5" stroke-linecap="round" stroke-linejoin="round"/>
<path d="M21.5 3L17.5 7" stroke="#2F2B3D" stroke-opacity="0.9" stroke-width="1.5" stroke-linecap="round" stroke-linejoin="round"/>
</svg>
