<svg width="25" height="24" viewBox="0 0 25 24" fill="none" xmlns="http://www.w3.org/2000/svg">
<circle cx="6.5" cy="19" r="2" stroke="#E1DEF5" stroke-opacity="0.4" stroke-width="1.5" stroke-linecap="round" stroke-linejoin="round"/>
<circle cx="17.5" cy="19" r="2" stroke="#E1DEF5" stroke-opacity="0.4" stroke-width="1.5" stroke-linecap="round" stroke-linejoin="round"/>
<path d="M17.5 17H6.5V3H4.5" stroke="#E1DEF5" stroke-opacity="0.4" stroke-width="1.5" stroke-linecap="round" stroke-linejoin="round"/>
<path d="M6.5534 4.25172C6.14024 4.22223 5.7814 4.53325 5.7519 4.94641C5.72241 5.35958 6.03344 5.71842 6.4466 5.74791L6.5534 4.25172ZM14.4456 6.31891C14.8588 6.34841 15.2176 6.03738 15.2471 5.62422C15.2766 5.21106 14.9656 4.85221 14.5524 4.82272L14.4456 6.31891ZM20.6714 10.1071C20.7301 9.69706 20.4452 9.31711 20.0352 9.25845C19.6252 9.1998 19.2452 9.48465 19.1866 9.89469L20.6714 10.1071ZM19.5 12.9999V13.7499C19.8732 13.7499 20.1896 13.4755 20.2424 13.1061L19.5 12.9999ZM6.5 12.2499C6.08579 12.2499 5.75 12.5857 5.75 12.9999C5.75 13.4141 6.08579 13.7499 6.5 13.7499V12.2499ZM6.4466 5.74791L14.4456 6.31891L14.5524 4.82272L6.5534 4.25172L6.4466 5.74791ZM19.1866 9.89469L18.7576 12.8937L20.2424 13.1061L20.6714 10.1071L19.1866 9.89469ZM19.5 12.2499H6.5V13.7499H19.5V12.2499Z" fill="#E1DEF5" fill-opacity="0.4"/>
<path d="M17.5 3L21.5 7" stroke="#E1DEF5" stroke-opacity="0.4" stroke-width="1.5" stroke-linecap="round" stroke-linejoin="round"/>
<path d="M21.5 3L17.5 7" stroke="#E1DEF5" stroke-opacity="0.4" stroke-width="1.5" stroke-linecap="round" stroke-linejoin="round"/>
</svg>
