<svg width="25" height="24" viewBox="0 0 25 24" fill="none" xmlns="http://www.w3.org/2000/svg">
<circle cx="6.5" cy="19" r="2" stroke="#E1DEF5" stroke-opacity="0.9" stroke-width="1.5" stroke-linecap="round" stroke-linejoin="round"/>
<circle cx="17.5" cy="19" r="2" stroke="#E1DEF5" stroke-opacity="0.9" stroke-width="1.5" stroke-linecap="round" stroke-linejoin="round"/>
<path d="M17.5 17H6.5V3H4.5" stroke="#E1DEF5" stroke-opacity="0.9" stroke-width="1.5" stroke-linecap="round" stroke-linejoin="round"/>
<path d="M6.55344 4.25185C6.14028 4.22233 5.78142 4.53333 5.75191 4.94649C5.72239 5.35966 6.0334 5.71852 6.44656 5.74803L6.55344 4.25185ZM12.4516 6.17703C12.8647 6.20655 13.2236 5.89554 13.2531 5.48238C13.2826 5.06922 12.9716 4.71036 12.5584 4.68085L12.4516 6.17703ZM20.3854 12.1083C20.4442 11.6983 20.1594 11.3183 19.7494 11.2595C19.3394 11.2008 18.9593 11.4855 18.9006 11.8956L20.3854 12.1083ZM19.5 12.9999V13.7499C19.8731 13.7499 20.1895 13.4757 20.2424 13.1063L19.5 12.9999ZM6.5 12.2499C6.08579 12.2499 5.75 12.5857 5.75 12.9999C5.75 13.4142 6.08579 13.7499 6.5 13.7499V12.2499ZM6.44656 5.74803L12.4516 6.17703L12.5584 4.68085L6.55344 4.25185L6.44656 5.74803ZM18.9006 11.8956L18.7576 12.8936L20.2424 13.1063L20.3854 12.1083L18.9006 11.8956ZM19.5 12.2499H6.5V13.7499H19.5V12.2499Z" fill="#E1DEF5" fill-opacity="0.9"/>
<path d="M15.5 5.25C15.0858 5.25 14.75 5.58579 14.75 6C14.75 6.41421 15.0858 6.75 15.5 6.75V5.25ZM21.5 6.75C21.9142 6.75 22.25 6.41421 22.25 6C22.25 5.58579 21.9142 5.25 21.5 5.25V6.75ZM19.25 3C19.25 2.58579 18.9142 2.25 18.5 2.25C18.0858 2.25 17.75 2.58579 17.75 3H19.25ZM17.75 9C17.75 9.41421 18.0858 9.75 18.5 9.75C18.9142 9.75 19.25 9.41421 19.25 9H17.75ZM15.5 6.75H21.5V5.25H15.5V6.75ZM17.75 3V9H19.25V3H17.75Z" fill="#E1DEF5" fill-opacity="0.9"/>
</svg>
