<svg width="25" height="24" viewBox="0 0 25 24" fill="none" xmlns="http://www.w3.org/2000/svg">
<circle cx="6.5" cy="19" r="2" stroke="#E1DEF5" stroke-opacity="0.9" stroke-width="1.5" stroke-linecap="round" stroke-linejoin="round"/>
<path d="M17.5 17C16.3954 17 15.5 17.8954 15.5 19C15.5 20.1046 16.3954 21 17.5 21C18.6046 21 19.5 20.1046 19.5 19" stroke="#E1DEF5" stroke-opacity="0.9" stroke-width="1.5" stroke-linecap="round" stroke-linejoin="round"/>
<path d="M17.5 17H6.5V6" stroke="#E1DEF5" stroke-opacity="0.9" stroke-width="1.5" stroke-linecap="round" stroke-linejoin="round"/>
<path d="M9.79247 4.48286C9.37931 4.45334 9.02045 4.76434 8.99092 5.1775C8.9614 5.59066 9.27239 5.94952 9.68555 5.97905L9.79247 4.48286ZM20.5 5.99996L21.2425 6.10602C21.2719 5.90002 21.2144 5.69104 21.0838 5.52907C20.9531 5.3671 20.761 5.2667 20.5535 5.25186L20.5 5.99996ZM19.5 13V13.75C19.8733 13.75 20.1897 13.4755 20.2425 13.106L19.5 13ZM17.5 12.25C17.0858 12.25 16.75 12.5857 16.75 13C16.75 13.4142 17.0858 13.75 17.5 13.75V12.25ZM13.5 13.75C13.9142 13.75 14.25 13.4142 14.25 13C14.25 12.5858 13.9142 12.25 13.5 12.25V13.75ZM6.5 12.25C6.08579 12.25 5.75 12.5858 5.75 13C5.75 13.4142 6.08579 13.75 6.5 13.75V12.25ZM9.68555 5.97905L20.4466 6.74805L20.5535 5.25186L9.79247 4.48286L9.68555 5.97905ZM19.7576 5.89389L18.7576 12.8939L20.2425 13.106L21.2425 6.10602L19.7576 5.89389ZM19.5 12.25H17.5V13.75H19.5V12.25ZM13.5 12.25H6.5V13.75H13.5V12.25Z" fill="#E1DEF5" fill-opacity="0.9"/>
<path d="M3.5 3L21.5 21" stroke="#E1DEF5" stroke-opacity="0.9" stroke-width="1.5" stroke-linecap="round" stroke-linejoin="round"/>
</svg>
