<svg width="25" height="24" viewBox="0 0 25 24" fill="none" xmlns="http://www.w3.org/2000/svg">
<circle cx="6.5" cy="19" r="2" stroke="#2F2B3D" stroke-opacity="0.9" stroke-width="1.5" stroke-linecap="round" stroke-linejoin="round"/>
<circle cx="17.5" cy="19" r="2" stroke="#2F2B3D" stroke-opacity="0.9" stroke-width="1.5" stroke-linecap="round" stroke-linejoin="round"/>
<path d="M17.5 17H6.5V3H4.5" stroke="#2F2B3D" stroke-opacity="0.9" stroke-width="1.5" stroke-linecap="round" stroke-linejoin="round"/>
<path d="M6.55344 4.25191C6.14028 4.22239 5.78142 4.5334 5.75191 4.94656C5.72239 5.35972 6.0334 5.71858 6.44656 5.74809L6.55344 4.25191ZM12.4516 6.17709C12.8647 6.20661 13.2236 5.8956 13.2531 5.48244C13.2826 5.06928 12.9716 4.71042 12.5584 4.68091L12.4516 6.17709ZM20.3854 12.1084C20.4442 11.6984 20.1594 11.3183 19.7494 11.2596C19.3394 11.2008 18.9593 11.4856 18.9006 11.8956L20.3854 12.1084ZM19.5 13V13.75C19.8731 13.75 20.1895 13.4757 20.2424 13.1064L19.5 13ZM6.5 12.25C6.08579 12.25 5.75 12.5858 5.75 13C5.75 13.4142 6.08579 13.75 6.5 13.75V12.25ZM6.44656 5.74809L12.4516 6.17709L12.5584 4.68091L6.55344 4.25191L6.44656 5.74809ZM18.9006 11.8956L18.7576 12.8936L20.2424 13.1064L20.3854 12.1084L18.9006 11.8956ZM19.5 12.25H6.5V13.75H19.5V12.25Z" fill="#2F2B3D" fill-opacity="0.9"/>
<path d="M15.5 5.25C15.0858 5.25 14.75 5.58579 14.75 6C14.75 6.41421 15.0858 6.75 15.5 6.75V5.25ZM21.5 6.75C21.9142 6.75 22.25 6.41421 22.25 6C22.25 5.58579 21.9142 5.25 21.5 5.25V6.75ZM19.25 3C19.25 2.58579 18.9142 2.25 18.5 2.25C18.0858 2.25 17.75 2.58579 17.75 3H19.25ZM17.75 9C17.75 9.41421 18.0858 9.75 18.5 9.75C18.9142 9.75 19.25 9.41421 19.25 9H17.75ZM15.5 6.75H21.5V5.25H15.5V6.75ZM17.75 3V9H19.25V3H17.75Z" fill="#2F2B3D" fill-opacity="0.9"/>
</svg>
