<svg width="25" height="24" viewBox="0 0 25 24" fill="none" xmlns="http://www.w3.org/2000/svg">
<rect x="4.5" y="10" width="16" height="5" rx="1" stroke="#ACAAB1" stroke-width="1.5" stroke-linecap="round" stroke-linejoin="round"/>
<path d="M16.75 10C16.75 10.4142 17.0858 10.75 17.5 10.75C17.9142 10.75 18.25 10.4142 18.25 10H16.75ZM6.75 10C6.75 10.4142 7.08579 10.75 7.5 10.75C7.91421 10.75 8.25 10.4142 8.25 10H6.75ZM13.25 15C13.25 14.5858 12.9142 14.25 12.5 14.25C12.0858 14.25 11.75 14.5858 11.75 15H13.25ZM11.75 20C11.75 20.4142 12.0858 20.75 12.5 20.75C12.9142 20.75 13.25 20.4142 13.25 20H11.75ZM17.25 15C17.25 14.5858 16.9142 14.25 16.5 14.25C16.0858 14.25 15.75 14.5858 15.75 15H17.25ZM15.75 17C15.75 17.4142 16.0858 17.75 16.5 17.75C16.9142 17.75 17.25 17.4142 17.25 17H15.75ZM9.25 15C9.25 14.5858 8.91421 14.25 8.5 14.25C8.08579 14.25 7.75 14.5858 7.75 15H9.25ZM7.75 18C7.75 18.4142 8.08579 18.75 8.5 18.75C8.91421 18.75 9.25 18.4142 9.25 18H7.75ZM18.25 10V6H16.75V10H18.25ZM18.25 6C18.25 4.48122 17.0188 3.25 15.5 3.25V4.75C16.1904 4.75 16.75 5.30964 16.75 6H18.25ZM15.5 3.25H9.5V4.75H15.5V3.25ZM9.5 3.25C7.98122 3.25 6.75 4.48122 6.75 6H8.25C8.25 5.30964 8.80964 4.75 9.5 4.75V3.25ZM6.75 6V10H8.25V6H6.75ZM11.75 15V20H13.25V15H11.75ZM15.75 15V17H17.25V15H15.75ZM7.75 15V18H9.25V15H7.75Z" fill="#ACAAB1"/>
</svg>
