<svg width="25" height="24" viewBox="0 0 25 24" fill="none" xmlns="http://www.w3.org/2000/svg">
<path d="M3.5 19H18.5C20.7091 19 22.5 17.2091 22.5 15" stroke="#E1DEF5" stroke-opacity="0.9" stroke-width="1.5" stroke-linecap="round" stroke-linejoin="round"/>
<path fill-rule="evenodd" clip-rule="evenodd" d="M16.5 15H7.5C5.29086 15 3.5 13.2091 3.5 11V5L4.743 6.243C5.86812 7.36793 7.39397 7.99993 8.985 8H12.5V10C12.5 11.1046 13.3954 12 14.5 12H15C15.8284 12 16.5 11.3284 16.5 10.5C16.5 9.67157 17.1716 9 18 9C18.8284 9 19.5 9.67157 19.5 10.5V12C19.5 13.6569 18.1569 15 16.5 15Z" stroke="#E1DEF5" stroke-opacity="0.9" stroke-width="1.5" stroke-linecap="round" stroke-linejoin="round"/>
<path d="M15.5 15V19" stroke="#E1DEF5" stroke-opacity="0.9" stroke-width="1.5" stroke-linecap="round" stroke-linejoin="round"/>
<path d="M7.5 15V19" stroke="#E1DEF5" stroke-opacity="0.9" stroke-width="1.5" stroke-linecap="round" stroke-linejoin="round"/>
</svg>
