<svg width="25" height="24" viewBox="0 0 25 24" fill="none" xmlns="http://www.w3.org/2000/svg">
<path d="M8.5 13V17" stroke="#6D6B77" stroke-width="1.5" stroke-linecap="round" stroke-linejoin="round"/>
<path d="M16.5 5V5.5C16.5 6.60457 17.3954 7.5 18.5 7.5C19.6046 7.5 20.5 8.39543 20.5 9.5V10" stroke="#6D6B77" stroke-width="1.5" stroke-linecap="round" stroke-linejoin="round"/>
<path d="M3.5 3L21.5 21" stroke="#6D6B77" stroke-width="1.5" stroke-linecap="round" stroke-linejoin="round"/>
<path d="M17.5 12.25C17.0858 12.25 16.75 12.5858 16.75 13C16.75 13.4142 17.0858 13.75 17.5 13.75V12.25ZM20.6755 16.1779C20.3794 16.4676 20.3742 16.9424 20.6639 17.2385C20.9536 17.5346 21.4284 17.5398 21.7245 17.2501L20.6755 16.1779ZM17.5 17.75C17.9142 17.75 18.25 17.4142 18.25 17C18.25 16.5858 17.9142 16.25 17.5 16.25V17.75ZM13.5 13.75C13.9142 13.75 14.25 13.4142 14.25 13C14.25 12.5858 13.9142 12.25 13.5 12.25V13.75ZM17.5 13.75H20.5V12.25H17.5V13.75ZM20.5 13.75C20.6381 13.75 20.75 13.8619 20.75 14H22.25C22.25 13.0335 21.4665 12.25 20.5 12.25V13.75ZM20.75 14V16H22.25V14H20.75ZM20.75 16C20.75 16.0705 20.7219 16.1325 20.6755 16.1779L21.7245 17.2501C22.0481 16.9335 22.25 16.4895 22.25 16H20.75ZM17.5 16.25H4.5V17.75H17.5V16.25ZM4.5 16.25C4.36193 16.25 4.25 16.1381 4.25 16H2.75C2.75 16.9665 3.5335 17.75 4.5 17.75V16.25ZM4.25 16V14H2.75V16H4.25ZM4.25 14C4.25 13.8619 4.36193 13.75 4.5 13.75V12.25C3.5335 12.25 2.75 13.0335 2.75 14H4.25ZM4.5 13.75H13.5V12.25H4.5V13.75Z" fill="#6D6B77"/>
</svg>
