<svg width="25" height="24" viewBox="0 0 25 24" fill="none" xmlns="http://www.w3.org/2000/svg">
<path d="M10.8354 3.32918C10.4649 3.14394 10.0144 3.29411 9.82918 3.66459C9.64394 4.03507 9.79411 4.48558 10.1646 4.67082L10.8354 3.32918ZM12.5 5L12.1646 5.67082C12.3757 5.77639 12.6243 5.77639 12.8354 5.67082L12.5 5ZM14.8354 4.67082C15.2059 4.48558 15.3561 4.03507 15.1708 3.66459C14.9856 3.29411 14.5351 3.14394 14.1646 3.32918L14.8354 4.67082ZM13.25 2C13.25 1.58579 12.9142 1.25 12.5 1.25C12.0858 1.25 11.75 1.58579 11.75 2H13.25ZM12.5 8.5H11.75C11.75 8.76876 11.8938 9.01697 12.127 9.15065L12.5 8.5ZM15.127 10.8706C15.4863 11.0767 15.9446 10.9524 16.1506 10.593C16.3567 10.2337 16.2324 9.77538 15.873 9.56935L15.127 10.8706ZM10.1646 4.67082L12.1646 5.67082L12.8354 4.32918L10.8354 3.32918L10.1646 4.67082ZM12.8354 5.67082L14.8354 4.67082L14.1646 3.32918L12.1646 4.32918L12.8354 5.67082ZM11.75 2V8.5H13.25V2H11.75ZM12.127 9.15065L15.127 10.8706L15.873 9.56935L12.873 7.84935L12.127 9.15065Z" fill="#2F2B3D" fill-opacity="0.9"/>
<path d="M19.1769 6.22316C19.1521 5.80969 18.7968 5.49463 18.3834 5.51945C17.9699 5.54426 17.6548 5.89956 17.6796 6.31303L19.1769 6.22316ZM18.5623 8.50015L17.8136 8.54508C17.8278 8.78073 17.952 8.99596 18.149 9.12603L18.5623 8.50015ZM20.0151 10.3581C20.3607 10.5863 20.826 10.4911 21.0542 10.1454C21.2824 9.79978 21.1872 9.33454 20.8415 9.10632L20.0151 10.3581ZM21.5354 7.64955C21.8941 7.44244 22.017 6.98375 21.8099 6.62503C21.6028 6.26631 21.1441 6.14341 20.7854 6.35051L21.5354 7.64955ZM15.5312 10.25L15.1562 9.60051C14.9234 9.73489 14.7804 9.98354 14.7812 10.2523L15.5312 10.25ZM14.7916 13.7104C14.7929 14.1246 15.1297 14.4594 15.5439 14.4581C15.9581 14.4569 16.2929 14.1201 16.2916 13.7058L14.7916 13.7104ZM17.6796 6.31303L17.8136 8.54508L19.3109 8.45521L19.1769 6.22316L17.6796 6.31303ZM18.149 9.12603L20.0151 10.3581L20.8415 9.10632L18.9755 7.87426L18.149 9.12603ZM20.7854 6.35051L15.1562 9.60051L15.9062 10.8996L21.5354 7.64955L20.7854 6.35051ZM14.7812 10.2523L14.7916 13.7104L16.2916 13.7058L16.2812 10.2478L14.7812 10.2523Z" fill="#2F2B3D" fill-opacity="0.9"/>
<path d="M20.8414 14.894C21.1871 14.6658 21.2823 14.2005 21.054 13.8549C20.8258 13.5092 20.3606 13.414 20.0149 13.6422L20.8414 14.894ZM18.5621 15.5001L18.1489 14.8743C17.9519 15.0043 17.8276 15.2196 17.8135 15.4552L18.5621 15.5001ZM17.6795 17.6873C17.6547 18.1007 17.9697 18.456 18.3832 18.4808C18.7967 18.5057 19.152 18.1906 19.1768 17.7771L17.6795 17.6873ZM20.7852 17.6495C21.1439 17.8567 21.6026 17.7337 21.8097 17.375C22.0168 17.0163 21.8939 16.5576 21.5352 16.3505L20.7852 17.6495ZM15.531 13.75L15.906 13.1005C15.6733 12.9661 15.3864 12.9666 15.1541 13.1016L15.531 13.75ZM12.1645 14.8397C11.8064 15.0479 11.6849 15.507 11.8931 15.8651C12.1013 16.2232 12.5603 16.3447 12.9184 16.1365L12.1645 14.8397ZM20.0149 13.6422L18.1489 14.8743L18.9754 16.126L20.8414 14.894L20.0149 13.6422ZM17.8135 15.4552L17.6795 17.6873L19.1768 17.7771L19.3108 15.5451L17.8135 15.4552ZM21.5352 16.3505L15.906 13.1005L15.156 14.3995L20.7852 17.6495L21.5352 16.3505ZM15.1541 13.1016L12.1645 14.8397L12.9184 16.1365L15.908 14.3984L15.1541 13.1016Z" fill="#2F2B3D" fill-opacity="0.9"/>
<path d="M14.1646 20.6708C14.5351 20.8561 14.9856 20.7059 15.1708 20.3354C15.3561 19.9649 15.2059 19.5144 14.8354 19.3292L14.1646 20.6708ZM12.5 19L12.8354 18.3292C12.6243 18.2236 12.3757 18.2236 12.1646 18.3292L12.5 19ZM10.1646 19.3292C9.79411 19.5144 9.64394 19.9649 9.82918 20.3354C10.0144 20.7059 10.4649 20.8561 10.8354 20.6708L10.1646 19.3292ZM11.75 22C11.75 22.4142 12.0858 22.75 12.5 22.75C12.9142 22.75 13.25 22.4142 13.25 22H11.75ZM12.5 15.5H13.25C13.25 15.2312 13.1062 14.983 12.873 14.8494L12.5 15.5ZM9.87304 13.1294C9.5137 12.9233 9.05538 13.0476 8.84935 13.407C8.64333 13.7663 8.76762 14.2246 9.12696 14.4306L9.87304 13.1294ZM14.8354 19.3292L12.8354 18.3292L12.1646 19.6708L14.1646 20.6708L14.8354 19.3292ZM12.1646 18.3292L10.1646 19.3292L10.8354 20.6708L12.8354 19.6708L12.1646 18.3292ZM13.25 22V15.5H11.75V22H13.25ZM12.873 14.8494L9.87304 13.1294L9.12696 14.4306L12.127 16.1506L12.873 14.8494Z" fill="#2F2B3D" fill-opacity="0.9"/>
<path d="M5.82305 17.7768C5.84787 18.1903 6.20317 18.5054 6.61664 18.4806C7.03011 18.4557 7.34518 18.1004 7.32036 17.687L5.82305 17.7768ZM6.43773 15.4999L7.18638 15.4549C7.17224 15.2193 7.04797 15.004 6.85097 14.874L6.43773 15.4999ZM4.98495 13.6419C4.63928 13.4137 4.17405 13.5089 3.94582 13.8546C3.71759 14.2002 3.8128 14.6655 4.15846 14.8937L4.98495 13.6419ZM3.46465 16.3504C3.10593 16.5576 2.98302 17.0162 3.19013 17.375C3.39724 17.7337 3.85593 17.8566 4.21465 17.6495L3.46465 16.3504ZM9.46881 13.75L9.84381 14.3995C10.0766 14.2651 10.2196 14.0165 10.2188 13.7477L9.46881 13.75ZM10.2084 10.2896C10.2071 9.87542 9.87033 9.54065 9.45611 9.5419C9.0419 9.54315 8.70713 9.87994 8.70838 10.2942L10.2084 10.2896ZM7.32036 17.687L7.18638 15.4549L5.68908 15.5448L5.82305 17.7768L7.32036 17.687ZM6.85097 14.874L4.98495 13.6419L4.15846 14.8937L6.02449 16.1257L6.85097 14.874ZM4.21465 17.6495L9.84381 14.3995L9.09381 13.1004L3.46465 16.3504L4.21465 17.6495ZM10.2188 13.7477L10.2084 10.2896L8.70838 10.2942L8.71882 13.7522L10.2188 13.7477Z" fill="#2F2B3D" fill-opacity="0.9"/>
<path d="M4.1586 9.10602C3.81294 9.33425 3.71774 9.79948 3.94596 10.1451C4.17419 10.4908 4.63942 10.586 4.98509 10.3578L4.1586 9.10602ZM6.43787 8.49986L6.85112 9.12574C7.04812 8.99567 7.17238 8.78044 7.18653 8.54479L6.43787 8.49986ZM7.3205 6.31274C7.34532 5.89927 7.03025 5.54397 6.61678 5.51915C6.20331 5.49433 5.84801 5.8094 5.82319 6.22287L7.3205 6.31274ZM4.21479 6.35045C3.85607 6.14335 3.39738 6.26625 3.19027 6.62497C2.98317 6.98369 3.10607 7.44239 3.46479 7.64949L4.21479 6.35045ZM9.46896 10.25L9.09396 10.8995C9.32671 11.0339 9.61357 11.0334 9.84592 10.8984L9.46896 10.25ZM12.8355 9.16028C13.1936 8.95209 13.3151 8.49303 13.1069 8.13494C12.8987 7.77685 12.4397 7.65532 12.0816 7.86351L12.8355 9.16028ZM4.98509 10.3578L6.85112 9.12574L6.02463 7.87397L4.1586 9.10602L4.98509 10.3578ZM7.18653 8.54479L7.3205 6.31274L5.82319 6.22287L5.68922 8.45492L7.18653 8.54479ZM3.46479 7.64949L9.09396 10.8995L9.84396 9.60045L4.21479 6.35045L3.46479 7.64949ZM9.84592 10.8984L12.8355 9.16028L12.0816 7.86351L9.092 9.60159L9.84592 10.8984Z" fill="#2F2B3D" fill-opacity="0.9"/>
</svg>
