<svg width="25" height="24" viewBox="0 0 25 24" fill="none" xmlns="http://www.w3.org/2000/svg">
<path d="M10.8354 3.32918C10.4649 3.14394 10.0144 3.29411 9.82918 3.66459C9.64394 4.03507 9.79411 4.48558 10.1646 4.67082L10.8354 3.32918ZM12.5 5L12.1646 5.67082C12.3757 5.77639 12.6243 5.77639 12.8354 5.67082L12.5 5ZM14.8354 4.67082C15.2059 4.48558 15.3561 4.03507 15.1708 3.66459C14.9856 3.29411 14.5351 3.14394 14.1646 3.32918L14.8354 4.67082ZM13.25 2C13.25 1.58579 12.9142 1.25 12.5 1.25C12.0858 1.25 11.75 1.58579 11.75 2H13.25ZM12.5 8.5H11.75C11.75 8.76876 11.8938 9.01697 12.127 9.15065L12.5 8.5ZM15.127 10.8706C15.4863 11.0767 15.9446 10.9524 16.1506 10.593C16.3567 10.2337 16.2324 9.77538 15.873 9.56935L15.127 10.8706ZM10.1646 4.67082L12.1646 5.67082L12.8354 4.32918L10.8354 3.32918L10.1646 4.67082ZM12.8354 5.67082L14.8354 4.67082L14.1646 3.32918L12.1646 4.32918L12.8354 5.67082ZM11.75 2V8.5H13.25V2H11.75ZM12.127 9.15065L15.127 10.8706L15.873 9.56935L12.873 7.84935L12.127 9.15065Z" fill="#ACAAB1"/>
<path d="M19.1769 6.2231C19.1521 5.80963 18.7968 5.49457 18.3833 5.51938C17.9699 5.5442 17.6548 5.8995 17.6796 6.31297L19.1769 6.2231ZM18.5622 8.50009L17.8136 8.54502C17.8277 8.78067 17.952 8.9959 18.149 9.12597L18.5622 8.50009ZM20.015 10.358C20.3607 10.5862 20.8259 10.491 21.0542 10.1454C21.2824 9.79971 21.1872 9.33448 20.8415 9.10625L20.015 10.358ZM21.5353 7.64949C21.894 7.44238 22.017 6.98369 21.8098 6.62497C21.6027 6.26625 21.144 6.14334 20.7853 6.35045L21.5353 7.64949ZM15.5312 10.25L15.1562 9.60045C14.9234 9.73483 14.7804 9.98348 14.7812 10.2522L15.5312 10.25ZM14.7916 13.7103C14.7929 14.1245 15.1297 14.4593 15.5439 14.458C15.9581 14.4568 16.2928 14.12 16.2916 13.7058L14.7916 13.7103ZM17.6796 6.31297L17.8136 8.54502L19.3109 8.45515L19.1769 6.2231L17.6796 6.31297ZM18.149 9.12597L20.015 10.358L20.8415 9.10625L18.9755 7.8742L18.149 9.12597ZM20.7853 6.35045L15.1562 9.60045L15.9062 10.8995L21.5353 7.64949L20.7853 6.35045ZM14.7812 10.2522L14.7916 13.7103L16.2916 13.7058L16.2812 10.2477L14.7812 10.2522Z" fill="#ACAAB1"/>
<path d="M20.8414 14.894C21.1871 14.6658 21.2823 14.2005 21.0541 13.8549C20.8258 13.5092 20.3606 13.414 20.0149 13.6422L20.8414 14.894ZM18.5621 15.5001L18.1489 14.8743C17.9519 15.0043 17.8276 15.2196 17.8135 15.4552L18.5621 15.5001ZM17.6795 17.6873C17.6547 18.1007 17.9698 18.456 18.3832 18.4808C18.7967 18.5057 19.152 18.1906 19.1768 17.7771L17.6795 17.6873ZM20.7852 17.6495C21.1439 17.8567 21.6026 17.7337 21.8097 17.375C22.0168 17.0163 21.8939 16.5576 21.5352 16.3505L20.7852 17.6495ZM15.5311 13.75L15.9061 13.1005C15.6733 12.9661 15.3864 12.9666 15.1541 13.1016L15.5311 13.75ZM12.1645 14.8397C11.8064 15.0479 11.6849 15.507 11.8931 15.8651C12.1013 16.2232 12.5604 16.3447 12.9185 16.1365L12.1645 14.8397ZM20.0149 13.6422L18.1489 14.8743L18.9754 16.126L20.8414 14.894L20.0149 13.6422ZM17.8135 15.4552L17.6795 17.6873L19.1768 17.7771L19.3108 15.5451L17.8135 15.4552ZM21.5352 16.3505L15.9061 13.1005L15.1561 14.3995L20.7852 17.6495L21.5352 16.3505ZM15.1541 13.1016L12.1645 14.8397L12.9185 16.1365L15.908 14.3984L15.1541 13.1016Z" fill="#ACAAB1"/>
<path d="M14.1646 20.6708C14.5351 20.8561 14.9856 20.7059 15.1708 20.3354C15.3561 19.9649 15.2059 19.5144 14.8354 19.3292L14.1646 20.6708ZM12.5 19L12.8354 18.3292C12.6243 18.2236 12.3757 18.2236 12.1646 18.3292L12.5 19ZM10.1646 19.3292C9.79411 19.5144 9.64394 19.9649 9.82918 20.3354C10.0144 20.7059 10.4649 20.8561 10.8354 20.6708L10.1646 19.3292ZM11.75 22C11.75 22.4142 12.0858 22.75 12.5 22.75C12.9142 22.75 13.25 22.4142 13.25 22H11.75ZM12.5 15.5H13.25C13.25 15.2312 13.1062 14.983 12.873 14.8494L12.5 15.5ZM9.87304 13.1294C9.5137 12.9233 9.05538 13.0476 8.84935 13.407C8.64333 13.7663 8.76762 14.2246 9.12696 14.4306L9.87304 13.1294ZM14.8354 19.3292L12.8354 18.3292L12.1646 19.6708L14.1646 20.6708L14.8354 19.3292ZM12.1646 18.3292L10.1646 19.3292L10.8354 20.6708L12.8354 19.6708L12.1646 18.3292ZM13.25 22V15.5H11.75V22H13.25ZM12.873 14.8494L9.87304 13.1294L9.12696 14.4306L12.127 16.1506L12.873 14.8494Z" fill="#ACAAB1"/>
<path d="M5.82308 17.777C5.84789 18.1904 6.20319 18.5055 6.61666 18.4807C7.03013 18.4559 7.3452 18.1006 7.32038 17.6871L5.82308 17.777ZM6.43775 15.5L7.18641 15.455C7.17226 15.2194 7.048 15.0042 6.851 14.8741L6.43775 15.5ZM4.98497 13.642C4.6393 13.4138 4.17407 13.509 3.94584 13.8547C3.71762 14.2003 3.81282 14.6656 4.15849 14.8938L4.98497 13.642ZM3.46467 16.3506C3.10595 16.5577 2.98305 17.0164 3.19015 17.3751C3.39726 17.7338 3.85595 17.8567 4.21467 17.6496L3.46467 16.3506ZM9.46884 13.7501L9.84384 14.3996C10.0766 14.2652 10.2196 14.0166 10.2188 13.7478L9.46884 13.7501ZM10.2084 10.2898C10.2071 9.87554 9.87035 9.54077 9.45614 9.54202C9.04193 9.54327 8.70715 9.88007 8.7084 10.2943L10.2084 10.2898ZM7.32038 17.6871L7.18641 15.455L5.6891 15.5449L5.82308 17.777L7.32038 17.6871ZM6.851 14.8741L4.98497 13.642L4.15849 14.8938L6.02451 16.1259L6.851 14.8741ZM4.21467 17.6496L9.84384 14.3996L9.09384 13.1006L3.46467 16.3506L4.21467 17.6496ZM10.2188 13.7478L10.2084 10.2898L8.7084 10.2943L8.71884 13.7524L10.2188 13.7478Z" fill="#ACAAB1"/>
<path d="M4.15859 9.10602C3.81292 9.33425 3.71772 9.79948 3.94595 10.1451C4.17418 10.4908 4.63941 10.586 4.98507 10.3578L4.15859 9.10602ZM6.43786 8.49986L6.8511 9.12574C7.0481 8.99567 7.17237 8.78044 7.18651 8.54479L6.43786 8.49986ZM7.32048 6.31274C7.3453 5.89927 7.03024 5.54397 6.61677 5.51915C6.2033 5.49433 5.848 5.8094 5.82318 6.22287L7.32048 6.31274ZM4.21478 6.35045C3.85606 6.14335 3.39736 6.26625 3.19026 6.62497C2.98315 6.98369 3.10606 7.44239 3.46478 7.64949L4.21478 6.35045ZM9.46894 10.25L9.09394 10.8995C9.32669 11.0339 9.61356 11.0334 9.8459 10.8984L9.46894 10.25ZM12.8355 9.16028C13.1936 8.95209 13.3151 8.49303 13.1069 8.13494C12.8987 7.77685 12.4396 7.65532 12.0815 7.86351L12.8355 9.16028ZM4.98507 10.3578L6.8511 9.12574L6.02461 7.87397L4.15859 9.10602L4.98507 10.3578ZM7.18651 8.54479L7.32048 6.31274L5.82318 6.22287L5.6892 8.45492L7.18651 8.54479ZM3.46478 7.64949L9.09394 10.8995L9.84394 9.60045L4.21478 6.35045L3.46478 7.64949ZM9.8459 10.8984L12.8355 9.16028L12.0815 7.86351L9.09198 9.60159L9.8459 10.8984Z" fill="#ACAAB1"/>
</svg>
