<svg width="25" height="24" viewBox="0 0 25 24" fill="none" xmlns="http://www.w3.org/2000/svg">
<path fill-rule="evenodd" clip-rule="evenodd" d="M4.5 11C5.60457 11 6.5 11.8954 6.5 13V14H18.5V13C18.5 11.8954 19.3954 11 20.5 11C21.6046 11 22.5 11.8954 22.5 13V18C22.5 18.5523 22.0523 19 21.5 19H3.5C2.94772 19 2.5 18.5523 2.5 18V13C2.5 11.8954 3.39543 11 4.5 11Z" stroke="#ACAAB1" stroke-width="1.5" stroke-linecap="round" stroke-linejoin="round"/>
<path d="M4.5 11V8C4.5 6.34315 5.84315 5 7.5 5H17.5C19.1569 5 20.5 6.34315 20.5 8V11" stroke="#ACAAB1" stroke-width="1.5" stroke-linecap="round" stroke-linejoin="round"/>
<path d="M12.5 5V14" stroke="#ACAAB1" stroke-width="1.5" stroke-linecap="round" stroke-linejoin="round"/>
</svg>
