<svg width="25" height="24" viewBox="0 0 25 24" fill="none" xmlns="http://www.w3.org/2000/svg">
<path d="M14.75 10C14.75 10.4142 15.0858 10.75 15.5 10.75C15.9142 10.75 16.25 10.4142 16.25 10H14.75ZM18.75 10C18.75 10.4142 19.0858 10.75 19.5 10.75C19.9142 10.75 20.25 10.4142 20.25 10H18.75ZM19.5 7.75C19.9142 7.75 20.25 7.41421 20.25 7C20.25 6.58579 19.9142 6.25 19.5 6.25V7.75ZM15.5 6.25C15.0858 6.25 14.75 6.58579 14.75 7C14.75 7.41421 15.0858 7.75 15.5 7.75V6.25ZM16.25 10V5H14.75V10H16.25ZM16.25 5C16.25 4.40545 16.3853 4.14038 16.5128 4.01283C16.6404 3.88528 16.9054 3.75 17.5 3.75V2.25C16.7146 2.25 15.9796 2.42472 15.4522 2.95217C14.9247 3.47962 14.75 4.21455 14.75 5H16.25ZM17.5 3.75C18.0946 3.75 18.3596 3.88528 18.4872 4.01283C18.6147 4.14038 18.75 4.40545 18.75 5H20.25C20.25 4.21455 20.0753 3.47962 19.5478 2.95217C19.0204 2.42472 18.2854 2.25 17.5 2.25V3.75ZM18.75 5V10H20.25V5H18.75ZM19.5 6.25H15.5V7.75H19.5V6.25Z" fill="#E1DEF5" fill-opacity="0.9"/>
<path d="M19.5 21H15.5L19.5 14H15.5" stroke="#E1DEF5" stroke-opacity="0.9" stroke-width="1.5" stroke-linecap="round" stroke-linejoin="round"/>
<path d="M4.5 15L7.5 18L10.5 15" stroke="#E1DEF5" stroke-opacity="0.9" stroke-width="1.5" stroke-linecap="round" stroke-linejoin="round"/>
<path d="M7.5 6V18" stroke="#E1DEF5" stroke-opacity="0.9" stroke-width="1.5" stroke-linecap="round" stroke-linejoin="round"/>
</svg>
