<svg width="25" height="24" viewBox="0 0 25 24" fill="none" xmlns="http://www.w3.org/2000/svg">
<path d="M14.75 21C14.75 21.4142 15.0858 21.75 15.5 21.75C15.9142 21.75 16.25 21.4142 16.25 21H14.75ZM18.75 21C18.75 21.4142 19.0858 21.75 19.5 21.75C19.9142 21.75 20.25 21.4142 20.25 21H18.75ZM19.5 18.75C19.9142 18.75 20.25 18.4142 20.25 18C20.25 17.5858 19.9142 17.25 19.5 17.25V18.75ZM15.5 17.25C15.0858 17.25 14.75 17.5858 14.75 18C14.75 18.4142 15.0858 18.75 15.5 18.75V17.25ZM16.25 21V16H14.75V21H16.25ZM16.25 16C16.25 15.4054 16.3853 15.1404 16.5128 15.0128C16.6404 14.8853 16.9054 14.75 17.5 14.75V13.25C16.7146 13.25 15.9796 13.4247 15.4522 13.9522C14.9247 14.4796 14.75 15.2146 14.75 16H16.25ZM17.5 14.75C18.0946 14.75 18.3596 14.8853 18.4872 15.0128C18.6147 15.1404 18.75 15.4054 18.75 16H20.25C20.25 15.2146 20.0753 14.4796 19.5478 13.9522C19.0204 13.4247 18.2854 13.25 17.5 13.25V14.75ZM18.75 16V21H20.25V16H18.75ZM19.5 17.25H15.5V18.75H19.5V17.25Z" fill="#ACAAB1"/>
<path d="M19.5 10H15.5L19.5 3H15.5" stroke="#ACAAB1" stroke-width="1.5" stroke-linecap="round" stroke-linejoin="round"/>
<path d="M4.5 15L7.5 18L10.5 15" stroke="#ACAAB1" stroke-width="1.5" stroke-linecap="round" stroke-linejoin="round"/>
<path d="M7.5 6V18" stroke="#ACAAB1" stroke-width="1.5" stroke-linecap="round" stroke-linejoin="round"/>
</svg>
