<svg width="25" height="24" viewBox="0 0 25 24" fill="none" xmlns="http://www.w3.org/2000/svg">
<path d="M18.5 8C20.1569 8 21.5 9.34315 21.5 11C21.5 12.6569 20.1569 14 18.5 14" stroke="#2F2B3D" stroke-opacity="0.9" stroke-width="1.5" stroke-linecap="round" stroke-linejoin="round"/>
<path d="M10.5 8V19C10.5 19.5523 10.0523 20 9.5 20H8.5C7.94772 20 7.5 19.5523 7.5 19V14" stroke="#2F2B3D" stroke-opacity="0.9" stroke-width="1.5" stroke-linecap="round" stroke-linejoin="round"/>
<path d="M12.5 7.99996V7.99996L17.024 4.22996C17.2924 4.00643 17.6658 3.95835 17.982 4.10661C18.2983 4.25487 18.5002 4.5727 18.5 4.92196V17.078C18.5002 17.4272 18.2983 17.745 17.982 17.8933C17.6658 18.0416 17.2924 17.9935 17.024 17.77L12.5 14H4.5C3.94772 14 3.5 13.5522 3.5 13V8.99996C3.5 8.44767 3.94772 7.99996 4.5 7.99996H12.5" stroke="#2F2B3D" stroke-opacity="0.9" stroke-width="1.5" stroke-linecap="round" stroke-linejoin="round"/>
</svg>
