<svg width="25" height="24" viewBox="0 0 25 24" fill="none" xmlns="http://www.w3.org/2000/svg">
<path d="M17.9943 17.4824C18.2872 17.1895 18.2873 16.7147 17.9944 16.4217C17.7016 16.1288 17.2267 16.1287 16.9338 16.4216L17.9943 17.4824ZM14.002 20.413L13.4718 19.8826L13.4713 19.883L14.002 20.413ZM10.998 20.413L11.5287 19.883L11.5283 19.8826L10.998 20.413ZM4.08701 13.503L3.55668 14.0333L3.55671 14.0334L4.08701 13.503ZM4.08701 10.498L4.617 11.0287L4.61741 11.0282L4.08701 10.498ZM8.07241 7.57225C8.36526 7.27931 8.36519 6.80444 8.07226 6.51159C7.77932 6.21873 7.30445 6.2188 7.0116 6.51174L8.07241 7.57225ZM9.0149 4.50849C8.7219 4.80129 8.72174 5.27616 9.01453 5.56915C9.30732 5.86215 9.7822 5.86231 10.0752 5.56952L9.0149 4.50849ZM10.998 3.58701L11.5282 4.11752L11.5287 4.117L10.998 3.58701ZM14.002 3.58701L13.4714 4.117L13.4718 4.11737L14.002 3.58701ZM20.913 10.497L21.4434 9.96668L21.4433 9.96664L20.913 10.497ZM20.913 13.502L20.3831 12.9713L20.3823 12.972L20.913 13.502ZM18.9343 14.422C18.6417 14.7151 18.642 15.19 18.9351 15.4827C19.2282 15.7754 19.703 15.7751 19.9957 15.482L18.9343 14.422ZM16.9338 16.4216L13.4718 19.8826L14.5323 20.9434L17.9943 17.4824L16.9338 16.4216ZM13.4713 19.883C13.2427 20.1119 12.8894 20.2502 12.5 20.2502C12.1107 20.2502 11.7573 20.1119 11.5287 19.883L10.4673 20.943C11.0207 21.497 11.7784 21.7502 12.5 21.7502C13.2217 21.7502 13.9793 21.497 14.5327 20.943L13.4713 19.883ZM11.5283 19.8826L4.6173 12.9726L3.55671 14.0334L10.4677 20.9434L11.5283 19.8826ZM4.61734 12.9727C4.38808 12.7434 4.24976 12.3896 4.24976 12.0001C4.24976 11.6106 4.38808 11.2573 4.617 11.0287L3.55701 9.96732C3.00294 10.5207 2.74976 11.2784 2.74976 12.0001C2.74976 12.7219 3.00293 13.4796 3.55668 14.0333L4.61734 12.9727ZM4.61741 11.0282L8.07241 7.57225L7.0116 6.51174L3.5566 9.96774L4.61741 11.0282ZM10.0752 5.56952L11.5282 4.11752L10.4679 3.05649L9.0149 4.50849L10.0752 5.56952ZM11.5287 4.117C11.7574 3.88806 12.1107 3.74976 12.5 3.74976C12.8894 3.74976 13.2427 3.88806 13.4714 4.117L14.5327 3.05701C13.9794 2.50295 13.2217 2.24976 12.5 2.24976C11.7784 2.24976 11.0207 2.50295 10.4674 3.05701L11.5287 4.117ZM13.4718 4.11737L20.3828 11.0274L21.4433 9.96664L14.5323 3.05664L13.4718 4.11737ZM20.3827 11.0273C20.612 11.2566 20.7503 11.6104 20.7503 11.9999C20.7503 12.3894 20.612 12.7427 20.3831 12.9713L21.443 14.0327C21.9971 13.4793 22.2503 12.7216 22.2503 11.9999C22.2503 11.2781 21.9971 10.5204 21.4434 9.96668L20.3827 11.0273ZM20.3823 12.972L18.9343 14.422L19.9957 15.482L21.4437 14.032L20.3823 12.972Z" fill="#2F2B3D" fill-opacity="0.9"/>
<path d="M3.5 3L21.5 21" stroke="#2F2B3D" stroke-opacity="0.9" stroke-width="1.5" stroke-linecap="round" stroke-linejoin="round"/>
</svg>
