<svg width="25" height="24" viewBox="0 0 25 24" fill="none" xmlns="http://www.w3.org/2000/svg">
<path d="M8.5 3.25C8.08579 3.25 7.75 3.58579 7.75 4C7.75 4.41421 8.08579 4.75 8.5 4.75V3.25ZM19.75 16C19.75 16.4142 20.0858 16.75 20.5 16.75C20.9142 16.75 21.25 16.4142 21.25 16H19.75ZM20.4478 19.9408C20.7399 19.6471 20.7386 19.1722 20.4448 18.8801C20.1511 18.588 19.6762 18.5894 19.3842 18.8831L20.4478 19.9408ZM18.5 19.9999L18.5008 19.2499H18.5V19.9999ZM5.61633 5.11627C5.90922 4.82337 5.90922 4.3485 5.61633 4.05561C5.32344 3.76271 4.84856 3.76271 4.55567 4.05561L5.61633 5.11627ZM8.5 4.75H18.5V3.25H8.5V4.75ZM18.5 4.75C19.1904 4.75 19.75 5.30964 19.75 6H21.25C21.25 4.48122 20.0188 3.25 18.5 3.25V4.75ZM19.75 6V16H21.25V6H19.75ZM19.3842 18.8831C19.1504 19.1182 18.8324 19.2503 18.5008 19.2499L18.4992 20.7499C19.2306 20.7507 19.9321 20.4594 20.4478 19.9408L19.3842 18.8831ZM18.5 19.2499H6.5V20.7499H18.5V19.2499ZM6.5 19.2499C5.80964 19.2499 5.25 18.6903 5.25 17.9999H3.75C3.75 19.5187 4.98122 20.7499 6.5 20.7499V19.2499ZM5.25 17.9999V5.99994H3.75V17.9999H5.25ZM5.25 5.99994C5.25 5.65505 5.38908 5.34352 5.61633 5.11627L4.55567 4.05561C4.05892 4.55236 3.75 5.24083 3.75 5.99994H5.25Z" fill="#2F2B3D" fill-opacity="0.9"/>
<path d="M3.5 3L21.5 21" stroke="#2F2B3D" stroke-opacity="0.9" stroke-width="1.5" stroke-linecap="round" stroke-linejoin="round"/>
</svg>
