<svg width="25" height="24" viewBox="0 0 25 24" fill="none" xmlns="http://www.w3.org/2000/svg">
<path d="M4.5 20H8.5V16H12.5V12H16.5V8H20.5" stroke="#6D6B77" stroke-width="1.5" stroke-linecap="round" stroke-linejoin="round"/>
<path d="M12.0303 4.53033C12.3232 4.23744 12.3232 3.76256 12.0303 3.46967C11.7374 3.17678 11.2626 3.17678 10.9697 3.46967L12.0303 4.53033ZM4.5 11H3.75C3.75 11.3033 3.93273 11.5768 4.21299 11.6929C4.49324 11.809 4.81583 11.7448 5.03033 11.5303L4.5 11ZM5.25 7C5.25 6.58579 4.91421 6.25 4.5 6.25C4.08579 6.25 3.75 6.58579 3.75 7H5.25ZM8.5 11.75C8.91421 11.75 9.25 11.4142 9.25 11C9.25 10.5858 8.91421 10.25 8.5 10.25V11.75ZM4.5 10.25C4.08579 10.25 3.75 10.5858 3.75 11C3.75 11.4142 4.08579 11.75 4.5 11.75V10.25ZM10.9697 3.46967L3.96967 10.4697L5.03033 11.5303L12.0303 4.53033L10.9697 3.46967ZM5.25 11V7H3.75V11H5.25ZM8.5 10.25H4.5V11.75H8.5V10.25Z" fill="#6D6B77"/>
</svg>
