<svg width="25" height="24" viewBox="0 0 25 24" fill="none" xmlns="http://www.w3.org/2000/svg">
<path d="M3.5 3L21.5 21" stroke="#6D6B77" stroke-width="1.5" stroke-linecap="round" stroke-linejoin="round"/>
<path d="M9.83941 5.68403C9.65609 6.05547 9.8086 6.50519 10.18 6.68851C10.5515 6.87182 11.0012 6.71931 11.1845 6.34787L9.83941 5.68403ZM12.493 2.00195L13.1655 1.67003C13.0392 1.41403 12.7784 1.25195 12.493 1.25195C12.2075 1.25195 11.9468 1.41403 11.8204 1.67003L12.493 2.00195ZM15.579 8.25495L14.9064 8.58687C15.0157 8.80832 15.227 8.96178 15.4714 8.9972L15.579 8.25495ZM22.479 9.25495L23.0021 9.79235C23.2068 9.59311 23.2805 9.29493 23.1923 9.02328C23.1041 8.75163 22.8692 8.55367 22.5865 8.51271L22.479 9.25495ZM17.5348 13.0216C17.238 13.3105 17.2316 13.7853 17.5206 14.0821C17.8095 14.3789 18.2843 14.3853 18.5811 14.0963L17.5348 13.0216ZM18.8093 17.442C18.7392 17.0338 18.3515 16.7596 17.9432 16.8297C17.535 16.8998 17.2608 17.2875 17.3309 17.6958L18.8093 17.442ZM18.6581 20.9949L18.3084 21.6584C18.5611 21.7916 18.8675 21.7696 19.0987 21.6018C19.3298 21.4341 19.4456 21.1495 19.3973 20.868L18.6581 20.9949ZM12.5001 17.7499L12.8497 17.0864C12.6311 16.9712 12.3698 16.9711 12.1511 17.0861L12.5001 17.7499ZM6.32808 20.9949L5.58888 20.8681C5.54061 21.1495 5.65628 21.4338 5.88724 21.6017C6.11821 21.7695 6.42441 21.7916 6.6771 21.6587L6.32808 20.9949ZM7.50708 14.1219L8.24628 14.2487C8.28805 14.0052 8.20724 13.7568 8.03021 13.5845L7.50708 14.1219ZM2.50708 9.25489L2.3995 8.51265C2.11683 8.55361 1.88197 8.75159 1.79375 9.02325C1.70553 9.29491 1.77927 9.59309 1.98395 9.79232L2.50708 9.25489ZM8.94166 9.08014C9.35159 9.02072 9.63574 8.64024 9.57632 8.23031C9.51691 7.82038 9.13643 7.53623 8.7265 7.59565L8.94166 9.08014ZM11.1845 6.34787L13.1655 2.33387L11.8204 1.67003L9.83941 5.68403L11.1845 6.34787ZM11.8204 2.33387L14.9064 8.58687L16.2515 7.92303L13.1655 1.67003L11.8204 2.33387ZM15.4714 8.9972L22.3714 9.9972L22.5865 8.51271L15.6865 7.51271L15.4714 8.9972ZM21.9558 8.71756L17.5348 13.0216L18.5811 14.0963L23.0021 9.79235L21.9558 8.71756ZM17.3309 17.6958L17.9189 21.1218L19.3973 20.868L18.8093 17.442L17.3309 17.6958ZM19.0077 20.3314L12.8497 17.0864L12.1504 18.4134L18.3084 21.6584L19.0077 20.3314ZM12.1511 17.0861L5.97906 20.331L6.6771 21.6587L12.8491 18.4137L12.1511 17.0861ZM7.06728 21.1217L8.24628 14.2487L6.76788 13.9951L5.58888 20.8681L7.06728 21.1217ZM8.03021 13.5845L3.03021 8.71746L1.98395 9.79232L6.98395 14.6593L8.03021 13.5845ZM2.61466 9.99714L8.94166 9.08014L8.7265 7.59565L2.3995 8.51265L2.61466 9.99714Z" fill="#6D6B77"/>
</svg>
