<svg width="25" height="24" viewBox="0 0 25 24" fill="none" xmlns="http://www.w3.org/2000/svg">
<path fill-rule="evenodd" clip-rule="evenodd" d="M12.9738 19.4866C12.6823 19.333 12.3338 19.3329 12.0422 19.4862L7.15251 22.057C6.41887 22.4427 5.56141 21.8197 5.70154 21.0028L6.63564 15.5575C6.69133 15.2328 6.58358 14.9016 6.34755 14.6718L2.3869 10.8165C1.79262 10.2381 2.12022 9.22924 2.94098 9.11029L8.40489 8.31842C8.73075 8.2712 9.01247 8.06659 9.15819 7.77132L11.6033 2.81701C11.9701 2.07376 13.0299 2.07376 13.3967 2.81701L15.8418 7.77133C15.9875 8.06659 16.2693 8.2712 16.5951 8.31842L22.059 9.11029C22.8798 9.22924 23.2074 10.2381 22.6131 10.8165L18.6524 14.6718C18.4164 14.9016 18.3087 15.2328 18.3644 15.5575L19.2981 21.0005C19.4383 21.8178 18.5799 22.4408 17.8463 22.0542L12.9738 19.4866Z" fill="#E1DEF5" fill-opacity="0.7"/>
</svg>
