<svg width="20" height="21" viewBox="0 0 20 21" fill="none" xmlns="http://www.w3.org/2000/svg">
<g id="star-fill">
<path id="Path" fill-rule="evenodd" clip-rule="evenodd" d="M10.4719 16.9743C10.1805 16.8207 9.83201 16.8205 9.54039 16.9738L5.8422 18.9182C5.10856 19.3039 4.2511 18.6809 4.39124 17.864L5.09773 13.7455C5.15342 13.4209 5.04567 13.0896 4.80964 12.8599L1.81425 9.94414C1.21997 9.36568 1.54758 8.35686 2.36833 8.23791L6.50017 7.63909C6.82603 7.59187 7.10776 7.38726 7.25348 7.09199L9.10278 3.34484C9.46959 2.60159 10.5294 2.60159 10.8963 3.34484L12.7456 7.09199C12.8913 7.38726 13.173 7.59187 13.4989 7.63909L17.6307 8.23791C18.4515 8.35686 18.7791 9.36567 18.1848 9.94414L15.1894 12.8599C14.9534 13.0896 14.8456 13.4209 14.9013 13.7455L15.6074 17.8616C15.7476 18.679 14.8893 19.302 14.1556 18.9154L10.4719 16.9743Z" fill="#FF9F43"/>
</g>
</svg>
