<svg width="24" height="24" viewBox="0 0 24 24" fill="none" xmlns="http://www.w3.org/2000/svg">
<g id="star-fill">
<path id="Path" fill-rule="evenodd" clip-rule="evenodd" d="M12.4734 19.4866C12.1819 19.333 11.8335 19.3329 11.5418 19.4862L6.65213 22.057C5.91849 22.4427 5.06103 21.8197 5.20116 21.0028L6.13526 15.5575C6.19095 15.2328 6.0832 14.9016 5.84717 14.6718L1.88651 10.8165C1.29224 10.2381 1.61984 9.22924 2.4406 9.11029L7.9045 8.31842C8.23036 8.2712 8.51209 8.06659 8.65781 7.77132L11.1029 2.81701C11.4697 2.07376 12.5295 2.07376 12.8964 2.81701L15.3414 7.77133C15.4871 8.06659 15.7689 8.2712 16.0947 8.31842L21.5586 9.11029C22.3794 9.22924 22.707 10.2381 22.1127 10.8165L18.1521 14.6718C17.916 14.9016 17.8083 15.2328 17.864 15.5575L18.7977 21.0005C18.9379 21.8178 18.0795 22.4408 17.3459 22.0542L12.4734 19.4866Z" fill="#2F2B3D" fill-opacity="0.16"/>
</g>
</svg>
