<svg width="22" height="22" viewBox="0 0 22 22" fill="none" xmlns="http://www.w3.org/2000/svg">
<path fill-rule="evenodd" clip-rule="evenodd" d="M11.4727 17.8832C11.1812 17.7296 10.8327 17.7294 10.5411 17.8827L6.24717 20.1403C5.51353 20.526 4.65606 19.903 4.7962 19.0861L5.6165 14.3042C5.67218 13.9796 5.56443 13.6483 5.3284 13.4186L1.85038 10.033C1.25611 9.45458 1.58371 8.44576 2.40446 8.32681L7.20234 7.63147C7.5282 7.58424 7.80993 7.37963 7.95565 7.08437L10.1028 2.73364C10.4696 1.99039 11.5295 1.99039 11.8963 2.73364L14.0435 7.08437C14.1892 7.37963 14.4709 7.58424 14.7968 7.63147L19.5947 8.32681C20.4154 8.44576 20.743 9.45458 20.1488 10.033L16.6707 13.4186C16.4347 13.6483 16.327 13.9796 16.3826 14.3042L17.2025 19.0838C17.3427 19.9011 16.4844 20.5241 15.7507 20.1375L11.4727 17.8832Z" fill="#7367F0"/>
</svg>
