<svg width="25" height="24" viewBox="0 0 25 24" fill="none" xmlns="http://www.w3.org/2000/svg">
<path fill-rule="evenodd" clip-rule="evenodd" d="M18.3 19.817L16.128 20.955C15.9966 21.0234 15.8378 21.0118 15.7176 20.9251C15.5974 20.8384 15.5365 20.6913 15.56 20.545L15.975 18.134L14.218 16.427C14.111 16.3235 14.0724 16.1681 14.1186 16.0266C14.1647 15.8851 14.2876 15.7824 14.435 15.762L16.863 15.41L17.949 13.217C18.0153 13.0837 18.1512 12.9995 18.3 12.9995C18.4488 12.9995 18.5848 13.0837 18.651 13.217L19.737 15.41L22.165 15.762C22.312 15.7831 22.4342 15.8859 22.4802 16.027C22.5263 16.1682 22.4882 16.3232 22.382 16.427L20.625 18.134L21.039 20.544C21.0644 20.6906 21.0041 20.8389 20.8836 20.9262C20.7631 21.0135 20.6035 21.0247 20.472 20.955L18.3 19.817V19.817Z" stroke="#ACAAB1" stroke-width="1.5" stroke-linecap="round" stroke-linejoin="round"/>
<path fill-rule="evenodd" clip-rule="evenodd" d="M6.69991 19.817L4.52791 20.955C4.39645 21.0234 4.23766 21.0118 4.1175 20.9251C3.99734 20.8384 3.93636 20.6913 3.95991 20.545L4.37491 18.134L2.61791 16.427C2.51091 16.3235 2.4723 16.1681 2.51847 16.0266C2.56464 15.8851 2.68749 15.7824 2.83491 15.762L5.26291 15.41L6.34891 13.217C6.41516 13.0837 6.55112 12.9995 6.69991 12.9995C6.8487 12.9995 6.98466 13.0837 7.05091 13.217L8.13691 15.41L10.5649 15.762C10.7119 15.7831 10.8341 15.8859 10.8801 16.027C10.9262 16.1682 10.8881 16.3232 10.7819 16.427L9.02491 18.134L9.43891 20.544C9.46426 20.6906 9.40397 20.8389 9.2835 20.9262C9.16303 21.0135 9.00336 21.0247 8.87191 20.955L6.69991 19.817V19.817Z" stroke="#ACAAB1" stroke-width="1.5" stroke-linecap="round" stroke-linejoin="round"/>
<path fill-rule="evenodd" clip-rule="evenodd" d="M12.5 9.81698L10.328 10.955C10.1965 11.0234 10.0377 11.0118 9.91755 10.9251C9.79739 10.8384 9.73641 10.6913 9.75996 10.545L10.175 8.13398L8.41796 6.42698C8.31095 6.32353 8.27235 6.16811 8.31852 6.02662C8.36469 5.88514 8.48754 5.78239 8.63496 5.76198L11.063 5.40998L12.149 3.21698C12.2152 3.08375 12.3512 2.99951 12.5 2.99951C12.6487 2.99951 12.7847 3.08375 12.851 3.21698L13.937 5.40998L16.365 5.76198C16.5119 5.78312 16.6341 5.88587 16.6802 6.02702C16.7262 6.16816 16.6882 6.32322 16.582 6.42698L14.825 8.13398L15.239 10.544C15.2643 10.6906 15.204 10.8389 15.0835 10.9262C14.9631 11.0135 14.8034 11.0247 14.672 10.955L12.5 9.81698V9.81698Z" stroke="#ACAAB1" stroke-width="1.5" stroke-linecap="round" stroke-linejoin="round"/>
</svg>
