<svg width="25" height="24" viewBox="0 0 25 24" fill="none" xmlns="http://www.w3.org/2000/svg">
<path fill-rule="evenodd" clip-rule="evenodd" d="M12.9738 19.4866C12.6823 19.333 12.3338 19.3329 12.0422 19.4862L7.15249 22.057C6.41885 22.4427 5.56139 21.8197 5.70153 21.0028L6.63563 15.5575C6.69132 15.2328 6.58357 14.9016 6.34754 14.6718L2.38688 10.8165C1.79261 10.2381 2.12021 9.22924 2.94096 9.11029L8.40487 8.31842C8.73073 8.2712 9.01246 8.06659 9.15818 7.77132L11.6032 2.81701C11.9701 2.07376 13.0299 2.07376 13.3967 2.81701L15.8418 7.77133C15.9875 8.06659 16.2692 8.2712 16.5951 8.31842L22.059 9.11029C22.8798 9.22924 23.2074 10.2381 22.6131 10.8165L18.6524 14.6718C18.4164 14.9016 18.3087 15.2328 18.3643 15.5575L19.298 21.0005C19.4382 21.8178 18.5799 22.4408 17.8462 22.0542L12.9738 19.4866Z" fill="#2F2B3D" fill-opacity="0.9"/>
</svg>
