<svg width="24" height="24" viewBox="0 0 24 24" fill="none" xmlns="http://www.w3.org/2000/svg">
<g id="star-fill">
<path id="Path" fill-rule="evenodd" clip-rule="evenodd" d="M12.4744 19.4866C12.1829 19.333 11.8344 19.3329 11.5428 19.4862L6.6531 22.057C5.91947 22.4427 5.062 21.8197 5.20214 21.0028L6.13624 15.5575C6.19193 15.2328 6.08418 14.9016 5.84815 14.6718L1.88749 10.8165C1.29322 10.2381 1.62082 9.22924 2.44157 9.11029L7.90548 8.31842C8.23134 8.2712 8.51307 8.06659 8.65879 7.77132L11.1039 2.81701C11.4707 2.07376 12.5305 2.07376 12.8973 2.81701L15.3424 7.77133C15.4881 8.06659 15.7698 8.2712 16.0957 8.31842L21.5596 9.11029C22.3804 9.22924 22.708 10.2381 22.1137 10.8165L18.153 14.6718C17.917 14.9016 17.8093 15.2328 17.865 15.5575L18.7986 21.0005C18.9389 21.8178 18.0805 22.4408 17.3469 22.0542L12.4744 19.4866Z" fill="#E1DEF5" fill-opacity="0.16"/>
</g>
</svg>
