<svg width="25" height="24" viewBox="0 0 25 24" fill="none" xmlns="http://www.w3.org/2000/svg">
<path d="M6.5 4H5.5C4.39543 4 3.5 4.89543 3.5 6V9.5V9.5C3.5 12.5376 5.96243 15 9 15C12.0376 15 14.5 12.5376 14.5 9.5V6C14.5 4.89543 13.6046 4 12.5 4H11.5" stroke="#E1DEF5" stroke-opacity="0.7" stroke-width="1.5" stroke-linecap="round" stroke-linejoin="round"/>
<path d="M8.5 15C8.5 17.1436 9.64359 19.1244 11.5 20.1962C13.3564 21.2679 15.6436 21.2679 17.5 20.1962C19.3564 19.1244 20.5 17.1436 20.5 15V12" stroke="#E1DEF5" stroke-opacity="0.7" stroke-width="1.5" stroke-linecap="round" stroke-linejoin="round"/>
<path d="M11.5 3V5" stroke="#E1DEF5" stroke-opacity="0.7" stroke-width="1.5" stroke-linecap="round" stroke-linejoin="round"/>
<path d="M6.5 3V5" stroke="#E1DEF5" stroke-opacity="0.7" stroke-width="1.5" stroke-linecap="round" stroke-linejoin="round"/>
<circle cx="20.5" cy="10" r="2" stroke="#E1DEF5" stroke-opacity="0.7" stroke-width="1.5" stroke-linecap="round" stroke-linejoin="round"/>
</svg>
