<svg width="25" height="24" viewBox="0 0 25 24" fill="none" xmlns="http://www.w3.org/2000/svg">
<path d="M6.08565 6.53148C5.82689 6.20803 5.35493 6.15559 5.03148 6.41435C4.70803 6.67311 4.65559 7.14507 4.91435 7.46852L6.08565 6.53148ZM12.9143 17.4685C13.1731 17.792 13.6451 17.8444 13.9685 17.5857C14.292 17.3269 14.3444 16.8549 14.0857 16.5315L12.9143 17.4685ZM4.91435 16.5315C4.65559 16.8549 4.70803 17.3269 5.03148 17.5857C5.35493 17.8444 5.82689 17.792 6.08565 17.4685L4.91435 16.5315ZM14.0857 7.46852C14.3444 7.14507 14.292 6.67311 13.9685 6.41435C13.6451 6.15559 13.1731 6.20803 12.9143 6.53148L14.0857 7.46852ZM4.91435 7.46852L12.9143 17.4685L14.0857 16.5315L6.08565 6.53148L4.91435 7.46852ZM6.08565 17.4685L14.0857 7.46852L12.9143 6.53148L4.91435 16.5315L6.08565 17.4685Z" fill="#2F2B3D" fill-opacity="0.9"/>
<path d="M21.5 19.9999H17.5L21 15.9999C21.3573 15.3747 21.3538 14.6064 20.991 13.9844C20.6282 13.3624 19.9611 12.9812 19.241 12.9844C18.5209 12.9876 17.8573 13.3747 17.5 13.9999" stroke="#2F2B3D" stroke-opacity="0.9" stroke-width="1.5" stroke-linecap="round" stroke-linejoin="round"/>
</svg>
