<svg width="25" height="24" viewBox="0 0 25 24" fill="none" xmlns="http://www.w3.org/2000/svg">
<path d="M3.5 3L21.5 21" stroke="#ACAAB1" stroke-width="1.5" stroke-linecap="round" stroke-linejoin="round"/>
<path d="M15.75 12C15.75 12.4142 16.0858 12.75 16.5 12.75C16.9142 12.75 17.25 12.4142 17.25 12H15.75ZM12.5 7.25C12.0858 7.25 11.75 7.58579 11.75 8C11.75 8.41421 12.0858 8.75 12.5 8.75V7.25ZM10.1966 9.70705C10.4893 9.414 10.4891 8.93913 10.196 8.64639C9.90295 8.35365 9.42808 8.3539 9.13534 8.64695L10.1966 9.70705ZM15.8566 15.3611C16.1493 15.068 16.1491 14.5931 15.856 14.3004C15.563 14.0077 15.0881 14.0079 14.7953 14.301L15.8566 15.3611ZM17.25 12C17.25 9.37665 15.1234 7.25 12.5 7.25V8.75C14.2949 8.75 15.75 10.2051 15.75 12H17.25ZM9.13534 8.64695C7.2813 10.503 7.28289 13.5106 9.1389 15.3646L10.199 14.3034C8.92908 13.0348 8.92799 10.977 10.1966 9.70705L9.13534 8.64695ZM9.1389 15.3646C10.9949 17.2187 14.0025 17.2171 15.8566 15.3611L14.7953 14.301C13.5268 15.5709 11.4689 15.572 10.199 14.3034L9.1389 15.3646Z" fill="#ACAAB1"/>
<path d="M3.5 11.25C3.08579 11.25 2.75 11.5858 2.75 12C2.75 12.4142 3.08579 12.75 3.5 12.75V11.25ZM4.5 12.75C4.91421 12.75 5.25 12.4142 5.25 12C5.25 11.5858 4.91421 11.25 4.5 11.25V12.75ZM13.25 3C13.25 2.58579 12.9142 2.25 12.5 2.25C12.0858 2.25 11.75 2.58579 11.75 3H13.25ZM11.75 4C11.75 4.41421 12.0858 4.75 12.5 4.75C12.9142 4.75 13.25 4.41421 13.25 4H11.75ZM20.5 11.25C20.0858 11.25 19.75 11.5858 19.75 12C19.75 12.4142 20.0858 12.75 20.5 12.75V11.25ZM21.5 12.75C21.9142 12.75 22.25 12.4142 22.25 12C22.25 11.5858 21.9142 11.25 21.5 11.25V12.75ZM13.25 20C13.25 19.5858 12.9142 19.25 12.5 19.25C12.0858 19.25 11.75 19.5858 11.75 20H13.25ZM11.75 21C11.75 21.4142 12.0858 21.75 12.5 21.75C12.9142 21.75 13.25 21.4142 13.25 21H11.75ZM6.63028 5.06962C6.33739 4.77673 5.86251 4.77673 5.56962 5.06962C5.27673 5.36251 5.27673 5.83739 5.56962 6.13028L6.63028 5.06962ZM6.26962 6.83028C6.56251 7.12317 7.03739 7.12317 7.33028 6.83028C7.62317 6.53739 7.62317 6.06251 7.33028 5.76962L6.26962 6.83028ZM19.4304 6.13028C19.7233 5.83739 19.7233 5.36251 19.4304 5.06962C19.1375 4.77673 18.6626 4.77673 18.3697 5.06962L19.4304 6.13028ZM17.6697 5.76962C17.3768 6.06251 17.3768 6.53739 17.6697 6.83028C17.9626 7.12317 18.4375 7.12317 18.7304 6.83028L17.6697 5.76962ZM18.7304 17.1697C18.4375 16.8768 17.9626 16.8768 17.6697 17.1697C17.3768 17.4626 17.3768 17.9375 17.6697 18.2304L18.7304 17.1697ZM18.3697 18.9304C18.6626 19.2233 19.1375 19.2233 19.4304 18.9304C19.7233 18.6375 19.7233 18.1626 19.4304 17.8697L18.3697 18.9304ZM7.33028 18.2304C7.62317 17.9375 7.62317 17.4626 7.33028 17.1697C7.03739 16.8768 6.56251 16.8768 6.26962 17.1697L7.33028 18.2304ZM5.56962 17.8697C5.27673 18.1626 5.27673 18.6375 5.56962 18.9304C5.86251 19.2233 6.33739 19.2233 6.63028 18.9304L5.56962 17.8697ZM3.5 12.75H4.5V11.25H3.5V12.75ZM11.75 3V4H13.25V3H11.75ZM20.5 12.75H21.5V11.25H20.5V12.75ZM11.75 20V21H13.25V20H11.75ZM5.56962 6.13028L6.26962 6.83028L7.33028 5.76962L6.63028 5.06962L5.56962 6.13028ZM18.3697 5.06962L17.6697 5.76962L18.7304 6.83028L19.4304 6.13028L18.3697 5.06962ZM17.6697 18.2304L18.3697 18.9304L19.4304 17.8697L18.7304 17.1697L17.6697 18.2304ZM6.26962 17.1697L5.56962 17.8697L6.63028 18.9304L7.33028 18.2304L6.26962 17.1697Z" fill="#ACAAB1"/>
</svg>
