<svg width="22" height="22" viewBox="0 0 22 22" fill="none" xmlns="http://www.w3.org/2000/svg">
<circle cx="11.0002" cy="11" r="3.66667" stroke="#CFCDE4" stroke-width="1.5" stroke-linecap="round" stroke-linejoin="round"/>
<path d="M2.75 10.25C2.33579 10.25 2 10.5858 2 11C2 11.4142 2.33579 11.75 2.75 11.75V10.25ZM3.66667 11.75C4.08088 11.75 4.41667 11.4142 4.41667 11C4.41667 10.5858 4.08088 10.25 3.66667 10.25V11.75ZM11.75 2.75C11.75 2.33579 11.4142 2 11 2C10.5858 2 10.25 2.33579 10.25 2.75H11.75ZM10.25 3.66667C10.25 4.08088 10.5858 4.41667 11 4.41667C11.4142 4.41667 11.75 4.08088 11.75 3.66667H10.25ZM18.3333 10.25C17.9191 10.25 17.5833 10.5858 17.5833 11C17.5833 11.4142 17.9191 11.75 18.3333 11.75V10.25ZM19.25 11.75C19.6642 11.75 20 11.4142 20 11C20 10.5858 19.6642 10.25 19.25 10.25V11.75ZM11.75 18.3333C11.75 17.9191 11.4142 17.5833 11 17.5833C10.5858 17.5833 10.25 17.9191 10.25 18.3333H11.75ZM10.25 19.25C10.25 19.6642 10.5858 20 11 20C11.4142 20 11.75 19.6642 11.75 19.25H10.25ZM5.66362 4.60296C5.37073 4.31007 4.89585 4.31007 4.60296 4.60296C4.31007 4.89585 4.31007 5.37073 4.60296 5.66362L5.66362 4.60296ZM5.24463 6.30529C5.53752 6.59818 6.01239 6.59818 6.30529 6.30529C6.59818 6.01239 6.59818 5.53752 6.30529 5.24463L5.24463 6.30529ZM17.397 5.66362C17.6899 5.37073 17.6899 4.89585 17.397 4.60296C17.1041 4.31007 16.6293 4.31007 16.3364 4.60296L17.397 5.66362ZM15.6947 5.24463C15.4018 5.53752 15.4018 6.01239 15.6947 6.30529C15.9876 6.59818 16.4625 6.59818 16.7554 6.30529L15.6947 5.24463ZM16.7554 15.6947C16.4625 15.4018 15.9876 15.4018 15.6947 15.6947C15.4018 15.9876 15.4018 16.4625 15.6947 16.7554L16.7554 15.6947ZM16.3364 17.397C16.6293 17.6899 17.1041 17.6899 17.397 17.397C17.6899 17.1041 17.6899 16.6293 17.397 16.3364L16.3364 17.397ZM6.30529 16.7554C6.59818 16.4625 6.59818 15.9876 6.30529 15.6947C6.01239 15.4018 5.53752 15.4018 5.24463 15.6947L6.30529 16.7554ZM4.60296 16.3364C4.31007 16.6293 4.31007 17.1041 4.60296 17.397C4.89585 17.6899 5.37073 17.6899 5.66362 17.397L4.60296 16.3364ZM2.75 11.75H3.66667V10.25H2.75V11.75ZM10.25 2.75V3.66667H11.75V2.75H10.25ZM18.3333 11.75H19.25V10.25H18.3333V11.75ZM10.25 18.3333V19.25H11.75V18.3333H10.25ZM4.60296 5.66362L5.24463 6.30529L6.30529 5.24463L5.66362 4.60296L4.60296 5.66362ZM16.3364 4.60296L15.6947 5.24463L16.7554 6.30529L17.397 5.66362L16.3364 4.60296ZM15.6947 16.7554L16.3364 17.397L17.397 16.3364L16.7554 15.6947L15.6947 16.7554ZM5.24463 15.6947L4.60296 16.3364L5.66362 17.397L6.30529 16.7554L5.24463 15.6947Z" fill="#CFCDE4"/>
</svg>
