<svg width="25" height="24" viewBox="0 0 25 24" fill="none" xmlns="http://www.w3.org/2000/svg">
<path d="M3.5 16.2501C3.08579 16.2501 2.75 16.5859 2.75 17.0001C2.75 17.4144 3.08579 17.7501 3.5 17.7501V16.2501ZM4.5 17.7501C4.91421 17.7501 5.25 17.4144 5.25 17.0001C5.25 16.5859 4.91421 16.2501 4.5 16.2501V17.7501ZM20.5 16.2501C20.0858 16.2501 19.75 16.5859 19.75 17.0001C19.75 17.4144 20.0858 17.7501 20.5 17.7501V16.2501ZM21.5 17.7501C21.9142 17.7501 22.25 17.4144 22.25 17.0001C22.25 16.5859 21.9142 16.2501 21.5 16.2501V17.7501ZM6.63028 10.07C6.33739 9.77712 5.86251 9.77712 5.56962 10.07C5.27673 10.3629 5.27673 10.8378 5.56962 11.1307L6.63028 10.07ZM6.26962 11.8307C6.56251 12.1236 7.03739 12.1236 7.33028 11.8307C7.62317 11.5378 7.62317 11.0629 7.33028 10.77L6.26962 11.8307ZM19.4304 11.1307C19.7233 10.8378 19.7233 10.3629 19.4304 10.07C19.1375 9.77712 18.6626 9.77712 18.3697 10.07L19.4304 11.1307ZM17.6697 10.77C17.3768 11.0629 17.3768 11.5378 17.6697 11.8307C17.9626 12.1236 18.4375 12.1236 18.7304 11.8307L17.6697 10.77ZM7.75 17.0001C7.75 17.4144 8.08579 17.7501 8.5 17.7501C8.91421 17.7501 9.25 17.4144 9.25 17.0001H7.75ZM15.75 17.0001C15.75 17.4144 16.0858 17.7501 16.5 17.7501C16.9142 17.7501 17.25 17.4144 17.25 17.0001H15.75ZM3.5 17.7501H4.5V16.2501H3.5V17.7501ZM20.5 17.7501H21.5V16.2501H20.5V17.7501ZM5.56962 11.1307L6.26962 11.8307L7.33028 10.77L6.63028 10.07L5.56962 11.1307ZM18.3697 10.07L17.6697 10.77L18.7304 11.8307L19.4304 11.1307L18.3697 10.07ZM9.25 17.0001C9.25 15.2052 10.7051 13.7501 12.5 13.7501V12.2501C9.87665 12.2501 7.75 14.3768 7.75 17.0001H9.25ZM12.5 13.7501C14.2949 13.7501 15.75 15.2052 15.75 17.0001H17.25C17.25 14.3768 15.1234 12.2501 12.5 12.2501V13.7501Z" fill="#E1DEF5" fill-opacity="0.4"/>
<path d="M3.5 21H21.5" stroke="#E1DEF5" stroke-opacity="0.4" stroke-width="1.5" stroke-linecap="round" stroke-linejoin="round"/>
<path d="M11.75 9C11.75 9.41421 12.0858 9.75 12.5 9.75C12.9142 9.75 13.25 9.41421 13.25 9H11.75ZM12.5 3L13.0303 2.46967C12.8158 2.25517 12.4932 2.191 12.213 2.30709C11.9327 2.42318 11.75 2.69665 11.75 3H12.5ZM14.9697 6.53033C15.2626 6.82322 15.7374 6.82322 16.0303 6.53033C16.3232 6.23744 16.3232 5.76256 16.0303 5.46967L14.9697 6.53033ZM8.96967 5.46967C8.67678 5.76256 8.67678 6.23744 8.96967 6.53033C9.26256 6.82322 9.73744 6.82322 10.0303 6.53033L8.96967 5.46967ZM13.0303 3.53033C13.3232 3.23744 13.3232 2.76256 13.0303 2.46967C12.7374 2.17678 12.2626 2.17678 11.9697 2.46967L13.0303 3.53033ZM13.25 9V3H11.75V9H13.25ZM11.9697 3.53033L14.9697 6.53033L16.0303 5.46967L13.0303 2.46967L11.9697 3.53033ZM10.0303 6.53033L13.0303 3.53033L11.9697 2.46967L8.96967 5.46967L10.0303 6.53033Z" fill="#E1DEF5" fill-opacity="0.4"/>
</svg>
