<svg width="25" height="24" viewBox="0 0 25 24" fill="none" xmlns="http://www.w3.org/2000/svg">
<path d="M3.5 16.2501C3.08579 16.2501 2.75 16.5859 2.75 17.0001C2.75 17.4144 3.08579 17.7501 3.5 17.7501V16.2501ZM4.5 17.7501C4.91421 17.7501 5.25 17.4144 5.25 17.0001C5.25 16.5859 4.91421 16.2501 4.5 16.2501V17.7501ZM20.5 16.2501C20.0858 16.2501 19.75 16.5859 19.75 17.0001C19.75 17.4144 20.0858 17.7501 20.5 17.7501V16.2501ZM21.5 17.7501C21.9142 17.7501 22.25 17.4144 22.25 17.0001C22.25 16.5859 21.9142 16.2501 21.5 16.2501V17.7501ZM6.63028 10.07C6.33739 9.77712 5.86251 9.77712 5.56962 10.07C5.27673 10.3629 5.27673 10.8378 5.56962 11.1307L6.63028 10.07ZM6.26962 11.8307C6.56251 12.1236 7.03739 12.1236 7.33028 11.8307C7.62317 11.5378 7.62317 11.0629 7.33028 10.77L6.26962 11.8307ZM19.4304 11.1307C19.7233 10.8378 19.7233 10.3629 19.4304 10.07C19.1375 9.77712 18.6626 9.77712 18.3697 10.07L19.4304 11.1307ZM17.6697 10.77C17.3768 11.0629 17.3768 11.5378 17.6697 11.8307C17.9626 12.1236 18.4375 12.1236 18.7304 11.8307L17.6697 10.77ZM7.75 17.0001C7.75 17.4144 8.08579 17.7501 8.5 17.7501C8.91421 17.7501 9.25 17.4144 9.25 17.0001H7.75ZM15.75 17.0001C15.75 17.4144 16.0858 17.7501 16.5 17.7501C16.9142 17.7501 17.25 17.4144 17.25 17.0001H15.75ZM3.5 17.7501H4.5V16.2501H3.5V17.7501ZM20.5 17.7501H21.5V16.2501H20.5V17.7501ZM5.56962 11.1307L6.26962 11.8307L7.33028 10.77L6.63028 10.07L5.56962 11.1307ZM18.3697 10.07L17.6697 10.77L18.7304 11.8307L19.4304 11.1307L18.3697 10.07ZM9.25 17.0001C9.25 15.2052 10.7051 13.7501 12.5 13.7501V12.2501C9.87665 12.2501 7.75 14.3768 7.75 17.0001H9.25ZM12.5 13.7501C14.2949 13.7501 15.75 15.2052 15.75 17.0001H17.25C17.25 14.3768 15.1234 12.2501 12.5 12.2501V13.7501Z" fill="#E1DEF5" fill-opacity="0.7"/>
<path d="M3.5 21H21.5" stroke="#E1DEF5" stroke-opacity="0.7" stroke-width="1.5" stroke-linecap="round" stroke-linejoin="round"/>
<path d="M13.25 3C13.25 2.58579 12.9142 2.25 12.5 2.25C12.0858 2.25 11.75 2.58579 11.75 3H13.25ZM12.5 9H11.75C11.75 9.30335 11.9327 9.57682 12.213 9.69291C12.4932 9.809 12.8158 9.74483 13.0303 9.53033L12.5 9ZM16.0303 6.53033C16.3232 6.23744 16.3232 5.76256 16.0303 5.46967C15.7374 5.17678 15.2626 5.17678 14.9697 5.46967L16.0303 6.53033ZM10.0303 5.46967C9.73744 5.17678 9.26256 5.17678 8.96967 5.46967C8.67678 5.76256 8.67678 6.23744 8.96967 6.53033L10.0303 5.46967ZM11.9697 9.53033C12.2626 9.82322 12.7374 9.82322 13.0303 9.53033C13.3232 9.23744 13.3232 8.76256 13.0303 8.46967L11.9697 9.53033ZM11.75 3V9H13.25V3H11.75ZM13.0303 9.53033L16.0303 6.53033L14.9697 5.46967L11.9697 8.46967L13.0303 9.53033ZM8.96967 6.53033L11.9697 9.53033L13.0303 8.46967L10.0303 5.46967L8.96967 6.53033Z" fill="#E1DEF5" fill-opacity="0.7"/>
</svg>
