<svg width="25" height="24" viewBox="0 0 25 24" fill="none" xmlns="http://www.w3.org/2000/svg">
<circle cx="16.5" cy="9" r="1" stroke="#E1DEF5" stroke-opacity="0.9" stroke-width="1.5" stroke-linecap="round" stroke-linejoin="round"/>
<path d="M6.5 11L10.5 9L14 12L12.5 14" stroke="#E1DEF5" stroke-opacity="0.9" stroke-width="1.5" stroke-linecap="round" stroke-linejoin="round"/>
<path d="M3.5 16.75C3.81129 16.9048 4.15249 16.9901 4.5 17C5.29071 17.0166 6.03882 16.6425 6.5 16C6.96118 15.3575 7.70929 14.9835 8.5 15C9.29071 14.9835 10.0388 15.3575 10.5 16C10.9612 16.6425 11.7093 17.0166 12.5 17C13.2907 17.0166 14.0388 16.6425 14.5 16C14.9612 15.3575 15.7093 14.9835 16.5 15C17.2907 14.9835 18.0388 15.3575 18.5 16C18.9612 16.6425 19.7093 17.0166 20.5 17C20.8475 16.9901 21.1887 16.9048 21.5 16.75" stroke="#E1DEF5" stroke-opacity="0.9" stroke-width="1.5" stroke-linecap="round" stroke-linejoin="round"/>
</svg>
