<svg width="25" height="24" viewBox="0 0 25 24" fill="none" xmlns="http://www.w3.org/2000/svg">
<path d="M3.5 16.25C3.08579 16.25 2.75 16.5858 2.75 17C2.75 17.4142 3.08579 17.75 3.5 17.75V16.25ZM5.897 17V17.75H5.89706L5.897 17ZM9.993 14.867L10.6075 15.2971L10.6075 15.2969L9.993 14.867ZM10.7845 15.0439C11.022 14.7045 10.9393 14.2369 10.5999 13.9995C10.2605 13.762 9.79291 13.8447 9.55546 14.1841L10.7845 15.0439ZM13.2147 8.95821C12.9779 9.29804 13.0614 9.76552 13.4013 10.0023C13.7411 10.2392 14.2086 10.1556 14.4454 9.81579L13.2147 8.95821ZM14.0071 9.133L13.3926 8.70295L13.3917 8.70421L14.0071 9.133ZM18.1031 7L18.1031 6.25H18.103L18.1031 7ZM21.5001 7.75C21.9143 7.75 22.2501 7.41421 22.2501 7C22.2501 6.58579 21.9143 6.25 21.5001 6.25V7.75ZM3.5 17.75H5.897V16.25H3.5V17.75ZM5.89706 17.75C7.77336 17.7499 9.53158 16.8343 10.6075 15.2971L9.37854 14.437C8.58333 15.5732 7.28378 16.2499 5.89694 16.25L5.89706 17.75ZM10.6075 15.2969L10.7845 15.0439L9.55546 14.1841L9.37846 14.4371L10.6075 15.2969ZM14.4454 9.81579L14.6224 9.56179L13.3917 8.70421L13.2147 8.95821L14.4454 9.81579ZM14.6215 9.56305C15.4167 8.42685 16.7163 7.7501 18.1031 7.75L18.103 6.25C16.2267 6.25014 14.4685 7.16574 13.3926 8.70295L14.6215 9.56305ZM18.1031 7.75H21.5001V6.25H18.1031V7.75Z" fill="#E1DEF5" fill-opacity="0.9"/>
<path d="M18.5 4L21.5 7L18.5 10" stroke="#E1DEF5" stroke-opacity="0.9" stroke-width="1.5" stroke-linecap="round" stroke-linejoin="round"/>
<path d="M3.5 7H5.897C7.52857 7.00012 9.05746 7.79629 9.993 9.133L14.007 14.867C14.9425 16.2037 16.4714 16.9999 18.103 17H21.5" stroke="#E1DEF5" stroke-opacity="0.9" stroke-width="1.5" stroke-linecap="round" stroke-linejoin="round"/>
<path d="M18.5 20L21.5 17L18.5 14" stroke="#E1DEF5" stroke-opacity="0.9" stroke-width="1.5" stroke-linecap="round" stroke-linejoin="round"/>
</svg>
