<svg width="25" height="24" viewBox="0 0 25 24" fill="none" xmlns="http://www.w3.org/2000/svg">
<path d="M3.5 16.25C3.08579 16.25 2.75 16.5858 2.75 17C2.75 17.4142 3.08579 17.75 3.5 17.75V16.25ZM8.5 17V17.75C8.74475 17.75 8.9741 17.6306 9.11445 17.4301L8.5 17ZM10.7844 15.0441C11.022 14.7047 10.9394 14.2371 10.6001 13.9996C10.2607 13.762 9.79307 13.8446 9.55555 14.184L10.7844 15.0441ZM13.2155 8.95706C12.9781 9.29646 13.0607 9.76408 13.4001 10.0015C13.7395 10.239 14.2072 10.1563 14.4446 9.81694L13.2155 8.95706ZM15.5001 7V6.25C15.2553 6.25 15.0259 6.36947 14.8855 6.57006L15.5001 7ZM21.5001 7.75C21.9143 7.75 22.2501 7.41421 22.2501 7C22.2501 6.58579 21.9143 6.25 21.5001 6.25V7.75ZM3.5 17.75H8.5V16.25H3.5V17.75ZM9.11445 17.4301L10.7844 15.0441L9.55555 14.184L7.88555 16.57L9.11445 17.4301ZM14.4446 9.81694L16.1146 7.42994L14.8855 6.57006L13.2155 8.95706L14.4446 9.81694ZM15.5001 7.75H21.5001V6.25H15.5001V7.75Z" fill="#6D6B77"/>
<path d="M18.5 4L21.5 7L18.5 10" stroke="#6D6B77" stroke-width="1.5" stroke-linecap="round" stroke-linejoin="round"/>
<path d="M3.5 7H8.5L15.5 17H21.5" stroke="#6D6B77" stroke-width="1.5" stroke-linecap="round" stroke-linejoin="round"/>
<path d="M18.5 20L21.5 17L18.5 14" stroke="#6D6B77" stroke-width="1.5" stroke-linecap="round" stroke-linejoin="round"/>
</svg>
