<svg width="25" height="24" viewBox="0 0 25 24" fill="none" xmlns="http://www.w3.org/2000/svg">
<path d="M3.75 13.5C3.75 13.9142 4.08579 14.25 4.5 14.25C4.91421 14.25 5.25 13.9142 5.25 13.5H3.75ZM12.5 19.25C12.0858 19.25 11.75 19.5858 11.75 20C11.75 20.4142 12.0858 20.75 12.5 20.75V19.25ZM4.5 9.25C4.08579 9.25 3.75 9.58579 3.75 10C3.75 10.4142 4.08579 10.75 4.5 10.75V9.25ZM20.5 10.75C20.9142 10.75 21.25 10.4142 21.25 10C21.25 9.58579 20.9142 9.25 20.5 9.25V10.75ZM11.25 4C11.25 3.58579 10.9142 3.25 10.5 3.25C10.0858 3.25 9.75 3.58579 9.75 4H11.25ZM9.75 15.5C9.75 15.9142 10.0858 16.25 10.5 16.25C10.9142 16.25 11.25 15.9142 11.25 15.5H9.75ZM2.5 18.25C2.08579 18.25 1.75 18.5858 1.75 19C1.75 19.4142 2.08579 19.75 2.5 19.75V18.25ZM9.5 19.75C9.91421 19.75 10.25 19.4142 10.25 19C10.25 18.5858 9.91421 18.25 9.5 18.25V19.75ZM7.03033 15.4697C6.73744 15.1768 6.26256 15.1768 5.96967 15.4697C5.67678 15.7626 5.67678 16.2374 5.96967 16.5303L7.03033 15.4697ZM9.5 19L10.0303 19.5303C10.3232 19.2374 10.3232 18.7626 10.0303 18.4697L9.5 19ZM5.96967 21.4697C5.67678 21.7626 5.67678 22.2374 5.96967 22.5303C6.26256 22.8232 6.73744 22.8232 7.03033 22.5303L5.96967 21.4697ZM5.25 13.5V6H3.75V13.5H5.25ZM5.25 6C5.25 5.30964 5.80964 4.75 6.5 4.75V3.25C4.98122 3.25 3.75 4.48122 3.75 6H5.25ZM6.5 4.75H18.5V3.25H6.5V4.75ZM18.5 4.75C19.1904 4.75 19.75 5.30964 19.75 6H21.25C21.25 4.48122 20.0188 3.25 18.5 3.25V4.75ZM19.75 6V18H21.25V6H19.75ZM19.75 18C19.75 18.6904 19.1904 19.25 18.5 19.25V20.75C20.0188 20.75 21.25 19.5188 21.25 18H19.75ZM18.5 19.25H12.5V20.75H18.5V19.25ZM4.5 10.75H20.5V9.25H4.5V10.75ZM9.75 4V15.5H11.25V4H9.75ZM2.5 19.75H9.5V18.25H2.5V19.75ZM5.96967 16.5303L8.96967 19.5303L10.0303 18.4697L7.03033 15.4697L5.96967 16.5303ZM8.96967 18.4697L5.96967 21.4697L7.03033 22.5303L10.0303 19.5303L8.96967 18.4697Z" fill="#2F2B3D" fill-opacity="0.9"/>
</svg>
