<svg width="25" height="24" viewBox="0 0 25 24" fill="none" xmlns="http://www.w3.org/2000/svg">
<path d="M12 20.75C12.4142 20.75 12.75 20.4142 12.75 20C12.75 19.5858 12.4142 19.25 12 19.25V20.75ZM19.75 13.5C19.75 13.9142 20.0858 14.25 20.5 14.25C20.9142 14.25 21.25 13.9142 21.25 13.5H19.75ZM4.5 9.25C4.08579 9.25 3.75 9.58579 3.75 10C3.75 10.4142 4.08579 10.75 4.5 10.75V9.25ZM20.5 10.75C20.9142 10.75 21.25 10.4142 21.25 10C21.25 9.58579 20.9142 9.25 20.5 9.25V10.75ZM11.25 4C11.25 3.58579 10.9142 3.25 10.5 3.25C10.0858 3.25 9.75 3.58579 9.75 4H11.25ZM9.75 20C9.75 20.4142 10.0858 20.75 10.5 20.75C10.9142 20.75 11.25 20.4142 11.25 20H9.75ZM14.5 18.25C14.0858 18.25 13.75 18.5858 13.75 19C13.75 19.4142 14.0858 19.75 14.5 19.75V18.25ZM21.5 19.75C21.9142 19.75 22.25 19.4142 22.25 19C22.25 18.5858 21.9142 18.25 21.5 18.25V19.75ZM19.0303 15.4697C18.7374 15.1768 18.2626 15.1768 17.9697 15.4697C17.6768 15.7626 17.6768 16.2374 17.9697 16.5303L19.0303 15.4697ZM21.5 19L22.0303 19.5303C22.3232 19.2374 22.3232 18.7626 22.0303 18.4697L21.5 19ZM17.9697 21.4697C17.6768 21.7626 17.6768 22.2374 17.9697 22.5303C18.2626 22.8232 18.7374 22.8232 19.0303 22.5303L17.9697 21.4697ZM12 19.25H6.5V20.75H12V19.25ZM6.5 19.25C5.80964 19.25 5.25 18.6904 5.25 18H3.75C3.75 19.5188 4.98122 20.75 6.5 20.75V19.25ZM5.25 18V6H3.75V18H5.25ZM5.25 6C5.25 5.30964 5.80964 4.75 6.5 4.75V3.25C4.98122 3.25 3.75 4.48122 3.75 6H5.25ZM6.5 4.75H18.5V3.25H6.5V4.75ZM18.5 4.75C19.1904 4.75 19.75 5.30964 19.75 6H21.25C21.25 4.48122 20.0188 3.25 18.5 3.25V4.75ZM19.75 6V13.5H21.25V6H19.75ZM4.5 10.75H20.5V9.25H4.5V10.75ZM9.75 4V20H11.25V4H9.75ZM14.5 19.75H21.5V18.25H14.5V19.75ZM17.9697 16.5303L20.9697 19.5303L22.0303 18.4697L19.0303 15.4697L17.9697 16.5303ZM20.9697 18.4697L17.9697 21.4697L19.0303 22.5303L22.0303 19.5303L20.9697 18.4697Z" fill="#E1DEF5" fill-opacity="0.4"/>
</svg>
