<svg width="25" height="24" viewBox="0 0 25 24" fill="none" xmlns="http://www.w3.org/2000/svg">
<path d="M8.5 3.25C8.08579 3.25 7.75 3.58579 7.75 4C7.75 4.41421 8.08579 4.75 8.5 4.75V3.25ZM19.75 16C19.75 16.4142 20.0858 16.75 20.5 16.75C20.9142 16.75 21.25 16.4142 21.25 16H19.75ZM20.4409 19.9487C20.7346 19.6567 20.7359 19.1818 20.4438 18.8881C20.1517 18.5944 19.6768 18.5931 19.3831 18.8851L20.4409 19.9487ZM5.6156 5.117C5.90889 4.82451 5.90955 4.34964 5.61706 4.05634C5.32458 3.76304 4.8497 3.76239 4.5564 4.05487L5.6156 5.117ZM8.5 4.75H18.5V3.25H8.5V4.75ZM18.5 4.75C19.1904 4.75 19.75 5.30964 19.75 6H21.25C21.25 4.48122 20.0188 3.25 18.5 3.25V4.75ZM19.75 6V16H21.25V6H19.75ZM19.3831 18.8851C19.1555 19.1116 18.8452 19.2499 18.5 19.2499V20.7499C19.2588 20.7499 19.9445 20.4423 20.4409 19.9487L19.3831 18.8851ZM18.5 19.2499H6.5V20.7499H18.5V19.2499ZM6.5 19.2499C5.80964 19.2499 5.25 18.6903 5.25 17.9999H3.75C3.75 19.5187 4.98122 20.7499 6.5 20.7499V19.2499ZM5.25 17.9999V5.99994H3.75V17.9999H5.25ZM5.25 5.99994C5.25 5.65447 5.38947 5.3425 5.6156 5.117L4.5564 4.05487C4.05853 4.55137 3.75 5.2414 3.75 5.99994H5.25Z" fill="#2F2B3D" fill-opacity="0.9"/>
<path d="M4.5 9.25C4.08579 9.25 3.75 9.58579 3.75 10C3.75 10.4142 4.08579 10.75 4.5 10.75V9.25ZM10.5 10.75C10.9142 10.75 11.25 10.4142 11.25 10C11.25 9.58579 10.9142 9.25 10.5 9.25V10.75ZM14.5 9.25C14.0858 9.25 13.75 9.58579 13.75 10C13.75 10.4142 14.0858 10.75 14.5 10.75V9.25ZM20.5 10.75C20.9142 10.75 21.25 10.4142 21.25 10C21.25 9.58579 20.9142 9.25 20.5 9.25V10.75ZM4.5 10.75H10.5V9.25H4.5V10.75ZM14.5 10.75H20.5V9.25H14.5V10.75Z" fill="#2F2B3D" fill-opacity="0.9"/>
<path d="M11.25 4C11.25 3.58579 10.9142 3.25 10.5 3.25C10.0858 3.25 9.75 3.58579 9.75 4H11.25ZM9.75 6C9.75 6.41421 10.0858 6.75 10.5 6.75C10.9142 6.75 11.25 6.41421 11.25 6H9.75ZM11.25 10C11.25 9.58579 10.9142 9.25 10.5 9.25C10.0858 9.25 9.75 9.58579 9.75 10H11.25ZM9.75 20C9.75 20.4142 10.0858 20.75 10.5 20.75C10.9142 20.75 11.25 20.4142 11.25 20H9.75ZM9.75 4V6H11.25V4H9.75ZM9.75 10V20H11.25V10H9.75Z" fill="#2F2B3D" fill-opacity="0.9"/>
<path d="M3.5 3L21.5 21" stroke="#2F2B3D" stroke-opacity="0.9" stroke-width="1.5" stroke-linecap="round" stroke-linejoin="round"/>
</svg>
