<svg width="25" height="24" viewBox="0 0 25 24" fill="none" xmlns="http://www.w3.org/2000/svg">
<path d="M8.29194 7.79297C7.91297 8.18535 7.91839 8.80905 8.30412 9.19479C8.68986 9.58052 9.31356 9.58594 9.70594 9.20697" stroke="#E1DEF5" stroke-opacity="0.4" stroke-width="1.5" stroke-linecap="round" stroke-linejoin="round"/>
<path d="M5.90927 5.40835C6.20275 5.11604 6.2037 4.64117 5.9114 4.34769C5.61909 4.05421 5.14422 4.05325 4.85074 4.34556L5.90927 5.40835ZM4.5 6.99995L5.25 6.99995L5.25 6.99882L4.5 6.99995ZM5.093 12.291L4.56267 12.8213L5.093 12.291ZM13.209 20.407L13.7394 19.8767L13.7393 19.8766L13.209 20.407ZM16.073 20.407L15.5427 19.8766L15.5426 19.8767L16.073 20.407ZM19.0193 18.5213C19.3122 18.2284 19.3122 17.7535 19.0193 17.4606C18.7264 17.1677 18.2516 17.1677 17.9587 17.4606L19.0193 18.5213ZM19.9607 15.4587C19.6678 15.7516 19.6678 16.2264 19.9607 16.5193C20.2536 16.8122 20.7284 16.8122 21.0213 16.5193L19.9607 15.4587ZM20.907 15.573L20.3767 15.0426L20.3767 15.0427L20.907 15.573ZM20.907 12.709L20.3767 13.2394L20.3767 13.2394L20.907 12.709ZM12.79 4.593L13.3203 4.06264L13.3203 4.06263L12.79 4.593ZM11.359 4L11.3593 3.25H11.359V4ZM8.5 3.25C8.08579 3.25 7.75 3.58579 7.75 4C7.75 4.41421 8.08579 4.75 8.5 4.75V3.25ZM4.85074 4.34556C4.14472 5.04875 3.7485 6.00462 3.75 7.00108L5.25 6.99882C5.2491 6.40201 5.48641 5.82951 5.90927 5.40835L4.85074 4.34556ZM3.75 6.99995V10.859H5.25V6.99995H3.75ZM3.75 10.859C3.75 11.5946 4.04186 12.3005 4.56267 12.8213L5.62333 11.7606C5.38414 11.5214 5.25 11.1973 5.25 10.859H3.75ZM4.56267 12.8213L12.6787 20.9373L13.7393 19.8766L5.62333 11.7606L4.56267 12.8213ZM12.6786 20.9372C13.1991 21.4577 13.905 21.7502 14.641 21.7502V20.2502C14.3028 20.2502 13.9785 20.1158 13.7394 19.8767L12.6786 20.9372ZM14.641 21.7502C15.3771 21.7502 16.0829 21.4577 16.6034 20.9372L15.5426 19.8767C15.3035 20.1158 14.9792 20.2502 14.641 20.2502V21.7502ZM16.6033 20.9373L19.0193 18.5213L17.9587 17.4606L15.5427 19.8766L16.6033 20.9373ZM21.0213 16.5193L21.4373 16.1033L20.3767 15.0427L19.9607 15.4587L21.0213 16.5193ZM21.4373 16.1034C21.9578 15.5829 22.2502 14.877 22.2502 14.141H20.7502C20.7502 14.4792 20.6159 14.8035 20.3767 15.0426L21.4373 16.1034ZM22.2502 14.141C22.2502 13.405 21.9578 12.6991 21.4373 12.1786L20.3767 13.2394C20.6159 13.4785 20.7502 13.8028 20.7502 14.141H22.2502ZM21.4373 12.1786L13.3203 4.06264L12.2597 5.12336L20.3767 13.2394L21.4373 12.1786ZM13.3203 4.06263C12.8002 3.54257 12.0948 3.25028 11.3593 3.25L11.3587 4.75C11.6967 4.75013 12.0207 4.88442 12.2597 5.12337L13.3203 4.06263ZM11.359 3.25H8.5V4.75H11.359V3.25Z" fill="#E1DEF5" fill-opacity="0.4"/>
<path d="M3.5 3L21.5 21" stroke="#E1DEF5" stroke-opacity="0.4" stroke-width="1.5" stroke-linecap="round" stroke-linejoin="round"/>
</svg>
