<svg width="25" height="24" viewBox="0 0 25 24" fill="none" xmlns="http://www.w3.org/2000/svg">
<path fill-rule="evenodd" clip-rule="evenodd" d="M8.359 6H5.525C4.40662 6 3.5 6.90662 3.5 8.025V10.859C3.5 11.396 3.713 11.911 4.093 12.291L10.209 18.407C10.5888 18.7868 11.1039 19.0002 11.641 19.0002C12.1781 19.0002 12.6932 18.7868 13.073 18.407L15.907 15.573C16.2868 15.1932 16.5002 14.6781 16.5002 14.141C16.5002 13.6039 16.2868 13.0888 15.907 12.709L9.79 6.593C9.41044 6.2135 8.89574 6.00021 8.359 6Z" stroke="#E1DEF5" stroke-opacity="0.4" stroke-width="1.5" stroke-linecap="round" stroke-linejoin="round"/>
<path d="M18.073 18.407L20.907 15.573C21.2869 15.1932 21.5003 14.6781 21.5003 14.141C21.5003 13.6039 21.2869 13.0888 20.907 12.709L13.79 5.59302" stroke="#E1DEF5" stroke-opacity="0.4" stroke-width="1.5" stroke-linecap="round" stroke-linejoin="round"/>
<path d="M6.5 9H6.49" stroke="#E1DEF5" stroke-opacity="0.4" stroke-width="1.5" stroke-linecap="round" stroke-linejoin="round"/>
</svg>
