<svg width="25" height="24" viewBox="0 0 25 24" fill="none" xmlns="http://www.w3.org/2000/svg">
<path d="M6.5 6H5.525C4.40662 6 3.5 6.90662 3.5 8.025V10.859C3.5 11.396 3.713 11.911 4.093 12.291L10.209 18.407C10.5888 18.7868 11.1039 19.0002 11.641 19.0002C12.1781 19.0002 12.6932 18.7868 13.073 18.407L15.907 15.573C15.935 15.545 15.962 15.517 15.987 15.488" stroke="#2F2B3D" stroke-opacity="0.9" stroke-width="1.5" stroke-linecap="round" stroke-linejoin="round"/>
<path d="M17.5427 17.8767C17.2498 18.1696 17.2498 18.6444 17.5427 18.9373C17.8355 19.2302 18.3104 19.2302 18.6033 18.9373L17.5427 17.8767ZM19.0213 18.5193C19.3142 18.2264 19.3142 17.7516 19.0213 17.4587C18.7284 17.1658 18.2535 17.1658 17.9607 17.4587L19.0213 18.5193ZM19.9577 15.4617C19.6648 15.7546 19.6648 16.2295 19.9577 16.5223C20.2506 16.8152 20.7255 16.8152 21.0184 16.5223L19.9577 15.4617ZM20.907 15.573L20.3767 15.0426L20.3767 15.0427L20.907 15.573ZM20.907 12.709L20.3767 13.2394L20.3767 13.2394L20.907 12.709ZM14.3203 5.06265C14.0274 4.76978 13.5525 4.76981 13.2597 5.06272C12.9668 5.35564 12.9668 5.83051 13.2597 6.12338L14.3203 5.06265ZM18.6033 18.9373L19.0213 18.5193L17.9607 17.4587L17.5427 17.8767L18.6033 18.9373ZM21.0184 16.5223L21.4374 16.1033L20.3767 15.0427L19.9577 15.4617L21.0184 16.5223ZM21.4373 16.1034C21.9578 15.583 22.2503 14.8771 22.2503 14.141H20.7503C20.7503 14.4792 20.6159 14.8035 20.3767 15.0426L21.4373 16.1034ZM22.2503 14.141C22.2503 13.405 21.9578 12.6991 21.4373 12.1786L20.3767 13.2394C20.6159 13.4785 20.7503 13.8028 20.7503 14.141H22.2503ZM21.4373 12.1787L14.3203 5.06265L13.2597 6.12338L20.3767 13.2394L21.4373 12.1787Z" fill="#2F2B3D" fill-opacity="0.9"/>
<path d="M6.5 9H6.49" stroke="#2F2B3D" stroke-opacity="0.9" stroke-width="1.5" stroke-linecap="round" stroke-linejoin="round"/>
<path d="M3.5 3L21.5 21" stroke="#2F2B3D" stroke-opacity="0.9" stroke-width="1.5" stroke-linecap="round" stroke-linejoin="round"/>
</svg>
