<svg width="25" height="24" viewBox="0 0 25 24" fill="none" xmlns="http://www.w3.org/2000/svg">
<path d="M4.5 6H20.5" stroke="#6D6B77" stroke-width="1.5" stroke-linecap="round" stroke-linejoin="round"/>
<path d="M4.5 18H9.5" stroke="#6D6B77" stroke-width="1.5" stroke-linecap="round" stroke-linejoin="round"/>
<path d="M4.5 11.25C4.08579 11.25 3.75 11.5858 3.75 12C3.75 12.4142 4.08579 12.75 4.5 12.75V11.25ZM13.5 18L12.9697 17.4697C12.7552 17.6842 12.691 18.0068 12.8071 18.287C12.9232 18.5673 13.1967 18.75 13.5 18.75V18ZM16.0303 16.5303C16.3232 16.2374 16.3232 15.7626 16.0303 15.4697C15.7374 15.1768 15.2626 15.1768 14.9697 15.4697L16.0303 16.5303ZM14.9697 20.5303C15.2626 20.8232 15.7374 20.8232 16.0303 20.5303C16.3232 20.2374 16.3232 19.7626 16.0303 19.4697L14.9697 20.5303ZM14.0303 17.4697C13.7374 17.1768 13.2626 17.1768 12.9697 17.4697C12.6768 17.7626 12.6768 18.2374 12.9697 18.5303L14.0303 17.4697ZM4.5 12.75H17.5V11.25H4.5V12.75ZM17.5 12.75C18.7426 12.75 19.75 13.7574 19.75 15H21.25C21.25 12.9289 19.5711 11.25 17.5 11.25V12.75ZM19.75 15C19.75 16.2426 18.7426 17.25 17.5 17.25V18.75C19.5711 18.75 21.25 17.0711 21.25 15H19.75ZM17.5 17.25H13.5V18.75H17.5V17.25ZM14.0303 18.5303L16.0303 16.5303L14.9697 15.4697L12.9697 17.4697L14.0303 18.5303ZM16.0303 19.4697L14.0303 17.4697L12.9697 18.5303L14.9697 20.5303L16.0303 19.4697Z" fill="#6D6B77"/>
</svg>
