<svg width="25" height="24" viewBox="0 0 25 24" fill="none" xmlns="http://www.w3.org/2000/svg">
<path d="M7.5 13V4.99997C7.5 4.44768 7.05228 3.99997 6.5 3.99997H4.5C3.94772 3.99997 3.5 4.44768 3.5 4.99997V12C3.5 12.5523 3.94772 13 4.5 13H7.5C9.70914 13 11.5 14.7908 11.5 17V18C11.5 19.1045 12.3954 20 13.5 20C14.6046 20 15.5 19.1045 15.5 18V13H18.5C19.6046 13 20.5 12.1045 20.5 11L19.5 5.99997C19.2046 4.73971 18.3892 3.92432 17.5 3.99997H10.5C8.84315 3.99997 7.5 5.34311 7.5 6.99997" stroke="#2F2B3D" stroke-opacity="0.9" stroke-width="1.5" stroke-linecap="round" stroke-linejoin="round"/>
</svg>
