<svg width="22" height="23" viewBox="0 0 22 23" fill="none" xmlns="http://www.w3.org/2000/svg">
<g id="ticket">
<path id="Path" d="M13.7503 5.08333V6.91667" stroke="#7367F0" stroke-width="1.5" stroke-linecap="round" stroke-linejoin="round"/>
<path id="Path_2" d="M13.7503 10.5833V12.4167" stroke="#7367F0" stroke-width="1.5" stroke-linecap="round" stroke-linejoin="round"/>
<path id="Path_3" d="M13.7503 16.0833V17.9167" stroke="#7367F0" stroke-width="1.5" stroke-linecap="round" stroke-linejoin="round"/>
<path id="Path_4" d="M4.58333 5.08333H17.4167C18.4292 5.08333 19.25 5.90414 19.25 6.91667V9.66666C18.2375 9.66666 17.4167 10.4875 17.4167 11.5C17.4167 12.5125 18.2375 13.3333 19.25 13.3333V16.0833C19.25 17.0959 18.4292 17.9167 17.4167 17.9167H4.58333C3.57081 17.9167 2.75 17.0959 2.75 16.0833V13.3333C3.76252 13.3333 4.58333 12.5125 4.58333 11.5C4.58333 10.4875 3.76252 9.66666 2.75 9.66666V6.91667C2.75 5.90414 3.57081 5.08333 4.58333 5.08333" stroke="#7367F0" stroke-width="1.5" stroke-linecap="round" stroke-linejoin="round"/>
</g>
</svg>
