<svg width="25" height="24" viewBox="0 0 25 24" fill="none" xmlns="http://www.w3.org/2000/svg">
<path d="M15.5 5V7" stroke="#6D6B77" stroke-width="1.5" stroke-linecap="round" stroke-linejoin="round"/>
<path d="M15.5 11V13" stroke="#6D6B77" stroke-width="1.5" stroke-linecap="round" stroke-linejoin="round"/>
<path d="M15.5 17V19" stroke="#6D6B77" stroke-width="1.5" stroke-linecap="round" stroke-linejoin="round"/>
<path d="M5.5 5H19.5C20.6046 5 21.5 5.89543 21.5 7V10C20.3954 10 19.5 10.8954 19.5 12C19.5 13.1046 20.3954 14 21.5 14V17C21.5 18.1046 20.6046 19 19.5 19H5.5C4.39543 19 3.5 18.1046 3.5 17V14C4.60457 14 5.5 13.1046 5.5 12C5.5 10.8954 4.60457 10 3.5 10V7C3.5 5.89543 4.39543 5 5.5 5" stroke="#6D6B77" stroke-width="1.5" stroke-linecap="round" stroke-linejoin="round"/>
</svg>
