<svg width="25" height="24" viewBox="0 0 25 24" fill="none" xmlns="http://www.w3.org/2000/svg">
<circle cx="5.5" cy="17" r="2" stroke="#6D6B77" stroke-width="1.5" stroke-linecap="round" stroke-linejoin="round"/>
<circle cx="17.5" cy="17" r="2" stroke="#6D6B77" stroke-width="1.5" stroke-linecap="round" stroke-linejoin="round"/>
<path d="M7.5 17.25C7.08579 17.25 6.75 17.5858 6.75 18C6.75 18.4142 7.08579 18.75 7.5 18.75V17.25ZM15.5 18.75C15.9142 18.75 16.25 18.4142 16.25 18C16.25 17.5858 15.9142 17.25 15.5 17.25V18.75ZM19.5 17.25C19.0858 17.25 18.75 17.5858 18.75 18C18.75 18.4142 19.0858 18.75 19.5 18.75V17.25ZM21.5 18V18.75C21.9142 18.75 22.25 18.4142 22.25 18H21.5ZM15.5 5V4.25C15.2735 4.25 15.0591 4.35235 14.9168 4.52849C14.7744 4.70463 14.7192 4.93568 14.7666 5.15715L15.5 5ZM17 12L16.2666 12.1571C16.3407 12.5029 16.6463 12.75 17 12.75V12ZM21.5 12.75C21.9142 12.75 22.25 12.4142 22.25 12C22.25 11.5858 21.9142 11.25 21.5 11.25V12.75ZM7.5 18.75H15.5V17.25H7.5V18.75ZM19.5 18.75H21.5V17.25H19.5V18.75ZM22.25 18V12H20.75V18H22.25ZM22.25 12C22.25 9.92871 21.6515 8.02219 20.6458 6.61432C19.6412 5.20789 18.1858 4.25 16.5 4.25V5.75C17.5756 5.75 18.6202 6.35911 19.4252 7.48618C20.2293 8.61181 20.75 10.2053 20.75 12H22.25ZM16.5 4.25H15.5V5.75H16.5V4.25ZM14.7666 5.15715L16.2666 12.1571L17.7334 11.8429L16.2334 4.84285L14.7666 5.15715ZM17 12.75H21.5V11.25H17V12.75Z" fill="#6D6B77"/>
<path d="M12.5 18V5H15.5" stroke="#6D6B77" stroke-width="1.5" stroke-linecap="round" stroke-linejoin="round"/>
<path d="M3.5 17V12H12.5" stroke="#6D6B77" stroke-width="1.5" stroke-linecap="round" stroke-linejoin="round"/>
</svg>
