<svg width="25" height="24" viewBox="0 0 25 24" fill="none" xmlns="http://www.w3.org/2000/svg">
<path d="M19.5 3H20.25C20.25 2.69987 20.0711 2.42864 19.7952 2.31052C19.5193 2.19241 19.1995 2.25015 18.9824 2.45731L19.5 3ZM19.5 15V15.75C19.9143 15.75 20.25 15.4142 20.25 15H19.5ZM14.5 15L13.7501 15.0047C13.7526 15.4171 14.0877 15.75 14.5 15.75V15ZM20.25 15C20.25 14.5858 19.9142 14.25 19.5 14.25C19.0858 14.25 18.75 14.5858 18.75 15H20.25ZM19.5 21V21.75C19.9142 21.75 20.25 21.4142 20.25 21H19.5ZM18.5 21H17.75C17.75 21.4142 18.0858 21.75 18.5 21.75V21ZM19.25 18C19.25 17.5858 18.9142 17.25 18.5 17.25C18.0858 17.25 17.75 17.5858 17.75 18H19.25ZM9.25 4C9.25 3.58579 8.91421 3.25 8.5 3.25C8.08579 3.25 7.75 3.58579 7.75 4H9.25ZM7.75 21C7.75 21.4142 8.08579 21.75 8.5 21.75C8.91421 21.75 9.25 21.4142 9.25 21H7.75ZM6.25 4C6.25 3.58579 5.91421 3.25 5.5 3.25C5.08579 3.25 4.75 3.58579 4.75 4H6.25ZM12.25 4C12.25 3.58579 11.9142 3.25 11.5 3.25C11.0858 3.25 10.75 3.58579 10.75 4H12.25ZM18.75 3V15H20.25V3H18.75ZM19.5 14.25H14.5V15.75H19.5V14.25ZM15.25 14.9953C15.2386 13.1651 15.2878 11.4193 15.8974 9.57813C16.5034 7.74795 17.6832 5.76962 20.0177 3.54269L18.9824 2.45731C16.5009 4.82438 15.1692 7.00555 14.4734 9.10662C13.7813 11.1967 13.7385 13.1539 13.7501 15.0047L15.25 14.9953ZM18.75 15V21H20.25V15H18.75ZM19.5 20.25H18.5V21.75H19.5V20.25ZM19.25 21V18H17.75V21H19.25ZM7.75 4V21H9.25V4H7.75ZM4.75 4V7H6.25V4H4.75ZM4.75 7C4.75 9.07107 6.42893 10.75 8.5 10.75V9.25C7.25736 9.25 6.25 8.24264 6.25 7H4.75ZM8.5 10.75C10.5711 10.75 12.25 9.07107 12.25 7H10.75C10.75 8.24264 9.74264 9.25 8.5 9.25V10.75ZM12.25 7V4H10.75V7H12.25Z" fill="#6D6B77"/>
</svg>
