<svg width="25" height="24" viewBox="0 0 25 24" fill="none" xmlns="http://www.w3.org/2000/svg">
<path d="M3.96967 14.4697C3.67678 14.7626 3.67678 15.2374 3.96967 15.5303C4.26256 15.8232 4.73744 15.8232 5.03033 15.5303L3.96967 14.4697ZM16.0303 4.53033C16.3232 4.23744 16.3232 3.76256 16.0303 3.46967C15.7374 3.17678 15.2626 3.17678 14.9697 3.46967L16.0303 4.53033ZM21.0303 9.53033C21.3232 9.23744 21.3232 8.76256 21.0303 8.46967C20.7374 8.17678 20.2626 8.17678 19.9697 8.46967L21.0303 9.53033ZM8.96967 19.4697C8.67678 19.7626 8.67678 20.2374 8.96967 20.5303C9.26256 20.8232 9.73744 20.8232 10.0303 20.5303L8.96967 19.4697ZM6.03033 11.4697C5.73744 11.1768 5.26256 11.1768 4.96967 11.4697C4.67678 11.7626 4.67678 12.2374 4.96967 12.5303L6.03033 11.4697ZM11.9697 19.5303C12.2626 19.8232 12.7374 19.8232 13.0303 19.5303C13.3232 19.2374 13.3232 18.7626 13.0303 18.4697L11.9697 19.5303ZM9.53033 7.96967C9.23744 7.67678 8.76256 7.67678 8.46967 7.96967C8.17678 8.26256 8.17678 8.73744 8.46967 9.03033L9.53033 7.96967ZM15.4697 16.0303C15.7626 16.3232 16.2374 16.3232 16.5303 16.0303C16.8232 15.7374 16.8232 15.2626 16.5303 14.9697L15.4697 16.0303ZM13.0303 4.46967C12.7374 4.17678 12.2626 4.17678 11.9697 4.46967C11.6768 4.76256 11.6768 5.23744 11.9697 5.53033L13.0303 4.46967ZM18.9697 12.5303C19.2626 12.8232 19.7374 12.8232 20.0303 12.5303C20.3232 12.2374 20.3232 11.7626 20.0303 11.4697L18.9697 12.5303ZM5.03033 15.5303L16.0303 4.53033L14.9697 3.46967L3.96967 14.4697L5.03033 15.5303ZM19.9697 8.46967L8.96967 19.4697L10.0303 20.5303L21.0303 9.53033L19.9697 8.46967ZM4.96967 12.5303L11.9697 19.5303L13.0303 18.4697L6.03033 11.4697L4.96967 12.5303ZM8.46967 9.03033L15.4697 16.0303L16.5303 14.9697L9.53033 7.96967L8.46967 9.03033ZM11.9697 5.53033L18.9697 12.5303L20.0303 11.4697L13.0303 4.46967L11.9697 5.53033Z" fill="#2F2B3D" fill-opacity="0.9"/>
</svg>
