<svg width="25" height="24" viewBox="0 0 25 24" fill="none" xmlns="http://www.w3.org/2000/svg">
<path d="M5 8.25C4.58579 8.25 4.25 8.58579 4.25 9C4.25 9.41421 4.58579 9.75 5 9.75V8.25ZM10 9.75C10.4142 9.75 10.75 9.41421 10.75 9C10.75 8.58579 10.4142 8.25 10 8.25V9.75ZM8.25 9C8.25 8.58579 7.91421 8.25 7.5 8.25C7.08579 8.25 6.75 8.58579 6.75 9H8.25ZM6.75 15C6.75 15.4142 7.08579 15.75 7.5 15.75C7.91421 15.75 8.25 15.4142 8.25 15H6.75ZM5 9.75H10V8.25H5V9.75ZM6.75 9V15H8.25V9H6.75Z" fill="#E1DEF5" fill-opacity="0.4"/>
<path d="M13.5 15V9L16.5 13L19.5 9V15" stroke="#E1DEF5" stroke-opacity="0.4" stroke-width="1.5" stroke-linecap="round" stroke-linejoin="round"/>
</svg>
