<svg width="25" height="24" viewBox="0 0 25 24" fill="none" xmlns="http://www.w3.org/2000/svg">
<path d="M3.5 3L21.5 21" stroke="#E1DEF5" stroke-opacity="0.7" stroke-width="1.5" stroke-linecap="round" stroke-linejoin="round"/>
<path d="M4.5 6.25C4.08579 6.25 3.75 6.58579 3.75 7C3.75 7.41421 4.08579 7.75 4.5 7.75V6.25ZM7.5 7.75C7.91421 7.75 8.25 7.41421 8.25 7C8.25 6.58579 7.91421 6.25 7.5 6.25V7.75ZM11.5 6.25C11.0858 6.25 10.75 6.58579 10.75 7C10.75 7.41421 11.0858 7.75 11.5 7.75V6.25ZM20.5 7.75C20.9142 7.75 21.25 7.41421 21.25 7C21.25 6.58579 20.9142 6.25 20.5 6.25V7.75ZM4.5 7.75H7.5V6.25H4.5V7.75ZM11.5 7.75H20.5V6.25H11.5V7.75Z" fill="#E1DEF5" fill-opacity="0.7"/>
<path d="M10.5 11V17" stroke="#E1DEF5" stroke-opacity="0.7" stroke-width="1.5" stroke-linecap="round" stroke-linejoin="round"/>
<path d="M14.5 14V17" stroke="#E1DEF5" stroke-opacity="0.7" stroke-width="1.5" stroke-linecap="round" stroke-linejoin="round"/>
<path d="M5.5 7L6.5 19C6.5 20.1046 7.39543 21 8.5 21H16.5C17.6046 21 18.5 20.1046 18.5 19L18.577 18.077" stroke="#E1DEF5" stroke-opacity="0.7" stroke-width="1.5" stroke-linecap="round" stroke-linejoin="round"/>
<path d="M18.884 14.373L19.5 7" stroke="#E1DEF5" stroke-opacity="0.7" stroke-width="1.5" stroke-linecap="round" stroke-linejoin="round"/>
<path d="M9.5 5V4C9.5 3.44772 9.94772 3 10.5 3H14.5C15.0523 3 15.5 3.44772 15.5 4V7" stroke="#E1DEF5" stroke-opacity="0.7" stroke-width="1.5" stroke-linecap="round" stroke-linejoin="round"/>
</svg>
