<svg width="25" height="24" viewBox="0 0 25 24" fill="none" xmlns="http://www.w3.org/2000/svg">
<path d="M4.5 7H20.5" stroke="#E1DEF5" stroke-opacity="0.4" stroke-width="1.5" stroke-linecap="round" stroke-linejoin="round"/>
<path d="M5.5 7L6.5 19C6.5 20.1046 7.39543 21 8.5 21H16.5C17.6046 21 18.5 20.1046 18.5 19L19.5 7" stroke="#E1DEF5" stroke-opacity="0.4" stroke-width="1.5" stroke-linecap="round" stroke-linejoin="round"/>
<path d="M9.5 7V4C9.5 3.44772 9.94772 3 10.5 3H14.5C15.0523 3 15.5 3.44772 15.5 4V7" stroke="#E1DEF5" stroke-opacity="0.4" stroke-width="1.5" stroke-linecap="round" stroke-linejoin="round"/>
<path d="M11.0303 11.4697C10.7374 11.1768 10.2626 11.1768 9.96967 11.4697C9.67678 11.7626 9.67678 12.2374 9.96967 12.5303L11.0303 11.4697ZM13.9697 16.5303C14.2626 16.8232 14.7374 16.8232 15.0303 16.5303C15.3232 16.2374 15.3232 15.7626 15.0303 15.4697L13.9697 16.5303ZM15.0303 12.5303C15.3232 12.2374 15.3232 11.7626 15.0303 11.4697C14.7374 11.1768 14.2626 11.1768 13.9697 11.4697L15.0303 12.5303ZM9.96967 15.4697C9.67678 15.7626 9.67678 16.2374 9.96967 16.5303C10.2626 16.8232 10.7374 16.8232 11.0303 16.5303L9.96967 15.4697ZM9.96967 12.5303L13.9697 16.5303L15.0303 15.4697L11.0303 11.4697L9.96967 12.5303ZM13.9697 11.4697L9.96967 15.4697L11.0303 16.5303L15.0303 12.5303L13.9697 11.4697Z" fill="#E1DEF5" fill-opacity="0.4"/>
</svg>
