<svg width="25" height="24" viewBox="0 0 25 24" fill="none" xmlns="http://www.w3.org/2000/svg">
<path d="M12.5 13L10.5 11" stroke="#E1DEF5" stroke-opacity="0.4" stroke-width="1.5" stroke-linecap="round" stroke-linejoin="round"/>
<path d="M12.5 12L14.5 10" stroke="#E1DEF5" stroke-opacity="0.4" stroke-width="1.5" stroke-linecap="round" stroke-linejoin="round"/>
<path d="M12.5 21V8" stroke="#E1DEF5" stroke-opacity="0.4" stroke-width="1.5" stroke-linecap="round" stroke-linejoin="round"/>
<path fill-rule="evenodd" clip-rule="evenodd" d="M10.324 15.9951C9.43831 15.9432 8.621 15.502 8.0917 14.7899C7.56241 14.0779 7.37543 13.1681 7.581 12.3051C6.84491 11.6932 6.44523 10.7666 6.50531 9.81135C6.5654 8.85605 7.07804 7.98687 7.885 7.47207C7.16501 6.193 7.47623 4.58079 8.62056 3.6616C9.7649 2.74241 11.4063 2.78619 12.5 3.76507C13.5939 2.78777 15.2341 2.74485 16.3777 3.6636C17.5212 4.58234 17.8327 6.19329 17.114 7.47207C17.9215 7.98641 18.4346 8.85558 18.4949 9.81105C18.5552 10.7665 18.1554 11.6933 17.419 12.3051C17.6317 13.1981 17.4238 14.1394 16.8547 14.8597C16.2856 15.5801 15.418 16.0003 14.5 16.0001H10.5L10.324 15.9951Z" stroke="#E1DEF5" stroke-opacity="0.4" stroke-width="1.5" stroke-linecap="round" stroke-linejoin="round"/>
</svg>
