<svg width="25" height="24" viewBox="0 0 25 24" fill="none" xmlns="http://www.w3.org/2000/svg">
<path d="M16.5 5L19.5 8L17.5 9L21.5 13L18.5 14L22.5 18H13.5" stroke="#E1DEF5" stroke-opacity="0.7" stroke-width="1.5" stroke-linecap="round" stroke-linejoin="round"/>
<path d="M15.5 21V18" stroke="#E1DEF5" stroke-opacity="0.7" stroke-width="1.5" stroke-linecap="round" stroke-linejoin="round"/>
<path d="M8.5 13L6.5 11" stroke="#E1DEF5" stroke-opacity="0.7" stroke-width="1.5" stroke-linecap="round" stroke-linejoin="round"/>
<path d="M8.5 12L10.5 10" stroke="#E1DEF5" stroke-opacity="0.7" stroke-width="1.5" stroke-linecap="round" stroke-linejoin="round"/>
<path d="M8.5 21V8" stroke="#E1DEF5" stroke-opacity="0.7" stroke-width="1.5" stroke-linecap="round" stroke-linejoin="round"/>
<path fill-rule="evenodd" clip-rule="evenodd" d="M6.324 15.9951C5.43831 15.9432 4.621 15.502 4.0917 14.7899C3.56241 14.0779 3.37543 13.1681 3.581 12.3051C2.84491 11.6932 2.44523 10.7666 2.50531 9.81135C2.5654 8.85605 3.07804 7.98687 3.885 7.47207C3.16501 6.193 3.47623 4.58079 4.62056 3.6616C5.7649 2.74241 7.40629 2.78619 8.5 3.76507C9.59392 2.78777 11.2341 2.74485 12.3777 3.6636C13.5212 4.58234 13.8327 6.19329 13.114 7.47207C13.9215 7.98641 14.4346 8.85558 14.4949 9.81105C14.5552 10.7665 14.1554 11.6933 13.419 12.3051C13.6317 13.1981 13.4238 14.1394 12.8547 14.8597C12.2856 15.5801 11.418 16.0003 10.5 16.0001H6.5L6.324 15.9951Z" stroke="#E1DEF5" stroke-opacity="0.7" stroke-width="1.5" stroke-linecap="round" stroke-linejoin="round"/>
</svg>
