<svg width="25" height="24" viewBox="0 0 25 24" fill="none" xmlns="http://www.w3.org/2000/svg">
<path d="M5.5 18.25C5.08579 18.25 4.75 18.5858 4.75 19C4.75 19.4142 5.08579 19.75 5.5 19.75V18.25ZM19.5 19.75C19.9142 19.75 20.25 19.4142 20.25 19C20.25 18.5858 19.9142 18.25 19.5 18.25V19.75ZM20.7359 16.9914C20.7389 17.4056 21.0771 17.7389 21.4913 17.736C21.9055 17.733 22.2388 17.3949 22.2359 16.9807L20.7359 16.9914ZM21.3399 16.25L22.0351 15.9687C22.0219 15.936 22.0065 15.9044 21.9888 15.8739L21.3399 16.25ZM14.2399 4.00002L13.5837 4.36311C13.5861 4.36747 13.5885 4.3718 13.591 4.37611L14.2399 4.00002ZM10.7399 4.00002L11.3889 4.37599C11.3913 4.37172 11.3938 4.36743 11.3962 4.36311L10.7399 4.00002ZM9.26596 5.04804C9.05832 5.40645 9.18053 5.86533 9.53894 6.07297C9.89735 6.28062 10.3562 6.1584 10.5639 5.79999L9.26596 5.04804ZM9.09685 8.33017C9.30455 7.9718 9.1824 7.5129 8.82402 7.3052C8.46565 7.0975 8.00675 7.21965 7.79905 7.57803L9.09685 8.33017ZM3.63995 16.2501L2.99105 15.874C2.97357 15.9042 2.95821 15.9356 2.94509 15.9679L3.63995 16.2501ZM5.35134 19.7491C5.765 19.7704 6.11763 19.4524 6.13896 19.0387C6.16028 18.6251 5.84223 18.2724 5.42857 18.2511L5.35134 19.7491ZM5.5 19.75H19.5V18.25H5.5V19.75ZM22.2359 16.9807C22.2334 16.6337 22.1653 16.2903 22.0351 15.9687L20.6447 16.5314C20.7039 16.6776 20.7348 16.8336 20.7359 16.9914L22.2359 16.9807ZM21.9888 15.8739L14.8888 3.62393L13.591 4.37611L20.691 16.6261L21.9888 15.8739ZM14.8962 3.63692C14.4118 2.76156 13.4903 2.21826 12.4899 2.21826V3.71826C12.9447 3.71826 13.3635 3.96521 13.5837 4.36311L14.8962 3.63692ZM12.4899 2.21826C11.4895 2.21826 10.568 2.76156 10.0837 3.63692L11.3962 4.36311C11.6163 3.96521 12.0352 3.71826 12.4899 3.71826V2.21826ZM10.091 3.62404L9.26596 5.04804L10.5639 5.79999L11.3889 4.37599L10.091 3.62404ZM7.79905 7.57803L2.99105 15.874L4.28885 16.6262L9.09685 8.33017L7.79905 7.57803ZM2.94509 15.9679C2.61013 16.7925 2.695 17.7282 3.17286 18.4792L4.43835 17.6738C4.22114 17.3325 4.18256 16.9072 4.33482 16.5323L2.94509 15.9679ZM3.17286 18.4792C3.65071 19.2301 4.46245 19.7033 5.35134 19.7491L5.42857 18.2511C5.02453 18.2303 4.65556 18.0152 4.43835 17.6738L3.17286 18.4792Z" fill="#6D6B77"/>
<path d="M3.5 3L21.5 21" stroke="#6D6B77" stroke-width="1.5" stroke-linecap="round" stroke-linejoin="round"/>
</svg>
