<svg width="25" height="24" viewBox="0 0 25 24" fill="none" xmlns="http://www.w3.org/2000/svg">
<path d="M3.5 6L5.5 4V7C5.5 10.866 8.63401 14 12.5 14C16.366 14 19.5 10.866 19.5 7V4L21.5 6" stroke="#2F2B3D" stroke-opacity="0.9" stroke-width="1.5" stroke-linecap="round" stroke-linejoin="round"/>
<path d="M11.75 21C11.75 21.4142 12.0858 21.75 12.5 21.75C12.9142 21.75 13.25 21.4142 13.25 21H11.75ZM12.5 3H13.25C13.25 2.69665 13.0673 2.42318 12.787 2.30709C12.5068 2.191 12.1842 2.25517 11.9697 2.46967L12.5 3ZM9.96967 4.46967C9.67678 4.76256 9.67678 5.23744 9.96967 5.53033C10.2626 5.82322 10.7374 5.82322 11.0303 5.53033L9.96967 4.46967ZM13.9697 5.53033C14.2626 5.82322 14.7374 5.82322 15.0303 5.53033C15.3232 5.23744 15.3232 4.76256 15.0303 4.46967L13.9697 5.53033ZM13.0303 2.46967C12.7374 2.17678 12.2626 2.17678 11.9697 2.46967C11.6768 2.76256 11.6768 3.23744 11.9697 3.53033L13.0303 2.46967ZM13.25 21V3H11.75V21H13.25ZM11.9697 2.46967L9.96967 4.46967L11.0303 5.53033L13.0303 3.53033L11.9697 2.46967ZM15.0303 4.46967L13.0303 2.46967L11.9697 3.53033L13.9697 5.53033L15.0303 4.46967Z" fill="#2F2B3D" fill-opacity="0.9"/>
</svg>
