<svg width="26" height="26" viewBox="0 0 26 26" fill="none" xmlns="http://www.w3.org/2000/svg">
<g id="truck">
<ellipse id="Oval" cx="7.58342" cy="18.4167" rx="2.16667" ry="2.16667" stroke="#00BAD1" stroke-width="1.5" stroke-linecap="round" stroke-linejoin="round"/>
<circle id="Oval_2" cx="18.4167" cy="18.4167" r="2.16667" stroke="#00BAD1" stroke-width="1.5" stroke-linecap="round" stroke-linejoin="round"/>
<path id="Shape" d="M5.41667 19.1667C5.83088 19.1667 6.16667 18.8309 6.16667 18.4167C6.16667 18.0025 5.83088 17.6667 5.41667 17.6667V19.1667ZM3.25 18.4167H2.5C2.5 18.8309 2.83579 19.1667 3.25 19.1667V18.4167ZM14.0833 5.41667H14.8333C14.8333 5.00246 14.4975 4.66667 14.0833 4.66667V5.41667ZM13.3333 18.4167C13.3333 18.8309 13.6691 19.1667 14.0833 19.1667C14.4975 19.1667 14.8333 18.8309 14.8333 18.4167H13.3333ZM9.75 17.6667C9.33579 17.6667 9 18.0025 9 18.4167C9 18.8309 9.33579 19.1667 9.75 19.1667V17.6667ZM16.25 19.1667C16.6642 19.1667 17 18.8309 17 18.4167C17 18.0025 16.6642 17.6667 16.25 17.6667V19.1667ZM20.5833 17.6667C20.1691 17.6667 19.8333 18.0025 19.8333 18.4167C19.8333 18.8309 20.1691 19.1667 20.5833 19.1667V17.6667ZM22.75 18.4167V19.1667C23.1642 19.1667 23.5 18.8309 23.5 18.4167H22.75ZM22.75 11.9167H23.5C23.5 11.5025 23.1642 11.1667 22.75 11.1667V11.9167ZM14.0833 11.1667C13.6691 11.1667 13.3333 11.5025 13.3333 11.9167C13.3333 12.3309 13.6691 12.6667 14.0833 12.6667V11.1667ZM14.0833 5.75001C13.6691 5.75001 13.3333 6.08579 13.3333 6.50001C13.3333 6.91422 13.6691 7.25001 14.0833 7.25001V5.75001ZM19.5 6.50001L20.1431 6.11413C20.0076 5.88823 19.7634 5.75001 19.5 5.75001V6.50001ZM22.1069 12.3025C22.32 12.6577 22.7807 12.7729 23.1359 12.5598C23.4911 12.3467 23.6062 11.886 23.3931 11.5308L22.1069 12.3025ZM5.41667 17.6667H3.25V19.1667H5.41667V17.6667ZM4 18.4167V6.50001H2.5V18.4167H4ZM4 6.50001C4 6.31591 4.14924 6.16667 4.33333 6.16667V4.66667C3.32081 4.66667 2.5 5.48748 2.5 6.50001H4ZM4.33333 6.16667H14.0833V4.66667H4.33333V6.16667ZM13.3333 5.41667V18.4167H14.8333V5.41667H13.3333ZM9.75 19.1667H16.25V17.6667H9.75V19.1667ZM20.5833 19.1667H22.75V17.6667H20.5833V19.1667ZM23.5 18.4167V11.9167H22V18.4167H23.5ZM22.75 11.1667H14.0833V12.6667H22.75V11.1667ZM14.0833 7.25001H19.5V5.75001H14.0833V7.25001ZM18.8569 6.88588L22.1069 12.3025L23.3931 11.5308L20.1431 6.11413L18.8569 6.88588Z" fill="#00BAD1"/>
</g>
</svg>
