<svg width="28" height="28" viewBox="0 0 28 28" fill="none" xmlns="http://www.w3.org/2000/svg">
<g id="truck">
<ellipse id="Oval" cx="8.16658" cy="19.8333" rx="2.33333" ry="2.33333" stroke="#7367F0" stroke-width="1.5" stroke-linecap="round" stroke-linejoin="round"/>
<circle id="Oval_2" cx="19.8333" cy="19.8333" r="2.33333" stroke="#7367F0" stroke-width="1.5" stroke-linecap="round" stroke-linejoin="round"/>
<path id="Shape" d="M5.83333 20.5833C6.24755 20.5833 6.58333 20.2475 6.58333 19.8333C6.58333 19.4191 6.24755 19.0833 5.83333 19.0833V20.5833ZM3.5 19.8333H2.75C2.75 20.2475 3.08579 20.5833 3.5 20.5833V19.8333ZM15.1667 5.83331H15.9167C15.9167 5.4191 15.5809 5.08331 15.1667 5.08331V5.83331ZM14.4167 19.8333C14.4167 20.2475 14.7525 20.5833 15.1667 20.5833C15.5809 20.5833 15.9167 20.2475 15.9167 19.8333H14.4167ZM10.5 19.0833C10.0858 19.0833 9.75 19.4191 9.75 19.8333C9.75 20.2475 10.0858 20.5833 10.5 20.5833V19.0833ZM17.5 20.5833C17.9142 20.5833 18.25 20.2475 18.25 19.8333C18.25 19.4191 17.9142 19.0833 17.5 19.0833V20.5833ZM22.1667 19.0833C21.7525 19.0833 21.4167 19.4191 21.4167 19.8333C21.4167 20.2475 21.7525 20.5833 22.1667 20.5833V19.0833ZM24.5 19.8333V20.5833C24.9142 20.5833 25.25 20.2475 25.25 19.8333H24.5ZM24.5 12.8333H25.25C25.25 12.4191 24.9142 12.0833 24.5 12.0833V12.8333ZM15.1667 12.0833C14.7525 12.0833 14.4167 12.4191 14.4167 12.8333C14.4167 13.2475 14.7525 13.5833 15.1667 13.5833V12.0833ZM15.1667 6.24998C14.7525 6.24998 14.4167 6.58577 14.4167 6.99998C14.4167 7.41419 14.7525 7.74998 15.1667 7.74998V6.24998ZM21 6.99998L21.6431 6.61411C21.5076 6.3882 21.2634 6.24998 21 6.24998V6.99998ZM23.8569 13.2192C24.07 13.5744 24.5307 13.6895 24.8859 13.4764C25.2411 13.2633 25.3562 12.8026 25.1431 12.4474L23.8569 13.2192ZM5.83333 19.0833H3.5V20.5833H5.83333V19.0833ZM4.25 19.8333V6.99998H2.75V19.8333H4.25ZM4.25 6.99998C4.25 6.76986 4.43655 6.58331 4.66667 6.58331V5.08331C3.60812 5.08331 2.75 5.94143 2.75 6.99998H4.25ZM4.66667 6.58331H15.1667V5.08331H4.66667V6.58331ZM14.4167 5.83331V19.8333H15.9167V5.83331H14.4167ZM10.5 20.5833H17.5V19.0833H10.5V20.5833ZM22.1667 20.5833H24.5V19.0833H22.1667V20.5833ZM25.25 19.8333V12.8333H23.75V19.8333H25.25ZM24.5 12.0833H15.1667V13.5833H24.5V12.0833ZM15.1667 7.74998H21V6.24998H15.1667V7.74998ZM20.3569 7.38585L23.8569 13.2192L25.1431 12.4474L21.6431 6.61411L20.3569 7.38585Z" fill="#7367F0"/>
</g>
</svg>
