<svg width="25" height="24" viewBox="0 0 25 24" fill="none" xmlns="http://www.w3.org/2000/svg">
<circle cx="7.5" cy="17" r="2" stroke="#2F2B3D" stroke-opacity="0.9" stroke-width="1.5" stroke-linecap="round" stroke-linejoin="round"/>
<circle cx="17.5" cy="17" r="2" stroke="#2F2B3D" stroke-opacity="0.9" stroke-width="1.5" stroke-linecap="round" stroke-linejoin="round"/>
<path d="M5.5 17.75C5.91421 17.75 6.25 17.4142 6.25 17C6.25 16.5858 5.91421 16.25 5.5 16.25V17.75ZM3.5 17H2.75C2.75 17.4142 3.08579 17.75 3.5 17.75V17ZM13.5 5H14.25C14.25 4.58579 13.9142 4.25 13.5 4.25V5ZM13.5 11V11.75C13.9142 11.75 14.25 11.4142 14.25 11H13.5ZM8.5 11V10.25C8.19665 10.25 7.92318 10.4327 7.80709 10.713C7.691 10.9932 7.75517 11.3158 7.96967 11.5303L8.5 11ZM9.96967 13.5303C10.2626 13.8232 10.7374 13.8232 11.0303 13.5303C11.3232 13.2374 11.3232 12.7626 11.0303 12.4697L9.96967 13.5303ZM11.0303 9.53033C11.3232 9.23744 11.3232 8.76256 11.0303 8.46967C10.7374 8.17678 10.2626 8.17678 9.96967 8.46967L11.0303 9.53033ZM7.96967 10.4697C7.67678 10.7626 7.67678 11.2374 7.96967 11.5303C8.26256 11.8232 8.73744 11.8232 9.03033 11.5303L7.96967 10.4697ZM5.5 16.25H3.5V17.75H5.5V16.25ZM4.25 17V6H2.75V17H4.25ZM4.25 6C4.25 5.86193 4.36193 5.75 4.5 5.75V4.25C3.5335 4.25 2.75 5.0335 2.75 6H4.25ZM4.5 5.75H13.5V4.25H4.5V5.75ZM12.75 5V11H14.25V5H12.75ZM13.5 10.25H8.5V11.75H13.5V10.25ZM7.96967 11.5303L9.96967 13.5303L11.0303 12.4697L9.03033 10.4697L7.96967 11.5303ZM9.96967 8.46967L7.96967 10.4697L9.03033 11.5303L11.0303 9.53033L9.96967 8.46967Z" fill="#2F2B3D" fill-opacity="0.9"/>
<path d="M9.5 17H15.5" stroke="#2F2B3D" stroke-opacity="0.9" stroke-width="1.5" stroke-linecap="round" stroke-linejoin="round"/>
<path d="M13.5 6H18.5L21.5 11V17H19.5" stroke="#2F2B3D" stroke-opacity="0.9" stroke-width="1.5" stroke-linecap="round" stroke-linejoin="round"/>
</svg>
