<svg width="25" height="24" viewBox="0 0 25 24" fill="none" xmlns="http://www.w3.org/2000/svg">
<circle cx="7.5" cy="17" r="2" stroke="#E1DEF5" stroke-opacity="0.7" stroke-width="1.5" stroke-linecap="round" stroke-linejoin="round"/>
<path d="M16.0849 15.5859C15.5792 16.0908 15.3812 16.827 15.5655 17.5174C15.7499 18.2077 16.2885 18.7473 16.9785 18.9329C17.6686 19.1184 18.4052 18.9218 18.9109 18.4169" stroke="#E1DEF5" stroke-opacity="0.7" stroke-width="1.5" stroke-linecap="round" stroke-linejoin="round"/>
<path d="M5.5 17.75C5.91421 17.75 6.25 17.4142 6.25 17C6.25 16.5858 5.91421 16.25 5.5 16.25V17.75ZM3.5 17H2.75C2.75 17.4142 3.08579 17.75 3.5 17.75V17ZM5.5 5.75C5.91421 5.75 6.25 5.41421 6.25 5C6.25 4.58579 5.91421 4.25 5.5 4.25V5.75ZM9.45996 4.25C9.04575 4.25 8.70996 4.58579 8.70996 5C8.70996 5.41421 9.04575 5.75 9.45996 5.75V4.25ZM13.5 5H14.25C14.25 4.58579 13.9142 4.25 13.5 4.25V5ZM12.75 9C12.75 9.41421 13.0857 9.75 13.5 9.75C13.9142 9.75 14.25 9.41421 14.25 9H12.75ZM14.25 13C14.25 12.5858 13.9142 12.25 13.5 12.25C13.0858 12.25 12.75 12.5858 12.75 13H14.25ZM12.75 17C12.75 17.4142 13.0858 17.75 13.5 17.75C13.9142 17.75 14.25 17.4142 14.25 17H12.75ZM9.5 16.25C9.08579 16.25 8.75 16.5858 8.75 17C8.75 17.4142 9.08579 17.75 9.5 17.75V16.25ZM15.5 17.75C15.9142 17.75 16.25 17.4142 16.25 17C16.25 16.5858 15.9142 16.25 15.5 16.25V17.75ZM20.75 17C20.75 17.4142 21.0858 17.75 21.5 17.75C21.9142 17.75 22.25 17.4142 22.25 17H20.75ZM21.5 11H22.25C22.25 10.5858 21.9142 10.25 21.5 10.25V11ZM15.5 10.25C15.0858 10.25 14.75 10.5858 14.75 11C14.75 11.4142 15.0858 11.75 15.5 11.75V10.25ZM13.5 5.25C13.0858 5.25 12.75 5.58579 12.75 6C12.75 6.41421 13.0858 6.75 13.5 6.75V5.25ZM18.5 6L19.1431 5.61413C19.0076 5.38822 18.7634 5.25 18.5 5.25V6ZM20.8569 11.3859C21.07 11.7411 21.5307 11.8562 21.8859 11.6431C22.2411 11.43 22.3562 10.9693 22.1431 10.6141L20.8569 11.3859ZM5.5 16.25H3.5V17.75H5.5V16.25ZM4.25 17V6H2.75V17H4.25ZM4.25 6C4.25 5.86193 4.36193 5.75 4.5 5.75V4.25C3.5335 4.25 2.75 5.0335 2.75 6H4.25ZM4.5 5.75H5.5V4.25H4.5V5.75ZM9.45996 5.75H13.5V4.25H9.45996V5.75ZM12.75 5V9H14.25V5H12.75ZM12.75 13V17H14.25V13H12.75ZM9.5 17.75H15.5V16.25H9.5V17.75ZM22.25 17V11H20.75V17H22.25ZM21.5 10.25H15.5V11.75H21.5V10.25ZM13.5 6.75H18.5V5.25H13.5V6.75ZM17.8569 6.38587L20.8569 11.3859L22.1431 10.6141L19.1431 5.61413L17.8569 6.38587Z" fill="#E1DEF5" fill-opacity="0.7"/>
<path d="M3.5 3L21.5 21" stroke="#E1DEF5" stroke-opacity="0.7" stroke-width="1.5" stroke-linecap="round" stroke-linejoin="round"/>
</svg>
