<svg width="20" height="20" viewBox="0 0 20 20" fill="none" xmlns="http://www.w3.org/2000/svg">
<g id="Icon">
<ellipse id="Oval" cx="5.83342" cy="14.1667" rx="1.66667" ry="1.66667" stroke="#E1DEF5" stroke-opacity="0.9" stroke-width="1.5" stroke-linecap="round" stroke-linejoin="round"/>
<circle id="Oval_2" cx="14.1667" cy="14.1667" r="1.66667" stroke="#E1DEF5" stroke-opacity="0.9" stroke-width="1.5" stroke-linecap="round" stroke-linejoin="round"/>
<path id="Shape" d="M4.16667 14.9167C4.58088 14.9167 4.91667 14.5809 4.91667 14.1667C4.91667 13.7525 4.58088 13.4167 4.16667 13.4167V14.9167ZM2.5 14.1667H1.75C1.75 14.5809 2.08579 14.9167 2.5 14.9167V14.1667ZM10.8333 4.16669H11.5833C11.5833 3.75247 11.2475 3.41669 10.8333 3.41669V4.16669ZM10.0833 14.1667C10.0833 14.5809 10.4191 14.9167 10.8333 14.9167C11.2475 14.9167 11.5833 14.5809 11.5833 14.1667H10.0833ZM7.5 13.4167C7.08579 13.4167 6.75 13.7525 6.75 14.1667C6.75 14.5809 7.08579 14.9167 7.5 14.9167V13.4167ZM12.5 14.9167C12.9142 14.9167 13.25 14.5809 13.25 14.1667C13.25 13.7525 12.9142 13.4167 12.5 13.4167V14.9167ZM15.8333 13.4167C15.4191 13.4167 15.0833 13.7525 15.0833 14.1667C15.0833 14.5809 15.4191 14.9167 15.8333 14.9167V13.4167ZM17.5 14.1667V14.9167C17.9142 14.9167 18.25 14.5809 18.25 14.1667H17.5ZM17.5 9.16669H18.25C18.25 8.75247 17.9142 8.41669 17.5 8.41669V9.16669ZM10.8333 8.41669C10.4191 8.41669 10.0833 8.75247 10.0833 9.16669C10.0833 9.5809 10.4191 9.91669 10.8333 9.91669V8.41669ZM10.8333 4.25002C10.4191 4.25002 10.0833 4.58581 10.0833 5.00002C10.0833 5.41423 10.4191 5.75002 10.8333 5.75002V4.25002ZM15 5.00002L15.6431 4.61415C15.5076 4.38824 15.2634 4.25002 15 4.25002V5.00002ZM16.8569 9.55256C17.07 9.90774 17.5307 10.0229 17.8859 9.80981C18.2411 9.5967 18.3562 9.136 18.1431 8.78082L16.8569 9.55256ZM4.16667 13.4167H2.5V14.9167H4.16667V13.4167ZM3.25 14.1667V5.00002H1.75V14.1667H3.25ZM3.25 5.00002C3.25 4.954 3.28731 4.91669 3.33333 4.91669V3.41669C2.45888 3.41669 1.75 4.12557 1.75 5.00002H3.25ZM3.33333 4.91669H10.8333V3.41669H3.33333V4.91669ZM10.0833 4.16669V14.1667H11.5833V4.16669H10.0833ZM7.5 14.9167H12.5V13.4167H7.5V14.9167ZM15.8333 14.9167H17.5V13.4167H15.8333V14.9167ZM18.25 14.1667V9.16669H16.75V14.1667H18.25ZM17.5 8.41669H10.8333V9.91669H17.5V8.41669ZM10.8333 5.75002H15V4.25002H10.8333V5.75002ZM14.3569 5.38589L16.8569 9.55256L18.1431 8.78082L15.6431 4.61415L14.3569 5.38589Z" fill="#E1DEF5" fill-opacity="0.9"/>
</g>
</svg>
