<svg width="22" height="22" viewBox="0 0 22 22" fill="none" xmlns="http://www.w3.org/2000/svg">
<g id="remix-icons/line/logos/twitter-line">
<path id="Vector" d="M14.0246 5.08744C13.3279 5.08733 12.659 5.36072 12.1618 5.8488C11.6647 6.33687 11.379 7.00061 11.3662 7.69719L11.3406 9.14094C11.3391 9.21846 11.3212 9.29478 11.2881 9.36491C11.255 9.43503 11.2075 9.49737 11.1487 9.54783C11.0898 9.5983 11.0209 9.63575 10.9466 9.65772C10.8722 9.6797 10.7941 9.68571 10.7172 9.67536L9.28632 9.48103C7.40349 9.22436 5.59949 8.35719 3.86882 6.91528C3.32065 9.94944 4.39132 12.0514 6.9699 13.6729L8.57132 14.6794C8.64741 14.7273 8.71062 14.793 8.75543 14.8709C8.80024 14.9488 8.82527 15.0365 8.82835 15.1263C8.83142 15.2161 8.81245 15.3053 8.77307 15.3861C8.7337 15.4669 8.67513 15.5368 8.60249 15.5897L7.14315 16.6558C8.01124 16.7099 8.83532 16.6714 9.51915 16.5357C13.844 15.6722 16.7196 12.418 16.7196 7.05003C16.7196 6.61186 15.7919 5.08744 14.0246 5.08744V5.08744ZM9.5329 7.66328C9.5489 6.77965 9.82522 5.92039 10.3272 5.19306C10.8293 4.46573 11.5347 3.90267 12.3552 3.57436C13.1758 3.24606 14.0749 3.1671 14.9401 3.34738C15.8053 3.52766 16.598 3.95916 17.2192 4.58786C17.8709 4.58328 18.4255 4.74828 19.6657 3.99661C19.3587 5.49994 19.2074 6.15261 18.5529 7.05003C18.5529 14.0552 14.2473 17.4615 9.87849 18.3333C6.88282 18.9309 2.52682 17.9492 1.27832 16.6457C1.91449 16.5962 4.49949 16.3184 5.99365 15.2249C4.72957 14.3916 -0.302013 11.4308 3.0044 3.47044C4.55632 5.28269 6.13024 6.51653 7.72524 7.17103C8.78674 7.60644 9.04707 7.59728 9.53382 7.66419L9.5329 7.66328Z" fill="white"/>
</g>
</svg>
