<svg width="25" height="24" viewBox="0 0 25 24" fill="none" xmlns="http://www.w3.org/2000/svg">
<path d="M10.5 13.9999C11.1583 14.6718 12.0594 15.0504 13 15.0504C13.9406 15.0504 14.8417 14.6718 15.5 13.9999L19.5 9.99989C20.8807 8.61918 20.8807 6.3806 19.5 4.99989C18.1193 3.61918 15.8807 3.61918 14.5 4.99989L14 5.49989" stroke="#E1DEF5" stroke-opacity="0.4" stroke-width="1.5" stroke-linecap="round" stroke-linejoin="round"/>
<path d="M14.5 9.99997C13.8417 9.32809 12.9407 8.94946 12 8.94946C11.0594 8.94946 10.1583 9.32809 9.50001 9.99997L5.50001 14C4.1193 15.3807 4.1193 17.6193 5.50001 19C6.88072 20.3807 9.1193 20.3807 10.5 19L11 18.5" stroke="#E1DEF5" stroke-opacity="0.4" stroke-width="1.5" stroke-linecap="round" stroke-linejoin="round"/>
<path d="M16.5 21V19" stroke="#E1DEF5" stroke-opacity="0.4" stroke-width="1.5" stroke-linecap="round" stroke-linejoin="round"/>
<path d="M19.5 16H21.5" stroke="#E1DEF5" stroke-opacity="0.4" stroke-width="1.5" stroke-linecap="round" stroke-linejoin="round"/>
<path d="M3.5 8H5.5" stroke="#E1DEF5" stroke-opacity="0.4" stroke-width="1.5" stroke-linecap="round" stroke-linejoin="round"/>
<path d="M8.5 3V5" stroke="#E1DEF5" stroke-opacity="0.4" stroke-width="1.5" stroke-linecap="round" stroke-linejoin="round"/>
</svg>
