<svg width="25" height="24" viewBox="0 0 25 24" fill="none" xmlns="http://www.w3.org/2000/svg">
<path d="M8.5 16V12C8.5 9.79086 10.2909 8 12.5 8C14.7091 8 16.5 9.79086 16.5 12V16" stroke="#E1DEF5" stroke-opacity="0.7" stroke-width="1.5" stroke-linecap="round" stroke-linejoin="round"/>
<path d="M3.5 11.25C3.08579 11.25 2.75 11.5858 2.75 12C2.75 12.4142 3.08579 12.75 3.5 12.75V11.25ZM4.5 12.75C4.91421 12.75 5.25 12.4142 5.25 12C5.25 11.5858 4.91421 11.25 4.5 11.25V12.75ZM13.25 3C13.25 2.58579 12.9142 2.25 12.5 2.25C12.0858 2.25 11.75 2.58579 11.75 3H13.25ZM11.75 4C11.75 4.41421 12.0858 4.75 12.5 4.75C12.9142 4.75 13.25 4.41421 13.25 4H11.75ZM20.5 11.25C20.0858 11.25 19.75 11.5858 19.75 12C19.75 12.4142 20.0858 12.75 20.5 12.75V11.25ZM21.5 12.75C21.9142 12.75 22.25 12.4142 22.25 12C22.25 11.5858 21.9142 11.25 21.5 11.25V12.75ZM6.63028 5.06962C6.33739 4.77673 5.86251 4.77673 5.56962 5.06962C5.27673 5.36251 5.27673 5.83739 5.56962 6.13028L6.63028 5.06962ZM6.26962 6.83028C6.56251 7.12317 7.03739 7.12317 7.33028 6.83028C7.62317 6.53739 7.62317 6.06251 7.33028 5.76962L6.26962 6.83028ZM19.4304 6.13028C19.7233 5.83739 19.7233 5.36251 19.4304 5.06962C19.1375 4.77673 18.6626 4.77673 18.3697 5.06962L19.4304 6.13028ZM17.6697 5.76962C17.3768 6.06251 17.3768 6.53739 17.6697 6.83028C17.9626 7.12317 18.4375 7.12317 18.7304 6.83028L17.6697 5.76962ZM3.5 12.75H4.5V11.25H3.5V12.75ZM11.75 3V4H13.25V3H11.75ZM20.5 12.75H21.5V11.25H20.5V12.75ZM5.56962 6.13028L6.26962 6.83028L7.33028 5.76962L6.63028 5.06962L5.56962 6.13028ZM18.3697 5.06962L17.6697 5.76962L18.7304 6.83028L19.4304 6.13028L18.3697 5.06962Z" fill="#E1DEF5" fill-opacity="0.7"/>
<rect x="6.5" y="16" width="12" height="4" rx="1" stroke="#E1DEF5" stroke-opacity="0.7" stroke-width="1.5" stroke-linecap="round" stroke-linejoin="round"/>
</svg>
