<svg width="25" height="24" viewBox="0 0 25 24" fill="none" xmlns="http://www.w3.org/2000/svg">
<circle cx="9.5" cy="7" r="4" stroke="#6D6B77" stroke-width="1.5" stroke-linecap="round" stroke-linejoin="round"/>
<path d="M3.5 21V19C3.5 16.7909 5.29086 15 7.5 15H11.5C13.7091 15 15.5 16.7909 15.5 19V21" stroke="#6D6B77" stroke-width="1.5" stroke-linecap="round" stroke-linejoin="round"/>
<path d="M18.0303 8.46967C17.7374 8.17678 17.2626 8.17678 16.9697 8.46967C16.6768 8.76256 16.6768 9.23744 16.9697 9.53033L18.0303 8.46967ZM20.9697 13.5303C21.2626 13.8232 21.7374 13.8232 22.0303 13.5303C22.3232 13.2374 22.3232 12.7626 22.0303 12.4697L20.9697 13.5303ZM22.0303 9.53033C22.3232 9.23744 22.3232 8.76256 22.0303 8.46967C21.7374 8.17678 21.2626 8.17678 20.9697 8.46967L22.0303 9.53033ZM16.9697 12.4697C16.6768 12.7626 16.6768 13.2374 16.9697 13.5303C17.2626 13.8232 17.7374 13.8232 18.0303 13.5303L16.9697 12.4697ZM16.9697 9.53033L20.9697 13.5303L22.0303 12.4697L18.0303 8.46967L16.9697 9.53033ZM20.9697 8.46967L16.9697 12.4697L18.0303 13.5303L22.0303 9.53033L20.9697 8.46967Z" fill="#6D6B77"/>
</svg>
