<svg width="25" height="24" viewBox="0 0 25 24" fill="none" xmlns="http://www.w3.org/2000/svg">
<circle cx="9.5" cy="7" r="4" stroke="#E1DEF5" stroke-opacity="0.4" stroke-width="1.5" stroke-linecap="round" stroke-linejoin="round"/>
<path d="M3.5 21V19C3.5 16.7909 5.29086 15 7.5 15H11.5C13.7091 15 15.5 16.7909 15.5 19V21" stroke="#E1DEF5" stroke-opacity="0.4" stroke-width="1.5" stroke-linecap="round" stroke-linejoin="round"/>
<path d="M16.5 10.25C16.0858 10.25 15.75 10.5858 15.75 11C15.75 11.4142 16.0858 11.75 16.5 11.75V10.25ZM22.5 11.75C22.9142 11.75 23.25 11.4142 23.25 11C23.25 10.5858 22.9142 10.25 22.5 10.25V11.75ZM20.25 8C20.25 7.58579 19.9142 7.25 19.5 7.25C19.0858 7.25 18.75 7.58579 18.75 8H20.25ZM18.75 14C18.75 14.4142 19.0858 14.75 19.5 14.75C19.9142 14.75 20.25 14.4142 20.25 14H18.75ZM16.5 11.75H22.5V10.25H16.5V11.75ZM18.75 8V14H20.25V8H18.75Z" fill="#E1DEF5" fill-opacity="0.4"/>
</svg>
