<svg width="25" height="24" viewBox="0 0 25 24" fill="none" xmlns="http://www.w3.org/2000/svg">
<path d="M14.3476 9.67403C14.0069 9.90949 13.9215 10.3766 14.1569 10.7174C14.3924 11.0582 14.8595 11.1436 15.2003 10.9081L14.3476 9.67403ZM8.60492 4.28187C8.36788 4.62156 8.45108 5.08908 8.79077 5.32613C9.13045 5.56317 9.59797 5.47997 9.83502 5.14028L8.60492 4.28187ZM9.38928 7.94496C9.26827 7.54881 8.84904 7.32577 8.45289 7.44678C8.05675 7.56779 7.83371 7.98702 7.95472 8.38317L9.38928 7.94496ZM11.0647 11.5288C11.4595 11.6543 11.8812 11.4361 12.0067 11.0413C12.1322 10.6466 11.914 10.2248 11.5193 10.0993L11.0647 11.5288ZM15.2003 10.9081C16.764 9.82776 17.5331 7.91931 17.1556 6.05659L15.6855 6.35457C15.9438 7.62906 15.4175 8.93484 14.3476 9.67403L15.2003 10.9081ZM17.1556 6.05659C16.778 4.19388 15.3265 2.73554 13.4655 2.34929L13.1607 3.81799C14.434 4.08226 15.4271 5.08008 15.6855 6.35457L17.1556 6.05659ZM13.4655 2.34929C11.6046 1.96305 9.69258 2.72327 8.60492 4.28187L9.83502 5.14028C10.5792 4.07387 11.8874 3.55372 13.1607 3.81799L13.4655 2.34929ZM7.95472 8.38317C8.41163 9.87898 9.57423 11.0549 11.0647 11.5288L11.5193 10.0993C10.4984 9.77475 9.70221 8.9694 9.38928 7.94496L7.95472 8.38317Z" fill="#2F2B3D" fill-opacity="0.9"/>
<path d="M5.75 21C5.75 21.4142 6.08579 21.75 6.5 21.75C6.91421 21.75 7.25 21.4142 7.25 21H5.75ZM14.5 15V15.75L14.5006 15.75L14.5 15ZM15.4326 15.8857C15.8295 16.0041 16.2473 15.7784 16.3657 15.3815C16.4841 14.9845 16.2584 14.5668 15.8615 14.4483L15.4326 15.8857ZM19.0505 17.6328C18.9317 17.236 18.5138 17.0106 18.1169 17.1294C17.7201 17.2482 17.4947 17.6662 17.6135 18.063L19.0505 17.6328ZM18.5 18.9999L17.75 18.999V18.9999H18.5ZM17.75 20.9999C17.75 21.4141 18.0858 21.7499 18.5 21.7499C18.9142 21.7499 19.25 21.4141 19.25 20.9999H17.75ZM7.25 21V19H5.75V21H7.25ZM7.25 19C7.25 17.2051 8.70507 15.75 10.5 15.75V14.25C7.87665 14.25 5.75 16.3766 5.75 19H7.25ZM10.5 15.75H14.5V14.25H10.5V15.75ZM14.5006 15.75C14.8162 15.7497 15.1301 15.7955 15.4326 15.8857L15.8615 14.4483C15.4195 14.3164 14.9606 14.2496 14.4994 14.25L14.5006 15.75ZM17.6135 18.063C17.7044 18.3667 17.7504 18.682 17.75 18.999L19.25 19.0008C19.2506 18.5375 19.1834 18.0767 19.0505 17.6328L17.6135 18.063ZM17.75 18.9999V20.9999H19.25V18.9999H17.75Z" fill="#2F2B3D" fill-opacity="0.9"/>
<path d="M3.5 3L21.5 21" stroke="#2F2B3D" stroke-opacity="0.9" stroke-width="1.5" stroke-linecap="round" stroke-linejoin="round"/>
</svg>
