<svg width="26" height="26" viewBox="0 0 26 26" fill="none" xmlns="http://www.w3.org/2000/svg">
<g id="icon">
<path id="Vector" d="M13.0003 11.9167C14.4369 11.9167 15.8147 12.4874 16.8305 13.5032C17.8463 14.519 18.417 15.8968 18.417 17.3334V23.8334H16.2503V17.3334C16.2504 16.5044 15.9336 15.7067 15.3649 15.1036C14.7962 14.5004 14.0185 14.1374 13.191 14.0888L13.0003 14.0834C12.1713 14.0833 11.3737 14.4 10.7705 14.9687C10.1674 15.5374 9.80438 16.3151 9.75574 17.1427L9.75033 17.3334V23.8334H7.58366V17.3334C7.58366 15.8968 8.15434 14.519 9.17016 13.5032C10.186 12.4874 11.5637 11.9167 13.0003 11.9167ZM5.95866 15.1667C6.26091 15.1667 6.55449 15.2024 6.83616 15.2685C6.65093 15.8199 6.54124 16.3939 6.51008 16.9748L6.50033 17.3334V17.4265C6.3758 17.382 6.24628 17.3529 6.11466 17.3399L5.95866 17.3334C5.5547 17.3334 5.16524 17.4838 4.8662 17.7554C4.56717 18.027 4.38002 18.4003 4.34124 18.8024L4.33366 18.9584V23.8334H2.16699V18.9584C2.16699 17.9527 2.56647 16.9883 3.27755 16.2772C3.98862 15.5662 4.95305 15.1667 5.95866 15.1667ZM20.042 15.1667C21.0476 15.1667 22.012 15.5662 22.7231 16.2772C23.4342 16.9883 23.8337 17.9527 23.8337 18.9584V23.8334H21.667V18.9584C21.667 18.5544 21.5165 18.1649 21.2449 17.8659C20.9733 17.5669 20.6001 17.3797 20.198 17.3409L20.042 17.3334C19.8524 17.3334 19.6704 17.3659 19.5003 17.4254V17.3334C19.5003 16.6119 19.3833 15.9185 19.1656 15.2707C19.4462 15.2024 19.7397 15.1667 20.042 15.1667ZM5.95866 8.66669C6.67695 8.66669 7.36583 8.95203 7.87374 9.45994C8.38165 9.96785 8.66699 10.6567 8.66699 11.375C8.66699 12.0933 8.38165 12.7822 7.87374 13.2901C7.36583 13.798 6.67695 14.0834 5.95866 14.0834C5.24036 14.0834 4.55149 13.798 4.04358 13.2901C3.53567 12.7822 3.25033 12.0933 3.25033 11.375C3.25033 10.6567 3.53567 9.96785 4.04358 9.45994C4.55149 8.95203 5.24036 8.66669 5.95866 8.66669ZM20.042 8.66669C20.7603 8.66669 21.4492 8.95203 21.9571 9.45994C22.465 9.96785 22.7503 10.6567 22.7503 11.375C22.7503 12.0933 22.465 12.7822 21.9571 13.2901C21.4492 13.798 20.7603 14.0834 20.042 14.0834C19.3237 14.0834 18.6348 13.798 18.1269 13.2901C17.619 12.7822 17.3337 12.0933 17.3337 11.375C17.3337 10.6567 17.619 9.96785 18.1269 9.45994C18.6348 8.95203 19.3237 8.66669 20.042 8.66669ZM5.95866 10.8334C5.815 10.8334 5.67723 10.8904 5.57564 10.992C5.47406 11.0936 5.41699 11.2314 5.41699 11.375C5.41699 11.5187 5.47406 11.6565 5.57564 11.758C5.67723 11.8596 5.815 11.9167 5.95866 11.9167C6.10232 11.9167 6.24009 11.8596 6.34168 11.758C6.44326 11.6565 6.50033 11.5187 6.50033 11.375C6.50033 11.2314 6.44326 11.0936 6.34168 10.992C6.24009 10.8904 6.10232 10.8334 5.95866 10.8334ZM20.042 10.8334C19.8983 10.8334 19.7606 10.8904 19.659 10.992C19.5574 11.0936 19.5003 11.2314 19.5003 11.375C19.5003 11.5187 19.5574 11.6565 19.659 11.758C19.7606 11.8596 19.8983 11.9167 20.042 11.9167C20.1857 11.9167 20.3234 11.8596 20.425 11.758C20.5266 11.6565 20.5837 11.5187 20.5837 11.375C20.5837 11.2314 20.5266 11.0936 20.425 10.992C20.3234 10.8904 20.1857 10.8334 20.042 10.8334ZM13.0003 2.16669C14.1496 2.16669 15.2518 2.62323 16.0645 3.43589C16.8771 4.24855 17.3337 5.35075 17.3337 6.50002C17.3337 7.64929 16.8771 8.75149 16.0645 9.56415C15.2518 10.3768 14.1496 10.8334 13.0003 10.8334C11.8511 10.8334 10.7489 10.3768 9.9362 9.56415C9.12354 8.75149 8.66699 7.64929 8.66699 6.50002C8.66699 5.35075 9.12354 4.24855 9.9362 3.43589C10.7489 2.62323 11.8511 2.16669 13.0003 2.16669ZM13.0003 4.33335C12.4257 4.33335 11.8746 4.56163 11.4683 4.96796C11.0619 5.37428 10.8337 5.92538 10.8337 6.50002C10.8337 7.07466 11.0619 7.62576 11.4683 8.03209C11.8746 8.43841 12.4257 8.66669 13.0003 8.66669C13.575 8.66669 14.1261 8.43841 14.5324 8.03209C14.9387 7.62576 15.167 7.07466 15.167 6.50002C15.167 5.92538 14.9387 5.37428 14.5324 4.96796C14.1261 4.56163 13.575 4.33335 13.0003 4.33335Z" fill="#E1DEF5" fill-opacity="0.9"/>
</g>
</svg>
