<svg width="25" height="24" viewBox="0 0 25 24" fill="none" xmlns="http://www.w3.org/2000/svg">
<path d="M6.17082 4.33541C6.35606 3.96493 6.20589 3.51442 5.83541 3.32918C5.46493 3.14394 5.01442 3.29411 4.82918 3.66459L6.17082 4.33541ZM4.80769 20.2885C4.96701 20.6708 5.40611 20.8516 5.78846 20.6923C6.17081 20.533 6.35162 20.0939 6.19231 19.7115L4.80769 20.2885ZM20.1708 3.66459C19.9856 3.29411 19.5351 3.14394 19.1646 3.32918C18.7941 3.51442 18.6439 3.96493 18.8292 4.33541L20.1708 3.66459ZM18.8077 19.7115C18.6484 20.0939 18.8292 20.533 19.2115 20.6923C19.5939 20.8516 20.033 20.6708 20.1923 20.2885L18.8077 19.7115ZM9.5 8.25C9.08579 8.25 8.75 8.58579 8.75 9C8.75 9.41421 9.08579 9.75 9.5 9.75V8.25ZM12.516 12.527L13.2129 12.2497L13.2119 12.2472L12.516 12.527ZM15.5 16.75C15.9142 16.75 16.25 16.4142 16.25 16C16.25 15.5858 15.9142 15.25 15.5 15.25V16.75ZM4.82918 3.66459C2.21541 8.89213 2.23897 14.1235 4.80769 20.2885L6.19231 19.7115C3.76103 13.8765 3.78459 9.10787 6.17082 4.33541L4.82918 3.66459ZM18.8292 4.33541C21.2154 9.10787 21.239 13.8765 18.8077 19.7115L20.1923 20.2885C22.761 14.1235 22.7846 8.89213 20.1708 3.66459L18.8292 4.33541ZM9.5 9.75H10.5V8.25H9.5V9.75ZM10.5 9.75C10.5628 9.75 10.5902 9.75785 10.5968 9.76003C10.6001 9.76115 10.6014 9.76132 10.6078 9.76681C10.634 9.7891 10.704 9.86761 10.8169 10.121C10.9277 10.3699 11.0427 10.6974 11.2058 11.1594C11.3648 11.6101 11.5598 12.1592 11.8201 12.8068L13.2119 12.2472C12.9642 11.6313 12.7782 11.1078 12.6202 10.6602C12.4663 10.224 12.3283 9.82774 12.1871 9.51077C12.048 9.19827 11.867 8.86884 11.5802 8.62466C11.2621 8.35385 10.8909 8.25 10.5 8.25V9.75ZM11.8191 12.8043C12.0588 13.4065 12.2388 13.9197 12.3923 14.36C12.5419 14.7888 12.6769 15.1805 12.8164 15.495C12.954 15.8052 13.1342 16.1334 13.4212 16.3769C13.7387 16.6464 14.1095 16.75 14.5 16.75V15.25C14.4372 15.25 14.4096 15.2421 14.4028 15.2399C14.3991 15.2387 14.3979 15.2384 14.3918 15.2333C14.3668 15.212 14.298 15.1356 14.1876 14.8868C14.0791 14.6421 13.9671 14.3201 13.8087 13.8659C13.6542 13.4232 13.4652 12.884 13.2129 12.2497L11.8191 12.8043ZM14.5 16.75H15.5V15.25H14.5V16.75Z" fill="#6D6B77"/>
<path d="M8.5 16C10 16 11.5 14 12.5 12.5C13.5 11 15 9 16.5 9" stroke="#6D6B77" stroke-width="1.5" stroke-linecap="round" stroke-linejoin="round"/>
</svg>
