<svg width="25" height="24" viewBox="0 0 25 24" fill="none" xmlns="http://www.w3.org/2000/svg">
<path d="M3.5 3L21.5 21" stroke="#2F2B3D" stroke-opacity="0.9" stroke-width="1.5" stroke-linecap="round" stroke-linejoin="round"/>
<path d="M15.5 11.0001V10.0001L20.053 7.72412C20.3629 7.56926 20.7309 7.58583 21.0256 7.76792C21.3203 7.95002 21.4998 8.27168 21.5 8.61812V15.3821C21.5001 15.8092 21.2289 16.1893 20.825 16.3281" stroke="#2F2B3D" stroke-opacity="0.9" stroke-width="1.5" stroke-linecap="round" stroke-linejoin="round"/>
<path d="M10.5 5.25C10.0858 5.25 9.75 5.58579 9.75 6C9.75 6.41421 10.0858 6.75 10.5 6.75V5.25ZM14.75 11C14.75 11.4142 15.0858 11.75 15.5 11.75C15.9142 11.75 16.25 11.4142 16.25 11H14.75ZM16.25 15C16.25 14.5858 15.9142 14.25 15.5 14.25C15.0858 14.25 14.75 14.5858 14.75 15H16.25ZM6.5 6.75C6.91421 6.75 7.25 6.41421 7.25 6C7.25 5.58579 6.91421 5.25 6.5 5.25V6.75ZM10.5 6.75H13.5V5.25H10.5V6.75ZM13.5 6.75C14.1904 6.75 14.75 7.30964 14.75 8H16.25C16.25 6.48122 15.0188 5.25 13.5 5.25V6.75ZM14.75 8V11H16.25V8H14.75ZM14.75 15V16H16.25V15H14.75ZM14.75 16C14.75 16.6904 14.1904 17.25 13.5 17.25V18.75C15.0188 18.75 16.25 17.5188 16.25 16H14.75ZM13.5 17.25H5.5V18.75H13.5V17.25ZM5.5 17.25C4.80964 17.25 4.25 16.6904 4.25 16H2.75C2.75 17.5188 3.98122 18.75 5.5 18.75V17.25ZM4.25 16V8H2.75V16H4.25ZM4.25 8C4.25 7.30964 4.80964 6.75 5.5 6.75V5.25C3.98122 5.25 2.75 6.48122 2.75 8H4.25ZM5.5 6.75H6.5V5.25H5.5V6.75Z" fill="#2F2B3D" fill-opacity="0.9"/>
</svg>
