<svg width="25" height="24" viewBox="0 0 25 24" fill="none" xmlns="http://www.w3.org/2000/svg">
<path d="M3.5 11.25C3.08579 11.25 2.75 11.5858 2.75 12C2.75 12.4142 3.08579 12.75 3.5 12.75V11.25ZM10.5 12V12.75C10.8033 12.75 11.0768 12.5673 11.1929 12.287C11.309 12.0068 11.2448 11.6842 11.0303 11.4697L10.5 12ZM8.03033 8.46967C7.73744 8.17678 7.26256 8.17678 6.96967 8.46967C6.67678 8.76256 6.67678 9.23744 6.96967 9.53033L8.03033 8.46967ZM6.96967 14.4697C6.67678 14.7626 6.67678 15.2374 6.96967 15.5303C7.26256 15.8232 7.73744 15.8232 8.03033 15.5303L6.96967 14.4697ZM11.0303 12.5303C11.3232 12.2374 11.3232 11.7626 11.0303 11.4697C10.7374 11.1768 10.2626 11.1768 9.96967 11.4697L11.0303 12.5303ZM3.5 12.75H10.5V11.25H3.5V12.75ZM11.0303 11.4697L8.03033 8.46967L6.96967 9.53033L9.96967 12.5303L11.0303 11.4697ZM8.03033 15.5303L11.0303 12.5303L9.96967 11.4697L6.96967 14.4697L8.03033 15.5303Z" fill="#E1DEF5" fill-opacity="0.4"/>
<path d="M21.5 12.75C21.9142 12.75 22.25 12.4142 22.25 12C22.25 11.5858 21.9142 11.25 21.5 11.25V12.75ZM14.5 12L13.9697 11.4697C13.7552 11.6842 13.691 12.0068 13.8071 12.287C13.9232 12.5673 14.1967 12.75 14.5 12.75V12ZM18.0303 9.53033C18.3232 9.23744 18.3232 8.76256 18.0303 8.46967C17.7374 8.17678 17.2626 8.17678 16.9697 8.46967L18.0303 9.53033ZM16.9697 15.5303C17.2626 15.8232 17.7374 15.8232 18.0303 15.5303C18.3232 15.2374 18.3232 14.7626 18.0303 14.4697L16.9697 15.5303ZM15.0303 11.4697C14.7374 11.1768 14.2626 11.1768 13.9697 11.4697C13.6768 11.7626 13.6768 12.2374 13.9697 12.5303L15.0303 11.4697ZM21.5 11.25H14.5V12.75H21.5V11.25ZM15.0303 12.5303L18.0303 9.53033L16.9697 8.46967L13.9697 11.4697L15.0303 12.5303ZM18.0303 14.4697L15.0303 11.4697L13.9697 12.5303L16.9697 15.5303L18.0303 14.4697Z" fill="#E1DEF5" fill-opacity="0.4"/>
<path d="M9.5 6V3H15.5V6" stroke="#E1DEF5" stroke-opacity="0.4" stroke-width="1.5" stroke-linecap="round" stroke-linejoin="round"/>
<path d="M9.5 18V21H15.5V18" stroke="#E1DEF5" stroke-opacity="0.4" stroke-width="1.5" stroke-linecap="round" stroke-linejoin="round"/>
</svg>
