<svg width="25" height="24" viewBox="0 0 25 24" fill="none" xmlns="http://www.w3.org/2000/svg">
<path d="M10.5 12.75C10.9142 12.75 11.25 12.4142 11.25 12C11.25 11.5858 10.9142 11.25 10.5 11.25V12.75ZM3.5 12L2.96967 11.4697C2.75517 11.6842 2.691 12.0068 2.80709 12.287C2.92318 12.5673 3.19665 12.75 3.5 12.75V12ZM7.03033 9.53033C7.32322 9.23744 7.32322 8.76256 7.03033 8.46967C6.73744 8.17678 6.26256 8.17678 5.96967 8.46967L7.03033 9.53033ZM5.96967 15.5303C6.26256 15.8232 6.73744 15.8232 7.03033 15.5303C7.32322 15.2374 7.32322 14.7626 7.03033 14.4697L5.96967 15.5303ZM4.03033 11.4697C3.73744 11.1768 3.26256 11.1768 2.96967 11.4697C2.67678 11.7626 2.67678 12.2374 2.96967 12.5303L4.03033 11.4697ZM10.5 11.25H3.5V12.75H10.5V11.25ZM4.03033 12.5303L7.03033 9.53033L5.96967 8.46967L2.96967 11.4697L4.03033 12.5303ZM7.03033 14.4697L4.03033 11.4697L2.96967 12.5303L5.96967 15.5303L7.03033 14.4697Z" fill="#E1DEF5" fill-opacity="0.7"/>
<path d="M14.5 11.25C14.0858 11.25 13.75 11.5858 13.75 12C13.75 12.4142 14.0858 12.75 14.5 12.75V11.25ZM21.5 12V12.75C21.8033 12.75 22.0768 12.5673 22.1929 12.287C22.309 12.0068 22.2448 11.6842 22.0303 11.4697L21.5 12ZM19.0303 8.46967C18.7374 8.17678 18.2626 8.17678 17.9697 8.46967C17.6768 8.76256 17.6768 9.23744 17.9697 9.53033L19.0303 8.46967ZM17.9697 14.4697C17.6768 14.7626 17.6768 15.2374 17.9697 15.5303C18.2626 15.8232 18.7374 15.8232 19.0303 15.5303L17.9697 14.4697ZM22.0303 12.5303C22.3232 12.2374 22.3232 11.7626 22.0303 11.4697C21.7374 11.1768 21.2626 11.1768 20.9697 11.4697L22.0303 12.5303ZM14.5 12.75H21.5V11.25H14.5V12.75ZM22.0303 11.4697L19.0303 8.46967L17.9697 9.53033L20.9697 12.5303L22.0303 11.4697ZM19.0303 15.5303L22.0303 12.5303L20.9697 11.4697L17.9697 14.4697L19.0303 15.5303Z" fill="#E1DEF5" fill-opacity="0.7"/>
<path d="M3.5 6V3H21.5V6" stroke="#E1DEF5" stroke-opacity="0.7" stroke-width="1.5" stroke-linecap="round" stroke-linejoin="round"/>
<path d="M3.5 18V21H21.5V18" stroke="#E1DEF5" stroke-opacity="0.7" stroke-width="1.5" stroke-linecap="round" stroke-linejoin="round"/>
</svg>
