<svg width="25" height="24" viewBox="0 0 25 24" fill="none" xmlns="http://www.w3.org/2000/svg">
<path d="M3.5 3L21.5 21" stroke="#E1DEF5" stroke-opacity="0.7" stroke-width="1.5" stroke-linecap="round" stroke-linejoin="round"/>
<path d="M9.50047 8.98916C9.79273 8.69564 9.79172 8.22077 9.4982 7.9285C9.20468 7.63623 8.72981 7.63725 8.43754 7.93077L9.50047 8.98916ZM16.5542 16.0774C16.8488 15.7862 16.8516 15.3113 16.5604 15.0167C16.2692 14.7221 15.7944 14.7194 15.4998 15.0106L16.5542 16.0774ZM16.6763 12.7954C16.5987 13.2022 16.8656 13.595 17.2724 13.6727C17.6793 13.7503 18.0721 13.4835 18.1497 13.0766L16.6763 12.7954ZM11.4498 6.34564C11.0426 6.42141 10.7739 6.81295 10.8497 7.22018C10.9255 7.6274 11.317 7.8961 11.7242 7.82032L11.4498 6.34564ZM8.43754 7.93077C6.20313 10.1747 6.20367 13.803 8.43875 16.0463L9.50136 14.9876C7.84934 13.3295 7.84894 10.6478 9.50047 8.98916L8.43754 7.93077ZM8.43875 16.0463C10.6738 18.2896 14.3021 18.3035 16.5542 16.0774L15.4998 15.0106C13.8351 16.656 11.1534 16.6457 9.50136 14.9876L8.43875 16.0463ZM18.1497 13.0766C18.5059 11.2104 17.9173 9.28869 16.5769 7.94216L15.5138 9.00036C16.5045 9.99563 16.9396 11.416 16.6763 12.7954L18.1497 13.0766ZM16.5769 7.94216C15.2366 6.59562 13.3177 5.99809 11.4498 6.34564L11.7242 7.82032C13.1048 7.56344 14.5232 8.0051 15.5138 9.00036L16.5769 7.94216Z" fill="#E1DEF5" fill-opacity="0.7"/>
<path d="M11.75 7C11.75 7.41421 12.0858 7.75 12.5 7.75C12.9142 7.75 13.25 7.41421 13.25 7H11.75ZM13.25 3C13.25 2.58579 12.9142 2.25 12.5 2.25C12.0858 2.25 11.75 2.58579 11.75 3H13.25ZM11.5 2.25C11.0858 2.25 10.75 2.58579 10.75 3C10.75 3.41421 11.0858 3.75 11.5 3.75V2.25ZM13.5 3.75C13.9142 3.75 14.25 3.41421 14.25 3C14.25 2.58579 13.9142 2.25 13.5 2.25V3.75ZM13.25 7V3H11.75V7H13.25ZM11.5 3.75H13.5V2.25H11.5V3.75Z" fill="#E1DEF5" fill-opacity="0.7"/>
<path d="M15.5052 7.93412C15.2123 8.22701 15.2123 8.70189 15.5052 8.99478C15.7981 9.28767 16.2729 9.28767 16.5658 8.99478L15.5052 7.93412ZM19.3943 6.16635C19.6872 5.87346 19.6872 5.39859 19.3943 5.10569C19.1014 4.8128 18.6265 4.8128 18.3336 5.10569L19.3943 6.16635ZM18.6872 4.39866C18.3943 4.10577 17.9194 4.10577 17.6265 4.39866C17.3336 4.69156 17.3336 5.16643 17.6265 5.45932L18.6872 4.39866ZM19.0407 6.87354C19.3336 7.16643 19.8085 7.16643 20.1014 6.87354C20.3943 6.58064 20.3943 6.10577 20.1014 5.81288L19.0407 6.87354ZM16.5658 8.99478L19.3943 6.16635L18.3336 5.10569L15.5052 7.93412L16.5658 8.99478ZM17.6265 5.45932L19.0407 6.87354L20.1014 5.81288L18.6872 4.39866L17.6265 5.45932Z" fill="#E1DEF5" fill-opacity="0.7"/>
<path d="M17.5 11.25C17.0858 11.25 16.75 11.5858 16.75 12C16.75 12.4142 17.0858 12.75 17.5 12.75V11.25ZM21.5 12.75C21.9142 12.75 22.25 12.4142 22.25 12C22.25 11.5858 21.9142 11.25 21.5 11.25V12.75ZM22.25 11C22.25 10.5858 21.9142 10.25 21.5 10.25C21.0858 10.25 20.75 10.5858 20.75 11H22.25ZM20.75 13C20.75 13.4142 21.0858 13.75 21.5 13.75C21.9142 13.75 22.25 13.4142 22.25 13H20.75ZM17.5 12.75H21.5V11.25H17.5V12.75ZM20.75 11V13H22.25V11H20.75Z" fill="#E1DEF5" fill-opacity="0.7"/>
<path d="M18.864 18.364L18.1569 19.0711" stroke="#E1DEF5" stroke-opacity="0.7" stroke-width="1.5" stroke-linecap="round" stroke-linejoin="round"/>
<path d="M13.25 17C13.25 16.5858 12.9142 16.25 12.5 16.25C12.0858 16.25 11.75 16.5858 11.75 17H13.25ZM11.75 21C11.75 21.4142 12.0858 21.75 12.5 21.75C12.9142 21.75 13.25 21.4142 13.25 21H11.75ZM13.5 21.75C13.9142 21.75 14.25 21.4142 14.25 21C14.25 20.5858 13.9142 20.25 13.5 20.25V21.75ZM11.5 20.25C11.0858 20.25 10.75 20.5858 10.75 21C10.75 21.4142 11.0858 21.75 11.5 21.75V20.25ZM11.75 17V21H13.25V17H11.75ZM13.5 20.25H11.5V21.75H13.5V20.25Z" fill="#E1DEF5" fill-opacity="0.7"/>
<path d="M9.49483 16.0659C9.78772 15.773 9.78772 15.2981 9.49483 15.0052C9.20193 14.7123 8.72706 14.7123 8.43417 15.0052L9.49483 16.0659ZM5.60574 17.8336C5.31285 18.1265 5.31285 18.6014 5.60574 18.8943C5.89863 19.1872 6.37351 19.1872 6.6664 18.8943L5.60574 17.8336ZM6.31285 19.6013C6.60574 19.8942 7.08061 19.8942 7.37351 19.6013C7.6664 19.3084 7.6664 18.8336 7.37351 18.5407L6.31285 19.6013ZM5.95929 17.1265C5.6664 16.8336 5.19153 16.8336 4.89863 17.1265C4.60574 17.4194 4.60574 17.8942 4.89863 18.1871L5.95929 17.1265ZM8.43417 15.0052L5.60574 17.8336L6.6664 18.8943L9.49483 16.0659L8.43417 15.0052ZM7.37351 18.5407L5.95929 17.1265L4.89863 18.1871L6.31285 19.6013L7.37351 18.5407Z" fill="#E1DEF5" fill-opacity="0.7"/>
<path d="M7.5 12.75C7.91421 12.75 8.25 12.4142 8.25 12C8.25 11.5858 7.91421 11.25 7.5 11.25L7.5 12.75ZM3.5 11.25C3.08579 11.25 2.75 11.5858 2.75 12C2.75 12.4142 3.08579 12.75 3.5 12.75L3.5 11.25ZM2.75 13C2.75 13.4142 3.08579 13.75 3.5 13.75C3.91421 13.75 4.25 13.4142 4.25 13H2.75ZM4.25 11C4.25 10.5858 3.91421 10.25 3.5 10.25C3.08579 10.25 2.75 10.5858 2.75 11H4.25ZM7.5 11.25L3.5 11.25L3.5 12.75L7.5 12.75L7.5 11.25ZM4.25 13L4.25 11H2.75L2.75 13H4.25Z" fill="#E1DEF5" fill-opacity="0.7"/>
<path d="M6.1361 5.63595L5.42899 6.34306" stroke="#E1DEF5" stroke-opacity="0.7" stroke-width="1.5" stroke-linecap="round" stroke-linejoin="round"/>
</svg>
