<svg width="25" height="24" viewBox="0 0 25 24" fill="none" xmlns="http://www.w3.org/2000/svg">
<path d="M17.5 12C17.5 9.23858 15.2614 7 12.5 7C9.73858 7 7.5 9.23858 7.5 12C7.5 14.7614 9.73858 17 12.5 17" stroke="#E1DEF5" stroke-opacity="0.9" stroke-width="1.5" stroke-linecap="round" stroke-linejoin="round"/>
<path d="M11.75 7C11.75 7.41421 12.0858 7.75 12.5 7.75C12.9142 7.75 13.25 7.41421 13.25 7H11.75ZM13.25 3C13.25 2.58579 12.9142 2.25 12.5 2.25C12.0858 2.25 11.75 2.58579 11.75 3H13.25ZM11.5 2.25C11.0858 2.25 10.75 2.58579 10.75 3C10.75 3.41421 11.0858 3.75 11.5 3.75V2.25ZM13.5 3.75C13.9142 3.75 14.25 3.41421 14.25 3C14.25 2.58579 13.9142 2.25 13.5 2.25V3.75ZM13.25 7V3H11.75V7H13.25ZM11.5 3.75H13.5V2.25H11.5V3.75Z" fill="#E1DEF5" fill-opacity="0.9"/>
<path d="M15.5052 7.93412C15.2123 8.22701 15.2123 8.70189 15.5052 8.99478C15.7981 9.28767 16.2729 9.28767 16.5658 8.99478L15.5052 7.93412ZM19.3943 6.16635C19.6872 5.87346 19.6872 5.39859 19.3943 5.10569C19.1014 4.8128 18.6265 4.8128 18.3336 5.10569L19.3943 6.16635ZM18.6872 4.39866C18.3943 4.10577 17.9194 4.10577 17.6265 4.39866C17.3336 4.69156 17.3336 5.16643 17.6265 5.45932L18.6872 4.39866ZM19.0407 6.87354C19.3336 7.16643 19.8085 7.16643 20.1014 6.87354C20.3943 6.58064 20.3943 6.10577 20.1014 5.81288L19.0407 6.87354ZM16.5658 8.99478L19.3943 6.16635L18.3336 5.10569L15.5052 7.93412L16.5658 8.99478ZM17.6265 5.45932L19.0407 6.87354L20.1014 5.81288L18.6872 4.39866L17.6265 5.45932Z" fill="#E1DEF5" fill-opacity="0.9"/>
<path d="M17.5 11.25C17.0858 11.25 16.75 11.5858 16.75 12C16.75 12.4142 17.0858 12.75 17.5 12.75V11.25ZM21.5 12.75C21.9142 12.75 22.25 12.4142 22.25 12C22.25 11.5858 21.9142 11.25 21.5 11.25V12.75ZM22.25 11C22.25 10.5858 21.9142 10.25 21.5 10.25C21.0858 10.25 20.75 10.5858 20.75 11H22.25ZM20.75 13C20.75 13.4142 21.0858 13.75 21.5 13.75C21.9142 13.75 22.25 13.4142 22.25 13H20.75ZM17.5 12.75H21.5V11.25H17.5V12.75ZM20.75 11V13H22.25V11H20.75Z" fill="#E1DEF5" fill-opacity="0.9"/>
<path d="M13.25 17C13.25 16.5858 12.9142 16.25 12.5 16.25C12.0858 16.25 11.75 16.5858 11.75 17H13.25ZM11.75 21C11.75 21.4142 12.0858 21.75 12.5 21.75C12.9142 21.75 13.25 21.4142 13.25 21H11.75ZM13.5 21.75C13.9142 21.75 14.25 21.4142 14.25 21C14.25 20.5858 13.9142 20.25 13.5 20.25V21.75ZM11.5 20.25C11.0858 20.25 10.75 20.5858 10.75 21C10.75 21.4142 11.0858 21.75 11.5 21.75V20.25ZM11.75 17V21H13.25V17H11.75ZM13.5 20.25H11.5V21.75H13.5V20.25Z" fill="#E1DEF5" fill-opacity="0.9"/>
<path d="M9.49483 16.0659C9.78772 15.773 9.78772 15.2981 9.49483 15.0052C9.20193 14.7123 8.72706 14.7123 8.43417 15.0052L9.49483 16.0659ZM5.60574 17.8336C5.31285 18.1265 5.31285 18.6014 5.60574 18.8943C5.89863 19.1872 6.37351 19.1872 6.6664 18.8943L5.60574 17.8336ZM6.31285 19.6013C6.60574 19.8942 7.08061 19.8942 7.37351 19.6013C7.6664 19.3084 7.6664 18.8336 7.37351 18.5407L6.31285 19.6013ZM5.95929 17.1265C5.6664 16.8336 5.19153 16.8336 4.89863 17.1265C4.60574 17.4194 4.60574 17.8942 4.89863 18.1871L5.95929 17.1265ZM8.43417 15.0052L5.60574 17.8336L6.6664 18.8943L9.49483 16.0659L8.43417 15.0052ZM7.37351 18.5407L5.95929 17.1265L4.89863 18.1871L6.31285 19.6013L7.37351 18.5407Z" fill="#E1DEF5" fill-opacity="0.9"/>
<path d="M7.5 12.75C7.91421 12.75 8.25 12.4142 8.25 12C8.25 11.5858 7.91421 11.25 7.5 11.25L7.5 12.75ZM3.5 11.25C3.08579 11.25 2.75 11.5858 2.75 12C2.75 12.4142 3.08579 12.75 3.5 12.75L3.5 11.25ZM2.75 13C2.75 13.4142 3.08579 13.75 3.5 13.75C3.91421 13.75 4.25 13.4142 4.25 13H2.75ZM4.25 11C4.25 10.5858 3.91421 10.25 3.5 10.25C3.08579 10.25 2.75 10.5858 2.75 11H4.25ZM7.5 11.25L3.5 11.25L3.5 12.75L7.5 12.75L7.5 11.25ZM4.25 13L4.25 11H2.75L2.75 13H4.25Z" fill="#E1DEF5" fill-opacity="0.9"/>
<path d="M8.43412 8.99495C8.72701 9.28784 9.20189 9.28784 9.49478 8.99495C9.78767 8.70206 9.78767 8.22718 9.49478 7.93429L8.43412 8.99495ZM6.66635 5.10586C6.37346 4.81297 5.89859 4.81297 5.60569 5.10586C5.3128 5.39876 5.3128 5.87363 5.60569 6.16652L6.66635 5.10586ZM4.89866 5.81297C4.60577 6.10586 4.60577 6.58074 4.89866 6.87363C5.19156 7.16652 5.66643 7.16652 5.95932 6.87363L4.89866 5.81297ZM7.37354 5.45942C7.66643 5.16652 7.66643 4.69165 7.37354 4.39876C7.08064 4.10586 6.60577 4.10586 6.31288 4.39876L7.37354 5.45942ZM9.49478 7.93429L6.66635 5.10586L5.60569 6.16652L8.43412 8.99495L9.49478 7.93429ZM5.95932 6.87363L7.37354 5.45942L6.31288 4.39876L4.89866 5.81297L5.95932 6.87363Z" fill="#E1DEF5" fill-opacity="0.9"/>
<circle cx="18" cy="17.5" r="2.5" stroke="#E1DEF5" stroke-opacity="0.9" stroke-width="1.5" stroke-linecap="round" stroke-linejoin="round"/>
<path d="M20 19.5L22.5 22" stroke="#E1DEF5" stroke-opacity="0.9" stroke-width="1.5" stroke-linecap="round" stroke-linejoin="round"/>
</svg>
