<svg width="25" height="24" viewBox="0 0 25 24" fill="none" xmlns="http://www.w3.org/2000/svg">
<path d="M15.5 8C16.759 8.94427 17.5 10.4262 17.5 12C17.5 13.5738 16.759 15.0557 15.5 16" stroke="#6D6B77" stroke-width="1.5" stroke-linecap="round" stroke-linejoin="round"/>
<path d="M6.5 15.0001H4.5C3.94772 15.0001 3.5 14.5524 3.5 14.0001V10.0001C3.5 9.4478 3.94772 9.00009 4.5 9.00009H6.5L10 4.50009C10.1806 4.14931 10.59 3.98257 10.9643 4.10733C11.3385 4.2321 11.566 4.61111 11.5 5.00009V19.0001C11.566 19.3891 11.3385 19.7681 10.9643 19.8928C10.59 20.0176 10.1806 19.8509 10 19.5001L6.5 15.0001" stroke="#6D6B77" stroke-width="1.5" stroke-linecap="round" stroke-linejoin="round"/>
</svg>
