<svg width="25" height="24" viewBox="0 0 25 24" fill="none" xmlns="http://www.w3.org/2000/svg">
<path d="M6.5 15.0001H4.5C3.94772 15.0001 3.5 14.5524 3.5 14.0001V10.0001C3.5 9.4478 3.94772 9.00009 4.5 9.00009H6.5L10 4.50009C10.1806 4.14931 10.59 3.98257 10.9643 4.10733C11.3385 4.2321 11.566 4.61111 11.5 5.00009V19.0001C11.566 19.3891 11.3385 19.7681 10.9643 19.8928C10.59 20.0176 10.1806 19.8509 10 19.5001L6.5 15.0001" stroke="#E1DEF5" stroke-opacity="0.7" stroke-width="1.5" stroke-linecap="round" stroke-linejoin="round"/>
<path d="M17.0303 9.46967C16.7374 9.17678 16.2626 9.17678 15.9697 9.46967C15.6768 9.76256 15.6768 10.2374 15.9697 10.5303L17.0303 9.46967ZM19.9697 14.5303C20.2626 14.8232 20.7374 14.8232 21.0303 14.5303C21.3232 14.2374 21.3232 13.7626 21.0303 13.4697L19.9697 14.5303ZM21.0303 10.5303C21.3232 10.2374 21.3232 9.76256 21.0303 9.46967C20.7374 9.17678 20.2626 9.17678 19.9697 9.46967L21.0303 10.5303ZM15.9697 13.4697C15.6768 13.7626 15.6768 14.2374 15.9697 14.5303C16.2626 14.8232 16.7374 14.8232 17.0303 14.5303L15.9697 13.4697ZM15.9697 10.5303L19.9697 14.5303L21.0303 13.4697L17.0303 9.46967L15.9697 10.5303ZM19.9697 9.46967L15.9697 13.4697L17.0303 14.5303L21.0303 10.5303L19.9697 9.46967Z" fill="#E1DEF5" fill-opacity="0.7"/>
</svg>
