<svg width="25" height="24" viewBox="0 0 25 24" fill="none" xmlns="http://www.w3.org/2000/svg">
<path d="M16.75 8C16.75 8.41421 17.0858 8.75 17.5 8.75C17.9142 8.75 18.25 8.41421 18.25 8H16.75ZM18.75 12C18.75 12.4142 19.0858 12.75 19.5 12.75C19.9142 12.75 20.25 12.4142 20.25 12H18.75ZM20.25 16C20.25 15.5858 19.9142 15.25 19.5 15.25C19.0858 15.25 18.75 15.5858 18.75 16H20.25ZM5.25 6C5.25 5.58579 4.91421 5.25 4.5 5.25C4.08579 5.25 3.75 5.58579 3.75 6H5.25ZM18.25 8V5H16.75V8H18.25ZM18.25 5C18.25 4.0335 17.4665 3.25 16.5 3.25V4.75C16.6381 4.75 16.75 4.86193 16.75 5H18.25ZM16.5 3.25H6.5V4.75H16.5V3.25ZM6.5 3.25C4.98122 3.25 3.75 4.48122 3.75 6H5.25C5.25 5.30964 5.80964 4.75 6.5 4.75V3.25ZM3.75 6C3.75 7.51878 4.98122 8.75 6.5 8.75V7.25C5.80964 7.25 5.25 6.69036 5.25 6H3.75ZM6.5 8.75H18.5V7.25H6.5V8.75ZM18.5 8.75C18.6381 8.75 18.75 8.86193 18.75 9H20.25C20.25 8.0335 19.4665 7.25 18.5 7.25V8.75ZM18.75 9V12H20.25V9H18.75ZM18.75 16V19H20.25V16H18.75ZM18.75 19C18.75 19.1381 18.6381 19.25 18.5 19.25V20.75C19.4665 20.75 20.25 19.9665 20.25 19H18.75ZM18.5 19.25H6.5V20.75H18.5V19.25ZM6.5 19.25C5.80964 19.25 5.25 18.6904 5.25 18H3.75C3.75 19.5188 4.98122 20.75 6.5 20.75V19.25ZM5.25 18V6H3.75V18H5.25Z" fill="#E1DEF5" fill-opacity="0.7"/>
<path d="M20.5 12V16H16.5C15.3954 16 14.5 15.1046 14.5 14C14.5 12.8954 15.3954 12 16.5 12H20.5" stroke="#E1DEF5" stroke-opacity="0.7" stroke-width="1.5" stroke-linecap="round" stroke-linejoin="round"/>
</svg>
