<svg width="22" height="22" viewBox="0 0 22 22" fill="none" xmlns="http://www.w3.org/2000/svg">
<g id="wallet">
<path id="Shape" d="M14.8332 7.33335C14.8332 7.74757 15.169 8.08335 15.5832 8.08335C15.9974 8.08335 16.3332 7.74757 16.3332 7.33335H14.8332ZM16.6665 11C16.6665 11.4142 17.0023 11.75 17.4165 11.75C17.8307 11.75 18.1665 11.4142 18.1665 11H16.6665ZM18.1665 14.6667C18.1665 14.2525 17.8307 13.9167 17.4165 13.9167C17.0023 13.9167 16.6665 14.2525 16.6665 14.6667H18.1665ZM4.4165 5.50002C4.4165 5.08581 4.08072 4.75002 3.6665 4.75002C3.25229 4.75002 2.9165 5.08581 2.9165 5.50002H4.4165ZM16.3332 7.33335V4.58335H14.8332V7.33335H16.3332ZM16.3332 4.58335C16.3332 3.66288 15.587 2.91669 14.6665 2.91669V4.41669C14.7586 4.41669 14.8332 4.49131 14.8332 4.58335H16.3332ZM14.6665 2.91669H5.49984V4.41669H14.6665V2.91669ZM5.49984 2.91669C4.0731 2.91669 2.9165 4.07328 2.9165 5.50002H4.4165C4.4165 4.90171 4.90153 4.41669 5.49984 4.41669V2.91669ZM2.9165 5.50002C2.9165 6.92676 4.0731 8.08335 5.49984 8.08335V6.58335C4.90153 6.58335 4.4165 6.09833 4.4165 5.50002H2.9165ZM5.49984 8.08335H16.4998V6.58335H5.49984V8.08335ZM16.4998 8.08335C16.5919 8.08335 16.6665 8.15797 16.6665 8.25002H18.1665C18.1665 7.32955 17.4203 6.58335 16.4998 6.58335V8.08335ZM16.6665 8.25002V11H18.1665V8.25002H16.6665ZM16.6665 14.6667V17.4167H18.1665V14.6667H16.6665ZM16.6665 17.4167C16.6665 17.5087 16.5919 17.5834 16.4998 17.5834V19.0834C17.4203 19.0834 18.1665 18.3372 18.1665 17.4167H16.6665ZM16.4998 17.5834H5.49984V19.0834H16.4998V17.5834ZM5.49984 17.5834C4.90153 17.5834 4.4165 17.0983 4.4165 16.5H2.9165C2.9165 17.9268 4.0731 19.0834 5.49984 19.0834V17.5834ZM4.4165 16.5V5.50002H2.9165V16.5H4.4165Z" fill="#7367F0"/>
<path id="Path" d="M18.3335 11V14.6667H14.6668C13.6543 14.6667 12.8335 13.8459 12.8335 12.8333C12.8335 11.8208 13.6543 11 14.6668 11H18.3335" stroke="#7367F0" stroke-width="1.5" stroke-linecap="round" stroke-linejoin="round"/>
</g>
</svg>
