<svg width="23" height="22" viewBox="0 0 23 22" fill="none" xmlns="http://www.w3.org/2000/svg">
<path d="M15.6333 7.33333C15.6333 7.74754 15.9691 8.08333 16.3833 8.08333C16.7975 8.08333 17.1333 7.74754 17.1333 7.33333H15.6333ZM17.4666 11C17.4666 11.4142 17.8024 11.75 18.2166 11.75C18.6309 11.75 18.9666 11.4142 18.9666 11H17.4666ZM18.9666 14.6667C18.9666 14.2525 18.6309 13.9167 18.2166 13.9167C17.8024 13.9167 17.4666 14.2525 17.4666 14.6667H18.9666ZM5.21664 5.5C5.21664 5.08578 4.88086 4.75 4.46664 4.75C4.05243 4.75 3.71664 5.08578 3.71664 5.5H5.21664ZM17.1333 7.33333V4.58333H15.6333V7.33333H17.1333ZM17.1333 4.58333C17.1333 3.66286 16.3871 2.91666 15.4666 2.91666V4.41666C15.5587 4.41666 15.6333 4.49128 15.6333 4.58333H17.1333ZM15.4666 2.91666H6.29998V4.41666H15.4666V2.91666ZM6.29998 2.91666C4.87324 2.91666 3.71664 4.07326 3.71664 5.5H5.21664C5.21664 4.90169 5.70167 4.41666 6.29998 4.41666V2.91666ZM3.71664 5.5C3.71664 6.92673 4.87324 8.08333 6.29998 8.08333V6.58333C5.70167 6.58333 5.21664 6.09831 5.21664 5.5H3.71664ZM6.29998 8.08333H17.3V6.58333H6.29998V8.08333ZM17.3 8.08333C17.392 8.08333 17.4666 8.15795 17.4666 8.25H18.9666C18.9666 7.32952 18.2205 6.58333 17.3 6.58333V8.08333ZM17.4666 8.25V11H18.9666V8.25H17.4666ZM17.4666 14.6667V17.4167H18.9666V14.6667H17.4666ZM17.4666 17.4167C17.4666 17.5087 17.392 17.5833 17.3 17.5833V19.0833C18.2205 19.0833 18.9666 18.3371 18.9666 17.4167H17.4666ZM17.3 17.5833H6.29998V19.0833H17.3V17.5833ZM6.29998 17.5833C5.70167 17.5833 5.21664 17.0983 5.21664 16.5H3.71664C3.71664 17.9267 4.87324 19.0833 6.29998 19.0833V17.5833ZM5.21664 16.5V5.5H3.71664V16.5H5.21664Z" fill="#E1DEF5" fill-opacity="0.9"/>
<path d="M19.1333 11V14.6667H15.4667C14.4541 14.6667 13.6333 13.8459 13.6333 12.8333C13.6333 11.8208 14.4541 11 15.4667 11H19.1333" stroke="#E1DEF5" stroke-opacity="0.9" stroke-width="1.5" stroke-linecap="round" stroke-linejoin="round"/>
</svg>
