<svg width="25" height="24" viewBox="0 0 25 24" fill="none" xmlns="http://www.w3.org/2000/svg">
<path d="M6.5 21L21.5 6L18.5 3L3.5 18L6.5 21" stroke="#E1DEF5" stroke-opacity="0.7" stroke-width="1.5" stroke-linecap="round" stroke-linejoin="round"/>
<path d="M15.5 6L18.5 9" stroke="#E1DEF5" stroke-opacity="0.7" stroke-width="1.5" stroke-linecap="round" stroke-linejoin="round"/>
<path d="M9.5 3C9.5 4.10457 10.3954 5 11.5 5C10.3954 5 9.5 5.89543 9.5 7C9.5 5.89543 8.60457 5 7.5 5C8.60457 5 9.5 4.10457 9.5 3" stroke="#E1DEF5" stroke-opacity="0.7" stroke-width="1.5" stroke-linecap="round" stroke-linejoin="round"/>
<path d="M19.5 13C19.5 14.1046 20.3954 15 21.5 15C20.3954 15 19.5 15.8954 19.5 17C19.5 15.8954 18.6046 15 17.5 15C18.6046 15 19.5 14.1046 19.5 13" stroke="#E1DEF5" stroke-opacity="0.7" stroke-width="1.5" stroke-linecap="round" stroke-linejoin="round"/>
</svg>
