<svg width="25" height="24" viewBox="0 0 25 24" fill="none" xmlns="http://www.w3.org/2000/svg">
<path d="M12.5 18H12.51" stroke="#E1DEF5" stroke-opacity="0.9" stroke-width="1.5" stroke-linecap="round" stroke-linejoin="round"/>
<path d="M9.672 15.1721C11.234 13.6106 13.766 13.6106 15.328 15.1721" stroke="#E1DEF5" stroke-opacity="0.9" stroke-width="1.5" stroke-linecap="round" stroke-linejoin="round"/>
<path d="M6.31194 11.8133C6.01946 12.1066 6.02013 12.5815 6.31344 12.874C6.60674 13.1664 7.08162 13.1658 7.3741 12.8725L6.31194 11.8133ZM10.8742 10.934C11.278 10.8417 11.5305 10.4395 11.4382 10.0357C11.3458 9.63194 10.9437 9.37943 10.5399 9.47174L10.8742 10.934ZM15.0935 9.642C14.6982 9.51854 14.2776 9.73897 14.1541 10.1344C14.0306 10.5297 14.2511 10.9504 14.6464 11.0738L15.0935 9.642ZM17.6239 12.8855C17.9153 13.1799 18.3902 13.1823 18.6846 12.891C18.979 12.5996 18.9814 12.1247 18.6901 11.8303L17.6239 12.8855ZM7.3741 12.8725C8.33465 11.9092 9.54802 11.2372 10.8742 10.934L10.5399 9.47174C8.93795 9.83796 7.47225 10.6497 6.31194 11.8133L7.3741 12.8725ZM14.6464 11.0738C15.7721 11.4253 16.7944 12.0474 17.6239 12.8855L18.6901 11.8303C17.6881 10.8179 16.4532 10.0666 15.0935 9.642L14.6464 11.0738Z" fill="#E1DEF5" fill-opacity="0.9"/>
<path d="M3.48413 8.98504C3.19154 9.27823 3.19204 9.75311 3.48524 10.0457C3.77844 10.3383 4.25331 10.3378 4.5459 10.0446L3.48413 8.98504ZM7.8684 7.74303C8.24573 7.57216 8.4131 7.12776 8.24223 6.75043C8.07136 6.3731 7.62696 6.20573 7.24963 6.3766L7.8684 7.74303ZM10.5451 5.39875C10.1358 5.46222 9.85542 5.84549 9.91889 6.25481C9.98236 6.66413 10.3656 6.9445 10.775 6.88103L10.5451 5.39875ZM20.4546 10.0442C20.7475 10.3371 21.2224 10.3371 21.5153 10.0443C21.8082 9.75142 21.8083 9.27655 21.5154 8.98362L20.4546 10.0442ZM4.5459 10.0446C5.50537 9.08312 6.63103 8.30335 7.8684 7.74303L7.24963 6.3766C5.84729 7.01163 4.57154 7.89537 3.48413 8.98504L4.5459 10.0446ZM10.775 6.88103C14.3213 6.33114 17.9173 7.50622 20.4546 10.0442L21.5154 8.98362C18.6398 6.10729 14.5644 4.77553 10.5451 5.39875L10.775 6.88103Z" fill="#E1DEF5" fill-opacity="0.9"/>
<path d="M3.5 3L21.5 21" stroke="#E1DEF5" stroke-opacity="0.9" stroke-width="1.5" stroke-linecap="round" stroke-linejoin="round"/>
</svg>
