<svg width="25" height="24" viewBox="0 0 25 24" fill="none" xmlns="http://www.w3.org/2000/svg">
<path d="M5.5 7.99992H14C15.2897 8.02459 16.3865 7.06396 16.5319 5.78224C16.6773 4.50052 15.8237 3.31858 14.5612 3.05366C13.2988 2.78875 12.0421 3.52785 11.66 4.75992" stroke="#ACAAB1" stroke-width="1.5" stroke-linecap="round" stroke-linejoin="round"/>
<path d="M3.5 12H19C20.2897 11.9753 21.3865 12.9359 21.5319 14.2177C21.6773 15.4994 20.8237 16.6813 19.5612 16.9462C18.2988 17.2111 17.0421 16.472 16.66 15.24" stroke="#ACAAB1" stroke-width="1.5" stroke-linecap="round" stroke-linejoin="round"/>
<path d="M4.5 16H10C11.2897 15.9753 12.3865 16.9359 12.5319 18.2177C12.6773 19.4994 11.8237 20.6813 10.5612 20.9462C9.2988 21.2111 8.04206 20.472 7.66 19.24" stroke="#ACAAB1" stroke-width="1.5" stroke-linecap="round" stroke-linejoin="round"/>
</svg>
