<svg width="25" height="24" viewBox="0 0 25 24" fill="none" xmlns="http://www.w3.org/2000/svg">
<path fill-rule="evenodd" clip-rule="evenodd" d="M12.5 12C15.26 12 17.5 9.99 17.5 7.5C17.5 5.01 15.26 3 12.5 3V12Z" stroke="#ACAAB1" stroke-width="1.5" stroke-linecap="round" stroke-linejoin="round"/>
<path fill-rule="evenodd" clip-rule="evenodd" d="M12.5 12C12.5 14.76 14.51 17 17 17C19.49 17 21.5 14.76 21.5 12H12.5Z" stroke="#ACAAB1" stroke-width="1.5" stroke-linecap="round" stroke-linejoin="round"/>
<path fill-rule="evenodd" clip-rule="evenodd" d="M12.5 12C9.74 12 7.5 14.01 7.5 16.5C7.5 18.99 9.74 21 12.5 21V12Z" stroke="#ACAAB1" stroke-width="1.5" stroke-linecap="round" stroke-linejoin="round"/>
<path fill-rule="evenodd" clip-rule="evenodd" d="M12.5 12C12.5 9.24 10.49 7 8 7C5.51 7 3.5 9.24 3.5 12H12.5Z" stroke="#ACAAB1" stroke-width="1.5" stroke-linecap="round" stroke-linejoin="round"/>
</svg>
