<svg width="25" height="24" viewBox="0 0 25 24" fill="none" xmlns="http://www.w3.org/2000/svg">
<circle cx="12.5" cy="20" r="1" stroke="#E1DEF5" stroke-opacity="0.7" stroke-width="1.5" stroke-linecap="round" stroke-linejoin="round"/>
<path d="M3.5 11L9 16.5C10.9442 14.5943 14.0558 14.5943 16 16.5L21.5 11C19.222 8.417 15.944 6.93726 12.5 6.93726C9.05599 6.93726 5.778 8.417 3.5 11" stroke="#E1DEF5" stroke-opacity="0.7" stroke-width="1.5" stroke-linecap="round" stroke-linejoin="round"/>
<path d="M12.5 20V6" stroke="#E1DEF5" stroke-opacity="0.7" stroke-width="1.5" stroke-linecap="round" stroke-linejoin="round"/>
<path d="M4.50002 5.99995C4.49136 5.37699 4.62833 4.76061 4.90002 4.19995" stroke="#E1DEF5" stroke-opacity="0.7" stroke-width="1.5" stroke-linecap="round" stroke-linejoin="round"/>
<path d="M7.5 2.09989C8.15591 1.93053 8.84409 1.93053 9.5 2.09989" stroke="#E1DEF5" stroke-opacity="0.7" stroke-width="1.5" stroke-linecap="round" stroke-linejoin="round"/>
<path d="M12.5 5.99995C12.5086 5.37699 12.3717 4.76061 12.1 4.19995" stroke="#E1DEF5" stroke-opacity="0.7" stroke-width="1.5" stroke-linecap="round" stroke-linejoin="round"/>
<path d="M12.5 5.99995C12.4914 5.37699 12.6283 4.76061 12.9 4.19995" stroke="#E1DEF5" stroke-opacity="0.7" stroke-width="1.5" stroke-linecap="round" stroke-linejoin="round"/>
<path d="M15.5 2.09989C16.1559 1.93053 16.8441 1.93053 17.5 2.09989" stroke="#E1DEF5" stroke-opacity="0.7" stroke-width="1.5" stroke-linecap="round" stroke-linejoin="round"/>
<path d="M20.5 5.99995C20.5086 5.37699 20.3717 4.76061 20.1 4.19995" stroke="#E1DEF5" stroke-opacity="0.7" stroke-width="1.5" stroke-linecap="round" stroke-linejoin="round"/>
</svg>
