<svg width="25" height="24" viewBox="0 0 25 24" fill="none" xmlns="http://www.w3.org/2000/svg">
<path d="M21.5 12C21.5 7.02944 17.4706 3 12.5 3C7.52944 3 3.5 7.02944 3.5 12C3.5 16.9706 7.52944 21 12.5 21" stroke="#6D6B77" stroke-width="1.5" stroke-linecap="round" stroke-linejoin="round"/>
<path d="M4.09998 9H20.9" stroke="#6D6B77" stroke-width="1.5" stroke-linecap="round" stroke-linejoin="round"/>
<path d="M4.09998 15H12.5" stroke="#6D6B77" stroke-width="1.5" stroke-linecap="round" stroke-linejoin="round"/>
<path d="M12.078 3C8.64098 8.50778 8.64098 15.4922 12.078 21" stroke="#6D6B77" stroke-width="1.5" stroke-linecap="round" stroke-linejoin="round"/>
<path d="M13 3C14.719 5.755 15.5 8.876 15.5 12" stroke="#6D6B77" stroke-width="1.5" stroke-linecap="round" stroke-linejoin="round"/>
<path d="M19.25 14C19.25 13.5858 18.9142 13.25 18.5 13.25C18.0858 13.25 17.75 13.5858 17.75 14H19.25ZM17.75 21C17.75 21.4142 18.0858 21.75 18.5 21.75C18.9142 21.75 19.25 21.4142 19.25 21H17.75ZM16.0303 17.4697C15.7374 17.1768 15.2626 17.1768 14.9697 17.4697C14.6768 17.7626 14.6768 18.2374 14.9697 18.5303L16.0303 17.4697ZM18.5 21L17.9697 21.5303C18.2626 21.8232 18.7374 21.8232 19.0303 21.5303L18.5 21ZM22.0303 18.5303C22.3232 18.2374 22.3232 17.7626 22.0303 17.4697C21.7374 17.1768 21.2626 17.1768 20.9697 17.4697L22.0303 18.5303ZM17.75 14V21H19.25V14H17.75ZM14.9697 18.5303L17.9697 21.5303L19.0303 20.4697L16.0303 17.4697L14.9697 18.5303ZM19.0303 21.5303L22.0303 18.5303L20.9697 17.4697L17.9697 20.4697L19.0303 21.5303Z" fill="#6D6B77"/>
</svg>
