<svg width="25" height="24" viewBox="0 0 25 24" fill="none" xmlns="http://www.w3.org/2000/svg">
<path d="M21.5 12C21.5 7.02944 17.4706 3 12.5 3C7.52944 3 3.5 7.02944 3.5 12C3.5 16.9706 7.52944 21 12.5 21" stroke="#2F2B3D" stroke-opacity="0.9" stroke-width="1.5" stroke-linecap="round" stroke-linejoin="round"/>
<path d="M4.09998 9H20.9" stroke="#2F2B3D" stroke-opacity="0.9" stroke-width="1.5" stroke-linecap="round" stroke-linejoin="round"/>
<path d="M4.09998 15H12.5" stroke="#2F2B3D" stroke-opacity="0.9" stroke-width="1.5" stroke-linecap="round" stroke-linejoin="round"/>
<path d="M12.078 3C8.64098 8.50778 8.64098 15.4922 12.078 21" stroke="#2F2B3D" stroke-opacity="0.9" stroke-width="1.5" stroke-linecap="round" stroke-linejoin="round"/>
<path d="M13 3C14.719 5.755 15.5 8.876 15.5 12" stroke="#2F2B3D" stroke-opacity="0.9" stroke-width="1.5" stroke-linecap="round" stroke-linejoin="round"/>
<path d="M17.75 21C17.75 21.4142 18.0858 21.75 18.5 21.75C18.9142 21.75 19.25 21.4142 19.25 21H17.75ZM19.25 14C19.25 13.5858 18.9142 13.25 18.5 13.25C18.0858 13.25 17.75 13.5858 17.75 14H19.25ZM20.9697 17.5303C21.2626 17.8232 21.7374 17.8232 22.0303 17.5303C22.3232 17.2374 22.3232 16.7626 22.0303 16.4697L20.9697 17.5303ZM18.5 14L19.0303 13.4697C18.7374 13.1768 18.2626 13.1768 17.9697 13.4697L18.5 14ZM14.9697 16.4697C14.6768 16.7626 14.6768 17.2374 14.9697 17.5303C15.2626 17.8232 15.7374 17.8232 16.0303 17.5303L14.9697 16.4697ZM19.25 21V14H17.75V21H19.25ZM22.0303 16.4697L19.0303 13.4697L17.9697 14.5303L20.9697 17.5303L22.0303 16.4697ZM17.9697 13.4697L14.9697 16.4697L16.0303 17.5303L19.0303 14.5303L17.9697 13.4697Z" fill="#2F2B3D" fill-opacity="0.9"/>
</svg>
