<svg width="25" height="24" viewBox="0 0 25 24" fill="none" xmlns="http://www.w3.org/2000/svg">
<path d="M3.5 19C6.833 17 8.5 15 8.5 13C8.5 10 7.5 10 6.5 10C5.5 10 4.468 11.085 4.5 13C4.534 15.048 6.158 15.877 7 17C8.5 19 9.5 19.5 10.5 18C11.167 17 11.667 16.167 12 15.5C13 17.833 14.333 19 16 19H18.5" stroke="#6D6B77" stroke-width="1.5" stroke-linecap="round" stroke-linejoin="round"/>
<path fill-rule="evenodd" clip-rule="evenodd" d="M20.5 17V5C20.5 3.879 19.621 3 18.5 3C17.379 3 16.5 3.879 16.5 5V17L18.5 19L20.5 17Z" stroke="#6D6B77" stroke-width="1.5" stroke-linecap="round" stroke-linejoin="round"/>
<path d="M16.5 7H20.5" stroke="#6D6B77" stroke-width="1.5" stroke-linecap="round" stroke-linejoin="round"/>
</svg>
