<svg width="25" height="24" viewBox="0 0 25 24" fill="none" xmlns="http://www.w3.org/2000/svg">
<path d="M3.5 4C4.60457 4 5.5 4.89543 5.5 6V15" stroke="#2F2B3D" stroke-opacity="0.9" stroke-width="1.5" stroke-linecap="round" stroke-linejoin="round"/>
<path d="M5.5 6C5.5 4.89543 6.39543 4 7.5 4C8.60457 4 9.5 4.89543 9.5 6V15" stroke="#2F2B3D" stroke-opacity="0.9" stroke-width="1.5" stroke-linecap="round" stroke-linejoin="round"/>
<path d="M9.5 6C9.5 4.89543 10.3954 4 11.5 4C12.6046 4 13.5 4.89543 13.5 6V16C13.5 18.7614 16.634 21 20.5 21" stroke="#2F2B3D" stroke-opacity="0.9" stroke-width="1.5" stroke-linecap="round" stroke-linejoin="round"/>
<path d="M12.5 21C16.366 21 19.5 18.7614 19.5 16V14C19.5 12.3431 18.1569 11 16.5 11C14.8431 11 13.5 12.3431 13.5 14" stroke="#2F2B3D" stroke-opacity="0.9" stroke-width="1.5" stroke-linecap="round" stroke-linejoin="round"/>
</svg>
