<svg width="25" height="24" viewBox="0 0 25 24" fill="none" xmlns="http://www.w3.org/2000/svg">
<path d="M3.5 4C4.60457 4 5.5 4.89543 5.5 6V15" stroke="#E1DEF5" stroke-opacity="0.9" stroke-width="1.5" stroke-linecap="round" stroke-linejoin="round"/>
<path d="M5.5 6C5.5 4.89543 6.39543 4 7.5 4C8.60457 4 9.5 4.89543 9.5 6V15" stroke="#E1DEF5" stroke-opacity="0.9" stroke-width="1.5" stroke-linecap="round" stroke-linejoin="round"/>
<path d="M8.75 6C8.75 6.41421 9.08579 6.75 9.5 6.75C9.91421 6.75 10.25 6.41421 10.25 6H8.75ZM21.5 19V19.75C21.8033 19.75 22.0768 19.5673 22.1929 19.287C22.309 19.0068 22.2448 18.6842 22.0303 18.4697L21.5 19ZM19.0303 15.4697C18.7374 15.1768 18.2626 15.1768 17.9697 15.4697C17.6768 15.7626 17.6768 16.2374 17.9697 16.5303L19.0303 15.4697ZM17.9697 21.4697C17.6768 21.7626 17.6768 22.2374 17.9697 22.5303C18.2626 22.8232 18.7374 22.8232 19.0303 22.5303L17.9697 21.4697ZM22.0303 19.5303C22.3232 19.2374 22.3232 18.7626 22.0303 18.4697C21.7374 18.1768 21.2626 18.1768 20.9697 18.4697L22.0303 19.5303ZM10.25 6C10.25 5.30964 10.8096 4.75 11.5 4.75V3.25C9.98122 3.25 8.75 4.48122 8.75 6H10.25ZM11.5 4.75C12.1904 4.75 12.75 5.30964 12.75 6H14.25C14.25 4.48122 13.0188 3.25 11.5 3.25V4.75ZM12.75 6V16H14.25V6H12.75ZM12.75 16C12.75 18.0711 14.4289 19.75 16.5 19.75V18.25C15.2574 18.25 14.25 17.2426 14.25 16H12.75ZM16.5 19.75H21.5V18.25H16.5V19.75ZM22.0303 18.4697L19.0303 15.4697L17.9697 16.5303L20.9697 19.5303L22.0303 18.4697ZM19.0303 22.5303L22.0303 19.5303L20.9697 18.4697L17.9697 21.4697L19.0303 22.5303Z" fill="#E1DEF5" fill-opacity="0.9"/>
</svg>
