<svg width="25" height="24" viewBox="0 0 25 24" fill="none" xmlns="http://www.w3.org/2000/svg">
<circle cx="10.5" cy="10" r="7" stroke="#2F2B3D" stroke-opacity="0.9" stroke-width="1.5" stroke-linecap="round" stroke-linejoin="round"/>
<path d="M21.5 21L15.5 15" stroke="#2F2B3D" stroke-opacity="0.9" stroke-width="1.5" stroke-linecap="round" stroke-linejoin="round"/>
<path d="M12.5 7H10C9.17157 7 8.5 7.67157 8.5 8.5C8.5 9.32843 9.17157 10 10 10H11C11.8284 10 12.5 10.6716 12.5 11.5C12.5 12.3284 11.8284 13 11 13H8.5" stroke="#2F2B3D" stroke-opacity="0.9" stroke-width="1.5" stroke-linecap="round" stroke-linejoin="round"/>
<path d="M11.25 13C11.25 12.5858 10.9142 12.25 10.5 12.25C10.0858 12.25 9.75 12.5858 9.75 13H11.25ZM9.75 14C9.75 14.4142 10.0858 14.75 10.5 14.75C10.9142 14.75 11.25 14.4142 11.25 14H9.75ZM11.25 6C11.25 5.58579 10.9142 5.25 10.5 5.25C10.0858 5.25 9.75 5.58579 9.75 6H11.25ZM9.75 7C9.75 7.41421 10.0858 7.75 10.5 7.75C10.9142 7.75 11.25 7.41421 11.25 7H9.75ZM9.75 13V14H11.25V13H9.75ZM9.75 6V7H11.25V6H9.75Z" fill="#2F2B3D" fill-opacity="0.9"/>
</svg>
