<svg xmlns="http://www.w3.org/2000/svg" viewBox="0 0 244.04 244.51"><defs><style>.cls-1{opacity:0.8;}.cls-2{opacity:0.7;}.cls-3{fill:#93e8ff;}.cls-4{fill:#2a2a2a;}</style></defs><g id="Layer_2" data-name="Layer 2"><g id="레이어_1" data-name="레이어 1"><g class="cls-1"><g class="cls-2"><path id="사각형_646" data-name="사각형 646" class="cls-3" d="M170.17,177.91,189,196.13h0l-22.78,23.56a6.54,6.54,0,0,1-9.26.15l-9.43-9.11a6.54,6.54,0,0,1-.15-9.26l22.77-23.56Z"/></g><path class="cls-3" d="M161.53,219.68a4.52,4.52,0,0,1-3.16-1.27l-9.43-9.11a4.58,4.58,0,0,1-.11-6.44l21.39-22.12,16,15.43L164.8,218.3A4.5,4.5,0,0,1,161.53,219.68Z"/><path class="cls-4" d="M57.43,244.51a3.54,3.54,0,0,1-2-.58,3.75,3.75,0,0,1-1.7-2.34l-5.35-24.33-.36-1.72-7.4-1.79a3.69,3.69,0,0,1-2.83-3.37l-1.75-28.17-3.94,2.24A52.79,52.79,0,0,0,13,204.63a2.78,2.78,0,0,0-.22.52A50.88,50.88,0,0,0,7.4,227.86V240.7a3.71,3.71,0,0,1-3.7,3.72A3.72,3.72,0,0,1,0,240.7V227.86a57.59,57.59,0,0,1,3.61-20.08l0-.11.17-.7a58.18,58.18,0,0,1,12.46-19.19l.08-.08.07-.09c.1-.13.2-.28.29-.42s.38-.36.57-.53l.62-.56a7,7,0,0,0,.55-.57l.11-.11.21-.14.12-.11a57.64,57.64,0,0,1,15.65-10.26l1.13-.47.4-1.22a7,7,0,0,1,3.57-4l17.48-8.59a6,6,0,0,1,2.83-.73h.34l3,.12V148.8l-1-.85a50.75,50.75,0,0,1-16.33-24.9l-.5-1.78L43.58,121a16.54,16.54,0,0,1-8.49-29l1.32-1.13L31.1,69.39a56.3,56.3,0,0,1,.13-27.48l0-.08.12-.71A56.75,56.75,0,0,1,70.29,1.89,49.51,49.51,0,0,1,83.76,0H95.4a37.86,37.86,0,0,1,35.38,24.64l.57,1.54,1.62.26c.5.09,1,.2,1.56.33A24.52,24.52,0,0,1,152.48,56.4L143.92,91l1.33,1.13a16.54,16.54,0,0,1-8.91,29l-1.88.2-.52,1.82a50.76,50.76,0,0,1-16.26,24.69l-1,.85v11.66l3.16-.38a8.08,8.08,0,0,1,.85-.05,7.06,7.06,0,0,1,2.76.56l2.55,1.08,1.13-2.53a60.42,60.42,0,0,1,75.94-33l.23.08.72.07,1.27.55,1.07.47.27.11c.66.27,1.26.52,1.89.81a61,61,0,0,1,6.25,3.29,2.46,2.46,0,0,0,.3.17l.18.12a60.87,60.87,0,0,1,15,12.81l-.14.14,1.07,1.4A61,61,0,0,1,183,244.39h0a60.83,60.83,0,0,1-46.94-22l-3.68-4.49-5.2,23.69a3.73,3.73,0,0,1-3.63,2.9,4.23,4.23,0,0,1-.79-.08,3.75,3.75,0,0,1-2.82-4.42l6.24-28.32a3.69,3.69,0,0,1,.56-1.27l.89-1.3-.64-1.43a59.63,59.63,0,0,1-3.8-12.12l-1-5.08-4,.16-5.89,50.53a3.71,3.71,0,0,1-3.59,3.27l-.52,0h-.1a3.68,3.68,0,0,1-3.15-4.09l5.76-49.12-4.37,1.68a44.33,44.33,0,0,1-31.75,0l-4.35-1.69L76,240.29a3.72,3.72,0,0,1-3.25,4.11,3,3,0,0,1-.43,0,3.71,3.71,0,0,1-3.67-3.27L60,167.48,43.1,175.79l2,31.4,7,1.69a3.76,3.76,0,0,1,2.75,2.83L61,240a3.72,3.72,0,0,1-2.83,4.41A3.92,3.92,0,0,1,57.43,244.51ZM182.77,129.83a53.61,53.61,0,0,0,.13,107.22H183a53.6,53.6,0,0,0,39.38-90l-.25-.4-.13-.14a54.07,54.07,0,0,0-10.75-8.67l-.21-.13a54.14,54.14,0,0,0-5.84-3.07c-.49-.22-1-.41-1.44-.61a53.34,53.34,0,0,0-20.9-4.24ZM70.7,164.92A4.62,4.62,0,0,1,69,168.6l-1.21,1,1.39,11.85,1.06.72a36.29,36.29,0,0,0,40.59,0l1.08-.72,1.31-11.56L111.6,169a4.73,4.73,0,0,1-2.32-4.06V153.55l-3.94,1.7c-1,.43-1.9.77-2.72,1.06a37,37,0,0,1-25.47.08c-.8-.3-1.67-.64-2.53-1l-3.92-1.64ZM64.06,54.57A12.66,12.66,0,0,0,51.42,67.19v42.07a42.9,42.9,0,0,0,28.26,40.17,29.74,29.74,0,0,0,20.1.06h0a43.17,43.17,0,0,0,28.79-40.35V67.2a18.65,18.65,0,0,0-9.66-16.34L110.08,46l-6.19,6.19a8.12,8.12,0,0,1-5.73,2.39Zm71.19,61.76,5.82-5.26,0,0,.25-.27a9.13,9.13,0,0,0-.64-12.88L136,93.54v15.6ZM39.12,98.45a9.19,9.19,0,0,0,0,12.36L44,116.13v-23Zm94.11-60.17a16,16,0,0,1-2.47,8.33L129,49.41,130.29,51A26.22,26.22,0,0,1,136,67.2v8.71l3.94.48,5.37-21.78A17.11,17.11,0,0,0,142.15,40a17.31,17.31,0,0,0-4.65-4.13l-4.27-2.55ZM61.7,13.51A48.59,48.59,0,0,0,38.31,67.59l1.77,7.14L44,74.25V66.19a20.1,20.1,0,0,1,20-19.1H98.49l7.79-7.8a4.79,4.79,0,0,1,5.64-.79l11.39,6.27,1.38-2.4A8.75,8.75,0,0,0,125.85,38,30.71,30.71,0,0,0,95.21,7.4H83.78A41.74,41.74,0,0,0,72.34,9a49,49,0,0,0-10.17,4.17l-.19.1Z"/><path class="cls-4" d="M164.57,221a19.09,19.09,0,0,1-13.34-32.76l36.53-36.52a19.08,19.08,0,1,1,27,27L177.9,215.57A19,19,0,0,1,164.57,221Zm-8.08-27.55A11.7,11.7,0,0,0,173,210l15.63-15.63-16.54-16.53Zm44.6-39.75a11.63,11.63,0,0,0-8.06,3.22l-15.67,15.66,16.52,16.54,15.65-15.63a11.7,11.7,0,0,0,0-16.17A11.57,11.57,0,0,0,201.09,153.69Z"/></g></g></g></svg>