<svg xmlns="http://www.w3.org/2000/svg" viewBox="0 0 191.13 252.1"><defs><style>.cls-1{opacity:0.8;}.cls-2{fill:#93e8ff;}.cls-3{fill:#2a2a2a;}</style></defs><g id="Layer_2" data-name="Layer 2"><g id="레이어_1" data-name="레이어 1"><g class="cls-1"><path id="사각형_644" data-name="사각형 644" class="cls-2" d="M46.86,83.48H77.39a6.1,6.1,0,0,1,6.1,6.11v30.53H46.86V83.48Z"/><path id="사각형_645" data-name="사각형 645" class="cls-2" d="M46.86,144.54H77.39a6.1,6.1,0,0,1,6.1,6.1v30.53H46.86V144.54Z"/><path class="cls-3" d="M64.07,164.51a5.87,5.87,0,0,1-4.21-1.75l-4-4a2.52,2.52,0,0,1,3.66-3.46l4.55,4.54,11.27-11.35a2.47,2.47,0,0,1,1.76-.74h.18a2.14,2.14,0,0,1,1.56.68l.08.09.11.09a2.54,2.54,0,0,1-.11,3.45L68.27,162.77a5.91,5.91,0,0,1-4.2,1.74Z"/><path class="cls-3" d="M47.39,184.38a7.83,7.83,0,0,1-7.82-7.82v-26.7A7.84,7.84,0,0,1,47.39,142H59.46a3.38,3.38,0,0,1,0,6.76H46.34v28.83H75.15V167.2a3.38,3.38,0,0,1,3.27-3.2h.12a3.38,3.38,0,0,1,3.38,3.27v9.3a7.83,7.83,0,0,1-7.82,7.82Z"/><path class="cls-3" d="M64.07,105a5.91,5.91,0,0,1-4.21-1.75l-4-4a2.51,2.51,0,0,1,0-3.53l0-.06a2.52,2.52,0,0,1,3.52,0l4.59,4.58L75.36,89a2.47,2.47,0,0,1,1.76-.74h.15a2.22,2.22,0,0,1,1.61.69,2.54,2.54,0,0,1,0,3.6L68.25,103.3A5.92,5.92,0,0,1,64.07,105Z"/><path class="cls-3" d="M47.39,124.91a7.83,7.83,0,0,1-7.82-7.82V90.4a7.85,7.85,0,0,1,7.82-7.83H59.46a3.38,3.38,0,0,1,0,6.76H46.33v28.82H75.14V107.72a3.38,3.38,0,0,1,3.27-3.2h.12a3.37,3.37,0,0,1,3.38,3.27v9.3a7.86,7.86,0,0,1-7.82,7.82Z"/><path class="cls-3" d="M18.15,252.1A18.17,18.17,0,0,1,0,234V25.74A18.17,18.17,0,0,1,18.15,7.6h29l.78-1.45A11.72,11.72,0,0,1,58.24,0h74.61a11.7,11.7,0,0,1,10.51,6.52L144,7.77l1.39-.15a2.73,2.73,0,0,1,.41,0H173a18.15,18.15,0,0,1,18.16,18.14V234A18.17,18.17,0,0,1,173,252.1Zm0-237.74A11.4,11.4,0,0,0,6.78,25.73v208.2a11.41,11.41,0,0,0,11.36,11.38H173a11.42,11.42,0,0,0,11.37-11.37V25.73A11.41,11.41,0,0,0,173,14.36H144.61v8H170.5a5.86,5.86,0,0,1,5.85,5.84V195.6a3.46,3.46,0,0,1-1,2.21L137.67,235.5l0,.06a2.58,2.58,0,0,1-2,.9H20.6a5.85,5.85,0,0,1-5.84-5.84V28.18a5.86,5.86,0,0,1,5.85-5.84H46.5v-8Zm3.39,215.35H131.9V210.18A18.17,18.17,0,0,1,150.05,192h19.53V29.11H151.67l.27,3.1a5.92,5.92,0,0,1,0,.89V43.36a10.78,10.78,0,0,1-10.76,10.75H49.88A10.77,10.77,0,0,1,39.13,43.36V33.1c0-.34,0-.68,0-1l.27-3H21.53Zm128.52-30.92a11.39,11.39,0,0,0-11.36,11.37v14.75l26.11-26.12ZM45.89,43.36a4,4,0,0,0,4,4h91.34a4,4,0,0,0,4-4V30.07l-4.6,4.06a11.68,11.68,0,0,1-7.78,3H58.25a11.74,11.74,0,0,1-7.78-3l-4.6-4.05ZM58.24,6.75a5,5,0,0,0-5,5l0,13.58a5,5,0,0,0,5,5h74.59a5,5,0,0,0,5-5V11.76a5,5,0,0,0-5-5Z"/><path class="cls-3" d="M95.38,89.31a3.38,3.38,0,1,1,0-6.75h52.79a3.38,3.38,0,0,1,0,6.75Z"/><path class="cls-3" d="M95.38,104.1a3.38,3.38,0,0,1,0-6.76h52.79a3.38,3.38,0,0,1,0,6.76Z"/><path class="cls-3" d="M95.08,163.61a3.39,3.39,0,0,1,.11-6.77h53.27a3.41,3.41,0,0,1,2.36,1.08,3.38,3.38,0,0,1-2.47,5.69Z"/><path class="cls-3" d="M95.08,148.8a3.38,3.38,0,0,1,.11-6.76h53.27a3.39,3.39,0,0,1-.11,6.77H95.08Z"/></g></g></g></svg>