<svg xmlns="http://www.w3.org/2000/svg" viewBox="0 0 335.5 200.03"><defs><style>.cls-1,.cls-5{fill:none;stroke-linecap:round;stroke-linejoin:round;}.cls-1,.cls-2,.cls-5{stroke:#555;}.cls-1,.cls-2{stroke-width:7px;}.cls-2{fill:#93e8ff;}.cls-2,.cls-3{stroke-miterlimit:10;}.cls-3{fill:#fff;stroke:#93e8ff;stroke-width:0.5px;}.cls-4{fill:#555;}.cls-5{stroke-width:6px;}</style></defs><g id="Layer_2" data-name="Layer 2"><g id="레이어_1" data-name="레이어 1"><path class="cls-1" d="M71.92,103.55l-39.83,12.7a41.06,41.06,0,0,0-26.64,51.6h0a41.07,41.07,0,0,0,51.6,26.63l49.05-15.64a7.82,7.82,0,0,0,5.08-9.83l-6.12-19.79"/><path class="cls-1" d="M20.62,171.82a29.09,29.09,0,0,0,32.79,11.23l26.29-8.39"/><line class="cls-1" x1="280.22" y1="110.76" x2="254.92" y2="103.39"/><path class="cls-1" d="M230.31,122.36,217.12,170a7.84,7.84,0,0,0,5.45,9.63L278,195a41,41,0,0,0,50.54-28.58h0a41,41,0,0,0-1.09-25.35"/><circle class="cls-2" cx="125.6" cy="98.9" r="37.28"/><circle class="cls-2" cx="212.05" cy="74.43" r="37.28"/><path class="cls-3" d="M223.7,65.65a9.41,9.41,0,0,1-3.11,7,.67.67,0,0,0,0,1.15,10.66,10.66,0,0,1,3.88,8c0,6-5.19,10.61-11.47,10.61H202.9a1.06,1.06,0,0,1-1.09-1V57a1.07,1.07,0,0,1,1.09-1H213C218.9,56,223.7,60,223.7,65.65ZM213,71c3.55,0,5.52-2.29,5.52-5.31s-2.68-4.73-5.52-4.73h-5.57a.5.5,0,0,0-.54.52v9a.5.5,0,0,0,.54.52Zm-5.57,4.68c-.27-.16-.54.21-.54.52V86.92a.5.5,0,0,0,.54.52H213c3.39,0,6.28-2.55,6.28-5.67A6.09,6.09,0,0,0,213,75.64Z"/><path class="cls-3" d="M138.17,106.89c0,5.77-5.08,10.82-12.28,10.82-6.56,0-11.41-4.11-12.29-10.82a75.31,75.31,0,0,1,0-15.6,12,12,0,0,1,12.29-10.82c6.55,0,12.28,4.06,12.28,10.82V92a1.07,1.07,0,0,1-1.09,1h-3A1.07,1.07,0,0,1,133,92v-.73c0-3.12-2.78-5.82-7.09-5.88-3.55,0-6.61,2.08-7.1,5.88a56.25,56.25,0,0,0,0,13.6c.43,3,2.84,7.88,7.1,7.88,3.65,0,7.09-2.08,7.09-5.88v-.73a1.07,1.07,0,0,1,1.09-1h3a1.07,1.07,0,0,1,1.09,1Z"/><path class="cls-1" d="M282.65,125.07c13.22,1,23.77,13.22,24.68,28.47.9-15.25,11.46-27.43,24.67-28.47-13.21-1-23.77-14.17-24.67-29.42C306.42,110.9,295.87,124,282.65,125.07Z"/><circle class="cls-2" cx="165.53" cy="154.37" r="37.28"/><path class="cls-3" d="M171.1,164a1,1,0,0,0-1-.73H161a1.05,1.05,0,0,0-1,.73l-2.4,8a1.1,1.1,0,0,1-1,.78h-3c-.87,0-1.2-.58-1.09-1l10.15-34.58a1,1,0,0,1,1-.78h3.82a1,1,0,0,1,1,.78l10.15,34.58c.11.46-.21,1-1.09,1h-3a1.11,1.11,0,0,1-1-.78Zm-2.18-5.56c.32,0,.54-.16.43-.58l-3.55-14.5c-.05-.21-.11-.32-.21-.32h-.11c-.11,0-.17.11-.22.32l-3.55,14.5c-.11.42.11.58.44.58Z"/><circle class="cls-4" cx="90.08" cy="170.59" r="3.83"/><path class="cls-5" d="M107.19,21.58c9.24.66,16.63,8.36,17.27,18,.63-9.63,8-17.33,17.27-18-9.25-.66-16.64-8.95-17.27-18.58C123.82,12.63,116.43,20.92,107.19,21.58Z"/></g></g></svg>