<svg width="9" height="17" viewBox="0 0 9 17" fill="none" xmlns="http://www.w3.org/2000/svg">
<path d="M1.15725 15.3338L6.74727 8.87434L1.15725 2.41484C1.05717 2.29943 1.00115 2.1445 1.00115 1.98317C1.00115 1.82184 1.05717 1.66691 1.15725 1.5515C1.20586 1.49562 1.26388 1.45123 1.32791 1.42092C1.39194 1.39061 1.46069 1.375 1.53015 1.375C1.5996 1.375 1.66836 1.39061 1.73239 1.42092C1.79642 1.45123 1.85444 1.49562 1.90305 1.5515L7.85105 8.42329C7.95547 8.54396 8.01392 8.70582 8.01392 8.87434C8.01392 9.04286 7.95547 9.20471 7.85105 9.32539L1.90419 16.1972C1.85555 16.2535 1.79739 16.2982 1.73315 16.3287C1.6689 16.3593 1.59988 16.375 1.53015 16.375C1.46042 16.375 1.39139 16.3593 1.32715 16.3287C1.26291 16.2982 1.20475 16.2535 1.1561 16.1972C1.05603 16.0818 1 15.9268 1 15.7655C1 15.6042 1.05603 15.4493 1.1561 15.3338H1.15725Z" fill="#D9D9D9" stroke="#D9D9D9"/>
</svg>
