<svg xmlns="http://www.w3.org/2000/svg" xmlns:xlink="http://www.w3.org/1999/xlink" width="30" height="30" viewBox="0 0 30 30">
  <defs>
    <clipPath id="clip-path">
      <rect id="사각형_1022" data-name="사각형 1022" width="30" height="30" transform="translate(166 395)" fill="none"/>
    </clipPath>
  </defs>
  <g id="마스크_그룹_56" data-name="마스크 그룹 56" transform="translate(-166 -395)" clip-path="url(#clip-path)">
    <g id="그룹_2755" data-name="그룹 2755" transform="translate(-13.005 -16.412)">
      <circle id="타원_115" data-name="타원 115" cx="6.5" cy="6.5" r="6.5" transform="translate(181 413)" fill="#00a9e0" opacity="0.4"/>
      <g id="그룹_2747" data-name="그룹 2747" transform="translate(180.004 412.412)">
        <path id="패스_5823" data-name="패스 5823" d="M262.9,126.183a7.252,7.252,0,0,0-.8-14.456,7.249,7.249,0,0,0-.8,14.456l.243.027v5.56h-2.771a.56.56,0,1,0,0,1.12h2.771v2.771a.56.56,0,1,0,1.12,0V132.89h2.771a.56.56,0,1,0,0-1.12h-2.771v-5.561Zm-.8-1.075a6.13,6.13,0,1,1,6.1-6.1A6.137,6.137,0,0,1,262.094,125.107Z" transform="translate(-254.816 -111.727)" fill="#2a2a2a"/>
        <path id="패스_5824" data-name="패스 5824" d="M282.449,126.728l-.244-.027v-8.1l2.375,2.376a.562.562,0,0,0,.792,0,.56.56,0,0,0,0-.792l-3.331-3.331a.562.562,0,0,0-.792,0l-3.331,3.331a.56.56,0,0,0,.792.792l2.375-2.376v8.1l-.243.027a7.252,7.252,0,0,0,.8,14.456,7.249,7.249,0,0,0,.8-14.456Zm-.8,13.337a6.13,6.13,0,1,1,6.159-6.159A6.137,6.137,0,0,1,281.645,140.065Z" transform="translate(-261.044 -113.303)" fill="#2a2a2a"/>
      </g>
    </g>
  </g>
</svg>
