<svg xmlns="http://www.w3.org/2000/svg" xmlns:xlink="http://www.w3.org/1999/xlink" width="30" height="30" viewBox="0 0 30 30">
  <defs>
    <clipPath id="clip-path">
      <rect id="사각형_1026" data-name="사각형 1026" width="30" height="30" transform="translate(230 470.814)" fill="none"/>
    </clipPath>
  </defs>
  <g id="마스크_그룹_60" data-name="마스크 그룹 60" transform="translate(-230 -470.814)" clip-path="url(#clip-path)">
    <g id="그룹_2991" data-name="그룹 2991" transform="translate(-1 -1)">
      <rect id="사각형_910" data-name="사각형 910" width="13.648" height="4.777" transform="translate(239 489.877) rotate(-45)" fill="#00a9e0" opacity="0.4"/>
      <path id="패스_5827" data-name="패스 5827" d="M344.628,178.167l.11-.052a1.838,1.838,0,0,0,.525-.361l.927-.927a1.883,1.883,0,0,0,0-2.659l-5.56-5.561a1.884,1.884,0,0,0-2.659,0l-.927.927a1.858,1.858,0,0,0-.361.525l-.052.11-1.561-1.561a1.884,1.884,0,0,0-2.66,0l-.927.927a1.885,1.885,0,0,0,0,2.66l3.3,3.3-8.461,8.461-3.3-3.3a1.882,1.882,0,0,0-2.659,0l-.927.927a1.883,1.883,0,0,0,0,2.659L321,185.8l-.109.051a1.849,1.849,0,0,0-.525.362l-.927.927a1.882,1.882,0,0,0,0,2.659l5.56,5.56a1.882,1.882,0,0,0,2.659,0l.927-.927a1.835,1.835,0,0,0,.362-.525L329,193.8l1.561,1.561a1.882,1.882,0,0,0,2.659,0l.927-.927a1.884,1.884,0,0,0,0-2.659l-3.3-3.3,8.461-8.461,3.3,3.3a1.882,1.882,0,0,0,2.659,0l.927-.927a1.882,1.882,0,0,0,0-2.659Zm-6.779-7.826.927-.927a.759.759,0,0,1,1.047,0l5.561,5.561a.742.742,0,0,1,0,1.047l-.927.926a.741.741,0,0,1-1.047,0l-5.56-5.559a.742.742,0,0,1,0-1.047Zm-10.073,23.288-.927.927a.742.742,0,0,1-1.047,0l-5.56-5.56a.742.742,0,0,1,0-1.047l.927-.927a.742.742,0,0,1,1.047,0l5.56,5.561A.741.741,0,0,1,327.776,193.628Zm5.56-1.047a.74.74,0,0,1,0,1.047l-.927.927a.741.741,0,0,1-1.047,0l-11.121-11.12a.742.742,0,0,1,0-1.047l.927-.927a.761.761,0,0,1,1.047,0Zm-3.3-4.916-2.9-2.9,8.461-8.461,2.9,2.9Zm15.351-6.084-.927.927a.742.742,0,0,1-1.047,0l-11.121-11.12a.742.742,0,0,1,0-1.047l.927-.927a.744.744,0,0,1,1.048,0l11.12,11.121A.742.742,0,0,1,345.384,181.581Z" transform="translate(-86.886 304.757)" fill="#2a2a2a"/>
    </g>
  </g>
</svg>
