<svg xmlns="http://www.w3.org/2000/svg" xmlns:xlink="http://www.w3.org/1999/xlink" width="30" height="30" viewBox="0 0 30 30">
  <defs>
    <clipPath id="clip-path">
      <rect id="사각형_1029" data-name="사각형 1029" width="30" height="30" transform="translate(168 546.814)" fill="none"/>
    </clipPath>
  </defs>
  <g id="마스크_그룹_63" data-name="마스크 그룹 63" transform="translate(-168 -546.814)" clip-path="url(#clip-path)">
    <g id="그룹_2995" data-name="그룹 2995" transform="translate(-1 -1)">
      <path id="합치기_12" data-name="합치기 12" d="M2.667,8V5.333H0V2.667H2.667V0H5.333V2.667H8V5.333H5.333V8Z" transform="translate(180 558.598)" fill="#00a9e0" opacity="0.4"/>
      <g id="그룹_2753" data-name="그룹 2753" transform="translate(171 547.814)">
        <g id="그룹_2750" data-name="그룹 2750" transform="translate(0)">
          <path id="패스_5852" data-name="패스 5852" d="M241.02,255.584a1.008,1.008,0,0,1-.313-.05,21.339,21.339,0,0,1-6.268-3.647,17.95,17.95,0,0,1-4.322-5.177,16.435,16.435,0,0,1-1.978-7.965v-5.715a2.767,2.767,0,0,1,2.764-2.764h3.737a6.434,6.434,0,0,0,5.5-3.438,1,1,0,0,1,1.762,0,6.434,6.434,0,0,0,5.5,3.438h3.738a2.768,2.768,0,0,1,2.764,2.764v5.715a16.5,16.5,0,0,1-1.978,7.988,17.869,17.869,0,0,1-4.323,5.177,20.99,20.99,0,0,1-6.265,3.625A1,1,0,0,1,241.02,255.584ZM230.9,231.391a1.639,1.639,0,0,0-1.638,1.638v5.715a15.324,15.324,0,0,0,1.84,7.426,16.821,16.821,0,0,0,4.054,4.851,20.247,20.247,0,0,0,5.86,3.43,20.281,20.281,0,0,0,5.86-3.409,16.758,16.758,0,0,0,4.053-4.849,15.387,15.387,0,0,0,1.84-7.45v-5.715a1.639,1.639,0,0,0-1.638-1.638H247.4a7.558,7.558,0,0,1-6.378-3.834,7.558,7.558,0,0,1-6.379,3.834Z" transform="translate(-228.14 -226.304)" fill="#2a2a2a"/>
        </g>
        <g id="그룹_2751" data-name="그룹 2751" transform="translate(2.146 2.842)">
          <path id="패스_5853" data-name="패스 5853" d="M242.019,254.483l-.2-.072a18.763,18.763,0,0,1-5.2-3.062,13.968,13.968,0,0,1-5.343-11.135v-5.082a1.739,1.739,0,0,1,1.738-1.738h3.324a6,6,0,0,0,3.252-.981,6.726,6.726,0,0,0,1.73-1.613.888.888,0,0,1,1.383,0,6.714,6.714,0,0,0,1.73,1.613,6,6,0,0,0,3.252.981h3.324a1.739,1.739,0,0,1,1.738,1.738v5.082a13.962,13.962,0,0,1-5.322,11.136,18.633,18.633,0,0,1-5.218,3.062Zm-9-19.963a.612.612,0,0,0-.612.612v5.082a12.891,12.891,0,0,0,4.938,10.271,18.018,18.018,0,0,0,4.672,2.8,17.925,17.925,0,0,0,4.69-2.794,12.883,12.883,0,0,0,4.917-10.271v-5.082a.613.613,0,0,0-.612-.612h-3.324a7.123,7.123,0,0,1-3.862-1.16,7.831,7.831,0,0,1-1.811-1.618,7.818,7.818,0,0,1-1.811,1.618,7.12,7.12,0,0,1-3.862,1.16Z" transform="translate(-231.284 -230.469)" fill="#2a2a2a"/>
        </g>
        <g id="그룹_2752" data-name="그룹 2752" transform="translate(8.182 9.942)">
          <path id="패스_5854" data-name="패스 5854" d="M245.885,250.269h-2.113a.886.886,0,0,1-.885-.885v-1.871h-1.871a.886.886,0,0,1-.886-.885v-2.113a.886.886,0,0,1,.886-.884h1.871v-1.872a.886.886,0,0,1,.885-.885h2.113a.886.886,0,0,1,.885.885v1.872h1.872a.886.886,0,0,1,.885.884v2.113a.886.886,0,0,1-.885.885H246.77v1.871A.886.886,0,0,1,245.885,250.269Zm-1.872-1.126h1.631v-2.757H248.4v-1.63h-2.757V242h-1.631v2.757h-2.756v1.63h2.756Z" transform="translate(-240.13 -240.873)" fill="#2a2a2a"/>
        </g>
      </g>
    </g>
  </g>
</svg>
