<svg xmlns="http://www.w3.org/2000/svg" xmlns:xlink="http://www.w3.org/1999/xlink" width="30" height="30" viewBox="0 0 30 30">
  <defs>
    <clipPath id="clip-path">
      <rect id="사각형_1023" data-name="사각형 1023" width="30" height="30" transform="translate(231 396)" fill="none" opacity="0.3"/>
    </clipPath>
  </defs>
  <g id="마스크_그룹_57" data-name="마스크 그룹 57" transform="translate(-231 -396)" clip-path="url(#clip-path)">
    <g id="그룹_2756" data-name="그룹 2756" transform="translate(9.641 -15.412)">
      <rect id="사각형_907" data-name="사각형 907" width="5" height="23" transform="translate(241 415)" fill="#00a9e0" opacity="0.4"/>
      <path id="패스_5825" data-name="패스 5825" d="M333.172,136.622h-1.514V114.738a.815.815,0,0,0,.662-.8v-1.643a.821.821,0,0,0-.819-.82H318.941a.544.544,0,0,0,0,1.088h3.936v.551a1.644,1.644,0,0,0,1.64,1.642h1.217v21.868h-4.292a2.708,2.708,0,0,0-1.938-1.727c-.031-.008-.057-.015-.079-.022,0-.05,0-.1,0-.145v-2.1a.82.82,0,0,0,.544-.769V128.54a1.5,1.5,0,0,0,.442.066,1.532,1.532,0,0,0,1.53-1.531V123.51a4.4,4.4,0,0,0-1.022-2.99,3.446,3.446,0,0,0-1.643-1.03,3.26,3.26,0,0,0,.785-1.964v-.86a3.783,3.783,0,0,0-1.039-2.747,3.258,3.258,0,0,0-4.641,0,3.783,3.783,0,0,0-1.039,2.747v.86a3.264,3.264,0,0,0,.784,1.964,3.447,3.447,0,0,0-1.644,1.03,4.4,4.4,0,0,0-1.023,2.99v3.565a1.533,1.533,0,0,0,1.531,1.531,1.505,1.505,0,0,0,.442-.066v3.319a.82.82,0,0,0,.544.769v2.1c0,.042,0,.1,0,.145l-.08.022a2.7,2.7,0,0,0-1.937,1.727h-1.029a1.54,1.54,0,0,0-1.537,1.539v.727a.811.811,0,0,0,.81.811h22.973a.842.842,0,0,0,.841-.841v-1.4A.842.842,0,0,0,333.172,136.622Zm-19.741-12.086v2.539a.443.443,0,1,1-.886,0v-2.539Zm1-7.417a1.944,1.944,0,0,0,.867-.563,1.086,1.086,0,0,1,.133-.126l.078.016.042.011a2.864,2.864,0,0,0,2.3,0l.046-.012a.756.756,0,0,1,.074-.017h0a1,1,0,0,1,.136.128,1.936,1.936,0,0,0,.867.563v.408a2.794,2.794,0,0,1-1.757,2.2,1.268,1.268,0,0,1-1.031,0,2.792,2.792,0,0,1-1.755-2.2Zm2.272,4.3a.862.862,0,0,1-.789-.633,2.291,2.291,0,0,0,1.577,0A.86.86,0,0,1,316.7,121.416Zm1.274-6.072a1.44,1.44,0,0,0-.351.047l-.074.02a7.308,7.308,0,0,1-.85.2,7.406,7.406,0,0,1-.856-.2l-.067-.018a1.166,1.166,0,0,0-1.235.378,2.21,2.21,0,0,1,4.316,0A1.188,1.188,0,0,0,317.974,115.345Zm-3.206,5.115a1.935,1.935,0,1,0,3.864,0,2.731,2.731,0,0,1,2.22,2.987h-1.428a.545.545,0,0,0-.544.544v2.54h-4.36v-2.54a.545.545,0,0,0-.545-.544h-1.429A2.731,2.731,0,0,1,314.768,120.46Zm1.388,9.027v2.1H314.52v-3.969h4.36v3.969h-1.636v-2.1Zm1.088,3.189h1.093v2.052c0,.683.13,1.022.9,1.221a1.959,1.959,0,0,1,1.029.674h-3.018Zm-3.078,3.272c.767-.2.9-.537.9-1.22v-2.052h1.093v3.946h-3.019a1.961,1.961,0,0,1,1.029-.674Zm5.8-11.412h.884v2.539a.442.442,0,1,1-.884,0Zm10.6,12.086h-3.748v-1.208h1.4a.544.544,0,0,0,0-1.088h-1.4v-1.208h.517a.544.544,0,0,0,0-1.088h-.517v-1.208h1.4a.544.544,0,0,0,0-1.088h-1.4v-1.208h.517a.544.544,0,0,0,0-1.088h-.517v-1.209h1.4a.544.544,0,0,0,0-1.088h-1.4v-1.207h.517a.544.544,0,0,0,0-1.088h-.517V121.64h1.4a.544.544,0,0,0,0-1.088h-1.4v-1.208h.517a.544.544,0,0,0,0-1.088h-.517v-1.208h1.4a.544.544,0,0,0,0-1.088h-1.4v-1.208h3.748v21.868Zm.662-24.062v1.105h-6.715a.554.554,0,0,1-.553-.554v-.551Zm-20.755,25.6a.451.451,0,0,1,.45-.452h22v.9H310.478Z" transform="translate(-85.031 300.94)" fill="#2a2a2a"/>
    </g>
  </g>
</svg>
