<svg xmlns="http://www.w3.org/2000/svg" xmlns:xlink="http://www.w3.org/1999/xlink" width="30" height="30" viewBox="0 0 30 30">
  <defs>
    <clipPath id="clip-path">
      <rect id="사각형_1031" data-name="사각형 1031" width="30" height="30" transform="translate(293 545.814)" fill="none"/>
    </clipPath>
  </defs>
  <g id="마스크_그룹_65" data-name="마스크 그룹 65" transform="translate(-293 -545.814)" clip-path="url(#clip-path)">
    <g id="그룹_2998" data-name="그룹 2998" transform="translate(-0.75 -1.682)">
      <path id="사각형_915" data-name="사각형 915" d="M0,0H12a0,0,0,0,1,0,0V0A6,6,0,0,1,6,6H6A6,6,0,0,1,0,0V0A0,0,0,0,1,0,0Z" transform="translate(302.5 567.598)" fill="#00a9e0" opacity="0.4"/>
      <path id="패스_5849" data-name="패스 5849" d="M401.38,249.613h-.752a2.964,2.964,0,0,0,.661-1.868,9.562,9.562,0,0,0-9.562-9.563h-.311v-1.434a4.863,4.863,0,0,0,2.5-4.246v-2.68a4.86,4.86,0,0,0-9.72,0v2.68a4.827,4.827,0,0,0,.379,1.881H376.39a.555.555,0,1,0,0,1.11h.665a2.047,2.047,0,0,0-.233.951v1.344l-1.355,5.4a3.041,3.041,0,0,0,2.949,3.78h1.975v2.642h-3.662a1.887,1.887,0,1,0,0,3.775h24.65a1.887,1.887,0,1,0,0-3.775ZM392.8,232.5a3.75,3.75,0,1,1-7.5,0v-1.424h.142a7.126,7.126,0,0,0,3.608-.978,7.126,7.126,0,0,0,3.608.978h.142Zm-2.5,4.7v1.194a1.25,1.25,0,0,1-2.5,0V237.2a4.873,4.873,0,0,0,2.5,0Zm-5-7.377a3.75,3.75,0,0,1,7.5,0v.146h-.142a6.018,6.018,0,0,1-3.3-.985.555.555,0,0,0-.608,0,6.014,6.014,0,0,1-3.3.985H385.3Zm-2.112,5.671h1.375v.459a.688.688,0,0,1-1.375,0Zm-1.11,0v.459a1.8,1.8,0,0,0,3.595.041,4.847,4.847,0,0,0,1.017.755V238.2a10,10,0,0,0-5.75,2.17v-3.922a2.047,2.047,0,0,0-.233-.951Zm-4.15.951a.951.951,0,0,1,1.9,0v.858h-1.9Zm.484,9.417a1.929,1.929,0,0,1-1.872-2.4l1.266-5.05h2.024v4.158a.555.555,0,0,0,1.11,0v-.725a8.91,8.91,0,0,1,5.931-2.545,2.36,2.36,0,0,0,4.362-.008h.489a8.453,8.453,0,0,1,8.452,8.453,1.87,1.87,0,0,1-1.868,1.868h-5.627A6.541,6.541,0,0,0,395,246.837h2.065a.555.555,0,1,0,0-1.111h-1.692a6.5,6.5,0,0,0,.175-1.5.555.555,0,0,0-.555-.555H383.114a.555.555,0,0,0-.555.555,6.5,6.5,0,0,0,2.867,5.385H381.5v-3.2a.555.555,0,0,0-.555-.555Zm10.638,3.752a5.394,5.394,0,0,1-5.357-4.831h10.715A5.394,5.394,0,0,1,389.054,249.613Zm12.325,2.665h-24.65a.777.777,0,1,1,0-1.554h24.65a.777.777,0,0,1,0,1.554Z" transform="translate(-80.091 323.534)" fill="#2a2a2a"/>
    </g>
  </g>
</svg>
