<svg xmlns="http://www.w3.org/2000/svg" xmlns:xlink="http://www.w3.org/1999/xlink" width="30" height="30" viewBox="0 0 30 30">
  <defs>
    <clipPath id="clip-path">
      <rect id="사각형_1028" data-name="사각형 1028" width="30" height="30" transform="translate(106 576)" fill="none"/>
    </clipPath>
  </defs>
  <g id="마스크_그룹_62" data-name="마스크 그룹 62" transform="translate(-106 -576)" clip-path="url(#clip-path)">
    <g id="그룹_2994" data-name="그룹 2994" transform="translate(0 -2.682)">
      <path id="사각형_912" data-name="사각형 912" d="M0,0H11.6a0,0,0,0,1,0,0V7.847a5.8,5.8,0,0,1-5.8,5.8h0A5.8,5.8,0,0,1,0,7.847V0A0,0,0,0,1,0,0Z" transform="matrix(0.719, 0.695, -0.695, 0.719, 115.48, 587.722)" fill="#00a9e0" opacity="0.4"/>
      <g id="그룹_2749" data-name="그룹 2749" transform="translate(108 579.682)">
        <path id="패스_5840" data-name="패스 5840" d="M189.25,234.384a6.382,6.382,0,0,0-4.446-10.92h-.039a6.334,6.334,0,0,0-4.484,1.845l-5.463,5.458a.554.554,0,0,0-.214.214l-.017.023-5.422,5.415a6.4,6.4,0,0,0,.007,9.023,6.465,6.465,0,0,0,9.056,0L183.648,240a.792.792,0,0,0,.107-.087.639.639,0,0,0,.074-.091Zm-11.816,10.257a5.268,5.268,0,0,1-7.469-7.43l5.155-5.155.072.072,7.363,7.377Zm5.915-5.942-.072-.073-7.363-7.364,5.114-5.114a5.253,5.253,0,0,1,7.429,7.429Z" transform="translate(-167.305 -223.464)" fill="#2a2a2a"/>
        <path id="패스_5841" data-name="패스 5841" d="M200.914,248.086a6.248,6.248,0,0,0-4.439-1.879h-.048A6.261,6.261,0,0,0,192,248.026l-.06.059a6.35,6.35,0,0,0,4.483,10.844h0a6.351,6.351,0,0,0,4.5-10.838Zm-8.63,7.673a5.224,5.224,0,0,1,7.321-7.327l.093.071-.083.083-7.261,7.267Zm7.837.51a5.236,5.236,0,0,1-6.874.448l-.093-.071.083-.083,7.261-7.26.071.092A5.221,5.221,0,0,1,200.121,256.268Z" transform="translate(-174.539 -230.688)" fill="#2a2a2a"/>
      </g>
    </g>
  </g>
</svg>
