<svg xmlns="http://www.w3.org/2000/svg" width="28.427" height="23.522" viewBox="0 0 28.427 23.522">
  <g id="그룹_2754" data-name="그룹 2754" transform="translate(-137.014 -415.141)">
    <path id="패스_5850" data-name="패스 5850" d="M-3034.212-699.824c-.1-.352,0-9.755,0-9.755l3.269,1.559h1.76l2.162-1.257h1.76l2.665,1.257h1.257l2.464-1.559h1.358l3.319,1.559h1.006l2.917-1.559v9.755Z" transform="translate(3173.143 1137.686)" fill="#00a9e0" opacity="0.4"/>
    <path id="패스_5822" data-name="패스 5822" d="M211.353,125.27h-.948a1.664,1.664,0,0,0-1.662,1.662v11.784h-1.15a.555.555,0,1,0,0,1.111h27.316a.555.555,0,0,0,0-1.111h-1.15V126.932a1.664,1.664,0,0,0-1.662-1.662h-.948m-3.366,0v-1.612a2.254,2.254,0,0,0,1.466-3.182l-1.524-3.086a.555.555,0,0,0-1,0l-1.524,3.086a2.252,2.252,0,0,0,1.466,3.182v1.612h-4.866v-2.386a2.253,2.253,0,0,0,1.466-3.182l-1.523-3.086a.555.555,0,0,0-1,0L219.23,119.7a2.253,2.253,0,0,0,1.466,3.182v2.386h-4.866v-1.61a2.256,2.256,0,0,0,1.466-3.184l-1.523-3.086a.555.555,0,0,0-1,0l-1.524,3.086a2.256,2.256,0,0,0,1.466,3.184v1.61Zm-1.364-2.987a1.144,1.144,0,0,1-.217-1.316l1.026-2.078,1.026,2.078a1.144,1.144,0,0,1-.217,1.316,1.12,1.12,0,0,1-.254.19,1.143,1.143,0,0,1-1.11,0A1.12,1.12,0,0,1,226.419,122.283Zm-5.976-.775a1.143,1.143,0,0,1-.217-1.315l1.026-2.078,1.026,2.078a1.144,1.144,0,0,1-.216,1.316,1.162,1.162,0,0,1-.254.19,1.147,1.147,0,0,1-1.11,0A1.128,1.128,0,0,1,220.443,121.508Zm-5.976.775a1.144,1.144,0,0,1-.217-1.316l1.026-2.078,1.026,2.078a1.144,1.144,0,0,1-.216,1.316,1.12,1.12,0,0,1-.254.19,1.143,1.143,0,0,1-1.11,0A1.106,1.106,0,0,1,214.466,122.283Zm15.573,2.987H212.464m20.185,13.446h-22.8v-8.747a2.818,2.818,0,0,1,1.129.524,3.871,3.871,0,0,0,4.6,0,2.771,2.771,0,0,1,3.368,0,3.871,3.871,0,0,0,4.6,0,2.771,2.771,0,0,1,3.368,0,3.872,3.872,0,0,0,4.6,0,2.817,2.817,0,0,1,1.129-.524Zm0-9.871a3.752,3.752,0,0,0-1.746.723,2.769,2.769,0,0,1-3.368,0,3.871,3.871,0,0,0-4.6,0,2.769,2.769,0,0,1-3.368,0,3.872,3.872,0,0,0-4.6,0,2.768,2.768,0,0,1-3.368,0,3.752,3.752,0,0,0-1.745-.723v-1.913a.552.552,0,0,1,.551-.551H232.1a.552.552,0,0,1,.552.551Z" transform="translate(-70.024 298.836)" fill="#2a2a2a"/>
  </g>
</svg>
