<svg xmlns="http://www.w3.org/2000/svg" xmlns:xlink="http://www.w3.org/1999/xlink" width="30" height="30" viewBox="0 0 30 30">
  <defs>
    <clipPath id="clip-path">
      <rect id="사각형_1025" data-name="사각형 1025" width="30" height="30" transform="translate(168 472.814)" fill="none"/>
    </clipPath>
  </defs>
  <g id="마스크_그룹_59" data-name="마스크 그룹 59" transform="translate(-168 -472.814)" clip-path="url(#clip-path)">
    <g id="그룹_2990" data-name="그룹 2990" transform="translate(-1 0.588)">
      <rect id="사각형_909" data-name="사각형 909" width="14" height="5" transform="translate(180 492)" fill="#00a9e0" opacity="0.4"/>
      <g id="그룹_2748" data-name="그룹 2748" transform="translate(169 476.226)">
        <path id="패스_5828" data-name="패스 5828" d="M293.245,184.829c1.68,1.26,3.267,2.45,3.267,5.662a.536.536,0,1,0,1.072,0c0-3.749-1.878-5.158-3.694-6.52-1.68-1.26-3.267-2.45-3.267-5.662a.536.536,0,0,0-1.072,0C289.551,182.058,291.429,183.467,293.245,184.829Z" transform="translate(-272.031 -177.773)" fill="#2a2a2a"/>
        <path id="패스_5829" data-name="패스 5829" d="M303.233,190.491a.536.536,0,1,0,1.072,0,9.773,9.773,0,0,0-1.83-6.388,8.661,8.661,0,0,1-1.651-5.794.536.536,0,0,0-1.072,0,9.775,9.775,0,0,0,1.83,6.389A8.658,8.658,0,0,1,303.233,190.491Z" transform="translate(-275.271 -177.773)" fill="#2a2a2a"/>
        <path id="패스_5830" data-name="패스 5830" d="M292.374,200.726H264.413a.536.536,0,0,0-.536.536v5.221a.536.536,0,0,0,.536.536h27.961a.536.536,0,0,0,.536-.536v-5.221A.536.536,0,0,0,292.374,200.726Zm-18,5.221H264.95V201.8h9.427Zm13.981,0H275.45V201.8h12.908Zm3.481,0H289.43V201.8h2.409Z" transform="translate(-263.877 -185.063)" fill="#2a2a2a"/>
      </g>
    </g>
  </g>
</svg>
