<svg xmlns="http://www.w3.org/2000/svg" xmlns:xlink="http://www.w3.org/1999/xlink" width="30" height="30" viewBox="0 0 30 30">
  <defs>
    <clipPath id="clip-path">
      <rect id="사각형_1032" data-name="사각형 1032" width="30" height="30" transform="translate(293 396)" fill="none"/>
    </clipPath>
  </defs>
  <g id="마스크_그룹_66" data-name="마스크 그룹 66" transform="translate(-293 -396)" clip-path="url(#clip-path)">
    <g id="그룹_2757" data-name="그룹 2757" transform="translate(29.38 -15.412)">
      <circle id="타원_116" data-name="타원 116" cx="4" cy="4" r="4" transform="translate(275 423)" fill="#00a9e0" opacity="0.4"/>
      <path id="패스_5826" data-name="패스 5826" d="M381.906,122.789l-.119-.2,1.578-1.578a.565.565,0,0,0-.353-.964l-2.871-.242-.242-2.871a.566.566,0,0,0-.964-.352l-1.578,1.578-.2-.119a14.308,14.308,0,1,0,4.743,4.743Zm-3.032-4.541.179,2.134a.565.565,0,0,0,.517.516l2.134.18-2.583,2.582-2.61-.22-.22-2.609ZM369.3,130.654a.581.581,0,0,0,.8,0l2.242-2.242.184.346a3.2,3.2,0,1,1-1.33-1.33l.346.184-2.242,2.242a.566.566,0,0,0,0,.8Zm3.038-3.838-.2-.136a4.336,4.336,0,1,0,1.135,1.135l-.136-.2,2.84-2.841.2.251a8.341,8.341,0,1,1-1.253-1.253l.25.2Zm7.284-2.083.073-.05,1.276-1.272.188.33a13.174,13.174,0,1,1-4.947-4.947l.33.188-1.234,1.233a.561.561,0,0,0-.165.385l.167,2.015-.5-.319a9.47,9.47,0,1,0,2.844,2.844l-.32-.5,1.953.164h.076l.18-.038Zm-.161.063" transform="translate(-90.769 296.467)" fill="#2a2a2a"/>
    </g>
  </g>
</svg>
