<svg xmlns="http://www.w3.org/2000/svg" xmlns:xlink="http://www.w3.org/1999/xlink" width="30" height="30" viewBox="0 0 30 30">
  <defs>
    <clipPath id="clip-path">
      <rect id="사각형_1027" data-name="사각형 1027" width="30" height="30" transform="translate(292 470.814)" fill="none"/>
    </clipPath>
  </defs>
  <g id="마스크_그룹_61" data-name="마스크 그룹 61" transform="translate(-292 -470.814)" clip-path="url(#clip-path)">
    <g id="그룹_2992" data-name="그룹 2992" transform="translate(-1.75 -1)">
      <path id="사각형_911" data-name="사각형 911" d="M0,0H11a0,0,0,0,1,0,0V8a5,5,0,0,1-5,5H5A5,5,0,0,1,0,8V0A0,0,0,0,1,0,0Z" transform="translate(306.5 488)" fill="#00a9e0" opacity="0.4"/>
      <g id="그룹_2740" data-name="그룹 2740" transform="translate(294.75 472.814)">
        <path id="패스_5831" data-name="패스 5831" d="M396.967,184.657h-.837v-1.114a.547.547,0,0,0-.547-.547H388.29a8.493,8.493,0,0,0,2.16-4.835,8.624,8.624,0,1,0-9.506,7.641,8.725,8.725,0,0,0,1.864,0,8.611,8.611,0,0,0,1.273-.235v6.848a4.232,4.232,0,0,0,4.227,4.227h3.6a4.259,4.259,0,0,0,4.017-2.912h1.047a4.512,4.512,0,0,0,.992-.113.507.507,0,0,0,.211-.016,4.466,4.466,0,0,0,2.107-1.32l.045-.035a4.536,4.536,0,0,0-3.355-7.589Zm1.208,4.537a1.209,1.209,0,0,1-1.208,1.208h-.837v-2.416h.837A1.209,1.209,0,0,1,398.175,189.194Zm-2.044,3.222V191.5h.837a2.3,2.3,0,0,0,0-4.6h-.837V185.75h.837a3.434,3.434,0,0,1,2.962,5.188l-.008-.005-.073.118a3.411,3.411,0,0,1-1.37,1.26.394.394,0,0,0-.111.029,3.417,3.417,0,0,1-1.4.3h-.843C396.128,192.564,396.13,192.491,396.13,192.416Zm-1.092-8.326v8.326h0a3.137,3.137,0,0,1-3.134,3.134h-3.6a3.138,3.138,0,0,1-3.134-3.134V184.09Zm-7.907-6.289a5.286,5.286,0,0,1-5.827,4.683,5.234,5.234,0,0,1-2.985-1.346.111.111,0,0,0-.042-.027h0a5.391,5.391,0,0,1-.885-1.073l-.018-.044a5.463,5.463,0,0,1-.285-.528,5.237,5.237,0,0,1-.465-1.666,5.286,5.286,0,1,1,10.51,0Zm-.745,3.939a6.378,6.378,0,1,0-10.851-3.822,6.284,6.284,0,0,0,.4,1.608l-.014.005.051.127c.022.055.048.108.074.16l.076.16a6.3,6.3,0,0,0,1.453,1.977.26.26,0,0,0,.095.057,6.325,6.325,0,0,0,3.518,1.558,6.457,6.457,0,0,0,1.378,0,6.364,6.364,0,0,0,1.708-.435.539.539,0,0,0-.192.408v.888a7.492,7.492,0,0,1-1.392.285,7.711,7.711,0,0,1-1.626,0,7.535,7.535,0,1,1,5.656-1.72h-2.091a.546.546,0,0,0-.058.012A6.382,6.382,0,0,0,386.386,181.74Z" transform="translate(-373.252 -168.606)" fill="#2a2a2a"/>
        <path id="패스_5832" data-name="패스 5832" d="M390.519,180.989a.547.547,0,0,0,.547.547h.768a.546.546,0,1,0,0-1.093h-.768A.547.547,0,0,0,390.519,180.989Z" transform="translate(-378.736 -172.365)" fill="#2a2a2a"/>
        <path id="패스_5833" data-name="패스 5833" d="M379.847,180.443h-.768a.546.546,0,1,0,0,1.093h.768a.546.546,0,1,0,0-1.093Z" transform="translate(-374.929 -172.365)" fill="#2a2a2a"/>
        <path id="패스_5834" data-name="패스 5834" d="M385.636,175.747a.547.547,0,0,0,.547-.546v-.768a.547.547,0,0,0-1.093,0v.768A.547.547,0,0,0,385.636,175.747Z" transform="translate(-377.011 -170.283)" fill="#2a2a2a"/>
        <path id="패스_5835" data-name="패스 5835" d="M385.636,185.873a.548.548,0,0,0-.547.547v.768a.547.547,0,1,0,1.093,0v-.768A.548.548,0,0,0,385.636,185.873Z" transform="translate(-377.011 -174.09)" fill="#2a2a2a"/>
        <path id="패스_5836" data-name="패스 5836" d="M385.907,178.169h0a.544.544,0,0,0-.386.16l-.419.42a1.317,1.317,0,0,0-.934,0l-1.3-1.3a.546.546,0,1,0-.773.772l1.3,1.3a1.324,1.324,0,1,0,2.564.466,1.291,1.291,0,0,0-.086-.466l.42-.42a.547.547,0,0,0,0-.772A.54.54,0,0,0,385.907,178.169Zm-1.041,1.819a.231.231,0,0,1-.068.164h0a.237.237,0,0,1-.328,0,.232.232,0,0,1,0-.328.232.232,0,0,1,.164-.068.231.231,0,0,1,.231.231Z" transform="translate(-376.01 -171.365)" fill="#2a2a2a"/>
        <path id="패스_5837" data-name="패스 5837" d="M401.526,176.419a.882.882,0,0,1,0,1.764.547.547,0,1,0,0,1.093,1.975,1.975,0,1,0,0-3.95.882.882,0,1,1,0-1.764.547.547,0,1,0,0-1.093,1.975,1.975,0,0,0,0,3.95Z" transform="translate(-381.605 -169.833)" fill="#2a2a2a"/>
        <path id="패스_5838" data-name="패스 5838" d="M400.929,182.928a.882.882,0,1,1,0,1.764.546.546,0,1,0,0,1.092,1.975,1.975,0,0,0,0-3.95.882.882,0,0,1,0-1.764.546.546,0,1,0,0-1.092,1.975,1.975,0,0,0,0,3.95Z" transform="translate(-381.415 -171.9)" fill="#2a2a2a"/>
      </g>
    </g>
  </g>
</svg>
