<svg width="26" height="26" viewBox="0 0 26 26" fill="none" xmlns="http://www.w3.org/2000/svg">
<path d="M19.5397 13.8271C19.5525 12.8305 19.8153 11.8534 20.3037 10.9866C20.792 10.1198 21.4902 9.39158 22.333 8.86961C21.7976 8.0993 21.0912 7.46537 20.27 7.01816C19.4487 6.57095 18.5353 6.32279 17.6022 6.29338C15.6117 6.08293 13.6821 7.49313 12.6678 7.49313C11.6338 7.49313 10.0722 6.31428 8.3905 6.34913C7.30275 6.38453 6.24265 6.70315 5.31349 7.27394C4.38434 7.84473 3.61781 8.64823 3.0886 9.60614C0.796168 13.6041 2.50612 19.4797 4.70207 22.7113C5.80076 24.2938 7.08481 26.0614 8.76495 25.9987C10.4091 25.93 11.0231 24.9427 13.0077 24.9427C14.9739 24.9427 15.55 25.9987 17.2643 25.9589C19.0285 25.93 20.14 24.3694 21.2002 22.772C21.9896 21.6444 22.597 20.3982 23 19.0796C21.975 18.6429 21.1004 17.912 20.485 16.9779C19.8697 16.0439 19.5409 14.9481 19.5397 13.8271V13.8271Z" fill="white"/>
<path d="M16.3024 4.16772C17.2643 3.00454 17.7382 1.50946 17.6234 0C16.1538 0.15548 14.7963 0.862982 13.8214 1.98154C13.3447 2.52798 12.9796 3.16369 12.747 3.85234C12.5144 4.54099 12.4188 5.26907 12.4657 5.99496C13.2008 6.00258 13.928 5.84209 14.5926 5.52559C15.2571 5.20908 15.8417 4.7448 16.3024 4.16772Z" fill="white"/>
</svg>
