<svg width="26" height="26" viewBox="0 0 26 26" fill="none" xmlns="http://www.w3.org/2000/svg">
<path d="M12.7404 12.4141L2.09961 23.8371C2.09961 23.8371 2.09961 23.8371 2.09961 23.8472C2.42932 25.0906 3.54835 26.0004 4.87719 26.0004C5.40673 26.0004 5.9063 25.8589 6.33593 25.596L6.3659 25.5758L18.3355 18.5906L12.7404 12.4141Z" fill="#EA4335"/>
<path d="M23.5009 10.4729L23.4909 10.4628L18.3254 7.43018L12.5005 12.6767L18.3454 18.5904L23.4909 15.588C24.3901 15.0927 24.9996 14.1324 24.9996 13.0305C24.9996 11.9185 24.3902 10.9683 23.5009 10.4729Z" fill="#FBBC04"/>
<path d="M2.09991 2.16309C2.03997 2.4057 2 2.64831 2 2.91114V23.0985C2 23.3614 2.02997 23.604 2.09991 23.8466L13.1003 12.7167L2.09991 2.16309Z" fill="#4285F4"/>
<path d="M12.8203 13L18.3255 7.43002L6.3659 0.414463C5.93627 0.151633 5.42672 0 4.87719 0C3.54835 0 2.42932 0.919908 2.09961 2.15319L12.8203 13Z" fill="#34A853"/>
</svg>
