<svg id="예약하고_icon" xmlns="http://www.w3.org/2000/svg" width="38.207" height="38.205" viewBox="0 0 38.207 38.205">
  <circle id="타원_104" data-name="타원 104" cx="5" cy="5" r="5" transform="translate(1.506 23)" fill="#00a9e0" opacity="0.4"/>
  <path id="패스_3224" data-name="패스 3224" d="M473.1,527.784h-3.379V526.9a2.371,2.371,0,1,0-4.742,0v.886H452.839V526.9a2.371,2.371,0,1,0-4.742,0v.887h-3a3.864,3.864,0,0,0-3.85,3.851v16.43l-.037.038a6.236,6.236,0,0,0-.337,8.458c.056.064.113.128.172.191l.2.211h-1.605a.891.891,0,0,0-.892.89v1.916a2.971,2.971,0,0,0,2.964,2.962h32.279a2.971,2.971,0,0,0,2.964-2.963V531.636A3.863,3.863,0,0,0,473.1,527.784Zm-6.34-.887a.589.589,0,0,1,.172-.418.608.608,0,0,1,.835,0,.585.585,0,0,1,.172.419v3.443a.59.59,0,1,1-1.179,0Zm-16.88,0a.589.589,0,0,1,.172-.418.608.608,0,0,1,.835,0,.586.586,0,0,1,.173.419v3.443a.59.59,0,0,1-1.006.42.584.584,0,0,1-.174-.417Zm-8.727,25.617a4.441,4.441,0,1,1,4.442,4.44A4.447,4.447,0,0,1,441.151,552.514Zm.559,8.437a1.186,1.186,0,0,1-1.184-1.181v-1.026h30.5v1.025a2.946,2.946,0,0,0,.18,1.015l.062.168Zm33.461-1.182a1.183,1.183,0,0,1-2.366,0v-1.916a.892.892,0,0,0-.891-.891l-21.97,0,.2-.211a6.218,6.218,0,0,0-6.942-9.982l-.173.072V535.709h32.144Zm0-25.839H443.027v-2.294a2.078,2.078,0,0,1,2.072-2.072h3v.776a2.371,2.371,0,0,0,4.742,0v-.776h12.138v.776a2.371,2.371,0,0,0,4.742,0v-.776H473.1a2.076,2.076,0,0,1,2.071,2.072Z" transform="translate(-438.746 -524.527)" fill="#2a2a2a"/>
  <path id="패스_3225" data-name="패스 3225" d="M455.642,547.033h0A2.963,2.963,0,1,0,458.6,550,2.966,2.966,0,0,0,455.641,547.033Zm0,4.147a1.184,1.184,0,0,1-.838-2.02,1.213,1.213,0,0,1,1.674,0,1.184,1.184,0,0,1-.836,2.021Z" transform="translate(-438.746 -524.527)" fill="#1f2020"/>
  <path id="패스_3226" data-name="패스 3226" d="M462.556,547.033h0A2.963,2.963,0,1,0,465.518,550,2.966,2.966,0,0,0,462.555,547.033Zm0,4.147A1.184,1.184,0,1,1,463.738,550,1.185,1.185,0,0,1,462.555,551.18Z" transform="translate(-438.746 -524.527)" fill="#1f2020"/>
  <path id="패스_3227" data-name="패스 3227" d="M469.466,547.033A2.963,2.963,0,1,0,472.43,550,2.949,2.949,0,0,0,469.466,547.033Zm0,4.147A1.184,1.184,0,1,1,470.648,550,1.185,1.185,0,0,1,469.466,551.18Z" transform="translate(-438.746 -524.527)" fill="#1f2020"/>
  <path id="패스_3228" data-name="패스 3228" d="M448.733,539.333A2.964,2.964,0,1,0,451.7,542.3,2.966,2.966,0,0,0,448.733,539.333Zm0,4.146a1.183,1.183,0,1,1,1.184-1.183A1.184,1.184,0,0,1,448.733,543.479Z" transform="translate(-438.746 -524.527)" fill="#1f2020"/>
  <path id="패스_3229" data-name="패스 3229" d="M462.553,545.261a2.965,2.965,0,0,0,2.965-2.964,2.973,2.973,0,0,0-2.963-2.964h0a2.964,2.964,0,0,0,0,5.928Zm0-4.148a1.183,1.183,0,1,1-1.183,1.183A1.185,1.185,0,0,1,462.555,541.113Z" transform="translate(-438.746 -524.527)" fill="#1f2020"/>
  <path id="패스_3230" data-name="패스 3230" d="M469.466,545.261A2.964,2.964,0,1,0,466.5,542.3,2.966,2.966,0,0,0,469.466,545.261Zm0-4.148a1.183,1.183,0,1,1-1.183,1.183A1.184,1.184,0,0,1,469.466,541.113Z" transform="translate(-438.746 -524.527)" fill="#1f2020"/>
  <path id="패스_3231" data-name="패스 3231" d="M455.639,545.261A2.965,2.965,0,0,0,458.6,542.3a2.972,2.972,0,0,0-2.963-2.964h0a2.964,2.964,0,0,0,0,5.928Zm-.836-3.8a1.213,1.213,0,0,1,1.674,0,1.184,1.184,0,1,1-1.674,0Z" transform="translate(-438.746 -524.527)" fill="#1f2020"/>
  <path id="패스_3232" data-name="패스 3232" d="M445.4,554.8l2.936-2.936a.89.89,0,0,0-1.26-1.256l-2.306,2.3-.717-.719a.891.891,0,0,0-1.259,1.26l1.349,1.348A.911.911,0,0,0,445.4,554.8Z" transform="translate(-438.746 -524.527)" fill="#2a2a2a"/>
</svg>
