<svg xmlns="http://www.w3.org/2000/svg" width="31.952" height="41.933" viewBox="0 0 31.952 41.933">
  <g id="설문하고_icon" transform="translate(-76 -175)">
    <path id="사각형_644" data-name="사각형 644" d="M0,0H5A1,1,0,0,1,6,1V6A0,0,0,0,1,6,6H0A0,0,0,0,1,0,6V0A0,0,0,0,1,0,0Z" transform="translate(84 189)" fill="#00a9e0" opacity="0.4"/>
    <path id="사각형_645" data-name="사각형 645" d="M0,0H5A1,1,0,0,1,6,1V6A0,0,0,0,1,6,6H0A0,0,0,0,1,0,6V0A0,0,0,0,1,0,0Z" transform="translate(84 199)" fill="#00a9e0" opacity="0.4"/>
    <g id="그룹_1620" data-name="그룹 1620" transform="translate(76 175)">
      <path id="패스_3212" data-name="패스 3212" d="M380.982,543.165l.647.646a1.3,1.3,0,0,0,1.842,0l1.743-1.756a.744.744,0,0,0,.014-1.03l-.02-.017a.677.677,0,0,0-.525-.215.731.731,0,0,0-.521.219l-1.614,1.625-.519-.518a.741.741,0,0,0-1.047,1.048Zm4.034-2.089v.125h0v-.125Zm-3.839,1.893h0Z" transform="translate(-371.732 -516.595)" fill="#1f2020"/>
      <path id="패스_3213" data-name="패스 3213" d="M382.677,540.74a.883.883,0,0,0-.882-.882h-1.976a1.611,1.611,0,0,0-1.609,1.609v4.373a1.61,1.61,0,0,0,1.609,1.608h4.373a1.61,1.61,0,0,0,1.609-1.608v-1.534a.882.882,0,0,0-1.763,0v1.381h-4.064v-4.066H381.8A.883.883,0,0,0,382.677,540.74Z" transform="translate(-371.732 -516.595)" fill="#2a2a2a"/>
      <path id="패스_3214" data-name="패스 3214" d="M380.982,533.421l.648.647a1.3,1.3,0,0,0,1.841,0l1.743-1.754a.741.741,0,0,0,0-1.047.69.69,0,0,0-.522-.215.732.732,0,0,0-.525.218l-1.614,1.626-.519-.518a.738.738,0,0,0-1.047,0A.739.739,0,0,0,380.982,533.421Z" transform="translate(-371.732 -516.595)" fill="#1f2020"/>
      <path id="패스_3215" data-name="패스 3215" d="M382.677,531a.883.883,0,0,0-.882-.881h-1.976a1.611,1.611,0,0,0-1.609,1.609V536.1a1.611,1.611,0,0,0,1.609,1.608h4.373A1.611,1.611,0,0,0,385.8,536.1v-1.535a.882.882,0,0,0-1.763,0v1.38h-4.064v-4.065H381.8A.883.883,0,0,0,382.677,531Z" transform="translate(-371.732 -516.595)" fill="#2a2a2a"/>
      <path id="패스_3216" data-name="패스 3216" d="M400.387,517.839h-4.43a.882.882,0,1,0,0,1.763h4.43a1.536,1.536,0,0,1,1.534,1.534v34.1a1.537,1.537,0,0,1-1.534,1.535H375.029a1.536,1.536,0,0,1-1.533-1.535v-34.1a1.535,1.535,0,0,1,1.533-1.534h4.316v.652h-3.913a1.286,1.286,0,0,0-1.285,1.284v33.154a1.286,1.286,0,0,0,1.285,1.284h18.787a.753.753,0,0,0,.626-.26l6.165-6.167a.9.9,0,0,0,.257-.591l0-27.42a1.286,1.286,0,0,0-1.285-1.284h-3.913v-1.406a2.255,2.255,0,0,0-2.254-2.253H381.6a2.249,2.249,0,0,0-1.981,1.178l-.036.066h-4.553a3.3,3.3,0,0,0-3.3,3.3v34.1a3.3,3.3,0,0,0,3.3,3.3h25.358a3.3,3.3,0,0,0,3.3-3.3v-34.1A3.3,3.3,0,0,0,400.387,517.839ZM395.1,552.967v-1.624a1.535,1.535,0,0,1,1.533-1.535h1.625Zm-13.994-34.119a.492.492,0,0,1,.491-.492h12.218a.492.492,0,0,1,.491.492v2.224a.491.491,0,0,1-.491.491H381.6a.491.491,0,0,1-.491-.491Zm-1.207,3.728.208.183a2.255,2.255,0,0,0,1.49.566h12.218a2.251,2.251,0,0,0,1.491-.567l.208-.184v1.45a.328.328,0,0,1-.327.327H380.227a.327.327,0,0,1-.326-.327Zm.326,3.537h14.962a2.091,2.091,0,0,0,2.089-2.089v-1.681c0-.064,0-.127-.009-.191l-.012-.135h2.248v26.029h-2.87a3.3,3.3,0,0,0-3.3,3.3v2.871H375.911v-32.2h2.248l-.012.135c-.005.064-.009.127-.009.191v1.681A2.091,2.091,0,0,0,380.227,526.113Z" transform="translate(-371.732 -516.595)" fill="#2a2a2a"/>
      <path id="패스_3217" data-name="패스 3217" d="M387.678,531.878h8.646a.881.881,0,1,0,0-1.762h-8.646a.881.881,0,1,0,0,1.762Z" transform="translate(-371.732 -516.595)" fill="#2a2a2a"/>
      <path id="패스_3218" data-name="패스 3218" d="M387.678,534.3h8.646a.881.881,0,1,0,0-1.762h-8.646a.881.881,0,1,0,0,1.762Z" transform="translate(-371.732 -516.595)" fill="#2a2a2a"/>
      <path id="패스_3219" data-name="패스 3219" d="M387.678,544.046h8.646a.882.882,0,1,0,0-1.763h-8.646a.882.882,0,1,0,0,1.763Z" transform="translate(-371.732 -516.595)" fill="#2a2a2a"/>
      <path id="패스_3220" data-name="패스 3220" d="M387.678,541.621h8.646a.882.882,0,1,0,0-1.763h-8.646a.882.882,0,1,0,0,1.763Z" transform="translate(-371.732 -516.595)" fill="#2a2a2a"/>
    </g>
  </g>
</svg>
