<svg id="약사상담하면_icon" xmlns="http://www.w3.org/2000/svg" width="37.85" height="37.916" viewBox="0 0 37.85 37.916">
  <path id="사각형_646" data-name="사각형 646" d="M0,0H4A0,0,0,0,1,4,0V5A1,1,0,0,1,3,6H1A1,1,0,0,1,0,5V0A0,0,0,0,1,0,0Z" transform="matrix(0.719, 0.695, -0.695, 0.719, 26.274, 27.453)" fill="#00a9e0" opacity="0.4"/>
  <path id="패스_3233" data-name="패스 3233" d="M336.951,544.34l-.012-.019c-.011-.021-.021-.044-.031-.066a.372.372,0,0,0-.045-.083,9.581,9.581,0,0,0-2.416-2.089l-.041-.027c-.013-.007-.028-.014-.042-.023a9.423,9.423,0,0,0-.987-.52c-.1-.045-.194-.085-.293-.125l-.044-.019c-.065-.027-.131-.056-.2-.086s-.132-.059-.2-.087l-.117-.011a9.533,9.533,0,0,0-11.97,5.2l-.05.112-.113-.048a1.377,1.377,0,0,0-.707-.1l-.14.017v-1.293l.045-.038a8.07,8.07,0,0,0,2.58-3.918l.023-.08.083-.009a2.829,2.829,0,0,0,1.524-4.964l-.059-.05L325,530.926a4.044,4.044,0,0,0-3.226-4.947l-.07-.011-.025-.068a6.061,6.061,0,0,0-5.718-3.959h-1.744a7.875,7.875,0,0,0-2.138.3,8.913,8.913,0,0,0-6.154,6.213l-.019.111a8.875,8.875,0,0,0-.021,4.342l.766,3.107-.058.05a2.829,2.829,0,0,0,1.456,4.955l.081.01.022.079a8.07,8.07,0,0,0,2.588,3.948l.045.038v1.251l-.13-.005a1.194,1.194,0,0,0-.635.141l-2.668,1.31a1.382,1.382,0,0,0-.7.793l-.017.052-.051.021a9.112,9.112,0,0,0-2.47,1.62l-.049.032c0,.006-.022.025-.039.044s-.04.044-.061.064l-.093.084c-.045.04-.09.081-.132.124a.322.322,0,0,1-.038.062,9.243,9.243,0,0,0-1.975,3.049l-.026.11a9.113,9.113,0,0,0-.57,3.17v1.959a.87.87,0,1,0,1.74,0v-1.959a7.412,7.412,0,0,1,.811-3.363h0s0-.017.011-.037a7.74,7.74,0,0,1,2.8-2.959l.176-.1.237,3.81a.87.87,0,0,0,.664.792l.942.228.016.077.818,3.717a.875.875,0,0,0,.389.542.847.847,0,0,0,.646.119.87.87,0,0,0,.664-1.036l-.951-4.321a.878.878,0,0,0-.645-.661l-.845-.205-.273-4.365,2.011-.988,1.268,10.813a.871.871,0,0,0,.965.764.872.872,0,0,0,.763-.966l-.82-6.993.193.075a7.073,7.073,0,0,0,5.064,0l.194-.075-.82,6.993a.871.871,0,0,0,.765.966l.108.006a.869.869,0,0,0,.856-.77l.9-7.71.156.775a9.443,9.443,0,0,0,.6,1.914l.028.063-.039.057a.879.879,0,0,0-.132.3l-.952,4.324a.873.873,0,0,0,.661,1.035.847.847,0,0,0,.189.021.877.877,0,0,0,.85-.683l.659-3,.164.2a9.612,9.612,0,0,0,14.988-12.034ZM322.7,539.021l-.241.218.033-.324v-1.7l.209.192a1.086,1.086,0,0,1,0,1.611Zm-1.052-9.5a2.759,2.759,0,0,0,.424-1.434l0-.218.187.112a2.329,2.329,0,0,1,.628.557,2.287,2.287,0,0,1,.421,1.969l-.819,3.323V532.5a4.29,4.29,0,0,0-.935-2.669l-.056-.069Zm-13.8,9.663-.217-.236a1.088,1.088,0,0,1,0-1.473l.217-.238Zm0-6.691v1.083l-.27-1.09a7.1,7.1,0,0,1,3.448-7.927l.043-.037a7.189,7.189,0,0,1,1.489-.611,6.108,6.108,0,0,1,1.663-.231h1.744a4.374,4.374,0,0,1,4.37,4.37,1.024,1.024,0,0,1-.137.51l-.061.106-1.477-.814a1.036,1.036,0,0,0-1.222.174l-1.1,1.1h-5.122A3.367,3.367,0,0,0,307.844,532.5Zm10.371,17.269-.048.032a5.234,5.234,0,0,1-5.851,0l-.047-.032-.176-1.506.053-.044a1.016,1.016,0,0,0,.38-.8v-1.247l.174.073c.135.057.271.11.4.159a5.951,5.951,0,0,0,4.093-.011c.147-.052.29-.109.435-.17l.174-.075v1.271a1.029,1.029,0,0,0,.505.883l.07.041Zm-1.653-4.994a4.254,4.254,0,0,1-2.868-.006,6.224,6.224,0,0,1-4.11-5.844V532.5a1.624,1.624,0,0,1,1.623-1.622h5.2a1.535,1.535,0,0,0,1.094-.454l.783-.782,1.148.633a2.539,2.539,0,0,1,1.315,2.225v6.4A6.264,6.264,0,0,1,316.562,544.771Zm12.8,13.345a7.875,7.875,0,1,1,3.045-15.129c.073.03.146.06.219.092a7.886,7.886,0,0,1,.857.451h0l.031.019a7.9,7.9,0,0,1,1.579,1.274l.037.058a7.875,7.875,0,0,1-5.77,13.235Z" transform="translate(-301.129 -521.941)" fill="#2a2a2a"/>
  <path id="패스_3234" data-name="패스 3234" d="M334.423,545.18a3.226,3.226,0,0,0-4.552,0L324.3,550.75a3.219,3.219,0,1,0,4.552,4.552l5.568-5.57A3.222,3.222,0,0,0,334.423,545.18Zm-6.8,8.892a1.479,1.479,0,0,1-2.092-2.092h0l2.17-2.168,2.092,2.091Zm5.57-5.57-2.171,2.17-2.09-2.092,2.17-2.169a1.479,1.479,0,0,1,2.091,2.091Z" transform="translate(-301.129 -521.941)" fill="#2a2a2a"/>
</svg>
