<svg id="집으로배송_icon" xmlns="http://www.w3.org/2000/svg" width="38.205" height="40.734" viewBox="0 0 38.205 40.734">
  <path id="빼기_7" data-name="빼기 7" d="M0,30.14v0L.442,8.99l6.7-3.362c.009,2,.027,6.676,0,6.9,0,0,0,.006,0,.008l0,0v0c.146-.167,4.618-2.2,4.663-2.218l-.364-6.841L18.349,0l.3,20.929L0,30.139Z" transform="translate(19.561 9.031)" fill="#00a9e0" opacity="0.4"/>
  <path id="패스_3221" data-name="패스 3221" d="M521.705,586.671h0l-18.329-8.849a.771.771,0,0,0-.672,0l-18.328,8.849a.775.775,0,0,0-.438.7v21.488a.779.779,0,0,0,.438.7L502.7,618.4a.778.778,0,0,0,.673,0l18.328-8.847a.781.781,0,0,0,.438-.7V587.368A.778.778,0,0,0,521.705,586.671Zm-18.665-7.29,16.544,7.987-4.48,2.164-16.545-7.987Zm-6.24,3.036,16.521,7.976-3.048,1.47-16.514-7.972Zm17.157,9.39v5.785l-2.875,1.387v-5.785ZM502.265,616.47l-16.779-8.1V588.6l.179.086,15.027,7.223a.641.641,0,0,1,.072.053.252.252,0,0,0,.043.033l1.458.7Zm.775-21.115-1.279-.617a.731.731,0,0,1-.071-.052.218.218,0,0,0-.042-.034l-15.155-7.284,5.452-2.632,16.535,7.983Zm17.553,13.015-.071.034-16.709,8.066V596.7l5.719-2.771v6.282a.774.774,0,0,0,.364.657.787.787,0,0,0,.75.04l4.422-2.136a.777.777,0,0,0,.438-.7v-7.019l5.087-2.455Z" transform="translate(-483.937 -577.745)" fill="#2a2a2a"/>
  <path id="패스_3222" data-name="패스 3222" d="M490.262,606.026l-2.69-1.3a.775.775,0,0,0-.674,1.4l2.691,1.3a.794.794,0,0,0,1.035-.361.778.778,0,0,0-.362-1.036Z" transform="translate(-483.937 -577.745)" fill="#2a2a2a"/>
  <path id="패스_3223" data-name="패스 3223" d="M492.737,604.415l-5.161-2.491a.77.77,0,0,0-.337-.078.738.738,0,0,0-.254.044.773.773,0,0,0-.477.987.764.764,0,0,0,.4.442l5.161,2.493a.8.8,0,0,0,1.035-.362A.778.778,0,0,0,492.737,604.415Z" transform="translate(-483.937 -577.745)" fill="#2a2a2a"/>
</svg>
