<svg xmlns="http://www.w3.org/2000/svg" width="21.608" height="21.75" viewBox="0 0 21.608 21.75">
  <g id="my" transform="translate(-414.161 -155.249)">
    <g id="그룹_59" data-name="그룹 59">
      <path id="패스_150" data-name="패스 150" d="M420.384,165.949c.118.124.241.242.369.356a6.3,6.3,0,0,0,8.427,0c.128-.114.252-.232.371-.358s.233-.251.341-.385a6.333,6.333,0,1,0-9.851,0C420.149,165.7,420.264,165.824,420.384,165.949Zm4.58-9.441a5.087,5.087,0,0,1,5.083,5.083,5.015,5.015,0,0,1-1.127,3.19c-.088.108-.181.21-.275.31s-.2.194-.3.287a5.174,5.174,0,0,1-6.761,0c-.1-.093-.2-.188-.3-.287h0a3.619,3.619,0,0,1-.274-.309,5.033,5.033,0,0,1-1.129-3.186A5.088,5.088,0,0,1,424.964,156.508Z" fill="#1f2020"/>
      <path id="패스_151" data-name="패스 151" d="M430.411,166.881l-.365-.16-.3.264a7.2,7.2,0,0,1-9.561,0l-.3-.264-.365.16a8.936,8.936,0,0,0-5.359,8.186A1.934,1.934,0,0,0,416.093,177h17.744a1.933,1.933,0,0,0,1.932-1.932A8.934,8.934,0,0,0,430.411,166.881Zm3.428,8.868H416.1a.683.683,0,0,1-.682-.682,7.686,7.686,0,0,1,4.263-6.879c.05.041.1.075.156.114.09.069.181.136.274.2.11.078.223.152.337.224s.193.122.292.179c.116.067.234.13.353.192.1.052.2.1.3.151.123.058.247.11.372.161.1.042.2.086.309.124.13.048.263.088.4.13.1.032.2.066.306.093.141.039.284.069.427.1.1.021.194.046.292.064.16.028.321.047.483.066.084.01.166.025.25.032.246.022.494.034.742.034s.5-.012.743-.034c.084-.007.167-.022.25-.032.162-.019.323-.038.483-.066.1-.018.194-.043.292-.063.143-.031.286-.061.427-.1.1-.027.2-.061.306-.093.133-.042.265-.082.395-.13.1-.038.206-.082.309-.124.125-.051.249-.1.372-.161.1-.048.2-.1.3-.152.118-.061.236-.124.353-.191.1-.057.2-.117.291-.179.114-.072.226-.146.337-.224.093-.065.184-.132.275-.2.051-.039.1-.074.155-.114a7.685,7.685,0,0,1,4.264,6.879.682.682,0,0,1-.681.685h0Z" fill="#1f2020"/>
    </g>
  </g>
</svg>
