<svg xmlns="http://www.w3.org/2000/svg" width="21.9" height="19.8" viewBox="0 0 21.9 19.8">
  <g id="subscription_h" data-name="subscription h" transform="translate(0.003 -0.038)">
    <path id="패스_6246" data-name="패스 6246" d="M20,2.438H18.2v.8a.5.5,0,0,1-1,0v-.8H14.9v.8a.56.56,0,0,1-.6.5.472.472,0,0,1-.5-.5v-.8H11.5v.8a.56.56,0,0,1-.6.5.472.472,0,0,1-.5-.5v-.8H8.1v.8a.552.552,0,1,1-1.1.1H7v-.8H4.7v.8a.472.472,0,0,1-.5.5.472.472,0,0,1-.5-.5v-.8H1.9a.86.86,0,0,0-.8.8v14.7a.86.86,0,0,0,.8.8H20a.86.86,0,0,0,.8-.8V3.338a.818.818,0,0,0-.8-.9Zm-4.9,7.7h0l-4.8,4.8a.758.758,0,0,1-.4.2H9.8a.52.52,0,0,1-.4-.2l-2.6-2.6h0a.566.566,0,0,1,.8-.8h0l2.2,2.2,4.5-4.5h0a.608.608,0,0,1,.8,0h0a.561.561,0,0,1,0,.9Zm4.9-4.4H1.9a.552.552,0,1,1,.1-1.1H20a.56.56,0,0,1,.5.6c0,.3-.2.6-.5.5Z" fill="#00a9e0"/>
    <path id="패스_6247" data-name="패스 6247" d="M20,1.338H18.2v-.8a.5.5,0,0,0-1,0v.8H14.9v-.8a.56.56,0,0,0-.6-.5.472.472,0,0,0-.5.5v.8H11.5v-.8a.56.56,0,0,0-.6-.5.472.472,0,0,0-.5.5v.8H8.1v-.8a.56.56,0,0,0-.6-.5.472.472,0,0,0-.5.5v.8H4.7v-.8a.472.472,0,0,0-.5-.5.472.472,0,0,0-.5.5v.8H1.9A1.9,1.9,0,0,0,0,3.238v14.7a1.9,1.9,0,0,0,1.9,1.9H20a1.9,1.9,0,0,0,1.9-1.9V3.238a1.9,1.9,0,0,0-1.9-1.9Zm.8,16.6a.86.86,0,0,1-.8.8H1.9a.86.86,0,0,1-.8-.8V3.238a.86.86,0,0,1,.8-.8H3.7v.8a.472.472,0,0,0,.5.5.472.472,0,0,0,.5-.5v-.8H7v.8a.552.552,0,1,0,1.1.1h0v-.8h2.3v.8a.56.56,0,0,0,.6.5.472.472,0,0,0,.5-.5v-.8h2.3v.8a.56.56,0,0,0,.6.5.472.472,0,0,0,.5-.5v-.8h2.3v.8a.5.5,0,0,0,1,0v-.8H20a.86.86,0,0,1,.8.8Z" fill="#00a9e0"/>
  </g>
</svg>
