<svg xmlns="http://www.w3.org/2000/svg" width="16.9" height="21.338" viewBox="0 0 16.9 21.338">
  <g id="survey_h" data-name="survey h" transform="translate(-0.057 0.103)">
    <path id="패스_6253" data-name="패스 6253" d="M5.657,2.435h5.5a.789.789,0,0,0,.8-.8v-.5a.265.265,0,0,0-.3-.3h-1.6a.55.55,0,0,1-.5-.3,1.282,1.282,0,0,0-1.7-.5,1.205,1.205,0,0,0-.5.5.55.55,0,0,1-.5.3h-1.6a.265.265,0,0,0-.3.3v.5A.713.713,0,0,0,5.657,2.435Z" fill="#00a9e0"/>
    <path id="패스_6254" data-name="패스 6254" d="M14.957.635h-1.8l.1,1.2h1.7a.789.789,0,0,1,.8.8h0a.789.789,0,0,0-.8-.8h-1.7a1.973,1.973,0,0,1-2,1.8h-5.5a2.046,2.046,0,0,1-2-1.8h-1.7a.789.789,0,0,0-.8.8v0a.789.789,0,0,1,.8-.8h1.7l.1-1.2h-1.8a2.006,2.006,0,0,0-2,2v16.6a2.006,2.006,0,0,0,2,2h12.9a2.006,2.006,0,0,0,2-2V2.635a2.006,2.006,0,0,0-2-2Z" fill="#00a9e0"/>
  </g>
</svg>
