<svg xmlns="http://www.w3.org/2000/svg" width="21.472" height="21.472" viewBox="0 0 21.472 21.472">
  <g id="counsel" transform="translate(-272.771 -151.258)">
    <path id="패스_791" data-name="패스 791" d="M287.913,160.158h-2.57v-2.57a1.02,1.02,0,0,0-1.02-1.019h-1.632a1.022,1.022,0,0,0-1.023,1.019v2.57H279.1a1.022,1.022,0,0,0-1.02,1.02v1.632a1.02,1.02,0,0,0,1.02,1.019h2.568v2.57a1.021,1.021,0,0,0,1.021,1.02h1.632a1.02,1.02,0,0,0,1.02-1.02v-2.57h2.57a1.02,1.02,0,0,0,1.02-1.019v-1.63A1.022,1.022,0,0,0,287.913,160.158Zm-.181,2.472h-3.589v3.59h-1.275v-3.59h-3.589v-1.273h3.589v-3.589h1.272v3.589h3.589Z" fill="#181818"/>
    <path id="패스_792" data-name="패스 792" d="M283.507,151.258a10.736,10.736,0,1,0,10.736,10.736h0A10.747,10.747,0,0,0,283.507,151.258Zm0,20.272a9.536,9.536,0,1,1,9.536-9.537A9.536,9.536,0,0,1,283.507,171.53Z" fill="#181818"/>
  </g>
</svg>
