<svg xmlns="http://www.w3.org/2000/svg" width="20.988" height="21.9" viewBox="0 0 20.988 21.9">
  <g id="home" transform="translate(-122.766 -153.178)">
    <path id="패스_163-2" data-name="패스 163-2" d="M143.031,162.232h0l-9.1-8.782a.972.972,0,0,0-1.349,0l-9.521,9.192a.972.972,0,0,0,.675,1.669h1.018v9.8a.969.969,0,0,0,.968.967h5.027a.966.966,0,0,0,.966-.967v-5.494h3.09v5.494a.969.969,0,0,0,.968.967H140.8a.968.968,0,0,0,.969-.967v-9.8h1.017a.967.967,0,0,0,.674-1.664Zm-1.514.858a.97.97,0,0,0-.968.968v9.8h-4.524v-5.494a.97.97,0,0,0-.967-.967h-3.591a.969.969,0,0,0-.966.967v5.494h-4.527v-9.8a.97.97,0,0,0-.969-.968h-.646l8.9-8.6,8.908,8.6Z" fill="#181818"/>
  </g>
</svg>
