<svg xmlns="http://www.w3.org/2000/svg" width="21.86" height="19.85" viewBox="0 0 21.86 19.85">
  <g id="subscription" transform="translate(-347.769 -149.717)">
    <path id="패스_6243" data-name="패스 6243" d="M367.791,154.408a.366.366,0,0,0-.047,0H349.656a.545.545,0,1,0-.047,1.089.366.366,0,0,0,.047,0h18.088a.545.545,0,1,0,.047-1.089Z" fill="#1f2020"/>
    <path id="패스_6244" data-name="패스 6244" d="M367.744,151.058h-1.8v-.795a.545.545,0,0,0-1.09,0v.8H362.6v-.795a.546.546,0,0,0-1.091,0v.795h-2.26v-.795a.546.546,0,0,0-1.091,0v.795h-2.259v-.795a.546.546,0,0,0-1.091,0v.795h-2.259v-.795a.545.545,0,0,0-1.09,0v.8h-1.8a1.887,1.887,0,0,0-1.885,1.885v14.739a1.888,1.888,0,0,0,1.885,1.885h18.09a1.886,1.886,0,0,0,1.885-1.885V152.943A1.886,1.886,0,0,0,367.744,151.058Zm.8,16.624a.8.8,0,0,1-.8.795H349.656a.8.8,0,0,1-.8-.795V152.943a.8.8,0,0,1,.8-.8h1.8v.8a.545.545,0,0,0,1.09,0v-.8H354.8v.8a.546.546,0,1,0,1.091,0v-.8h2.259v.8a.546.546,0,0,0,1.091,0v-.8h2.259v.8a.546.546,0,0,0,1.091,0v-.8h2.259v.8a.545.545,0,0,0,1.09,0v-.8h1.8a.8.8,0,0,1,.8.8Z" fill="#1f2020"/>
    <path id="패스_6245" data-name="패스 6245" d="M362.889,159.047v-.006a.583.583,0,0,0-.819,0l-.006.006h0l-4.488,4.493-2.245-2.245a.579.579,0,0,0-.82.819h0l2.608,2.608a.577.577,0,0,0,.411.17.347.347,0,0,0,.092-.015h.017a.575.575,0,0,0,.409-.17l4.84-4.84v-.005l0,0a.581.581,0,0,0,0-.819Z" fill="#1f2020"/>
  </g>
</svg>
