<svg xmlns="http://www.w3.org/2000/svg" width="16.93" height="22.471" viewBox="0 0 16.93 22.471">
  <path id="survey" d="M214.7,159.026h-1.831a1.533,1.533,0,0,0-1.4-.923h-1.321a2.439,2.439,0,0,0-3.425-.4,2.485,2.485,0,0,0-.4.4H205a1.539,1.539,0,0,0-1.4.923h-1.83a2,2,0,0,0-2,2V177.65a2,2,0,0,0,2,2H214.7a2,2,0,0,0,2-2V161.024a2,2,0,0,0-2-2Zm-13.7,2a.776.776,0,0,1,.774-.774h1.7a2,2,0,0,0,1.992,1.848h5.542A2,2,0,0,0,213,160.252h1.7a.774.774,0,0,1,.773.774V177.65a.773.773,0,0,1-.773.772h-12.93a.775.775,0,0,1-.774-.772Zm10.783-.924a.773.773,0,0,1-.773.773h-5.542a.774.774,0,0,1-.773-.773v-.462a.312.312,0,0,1,.311-.312h1.642a.612.612,0,0,0,.529-.3,1.22,1.22,0,0,1,2.124,0,.614.614,0,0,0,.529.3h1.641a.312.312,0,0,1,.312.312h0Z" transform="translate(-199.772 -157.179)" fill="#181818"/>
</svg>
