<svg width="39" height="39" viewBox="0 0 39 39" fill="none" xmlns="http://www.w3.org/2000/svg">
<circle cx="19.5" cy="19.5" r="19.5" fill="#3C5FD6"/>
<path d="M19 8.72266C11.8204 8.72266 6 13.2495 6 18.8338C6 21.9884 7.859 24.8051 10.7696 26.659C10.7696 28.1562 10.5 29.5 9 31C13.1586 30.3067 13.5 30 15.906 28.6444C16.8998 28.8337 17.9318 28.9449 19 28.9449C26.1796 28.9449 32 24.418 32 18.8338C32 13.2495 26.1796 8.72266 19 8.72266Z" fill="white"/>
<path d="M19.0001 20.2776C19.7979 20.2776 20.4446 19.6309 20.4446 18.8331C20.4446 18.0354 19.7979 17.3887 19.0001 17.3887C18.2024 17.3887 17.5557 18.0354 17.5557 18.8331C17.5557 19.6309 18.2024 20.2776 19.0001 20.2776Z" fill="#3C5FD6"/>
<path d="M24.7777 20.2776C25.5754 20.2776 26.2221 19.6309 26.2221 18.8331C26.2221 18.0354 25.5754 17.3887 24.7777 17.3887C23.98 17.3887 23.3333 18.0354 23.3333 18.8331C23.3333 19.6309 23.98 20.2776 24.7777 20.2776Z" fill="#3C5FD6"/>
<path d="M13.2223 20.2776C14.02 20.2776 14.6667 19.6309 14.6667 18.8331C14.6667 18.0354 14.02 17.3887 13.2223 17.3887C12.4245 17.3887 11.7778 18.0354 11.7778 18.8331C11.7778 19.6309 12.4245 20.2776 13.2223 20.2776Z" fill="#3C5FD6"/>
</svg>
