<svg width="30" height="31" viewBox="0 0 30 31" fill="none" xmlns="http://www.w3.org/2000/svg">
<path d="M21.0384 22.66C20.7255 22.2902 20.569 21.8703 20.569 21.4003C20.569 20.9314 20.7255 20.5405 21.0384 20.2276L24.1963 17.0697H11.9488C11.4651 17.0697 11.06 16.9058 10.7334 16.5781C10.4057 16.2515 10.2418 15.8464 10.2418 15.3627C10.2418 14.8791 10.4057 14.4734 10.7334 14.1457C11.06 13.8191 11.4651 13.6558 11.9488 13.6558H24.1963L21.0384 10.4979C20.697 10.1565 20.5263 9.75135 20.5263 9.2825C20.5263 8.81252 20.697 8.40683 21.0384 8.06543C21.3514 7.72404 21.7428 7.55334 22.2128 7.55334C22.6817 7.55334 23.0725 7.70981 23.3855 8.02276L29.5306 14.1679C29.7013 14.3385 29.8225 14.5235 29.8942 14.7226C29.9647 14.9218 30 15.1351 30 15.3627C30 15.5903 29.9647 15.8037 29.8942 16.0028C29.8225 16.202 29.7013 16.3869 29.5306 16.5576L23.3855 22.7027C23.0156 23.0725 22.6105 23.2358 22.1701 23.1926C21.7286 23.1505 21.3514 22.973 21.0384 22.66ZM3.41394 30.7255C2.47511 30.7255 1.67112 30.3915 1.00199 29.7235C0.333997 29.0543 0 28.2504 0 27.3115V3.41394C0 2.47511 0.333997 1.67112 1.00199 1.00199C1.67112 0.333997 2.47511 0 3.41394 0H18.6558C19.1394 0 19.5451 0.1633 19.8728 0.4899C20.1994 0.817639 20.3627 1.22333 20.3627 1.70697C20.3627 2.19061 20.1994 2.59573 19.8728 2.92233C19.5451 3.25007 19.1394 3.41394 18.6558 3.41394H3.41394V27.3115H18.6558C19.1394 27.3115 19.5451 27.4754 19.8728 27.8031C20.1994 28.1297 20.3627 28.5348 20.3627 29.0185C20.3627 29.5021 20.1994 29.9073 19.8728 30.2339C19.5451 30.5616 19.1394 30.7255 18.6558 30.7255H3.41394Z" fill="#C9C9C9"/>
</svg>
