<svg width="22" height="22" viewBox="0 0 22 22" fill="none" xmlns="http://www.w3.org/2000/svg">
<path d="M10.9448 17.6C11.3298 17.6 11.6554 17.4669 11.9216 17.2007C12.1871 16.9352 12.3198 16.61 12.3198 16.225C12.3198 15.84 12.1871 15.5148 11.9216 15.2493C11.6554 14.9831 11.3298 14.85 10.9448 14.85C10.5598 14.85 10.2342 14.9831 9.96805 15.2493C9.70258 15.5148 9.56985 15.84 9.56985 16.225C9.56985 16.61 9.70258 16.9352 9.96805 17.2007C10.2342 17.4669 10.5598 17.6 10.9448 17.6ZM9.95485 13.365H11.9898C11.9898 12.76 12.0588 12.2833 12.1966 11.935C12.3338 11.5867 12.7232 11.11 13.3648 10.505C13.8415 10.0283 14.2173 9.5744 14.4923 9.1432C14.7673 8.71273 14.9048 8.195 14.9048 7.59C14.9048 6.56333 14.529 5.775 13.7773 5.225C13.0257 4.675 12.1365 4.4 11.1098 4.4C10.0648 4.4 9.21711 4.675 8.56665 5.225C7.91545 5.775 7.46151 6.435 7.20485 7.205L9.01985 7.92C9.11151 7.59 9.31795 7.2325 9.63915 6.8475C9.95961 6.4625 10.4498 6.27 11.1098 6.27C11.6965 6.27 12.1365 6.43023 12.4298 6.7507C12.7232 7.0719 12.8698 7.425 12.8698 7.81C12.8698 8.17667 12.7598 8.52023 12.5398 8.8407C12.3198 9.1619 12.0448 9.46 11.7148 9.735C10.9082 10.45 10.4132 10.9908 10.2298 11.3575C10.0465 11.7242 9.95485 12.3933 9.95485 13.365ZM10.9998 22C9.47818 22 8.04818 21.7111 6.70985 21.1332C5.37151 20.5561 4.20735 19.7725 3.21735 18.7825C2.22735 17.7925 1.44378 16.6283 0.866648 15.29C0.288781 13.9517 -0.000152588 12.5217 -0.000152588 11C-0.000152588 9.47833 0.288781 8.04833 0.866648 6.71C1.44378 5.37167 2.22735 4.2075 3.21735 3.2175C4.20735 2.2275 5.37151 1.44357 6.70985 0.8657C8.04818 0.288567 9.47818 0 10.9998 0C12.5215 0 13.9515 0.288567 15.2898 0.8657C16.6282 1.44357 17.7923 2.2275 18.7823 3.2175C19.7723 4.2075 20.5559 5.37167 21.133 6.71C21.7109 8.04833 21.9998 9.47833 21.9998 11C21.9998 12.5217 21.7109 13.9517 21.133 15.29C20.5559 16.6283 19.7723 17.7925 18.7823 18.7825C17.7923 19.7725 16.6282 20.5561 15.2898 21.1332C13.9515 21.7111 12.5215 22 10.9998 22Z" fill="#C9C9C9"/>
</svg>
