<svg width="18" height="22" viewBox="0 0 18 22" fill="none" xmlns="http://www.w3.org/2000/svg">
<g clip-path="url(#clip0_223_53)">
<path d="M15.0705 5.85833L10.611 0.35833C10.4236 0.138225 10.1739 0.0171959 9.91512 0.0210871C9.65637 0.0249783 9.4091 0.153481 9.22612 0.379156C9.04314 0.604831 8.93895 0.909792 8.9358 1.22892C8.93264 1.54805 9.03077 1.85605 9.20924 2.08716L7.29712 4.44544L11.7566 9.94544L13.6687 7.58716C13.8546 7.81642 14.1067 7.94522 14.3696 7.94522C14.6325 7.94522 14.8846 7.81642 15.0705 7.58716C15.2563 7.35791 15.3608 7.04697 15.3608 6.72275C15.3608 6.39853 15.2563 6.08759 15.0705 5.85833V5.85833Z" fill="#E1E8ED"/>
<path d="M9.91002 0H2.47759C1.95193 0 1.44781 0.257539 1.07611 0.715961C0.704421 1.17438 0.495605 1.79614 0.495605 2.44444V19.5556C0.495605 20.2039 0.704421 20.8256 1.07611 21.284C1.44781 21.7425 1.95193 22 2.47759 22H13.3785C13.9041 22 14.4083 21.7425 14.78 21.284C15.1517 20.8256 15.3605 20.2039 15.3605 19.5556V6.72222H10.901C10.4055 6.72222 9.91002 6.11111 9.91002 5.5V0Z" fill="#CCD6DD"/>
<path d="M9.90997 0H8.91898V5.5C8.91898 6.14831 9.1278 6.77006 9.49949 7.22848C9.87118 7.68691 10.3753 7.94444 10.901 7.94444H15.3604V6.72222H10.901C10.4055 6.72222 9.90997 6.11111 9.90997 5.5V0ZM7.43249 4.88889C7.43249 5.05097 7.38029 5.2064 7.28737 5.32101C7.19444 5.43562 7.06841 5.5 6.937 5.5H2.97303C2.84162 5.5 2.71559 5.43562 2.62267 5.32101C2.52974 5.2064 2.47754 5.05097 2.47754 4.88889C2.47754 4.72681 2.52974 4.57137 2.62267 4.45677C2.71559 4.34216 2.84162 4.27778 2.97303 4.27778H6.937C7.06841 4.27778 7.19444 4.34216 7.28737 4.45677C7.38029 4.57137 7.43249 4.72681 7.43249 4.88889ZM7.43249 7.33333C7.43249 7.49541 7.38029 7.65085 7.28737 7.76545C7.19444 7.88006 7.06841 7.94444 6.937 7.94444H2.97303C2.84162 7.94444 2.71559 7.88006 2.62267 7.76545C2.52974 7.65085 2.47754 7.49541 2.47754 7.33333C2.47754 7.17126 2.52974 7.01582 2.62267 6.90121C2.71559 6.78661 2.84162 6.72222 2.97303 6.72222H6.937C7.06841 6.72222 7.19444 6.78661 7.28737 6.90121C7.38029 7.01582 7.43249 7.17126 7.43249 7.33333ZM13.3784 9.77778C13.3784 9.93985 13.3262 10.0953 13.2333 10.2099C13.1404 10.3245 13.0144 10.3889 12.8829 10.3889H2.97303C2.84162 10.3889 2.71559 10.3245 2.62267 10.2099C2.52974 10.0953 2.47754 9.93985 2.47754 9.77778C2.47754 9.6157 2.52974 9.46026 2.62267 9.34566C2.71559 9.23105 2.84162 9.16667 2.97303 9.16667H12.8829C13.0144 9.16667 13.1404 9.23105 13.2333 9.34566C13.3262 9.46026 13.3784 9.6157 13.3784 9.77778ZM13.3784 12.2222C13.3784 12.3843 13.3262 12.5397 13.2333 12.6543C13.1404 12.7689 13.0144 12.8333 12.8829 12.8333H2.97303C2.84162 12.8333 2.71559 12.7689 2.62267 12.6543C2.52974 12.5397 2.47754 12.3843 2.47754 12.2222C2.47754 12.0601 2.52974 11.9047 2.62267 11.7901C2.71559 11.6755 2.84162 11.6111 2.97303 11.6111H12.8829C13.0144 11.6111 13.1404 11.6755 13.2333 11.7901C13.3262 11.9047 13.3784 12.0601 13.3784 12.2222ZM13.3784 14.6667C13.3784 14.8287 13.3262 14.9842 13.2333 15.0988C13.1404 15.2134 13.0144 15.2778 12.8829 15.2778H2.97303C2.84162 15.2778 2.71559 15.2134 2.62267 15.0988C2.52974 14.9842 2.47754 14.8287 2.47754 14.6667C2.47754 14.5046 2.52974 14.3492 2.62267 14.2345C2.71559 14.1199 2.84162 14.0556 2.97303 14.0556H12.8829C13.0144 14.0556 13.1404 14.1199 13.2333 14.2345C13.3262 14.3492 13.3784 14.5046 13.3784 14.6667ZM13.3784 17.1111C13.3784 17.2732 13.3262 17.4286 13.2333 17.5432C13.1404 17.6578 13.0144 17.7222 12.8829 17.7222H2.97303C2.84162 17.7222 2.71559 17.6578 2.62267 17.5432C2.52974 17.4286 2.47754 17.2732 2.47754 17.1111C2.47754 16.949 2.52974 16.7936 2.62267 16.679C2.71559 16.5644 2.84162 16.5 2.97303 16.5H12.8829C13.0144 16.5 13.1404 16.5644 13.2333 16.679C13.3262 16.7936 13.3784 16.949 13.3784 17.1111Z" fill="#99AAB5"/>
<path d="M15.3605 11.6109C15.3605 11.6109 12.4341 11.6097 12.4197 11.6109C12.2755 11.6109 11.9688 11.7172 11.7979 11.9812L10.6444 13.7712C10.3253 14.2656 10.3253 15.0661 10.6444 15.5617L11.7979 17.3517C11.9688 17.6157 12.2755 17.722 12.4197 17.722C12.4291 17.7232 14.1772 17.722 15.3605 17.722V11.6109Z" fill="#66757F"/>
<path d="M16.3513 11.6109C16.3513 11.6109 12.3595 11.6097 12.3457 11.6109C12.2015 11.6109 11.8948 11.6958 11.7238 11.9073L10.5703 13.3385C10.4172 13.5291 10.3313 13.7865 10.3313 14.0547C10.3313 14.323 10.4172 14.5804 10.5703 14.771L11.7238 16.2022C11.8948 16.4136 12.2015 16.4998 12.3457 16.4998C12.3595 16.501 16.3513 16.4998 16.3513 16.4998C16.8983 16.4998 17.3422 15.9516 17.3422 15.277V12.8331C17.3422 12.509 17.2378 12.1981 17.052 11.9689C16.8661 11.7397 16.6141 11.6109 16.3513 11.6109Z" fill="#744EAA"/>
</g>
<defs>
<clipPath id="clip0_223_53">
<rect width="17.8378" height="22" fill="white"/>
</clipPath>
</defs>
</svg>
