<svg width="60" height="60" viewBox="0 0 60 60" fill="none" xmlns="http://www.w3.org/2000/svg">
<path fill-rule="evenodd" clip-rule="evenodd" d="M30 0C13.4315 0 0 13.4315 0 30C0 46.5685 13.4315 60 30 60C46.5685 60 60 46.5685 60 30C60 13.4315 46.5685 0 30 0ZM44.1213 20.1213C45.2929 18.9497 45.2929 17.0503 44.1213 15.8787C42.9497 14.7071 41.0503 14.7071 39.8787 15.8787L30 25.7574L20.1213 15.8787C18.9497 14.7071 17.0503 14.7071 15.8787 15.8787C14.7071 17.0503 14.7071 18.9497 15.8787 20.1213L25.7574 30L15.8787 39.8787C14.7071 41.0503 14.7071 42.9497 15.8787 44.1213C17.0503 45.2929 18.9497 45.2929 20.1213 44.1213L30 34.2426L39.8787 44.1213C41.0503 45.2929 42.9497 45.2929 44.1213 44.1213C45.2929 42.9497 45.2929 41.0503 44.1213 39.8787L34.2426 30L44.1213 20.1213Z" fill="#EC736D"/>
</svg>
