<svg width="42" height="42" viewBox="0 0 42 42" fill="none" xmlns="http://www.w3.org/2000/svg">
<path fill-rule="evenodd" clip-rule="evenodd" d="M21 35C28.732 35 35 28.732 35 21C35 13.268 28.732 7 21 7C13.268 7 7 13.268 7 21C7 28.732 13.268 35 21 35ZM27.9603 17.8003C28.4022 17.2699 28.3306 16.4817 27.8002 16.0398C27.2699 15.5978 26.4817 15.6695 26.0397 16.1998L19.3926 24.1764L15.8597 20.8294C15.3585 20.3546 14.5674 20.376 14.0926 20.8772C13.6178 21.3784 13.6392 22.1695 14.1403 22.6443L18.6403 26.9075C18.891 27.145 19.2288 27.2682 19.5735 27.2479C19.9182 27.2276 20.2392 27.0655 20.4603 26.8003L27.9603 17.8003Z" fill="#3C5DF6"/>
</svg>
