<svg width="20" height="20" viewBox="0 0 20 20" fill="none" xmlns="http://www.w3.org/2000/svg">
<g clip-path="url(#clip0_223_72)">
<path d="M18.4483 10.9849L13.5217 6.06543L6.16943 13.6332L10.9939 18.4582C11.4833 18.9478 12.065 19.3355 12.7047 19.6002C13.3443 19.8648 14.03 20.0006 14.7222 19.9999C17.6367 19.9999 20 17.6365 20 14.7221C20.0008 14.0276 19.8641 13.3398 19.5978 12.6983C19.3315 12.0569 18.9408 11.4746 18.4483 10.9849Z" fill="#BB1A34"/>
<path d="M8.845 1.39611C7.87412 0.498202 6.60022 -0.000366194 5.27778 2.01804e-07C3.87802 2.01804e-07 2.5356 0.55605 1.54583 1.54583C0.55605 2.5356 0 3.87802 0 5.27778C0 6.655 0.532222 7.90556 1.39667 8.845L1.38889 8.85278L6.16944 13.6333L13.5217 6.06556L8.845 1.39611Z" fill="#FDCB58"/>
</g>
<defs>
<clipPath id="clip0_223_72">
<rect width="20" height="20" fill="white"/>
</clipPath>
</defs>
</svg>
