<svg width="24" height="25" viewBox="0 0 24 25" fill="none" xmlns="http://www.w3.org/2000/svg">
<path fill-rule="evenodd" clip-rule="evenodd" d="M0.666678 3.33334L21.4085 24.0751L22.8227 22.6609L22.1338 21.972C23.1922 21.8036 24 20.8967 24 19.8022V7.27475C24 6.06046 23.0056 5.07694 21.7778 5.07694H18L17.1 2.58244C17.0378 2.41175 16.9239 2.2642 16.7737 2.15996C16.6236 2.05572 16.4446 1.99986 16.2611 2.00002H7.73889C7.36389 2.00002 7.02778 2.23354 6.90278 2.58244L6 5.07694H5.23871L2.08089 1.91913L0.666678 3.33334ZM9.64289 9.48113L10.9474 10.7856C11.2768 10.6456 11.6345 10.5714 12 10.5714C12.7072 10.5714 13.3855 10.8493 13.8856 11.3439C14.3857 11.8385 14.6667 12.5093 14.6667 13.2088C14.6667 13.5802 14.5875 13.9435 14.4383 14.2766L15.7428 15.581C16.1869 14.8968 16.4444 14.0827 16.4444 13.2088C16.4444 10.7802 14.4556 8.81321 12 8.81321C11.134 8.81321 10.326 9.05786 9.64289 9.48113ZM0 7.27475C0 6.75493 0.182236 6.27741 0.487001 5.90122L7.56168 12.9759C7.55761 13.053 7.55556 13.1307 7.55556 13.2088C7.55556 15.6374 9.54445 17.6044 12 17.6044C12.0624 17.6044 12.1246 17.6031 12.1864 17.6006L16.5858 22H2.22222C0.994445 22 0 21.0165 0 19.8022V7.27475Z" fill="white"/>
</svg>
