<svg width="58" height="58" viewBox="0 0 58 58" fill="none" xmlns="http://www.w3.org/2000/svg">
<path d="M6.00006 29C6.00006 41.7025 16.2975 52 29.0001 52C41.7026 52 52.0001 41.7025 52.0001 29C52.0001 16.2975 41.7026 6 29.0001 6C16.2975 6 6.00006 16.2975 6.00006 29Z" fill="#3C5DF6"/>
<g clip-path="url(#clip0_994_6015)">
<path d="M38.2189 28.3811L34.9288 31.6712C34.3641 32.2359 33.6938 32.6839 32.956 32.9895C32.2182 33.2951 31.4274 33.4524 30.6288 33.4524C29.8302 33.4524 29.0394 33.2951 28.3017 32.9895C27.5639 32.6839 26.8935 32.2359 26.3288 31.6712C26.1896 31.5553 26.0761 31.4117 25.9955 31.2495C25.9149 31.0873 25.869 30.9101 25.8608 30.7291C25.8525 30.5482 25.8821 30.3675 25.9475 30.1987C26.013 30.0298 26.113 29.8764 26.2411 29.7483C26.3691 29.6203 26.5225 29.5203 26.6914 29.4548C26.8603 29.3893 27.0409 29.3598 27.2219 29.368C27.4028 29.3763 27.58 29.4222 27.7422 29.5028C27.9044 29.5834 28.0481 29.6969 28.1639 29.8361C28.8186 30.484 29.7024 30.8474 30.6234 30.8474C31.5444 30.8474 32.4282 30.484 33.0828 29.8361L36.373 26.546C37.0253 25.8937 37.3917 25.009 37.3917 24.0865C37.3917 23.164 37.0253 22.2793 36.373 21.6271C35.7207 20.9748 34.836 20.6083 33.9135 20.6083C32.991 20.6083 32.1063 20.9748 31.4541 21.6271L30.4116 22.6803C30.1669 22.9251 29.8348 23.0626 29.4887 23.0626C29.1425 23.0626 28.8105 22.9251 28.5657 22.6803C28.3209 22.4355 28.1834 22.1035 28.1834 21.7574C28.1834 21.4112 28.3209 21.0792 28.5657 20.8344L29.619 19.7811C30.7594 18.6407 32.3061 18 33.9189 18C35.5317 18 37.0785 18.6407 38.2189 19.7811C39.3593 20.9215 40 22.4683 40 24.0811C40 25.6939 39.3593 27.2406 38.2189 28.3811ZM27.5884 35.3197L26.546 36.3729C25.8937 37.0252 25.009 37.3917 24.0865 37.3917C23.1641 37.3917 22.2794 37.0252 21.6271 36.3729C20.9748 35.7207 20.6083 34.836 20.6083 33.9135C20.6083 32.991 20.9748 32.1063 21.6271 31.454L24.9172 28.1639C25.5719 27.516 26.4557 27.1526 27.3767 27.1526C28.2977 27.1526 29.1815 27.516 29.8361 28.1639C30.086 28.3718 30.4045 28.4789 30.7292 28.4641C31.0539 28.4493 31.3613 28.3136 31.5911 28.0838C31.821 27.854 31.9566 27.5465 31.9714 27.2218C31.9862 26.8971 31.8792 26.5786 31.6712 26.3288C31.1073 25.7628 30.4372 25.3137 29.6993 25.0072C28.9614 24.7008 28.1702 24.5431 27.3713 24.5431C26.5723 24.5431 25.7811 24.7008 25.0432 25.0072C24.3053 25.3137 23.6352 25.7628 23.0713 26.3288L19.7811 29.6189C18.6407 30.7594 18 32.3061 18 33.9189C18 35.5317 18.6407 37.0785 19.7811 38.2189C20.9216 39.3593 22.4683 40 24.0811 40C25.6939 40 27.2407 39.3593 28.3811 38.2189L29.4344 37.1656C29.6792 36.9208 29.8167 36.5888 29.8167 36.2426C29.8167 35.8965 29.6792 35.5645 29.4344 35.3197C29.1896 35.0749 28.8576 34.9374 28.5114 34.9374C28.1652 34.9374 27.8332 35.0749 27.5884 35.3197Z" fill="white"/>
</g>
<defs>
<clipPath id="clip0_994_6015">
<rect width="22" height="22" fill="white" transform="translate(18.0001 18)"/>
</clipPath>
</defs>
</svg>
