<svg width="24" height="24" viewBox="0 0 24 24" fill="none" xmlns="http://www.w3.org/2000/svg">
<path d="M11.0114 2.55496C11.4598 1.81502 12.5402 1.81501 12.9886 2.55495L15.5458 6.77447C15.707 7.0403 15.9697 7.22988 16.2741 7.29988L21.1056 8.41104C21.9529 8.60589 22.2867 9.62614 21.7166 10.2783L18.4656 13.9973C18.2608 14.2316 18.1604 14.5383 18.1874 14.8474L18.6162 19.7536C18.6914 20.614 17.8174 21.2446 17.0166 20.9077L12.4501 18.9866C12.1624 18.8656 11.8376 18.8656 11.5499 18.9866L6.98339 20.9077C6.1826 21.2446 5.30861 20.614 5.38381 19.7536L5.81261 14.8474C5.83962 14.5383 5.73925 14.2316 5.53443 13.9973L2.28337 10.2783C1.71326 9.62614 2.0471 8.60589 2.89436 8.41104L7.72589 7.29988C8.03027 7.22988 8.29305 7.0403 8.45415 6.77447L11.0114 2.55496Z" fill="#FFD341"/>
</svg>
