<svg width="25" height="25" viewBox="0 0 25 25" fill="none" xmlns="http://www.w3.org/2000/svg">
<path d="M24.7375 23.8868C24.799 23.9465 24.8479 24.0179 24.8813 24.0968C24.9147 24.1757 24.932 24.2605 24.932 24.3462C24.932 24.4319 24.9147 24.5167 24.8813 24.5956C24.8479 24.6745 24.799 24.7459 24.7375 24.8056C24.6779 24.8671 24.6065 24.916 24.5276 24.9494C24.4486 24.9828 24.3638 25 24.2781 25C24.1925 25 24.1076 24.9828 24.0287 24.9494C23.9498 24.916 23.8784 24.8671 23.8188 24.8056L12.466 13.4692L1.11317 24.8056C1.05352 24.8671 0.982127 24.916 0.903218 24.9494C0.824309 24.9828 0.739495 25 0.653808 25C0.56812 25 0.483306 24.9828 0.404397 24.9494C0.325488 24.916 0.254092 24.8671 0.194446 24.8056C0.132927 24.7459 0.0840152 24.6745 0.0506135 24.5956C0.0172117 24.5167 0 24.4319 0 24.3462C0 24.2605 0.0172117 24.1757 0.0506135 24.0968C0.0840152 24.0179 0.132927 23.9465 0.194446 23.8868L11.5308 12.534L0.194446 1.18122C0.0996668 1.05485 0.0536525 0.898526 0.0648505 0.740959C0.0760485 0.583391 0.143707 0.43515 0.255405 0.323452C0.367103 0.211754 0.515344 0.144096 0.672911 0.132898C0.830479 0.1217 0.986798 0.167714 1.11317 0.262493L12.466 11.5989L23.8188 0.262493C23.8752 0.187277 23.9471 0.125061 24.0297 0.0800583C24.1122 0.0350553 24.2035 0.00831596 24.2972 0.001651C24.391 -0.00501397 24.4852 0.00855119 24.5732 0.0414276C24.6613 0.074304 24.7413 0.125724 24.8078 0.192206C24.8743 0.258688 24.9257 0.338679 24.9586 0.426764C24.9914 0.514848 25.005 0.608968 24.9983 0.702752C24.9917 0.796535 24.9649 0.887791 24.9199 0.97034C24.8749 1.05289 24.8127 1.12481 24.7375 1.18122L13.4011 12.534L24.7375 23.8868Z" fill="#D9D9D9"/>
</svg>
