<svg width="42" height="42" viewBox="0 0 42 42" fill="none" xmlns="http://www.w3.org/2000/svg">
<path fill-rule="evenodd" clip-rule="evenodd" d="M8 12.4286C8 11.6396 8.6614 11 9.47727 11H32.5227C33.3386 11 34 11.6396 34 12.4286C34 13.2175 33.3386 13.8571 32.5227 13.8571H9.47727C8.6614 13.8571 8 13.2175 8 12.4286Z" fill="#2F2F2F"/>
<path fill-rule="evenodd" clip-rule="evenodd" d="M8 21C8 20.211 8.6614 19.5714 9.47727 19.5714H32.5227C33.3386 19.5714 34 20.211 34 21C34 21.789 33.3386 22.4286 32.5227 22.4286H9.47727C8.6614 22.4286 8 21.789 8 21Z" fill="#2F2F2F"/>
<path fill-rule="evenodd" clip-rule="evenodd" d="M8 29.5714C8 28.7825 8.6614 28.1429 9.47727 28.1429H32.5227C33.3386 28.1429 34 28.7825 34 29.5714C34 30.3604 33.3386 31 32.5227 31H9.47727C8.6614 31 8 30.3604 8 29.5714Z" fill="#2F2F2F"/>
</svg>
