<svg width="42" height="42" viewBox="0 0 42 42" fill="none" xmlns="http://www.w3.org/2000/svg">
<g clip-path="url(#clip0_119_1703)">
<path d="M21 37C29.8366 37 37 29.8366 37 21C37 12.1634 29.8366 5 21 5C12.1634 5 5 12.1634 5 21C5 29.8366 12.1634 37 21 37Z" fill="#3C5DF6"/>
<path d="M20.5895 12.1549C14.6982 12.1549 9.92285 15.8718 9.92285 20.4503C9.92285 23.0349 11.449 25.3488 13.8367 26.8749C13.8367 28.1057 13.6152 29.2052 12.3844 30.4359C15.7977 29.8698 16.0767 29.6154 18.0541 28.4995C18.8664 28.6554 19.7198 28.7457 20.5895 28.7457C26.4808 28.7457 31.2562 25.0288 31.2562 20.4503C31.2562 15.8718 26.4808 12.1549 20.5895 12.1549V12.1549Z" fill="white"/>
<path d="M20.5897 21.6401C21.2462 21.6401 21.7713 21.1067 21.7713 20.4585C21.7713 19.8103 21.2379 19.277 20.5897 19.277C19.9415 19.277 19.4082 19.8103 19.4082 20.4585C19.4082 21.1067 19.9415 21.6401 20.5897 21.6401Z" fill="#3C5FD6"/>
<path d="M25.3324 21.6401C25.9888 21.6401 26.514 21.1067 26.514 20.4585C26.514 19.8103 25.9806 19.277 25.3324 19.277C24.6842 19.277 24.1509 19.8103 24.1509 20.4585C24.1509 21.1067 24.6842 21.6401 25.3324 21.6401Z" fill="#3C5FD6"/>
<path d="M15.8471 21.6401C16.5035 21.6401 17.0286 21.1067 17.0286 20.4585C17.0286 19.8103 16.4953 19.277 15.8471 19.277C15.1989 19.277 14.6655 19.8103 14.6655 20.4585C14.6655 21.1067 15.1989 21.6401 15.8471 21.6401Z" fill="#3C5FD6"/>
</g>
<defs>
<clipPath id="clip0_119_1703">
<rect width="32" height="32" fill="white" transform="translate(5 5)"/>
</clipPath>
</defs>
</svg>
