<svg width="24" height="24" viewBox="0 0 24 24" fill="none" xmlns="http://www.w3.org/2000/svg">
<g clip-path="url(#clip0_120_1932)">
<path d="M12.0001 22.0002C17.523 22.0002 22.0002 17.523 22.0002 12.0001C22.0002 6.47721 17.523 2 12.0001 2C6.47721 2 2 6.47721 2 12.0001C2 17.523 6.47721 22.0002 12.0001 22.0002Z" fill="#FFDA61"/>
<path d="M12.0003 19.9809C16.4079 19.9809 19.981 16.4078 19.981 12.0001C19.981 7.59251 16.4079 4.01941 12.0003 4.01941C7.59263 4.01941 4.01953 7.59251 4.01953 12.0001C4.01953 16.4078 7.59263 19.9809 12.0003 19.9809Z" fill="#FFD341"/>
<path opacity="0.24" d="M12.2953 20.2756C16.7031 20.2756 20.2761 16.7026 20.2761 12.2948C20.2761 10.0159 19.3209 7.96039 17.7891 6.5061C19.1476 7.93714 19.9813 9.87103 19.9813 11.9998C19.9813 16.4076 16.4083 19.9806 12.0006 19.9806C9.87176 19.9806 7.93764 19.1468 6.50684 17.7884C7.96113 19.3201 10.0167 20.2753 12.2956 20.2753L12.2953 20.2756Z" fill="white"/>
<path opacity="0.11" d="M12.4463 4.59624C14.8868 4.59624 17.071 5.69212 18.5349 7.41815C17.0912 5.36284 14.7026 4.01941 12.0003 4.01941C7.59255 4.01941 4.01953 7.59242 4.01953 12.0002C4.01953 13.9674 4.73164 15.7679 5.91161 17.1592C5.00057 15.8623 4.46554 14.2823 4.46554 12.5772C4.46554 8.16949 8.03856 4.59647 12.4463 4.59647V4.59624Z" fill="#A98A24"/>
<path d="M18.9666 12.8642L11.1357 5.03333C9.04893 5.28956 7.24563 6.46154 6.13965 8.1352L15.8647 17.8603C17.5384 16.7543 18.7104 14.951 18.9666 12.8642V12.8642Z" fill="#F2C634"/>
<path d="M5.0752 10.8469L13.1532 18.9249C13.7657 18.8237 14.3515 18.6435 14.8996 18.3946L5.60552 9.10046C5.35656 9.64864 5.17642 10.2344 5.0752 10.8469Z" fill="#F2C634"/>
</g>
<defs>
<clipPath id="clip0_120_1932">
<rect width="20" height="20" fill="white" transform="translate(2 2)"/>
</clipPath>
</defs>
</svg>
