<svg width="60" height="60" viewBox="0 0 60 60" fill="none" xmlns="http://www.w3.org/2000/svg">
<path fill-rule="evenodd" clip-rule="evenodd" d="M30 0C13.4315 0 0 13.4315 0 30C0 46.5685 13.4315 60 30 60C46.5685 60 60 46.5685 60 30C60 13.4315 46.5685 0 30 0ZM47.4972 20.3485C48.6323 18.965 48.4482 16.9088 47.0861 15.7559C45.724 14.603 43.6996 14.7899 42.5645 16.1734L25.4922 36.9818L16.4184 28.2507C15.1313 27.0121 13.0993 27.0679 11.8798 28.3752C10.6604 29.6826 10.7153 31.7465 12.0025 32.9851L23.5601 44.1064C24.204 44.7259 25.0715 45.0473 25.9569 44.9944C26.8423 44.9414 27.6667 44.5187 28.2344 43.8267L47.4972 20.3485Z" fill="#3C5DF6"/>
</svg>
