<svg width="20" height="20" viewBox="0 0 20 20" fill="none" xmlns="http://www.w3.org/2000/svg">
<path fill-rule="evenodd" clip-rule="evenodd" d="M8.12394 0.691022C8.64726 0.244988 9.31238 0 10 0C10.6876 0 11.3527 0.244988 11.8761 0.691022L13.1014 1.73606C13.256 1.86792 13.4483 1.94755 13.6509 1.96358L15.2561 2.0918C15.9412 2.14666 16.5843 2.44369 17.0703 2.92968C17.5563 3.41567 17.8533 4.05884 17.9082 4.74394L18.0364 6.35006C18.0526 6.5523 18.1323 6.74426 18.2639 6.89861L19.309 8.12394C19.755 8.64726 20 9.31238 20 10C20 10.6876 19.755 11.3527 19.309 11.8761L18.2639 13.1014C18.1321 13.256 18.0524 13.4483 18.0364 13.6509L17.9082 15.2561C17.8533 15.9412 17.5563 16.5843 17.0703 17.0703C16.5843 17.5563 15.9412 17.8533 15.2561 17.9082L13.6499 18.0364C13.4477 18.0526 13.2557 18.1323 13.1014 18.2639L11.8761 19.309C11.3527 19.755 10.6876 20 10 20C9.31238 20 8.64726 19.755 8.12394 19.309L6.89861 18.2639C6.744 18.1321 6.55167 18.0524 6.3491 18.0364L4.74394 17.9082C4.05884 17.8533 3.41567 17.5563 2.92968 17.0703C2.44369 16.5843 2.14666 15.9412 2.0918 15.2561L1.96358 13.6499C1.94735 13.4477 1.86774 13.2557 1.73606 13.1014L0.691022 11.8761C0.244988 11.3527 0 10.6876 0 10C0 9.31238 0.244988 8.64726 0.691022 8.12394L1.73606 6.89861C1.86792 6.744 1.94755 6.55167 1.96358 6.3491L2.0918 4.74394C2.14666 4.05884 2.44369 3.41567 2.92968 2.92968C3.41567 2.44369 4.05884 2.14666 4.74394 2.0918L6.35006 1.96358C6.5523 1.94735 6.74426 1.86774 6.89861 1.73606L8.12394 0.691022ZM13.5738 8.75347C13.7494 8.57164 13.8466 8.32812 13.8444 8.07535C13.8422 7.82257 13.7408 7.58077 13.562 7.40203C13.3833 7.22328 13.1415 7.1219 12.8887 7.1197C12.6359 7.1175 12.3924 7.21467 12.2106 7.39029L9.03594 10.5649L7.78941 9.31841C7.60758 9.1428 7.36406 9.04563 7.11129 9.04782C6.85851 9.05002 6.61671 9.15141 6.43797 9.33015C6.25922 9.5089 6.15783 9.7507 6.15564 10.0035C6.15344 10.2562 6.25061 10.4998 6.42622 10.6816L8.35435 12.6097C8.53514 12.7904 8.7803 12.892 9.03594 12.892C9.29157 12.892 9.53674 12.7904 9.71753 12.6097L13.5738 8.75347Z" fill="#3C5DF6"/>
</svg>
