<svg width="42" height="42" viewBox="0 0 42 42" fill="none" xmlns="http://www.w3.org/2000/svg">
<path fill-rule="evenodd" clip-rule="evenodd" d="M37.5088 22.3265C38.2414 22.3265 38.8353 21.7326 38.8353 21C38.8353 20.2674 38.2414 19.6735 37.5088 19.6735L22.3265 19.6735L22.3265 4.49123C22.3265 3.75861 21.7326 3.1647 21 3.1647C20.2674 3.1647 19.6735 3.75861 19.6735 4.49123L19.6735 19.6735L4.49122 19.6735C3.7586 19.6735 3.16469 20.2674 3.16469 21C3.16469 21.7326 3.7586 22.3265 4.49122 22.3265H19.6735L19.6735 37.5088C19.6735 38.2414 20.2674 38.8353 21 38.8353C21.7326 38.8353 22.3265 38.2414 22.3265 37.5088L22.3265 22.3265H37.5088Z" fill="#2F2F2F"/>
</svg>
