<svg width="42" height="42" viewBox="0 0 42 42" fill="none" xmlns="http://www.w3.org/2000/svg">
<path fill-rule="evenodd" clip-rule="evenodd" d="M33.6115 10.2645C34.1295 9.74649 34.1295 8.90657 33.6115 8.38853C33.0934 7.87049 32.2535 7.87049 31.7355 8.38853L21 19.124L10.2645 8.38853C9.74649 7.87049 8.90658 7.87049 8.38853 8.38853C7.87049 8.90657 7.87049 9.74649 8.38853 10.2645L19.124 21L8.38853 31.7355C7.87049 32.2535 7.87049 33.0934 8.38853 33.6115C8.90657 34.1295 9.74649 34.1295 10.2645 33.6115L21 22.876L31.7355 33.6115C32.2535 34.1295 33.0934 34.1295 33.6115 33.6115C34.1295 33.0934 34.1295 32.2535 33.6115 31.7355L22.876 21L33.6115 10.2645Z" fill="#2F2F2F"/>
</svg>
