<svg width="36" height="36" viewBox="0 0 36 36" fill="none" xmlns="http://www.w3.org/2000/svg">
<path d="M32.6667 7.61539H27L25.65 3.87363C25.5567 3.61759 25.3858 3.39627 25.1606 3.23991C24.9354 3.08354 24.6668 2.99976 24.3917 3H11.6083C11.0458 3 10.5417 3.35028 10.3542 3.87363L9 7.61539H3.33333C1.49167 7.61539 0 9.09066 0 10.9121V29.7033C0 31.5247 1.49167 33 3.33333 33H32.6667C34.5083 33 36 31.5247 36 29.7033V10.9121C36 9.09066 34.5083 7.61539 32.6667 7.61539ZM18 26.4066C14.3167 26.4066 11.3333 23.456 11.3333 19.8132C11.3333 16.1703 14.3167 13.2198 18 13.2198C21.6833 13.2198 24.6667 16.1703 24.6667 19.8132C24.6667 23.456 21.6833 26.4066 18 26.4066ZM14 19.8132C14 20.8624 14.4214 21.8686 15.1716 22.6105C15.9217 23.3524 16.9391 23.7692 18 23.7692C19.0609 23.7692 20.0783 23.3524 20.8284 22.6105C21.5786 21.8686 22 20.8624 22 19.8132C22 18.764 21.5786 17.7577 20.8284 17.0158C20.0783 16.2739 19.0609 15.8571 18 15.8571C16.9391 15.8571 15.9217 16.2739 15.1716 17.0158C14.4214 17.7577 14 18.764 14 19.8132Z" fill="#DFDFDF"/>
</svg>
