<svg width="24" height="24" viewBox="0 0 24 24" fill="none" xmlns="http://www.w3.org/2000/svg">
<path fill-rule="evenodd" clip-rule="evenodd" d="M12 0C12.6627 0 13.2 0.537258 13.2 1.2V2.4C13.2 3.06274 12.6627 3.6 12 3.6C11.3373 3.6 10.8 3.06274 10.8 2.4V1.2C10.8 0.537258 11.3373 0 12 0ZM2.75147 2.75147C3.2201 2.28284 3.9799 2.28284 4.44853 2.75147L5.64853 3.95147C6.11716 4.4201 6.11716 5.1799 5.64853 5.64853C5.1799 6.11716 4.4201 6.11716 3.95147 5.64853L2.75147 4.44853C2.28284 3.9799 2.28284 3.2201 2.75147 2.75147ZM21.2485 2.75147C21.7172 3.2201 21.7172 3.9799 21.2485 4.44853L20.0485 5.64853C19.5799 6.11716 18.8201 6.11716 18.3515 5.64853C17.8828 5.1799 17.8828 4.4201 18.3515 3.95147L19.5515 2.75147C20.0201 2.28284 20.7799 2.28284 21.2485 2.75147ZM12 8.4C11.0452 8.4 10.1295 8.77928 9.45442 9.45442C8.77928 10.1295 8.4 11.0452 8.4 12C8.4 12.9548 8.77928 13.8705 9.45442 14.5456C10.1295 15.2207 11.0452 15.6 12 15.6C12.9548 15.6 13.8705 15.2207 14.5456 14.5456C15.2207 13.8705 15.6 12.9548 15.6 12C15.6 11.0452 15.2207 10.1295 14.5456 9.45442C13.8705 8.77928 12.9548 8.4 12 8.4ZM7.75736 7.75736C8.88258 6.63214 10.4087 6 12 6C13.5913 6 15.1174 6.63214 16.2426 7.75736C17.3679 8.88258 18 10.4087 18 12C18 13.5913 17.3679 15.1174 16.2426 16.2426C15.1174 17.3679 13.5913 18 12 18C10.4087 18 8.88258 17.3679 7.75736 16.2426C6.63214 15.1174 6 13.5913 6 12C6 10.4087 6.63214 8.88258 7.75736 7.75736ZM0 12C0 11.3373 0.537258 10.8 1.2 10.8H2.4C3.06274 10.8 3.6 11.3373 3.6 12C3.6 12.6627 3.06274 13.2 2.4 13.2H1.2C0.537258 13.2 0 12.6627 0 12ZM20.4 12C20.4 11.3373 20.9373 10.8 21.6 10.8H22.8C23.4627 10.8 24 11.3373 24 12C24 12.6627 23.4627 13.2 22.8 13.2H21.6C20.9373 13.2 20.4 12.6627 20.4 12ZM5.64853 18.3515C6.11716 18.8201 6.11716 19.5799 5.64853 20.0485L4.44853 21.2485C3.9799 21.7172 3.2201 21.7172 2.75147 21.2485C2.28284 20.7799 2.28284 20.0201 2.75147 19.5515L3.95147 18.3515C4.4201 17.8828 5.1799 17.8828 5.64853 18.3515ZM18.3515 18.3515C18.8201 17.8828 19.5799 17.8828 20.0485 18.3515L21.2485 19.5515C21.7172 20.0201 21.7172 20.7799 21.2485 21.2485C20.7799 21.7172 20.0201 21.7172 19.5515 21.2485L18.3515 20.0485C17.8828 19.5799 17.8828 18.8201 18.3515 18.3515ZM12 20.4C12.6627 20.4 13.2 20.9373 13.2 21.6V22.8C13.2 23.4627 12.6627 24 12 24C11.3373 24 10.8 23.4627 10.8 22.8V21.6C10.8 20.9373 11.3373 20.4 12 20.4Z" fill="#FF6565"/>
</svg>
