<svg width="22" height="22" viewBox="0 0 22 22" fill="none" xmlns="http://www.w3.org/2000/svg">
<g clip-path="url(#clip0_223_28)">
<path d="M21.3889 22.0002V17.7224C21.3889 15.6966 19.1369 14.3613 17.1111 14.3613H9.77778C7.75317 14.3613 5.5 15.6966 5.5 17.7224V22.0002H21.3889Z" fill="#9266CC"/>
<path d="M13.4103 0.958984C15.9195 0.958984 20.1007 2.2136 20.1007 7.64943C20.1007 13.0853 20.1007 14.3399 18.8461 14.3399C17.5909 14.3399 15.9189 13.0853 13.4097 13.0853C10.901 13.0853 9.26388 14.3399 7.97383 14.3399C6.57621 14.3399 6.71921 9.32204 6.71921 7.64943C6.72044 2.2136 10.9017 0.958984 13.4103 0.958984" fill="#FFAC33"/>
<path d="M11.2004 14.3732C11.2004 15.2776 12.5278 15.5832 13.4444 15.5832C14.3611 15.5832 15.6811 15.2776 15.6811 14.3732V12.4146H11.2004V14.3732V14.3732Z" fill="#FFDC5D"/>
<path d="M11.1963 13.2483C11.8215 13.9542 12.5963 14.1454 13.4385 14.1454C14.2812 14.1454 15.0561 13.9548 15.6812 13.2483V11.4541H11.1963V13.2483V13.2483Z" fill="#F9CA55"/>
<path d="M8.39307 7.46591C8.39307 3.90069 10.6395 1.01074 13.4103 1.01074C16.1811 1.01074 18.4281 3.90069 18.4281 7.46591C18.4281 11.0305 16.1811 13.7518 13.4103 13.7518C10.6395 13.7518 8.39307 11.0311 8.39307 7.46591" fill="#FFDC5D"/>
<path d="M13.4102 12.2484C12.4294 12.2484 11.9155 11.7631 11.8605 11.7075C11.7847 11.6291 11.7426 11.5241 11.7432 11.415C11.7437 11.306 11.7869 11.2014 11.8635 11.1238C11.94 11.0461 12.0439 11.0014 12.153 10.9993C12.262 10.9971 12.3676 11.0377 12.4471 11.1123C12.4685 11.1319 12.7851 11.4124 13.4102 11.4124C14.0452 11.4124 14.3617 11.1233 14.374 11.1117C14.4541 11.0363 14.5607 10.9954 14.6707 10.9976C14.7807 10.9999 14.8855 11.0453 14.9625 11.1239C15.1213 11.2883 15.1213 11.5462 14.96 11.7075C14.9056 11.7631 14.3923 12.2484 13.4102 12.2484" fill="#DF1F32"/>
<path d="M7.1653 9.47227C7.15247 8.86116 7.13841 9.33539 7.13841 9.18811C7.13841 7.09689 8.39303 9.49 8.39303 8.00072C8.39303 6.51022 9.22903 6.36111 10.065 5.52511C10.4836 5.1065 11.3196 4.287 11.3196 4.287C11.3196 4.287 13.4102 5.55016 15.0829 5.55016C16.7549 5.55016 18.4281 6.39044 18.4281 8.06305C18.4281 9.73566 19.6827 7.09505 19.6827 9.18566C19.6827 9.33477 19.6692 8.86116 19.6582 9.47227H20.097C20.1013 8.25005 20.1013 8.2965 20.1013 7.5155C20.1013 2.07966 15.9195 0.0556641 13.4109 0.0556641C10.9022 0.0556641 6.72103 2.04605 6.72103 7.48189C6.72103 7.9665 6.7088 8.25005 6.72591 9.47227H7.1653V9.47227Z" fill="#FFAC33"/>
<path d="M11.3715 8.7916C11.2345 8.79112 11.1033 8.73649 11.0065 8.63964C10.9096 8.54279 10.855 8.41157 10.8545 8.2746V7.75821C10.8545 7.47404 11.0873 7.24121 11.3715 7.24121C11.6557 7.24121 11.8891 7.47404 11.8891 7.75821V8.2746C11.8885 8.41162 11.8337 8.54284 11.7368 8.63968C11.6398 8.73651 11.5085 8.79112 11.3715 8.7916M15.5057 8.7916C15.3687 8.79112 15.2375 8.73649 15.1406 8.63964C15.0438 8.54279 14.9891 8.41157 14.9887 8.2746V7.75821C14.9887 7.47404 15.2215 7.24121 15.5057 7.24121C15.7898 7.24121 16.0227 7.47404 16.0227 7.75821V8.2746C16.0222 8.41157 15.9676 8.54279 15.8707 8.63964C15.7738 8.73649 15.6426 8.79112 15.5057 8.7916" fill="#662113"/>
<path d="M13.956 10.3889H12.9226C12.8541 10.3888 12.7884 10.3615 12.74 10.3131C12.6915 10.2646 12.6642 10.199 12.6641 10.1304V10.0369C12.6641 9.89455 12.7796 9.77783 12.9226 9.77783H13.956C14.0977 9.77783 14.2145 9.89394 14.2145 10.0369V10.1304C14.2143 10.199 14.187 10.2646 14.1386 10.3131C14.0901 10.3615 14.0245 10.3888 13.956 10.3889Z" fill="#C1694F"/>
<path d="M9.43804 8.21086C9.43804 9.09574 8.98948 9.81319 8.43643 9.81319C7.88337 9.81319 7.43481 9.09574 7.43481 8.21086C7.43481 7.32597 7.88337 6.60791 8.43643 6.60791C8.98948 6.6073 9.43804 7.32536 9.43804 8.21086ZM19.4535 8.21086C19.4535 9.09574 19.0056 9.81319 18.4519 9.81319C17.8989 9.81319 17.4503 9.09574 17.4503 8.21086C17.4503 7.32597 17.8983 6.60791 18.4519 6.60791C19.0056 6.6073 19.4535 7.32536 19.4535 8.21086Z" fill="#FFDC5D"/>
<path d="M20.1666 21.3889C20.1666 21.551 20.1022 21.7065 19.9876 21.8211C19.873 21.9357 19.7176 22.0001 19.5555 22.0001H13.4444C13.2823 22.0001 13.1268 21.9357 13.0122 21.8211C12.8976 21.7065 12.8333 21.551 12.8333 21.3889C12.8333 21.2269 12.8976 21.0714 13.0122 20.9568C13.1268 20.8422 13.2823 20.7778 13.4444 20.7778H19.5555C19.7176 20.7778 19.873 20.8422 19.9876 20.9568C20.1022 21.0714 20.1666 21.2269 20.1666 21.3889Z" fill="#E1E8ED"/>
<path d="M12.3688 13.4443H2.29707C1.36573 13.4443 0.171624 13.9155 0.782735 15.6022L2.66007 20.7813C2.66068 20.7813 2.90268 21.9999 4.27768 21.9999H16.4999L14.0555 15.131C13.7878 14.3231 13.3007 13.4443 12.3688 13.4443V13.4443Z" fill="#E1E8ED"/>
<path d="M11.7577 13.4443H1.68598C0.754651 13.4443 -0.43946 13.9155 0.171651 15.6022L2.04898 20.7813C2.0496 20.7813 2.2916 21.9999 3.6666 21.9999H15.8888L13.4444 15.131C13.1767 14.3231 12.6897 13.4443 11.7577 13.4443V13.4443Z" fill="#99AAB5"/>
<path d="M8.56717 17.8953C8.88739 18.856 8.62828 19.8081 7.98722 20.0214C7.34739 20.2353 6.56822 19.6297 6.248 18.669C5.92778 17.7083 6.1875 16.7562 6.82794 16.5429C7.46839 16.3297 8.24756 16.9347 8.56717 17.8953ZM11.6111 15.1252H1.83333C1.71178 15.1252 1.5952 15.0769 1.50924 14.9909C1.42329 14.905 1.375 14.7884 1.375 14.6668C1.375 14.5453 1.42329 14.4287 1.50924 14.3427C1.5952 14.2568 1.71178 14.2085 1.83333 14.2085H11.6111C11.7327 14.2085 11.8492 14.2568 11.9352 14.3427C12.0212 14.4287 12.0694 14.5453 12.0694 14.6668C12.0694 14.7884 12.0212 14.905 11.9352 14.9909C11.8492 15.0769 11.7327 15.1252 11.6111 15.1252Z" fill="#E1E8ED"/>
</g>
<defs>
<clipPath id="clip0_223_28">
<rect width="22" height="22" fill="white"/>
</clipPath>
</defs>
</svg>
