<svg width="42" height="42" viewBox="0 0 42 42" fill="none" xmlns="http://www.w3.org/2000/svg">
<path d="M22.627 13.2825C22.0929 13.2247 21.5501 13.1916 21 13.1834C18.5961 13.1941 16.1041 13.7788 13.7454 14.8992C11.994 15.7654 10.288 16.9882 8.8064 18.4966C8.07875 19.2666 7.15006 20.3815 7 21.5711C7.01773 22.6015 8.12357 23.8734 8.8064 24.6456C10.1957 26.0947 11.8573 27.2825 13.7454 28.243C13.8095 28.2741 13.8739 28.3049 13.9385 28.3353L12.1868 31.3943L14.5669 32.801L27.4333 10.4002L25.1423 9L22.627 13.2825V13.2825ZM28.0598 14.8104L26.3115 17.8404C27.1158 18.8853 27.5933 20.1738 27.5933 21.5711C27.5933 25.0537 24.6411 27.8772 20.9983 27.8772C20.8408 27.8772 20.6882 27.8603 20.5334 27.8499L19.3765 29.8528C19.91 29.91 20.4496 29.9516 21 29.9588C23.4062 29.948 25.8967 29.3565 28.2529 28.243C30.0043 27.3768 31.712 26.154 33.1936 24.6456C33.9213 23.8756 34.8499 22.7607 35 21.5711C34.9823 20.5407 33.8764 19.2688 33.1936 18.4966C31.8043 17.0475 30.141 15.8596 28.2529 14.8992C28.1892 14.8683 28.124 14.8405 28.0598 14.8104V14.8104ZM20.9983 15.265C21.158 15.265 21.3165 15.2714 21.4734 15.282L20.1182 17.6285C18.2162 18.0141 16.7891 19.6323 16.7891 21.5694C16.7891 22.056 16.8787 22.5218 17.0437 22.9536C17.0439 22.9541 17.0435 22.9549 17.0437 22.9554L15.685 25.3086C14.8789 24.2628 14.4033 22.97 14.4033 21.5711C14.4033 18.0884 17.3555 15.2649 20.9983 15.265V15.265ZM24.9409 20.2124L21.887 25.5035C23.7788 25.1106 25.1956 23.4997 25.1956 21.5694C25.1956 21.0917 25.1002 20.6375 24.9409 20.2124V20.2124Z" fill="#C9C9C9"/>
</svg>
