<svg width="42" height="42" viewBox="0 0 42 42" fill="none" xmlns="http://www.w3.org/2000/svg">
<path fill-rule="evenodd" clip-rule="evenodd" d="M26.1121 18.5167C26.1121 22.7115 22.7115 26.1121 18.5167 26.1121C14.3219 26.1121 10.9213 22.7115 10.9213 18.5167C10.9213 14.3219 14.3219 10.9213 18.5167 10.9213C22.7115 10.9213 26.1121 14.3219 26.1121 18.5167ZM24.8488 26.9142C23.0874 28.2445 20.8942 29.0334 18.5167 29.0334C12.7085 29.0334 8 24.3249 8 18.5167C8 12.7085 12.7085 8 18.5167 8C24.3249 8 29.0334 12.7085 29.0334 18.5167C29.0334 20.894 28.2446 23.0871 26.9144 24.8485L33.5719 31.5059C34.1423 32.0764 34.1423 33.0012 33.5719 33.5716C33.0015 34.142 32.0766 34.142 31.5062 33.5716L24.8488 26.9142Z" fill="#2F2F2F"/>
</svg>
