<svg width="70" height="60" viewBox="0 0 70 60" fill="none" xmlns="http://www.w3.org/2000/svg">
<g clip-path="url(#clip0_424_5505)">
<path d="M0 49.5271C0 51.4116 1.63504 52.9411 3.6498 52.9411H48.8502C50.865 52.9411 52.5 51.4116 52.5 49.5271V16.7646H0V49.5271Z" fill="#F0F0F0"/>
<path d="M24.063 22.7576H19.0517C18.8214 22.7576 18.6348 22.9458 18.6348 23.1781V28.2325C18.6348 28.4647 18.8214 28.653 19.0517 28.653H24.063C24.2933 28.653 24.4799 28.4647 24.4799 28.2325V23.1781C24.4799 22.9458 24.2933 22.7576 24.063 22.7576Z" fill="#9F9F9F"/>
<path d="M33.4434 22.7576H28.4321C28.2018 22.7576 28.0151 22.9458 28.0151 23.1781V28.2325C28.0151 28.4647 28.2018 28.653 28.4321 28.653H33.4434C33.6736 28.653 33.8603 28.4647 33.8603 28.2325V23.1781C33.8603 22.9458 33.6736 22.7576 33.4434 22.7576Z" fill="#9F9F9F"/>
<path d="M42.8242 22.7576H37.8129C37.5827 22.7576 37.396 22.9458 37.396 23.1781V28.2325C37.396 28.4647 37.5827 28.653 37.8129 28.653H42.8242C43.0545 28.653 43.2411 28.4647 43.2411 28.2325V23.1781C43.2411 22.9458 43.0545 22.7576 42.8242 22.7576Z" fill="#9F9F9F"/>
<path d="M14.6826 31.9034H9.67131C9.44105 31.9034 9.25439 32.0917 9.25439 32.3239V37.3784C9.25439 37.6106 9.44105 37.7989 9.67131 37.7989H14.6826C14.9129 37.7989 15.0995 37.6106 15.0995 37.3784V32.3239C15.0995 32.0917 14.9129 31.9034 14.6826 31.9034Z" fill="#9F9F9F"/>
<path d="M24.063 31.9034H19.0517C18.8214 31.9034 18.6348 32.0917 18.6348 32.3239V37.3784C18.6348 37.6106 18.8214 37.7989 19.0517 37.7989H24.063C24.2933 37.7989 24.4799 37.6106 24.4799 37.3784V32.3239C24.4799 32.0917 24.2933 31.9034 24.063 31.9034Z" fill="#9F9F9F"/>
<path d="M33.4439 31.9034H28.4325C28.2023 31.9034 28.0156 32.0917 28.0156 32.3239V37.3784C28.0156 37.6106 28.2023 37.7989 28.4325 37.7989H33.4439C33.6741 37.7989 33.8608 37.6106 33.8608 37.3784V32.3239C33.8608 32.0917 33.6741 31.9034 33.4439 31.9034Z" fill="#9F9F9F"/>
<path d="M42.8242 31.9034H37.8129C37.5827 31.9034 37.396 32.0917 37.396 32.3239V37.3784C37.396 37.6106 37.5827 37.7989 37.8129 37.7989H42.8242C43.0545 37.7989 43.2411 37.6106 43.2411 37.3784V32.3239C43.2411 32.0917 43.0545 31.9034 42.8242 31.9034Z" fill="#9F9F9F"/>
<path d="M14.6826 41.0494H9.67131C9.44105 41.0494 9.25439 41.2377 9.25439 41.4699V46.5244C9.25439 46.7566 9.44105 46.9449 9.67131 46.9449H14.6826C14.9129 46.9449 15.0995 46.7566 15.0995 46.5244V41.4699C15.0995 41.2377 14.9129 41.0494 14.6826 41.0494Z" fill="#9F9F9F"/>
<path d="M24.063 41.0494H19.0517C18.8214 41.0494 18.6348 41.2377 18.6348 41.4699V46.5244C18.6348 46.7566 18.8214 46.9449 19.0517 46.9449H24.063C24.2933 46.9449 24.4799 46.7566 24.4799 46.5244V41.4699C24.4799 41.2377 24.2933 41.0494 24.063 41.0494Z" fill="#9F9F9F"/>
<path d="M33.4439 41.0494H28.4325C28.2023 41.0494 28.0156 41.2377 28.0156 41.4699V46.5244C28.0156 46.7566 28.2023 46.9449 28.4325 46.9449H33.4439C33.6741 46.9449 33.8608 46.7566 33.8608 46.5244V41.4699C33.8608 41.2377 33.6741 41.0494 33.4439 41.0494Z" fill="#9F9F9F"/>
<path d="M42.8242 41.0494H37.8129C37.5827 41.0494 37.396 41.2377 37.396 41.4699V46.5244C37.396 46.7566 37.5827 46.9449 37.8129 46.9449H42.8242C43.0545 46.9449 43.2411 46.7566 43.2411 46.5244V41.4699C43.2411 41.2377 43.0545 41.0494 42.8242 41.0494Z" fill="#9F9F9F"/>
<path d="M48.846 2.64709H3.64949C1.6349 2.64709 0 4.19088 0 6.0932V16.7647H52.5V6.0932C52.5 4.19088 50.8651 2.64709 48.8505 2.64709H48.846Z" fill="#3C5DF6"/>
<path d="M16.4215 7.56063C16.4215 9.16695 15.129 10.4705 13.5364 10.4705C11.9438 10.4705 10.6514 9.16695 10.6514 7.56063C10.6514 5.95431 11.9438 4.65076 13.5364 4.65076C15.129 4.65076 16.4215 5.95431 16.4215 7.56063V7.56063Z" fill="#F7F7F7"/>
<path d="M41.8492 7.56063C41.8492 9.16695 40.5568 10.4705 38.9642 10.4705C37.3715 10.4705 36.0791 9.16695 36.0791 7.56063C36.0791 5.95431 37.3715 4.65076 38.9642 4.65076C40.5568 4.65076 41.8492 5.95431 41.8492 7.56063V7.56063Z" fill="#F7F7F7"/>
<path d="M13.5365 0C12.4648 0 11.5933 0.878849 11.5933 1.95954V7.33355C11.5933 8.41424 12.4648 9.29309 13.5365 9.29309C14.6082 9.29309 15.4797 8.41424 15.4797 7.33355V1.95954C15.4797 0.878849 14.6082 0 13.5365 0Z" fill="#3E4852"/>
<path d="M38.9642 0C37.8925 0 37.021 0.878849 37.021 1.95954V7.33355C37.021 8.41424 37.8925 9.29309 38.9642 9.29309C40.0359 9.29309 40.9074 8.41424 40.9074 7.33355V1.95954C40.9074 0.878849 40.0359 0 38.9642 0Z" fill="#3E4852"/>
<rect x="42" y="32" width="28" height="28" rx="14" fill="#3C5DF6"/>
<path fill-rule="evenodd" clip-rule="evenodd" d="M64.2071 39.3527C64.8472 39.8908 64.9337 40.8503 64.4003 41.496L55.3486 52.4525C55.0818 52.7754 54.6944 52.9726 54.2784 52.9974C53.8623 53.0221 53.4547 52.8721 53.1521 52.583L47.7211 47.3931C47.1162 46.8151 47.0904 45.8519 47.6634 45.2418C48.2365 44.6317 49.1913 44.6056 49.7962 45.1836L54.06 49.2582L62.0824 39.5476C62.6158 38.9019 63.5671 38.8147 64.2071 39.3527Z" fill="white"/>
</g>
<defs>
<clipPath id="clip0_424_5505">
<rect width="70" height="60" fill="white"/>
</clipPath>
</defs>
</svg>
