<svg width="24" height="24" viewBox="0 0 24 24" fill="none" xmlns="http://www.w3.org/2000/svg">
<path d="M21.7778 5.07692H18L17.1 2.58242C17.0378 2.41173 16.9239 2.26418 16.7737 2.15994C16.6236 2.0557 16.4446 1.99984 16.2611 2H7.73889C7.36389 2 7.02778 2.23352 6.90278 2.58242L6 5.07692H2.22222C0.994444 5.07692 0 6.06044 0 7.27473V19.8022C0 21.0165 0.994444 22 2.22222 22H21.7778C23.0056 22 24 21.0165 24 19.8022V7.27473C24 6.06044 23.0056 5.07692 21.7778 5.07692ZM12 17.6044C9.54444 17.6044 7.55556 15.6374 7.55556 13.2088C7.55556 10.7802 9.54444 8.81319 12 8.81319C14.4556 8.81319 16.4444 10.7802 16.4444 13.2088C16.4444 15.6374 14.4556 17.6044 12 17.6044ZM9.33333 13.2088C9.33333 13.9083 9.61428 14.5791 10.1144 15.0737C10.6145 15.5683 11.2928 15.8462 12 15.8462C12.7072 15.8462 13.3855 15.5683 13.8856 15.0737C14.3857 14.5791 14.6667 13.9083 14.6667 13.2088C14.6667 12.5093 14.3857 11.8385 13.8856 11.3439C13.3855 10.8493 12.7072 10.5714 12 10.5714C11.2928 10.5714 10.6145 10.8493 10.1144 11.3439C9.61428 11.8385 9.33333 12.5093 9.33333 13.2088Z" fill="white"/>
</svg>
