<svg width="42" height="42" viewBox="0 0 42 42" fill="none" xmlns="http://www.w3.org/2000/svg">
<path fill-rule="evenodd" clip-rule="evenodd" d="M21 35C28.732 35 35 28.732 35 21C35 13.268 28.732 7 21 7C13.268 7 7 13.268 7 21C7 28.732 13.268 35 21 35ZM15.9274 14.3307C15.4865 13.8898 14.7716 13.8898 14.3307 14.3307C13.8898 14.7716 13.8898 15.4865 14.3307 15.9274L19.4033 21L14.3307 26.0726C13.8898 26.5135 13.8898 27.2284 14.3307 27.6693C14.7716 28.1102 15.4865 28.1102 15.9274 27.6693L21 22.5967L26.0726 27.6693C26.5135 28.1102 27.2284 28.1102 27.6693 27.6693C28.1102 27.2284 28.1102 26.5135 27.6693 26.0726L22.5967 21L27.6693 15.9274C28.1102 15.4865 28.1102 14.7716 27.6693 14.3307C27.2284 13.8898 26.5135 13.8898 26.0726 14.3307L21 19.4033L15.9274 14.3307Z" fill="white"/>
</svg>
