<svg width="42" height="42" viewBox="0 0 42 42" fill="none" xmlns="http://www.w3.org/2000/svg">
<g clip-path="url(#clip0_654_8030)">
<path d="M35.3502 15H5.74725C5.33458 15 5 14.6642 5 14.25V12C5 10.3431 6.33821 9 7.98901 9H12.578V5.75C12.578 5.33581 12.9126 5 13.3253 5H15.8161C16.2288 5 16.5634 5.33581 16.5634 5.75V9H24.5341V5.75C24.5341 5.33581 24.8686 5 25.2813 5H27.7722C28.1848 5 28.5194 5.33581 28.5194 5.75V9H33.1084C34.7592 9 36.0974 10.3431 36.0974 12V14.25C36.0974 14.6642 35.7629 15 35.3502 15ZM5.74725 17H35.3502C35.7629 17 36.0974 17.3358 36.0974 17.75V34C36.0974 35.6569 34.7592 37 33.1084 37H7.98901C6.33821 37 5 35.6569 5 34V17.75C5 17.3358 5.33458 17 5.74725 17ZM28.1019 22.9967L26.3478 21.2218C26.0572 20.9278 25.5841 20.9258 25.2911 21.2176L18.6881 27.7916L15.8248 24.8946C15.5342 24.6005 15.061 24.5986 14.768 24.8903L12.9997 26.6509C12.7067 26.9426 12.7048 27.4175 12.9955 27.7116L18.1391 32.9159C18.4298 33.2099 18.9029 33.2119 19.1959 32.9201L28.0977 24.0573C28.3907 23.7656 28.3926 23.2908 28.1019 22.9967Z" fill="#3C5DF6"/>
</g>
<defs>
<clipPath id="clip0_654_8030">
<rect width="42" height="42" fill="white"/>
</clipPath>
</defs>
</svg>
