<svg width="42" height="42" viewBox="0 0 42 42" fill="none" xmlns="http://www.w3.org/2000/svg">
<path d="M25.1963 21.3861C25.1963 23.6105 23.3142 25.4137 20.9924 25.4137C18.6706 25.4137 16.7885 23.6105 16.7885 21.3861C16.7885 19.1617 18.6706 17.3585 20.9924 17.3585C23.3142 17.3585 25.1963 19.1617 25.1963 21.3861ZM21 13C18.5961 13.0107 16.1043 13.5959 13.7456 14.7163C11.9942 15.5825 10.2874 16.8046 8.80586 18.313C8.07819 19.0829 7.15006 20.1978 7 21.3874C7.01773 22.4178 8.12303 23.6897 8.80586 24.4619C10.1952 25.911 11.8575 27.099 13.7456 28.0594C15.9452 29.1269 18.3799 29.7415 21 29.7757C23.4062 29.7649 25.8974 29.1729 28.2535 28.0594C30.0049 27.1932 31.7125 25.9703 33.1941 24.4619C33.9218 23.6919 34.8499 22.577 35 21.3874C34.9823 20.357 33.877 19.0851 33.1941 18.3129C31.8048 16.8638 30.1416 15.6767 28.2535 14.7163C26.055 13.6496 23.6143 13.0392 21 13ZM20.9982 15.0825C24.641 15.0825 27.594 17.9056 27.594 21.3883C27.594 24.871 24.641 27.6941 20.9982 27.6941C17.3555 27.6941 14.4025 24.8709 14.4025 21.3883C14.4025 17.9056 17.3555 15.0825 20.9982 15.0825Z" fill="#C9C9C9"/>
</svg>
