<svg width="42" height="42" viewBox="0 0 42 42" fill="none" xmlns="http://www.w3.org/2000/svg">
<path fill-rule="evenodd" clip-rule="evenodd" d="M35 21C35 28.732 28.732 35 21 35C13.268 35 7 28.732 7 21C7 13.268 13.268 7 21 7C28.732 7 35 13.268 35 21ZM14 21.25C14 20.5596 14.5596 20 15.25 20H20V15.25C20 14.5596 20.5596 14 21.25 14C21.9404 14 22.5 14.5596 22.5 15.25V20H26.75C27.4404 20 28 20.5596 28 21.25C28 21.9404 27.4404 22.5 26.75 22.5H22.5V26.75C22.5 27.4404 21.9404 28 21.25 28C20.5596 28 20 27.4404 20 26.75V22.5H15.25C14.5596 22.5 14 21.9404 14 21.25Z" fill="#C9C9C9"/>
</svg>
