<svg width="42" height="42" viewBox="0 0 42 42" fill="none" xmlns="http://www.w3.org/2000/svg">
<path d="M21.0032 25.9C19.6672 25.9 18.3859 25.3838 17.4412 24.4648C16.4964 23.5459 15.9657 22.2996 15.9657 21C15.9657 19.7004 16.4964 18.4541 17.4412 17.5352C18.3859 16.6162 19.6672 16.1 21.0032 16.1C22.3392 16.1 23.6205 16.6162 24.5652 17.5352C25.5099 18.4541 26.0406 19.7004 26.0406 21C26.0406 22.2996 25.5099 23.5459 24.5652 24.4648C23.6205 25.3838 22.3392 25.9 21.0032 25.9V25.9ZM31.697 22.358C31.7546 21.91 31.7977 21.462 31.7977 21C31.7977 20.538 31.7546 20.076 31.697 19.6L34.7339 17.318C35.0073 17.108 35.0793 16.73 34.9066 16.422L32.028 11.578C31.8553 11.27 31.4667 11.144 31.1501 11.27L27.5663 12.67C26.8178 12.124 26.0406 11.648 25.1339 11.298L24.6014 7.588C24.5438 7.252 24.2415 7 23.8817 7H18.1246C17.7648 7 17.4626 7.252 17.405 7.588L16.8725 11.298C15.9657 11.648 15.1885 12.124 14.4401 12.67L10.8563 11.27C10.5397 11.144 10.151 11.27 9.97834 11.578L7.09979 16.422C6.91268 16.73 6.99904 17.108 7.2725 17.318L10.3094 19.6C10.2518 20.076 10.2086 20.538 10.2086 21C10.2086 21.462 10.2518 21.91 10.3094 22.358L7.2725 24.682C6.99904 24.892 6.91268 25.27 7.09979 25.578L9.97834 30.422C10.151 30.73 10.5397 30.842 10.8563 30.73L14.4401 29.316C15.1885 29.876 15.9657 30.352 16.8725 30.702L17.405 34.412C17.4626 34.748 17.7648 35 18.1246 35H23.8817C24.2415 35 24.5438 34.748 24.6014 34.412L25.1339 30.702C26.0406 30.338 26.8178 29.876 27.5663 29.316L31.1501 30.73C31.4667 30.842 31.8553 30.73 32.028 30.422L34.9066 25.578C35.0793 25.27 35.0073 24.892 34.7339 24.682L31.697 22.358Z" fill="#C9C9C9"/>
</svg>
