<svg width="23" height="23" viewBox="0 0 23 23" fill="none" xmlns="http://www.w3.org/2000/svg">
<path fill-rule="evenodd" clip-rule="evenodd" d="M9.20576 0.278077C9.53137 0.558083 9.67384 0.996185 9.5752 1.41415C8.89176 4.31017 8.64457 7.97984 10.097 10.5387C10.7951 11.7685 11.909 12.7866 13.6896 13.3612C15.5021 13.946 18.062 14.0877 21.637 13.414C22.0498 13.3362 22.4722 13.4896 22.7387 13.8143C23.0053 14.1389 23.0737 14.5831 22.9171 14.9728C21.1807 19.2939 17.3253 23 12.1095 23C8.89785 23 5.81776 21.7242 3.54679 19.4532C1.27582 17.1822 0 14.1021 0 10.8905C0 5.67467 3.70612 1.81925 8.02717 0.0829433C8.42565 -0.0771771 8.88015 -0.00192799 9.20576 0.278077ZM6.90668 3.22136C4.18739 4.92569 2.3 7.63321 2.3 10.8905C2.3 13.4922 3.3335 15.9872 5.17313 17.8269C7.01277 19.6665 9.50785 20.7 12.1095 20.7C15.3986 20.7 18.1271 18.7756 19.8283 16.0135C17.069 16.3234 14.8121 16.1402 12.9833 15.55C10.6513 14.7975 9.07732 13.4015 8.09681 11.6741C6.64145 9.11012 6.55096 5.92599 6.90668 3.22136Z" fill="#FFD341"/>
</svg>
