<svg xmlns="http://www.w3.org/2000/svg" viewBox="0 0 17.86 19.84"><defs><style>.cls-1{fill:#fff;}.cls-2{fill:#66cbec;}</style></defs><g id="레이어_2" data-name="레이어 2"><g id="레이어_1-2" data-name="레이어 1"><path class="cls-1" d="M17.86,2.56a2.81,2.81,0,0,0-.07-.65A2.46,2.46,0,0,0,15.31,0H2.61A2.48,2.48,0,0,0,0,2.61v12.7a2.46,2.46,0,0,0,.83,1.92,2.4,2.4,0,0,0,1.63.63c.5,0,1,0,1.51,0,0,.47,0,.91,0,1.35s.34.77.83.53,1-.5,1.48-.73a.44.44,0,0,1,.34,0c.51.24,1,.51,1.52.76s.79,0,.79-.5v-1.4h.31c2,0,4,0,6,0a2.46,2.46,0,0,0,2.57-2.58Z"/><path class="cls-2" d="M8.93,17.86v1.4c0,.5-.35.72-.79.5s-1-.52-1.52-.76a.44.44,0,0,0-.34,0c-.5.23-1,.48-1.48.73s-.83,0-.83-.53,0-.88,0-1.35c-.52,0-1,0-1.51,0a2.4,2.4,0,0,1-1.63-.63A2.46,2.46,0,0,1,0,15.31V2.61A2.48,2.48,0,0,1,2.61,0h12.7a2.46,2.46,0,0,1,2.48,1.91,2.81,2.81,0,0,1,.07.65V15.28a2.46,2.46,0,0,1-2.57,2.58c-2,0-4,0-6,0ZM4,12.9H15.3a1.46,1.46,0,0,0,1.56-1.51c0-3,0-5.89,0-8.84a1.55,1.55,0,0,0-.07-.48A1.49,1.49,0,0,0,15.25,1H4Zm-3,.49a3,3,0,0,1,2-.5V1A1.54,1.54,0,0,0,1,2.58Zm15.84.06a3,3,0,0,1-1.93.45H2.44A1.47,1.47,0,0,0,1,15.13,1.42,1.42,0,0,0,2.1,16.81c.61.08,1.23.06,1.85.09v-1H2.49v-1h12.9A1.41,1.41,0,0,0,16.83,13.45Zm0,1.94a3.22,3.22,0,0,1-2.14.49H9v1H15.3A1.48,1.48,0,0,0,16.86,15.39ZM7.92,18.54V15.89H5v2.65l.77-.39c.77-.37.58-.4,1.38,0Z"/><path class="cls-2" d="M10.72,4.38H7.14A.13.13,0,0,0,7,4.51v5.76a.13.13,0,0,0,.13.13H8.21a.13.13,0,0,0,.13-.13V8.2a.13.13,0,0,1,.13-.13h1.92a.12.12,0,0,0,.12-.13V7a.12.12,0,0,0-.12-.13H8.47a.13.13,0,0,1-.13-.13v-1a.13.13,0,0,1,.13-.13h2.25a.13.13,0,0,0,.13-.13v-1A.13.13,0,0,0,10.72,4.38Z"/><polygon class="cls-1" points="2.83 1 4.79 1 4.79 12.9 1.85 12.9 2.83 1"/></g></g></svg>