<svg width="52" height="52" viewBox="0 0 52 52" fill="none" xmlns="http://www.w3.org/2000/svg">
<path d="M9.75 45.5C9.75 45.5 6.5 45.5 6.5 42.25C6.5 39 9.75 29.25 26 29.25C42.25 29.25 45.5 39 45.5 42.25C45.5 45.5 42.25 45.5 42.25 45.5H9.75ZM26 26C28.5859 26 31.0658 24.9728 32.8943 23.1443C34.7228 21.3158 35.75 18.8359 35.75 16.25C35.75 13.6641 34.7228 11.1842 32.8943 9.35571C31.0658 7.52723 28.5859 6.5 26 6.5C23.4141 6.5 20.9342 7.52723 19.1057 9.35571C17.2772 11.1842 16.25 13.6641 16.25 16.25C16.25 18.8359 17.2772 21.3158 19.1057 23.1443C20.9342 24.9728 23.4141 26 26 26Z" fill="#DFDFDF"/>
</svg>
