<svg width="17" height="17" viewBox="0 0 17 17" fill="none" xmlns="http://www.w3.org/2000/svg">
<path d="M2.18846 9.73926L2.72731 10.8008C2.35808 11.1643 2.15385 11.56 2.15385 11.9616C2.15385 13.4454 4.95423 14.8462 8.5 14.8462C12.0458 14.8462 14.8462 13.4454 14.8462 11.9616C14.8462 11.56 14.6408 11.1654 14.2727 10.8019L14.8219 9.74849C15.5662 10.3716 16 11.1262 16 11.9616C16 14.3004 12.6008 16 8.5 16C4.39923 16 1 14.3004 1 11.9616C1 11.1216 1.43846 10.3646 2.18846 9.73926V9.73926Z" fill="#3C5FD6" stroke="#3C5FD6" stroke-width="0.4"/>
<path d="M2.18846 6.27734L2.72731 7.33888C2.35808 7.7035 2.15385 8.09927 2.15385 8.49965C2.15385 9.9835 4.95423 11.3843 8.5 11.3843C12.0458 11.3843 14.8462 9.9835 14.8462 8.49965C14.8462 8.09811 14.6408 7.7035 14.2727 7.34004L14.8219 6.28657C15.5662 6.90965 16 7.66427 16 8.49965C16 10.8385 12.6008 12.5381 8.5 12.5381C4.39923 12.5381 1 10.8385 1 8.49965C1 7.65965 1.43846 6.90273 2.18846 6.27734V6.27734Z" fill="#3C5FD6" stroke="#3C5FD6" stroke-width="0.4"/>
<path d="M8.5 9.07692C4.39923 9.07692 1 7.37731 1 5.03846C1 2.69962 4.39923 1 8.5 1C12.6008 1 16 2.69962 16 5.03846C16 7.37731 12.6008 9.07692 8.5 9.07692ZM8.5 7.92308C12.0458 7.92308 14.8462 6.52231 14.8462 5.03846C14.8462 3.55462 12.0458 2.15385 8.5 2.15385C4.95423 2.15385 2.15385 3.55462 2.15385 5.03846C2.15385 6.52231 4.95423 7.92308 8.5 7.92308Z" fill="#3C5FD6" stroke="#3C5FD6" stroke-width="0.4"/>
</svg>
