<svg width="16" height="16" viewBox="0 0 16 16" fill="none" xmlns="http://www.w3.org/2000/svg">
<g clip-path="url(#clip0_1935_17228)">
<path d="M8 1.37258C8.87885 0.493733 10.0708 0 11.3137 0C12.5566 0 13.7486 0.493733 14.6274 1.37258C15.5063 2.25143 16 3.44341 16 4.68629C16 5.92917 15.5063 7.12115 14.6274 8L8 14.6274C7.56484 15.0626 7.04822 15.4078 6.47966 15.6433C5.91109 15.8788 5.3017 16 4.68629 16C3.44341 16 2.25143 15.5063 1.37258 14.6274C0.493733 13.7486 0 12.5566 0 11.3137C0 10.0708 0.493733 8.87885 1.37258 8L8 1.37258ZM10.8411 9.89316L13.6795 7.05476C14.3028 6.42619 14.6517 5.57632 14.6499 4.69114C14.648 3.80595 14.2957 2.95752 13.6698 2.33151C13.044 1.7055 12.1957 1.35288 11.3105 1.35082C10.4253 1.34876 9.57533 1.69742 8.94658 2.3205L6.10683 5.15891L10.8411 9.89316ZM7.80452 11.8211C7.86668 11.7589 7.91596 11.685 7.94957 11.6037C7.98317 11.5224 8.00043 11.4353 8.00037 11.3474C8.00031 11.2594 7.98292 11.1723 7.9492 11.0911C7.91549 11.0098 7.8661 10.936 7.80385 10.8739C7.74161 10.8117 7.66774 10.7624 7.58645 10.7288C7.50516 10.6952 7.41805 10.678 7.33009 10.678C7.24213 10.6781 7.15504 10.6955 7.0738 10.7292C6.99256 10.7629 6.91876 10.8123 6.8566 10.8746L4.84829 12.8829C4.78614 12.9451 4.73686 13.019 4.70325 13.1003C4.66965 13.1816 4.65239 13.2687 4.65245 13.3566C4.65257 13.5343 4.72326 13.7046 4.84896 13.8301C4.97467 13.9556 5.14508 14.0261 5.32273 14.026C5.50037 14.0258 5.67069 13.9552 5.79622 13.8294L7.80452 11.8211Z" fill="#9F9F9F"/>
</g>
<defs>
<clipPath id="clip0_1935_17228">
<rect width="16" height="16" fill="white"/>
</clipPath>
</defs>
</svg>
