<svg xmlns="http://www.w3.org/2000/svg" viewBox="0 0 19.72 17.83"><defs><style>.cls-1{fill:#fff;}.cls-2{fill:#66cbec;}.cls-3{fill:none;stroke:#66cbec;stroke-linecap:square;stroke-linejoin:round;}</style></defs><g id="레이어_2" data-name="레이어 2"><g id="레이어_1-2" data-name="레이어 1"><path class="cls-1" d="M10.13,17.37a1.23,1.23,0,0,1-1-.53A23.28,23.28,0,0,0,7.4,14.62H3.3A2.85,2.85,0,0,1,.46,11.78V3.3A2.85,2.85,0,0,1,3.3.46H16.41A2.84,2.84,0,0,1,19.25,3.3v8.48a2.84,2.84,0,0,1-2.84,2.84H12.77a18.06,18.06,0,0,0-1.58,2.17A1.27,1.27,0,0,1,10.13,17.37Z"/><path class="cls-2" d="M16.41.93A2.37,2.37,0,0,1,18.79,3.3v8.48a2.37,2.37,0,0,1-2.38,2.37H12.58a16.11,16.11,0,0,0-1.78,2.39.79.79,0,0,1-1.31,0,19.75,19.75,0,0,0-1.91-2.42H3.3A2.37,2.37,0,0,1,.93,11.78V3.3A2.37,2.37,0,0,1,3.3.93H16.41m0-.93H3.3A3.3,3.3,0,0,0,0,3.3v8.48a3.3,3.3,0,0,0,3.3,3.3H7.19c.23.26.68.83,1.55,2a1.72,1.72,0,0,0,2.84-.06,20.94,20.94,0,0,1,1.4-2h3.43a3.31,3.31,0,0,0,3.31-3.3V3.3A3.31,3.31,0,0,0,16.41,0Z"/><path class="cls-2" d="M7.45,5.07,7,5.46a.09.09,0,0,0,0,.09l.08.57a.1.1,0,0,1-.15.11L6.43,6a.07.07,0,0,0-.09,0l-.52.26a.1.1,0,0,1-.14-.11l.1-.57a.09.09,0,0,0,0-.09L5.35,5a.1.1,0,0,1,.06-.17L6,4.79a.16.16,0,0,0,.08-.06l.26-.51a.1.1,0,0,1,.18,0l.25.52a.08.08,0,0,0,.08.06l.56.09A.11.11,0,0,1,7.45,5.07Z"/><path class="cls-2" d="M10.91,5.07l-.42.39a.09.09,0,0,0,0,.09l.08.57a.1.1,0,0,1-.15.11L9.89,6a.09.09,0,0,0-.1,0l-.51.26a.11.11,0,0,1-.15-.11l.11-.57a.09.09,0,0,0,0-.09L8.81,5a.1.1,0,0,1,.06-.17l.57-.07a.16.16,0,0,0,.08-.06l.26-.51a.1.1,0,0,1,.18,0l.25.52a.07.07,0,0,0,.07.06l.57.09A.11.11,0,0,1,10.91,5.07Z"/><path class="cls-2" d="M14.37,5.07,14,5.46a.09.09,0,0,0,0,.09l.08.57a.1.1,0,0,1-.15.11L13.35,6a.09.09,0,0,0-.1,0l-.51.26a.11.11,0,0,1-.15-.11l.11-.57a.09.09,0,0,0,0-.09L12.27,5a.1.1,0,0,1,.06-.17l.57-.07A.16.16,0,0,0,13,4.73l.26-.51a.1.1,0,0,1,.18,0l.25.52a.07.07,0,0,0,.07.06l.57.09A.11.11,0,0,1,14.37,5.07Z"/><line class="cls-3" x1="9.51" y1="11.53" x2="5.42" y2="11.53"/><line class="cls-3" x1="14.3" y1="7.96" x2="5.42" y2="7.96"/><line class="cls-3" x1="14.3" y1="9.75" x2="5.42" y2="9.75"/></g></g></svg>