<svg width="24" height="24" viewBox="0 0 24 24" fill="none" xmlns="http://www.w3.org/2000/svg">
<path fill-rule="evenodd" clip-rule="evenodd" d="M8.01876 6.10204C8.01876 5.62302 8.4062 5.23469 8.88414 5.23469C9.36208 5.23469 9.74953 5.62302 9.74953 6.10204C9.74953 6.58106 9.36208 6.96939 8.88414 6.96939C8.4062 6.96939 8.01876 6.58106 8.01876 6.10204ZM6.46318 7.04364H4.02273C3.45789 7.04364 3 6.59984 3 6.05238C3 5.50493 3.45789 5.06113 4.02273 5.06113H6.50405C6.90469 4.14219 7.81959 3.5 8.88414 3.5C9.94869 3.5 10.8636 4.14219 11.2642 5.06113H19.9773C20.5421 5.06113 21 5.50493 21 6.05238C21 6.59984 20.5421 7.04364 19.9773 7.04364H11.3051C10.9286 8.01529 9.98664 8.70408 8.88414 8.70408C7.78164 8.70408 6.83965 8.01529 6.46318 7.04364ZM4.02273 11.0087C3.45789 11.0087 3 11.4525 3 11.9999C3 12.5474 3.45789 12.9912 4.02273 12.9912H13.2921C13.5781 14.1166 14.5961 14.949 15.8081 14.949C17.02 14.949 18.038 14.1166 18.324 12.9912H19.9773C20.5421 12.9912 21 12.5474 21 11.9999C21 11.4525 20.5421 11.0087 19.9773 11.0087H18.035C17.5811 10.2515 16.7536 9.74488 15.8081 9.74488C14.8625 9.74488 14.0351 10.2515 13.5811 11.0087H4.02273ZM3 17.9474C3 17.4 3.45789 16.9562 4.02273 16.9562H6.46333C6.83982 15.9846 7.78178 15.2958 8.88424 15.2958C9.9867 15.2958 10.9287 15.9846 11.3052 16.9562H19.9773C20.5421 16.9562 21 17.4 21 17.9474C21 18.4949 20.5421 18.9387 19.9773 18.9387H11.2644C10.8638 19.8577 9.94884 20.4999 8.88424 20.4999C7.81964 20.4999 6.90471 19.8577 6.5041 18.9387H4.02273C3.45789 18.9387 3 18.4949 3 17.9474ZM15.8081 11.4796C15.3301 11.4796 14.9427 11.8679 14.9427 12.3469C14.9427 12.8259 15.3301 13.2143 15.8081 13.2143C16.286 13.2143 16.6735 12.8259 16.6735 12.3469C16.6735 11.8679 16.286 11.4796 15.8081 11.4796ZM8.01886 17.8979C8.01886 17.4189 8.4063 17.0305 8.88424 17.0305C9.36218 17.0305 9.74962 17.4189 9.74962 17.8979C9.74962 18.3769 9.36218 18.7652 8.88424 18.7652C8.4063 18.7652 8.01886 18.3769 8.01886 17.8979Z" fill="#2F2F2F"/>
</svg>
