<svg width="101" height="70" viewBox="0 0 101 70" fill="none" xmlns="http://www.w3.org/2000/svg">
<g clip-path="url(#clip0_1951_17950)">
<path d="M36.1741 27.4319H78.0357C78.844 27.4319 79.5006 28.1214 79.5006 28.9701V64.337C79.5006 65.1856 78.844 65.8751 78.0357 65.8751H36.1741C35.3659 65.8751 34.7092 65.1856 34.7092 64.337V28.9701C34.7092 28.1214 35.3659 27.4319 36.1741 27.4319Z" fill="#D49C5B"/>
<path opacity="0.7" d="M52.6271 46.1176L54.4677 45.8071L57.105 46.3452L59.7412 45.8071L61.5828 46.1176V27.4319H52.6271V46.1176Z" fill="white"/>
<path d="M19.3982 17.7354H52.0209C52.7229 17.7354 53.2922 18.3332 53.2922 19.0702V41.9129C53.2922 42.65 52.7229 43.2478 52.0209 43.2478H19.3971C18.6952 43.2478 18.1259 42.65 18.1259 41.9129V19.0702C18.1259 18.3332 18.6952 17.7354 19.3971 17.7354H19.3982Z" fill="#DEAF7A"/>
<path opacity="0.7" d="M31.8226 30.5877L33.4212 30.3181L35.7091 30.7855L37.9969 30.3181L39.5955 30.5877V17.7354H31.8226V30.5877Z" fill="white"/>
<path d="M12.0367 43.324H48.8027C49.3636 43.324 49.8193 43.8024 49.8193 44.3914V68.9337C49.8193 69.5226 49.3636 70.0011 48.8027 70.0011H12.0367C11.4758 70.0011 11.0201 69.5226 11.0201 68.9337V44.3914C11.0201 43.8024 11.4758 43.324 12.0367 43.324Z" fill="#DEBD81"/>
<path opacity="0.7" d="M27.312 56.2913L28.5896 56.0747L30.4197 56.4482L32.2487 56.0747L33.5263 56.2913V43.324H27.312V56.2913Z" fill="white"/>
</g>
<path d="M68.0462 46.4456C66.0389 43.5719 70.9804 37.4709 79.0848 32.8185C87.1882 28.1667 95.3844 26.7255 97.3915 29.6C99.3988 32.4738 94.4564 38.5745 86.353 43.2264C78.2496 47.8782 70.0535 49.3194 68.0462 46.4456Z" fill="#FFB959"/>
<path d="M97.3973 29.6146L68.0544 46.4604L70.006 49.2546L99.3488 32.4087L97.3973 29.6146Z" fill="#FFB959"/>
<path d="M70.015 49.2652C68.0077 46.3914 72.9501 40.2907 81.0537 35.6381C89.1571 30.9862 97.3541 29.5453 99.3612 32.4198C101.368 35.2935 96.4261 41.3943 88.3227 46.0461C80.2193 50.698 72.0225 52.1382 70.0152 49.2644L70.015 49.2652Z" fill="#FFDB59"/>
<path d="M72.7422 48.0604C71.1824 45.8269 75.347 40.9001 82.0428 37.0561C88.7394 33.2124 95.4329 31.9062 96.9926 34.1396C98.5523 36.3731 94.3878 41.2999 87.6912 45.1437C80.9943 48.9882 74.3011 50.2937 72.7413 48.0602L72.7422 48.0604Z" fill="#FFB959"/>
<path d="M73.1486 47.5562C71.6586 45.4224 75.637 40.7152 82.0344 37.0434C88.432 33.3708 94.8262 32.1238 96.3164 34.2568C97.8064 36.3905 93.8282 41.0969 87.4306 44.7695C81.033 48.4421 74.6386 49.6899 73.1486 47.5562Z" fill="#FFDB59"/>
<path d="M77.9858 45.9213L80.0751 44.7218C80.7797 44.9563 81.9335 44.5919 83.3289 43.7903C85.0265 42.8159 85.4619 42.1301 85.5904 41.3606L85.6759 40.8568C85.7528 40.3395 86.0603 40.0171 86.9158 39.5258C87.7855 39.0271 88.4193 38.9536 88.674 39.3189C88.9263 39.6796 88.8413 40.1019 88.7244 40.4531L89.9469 39.7515C90.0459 39.5146 90.1289 39.2557 90.0737 38.9815L92.2742 37.718L91.8951 37.1756L89.7266 38.4206C89.1253 37.9696 87.8743 38.2923 86.4388 39.1166C84.8358 40.0368 84.308 40.7254 84.2014 41.4185L84.1025 41.9298C84.0108 42.507 83.7183 42.852 82.8492 43.3516C81.8706 43.9125 81.1107 44.0772 80.7861 43.6129C80.5409 43.2613 80.5746 42.7922 80.7622 42.3251L79.553 43.0192C79.3436 43.4363 79.2856 43.8788 79.5233 44.2787L77.6057 45.3794L77.9848 45.9218L77.9858 45.9213Z" fill="#FFB959"/>
<path d="M20.6977 30.2863C18.3371 31.6413 12.9454 27.7597 8.65462 21.6155C4.36347 15.4728 2.79857 9.39361 5.16006 8.03803C7.52062 6.68294 12.9123 10.5646 17.2033 16.7081C21.4943 22.8515 23.0584 28.9305 20.6979 30.2856L20.6977 30.2863Z" fill="#FFB959"/>
<path d="M7.47084 6.71755L5.17578 8.03516L20.7138 30.2814L23.0088 28.9637L7.47084 6.71755Z" fill="#FFB959"/>
<path d="M23.0124 28.9578C20.6518 30.3129 15.2601 26.4312 10.9693 20.2871C6.6783 14.1436 5.11415 8.06467 7.47471 6.70958C9.83528 5.35448 15.227 9.23618 19.5178 15.3803C23.808 21.5236 25.3729 27.6027 23.0122 28.9585L23.0124 28.9578Z" fill="#FFDB59"/>
<path d="M21.8749 26.905C20.0406 27.9583 15.6791 24.6958 12.1327 19.6188C8.58704 14.5421 7.19931 9.5717 9.03418 8.5193C10.8683 7.4667 15.23 10.7285 18.7756 15.8053C22.3211 20.8827 23.709 25.8524 21.8742 26.9048L21.8749 26.905Z" fill="#FFB959"/>
<path d="M21.4301 26.5856C19.677 27.5914 15.5104 24.4751 12.1233 19.6247C8.73629 14.7742 7.41041 10.0273 9.16292 9.02052C10.9153 8.01446 15.0819 11.1308 18.4689 15.9812C21.8567 20.8319 23.1817 25.5793 21.4294 26.5854L21.4301 26.5856Z" fill="#FFDB59"/>
<path d="M19.84 22.9643L18.7338 21.3804C18.9034 20.8729 18.5463 20.0102 17.8076 18.9519C16.9085 17.6647 16.3072 17.3169 15.6483 17.1907L15.2162 17.1073C14.7731 17.0297 14.4861 16.7904 14.0327 16.1416C13.5725 15.4823 13.4842 15.0136 13.7843 14.8421C14.0809 14.6717 14.4434 14.7522 14.7465 14.8517L14.0994 13.9246C13.8941 13.8423 13.6709 13.7704 13.4394 13.7996L12.2739 12.1313L11.8285 12.3871L12.9773 14.031C12.6191 14.4533 12.9449 15.3859 13.7046 16.474C14.553 17.6896 15.1603 18.1057 15.754 18.2126L16.193 18.3059C16.6875 18.3976 16.9935 18.626 17.4536 19.2853C17.9712 20.027 18.1428 20.5923 17.7607 20.8111C17.4724 20.9771 17.0718 20.9324 16.6663 20.7757L17.3065 21.6921C17.67 21.863 18.048 21.9236 18.3781 21.766L19.3939 23.2199L19.8393 22.9641L19.84 22.9643Z" fill="#FFB959"/>
<path d="M82.1567 1.65166C83.8868 2.45501 83.21 6.70525 80.6443 11.1453C78.0792 15.5853 74.5974 18.5336 72.8673 17.7303C71.1372 16.9269 71.814 12.6767 74.3791 8.23676C76.9441 3.79684 80.426 0.848476 82.1559 1.65126L82.1567 1.65166Z" fill="#FFB959"/>
<path d="M80.4645 0.861775L71.1766 16.9402L72.859 17.721L82.1468 1.64263L80.4645 0.861775Z" fill="#FFB959"/>
<path d="M80.4606 0.863043C82.1905 1.66583 81.5132 5.9168 78.9482 10.3567C76.3831 14.7967 72.9012 17.745 71.1712 16.9417C69.4412 16.1389 70.1181 11.8886 72.6836 7.44798C75.2486 3.00805 78.7305 0.0596896 80.4606 0.863043Z" fill="#FFDB59"/>
<path d="M79.4993 2.18747C80.8435 2.81125 80.2149 6.29189 78.0956 9.96147C75.976 13.6305 73.1674 16.0995 71.823 15.4752C70.4786 14.8508 71.1074 11.3708 73.2276 7.70158C75.3477 4.0324 78.1557 1.56352 79.5 2.1873L79.4993 2.18747Z" fill="#FFB959"/>
<path d="M79.4432 2.53755C80.7277 3.13393 80.1267 6.45874 78.1018 9.96423C76.0763 13.4699 73.394 15.8282 72.1094 15.2318C70.8249 14.6354 71.4259 11.3106 73.451 7.80566C75.4759 4.30017 78.1588 1.94173 79.4433 2.53812L79.4432 2.53755Z" fill="#FFDB59"/>
<path d="M77.602 4.64865L76.9409 5.79298C76.5444 5.87684 76.0978 6.36847 75.656 7.13346C75.1187 8.06346 75.0994 8.50826 75.2475 8.90722L75.3443 9.16861C75.449 9.43458 75.3912 9.67216 75.1201 10.1409C74.845 10.6168 74.5653 10.8273 74.3451 10.7249C74.1275 10.6244 74.0531 10.4011 74.0129 10.2029L73.6259 10.8727C73.6435 11.0121 73.6747 11.1575 73.7754 11.2719L73.0786 12.478L73.4052 12.6294L74.0913 11.441C74.4977 11.4881 75.0015 10.9896 75.4561 10.2027C75.9638 9.32427 76.0256 8.85326 75.8876 8.49634L75.7953 8.22699C75.6818 7.92844 75.7259 7.68476 76.0008 7.20826C76.3106 6.67206 76.6251 6.38412 76.905 6.51387C77.1165 6.61181 77.2279 6.84288 77.2662 7.1158L77.6491 6.45316C77.6344 6.19779 77.5415 5.97335 77.321 5.84964L77.9283 4.79895L77.6017 4.64751L77.602 4.64865Z" fill="#FFB959"/>
<defs>
<clipPath id="clip0_1951_17950">
<rect width="68.4805" height="52.2647" fill="white" transform="translate(11.0201 17.7354)"/>
</clipPath>
</defs>
</svg>
