<svg width="58" height="58" viewBox="0 0 58 58" fill="none" xmlns="http://www.w3.org/2000/svg">
<path d="M6.00006 29C6.00006 41.7025 16.2975 52 29.0001 52C41.7026 52 52.0001 41.7025 52.0001 29C52.0001 16.2975 41.7026 6 29.0001 6C16.2975 6 6.00006 16.2975 6.00006 29Z" fill="#FEE500"/>
<path d="M29.0001 18.9167C22.9248 18.9167 18.0001 22.8014 18.0001 27.5936C18.0001 30.7129 20.0869 33.4462 23.2183 34.9758C22.988 35.8332 22.3851 38.0809 22.2643 38.5619C22.1156 39.159 22.4837 39.151 22.7248 38.9901C22.914 38.8644 25.7393 36.9482 26.9583 36.1209C27.6199 36.2187 28.302 36.2705 29.0001 36.2705C35.0753 36.2705 40.0001 32.3852 40.0001 27.5936C40.0001 22.802 35.0753 18.9167 29.0001 18.9167Z" fill="black" fill-opacity="0.9"/>
</svg>
