<svg width="32" height="32" viewBox="0 0 32 32" fill="none" xmlns="http://www.w3.org/2000/svg">
<circle cx="16" cy="16" r="14.75" stroke="#EC736D" stroke-width="2.5"/>
<path d="M14.2705 23.521C14.2705 24.0494 14.4755 24.5561 14.8405 24.9298C15.2054 25.3034 15.7004 25.5133 16.2165 25.5133C16.7326 25.5133 17.2275 25.3034 17.5924 24.9298C17.9574 24.5561 18.1624 24.0494 18.1624 23.521C18.1624 22.9926 17.9574 22.4859 17.5924 22.1123C17.2275 21.7386 16.7326 21.5287 16.2165 21.5287C15.7004 21.5287 15.2054 21.7386 14.8405 22.1123C14.4755 22.4859 14.2705 22.9926 14.2705 23.521V23.521ZM15.2435 18.8724H17.1894C17.3678 18.8724 17.5138 18.7229 17.5138 18.5403V7.25075C17.5138 7.06812 17.3678 6.9187 17.1894 6.9187H15.2435C15.0651 6.9187 14.9192 7.06812 14.9192 7.25075V18.5403C14.9192 18.7229 15.0651 18.8724 15.2435 18.8724Z" fill="#EC736D"/>
</svg>
