<svg width="14" height="14" viewBox="0 0 14 14" fill="none" xmlns="http://www.w3.org/2000/svg">
<path d="M5.34578 8.28552C4.91822 8.28556 4.50025 8.16122 4.14473 7.92822C3.78921 7.69523 3.51211 7.36404 3.34849 6.97655C3.18486 6.58906 3.14205 6.16267 3.22548 5.75131C3.3089 5.33996 3.51481 4.96211 3.81716 4.66555L6.04783 2.47823C6.45325 2.08054 7.00311 1.85712 7.57645 1.85712C8.14979 1.85712 8.69965 2.08054 9.10507 2.47823C9.51048 2.87592 9.73824 3.41531 9.73824 3.97773C9.73824 4.54015 9.51048 5.07954 9.10507 5.47723L8.86348 5.71379L8.2453 5.10825L8.48864 4.86954C8.72931 4.63233 8.86427 4.31119 8.86395 3.97652C8.86362 3.64185 8.72802 3.32096 8.48689 3.0842C8.24147 2.85445 7.91526 2.72626 7.57601 2.72626C7.23677 2.72626 6.91056 2.85445 6.66513 3.0842L4.43534 5.27152C4.31563 5.38882 4.22067 5.5281 4.15588 5.68142C4.09109 5.83474 4.05774 5.99908 4.05774 6.16505C4.05774 6.33102 4.09109 6.49536 4.15588 6.64868C4.22067 6.802 4.31563 6.94129 4.43534 7.05858C4.68076 7.28834 5.00697 7.41652 5.34622 7.41652C5.68546 7.41652 6.01167 7.28834 6.2571 7.05858L6.87483 7.66455C6.67447 7.86207 6.43616 8.01866 6.1737 8.12525C5.91124 8.23183 5.62984 8.28631 5.34578 8.28552Z" fill="#9F9F9F" stroke="#9F9F9F" stroke-width="0.4" stroke-linejoin="round"/>
<path d="M8.84032 7.42841C8.41276 7.42845 7.99478 7.3041 7.63926 7.07111C7.28375 6.83811 7.00665 6.50692 6.84302 6.11943C6.6794 5.73194 6.63659 5.30556 6.72001 4.8942C6.80344 4.48284 7.00935 4.10499 7.3117 3.80844L7.55329 3.57188L8.17103 4.17828L7.92988 4.41484C7.68836 4.65176 7.55268 4.9731 7.55268 5.30815C7.55268 5.64321 7.68836 5.96454 7.92988 6.20147C8.1753 6.43122 8.50151 6.55941 8.84075 6.55941C9.18 6.55941 9.50621 6.43122 9.75163 6.20147L11.9819 4.01371C12.2229 3.77664 12.3583 3.45546 12.3583 3.12061C12.3583 2.78577 12.2229 2.46459 11.9819 2.22751C11.7364 1.99776 11.4102 1.86957 11.071 1.86957C10.7317 1.86957 10.4055 1.99776 10.1601 2.22751L9.54237 1.62111C9.94779 1.22342 10.4976 1 11.071 1C11.6443 1 12.1942 1.22342 12.5996 1.62111C13.005 2.01881 13.2328 2.55819 13.2328 3.12061C13.2328 3.68303 13.005 4.22242 12.5996 4.62011L10.3698 6.80701C10.1694 7.00457 9.93115 7.16121 9.6687 7.26787C9.40624 7.37453 9.12484 7.42909 8.84075 7.42841H8.84032Z" fill="#9F9F9F" stroke="#9F9F9F" stroke-width="0.4" stroke-linejoin="round"/>
<path d="M10.6112 12.9996H1.87374C1.64208 12.9994 1.41998 12.909 1.25617 12.7483C1.09236 12.5876 1.00023 12.3697 1 12.1425V3.57146C1.00023 3.34421 1.09236 3.12633 1.25617 2.96565C1.41998 2.80496 1.64208 2.71458 1.87374 2.71436H3.62123V3.57146H1.87374V12.1425H10.6112V7.85697H11.4849V12.1425C11.4847 12.3697 11.3926 12.5876 11.2288 12.7483C11.065 12.909 10.8429 12.9994 10.6112 12.9996Z" fill="#9F9F9F" stroke="#9F9F9F" stroke-width="0.2" stroke-linejoin="round"/>
</svg>
