<svg width="120" height="42" viewBox="0 0 120 42" fill="none" xmlns="http://www.w3.org/2000/svg">
<g clip-path="url(#clip0_119_628)">
<path d="M15.6993 8.23804H0.546044C0.244339 8.23804 0 8.48028 0 8.7794V32.9173C0 33.2164 0.244339 33.4586 0.546044 33.4586H5.08649C5.3882 33.4586 5.63254 33.2164 5.63254 32.9173V24.2366C5.63254 23.9375 5.87687 23.6952 6.17858 23.6952H14.28C14.5817 23.6952 14.826 23.453 14.826 23.1539V19.1558C14.826 18.8567 14.5817 18.6144 14.28 18.6144H6.1807C5.879 18.6144 5.63466 18.3722 5.63466 18.0731V14.0034C5.63466 13.7043 5.879 13.4621 6.1807 13.4621H15.6993C16.001 13.4621 16.2453 13.2198 16.2453 12.9207V8.7794C16.2453 8.48028 16.001 8.23804 15.6993 8.23804V8.23804Z" fill="#333333"/>
<path d="M19.7555 16.8135H24.1494C24.4511 16.8135 24.6954 17.0557 24.6954 17.3548V32.9173C24.6954 33.2165 24.4511 33.4587 24.1494 33.4587H19.7555C19.4538 33.4587 19.2095 33.2165 19.2095 32.9173V17.3548C19.2095 17.0557 19.4538 16.8135 19.7555 16.8135V16.8135Z" fill="#333333"/>
<path d="M85.2679 16.2721C82.7948 16.2721 80.7976 17.4622 79.6354 19.516H79.5631C78.692 17.4981 76.8733 16.2721 74.2939 16.2721C71.8505 16.2721 70.0488 17.4012 69.0969 19.2022V17.3506C69.0969 17.2495 69.0375 17.1716 68.9886 17.0894C68.9482 17.0241 68.91 16.9757 68.8462 16.9314C68.7655 16.864 68.6741 16.8113 68.5552 16.8113H64.1549C63.8532 16.8113 63.6089 17.0536 63.6089 17.3527V32.9173C63.6089 33.2164 63.8532 33.4587 64.1549 33.4587H68.5509C68.5509 33.4587 68.553 33.4587 68.5552 33.4587C68.8547 33.4587 69.0969 33.2207 69.0969 32.9236V25.2056C69.0969 22.0754 70.4057 21.0664 72.0779 21.0664C74.0028 21.0664 74.8038 22.3261 74.8038 24.4178V32.9194C74.8038 33.2185 75.0482 33.4608 75.3499 33.4608H79.5249C79.8266 33.4608 80.0709 33.2185 80.0709 32.9194V25.2098C80.0709 22.0754 81.3797 21.0664 83.0519 21.0664C84.979 21.0664 85.7778 22.3261 85.7778 24.4178V32.9194C85.7778 33.2185 86.0222 33.4608 86.3239 33.4608H90.7199C91.0216 33.4608 91.2659 33.2185 91.2659 32.9194V22.6146C91.2659 18.5787 88.7588 16.2742 85.27 16.2742L85.2679 16.2721Z" fill="#333333"/>
<path d="M94.7907 16.8135H99.1845C99.4862 16.8135 99.7306 17.0557 99.7306 17.3548V32.9173C99.7306 33.2165 99.4862 33.4587 99.1845 33.4587H94.7907C94.489 33.4587 94.2446 33.2165 94.2446 32.9173V17.3548C94.2446 17.0557 94.489 16.8135 94.7907 16.8135V16.8135Z" fill="#333333"/>
<path d="M46.4606 9.46606H55.9877C56.2894 9.46606 56.5337 9.70831 56.5337 10.0074V12.0149C56.5337 12.314 56.2894 12.5562 55.9877 12.5562H46.4606C46.1589 12.5562 45.9146 12.314 45.9146 12.0149V10.0095C45.9146 9.71041 46.1589 9.46817 46.4606 9.46817V9.46606Z" fill="#333333"/>
<path d="M60.0712 16.8135H55.671C55.3714 16.8135 55.1292 17.0536 55.1292 17.3506V19.0821H55.057C54.0031 17.3885 52.2949 16.2721 49.5689 16.2721C45.207 16.2721 41.6099 19.2991 41.6099 25.1361C41.6099 30.9731 45.207 34 49.5689 34C52.2949 34 54.0031 32.8836 55.057 31.19H55.1292V32.9215C55.1292 33.2185 55.3714 33.4587 55.671 33.4587H60.0712C60.3729 33.4587 60.6173 33.2164 60.6173 32.9173V17.3548C60.6173 17.0557 60.3729 16.8135 60.0712 16.8135V16.8135ZM51.0966 29.0288C48.9145 29.0288 47.2445 27.5143 47.2445 25.1382C47.2445 22.7621 48.9167 21.2475 51.0966 21.2475C53.2765 21.2475 54.9847 22.76 54.9847 25.1382C54.9847 27.5164 53.3126 29.0288 51.0966 29.0288Z" fill="#333333"/>
<path d="M22.154 8H21.761C20.0825 8 18.7227 9.34813 18.7227 11.0122C18.7227 12.6763 20.0825 14.0245 21.761 14.0245H22.154C23.8325 14.0245 25.1923 12.6763 25.1923 11.0122C25.1923 9.34813 23.8304 8 22.154 8Z" fill="#333333"/>
<path d="M97.2107 8H96.8176C95.1391 8 93.7793 9.34813 93.7793 11.0122C93.7793 12.6763 95.1391 14.0245 96.8176 14.0245H97.2107C98.8892 14.0245 100.249 12.6763 100.249 11.0122C100.249 9.34813 98.8892 8 97.2107 8Z" fill="#333333"/>
<path d="M113.677 16.272C111.342 16.272 109.406 17.3716 108.238 19.2737V17.3505C108.238 17.2389 108.176 17.1483 108.117 17.0619C108.078 17.0072 108.042 16.9692 107.987 16.9334C107.906 16.866 107.813 16.8134 107.694 16.8134H103.283C102.981 16.8134 102.737 17.0556 102.737 17.3547V32.9172C102.737 33.2163 102.981 33.4586 103.283 33.4586H107.694C107.993 33.4586 108.235 33.2185 108.235 32.9214V24.9106C108.297 22.109 109.646 21.0642 111.457 21.0642C113.492 21.0642 114.546 22.1806 114.546 24.6662V32.9151C114.546 33.2142 114.79 33.4565 115.092 33.4565H119.45C119.751 33.4565 119.996 33.2142 119.996 32.9151V23.1517C119.996 18.3953 117.378 16.2699 113.673 16.2699L113.677 16.272Z" fill="#333333"/>
<path d="M39.3681 16.7945H36.7335C36.5827 16.7945 36.4616 16.6745 36.4616 16.5249V10.0096C36.4616 9.7105 36.2172 9.46826 35.9155 9.46826H31.5217C31.22 9.46826 30.9756 9.7105 30.9756 10.0096V16.527C30.9756 16.6745 30.8545 16.7966 30.7037 16.7966H28.2497C27.948 16.7966 27.7036 17.0389 27.7036 17.338V20.7947C27.7036 21.0938 27.948 21.336 28.2497 21.336H30.7037C30.8524 21.336 30.9756 21.4561 30.9756 21.6057V27.8218C30.9756 31.8199 33.1917 33.4418 36.6082 33.4418H38.5884C38.7583 33.4418 38.8964 33.3049 38.8964 33.1364V28.7044C38.8964 28.5359 38.7583 28.399 38.5884 28.399H38.2803C36.8631 28.399 36.4637 27.8934 36.4637 26.3452V21.6057C36.4637 21.4582 36.5848 21.336 36.7356 21.336H39.3703C39.672 21.336 39.9163 21.0938 39.9163 20.7947V17.338C39.9163 17.0389 39.672 16.7966 39.3703 16.7966L39.3681 16.7945Z" fill="#333333"/>
</g>
<defs>
<clipPath id="clip0_119_628">
<rect width="120" height="26" fill="white" transform="translate(0 8)"/>
</clipPath>
</defs>
</svg>
