<svg width="16" height="16" viewBox="0 0 16 16" fill="none" xmlns="http://www.w3.org/2000/svg">
<g clip-path="url(#clip0_1935_17240)">
<path fill-rule="evenodd" clip-rule="evenodd" d="M8 16C12.4183 16 16 12.4183 16 8C16 3.58172 12.4183 0 8 0C3.58172 0 0 3.58172 0 8C0 12.4183 3.58172 16 8 16ZM7.75 4C7.75 3.58579 7.41421 3.25 7 3.25C6.58579 3.25 6.25 3.58579 6.25 4V9.5C6.25 9.91421 6.58579 10.25 7 10.25H11.5C11.9142 10.25 12.25 9.91421 12.25 9.5C12.25 9.08579 11.9142 8.75 11.5 8.75H7.75V4Z" fill="#9F9F9F"/>
</g>
<defs>
<clipPath id="clip0_1935_17240">
<rect width="16" height="16" fill="white"/>
</clipPath>
</defs>
</svg>
