<svg width="20" height="11" viewBox="0 0 20 11" fill="none" xmlns="http://www.w3.org/2000/svg">
<path d="M18.6118 0.236173L9.99912 8.63172L1.38645 0.236173C1.23257 0.0858693 1.026 0.0017231 0.810891 0.0017231C0.595786 0.0017231 0.389214 0.0858693 0.235334 0.236173C0.160826 0.309176 0.101633 0.396312 0.0612238 0.492478C0.0208142 0.588645 0 0.691909 0 0.79622C0 0.900532 0.0208142 1.00379 0.0612238 1.09996C0.101633 1.19613 0.160826 1.28326 0.235334 1.35627L9.39771 10.2895C9.55862 10.4463 9.77442 10.5341 9.99912 10.5341C10.2238 10.5341 10.4396 10.4463 10.6005 10.2895L19.7629 1.35799C19.8379 1.28493 19.8976 1.19758 19.9383 1.1011C19.979 1.00461 20 0.900947 20 0.79622C20 0.691493 19.979 0.587827 19.9383 0.491342C19.8976 0.394857 19.8379 0.307507 19.7629 0.234449C19.609 0.0841454 19.4025 0 19.1873 0C18.9722 0 18.7657 0.0841454 18.6118 0.234449V0.236173Z" fill="#3C5FD6"/>
</svg>
