<svg xmlns="http://www.w3.org/2000/svg" viewBox="0 0 564.79 123.43"><defs><style>.cls-1{fill:#333;}</style></defs><g id="레이어_2" data-name="레이어 2"><g id="레이어_1-2" data-name="레이어 1"><path class="cls-1" d="M73.89,1.13H2.57A2.57,2.57,0,0,0,0,3.7V118.29a2.57,2.57,0,0,0,2.57,2.57H23.94a2.57,2.57,0,0,0,2.57-2.57V77.08a2.57,2.57,0,0,1,2.58-2.57H67.22a2.57,2.57,0,0,0,2.57-2.57V53a2.57,2.57,0,0,0-2.57-2.57H29.09a2.57,2.57,0,0,1-2.58-2.57V28.5a2.57,2.57,0,0,1,2.58-2.57h44.8a2.57,2.57,0,0,0,2.57-2.57V3.7A2.57,2.57,0,0,0,73.89,1.13Z"/><rect class="cls-1" x="90.41" y="41.84" width="25.82" height="79.02" rx="2.57"/><path class="cls-1" d="M401.32,39.27a29.36,29.36,0,0,0-26.52,15.4h-.34c-4.11-9.58-12.66-15.4-24.8-15.4-11.5,0-20,5.36-24.46,13.91V44.39a2.4,2.4,0,0,0-.52-1.24h0a2.17,2.17,0,0,0-.67-.74,2,2,0,0,0-1.36-.57H301.94a2.57,2.57,0,0,0-2.57,2.57v73.88a2.57,2.57,0,0,0,2.57,2.57h20.71a2.55,2.55,0,0,0,2.55-2.55V81.67c0-14.86,6.16-19.65,14-19.65,9,0,12.82,6,12.82,15.91v40.36a2.57,2.57,0,0,0,2.58,2.57h19.65a2.57,2.57,0,0,0,2.57-2.57V81.69c0-14.88,6.16-19.67,14-19.67,9.07,0,12.83,6,12.83,15.91v40.36a2.57,2.57,0,0,0,2.57,2.57H427a2.57,2.57,0,0,0,2.57-2.57V69.38C429.54,50.22,417.74,39.27,401.32,39.27Z"/><rect class="cls-1" x="443.57" y="41.84" width="25.82" height="79.02" rx="2.57"/><rect class="cls-1" x="216.09" y="6.96" width="49.99" height="14.67" rx="2.57"/><path class="cls-1" d="M282.73,41.84H262a2.55,2.55,0,0,0-2.55,2.55v8.23h-.34c-5-8-13-13.35-25.83-13.35-20.53,0-37.46,14.37-37.46,42.08s16.93,42.08,37.46,42.08c12.83,0,20.87-5.3,25.83-13.34h.34v8.22a2.55,2.55,0,0,0,2.55,2.55h20.71a2.57,2.57,0,0,0,2.57-2.57V44.41A2.57,2.57,0,0,0,282.73,41.84Zm-42.25,58c-10.26,0-18.13-7.19-18.13-18.48s7.87-18.47,18.13-18.47c10.44,0,18.31,7.18,18.31,18.47S250.92,99.83,240.48,99.83Z"/><path class="cls-1" d="M104.27,0h-1.85a14.3,14.3,0,1,0,0,28.6h1.85a14.3,14.3,0,0,0,0-28.6Z"/><path class="cls-1" d="M457.53,0h-1.85a14.3,14.3,0,0,0,0,28.6h1.85a14.3,14.3,0,1,0,0-28.6Z"/><path class="cls-1" d="M535,39.27a29.09,29.09,0,0,0-25.6,14.25V44.39a2.4,2.4,0,0,0-.57-1.37,2.18,2.18,0,0,0-.6-.61,2.13,2.13,0,0,0-1.38-.57H486.12a2.58,2.58,0,0,0-2.58,2.57v73.88a2.58,2.58,0,0,0,2.58,2.57h20.76a2.55,2.55,0,0,0,2.55-2.55v-38C509.72,67,516.08,62,524.6,62c9.57,0,14.54,5.3,14.54,17.11v39.16a2.57,2.57,0,0,0,2.57,2.57h20.51a2.57,2.57,0,0,0,2.57-2.57V71.94C564.79,49.36,552.48,39.27,535,39.27Z"/><path class="cls-1" d="M185.29,41.75h-12.4a1.27,1.27,0,0,1-1.28-1.27V9.54A2.57,2.57,0,0,0,169,7H148.36a2.57,2.57,0,0,0-2.57,2.58V40.48a1.28,1.28,0,0,1-1.28,1.27H133a2.58,2.58,0,0,0-2.57,2.58v16.4A2.57,2.57,0,0,0,133,63.3h11.55a1.29,1.29,0,0,1,1.28,1.28V94.09c0,19,10.42,26.69,26.51,26.69h9.32a1.45,1.45,0,0,0,1.45-1.45v-21a1.45,1.45,0,0,0-1.45-1.45h-1.46c-6.67,0-8.55-2.4-8.55-9.75V64.58a1.28,1.28,0,0,1,1.28-1.28h12.4a2.57,2.57,0,0,0,2.57-2.57V44.33A2.58,2.58,0,0,0,185.29,41.75Z"/></g></g></svg>