<svg xmlns="http://www.w3.org/2000/svg" width="132" height="23.298" viewBox="0 0 132 23.298">
  <g id="그룹_3037" data-name="그룹 3037" transform="translate(-681.344 -5306.351)">
    <g id="그룹_3034" data-name="그룹 3034">
      <g id="그룹_3033" data-name="그룹 3033">
        <path id="패스_6454" data-name="패스 6454" d="M720.681,5306.564H707.219a.486.486,0,0,0-.486.485v21.631a.486.486,0,0,0,.486.485h4.033a.485.485,0,0,0,.486-.485V5320.9a.486.486,0,0,1,.485-.486h7.2a.485.485,0,0,0,.486-.485v-3.582a.486.486,0,0,0-.486-.485h-7.2a.486.486,0,0,1-.485-.486v-3.646a.485.485,0,0,1,.485-.485h8.458a.486.486,0,0,0,.485-.486v-3.711A.485.485,0,0,0,720.681,5306.564Z" fill="#211816"/>
        <path id="사각형_1052" data-name="사각형 1052" d="M.486,0h3.9a.486.486,0,0,1,.486.486V14.431a.485.485,0,0,1-.485.485H.485A.485.485,0,0,1,0,14.431V.486A.486.486,0,0,1,.486,0Z" transform="translate(723.799 5314.249)" fill="#211816"/>
        <path id="패스_6455" data-name="패스 6455" d="M782.486,5313.764a5.539,5.539,0,0,0-5,2.906h-.065a4.763,4.763,0,0,0-4.681-2.906,4.946,4.946,0,0,0-4.618,2.626v-1.66a.458.458,0,0,0-.1-.234h0a.42.42,0,0,0-.127-.141.387.387,0,0,0-.258-.107h-3.909a.485.485,0,0,0-.485.486v13.946a.485.485,0,0,0,.485.485h3.905l0,0v0a.482.482,0,0,0,.482-.482v-6.916c0-2.805,1.162-3.709,2.648-3.709,1.71,0,2.421,1.13,2.421,3v7.619a.485.485,0,0,0,.486.485h3.71a.485.485,0,0,0,.485-.485v-6.909c0-2.809,1.163-3.713,2.648-3.713,1.712,0,2.422,1.13,2.422,3v7.619a.485.485,0,0,0,.485.485h3.905a.486.486,0,0,0,.486-.485v-9.234C787.814,5315.83,785.586,5313.764,782.486,5313.764Z" fill="#211816"/>
        <path id="사각형_1053" data-name="사각형 1053" d="M.486,0h3.9a.486.486,0,0,1,.486.486V14.431a.485.485,0,0,1-.485.485H.485A.485.485,0,0,1,0,14.431V.486A.486.486,0,0,1,.486,0Z" transform="translate(790.462 5314.249)" fill="#211816"/>
        <rect id="사각형_1054" data-name="사각형 1054" width="9.435" height="2.77" rx="0.486" transform="translate(747.523 5307.665)" fill="#211816"/>
        <path id="패스_6456" data-name="패스 6456" d="M760.1,5314.248h-3.909a.482.482,0,0,0-.482.482v1.553h-.063a5.3,5.3,0,0,0-4.876-2.519c-3.875,0-7.071,2.712-7.071,7.943s3.2,7.942,7.071,7.942a5.3,5.3,0,0,0,4.876-2.518h.063v1.552a.482.482,0,0,0,.482.482H760.1a.485.485,0,0,0,.486-.485v-13.946A.486.486,0,0,0,760.1,5314.248Zm-7.974,10.946a3.487,3.487,0,1,1,3.455-3.487A3.307,3.307,0,0,1,752.127,5325.194Z" fill="#211816"/>
        <path id="패스_6457" data-name="패스 6457" d="M726.414,5306.351h-.348a2.7,2.7,0,1,0,0,5.4h.348a2.7,2.7,0,1,0,0-5.4Z" fill="#211816"/>
        <path id="패스_6458" data-name="패스 6458" d="M793.1,5306.351h-.348a2.7,2.7,0,1,0,0,5.4h.348a2.7,2.7,0,1,0,0-5.4Z" fill="#211816"/>
        <path id="패스_6459" data-name="패스 6459" d="M807.726,5313.764a5.486,5.486,0,0,0-4.832,2.69v-1.724a.456.456,0,0,0-.107-.258.408.408,0,0,0-.115-.116.4.4,0,0,0-.26-.108h-3.919a.485.485,0,0,0-.485.486v13.946a.485.485,0,0,0,.485.485h3.919a.482.482,0,0,0,.482-.482V5321.5c.055-2.511,1.254-3.447,2.863-3.447,1.808,0,2.744,1,2.744,3.229v7.393a.486.486,0,0,0,.486.485h3.872a.485.485,0,0,0,.485-.485v-8.749C813.344,5315.669,811.019,5313.764,807.726,5313.764Z" fill="#211816"/>
        <path id="패스_6460" data-name="패스 6460" d="M741.709,5314.232h-2.342a.241.241,0,0,1-.241-.241v-5.84a.485.485,0,0,0-.485-.486h-3.9a.485.485,0,0,0-.485.486v5.84a.241.241,0,0,1-.241.241h-2.18a.486.486,0,0,0-.485.486v3.1a.485.485,0,0,0,.485.485h2.18a.241.241,0,0,1,.241.241v5.571c0,3.584,1.968,5.037,5,5.037h1.759a.274.274,0,0,0,.274-.274V5324.9a.273.273,0,0,0-.274-.274h-.274c-1.26,0-1.615-.453-1.615-1.841v-4.247a.241.241,0,0,1,.241-.241h2.342a.485.485,0,0,0,.485-.485v-3.1A.486.486,0,0,0,741.709,5314.232Z" fill="#211816"/>
      </g>
    </g>
    <g id="그룹_3036" data-name="그룹 3036">
      <g id="그룹_3035" data-name="그룹 3035">
        <path id="패스_6461" data-name="패스 6461" d="M694.206,5320.136l-2.626-.987c-.678-.263-1.263-.49-1.263-1.114,0-.583.417-.833,1.39-.833a13.021,13.021,0,0,1,4.122.933l.034.005a.385.385,0,0,0,.364-.257l.99-2.88a.391.391,0,0,0-.026-.318.4.4,0,0,0-.244-.2,17.4,17.4,0,0,0-4.844-.733c-2.883,0-6.32.824-6.32,4.746,0,2.153,1.142,3.591,3.594,4.529l2.908,1.146c.405.152.912.342.912.953,0,.574-.524.866-1.555.866a11.1,11.1,0,0,1-5.078-1.5l-.045-.011a.386.386,0,0,0-.353.226l-1.37,2.987a.409.409,0,0,0-.011.317.379.379,0,0,0,.2.22,15.739,15.739,0,0,0,6.259,1.312c4.324,0,6.515-1.662,6.515-4.942C697.763,5322.366,696.732,5321.074,694.206,5320.136Z" fill="#211816"/>
        <path id="패스_6462" data-name="패스 6462" d="M681.829,5314.977l1.024-3.091-.959-1.108a3.111,3.111,0,0,1-.359-.587,2.72,2.72,0,0,1,.574-2.893,2.663,2.663,0,0,1,1.817-.69,2.623,2.623,0,0,1,1.816.673,2.384,2.384,0,0,1,.737,1.879,4.068,4.068,0,0,1-.332,1.607,8.513,8.513,0,0,1-.979,1.669L683,5315.492Z" fill="#211816"/>
      </g>
    </g>
  </g>
</svg>
