<svg width="30" height="30" viewBox="0 0 30 30" fill="none" xmlns="http://www.w3.org/2000/svg">
<g clip-path="url(#clip0_1731_213)">
<path d="M15 30C23.2843 30 30 23.2843 30 15C30 6.71573 23.2843 0 15 0C6.71573 0 0 6.71573 0 15C0 23.2843 6.71573 30 15 30Z" fill="#D5F5FF"/>
<mask id="mask0_1731_213" style="mask-type:alpha" maskUnits="userSpaceOnUse" x="0" y="0" width="30" height="30">
<path d="M15 30C23.2843 30 30 23.2843 30 15C30 6.71573 23.2843 0 15 0C6.71573 0 0 6.71573 0 15C0 23.2843 6.71573 30 15 30Z" fill="white"/>
</mask>
<g mask="url(#mask0_1731_213)">
<path d="M36.8077 20.1734C36.801 20.1659 36.7935 20.1592 36.7867 20.1524C36.78 20.1449 36.7725 20.1382 36.7657 20.1314C36.759 20.1239 36.7515 20.1172 36.7447 20.1104C36.738 20.1029 36.7305 20.0962 36.7237 20.0894C36.717 20.0819 36.7095 20.0752 36.7027 20.0684C36.696 20.0609 36.6885 20.0542 36.6817 20.0474C36.675 20.0399 36.6675 20.0332 36.6607 20.0264C36.654 20.0189 36.6465 20.0122 36.6397 20.0054C36.633 19.9979 36.6255 19.9912 36.6187 19.9844C36.612 19.9769 36.6045 19.9702 36.5977 19.9634C36.591 19.9559 36.5835 19.9492 36.5767 19.9424C36.57 19.9349 36.5625 19.9282 36.5557 19.9214C36.549 19.9139 36.5415 19.9072 36.5347 19.9004C36.528 19.8929 36.5205 19.8862 36.5137 19.8794C36.507 19.8719 36.4995 19.8652 36.4927 19.8584C36.486 19.8509 36.4785 19.8442 36.4717 19.8374C36.465 19.8299 36.4575 19.8232 36.4507 19.8164C36.444 19.8089 36.4365 19.8022 36.4297 19.7955C36.423 19.788 36.4155 19.7812 36.4087 19.7745C36.402 19.767 36.3945 19.7602 36.3877 19.7535C36.381 19.746 36.3735 19.7392 36.3667 19.7325C36.36 19.725 36.3525 19.7182 36.3457 19.7115C36.339 19.704 36.3315 19.6972 36.3247 19.6905C36.318 19.683 36.3105 19.6762 36.3037 19.6695C36.297 19.662 36.2895 19.6552 36.2827 19.6484C36.276 19.6409 36.2685 19.6342 36.2617 19.6274C36.255 19.6199 36.2475 19.6132 36.2407 19.6064C36.234 19.5989 36.2265 19.5922 36.2197 19.5854C36.213 19.5779 36.2055 19.5712 36.1987 19.5644C36.192 19.5569 36.1845 19.5502 36.1777 19.5434C36.171 19.5359 36.1635 19.5292 36.1567 19.5224C36.15 19.5149 36.1425 19.5082 36.1357 19.5014C36.129 19.4939 36.1215 19.4872 36.1147 19.4804C36.108 19.4729 36.1005 19.4662 36.0937 19.4594C36.087 19.4519 36.0795 19.4452 36.0727 19.4384C36.066 19.4309 36.0585 19.4242 36.0517 19.4174C36.045 19.4099 36.0375 19.4032 36.0307 19.3965C36.024 19.389 36.0165 19.3822 36.0097 19.3755C36.003 19.368 35.9955 19.3612 35.9887 19.3545C35.982 19.347 35.9745 19.3402 35.9677 19.3335C35.961 19.326 35.9535 19.3192 35.9467 19.3125C35.94 19.305 35.9325 19.2982 35.9257 19.2915C35.919 19.284 35.9115 19.2772 35.9047 19.2705C35.898 19.263 35.8905 19.2562 35.8837 19.2495C35.877 19.242 35.8695 19.2352 35.8627 19.2285C35.856 19.221 35.8485 19.2142 35.8417 19.2075C35.835 19.2 35.8275 19.1932 35.8207 19.1864C35.814 19.1789 35.8065 19.1722 35.7997 19.1654C35.793 19.1579 35.7855 19.1512 35.7787 19.1444C35.772 19.1369 35.7645 19.1302 35.7577 19.1234C35.751 19.1159 35.7435 19.1092 35.7367 19.1024C35.73 19.0949 35.7225 19.0882 35.7157 19.0814C35.709 19.0739 35.7015 19.0672 35.6947 19.0604C35.688 19.0529 35.6805 19.0462 35.6737 19.0394C35.667 19.0319 35.6595 19.0252 35.6527 19.0184C35.646 19.0109 35.6385 19.0042 35.6317 18.9974C35.625 18.9899 35.6175 18.9832 35.6107 18.9764C35.604 18.9689 35.5965 18.9622 35.5898 18.9554C35.583 18.9479 35.5755 18.9412 35.5687 18.9344C35.562 18.9269 35.5545 18.9202 35.5477 18.9134C35.541 18.9059 35.5335 18.8992 35.5267 18.8924C35.52 18.8849 35.5125 18.8782 35.5057 18.8714C35.499 18.8639 35.4915 18.8572 35.4847 18.8504C35.478 18.8429 35.4705 18.8362 35.4637 18.8294C35.457 18.8219 35.4495 18.8152 35.4427 18.8084C35.436 18.8009 35.4285 18.7942 35.4217 18.7875C35.415 18.78 35.4075 18.7732 35.4007 18.7665C35.394 18.759 35.3865 18.7522 35.3797 18.7455C35.373 18.738 35.3655 18.7312 35.3587 18.7244C35.352 18.7169 35.3445 18.7102 35.3377 18.7034C35.331 18.6959 35.3235 18.6892 35.3167 18.6824C35.31 18.6749 35.3025 18.6682 35.2957 18.6614C35.289 18.6539 35.2815 18.6472 35.2747 18.6404C35.268 18.6329 35.2605 18.6262 35.2537 18.6194C35.247 18.6119 35.2395 18.6052 35.2327 18.5984C35.226 18.5909 35.2185 18.5842 35.2117 18.5774C35.205 18.5699 35.1975 18.5632 35.1907 18.5564C35.184 18.5489 35.1765 18.5422 35.1697 18.5354C35.163 18.5279 35.1555 18.5212 35.1487 18.5144C35.142 18.5069 35.1345 18.5002 35.1277 18.4934C35.121 18.4859 35.1135 18.4792 35.1067 18.4724C35.1 18.4649 35.0925 18.4582 35.0857 18.4514C35.079 18.4439 35.0715 18.4372 35.0647 18.4304C35.058 18.4229 35.0505 18.4162 35.0437 18.4094C35.037 18.4019 35.0295 18.3952 35.0227 18.3884C35.016 18.3809 35.0085 18.3742 35.0017 18.3674C34.995 18.3599 34.9875 18.3532 34.9807 18.3464C34.974 18.3389 34.9665 18.3322 34.9597 18.3254C34.953 18.3179 34.9455 18.3112 34.9387 18.3044C34.932 18.2969 34.9245 18.2902 34.9177 18.2834C34.911 18.2759 34.9035 18.2692 34.8967 18.2624C34.89 18.2549 34.8825 18.2482 34.8757 18.2414C34.869 18.2339 34.8615 18.2272 34.8547 18.2204C34.848 18.2129 34.8405 18.2062 34.8337 18.1994C34.827 18.1919 34.8195 18.1852 34.8127 18.1784C34.806 18.1709 34.7985 18.1642 34.7918 18.1574C34.785 18.1499 34.7775 18.1432 34.7707 18.1364C34.764 18.1289 34.7565 18.1222 34.7498 18.1154C34.743 18.1079 34.7355 18.1012 34.7287 18.0944C34.722 18.0869 34.7145 18.0802 34.7078 18.0734C34.701 18.0659 34.6935 18.0592 34.6867 18.0524C34.68 18.0449 34.6725 18.0382 34.6658 18.0314C34.659 18.0239 34.6515 18.0172 34.6447 18.0104C34.638 18.0029 34.6305 17.9962 34.6238 17.9894C34.617 17.9819 34.6095 17.9752 34.6027 17.9685C34.596 17.961 34.5885 17.9542 34.5818 17.9474C34.575 17.9399 34.5675 17.9332 34.5607 17.9264C34.554 17.9189 34.5465 17.9122 34.5398 17.9054C34.533 17.8979 34.5255 17.8912 34.5187 17.8844C34.512 17.8769 34.5045 17.8702 34.4977 17.8634C34.491 17.8559 34.4835 17.8492 34.4767 17.8424C34.47 17.8349 34.4625 17.8282 34.4557 17.8214C34.449 17.8139 34.4415 17.8072 34.4347 17.8004C34.428 17.7929 34.4205 17.7862 34.4137 17.7794C34.407 17.7719 34.3995 17.7652 34.3927 17.7584C34.386 17.7509 34.3785 17.7442 34.3717 17.7374C34.365 17.7299 34.3575 17.7232 34.3507 17.7164C34.344 17.7089 34.3365 17.7022 34.3297 17.6954C34.323 17.6879 34.3155 17.6812 34.3087 17.6744C34.302 17.6669 34.2945 17.6602 34.2877 17.6534C34.281 17.6459 34.2735 17.6392 34.2667 17.6324C34.26 17.6249 34.2525 17.6182 34.2457 17.6114C34.239 17.6039 34.2315 17.5972 34.2247 17.5904C34.218 17.5829 34.2105 17.5762 34.2037 17.5694C34.197 17.5619 34.1895 17.5552 34.1827 17.5484C34.176 17.5409 34.1685 17.5342 34.1617 17.5274C34.155 17.5199 34.1475 17.5132 34.1407 17.5064C34.134 17.4989 34.1265 17.4922 34.1197 17.4854C34.113 17.4779 34.1055 17.4712 34.0987 17.4644C34.092 17.4569 34.0845 17.4502 34.0777 17.4434C34.071 17.4359 34.0635 17.4292 34.0567 17.4224C34.05 17.4149 34.0425 17.4082 34.0357 17.4014C34.029 17.3939 34.0215 17.3872 34.0147 17.3804C34.008 17.3729 34.0005 17.3662 33.9937 17.3594C33.987 17.3519 33.9795 17.3452 33.9727 17.3384C33.966 17.3309 33.9585 17.3242 33.9517 17.3174C33.945 17.3099 33.9375 17.3032 33.9307 17.2964C33.924 17.2889 33.9165 17.2822 33.9097 17.2754C33.903 17.2679 33.8955 17.2612 33.8887 17.2544C33.882 17.2469 33.8745 17.2402 33.8677 17.2334C33.861 17.2259 33.8535 17.2192 33.8467 17.2124C33.84 17.2049 33.8325 17.1982 33.8257 17.1914C33.819 17.1839 33.8115 17.1772 33.8047 17.1704C33.798 17.1629 33.7905 17.1562 33.7837 17.1494C33.777 17.1419 33.7695 17.1352 33.7627 17.1284C33.756 17.1209 33.7485 17.1142 33.7417 17.1074C33.7395 17.1052 33.7372 17.1029 33.735 17.1007C33.7327 17.0984 33.7305 17.0962 33.7282 17.0939C33.726 17.0917 33.7237 17.0894 33.7215 17.0872C33.7162 17.0819 33.7102 17.0759 33.705 17.0707C33.7012 17.0669 33.6975 17.0624 33.693 17.0587C33.6862 17.0512 33.6787 17.0444 33.672 17.0377C33.6652 17.0302 33.6577 17.0234 33.651 17.0167C33.6442 17.0092 33.6367 17.0024 33.63 16.9957C33.6232 16.9882 33.6157 16.9814 33.609 16.9747C33.6022 16.9672 33.5947 16.9604 33.588 16.9537C33.5812 16.9462 33.5737 16.9394 33.567 16.9327C33.5602 16.9252 33.5528 16.9184 33.546 16.9117C33.5393 16.9042 33.5317 16.8974 33.525 16.8907C33.5182 16.8832 33.5107 16.8764 33.504 16.8697C33.4972 16.8622 33.4897 16.8554 33.483 16.8487C33.4762 16.8412 33.4687 16.8344 33.462 16.8277C33.4552 16.8202 33.4477 16.8134 33.441 16.8067C33.4342 16.7992 33.4267 16.7924 33.42 16.7857C33.4132 16.7782 33.4057 16.7714 33.399 16.7647C33.3922 16.7572 33.3847 16.7504 33.378 16.7437C33.3712 16.7362 33.3637 16.7294 33.357 16.7227C33.3502 16.7152 33.3427 16.7084 33.336 16.7017C33.3292 16.6942 33.3217 16.6874 33.315 16.6807C33.3082 16.6732 33.3007 16.6664 33.294 16.6597C33.2872 16.6522 33.2797 16.6454 33.273 16.6387C33.2662 16.6312 33.2587 16.6244 33.252 16.6177C33.2452 16.6102 33.2377 16.6034 33.231 16.5967C33.2242 16.5892 33.2167 16.5824 33.21 16.5757C33.2032 16.5682 33.1957 16.5614 33.189 16.5547C33.1822 16.5472 33.1747 16.5404 33.168 16.5337C33.1612 16.5262 33.1537 16.5194 33.147 16.5127C33.1402 16.5052 33.1327 16.4984 33.126 16.4917C33.1192 16.4842 33.1118 16.4775 33.105 16.4707C33.0983 16.4632 33.0907 16.4565 33.084 16.4497C33.0772 16.4422 33.0698 16.4354 33.063 16.4287C33.0563 16.4212 33.0487 16.4144 33.042 16.4077C33.0352 16.4002 33.0278 16.3934 33.021 16.3867C33.0143 16.3792 33.0067 16.3724 33 16.3657C32.9932 16.3582 32.9857 16.3514 32.979 16.3447C32.9722 16.3372 32.9647 16.3304 32.958 16.3237C32.9512 16.3162 32.9437 16.3094 32.937 16.3027C32.9302 16.2952 32.9227 16.2884 32.916 16.2817C32.9092 16.2742 32.9017 16.2674 32.895 16.2607C32.8882 16.2532 32.8807 16.2464 32.874 16.2397C32.8672 16.2322 32.8597 16.2254 32.853 16.2187C32.8462 16.2112 32.8387 16.2044 32.832 16.1977C32.8252 16.1902 32.8177 16.1834 32.811 16.1767C32.8042 16.1692 32.7967 16.1624 32.79 16.1557C32.7832 16.1482 32.7757 16.1414 32.769 16.1347C32.7622 16.1272 32.7547 16.1204 32.748 16.1137C32.7412 16.1062 32.7337 16.0994 32.727 16.0927C32.7202 16.0852 32.7127 16.0784 32.706 16.0717C32.6992 16.0642 32.6917 16.0574 32.685 16.0507C32.6782 16.0432 32.6707 16.0364 32.664 16.0297C32.6572 16.0222 32.6497 16.0154 32.643 16.0087C32.6362 16.0012 32.6287 15.9944 32.622 15.9877C32.6152 15.9802 32.6077 15.9734 32.601 15.9667C32.5942 15.9592 32.5867 15.9524 32.58 15.9457C32.5732 15.9382 32.5657 15.9314 32.559 15.9247C32.5522 15.9172 32.5447 15.9104 32.538 15.9037C32.5312 15.8962 32.5237 15.8894 32.517 15.8827C32.5102 15.8752 32.5027 15.8684 32.496 15.8617C32.4892 15.8542 32.4817 15.8474 32.475 15.8407C32.4682 15.8332 32.4607 15.8264 32.454 15.8197C32.4472 15.8122 32.4397 15.8054 32.433 15.7987C32.4262 15.7912 32.4187 15.7844 32.412 15.7777C32.4052 15.7702 32.3977 15.7634 32.391 15.7567C32.3842 15.7492 32.3767 15.7424 32.37 15.7357C32.3632 15.7282 32.3557 15.7214 32.349 15.7147C32.3422 15.7072 32.3347 15.7004 32.328 15.6937C32.3212 15.6862 32.3137 15.6794 32.307 15.6727C32.3002 15.6652 32.2927 15.6585 32.286 15.6517C32.2792 15.6442 32.2717 15.6374 32.265 15.6307C32.2582 15.6232 32.2507 15.6164 32.244 15.6097C32.2372 15.6022 32.2297 15.5954 32.223 15.5887C32.2162 15.5812 32.2087 15.5744 32.202 15.5677C32.1952 15.5602 32.1877 15.5534 32.181 15.5467C32.1742 15.5392 32.1667 15.5324 32.16 15.5257C32.1532 15.5182 32.1457 15.5114 32.139 15.5047C32.1345 15.5002 32.1292 15.4949 32.1247 15.4904C32.121 15.4867 32.118 15.4837 32.1142 15.4799C32.1082 15.4739 32.103 15.4679 32.097 15.4627C32.0925 15.4582 32.0872 15.4529 32.0827 15.4484C32.0805 15.4462 32.0782 15.4439 32.076 15.4417C32.0715 15.4372 32.0662 15.4319 32.0617 15.4274C32.055 15.4199 32.0475 15.4132 32.0407 15.4064C32.034 15.3989 32.0265 15.3922 32.0197 15.3854C32.0182 15.3839 32.0175 15.3832 32.016 15.3817C32.0145 15.3802 32.0137 15.3794 32.0122 15.3779C32.0055 15.3704 31.998 15.3637 31.9912 15.3569C31.9897 15.3554 31.989 15.3547 31.9875 15.3532C31.9837 15.3494 31.9807 15.3457 31.977 15.3427C31.9732 15.3389 31.9702 15.3359 31.9665 15.3322C31.9605 15.3262 31.9552 15.3202 31.9492 15.3149C31.9447 15.3104 31.9395 15.3052 31.935 15.3007C31.9327 15.2984 31.9305 15.2962 31.9282 15.2939C31.9237 15.2894 31.9185 15.2842 31.914 15.2797C31.908 15.2737 31.902 15.2677 31.8967 15.2624C31.893 15.2587 31.89 15.2549 31.8862 15.2519C31.8825 15.2482 31.8795 15.2452 31.8757 15.2414C31.8742 15.2399 31.8735 15.2392 31.872 15.2377C31.8675 15.2332 31.863 15.2279 31.8577 15.2234C31.8532 15.2189 31.8487 15.2137 31.8435 15.2092C31.842 15.2077 31.8413 15.2069 31.8398 15.2054C31.836 15.2017 31.833 15.1979 31.8292 15.1949C31.8255 15.1912 31.8225 15.1882 31.8187 15.1844C31.8127 15.1784 31.8075 15.1724 31.8015 15.1672C31.797 15.1627 31.7917 15.1574 31.7872 15.1529C31.785 15.1507 31.7827 15.1484 31.7805 15.1462C31.776 15.1417 31.7707 15.1364 31.7662 15.1319C31.7602 15.1259 31.7542 15.1199 31.749 15.1147C31.7452 15.1109 31.7422 15.1072 31.7385 15.1042C31.7347 15.1004 31.7317 15.0974 31.728 15.0937C31.7265 15.0922 31.7257 15.0914 31.7242 15.0899C31.7175 15.0824 31.71 15.0757 31.7032 15.0689C31.7017 15.0674 31.701 15.0667 31.6995 15.0652C31.698 15.0637 31.6972 15.0629 31.6957 15.0614C31.689 15.0539 31.6815 15.0472 31.6747 15.0404C31.6732 15.0389 31.6725 15.0382 31.671 15.0367C31.6673 15.0329 31.6642 15.0292 31.6605 15.0262C31.6567 15.0224 31.6537 15.0194 31.65 15.0157C31.644 15.0097 31.6387 15.0037 31.6327 14.9984C31.6282 14.9939 31.623 14.9887 31.6185 14.9842C31.6162 14.9819 31.614 14.9797 31.6117 14.9774C31.6072 14.9729 31.602 14.9677 31.5975 14.9632C31.5915 14.9572 31.5855 14.9512 31.5802 14.9459C31.5765 14.9422 31.5735 14.9384 31.5697 14.9354C31.566 14.9317 31.563 14.9287 31.5592 14.9249C31.5577 14.9234 31.557 14.9227 31.5555 14.9212C31.551 14.9167 31.5465 14.9114 31.5412 14.9069C31.5367 14.9024 31.5322 14.8972 31.527 14.8927C31.5255 14.8912 31.5247 14.8904 31.5232 14.8889C31.5195 14.8852 31.5165 14.8814 31.5127 14.8784C31.509 14.8747 31.506 14.8717 31.5022 14.8679C31.4962 14.8619 31.491 14.8559 31.485 14.8507C31.4805 14.8462 31.4752 14.8409 31.4707 14.8364C31.4685 14.8342 31.4662 14.8319 31.464 14.8297C31.4595 14.8252 31.4542 14.8199 31.4497 14.8154C31.4437 14.8094 31.4377 14.8034 31.4325 14.7982C31.4287 14.7944 31.4257 14.7907 31.422 14.7877C31.4182 14.7839 31.4152 14.7809 31.4115 14.7772C31.41 14.7757 31.4092 14.7749 31.4077 14.7734C31.401 14.7659 31.3935 14.7592 31.3867 14.7524C31.3852 14.7509 31.3845 14.7502 31.383 14.7487C31.3815 14.7472 31.3807 14.7464 31.3792 14.7449C31.3725 14.7374 31.365 14.7307 31.3582 14.7239C31.3515 14.7164 31.344 14.7097 31.3372 14.7029C31.3327 14.6984 31.3275 14.6932 31.323 14.6887C31.3207 14.6864 31.3185 14.6842 31.3162 14.6819C31.3117 14.6774 31.3065 14.6722 31.302 14.6677C31.296 14.6617 31.29 14.6557 31.2847 14.6504C31.281 14.6467 31.278 14.6429 31.2742 14.6399C31.2705 14.6362 31.2675 14.6332 31.2637 14.6294C31.2622 14.6279 31.2615 14.6272 31.26 14.6257C31.2532 14.6182 31.2457 14.6114 31.239 14.6047C31.2375 14.6032 31.2367 14.6024 31.2352 14.6009C31.2337 14.5994 31.233 14.5987 31.2315 14.5972C31.2247 14.5897 31.2172 14.5829 31.2105 14.5762C31.209 14.5747 31.2082 14.5739 31.2067 14.5724C31.203 14.5687 31.2 14.5649 31.1962 14.5619C31.1925 14.5582 31.1895 14.5552 31.1857 14.5514C31.1797 14.5454 31.1745 14.5394 31.1685 14.5342C31.164 14.5297 31.1587 14.5244 31.1542 14.5199C31.152 14.5177 31.1497 14.5154 31.1475 14.5132C31.143 14.5087 31.1377 14.5034 31.1332 14.4989C31.1272 14.4929 31.1212 14.4869 31.116 14.4817C31.1122 14.4779 31.1092 14.4742 31.1055 14.4712C31.1017 14.4674 31.0987 14.4644 31.095 14.4607C31.0935 14.4592 31.0927 14.4584 31.0912 14.4569C31.0867 14.4524 31.0822 14.4472 31.077 14.4427C31.0725 14.4382 31.068 14.4329 31.0627 14.4284C31.0612 14.4269 31.0605 14.4262 31.059 14.4247C31.0552 14.4209 31.0522 14.4172 31.0485 14.4142C31.0447 14.4104 31.0417 14.4074 31.038 14.4037C31.032 14.3977 31.0267 14.3917 31.0207 14.3864C31.0162 14.3819 31.011 14.3767 31.0065 14.3722C31.0042 14.3699 31.002 14.3677 30.9997 14.3654C30.9952 14.3609 30.99 14.3557 30.9855 14.3512C30.9795 14.3452 30.9735 14.3392 30.9682 14.3339C30.9645 14.3302 30.9615 14.3264 30.9577 14.3234C30.954 14.3197 30.951 14.3167 30.9472 14.3129C30.9457 14.3114 30.945 14.3107 30.9435 14.3092C30.9367 14.3017 30.9292 14.2949 30.9225 14.2882C30.921 14.2867 30.9202 14.2859 30.9187 14.2844C30.9172 14.2829 30.9165 14.2822 30.915 14.2807C30.9082 14.2732 30.9007 14.2664 30.894 14.2597C30.8872 14.2522 30.8797 14.2454 30.873 14.2387C30.8685 14.2342 30.8632 14.2289 30.8587 14.2244C30.8565 14.2222 30.8542 14.2199 30.852 14.2177C30.8475 14.2132 30.8422 14.2079 30.8377 14.2034C30.8317 14.1974 30.8257 14.1914 30.8205 14.1862C30.8167 14.1824 30.8137 14.1787 30.81 14.1757C30.8062 14.1719 30.8032 14.1689 30.7995 14.1652C30.798 14.1637 30.7972 14.1629 30.7957 14.1614C30.789 14.1539 30.7815 14.1472 30.7747 14.1404C30.7732 14.1389 30.7725 14.1382 30.771 14.1367C30.7695 14.1352 30.7687 14.1344 30.7672 14.1329C30.7605 14.1254 30.753 14.1187 30.7462 14.1119C30.7447 14.1104 30.744 14.1097 30.7425 14.1082C30.7387 14.1044 30.7357 14.1007 30.732 14.0977C30.7282 14.0939 30.7252 14.0909 30.7215 14.0872C30.7155 14.0812 30.7102 14.0752 30.7042 14.0699C30.6997 14.0654 30.6945 14.0602 30.69 14.0557C30.6877 14.0534 30.6855 14.0512 30.6832 14.0489C30.6787 14.0444 30.6735 14.0392 30.669 14.0347C30.663 14.0287 30.657 14.0227 30.6517 14.0174C30.648 14.0137 30.645 14.0099 30.6412 14.0069C30.6375 14.0032 30.6345 14.0002 30.6307 13.9964C30.6292 13.9949 30.6285 13.9942 30.627 13.9927C30.6225 13.9882 30.618 13.9829 30.6127 13.9784C30.6082 13.9739 30.6037 13.9687 30.5985 13.9642C30.594 13.9597 30.5887 13.9544 30.5842 13.9499C30.5775 13.9424 30.57 13.9357 30.5632 13.9289C30.5565 13.9214 30.549 13.9147 30.5422 13.9079C30.5355 13.9004 30.528 13.8937 30.5212 13.8869C30.5145 13.8794 30.507 13.8727 30.5002 13.8659C30.4935 13.8584 30.486 13.8517 30.4792 13.8449C30.4725 13.8374 30.465 13.8307 30.4582 13.8239C30.4515 13.8164 30.444 13.8097 30.4372 13.8029C30.4305 13.7954 30.423 13.7887 30.4162 13.7819C30.4095 13.7744 30.402 13.7677 30.3952 13.7609C30.3885 13.7534 30.381 13.7467 30.3742 13.7399C30.3675 13.7324 30.36 13.7257 30.3532 13.7189C30.3465 13.7114 30.339 13.7047 30.3322 13.6979C30.3255 13.6904 30.318 13.6837 30.3112 13.6769C30.3045 13.6694 30.297 13.6627 30.2902 13.6559C30.2835 13.6484 30.276 13.6417 30.2692 13.6349C30.2625 13.6274 30.255 13.6207 30.2482 13.6139C30.2415 13.6064 30.234 13.5997 30.2272 13.5929C30.2205 13.5854 30.213 13.5787 30.2062 13.5719C30.1995 13.5644 30.192 13.5577 30.1852 13.5509C30.1785 13.5434 30.171 13.5367 30.1642 13.5299C30.1575 13.5224 30.15 13.5157 30.1432 13.5089C30.1365 13.5014 30.129 13.4947 30.1222 13.4879C30.1155 13.4804 30.108 13.4737 30.1012 13.4669C30.0945 13.4594 30.087 13.4527 30.0802 13.4459C30.0735 13.4384 30.066 13.4317 30.0592 13.4249C30.0525 13.4174 30.045 13.4107 30.0382 13.4039C30.0315 13.3964 30.024 13.3897 30.0172 13.3829C30.0105 13.3754 30.003 13.3687 29.9962 13.3619C29.9895 13.3544 29.982 13.3477 29.9752 13.3409C29.9685 13.3334 29.961 13.3267 29.9542 13.3199C29.9475 13.3124 29.94 13.3057 29.9332 13.2989C29.9265 13.2914 29.919 13.2847 29.9122 13.2779C29.9055 13.2704 29.898 13.2637 29.8912 13.2569C29.8845 13.2494 29.877 13.2427 29.8702 13.2359C29.8635 13.2284 29.856 13.2217 29.8492 13.2149C29.8425 13.2074 29.835 13.2007 29.8282 13.1939C29.8215 13.1864 29.814 13.1797 29.8072 13.1729C29.8005 13.1654 29.793 13.1587 29.7862 13.1519C29.7795 13.1444 29.772 13.1377 29.7652 13.1309C29.7585 13.1234 29.751 13.1167 29.7442 13.1099C29.7375 13.1024 29.73 13.0957 29.7232 13.0889C29.7165 13.0814 29.709 13.0747 29.7022 13.0679C29.6955 13.0604 29.688 13.0537 29.6812 13.0469C29.6745 13.0394 29.667 13.0327 29.6602 13.0259C29.6535 13.0184 29.646 13.0117 29.6392 13.0049C29.6325 12.9974 29.625 12.9907 29.6182 12.9839C29.6115 12.9764 29.604 12.9697 29.5972 12.9629C29.5905 12.9554 29.583 12.9487 29.5762 12.9419C29.5695 12.9344 29.562 12.9277 29.5552 12.9209C29.5485 12.9134 29.541 12.9067 29.5342 12.8999C29.5275 12.8924 29.52 12.8857 29.5132 12.8789C29.5065 12.8714 29.499 12.8647 29.4922 12.858C29.4855 12.8505 29.478 12.8437 29.4712 12.8369C29.4645 12.8294 29.457 12.8227 29.4502 12.8159C29.4435 12.8084 29.436 12.8017 29.4292 12.7949C29.4225 12.7874 29.415 12.7807 29.4082 12.7739C29.4015 12.7664 29.394 12.7597 29.3872 12.7529C29.3805 12.7454 29.373 12.7387 29.3662 12.7319C29.3595 12.7244 29.352 12.7177 29.3452 12.7109C29.3385 12.7034 29.331 12.6967 29.3242 12.6899C29.3175 12.6824 29.31 12.6757 29.3032 12.6689C29.2965 12.6614 29.289 12.6547 29.2822 12.6479C29.2755 12.6404 29.268 12.6337 29.2613 12.6269C29.2545 12.6194 29.247 12.6127 29.2402 12.6059C29.2335 12.5984 29.226 12.5917 29.2193 12.5849C29.2125 12.5774 29.205 12.5707 29.1982 12.5639C29.1915 12.5564 29.184 12.5497 29.1773 12.5429C29.1705 12.5354 29.163 12.5287 29.1562 12.5219C29.1495 12.5144 29.142 12.5077 29.1352 12.5009C29.1285 12.4934 29.121 12.4867 29.1142 12.4799C29.1075 12.4724 29.1 12.4657 29.0932 12.4589C29.0865 12.4514 29.079 12.4447 29.0722 12.4379C29.0655 12.4304 29.058 12.4237 29.0512 12.4169C29.049 12.4147 29.0467 12.4124 29.0445 12.4102C29.0422 12.4079 29.04 12.4057 29.0377 12.4034C29.0355 12.4012 29.0332 12.3989 29.031 12.3967C29.0257 12.3914 29.0197 12.3854 29.0145 12.3802C29.0107 12.3764 29.007 12.3719 29.0025 12.3682C28.9957 12.3607 28.9882 12.3539 28.9815 12.3472C28.9747 12.3397 28.9672 12.3329 28.9605 12.3262C28.9537 12.3187 28.9462 12.3119 28.9395 12.3052C28.9327 12.2977 28.9252 12.2909 28.9185 12.2842C28.9117 12.2767 28.9042 12.2699 28.8975 12.2632C28.8907 12.2557 28.8832 12.2489 28.8765 12.2422C28.8697 12.2347 28.8622 12.2279 28.8555 12.2212C28.8487 12.2137 28.8412 12.2069 28.8345 12.2002C28.8277 12.1927 28.8202 12.1859 28.8135 12.1792C28.8067 12.1717 28.7993 12.1649 28.7925 12.1582C28.7858 12.1507 28.7782 12.1439 28.7715 12.1372C28.7647 12.1297 28.7573 12.1229 28.7505 12.1162C28.7438 12.1087 28.7362 12.1019 28.7295 12.0952C28.7227 12.0877 28.7153 12.0809 28.7085 12.0742C28.7018 12.0667 28.6942 12.0599 28.6875 12.0532C28.6807 12.0457 28.6732 12.0389 28.6665 12.0322C28.6597 12.0247 28.6522 12.0179 28.6455 12.0112C28.6387 12.0037 28.6312 11.9969 28.6245 11.9902C28.6177 11.9827 28.6102 11.9759 28.6035 11.9692C28.5967 11.9617 28.5892 11.9549 28.5825 11.9482C28.5757 11.9407 28.5682 11.9339 28.5615 11.9272C28.5547 11.9197 28.5472 11.9129 28.5405 11.9062C28.5337 11.8987 28.5262 11.8919 28.5195 11.8852C28.5127 11.8777 28.5052 11.871 28.4985 11.8642C28.4917 11.8567 28.4842 11.8499 28.4775 11.8432C28.4707 11.8357 28.4632 11.8289 28.4565 11.8222C28.4497 11.8147 28.4422 11.8079 28.4355 11.8012C28.4287 11.7937 28.4212 11.7869 28.4145 11.7802C28.4077 11.7727 28.4002 11.7659 28.3935 11.7592C28.3867 11.7517 28.3792 11.7449 28.3725 11.7382C28.3657 11.7307 28.3582 11.7239 28.3515 11.7172C28.3447 11.7097 28.3372 11.7029 28.3305 11.6962C28.3237 11.6887 28.3162 11.6819 28.3095 11.6752C28.3027 11.6677 28.2952 11.6609 28.2885 11.6542C28.2817 11.6467 28.2742 11.6399 28.2675 11.6332C28.2607 11.6257 28.2532 11.6189 28.2465 11.6122C28.2397 11.6047 28.2322 11.5979 28.2255 11.5912C28.2187 11.5837 28.2112 11.5769 28.2045 11.5702C28.1977 11.5627 28.1902 11.5559 28.1835 11.5492C28.1767 11.5417 28.1692 11.5349 28.1625 11.5282C28.1557 11.5207 28.1482 11.5139 28.1415 11.5072C28.1347 11.4997 28.1272 11.4929 28.1205 11.4862C28.1137 11.4787 28.1062 11.4719 28.0995 11.4652C28.0927 11.4577 28.0852 11.4509 28.0785 11.4442C28.0717 11.4367 28.0642 11.4299 28.0575 11.4232C28.0507 11.4157 28.0432 11.4089 28.0365 11.4022C28.0297 11.3947 28.0222 11.3879 28.0155 11.3812C28.0087 11.3737 28.0012 11.3669 27.9945 11.3602C27.9877 11.3527 27.9802 11.3459 27.9735 11.3392C27.9667 11.3317 27.9592 11.3249 27.9525 11.3182C27.9457 11.3107 27.9382 11.3039 27.9315 11.2972C27.9247 11.2897 27.9172 11.2829 27.9105 11.2762C27.9037 11.2687 27.8962 11.2619 27.8895 11.2552C27.8827 11.2477 27.8752 11.2409 27.8685 11.2342C27.8617 11.2267 27.8542 11.2199 27.8475 11.2132C27.8407 11.2057 27.8332 11.1989 27.8265 11.1922C27.8197 11.1847 27.8122 11.1779 27.8055 11.1712C27.7987 11.1637 27.7912 11.1569 27.7845 11.1502C27.7777 11.1427 27.7702 11.1359 27.7635 11.1292C27.7567 11.1217 27.7492 11.1149 27.7425 11.1082C27.7357 11.1007 27.7282 11.0939 27.7215 11.0872C27.7147 11.0797 27.7072 11.0729 27.7005 11.0662C27.6937 11.0587 27.6862 11.0519 27.6795 11.0452C27.6727 11.0377 27.6652 11.0309 27.6585 11.0242C27.6517 11.0167 27.6442 11.0099 27.6375 11.0032C27.6307 10.9957 27.6232 10.9889 27.6165 10.9822C27.6097 10.9747 27.6022 10.9679 27.5955 10.9612C27.5887 10.9537 27.5812 10.9469 27.5745 10.9402C27.5677 10.9327 27.5602 10.9259 27.5535 10.9192C27.5467 10.9117 27.5392 10.9049 27.5325 10.8982C27.5257 10.8907 27.5182 10.8839 27.5115 10.8772C27.5047 10.8697 27.4972 10.8629 27.4905 10.8562C27.4837 10.8487 27.4762 10.8419 27.4695 10.8352C27.4627 10.8277 27.4552 10.8209 27.4485 10.8142C27.4417 10.8067 27.4342 10.7999 27.4275 10.7932C27.4207 10.7857 27.4132 10.7789 27.4065 10.7722C27.3997 10.7647 27.3922 10.7579 27.3855 10.7512C27.3787 10.7437 27.3712 10.7369 27.3645 10.7302C27.3577 10.7227 27.3502 10.7159 27.3435 10.7092C27.3367 10.7017 27.3292 10.6949 27.3225 10.6882C27.3157 10.6807 27.3082 10.6739 27.3015 10.6672C27.2947 10.6597 27.2872 10.6529 27.2805 10.6462C27.2737 10.6387 27.2662 10.6319 27.2595 10.6252C27.2527 10.6177 27.2452 10.6109 27.2385 10.6042C27.2317 10.5967 27.2242 10.5899 27.2175 10.5832C27.2107 10.5757 27.2032 10.5689 27.1965 10.5622C27.1897 10.5547 27.1823 10.5479 27.1755 10.5412C27.1688 10.5337 27.1612 10.5269 27.1545 10.5202C27.1477 10.5127 27.1403 10.5059 27.1335 10.4992C27.1268 10.4917 27.1192 10.4849 27.1125 10.4782C27.1057 10.4707 27.0982 10.4639 27.0915 10.4572C27.0847 10.4497 27.0772 10.4429 27.0705 10.4362C27.0637 10.4287 27.0562 10.4219 27.0495 10.4152C27.0427 10.4077 27.0352 10.4009 27.0285 10.3942C27.0217 10.3867 27.0142 10.3799 27.0075 10.3732C27.0007 10.3657 26.9932 10.3589 26.9865 10.3522C26.9797 10.3447 26.9722 10.3379 26.9655 10.3312C26.9587 10.3237 26.9512 10.3169 26.9445 10.3102C26.9377 10.3027 26.9302 10.2959 26.9235 10.2892C26.9167 10.2817 26.9092 10.2749 26.9025 10.2682C26.8957 10.2607 26.8882 10.2539 26.8815 10.2472C26.8747 10.2397 26.8672 10.2329 26.8605 10.2262C26.8537 10.2187 26.8462 10.2119 26.8395 10.2052C26.8327 10.1977 26.8252 10.1909 26.8185 10.1842C26.8117 10.1767 26.8042 10.1699 26.7975 10.1632C26.7907 10.1557 26.7833 10.1489 26.7765 10.1422C26.7698 10.1347 26.7622 10.1279 26.7555 10.1212C26.7487 10.1137 26.7413 10.1069 26.7345 10.1002C26.7278 10.0927 26.7202 10.0859 26.7135 10.0792C26.7067 10.0717 26.6993 10.0649 26.6925 10.0582C26.6858 10.0507 26.6782 10.0439 26.6715 10.0372C26.6647 10.0297 26.6573 10.0229 26.6505 10.0162C26.6438 10.0087 26.6362 10.0019 26.6295 9.9952C26.6227 9.9877 26.6153 9.98095 26.6085 9.9742C26.6018 9.9667 26.5942 9.95995 26.5875 9.9532C26.5807 9.9457 26.5732 9.93895 26.5665 9.9322C26.5597 9.9247 26.5522 9.91795 26.5455 9.9112C26.5387 9.9037 26.5312 9.89695 26.5245 9.8902C26.5177 9.8827 26.5102 9.87595 26.5035 9.8692C26.4967 9.8617 26.4892 9.85495 26.4825 9.8482C26.4757 9.8407 26.4682 9.83395 26.4615 9.8272C26.4547 9.8197 26.4472 9.81295 26.4405 9.8062C26.4337 9.7987 26.4262 9.79195 26.4195 9.7852C26.4127 9.7777 26.4052 9.77095 26.3985 9.7642C26.3917 9.7567 26.3842 9.74995 26.3775 9.7432C26.3707 9.7357 26.3632 9.72895 26.3565 9.7222C26.3497 9.7147 26.3422 9.70795 26.3355 9.7012C26.3287 9.6937 26.3212 9.68695 26.3145 9.6802C26.3077 9.6727 26.3002 9.66595 26.2935 9.6592C26.2867 9.6517 26.2792 9.64495 26.2725 9.6382C26.2657 9.6307 26.2582 9.62395 26.2515 9.6172C26.2447 9.6097 26.2372 9.60295 26.2305 9.5962C26.2237 9.5887 26.2162 9.58195 26.2095 9.5752C26.2027 9.5677 26.1952 9.56095 26.1885 9.5542C26.1817 9.5467 26.1742 9.53995 26.1675 9.5332C26.1607 9.5257 26.1532 9.51895 26.1465 9.5122C26.1397 9.5047 26.1322 9.49795 26.1255 9.4912C26.1187 9.4837 26.1112 9.47695 26.1045 9.4702C26.0977 9.4627 26.0902 9.45595 26.0835 9.4492C26.0767 9.4417 26.0692 9.43495 26.0625 9.4282C26.0557 9.4207 26.0482 9.41395 26.0415 9.4072C26.0347 9.3997 26.0272 9.39295 26.0205 9.3862C26.0137 9.3787 26.0062 9.37195 25.9995 9.3652C25.9927 9.3577 25.9852 9.35095 25.9785 9.3442C25.9717 9.3367 25.9642 9.32995 25.9575 9.3232C25.9507 9.3157 25.9432 9.30895 25.9365 9.3022C25.9297 9.2947 25.9222 9.28795 25.9155 9.2812C25.6267 8.9872 25.2255 8.8042 24.7807 8.8042H11.1247C10.7347 8.8042 10.3807 9.0232 10.1955 9.3667C9.9945 9.73945 9.60075 9.99295 9.1485 9.99295C8.99175 9.99295 8.8425 9.9622 8.70525 9.9067C8.70375 9.9052 8.7015 9.90295 8.7 9.90145C8.69325 9.89395 8.68575 9.8872 8.679 9.88045C8.67225 9.87295 8.66475 9.8662 8.658 9.85945C8.65125 9.85195 8.64375 9.8452 8.637 9.83845C8.63025 9.83095 8.62275 9.8242 8.616 9.81745C8.60925 9.80995 8.60175 9.8032 8.595 9.79645C8.58825 9.78895 8.58075 9.7822 8.574 9.77545C8.56725 9.76795 8.55975 9.7612 8.553 9.75445C8.54625 9.74695 8.53875 9.7402 8.532 9.73345C8.52525 9.72595 8.51775 9.7192 8.511 9.71245C8.50425 9.70495 8.49675 9.6982 8.49 9.69145C8.48325 9.68395 8.47575 9.6772 8.469 9.67045C8.46225 9.66295 8.45475 9.6562 8.448 9.64945C8.44125 9.64195 8.43375 9.6352 8.427 9.62845C8.42025 9.62095 8.41275 9.6142 8.406 9.60745C8.39925 9.59995 8.39175 9.5932 8.385 9.58645C8.37825 9.57895 8.37075 9.5722 8.364 9.56545C8.35725 9.55795 8.34975 9.5512 8.343 9.54445C8.33625 9.53695 8.32875 9.5302 8.322 9.52345C8.31525 9.51595 8.30775 9.5092 8.301 9.50245C8.29425 9.49495 8.28675 9.4882 8.28 9.48145C8.27325 9.47395 8.26575 9.4672 8.259 9.46045C8.25225 9.45295 8.24475 9.4462 8.238 9.43945C8.23125 9.43195 8.22375 9.4252 8.217 9.41845C8.21025 9.41095 8.20275 9.4042 8.196 9.39745C8.18925 9.38995 8.18175 9.3832 8.175 9.37645C8.16825 9.36895 8.16075 9.3622 8.154 9.35545C8.14725 9.34795 8.13975 9.3412 8.133 9.33445C8.12625 9.32695 8.11875 9.3202 8.112 9.31345C8.10525 9.30595 8.09775 9.2992 8.091 9.29245C8.08425 9.28495 8.07675 9.2782 8.07 9.27145C8.06325 9.26395 8.05575 9.2572 8.049 9.25045C8.04225 9.24295 8.03475 9.2362 8.028 9.22945C8.02125 9.22195 8.01375 9.2152 8.007 9.20845C8.00025 9.20095 7.99275 9.1942 7.986 9.18745C7.97925 9.17995 7.97175 9.1732 7.965 9.16645C7.95825 9.15895 7.95075 9.1522 7.944 9.14545C7.74825 8.9377 7.47525 8.8132 7.18125 8.8132H5.34075C4.4625 8.8132 3.75 9.52495 3.75 10.4039V19.8524C3.75 20.2972 3.933 20.6984 4.227 20.9872C4.23375 20.9947 4.24125 21.0014 4.248 21.0082C4.25475 21.0157 4.26225 21.0224 4.269 21.0292C4.27575 21.0367 4.28325 21.0434 4.29 21.0502C4.29675 21.0577 4.30425 21.0644 4.311 21.0712C4.31775 21.0787 4.32525 21.0854 4.332 21.0922C4.33875 21.0997 4.34625 21.1065 4.353 21.1132C4.35975 21.1207 4.36725 21.1275 4.374 21.1342C4.38075 21.1417 4.38825 21.1485 4.395 21.1552C4.40175 21.1627 4.40925 21.1695 4.416 21.1762C4.42275 21.1837 4.43025 21.1905 4.437 21.1972C4.44375 21.2047 4.45125 21.2115 4.458 21.2182C4.46475 21.2257 4.47225 21.2325 4.479 21.2392C4.48575 21.2467 4.49325 21.2534 4.5 21.2602C4.50675 21.2677 4.51425 21.2744 4.521 21.2812C4.52775 21.2887 4.53525 21.2954 4.542 21.3022C4.54875 21.3097 4.55625 21.3164 4.563 21.3232C4.56975 21.3307 4.57725 21.3374 4.584 21.3442C4.59075 21.3517 4.59825 21.3584 4.605 21.3652C4.61175 21.3727 4.61925 21.3794 4.626 21.3862C4.63275 21.3937 4.64025 21.4004 4.647 21.4072C4.65375 21.4147 4.66125 21.4214 4.668 21.4282C4.67475 21.4357 4.68225 21.4424 4.689 21.4492C4.69575 21.4567 4.70325 21.4634 4.71 21.4702C4.71675 21.4777 4.72425 21.4844 4.731 21.4912C4.73775 21.4987 4.74525 21.5054 4.752 21.5122C4.75875 21.5197 4.76625 21.5264 4.773 21.5332C4.77975 21.5407 4.78725 21.5474 4.794 21.5542C4.80075 21.5617 4.80825 21.5684 4.815 21.5752C4.82175 21.5827 4.82925 21.5894 4.836 21.5962C4.84275 21.6037 4.85025 21.6104 4.857 21.6172C4.86375 21.6247 4.87125 21.6315 4.878 21.6382C4.88475 21.6457 4.89225 21.6525 4.899 21.6592C4.90575 21.6667 4.91325 21.6735 4.92 21.6802C4.92675 21.6877 4.93425 21.6945 4.941 21.7012C4.94775 21.7087 4.95525 21.7155 4.962 21.7222C4.96875 21.7297 4.97625 21.7365 4.983 21.7432C4.98975 21.7507 4.99725 21.7575 5.004 21.7642C5.01075 21.7717 5.01825 21.7785 5.025 21.7852C5.03175 21.7927 5.03925 21.7995 5.046 21.8062C5.05275 21.8137 5.06025 21.8205 5.067 21.8272C5.07375 21.8347 5.08125 21.8415 5.088 21.8482C5.09475 21.8557 5.10225 21.8624 5.109 21.8692C5.11575 21.8767 5.12325 21.8834 5.13 21.8902C5.13675 21.8977 5.14425 21.9044 5.151 21.9112C5.15775 21.9187 5.16525 21.9254 5.172 21.9322C5.17875 21.9397 5.18625 21.9464 5.193 21.9532C5.19975 21.9607 5.20725 21.9674 5.214 21.9742C5.22075 21.9817 5.22825 21.9884 5.235 21.9952C5.24175 22.0027 5.24925 22.0094 5.256 22.0162C5.26275 22.0237 5.27025 22.0304 5.277 22.0372C5.28375 22.0447 5.29125 22.0514 5.298 22.0582C5.30475 22.0657 5.31225 22.0724 5.319 22.0792C5.32575 22.0867 5.33325 22.0934 5.34 22.1002C5.34675 22.1077 5.35425 22.1144 5.361 22.1212C5.36775 22.1287 5.37525 22.1354 5.382 22.1422C5.38875 22.1497 5.39625 22.1565 5.403 22.1632C5.40975 22.1707 5.41725 22.1775 5.424 22.1842C5.43075 22.1917 5.43825 22.1985 5.445 22.2052C5.45175 22.2127 5.45925 22.2195 5.466 22.2262C5.47275 22.2337 5.48025 22.2405 5.487 22.2472C5.49375 22.2547 5.50125 22.2615 5.508 22.2682C5.51475 22.2757 5.52225 22.2824 5.529 22.2892C5.53575 22.2967 5.54325 22.3034 5.55 22.3102C5.55675 22.3177 5.56425 22.3244 5.571 22.3312C5.57775 22.3387 5.58525 22.3454 5.592 22.3522C5.59875 22.3597 5.60625 22.3664 5.613 22.3732C5.61975 22.3807 5.62725 22.3874 5.634 22.3942C5.64075 22.4017 5.64825 22.4084 5.655 22.4152C5.66175 22.4227 5.66925 22.4294 5.676 22.4362C5.68275 22.4437 5.69025 22.4504 5.697 22.4572C5.70375 22.4647 5.71125 22.4714 5.718 22.4782C5.72475 22.4857 5.73225 22.4924 5.739 22.4992C5.74575 22.5067 5.75325 22.5134 5.76 22.5202C5.76675 22.5277 5.77425 22.5344 5.781 22.5412C5.78775 22.5487 5.79525 22.5554 5.802 22.5622C5.80875 22.5697 5.81625 22.5764 5.823 22.5832C5.82975 22.5907 5.83725 22.5974 5.844 22.6042C5.85075 22.6117 5.85825 22.6184 5.865 22.6252C5.87175 22.6327 5.87925 22.6394 5.886 22.6462C5.89275 22.6537 5.90025 22.6604 5.907 22.6672C5.91375 22.6747 5.92125 22.6815 5.928 22.6882C5.93475 22.6957 5.94225 22.7025 5.949 22.7092C5.95575 22.7167 5.96325 22.7235 5.97 22.7302C5.97675 22.7377 5.98425 22.7445 5.991 22.7512C5.99775 22.7587 6.00525 22.7655 6.012 22.7722C6.01875 22.7797 6.02625 22.7865 6.033 22.7932C6.03975 22.8007 6.04725 22.8075 6.054 22.8142C6.06075 22.8217 6.06825 22.8285 6.075 22.8352C6.08175 22.8427 6.08925 22.8495 6.096 22.8562C6.10275 22.8637 6.11025 22.8705 6.117 22.8772C6.12375 22.8847 6.13125 22.8914 6.138 22.8982C6.14475 22.9057 6.15225 22.9124 6.159 22.9192C6.16575 22.9267 6.17325 22.9334 6.18 22.9402C6.18675 22.9477 6.19425 22.9544 6.201 22.9612C6.20775 22.9687 6.21525 22.9754 6.222 22.9822C6.22875 22.9897 6.23625 22.9964 6.243 23.0032C6.24975 23.0107 6.25725 23.0174 6.264 23.0242C6.27075 23.0317 6.27825 23.0384 6.285 23.0452C6.29175 23.0527 6.29925 23.0594 6.306 23.0662C6.31275 23.0737 6.32025 23.0804 6.327 23.0872C6.33375 23.0947 6.34125 23.1014 6.348 23.1082C6.35475 23.1157 6.36225 23.1224 6.369 23.1292C6.37575 23.1367 6.38325 23.1434 6.39 23.1502C6.39675 23.1577 6.40425 23.1644 6.411 23.1712C6.41775 23.1787 6.42525 23.1854 6.432 23.1922C6.43875 23.1997 6.44625 23.2065 6.453 23.2132C6.45975 23.2207 6.46725 23.2275 6.474 23.2342C6.48075 23.2417 6.48825 23.2485 6.495 23.2552C6.50175 23.2627 6.50925 23.2695 6.516 23.2762C6.52275 23.2837 6.53025 23.2905 6.537 23.2972C6.54375 23.3047 6.55125 23.3114 6.558 23.3182C6.56475 23.3257 6.57225 23.3324 6.579 23.3392C6.58575 23.3467 6.59325 23.3534 6.6 23.3602C6.60675 23.3677 6.61425 23.3744 6.621 23.3812C6.62775 23.3887 6.63525 23.3954 6.642 23.4022C6.64875 23.4097 6.65625 23.4164 6.663 23.4232C6.66975 23.4307 6.67725 23.4374 6.684 23.4442C6.69075 23.4517 6.69825 23.4584 6.705 23.4652C6.71175 23.4727 6.71925 23.4794 6.726 23.4862C6.73275 23.4937 6.74025 23.5004 6.747 23.5072C6.75375 23.5147 6.76125 23.5214 6.768 23.5282C6.77475 23.5357 6.78225 23.5424 6.789 23.5492C6.79575 23.5567 6.80325 23.5634 6.81 23.5702C6.81675 23.5777 6.82425 23.5844 6.831 23.5912C6.83775 23.5987 6.84525 23.6054 6.852 23.6122C6.85875 23.6197 6.86625 23.6264 6.873 23.6332C6.87975 23.6407 6.88725 23.6474 6.894 23.6542C6.90075 23.6617 6.90825 23.6684 6.915 23.6752C6.92175 23.6827 6.92925 23.6894 6.936 23.6962C6.94275 23.7037 6.95025 23.7104 6.957 23.7172C6.96375 23.7247 6.97125 23.7315 6.978 23.7382C6.98475 23.7457 6.99225 23.7525 6.999 23.7592C7.00575 23.7667 7.01325 23.7735 7.02 23.7802C7.02675 23.7877 7.03425 23.7945 7.041 23.8012C7.04775 23.8087 7.05525 23.8155 7.062 23.8222C7.06875 23.8297 7.07625 23.8365 7.083 23.8432C7.08975 23.8507 7.09725 23.8575 7.104 23.8642C7.11075 23.8717 7.11825 23.8785 7.125 23.8852C7.13175 23.8927 7.13925 23.8995 7.146 23.9062C7.15275 23.9137 7.16025 23.9204 7.167 23.9272C7.17375 23.9347 7.18125 23.9414 7.188 23.9482C7.19475 23.9557 7.20225 23.9624 7.209 23.9692C7.21575 23.9767 7.22325 23.9834 7.23 23.9902C7.23675 23.9977 7.24425 24.0044 7.251 24.0112C7.25775 24.0187 7.26525 24.0254 7.272 24.0322C7.27875 24.0397 7.28625 24.0464 7.293 24.0532C7.29975 24.0607 7.30725 24.0674 7.314 24.0742C7.31925 24.0794 7.32525 24.0855 7.3305 24.0907C7.33425 24.0945 7.338 24.099 7.3425 24.1027C7.34475 24.105 7.347 24.1072 7.34925 24.1094C7.3515 24.1117 7.35375 24.1139 7.356 24.1162C7.356 24.1162 7.3605 24.1207 7.36275 24.1237C7.3695 24.1312 7.377 24.138 7.38375 24.1447C7.3905 24.1522 7.398 24.159 7.40475 24.1657C7.4115 24.1732 7.419 24.18 7.42575 24.1867C7.4325 24.1942 7.44 24.201 7.44675 24.2077C7.4535 24.2152 7.461 24.2219 7.46775 24.2287C7.4745 24.2362 7.482 24.2429 7.48875 24.2497C7.4955 24.2572 7.503 24.2639 7.50975 24.2707C7.5165 24.2782 7.524 24.2849 7.53075 24.2917C7.5375 24.2992 7.545 24.3059 7.55175 24.3127C7.5585 24.3202 7.566 24.3269 7.57275 24.3337C7.5795 24.3412 7.587 24.3479 7.59375 24.3547C7.6005 24.3622 7.608 24.369 7.61475 24.3757C7.6215 24.3832 7.629 24.39 7.63575 24.3967C7.6425 24.4042 7.65 24.411 7.65675 24.4177C7.6635 24.4252 7.671 24.432 7.67775 24.4387C7.6845 24.4462 7.692 24.453 7.69875 24.4597C7.7055 24.4672 7.713 24.474 7.71975 24.4807C7.7265 24.4882 7.734 24.495 7.74075 24.5017C7.7475 24.5092 7.755 24.516 7.76175 24.5227C7.7685 24.5302 7.776 24.537 7.78275 24.5437C7.7895 24.5512 7.797 24.558 7.80375 24.5647C7.8105 24.5722 7.818 24.579 7.82475 24.5857C7.8315 24.5932 7.839 24.6 7.84575 24.6067C7.8525 24.6142 7.86 24.6209 7.86675 24.6277C7.8735 24.6352 7.881 24.6419 7.88775 24.6487C7.8945 24.6562 7.902 24.6629 7.90875 24.6697C7.9155 24.6772 7.923 24.6839 7.92975 24.6907C7.9365 24.6982 7.944 24.7049 7.95075 24.7117C7.9575 24.7192 7.965 24.7259 7.97175 24.7327C7.9785 24.7402 7.986 24.7469 7.99275 24.7537C7.9995 24.7612 8.007 24.7679 8.01375 24.7747C8.0205 24.7822 8.028 24.7889 8.03475 24.7957C8.0415 24.8032 8.049 24.8099 8.05575 24.8167C8.0625 24.8242 8.07 24.8309 8.07675 24.8377C8.0835 24.8452 8.091 24.8519 8.09775 24.8587C8.1045 24.8662 8.112 24.8729 8.11875 24.8797C8.1255 24.8872 8.133 24.894 8.13975 24.9007C8.1465 24.9082 8.154 24.915 8.16075 24.9217C8.1675 24.9292 8.175 24.936 8.18175 24.9427C8.1885 24.9502 8.196 24.957 8.20275 24.9637C8.2095 24.9712 8.217 24.978 8.22375 24.9847C8.2305 24.9922 8.238 24.999 8.24475 25.0057C8.2515 25.0132 8.259 25.02 8.26575 25.0267C8.2725 25.0342 8.28 25.0409 8.28675 25.0477C8.2935 25.0552 8.301 25.0619 8.30775 25.0687C8.3145 25.0762 8.322 25.0829 8.32875 25.0897C8.3355 25.0972 8.343 25.1039 8.34975 25.1107C8.3565 25.1182 8.364 25.1249 8.37075 25.1317C8.3775 25.1392 8.385 25.1459 8.39175 25.1527C8.3985 25.1602 8.406 25.1669 8.41275 25.1737C8.4195 25.1812 8.427 25.1879 8.43375 25.1947C8.4405 25.2022 8.448 25.2089 8.45475 25.2157C8.4615 25.2232 8.469 25.2299 8.47575 25.2367C8.4825 25.2442 8.49 25.2509 8.49675 25.2577C8.5035 25.2652 8.511 25.2719 8.51775 25.2787C8.5245 25.2862 8.532 25.2929 8.53875 25.2997C8.5455 25.3072 8.553 25.3139 8.55975 25.3207C8.5665 25.3282 8.574 25.3349 8.58075 25.3417C8.5875 25.3492 8.595 25.3559 8.60175 25.3627C8.6085 25.3702 8.616 25.3769 8.62275 25.3837C8.6295 25.3912 8.637 25.3979 8.64375 25.4047C8.6505 25.4122 8.658 25.419 8.66475 25.4257C8.6715 25.4332 8.679 25.4399 8.68575 25.4467C8.6925 25.4542 8.7 25.4609 8.70675 25.4677C8.7135 25.4752 8.721 25.4819 8.72775 25.4887C8.7345 25.4962 8.742 25.5029 8.74875 25.5097C8.7555 25.5172 8.763 25.5239 8.76975 25.5307C8.7765 25.5382 8.784 25.5449 8.79075 25.5517C8.7975 25.5592 8.805 25.5659 8.81175 25.5727C8.8185 25.5802 8.826 25.5869 8.83275 25.5937C8.8395 25.6012 8.847 25.6079 8.85375 25.6147C8.8605 25.6222 8.868 25.6289 8.87475 25.6357C8.8815 25.6432 8.889 25.6499 8.89575 25.6567C8.90025 25.6612 8.9055 25.6665 8.91 25.671C8.9145 25.6755 8.919 25.6807 8.92425 25.6852C8.92875 25.6897 8.93325 25.6949 8.9385 25.6994C8.94525 25.7069 8.95275 25.7137 8.9595 25.7204C8.96625 25.7279 8.97375 25.7347 8.9805 25.7414C8.985 25.7459 8.99025 25.7512 8.99475 25.7557C8.997 25.758 8.99925 25.7602 9.0015 25.7624C9.006 25.7669 9.01125 25.7722 9.01575 25.7767C9.0225 25.7842 9.03 25.791 9.03675 25.7977C9.0435 25.8052 9.051 25.812 9.05775 25.8187C9.0645 25.8262 9.072 25.833 9.07875 25.8397C9.08025 25.8412 9.081 25.8419 9.0825 25.8434C9.084 25.8449 9.08475 25.8457 9.08625 25.8472C9.093 25.8547 9.1005 25.8615 9.10725 25.8682C9.114 25.8757 9.1215 25.8825 9.12825 25.8892C9.135 25.8967 9.1425 25.9034 9.14925 25.9102C9.15375 25.9147 9.159 25.9199 9.1635 25.9244C9.16575 25.9267 9.168 25.9289 9.17025 25.9312C9.17475 25.9357 9.18 25.9409 9.1845 25.9454C9.19125 25.9529 9.19875 25.9597 9.2055 25.9664C9.21225 25.9739 9.21975 25.9807 9.2265 25.9874C9.228 25.9889 9.22875 25.9897 9.23025 25.9912C9.23175 25.9927 9.2325 25.9935 9.234 25.995C9.24075 26.0025 9.24825 26.0092 9.255 26.016C9.26175 26.0235 9.26925 26.0302 9.276 26.037C9.28275 26.0445 9.29025 26.0512 9.297 26.058C9.3015 26.0625 9.30675 26.0677 9.31125 26.0722C9.3135 26.0745 9.31575 26.0767 9.318 26.079C9.3225 26.0835 9.32775 26.0887 9.33225 26.0932C9.339 26.1007 9.3465 26.1074 9.35325 26.1142C9.36 26.1217 9.3675 26.1284 9.37425 26.1352C9.37875 26.1397 9.38325 26.1449 9.3885 26.1494C9.393 26.1539 9.3975 26.1592 9.40275 26.1637C9.4095 26.1712 9.417 26.178 9.42375 26.1847C9.4305 26.1922 9.438 26.199 9.44475 26.2057C9.44925 26.2102 9.4545 26.2155 9.459 26.22C9.46125 26.2222 9.4635 26.2245 9.46575 26.2267C9.47025 26.2312 9.4755 26.2365 9.48 26.241C9.48675 26.2485 9.49425 26.2552 9.501 26.262C9.50775 26.2695 9.51525 26.2762 9.522 26.283C9.52875 26.2905 9.53625 26.2972 9.543 26.304C9.5445 26.3055 9.54525 26.3062 9.54675 26.3077C9.54825 26.3092 9.549 26.31 9.5505 26.3115C9.55725 26.319 9.56475 26.3257 9.5715 26.3325C9.57825 26.34 9.58575 26.3467 9.5925 26.3535C9.59925 26.361 9.60675 26.3677 9.6135 26.3745C9.618 26.379 9.62325 26.3842 9.62775 26.3887C9.63 26.391 9.63225 26.3932 9.6345 26.3955C9.639 26.4 9.64425 26.4052 9.64875 26.4097C9.6555 26.4172 9.663 26.424 9.66975 26.4307C9.6765 26.4382 9.684 26.445 9.69075 26.4517C9.69225 26.4532 9.693 26.4539 9.6945 26.4554C9.696 26.4569 9.69675 26.4577 9.69825 26.4592C9.705 26.4667 9.7125 26.4734 9.71925 26.4802C9.726 26.4877 9.7335 26.4944 9.74025 26.5012C9.747 26.5087 9.7545 26.5154 9.76125 26.5222C9.76575 26.5267 9.771 26.532 9.7755 26.5365C9.77775 26.5387 9.78 26.5409 9.78225 26.5432C9.78675 26.5477 9.792 26.553 9.7965 26.5575C9.80325 26.565 9.81075 26.5717 9.8175 26.5785C9.82425 26.586 9.83175 26.5927 9.8385 26.5995C9.843 26.604 9.8475 26.6092 9.85275 26.6137C9.85725 26.6182 9.86175 26.6235 9.867 26.628C9.87375 26.6355 9.88125 26.6422 9.888 26.649C9.89475 26.6565 9.90225 26.6632 9.909 26.67C9.9135 26.6745 9.91875 26.6797 9.92325 26.6842C9.9255 26.6865 9.92775 26.6887 9.93 26.6909C9.9345 26.6954 9.93975 26.7007 9.94425 26.7052C9.951 26.7127 9.9585 26.7195 9.96525 26.7262C9.972 26.7337 9.9795 26.7405 9.98625 26.7472C9.993 26.7547 10.0005 26.7615 10.0072 26.7682C10.0087 26.7697 10.0095 26.7704 10.011 26.7719C10.0125 26.7734 10.0132 26.7742 10.0147 26.7757C10.0215 26.7832 10.029 26.79 10.0357 26.7967C10.0425 26.8042 10.05 26.811 10.0567 26.8177C10.0635 26.8252 10.071 26.832 10.0777 26.8387C10.0822 26.8432 10.0875 26.8484 10.092 26.8529C10.0942 26.8552 10.0965 26.8575 10.0987 26.8597C10.1032 26.8642 10.1085 26.8694 10.113 26.8739C10.1197 26.8814 10.1272 26.8882 10.134 26.8949C10.1407 26.9024 10.1482 26.9092 10.155 26.9159C10.1595 26.9204 10.164 26.9257 10.1692 26.9302C10.1737 26.9347 10.1782 26.94 10.1835 26.9445C10.1902 26.952 10.1977 26.9587 10.2045 26.9655C10.2112 26.973 10.2187 26.9797 10.2255 26.9865C10.23 26.991 10.2352 26.9962 10.2397 27.0007C10.242 27.003 10.2442 27.0052 10.2465 27.0075C10.251 27.012 10.2562 27.0172 10.2607 27.0217C10.2675 27.0292 10.275 27.036 10.2817 27.0427C10.2885 27.0502 10.296 27.057 10.3027 27.0637C10.3095 27.0712 10.317 27.0779 10.3237 27.0847C10.3252 27.0862 10.326 27.0869 10.3275 27.0884C10.329 27.0899 10.3297 27.0907 10.3312 27.0922C10.338 27.0997 10.3455 27.1065 10.3522 27.1132C10.359 27.1207 10.3665 27.1275 10.3732 27.1342C10.3777 27.1387 10.383 27.1439 10.3875 27.1484C10.3897 27.1507 10.392 27.153 10.3942 27.1552C10.3987 27.1597 10.404 27.165 10.4085 27.1695C10.4152 27.177 10.4227 27.1837 10.4295 27.1905C10.4362 27.198 10.4437 27.2047 10.4505 27.2115C10.4572 27.219 10.4647 27.2257 10.4715 27.2325C10.4782 27.24 10.4857 27.2467 10.4925 27.2535C10.4992 27.261 10.5067 27.2677 10.5135 27.2745C10.5202 27.282 10.5277 27.2887 10.5345 27.2955C10.5412 27.303 10.5487 27.3097 10.5555 27.3164C10.5622 27.324 10.5697 27.3307 10.5765 27.3374C10.5832 27.3449 10.5907 27.3517 10.5975 27.3584C10.6042 27.3659 10.6117 27.3727 10.6185 27.3794C10.6252 27.3869 10.6327 27.3937 10.6395 27.4004C10.6462 27.4079 10.6537 27.4147 10.6605 27.4214C10.6672 27.4289 10.6747 27.4357 10.6815 27.4424C10.6882 27.4499 10.6957 27.4567 10.7025 27.4634C10.7092 27.4709 10.7167 27.4777 10.7235 27.4844C10.7302 27.4919 10.7377 27.4987 10.7445 27.5054C10.7512 27.5129 10.7587 27.5197 10.7655 27.5264C10.7722 27.5339 10.7797 27.5407 10.7865 27.5474C10.7932 27.5549 10.8007 27.5617 10.8075 27.5684C10.8142 27.5759 10.8217 27.5827 10.8285 27.5894C10.8352 27.5969 10.8427 27.6037 10.8495 27.6104C10.8562 27.6179 10.8637 27.6247 10.8705 27.6314C10.8772 27.6389 10.8847 27.6457 10.8915 27.6524C10.8982 27.6599 10.9057 27.6667 10.9125 27.6734C10.9192 27.6809 10.9267 27.6877 10.9335 27.6945C10.9402 27.702 10.9477 27.7087 10.9545 27.7155C10.9612 27.723 10.9687 27.7297 10.9755 27.7364C10.9822 27.7439 10.9897 27.7507 10.9965 27.7574C11.0032 27.7649 11.0107 27.7717 11.0175 27.7784C11.0242 27.7859 11.0317 27.7927 11.0385 27.7994C11.0452 27.8069 11.0527 27.8137 11.0595 27.8204C11.0662 27.8279 11.0737 27.8347 11.0805 27.8414C11.0872 27.8489 11.0947 27.8557 11.1015 27.8624C11.1082 27.8699 11.1157 27.8767 11.1225 27.8834C11.1292 27.8909 11.1367 27.8977 11.1435 27.9044C11.1502 27.9119 11.1577 27.9187 11.1645 27.9254C11.1712 27.9329 11.1787 27.9397 11.1855 27.9464C11.1922 27.9539 11.1997 27.9607 11.2065 27.9674C11.2132 27.9749 11.2207 27.9817 11.2275 27.9884C11.2342 27.9959 11.2417 28.0027 11.2485 28.0094C11.2552 28.0169 11.2627 28.0237 11.2695 28.0304C11.2762 28.0379 11.2837 28.0447 11.2905 28.0514C11.2972 28.0589 11.3047 28.0657 11.3115 28.0724C11.3182 28.0799 11.3257 28.0867 11.3325 28.0934C11.3392 28.1009 11.3467 28.1077 11.3535 28.1144C11.3602 28.1219 11.3677 28.1287 11.3745 28.1354C11.3812 28.1429 11.3887 28.1497 11.3955 28.1564C11.4022 28.1639 11.4097 28.1707 11.4165 28.1774C11.4232 28.1849 11.4307 28.1917 11.4375 28.1984C11.4442 28.2059 11.4517 28.2127 11.4585 28.2195C11.4652 28.227 11.4727 28.2337 11.4795 28.2405C11.4862 28.248 11.4937 28.2547 11.5005 28.2615C11.5072 28.269 11.5147 28.2757 11.5215 28.2825C11.5282 28.29 11.5357 28.2967 11.5425 28.3035C11.5492 28.311 11.5567 28.3177 11.5635 28.3245C11.5702 28.332 11.5777 28.3387 11.5845 28.3455C11.5912 28.353 11.5987 28.3597 11.6055 28.3665C11.6122 28.374 11.6197 28.3807 11.6265 28.3875C11.6332 28.395 11.6407 28.4017 11.6475 28.4085C11.6542 28.416 11.6617 28.4227 11.6685 28.4295C11.6752 28.437 11.6827 28.4437 11.6895 28.4505C11.6962 28.458 11.7037 28.4647 11.7105 28.4715C11.7172 28.479 11.7247 28.4857 11.7315 28.4925C11.7382 28.5 11.7457 28.5067 11.7525 28.5135C11.7592 28.521 11.7667 28.5277 11.7735 28.5345C11.7802 28.542 11.7877 28.5487 11.7945 28.5554C11.8012 28.5629 11.8087 28.5697 11.8155 28.5764C11.8222 28.5839 11.8297 28.5907 11.8365 28.5974C11.8432 28.6049 11.8508 28.6117 11.8575 28.6184C11.8643 28.6259 11.8718 28.6327 11.8785 28.6394C11.8853 28.6469 11.8927 28.6537 11.8995 28.6604C11.9062 28.6679 11.9137 28.6747 11.9205 28.6814C11.9272 28.6889 11.9347 28.6957 11.9415 28.7024C11.9482 28.7099 11.9557 28.7167 11.9625 28.7234C11.9692 28.7309 11.9767 28.7377 11.9835 28.7445C11.9902 28.752 11.9977 28.7587 12.0045 28.7655C12.0097 28.7707 12.0157 28.7767 12.021 28.7819C12.0247 28.7857 12.0285 28.7902 12.033 28.7939C12.0352 28.7962 12.0375 28.7985 12.0397 28.8007C12.042 28.803 12.0442 28.8052 12.0465 28.8075C12.0465 28.8075 12.051 28.8119 12.0532 28.8149C12.06 28.8224 12.0675 28.8292 12.0742 28.8359C12.081 28.8434 12.0885 28.8502 12.0952 28.8569C12.102 28.8644 12.1095 28.8712 12.1162 28.8779C12.123 28.8854 12.1305 28.8922 12.1372 28.8989C12.144 28.9064 12.1515 28.9132 12.1582 28.9199C12.165 28.9274 12.1725 28.9342 12.1792 28.9409C12.186 28.9484 12.1935 28.9552 12.2002 28.9619C12.207 28.9694 12.2145 28.9762 12.2212 28.9829C12.228 28.9904 12.2355 28.9972 12.2422 29.0039C12.249 29.0114 12.2565 29.0182 12.2632 29.0249C12.27 29.0324 12.2775 29.0392 12.2842 29.0459C12.291 29.0534 12.2985 29.0602 12.3052 29.0669C12.312 29.0744 12.3195 29.0812 12.3263 29.0879C12.333 29.0954 12.3405 29.1022 12.3473 29.1089C12.354 29.1164 12.3615 29.1232 12.3682 29.1299C12.375 29.1374 12.3825 29.1442 12.3892 29.1509C12.396 29.1584 12.4035 29.1652 12.4102 29.1719C12.417 29.1794 12.4245 29.1862 12.4312 29.1929C12.438 29.2004 12.4455 29.2072 12.4522 29.2139C12.459 29.2214 12.4665 29.2282 12.4732 29.2349C12.48 29.2424 12.4875 29.2492 12.4942 29.2559C12.501 29.2634 12.5085 29.2702 12.5152 29.2769C12.522 29.2844 12.5295 29.2912 12.5362 29.2979C12.543 29.3054 12.5505 29.3122 12.5572 29.3189C12.564 29.3264 12.5715 29.3332 12.5782 29.3399C12.585 29.3474 12.5925 29.3542 12.5992 29.3609C12.606 29.3684 12.6135 29.3752 12.6202 29.382C12.627 29.3895 12.6345 29.3962 12.6412 29.403C12.648 29.4105 12.6555 29.4172 12.6622 29.424C12.669 29.4315 12.6765 29.4382 12.6832 29.445C12.69 29.4525 12.6975 29.4592 12.7042 29.466C12.711 29.4735 12.7185 29.4802 12.7252 29.487C12.732 29.4945 12.7395 29.5012 12.7462 29.508C12.753 29.5155 12.7605 29.5222 12.7672 29.529C12.774 29.5365 12.7815 29.5432 12.7882 29.55C12.795 29.5575 12.8025 29.5642 12.8092 29.571C12.816 29.5785 12.8235 29.5852 12.8302 29.592C12.837 29.5995 12.8445 29.6062 12.8512 29.613C12.858 29.6205 12.8655 29.6272 12.8722 29.634C12.879 29.6415 12.8865 29.6482 12.8932 29.655C12.9 29.6625 12.9075 29.6692 12.9142 29.6759C12.921 29.6834 12.9285 29.6902 12.9352 29.6969C12.942 29.7044 12.9495 29.7112 12.9562 29.7179C12.963 29.7254 12.9705 29.7322 12.9772 29.7389C12.984 29.7464 12.9915 29.7532 12.9982 29.7599C13.005 29.7674 13.0125 29.7742 13.0192 29.7809C13.026 29.7884 13.0335 29.7952 13.0402 29.8019C13.047 29.8094 13.0545 29.8162 13.0612 29.8229C13.068 29.8304 13.0755 29.8372 13.0822 29.8439C13.089 29.8514 13.0965 29.8582 13.1032 29.8649C13.11 29.8724 13.1175 29.8792 13.1242 29.8859C13.131 29.8934 13.1385 29.9002 13.1452 29.907C13.152 29.9145 13.1595 29.9212 13.1662 29.928C13.173 29.9355 13.1805 29.9422 13.1872 29.949C13.194 29.9565 13.2015 29.9632 13.2082 29.97C13.215 29.9775 13.2225 29.9842 13.2292 29.991C13.236 29.9985 13.2435 30.0052 13.2502 30.012C13.257 30.0195 13.2645 30.0262 13.2712 30.033C13.278 30.0405 13.2855 30.0472 13.2922 30.054C13.299 30.0615 13.3065 30.0682 13.3132 30.0749C13.32 30.0824 13.3275 30.0892 13.3342 30.0959C13.341 30.1034 13.3485 30.1102 13.3552 30.1169C13.362 30.1244 13.3695 30.1312 13.3762 30.1379C13.383 30.1454 13.3905 30.1522 13.3972 30.1589C13.404 30.1664 13.4115 30.1732 13.4182 30.1799C13.425 30.1874 13.4325 30.1942 13.4392 30.2009C13.446 30.2084 13.4535 30.2152 13.4602 30.2219C13.467 30.2294 13.4745 30.2362 13.4812 30.2429C13.488 30.2504 13.4955 30.2572 13.5022 30.2639C13.509 30.2714 13.5165 30.2782 13.5232 30.2849C13.53 30.2924 13.5375 30.2992 13.5442 30.3059C13.551 30.3134 13.5585 30.3202 13.5652 30.3269C13.572 30.3344 13.5795 30.3412 13.5862 30.3479C13.593 30.3554 13.6005 30.3622 13.6072 30.3689C13.614 30.3764 13.6215 30.3832 13.6282 30.3899C13.635 30.3974 13.6425 30.4042 13.6492 30.4109C13.656 30.4184 13.6635 30.4252 13.6702 30.432C13.677 30.4395 13.6845 30.4462 13.6912 30.453C13.698 30.4605 13.7055 30.4672 13.7122 30.474C13.719 30.4815 13.7265 30.4882 13.7332 30.4949C13.74 30.5024 13.7475 30.5092 13.7542 30.5159C13.761 30.5234 13.7685 30.5302 13.7752 30.5369C13.782 30.5444 13.7895 30.5512 13.7962 30.5579C13.803 30.5654 13.8105 30.5722 13.8172 30.5789C13.824 30.5864 13.8315 30.5932 13.8382 30.5999C13.845 30.6074 13.8525 30.6142 13.8592 30.6209C13.866 30.6284 13.8735 30.6352 13.8802 30.6419C13.887 30.6494 13.8945 30.6562 13.9012 30.6629C13.908 30.6704 13.9155 30.6772 13.9222 30.6839C13.929 30.6914 13.9365 30.6982 13.9432 30.7049C13.95 30.7124 13.9575 30.7192 13.9642 30.7259C13.971 30.7334 13.9785 30.7402 13.9852 30.7469C13.992 30.7544 13.9995 30.7612 14.0062 30.7679C14.013 30.7754 14.0205 30.7822 14.0272 30.7889C14.034 30.7964 14.0415 30.8032 14.0482 30.8099C14.055 30.8174 14.0625 30.8242 14.0692 30.8309C14.076 30.8384 14.0835 30.8452 14.0902 30.8519C14.097 30.8594 14.1045 30.8662 14.1112 30.8729C14.118 30.8804 14.1255 30.8872 14.1322 30.8939C14.139 30.9014 14.1465 30.9082 14.1532 30.9149C14.16 30.9224 14.1675 30.9292 14.1742 30.9359C14.181 30.9434 14.1885 30.9502 14.1952 30.957C14.202 30.9645 14.2095 30.9712 14.2162 30.978C14.223 30.9855 14.2305 30.9922 14.2372 30.999C14.244 31.0065 14.2515 31.0132 14.2582 31.02C14.265 31.0275 14.2725 31.0342 14.2792 31.041C14.286 31.0485 14.2935 31.0552 14.3002 31.062C14.307 31.0695 14.3145 31.0762 14.3212 31.083C14.328 31.0905 14.3355 31.0972 14.3422 31.104C14.349 31.1115 14.3565 31.1182 14.3632 31.125C14.37 31.1325 14.3775 31.1392 14.3842 31.146C14.391 31.1535 14.3985 31.1602 14.4052 31.167C14.412 31.1745 14.4195 31.1812 14.4262 31.188C14.433 31.1955 14.4405 31.2022 14.4472 31.209C14.454 31.2165 14.4615 31.2232 14.4682 31.23C14.475 31.2375 14.4825 31.2442 14.4892 31.251C14.496 31.2585 14.5035 31.2652 14.5102 31.272C14.517 31.2795 14.5245 31.2862 14.5312 31.293C14.538 31.3005 14.5455 31.3072 14.5522 31.3139C14.559 31.3214 14.5665 31.3282 14.5732 31.3349C14.58 31.3424 14.5875 31.3492 14.5942 31.3559C14.601 31.3634 14.6085 31.3702 14.6152 31.3769C14.622 31.3844 14.6295 31.3912 14.6362 31.3979C14.643 31.4054 14.6505 31.4122 14.6572 31.4189C14.664 31.4264 14.6715 31.4332 14.6782 31.4399C14.685 31.4474 14.6925 31.4542 14.6992 31.4609C14.706 31.4684 14.7135 31.4752 14.7202 31.482C14.727 31.4895 14.7345 31.4962 14.7412 31.503C14.748 31.5105 14.7555 31.5172 14.7622 31.524C14.769 31.5315 14.7765 31.5382 14.7832 31.545C14.79 31.5525 14.7975 31.5592 14.8042 31.566C14.811 31.5735 14.8185 31.5802 14.8252 31.587C14.832 31.5945 14.8395 31.6012 14.8462 31.608C14.853 31.6155 14.8605 31.6222 14.8672 31.629C14.874 31.6365 14.8815 31.6432 14.8882 31.65C14.895 31.6575 14.9025 31.6642 14.9092 31.671C14.916 31.6785 14.9235 31.6852 14.9302 31.692C14.937 31.6995 14.9445 31.7062 14.9512 31.7129C14.958 31.7204 14.9655 31.7272 14.9722 31.7339C14.979 31.7414 14.9865 31.7482 14.9932 31.7549C15 31.7624 15.0075 31.7692 15.0142 31.7759C15.021 31.7834 15.0285 31.7902 15.0352 31.7969C15.042 31.8044 15.0495 31.8112 15.0562 31.8179C15.063 31.8254 15.0705 31.8322 15.0772 31.8389C15.084 31.8464 15.0915 31.8532 15.0982 31.8599C15.105 31.8674 15.1125 31.8742 15.1192 31.8809C15.408 32.1749 15.8092 32.3579 16.254 32.3579H18.0945C18.4845 32.3579 18.8385 32.1389 19.0237 31.7954C19.2247 31.4227 19.6185 31.1692 20.0707 31.1692C20.2275 31.1692 20.3767 31.1999 20.514 31.2554C20.5155 31.2569 20.5178 31.2592 20.5193 31.2607C20.526 31.2682 20.5335 31.2749 20.5403 31.2817C20.547 31.2892 20.5545 31.2959 20.5612 31.3027C20.568 31.3102 20.5755 31.3169 20.5822 31.3237C20.589 31.3312 20.5965 31.3379 20.6032 31.3447C20.61 31.3522 20.6175 31.3589 20.6242 31.3657C20.631 31.3732 20.6385 31.3799 20.6452 31.3867C20.652 31.3942 20.6595 31.4009 20.6662 31.4077C20.673 31.4152 20.6805 31.4219 20.6872 31.4287C20.694 31.4362 20.7015 31.4429 20.7082 31.4497C20.715 31.4572 20.7225 31.4639 20.7292 31.4707C20.736 31.4782 20.7435 31.4849 20.7502 31.4917C20.757 31.4992 20.7645 31.5059 20.7712 31.5127C20.778 31.5202 20.7855 31.5269 20.7922 31.5337C20.799 31.5412 20.8065 31.5479 20.8132 31.5547C20.82 31.5622 20.8275 31.569 20.8342 31.5757C20.841 31.5832 20.8485 31.59 20.8552 31.5967C20.862 31.6042 20.8695 31.611 20.8762 31.6177C20.883 31.6252 20.8905 31.632 20.8972 31.6387C20.904 31.6462 20.9115 31.653 20.9182 31.6597C20.925 31.6672 20.9325 31.674 20.9392 31.6807C20.946 31.6882 20.9535 31.695 20.9602 31.7017C20.967 31.7092 20.9745 31.716 20.9812 31.7227C20.988 31.7302 20.9955 31.737 21.0022 31.7437C21.009 31.7512 21.0165 31.758 21.0232 31.7647C21.03 31.7722 21.0375 31.779 21.0442 31.7857C21.051 31.7932 21.0585 31.8 21.0652 31.8067C21.072 31.8142 21.0795 31.821 21.0862 31.8277C21.093 31.8352 21.1005 31.842 21.1072 31.8487C21.114 31.8562 21.1215 31.863 21.1282 31.8697C21.135 31.8772 21.1425 31.8839 21.1492 31.8907C21.156 31.8982 21.1635 31.9049 21.1702 31.9117C21.177 31.9192 21.1845 31.9259 21.1912 31.9327C21.198 31.9402 21.2055 31.9469 21.2122 31.9537C21.219 31.9612 21.2265 31.9679 21.2332 31.9747C21.24 31.9822 21.2475 31.9889 21.2542 31.9957C21.261 32.0032 21.2685 32.0099 21.2752 32.0167C21.471 32.2244 21.744 32.349 22.038 32.349H35.5642C36.4425 32.349 37.155 31.6372 37.155 30.7582V21.3097C37.155 20.865 36.972 20.4637 36.678 20.175L36.8077 20.1734Z" fill="#008EBC"/>
</g>
<path fill-rule="evenodd" clip-rule="evenodd" d="M11.122 8.67529H24.6483C25.5273 8.67529 26.239 9.38779 26.239 10.266V19.7145C26.239 20.0234 26.1511 20.3117 25.9988 20.5556V21.0001H25.5854C25.3226 21.192 24.9986 21.3053 24.6483 21.3053H11.122C10.7313 21.3053 10.378 21.0863 10.1928 20.7428C9.99253 20.37 9.59803 20.1165 9.14578 20.1165C8.69353 20.1165 8.29978 20.37 8.09878 20.7428C7.91353 21.0863 7.55953 21.3053 7.16953 21.3053H5.32903C4.45003 21.3053 3.73828 20.5928 3.73828 19.7145V10.266C3.73828 9.38704 4.45078 8.67529 5.32903 8.67529H7.16953C7.56028 8.67529 7.91353 8.89429 8.09878 9.23779C8.29903 9.61054 8.69353 9.86404 9.14578 9.86404C9.59803 9.86404 9.99178 9.61054 10.1928 9.23779C10.378 8.89429 10.732 8.67529 11.122 8.67529ZM15.9988 12.198V14.6362C15.5707 14.3965 15.2823 13.941 15.2823 13.413C15.2823 12.8912 15.5707 12.4373 15.9988 12.198ZM9.14578 19.0665C9.37828 19.0665 9.56653 18.8783 9.56653 18.6458V17.8448C9.56653 17.6123 9.37828 17.424 9.14578 17.424C8.91328 17.424 8.72503 17.6123 8.72503 17.8448V18.6458C8.72503 18.8783 8.91328 19.0665 9.14578 19.0665ZM9.14578 16.362C9.37828 16.362 9.56653 16.1738 9.56653 15.9413V14.0385C9.56653 13.806 9.37828 13.6178 9.14578 13.6178C8.91328 13.6178 8.72503 13.806 8.72503 14.0385V15.9413C8.72503 16.1738 8.91328 16.362 9.14578 16.362ZM9.14578 12.5565C9.37828 12.5565 9.56653 12.3683 9.56653 12.1358V11.3348C9.56653 11.1023 9.37828 10.914 9.14578 10.914C8.91328 10.914 8.72503 11.1023 8.72503 11.3348V12.1358C8.72503 12.3683 8.91328 12.5565 9.14578 12.5565Z" fill="#4BD3FF"/>
</g>
<defs>
<clipPath id="clip0_1731_213">
<rect width="30" height="30" fill="white"/>
</clipPath>
</defs>
</svg>
