<svg width="38" height="50" viewBox="0 0 38 50" fill="none" xmlns="http://www.w3.org/2000/svg">
<g opacity="0.8">
<path d="M9.19922 16.3902H15.1917C15.8557 16.3902 16.3902 16.9247 16.3902 17.5887V23.5812H9.20462V16.3956L9.19922 16.3902Z" fill="white"/>
<path d="M9.19922 28.3697H15.1917C15.8557 28.3697 16.3902 28.9042 16.3902 29.5682V35.5607H9.20462V28.3751L9.19922 28.3697Z" fill="white"/>
<path d="M12.5734 32.2891C12.2603 32.2891 11.9688 32.165 11.7474 31.9436L10.9592 31.1608C10.7973 30.9719 10.8027 30.6857 10.9754 30.5022C11.0726 30.3996 11.1968 30.3456 11.3371 30.3456C11.4613 30.3456 11.5855 30.3942 11.6772 30.4806L12.568 31.3714L14.7814 29.1471C14.8732 29.0554 14.9974 29.0014 15.127 29.0014H15.1648C15.2781 29.0014 15.3915 29.05 15.4725 29.1363L15.4887 29.1525L15.5103 29.1687C15.6776 29.3631 15.6722 29.66 15.4887 29.8436L13.3994 31.949C13.1781 32.1704 12.8865 32.2891 12.5734 32.2891V32.2891Z" fill="#2A2A2A"/>
<path d="M9.30188 36.1869C8.4543 36.1869 7.76868 35.4959 7.76868 34.6537V29.4171C7.76868 28.5695 8.4597 27.8839 9.30188 27.8839H11.6665C12.0336 27.8839 12.3305 28.1808 12.3305 28.5479C12.3305 28.9096 12.0336 29.2065 11.6719 29.2119H9.09674V34.8697H14.7491V32.8236C14.7599 32.4889 15.0406 32.2082 15.3915 32.1974H15.4131C15.7748 32.1974 16.0664 32.4781 16.0772 32.8398V34.6645C16.0772 35.5121 15.3861 36.1977 14.5439 36.1977H9.30728L9.30188 36.1869Z" fill="#2A2A2A"/>
<path d="M12.5734 20.6119C12.2603 20.6119 11.9688 20.4878 11.7474 20.2718L10.97 19.4944C10.7811 19.3055 10.7811 18.9923 10.9754 18.8034L10.9862 18.7926C11.078 18.7062 11.1968 18.6576 11.3263 18.6576C11.4559 18.6576 11.5801 18.7116 11.6772 18.8034L12.5788 19.705L14.7922 17.4753C14.884 17.3836 15.0082 17.3296 15.1378 17.3296H15.1702C15.2889 17.3296 15.4023 17.3782 15.4833 17.4645C15.683 17.6643 15.683 17.9774 15.4887 18.1718L13.394 20.2772C13.1781 20.4932 12.8865 20.6119 12.5734 20.6119V20.6119Z" fill="#2A2A2A"/>
<path d="M9.30188 24.5151C8.4597 24.5151 7.76868 23.8241 7.76868 22.9819V17.7453C7.76868 16.8977 8.4597 16.2121 9.30188 16.2121H11.6665C12.0336 16.2121 12.3305 16.509 12.3305 16.8761C12.3305 17.2378 12.0336 17.5347 11.6719 17.5347H9.09134V23.1871H14.7437V21.141C14.7545 20.8063 15.0352 20.5255 15.3861 20.5148H15.4077C15.7694 20.5148 16.061 20.7955 16.0718 21.1572V22.9819C16.0718 23.8241 15.3807 24.5151 14.5385 24.5151H9.30188V24.5151Z" fill="#2A2A2A"/>
<path d="M3.56309 49.4729C1.59799 49.4729 0 47.8749 0 45.9098V5.05851C0 3.09341 1.59799 1.49542 3.56309 1.49542H9.25323L9.40979 1.20929C9.81469 0.464281 10.5867 0 11.4343 0H26.0699C26.9499 0 27.7381 0.491274 28.1322 1.27947L28.2564 1.52241L28.5263 1.49542C28.5533 1.49542 28.5803 1.49542 28.6073 1.49542H33.9411C34.8913 1.49542 35.7874 1.86792 36.4623 2.53735C37.1371 3.21218 37.5042 4.10295 37.5042 5.05311V45.9098C37.5042 47.8749 35.9062 49.4729 33.9411 49.4729H3.56309V49.4729ZM3.56309 2.82348C2.3376 2.82348 1.33346 3.82762 1.33346 5.05311V45.9098C1.33346 47.1353 2.3322 48.1395 3.56309 48.1395H33.9411C35.172 48.1395 36.1707 47.1353 36.1707 45.9098V5.05851C36.1707 3.82762 35.1666 2.82888 33.9411 2.82888H28.3751V4.39448H33.4552C34.0869 4.39448 34.5997 4.90734 34.5997 5.53898V38.3896C34.5943 38.5407 34.5242 38.7027 34.4054 38.8215L27.0093 46.2176L26.9985 46.2284C26.9013 46.3417 26.761 46.4065 26.6098 46.4065C26.599 46.4065 26.545 46.4065 26.545 46.4065H4.04356C3.41193 46.4065 2.89906 45.8937 2.89906 45.262V5.53898C2.89906 4.90734 3.41733 4.39448 4.04896 4.39448H9.12906V2.82888H3.56309V2.82348ZM4.22712 45.0785H25.8864V41.2454C25.8864 39.2803 27.4844 37.6824 29.4495 37.6824H33.2825V5.71714H29.768L29.822 6.32718C29.8274 6.37577 29.8274 6.43515 29.8274 6.49994V8.51362C29.8274 9.67432 28.8772 10.6245 27.7165 10.6245H9.78769C8.62699 10.6245 7.67683 9.67432 7.67683 8.51362V6.49994C7.67683 6.43515 7.67683 6.37037 7.68763 6.30019L7.74162 5.71714H4.22712V45.0785V45.0785ZM29.4441 39.0104C28.2132 39.0104 27.2144 40.0146 27.2144 41.24V44.1337L32.3377 39.0104H29.4441ZM9.0049 8.51362C9.0049 8.94551 9.3558 9.29642 9.78769 9.29642H27.7111C28.143 9.29642 28.4939 8.94551 28.4939 8.51362V5.90609L27.5923 6.70508C27.1712 7.07759 26.6314 7.28274 26.0645 7.28814H11.4289C10.8674 7.28814 10.3276 7.08299 9.90646 6.71048L9.0049 5.91689V8.51902V8.51362ZM11.4343 1.32806C10.8944 1.32806 10.4517 1.77075 10.4517 2.31061V4.97753C10.4517 5.51739 10.8944 5.96007 11.4343 5.96007H26.0699C26.3345 5.96007 26.5774 5.8575 26.761 5.67395C26.9445 5.49039 27.0471 5.24206 27.0471 4.98292V2.31601C27.0471 1.77614 26.6098 1.33346 26.0699 1.33346H11.4289L11.4343 1.32806Z" fill="#2A2A2A"/>
<path d="M18.717 17.5347C18.3499 17.5347 18.053 17.2378 18.053 16.8707C18.053 16.5036 18.3499 16.2067 18.717 16.2067H29.077C29.4441 16.2067 29.741 16.5036 29.741 16.8707C29.741 17.2378 29.4441 17.5347 29.077 17.5347H18.717V17.5347Z" fill="#2A2A2A"/>
<path d="M18.717 20.4338C18.3499 20.4338 18.053 20.1368 18.053 19.7697C18.053 19.4026 18.3499 19.1057 18.717 19.1057H29.077C29.4441 19.1057 29.741 19.4026 29.741 19.7697C29.741 20.1368 29.4441 20.4338 29.077 20.4338H18.717V20.4338Z" fill="#2A2A2A"/>
<path d="M18.6576 32.111C18.2905 32.1002 18.0044 31.7925 18.0152 31.4254C18.026 31.0637 18.3175 30.7829 18.6792 30.7829H29.1309C29.3091 30.7883 29.4711 30.8639 29.5952 30.9935C29.714 31.123 29.7788 31.2904 29.7734 31.4685C29.7626 31.8303 29.4711 32.111 29.1093 32.111H18.6576V32.111Z" fill="#2A2A2A"/>
<path d="M18.6576 29.2065C18.2905 29.1957 18.0044 28.888 18.0152 28.5209C18.026 28.1592 18.3175 27.8785 18.6792 27.8785H29.1309C29.3091 27.8839 29.4711 27.9594 29.5952 28.089C29.7194 28.2186 29.7788 28.3859 29.7734 28.5641C29.7626 28.9258 29.4711 29.2065 29.1093 29.2065H18.6576V29.2065Z" fill="#2A2A2A"/>
</g>
</svg>
