<svg width="49" height="48" viewBox="0 0 49 48" fill="none" xmlns="http://www.w3.org/2000/svg">
<g opacity="0.8">
<g opacity="0.7">
<path d="M34.3934 34.9075L38.0914 38.4814L33.6214 43.1026C33.1301 43.6154 32.3149 43.6262 31.802 43.135L29.9503 41.348C29.4374 40.8567 29.4266 40.0416 29.9179 39.5287L34.388 34.9075H34.3934Z" fill="white"/>
</g>
<path d="M32.6982 43.108C32.466 43.108 32.2447 43.0162 32.0773 42.8596L30.2256 41.0727C30.0529 40.9053 29.9557 40.684 29.9557 40.4464C29.9557 40.2089 30.0421 39.9822 30.204 39.8094L34.3987 35.4689L37.5299 38.4975L33.3352 42.838C33.1679 43.0162 32.9357 43.108 32.6928 43.108H32.6982Z" fill="white"/>
<path d="M12.2753 47.9775C12.1403 47.9775 12.0053 47.9397 11.892 47.8642C11.7192 47.7562 11.6058 47.5942 11.5573 47.4053L10.5045 42.6329L10.4343 42.2928L8.98211 41.9419C8.669 41.8663 8.44765 41.6018 8.42606 41.2778L8.08055 35.7497L7.30854 36.1869C5.72135 37.1533 4.42568 38.5191 3.5565 40.1495C3.53491 40.1873 3.52411 40.2197 3.51331 40.2521C2.82229 41.6287 2.45519 43.1674 2.44979 44.706V47.2271C2.44979 47.632 2.12047 47.9559 1.72097 47.9559C1.52662 47.9559 1.34307 47.8803 1.20811 47.74C1.07314 47.605 0.997559 47.4215 0.997559 47.2271V44.706C0.997559 43.3563 1.2351 42.0336 1.70478 40.765L1.71557 40.7434L1.74797 40.6084C2.30942 39.1994 3.13541 37.9307 4.19354 36.8456L4.20974 36.8294L4.22053 36.8132C4.22053 36.8132 4.25832 36.7592 4.27992 36.7322C4.31771 36.6944 4.3555 36.662 4.39329 36.6296L4.51746 36.5217C4.56065 36.4839 4.59844 36.4407 4.62543 36.4083L4.64702 36.3867L4.69021 36.3597L4.71181 36.3381C5.61878 35.5013 6.65531 34.8265 7.78362 34.3244L8.00497 34.2326L8.08055 33.9951C8.19932 33.6496 8.44765 33.3689 8.78237 33.2069L12.2159 31.5225C12.394 31.4254 12.583 31.3768 12.7719 31.3768C12.7935 31.3768 12.8151 31.3768 12.8367 31.3768L13.4198 31.3984V29.2011L13.22 29.0338C11.6814 27.7543 10.5747 26.0645 10.0133 24.148L9.91608 23.7971L9.55437 23.7539C8.76617 23.6459 8.04815 23.2518 7.52989 22.6472C6.36918 21.2868 6.53114 19.2353 7.89159 18.0692L8.15073 17.8478L7.1088 13.6207C6.67151 11.8554 6.6823 9.99284 7.13579 8.22749V8.2113L7.16278 8.07094C8.18312 4.37288 11.1092 1.42524 14.8018 0.372505C15.6602 0.129567 16.551 0.00539862 17.4418 0H19.7254C22.808 0 25.5991 1.9435 26.668 4.83176L26.7814 5.13409L27.0999 5.18267C27.1971 5.19887 27.2996 5.22046 27.4076 5.24746C29.9827 5.8791 31.5591 8.48663 30.9275 11.0618L29.2485 17.8424L29.5077 18.0638C30.1393 18.5982 30.5334 19.3487 30.6252 20.1746C30.8249 21.9508 29.5347 23.5596 27.7585 23.7593L27.3914 23.7971L27.2888 24.1534C26.7274 26.0537 25.6261 27.7273 24.0982 28.996L23.8985 29.1633V31.4523L24.5193 31.3768C24.5733 31.3714 24.6327 31.366 24.6867 31.366C24.8756 31.366 25.0538 31.4038 25.2266 31.4739L25.7286 31.6845L25.95 31.1878C27.8287 26.8257 32.1098 24.0131 36.8498 24.0131C38.2102 24.0131 39.5599 24.2506 40.8502 24.7095L40.8987 24.7257L41.0391 24.7365C41.0769 24.7527 41.2874 24.8444 41.2874 24.8444C41.3576 24.8768 41.4278 24.9038 41.498 24.9362L41.552 24.9578C41.6815 25.0118 41.8003 25.0604 41.9245 25.1144C42.3456 25.3033 42.7559 25.5247 43.15 25.7622C43.1608 25.773 43.1878 25.7838 43.2094 25.7946L43.2471 25.8162C44.3701 26.4964 45.3526 27.3386 46.1894 28.3319L46.1624 28.3589L46.3729 28.6343C50.3517 33.763 49.5527 41.0241 44.5644 45.1702C42.4212 46.9518 39.7057 47.9343 36.9254 47.9343C33.3515 47.9343 29.9935 46.3579 27.7153 43.6154L26.9919 42.7355L25.9716 47.3837C25.896 47.7184 25.6045 47.9505 25.2589 47.9559C25.2104 47.9559 25.1564 47.9505 25.1078 47.9397C24.7191 47.8534 24.4708 47.4647 24.5517 47.076L25.7772 41.5154C25.7988 41.429 25.8366 41.3426 25.8852 41.267L26.0579 41.0133L25.9338 40.7326C25.6045 39.9714 25.3507 39.1724 25.1888 38.3518L24.989 37.353L24.217 37.3854L23.0617 47.2973C23.0185 47.659 22.7216 47.9343 22.3599 47.9397H22.2357C22.0522 47.9073 21.8848 47.8102 21.7714 47.6644C21.6527 47.5132 21.5987 47.3243 21.6203 47.1299L22.7486 37.4934L21.8902 37.8227C20.8915 38.206 19.8441 38.4004 18.7752 38.4004C17.7063 38.4004 16.659 38.206 15.6602 37.8227L14.8072 37.488L15.9355 47.1299C15.9787 47.5294 15.698 47.8911 15.2985 47.9343C15.2715 47.9343 15.2445 47.9343 15.2175 47.9343C14.8504 47.9343 14.5373 47.659 14.4941 47.2919L12.7989 32.8344L9.47879 34.4648L9.86209 40.63L11.2279 40.9593C11.4979 41.0241 11.703 41.24 11.7678 41.5154L12.9879 47.0706C13.0743 47.4593 12.8259 47.848 12.4318 47.9343C12.3832 47.9451 12.3347 47.9505 12.2807 47.9505L12.2753 47.9775ZM36.866 25.4761C34.0587 25.4815 31.4188 26.5828 29.4375 28.5749C27.4562 30.567 26.3711 33.2123 26.3765 36.0196C26.3927 41.8069 31.1111 46.5091 36.893 46.5091H36.92C39.5869 46.5091 42.1242 45.5104 44.0785 43.6964C46.1354 41.7853 47.3285 39.1832 47.4311 36.3759C47.5337 33.5794 46.5457 30.9125 44.6508 28.8556L44.6022 28.78L44.5752 28.753C43.949 28.0998 43.2417 27.5276 42.4643 27.0525L42.4212 27.0255C42.0541 26.8041 41.6708 26.599 41.2767 26.4208C41.1795 26.3777 41.0877 26.3399 40.9905 26.3021C39.6841 25.7514 38.3074 25.4707 36.893 25.4707H36.866V25.4761ZM14.8774 32.3593C14.8774 32.6454 14.7532 32.9046 14.5373 33.0827L14.2998 33.2825L14.5697 35.6093L14.7802 35.7497C15.9625 36.5486 17.3392 36.9697 18.7644 36.9697C20.1896 36.9697 21.5663 36.5486 22.7432 35.755L22.9537 35.6147L23.2129 33.3473L22.9052 33.1637C22.6244 32.9964 22.4517 32.694 22.4517 32.3647V30.1351L21.6797 30.4698C21.4799 30.5562 21.3072 30.621 21.1452 30.6804C20.33 30.9827 19.4878 31.1338 18.624 31.1338C17.7603 31.1338 16.9451 30.9881 16.1461 30.6965C15.9895 30.6372 15.8222 30.5724 15.6494 30.4968L14.8828 30.1729V32.3647L14.8774 32.3593ZM13.5763 10.7055C12.2105 10.7055 11.0984 11.8176 11.0984 13.1834V21.4379C11.1038 24.9578 13.3334 28.1268 16.6428 29.3199C17.2852 29.552 17.9492 29.6654 18.6294 29.6654C19.3097 29.6654 19.9575 29.552 20.5891 29.3307C23.9471 28.1538 26.2145 24.974 26.2361 21.4163V13.1834C26.2361 11.85 25.5127 10.6191 24.3412 9.97665L22.6082 9.02109L21.3935 10.2358C21.0966 10.5327 20.6863 10.7055 20.2706 10.7055H13.5817H13.5763ZM27.548 22.8254L28.6871 21.7942V21.7834C28.6871 21.7834 28.7249 21.7456 28.7411 21.7294C29.4051 20.9952 29.3457 19.8615 28.6169 19.2029L27.6937 18.3553V21.4163L27.548 22.8308V22.8254ZM8.68519 19.3163C8.05895 19.9965 8.05895 21.06 8.68519 21.7402L9.64614 22.7876V18.2635L8.68519 19.3163ZM27.1539 7.50948C27.1485 8.08713 26.9811 8.65399 26.668 9.14526L26.3279 9.69592L26.5762 10.0036C27.2942 10.9052 27.6883 12.0335 27.6883 13.1888V14.9002L28.4603 14.992L29.5131 10.7217C29.7614 9.72831 29.5293 8.65938 28.8976 7.85499C28.6439 7.53107 28.3362 7.26114 27.9853 7.0452L27.1485 6.54313V7.51488L27.1539 7.50948ZM13.1175 2.65072C9.37621 4.74539 7.4921 9.10207 8.52863 13.2644L8.87414 14.668L9.64614 14.5763V12.9945C9.75412 10.9052 11.4763 9.24783 13.5763 9.24783H20.33L21.8578 7.72002C22.036 7.54727 22.2681 7.45009 22.5165 7.45009C22.673 7.45009 22.8242 7.48788 22.9645 7.56346L25.1996 8.79435L25.4695 8.32467C25.6207 8.06554 25.6962 7.77401 25.6962 7.47169C25.6962 4.15694 22.9969 1.46303 19.6876 1.45763H17.4471C16.6859 1.45763 15.9301 1.5602 15.2013 1.77075C14.5103 1.9705 13.8355 2.24582 13.2038 2.59134L13.166 2.61293L13.1121 2.66152L13.1175 2.65072Z" fill="#2A2A2A"/>
<path d="M33.292 43.3617C32.2717 43.3617 31.3215 42.9622 30.6089 42.2334C29.1675 40.7542 29.1945 38.3788 30.6737 36.9373L37.843 29.7734C38.5503 29.0662 39.4896 28.6775 40.4938 28.6775C41.4979 28.6775 42.4373 29.0662 43.1445 29.7734C44.6021 31.2364 44.5967 33.6118 43.1445 35.0694C43.1445 35.0694 35.9373 42.282 35.9157 42.3036C35.2139 42.9892 34.2854 43.3671 33.3028 43.3671L33.292 43.3617ZM31.7048 37.9577C31.2729 38.3896 31.03 38.9672 31.03 39.5827C31.03 40.1981 31.2675 40.7704 31.7048 41.2077C32.1421 41.6449 32.7144 41.8771 33.3298 41.8771C33.9452 41.8771 34.5175 41.6395 34.9548 41.2077L38.0212 38.1412L34.7766 34.8967L31.7102 37.9631L31.7048 37.9577ZM40.456 30.1567C39.8621 30.1567 39.3007 30.3834 38.8742 30.7883L35.8024 33.8601L39.0469 37.1047L42.1188 34.0383C42.9717 33.1421 42.9717 31.7547 42.1242 30.8693C41.6869 30.4104 41.0984 30.1567 40.4614 30.1567H40.456Z" fill="#2A2A2A"/>
</g>
</svg>
