<svg width="55" height="52" viewBox="0 0 55 52" fill="none" xmlns="http://www.w3.org/2000/svg">
<path d="M44.5723 16.4056L23.2963 6.13747L18.7831 8.32391L40.0482 18.5867L44.5723 16.4056Z" fill="white"/>
<path d="M40.7339 27.5916L44.9448 25.5563V17.6581L40.7339 19.688V27.5916Z" fill="white"/>
<path d="M12.9256 25.7723C12.7204 25.5131 12.769 25.1406 13.0281 24.9355C13.2873 24.7303 13.6652 24.7789 13.8649 25.038L14.1349 25.3836C13.6166 22.8354 11.5219 20.9081 8.909 20.622C8.68765 20.595 8.46091 20.5788 8.22877 20.5788C8.02362 20.5788 7.82387 20.5896 7.62413 20.6112C4.5793 20.9189 2.19312 23.494 2.19312 26.6144C2.19312 29.7348 4.5793 32.3154 7.62413 32.6177C7.82387 32.6393 8.02362 32.6501 8.22877 32.6501C8.45551 32.6501 8.68226 32.6339 8.909 32.6069C10.6042 32.4126 12.159 31.5056 13.1577 30.0911C13.2333 29.9832 13.3413 29.9184 13.46 29.8806C13.8973 29.1842 14.1942 28.4014 14.3238 27.5538L12.9256 25.7723V25.7723ZM11.0846 30.1451C10.9713 30.2585 10.8201 30.3179 10.6635 30.3179C10.507 30.3179 10.3558 30.2531 10.2425 30.1451L7.55934 27.462V23.9205C7.55934 23.5912 7.82927 23.3213 8.15859 23.3213C8.4879 23.3213 8.75784 23.5912 8.75784 23.9205V26.9653L11.09 29.3029C11.2034 29.4163 11.2628 29.5675 11.2628 29.724C11.2628 29.8806 11.198 30.0318 11.09 30.1451H11.0846Z" fill="white"/>
<g opacity="0.8">
<path d="M54.1224 12.0652L31.3348 1.06278C31.1621 0.976397 30.9515 0.981796 30.7788 1.06278L7.98581 12.0652C7.76447 12.1731 7.61871 12.3999 7.6241 12.6482V19.4073C3.92065 19.715 1 22.8246 1 26.6036C1 30.3827 3.92065 33.4923 7.6241 33.8V39.3606C7.6241 39.6089 7.76987 39.8357 7.98581 39.9436L30.768 50.9352C30.8544 50.9784 30.9515 51 31.0487 51C31.1459 51 31.2431 50.9784 31.3294 50.9352L54.117 39.9382C54.3437 39.8303 54.4841 39.6035 54.4841 39.3552V12.6482C54.4841 12.3999 54.3491 12.1785 54.1224 12.0706V12.0652ZM39.7459 29.1572C39.9348 29.2706 40.1778 29.2868 40.3721 29.1896L45.8679 26.5335C46.0893 26.4255 46.235 26.1987 46.235 25.9504V17.0211L53.1992 13.6632V38.9557L31.6965 49.3318V24.0501L39.4436 20.2981V28.6173C39.4436 28.8387 39.5569 29.0438 39.7459 29.1626V29.1572ZM44.9448 25.5563L40.7338 27.5862V19.688L44.9448 17.6581V25.5563V25.5563ZM31.0541 2.36384L52.3571 12.6482L46.0515 15.693L24.7485 5.40866L31.0541 2.36384ZM23.2963 6.13748L44.5723 16.411L40.0482 18.5921L18.783 8.32392L23.2963 6.13748V6.13748ZM30.4117 49.3372L8.91438 38.9557V33.7946C10.9982 33.5949 12.9148 32.5043 14.1402 30.7768C14.232 30.6472 14.2698 30.4906 14.2428 30.3287C14.2158 30.1667 14.1294 30.0318 13.9999 29.94C13.7299 29.751 13.3574 29.8158 13.1685 30.0857C12.1697 31.5002 10.6149 32.4072 8.91977 32.6015C8.69303 32.6285 8.46629 32.6447 8.23955 32.6447C8.0344 32.6447 7.83465 32.6339 7.6349 32.6123C4.59008 32.3046 2.20389 29.7294 2.20389 26.609C2.20389 23.4886 4.59008 20.9081 7.6349 20.6058C7.83465 20.5842 8.0344 20.5734 8.23955 20.5734C8.47169 20.5734 8.69843 20.5896 8.91977 20.6166C11.5273 20.9081 13.622 22.8354 14.1456 25.3782L13.8757 25.0326C13.6706 24.7735 13.2981 24.7303 13.0389 24.9301C12.7798 25.1352 12.7366 25.5077 12.9363 25.7669L14.4102 27.6456C14.5235 27.7913 14.7179 27.8669 14.9122 27.8723C15.1066 27.8615 15.2847 27.7589 15.3873 27.5916L16.5966 25.6481C16.7694 25.3674 16.683 25.0002 16.4023 24.8275C16.1215 24.6547 15.7544 24.7411 15.5817 25.0218L15.3603 25.3782C14.8151 22.1714 12.1805 19.715 8.92517 19.4073V13.6632L30.4225 24.0339V49.3318L30.4117 49.3372ZM31.0595 22.9326L9.74576 12.6482L17.2606 9.02034L38.5528 19.2993L31.0595 22.9326V22.9326Z" fill="#2A2A2A" stroke="#2A2A2A" stroke-width="0.15" stroke-miterlimit="10"/>
<path d="M8.74708 26.9653V23.9205C8.74708 23.5912 8.47715 23.3213 8.14783 23.3213C7.81852 23.3213 7.54858 23.5912 7.54858 23.9205V27.462L10.2317 30.1451C10.3451 30.2585 10.4962 30.3179 10.6528 30.3179C10.8093 30.3179 10.9605 30.2531 11.0739 30.1451C11.1873 30.0318 11.2466 29.8806 11.2466 29.724C11.2466 29.5675 11.1819 29.4163 11.0739 29.303L8.74168 26.9707L8.74708 26.9653Z" fill="#2A2A2A" stroke="#2A2A2A" stroke-width="0.15" stroke-miterlimit="10"/>
</g>
</svg>
