<svg width="24" height="24" viewBox="0 0 24 24" fill="none" xmlns="http://www.w3.org/2000/svg">
<path d="M10.2278 0.651851C10.7237 0.230881 11.3514 0 12 0C12.6486 0 13.2763 0.230881 13.7722 0.651851L22.0222 7.66233C22.6431 8.18796 23 8.96225 23 9.77963V21.8458C23 22.4171 22.7747 22.965 22.3735 23.369C21.9724 23.773 21.4284 24 20.8611 24H17.1944C16.6272 24 16.0831 23.773 15.682 23.369C15.2809 22.965 15.0556 22.4171 15.0556 21.8458V15.6908C15.0556 15.446 14.959 15.2111 14.7871 15.038C14.6152 14.8649 14.382 14.7676 14.1389 14.7676H9.86111C9.618 14.7676 9.38484 14.8649 9.21293 15.038C9.04102 15.2111 8.94444 15.446 8.94444 15.6908V21.8458C8.94444 22.4171 8.7191 22.965 8.31798 23.369C7.91686 23.773 7.37282 24 6.80556 24H3.13889C2.85801 24 2.57987 23.9443 2.32037 23.836C2.06087 23.7278 1.82508 23.5691 1.62647 23.369C1.42785 23.169 1.2703 22.9315 1.16281 22.6702C1.05532 22.4088 1 22.1287 1 21.8458V9.7784C1 8.96225 1.35689 8.18796 1.97778 7.6611L10.2278 0.651851V0.651851Z" fill="#C9C9C9"/>
</svg>
