<svg width="24" height="24" viewBox="0 0 24 24" fill="none" xmlns="http://www.w3.org/2000/svg">
<path d="M4.61538 23.077H19.3846C18.1538 23.077 15.6923 22.3385 15.6923 19.3847V16.9231H0.923077V19.3847C0.923077 22.3385 3.38462 23.077 4.61538 23.077Z" fill="#00A9E0"/>
<path fill-rule="evenodd" clip-rule="evenodd" d="M5.84615 1.84615C5.43813 1.84615 5.04681 2.00824 4.7583 2.29676C4.46978 2.58528 4.30769 2.97659 4.30769 3.38462V13.2308C4.30769 13.7406 3.89442 14.1538 3.38462 14.1538C2.87481 14.1538 2.46154 13.7406 2.46154 13.2308V3.38462C2.46154 2.48696 2.81813 1.62607 3.45287 0.991331C4.08761 0.356592 4.9485 0 5.84615 0H20.6154C21.513 0 22.3739 0.356592 23.0087 0.991331C23.6434 1.62607 24 2.48696 24 3.38462V19.3846C24 20.1477 23.7787 21.2718 23.0876 22.2317C22.3626 23.2386 21.1624 24 19.3846 24H4.61538C3.85229 24 2.72819 23.7787 1.76833 23.0876C0.761415 22.3626 0 21.1624 0 19.3846V16.9231C0 16.4133 0.413276 16 0.923077 16H15.6923C16.2021 16 16.6154 16.4133 16.6154 16.9231V19.3846C16.6154 20.5607 17.0847 21.2066 17.6163 21.5894C18.1949 22.006 18.9169 22.1538 19.3846 22.1538C20.5607 22.1538 21.2066 21.6845 21.5894 21.1529C22.006 20.5743 22.1538 19.8523 22.1538 19.3846V3.38462C22.1538 2.97659 21.9918 2.58528 21.7032 2.29676C21.4147 2.00824 21.0234 1.84615 20.6154 1.84615H5.84615ZM15.5974 22.1538C15.0929 21.4574 14.7692 20.5438 14.7692 19.3846V17.8462H1.84615V19.3846C1.84615 20.5607 2.31551 21.2066 2.84705 21.5894C3.42566 22.006 4.14771 22.1538 4.61538 22.1538H15.5974ZM7.38462 5.84615C7.38462 5.33635 7.79789 4.92308 8.30769 4.92308H18.1538C18.6636 4.92308 19.0769 5.33635 19.0769 5.84615C19.0769 6.35596 18.6636 6.76923 18.1538 6.76923H8.30769C7.79789 6.76923 7.38462 6.35596 7.38462 5.84615ZM7.38462 10.7692C7.38462 10.2594 7.79789 9.84615 8.30769 9.84615H13.2308C13.7406 9.84615 14.1538 10.2594 14.1538 10.7692C14.1538 11.279 13.7406 11.6923 13.2308 11.6923H8.30769C7.79789 11.6923 7.38462 11.279 7.38462 10.7692Z" fill="#00A9E0"/>
</svg>
