<svg width="24" height="24" viewBox="0 0 24 24" fill="none" xmlns="http://www.w3.org/2000/svg">
<path d="M7.11111 14.4C6.76481 14.4 6.47433 14.2848 6.23967 14.0544C6.00581 13.8248 5.88889 13.54 5.88889 13.2C5.88889 12.86 6.00581 12.5748 6.23967 12.3444C6.47433 12.1148 6.76481 12 7.11111 12C7.45741 12 7.74789 12.1148 7.98256 12.3444C8.21641 12.5748 8.33333 12.86 8.33333 13.2C8.33333 13.54 8.21641 13.8248 7.98256 14.0544C7.74789 14.2848 7.45741 14.4 7.11111 14.4ZM12 14.4C11.6537 14.4 11.3636 14.2848 11.1298 14.0544C10.8951 13.8248 10.7778 13.54 10.7778 13.2C10.7778 12.86 10.8951 12.5748 11.1298 12.3444C11.3636 12.1148 11.6537 12 12 12C12.3463 12 12.6368 12.1148 12.8714 12.3444C13.1053 12.5748 13.2222 12.86 13.2222 13.2C13.2222 13.54 13.1053 13.8248 12.8714 14.0544C12.6368 14.2848 12.3463 14.4 12 14.4ZM16.8889 14.4C16.5426 14.4 16.2525 14.2848 16.0187 14.0544C15.784 13.8248 15.6667 13.54 15.6667 13.2C15.6667 12.86 15.784 12.5748 16.0187 12.3444C16.2525 12.1148 16.5426 12 16.8889 12C17.2352 12 17.5253 12.1148 17.7591 12.3444C17.9938 12.5748 18.1111 12.86 18.1111 13.2C18.1111 13.54 17.9938 13.8248 17.7591 14.0544C17.5253 14.2848 17.2352 14.4 16.8889 14.4ZM3.44444 24C2.77222 24 2.19656 23.7652 1.71744 23.2956C1.23915 22.8252 1 22.26 1 21.6V4.8C1 4.14 1.23915 3.5752 1.71744 3.1056C2.19656 2.6352 2.77222 2.4 3.44444 2.4H4.66667V1.17C4.66667 0.83 4.78359 0.55 5.01744 0.33C5.25211 0.11 5.54259 0 5.88889 0C6.23519 0 6.52567 0.1148 6.76033 0.3444C6.99418 0.5748 7.11111 0.86 7.11111 1.2V2.4H16.8889V1.17C16.8889 0.83 17.0062 0.55 17.2409 0.33C17.4747 0.11 17.7648 0 18.1111 0C18.4574 0 18.7475 0.1148 18.9813 0.3444C19.216 0.5748 19.3333 0.86 19.3333 1.2V2.4H20.5556C21.2278 2.4 21.8034 2.6352 22.2826 3.1056C22.7609 3.5752 23 4.14 23 4.8V21.6C23 22.26 22.7609 22.8252 22.2826 23.2956C21.8034 23.7652 21.2278 24 20.5556 24H3.44444ZM3.44444 21.6H20.5556V9.6H3.44444V21.6Z" fill="#00A9E0"/>
</svg>
