<svg width="24" height="24" viewBox="0 0 24 24" fill="none" xmlns="http://www.w3.org/2000/svg">
<path d="M8.16667 0C7.76884 0 7.38731 0.158035 7.10601 0.43934C6.8247 0.720645 6.66667 1.10218 6.66667 1.5V6.66667H1.5C1.10218 6.66667 0.720645 6.8247 0.43934 7.10601C0.158035 7.38731 0 7.76884 0 8.16667V15.8333C0 16.2312 0.158035 16.6127 0.43934 16.894C0.720645 17.1753 1.10218 17.3333 1.5 17.3333H6.66667V22.5C6.66667 22.8978 6.8247 23.2794 7.10601 23.5607C7.38731 23.842 7.76884 24 8.16667 24H15.8333C16.2312 24 16.6127 23.842 16.894 23.5607C17.1753 23.2794 17.3333 22.8978 17.3333 22.5V17.3333H22.5C22.8978 17.3333 23.2794 17.1753 23.5607 16.894C23.842 16.6127 24 16.2312 24 15.8333V8.16667C24 7.76884 23.842 7.38731 23.5607 7.10601C23.2794 6.8247 22.8978 6.66667 22.5 6.66667H17.3333V1.5C17.3333 1.10218 17.1753 0.720645 16.894 0.43934C16.6127 0.158035 16.2312 0 15.8333 0H8.16667Z" fill="#00A9E0"/>
</svg>
