<svg xmlns="http://www.w3.org/2000/svg" xmlns:xlink="http://www.w3.org/1999/xlink" viewBox="0 0 416.09 226.1"><defs><style>.cls-1,.cls-2,.cls-3,.cls-4{fill:none;}.cls-11,.cls-2,.cls-5,.cls-6{stroke:#211816;}.cls-11,.cls-2,.cls-5,.cls-6,.cls-7{stroke-miterlimit:10;}.cls-11,.cls-2{stroke-width:0.25px;}.cls-3,.cls-4{stroke:#93e8ff;stroke-linecap:round;stroke-linejoin:round;}.cls-3,.cls-4,.cls-5,.cls-7{stroke-width:3px;}.cls-4{stroke-dasharray:3.77 11.32;}.cls-5,.cls-6{fill:#fff;}.cls-6{stroke-width:2.5px;}.cls-7{fill:#93e8ff;stroke:#2a2a2a;}.cls-8{clip-path:url(#clip-path);}.cls-11,.cls-9{fill:#211816;}.cls-10{clip-path:url(#clip-path-2);}.cls-12{fill:#44bfe8;}</style><clipPath id="clip-path"><path class="cls-1" d="M388.2,133.88l-12.15,0a14.16,14.16,0,0,0-14.12,14.21h0a14.16,14.16,0,0,0,14.21,14.12l12.15,0Z"/></clipPath><clipPath id="clip-path-2"><path class="cls-2" d="M52.47,147.9H71.66A7.12,7.12,0,0,1,78.78,155v27.46a0,0,0,0,1,0,0H58A5.48,5.48,0,0,1,52.47,177V147.9A0,0,0,0,1,52.47,147.9Z" transform="translate(-0.54 0.21) rotate(-0.19)"/></clipPath></defs><g id="Layer_2" data-name="Layer 2"><g id="레이어_3" data-name="레이어 3"><line class="cls-3" x1="1.5" y1="61.89" x2="70.75" y2="61.89"/><line class="cls-3" x1="13.44" y1="26.07" x2="43.27" y2="26.07"/><line class="cls-3" x1="55.39" y1="1.5" x2="57.39" y2="1.5"/><line class="cls-4" x1="68.71" y1="1.5" x2="108.33" y2="1.5"/><line class="cls-3" x1="113.99" y1="1.5" x2="115.99" y2="1.5"/><line class="cls-3" x1="5.04" y1="26.07" x2="24.63" y2="26.07"/><line class="cls-3" x1="34.87" y1="1.5" x2="54.46" y2="1.5"/><line class="cls-3" x1="33.09" y1="94.9" x2="89.97" y2="94.9"/><line class="cls-3" x1="13.62" y1="129.49" x2="70.5" y2="129.49"/><path class="cls-5" d="M57.16,127.11H256.37a0,0,0,0,1,0,0v55.12a0,0,0,0,1,0,0H57.16a5.69,5.69,0,0,1-5.69-5.69V132.8a5.69,5.69,0,0,1,5.69-5.69Z" transform="translate(-0.5 0.5) rotate(-0.19)"/><path class="cls-6" d="M251.41,11.06h12.74a2.15,2.15,0,0,1,2.15,2.15V181.9a0,0,0,0,1,0,0h-17a0,0,0,0,1,0,0V13.21a2.15,2.15,0,0,1,2.15-2.15Z" transform="translate(-0.31 0.84) rotate(-0.19)"/><path class="cls-5" d="M381,181.49l-114.45.38-.53-163,56.29-.19a15.13,15.13,0,0,1,11.92,5.76l50.6,64.18a15.18,15.18,0,0,1,3.25,9.31l.24,76.19A7.33,7.33,0,0,1,381,181.49Z"/><path class="cls-7" d="M289.28,106.47l-.2-58.56a6.17,6.17,0,0,1,6.14-6.18l18.26,0a10.46,10.46,0,0,1,8.27,4l41.16,52.2a10.46,10.46,0,0,1,2.25,6.47l0,4.52a3.53,3.53,0,0,1-3.51,3.54l-66.22.21A6.15,6.15,0,0,1,289.28,106.47Z"/><path class="cls-5" d="M388.2,133.88l-12.15,0a14.16,14.16,0,0,0-14.12,14.21h0a14.16,14.16,0,0,0,14.21,14.12l12.15,0Z"/><path class="cls-6" d="M52.47,147.9H71.66A7.12,7.12,0,0,1,78.78,155v27.46a0,0,0,0,1,0,0H58A5.48,5.48,0,0,1,52.47,177V147.9A0,0,0,0,1,52.47,147.9Z" transform="translate(-0.54 0.21) rotate(-0.19)"/><circle class="cls-5" cx="143.95" cy="189.48" r="35.11"/><circle class="cls-7" cx="143.95" cy="189.48" r="12.5"/><circle class="cls-5" cx="319.99" cy="188.91" r="35.11"/><circle class="cls-7" cx="319.99" cy="188.91" r="12.5"/><g class="cls-8"><rect class="cls-1" x="334.49" y="100.23" width="81.6" height="81.6"/><path class="cls-9" d="M338.93,103a1.68,1.68,0,1,0,1.68,1.67A1.67,1.67,0,0,0,338.93,103Z"/><path class="cls-9" d="M338.93,111.08a1.68,1.68,0,1,0,1.68,1.67A1.67,1.67,0,0,0,338.93,111.08Z"/><path class="cls-9" d="M338.93,119.16a1.68,1.68,0,1,0,1.68,1.67A1.67,1.67,0,0,0,338.93,119.16Z"/><path class="cls-9" d="M338.93,127.24a1.68,1.68,0,1,0,1.68,1.67A1.67,1.67,0,0,0,338.93,127.24Z"/><path class="cls-9" d="M338.93,135.32a1.67,1.67,0,1,0,1.68,1.67A1.67,1.67,0,0,0,338.93,135.32Z"/><path class="cls-9" d="M338.93,143.39a1.68,1.68,0,1,0,1.68,1.68A1.68,1.68,0,0,0,338.93,143.39Z"/><path class="cls-9" d="M338.93,151.47a1.68,1.68,0,1,0,1.68,1.68A1.68,1.68,0,0,0,338.93,151.47Z"/><path class="cls-9" d="M338.93,159.55a1.68,1.68,0,1,0,1.68,1.68A1.68,1.68,0,0,0,338.93,159.55Z"/><path class="cls-9" d="M338.93,167.63a1.68,1.68,0,1,0,1.68,1.68A1.68,1.68,0,0,0,338.93,167.63Z"/><path class="cls-9" d="M338.93,175.71a1.68,1.68,0,1,0,1.68,1.68A1.68,1.68,0,0,0,338.93,175.71Z"/><path class="cls-9" d="M347,111.08a1.68,1.68,0,1,0,1.68,1.67A1.67,1.67,0,0,0,347,111.08Z"/><path class="cls-9" d="M347,119.16a1.68,1.68,0,1,0,1.68,1.67A1.67,1.67,0,0,0,347,119.16Z"/><path class="cls-9" d="M347,127.24a1.68,1.68,0,0,0,0,3.35,1.68,1.68,0,1,0,0-3.35Z"/><path class="cls-9" d="M347,135.32a1.67,1.67,0,1,0,1.68,1.67A1.67,1.67,0,0,0,347,135.32Z"/><path class="cls-9" d="M347,143.39a1.68,1.68,0,1,0,1.68,1.68A1.68,1.68,0,0,0,347,143.39Z"/><path class="cls-9" d="M347,151.47a1.68,1.68,0,1,0,1.68,1.68A1.68,1.68,0,0,0,347,151.47Z"/><path class="cls-9" d="M347,159.55a1.68,1.68,0,1,0,1.68,1.68A1.68,1.68,0,0,0,347,159.55Z"/><path class="cls-9" d="M347,167.63a1.68,1.68,0,1,0,1.68,1.68A1.68,1.68,0,0,0,347,167.63Z"/><path class="cls-9" d="M347,175.71a1.68,1.68,0,1,0,1.68,1.68A1.68,1.68,0,0,0,347,175.71Z"/><path class="cls-9" d="M355.09,111.08a1.68,1.68,0,1,0,1.68,1.67A1.67,1.67,0,0,0,355.09,111.08Z"/><path class="cls-9" d="M355.09,119.16a1.68,1.68,0,1,0,1.68,1.67A1.67,1.67,0,0,0,355.09,119.16Z"/><path class="cls-9" d="M355.09,127.24a1.68,1.68,0,0,0,0,3.35,1.68,1.68,0,1,0,0-3.35Z"/><path class="cls-9" d="M355.09,135.32a1.67,1.67,0,1,0,1.68,1.67A1.67,1.67,0,0,0,355.09,135.32Z"/><path class="cls-9" d="M355.09,143.39a1.68,1.68,0,1,0,1.68,1.68A1.68,1.68,0,0,0,355.09,143.39Z"/><path class="cls-9" d="M355.09,151.47a1.68,1.68,0,1,0,1.68,1.68A1.68,1.68,0,0,0,355.09,151.47Z"/><path class="cls-9" d="M355.09,159.55a1.68,1.68,0,1,0,1.68,1.68A1.68,1.68,0,0,0,355.09,159.55Z"/><path class="cls-9" d="M355.09,167.63a1.68,1.68,0,1,0,1.68,1.68A1.68,1.68,0,0,0,355.09,167.63Z"/><path class="cls-9" d="M355.09,175.71a1.68,1.68,0,1,0,1.68,1.68A1.68,1.68,0,0,0,355.09,175.71Z"/><path class="cls-9" d="M363.17,111.08a1.68,1.68,0,1,0,1.67,1.67A1.67,1.67,0,0,0,363.17,111.08Z"/><path class="cls-9" d="M363.17,119.16a1.68,1.68,0,1,0,1.67,1.67A1.67,1.67,0,0,0,363.17,119.16Z"/><path class="cls-9" d="M363.17,127.24a1.68,1.68,0,1,0,1.67,1.67A1.67,1.67,0,0,0,363.17,127.24Z"/><path class="cls-9" d="M363.17,135.32a1.67,1.67,0,1,0,1.67,1.67A1.67,1.67,0,0,0,363.17,135.32Z"/><path class="cls-9" d="M363.17,143.39a1.68,1.68,0,1,0,1.67,1.68A1.68,1.68,0,0,0,363.17,143.39Z"/><path class="cls-9" d="M363.17,151.47a1.68,1.68,0,1,0,1.67,1.68A1.68,1.68,0,0,0,363.17,151.47Z"/><path class="cls-9" d="M363.17,159.55a1.68,1.68,0,1,0,1.67,1.68A1.68,1.68,0,0,0,363.17,159.55Z"/><path class="cls-9" d="M363.17,167.63a1.68,1.68,0,1,0,1.67,1.68A1.68,1.68,0,0,0,363.17,167.63Z"/><path class="cls-9" d="M363.17,175.71a1.68,1.68,0,1,0,1.67,1.68A1.68,1.68,0,0,0,363.17,175.71Z"/><path class="cls-9" d="M371.25,111.08a1.68,1.68,0,1,0,1.67,1.67A1.68,1.68,0,0,0,371.25,111.08Z"/><path class="cls-9" d="M371.25,119.16a1.68,1.68,0,1,0,1.67,1.67A1.68,1.68,0,0,0,371.25,119.16Z"/><path class="cls-9" d="M371.25,127.24a1.68,1.68,0,1,0,1.67,1.67A1.68,1.68,0,0,0,371.25,127.24Z"/><path class="cls-9" d="M371.25,135.32a1.67,1.67,0,1,0,1.67,1.67A1.68,1.68,0,0,0,371.25,135.32Z"/><path class="cls-9" d="M371.25,143.39a1.68,1.68,0,1,0,0,3.35,1.68,1.68,0,0,0,0-3.35Z"/><path class="cls-9" d="M371.25,151.47a1.68,1.68,0,1,0,0,3.35,1.68,1.68,0,0,0,0-3.35Z"/><path class="cls-9" d="M371.25,159.55a1.68,1.68,0,1,0,1.67,1.68A1.68,1.68,0,0,0,371.25,159.55Z"/><path class="cls-9" d="M371.25,167.63a1.68,1.68,0,1,0,1.67,1.68A1.68,1.68,0,0,0,371.25,167.63Z"/><path class="cls-9" d="M371.25,175.71a1.68,1.68,0,1,0,1.67,1.68A1.68,1.68,0,0,0,371.25,175.71Z"/><path class="cls-9" d="M379.33,111.08a1.68,1.68,0,1,0,1.67,1.67A1.68,1.68,0,0,0,379.33,111.08Z"/><path class="cls-9" d="M379.33,119.16a1.68,1.68,0,1,0,1.67,1.67A1.68,1.68,0,0,0,379.33,119.16Z"/><path class="cls-9" d="M379.33,127.24a1.68,1.68,0,1,0,1.67,1.67A1.68,1.68,0,0,0,379.33,127.24Z"/><path class="cls-9" d="M379.33,135.32A1.67,1.67,0,1,0,381,137,1.68,1.68,0,0,0,379.33,135.32Z"/><path class="cls-9" d="M379.33,143.39a1.68,1.68,0,1,0,1.67,1.68A1.68,1.68,0,0,0,379.33,143.39Z"/><path class="cls-9" d="M379.33,151.47a1.68,1.68,0,1,0,1.67,1.68A1.68,1.68,0,0,0,379.33,151.47Z"/><path class="cls-9" d="M379.33,159.55a1.68,1.68,0,1,0,1.67,1.68A1.68,1.68,0,0,0,379.33,159.55Z"/><path class="cls-9" d="M379.33,167.63a1.68,1.68,0,1,0,1.67,1.68A1.68,1.68,0,0,0,379.33,167.63Z"/><path class="cls-9" d="M379.33,175.71a1.68,1.68,0,1,0,1.67,1.68A1.68,1.68,0,0,0,379.33,175.71Z"/><path class="cls-9" d="M387.41,111.08a1.68,1.68,0,1,0,1.67,1.67A1.68,1.68,0,0,0,387.41,111.08Z"/><path class="cls-9" d="M387.41,119.16a1.68,1.68,0,1,0,1.67,1.67A1.68,1.68,0,0,0,387.41,119.16Z"/><path class="cls-9" d="M387.41,127.24a1.68,1.68,0,1,0,1.67,1.67A1.68,1.68,0,0,0,387.41,127.24Z"/><path class="cls-9" d="M387.41,135.32a1.67,1.67,0,1,0,1.67,1.67A1.68,1.68,0,0,0,387.41,135.32Z"/><path class="cls-9" d="M387.41,143.39a1.68,1.68,0,1,0,1.67,1.68A1.68,1.68,0,0,0,387.41,143.39Z"/><path class="cls-9" d="M387.41,151.47a1.68,1.68,0,1,0,1.67,1.68A1.68,1.68,0,0,0,387.41,151.47Z"/><path class="cls-9" d="M387.41,159.55a1.68,1.68,0,1,0,1.67,1.68A1.68,1.68,0,0,0,387.41,159.55Z"/><path class="cls-9" d="M387.41,167.63a1.68,1.68,0,1,0,1.67,1.68A1.68,1.68,0,0,0,387.41,167.63Z"/><path class="cls-9" d="M387.41,175.71a1.68,1.68,0,1,0,1.67,1.68A1.68,1.68,0,0,0,387.41,175.71Z"/><path class="cls-9" d="M395.49,111.08a1.68,1.68,0,1,0,1.67,1.67A1.68,1.68,0,0,0,395.49,111.08Z"/><path class="cls-9" d="M395.49,119.16a1.68,1.68,0,1,0,1.67,1.67A1.68,1.68,0,0,0,395.49,119.16Z"/><path class="cls-9" d="M395.49,127.24a1.68,1.68,0,1,0,1.67,1.67A1.68,1.68,0,0,0,395.49,127.24Z"/><path class="cls-9" d="M395.49,135.32a1.67,1.67,0,1,0,1.67,1.67A1.68,1.68,0,0,0,395.49,135.32Z"/><path class="cls-9" d="M395.49,143.39a1.68,1.68,0,1,0,1.67,1.68A1.68,1.68,0,0,0,395.49,143.39Z"/><path class="cls-9" d="M395.49,151.47a1.68,1.68,0,1,0,1.67,1.68A1.68,1.68,0,0,0,395.49,151.47Z"/><path class="cls-9" d="M395.49,159.55a1.68,1.68,0,1,0,1.67,1.68A1.68,1.68,0,0,0,395.49,159.55Z"/><path class="cls-9" d="M395.49,167.63a1.68,1.68,0,1,0,1.67,1.68A1.68,1.68,0,0,0,395.49,167.63Z"/><path class="cls-9" d="M395.49,175.71a1.68,1.68,0,1,0,1.67,1.68A1.68,1.68,0,0,0,395.49,175.71Z"/><circle class="cls-9" cx="403.56" cy="112.75" r="1.67"/><circle class="cls-9" cx="403.56" cy="120.83" r="1.67"/><circle class="cls-9" cx="403.56" cy="128.91" r="1.67"/><path class="cls-9" d="M403.56,135.32a1.67,1.67,0,1,0,1.68,1.67A1.67,1.67,0,0,0,403.56,135.32Z"/><path class="cls-9" d="M403.56,143.39a1.68,1.68,0,1,0,1.68,1.68A1.68,1.68,0,0,0,403.56,143.39Z"/><path class="cls-9" d="M403.56,151.47a1.68,1.68,0,1,0,1.68,1.68A1.68,1.68,0,0,0,403.56,151.47Z"/><path class="cls-9" d="M403.56,159.55a1.68,1.68,0,1,0,1.68,1.68A1.68,1.68,0,0,0,403.56,159.55Z"/><path class="cls-9" d="M403.56,167.63a1.68,1.68,0,1,0,1.68,1.68A1.68,1.68,0,0,0,403.56,167.63Z"/><path class="cls-9" d="M403.56,175.71a1.68,1.68,0,1,0,1.68,1.68A1.68,1.68,0,0,0,403.56,175.71Z"/><circle class="cls-9" cx="411.64" cy="112.75" r="1.67"/><circle class="cls-9" cx="411.64" cy="120.83" r="1.67"/><circle class="cls-9" cx="411.64" cy="128.91" r="1.67"/><path class="cls-9" d="M411.64,135.32a1.67,1.67,0,1,0,1.68,1.67A1.67,1.67,0,0,0,411.64,135.32Z"/><path class="cls-9" d="M411.64,143.39a1.68,1.68,0,1,0,1.68,1.68A1.68,1.68,0,0,0,411.64,143.39Z"/><path class="cls-9" d="M411.64,151.47a1.68,1.68,0,1,0,1.68,1.68A1.68,1.68,0,0,0,411.64,151.47Z"/><path class="cls-9" d="M411.64,159.55a1.68,1.68,0,1,0,1.68,1.68A1.68,1.68,0,0,0,411.64,159.55Z"/><path class="cls-9" d="M411.64,167.63a1.68,1.68,0,1,0,1.68,1.68A1.68,1.68,0,0,0,411.64,167.63Z"/><path class="cls-9" d="M411.64,175.71a1.68,1.68,0,1,0,1.68,1.68A1.68,1.68,0,0,0,411.64,175.71Z"/><path class="cls-9" d="M347,103a1.68,1.68,0,1,0,1.68,1.67A1.67,1.67,0,0,0,347,103Z"/><path class="cls-9" d="M355.09,103a1.68,1.68,0,1,0,1.68,1.67A1.67,1.67,0,0,0,355.09,103Z"/><path class="cls-9" d="M363.17,103a1.68,1.68,0,1,0,1.67,1.67A1.67,1.67,0,0,0,363.17,103Z"/><path class="cls-9" d="M371.25,103a1.68,1.68,0,1,0,1.67,1.67A1.68,1.68,0,0,0,371.25,103Z"/><path class="cls-9" d="M379.33,103a1.68,1.68,0,1,0,1.67,1.67A1.68,1.68,0,0,0,379.33,103Z"/><path class="cls-9" d="M387.41,103a1.68,1.68,0,1,0,1.67,1.67A1.68,1.68,0,0,0,387.41,103Z"/><path class="cls-9" d="M395.49,103a1.68,1.68,0,1,0,1.67,1.67A1.68,1.68,0,0,0,395.49,103Z"/><circle class="cls-9" cx="403.56" cy="104.67" r="1.67"/><circle class="cls-9" cx="411.64" cy="104.67" r="1.67"/></g><g class="cls-10"><rect class="cls-2" x="19.76" y="130.47" width="81.6" height="81.6"/><path class="cls-11" d="M25.31,134.34A1.68,1.68,0,1,0,27,136,1.68,1.68,0,0,0,25.31,134.34Z"/><path class="cls-11" d="M25.31,142.42A1.68,1.68,0,1,0,27,144.09,1.68,1.68,0,0,0,25.31,142.42Z"/><path class="cls-11" d="M25.31,150.5A1.67,1.67,0,1,0,27,152.17,1.68,1.68,0,0,0,25.31,150.5Z"/><path class="cls-11" d="M25.31,158.57a1.68,1.68,0,1,0,0,3.35,1.68,1.68,0,0,0,0-3.35Z"/><path class="cls-11" d="M25.31,166.65a1.68,1.68,0,1,0,0,3.35,1.68,1.68,0,0,0,0-3.35Z"/><path class="cls-11" d="M25.31,174.73A1.68,1.68,0,1,0,27,176.41,1.68,1.68,0,0,0,25.31,174.73Z"/><path class="cls-11" d="M25.31,182.81A1.68,1.68,0,1,0,27,184.49,1.68,1.68,0,0,0,25.31,182.81Z"/><path class="cls-11" d="M25.31,190.89A1.68,1.68,0,1,0,27,192.57,1.68,1.68,0,0,0,25.31,190.89Z"/><path class="cls-11" d="M25.31,199A1.68,1.68,0,1,0,27,200.64,1.68,1.68,0,0,0,25.31,199Z"/><path class="cls-11" d="M25.31,207.05A1.68,1.68,0,1,0,27,208.72,1.68,1.68,0,0,0,25.31,207.05Z"/><path class="cls-11" d="M33.39,142.42a1.68,1.68,0,1,0,1.67,1.67A1.68,1.68,0,0,0,33.39,142.42Z"/><path class="cls-11" d="M33.39,150.5a1.67,1.67,0,1,0,1.67,1.67A1.68,1.68,0,0,0,33.39,150.5Z"/><path class="cls-11" d="M33.39,158.57a1.68,1.68,0,1,0,1.67,1.68A1.68,1.68,0,0,0,33.39,158.57Z"/><path class="cls-11" d="M33.39,166.65a1.68,1.68,0,1,0,1.67,1.68A1.68,1.68,0,0,0,33.39,166.65Z"/><path class="cls-11" d="M33.39,174.73a1.68,1.68,0,1,0,1.67,1.68A1.68,1.68,0,0,0,33.39,174.73Z"/><path class="cls-11" d="M33.39,182.81a1.68,1.68,0,1,0,1.67,1.68A1.68,1.68,0,0,0,33.39,182.81Z"/><path class="cls-11" d="M33.39,190.89a1.68,1.68,0,1,0,1.67,1.68A1.68,1.68,0,0,0,33.39,190.89Z"/><path class="cls-11" d="M33.39,199a1.68,1.68,0,1,0,1.67,1.67A1.68,1.68,0,0,0,33.39,199Z"/><path class="cls-11" d="M33.39,207.05a1.68,1.68,0,1,0,1.67,1.67A1.68,1.68,0,0,0,33.39,207.05Z"/><path class="cls-11" d="M41.47,142.42a1.68,1.68,0,1,0,1.67,1.67A1.68,1.68,0,0,0,41.47,142.42Z"/><path class="cls-11" d="M41.47,150.5a1.67,1.67,0,1,0,1.67,1.67A1.68,1.68,0,0,0,41.47,150.5Z"/><path class="cls-11" d="M41.47,158.57a1.68,1.68,0,1,0,1.67,1.68A1.68,1.68,0,0,0,41.47,158.57Z"/><path class="cls-11" d="M41.47,166.65a1.68,1.68,0,1,0,1.67,1.68A1.68,1.68,0,0,0,41.47,166.65Z"/><path class="cls-11" d="M41.47,174.73a1.68,1.68,0,1,0,1.67,1.68A1.68,1.68,0,0,0,41.47,174.73Z"/><path class="cls-11" d="M41.47,182.81a1.68,1.68,0,1,0,1.67,1.68A1.68,1.68,0,0,0,41.47,182.81Z"/><path class="cls-11" d="M41.47,190.89a1.68,1.68,0,1,0,1.67,1.68A1.68,1.68,0,0,0,41.47,190.89Z"/><path class="cls-11" d="M41.47,199a1.68,1.68,0,1,0,1.67,1.67A1.68,1.68,0,0,0,41.47,199Z"/><path class="cls-11" d="M41.47,207.05a1.68,1.68,0,1,0,1.67,1.67A1.68,1.68,0,0,0,41.47,207.05Z"/><path class="cls-11" d="M49.55,142.42a1.68,1.68,0,1,0,1.67,1.67A1.68,1.68,0,0,0,49.55,142.42Z"/><path class="cls-11" d="M49.55,150.5a1.67,1.67,0,1,0,1.67,1.67A1.68,1.68,0,0,0,49.55,150.5Z"/><path class="cls-11" d="M49.55,158.57a1.68,1.68,0,1,0,1.67,1.68A1.68,1.68,0,0,0,49.55,158.57Z"/><path class="cls-11" d="M49.55,166.65a1.68,1.68,0,1,0,1.67,1.68A1.68,1.68,0,0,0,49.55,166.65Z"/><path class="cls-11" d="M49.55,174.73a1.68,1.68,0,1,0,1.67,1.68A1.68,1.68,0,0,0,49.55,174.73Z"/><path class="cls-11" d="M49.55,182.81a1.68,1.68,0,1,0,1.67,1.68A1.68,1.68,0,0,0,49.55,182.81Z"/><path class="cls-11" d="M49.55,190.89a1.68,1.68,0,1,0,1.67,1.68A1.68,1.68,0,0,0,49.55,190.89Z"/><path class="cls-11" d="M49.55,199a1.68,1.68,0,1,0,1.67,1.67A1.68,1.68,0,0,0,49.55,199Z"/><path class="cls-11" d="M49.55,207.05a1.68,1.68,0,1,0,1.67,1.67A1.68,1.68,0,0,0,49.55,207.05Z"/><path class="cls-11" d="M57.62,142.42a1.68,1.68,0,1,0,1.68,1.67A1.67,1.67,0,0,0,57.62,142.42Z"/><path class="cls-11" d="M57.62,150.5a1.67,1.67,0,1,0,1.68,1.67A1.67,1.67,0,0,0,57.62,150.5Z"/><path class="cls-11" d="M57.62,158.57a1.68,1.68,0,1,0,1.68,1.68A1.68,1.68,0,0,0,57.62,158.57Z"/><path class="cls-11" d="M57.62,166.65a1.68,1.68,0,1,0,1.68,1.68A1.68,1.68,0,0,0,57.62,166.65Z"/><path class="cls-11" d="M57.62,174.73a1.68,1.68,0,1,0,1.68,1.68A1.68,1.68,0,0,0,57.62,174.73Z"/><path class="cls-11" d="M57.62,182.81a1.68,1.68,0,1,0,1.68,1.68A1.68,1.68,0,0,0,57.62,182.81Z"/><path class="cls-11" d="M57.62,190.89a1.68,1.68,0,1,0,1.68,1.68A1.68,1.68,0,0,0,57.62,190.89Z"/><path class="cls-11" d="M57.62,199a1.68,1.68,0,1,0,1.68,1.67A1.67,1.67,0,0,0,57.62,199Z"/><path class="cls-11" d="M57.62,207.05a1.68,1.68,0,1,0,1.68,1.67A1.67,1.67,0,0,0,57.62,207.05Z"/><path class="cls-11" d="M65.7,142.42a1.68,1.68,0,1,0,1.68,1.67A1.67,1.67,0,0,0,65.7,142.42Z"/><path class="cls-11" d="M65.7,150.5a1.67,1.67,0,1,0,1.68,1.67A1.67,1.67,0,0,0,65.7,150.5Z"/><path class="cls-11" d="M65.7,158.57a1.68,1.68,0,1,0,1.68,1.68A1.68,1.68,0,0,0,65.7,158.57Z"/><path class="cls-11" d="M65.7,166.65a1.68,1.68,0,1,0,1.68,1.68A1.68,1.68,0,0,0,65.7,166.65Z"/><path class="cls-11" d="M65.7,174.73a1.68,1.68,0,1,0,1.68,1.68A1.68,1.68,0,0,0,65.7,174.73Z"/><path class="cls-11" d="M65.7,182.81a1.68,1.68,0,1,0,1.68,1.68A1.68,1.68,0,0,0,65.7,182.81Z"/><path class="cls-11" d="M65.7,190.89a1.68,1.68,0,1,0,1.68,1.68A1.68,1.68,0,0,0,65.7,190.89Z"/><path class="cls-11" d="M65.7,199a1.68,1.68,0,1,0,1.68,1.67A1.67,1.67,0,0,0,65.7,199Z"/><path class="cls-11" d="M65.7,207.05a1.68,1.68,0,1,0,1.68,1.67A1.67,1.67,0,0,0,65.7,207.05Z"/><path class="cls-11" d="M73.78,142.42a1.68,1.68,0,1,0,1.68,1.67A1.67,1.67,0,0,0,73.78,142.42Z"/><path class="cls-11" d="M73.78,150.5a1.67,1.67,0,1,0,1.68,1.67A1.67,1.67,0,0,0,73.78,150.5Z"/><path class="cls-11" d="M73.78,158.57a1.68,1.68,0,1,0,1.68,1.68A1.68,1.68,0,0,0,73.78,158.57Z"/><path class="cls-11" d="M73.78,166.65a1.68,1.68,0,1,0,1.68,1.68A1.68,1.68,0,0,0,73.78,166.65Z"/><path class="cls-11" d="M73.78,174.73a1.68,1.68,0,1,0,1.68,1.68A1.68,1.68,0,0,0,73.78,174.73Z"/><path class="cls-11" d="M73.78,182.81a1.68,1.68,0,1,0,1.68,1.68A1.68,1.68,0,0,0,73.78,182.81Z"/><path class="cls-11" d="M73.78,190.89a1.68,1.68,0,1,0,1.68,1.68A1.68,1.68,0,0,0,73.78,190.89Z"/><path class="cls-11" d="M73.78,199a1.68,1.68,0,1,0,1.68,1.67A1.67,1.67,0,0,0,73.78,199Z"/><path class="cls-11" d="M73.78,207.05a1.68,1.68,0,1,0,1.68,1.67A1.67,1.67,0,0,0,73.78,207.05Z"/><path class="cls-11" d="M81.86,142.42a1.68,1.68,0,1,0,1.68,1.67A1.67,1.67,0,0,0,81.86,142.42Z"/><path class="cls-11" d="M81.86,150.5a1.67,1.67,0,1,0,1.68,1.67A1.67,1.67,0,0,0,81.86,150.5Z"/><path class="cls-11" d="M81.86,158.57a1.68,1.68,0,1,0,1.68,1.68A1.68,1.68,0,0,0,81.86,158.57Z"/><path class="cls-11" d="M81.86,166.65a1.68,1.68,0,1,0,1.68,1.68A1.68,1.68,0,0,0,81.86,166.65Z"/><path class="cls-11" d="M81.86,174.73a1.68,1.68,0,1,0,1.68,1.68A1.68,1.68,0,0,0,81.86,174.73Z"/><path class="cls-11" d="M81.86,182.81a1.68,1.68,0,1,0,1.68,1.68A1.68,1.68,0,0,0,81.86,182.81Z"/><path class="cls-11" d="M81.86,190.89a1.68,1.68,0,1,0,1.68,1.68A1.68,1.68,0,0,0,81.86,190.89Z"/><path class="cls-11" d="M81.86,199a1.68,1.68,0,1,0,1.68,1.67A1.67,1.67,0,0,0,81.86,199Z"/><path class="cls-11" d="M81.86,207.05a1.68,1.68,0,1,0,1.68,1.67A1.67,1.67,0,0,0,81.86,207.05Z"/><circle class="cls-11" cx="89.94" cy="144.09" r="1.67"/><circle class="cls-11" cx="89.94" cy="152.17" r="1.67"/><circle class="cls-11" cx="89.94" cy="160.25" r="1.67"/><path class="cls-11" d="M89.94,166.65a1.68,1.68,0,1,0,1.68,1.68A1.68,1.68,0,0,0,89.94,166.65Z"/><path class="cls-11" d="M89.94,174.73a1.68,1.68,0,1,0,1.68,1.68A1.68,1.68,0,0,0,89.94,174.73Z"/><path class="cls-11" d="M89.94,182.81a1.68,1.68,0,1,0,1.68,1.68A1.68,1.68,0,0,0,89.94,182.81Z"/><path class="cls-11" d="M89.94,190.89a1.68,1.68,0,1,0,1.68,1.68A1.68,1.68,0,0,0,89.94,190.89Z"/><path class="cls-11" d="M89.94,199a1.68,1.68,0,1,0,1.68,1.67A1.67,1.67,0,0,0,89.94,199Z"/><path class="cls-11" d="M89.94,207.05a1.68,1.68,0,1,0,1.68,1.67A1.67,1.67,0,0,0,89.94,207.05Z"/><circle class="cls-11" cx="98.02" cy="144.09" r="1.67"/><circle class="cls-11" cx="98.02" cy="152.17" r="1.67"/><circle class="cls-11" cx="98.02" cy="160.25" r="1.67"/><path class="cls-11" d="M98,166.65a1.68,1.68,0,1,0,1.67,1.68A1.68,1.68,0,0,0,98,166.65Z"/><path class="cls-11" d="M98,174.73a1.68,1.68,0,1,0,1.67,1.68A1.68,1.68,0,0,0,98,174.73Z"/><path class="cls-11" d="M98,182.81a1.68,1.68,0,1,0,1.67,1.68A1.68,1.68,0,0,0,98,182.81Z"/><path class="cls-11" d="M98,190.89a1.68,1.68,0,1,0,1.67,1.68A1.68,1.68,0,0,0,98,190.89Z"/><path class="cls-11" d="M98,199a1.68,1.68,0,1,0,1.67,1.67A1.67,1.67,0,0,0,98,199Z"/><path class="cls-11" d="M98,207.05a1.68,1.68,0,1,0,1.67,1.67A1.67,1.67,0,0,0,98,207.05Z"/><path class="cls-11" d="M33.39,134.34A1.68,1.68,0,1,0,35.06,136,1.68,1.68,0,0,0,33.39,134.34Z"/><path class="cls-11" d="M41.47,134.34A1.68,1.68,0,1,0,43.14,136,1.68,1.68,0,0,0,41.47,134.34Z"/><path class="cls-11" d="M49.55,134.34A1.68,1.68,0,1,0,51.22,136,1.68,1.68,0,0,0,49.55,134.34Z"/><path class="cls-11" d="M57.62,134.34A1.68,1.68,0,1,0,59.3,136,1.67,1.67,0,0,0,57.62,134.34Z"/><path class="cls-11" d="M65.7,134.34A1.68,1.68,0,1,0,67.38,136,1.67,1.67,0,0,0,65.7,134.34Z"/><path class="cls-11" d="M73.78,134.34A1.68,1.68,0,1,0,75.46,136,1.67,1.67,0,0,0,73.78,134.34Z"/><path class="cls-11" d="M81.86,134.34A1.68,1.68,0,1,0,83.54,136,1.67,1.67,0,0,0,81.86,134.34Z"/><circle class="cls-11" cx="89.94" cy="136.01" r="1.67"/><circle class="cls-11" cx="98.02" cy="136.01" r="1.67"/></g><path class="cls-2" d="M52.47,147.9H71.66A7.12,7.12,0,0,1,78.78,155v27.46a0,0,0,0,1,0,0H58A5.48,5.48,0,0,1,52.47,177V147.9A0,0,0,0,1,52.47,147.9Z" transform="translate(-0.54 0.21) rotate(-0.19)"/><path class="cls-5" d="M66.27,14.91H249.33a0,0,0,0,1,0,0v112.2a0,0,0,0,1,0,0H58.9a0,0,0,0,1,0,0V22.28a7.37,7.37,0,0,1,7.37-7.37Z"/><path class="cls-12" d="M106,60.75H89.09a.61.61,0,0,0-.61.61V88.53a.61.61,0,0,0,.61.61h5.06a.61.61,0,0,0,.61-.61V78.76a.61.61,0,0,1,.61-.61h9a.62.62,0,0,0,.61-.61V73a.61.61,0,0,0-.61-.61h-9a.62.62,0,0,1-.61-.61V67.24a.61.61,0,0,1,.61-.61H106a.61.61,0,0,0,.61-.61V61.36A.61.61,0,0,0,106,60.75Z"/><rect class="cls-12" x="109.92" y="70.4" width="6.12" height="18.74" rx="0.61"/><path class="cls-12" d="M183.64,69.79a7,7,0,0,0-6.29,3.65h-.08a6,6,0,0,0-5.88-3.65,6.2,6.2,0,0,0-5.8,3.3V71a.62.62,0,0,0-.12-.3h0a.69.69,0,0,0-.16-.18.51.51,0,0,0-.32-.13h-4.92a.6.6,0,0,0-.6.61V88.53a.6.6,0,0,0,.6.61H165a.6.6,0,0,0,.6-.61V79.84c0-3.52,1.46-4.65,3.33-4.65,2.14,0,3,1.41,3,3.77v9.57a.61.61,0,0,0,.61.61h4.66a.61.61,0,0,0,.61-.61V79.85c0-3.53,1.46-4.66,3.33-4.66,2.15,0,3,1.41,3,3.77v9.57a.61.61,0,0,0,.61.61h4.9a.61.61,0,0,0,.61-.61V76.93C190.33,72.39,187.53,69.79,183.64,69.79Z"/><rect class="cls-12" x="193.66" y="70.4" width="6.12" height="18.74" rx="0.61"/><rect class="cls-12" x="139.72" y="62.13" width="11.85" height="3.48" rx="0.61"/><path class="cls-12" d="M155.52,70.4h-4.91A.61.61,0,0,0,150,71V73h-.08a6.65,6.65,0,0,0-6.12-3.16c-4.87,0-8.88,3.41-8.88,10s4,10,8.88,10a6.64,6.64,0,0,0,6.12-3.17H150v2a.61.61,0,0,0,.61.61h4.91a.61.61,0,0,0,.61-.61V71A.61.61,0,0,0,155.52,70.4Zm-10,13.75a4.38,4.38,0,1,1,4.34-4.38A4.15,4.15,0,0,1,145.5,84.15Z"/><path class="cls-12" d="M113.2,60.48h-.44a3.39,3.39,0,1,0,0,6.78h.44a3.39,3.39,0,0,0,0-6.78Z"/><path class="cls-12" d="M197,60.48h-.44a3.39,3.39,0,0,0,0,6.78H197a3.39,3.39,0,1,0,0-6.78Z"/><path class="cls-12" d="M215.35,69.79a6.89,6.89,0,0,0-6.07,3.38V71a.58.58,0,0,0-.14-.33.47.47,0,0,0-.14-.14.5.5,0,0,0-.33-.14h-4.92a.61.61,0,0,0-.61.61V88.53a.61.61,0,0,0,.61.61h4.92a.61.61,0,0,0,.61-.61v-9c.07-3.15,1.57-4.32,3.59-4.32,2.27,0,3.45,1.25,3.45,4v9.29a.61.61,0,0,0,.61.61h4.86a.61.61,0,0,0,.61-.61v-11C222.4,72.18,219.48,69.79,215.35,69.79Z"/><path class="cls-12" d="M132.41,70.38h-2.94a.31.31,0,0,1-.3-.3V62.74a.61.61,0,0,0-.61-.61h-4.9a.61.61,0,0,0-.61.61v7.34a.31.31,0,0,1-.31.3H120a.61.61,0,0,0-.61.61v3.89a.61.61,0,0,0,.61.61h2.73a.31.31,0,0,1,.31.3v7c0,4.5,2.47,6.33,6.28,6.33h2.21a.35.35,0,0,0,.35-.35v-5a.35.35,0,0,0-.35-.34h-.34c-1.58,0-2-.57-2-2.31V75.79a.31.31,0,0,1,.3-.3h2.94a.61.61,0,0,0,.61-.61V71A.61.61,0,0,0,132.41,70.38Z"/></g></g></svg>