<svg width="83" height="60" viewBox="0 0 83 60" fill="none" xmlns="http://www.w3.org/2000/svg">
<g clip-path="url(#clip0_425_1843)">
<mask id="mask0_425_1843" style="mask-type:alpha" maskUnits="userSpaceOnUse" x="-366" y="0" width="500" height="70">
<rect x="-366" width="500" height="70" fill="#3C5DF6"/>
</mask>
<g mask="url(#mask0_425_1843)">
<g filter="url(#filter0_d_425_1843)">
<path d="M14.965 34.0846C14.965 34.4435 14.5892 34.7402 14.1774 34.7402C13.7661 34.7402 13.2469 34.443 13.2469 34.0846V27.9499C13.2469 27.5909 13.7661 27.2526 14.1774 27.2526C14.5887 27.2526 14.965 27.5914 14.965 27.9499V34.0846Z" fill="white"/>
<path fill-rule="evenodd" clip-rule="evenodd" d="M63.0706 83.8489C63.0706 86.6986 60.8322 89.0096 58.0715 89.0096H19.0519C16.2911 89.0096 14.0528 86.6986 14.0528 83.8489V43.1565C13.6685 43.1089 13.2469 42.8523 13.2469 42.5288V36.3937C13.2469 36.0707 13.6685 35.7849 14.0528 35.7315V19.9362C14.0528 17.0856 16.2911 14.775 19.0519 14.775H58.0715C60.8322 14.775 63.0706 17.0856 63.0706 19.9362V31.2302L63.0742 31.2302H63.0758C63.4876 31.2302 64.038 31.5246 64.038 31.8831V38.0182C64.038 38.3764 63.4867 38.6711 63.075 38.6715H63.0742L63.0706 38.6715V83.8489Z" fill="white"/>
</g>
<path d="M59.6912 78.9009C59.6912 81.3553 58.1324 83.0105 55.7308 83.0105H21.0151C18.6135 83.0105 17.0552 81.3553 17.0552 78.9009V21.8498C17.0552 19.395 18.6135 17.7402 21.0151 17.7402H55.7313C58.1329 17.7402 59.6917 19.395 59.6917 21.8498V78.9009H59.6912Z" fill="#5565B0"/>
<g opacity="0.4">
<path fill-rule="evenodd" clip-rule="evenodd" d="M42.6987 41.359C44.1716 40.3166 45.1147 38.7152 45.1147 36.9194C45.1147 33.7782 42.2292 31.2318 38.6697 31.2318C35.1103 31.2318 32.2248 33.7782 32.2248 36.9194C32.2248 38.763 33.2188 40.4018 34.7597 41.4411C31.5889 42.6184 29.3947 45.1232 29.3947 48.0233V54.6207H48.2912V48.0233C48.2912 45.0544 45.9915 42.4993 42.6987 41.359Z" fill="white"/>
</g>
<path d="M48.9736 16.2045H24.859V18.9227C24.859 20.417 26.2265 21.6334 27.9408 21.6334H48.9741C50.6884 21.6334 52.0264 20.4165 52.0264 18.9227V16.2045H48.9741H48.9736Z" fill="white"/>
<path fill-rule="evenodd" clip-rule="evenodd" d="M44.1939 19.9231C44.7027 19.9231 45.1146 19.559 45.1146 19.1106C45.1146 18.6616 44.702 18.2981 44.1939 18.2981C43.6858 18.2981 43.2732 18.6616 43.2732 19.1106C43.2732 19.5596 43.6851 19.9231 44.1939 19.9231ZM40.7383 19.9231C41.1219 19.9231 41.4318 19.5586 41.4318 19.11C41.4318 18.6613 41.1219 18.2981 40.7383 18.2981H32.9183C32.5352 18.2981 32.2247 18.6613 32.2247 19.11C32.2247 19.5586 32.5352 19.9231 32.9183 19.9231H40.7383Z" fill="#5465B0"/>
<g filter="url(#filter1_d_425_1843)">
<path d="M56.1548 63.0509C53.5596 60.973 56.6907 54.3209 63.1495 48.1922C69.6076 42.0643 76.9465 38.7815 79.5417 40.8601C82.1368 42.9379 79.0049 49.5901 72.5469 55.718C66.0889 61.8459 58.7499 65.1288 56.1548 63.0509Z" fill="#FFB959"/>
<path d="M79.5504 40.8717L56.1659 63.0621L58.689 65.0824L82.0735 42.892L79.5504 40.8717Z" fill="#FFB959"/>
<path d="M58.7002 65.0896C56.105 63.0117 59.2369 56.3595 65.695 50.2309C72.153 44.103 79.4927 40.8201 82.0879 42.8987C84.6831 44.9766 81.5512 51.6287 75.0931 57.7566C68.6351 63.8845 61.2954 67.1667 58.7002 65.0888V65.0896Z" fill="#FFDB59"/>
<path d="M60.9625 63.3488C58.9458 61.7337 61.6377 56.3194 66.9739 51.2558C72.311 46.1922 78.2724 43.3958 80.289 45.0108C82.3057 46.6258 79.6138 52.0401 74.2768 57.1037C68.9398 62.168 62.9783 64.9638 60.9617 63.3488H60.9625Z" fill="#FFB959"/>
<path d="M61.2197 62.8002C59.2932 61.2573 61.8646 56.0844 66.9632 51.2473C72.0617 46.4094 77.7568 43.7386 79.6834 45.2808C81.6099 46.8236 79.0385 51.9958 73.9399 56.8337C68.8413 61.6716 63.1462 64.3431 61.2197 62.8002Z" fill="#FFDB59"/>
<path d="M65.3572 60.1624L67.0223 58.5823C67.7418 58.6202 68.7349 58.0138 69.8469 56.958C71.1998 55.6745 71.4391 54.9559 71.3694 54.2373L71.3252 53.7666C71.2695 53.2859 71.4784 52.923 72.1602 52.2759C72.8534 51.6187 73.4303 51.3987 73.7597 51.663C74.0859 51.9237 74.1105 52.3216 74.0875 52.6637L75.0618 51.7394C75.0963 51.5037 75.1102 51.2523 74.9905 51.0209L76.7442 49.3566L76.2541 48.9644L74.5259 50.6044C73.8499 50.348 72.7551 50.9409 71.6112 52.0266C70.3337 53.2387 70.0083 53.9823 70.0796 54.6273L70.1132 55.108C70.1698 55.6459 69.9805 56.0252 69.288 56.683C68.5079 57.4223 67.8352 57.7545 67.4156 57.4188C67.0985 57.1645 67.0141 56.7373 67.0747 56.2745L66.1111 57.1888C66.0177 57.6123 66.0726 58.0216 66.3946 58.3209L64.8663 59.7709L65.3564 60.1631L65.3572 60.1624Z" fill="#FFB959"/>
</g>
<g filter="url(#filter2_d_425_1843)">
<path d="M20.6541 43.4001C18.7729 45.1852 12.7509 43.0312 7.20315 38.5885C1.65542 34.1471 -1.31693 29.0986 0.565084 27.3129C2.44634 25.5278 8.46832 27.6818 14.0161 32.1239C19.5638 36.566 22.5354 41.6144 20.6541 43.3994V43.4001Z" fill="#FFB959"/>
<path d="M2.40813 25.5705L0.579102 27.3061L20.6679 43.3914L22.497 41.6557L2.40813 25.5705Z" fill="#FFB959"/>
<path d="M22.4994 41.6497C20.6181 43.4347 14.5962 41.2807 9.04844 36.838C3.50071 32.396 0.529115 27.3475 2.41037 25.5625C4.29163 23.7774 10.3136 25.9314 15.8613 30.3741C21.4083 34.8162 24.3807 39.8646 22.4994 41.6503V41.6497Z" fill="#FFDB59"/>
<path d="M20.9236 40.0935C19.4618 41.4809 14.5601 39.6291 9.97518 35.9582C5.39097 32.2873 2.85911 28.1861 4.32164 26.7994C5.78343 25.4127 10.6851 27.2638 15.2693 30.9346C19.8535 34.6062 22.3853 38.7068 20.9228 40.0935H20.9236Z" fill="#FFB959"/>
<path d="M20.4268 39.9163C19.0295 41.2415 14.347 39.4728 9.96765 35.9654C5.5883 32.4581 3.16975 28.5413 4.56625 27.2154C5.96275 25.8902 10.6453 27.6589 15.0246 31.1662C19.4047 34.6736 21.8225 38.591 20.426 39.9163H20.4268Z" fill="#FFDB59"/>
<path d="M18.0389 37.0702L16.6087 35.9249C16.6424 35.4304 16.0939 34.7468 15.1386 33.9815C13.9762 33.0507 13.3256 32.8865 12.6758 32.9343L12.2496 32.965C11.8143 33.0036 11.4857 32.8597 10.8996 32.3907C10.3045 31.9139 10.1057 31.5168 10.345 31.2905C10.5814 31.0661 10.9416 31.0498 11.2508 31.0648L10.4141 30.3944C10.201 30.3708 9.9736 30.361 9.76348 30.4434L8.25667 29.2372L7.90173 29.5741L9.38678 30.7626C9.15491 31.227 9.69144 31.9806 10.6737 32.7675C11.7708 33.6466 12.4439 33.8703 13.0277 33.8212L13.463 33.7977C13.95 33.7591 14.2937 33.8886 14.8887 34.3655C15.5581 34.9018 15.859 35.3649 15.5543 35.6534C15.3247 35.8719 14.9375 35.9294 14.518 35.8882L15.3457 36.5508C15.7292 36.6149 16.0991 36.577 16.37 36.3559L17.6832 37.4071L18.0382 37.0702H18.0389Z" fill="#FFB959"/>
</g>
<g filter="url(#filter3_d_425_1843)">
<path d="M73.8411 6.56947C75.6873 8.04819 73.4598 12.7804 68.8649 17.1395C64.2707 21.4986 59.0498 23.834 57.2036 22.3553C55.3575 20.8766 57.585 16.1444 62.1791 11.7853C66.7732 7.42617 71.9942 5.09075 73.8403 6.56876L73.8411 6.56947Z" fill="#FFB959"/>
<path d="M72.0361 5.11949L55.4006 20.9056L57.196 22.3431L73.8315 6.55702L72.0361 5.11949Z" fill="#FFB959"/>
<path d="M72.0311 5.11928C73.8772 6.59729 71.6489 11.3302 67.0548 15.6893C62.4607 20.0484 57.2397 22.3838 55.3935 20.9051C53.5474 19.4271 55.7749 14.6949 60.3698 10.3351C64.9639 5.97598 70.1849 3.64056 72.0311 5.11928Z" fill="#FFDB59"/>
<path d="M70.4214 6.35762C71.856 7.50607 69.9411 11.358 66.1448 14.961C62.3486 18.5633 58.1072 20.5527 56.6726 19.4036C55.2381 18.2544 57.153 14.4032 60.95 10.8009C64.7471 7.19863 68.9877 5.20917 70.4222 6.35762H70.4214Z" fill="#FFB959"/>
<path d="M70.2379 6.74787C71.6086 7.84567 69.7788 11.525 66.152 14.9668C62.5243 18.4086 58.4736 20.3089 57.1028 19.211C55.7321 18.1132 57.5619 14.4339 61.1888 10.9929C64.8156 7.55107 68.8672 5.65078 70.2379 6.74858V6.74787Z" fill="#FFDB59"/>
<path d="M67.2946 8.6246L66.1105 9.74808C65.599 9.72097 64.892 10.1525 64.1007 10.9037C63.1383 11.8167 62.9681 12.3282 63.0172 12.8389L63.0491 13.1735C63.0892 13.5159 62.9403 13.7741 62.455 14.2342C61.9624 14.7014 61.5516 14.8583 61.3167 14.67C61.0843 14.4845 61.0671 14.2014 61.0835 13.9581L60.3903 14.6158C60.3658 14.7834 60.356 14.9625 60.4411 15.1272L59.1931 16.3114L59.5417 16.5903L60.7709 15.4233C61.2512 15.6059 62.0303 15.1843 62.8445 14.4118C63.7537 13.5494 63.9845 13.0208 63.9337 12.5621L63.91 12.2197C63.8699 11.8367 64.0041 11.5671 64.4967 11.0991C65.0516 10.5727 65.5303 10.3366 65.829 10.5755C66.0548 10.756 66.1146 11.0599 66.0712 11.3894L66.757 10.7389C66.8232 10.4371 66.784 10.1468 66.5557 9.93354L67.6432 8.90208L67.2946 8.62317V8.6246Z" fill="#FFB959"/>
</g>
</g>
</g>
<defs>
<filter id="filter0_d_425_1843" x="9.24695" y="14.775" width="58.791" height="82.2346" filterUnits="userSpaceOnUse" color-interpolation-filters="sRGB">
<feFlood flood-opacity="0" result="BackgroundImageFix"/>
<feColorMatrix in="SourceAlpha" type="matrix" values="0 0 0 0 0 0 0 0 0 0 0 0 0 0 0 0 0 0 127 0" result="hardAlpha"/>
<feOffset dy="4"/>
<feGaussianBlur stdDeviation="2"/>
<feComposite in2="hardAlpha" operator="out"/>
<feColorMatrix type="matrix" values="0 0 0 0 0 0 0 0 0 0 0 0 0 0 0 0 0 0 0.25 0"/>
<feBlend mode="normal" in2="BackgroundImageFix" result="effect1_dropShadow_425_1843"/>
<feBlend mode="normal" in="SourceGraphic" in2="effect1_dropShadow_425_1843" result="shape"/>
</filter>
<filter id="filter1_d_425_1843" x="51.2426" y="40.236" width="35.7574" height="33.4767" filterUnits="userSpaceOnUse" color-interpolation-filters="sRGB">
<feFlood flood-opacity="0" result="BackgroundImageFix"/>
<feColorMatrix in="SourceAlpha" type="matrix" values="0 0 0 0 0 0 0 0 0 0 0 0 0 0 0 0 0 0 127 0" result="hardAlpha"/>
<feOffset dy="4"/>
<feGaussianBlur stdDeviation="2"/>
<feComposite in2="hardAlpha" operator="out"/>
<feColorMatrix type="matrix" values="0 0 0 0 0 0 0 0 0 0 0 0 0 0 0 0 0 0 0.25 0"/>
<feBlend mode="normal" in2="BackgroundImageFix" result="effect1_dropShadow_425_1843"/>
<feBlend mode="normal" in="SourceGraphic" in2="effect1_dropShadow_425_1843" result="shape"/>
</filter>
<filter id="filter2_d_425_1843" x="-4" y="24.9351" width="31.0641" height="27.0925" filterUnits="userSpaceOnUse" color-interpolation-filters="sRGB">
<feFlood flood-opacity="0" result="BackgroundImageFix"/>
<feColorMatrix in="SourceAlpha" type="matrix" values="0 0 0 0 0 0 0 0 0 0 0 0 0 0 0 0 0 0 127 0" result="hardAlpha"/>
<feOffset dy="4"/>
<feGaussianBlur stdDeviation="2"/>
<feComposite in2="hardAlpha" operator="out"/>
<feColorMatrix type="matrix" values="0 0 0 0 0 0 0 0 0 0 0 0 0 0 0 0 0 0 0.25 0"/>
<feBlend mode="normal" in2="BackgroundImageFix" result="effect1_dropShadow_425_1843"/>
<feBlend mode="normal" in="SourceGraphic" in2="effect1_dropShadow_425_1843" result="shape"/>
</filter>
<filter id="filter3_d_425_1843" x="50.7446" y="4.67529" width="27.7454" height="26.124" filterUnits="userSpaceOnUse" color-interpolation-filters="sRGB">
<feFlood flood-opacity="0" result="BackgroundImageFix"/>
<feColorMatrix in="SourceAlpha" type="matrix" values="0 0 0 0 0 0 0 0 0 0 0 0 0 0 0 0 0 0 127 0" result="hardAlpha"/>
<feOffset dy="4"/>
<feGaussianBlur stdDeviation="2"/>
<feComposite in2="hardAlpha" operator="out"/>
<feColorMatrix type="matrix" values="0 0 0 0 0 0 0 0 0 0 0 0 0 0 0 0 0 0 0.25 0"/>
<feBlend mode="normal" in2="BackgroundImageFix" result="effect1_dropShadow_425_1843"/>
<feBlend mode="normal" in="SourceGraphic" in2="effect1_dropShadow_425_1843" result="shape"/>
</filter>
<clipPath id="clip0_425_1843">
<rect width="83" height="60" fill="white"/>
</clipPath>
</defs>
</svg>
