<svg width="168" height="168" viewBox="0 0 168 168" fill="none" xmlns="http://www.w3.org/2000/svg">
<g clip-path="url(#clip0_1251_15777)">
<path d="M115.13 44.8L111.33 51.36C110.5 52.8 111.54 54.6 113.2 54.6H120.8C122.46 54.6 123.5 52.8 122.67 51.36L118.87 44.8C118.04 43.36 115.96 43.36 115.13 44.8V44.8Z" fill="#1E1E1E"/>
<path opacity="0.2" d="M39.7699 124.44C39.7699 124.44 17.1699 128.42 27.8799 137.71C38.5899 147 62.9899 160.8 112.98 150.14C162.97 139.48 125.57 131.69 112.98 129.84C100.39 127.99 39.7699 124.45 39.7699 124.45V124.44Z" fill="#231815"/>
<path d="M133.98 99.95C133.98 127.49 110.7 144.92 81.85 142.85C39.57 139.81 22.43 118.93 32.4 96.04C43.41 70.78 54.79 46.17 82.4 46.17C110.01 46.17 133.97 72.41 133.97 99.96L133.98 99.95Z" fill="url(#paint0_linear_1251_15777)"/>
<g opacity="0.8" filter="url(#filter0_d_1251_15777)">
<path d="M101.8 112.73C112.304 112.73 120.82 104.237 120.82 93.76C120.82 83.2831 112.304 74.79 101.8 74.79C91.2953 74.79 82.7798 83.2831 82.7798 93.76C82.7798 104.237 91.2953 112.73 101.8 112.73Z" fill="white"/>
</g>
<path d="M96.1498 101.3C100.745 101.3 104.47 97.584 104.47 93C104.47 88.4161 100.745 84.7 96.1498 84.7C91.5548 84.7 87.8298 88.4161 87.8298 93C87.8298 97.584 91.5548 101.3 96.1498 101.3Z" fill="#231815"/>
<g opacity="0.8" filter="url(#filter1_d_1251_15777)">
<path d="M64.9099 103.33C73.7465 103.33 80.9099 96.1845 80.9099 87.37C80.9099 78.5555 73.7465 71.41 64.9099 71.41C56.0734 71.41 48.9099 78.5555 48.9099 87.37C48.9099 96.1845 56.0734 103.33 64.9099 103.33Z" fill="white"/>
</g>
<path d="M61.6099 93.71C65.4759 93.71 68.6099 90.585 68.6099 86.73C68.6099 82.8751 65.4759 79.75 61.6099 79.75C57.7439 79.75 54.6099 82.8751 54.6099 86.73C54.6099 90.585 57.7439 93.71 61.6099 93.71Z" fill="#231815"/>
<path opacity="0.5" d="M117.82 117.55C131.412 117.55 142.43 106.559 142.43 93C142.43 79.4414 131.412 68.45 117.82 68.45C104.228 68.45 93.21 79.4414 93.21 93C93.21 106.559 104.228 117.55 117.82 117.55Z" fill="white"/>
<g opacity="0.7">
<path d="M76.7998 73.02C76.2698 73.02 75.7398 72.81 75.3498 72.4C68.5398 65.28 60.3498 69.34 60.0098 69.51C59.0298 70.01 57.8198 69.63 57.3198 68.65C56.8098 67.67 57.1898 66.48 58.1698 65.97C61.9998 63.98 71.1198 62.18 78.2498 69.64C79.0098 70.44 78.9798 71.7 78.1798 72.46C77.7898 72.83 77.2998 73.01 76.7998 73.01V73.02Z" fill="#FC9800"/>
</g>
<g opacity="0.7">
<path d="M87.2099 70.34C86.6899 70.34 86.1799 70.14 85.7899 69.75C85.0199 68.97 85.0199 67.71 85.7999 66.94C88.8599 63.9 97.0399 59.49 106.07 64.52C107.03 65.06 107.38 66.27 106.84 67.23C106.3 68.19 105.08 68.54 104.12 68C95.5099 63.21 88.8899 69.5 88.6099 69.77C88.2199 70.15 87.7099 70.34 87.2099 70.34V70.34Z" fill="#FC9800"/>
</g>
<path opacity="0.5" d="M124.1 69.19L102.92 110.76C102.92 110.76 121.1 128.76 137.15 108.19C151.49 89.8 134.94 74.54 134.94 74.54L124.1 69.19V69.19Z" fill="white"/>
<path d="M117.82 117.55C131.412 117.55 142.43 106.559 142.43 93C142.43 79.4414 131.412 68.45 117.82 68.45C104.228 68.45 93.21 79.4414 93.21 93C93.21 106.559 104.228 117.55 117.82 117.55Z" stroke="#231815" stroke-width="4" stroke-miterlimit="10"/>
<path d="M67.95 119.29C67.95 113.58 71.84 109.16 77.56 109.16C83.28 109.16 85.05 113.38 85.05 119.09C85.05 124.8 80.41 129.43 74.69 129.43C68.97 129.43 67.95 125.01 67.95 119.3V119.29Z" fill="#F95353"/>
<path d="M108.21 24.57H58.5998V53.56C58.5998 53.64 58.5598 53.71 58.5598 53.79C58.5598 57.65 69.6698 60.77 83.3698 60.77C97.0698 60.77 108.18 57.64 108.18 53.79C108.18 53.79 108.18 53.77 108.18 53.76H108.23V24.57H108.21Z" fill="#2D2D2D"/>
<path d="M46.0399 25.5L82.7799 14.09C83.1699 13.97 83.5999 13.97 83.9899 14.09L120.73 25.5C121.58 25.76 122.16 26.55 122.16 27.44C122.16 28.33 121.58 29.11 120.73 29.38L83.9899 40.79C83.5999 40.91 83.1699 40.91 82.7799 40.79L46.0399 29.38C45.1899 29.12 44.6099 28.33 44.6099 27.44C44.6099 26.55 45.1899 25.77 46.0399 25.5V25.5Z" fill="#1E1E1E"/>
<path d="M44.6099 25.95L83.3899 37.99L122.16 25.95L83.3899 13.9L44.6099 25.95Z" fill="#303030"/>
<path d="M117 30.41V46.12" stroke="#1E1E1E" stroke-width="3" stroke-linecap="round" stroke-linejoin="round"/>
<path d="M118.19 42.33H115.8C115.032 42.33 114.41 42.9523 114.41 43.72C114.41 44.4877 115.032 45.11 115.8 45.11H118.19C118.958 45.11 119.58 44.4877 119.58 43.72C119.58 42.9523 118.958 42.33 118.19 42.33Z" fill="#DD9C33"/>
</g>
<defs>
<filter id="filter0_d_1251_15777" x="79.7798" y="73.79" width="42.04" height="41.94" filterUnits="userSpaceOnUse" color-interpolation-filters="sRGB">
<feFlood flood-opacity="0" result="BackgroundImageFix"/>
<feColorMatrix in="SourceAlpha" type="matrix" values="0 0 0 0 0 0 0 0 0 0 0 0 0 0 0 0 0 0 127 0" result="hardAlpha"/>
<feOffset dx="-1" dy="1"/>
<feGaussianBlur stdDeviation="1"/>
<feColorMatrix type="matrix" values="0 0 0 0 0 0 0 0 0 0 0 0 0 0 0 0 0 0 0.2 0"/>
<feBlend mode="normal" in2="BackgroundImageFix" result="effect1_dropShadow_1251_15777"/>
<feBlend mode="normal" in="SourceGraphic" in2="effect1_dropShadow_1251_15777" result="shape"/>
</filter>
<filter id="filter1_d_1251_15777" x="45.9099" y="70.41" width="36" height="35.92" filterUnits="userSpaceOnUse" color-interpolation-filters="sRGB">
<feFlood flood-opacity="0" result="BackgroundImageFix"/>
<feColorMatrix in="SourceAlpha" type="matrix" values="0 0 0 0 0 0 0 0 0 0 0 0 0 0 0 0 0 0 127 0" result="hardAlpha"/>
<feOffset dx="-1" dy="1"/>
<feGaussianBlur stdDeviation="1"/>
<feColorMatrix type="matrix" values="0 0 0 0 0 0 0 0 0 0 0 0 0 0 0 0 0 0 0.2 0"/>
<feBlend mode="normal" in2="BackgroundImageFix" result="effect1_dropShadow_1251_15777"/>
<feBlend mode="normal" in="SourceGraphic" in2="effect1_dropShadow_1251_15777" result="shape"/>
</filter>
<linearGradient id="paint0_linear_1251_15777" x1="97.12" y1="146.56" x2="65.07" y2="53.6" gradientUnits="userSpaceOnUse">
<stop stop-color="#F47D00"/>
<stop offset="0.28" stop-color="#FFA000"/>
<stop offset="1" stop-color="#FFD200"/>
</linearGradient>
<clipPath id="clip0_1251_15777">
<rect width="168" height="168" fill="white"/>
</clipPath>
</defs>
</svg>
