<svg width="399" height="188" viewBox="0 0 399 188" fill="none" xmlns="http://www.w3.org/2000/svg">
<path d="M320.657 75.4523C328.884 83.6649 336.184 92.5751 342.538 102.104L364.028 89.7205C346.042 62.2675 321.41 39.5492 292.412 23.8413L280.017 45.2684C294.92 53.2534 308.544 63.3609 320.657 75.4523Z" fill="#F5F5F5"/>
<path d="M360.144 130.447C367.9 148.757 372.365 168.057 373.481 187.945H398.301C396.586 153.185 385.886 120.779 368.47 93L347 105.373C352.04 113.329 356.436 121.695 360.144 130.447Z" fill="#F5F5F5"/>
<path d="M198.002 24.7368C221.43 24.7368 244.144 29.3132 265.515 38.3322C269.247 39.9104 272.909 41.6123 276.503 43.4329L288.908 21.9861C261.679 7.94053 230.767 0 198.002 0C197.338 0 196.679 0.00494737 196.02 0.0148421V24.7616C196.679 24.7566 197.338 24.7368 198.002 24.7368Z" fill="#F5F5F5"/>
<path d="M38.1573 130.502C41.3441 122.982 45.0413 115.739 49.2144 108.802L27.7593 96.439C11.5676 123.452 1.64544 154.64 0 188H24.8203C25.9305 168.111 30.396 148.812 38.1573 130.502Z" fill="#EC736D"/>
<path d="M75.3432 75.4524C85.8155 64.9986 97.4178 56.0389 110.001 48.6377L97.6111 27.2156C70.06 43.3984 46.7711 66.0425 29.8311 93.0552L51.301 105.429C58.1355 94.6383 66.1694 84.61 75.3432 75.4524Z" fill="#EC736D"/>
<path d="M130.485 38.3325C150.042 30.0754 170.724 25.5584 192.05 24.846V0.0893555C159.057 1.05904 128.086 10.0731 101.046 25.2418L113.436 46.6639C118.947 43.5916 124.627 40.8062 130.485 38.3325Z" fill="#F5F5F5"/>
</svg>
