<svg width="145" height="200" viewBox="0 0 145 200" fill="none" xmlns="http://www.w3.org/2000/svg">
<g clip-path="url(#clip0_1758_16100)">
<g clip-path="url(#clip1_1758_16100)">
<path d="M84.18 197.536H83.97C82.74 197.486 81.57 197.246 80.45 196.826C79.67 196.536 79.28 195.666 79.57 194.896C79.86 194.116 80.73 193.726 81.5 194.016C82.32 194.326 83.17 194.496 84.04 194.526H84.17C84.65 194.526 85.14 194.486 85.62 194.396C86.44 194.246 87.22 194.786 87.37 195.606C87.52 196.426 86.98 197.206 86.16 197.356C85.5 197.476 84.84 197.536 84.17 197.536H84.18ZM60.65 197.536H60.44C59.65 197.506 58.89 197.396 58.15 197.206C57.35 197.006 56.86 196.196 57.06 195.386C57.26 194.586 58.07 194.086 58.88 194.296C59.42 194.426 59.98 194.506 60.53 194.536H60.65C61.45 194.536 62.24 194.416 63 194.186C63.79 193.936 64.63 194.386 64.88 195.176C65.12 195.966 64.68 196.806 63.89 197.056C62.84 197.386 61.75 197.546 60.65 197.546V197.536ZM90.36 195.246C89.94 195.246 89.52 195.066 89.22 194.726C88.68 194.096 88.75 193.146 89.38 192.606C89.52 192.486 89.65 192.366 89.77 192.246C90.53 191.496 91.13 190.606 91.54 189.626C91.6 189.476 91.66 189.326 91.71 189.166C91.98 188.386 92.84 187.976 93.62 188.246C94.4 188.516 94.81 189.376 94.54 190.156C94.47 190.366 94.39 190.576 94.3 190.776C93.73 192.136 92.91 193.346 91.86 194.386C91.69 194.556 91.5 194.726 91.32 194.886C91.04 195.126 90.69 195.246 90.34 195.246H90.36ZM54.18 194.876C53.81 194.876 53.44 194.736 53.15 194.466C53.01 194.336 52.87 194.196 52.73 194.046C51.55 192.786 50.65 191.256 50.15 189.606C49.91 188.816 50.35 187.976 51.15 187.736C51.94 187.486 52.78 187.936 53.02 188.736C53.39 189.946 54.04 191.076 54.91 191.996C55.01 192.096 55.11 192.206 55.21 192.296C55.81 192.866 55.83 193.816 55.26 194.416C54.97 194.726 54.57 194.886 54.17 194.886L54.18 194.876ZM67.62 194.476C67.26 194.476 66.89 194.346 66.61 194.076C66 193.516 65.96 192.566 66.52 191.956C67.15 191.266 67.66 190.486 68.01 189.616C68.19 189.176 68.34 188.726 68.44 188.256C68.62 187.446 69.43 186.936 70.23 187.116C71.04 187.296 71.55 188.096 71.37 188.906C71.23 189.546 71.03 190.166 70.78 190.766C70.29 191.946 69.59 193.026 68.73 193.976C68.43 194.296 68.03 194.466 67.63 194.466L67.62 194.476ZM76.95 194.066C76.52 194.066 76.09 193.886 75.8 193.526C74.56 192.046 73.73 190.256 73.37 188.356C73.22 187.546 73.76 186.756 74.57 186.606C75.38 186.456 76.17 186.996 76.32 187.806C76.58 189.196 77.19 190.506 78.1 191.596C78.63 192.236 78.55 193.176 77.91 193.706C77.63 193.936 77.29 194.056 76.95 194.056V194.066ZM93.66 186.226C92.83 186.226 92.16 185.556 92.16 184.726V179.726C92.16 178.896 92.83 178.226 93.66 178.226C94.49 178.226 95.16 178.896 95.16 179.726V184.726C95.16 185.556 94.49 186.226 93.66 186.226ZM51.15 185.716C50.32 185.716 49.65 185.046 49.65 184.216V179.216C49.65 178.386 50.32 177.716 51.15 177.716C51.98 177.716 52.65 178.386 52.65 179.216V184.216C52.65 185.046 51.98 185.716 51.15 185.716ZM70.13 185.116C69.3 185.116 68.63 184.446 68.63 183.616V178.616C68.63 177.786 69.3 177.116 70.13 177.116C70.96 177.116 71.63 177.786 71.63 178.616V183.616C71.63 184.446 70.96 185.116 70.13 185.116ZM74.68 184.606C73.85 184.606 73.18 183.936 73.18 183.106V178.106C73.18 177.276 73.85 176.606 74.68 176.606C75.51 176.606 76.18 177.276 76.18 178.106V183.106C76.18 183.936 75.51 184.606 74.68 184.606ZM93.66 176.226C92.83 176.226 92.16 175.556 92.16 174.726V169.726C92.16 168.896 92.83 168.226 93.66 168.226C94.49 168.226 95.16 168.896 95.16 169.726V174.726C95.16 175.556 94.49 176.226 93.66 176.226ZM51.15 175.716C50.32 175.716 49.65 175.046 49.65 174.216V169.216C49.65 168.386 50.32 167.716 51.15 167.716C51.98 167.716 52.65 168.386 52.65 169.216V174.216C52.65 175.046 51.98 175.716 51.15 175.716ZM70.13 175.116C69.3 175.116 68.63 174.446 68.63 173.616V168.616C68.63 167.786 69.3 167.116 70.13 167.116C70.96 167.116 71.63 167.786 71.63 168.616V173.616C71.63 174.446 70.96 175.116 70.13 175.116ZM74.68 174.606C73.85 174.606 73.18 173.936 73.18 173.106V168.106C73.18 167.276 73.85 166.606 74.68 166.606C75.51 166.606 76.18 167.276 76.18 168.106V173.106C76.18 173.936 75.51 174.606 74.68 174.606ZM93.66 166.226C92.83 166.226 92.16 165.556 92.16 164.726V159.726C92.16 158.896 92.83 158.226 93.66 158.226C94.49 158.226 95.16 158.896 95.16 159.726V164.726C95.16 165.556 94.49 166.226 93.66 166.226ZM51.15 165.716C50.32 165.716 49.65 165.046 49.65 164.216V159.216C49.65 158.386 50.32 157.716 51.15 157.716C51.98 157.716 52.65 158.386 52.65 159.216V164.216C52.65 165.046 51.98 165.716 51.15 165.716ZM70.13 165.116C69.3 165.116 68.63 164.446 68.63 163.616V158.616C68.63 157.786 69.3 157.116 70.13 157.116C70.96 157.116 71.63 157.786 71.63 158.616V163.616C71.63 164.446 70.96 165.116 70.13 165.116ZM74.68 164.606C73.85 164.606 73.18 163.936 73.18 163.106V158.106C73.18 157.276 73.85 156.606 74.68 156.606C75.51 156.606 76.18 157.276 76.18 158.106V163.106C76.18 163.936 75.51 164.606 74.68 164.606ZM93.66 156.226C92.83 156.226 92.16 155.556 92.16 154.726V149.726C92.16 148.896 92.83 148.226 93.66 148.226C94.49 148.226 95.16 148.896 95.16 149.726V154.726C95.16 155.556 94.49 156.226 93.66 156.226ZM51.15 155.716C50.32 155.716 49.65 155.046 49.65 154.216V149.216C49.65 148.386 50.32 147.716 51.15 147.716C51.98 147.716 52.65 148.386 52.65 149.216V154.216C52.65 155.046 51.98 155.716 51.15 155.716ZM70.13 155.116C69.3 155.116 68.63 154.446 68.63 153.616V148.616C68.63 147.786 69.3 147.116 70.13 147.116C70.96 147.116 71.63 147.786 71.63 148.616V153.616C71.63 154.446 70.96 155.116 70.13 155.116ZM74.68 154.606C73.85 154.606 73.18 153.936 73.18 153.106V148.106C73.18 147.276 73.85 146.606 74.68 146.606C75.51 146.606 76.18 147.276 76.18 148.106V153.106C76.18 153.936 75.51 154.606 74.68 154.606ZM93.66 146.226C92.83 146.226 92.16 145.556 92.16 144.726V139.726C92.16 138.896 92.83 138.226 93.66 138.226C94.49 138.226 95.16 138.896 95.16 139.726V144.726C95.16 145.556 94.49 146.226 93.66 146.226ZM51.15 145.716C50.32 145.716 49.65 145.046 49.65 144.216V139.216C49.65 138.386 50.32 137.716 51.15 137.716C51.98 137.716 52.65 138.386 52.65 139.216V144.216C52.65 145.046 51.98 145.716 51.15 145.716ZM70.13 145.116C69.3 145.116 68.63 144.446 68.63 143.616V138.616C68.63 137.786 69.3 137.116 70.13 137.116C70.96 137.116 71.63 137.786 71.63 138.616V143.616C71.63 144.446 70.96 145.116 70.13 145.116ZM74.68 144.606C73.85 144.606 73.18 143.936 73.18 143.106V138.106C73.18 137.276 73.85 136.606 74.68 136.606C75.51 136.606 76.18 137.276 76.18 138.106V143.106C76.18 143.936 75.51 144.606 74.68 144.606ZM93.66 136.226C92.83 136.226 92.16 135.556 92.16 134.726V129.726C92.16 128.896 92.83 128.226 93.66 128.226C94.49 128.226 95.16 128.896 95.16 129.726V134.726C95.16 135.556 94.49 136.226 93.66 136.226ZM51.15 135.716C50.32 135.716 49.65 135.046 49.65 134.216V129.216C49.65 128.386 50.32 127.716 51.15 127.716C51.98 127.716 52.65 128.386 52.65 129.216V134.216C52.65 135.046 51.98 135.716 51.15 135.716ZM70.13 135.116C69.3 135.116 68.63 134.446 68.63 133.616V128.616C68.63 127.786 69.3 127.116 70.13 127.116C70.96 127.116 71.63 127.786 71.63 128.616V133.616C71.63 134.446 70.96 135.116 70.13 135.116ZM74.68 134.606C73.85 134.606 73.18 133.936 73.18 133.106V128.106C73.18 127.276 73.85 126.606 74.68 126.606C75.51 126.606 76.18 127.276 76.18 128.106V133.106C76.18 133.936 75.51 134.606 74.68 134.606ZM93.66 126.226C92.83 126.226 92.16 125.556 92.16 124.726V119.726C92.16 118.896 92.83 118.226 93.66 118.226C94.49 118.226 95.16 118.896 95.16 119.726V124.726C95.16 125.556 94.49 126.226 93.66 126.226ZM51.15 125.716C50.32 125.716 49.65 125.046 49.65 124.216V119.216C49.65 118.386 50.32 117.716 51.15 117.716C51.98 117.716 52.65 118.386 52.65 119.216V124.216C52.65 125.046 51.98 125.716 51.15 125.716ZM70.13 125.116C69.3 125.116 68.63 124.446 68.63 123.616V118.616C68.63 117.786 69.3 117.116 70.13 117.116C70.96 117.116 71.63 117.786 71.63 118.616V123.616C71.63 124.446 70.96 125.116 70.13 125.116ZM74.68 124.606C73.85 124.606 73.18 123.936 73.18 123.106V118.106C73.18 117.276 73.85 116.606 74.68 116.606C75.51 116.606 76.18 117.276 76.18 118.106V123.106C76.18 123.936 75.51 124.606 74.68 124.606ZM106.58 121.316C106.36 121.316 106.14 121.316 105.93 121.296C105.1 121.236 104.48 120.526 104.54 119.696C104.6 118.866 105.3 118.236 106.14 118.306C107.5 118.396 108.88 118.046 109.91 117.316C110.59 116.836 111.52 117.006 112 117.686C112.48 118.366 112.31 119.296 111.63 119.776C110.18 120.796 108.44 121.326 106.58 121.326V121.316ZM38.04 121.296H38C35.9 121.246 33.94 120.496 32.46 119.176C31.84 118.626 31.79 117.676 32.34 117.056C32.89 116.436 33.84 116.386 34.46 116.936C35.41 117.776 36.69 118.256 38.08 118.296C38.91 118.316 39.56 119.006 39.54 119.826C39.52 120.646 38.85 121.286 38.04 121.286V121.296ZM42.75 119.886C42.28 119.886 41.82 119.666 41.53 119.256C41.05 118.586 41.21 117.646 41.88 117.166C42.64 116.626 43.61 115.636 43.94 114.006C44.1 113.196 44.9 112.666 45.71 112.826C46.52 112.986 47.05 113.776 46.89 114.596C46.48 116.656 45.35 118.386 43.63 119.616C43.37 119.806 43.06 119.896 42.76 119.896L42.75 119.886ZM101.5 119.416C101.14 119.416 100.78 119.286 100.49 119.026C98.99 117.656 98.08 115.816 97.84 113.706C97.75 112.886 98.34 112.136 99.16 112.046C99.98 111.956 100.73 112.546 100.82 113.366C100.98 114.766 101.55 115.926 102.51 116.806C103.12 117.366 103.16 118.316 102.61 118.926C102.31 119.246 101.91 119.416 101.5 119.416ZM93.65 116.236C92.82 116.236 92.15 115.566 92.15 114.736V109.736C92.15 108.906 92.82 108.236 93.65 108.236C94.48 108.236 95.15 108.906 95.15 109.736V114.736C95.15 115.566 94.48 116.236 93.65 116.236ZM113.45 115.966C113.33 115.966 113.22 115.956 113.1 115.926C112.29 115.736 111.8 114.926 111.99 114.116C112.06 113.816 112.12 113.496 112.15 113.166C112.28 111.906 112.4 110.646 112.49 109.386C112.55 108.556 113.28 107.946 114.09 107.996C114.92 108.056 115.54 108.776 115.48 109.596C115.39 110.896 115.27 112.186 115.13 113.476C115.08 113.926 115.01 114.376 114.9 114.796C114.73 115.486 114.12 115.946 113.44 115.946L113.45 115.966ZM51.14 115.726C50.31 115.726 49.64 115.056 49.64 114.226V109.226C49.64 108.396 50.31 107.726 51.14 107.726C51.97 107.726 52.64 108.396 52.64 109.226V114.226C52.64 115.056 51.97 115.726 51.14 115.726ZM31.19 115.226C30.47 115.226 29.83 114.706 29.71 113.966C29.68 113.756 29.65 113.536 29.62 113.316C29.46 111.826 29.33 110.326 29.24 108.846C29.18 108.016 29.81 107.306 30.64 107.246C31.45 107.186 32.18 107.816 32.24 108.646C32.34 110.086 32.46 111.556 32.61 113.006C32.63 113.166 32.65 113.326 32.67 113.486C32.8 114.306 32.25 115.076 31.43 115.206C31.35 115.216 31.26 115.226 31.18 115.226H31.19ZM70.27 115.146C70.09 115.146 69.91 115.116 69.74 115.046C68.97 114.756 68.57 113.886 68.87 113.116C69.06 112.616 69.35 112.166 69.73 111.786C71.16 110.346 73.65 110.346 75.08 111.786C75.26 111.966 75.42 112.156 75.56 112.366C76.02 113.056 75.82 113.986 75.13 114.446C74.44 114.906 73.51 114.706 73.05 114.016C73.02 113.976 72.99 113.936 72.95 113.896C72.66 113.606 72.15 113.606 71.86 113.896C71.78 113.976 71.72 114.066 71.68 114.176C71.45 114.776 70.88 115.146 70.28 115.146H70.27ZM45.25 110.826C44.48 110.826 43.82 110.236 43.76 109.446C43.62 107.766 43.53 106.066 43.47 104.376C43.44 103.546 44.09 102.856 44.92 102.826C45.76 102.806 46.44 103.446 46.47 104.276C46.52 105.906 46.62 107.566 46.75 109.196C46.82 110.026 46.2 110.746 45.38 110.816C45.34 110.816 45.3 110.816 45.26 110.816L45.25 110.826ZM99.6 110.056C99.6 110.056 99.52 110.056 99.49 110.056C98.66 109.996 98.04 109.276 98.11 108.446C98.23 106.806 98.32 105.156 98.36 103.526C98.38 102.696 99.07 102.036 99.9 102.066C100.73 102.086 101.38 102.776 101.36 103.606C101.32 105.286 101.23 106.986 101.11 108.676C101.05 109.466 100.39 110.066 99.62 110.066L99.6 110.056ZM93.65 106.236C92.82 106.236 92.15 105.566 92.15 104.736V99.7365C92.15 98.9065 92.82 98.2365 93.65 98.2365C94.48 98.2365 95.15 98.9065 95.15 99.7365V104.736C95.15 105.566 94.48 106.236 93.65 106.236ZM114.25 106.006C114.25 106.006 114.22 106.006 114.2 106.006C113.37 105.986 112.72 105.286 112.75 104.466C112.78 103.336 112.8 102.206 112.8 101.076C112.8 100.566 112.8 100.046 112.79 99.5365C112.78 98.7065 113.44 98.0265 114.27 98.0165H114.29C115.11 98.0165 115.78 98.6765 115.79 99.4965C115.79 100.026 115.8 100.546 115.8 101.076C115.8 102.236 115.78 103.396 115.75 104.556C115.73 105.366 115.06 106.016 114.25 106.016V106.006ZM51.14 105.726C50.31 105.726 49.64 105.056 49.64 104.226V99.2265C49.64 98.3965 50.31 97.7265 51.14 97.7265C51.97 97.7265 52.64 98.3965 52.64 99.2265V104.226C52.64 105.056 51.97 105.726 51.14 105.726ZM30.51 105.256C29.7 105.256 29.03 104.606 29.01 103.796C28.99 102.886 28.98 101.986 28.98 101.076C28.98 100.296 28.98 99.5165 29 98.7265C29.02 97.8965 29.7 97.2165 30.53 97.2565C31.36 97.2765 32.02 97.9565 32 98.7865C31.98 99.5465 31.98 100.306 31.98 101.076C31.98 101.956 31.99 102.846 32.01 103.726C32.03 104.556 31.37 105.246 30.55 105.256C30.54 105.256 30.53 105.256 30.51 105.256ZM44.93 100.836H44.9C44.07 100.826 43.41 100.136 43.43 99.3065C43.46 97.6265 43.53 95.9165 43.64 94.2365C43.7 93.4065 44.41 92.7765 45.24 92.8365C46.07 92.8965 46.69 93.6065 46.64 94.4365C46.53 96.0665 46.46 97.7265 46.43 99.3565C46.42 100.176 45.75 100.826 44.93 100.826V100.836ZM99.86 100.066C99.05 100.066 98.38 99.4165 98.36 98.6065C98.32 96.9665 98.24 95.3065 98.12 93.6865C98.06 92.8565 98.68 92.1465 99.51 92.0765C100.35 92.0265 101.06 92.6365 101.12 93.4665C101.24 95.1365 101.33 96.8465 101.37 98.5365C101.39 99.3665 100.74 100.056 99.91 100.076C99.9 100.076 99.88 100.076 99.87 100.076L99.86 100.066ZM93.66 96.2465C92.83 96.2465 92.16 95.5765 92.16 94.7465V89.7465C92.16 88.9165 92.83 88.2465 93.66 88.2465C94.49 88.2465 95.16 88.9165 95.16 89.7465V94.7465C95.16 95.5765 94.49 96.2465 93.66 96.2465ZM114.12 96.0165C113.33 96.0165 112.67 95.3965 112.62 94.6065C112.53 92.9665 112.4 91.3165 112.23 89.6865C112.15 88.8665 112.75 88.1265 113.57 88.0465C114.39 87.9665 115.13 88.5665 115.21 89.3865C115.38 91.0565 115.51 92.7565 115.61 94.4365C115.66 95.2665 115.02 95.9765 114.2 96.0165C114.17 96.0165 114.14 96.0165 114.11 96.0165H114.12ZM51.15 95.7265C50.32 95.7265 49.65 95.0565 49.65 94.2265V89.2265C49.65 88.3965 50.32 87.7265 51.15 87.7265C51.98 87.7265 52.65 88.3965 52.65 89.2265V94.2265C52.65 95.0565 51.98 95.7265 51.15 95.7265ZM30.72 95.2565C30.72 95.2565 30.66 95.2565 30.62 95.2565C29.79 95.2065 29.16 94.4965 29.22 93.6665C29.33 91.9965 29.47 90.2965 29.65 88.6165C29.74 87.7965 30.48 87.1965 31.3 87.2865C32.12 87.3765 32.72 88.1165 32.63 88.9365C32.45 90.5665 32.31 92.2265 32.21 93.8565C32.16 94.6465 31.5 95.2665 30.71 95.2665L30.72 95.2565ZM45.6 90.8565C45.54 90.8565 45.48 90.8565 45.42 90.8465C44.6 90.7465 44.01 90.0065 44.1 89.1865C44.3 87.5165 44.54 85.8265 44.81 84.1665C44.95 83.3465 45.73 82.7965 46.54 82.9365C47.36 83.0765 47.91 83.8465 47.77 84.6665C47.5 86.2765 47.27 87.9165 47.08 89.5465C46.99 90.3065 46.34 90.8765 45.59 90.8765L45.6 90.8565ZM99.12 90.0865C98.37 90.0865 97.73 89.5265 97.63 88.7665C97.43 87.1365 97.18 85.4965 96.9 83.8965C96.76 83.0765 97.3 82.3065 98.12 82.1665C98.94 82.0265 99.71 82.5665 99.86 83.3865C100.15 85.0365 100.4 86.7265 100.61 88.4065C100.71 89.2265 100.13 89.9765 99.31 90.0765C99.25 90.0765 99.19 90.0865 99.12 90.0865ZM93.65 86.2365C92.82 86.2365 92.15 85.5665 92.15 84.7365V79.7365C92.15 78.9065 92.82 78.2365 93.65 78.2365C94.48 78.2365 95.15 78.9065 95.15 79.7365V84.7365C95.15 85.5665 94.48 86.2365 93.65 86.2365ZM113.11 86.0665C112.38 86.0665 111.73 85.5265 111.63 84.7765C111.39 83.1465 111.12 81.5065 110.82 79.9065C110.67 79.0965 111.2 78.3065 112.02 78.1565C112.82 78.0065 113.62 78.5365 113.77 79.3565C114.08 80.9965 114.36 82.6765 114.6 84.3565C114.72 85.1765 114.15 85.9365 113.33 86.0565C113.26 86.0665 113.18 86.0765 113.11 86.0765V86.0665ZM51.14 85.7265C50.31 85.7265 49.64 85.0565 49.64 84.2265V79.2265C49.64 78.3965 50.31 77.7265 51.14 77.7265C51.97 77.7265 52.64 78.3965 52.64 79.2265V84.2265C52.64 85.0565 51.97 85.7265 51.14 85.7265ZM31.78 85.3165C31.71 85.3165 31.63 85.3165 31.55 85.2965C30.73 85.1765 30.17 84.4065 30.29 83.5865C30.54 81.9265 30.83 80.2465 31.15 78.5965C31.31 77.7865 32.09 77.2465 32.91 77.4165C33.72 77.5765 34.25 78.3665 34.09 79.1765C33.78 80.7865 33.49 82.4165 33.25 84.0365C33.14 84.7765 32.5 85.3165 31.77 85.3165H31.78ZM47.25 80.9965C47.14 80.9965 47.04 80.9865 46.93 80.9565C46.12 80.7765 45.61 79.9765 45.79 79.1665C46.15 77.5165 46.56 75.8565 47 74.2365C47.22 73.4365 48.04 72.9665 48.84 73.1865C49.18 73.2765 49.46 73.4765 49.65 73.7465V71.4365C49.24 71.3065 48.89 71.0065 48.72 70.5765C48.4 69.8065 48.77 68.9365 49.53 68.6165C49.92 68.4565 50.35 68.4065 50.77 68.4765C51.3 68.5665 51.78 68.8365 52.13 69.2565C52.47 69.6665 52.66 70.1865 52.66 70.7165V74.2165C52.66 75.0465 51.99 75.7165 51.16 75.7165C50.63 75.7165 50.17 75.4465 49.9 75.0265C49.47 76.5965 49.08 78.2065 48.73 79.8065C48.58 80.5065 47.96 80.9865 47.27 80.9865L47.25 80.9965ZM97.41 80.2465C96.72 80.2465 96.11 79.7765 95.95 79.0765C95.67 77.8365 95.36 76.5865 95.03 75.3465C94.8 75.8765 94.27 76.2465 93.66 76.2465C92.83 76.2465 92.16 75.5765 92.16 74.7465V70.8265C92.16 70.7565 92.16 70.6865 92.16 70.6165C92.16 70.1365 92.31 69.6765 92.59 69.2865C92.81 68.9865 93.1 68.7365 93.44 68.5765C94.19 68.2165 95.08 68.5265 95.45 69.2665C95.73 69.8465 95.61 70.5265 95.18 70.9665V72.8265C95.35 72.6665 95.57 72.5365 95.81 72.4665C96.61 72.2465 97.44 72.7165 97.66 73.5065C98.11 75.1365 98.53 76.7865 98.9 78.4265C99.08 79.2365 98.57 80.0365 97.77 80.2165C97.66 80.2365 97.55 80.2565 97.44 80.2565L97.41 80.2465ZM111.26 76.2465C110.58 76.2465 109.96 75.7765 109.8 75.0865C109.43 73.4965 109.02 71.8865 108.57 70.3065C108.35 69.5065 108.81 68.6765 109.61 68.4565C110.41 68.2265 111.23 68.6965 111.46 69.4965C111.92 71.1265 112.34 72.7765 112.72 74.3965C112.91 75.2065 112.41 76.0065 111.6 76.1965C111.48 76.2265 111.37 76.2365 111.26 76.2365V76.2465ZM33.69 75.5165C33.57 75.5165 33.46 75.5065 33.34 75.4765C32.53 75.2865 32.04 74.4765 32.23 73.6665C32.62 72.0365 33.06 70.3865 33.52 68.7665C33.75 67.9665 34.57 67.5065 35.38 67.7365C36.18 67.9665 36.64 68.7965 36.41 69.5965C35.96 71.1765 35.53 72.7765 35.15 74.3665C34.98 75.0565 34.37 75.5165 33.69 75.5165ZM108.56 66.6265C107.93 66.6265 107.34 66.2265 107.13 65.5965C106.62 64.0365 106.07 62.4765 105.49 60.9365C105.2 60.1565 105.59 59.2965 106.37 59.0065C107.14 58.7165 108.01 59.1065 108.3 59.8865C108.89 61.4565 109.46 63.0665 109.98 64.6665C110.24 65.4565 109.81 66.2965 109.02 66.5565C108.86 66.6065 108.71 66.6365 108.55 66.6365L108.56 66.6265ZM36.45 65.9065C36.29 65.9065 36.13 65.8765 35.97 65.8265C35.18 65.5665 34.76 64.7165 35.02 63.9265C35.55 62.3265 36.13 60.7265 36.73 59.1565C37.03 58.3865 37.89 57.9965 38.67 58.2965C39.44 58.5965 39.83 59.4565 39.53 60.2365C38.94 61.7665 38.38 63.3265 37.86 64.8865C37.65 65.5165 37.07 65.9065 36.44 65.9065H36.45ZM105.06 57.2465C104.48 57.2465 103.92 56.9065 103.68 56.3365C103.18 55.1765 102.67 54.0165 102.13 52.8665C101.98 52.5565 101.83 52.2465 101.66 51.9465C101.25 51.2265 101.51 50.3065 102.23 49.9065C102.95 49.4965 103.87 49.7565 104.27 50.4765C104.48 50.8365 104.67 51.2165 104.85 51.5965C105.4 52.7765 105.93 53.9665 106.44 55.1665C106.77 55.9265 106.41 56.8065 105.65 57.1365C105.46 57.2165 105.26 57.2565 105.06 57.2565V57.2465ZM40.05 56.5465C39.85 56.5465 39.65 56.5065 39.45 56.4265C38.69 56.0965 38.34 55.2165 38.67 54.4565C39.09 53.4965 39.52 52.5365 39.97 51.5765C40.27 50.9465 40.6 50.3365 40.97 49.7565C41.41 49.0565 42.34 48.8465 43.04 49.2865C43.74 49.7265 43.95 50.6565 43.51 51.3565C43.21 51.8365 42.93 52.3365 42.69 52.8465C42.26 53.7765 41.84 54.7065 41.43 55.6465C41.18 56.2165 40.63 56.5465 40.05 56.5465ZM99.84 48.8365C99.49 48.8365 99.13 48.7165 98.84 48.4565C98.3 47.9765 97.71 47.5265 97.09 47.1365C96.44 46.7265 95.76 46.3665 95.05 46.0665C94.29 45.7465 93.93 44.8665 94.25 44.1065C94.57 43.3465 95.45 42.9865 96.21 43.3065C97.07 43.6665 97.91 44.1065 98.71 44.6065C99.46 45.0865 100.18 45.6265 100.84 46.2165C101.46 46.7665 101.51 47.7165 100.96 48.3365C100.66 48.6665 100.25 48.8365 99.84 48.8365ZM45.55 48.3465C45.11 48.3465 44.68 48.1565 44.38 47.7865C43.86 47.1365 43.96 46.1965 44.61 45.6765C45.09 45.2865 45.6 44.9265 46.12 44.5965C47.14 43.9465 48.24 43.4065 49.38 42.9965C50.16 42.7165 51.02 43.1165 51.3 43.8965C51.58 44.6765 51.18 45.5365 50.4 45.8165C49.47 46.1565 48.57 46.5965 47.73 47.1265C47.3 47.3965 46.88 47.6965 46.49 48.0165C46.21 48.2365 45.88 48.3465 45.55 48.3465ZM90.79 45.0465C90.79 45.0465 90.72 45.0465 90.69 45.0465C90.39 45.0265 90.14 45.0165 89.79 45.0165H84.79C83.96 45.0165 83.29 44.3465 83.29 43.5165C83.29 42.6865 83.96 42.0065 84.78 42.0065H89.78C90.15 41.9865 90.52 42.0165 90.88 42.0465C91.71 42.0965 92.33 42.8165 92.28 43.6465C92.23 44.4365 91.57 45.0465 90.78 45.0465H90.79ZM54.79 45.0165C53.97 45.0165 53.3 44.3565 53.29 43.5365C53.28 42.7065 53.94 42.0265 54.77 42.0165H59.79C60.62 42.0165 61.29 42.6865 61.29 43.5165C61.29 44.3465 60.62 45.0165 59.79 45.0165H54.81C54.81 45.0165 54.8 45.0165 54.79 45.0165ZM79.79 45.0165H74.79C73.96 45.0165 73.29 44.3465 73.29 43.5165C73.29 42.6865 73.96 42.0065 74.78 42.0065H79.78C80.61 42.0065 81.28 42.6765 81.28 43.5065C81.28 44.3365 80.61 45.0065 79.78 45.0065L79.79 45.0165ZM69.79 45.0165H64.79C63.96 45.0165 63.29 44.3465 63.29 43.5165C63.29 42.6865 63.96 42.0065 64.78 42.0065H69.78C70.61 42.0065 71.28 42.6765 71.28 43.5065C71.28 44.3365 70.61 45.0065 69.78 45.0065L69.79 45.0165Z" fill="#C9C9C9"/>
</g>
<g clip-path="url(#clip2_1758_16100)">
<path d="M72.05 37.98C61.54 37.98 53 29.46 53 18.99C53 8.52 61.54 0 72.05 0C82.56 0 91.1 8.52 91.1 18.99C91.1 29.46 82.56 37.98 72.05 37.98ZM72.05 3C63.2 3 56 10.17 56 18.99C56 27.81 63.2 34.98 72.05 34.98C80.9 34.98 88.1 27.81 88.1 18.99C88.1 10.17 80.9 3 72.05 3Z" fill="#EC736D"/>
</g>
<g clip-path="url(#clip3_1758_16100)">
<path d="M58.18 197.178C55.32 197.178 52.57 196.119 50.45 194.191C48.33 192.264 47 189.637 46.71 186.781L39.13 112.125C38.39 108.249 37.92 104.284 37.72 100.24C36.86 104.714 36.36 109.258 36.21 113.803C36.02 119.685 31.47 122.412 27.31 122.472C27.27 122.472 27.23 122.472 27.19 122.472C23.04 122.472 18.48 119.815 18.14 113.922C17.1 93.8176 21.71 73.9027 31.49 56.3248C33.91 51.9403 37.47 48.2749 41.78 45.7281C46.08 43.1913 50.99 41.843 55.98 41.843H86.83C91.87 41.843 96.75 43.1713 101.06 45.7082C105.37 48.245 108.93 51.9104 111.36 56.2948C121.14 73.8727 125.76 93.7877 124.71 113.892C124.38 119.765 119.82 122.412 115.69 122.412C115.65 122.412 115.61 122.412 115.57 122.412C111.27 122.362 106.83 119.375 106.65 113.773C106.5 109.218 106 104.674 105.14 100.2C104.94 104.245 104.47 108.22 103.72 112.095L96.14 186.751C95.85 189.607 94.52 192.234 92.4 194.161C90.28 196.089 87.53 197.148 84.67 197.148C81.62 197.148 78.74 195.959 76.57 193.802C74.4 191.645 73.18 188.778 73.14 185.722L72.15 114.212C72.15 113.982 72.07 113.783 71.92 113.633C71.63 113.343 71.12 113.343 70.83 113.633C70.68 113.783 70.6 113.982 70.6 114.192L69.72 185.752C69.68 188.818 68.47 191.685 66.3 193.832C64.13 195.989 61.25 197.168 58.19 197.168L58.18 197.178ZM41.77 66.6218C42.14 66.6218 42.52 66.7117 42.85 66.8715C43.18 67.0313 43.48 67.281 43.71 67.5806C43.94 67.8803 44.1 68.2298 44.17 68.5894C44.24 68.9589 44.23 69.3384 44.14 69.698C40.27 84.4594 39.58 98.5617 42.09 111.625L42.11 111.755L49.7 186.481C49.92 188.598 50.9 190.546 52.47 191.974C54.04 193.402 56.07 194.181 58.19 194.181C60.45 194.181 62.58 193.302 64.19 191.714C65.8 190.117 66.7 187.989 66.73 185.722L67.61 114.182C67.61 113.193 68 112.244 68.71 111.525C69.42 110.806 70.37 110.417 71.38 110.417C72.39 110.417 73.35 110.826 74.05 111.525C74.76 112.234 75.15 113.183 75.15 114.202L76.14 185.692C76.17 187.959 77.07 190.097 78.68 191.685C80.29 193.283 82.41 194.151 84.67 194.161C86.79 194.161 88.81 193.382 90.38 191.954C91.95 190.526 92.94 188.578 93.15 186.461L100.76 111.605C103.28 98.5517 102.59 84.4394 98.72 69.678C98.63 69.3284 98.61 68.9389 98.68 68.5794C98.75 68.2198 98.91 67.8703 99.14 67.5607C99.37 67.261 99.67 67.0213 100.01 66.8516C100.36 66.6818 100.76 66.6019 101.11 66.6019C101.62 66.5819 102.17 66.7816 102.6 67.1212C103.03 67.4508 103.34 67.9302 103.47 68.4595L103.65 69.1686C105.88 77.6779 107.06 86.4669 107.14 95.2858C108.61 101.308 109.45 107.5 109.65 113.703C109.77 117.618 112.73 119.405 115.61 119.435C118.47 119.485 121.5 117.728 121.72 113.753C122.74 94.2171 118.25 74.8615 108.74 57.773C106.57 53.8579 103.39 50.582 99.54 48.3149C95.71 46.0577 91.33 44.8592 86.89 44.8592H55.98C51.52 44.8592 47.14 46.0577 43.3 48.3249C39.45 50.602 36.27 53.8679 34.11 57.793C24.61 74.8615 20.12 94.2271 21.14 113.763C21.37 117.758 24.33 119.505 27.27 119.475C30.13 119.435 33.08 117.648 33.21 113.713C33.41 107.52 34.25 101.318 35.72 95.2958C35.81 86.4869 36.98 77.6979 39.2 69.1786L39.38 68.4695C39.52 67.9402 39.83 67.4708 40.26 67.1412C40.69 66.8116 41.22 66.6318 41.76 66.6318L41.77 66.6218Z" fill="#EC736D"/>
</g>
</g>
<defs>
<clipPath id="clip0_1758_16100">
<rect width="145" height="200" fill="white"/>
</clipPath>
<clipPath id="clip1_1758_16100">
<rect width="86.82" height="155.53" fill="white" transform="translate(29 42)"/>
</clipPath>
<clipPath id="clip2_1758_16100">
<rect width="38.1" height="37.98" fill="white" transform="translate(53)"/>
</clipPath>
<clipPath id="clip3_1758_16100">
<rect width="106.87" height="155.335" fill="white" transform="translate(18 41.843)"/>
</clipPath>
</defs>
</svg>
