<svg width="168" height="168" viewBox="0 0 168 168" fill="none" xmlns="http://www.w3.org/2000/svg">
<g clip-path="url(#clip0_1251_15855)">
<path opacity="0.2" d="M116.37 110.31C107.86 110.31 100.26 111.81 95.23 114.17C93.7 113.89 92.3 113.67 91.12 113.49C78.53 111.63 17.92 108.08 17.92 108.08C17.92 108.08 -4.67995 112.07 6.03005 121.38C16.74 130.69 41.14 144.53 91.12 133.84C96.46 132.7 100.8 131.59 104.28 130.52C107.93 131.22 112.03 131.61 116.37 131.61C131.52 131.61 143.8 126.84 143.8 120.96C143.8 115.08 131.52 110.31 116.37 110.31Z" fill="#231815"/>
<path d="M94.4301 57.3604V115.7C94.4001 115.8 94.3601 115.9 94.3601 116C94.3601 118.57 103.39 120.66 114.54 120.66C125.69 120.66 134.72 118.58 134.72 116V57.3604H94.4301V57.3604Z" fill="#F95353"/>
<path d="M114.54 62.0202C125.685 62.0202 134.72 59.9338 134.72 57.3602C134.72 54.7865 125.685 52.7002 114.54 52.7002C103.395 52.7002 94.3601 54.7865 94.3601 57.3602C94.3601 59.9338 103.395 62.0202 114.54 62.0202Z" fill="#CE2121"/>
<path d="M153.11 59.36C152.77 59.36 152.43 59.27 152.11 59.09C149.23 57.42 147.17 54.19 144.99 50.77C141.07 44.61 137.01 38.25 127.67 38.25C123.36 38.25 120.19 39.51 118.26 41.99C114.11 47.33 116.45 56.77 116.47 56.87C116.74 57.94 116.1 59.03 115.03 59.3C113.96 59.57 112.87 58.93 112.6 57.86C112.48 57.4 109.75 46.45 115.09 39.55C117.82 36.03 122.05 34.25 127.67 34.25C139.2 34.25 144.28 42.22 148.36 48.62C150.27 51.62 152.08 54.45 154.11 55.63C155.07 56.18 155.39 57.41 154.84 58.36C154.47 59 153.8 59.36 153.11 59.36V59.36Z" fill="#40210F"/>
<path d="M157.91 53.5904L164.86 54.0704L159.17 58.0804L163.74 63.3404L156.88 62.1504L156.4 69.1003L152.38 63.4104L147.13 67.9903L148.32 61.1203L141.37 60.6404L147.06 56.6304L142.48 51.3804L149.35 52.5604L149.82 45.6104L153.84 51.3004L159.09 46.7304L157.91 53.5904Z" fill="#CE2121"/>
<path d="M110.54 84.2C110.54 111.81 87.2599 129.29 58.4099 127.21C16.1399 124.16 -1.00011 103.22 8.96989 80.27C19.9799 54.95 31.3599 30.27 58.9699 30.27C86.5799 30.27 110.54 56.58 110.54 84.2V84.2Z" fill="url(#paint0_linear_1251_15855)"/>
<g opacity="0.8" filter="url(#filter0_d_1251_15855)">
<path d="M77.1401 84.29C85.9767 84.29 93.1401 77.1266 93.1401 68.29C93.1401 59.4535 85.9767 52.29 77.1401 52.29C68.3036 52.29 61.1401 59.4535 61.1401 68.29C61.1401 77.1266 68.3036 84.29 77.1401 84.29Z" fill="white"/>
</g>
<g opacity="0.8" filter="url(#filter1_d_1251_15855)">
<path d="M42.4102 84.29C51.2467 84.29 58.4102 77.1266 58.4102 68.29C58.4102 59.4535 51.2467 52.29 42.4102 52.29C33.5736 52.29 26.4102 59.4535 26.4102 68.29C26.4102 77.1266 33.5736 84.29 42.4102 84.29Z" fill="white"/>
</g>
<path d="M82.1501 72.2402C86.0161 72.2402 89.1501 69.1062 89.1501 65.2402C89.1501 61.3742 86.0161 58.2402 82.1501 58.2402C78.2842 58.2402 75.1501 61.3742 75.1501 65.2402C75.1501 69.1062 78.2842 72.2402 82.1501 72.2402Z" fill="#231815"/>
<path d="M47.4102 72.2402C51.2761 72.2402 54.4102 69.1062 54.4102 65.2402C54.4102 61.3742 51.2761 58.2402 47.4102 58.2402C43.5442 58.2402 40.4102 61.3742 40.4102 65.2402C40.4102 69.1062 43.5442 72.2402 47.4102 72.2402Z" fill="#231815"/>
<path d="M96.1901 80.7702V107.12C96.1901 113.66 91.4301 118.97 85.5501 118.97H33.9901C28.1101 118.97 23.3501 113.66 23.3501 107.12V80.7702C23.3501 74.2302 96.1901 74.2302 96.1901 80.7702V80.7702Z" fill="white"/>
<path d="M32.6702 92.2101C32.6702 92.2101 61.9602 86.6101 84.2102 92.2101" stroke="#EEEEEF" stroke-width="4" stroke-miterlimit="10" stroke-linecap="round"/>
<path d="M32.6702 105.11C32.6702 105.11 61.9602 99.51 84.2102 105.11" stroke="#EEEEEF" stroke-width="4" stroke-miterlimit="10" stroke-linecap="round"/>
<path d="M24.6901 83.9799L10.1201 76.9199" stroke="white" stroke-width="4" stroke-miterlimit="10" stroke-linecap="round"/>
<path d="M24.97 108.36L15.46 112.27" stroke="white" stroke-width="4" stroke-miterlimit="10" stroke-linecap="round"/>
<path d="M93.5901 84.29L109.18 77.71" stroke="white" stroke-width="4" stroke-miterlimit="10" stroke-linecap="round"/>
<path d="M93.1899 111.69L97.8799 113.43" stroke="white" stroke-width="4" stroke-miterlimit="10" stroke-linecap="round"/>
</g>
<defs>
<filter id="filter0_d_1251_15855" x="58.1401" y="51.29" width="36" height="36" filterUnits="userSpaceOnUse" color-interpolation-filters="sRGB">
<feFlood flood-opacity="0" result="BackgroundImageFix"/>
<feColorMatrix in="SourceAlpha" type="matrix" values="0 0 0 0 0 0 0 0 0 0 0 0 0 0 0 0 0 0 127 0" result="hardAlpha"/>
<feOffset dx="-1" dy="1"/>
<feGaussianBlur stdDeviation="1"/>
<feColorMatrix type="matrix" values="0 0 0 0 0 0 0 0 0 0 0 0 0 0 0 0 0 0 0.2 0"/>
<feBlend mode="normal" in2="BackgroundImageFix" result="effect1_dropShadow_1251_15855"/>
<feBlend mode="normal" in="SourceGraphic" in2="effect1_dropShadow_1251_15855" result="shape"/>
</filter>
<filter id="filter1_d_1251_15855" x="23.4102" y="51.29" width="36" height="36" filterUnits="userSpaceOnUse" color-interpolation-filters="sRGB">
<feFlood flood-opacity="0" result="BackgroundImageFix"/>
<feColorMatrix in="SourceAlpha" type="matrix" values="0 0 0 0 0 0 0 0 0 0 0 0 0 0 0 0 0 0 127 0" result="hardAlpha"/>
<feOffset dx="-1" dy="1"/>
<feGaussianBlur stdDeviation="1"/>
<feColorMatrix type="matrix" values="0 0 0 0 0 0 0 0 0 0 0 0 0 0 0 0 0 0 0.2 0"/>
<feBlend mode="normal" in2="BackgroundImageFix" result="effect1_dropShadow_1251_15855"/>
<feBlend mode="normal" in="SourceGraphic" in2="effect1_dropShadow_1251_15855" result="shape"/>
</filter>
<linearGradient id="paint0_linear_1251_15855" x1="73.7199" y1="130.91" x2="41.5999" y2="37.74" gradientUnits="userSpaceOnUse">
<stop stop-color="#F47D00"/>
<stop offset="0.28" stop-color="#FFA000"/>
<stop offset="1" stop-color="#FFD200"/>
</linearGradient>
<clipPath id="clip0_1251_15855">
<rect width="168" height="168" fill="white"/>
</clipPath>
</defs>
</svg>
