<svg width="168" height="168" viewBox="0 0 168 168" fill="none" xmlns="http://www.w3.org/2000/svg">
<g clip-path="url(#clip0_1251_15820)">
<path opacity="0.2" d="M36.7501 116.6C36.7501 116.6 13.4901 120.59 24.5101 129.9C35.5301 139.21 60.6501 153.05 112.11 142.36C163.57 131.67 125.08 123.87 112.11 122.01C99.1401 120.15 36.7501 116.6 36.7501 116.6V116.6Z" fill="#231815"/>
<path d="M132.69 80.05C127.29 53.98 103.66 32.77 80.0202 32.77C58.6402 32.77 43.4702 45.74 30.8302 74.82L20.7402 70.44C29.8202 49.55 45.8402 21.78 80.0102 21.78C94.4402 21.78 109 27.87 121.01 38.93C132.46 49.47 140.43 63.29 143.44 77.83L132.67 80.06L132.69 80.05Z" fill="#F5F5F5"/>
<path d="M130.98 92.0999C130.98 119.71 107.7 137.19 78.85 135.11C36.57 132.06 19.43 111.13 29.41 88.1799C40.42 62.8499 51.8 38.1799 79.41 38.1799C107.02 38.1799 130.98 64.4899 130.98 92.1099V92.0999Z" fill="url(#paint0_linear_1251_15820)"/>
<g opacity="0.8" filter="url(#filter0_d_1251_15820)">
<path d="M98.5703 96.7598C107.407 96.7598 114.57 89.5963 114.57 80.7598C114.57 71.9232 107.407 64.7598 98.5703 64.7598C89.7338 64.7598 82.5703 71.9232 82.5703 80.7598C82.5703 89.5963 89.7338 96.7598 98.5703 96.7598Z" fill="white"/>
</g>
<path d="M98.4697 80.1201C102.336 80.1201 105.47 76.9861 105.47 73.1201C105.47 69.2541 102.336 66.1201 98.4697 66.1201C94.6037 66.1201 91.4697 69.2541 91.4697 73.1201C91.4697 76.9861 94.6037 80.1201 98.4697 80.1201Z" fill="#231815"/>
<g opacity="0.8" filter="url(#filter1_d_1251_15820)">
<path d="M63.8398 96.7598C72.6764 96.7598 79.8398 89.5963 79.8398 80.7598C79.8398 71.9232 72.6764 64.7598 63.8398 64.7598C55.0033 64.7598 47.8398 71.9232 47.8398 80.7598C47.8398 89.5963 55.0033 96.7598 63.8398 96.7598Z" fill="white"/>
</g>
<path d="M63.75 80.1201C67.616 80.1201 70.75 76.9861 70.75 73.1201C70.75 69.2541 67.616 66.1201 63.75 66.1201C59.884 66.1201 56.75 69.2541 56.75 73.1201C56.75 76.9861 59.884 80.1201 63.75 80.1201Z" fill="#231815"/>
<path d="M80.9701 98.3701C88.5701 98.3701 95.4001 102.95 95.6901 103.15C96.6001 103.77 96.8401 105.01 96.2201 105.93C95.6001 106.84 94.3601 107.08 93.4401 106.46C93.3601 106.4 87.3101 102.37 80.9701 102.37C74.6301 102.37 69.8701 106.32 69.8201 106.36C68.9601 107.05 67.7001 106.92 67.0101 106.06C66.3201 105.2 66.4501 103.95 67.3001 103.25C67.5501 103.05 73.4001 98.3701 80.9701 98.3701Z" fill="#231815"/>
<path d="M146.187 73.0832L142.279 72.5846C135.267 71.69 128.857 76.6495 127.962 83.6619L124.992 106.943C124.098 113.956 129.057 120.366 136.07 121.26L139.978 121.759C146.99 122.653 153.4 117.694 154.295 110.681L157.265 87.4001C158.159 80.3877 153.2 73.9778 146.187 73.0832Z" fill="#F5F5F5"/>
<path d="M133.07 120.03L127.78 119.36C124.89 118.99 122.9 115.86 123.35 112.37L127.82 77.3402C128.27 73.8502 130.97 71.3202 133.86 71.6902L139.15 72.3602L133.07 120.03V120.03Z" fill="#C9C9C9"/>
<path d="M15.1794 105.933L19.0317 106.76C25.9436 108.243 32.7491 103.842 34.2322 96.9302L39.1559 73.9824C40.639 67.0705 36.238 60.265 29.3261 58.782L25.4738 57.9554C18.5618 56.4724 11.7563 60.8733 10.2733 67.7853L5.34954 90.733C3.86649 97.6449 8.26747 104.45 15.1794 105.933Z" fill="#F5F5F5"/>
<path d="M22.27 106.59L27.48 107.71C30.33 108.32 33.24 106.03 33.98 102.59L41.39 68.0601C42.13 64.6201 40.42 61.3401 37.56 60.7201L32.35 59.6001L22.27 106.59V106.59Z" fill="#C9C9C9"/>
<path d="M26.56 41.7201C26.47 41.5401 26.36 41.3801 26.26 41.2201C26.24 41.0901 26.2 40.9601 26.14 40.8301L21.41 30.7901L19.07 25.8101L18.9 25.4601C18.53 24.6801 17.6 24.3401 16.81 24.7101C16.75 24.7401 16.7 24.7801 16.64 24.8101C16.58 24.8301 16.52 24.8501 16.46 24.8801L1.79999 31.7801C1.30999 32.0101 0.959986 32.4201 0.789986 32.9001C0.599986 33.3101 0.579986 33.7901 0.789986 34.2301L6.51999 46.4101C5.95999 46.4601 5.38999 46.5901 4.84999 46.8401C2.42999 47.9801 1.39999 50.8601 2.53999 53.2701C3.67999 55.6901 6.55999 56.7201 8.96999 55.5801C11.39 54.4401 12.42 51.5601 11.28 49.1501C11.19 48.9701 11.08 48.8101 10.98 48.6501C10.96 48.5201 10.92 48.3901 10.86 48.2601L6.70999 39.4501L19.24 33.5501L21.8 38.9801C21.24 39.0301 20.67 39.1601 20.13 39.4101C17.71 40.5501 16.68 43.4301 17.82 45.8401C18.96 48.2601 21.84 49.2901 24.25 48.1501C26.67 47.0101 27.7 44.1301 26.56 41.7201V41.7201ZM5.36999 36.6001L4.52999 34.8101L17.06 28.9101L17.9 30.7001L5.36999 36.6001V36.6001Z" fill="#231815"/>
<path d="M148.35 42.59C148.35 42.47 148.33 42.35 148.3 42.23L144.35 27.76C144.11 26.88 143.2 26.36 142.32 26.6C141.44 26.84 140.92 27.75 141.16 28.63L143.85 38.47C143.26 38.41 142.64 38.45 142.03 38.61C139.31 39.35 137.71 42.16 138.45 44.88C139.19 47.6 142 49.2 144.72 48.46C147.31 47.75 148.86 45.18 148.36 42.59H148.35Z" fill="#231815"/>
<path d="M166.67 52.28C165.92 51.75 164.89 51.92 164.36 52.67L158.45 60.99C158.12 60.49 157.7 60.04 157.19 59.68C154.89 58.05 151.71 58.59 150.08 60.88C148.45 63.18 148.99 66.36 151.28 67.99C153.47 69.54 156.44 69.11 158.13 67.09C158.22 67.01 158.3 66.92 158.37 66.82L167.06 54.59C167.59 53.84 167.42 52.81 166.67 52.28Z" fill="#231815"/>
</g>
<defs>
<filter id="filter0_d_1251_15820" x="79.5703" y="63.7598" width="36" height="36" filterUnits="userSpaceOnUse" color-interpolation-filters="sRGB">
<feFlood flood-opacity="0" result="BackgroundImageFix"/>
<feColorMatrix in="SourceAlpha" type="matrix" values="0 0 0 0 0 0 0 0 0 0 0 0 0 0 0 0 0 0 127 0" result="hardAlpha"/>
<feOffset dx="-1" dy="1"/>
<feGaussianBlur stdDeviation="1"/>
<feColorMatrix type="matrix" values="0 0 0 0 0 0 0 0 0 0 0 0 0 0 0 0 0 0 0.2 0"/>
<feBlend mode="normal" in2="BackgroundImageFix" result="effect1_dropShadow_1251_15820"/>
<feBlend mode="normal" in="SourceGraphic" in2="effect1_dropShadow_1251_15820" result="shape"/>
</filter>
<filter id="filter1_d_1251_15820" x="44.8398" y="63.7598" width="36" height="36" filterUnits="userSpaceOnUse" color-interpolation-filters="sRGB">
<feFlood flood-opacity="0" result="BackgroundImageFix"/>
<feColorMatrix in="SourceAlpha" type="matrix" values="0 0 0 0 0 0 0 0 0 0 0 0 0 0 0 0 0 0 127 0" result="hardAlpha"/>
<feOffset dx="-1" dy="1"/>
<feGaussianBlur stdDeviation="1"/>
<feColorMatrix type="matrix" values="0 0 0 0 0 0 0 0 0 0 0 0 0 0 0 0 0 0 0.2 0"/>
<feBlend mode="normal" in2="BackgroundImageFix" result="effect1_dropShadow_1251_15820"/>
<feBlend mode="normal" in="SourceGraphic" in2="effect1_dropShadow_1251_15820" result="shape"/>
</filter>
<linearGradient id="paint0_linear_1251_15820" x1="94.16" y1="138.8" x2="62.03" y2="45.6399" gradientUnits="userSpaceOnUse">
<stop stop-color="#F47D00"/>
<stop offset="0.28" stop-color="#FFA000"/>
<stop offset="1" stop-color="#FFD200"/>
</linearGradient>
<clipPath id="clip0_1251_15820">
<rect width="168" height="168" fill="white"/>
</clipPath>
</defs>
</svg>
