<svg width="168" height="168" viewBox="0 0 168 168" fill="none" xmlns="http://www.w3.org/2000/svg">
<g clip-path="url(#clip0_1251_15838)">
<path d="M96.006 35.9541C96.3901 28.475 90.6385 22.1006 83.1593 21.7165C75.6802 21.3324 69.3058 27.084 68.9217 34.5631L68.3385 45.9182C67.9544 53.3973 73.7061 59.7717 81.1852 60.1558C88.6643 60.5399 95.0387 54.7883 95.4228 47.3092L96.006 35.9541Z" fill="#1A8E64"/>
<path d="M77.1 44.03C76.12 46.51 73.7 47.65 71.78 46.4C68.9 44.52 67.04 40.62 67.26 36.23C67.49 31.84 69.74 28.16 72.79 26.58C74.83 25.53 77.12 26.91 77.84 29.48C78.4 31.47 78.89 34.07 78.75 36.82C78.61 39.57 77.86 42.11 77.1 44.03V44.03Z" fill="white"/>
<path d="M73.61 39.49C73.12 40.73 71.91 41.3 70.95 40.67C69.51 39.73 68.58 37.78 68.69 35.59C68.8 33.4 69.93 31.55 71.46 30.76C72.48 30.23 73.62 30.92 73.99 32.21C74.27 33.2 74.51 34.5 74.44 35.88C74.37 37.26 73.99 38.53 73.61 39.49V39.49Z" fill="#231815"/>
<path d="M25.2001 57.97C26.9232 57.97 28.3201 56.5732 28.3201 54.85C28.3201 53.1269 26.9232 51.73 25.2001 51.73C23.477 51.73 22.0801 53.1269 22.0801 54.85C22.0801 56.5732 23.477 57.97 25.2001 57.97Z" fill="#231815"/>
<path d="M35.15 57.97C36.8732 57.97 38.27 56.5732 38.27 54.85C38.27 53.1269 36.8732 51.73 35.15 51.73C33.4269 51.73 32.03 53.1269 32.03 54.85C32.03 56.5732 33.4269 57.97 35.15 57.97Z" fill="#231815"/>
<path d="M45.1 57.97C46.8231 57.97 48.22 56.5732 48.22 54.85C48.22 53.1269 46.8231 51.73 45.1 51.73C43.3769 51.73 41.98 53.1269 41.98 54.85C41.98 56.5732 43.3769 57.97 45.1 57.97Z" fill="#231815"/>
<path opacity="0.2" d="M44.5201 116.67C44.5201 116.67 21.2601 120.66 32.2801 129.97C43.3001 139.28 68.4201 153.12 119.88 142.43C171.34 131.74 132.85 123.94 119.88 122.08C106.91 120.22 44.5201 116.67 44.5201 116.67V116.67Z" fill="#231815"/>
<path d="M142.5 88.06C147.34 119.52 125.06 137.52 93.04 133.56C53.46 128.67 36.06 116.36 46.12 84.33C53.99 59.29 67.36 36.8 93.56 36.8C119.76 36.8 138.5 62.12 142.49 88.06H142.5Z" fill="url(#paint0_linear_1251_15838)"/>
<path d="M81.4101 131.51C41.3001 128.61 33.3401 113.44 42.8001 91.62C52.5401 69.17 53.5601 48.6 73.4701 44.4C75.9501 43.88 78.1301 46.24 77.7201 48.74C76.1101 58.63 73.0901 83.04 76.8601 109.85L81.4101 131.5V131.51Z" fill="url(#paint1_linear_1251_15838)"/>
<path d="M134.647 48.4096C135.031 40.9305 129.279 34.556 121.8 34.1719C114.321 33.7878 107.946 39.5395 107.562 47.0186L106.979 58.3736C106.595 65.8528 112.347 72.2272 119.826 72.6113C127.305 72.9954 133.679 67.2437 134.063 59.7646L134.647 48.4096Z" fill="url(#paint2_linear_1251_15838)"/>
<path d="M115.74 56.48C114.76 58.96 112.34 60.1 110.42 58.85C107.54 56.97 105.68 53.07 105.9 48.68C106.13 44.29 108.38 40.61 111.43 39.03C113.47 37.98 115.76 39.36 116.48 41.93C117.04 43.92 117.53 46.52 117.39 49.27C117.25 52.02 116.5 54.56 115.74 56.48V56.48Z" fill="white"/>
<path d="M112.32 52.75C111.83 53.99 110.62 54.56 109.66 53.93C108.22 52.99 107.29 51.04 107.4 48.85C107.51 46.66 108.64 44.81 110.17 44.02C111.19 43.49 112.33 44.18 112.7 45.47C112.98 46.46 113.22 47.76 113.15 49.14C113.08 50.52 112.7 51.79 112.32 52.75V52.75Z" fill="#231815"/>
<g opacity="0.8" filter="url(#filter0_d_1251_15838)">
<path d="M65.9601 96.22C64.3501 100.1 60.3801 101.87 57.2101 99.9C52.4601 96.94 49.3701 90.85 49.7301 83.98C50.0801 77.11 53.7801 71.37 58.8001 68.91C62.1501 67.27 65.9301 69.44 67.1301 73.46C68.0601 76.57 68.8701 80.64 68.6501 84.95C68.4301 89.26 67.2001 93.22 65.9601 96.22V96.22Z" fill="white"/>
</g>
<path d="M65.6402 90.56C64.8502 92.25 62.8702 93.01 61.2802 92.13C58.9002 90.82 57.3302 88.16 57.4902 85.16C57.6402 82.17 59.4702 79.67 61.9802 78.62C63.6502 77.92 65.5402 78.87 66.1602 80.63C66.6302 81.99 67.0602 83.77 66.9602 85.64C66.8602 87.51 66.2602 89.24 65.6502 90.55L65.6402 90.56Z" fill="#231815"/>
</g>
<defs>
<filter id="filter0_d_1251_15838" x="46.7017" y="66.3592" width="22.9849" height="36.3517" filterUnits="userSpaceOnUse" color-interpolation-filters="sRGB">
<feFlood flood-opacity="0" result="BackgroundImageFix"/>
<feColorMatrix in="SourceAlpha" type="matrix" values="0 0 0 0 0 0 0 0 0 0 0 0 0 0 0 0 0 0 127 0" result="hardAlpha"/>
<feOffset dx="-1"/>
<feGaussianBlur stdDeviation="1"/>
<feColorMatrix type="matrix" values="0 0 0 0 0 0 0 0 0 0 0 0 0 0 0 0 0 0 0.2 0"/>
<feBlend mode="normal" in2="BackgroundImageFix" result="effect1_dropShadow_1251_15838"/>
<feBlend mode="normal" in="SourceGraphic" in2="effect1_dropShadow_1251_15838" result="shape"/>
</filter>
<linearGradient id="paint0_linear_1251_15838" x1="108.9" y1="133.06" x2="64.49" y2="25.68" gradientUnits="userSpaceOnUse">
<stop stop-color="#1AB064"/>
<stop offset="1" stop-color="#047961"/>
</linearGradient>
<linearGradient id="paint1_linear_1251_15838" x1="78.2101" y1="135.94" x2="50.4501" y2="55.43" gradientUnits="userSpaceOnUse">
<stop stop-color="#F47D00"/>
<stop offset="0.28" stop-color="#FFA000"/>
<stop offset="1" stop-color="#FFD200"/>
</linearGradient>
<linearGradient id="paint2_linear_1251_15838" x1="128.922" y1="44.6194" x2="110.102" y2="64.9494" gradientUnits="userSpaceOnUse">
<stop stop-color="#109262"/>
<stop offset="0.34" stop-color="#139B63"/>
<stop offset="1" stop-color="#109A64" stop-opacity="0"/>
</linearGradient>
<clipPath id="clip0_1251_15838">
<rect width="168" height="168" fill="white"/>
</clipPath>
</defs>
</svg>
