<svg width="168" height="168" viewBox="0 0 168 168" fill="none" xmlns="http://www.w3.org/2000/svg">
<g clip-path="url(#clip0_1251_15801)">
<path d="M112.9 20.16C114.822 20.16 116.38 18.6019 116.38 16.68C116.38 14.758 114.822 13.2 112.9 13.2C110.978 13.2 109.42 14.758 109.42 16.68C109.42 18.6019 110.978 20.16 112.9 20.16Z" fill="#FFD550"/>
<path opacity="0.6" d="M46.3999 20.13C48.2169 20.13 49.6899 18.6571 49.6899 16.84C49.6899 15.023 48.2169 13.55 46.3999 13.55C44.5828 13.55 43.1099 15.023 43.1099 16.84C43.1099 18.6571 44.5828 20.13 46.3999 20.13Z" fill="#FFD550"/>
<path d="M117.57 29.91C114.66 29.91 111.92 30.6 109.47 31.8C106.8 28.06 102.77 25.36 98.0999 24.42C95.7199 14.69 86.9499 7.45996 76.4799 7.45996C64.1899 7.45996 54.2199 17.43 54.2199 29.72C54.2199 29.8 54.2199 29.88 54.2199 29.95C53.9199 29.94 53.6299 29.9 53.3299 29.9C43.1299 29.9 34.8599 38.17 34.8599 48.37C34.8599 58.57 43.1299 66.84 53.3299 66.84C53.6299 66.84 53.9199 66.81 54.2199 66.8V66.84L70.8399 66.77L69.3899 84.49H101.51L100.05 66.64L120.79 66.55C129.45 65.02 136.04 57.48 136.04 48.38C136.04 38.18 127.77 29.91 117.57 29.91V29.91Z" fill="#EFEFEF"/>
<path opacity="0.2" d="M40.8099 130.9C40.8099 130.9 18.4699 134.89 29.0599 144.2C39.6499 153.51 63.7699 167.35 113.17 156.66C162.58 145.97 125.62 138.17 113.17 136.31C100.72 134.45 40.8099 130.9 40.8099 130.9V130.9Z" fill="#231815"/>
<path d="M125.37 75.3803L114.78 81.7303L101.67 73.8703L88.5599 81.7303L75.4499 73.8703L62.3399 81.7403L48.6599 73.5303C43.0199 81.9803 38.4899 92.1403 34.0299 102.41C24.0599 125.36 41.1999 146.3 83.4799 149.34C112.33 151.42 135.61 133.95 135.61 106.33C135.61 95.2703 131.76 84.4103 125.37 75.3803V75.3803Z" fill="url(#paint0_linear_1251_15801)"/>
<path opacity="0.3" d="M137.96 79.0201C139.882 79.0201 141.44 77.462 141.44 75.5401C141.44 73.6181 139.882 72.0601 137.96 72.0601C136.038 72.0601 134.48 73.6181 134.48 75.5401C134.48 77.462 136.038 79.0201 137.96 79.0201Z" fill="#FFD550"/>
<path d="M34.8398 73.1103C36.6568 73.1103 38.1298 71.6373 38.1298 69.8203C38.1298 68.0033 36.6568 66.5303 34.8398 66.5303C33.0228 66.5303 31.5498 68.0033 31.5498 69.8203C31.5498 71.6373 33.0228 73.1103 34.8398 73.1103Z" fill="#FFD550"/>
<path d="M148.64 44.98C150.562 44.98 152.12 43.422 152.12 41.5C152.12 39.5781 150.562 38.02 148.64 38.02C146.718 38.02 145.16 39.5781 145.16 41.5C145.16 43.422 146.718 44.98 148.64 44.98Z" fill="#FFD550"/>
<path opacity="0.4" d="M19.1699 53.2599C20.9869 53.2599 22.4599 51.7869 22.4599 49.9699C22.4599 48.1529 20.9869 46.6799 19.1699 46.6799C17.3529 46.6799 15.8799 48.1529 15.8799 49.9699C15.8799 51.7869 17.3529 53.2599 19.1699 53.2599Z" fill="#FFD550"/>
<g opacity="0.8" filter="url(#filter0_d_1251_15801)">
<path d="M100.8 118.75C109.636 118.75 116.8 111.587 116.8 102.75C116.8 93.9134 109.636 86.75 100.8 86.75C91.9632 86.75 84.7998 93.9134 84.7998 102.75C84.7998 111.587 91.9632 118.75 100.8 118.75Z" fill="white"/>
</g>
<path d="M99.4399 112.68C103.306 112.68 106.44 109.546 106.44 105.68C106.44 101.814 103.306 98.6797 99.4399 98.6797C95.5739 98.6797 92.4399 101.814 92.4399 105.68C92.4399 109.546 95.5739 112.68 99.4399 112.68Z" fill="#231815"/>
<g opacity="0.8" filter="url(#filter1_d_1251_15801)">
<path d="M66.0798 118.75C74.9164 118.75 82.0798 111.587 82.0798 102.75C82.0798 93.9134 74.9164 86.75 66.0798 86.75C57.2433 86.75 50.0798 93.9134 50.0798 102.75C50.0798 111.587 57.2433 118.75 66.0798 118.75Z" fill="white"/>
</g>
<path d="M64.7097 112.68C68.5757 112.68 71.7097 109.546 71.7097 105.68C71.7097 101.814 68.5757 98.6797 64.7097 98.6797C60.8437 98.6797 57.7097 101.814 57.7097 105.68C57.7097 109.546 60.8437 112.68 64.7097 112.68Z" fill="#231815"/>
<path d="M93.2597 136.99C97.5197 136.99 99.9297 132.09 97.3097 128.72C94.2697 124.8 89.1897 122.23 83.4397 122.23C77.6897 122.23 72.6097 124.8 69.5697 128.72C66.9597 132.09 69.3697 136.99 73.6197 136.99H93.2597V136.99Z" fill="#F95353"/>
</g>
<defs>
<filter id="filter0_d_1251_15801" x="81.7998" y="85.75" width="36" height="36" filterUnits="userSpaceOnUse" color-interpolation-filters="sRGB">
<feFlood flood-opacity="0" result="BackgroundImageFix"/>
<feColorMatrix in="SourceAlpha" type="matrix" values="0 0 0 0 0 0 0 0 0 0 0 0 0 0 0 0 0 0 127 0" result="hardAlpha"/>
<feOffset dx="-1" dy="1"/>
<feGaussianBlur stdDeviation="1"/>
<feColorMatrix type="matrix" values="0 0 0 0 0 0 0 0 0 0 0 0 0 0 0 0 0 0 0.2 0"/>
<feBlend mode="normal" in2="BackgroundImageFix" result="effect1_dropShadow_1251_15801"/>
<feBlend mode="normal" in="SourceGraphic" in2="effect1_dropShadow_1251_15801" result="shape"/>
</filter>
<filter id="filter1_d_1251_15801" x="47.0798" y="85.75" width="36" height="36" filterUnits="userSpaceOnUse" color-interpolation-filters="sRGB">
<feFlood flood-opacity="0" result="BackgroundImageFix"/>
<feColorMatrix in="SourceAlpha" type="matrix" values="0 0 0 0 0 0 0 0 0 0 0 0 0 0 0 0 0 0 127 0" result="hardAlpha"/>
<feOffset dx="-1" dy="1"/>
<feGaussianBlur stdDeviation="1"/>
<feColorMatrix type="matrix" values="0 0 0 0 0 0 0 0 0 0 0 0 0 0 0 0 0 0 0.2 0"/>
<feBlend mode="normal" in2="BackgroundImageFix" result="effect1_dropShadow_1251_15801"/>
<feBlend mode="normal" in="SourceGraphic" in2="effect1_dropShadow_1251_15801" result="shape"/>
</filter>
<linearGradient id="paint0_linear_1251_15801" x1="98.7799" y1="153.04" x2="66.6599" y2="59.8703" gradientUnits="userSpaceOnUse">
<stop stop-color="#F47D00"/>
<stop offset="0.28" stop-color="#FFA000"/>
<stop offset="1" stop-color="#FFD200"/>
</linearGradient>
<clipPath id="clip0_1251_15801">
<rect width="168" height="168" fill="white"/>
</clipPath>
</defs>
</svg>
