<svg width="98" height="121" viewBox="0 0 98 121" fill="none" xmlns="http://www.w3.org/2000/svg">
<g filter="url(#filter0_d_1702_17395)">
<path d="M44.2855 107.191C39.4795 103.236 45.278 90.5747 57.239 78.9097C69.1985 67.2461 82.7894 60.9976 87.5953 64.9539C92.4013 68.9088 86.6014 81.5704 74.6419 93.234C62.6823 104.898 49.0915 111.146 44.2855 107.191Z" fill="#FFB959"/>
<path d="M87.6116 64.9757L44.3062 107.212L48.9787 111.058L92.2841 68.8211L87.6116 64.9757Z" fill="#FFB959"/>
<path d="M48.9997 111.071C44.1937 107.117 49.9937 94.455 61.9532 82.79C73.9127 71.1263 87.505 64.8778 92.311 68.8341C97.117 72.7891 91.317 85.4506 79.3575 97.1143C67.398 108.778 53.8056 115.025 48.9997 111.07V111.071Z" fill="#FFDB59"/>
<path d="M53.1893 107.758C49.4547 104.684 54.4398 94.3788 64.3218 84.7409C74.2054 75.103 85.2453 69.7803 88.9799 72.8543C92.7145 75.9282 87.7294 86.2337 77.8459 95.8716C67.9623 105.511 56.9224 110.832 53.1878 107.758H53.1893Z" fill="#FFB959"/>
<path d="M53.6656 106.714C50.098 103.777 54.8599 93.9315 64.3019 84.7246C73.7439 75.5163 84.2906 70.4329 87.8583 73.3682C91.4259 76.3049 86.664 86.1494 77.222 95.3577C67.78 104.566 57.2333 109.651 53.6656 106.714Z" fill="#FFDB59"/>
<path d="M61.3275 101.693L64.411 98.6857C65.7434 98.7578 67.5826 97.6035 69.6419 95.5941C72.1473 93.151 72.5904 91.7833 72.4615 90.4155L72.3795 89.5196C72.2763 88.6046 72.6633 87.9139 73.9258 86.6822C75.2097 85.4314 76.278 85.0126 76.888 85.5157C77.492 86.0119 77.5375 86.7692 77.495 87.4204L79.2994 85.6612C79.3631 85.2125 79.3889 84.7339 79.1673 84.2934L82.4148 81.1257L81.5073 80.3793L78.3069 83.5008C77.055 83.0127 75.0276 84.1412 72.9091 86.2077C70.5433 88.5149 69.9409 89.9302 70.0729 91.1578L70.1351 92.0728C70.2398 93.0966 69.8893 93.8185 68.607 95.0707C67.1623 96.4778 65.9164 97.11 65.1394 96.471C64.5522 95.987 64.3959 95.174 64.5082 94.293L62.7236 96.0332C62.5506 96.8394 62.6522 97.6185 63.2486 98.1881L60.4185 100.948L61.3259 101.694L61.3275 101.693Z" fill="#FFB959"/>
</g>
<g filter="url(#filter1_d_1702_17395)">
<path d="M42.249 73.965C38.7652 77.3627 27.6132 73.2629 17.3394 64.8067C7.06564 56.3531 1.5612 46.7441 5.04647 43.3452C8.53035 39.9476 19.6824 44.0474 29.9561 52.5023C40.2299 60.9572 45.7329 70.5662 42.249 73.9638V73.965Z" fill="#FFB959"/>
<path d="M8.4599 40.0288L5.07275 43.3324L42.275 73.9486L45.6621 70.6451L8.4599 40.0288Z" fill="#FFB959"/>
<path d="M45.666 70.6332C42.1821 74.0309 31.0301 69.9311 20.7563 61.4749C10.4826 53.0201 4.97954 43.4111 8.46341 40.0134C11.9473 36.6158 23.0993 40.7156 33.3731 49.1717C43.6454 57.6266 49.1499 67.2356 45.666 70.6345V70.6332Z" fill="#FFDB59"/>
<path d="M42.7481 67.6713C40.0411 70.312 30.9638 66.7874 22.473 59.8004C13.9836 52.8134 9.29485 45.0071 12.0033 42.3677C14.7103 39.7283 23.7876 43.2517 32.277 50.2387C40.7665 57.2269 45.4552 65.0319 42.7467 67.6713H42.7481Z" fill="#FFB959"/>
<path d="M41.8276 67.334C39.24 69.8564 30.5686 66.4899 22.4585 59.8142C14.3485 53.1384 9.86958 45.6833 12.4557 43.1596C15.0419 40.6373 23.7134 44.0038 31.8234 50.6795C39.9349 57.3553 44.4124 64.8116 41.8262 67.334H41.8276Z" fill="#FFDB59"/>
<path d="M37.4057 61.9168L34.757 59.7368C34.8196 58.7956 33.8037 57.4945 32.0347 56.0379C29.8821 54.2662 28.6773 53.9537 27.4738 54.0446L26.6845 54.1031C25.8785 54.1766 25.2698 53.9027 24.1845 53.01C23.0825 52.1024 22.7142 51.3467 23.1575 50.9159C23.5953 50.4889 24.2623 50.4577 24.8349 50.4864L23.2854 49.2102C22.8907 49.1654 22.4697 49.1467 22.0806 49.3036L19.2901 47.0078L18.6328 47.649L21.3829 49.9112C20.9535 50.7951 21.9472 52.2294 23.7662 53.7271C25.7979 55.4004 27.0444 55.8262 28.1256 55.7329L28.9316 55.688C29.8335 55.6146 30.4699 55.8611 31.5719 56.7687C32.8115 57.7896 33.3688 58.6711 32.8046 59.2201C32.3793 59.636 31.6623 59.7455 30.8854 59.6671L32.4182 60.9283C33.1283 61.0503 33.8134 60.9781 34.3151 60.5573L36.747 62.558L37.4043 61.9168H37.4057Z" fill="#FFB959"/>
</g>
<g filter="url(#filter2_d_1702_17395)">
<path d="M85.2151 3.86291C88.634 6.67746 84.5089 15.6845 75.9996 23.9815C67.4919 32.2785 57.8232 36.7237 54.4044 33.9092C50.9855 31.0946 55.1106 22.0875 63.6184 13.7905C72.1261 5.49353 81.7948 1.04837 85.2136 3.86156L85.2151 3.86291Z" fill="#FFB959"/>
<path d="M81.8725 1.10279L51.0654 31.1495L54.3902 33.8857L85.1972 3.83895L81.8725 1.10279Z" fill="#FFB959"/>
<path d="M81.8631 1.10252C85.282 3.91571 81.1554 12.9242 72.6476 21.2212C64.1398 29.5182 54.4712 33.9633 51.0523 31.1488C47.6334 28.3356 51.7585 19.3285 60.2678 11.0301C68.7756 2.73314 78.4442 -1.71202 81.8631 1.10252V1.10252Z" fill="#FFDB59"/>
<path d="M78.8819 3.45951C81.5385 5.64543 77.9923 12.9771 70.9621 19.8349C63.9319 26.6914 56.0773 30.4781 53.4207 28.2908C50.7641 26.1035 54.3103 18.7732 61.342 11.9167C68.3737 5.06026 76.2268 1.27359 78.8834 3.45951H78.8819Z" fill="#FFB959"/>
<path d="M78.5425 4.20237C81.0809 6.2919 77.6923 13.295 70.9758 19.846C64.2578 26.397 56.7563 30.0139 54.2179 27.9244C51.6795 25.8349 55.068 18.8318 61.7845 12.2821C68.501 5.73116 76.0041 2.11421 78.5425 4.20373V4.20237Z" fill="#FFDB59"/>
<path d="M73.0919 7.77438L70.899 9.91279C69.9519 9.86119 68.6425 10.6826 67.1771 12.1123C65.3949 13.8502 65.0797 14.8236 65.1706 15.7958L65.2297 16.4325C65.304 17.0842 65.0281 17.5757 64.1295 18.4515C63.2172 19.3408 62.4564 19.6395 62.0215 19.281C61.5911 18.928 61.5593 18.389 61.5896 17.926L60.306 19.1778C60.2605 19.4969 60.2423 19.8377 60.3999 20.1513L58.0889 22.4051L58.7345 22.936L61.0107 20.7148C61.9002 21.0623 63.343 20.2599 64.8508 18.7895C66.5345 17.1481 66.9619 16.142 66.8679 15.269L66.824 14.6173C66.7497 13.8882 66.9982 13.375 67.9105 12.4843C68.938 11.4823 69.8246 11.0329 70.3777 11.4877C70.796 11.8312 70.9066 12.4096 70.8263 13.0369L72.0962 11.7987C72.219 11.2243 72.1463 10.6717 71.7234 10.2658L73.7375 8.30253L73.0919 7.77167V7.77438Z" fill="#FFB959"/>
</g>
<defs>
<filter id="filter0_d_1702_17395" x="38.5962" y="63.766" width="59.4038" height="56.4915" filterUnits="userSpaceOnUse" color-interpolation-filters="sRGB">
<feFlood flood-opacity="0" result="BackgroundImageFix"/>
<feColorMatrix in="SourceAlpha" type="matrix" values="0 0 0 0 0 0 0 0 0 0 0 0 0 0 0 0 0 0 127 0" result="hardAlpha"/>
<feOffset dy="4"/>
<feGaussianBlur stdDeviation="2"/>
<feComposite in2="hardAlpha" operator="out"/>
<feColorMatrix type="matrix" values="0 0 0 0 0 0 0 0 0 0 0 0 0 0 0 0 0 0 0.25 0"/>
<feBlend mode="normal" in2="BackgroundImageFix" result="effect1_dropShadow_1702_17395"/>
<feBlend mode="normal" in="SourceGraphic" in2="effect1_dropShadow_1702_17395" result="shape"/>
</filter>
<filter id="filter1_d_1702_17395" x="0" y="38.8192" width="50.7119" height="44.3401" filterUnits="userSpaceOnUse" color-interpolation-filters="sRGB">
<feFlood flood-opacity="0" result="BackgroundImageFix"/>
<feColorMatrix in="SourceAlpha" type="matrix" values="0 0 0 0 0 0 0 0 0 0 0 0 0 0 0 0 0 0 127 0" result="hardAlpha"/>
<feOffset dy="4"/>
<feGaussianBlur stdDeviation="2"/>
<feComposite in2="hardAlpha" operator="out"/>
<feColorMatrix type="matrix" values="0 0 0 0 0 0 0 0 0 0 0 0 0 0 0 0 0 0 0.25 0"/>
<feBlend mode="normal" in2="BackgroundImageFix" result="effect1_dropShadow_1702_17395"/>
<feBlend mode="normal" in="SourceGraphic" in2="effect1_dropShadow_1702_17395" result="shape"/>
</filter>
<filter id="filter2_d_1702_17395" x="45.8506" y="0.257446" width="44.5664" height="42.4968" filterUnits="userSpaceOnUse" color-interpolation-filters="sRGB">
<feFlood flood-opacity="0" result="BackgroundImageFix"/>
<feColorMatrix in="SourceAlpha" type="matrix" values="0 0 0 0 0 0 0 0 0 0 0 0 0 0 0 0 0 0 127 0" result="hardAlpha"/>
<feOffset dy="4"/>
<feGaussianBlur stdDeviation="2"/>
<feComposite in2="hardAlpha" operator="out"/>
<feColorMatrix type="matrix" values="0 0 0 0 0 0 0 0 0 0 0 0 0 0 0 0 0 0 0.25 0"/>
<feBlend mode="normal" in2="BackgroundImageFix" result="effect1_dropShadow_1702_17395"/>
<feBlend mode="normal" in="SourceGraphic" in2="effect1_dropShadow_1702_17395" result="shape"/>
</filter>
</defs>
</svg>
