<svg width="168" height="168" viewBox="0 0 168 168" fill="none" xmlns="http://www.w3.org/2000/svg">
<g clip-path="url(#clip0_1251_15895)">
<path opacity="0.2" d="M44.2599 127.04C44.2599 127.04 21.6599 131.03 32.3699 140.34C43.0799 149.65 67.4799 163.49 117.46 152.8C167.44 142.11 130.05 134.31 117.46 132.45C104.87 130.59 44.2599 127.04 44.2599 127.04V127.04Z" fill="#231815"/>
<path d="M136.89 103.15C136.89 130.76 113.61 148.24 84.7599 146.16C42.4799 143.11 25.3399 122.18 35.3199 99.23C46.3299 73.9 57.7099 49.23 85.3199 49.23C112.93 49.23 136.89 75.54 136.89 103.16V103.15Z" fill="url(#paint0_linear_1251_15895)"/>
<path d="M100.13 106.54H103.14C110.52 106.54 114.7 113.07 110.17 117.55C106.94 120.75 102.37 123.28 97.03 124.75C93.66 125.68 89.98 126.2 86.12 126.2C81.4 126.2 76.96 125.43 73.01 124.07C68.61 122.55 64.85 120.31 62.07 117.55C57.54 113.07 61.71 106.54 69.1 106.54H100.13V106.54Z" fill="#F95353"/>
<g filter="url(#filter0_d_1251_15895)">
<path d="M132.83 77.64H43.8C42.56 77.64 41.55 78.65 41.55 79.89C41.55 81.13 42.56 82.14 43.8 82.14H46.75C47.23 93.82 55.9901 103.13 66.7301 103.13C77.4701 103.13 86.23 93.82 86.71 82.14H89.95C90.43 93.82 99.1901 103.13 109.93 103.13C120.67 103.13 129.43 93.82 129.91 82.14H132.86C134.1 82.14 135.11 81.13 135.11 79.89C135.11 78.65 134.1 77.64 132.86 77.64H132.83Z" fill="#231815"/>
</g>
<path opacity="0.3" d="M110.28 101.27H105.85L117.64 82.88H122.07L110.28 101.27Z" fill="#7F6A65"/>
<path opacity="0.3" d="M118.46 98.15H114.78L124.57 82.88H128.25L118.46 98.15Z" fill="#7F6A65"/>
<path d="M24.45 52.73L20.04 59.84L8.48999 48.29L15.6 41.18L24.45 52.73Z" fill="#E75E53"/>
<path d="M16.62 90.34L9.5 85.94L21.06 74.39L28.17 81.5L16.62 90.34Z" fill="#178BFF"/>
<path d="M62.5701 16.96L58.9901 22.75L49.5701 13.34L55.3701 7.54999L62.5701 16.96Z" fill="#178BFF"/>
<path d="M119.54 42.95L123.05 48.62L132.26 39.41L126.59 33.74L119.54 42.95Z" fill="#FD6C5B"/>
<path d="M49.99 46.82C52.3207 46.82 54.21 44.9306 54.21 42.6C54.21 40.2694 52.3207 38.38 49.99 38.38C47.6594 38.38 45.77 40.2694 45.77 42.6C45.77 44.9306 47.6594 46.82 49.99 46.82Z" fill="#73C34C"/>
<path d="M155.28 74.95C157.611 74.95 159.5 73.0606 159.5 70.73C159.5 68.3993 157.611 66.51 155.28 66.51C152.949 66.51 151.06 68.3993 151.06 70.73C151.06 73.0606 152.949 74.95 155.28 74.95Z" fill="#178BFF"/>
<path d="M127.86 18.33C130.191 18.33 132.08 16.4406 132.08 14.11C132.08 11.7793 130.191 9.88998 127.86 9.88998C125.529 9.88998 123.64 11.7793 123.64 14.11C123.64 16.4406 125.529 18.33 127.86 18.33Z" fill="#FFD550"/>
<path d="M100.54 121.89C100.54 113.926 94.0841 107.47 86.1202 107.47C78.1563 107.47 71.7002 113.926 71.7002 121.89V145.51C71.7002 153.474 78.1563 159.93 86.1202 159.93C94.0841 159.93 100.54 153.474 100.54 145.51V121.89Z" fill="url(#paint1_linear_1251_15895)"/>
<path d="M100.54 121.89C100.54 113.926 94.0841 107.47 86.1202 107.47C78.1563 107.47 71.7002 113.926 71.7002 121.89V145.51C71.7002 153.474 78.1563 159.93 86.1202 159.93C94.0841 159.93 100.54 153.474 100.54 145.51V121.89Z" fill="url(#paint2_linear_1251_15895)"/>
<path d="M71.1101 133.17V145.45C71.1101 153.74 77.8301 160.45 86.1101 160.45C94.4001 160.45 101.11 153.73 101.11 145.45V133.17H71.1101Z" fill="url(#paint3_linear_1251_15895)"/>
<path opacity="0.4" d="M71.1101 133.17V145.45C71.1101 153.74 77.8301 160.45 86.1101 160.45C94.4001 160.45 101.11 153.73 101.11 145.45V133.17H71.1101Z" fill="url(#paint4_linear_1251_15895)"/>
<path d="M87.36 114.37C101.52 114.37 103.65 107.05 103.89 105.98H82.18L69.95 106.06C69.95 106.06 72.08 114.37 87.36 114.37Z" fill="white"/>
</g>
<defs>
<filter id="filter0_d_1251_15895" x="40.55" y="76.64" width="97.5601" height="29.49" filterUnits="userSpaceOnUse" color-interpolation-filters="sRGB">
<feFlood flood-opacity="0" result="BackgroundImageFix"/>
<feColorMatrix in="SourceAlpha" type="matrix" values="0 0 0 0 0 0 0 0 0 0 0 0 0 0 0 0 0 0 127 0" result="hardAlpha"/>
<feOffset dx="1" dy="1"/>
<feGaussianBlur stdDeviation="1"/>
<feColorMatrix type="matrix" values="0 0 0 0 0 0 0 0 0 0 0 0 0 0 0 0 0 0 0.4 0"/>
<feBlend mode="normal" in2="BackgroundImageFix" result="effect1_dropShadow_1251_15895"/>
<feBlend mode="normal" in="SourceGraphic" in2="effect1_dropShadow_1251_15895" result="shape"/>
</filter>
<linearGradient id="paint0_linear_1251_15895" x1="100.06" y1="149.86" x2="67.9399" y2="56.69" gradientUnits="userSpaceOnUse">
<stop stop-color="#F47D00"/>
<stop offset="0.28" stop-color="#FFA000"/>
<stop offset="1" stop-color="#FFD200"/>
</linearGradient>
<linearGradient id="paint1_linear_1251_15895" x1="71.7002" y1="133.69" x2="100.54" y2="133.69" gradientUnits="userSpaceOnUse">
<stop stop-color="#42E5DB"/>
<stop offset="1" stop-color="#59D187"/>
</linearGradient>
<linearGradient id="paint2_linear_1251_15895" x1="71.7002" y1="133.69" x2="100.54" y2="133.69" gradientUnits="userSpaceOnUse">
<stop stop-color="white"/>
<stop offset="1" stop-color="white" stop-opacity="0.1"/>
</linearGradient>
<linearGradient id="paint3_linear_1251_15895" x1="71.1201" y1="146.81" x2="101.12" y2="146.81" gradientUnits="userSpaceOnUse">
<stop stop-color="#10A4D6"/>
<stop offset="1" stop-color="#2B54B3"/>
</linearGradient>
<linearGradient id="paint4_linear_1251_15895" x1="71.1201" y1="146.81" x2="101.12" y2="146.81" gradientUnits="userSpaceOnUse">
<stop stop-color="white"/>
<stop offset="1" stop-color="#FFFEFE" stop-opacity="0"/>
</linearGradient>
<clipPath id="clip0_1251_15895">
<rect width="168" height="168" fill="white"/>
</clipPath>
</defs>
</svg>
