<svg width="168" height="168" viewBox="0 0 168 168" fill="none" xmlns="http://www.w3.org/2000/svg">
<g clip-path="url(#clip0_1251_15876)">
<path opacity="0.2" d="M41.14 118.42C41.14 118.42 18.8 122.41 29.39 131.72C39.98 141.03 64.1 154.87 113.5 144.18C162.91 133.49 125.95 125.69 113.5 123.83C101.05 121.97 41.14 118.42 41.14 118.42V118.42Z" fill="#231815"/>
<path d="M136.02 93.96C136.02 121.57 112.74 139.05 83.89 136.97C41.61 133.92 24.47 112.99 34.45 90.04C45.46 64.71 56.84 40.04 84.45 40.04C112.06 40.04 136.02 66.35 136.02 93.97V93.96Z" fill="url(#paint0_linear_1251_15876)"/>
<path d="M136.02 93.96C136.02 121.57 112.74 139.05 83.89 136.97C41.61 133.92 24.47 112.99 34.45 90.04C45.46 64.71 56.84 40.04 84.45 40.04C112.06 40.04 136.02 66.35 136.02 93.97V93.96Z" fill="url(#paint1_linear_1251_15876)"/>
<path d="M73.02 108.53C73.02 102.81 80.54 98.58 86.26 98.58C91.98 98.58 93.75 102.81 93.75 108.53C93.75 114.25 89.11 118.89 83.39 118.89C77.67 118.89 73.03 114.25 73.03 108.53H73.02Z" fill="#F95353"/>
<g opacity="0.8" filter="url(#filter0_d_1251_15876)">
<path d="M102.11 99C110.947 99 118.11 91.8366 118.11 83C118.11 74.1634 110.947 67 102.11 67C93.2736 67 86.1101 74.1634 86.1101 83C86.1101 91.8366 93.2736 99 102.11 99Z" fill="white"/>
</g>
<g opacity="0.8" filter="url(#filter1_d_1251_15876)">
<path d="M67.3801 99C76.2167 99 83.3801 91.8366 83.3801 83C83.3801 74.1634 76.2167 67 67.3801 67C58.5436 67 51.3801 74.1634 51.3801 83C51.3801 91.8366 58.5436 99 67.3801 99Z" fill="white"/>
</g>
<path d="M37.7601 129.83C32.5801 130.77 27.6101 127.34 26.6701 122.15L22.5901 99.74C21.6501 94.56 25.0801 89.59 30.2701 88.65C35.4501 87.71 39.2401 97.09 40.1801 102.27L45.4301 118.74C46.3701 123.92 42.9401 128.89 37.7501 129.83H37.7601Z" fill="url(#paint2_linear_1251_15876)"/>
<path d="M124.92 134.67C129.87 136.48 135.34 133.94 137.15 128.99L144.98 107.59C146.79 102.64 144.25 97.17 139.3 95.36C134.35 93.55 129.03 102.15 127.22 107.1L119.24 122.44C117.43 127.39 119.97 132.86 124.92 134.67V134.67Z" fill="url(#paint3_linear_1251_15876)"/>
<path d="M103.03 47.53C101.93 47.53 101.03 46.63 101.03 45.53V25C101.03 23.9 101.93 23 103.03 23C104.13 23 105.03 23.9 105.03 25V45.53C105.03 46.63 104.13 47.53 103.03 47.53Z" fill="#231815"/>
<path d="M109.61 44.48C108.51 44.48 107.61 43.58 107.61 42.48V21.95C107.61 20.85 108.51 19.95 109.61 19.95C110.71 19.95 111.61 20.85 111.61 21.95V42.48C111.61 43.58 110.71 44.48 109.61 44.48V44.48Z" fill="#231815"/>
<path d="M116.2 50.02C115.1 50.02 114.2 49.12 114.2 48.02V27.49C114.2 26.39 115.1 25.49 116.2 25.49C117.3 25.49 118.2 26.39 118.2 27.49V48.02C118.2 49.12 117.3 50.02 116.2 50.02V50.02Z" fill="#231815"/>
<path d="M129.38 47.53C128.28 47.53 127.38 46.63 127.38 45.53V25C127.38 23.9 128.28 23 129.38 23C130.48 23 131.38 23.9 131.38 25V45.53C131.38 46.63 130.48 47.53 129.38 47.53Z" fill="#231815"/>
<path d="M122.79 53.79C121.69 53.79 120.79 52.89 120.79 51.79V31.26C120.79 30.16 121.69 29.26 122.79 29.26C123.89 29.26 124.79 30.16 124.79 31.26V51.79C124.79 52.89 123.89 53.79 122.79 53.79V53.79Z" fill="#231815"/>
<path d="M102.11 90C105.976 90 109.11 86.866 109.11 83C109.11 79.134 105.976 76 102.11 76C98.2441 76 95.1101 79.134 95.1101 83C95.1101 86.866 98.2441 90 102.11 90Z" fill="#231815"/>
<path d="M67.3801 90C71.2461 90 74.3801 86.866 74.3801 83C74.3801 79.134 71.2461 76 67.3801 76C63.5141 76 60.3801 79.134 60.3801 83C60.3801 86.866 63.5141 90 67.3801 90Z" fill="#231815"/>
</g>
<defs>
<filter id="filter0_d_1251_15876" x="83.1101" y="66" width="36" height="36" filterUnits="userSpaceOnUse" color-interpolation-filters="sRGB">
<feFlood flood-opacity="0" result="BackgroundImageFix"/>
<feColorMatrix in="SourceAlpha" type="matrix" values="0 0 0 0 0 0 0 0 0 0 0 0 0 0 0 0 0 0 127 0" result="hardAlpha"/>
<feOffset dx="-1" dy="1"/>
<feGaussianBlur stdDeviation="1"/>
<feColorMatrix type="matrix" values="0 0 0 0 0 0 0 0 0 0 0 0 0 0 0 0 0 0 0.2 0"/>
<feBlend mode="normal" in2="BackgroundImageFix" result="effect1_dropShadow_1251_15876"/>
<feBlend mode="normal" in="SourceGraphic" in2="effect1_dropShadow_1251_15876" result="shape"/>
</filter>
<filter id="filter1_d_1251_15876" x="48.3801" y="66" width="36" height="36" filterUnits="userSpaceOnUse" color-interpolation-filters="sRGB">
<feFlood flood-opacity="0" result="BackgroundImageFix"/>
<feColorMatrix in="SourceAlpha" type="matrix" values="0 0 0 0 0 0 0 0 0 0 0 0 0 0 0 0 0 0 127 0" result="hardAlpha"/>
<feOffset dx="-1" dy="1"/>
<feGaussianBlur stdDeviation="1"/>
<feColorMatrix type="matrix" values="0 0 0 0 0 0 0 0 0 0 0 0 0 0 0 0 0 0 0.2 0"/>
<feBlend mode="normal" in2="BackgroundImageFix" result="effect1_dropShadow_1251_15876"/>
<feBlend mode="normal" in="SourceGraphic" in2="effect1_dropShadow_1251_15876" result="shape"/>
</filter>
<linearGradient id="paint0_linear_1251_15876" x1="99.2" y1="140.67" x2="67.07" y2="47.5" gradientUnits="userSpaceOnUse">
<stop stop-color="#F47D00"/>
<stop offset="0.28" stop-color="#FFA000"/>
<stop offset="1" stop-color="#FFD200"/>
</linearGradient>
<linearGradient id="paint1_linear_1251_15876" x1="83.85" y1="44.39" x2="83.85" y2="187.55" gradientUnits="userSpaceOnUse">
<stop stop-color="#0049FF"/>
<stop offset="0.03" stop-color="#0055FF" stop-opacity="0.92"/>
<stop offset="0.1" stop-color="#0074FF" stop-opacity="0.73"/>
<stop offset="0.17" stop-color="#008FFF" stop-opacity="0.55"/>
<stop offset="0.25" stop-color="#00A7FF" stop-opacity="0.4"/>
<stop offset="0.33" stop-color="#00BAFF" stop-opacity="0.28"/>
<stop offset="0.42" stop-color="#00CBFF" stop-opacity="0.18"/>
<stop offset="0.52" stop-color="#00D7FF" stop-opacity="0.1"/>
<stop offset="0.63" stop-color="#00E0FF" stop-opacity="0.04"/>
<stop offset="0.77" stop-color="#00E5FF" stop-opacity="0"/>
<stop offset="1" stop-color="#00E7FF" stop-opacity="0"/>
</linearGradient>
<linearGradient id="paint2_linear_1251_15876" x1="48.7801" y1="115.51" x2="6.52012" y2="98.85" gradientUnits="userSpaceOnUse">
<stop stop-color="#F47D00"/>
<stop offset="0.28" stop-color="#FFA000"/>
<stop offset="1" stop-color="#FFD200"/>
</linearGradient>
<linearGradient id="paint3_linear_1251_15876" x1="141.07" y1="118.289" x2="123.151" y2="111.735" gradientUnits="userSpaceOnUse">
<stop stop-color="#F47D00"/>
<stop offset="0.28" stop-color="#FFA000"/>
<stop offset="1" stop-color="#FFD200"/>
</linearGradient>
<clipPath id="clip0_1251_15876">
<rect width="168" height="168" fill="white"/>
</clipPath>
</defs>
</svg>
