<svg width="186" height="186" viewBox="0 0 186 186" fill="none" xmlns="http://www.w3.org/2000/svg">
<g clip-path="url(#clip0_2118_17877)">
<path opacity="0.2" d="M35.3397 123.519C35.3397 123.519 3.81042 129.137 18.752 142.248C33.6935 155.359 67.734 174.849 137.461 159.795C207.188 144.741 155.026 133.756 137.461 131.137C119.897 128.518 35.3397 123.519 35.3397 123.519Z" fill="#231815"/>
<path d="M164.568 89.8739C164.568 128.755 132.09 153.371 91.8412 150.442C32.8563 146.147 8.94424 116.673 22.8674 84.3536C38.2274 48.683 54.1037 13.9419 92.6225 13.9419C131.141 13.9419 164.568 50.9925 164.568 89.888V89.8739Z" fill="url(#paint0_linear_2118_17877)"/>
<path d="M113.284 94.6455H117.483C127.779 94.6455 133.61 103.841 127.291 110.15C122.784 114.657 116.409 118.219 108.959 120.289C104.258 121.599 99.1236 122.331 93.7385 122.331C87.1536 122.331 80.9593 121.247 75.4487 119.332C69.3102 117.191 64.0646 114.037 60.1862 110.15C53.8664 103.841 59.684 94.6455 69.9938 94.6455H113.284Z" fill="#F95353"/>
<path d="M158.904 53.9478H34.6981C32.9681 53.9478 31.5591 55.3701 31.5591 57.1163C31.5591 58.8625 32.9681 60.2848 34.6981 60.2848H38.8136C39.4833 76.733 51.7044 89.8436 66.6878 89.8436C81.6712 89.8436 93.8923 76.733 94.5619 60.2848H99.082C99.7517 76.733 111.973 89.8436 126.956 89.8436C141.94 89.8436 154.161 76.733 154.83 60.2848H158.946C160.676 60.2848 162.085 58.8625 162.085 57.1163C162.085 55.3701 160.676 53.9478 158.946 53.9478H158.904Z" fill="#231815"/>
<path opacity="0.3" d="M127.444 87.2246H121.264L137.712 61.3271H143.893L127.444 87.2246Z" fill="#7F6A65"/>
<path opacity="0.3" d="M138.857 82.8309H133.723L147.381 61.3271H152.515L138.857 82.8309Z" fill="#7F6A65"/>
<path d="M113.856 116.265C113.856 105.05 104.849 95.958 93.739 95.958C82.6284 95.958 73.6216 105.05 73.6216 116.265V149.527C73.6216 160.742 82.6284 169.834 93.739 169.834C104.849 169.834 113.856 160.742 113.856 149.527V116.265Z" fill="url(#paint1_linear_2118_17877)"/>
<path d="M113.856 116.265C113.856 105.05 104.849 95.958 93.739 95.958C82.6284 95.958 73.6216 105.05 73.6216 116.265V149.527C73.6216 160.742 82.6284 169.834 93.739 169.834C104.849 169.834 113.856 160.742 113.856 149.527V116.265Z" fill="url(#paint2_linear_2118_17877)"/>
<path d="M72.7982 132.151V149.444C72.7982 161.118 82.1733 170.567 93.7248 170.567C105.29 170.567 114.651 161.104 114.651 149.444V132.151H72.7982Z" fill="url(#paint3_linear_2118_17877)"/>
<path opacity="0.4" d="M72.7982 132.151V149.444C72.7982 161.118 82.1733 170.567 93.7248 170.567C105.29 170.567 114.651 161.104 114.651 149.444V132.151H72.7982Z" fill="url(#paint4_linear_2118_17877)"/>
<path d="M95.4687 105.673C115.223 105.673 118.195 95.3647 118.53 93.8579H88.242L71.1799 93.9706C71.1799 93.9706 74.1515 105.673 95.4687 105.673Z" fill="white"/>
</g>
<ellipse cx="156.947" cy="141.98" rx="28.9447" ry="29.0456" fill="#3C5DF6"/>
<path fill-rule="evenodd" clip-rule="evenodd" d="M172.03 129.722C173.206 130.714 173.365 132.484 172.385 133.674L155.75 153.88C155.26 154.475 154.548 154.839 153.783 154.885C153.019 154.93 152.269 154.654 151.713 154.121L141.733 144.549C140.621 143.484 140.574 141.707 141.627 140.582C142.68 139.457 144.434 139.409 145.546 140.475L153.382 147.989L168.125 130.081C169.105 128.89 170.854 128.73 172.03 129.722Z" fill="white"/>
<defs>
<linearGradient id="paint0_linear_2118_17877" x1="113.186" y1="155.652" x2="67.6196" y2="24.7104" gradientUnits="userSpaceOnUse">
<stop stop-color="#F47D00"/>
<stop offset="0.28" stop-color="#FFA000"/>
<stop offset="1" stop-color="#FFD200"/>
</linearGradient>
<linearGradient id="paint1_linear_2118_17877" x1="73.6216" y1="132.882" x2="113.856" y2="132.882" gradientUnits="userSpaceOnUse">
<stop stop-color="#42E5DB"/>
<stop offset="1" stop-color="#59D187"/>
</linearGradient>
<linearGradient id="paint2_linear_2118_17877" x1="73.6216" y1="132.882" x2="113.856" y2="132.882" gradientUnits="userSpaceOnUse">
<stop stop-color="white"/>
<stop offset="1" stop-color="white" stop-opacity="0.1"/>
</linearGradient>
<linearGradient id="paint3_linear_2118_17877" x1="72.8122" y1="151.359" x2="114.665" y2="151.359" gradientUnits="userSpaceOnUse">
<stop stop-color="#10A4D6"/>
<stop offset="1" stop-color="#2B54B3"/>
</linearGradient>
<linearGradient id="paint4_linear_2118_17877" x1="72.8122" y1="151.359" x2="114.665" y2="151.359" gradientUnits="userSpaceOnUse">
<stop stop-color="white"/>
<stop offset="1" stop-color="#FFFEFE" stop-opacity="0"/>
</linearGradient>
<clipPath id="clip0_2118_17877">
<rect width="184.158" height="185.892" fill="white" transform="translate(0.920837)"/>
</clipPath>
</defs>
</svg>
