<svg width="62" height="62" viewBox="0 0 62 62" fill="none" xmlns="http://www.w3.org/2000/svg">
<path opacity="0.2" d="M11.7799 41.1973C11.7799 41.1973 1.27008 43.0713 6.2506 47.4441C11.2311 51.8168 22.5779 58.3173 45.8204 53.2963C69.0628 48.2754 51.6751 44.6119 45.8204 43.7383C39.9656 42.8646 11.7799 41.1973 11.7799 41.1973Z" fill="#231815"/>
<path d="M54.8559 29.9758C54.8559 42.9438 44.0299 51.1539 30.6137 50.1769C10.952 48.7444 2.98135 38.9139 7.62239 28.1346C12.7424 16.2375 18.0345 4.65039 30.8741 4.65039C43.7137 4.65039 54.8559 17.0078 54.8559 29.9805V29.9758Z" fill="url(#paint0_linear_2118_21390)"/>
<path d="M37.7612 31.5674H39.161C42.5929 31.5674 44.5368 34.6344 42.4302 36.7386C40.9281 38.2416 38.8029 39.4299 36.3196 40.1203C34.7525 40.5571 33.0411 40.8014 31.2461 40.8014C29.0512 40.8014 26.9864 40.4397 25.1495 39.801C23.1034 39.087 21.3548 38.0349 20.062 36.7386C17.9554 34.6344 19.8946 31.5674 23.3312 31.5674H37.7612Z" fill="#F95353"/>
<path d="M52.9679 17.9932H11.5659C10.9892 17.9932 10.5195 18.4675 10.5195 19.05C10.5195 19.6324 10.9892 20.1067 11.5659 20.1067H12.9377C13.1609 25.5927 17.2346 29.9654 22.2291 29.9654C27.2236 29.9654 31.2973 25.5927 31.5205 20.1067H33.0272C33.2504 25.5927 37.3241 29.9654 42.3186 29.9654C47.313 29.9654 51.3867 25.5927 51.61 20.1067H52.9818C53.5584 20.1067 54.0281 19.6324 54.0281 19.05C54.0281 18.4675 53.5584 17.9932 52.9818 17.9932H52.9679Z" fill="#231815"/>
<path opacity="0.3" d="M42.4812 29.0916H40.4211L45.9039 20.4541H47.964L42.4812 29.0916Z" fill="#7F6A65"/>
<path opacity="0.3" d="M46.2853 27.6262H44.574L49.1267 20.4541H50.838L46.2853 27.6262Z" fill="#7F6A65"/>
<path d="M37.9521 38.7777C37.9521 35.0372 34.9498 32.0049 31.2463 32.0049C27.5428 32.0049 24.5405 35.0372 24.5405 38.7777V49.8717C24.5405 53.6122 27.5428 56.6445 31.2463 56.6445C34.9498 56.6445 37.9521 53.6122 37.9521 49.8717V38.7777Z" fill="url(#paint1_linear_2118_21390)"/>
<path d="M37.9521 38.7777C37.9521 35.0372 34.9498 32.0049 31.2463 32.0049C27.5428 32.0049 24.5405 35.0372 24.5405 38.7777V49.8717C24.5405 53.6122 27.5428 56.6445 31.2463 56.6445C34.9498 56.6445 37.9521 53.6122 37.9521 49.8717V38.7777Z" fill="url(#paint2_linear_2118_21390)"/>
<path d="M24.2661 44.0762V49.8439C24.2661 53.7376 27.3911 56.8892 31.2416 56.8892C35.0968 56.8892 38.2171 53.7329 38.2171 49.8439V44.0762H24.2661Z" fill="url(#paint3_linear_2118_21390)"/>
<path opacity="0.4" d="M24.2661 44.0762V49.8439C24.2661 53.7376 27.3911 56.8892 31.2416 56.8892C35.0968 56.8892 38.2171 53.7329 38.2171 49.8439V44.0762H24.2661Z" fill="url(#paint4_linear_2118_21390)"/>
<path d="M31.8228 35.2453C38.4077 35.2453 39.3982 31.8073 39.5098 31.3047H29.4139L23.7266 31.3423C23.7266 31.3423 24.7171 35.2453 31.8228 35.2453Z" fill="white"/>
<defs>
<linearGradient id="paint0_linear_2118_21390" x1="37.7287" y1="51.9148" x2="22.524" y2="8.24748" gradientUnits="userSpaceOnUse">
<stop stop-color="#F47D00"/>
<stop offset="0.28" stop-color="#FFA000"/>
<stop offset="1" stop-color="#FFD200"/>
</linearGradient>
<linearGradient id="paint1_linear_2118_21390" x1="24.5405" y1="44.32" x2="37.9521" y2="44.32" gradientUnits="userSpaceOnUse">
<stop stop-color="#42E5DB"/>
<stop offset="1" stop-color="#59D187"/>
</linearGradient>
<linearGradient id="paint2_linear_2118_21390" x1="24.5405" y1="44.32" x2="37.9521" y2="44.32" gradientUnits="userSpaceOnUse">
<stop stop-color="white"/>
<stop offset="1" stop-color="white" stop-opacity="0.1"/>
</linearGradient>
<linearGradient id="paint3_linear_2118_21390" x1="24.2708" y1="50.4827" x2="38.2218" y2="50.4827" gradientUnits="userSpaceOnUse">
<stop stop-color="#10A4D6"/>
<stop offset="1" stop-color="#2B54B3"/>
</linearGradient>
<linearGradient id="paint4_linear_2118_21390" x1="24.2708" y1="50.4827" x2="38.2218" y2="50.4827" gradientUnits="userSpaceOnUse">
<stop stop-color="white"/>
<stop offset="1" stop-color="#FFFEFE" stop-opacity="0"/>
</linearGradient>
</defs>
</svg>
