<svg width="241" height="166" viewBox="0 0 241 166" fill="none" xmlns="http://www.w3.org/2000/svg">
<path fill-rule="evenodd" clip-rule="evenodd" d="M200.64 123.937C222.721 124.692 240.794 118.62 240.998 110.368C241.202 102.116 223.453 94.8189 201.36 94.0635C179.279 93.3081 161.206 99.3796 161.002 107.632C160.798 115.884 178.547 123.181 200.64 123.937ZM195 135.5C195 146.27 162.093 155 121.5 155C116.197 155 111.026 154.851 106.042 154.568C97.3077 161.312 77.9622 166 55.5 166C24.8482 166 0 157.27 0 146.5C0 135.75 24.7572 127.032 55.3315 127C67.2362 120.489 92.3921 116 121.5 116C162.093 116 195 124.73 195 135.5Z" fill="black" fill-opacity="0.1"/>
<path d="M233.68 107.227C233.531 112.281 220.393 115.999 204.342 115.536C188.281 115.074 175.379 110.605 175.527 105.551C175.675 100.498 188.813 96.7794 204.865 97.242C220.925 97.7046 233.828 102.173 233.68 107.227Z" fill="#FFC614"/>
<path d="M175.808 95.5781L175.521 105.55L233.563 107.223L233.85 97.2509L175.808 95.5781Z" fill="#FFC614"/>
<path d="M233.706 95.5914C233.706 100.645 220.681 104.747 204.612 104.747C188.543 104.747 175.518 100.645 175.518 95.5914C175.518 90.5378 188.543 86.4355 204.612 86.4355C220.681 86.4355 233.706 90.5291 233.706 95.5914Z" fill="#FFDE3C"/>
<path d="M231.525 92.8511C231.377 97.9047 218.239 101.623 202.187 101.16C186.126 100.698 173.224 96.2289 173.372 91.1753C173.521 86.1217 186.659 82.4034 202.71 82.866C218.771 83.3286 231.673 87.7975 231.525 92.8511Z" fill="#FFC614"/>
<path d="M173.641 81.1982L173.354 91.1704L231.395 92.8432L231.682 82.871L173.641 81.1982Z" fill="#FFC614"/>
<path d="M231.542 81.2155C231.542 86.2691 218.518 90.3714 202.449 90.3714C186.38 90.3714 173.355 86.2691 173.355 81.2155C173.355 76.1618 186.38 72.0596 202.449 72.0596C218.518 72.0596 231.542 76.1618 231.542 81.2155Z" fill="#FFDE3C"/>
<path d="M235.834 78.3013C235.686 83.3549 222.548 87.0732 206.488 86.6106C190.427 86.148 177.525 81.6791 177.673 76.6255C177.821 71.5719 190.959 67.8536 207.011 68.3162C223.072 68.7788 235.974 73.2564 235.826 78.3013H235.834Z" fill="#FFC614"/>
<path d="M177.959 66.6494L177.672 76.6216L235.713 78.2944L236 68.3221L177.959 66.6494Z" fill="#FFC614"/>
<path d="M235.861 66.6574C235.861 71.711 222.836 75.8133 206.767 75.8133C190.698 75.8133 177.673 71.711 177.673 66.6574C177.673 61.6037 190.698 57.5015 206.767 57.5015C222.836 57.5015 235.861 61.6037 235.861 66.6574Z" fill="#FFDE3C"/>
<path d="M233.68 63.8643C233.531 68.9179 220.393 72.6362 204.342 72.1736C188.281 71.711 175.379 67.2421 175.527 62.1885C175.675 57.1348 188.813 53.4166 204.865 53.8792C220.926 54.3418 233.828 58.8107 233.68 63.873V63.8643Z" fill="#FFC614"/>
<path d="M175.8 52.2158L175.513 62.188L233.554 63.8608L233.842 53.8886L175.8 52.2158Z" fill="#FFC614"/>
<path d="M233.706 52.2296C233.706 57.2833 220.682 61.3855 204.612 61.3855C188.543 61.3855 175.519 57.292 175.519 52.2296C175.519 47.1673 188.543 43.0737 204.612 43.0737C220.682 43.0737 233.706 47.176 233.706 52.2296Z" fill="#FFDE3C"/>
<path d="M233.68 49.4278C233.531 54.4814 220.393 58.1996 204.342 57.737C188.281 57.2744 175.379 52.8056 175.527 47.752C175.675 42.6983 188.813 38.9801 204.865 39.4427C220.926 39.9053 233.828 44.3741 233.68 49.4278Z" fill="#FFC614"/>
<path d="M175.806 37.7734L175.519 47.7456L233.56 49.4184L233.848 39.4462L175.806 37.7734Z" fill="#FFC614"/>
<path d="M233.706 37.7931C233.706 42.8467 220.681 46.949 204.612 46.949C188.543 46.949 175.518 42.8467 175.518 37.7931C175.518 32.7395 188.543 28.6372 204.612 28.6372C220.681 28.6372 233.706 32.7307 233.706 37.7931Z" fill="#FFDE3C"/>
<path d="M235.616 35.2271C235.468 40.2807 222.33 43.9989 206.278 43.5364C190.218 43.0738 177.315 38.5962 177.464 33.5513C177.612 28.4976 190.75 24.7794 206.81 25.242C222.871 25.7046 235.773 30.1735 235.625 35.2271H235.616Z" fill="#FFC614"/>
<path d="M177.744 23.5747L177.456 33.5469L235.498 35.2197L235.785 25.2474L177.744 23.5747Z" fill="#FFC614"/>
<path d="M235.642 23.5924C235.642 28.6461 222.618 32.7483 206.549 32.7483C190.48 32.7483 177.455 28.6461 177.455 23.5924C177.455 18.5388 190.48 14.4365 206.549 14.4365C222.618 14.4365 235.642 18.5388 235.642 23.5924Z" fill="#FFDE3C"/>
<path d="M231.307 20.7906C231.159 25.8442 218.021 29.5624 201.969 29.0998C185.908 28.6372 173.006 24.1684 173.154 19.1147C173.303 14.0611 186.441 10.3429 202.492 10.8055C218.553 11.2681 231.455 15.7369 231.307 20.7906Z" fill="#FFC614"/>
<path d="M173.438 9.1401L173.151 19.1123L231.192 20.7851L231.479 10.8129L173.438 9.1401Z" fill="#FFC614"/>
<path d="M231.333 9.1559C231.333 14.2095 218.308 18.3118 202.239 18.3118C186.17 18.3118 173.146 14.2095 173.146 9.1559C173.146 4.10226 186.17 0 202.239 0C218.308 0 231.333 4.10226 231.333 9.1559Z" fill="#FFDE3C"/>
<path d="M176.416 16H165.336V28.7476C167.798 29.9393 169.51 32.4628 169.51 35.3968C169.51 39.4825 166.207 42.787 162.123 42.787C158.04 42.787 154.737 39.4825 154.737 35.3968C154.737 32.4628 156.448 29.9393 158.911 28.7476V16H136.961V28.7476C139.434 29.9393 141.135 32.4628 141.135 35.3968C141.135 39.4825 137.832 42.787 133.749 42.787C129.665 42.787 126.362 39.4825 126.362 35.3968C126.362 32.4628 128.074 29.9393 130.536 28.7476V16H108.587V28.7476C111.059 29.9393 112.76 32.4628 112.76 35.3968C112.76 39.4825 109.457 42.787 105.374 42.787C101.29 42.787 97.9875 39.4825 97.9875 35.3968C97.9875 32.4628 99.699 29.9393 102.161 28.7476V16H80.212V28.7476C82.6842 29.9393 84.3857 32.4628 84.3857 35.3968C84.3857 39.4825 81.0828 42.787 76.9992 42.787C72.9157 42.787 69.6128 39.4825 69.6128 35.3968C69.6128 32.4628 71.3243 29.9393 73.7864 28.7476V16H62.7068C58.4531 16 55.0001 19.4548 55.0001 23.7107V133.633C55.0001 137.888 58.4531 141.343 62.7068 141.343H176.416C180.67 141.343 184.123 137.888 184.123 133.633V23.7207C184.123 19.4548 180.67 16.01 176.416 16.01V16Z" fill="#F5F5F5"/>
<g clip-path="url(#clip0_2118_17282)">
<path d="M177.31 16H166.24V28.73C168.7 29.92 170.41 32.44 170.41 35.37C170.41 39.45 167.11 42.75 163.03 42.75C158.95 42.75 155.65 39.45 155.65 35.37C155.65 32.44 157.36 29.92 159.82 28.73V16H137.89V28.73C140.36 29.92 142.06 32.44 142.06 35.37C142.06 39.45 138.76 42.75 134.68 42.75C130.6 42.75 127.3 39.45 127.3 35.37C127.3 32.44 129.01 29.92 131.47 28.73V16H109.54V28.73C112.01 29.92 113.71 32.44 113.71 35.37C113.71 39.45 110.41 42.75 106.33 42.75C102.25 42.75 98.9501 39.45 98.9501 35.37C98.9501 32.44 100.66 29.92 103.12 28.73V16H81.1801V28.73C83.6501 29.92 85.3501 32.44 85.3501 35.37C85.3501 39.45 82.0501 42.75 77.9701 42.75C73.8901 42.75 70.5901 39.45 70.5901 35.37C70.5901 32.44 72.3001 29.92 74.7601 28.73V16H63.7001C59.4501 16 56.0001 19.45 56.0001 23.7V133.48C56.0001 137.73 59.4501 141.18 63.7001 141.18H177.31C181.56 141.18 185.01 137.73 185.01 133.48V23.7C185.01 19.44 181.56 16 177.31 16Z" fill="#F5F5F5"/>
<path d="M56.5901 85.1602V89.8102H120.5H184.42V85.1602H120.5H56.5901Z" fill="#E6E6E6"/>
<path d="M56.5901 107.59V112.25H120.5H184.42V107.59H120.5H56.5901Z" fill="#E6E6E6"/>
<path d="M120.5 62.7202H56.5901V67.3702H120.5H184.42V62.7202H120.5Z" fill="#E6E6E6"/>
<path d="M184.42 62.7202H56.5901V67.3802H184.42V62.7202Z" fill="#E6E6E6"/>
<path d="M184.42 107.59H56.5901V112.25H184.42V107.59Z" fill="#E6E6E6"/>
<path d="M184.42 85.1602H56.5901V89.8202H184.42V85.1602Z" fill="#E6E6E6"/>
<path fill-rule="evenodd" clip-rule="evenodd" d="M156.06 90.243C156.058 105.533 145.719 116.324 131.348 119.258V119.454C131.348 125.173 126.714 129.814 120.989 129.814C115.27 129.814 110.629 125.18 110.629 119.454V118.736C88.3698 114.478 79.815 101.55 85.911 87.5322C87.6694 83.4869 89.4414 79.4659 91.3625 75.6744C90.7018 75.4955 90.2139 74.8904 90.2139 74.1741C90.2139 73.3177 90.9114 72.6202 91.7678 72.6202H92.9744C99.1156 61.4813 106.99 53 120.443 53C133.35 53 145.102 61.3248 151.349 72.6202H153.256H153.277C154.133 72.6202 154.831 73.3177 154.831 74.1741C154.831 75.0305 154.133 75.7281 153.277 75.7281H152.895C154.92 80.2962 156.059 85.2384 156.06 90.243Z" fill="white"/>
<path d="M156 90.2087C156 109.262 139.935 121.324 120.027 119.889C90.8503 117.784 79.0224 103.341 85.9094 87.5036C93.5071 70.0241 101.36 53 120.413 53C139.466 53 156 71.1558 156 90.2156V90.2087Z" fill="url(#paint0_linear_2118_17282)"/>
<path d="M130.633 92.5474H132.71C137.803 92.5474 140.687 97.0535 137.561 100.145C135.332 102.353 132.179 104.099 128.494 105.114C126.168 105.755 123.629 106.114 120.965 106.114C117.708 106.114 114.644 105.583 111.918 104.644C108.882 103.595 106.287 102.05 104.369 100.145C101.243 97.0535 104.12 92.5474 109.22 92.5474H130.633Z" fill="#F95353"/>
<path d="M153.198 72.604H91.7613C90.9056 72.604 90.2086 73.301 90.2086 74.1567C90.2086 75.0124 90.9056 75.7093 91.7613 75.7093H93.797C94.1282 83.7694 100.173 90.1939 107.585 90.1939C114.996 90.1939 121.041 83.7694 121.372 75.7093H123.608C123.939 83.7694 129.984 90.1939 137.396 90.1939C144.807 90.1939 150.852 83.7694 151.183 75.7093H153.219C154.075 75.7093 154.772 75.0124 154.772 74.1567C154.772 73.301 154.075 72.604 153.219 72.604H153.198Z" fill="#231815"/>
<path opacity="0.3" d="M137.637 88.9102H134.58L142.716 76.2197H145.773L137.637 88.9102Z" fill="#7F6A65"/>
<path opacity="0.3" d="M143.282 86.7571H140.743L147.498 76.2197H150.038L143.282 86.7571Z" fill="#7F6A65"/>
<path d="M130.916 103.141C130.916 97.6451 126.461 93.1899 120.965 93.1899C115.47 93.1899 111.014 97.6451 111.014 103.141V119.44C111.014 124.936 115.47 129.391 120.965 129.391C126.461 129.391 130.916 124.936 130.916 119.44V103.141Z" fill="url(#paint1_linear_2118_17282)"/>
<path d="M130.916 103.141C130.916 97.6451 126.461 93.1899 120.965 93.1899C115.47 93.1899 111.014 97.6451 111.014 103.141V119.44C111.014 124.936 115.47 129.391 120.965 129.391C126.461 129.391 130.916 124.936 130.916 119.44V103.141Z" fill="url(#paint2_linear_2118_17282)"/>
<path d="M110.607 110.926V119.4C110.607 125.121 115.245 129.751 120.958 129.751C126.679 129.751 131.309 125.114 131.309 119.4V110.926H110.607Z" fill="url(#paint3_linear_2118_17282)"/>
<path opacity="0.4" d="M110.607 110.926V119.4C110.607 125.121 115.245 129.751 120.958 129.751C126.679 129.751 131.309 125.114 131.309 119.4V110.926H110.607Z" fill="url(#paint4_linear_2118_17282)"/>
<path d="M121.821 97.9508C131.592 97.9508 133.062 92.8995 133.228 92.1611H118.246L109.807 92.2163C109.807 92.2163 111.277 97.9508 121.821 97.9508Z" fill="white"/>
</g>
<path d="M67.3316 144.334C67.1841 149.472 53.8247 153.257 37.4986 152.788C21.1724 152.319 8.05597 147.771 8.20344 142.633C8.35091 137.495 21.7103 133.711 38.0364 134.179C54.3626 134.648 67.479 139.196 67.3316 144.334Z" fill="#FFC614"/>
<path d="M8.49982 132.481L8.20782 142.623L67.216 144.324L67.508 134.182L8.49982 132.481Z" fill="#FFC614"/>
<path d="M67.3578 132.504C67.3578 137.643 54.1199 141.809 37.7851 141.809C21.4502 141.809 8.20364 137.643 8.20364 132.504C8.20364 127.366 21.4415 123.2 37.7851 123.2C54.1199 123.2 67.3578 127.366 67.3578 132.504Z" fill="#FFDE3C"/>
<path d="M65.1367 129.718C64.9893 134.857 51.6299 138.641 35.3038 138.172C18.9776 137.695 5.86114 133.147 6.00862 128.009C6.15609 122.87 19.5154 119.086 35.8416 119.555C52.1678 120.024 65.2842 124.572 65.1367 129.71V129.718Z" fill="#FFC614"/>
<path d="M6.30866 117.869L6.01666 128.011L65.0249 129.711L65.3169 119.569L6.30866 117.869Z" fill="#FFC614"/>
<path d="M65.1629 117.889C65.1629 123.027 51.9163 127.193 35.5815 127.193C19.2466 127.193 6.00006 123.027 6.00006 117.889C6.00006 112.751 19.2466 108.584 35.5815 108.584C51.9163 108.584 65.1629 112.751 65.1629 117.889Z" fill="#FFDE3C"/>
<path d="M69.5264 114.921C69.3789 120.059 56.0196 123.843 39.6934 123.374C23.3672 122.906 10.2508 118.358 10.3983 113.219C10.5457 108.081 23.9051 104.297 40.2312 104.766C56.5574 105.234 69.6739 109.782 69.5264 114.921Z" fill="#FFC614"/>
<path d="M10.6829 103.072L10.3909 113.214L69.3992 114.915L69.6912 104.773L10.6829 103.072Z" fill="#FFC614"/>
<path d="M69.5523 103.09C69.5523 108.229 56.3058 112.395 39.9709 112.395C23.6361 112.395 10.3982 108.229 10.3982 103.09C10.3982 97.9522 23.6361 93.7861 39.9709 93.7861C56.3058 93.7861 69.5523 97.9522 69.5523 103.09Z" fill="#FFDE3C"/>
<path d="M67.3315 100.244C67.1841 105.382 53.8247 109.166 37.4985 108.698C21.1724 108.229 8.05594 103.681 8.20341 98.5427C8.35088 93.4045 21.7102 89.6204 38.0364 90.089C54.3625 90.5577 67.479 95.1057 67.3315 100.244Z" fill="#FFC614"/>
<path d="M8.49198 88.3883L8.19998 98.5303L67.2082 100.231L67.5002 90.089L8.49198 88.3883Z" fill="#FFC614"/>
<path d="M67.3575 88.4136C67.3575 93.5518 54.1196 97.7179 37.7847 97.7179C21.4499 97.7179 8.20331 93.5518 8.20331 88.4136C8.20331 83.2755 21.4412 79.1094 37.7847 79.1094C54.1196 79.1094 67.3575 83.2755 67.3575 88.4136Z" fill="#FFDE3C"/>
<path opacity="0.12" d="M34.4365 152.043C32.7102 149.005 33.6211 145.229 33.6384 141.931C33.6558 139.206 33.7945 136.472 33.8726 133.746C33.7078 133.347 33.6124 132.931 33.6124 132.523C33.6124 132.271 33.6471 132.019 33.7078 131.768C32.1984 130.596 31.3829 129.329 31.4176 128.027L31.6779 119.13C31.5131 118.731 31.4176 118.315 31.4176 117.898C31.4176 112.76 44.6555 108.594 60.999 108.594C63.9745 108.594 66.8546 108.733 69.5698 108.993L69.4224 114.088C69.4918 114.366 69.5265 114.643 69.5178 114.921C69.4657 116.666 67.8956 118.254 65.1977 119.573H65.3105L65.0415 128.886C65.0415 128.886 65.0415 128.886 65.0415 128.895C66.525 130.006 67.3491 131.221 67.3491 132.505C67.3491 133.078 67.1842 133.634 66.8719 134.18L67.4965 134.198L67.2276 143.502C67.297 143.78 67.3317 144.058 67.323 144.335C67.1756 149.473 53.8162 153.258 37.4901 152.789C36.5965 152.763 35.7117 152.728 34.8442 152.676C34.6967 152.468 34.5493 152.26 34.4278 152.043H34.4365Z" fill="black"/>
<path d="M97.9107 149.507C97.7632 154.645 84.4038 158.429 68.0777 157.961C51.7515 157.492 38.6351 152.944 38.7825 147.806C38.93 142.668 52.2894 138.884 68.6155 139.352C84.9417 139.821 98.0581 144.369 97.9107 149.507Z" fill="#FFC614"/>
<path d="M39.0721 137.66L38.7801 147.802L97.7883 149.502L98.0803 139.36L39.0721 137.66Z" fill="#FFC614"/>
<path d="M68.3554 146.982C84.6928 146.982 97.9368 142.816 97.9368 137.677C97.9368 132.539 84.6928 128.373 68.3554 128.373C52.018 128.373 38.774 132.539 38.774 137.677C38.774 142.816 52.018 146.982 68.3554 146.982Z" fill="#FFDE3C"/>
<path d="M95.7158 134.891C95.5684 140.029 82.209 143.814 65.8829 143.345C49.5567 142.876 36.4402 138.328 36.5877 133.19C36.7352 128.052 50.0945 124.268 66.4207 124.737C82.7469 125.205 95.8633 129.753 95.7158 134.891Z" fill="#FFC614"/>
<path d="M36.8809 123.039L36.5889 133.181L95.5971 134.881L95.8891 124.739L36.8809 123.039Z" fill="#FFC614"/>
<path d="M95.742 123.062C95.742 128.2 82.5041 132.366 66.1606 132.366C49.8171 132.366 36.5792 128.2 36.5792 123.062C36.5792 117.923 49.8171 113.757 66.1606 113.757C82.5041 113.757 95.742 117.923 95.742 123.062Z" fill="#FFDE3C"/>
<defs>
<linearGradient id="paint0_linear_2118_17282" x1="130.585" y1="122.442" x2="108.42" y2="58.1479" gradientUnits="userSpaceOnUse">
<stop stop-color="#F47D00"/>
<stop offset="0.28" stop-color="#FFA000"/>
<stop offset="1" stop-color="#FFD200"/>
</linearGradient>
<linearGradient id="paint1_linear_2118_17282" x1="111.014" y1="111.284" x2="130.916" y2="111.284" gradientUnits="userSpaceOnUse">
<stop stop-color="#42E5DB"/>
<stop offset="1" stop-color="#59D187"/>
</linearGradient>
<linearGradient id="paint2_linear_2118_17282" x1="111.014" y1="111.284" x2="130.916" y2="111.284" gradientUnits="userSpaceOnUse">
<stop stop-color="white"/>
<stop offset="1" stop-color="white" stop-opacity="0.1"/>
</linearGradient>
<linearGradient id="paint3_linear_2118_17282" x1="110.614" y1="120.339" x2="131.316" y2="120.339" gradientUnits="userSpaceOnUse">
<stop stop-color="#10A4D6"/>
<stop offset="1" stop-color="#2B54B3"/>
</linearGradient>
<linearGradient id="paint4_linear_2118_17282" x1="110.614" y1="120.339" x2="131.316" y2="120.339" gradientUnits="userSpaceOnUse">
<stop stop-color="white"/>
<stop offset="1" stop-color="#FFFEFE" stop-opacity="0"/>
</linearGradient>
<clipPath id="clip0_2118_17282">
<rect width="129.01" height="125.18" fill="white" transform="translate(56.0001 16)"/>
</clipPath>
</defs>
</svg>
