<svg width="241" height="166" viewBox="0 0 241 166" fill="none" xmlns="http://www.w3.org/2000/svg">
<path fill-rule="evenodd" clip-rule="evenodd" d="M200.64 123.937C222.721 124.692 240.794 118.62 240.998 110.368C241.202 102.116 223.453 94.8189 201.36 94.0635C179.279 93.3081 161.206 99.3796 161.002 107.632C160.798 115.884 178.547 123.181 200.64 123.937ZM195 135.5C195 146.27 162.093 155 121.5 155C116.197 155 111.026 154.851 106.042 154.568C97.3077 161.312 77.9622 166 55.5 166C24.8482 166 0 157.27 0 146.5C0 135.75 24.7572 127.032 55.3315 127C67.2362 120.489 92.3921 116 121.5 116C162.093 116 195 124.73 195 135.5Z" fill="black" fill-opacity="0.1"/>
<path d="M233.68 107.227C233.531 112.281 220.393 115.999 204.342 115.536C188.281 115.074 175.379 110.605 175.527 105.551C175.675 100.498 188.813 96.7794 204.865 97.242C220.925 97.7046 233.828 102.173 233.68 107.227V107.227Z" fill="#FFC614"/>
<path d="M175.808 95.5781L175.521 105.55L233.563 107.223L233.85 97.2509L175.808 95.5781Z" fill="#FFC614"/>
<path d="M233.706 95.5914C233.706 100.645 220.681 104.747 204.612 104.747C188.543 104.747 175.518 100.645 175.518 95.5914C175.518 90.5378 188.543 86.4355 204.612 86.4355C220.681 86.4355 233.706 90.5291 233.706 95.5914Z" fill="#FFDE3C"/>
<path d="M231.525 92.8511C231.377 97.9047 218.239 101.623 202.187 101.16C186.126 100.698 173.224 96.2289 173.372 91.1753C173.521 86.1217 186.659 82.4034 202.71 82.866C218.771 83.3286 231.673 87.7975 231.525 92.8511Z" fill="#FFC614"/>
<path d="M173.641 81.1982L173.354 91.1704L231.395 92.8432L231.682 82.871L173.641 81.1982Z" fill="#FFC614"/>
<path d="M231.542 81.2155C231.542 86.2691 218.518 90.3714 202.449 90.3714C186.38 90.3714 173.355 86.2691 173.355 81.2155C173.355 76.1618 186.38 72.0596 202.449 72.0596C218.518 72.0596 231.542 76.1618 231.542 81.2155Z" fill="#FFDE3C"/>
<path d="M235.834 78.3013C235.686 83.3549 222.548 87.0732 206.488 86.6106C190.427 86.148 177.525 81.6791 177.673 76.6255C177.821 71.5719 190.959 67.8536 207.011 68.3162C223.072 68.7788 235.974 73.2564 235.826 78.3013H235.834Z" fill="#FFC614"/>
<path d="M177.959 66.6494L177.672 76.6216L235.713 78.2944L236 68.3221L177.959 66.6494Z" fill="#FFC614"/>
<path d="M235.861 66.6574C235.861 71.711 222.836 75.8133 206.767 75.8133C190.698 75.8133 177.673 71.711 177.673 66.6574C177.673 61.6037 190.698 57.5015 206.767 57.5015C222.836 57.5015 235.861 61.6037 235.861 66.6574Z" fill="#FFDE3C"/>
<path d="M233.68 63.8643C233.531 68.9179 220.393 72.6362 204.342 72.1736C188.281 71.711 175.379 67.2421 175.527 62.1885C175.675 57.1348 188.813 53.4166 204.865 53.8792C220.926 54.3418 233.828 58.8107 233.68 63.873V63.8643Z" fill="#FFC614"/>
<path d="M175.8 52.2158L175.513 62.188L233.554 63.8608L233.842 53.8886L175.8 52.2158Z" fill="#FFC614"/>
<path d="M233.706 52.2296C233.706 57.2833 220.682 61.3855 204.612 61.3855C188.543 61.3855 175.519 57.292 175.519 52.2296C175.519 47.1673 188.543 43.0737 204.612 43.0737C220.682 43.0737 233.706 47.176 233.706 52.2296V52.2296Z" fill="#FFDE3C"/>
<path d="M233.68 49.4278C233.531 54.4814 220.393 58.1996 204.342 57.737C188.281 57.2744 175.379 52.8056 175.527 47.752C175.675 42.6983 188.813 38.9801 204.865 39.4427C220.926 39.9053 233.828 44.3741 233.68 49.4278V49.4278Z" fill="#FFC614"/>
<path d="M175.806 37.7734L175.519 47.7456L233.56 49.4184L233.848 39.4462L175.806 37.7734Z" fill="#FFC614"/>
<path d="M233.706 37.7931C233.706 42.8467 220.681 46.949 204.612 46.949C188.543 46.949 175.518 42.8467 175.518 37.7931C175.518 32.7395 188.543 28.6372 204.612 28.6372C220.681 28.6372 233.706 32.7307 233.706 37.7931Z" fill="#FFDE3C"/>
<path d="M235.616 35.2271C235.468 40.2807 222.33 43.9989 206.278 43.5364C190.218 43.0738 177.315 38.5962 177.464 33.5513C177.612 28.4976 190.75 24.7794 206.81 25.242C222.871 25.7046 235.773 30.1735 235.625 35.2271H235.616Z" fill="#FFC614"/>
<path d="M177.744 23.5747L177.456 33.5469L235.498 35.2197L235.785 25.2474L177.744 23.5747Z" fill="#FFC614"/>
<path d="M235.642 23.5924C235.642 28.6461 222.618 32.7483 206.549 32.7483C190.48 32.7483 177.455 28.6461 177.455 23.5924C177.455 18.5388 190.48 14.4365 206.549 14.4365C222.618 14.4365 235.642 18.5388 235.642 23.5924Z" fill="#FFDE3C"/>
<path d="M231.307 20.7906C231.159 25.8442 218.021 29.5624 201.969 29.0998C185.908 28.6372 173.006 24.1684 173.154 19.1147C173.303 14.0611 186.441 10.3429 202.492 10.8055C218.553 11.2681 231.455 15.7369 231.307 20.7906V20.7906Z" fill="#FFC614"/>
<path d="M173.438 9.1401L173.151 19.1123L231.192 20.7851L231.479 10.8129L173.438 9.1401Z" fill="#FFC614"/>
<path d="M231.333 9.1559C231.333 14.2095 218.308 18.3118 202.239 18.3118C186.17 18.3118 173.146 14.2095 173.146 9.1559C173.146 4.10226 186.17 0 202.239 0C218.308 0 231.333 4.10226 231.333 9.1559Z" fill="#FFDE3C"/>
<path d="M176.416 16H165.336V28.7476C167.798 29.9393 169.51 32.4628 169.51 35.3968C169.51 39.4825 166.207 42.787 162.123 42.787C158.04 42.787 154.737 39.4825 154.737 35.3968C154.737 32.4628 156.448 29.9393 158.911 28.7476V16H136.961V28.7476C139.434 29.9393 141.135 32.4628 141.135 35.3968C141.135 39.4825 137.832 42.787 133.749 42.787C129.665 42.787 126.362 39.4825 126.362 35.3968C126.362 32.4628 128.074 29.9393 130.536 28.7476V16H108.587V28.7476C111.059 29.9393 112.76 32.4628 112.76 35.3968C112.76 39.4825 109.457 42.787 105.374 42.787C101.29 42.787 97.9874 39.4825 97.9874 35.3968C97.9874 32.4628 99.6989 29.9393 102.161 28.7476V16H80.212V28.7476C82.6841 29.9393 84.3856 32.4628 84.3856 35.3968C84.3856 39.4825 81.0827 42.787 76.9992 42.787C72.9156 42.787 69.6127 39.4825 69.6127 35.3968C69.6127 32.4628 71.3242 29.9393 73.7864 28.7476V16H62.7067C58.453 16 55 19.4548 55 23.7107V133.633C55 137.888 58.453 141.343 62.7067 141.343H176.416C180.669 141.343 184.122 137.888 184.122 133.633V23.7207C184.122 19.4548 180.669 16.01 176.416 16.01V16Z" fill="#F5F5F5"/>
<g clip-path="url(#clip0_2075_21450)">
<path d="M177.31 16H166.24V28.73C168.7 29.92 170.41 32.44 170.41 35.37C170.41 39.45 167.11 42.75 163.03 42.75C158.95 42.75 155.65 39.45 155.65 35.37C155.65 32.44 157.36 29.92 159.82 28.73V16H137.89V28.73C140.36 29.92 142.06 32.44 142.06 35.37C142.06 39.45 138.76 42.75 134.68 42.75C130.6 42.75 127.3 39.45 127.3 35.37C127.3 32.44 129.01 29.92 131.47 28.73V16H109.54V28.73C112.01 29.92 113.71 32.44 113.71 35.37C113.71 39.45 110.41 42.75 106.33 42.75C102.25 42.75 98.95 39.45 98.95 35.37C98.95 32.44 100.66 29.92 103.12 28.73V16H81.18V28.73C83.65 29.92 85.35 32.44 85.35 35.37C85.35 39.45 82.05 42.75 77.97 42.75C73.89 42.75 70.59 39.45 70.59 35.37C70.59 32.44 72.3 29.92 74.76 28.73V16H63.7C59.45 16 56 19.45 56 23.7V133.48C56 137.73 59.45 141.18 63.7 141.18H177.31C181.56 141.18 185.01 137.73 185.01 133.48V23.7C185.01 19.44 181.56 16 177.31 16V16Z" fill="#F5F5F5"/>
<path d="M56.59 85.1602V89.8102H120.5H184.42V85.1602H120.5H56.59Z" fill="#E6E6E6"/>
<path d="M56.59 107.59V112.25H120.5H184.42V107.59H120.5H56.59Z" fill="#E6E6E6"/>
<path d="M120.5 62.7202H56.59V67.3702H120.5H184.42V62.7202H120.5Z" fill="#E6E6E6"/>
<path d="M184.42 62.7202H56.59V67.3802H184.42V62.7202Z" fill="#E6E6E6"/>
<path d="M184.42 107.59H56.59V112.25H184.42V107.59Z" fill="#E6E6E6"/>
<path d="M184.42 85.1602H56.59V89.8202H184.42V85.1602Z" fill="#E6E6E6"/>
<path fill-rule="evenodd" clip-rule="evenodd" d="M156.06 90.243C156.058 105.533 145.719 116.324 131.348 119.258V119.454C131.348 125.173 126.714 129.814 120.989 129.814C115.27 129.814 110.629 125.18 110.629 119.454V118.736C88.3697 114.478 79.815 101.55 85.9109 87.5322C87.6693 83.4869 89.4413 79.4659 91.3625 75.6744C90.7017 75.4955 90.2138 74.8904 90.2138 74.1741C90.2138 73.3177 90.9113 72.6202 91.7677 72.6202H92.9744C99.1156 61.4813 106.99 53 120.443 53C133.35 53 145.102 61.3248 151.349 72.6202H153.256H153.277C154.133 72.6202 154.831 73.3177 154.831 74.1741C154.831 75.0305 154.133 75.7281 153.277 75.7281H152.895C154.92 80.2962 156.059 85.2384 156.06 90.243Z" fill="white"/>
</g>
<path d="M67.3315 144.334C67.184 149.472 53.8247 153.257 37.4985 152.788C21.1724 152.319 8.05591 147.771 8.20338 142.633C8.35085 137.495 21.7102 133.711 38.0364 134.179C54.3625 134.648 67.479 139.196 67.3315 144.334Z" fill="#FFC614"/>
<path d="M8.49976 132.481L8.20776 142.623L67.216 144.324L67.508 134.182L8.49976 132.481Z" fill="#FFC614"/>
<path d="M67.3578 132.504C67.3578 137.643 54.1199 141.809 37.785 141.809C21.4502 141.809 8.20361 137.643 8.20361 132.504C8.20361 127.366 21.4415 123.2 37.785 123.2C54.1199 123.2 67.3578 127.366 67.3578 132.504Z" fill="#FFDE3C"/>
<path d="M65.1367 129.718C64.9892 134.857 51.6299 138.641 35.3037 138.172C18.9775 137.695 5.86108 133.147 6.00856 128.009C6.15603 122.87 19.5154 119.086 35.8415 119.555C52.1677 120.024 65.2841 124.572 65.1367 129.71V129.718Z" fill="#FFC614"/>
<path d="M6.3086 117.869L6.0166 128.011L65.0248 129.711L65.3168 119.569L6.3086 117.869Z" fill="#FFC614"/>
<path d="M65.1628 117.889C65.1628 123.027 51.9162 127.193 35.5814 127.193C19.2466 127.193 6 123.027 6 117.889C6 112.751 19.2466 108.584 35.5814 108.584C51.9162 108.584 65.1628 112.751 65.1628 117.889Z" fill="#FFDE3C"/>
<path d="M69.5263 114.921C69.3788 120.059 56.0195 123.843 39.6933 123.374C23.3672 122.906 10.2507 118.358 10.3982 113.219C10.5457 108.081 23.905 104.297 40.2312 104.766C56.5573 105.234 69.6738 109.782 69.5263 114.921V114.921Z" fill="#FFC614"/>
<path d="M10.6829 103.072L10.3909 113.214L69.3991 114.915L69.6911 104.773L10.6829 103.072Z" fill="#FFC614"/>
<path d="M69.5522 103.09C69.5522 108.229 56.3056 112.395 39.9708 112.395C23.636 112.395 10.3981 108.229 10.3981 103.09C10.3981 97.9522 23.636 93.7861 39.9708 93.7861C56.3056 93.7861 69.5522 97.9522 69.5522 103.09V103.09Z" fill="#FFDE3C"/>
<path d="M67.3315 100.244C67.184 105.382 53.8247 109.166 37.4985 108.698C21.1724 108.229 8.05591 103.681 8.20338 98.5427C8.35085 93.4045 21.7102 89.6204 38.0364 90.089C54.3625 90.5577 67.479 95.1057 67.3315 100.244Z" fill="#FFC614"/>
<path d="M8.49195 88.3883L8.19995 98.5303L67.2082 100.231L67.5002 90.089L8.49195 88.3883Z" fill="#FFC614"/>
<path d="M67.3574 88.4136C67.3574 93.5518 54.1195 97.7179 37.7847 97.7179C21.4498 97.7179 8.20325 93.5518 8.20325 88.4136C8.20325 83.2755 21.4411 79.1094 37.7847 79.1094C54.1195 79.1094 67.3574 83.2755 67.3574 88.4136Z" fill="#FFDE3C"/>
<path opacity="0.12" d="M34.4364 152.043C32.7101 149.005 33.621 145.229 33.6383 141.931C33.6557 139.206 33.7945 136.472 33.8726 133.746C33.7077 133.347 33.6123 132.931 33.6123 132.523C33.6123 132.271 33.647 132.019 33.7077 131.768C32.1983 130.596 31.3829 129.329 31.4176 128.027L31.6778 119.13C31.513 118.731 31.4176 118.315 31.4176 117.898C31.4176 112.76 44.6555 108.594 60.999 108.594C63.9745 108.594 66.8545 108.733 69.5698 108.993L69.4223 114.088C69.4917 114.366 69.5264 114.643 69.5177 114.921C69.4657 116.666 67.8955 118.254 65.1976 119.573H65.3104L65.0415 128.886C65.0415 128.886 65.0415 128.886 65.0415 128.895C66.5249 130.006 67.349 131.221 67.349 132.505C67.349 133.078 67.1842 133.634 66.8719 134.18L67.4965 134.198L67.2276 143.502C67.297 143.78 67.3317 144.058 67.323 144.335C67.1755 149.473 53.8162 153.258 37.49 152.789C36.5965 152.763 35.7116 152.728 34.8442 152.676C34.6967 152.468 34.5492 152.26 34.4278 152.043H34.4364Z" fill="black"/>
<path d="M97.9106 149.507C97.7631 154.645 84.4038 158.429 68.0776 157.961C51.7515 157.492 38.635 152.944 38.7825 147.806C38.93 142.668 52.2893 138.884 68.6155 139.352C84.9416 139.821 98.0581 144.369 97.9106 149.507Z" fill="#FFC614"/>
<path d="M39.072 137.66L38.78 147.802L97.7883 149.502L98.0802 139.36L39.072 137.66Z" fill="#FFC614"/>
<path d="M68.3553 146.982C84.6927 146.982 97.9367 142.816 97.9367 137.677C97.9367 132.539 84.6927 128.373 68.3553 128.373C52.018 128.373 38.7739 132.539 38.7739 137.677C38.7739 142.816 52.018 146.982 68.3553 146.982Z" fill="#FFDE3C"/>
<path d="M95.7158 134.891C95.5683 140.029 82.2089 143.814 65.8828 143.345C49.5566 142.876 36.4402 138.328 36.5877 133.19C36.7351 128.052 50.0945 124.268 66.4206 124.737C82.7468 125.205 95.8632 129.753 95.7158 134.891Z" fill="#FFC614"/>
<path d="M36.8809 123.039L36.5889 133.181L95.5971 134.881L95.8891 124.739L36.8809 123.039Z" fill="#FFC614"/>
<path d="M95.7419 123.062C95.7419 128.2 82.504 132.366 66.1605 132.366C49.817 132.366 36.5791 128.2 36.5791 123.062C36.5791 117.923 49.817 113.757 66.1605 113.757C82.504 113.757 95.7419 117.923 95.7419 123.062Z" fill="#FFDE3C"/>
<path d="M122.994 77.8807C122.994 75.6322 121.988 73.9086 119.626 73.9086C117.707 73.9086 116.266 74.9935 115.678 77.2508C115.405 78.3007 114.424 79.0006 113.367 79.0006H112.983C111.371 79.0006 110.229 77.3995 110.681 75.8159C112.156 70.6627 116.275 68.9304 119.796 69.1141C124.759 69.3329 128.597 72.2638 128.597 77.452C128.597 85.9649 121.783 84.1451 121.485 91.0919C121.425 92.4217 120.376 93.4804 119.089 93.4804C117.758 93.4804 116.692 92.3692 116.684 90.9956C116.624 82.369 123.003 83.0514 123.003 77.8895L122.994 77.8807ZM118.534 97.015H119.873C121.203 97.015 122.278 98.1174 122.278 99.4823V100.681C122.278 102.046 121.203 103.148 119.873 103.148H118.534C117.204 103.148 116.13 102.046 116.13 100.681V99.4823C116.13 98.1174 117.204 97.015 118.534 97.015Z" fill="#DFDFDF"/>
<defs>
<clipPath id="clip0_2075_21450">
<rect width="129.01" height="125.18" fill="white" transform="translate(56 16)"/>
</clipPath>
</defs>
</svg>
