<svg width="80" height="80" viewBox="0 0 80 80" fill="none" xmlns="http://www.w3.org/2000/svg">
<g clip-path="url(#clip0_2034_21353)">
<path opacity="0.2" d="M14.9518 53.1572C14.9518 53.1572 1.2552 55.5753 7.74594 61.2176C14.2367 66.8599 29.0242 75.2476 59.3143 68.7689C89.6044 62.2903 66.9444 57.5632 59.3143 56.4359C51.6842 55.3087 14.9518 53.1572 14.9518 53.1572V53.1572Z" fill="#231815"/>
<path d="M71.0896 38.6779C71.0896 55.4108 56.9809 66.0045 39.4965 64.7439C13.873 62.8955 3.48535 50.211 9.53367 36.3022C16.2062 20.9511 23.103 6 39.8359 6C56.5688 6 71.0896 21.945 71.0896 38.684V38.6779Z" fill="url(#paint0_linear_2034_21353)"/>
<path d="M48.8114 40.7314H50.6356C55.1082 40.7314 57.6415 44.6889 54.8961 47.404C52.9386 49.3433 50.169 50.8766 46.9327 51.7675C44.8903 52.3311 42.6601 52.6463 40.3207 52.6463C37.4602 52.6463 34.7694 52.1796 32.3755 51.3554C29.7089 50.4342 27.4302 49.0767 25.7454 47.404C23 44.6889 25.5272 40.7314 30.0059 40.7314H48.8114V40.7314Z" fill="#F95353"/>
<path d="M68.6292 23.2168H14.673C13.9216 23.2168 13.3094 23.8289 13.3094 24.5804C13.3094 25.3319 13.9216 25.944 14.673 25.944H16.4609C16.7518 33.0226 22.0607 38.6649 28.5697 38.6649C35.0786 38.6649 40.3875 33.0226 40.6784 25.944H42.642C42.9329 33.0226 48.2419 38.6649 54.7508 38.6649C61.2597 38.6649 66.5687 33.0226 66.8596 25.944H68.6474C69.3989 25.944 70.011 25.3319 70.011 24.5804C70.011 23.8289 69.3989 23.2168 68.6474 23.2168H68.6292Z" fill="#231815"/>
<path opacity="0.3" d="M54.9629 37.5377H52.2781L59.4233 26.3926H62.1081L54.9629 37.5377Z" fill="#7F6A65"/>
<path opacity="0.3" d="M59.9204 35.6469H57.6902L63.6234 26.3926H65.8536L59.9204 35.6469Z" fill="#7F6A65"/>
<path d="M49.0601 50.0351C49.0601 45.2086 45.1475 41.2959 40.321 41.2959C35.4944 41.2959 31.5818 45.2086 31.5818 50.0351V64.3498C31.5818 69.1763 35.4944 73.089 40.321 73.089C45.1475 73.089 49.0601 69.1763 49.0601 64.3498V50.0351Z" fill="url(#paint1_linear_2034_21353)"/>
<path d="M49.0601 50.0351C49.0601 45.2086 45.1475 41.2959 40.321 41.2959C35.4944 41.2959 31.5818 45.2086 31.5818 50.0351V64.3498C31.5818 69.1763 35.4944 73.089 40.321 73.089C45.1475 73.089 49.0601 69.1763 49.0601 64.3498V50.0351Z" fill="url(#paint2_linear_2034_21353)"/>
<path d="M31.2241 56.8721V64.3143C31.2241 69.3384 35.2967 73.405 40.3148 73.405C45.3389 73.405 49.4055 69.3323 49.4055 64.3143V56.8721H31.2241Z" fill="url(#paint3_linear_2034_21353)"/>
<path opacity="0.4" d="M31.2241 56.8721V64.3143C31.2241 69.3384 35.2967 73.405 40.3148 73.405C45.3389 73.405 49.4055 69.3323 49.4055 64.3143V56.8721H31.2241Z" fill="url(#paint4_linear_2034_21353)"/>
<path d="M41.0724 45.4773C49.6539 45.4773 50.9448 41.041 51.0903 40.3926H37.933L30.5211 40.4411C30.5211 40.4411 31.812 45.4773 41.0724 45.4773Z" fill="white"/>
</g>
<defs>
<linearGradient id="paint0_linear_2034_21353" x1="48.769" y1="66.9863" x2="29.3028" y2="10.5211" gradientUnits="userSpaceOnUse">
<stop stop-color="#F47D00"/>
<stop offset="0.28" stop-color="#FFA000"/>
<stop offset="1" stop-color="#FFD200"/>
</linearGradient>
<linearGradient id="paint1_linear_2034_21353" x1="31.5818" y1="57.1864" x2="49.0601" y2="57.1864" gradientUnits="userSpaceOnUse">
<stop stop-color="#42E5DB"/>
<stop offset="1" stop-color="#59D187"/>
</linearGradient>
<linearGradient id="paint2_linear_2034_21353" x1="31.5818" y1="57.1864" x2="49.0601" y2="57.1864" gradientUnits="userSpaceOnUse">
<stop stop-color="white"/>
<stop offset="1" stop-color="white" stop-opacity="0.1"/>
</linearGradient>
<linearGradient id="paint3_linear_2034_21353" x1="31.2302" y1="65.1385" x2="49.4115" y2="65.1385" gradientUnits="userSpaceOnUse">
<stop stop-color="#10A4D6"/>
<stop offset="1" stop-color="#2B54B3"/>
</linearGradient>
<linearGradient id="paint4_linear_2034_21353" x1="31.2302" y1="65.1385" x2="49.4115" y2="65.1385" gradientUnits="userSpaceOnUse">
<stop stop-color="white"/>
<stop offset="1" stop-color="#FFFEFE" stop-opacity="0"/>
</linearGradient>
<clipPath id="clip0_2034_21353">
<rect width="80" height="80" fill="white"/>
</clipPath>
</defs>
</svg>
