<svg width="99" height="18" viewBox="0 0 99 18" fill="none" xmlns="http://www.w3.org/2000/svg">
<path d="M27.9561 0.169277H17.6814C17.4726 0.169277 17.3055 0.338556 17.3055 0.550155V17.2523C17.3055 17.4639 17.4726 17.6332 17.6814 17.6332H20.7583C20.9671 17.6332 21.1342 17.4639 21.1342 17.2523V11.2429C21.1342 11.0313 21.3012 10.8621 21.5101 10.8621H26.9955C27.2043 10.8621 27.3714 10.6928 27.3714 10.4812V7.7163C27.3714 7.5047 27.2043 7.33542 26.9955 7.33542H21.5101C21.3012 7.33542 21.1342 7.16614 21.1342 6.95454V4.13323C21.1342 3.92163 21.3012 3.75235 21.5101 3.75235H27.9561C28.165 3.75235 28.332 3.58307 28.332 3.37147V0.536048C28.332 0.324449 28.165 0.15517 27.9561 0.15517V0.169277Z" fill="white" fill-opacity="0.2"/>
<path d="M33.6782 6.10815H30.7128C30.5051 6.10815 30.3369 6.27867 30.3369 6.48902V17.2523C30.3369 17.4627 30.5051 17.6332 30.7128 17.6332H33.6782C33.8858 17.6332 34.0541 17.4627 34.0541 17.2523V6.48902C34.0541 6.27867 33.8858 6.10815 33.6782 6.10815Z" fill="white" fill-opacity="0.2"/>
<path d="M75.0973 5.72727C73.4266 5.72727 72.0622 6.54545 71.2825 7.97022H71.2269C70.6421 6.57367 69.403 5.72727 67.6627 5.72727C66.006 5.72727 64.7808 6.50313 64.1404 7.75862V6.47492C64.1404 6.40439 64.0986 6.34796 64.0708 6.29154C64.0708 6.29154 64.0151 6.2069 63.9733 6.17868C63.9176 6.13636 63.8619 6.09404 63.7784 6.09404H60.799C60.5902 6.09404 60.4231 6.26332 60.4231 6.47492V17.2523C60.4231 17.4639 60.5902 17.6332 60.799 17.6332H63.7784C63.9872 17.6332 64.1404 17.4639 64.1404 17.2665V11.9201C64.1404 9.74765 65.0314 9.05643 66.1591 9.05643C67.4678 9.05643 68.0108 9.93103 68.0108 11.384V17.2665C68.0108 17.4781 68.1779 17.6473 68.3867 17.6473H71.2129C71.4218 17.6473 71.5888 17.4781 71.5888 17.2665V11.9201C71.5888 9.74765 72.4799 9.05643 73.6076 9.05643C74.9163 9.05643 75.4593 9.93103 75.4593 11.384V17.2665C75.4593 17.4781 75.6263 17.6473 75.8352 17.6473H78.8145C79.0234 17.6473 79.1905 17.4781 79.1905 17.2665V10.1144C79.1905 7.32132 77.4919 5.72727 75.1251 5.72727H75.0973Z" fill="white" fill-opacity="0.2"/>
<path d="M84.5227 6.10815H81.5573C81.3496 6.10815 81.1814 6.27867 81.1814 6.48902V17.2523C81.1814 17.4627 81.3496 17.6332 81.5573 17.6332H84.5227C84.7303 17.6332 84.8986 17.4627 84.8986 17.2523V6.48902C84.8986 6.27867 84.7303 6.10815 84.5227 6.10815Z" fill="white" fill-opacity="0.2"/>
<path d="M55.244 1.01567H48.7979C48.5903 1.01567 48.422 1.1862 48.422 1.39655V2.779C48.422 2.98935 48.5903 3.15988 48.7979 3.15988H55.244C55.4516 3.15988 55.6199 2.98935 55.6199 2.779V1.39655C55.6199 1.1862 55.4516 1.01567 55.244 1.01567Z" fill="white" fill-opacity="0.2"/>
<path d="M58.0285 6.10815H55.0491C54.8402 6.10815 54.6871 6.27743 54.6871 6.47492V7.67398H54.6453C53.9353 6.50313 52.7797 5.72727 50.928 5.72727C47.9765 5.72727 45.5401 7.82915 45.5401 11.8636C45.5401 15.8981 47.9765 18 50.928 18C52.7797 18 53.9353 17.2241 54.6453 16.0533H54.6871V17.2523C54.6871 17.4639 54.8542 17.6191 55.0491 17.6191H58.0285C58.2373 17.6191 58.4044 17.4498 58.4044 17.2382V6.47492C58.4044 6.26332 58.2373 6.09404 58.0285 6.09404V6.10815ZM51.9444 14.5721C50.4686 14.5721 49.327 13.5282 49.327 11.8777C49.327 10.2273 50.4547 9.18339 51.9444 9.18339C53.4341 9.18339 54.5757 10.2273 54.5757 11.8777C54.5757 13.5282 53.448 14.5721 51.9444 14.5721Z" fill="white" fill-opacity="0.2"/>
<path d="M32.3278 0H32.0632C30.9216 0 30.0027 0.931035 30.0027 2.08777C30.0027 3.24451 30.9216 4.17555 32.0632 4.17555H32.3278C33.4694 4.17555 34.3883 3.24451 34.3883 2.08777C34.3883 0.931035 33.4694 0 32.3278 0Z" fill="white" fill-opacity="0.2"/>
<path d="M83.1862 0H82.9217C81.78 0 80.8611 0.931035 80.8611 2.08777C80.8611 3.24451 81.78 4.17555 82.9217 4.17555H83.1862C84.3278 4.17555 85.2467 3.24451 85.2467 2.08777C85.2467 0.931035 84.3278 0 83.1862 0Z" fill="white" fill-opacity="0.2"/>
<path d="M94.3519 5.72727C92.7648 5.72727 91.4561 6.48903 90.6625 7.80094V6.47492C90.6625 6.39028 90.6207 6.33385 90.5789 6.27743C90.5511 6.23511 90.5233 6.2069 90.4954 6.19279C90.4397 6.15047 90.384 6.10815 90.3005 6.10815H87.3072C87.0984 6.10815 86.9313 6.27743 86.9313 6.48903V17.2665C86.9313 17.4781 87.0984 17.6473 87.3072 17.6473H90.3005C90.5093 17.6473 90.6625 17.4781 90.6625 17.2806V11.7367C90.7043 9.78997 91.6231 9.07053 92.8483 9.07053C94.2266 9.07053 94.9367 9.84639 94.9367 11.5674V17.2806C94.9367 17.4922 95.1037 17.6614 95.3126 17.6614H98.2641C98.4729 17.6614 98.64 17.4922 98.64 17.2806V10.4953C98.64 7.19436 96.8719 5.72727 94.3519 5.72727Z" fill="white" fill-opacity="0.2"/>
<path d="M43.9947 6.09404H42.2126C42.1152 6.09404 42.0316 6.0094 42.0316 5.91066V1.39655C42.0316 1.18495 41.8646 1.01567 41.6557 1.01567H38.6764C38.4675 1.01567 38.3004 1.18495 38.3004 1.39655V5.91066C38.3004 6.0094 38.2169 6.09404 38.1195 6.09404H36.4627C36.2539 6.09404 36.0868 6.26332 36.0868 6.47492V8.87304C36.0868 9.08464 36.2539 9.25392 36.4627 9.25392H38.1195C38.2169 9.25392 38.3004 9.33856 38.3004 9.4373V13.7398C38.3004 16.5047 39.8041 17.6332 42.1152 17.6332H43.4517C43.5631 17.6332 43.6606 17.5345 43.6606 17.4216V14.3464C43.6606 14.2335 43.5631 14.1348 43.4517 14.1348H43.2429C42.2822 14.1348 42.0177 13.7821 42.0177 12.71V9.4232C42.0177 9.32445 42.1013 9.23981 42.1987 9.23981H43.9808C44.1896 9.23981 44.3567 9.07053 44.3567 8.85893V6.46082C44.3567 6.24922 44.1896 6.07994 43.9808 6.07994L43.9947 6.09404Z" fill="white" fill-opacity="0.2"/>
<path d="M9.81527 10.6505L7.81045 9.88872C7.29532 9.69123 6.84981 9.50784 6.84981 9.02822C6.84981 8.57681 7.17002 8.37931 7.90791 8.37931C8.68756 8.37931 9.7735 8.63323 11.0544 9.09875H11.0822C11.2075 9.09875 11.3189 9.02822 11.3607 8.90126L12.1125 6.67242C12.1403 6.60188 12.1403 6.50314 12.0985 6.4326C12.0568 6.36207 11.9872 6.29154 11.9176 6.27743C10.6367 5.89655 9.3976 5.71317 8.22812 5.71317C6.02839 5.71317 3.41098 6.34797 3.41098 9.38088C3.41098 11.0455 4.28809 12.1599 6.15369 12.8793L8.36735 13.768C8.67364 13.8809 9.06346 14.0361 9.06346 14.5016C9.06346 14.9389 8.65971 15.1646 7.88006 15.1646C6.73843 15.1646 5.51326 14.7978 4.00964 14.0078H3.9818C3.87042 14.0078 3.75904 14.0643 3.71727 14.1771L2.67309 16.4906C2.63133 16.5611 2.63133 16.6458 2.67309 16.7304C2.70094 16.8009 2.75663 16.8715 2.82624 16.8997C4.77537 17.7884 6.65489 17.9154 7.60161 17.9154C10.9012 17.9154 12.5719 16.6317 12.5719 14.0925C12.5719 12.3715 11.7922 11.3699 9.85704 10.6505H9.81527Z" fill="white" fill-opacity="0.2"/>
<path d="M0.375904 6.67241L1.15556 4.2884L0.417671 3.4279C0.334137 3.32915 0.23668 3.17398 0.139224 2.97649C0.0417671 2.779 0 2.51097 0 2.18652C0 1.56583 0.194913 1.10031 0.58474 0.747648C0.974566 0.394983 1.44793 0.211597 1.97698 0.211597C2.50603 0.211597 2.97939 0.380876 3.35529 0.733541C3.7312 1.08621 3.91219 1.55172 3.91219 2.18652C3.91219 2.60972 3.82865 3.03291 3.66158 3.4279C3.49452 3.83699 3.24391 4.26019 2.90978 4.7116L1.25301 7.0674L0.361982 6.67241H0.375904Z" fill="white" fill-opacity="0.2"/>
</svg>
