<svg width="68" height="68" viewBox="0 0 68 68" fill="none" xmlns="http://www.w3.org/2000/svg">
<g clip-path="url(#clip0_558_2590)">
<path d="M52.3444 57.5123C52.1002 57.2072 52.4316 56.78 52.7891 56.9456L55.7014 58.3231C59.7473 53.9205 62.7032 48.2713 64.0634 41.9333L61.3604 40.521C61.0116 40.3379 61.1511 39.8149 61.5435 39.8236L64.4471 39.9021C64.7523 37.9841 64.9092 36.0138 64.9092 34C64.9092 28.8128 63.8629 23.9046 62.0056 19.5108L59.1543 20.6441C58.7881 20.7923 58.4829 20.339 58.7445 20.0513L61.0726 17.4969C55.8496 7.06154 45.857 0 34.3821 0C22.9072 0 12.9146 7.06154 7.70036 17.4882L10.0285 20.0426C10.2901 20.3303 9.98488 20.7836 9.61866 20.6354L6.76737 19.5021C4.91011 23.9046 3.86377 28.8128 3.86377 34C3.86377 36.0138 4.02072 37.9841 4.3259 39.9021L7.22951 39.8236C7.62189 39.8149 7.75268 40.3379 7.41262 40.521L4.70956 41.9333C6.06981 48.2713 9.02573 53.9118 13.0716 58.3231L15.9839 56.9456C16.3414 56.78 16.6728 57.2072 16.4286 57.5123L14.5626 59.84C19.899 64.9226 26.8223 68 34.3909 68C41.9594 68 48.8827 64.9313 54.2191 59.84L52.3531 57.5123H52.3444ZM15.0509 26.921C15.0509 24.1749 18.7219 21.9431 23.256 21.9431C27.7902 21.9431 31.4611 24.1749 31.4611 26.921C31.4611 29.6672 27.7902 31.899 23.256 31.899C18.7219 31.899 15.0509 29.6672 15.0509 26.921V26.921ZM39.4133 41.1749C40.0411 41.1749 40.5556 41.6892 40.5556 42.3256C40.5556 42.9621 40.0411 43.4764 39.4133 43.4764H29.351C28.7232 43.4764 28.2087 42.9621 28.2087 42.3256C28.2087 41.6892 28.7232 41.1749 29.351 41.1749H39.4133ZM34.3821 56.902C29.0632 56.902 24.7471 54.6092 24.7471 51.7759C24.7471 48.9426 29.0632 46.6497 34.3821 46.6497C39.7011 46.6497 44.0172 48.9426 44.0172 51.7759C44.0172 54.6092 39.7011 56.902 34.3821 56.902ZM37.3032 26.921C37.3032 24.1749 40.9741 21.9431 45.5083 21.9431C50.0424 21.9431 53.7133 24.1749 53.7133 26.921C53.7133 29.6672 50.0424 31.899 45.5083 31.899C40.9741 31.899 37.3032 29.6672 37.3032 26.921V26.921Z" fill="#FFD1BE"/>
<path opacity="0.3" d="M58.2388 12.7979C52.6496 4.99538 44.0347 0 34.3821 0C22.9072 0 12.9146 7.06154 7.70036 17.4882L10.0285 20.0426C10.2901 20.3303 9.98488 20.7836 9.61866 20.6354L6.76737 19.5021C4.91011 23.9046 3.86377 28.8128 3.86377 34C3.86377 36.0138 4.02072 37.9841 4.3259 39.902L7.22951 39.8236C7.62189 39.8149 7.75268 40.3379 7.41262 40.521L4.70956 41.9333C5.71231 46.58 7.56085 50.8605 10.0808 54.5482C11.6329 55.6554 13.307 56.5969 15.0684 57.3728L15.9752 56.9369C16.3327 56.7713 16.664 57.1985 16.4199 57.5036L16.167 57.8174C19.2625 59.0118 22.6108 59.6744 26.1073 59.6744H30.3101C45.6652 59.6744 58.2388 47.0246 58.2388 31.559V12.7979ZM15.0509 26.921C15.0509 24.1749 18.7219 21.9431 23.256 21.9431C27.7902 21.9431 31.4611 24.1749 31.4611 26.921C31.4611 29.6672 27.7902 31.899 23.256 31.899C18.7219 31.899 15.0509 29.6672 15.0509 26.921V26.921ZM39.4133 41.1749C40.0411 41.1749 40.5556 41.6892 40.5556 42.3256C40.5556 42.962 40.0411 43.4764 39.4133 43.4764H29.351C28.7232 43.4764 28.2087 42.962 28.2087 42.3256C28.2087 41.6892 28.7232 41.1749 29.351 41.1749H39.4133ZM34.3821 56.902C29.0632 56.902 24.7471 54.6092 24.7471 51.7759C24.7471 48.9426 29.0632 46.6497 34.3821 46.6497C39.7011 46.6497 44.0172 48.9426 44.0172 51.7759C44.0172 54.6092 39.7011 56.902 34.3821 56.902ZM45.5083 31.899C40.9741 31.899 37.3032 29.6672 37.3032 26.921C37.3032 24.1749 40.9741 21.9431 45.5083 21.9431C50.0424 21.9431 53.7133 24.1749 53.7133 26.921C53.7133 29.6672 50.0424 31.899 45.5083 31.899V31.899Z" fill="#FFEBE3"/>
</g>
<defs>
<clipPath id="clip0_558_2590">
<rect width="68" height="68" fill="white"/>
</clipPath>
</defs>
</svg>
