<svg width="68" height="68" viewBox="0 0 68 68" fill="none" xmlns="http://www.w3.org/2000/svg">
<g clip-path="url(#clip0_558_3099)">
<path d="M46.9401 4.67291C26.7446 14.7835 10.7509 31.0121 1.07275 50.5925C6.20927 54.0465 11.3458 57.501 16.4823 60.9549C27.0877 46.7017 42.0126 36.6201 58.4507 33.134C64.0178 31.9531 69.4867 24.8759 67.631 15.5037C65.7992 6.14085 54.7399 0.0475279 46.9395 4.67228L46.9401 4.67291Z" fill="#EC736D"/>
<path d="M47.0851 8.90487C28.0145 18.2702 12.6502 33.3675 3.06961 51.8118C3.04318 51.8622 3.06395 51.9314 3.11494 51.9654C6.89053 54.5041 10.6661 57.0434 14.4417 59.5821C14.4933 59.616 14.5569 59.6116 14.5852 59.572C24.8369 45.0154 39.5188 34.6775 55.8732 29.8563C61.1614 28.3166 64.4454 22.3681 62.6791 15.7454C60.9247 9.134 53.5164 5.70084 47.0851 8.90424V8.90487Z" fill="url(#paint0_linear_558_3099)"/>
<path d="M47.7666 32.6795C48.3413 33.7534 48.916 34.8273 49.4907 35.9005C52.3725 34.8021 55.3184 33.8894 58.3103 33.1686C57.8237 31.9707 57.3371 30.7735 56.8499 29.5756C54.1098 30.3448 51.4157 31.267 48.7788 32.3371C48.4452 32.4724 48.1078 32.5857 47.7666 32.6795V32.6795Z" fill="#D8504A"/>
<path d="M36.1256 10.928C36.7003 12.0019 37.2751 13.0757 37.8498 14.149C38.1884 13.8802 38.5466 13.6284 38.9249 13.3962C41.9174 11.5612 45.0207 9.87612 48.226 8.35342C47.7395 7.15553 47.2529 5.95827 46.7657 4.76038C43.0744 6.61607 39.5229 8.6776 36.125 10.928H36.1256Z" fill="#D8504A"/>
<path d="M32.1588 30.1132C27.9753 24.4982 29.1537 15.5968 36.1213 10.9312C20.8427 21.0525 8.68502 34.957 0.810911 51.1263C-1.25943 55.4174 0.822242 60.6761 4.9516 62.8755C9.09292 65.0849 13.9506 64.3403 16.1953 61.344C24.8556 49.5482 36.5311 40.8369 49.4864 35.9018C43.7884 37.9829 36.3599 35.7721 32.1582 30.1125L32.1588 30.1132Z" fill="url(#paint1_linear_558_3099)"/>
<path d="M44.6941 20.8731C44.9652 19.3511 43.9511 17.8974 42.4291 17.6263C40.9071 17.3552 39.4534 18.3693 39.1823 19.8913C38.9112 21.4134 39.9253 22.867 41.4473 23.1381C42.9693 23.4092 44.423 22.3952 44.6941 20.8731Z" fill="url(#paint2_linear_558_3099)"/>
<path d="M46.483 24.3674C48.0277 24.3035 49.228 22.9994 49.1641 21.4548C49.1002 19.9101 47.7962 18.7097 46.2515 18.7736C44.7068 18.8376 43.5064 20.1416 43.5703 21.6863C43.6343 23.231 44.9383 24.4313 46.483 24.3674Z" fill="url(#paint3_linear_558_3099)"/>
<path d="M42.4669 29.7019C42.6725 28.1697 41.5969 26.7609 40.0646 26.5554C38.5324 26.3498 37.1236 27.4254 36.9181 28.9576C36.7125 30.4899 37.7881 31.8987 39.3203 32.1042C40.8526 32.3098 42.2614 31.2342 42.4669 29.7019Z" fill="url(#paint4_linear_558_3099)"/>
<path d="M53.4286 16.7149C54.0995 15.3221 53.5143 13.6491 52.1215 12.9782C50.7287 12.3073 49.0557 12.8925 48.3847 14.2853C47.7138 15.6781 48.299 17.3511 49.6919 18.0221C51.0847 18.693 52.7577 18.1078 53.4286 16.7149Z" fill="url(#paint5_linear_558_3099)"/>
<path d="M57.6203 24.2862C58.7135 23.193 58.7135 21.4206 57.6203 20.3274C56.5271 19.2342 54.7547 19.2342 53.6615 20.3274C52.5683 21.4206 52.5683 23.193 53.6615 24.2862C54.7547 25.3793 56.5271 25.3793 57.6203 24.2862Z" fill="url(#paint6_linear_558_3099)"/>
<path d="M47.7668 32.6795C43.4914 33.8088 38.3328 31.9783 35.5178 27.7664C32.7122 23.576 33.5098 17.6143 37.85 14.149C37.2753 13.0751 36.7006 12.0019 36.1259 10.928C36.1246 10.9292 36.1227 10.9299 36.1215 10.9305C29.1544 15.5962 27.9754 24.4976 32.1589 30.1125C36.3607 35.7715 43.7891 37.9828 49.4871 35.9018C49.4884 35.9018 49.4897 35.9012 49.4909 35.9005C48.9162 34.8266 48.3415 33.7534 47.7668 32.6795V32.6795Z" fill="#EC736D"/>
</g>
<defs>
<linearGradient id="paint0_linear_558_3099" x1="65.9908" y1="53.5786" x2="32.3035" y2="31.97" gradientUnits="userSpaceOnUse">
<stop stop-color="#C55F5F"/>
<stop offset="0.43" stop-color="#B64949"/>
<stop offset="1" stop-color="#872929"/>
</linearGradient>
<linearGradient id="paint1_linear_558_3099" x1="10.7106" y1="22.8599" x2="31.28" y2="54.4809" gradientUnits="userSpaceOnUse">
<stop stop-color="#FF8972"/>
<stop offset="0.41" stop-color="#FD665A"/>
<stop offset="1" stop-color="#FB4140"/>
</linearGradient>
<linearGradient id="paint2_linear_558_3099" x1="32.4204" y1="18.0509" x2="48.0531" y2="21.8889" gradientUnits="userSpaceOnUse">
<stop stop-color="#F9738A"/>
<stop offset="0.41" stop-color="#F45371"/>
<stop offset="1" stop-color="#EB133B"/>
</linearGradient>
<linearGradient id="paint3_linear_558_3099" x1="36.847" y1="19.2345" x2="52.479" y2="23.0752" gradientUnits="userSpaceOnUse">
<stop stop-color="#F9738A"/>
<stop offset="0.41" stop-color="#F45371"/>
<stop offset="1" stop-color="#EB133B"/>
</linearGradient>
<linearGradient id="paint4_linear_558_3099" x1="30.1694" y1="26.9927" x2="45.8017" y2="30.8339" gradientUnits="userSpaceOnUse">
<stop stop-color="#F9738A"/>
<stop offset="0.41" stop-color="#F45371"/>
<stop offset="1" stop-color="#EB133B"/>
</linearGradient>
<linearGradient id="paint5_linear_558_3099" x1="41.382" y1="13.1619" x2="57.0143" y2="17.0031" gradientUnits="userSpaceOnUse">
<stop stop-color="#F9738A"/>
<stop offset="0.41" stop-color="#F45371"/>
<stop offset="1" stop-color="#EB133B"/>
</linearGradient>
<linearGradient id="paint6_linear_558_3099" x1="46.1197" y1="19.9698" x2="61.7517" y2="23.8105" gradientUnits="userSpaceOnUse">
<stop stop-color="#F9738A"/>
<stop offset="0.41" stop-color="#F45371"/>
<stop offset="1" stop-color="#EB133B"/>
</linearGradient>
<clipPath id="clip0_558_3099">
<rect width="68" height="68" fill="white"/>
</clipPath>
</defs>
</svg>
