<svg width="68" height="68" viewBox="0 0 68 68" fill="none" xmlns="http://www.w3.org/2000/svg">
<g clip-path="url(#clip0_558_2388)">
<path d="M25.2687 38.413C25.7308 32.2319 29.2274 27.6637 33.1337 22.8688C29.829 18.3877 25.7744 14.0287 22.6354 8.5799C21.2229 6.13014 17.8223 6.13014 16.4184 8.5799C10.3845 19.0938 0.862819 25.5103 0.0519053 36.6955C-0.785167 48.2033 8.62318 57.5491 19.5313 57.5491C24.1177 57.5491 28.4252 55.8839 31.8258 53.1203C27.5358 49.7029 24.824 44.3936 25.2687 38.4217V38.413Z" fill="#FFCAC5"/>
<path d="M67.9418 40.1131C66.878 25.8068 54.1476 17.7426 46.4918 4.02045C44.9834 1.32658 41.2078 1.32658 39.6993 4.02045C32.0436 17.7339 19.3131 25.7981 18.2494 40.1131C17.1769 54.4804 29.1836 66.1364 43.0912 66.1364C56.9988 66.1364 69.0056 54.4717 67.9331 40.1131H67.9418Z" fill="url(#paint0_linear_558_2388)"/>
</g>
<defs>
<linearGradient id="paint0_linear_558_2388" x1="18.1971" y1="34.0715" x2="68.0116" y2="34.0715" gradientUnits="userSpaceOnUse">
<stop stop-color="#FF8A73"/>
<stop offset="1" stop-color="#FA3D3D"/>
</linearGradient>
<clipPath id="clip0_558_2388">
<rect width="68" height="68" fill="white"/>
</clipPath>
</defs>
</svg>
