<svg width="68" height="68" viewBox="0 0 68 68" fill="none" xmlns="http://www.w3.org/2000/svg">
<g clip-path="url(#clip0_1579_14530)">
<g clip-path="url(#clip1_1579_14530)">
<path d="M50.7975 41.4006C49.7114 26.7776 36.7138 18.5349 28.8974 4.50898C27.3573 1.75547 23.5025 1.75547 21.9624 4.50898C14.146 18.526 1.1573 26.7687 0.0712025 41.4006C-1.0238 56.086 11.2349 68 25.4343 68C39.6338 68 51.8925 56.0771 50.7975 41.4006V41.4006Z" fill="#DFDFDF"/>
<path d="M54.2873 26.5817C55.9877 26.5817 57.3764 25.2005 57.3764 23.4896V12.7161C57.3764 11.0141 55.9966 9.62402 54.2873 9.62402C52.578 9.62402 51.1981 11.0052 51.1981 12.7161V23.4896C51.1981 25.1916 52.578 26.5817 54.2873 26.5817V26.5817Z" fill="white"/>
<path d="M46.9249 12.7161C46.9249 11.0084 45.5438 9.62402 43.8402 9.62402C42.1366 9.62402 40.7555 11.0084 40.7555 12.7161V23.4896C40.7555 25.1973 42.1366 26.5817 43.8402 26.5817C45.5438 26.5817 46.9249 25.1973 46.9249 23.4896V12.7161Z" fill="white"/>
<path d="M49.0704 0.000121959C43.3818 0.000121959 38.3074 2.66452 35.0134 6.80814C32.5831 9.87353 31.132 13.7498 31.132 17.9558C31.132 21.8945 31.1854 34.9581 31.1854 34.9581C31.1854 35.3412 31.399 35.6977 31.7373 35.8848C31.8976 35.9739 32.0756 36.0185 32.2537 36.0185C32.4495 36.0185 32.6454 35.965 32.8145 35.8581L38.4142 32.3917C38.8504 32.7214 39.3133 33.0244 39.7763 33.3006C42.5627 34.9848 45.7854 35.8937 49.0704 35.8937C52.9519 35.8937 56.5574 34.6462 59.4952 32.5432C64.0355 29.2817 67 23.9529 67 17.9469C67 8.04677 58.9611 -0.00878906 49.0704 -0.00878906V0.000121959ZM40.7555 23.4896V12.7162C40.7555 11.0141 42.1354 9.62403 43.8447 9.62403C45.5451 9.62403 46.9338 11.0052 46.9338 12.7162V23.4896C46.9338 25.1916 45.554 26.5817 43.8447 26.5817C42.1443 26.5817 40.7555 25.2005 40.7555 23.4896ZM57.3675 23.4896C57.3675 25.1916 55.9877 26.5817 54.2784 26.5817C52.5691 26.5817 51.1892 25.2005 51.1892 23.4896V12.7162C51.1892 11.0141 52.5691 9.62403 54.2784 9.62403C55.9877 9.62403 57.3675 11.0052 57.3675 12.7162V23.4896Z" fill="#C9C9C9"/>
</g>
</g>
<defs>
<clipPath id="clip0_1579_14530">
<rect width="68" height="68" fill="white"/>
</clipPath>
<clipPath id="clip1_1579_14530">
<rect width="67" height="68" fill="white"/>
</clipPath>
</defs>
</svg>
