<svg width="68" height="68" viewBox="0 0 68 68" fill="none" xmlns="http://www.w3.org/2000/svg">
<g clip-path="url(#clip0_558_3063)">
<path d="M44.0455 9.27271C38.8141 9.27271 34.2473 12.0391 31.6818 16.1809C29.1164 12.0391 24.5495 9.27271 19.3182 9.27271C11.2818 9.27271 4.77545 15.7868 4.77545 23.8154C4.77545 25.7009 5.04591 27.5477 5.53273 29.3636H14.6664L16.9382 20.7168C17.2086 19.7045 18.1205 18.9936 19.1636 18.9859H19.1791C20.2223 18.9859 21.1341 19.6813 21.4123 20.6859L25.4305 35.2518L29.0314 24.6268C29.3327 23.7304 30.1595 23.1045 31.11 23.0582C32.0991 23.0118 32.9414 23.545 33.3355 24.4027L35.6073 29.3559H45.5909C46.8736 29.3559 47.9091 30.3913 47.9091 31.6741C47.9091 32.9568 46.8736 33.9923 45.5909 33.9923H34.1159C33.2118 33.9923 32.385 33.4668 32.0064 32.64L31.5427 31.6354L27.3932 43.8909C27.0764 44.8336 26.1877 45.4673 25.1986 45.4673C25.1755 45.4673 25.1523 45.4673 25.1291 45.4673C24.1091 45.4363 23.2359 44.7486 22.9577 43.7673L19.2177 30.2213L18.6768 32.2691C18.4064 33.2891 17.4868 34 16.4359 34H2.31818C1.03545 34 0 35.0354 0 36.3182C0 37.6009 1.03545 38.6363 2.31818 38.6363H9.86C17.6568 50.3895 31.6818 58.7273 31.6818 58.7273C31.6818 58.7273 58.5882 44.1845 58.5882 23.8154C58.5882 15.7791 52.0741 9.27271 44.0455 9.27271V9.27271Z" fill="#DFDFDF"/>
<path d="M65.682 33.9999H62.5911C61.3084 33.9999 60.2729 32.9645 60.2729 31.6818C60.2729 30.399 61.3084 29.3636 62.5911 29.3636H65.682C66.9648 29.3636 68.0002 30.399 68.0002 31.6818C68.0002 32.9645 66.9648 33.9999 65.682 33.9999Z" fill="#DFDFDF"/>
</g>
<defs>
<clipPath id="clip0_558_3063">
<rect width="68" height="68" fill="white"/>
</clipPath>
</defs>
</svg>
