<svg width="68" height="68" viewBox="0 0 68 68" fill="none" xmlns="http://www.w3.org/2000/svg">
<g clip-path="url(#clip0_558_2823)">
<path d="M47.7665 9.45464C45.7166 9.45464 43.7696 9.61173 41.9386 9.91022C41.1995 10.0314 40.4738 10.1683 39.7771 10.3344C38.9934 10.5229 38.2051 10.6216 37.4258 10.6373C37.4437 10.6373 37.4616 10.6373 37.4794 10.6373C38.031 10.6329 38.3547 10.5812 38.3547 10.5812C38.3547 10.5812 39.1162 11.0503 40.8199 13.1733C40.8199 13.1733 40.8243 13.1778 40.8243 13.1801C41.2687 13.7389 41.6349 14.5289 41.9386 15.3884C42.3851 16.6541 42.6888 18.0725 42.8764 19.1408C42.9992 19.8477 42.5749 20.494 41.9386 20.7117C41.7957 20.7611 41.646 20.7948 41.4853 20.7948C40.7663 20.7948 40.0919 19.547 40.0919 19.547C40.0919 19.547 40.0763 19.4572 40.0763 19.4123C40.0763 19.3809 40.0763 19.3495 40.0741 19.3158C40.0741 19.3158 40.0741 19.3136 40.0741 19.3113C40.0741 19.2934 40.0741 19.2754 40.0741 19.2597C40.0651 18.9657 39.9825 18.3665 39.7905 17.6192C39.7816 17.5855 39.7704 17.5496 39.7615 17.5159C39.5293 16.6497 39.1474 15.5994 38.5311 14.5513C38.5267 14.5423 38.5222 14.5333 38.5177 14.5244C38.4976 14.4907 38.4775 14.457 38.4575 14.4234C38.4508 14.4144 38.4441 14.4054 38.4396 14.3964C38.2944 14.1586 38.1381 13.9229 37.9662 13.6895C37.9483 13.6648 37.9349 13.6401 37.9171 13.6154C37.9171 13.6154 37.9171 13.6154 37.9171 13.6132C36.229 11.3488 34.0073 10.11 34.0073 10.11C34.0207 10.1144 34.0318 10.1167 34.0452 10.1212C34.0541 10.1234 34.0608 10.1257 34.0675 10.1279C33.88 10.0651 33.6924 10.0022 33.5093 9.92817C33.0895 9.71721 32.7948 9.59602 32.6764 9.55338C29.2288 7.82981 24.7161 6.95456 19.2499 6.95456C12.607 6.95456 7.5919 8.63325 4.34748 11.9457C0.424253 15.9517 0.00893165 21.3715 0 24.7334C0 25.2114 0.00446583 25.649 0.0111646 26.035C0.0156304 26.3111 0.0178633 26.5624 0.0178633 26.7846C0.0200962 31.1093 0.0200962 37.0363 4.72931 42.1329C6.50224 44.0518 6.88184 47.8355 7.21901 51.175C7.31502 52.122 7.4088 53.0556 7.53385 53.9488C7.9581 57.0122 8.72845 59.5931 11.0909 60.5065C11.7116 60.7466 12.3078 60.8521 12.8839 60.8521C15.2553 60.8521 17.2649 59.0567 19.0825 57.4341C20.6388 56.0449 22.2465 54.6086 23.7292 54.6086C30.6646 54.6086 37.9104 49.2337 39.2836 44.7811C39.7369 43.3156 40.5631 42.2362 41.9386 41.3587C42.6553 40.9031 43.5128 40.4991 44.56 40.1311C48.8584 38.6252 52.5293 36.9936 55.4767 35.2858C64.4597 30.0747 67.7868 24.8995 67.9899 21.7732C68.0033 21.5645 68.0033 21.3648 67.9899 21.1763C67.7488 17.774 60.3646 9.45239 47.7687 9.45239L47.7665 9.45464ZM45.9221 9.50177C45.317 9.53094 44.723 9.57358 44.138 9.62969C44.723 9.57358 45.317 9.53094 45.9221 9.50177C46.5272 9.47259 47.1412 9.45913 47.7665 9.45913C47.1412 9.45913 46.5272 9.47483 45.9221 9.50177Z" fill="#DFDFDF"/>
<path d="M33.9981 10.1122C33.9981 10.1122 36.2199 11.351 37.9079 13.6154C37.9079 13.6154 37.9079 13.6154 37.9079 13.6177C37.9258 13.6424 37.9392 13.6671 37.9571 13.6917C38.1268 13.9251 38.2853 14.1608 38.4304 14.3987C38.4371 14.4076 38.4438 14.4166 38.4483 14.4256C38.4684 14.4593 38.4885 14.4929 38.5086 14.5266C38.5131 14.5356 38.5175 14.5445 38.522 14.5535C39.1383 15.5993 39.5201 16.6519 39.7523 17.5182C39.7613 17.5518 39.7724 17.5877 39.7814 17.6214C39.9756 18.3687 40.056 18.9679 40.0649 19.2619C40.0649 19.2799 40.0649 19.2978 40.0649 19.3135C40.0649 19.3135 40.0649 19.3135 40.0649 19.318C40.0649 19.3495 40.0649 19.3809 40.0672 19.4145C40.0672 19.4617 40.0783 19.5043 40.0828 19.5492C40.1677 20.2539 40.7571 20.797 41.4761 20.797C41.6369 20.797 41.7865 20.7633 41.9294 20.7139C42.5658 20.4985 42.9901 19.8499 42.8672 19.143C42.6819 18.0747 42.376 16.6564 41.9294 15.3906C41.6257 14.5311 41.2595 13.7411 40.8152 13.1845C40.8152 13.1845 40.8152 13.1845 40.8152 13.1823C40.8152 13.1801 40.8107 13.1756 40.8107 13.1756C39.107 11.0548 38.3456 10.5835 38.3456 10.5835C38.3456 10.5835 38.0218 10.6351 37.4703 10.6396C37.4524 10.6396 37.4346 10.6396 37.4167 10.6396C37.3453 10.6396 37.276 10.6396 37.2046 10.6396C37.1689 10.6396 37.1309 10.6373 37.0952 10.6373C36.3494 10.6149 35.3044 10.4959 34.0539 10.1324C34.045 10.1301 34.0383 10.1279 34.0316 10.1256C34.0182 10.1212 34.007 10.1189 33.9937 10.1144L33.9981 10.1122Z" fill="#C9C9C9"/>
</g>
<defs>
<clipPath id="clip0_558_2823">
<rect width="68" height="68" fill="white"/>
</clipPath>
</defs>
</svg>
