<svg width="68" height="68" viewBox="0 0 68 68" fill="none" xmlns="http://www.w3.org/2000/svg">
<g clip-path="url(#clip0_558_2997)">
<path d="M44.7407 19.7222C44.2618 13.1805 38.5067 9.49486 35.0606 3.20965C34.4107 2.02102 32.7175 2.02102 32.0676 3.20965C28.63 9.49486 22.875 13.1805 22.3875 19.7222C21.9087 26.2725 27.3045 31.5914 33.5641 31.5914C39.8237 31.5914 45.2195 26.2725 44.7407 19.7222ZM30.2889 23.8867C28.5103 23.8867 27.0651 22.4415 27.0651 20.6629C27.0651 18.8842 28.5103 17.439 30.2889 17.439C32.0676 17.439 33.5128 18.8842 33.5128 20.6629C33.5128 22.4415 32.0676 23.8867 30.2889 23.8867Z" fill="url(#paint0_linear_558_2997)"/>
<path d="M28.091 43.9737L19.5397 35.4224C17.8979 33.7805 15.1871 33.8832 13.6735 35.7217C12.3652 37.3208 12.6474 39.7066 14.1097 41.1689L18.4537 45.5129C19.3089 46.3681 19.3089 47.7619 18.4537 48.6171C17.5986 49.4722 16.2047 49.4722 15.3496 48.6171L11.1338 44.4013C9.52616 42.7936 8.60262 40.6729 8.5171 38.4153L8.55131 28.1709C8.55131 25.6653 6.39638 23.6643 3.83099 23.9209C1.60765 24.1432 0 26.1784 0 28.4189V38.9541C0 41.3826 0.855131 43.7257 2.42002 45.5728L11.8778 56.7665C12.1429 57.0743 12.2797 57.4677 12.2797 57.8696V59.7509H31.0926V51.2338C31.0926 48.5144 30.0151 45.8977 28.091 43.9737V43.9737Z" fill="#FFB79A"/>
<path d="M64.1688 23.9123C61.612 23.6558 59.4485 25.6568 59.4485 28.1623L59.4827 38.4068C59.3886 40.6643 58.4736 42.7851 56.866 44.3927L52.6502 48.6085C51.7951 49.4636 50.4012 49.4636 49.5461 48.6085C48.6909 47.7534 48.6909 46.3595 49.5461 45.5044L53.8901 41.1603C55.3524 39.698 55.6346 37.3122 54.3262 35.7131C52.8212 33.8746 50.1019 33.772 48.46 35.4138L39.9087 43.9652C37.9847 45.8892 36.9072 48.4973 36.9072 51.2252V59.7423H55.7201V57.861C55.7201 57.4591 55.8655 57.0658 56.122 56.7579L65.5798 45.5642C67.1447 43.7086 67.9998 41.3656 67.9998 38.9455V28.4103C67.9998 26.1699 66.3921 24.1347 64.1688 23.9123V23.9123Z" fill="#FFB79A"/>
<path d="M31.2466 58.2031H12.2969C11.7349 58.2031 11.2793 58.6587 11.2793 59.2207V64.3943C11.2793 64.9563 11.7349 65.4119 12.2969 65.4119H31.2466C31.8086 65.4119 32.2642 64.9563 32.2642 64.3943V59.2207C32.2642 58.6587 31.8086 58.2031 31.2466 58.2031Z" fill="#C9C9C9"/>
<path d="M55.9341 58.2031H36.9844C36.4224 58.2031 35.9668 58.6587 35.9668 59.2207V64.3943C35.9668 64.9563 36.4224 65.4119 36.9844 65.4119H55.9341C56.4961 65.4119 56.9517 64.9563 56.9517 64.3943V59.2207C56.9517 58.6587 56.4961 58.2031 55.9341 58.2031Z" fill="#C9C9C9"/>
</g>
<defs>
<linearGradient id="paint0_linear_558_2997" x1="42.5002" y1="27.434" x2="27.432" y2="6.95669" gradientUnits="userSpaceOnUse">
<stop stop-color="#FC514B"/>
<stop offset="0.427463" stop-color="#FE7564"/>
<stop offset="1" stop-color="#FF7D6A"/>
</linearGradient>
<clipPath id="clip0_558_2997">
<rect width="68" height="68" fill="white"/>
</clipPath>
</defs>
</svg>
