<svg width="68" height="68" viewBox="0 0 68 68" fill="none" xmlns="http://www.w3.org/2000/svg">
<g clip-path="url(#clip0_558_3226)">
<path d="M50.0062 24.4886L54.7487 19.7461C55.1934 19.3015 55.9082 19.3015 56.3528 19.7461L58.9333 22.3179C60.7292 24.1137 63.641 24.1137 65.4369 22.3179C67.2328 20.522 67.2328 17.6102 65.4369 15.823L62.0631 12.4492L66.6661 7.84615C68.462 6.05026 68.462 3.13848 66.6661 1.35131C64.8702 -0.444577 61.9585 -0.444577 60.1626 1.35131L55.5595 5.95436L52.1857 2.58053C50.3898 0.784647 47.478 0.784647 45.6821 2.58053C43.8862 4.37642 43.8862 7.2882 45.6821 9.07537L48.2626 11.6472C48.7072 12.0918 48.7072 12.8066 48.2626 13.2512L43.5201 17.9938C43.1365 18.3774 42.5437 18.421 42.0904 18.1246C30.8094 10.7056 15.1608 12.5712 6.05056 23.7127C-2.27504 33.8952 -1.95248 48.9249 6.7567 58.7848C17.2182 70.6325 35.3688 71.0596 46.3708 60.0577C55.638 50.7905 56.8149 36.4583 49.8842 25.9184C49.5877 25.465 49.6313 24.8722 50.0149 24.4886H50.0062Z" fill="#F95353"/>
<path d="M39.7715 53.7894C32.71 60.8509 21.246 60.8597 14.1845 53.7894C7.12296 46.7192 7.13168 35.2639 14.1845 28.2024C21.2372 21.1496 32.7013 21.1409 39.7628 28.2024C46.8243 35.2639 46.8156 46.7279 39.7628 53.7807L39.7715 53.7894Z" fill="white"/>
</g>
<defs>
<clipPath id="clip0_558_3226">
<rect width="68" height="68" fill="white"/>
</clipPath>
</defs>
</svg>
