<svg width="68" height="68" viewBox="0 0 68 68" fill="none" xmlns="http://www.w3.org/2000/svg">
<g clip-path="url(#clip0_558_2758)">
<path d="M24.5771 33.3105C24.0587 33.3917 23.5709 33.0668 23.4387 32.5694L22.7883 30.1227L12.6752 45.5338C11.4962 47.3612 9.29061 48.214 7.17653 47.7064C3.70048 46.8739 -1.09688 47.148 0.22443 55.5744C0.549674 57.6861 1.65754 59.6353 3.47687 60.7622C5.23522 61.8587 7.25784 62.2039 9.16865 61.8993C9.8293 64.3257 11.5775 66.4678 14.2811 67.4932C17.6148 68.7623 21.4771 67.5846 23.7132 64.813C25.7459 62.3054 25.065 59.9602 23.3066 57.9095C21.8125 56.1734 21.5787 53.676 22.8289 51.7572L33.3993 35.6455C33.562 35.4018 33.6026 35.1074 33.5315 34.8333L33.0334 32.9348C32.9013 32.4374 32.4134 32.1125 31.8951 32.1937L24.5873 33.3206L24.5771 33.3105Z" fill="#DFDFDF"/>
<path d="M61.7159 9.84853C62.2139 7.40183 61.6244 4.72163 59.6933 2.5998C57.3149 -0.0194874 53.3612 -0.69969 50.1392 0.741934C47.212 2.05158 46.7445 4.41706 47.3747 7.00589C47.9134 9.22924 46.9986 11.544 45.0166 12.7013L29.5777 22.1937C29.3439 22.3358 29.1712 22.5795 29.1203 22.8435L28.6833 24.8942C28.5715 25.4018 28.8662 25.9094 29.3643 26.0719L36.3977 28.3663C36.8957 28.5287 37.1803 29.0363 37.0787 29.544L36.5705 31.9094L51.2674 22.8435C53.1478 21.747 55.4956 21.9805 57.1523 23.3815C59.8559 25.6556 64.2061 27.5135 66.8182 19.4932C67.4788 17.4831 67.367 15.2597 66.2795 13.4526C65.2123 11.6759 63.5657 10.4577 61.7261 9.86884L61.7159 9.84853Z" fill="#DFDFDF"/>
<path fill-rule="evenodd" clip-rule="evenodd" d="M21.3143 11.1987L23.9975 19.2292L23.9874 19.219C24.3025 20.1632 25.6542 20.1429 25.9287 19.1784L28.6119 9.80787C28.8355 9.0566 28.1546 8.35609 27.3923 8.54899L22.0359 9.88909C21.4566 10.0312 21.1313 10.6404 21.3143 11.1987ZM39.7312 51.0363L36.4788 43.219V43.2292C36.0926 42.3053 34.7509 42.4373 34.5476 43.4119L32.5555 52.9449C32.3929 53.7064 33.1247 54.3561 33.8667 54.1124L39.1112 52.3866C39.6702 52.2038 39.9548 51.5845 39.7312 51.0363ZM17.8992 22.356L11.0183 22.4982C10.3983 22.5083 9.9409 23.0667 10.0324 23.6758L10.6219 27.3306C10.7134 27.9195 11.2927 28.2951 11.872 28.153L18.1635 26.5794C18.6209 26.4677 18.9359 26.0616 18.9359 25.5946V23.3611C18.9359 22.7926 18.4684 22.3357 17.8992 22.3459V22.356ZM50.7081 36.9248L43.5934 35.9603C42.9937 35.8689 42.5974 35.2801 42.7498 34.6913L43.136 33.2395C43.258 32.8029 43.6646 32.4882 44.1219 32.4882H51.938C52.6698 32.4882 53.1678 33.2496 52.8629 33.9197L51.7753 36.3359C51.5924 36.742 51.1553 36.9857 50.7081 36.9248ZM16.3847 17.6456L9.83919 16.011C9.0769 15.8181 8.81264 14.8638 9.37165 14.3055L12.6444 11.0364C13.1018 10.5796 13.8539 10.6608 14.2097 11.1887L17.4824 16.0923C18.0008 16.8638 17.2893 17.8689 16.3949 17.6354L16.3847 17.6456ZM49.4276 42.9043L42.9023 41.1885H42.8922C41.9978 40.955 41.2761 41.9398 41.7843 42.7215L44.9961 47.6657C45.3518 48.2038 46.104 48.285 46.5613 47.8383L49.8748 44.6099C50.4439 44.0616 50.1898 43.1073 49.4276 42.9043Z" fill="#C9C9C9"/>
</g>
<defs>
<clipPath id="clip0_558_2758">
<rect width="68" height="68" fill="white"/>
</clipPath>
</defs>
</svg>
