<svg width="68" height="68" viewBox="0 0 68 68" fill="none" xmlns="http://www.w3.org/2000/svg">
<g clip-path="url(#clip0_558_2387)">
<path d="M25.2687 38.4131C25.7308 32.232 29.2274 27.6638 33.1337 22.8689C29.829 18.3878 25.7744 14.0288 22.6354 8.58C21.2229 6.13023 17.8223 6.13023 16.4184 8.58C10.3845 19.0939 0.862819 25.5104 0.0519053 36.6957C-0.785167 48.2035 8.62318 57.5492 19.5313 57.5492C24.1177 57.5492 28.4252 55.884 31.8258 53.1204C27.5358 49.703 24.824 44.3937 25.2687 38.4218V38.4131Z" fill="#C9C9C9"/>
<path d="M67.9418 40.113C66.878 25.8068 54.1476 17.7426 46.4918 4.0204C44.9834 1.32653 41.2078 1.32653 39.6993 4.0204C32.0436 17.7339 19.3131 25.798 18.2494 40.113C17.1769 54.4803 29.1836 66.1364 43.0912 66.1364C56.9988 66.1364 69.0056 54.4716 67.9331 40.113H67.9418Z" fill="#DFDFDF"/>
</g>
<defs>
<clipPath id="clip0_558_2387">
<rect width="68" height="68" fill="white"/>
</clipPath>
</defs>
</svg>
