<svg width="68" height="68" viewBox="0 0 68 68" fill="none" xmlns="http://www.w3.org/2000/svg">
<g clip-path="url(#clip0_558_2416)">
<path d="M68 54.3675V37.7848C68 33.4266 64.4609 29.8875 60.1027 29.8875H41.0473C39.8418 29.8875 38.8682 30.892 38.9377 32.0898C39.0305 33.5811 39.2777 34.9952 39.7259 36.3552C42.1291 43.6575 39.0923 47.9229 35.4527 49.4761C34.4405 49.9088 33.3123 50.1407 32.1841 50.1407C28.4286 50.1407 25.2605 47.7993 24.2945 44.322C23.46 41.3238 23.8309 37.4061 25.075 32.5302C25.415 31.1934 24.4182 29.8875 23.035 29.8875H7.89727C3.55455 29.8798 0.0309091 33.3879 0 37.7229V54.4216C0.0309091 58.7566 3.55455 62.2648 7.89727 62.2648H60.1027C64.4609 62.2648 68 58.7257 68 54.3675Z" fill="#DFDFDF"/>
<path d="M38.4663 47.297C38.5204 47.2352 38.5745 47.1734 38.6286 47.1038C38.5745 47.1657 38.5204 47.2352 38.4663 47.297Z" fill="#FF988C"/>
<path d="M37.6162 48.1316C37.6858 48.0775 37.7476 48.0157 37.8094 47.9616C37.7476 48.0234 37.678 48.0775 37.6162 48.1316Z" fill="#FF988C"/>
<path d="M39.1929 46.3234C39.2392 46.2461 39.2856 46.1688 39.332 46.0916C39.2856 46.1688 39.2392 46.2461 39.1929 46.3234Z" fill="#FF988C"/>
<path d="M38.6748 47.042C38.8448 46.8334 39.0071 46.6093 39.1539 46.3775C38.9993 46.6093 38.8448 46.8334 38.6748 47.042Z" fill="#FF988C"/>
<path d="M36.9365 48.657C37.1683 48.5025 37.3847 48.3325 37.6011 48.147C37.3847 48.3325 37.1606 48.5025 36.9365 48.657Z" fill="#FF988C"/>
<path d="M24.1323 43.6188C24.171 43.8197 24.2251 44.0207 24.2714 44.2138C24.2173 44.0207 24.171 43.8197 24.1323 43.6188Z" fill="#FF988C"/>
<path d="M23.8618 41.0147C23.8618 41.3007 23.8773 41.5788 23.9005 41.8493C23.885 41.5788 23.8695 41.3007 23.8618 41.0147Z" fill="#FF988C"/>
<path d="M24.1633 36.9502C24.001 38.0243 23.9005 39.0443 23.8696 40.0025C23.9005 39.0443 24.001 38.032 24.171 36.9502H24.1633Z" fill="#FF988C"/>
<path d="M40.5758 41.3625C40.5603 42.8384 40.2744 44.1211 39.7876 45.2184C40.2744 44.1211 40.5603 42.8384 40.5758 41.3625Z" fill="#FF988C"/>
<path d="M24.001 42.8307C24.0242 43.0161 24.0551 43.2093 24.0937 43.387C24.0628 43.2016 24.0319 43.0161 24.001 42.8307Z" fill="#FF988C"/>
<path d="M23.8926 41.8493C23.908 42.1197 23.9389 42.3825 23.9699 42.6452C23.9389 42.3825 23.908 42.1197 23.8926 41.8493Z" fill="#FF988C"/>
<path d="M39.3628 46.0375C39.5173 45.7747 39.6564 45.5043 39.7801 45.2261C39.6564 45.512 39.5173 45.7825 39.3628 46.0375Z" fill="#FF988C"/>
<path d="M23.8618 40.8679C23.8618 40.5975 23.8618 40.3193 23.8695 40.0411C23.8618 40.3193 23.8618 40.5975 23.8618 40.8679Z" fill="#FF988C"/>
<path d="M32.1919 50.1329C33.3201 50.1329 34.4483 49.9088 35.4606 49.4684C35.9629 49.252 36.4574 48.9816 36.9288 48.6647C36.4574 48.9893 35.9629 49.252 35.4606 49.4684C34.4483 49.9011 33.3201 50.1329 32.1919 50.1329C29.4951 50.1329 27.0919 48.9197 25.6006 46.9493C27.0919 48.9197 29.4874 50.1329 32.1919 50.1329Z" fill="#FF988C"/>
<path d="M38.42 47.3434C38.2423 47.5443 38.0569 47.7375 37.856 47.9152C38.0491 47.7375 38.2346 47.5443 38.42 47.3434Z" fill="#FF988C"/>
<path d="M24.0938 43.3947C24.1092 43.472 24.1247 43.5493 24.1401 43.6188C24.1247 43.5416 24.1092 43.472 24.0938 43.3947Z" fill="#FF988C"/>
<path d="M23.9775 42.6452C23.9853 42.707 23.993 42.7688 24.0007 42.8384C23.993 42.7766 23.9853 42.7147 23.9775 42.6452Z" fill="#FF988C"/>
<path d="M37.6011 48.1475C37.6011 48.1475 37.6093 48.1475 37.6174 48.1393C37.6174 48.1393 37.6093 48.1393 37.6011 48.1475Z" fill="#FF988C"/>
<path d="M39.332 46.0947C39.332 46.0947 39.3566 46.0538 39.3648 46.0375C39.3566 46.0538 39.3402 46.0784 39.332 46.0947Z" fill="#FF988C"/>
<path d="M38.6211 47.1075C38.6211 47.1075 38.662 47.0584 38.6784 47.042C38.662 47.0666 38.6456 47.0911 38.6211 47.1075Z" fill="#FF988C"/>
<path d="M39.1616 46.3729C39.1616 46.3729 39.1862 46.332 39.1943 46.3157C39.1862 46.332 39.1698 46.3566 39.1616 46.3729Z" fill="#FF988C"/>
<path d="M37.8096 47.9643C37.8096 47.9643 37.8423 47.9316 37.8587 47.9152C37.8423 47.9316 37.8259 47.9479 37.8096 47.9643Z" fill="#FF988C"/>
<path d="M25.6007 46.9493C25.0211 46.1766 24.5729 45.2879 24.3025 44.3143C24.2948 44.2834 24.287 44.2525 24.2793 44.2138C24.287 44.2447 24.2948 44.2757 24.3025 44.3066C24.5729 45.2879 25.0211 46.1688 25.6007 46.9416V46.9493Z" fill="#FF988C"/>
<path d="M38.4199 47.3461C38.4199 47.3461 38.4526 47.3134 38.469 47.297C38.4526 47.3134 38.4363 47.3297 38.4199 47.3461Z" fill="#FF988C"/>
<path d="M68 54.3675V41.3779C60.5973 41.3779 60.5973 36.7493 53.2023 36.7493C45.8073 36.7493 48.8055 41.3779 41.4027 41.3779C41.1091 41.3779 40.8386 41.3702 40.5759 41.3625C40.5605 42.8384 40.2668 44.1211 39.7877 45.2184C39.6641 45.5043 39.525 45.7747 39.3705 46.0297C39.3627 46.0452 39.3473 46.0684 39.3395 46.0838C39.2932 46.1611 39.2468 46.2384 39.2005 46.3157C39.1927 46.3311 39.1773 46.3543 39.1695 46.3697C39.015 46.6016 38.8605 46.8257 38.6905 47.0343C38.675 47.0575 38.6595 47.0807 38.6364 47.0961C38.5823 47.1579 38.5282 47.2275 38.4741 47.2893C38.4586 47.3047 38.4432 47.3202 38.4277 47.3357C38.25 47.5366 38.0645 47.7297 37.8636 47.9075C37.8482 47.9229 37.8327 47.9384 37.8173 47.9538C37.7555 48.0157 37.6859 48.0697 37.6241 48.1238C37.6241 48.1238 37.6164 48.1238 37.6086 48.1316C37.3923 48.317 37.1682 48.487 36.9441 48.6416H36.9286C36.4573 48.9738 35.9705 49.2443 35.4605 49.4607C34.4482 49.8934 33.32 50.1252 32.1918 50.1252C29.4873 50.1252 27.0918 48.912 25.6005 46.9416C25.0209 46.1688 24.5727 45.2802 24.3023 44.3066C24.2945 44.2757 24.2868 44.2447 24.2791 44.2138C24.225 44.0207 24.1786 43.8197 24.14 43.6188C24.1245 43.5416 24.1091 43.472 24.0936 43.3947C24.0627 43.2093 24.0318 43.0238 24.0009 42.8384C23.9932 42.7766 23.9855 42.7147 23.9777 42.6452C23.9468 42.3825 23.9159 42.1197 23.9005 41.8493C23.885 41.5788 23.8695 41.2929 23.8618 41.0147C23.8618 40.9684 23.8618 40.9143 23.8618 40.8679C23.8618 40.5975 23.8618 40.3193 23.8695 40.0411C23.8695 40.0257 23.8695 40.0179 23.8695 40.0025C23.9005 39.0443 24.0009 38.032 24.1632 36.9502C19.0864 37.8311 21.2886 41.3779 14.8055 41.3779C7.42591 41.3779 7.395 36.7802 0.0695455 36.757C0.0309091 37.0738 0 37.3984 0 37.7229V54.4216C0.0309091 58.7334 3.50818 62.2184 7.81227 62.2647H60.18C64.5073 62.2184 68 58.7025 68 54.3675Z" fill="#C9C9C9"/>
<path d="M38.961 5.60066C39.4478 4.44929 41.1787 5.10611 40.7923 6.28839C40.3751 7.55566 37.0369 16.1252 36.6737 17.3461C33.2969 28.682 33.6987 29.8798 36.2023 37.5066C37.431 41.2311 37.1064 44.7393 33.9923 46.0684C31.7514 47.0266 28.6142 46.0684 27.8569 43.3252C26.1028 36.9811 29.2787 29.4548 34.5642 16.3879C35.0123 15.2752 38.4433 6.79839 38.9533 5.60066H38.961Z" fill="#DFDFDF"/>
<path d="M16.7605 55.0861C16.4978 56.4307 14.4655 57.1648 12.2246 56.7243C9.98371 56.2839 8.38417 54.8388 8.6469 53.4943C8.90962 52.1498 10.9419 51.4157 13.1828 51.8561C15.4237 52.2966 17.0233 53.7416 16.7605 55.0861Z" fill="#DFDFDF"/>
<path d="M62.4905 50.3648C62.8151 51.5625 61.5942 52.9302 59.7628 53.417C57.9392 53.9116 56.1928 53.332 55.876 52.142C55.5514 50.9443 56.7723 49.5766 58.6037 49.0898C60.4351 48.6029 62.1737 49.1748 62.4905 50.3648Z" fill="#DFDFDF"/>
<path d="M36.7063 56.8871C37.3251 55.8153 36.4995 54.1801 34.8622 53.2349C33.2249 52.2896 31.396 52.3921 30.7772 53.464C30.1584 54.5358 30.984 56.1709 32.6213 57.1162C34.2586 58.0615 36.0875 57.9589 36.7063 56.8871Z" fill="#DFDFDF"/>
</g>
<defs>
<clipPath id="clip0_558_2416">
<rect width="68" height="68" fill="white"/>
</clipPath>
</defs>
</svg>
