<svg width="68" height="68" viewBox="0 0 68 68" fill="none" xmlns="http://www.w3.org/2000/svg">
<g clip-path="url(#clip0_558_2318)">
<path d="M6.09819 35.2234L1.87901 39.4424C-2.16582 43.4871 0.536549 52.727 7.90268 60.1016C15.2688 67.4674 24.5179 70.1609 28.5627 66.125L32.7819 61.906L6.09819 35.2234Z" fill="#E3E3E3"/>
<path d="M32.7785 61.9001C36.8194 57.8594 34.1232 48.6119 26.7562 41.2452C19.3893 33.8786 10.1413 31.1824 6.10041 35.2232C2.05948 39.2639 4.75575 48.5115 12.1227 55.8781C19.4897 63.2447 28.7376 65.9409 32.7785 61.9001Z" fill="white"/>
<path d="M39.3722 1.94219L6.09819 35.2234C2.05336 39.2681 4.75573 48.508 12.1219 55.8826C19.488 63.2484 28.7371 65.9419 32.7819 61.906L66.0559 28.6334L39.3722 1.94219Z" fill="#F5F5F5"/>
<path d="M32.9737 35.0229C25.6075 27.6571 22.9139 18.4085 26.95 14.3638L6.09819 35.2234C2.05336 39.2681 4.75573 48.508 12.1219 55.8826C19.488 63.2484 28.7371 65.9419 32.7819 61.906L53.6337 41.0551C49.5889 45.0997 40.3485 42.3975 32.9737 35.0317V35.0229Z" fill="#DFDFDF"/>
<path d="M53.6303 41.051C57.6712 37.0102 54.975 27.7627 47.608 20.3961C40.2411 13.0294 30.9931 10.3333 26.9522 14.374C22.9113 18.4148 25.6076 27.6623 32.9745 35.0289C40.3415 42.3956 49.5894 45.0917 53.6303 41.051Z" fill="#C9C9C9"/>
<path d="M39.4419 1.87245L35.2227 6.09144C31.1779 10.1361 33.8803 19.376 41.2464 26.7506C48.6125 34.1164 57.8616 36.8099 61.9064 32.774L66.1256 28.555L39.4419 1.87245Z" fill="#F2F2F2"/>
<path d="M66.1222 28.5547C70.1632 24.5139 67.4669 15.2664 60.0999 7.89975C52.733 0.533123 43.4851 -2.16303 39.4441 1.87772C35.4032 5.91848 38.0995 15.166 45.4664 22.5326C52.8334 29.8993 62.0813 32.5954 66.1222 28.5547Z" fill="white"/>
<path d="M63.7429 26.1754C66.783 23.1355 64.3406 15.7645 58.2877 9.71191C52.2348 3.65929 44.8635 1.21702 41.8235 4.25695C38.7834 7.29688 41.2258 14.6678 47.2787 20.7205C53.3315 26.7731 60.7028 29.2154 63.7429 26.1754Z" fill="#E3E3E3"/>
<path d="M48.0808 9.4649L47.1742 10.3715C45.5876 11.9579 46.6511 15.5755 49.5366 18.4695C52.422 21.3635 56.0484 22.4095 57.6349 20.8318L58.5415 19.9252L48.0808 9.4649Z" fill="#D3D3D3"/>
<path d="M58.5333 19.909C60.1164 18.3261 59.0594 14.7027 56.1725 11.816C53.2856 8.92922 49.6621 7.87228 48.0791 9.45522C46.4961 11.0382 47.5531 14.6616 50.4399 17.5483C53.3268 20.435 56.9503 21.492 58.5333 19.909Z" fill="white"/>
<path d="M37.5328 28.8252L30.4021 39.2245L24.6574 33.48L15.3473 53.0321L26.0173 41.4298L31.2215 46.6338L42.7371 34.0292L37.5328 28.8252Z" fill="#F5F5F5"/>
</g>
<defs>
<clipPath id="clip0_558_2318">
<rect width="68" height="68" fill="white"/>
</clipPath>
</defs>
</svg>
