<svg width="68" height="68" viewBox="0 0 68 68" fill="none" xmlns="http://www.w3.org/2000/svg">
<g clip-path="url(#clip0_558_2865)">
<path d="M33.4783 67.957C33.5142 67.9613 33.5515 67.9613 33.5859 67.9641C33.748 67.99 33.8513 67.9986 33.8513 67.9986V67.9828C33.9244 67.9871 33.9947 67.9986 34.0679 67.9986C34.1468 67.9986 34.2242 67.99 34.3031 67.9871C36.7303 67.8637 38.6626 65.8525 38.6626 63.3809C38.6626 63.2561 38.654 63.1342 38.644 63.0122V54.1599C38.644 53.7367 38.6167 53.3221 38.5694 52.9133C38.5665 52.8903 38.5665 52.8674 38.5636 52.8459C38.5507 52.7469 38.5321 52.6493 38.5177 52.5503C38.5005 52.4356 38.4847 52.3208 38.4646 52.2075C38.4546 52.1501 38.4388 52.0942 38.4274 52.0382C38.3958 51.8847 38.3642 51.7327 38.3269 51.5821C38.2882 51.4314 38.2437 51.2822 38.1993 51.1331C38.1835 51.0785 38.1706 51.024 38.1534 50.9695C38.1175 50.8562 38.0759 50.7457 38.0357 50.6353C38.0042 50.5478 37.9769 50.4588 37.9439 50.3728C37.9181 50.3053 37.8865 50.2394 37.8593 50.1719C37.8076 50.0443 37.756 49.918 37.7001 49.7932C37.6728 49.733 37.6412 49.6742 37.6125 49.6153C37.5509 49.4862 37.4906 49.3571 37.4232 49.2323C37.3902 49.1706 37.3543 49.1118 37.3199 49.0516C37.2525 48.9296 37.1851 48.8077 37.1133 48.6901C37.0746 48.627 37.0316 48.5653 36.9914 48.5022C36.9197 48.3903 36.8494 48.2769 36.7734 48.1679C36.7088 48.0747 36.6385 47.9843 36.5711 47.8939C36.5152 47.8193 36.4621 47.7419 36.4047 47.6687C36.3344 47.5798 36.2598 47.4951 36.1881 47.4076C36.1278 47.3359 36.069 47.2613 36.0073 47.1896C35.9098 47.0791 35.8065 46.973 35.7047 46.8668C35.6631 46.8238 35.6258 46.7793 35.5842 46.7377C35.4909 46.6445 35.3934 46.5555 35.2973 46.4652C35.2427 46.4135 35.1897 46.359 35.1323 46.3088C35.0419 46.2285 34.9487 46.1524 34.8554 46.075C34.7894 46.019 34.7249 45.9616 34.6575 45.9071C34.57 45.8383 34.4796 45.7737 34.3906 45.7063C34.3132 45.6489 34.2386 45.5901 34.1597 45.5342C34.1597 45.5342 34.1583 45.5342 34.1568 45.5327H47.1176C47.1707 45.5327 47.2209 45.5256 47.274 45.5256H23.1742C22.5158 45.5256 21.9821 44.9919 21.9821 44.3349C21.9821 43.6779 22.5158 43.1428 23.1742 43.1428H47.2682C52.3708 43.1428 55.2412 38.0632 55.3072 37.9456C55.323 37.7347 55.3402 37.5224 55.3402 37.3073C55.3402 34.1599 53.5614 31.4229 50.9592 30.04C50.9592 30.04 50.9592 30.04 50.9578 30.04C50.9578 30.04 50.9578 30.04 50.9592 30.04H24.0837C23.6505 30.04 23.2746 29.8062 23.0666 29.4605C23.0566 29.4433 23.048 29.4261 23.0379 29.4089C23.0164 29.3687 22.9935 29.3285 22.9777 29.2841C22.9605 29.241 22.949 29.1965 22.9361 29.1521C22.9289 29.1248 22.9203 29.099 22.9146 29.0717C22.9131 29.0631 22.9103 29.056 22.9088 29.0488C22.9045 29.0215 22.9088 28.9972 22.9045 28.9699C22.9002 28.9297 22.8916 28.8896 22.8916 28.848C22.8916 28.8336 22.8945 28.8221 22.8959 28.8078C22.8959 28.7719 22.9017 28.7361 22.9074 28.7016C22.9131 28.6529 22.9203 28.6055 22.9318 28.5582C22.9404 28.5238 22.9519 28.4908 22.9634 28.4578C22.9791 28.4133 22.9963 28.3703 23.0164 28.3287C23.0322 28.2971 23.048 28.267 23.0666 28.2369C23.091 28.1967 23.1168 28.1594 23.1455 28.1235C23.1671 28.0963 23.1871 28.069 23.2115 28.0446C23.2431 28.0102 23.2775 27.9787 23.3134 27.9485C23.3392 27.927 23.3636 27.9041 23.3908 27.884C23.431 27.8553 23.4726 27.8309 23.5156 27.8079C23.5443 27.7922 23.5701 27.775 23.5988 27.762C23.649 27.7391 23.7021 27.7233 23.7552 27.709C23.781 27.7018 23.8054 27.6903 23.8327 27.6846C23.9144 27.6674 23.9976 27.6559 24.0851 27.6559H47.0315C53.7766 27.6559 55.2097 22.6451 55.3273 22.1832C55.1566 17.9299 51.6966 14.5416 47.3672 14.5416H24.3276C24.1999 14.5416 24.0737 14.5287 23.9474 14.5144C23.913 14.5101 23.8786 14.5086 23.8441 14.5043C23.7165 14.4857 23.5902 14.4541 23.4654 14.4197C23.4324 14.4096 23.3994 14.3996 23.3664 14.3896C23.266 14.3566 23.1685 14.315 23.0724 14.2705C23.0021 14.2361 22.9318 14.1988 22.8644 14.1586C22.7998 14.1213 22.7367 14.0811 22.6764 14.0381C22.6492 14.018 22.6176 14.0051 22.5904 13.9836C22.5516 13.9535 22.5244 13.9147 22.4885 13.8832C22.3967 13.8028 22.3106 13.7196 22.2318 13.6307C22.1815 13.5733 22.1328 13.5159 22.0869 13.4557C22.0151 13.361 21.9535 13.2606 21.8961 13.1573C21.8616 13.0942 21.8244 13.0325 21.7942 12.968C21.7411 12.8518 21.7024 12.7313 21.6666 12.6093C21.6493 12.5505 21.6264 12.4946 21.6135 12.4343C21.5733 12.2493 21.5489 12.0599 21.5489 11.8677C21.427 10.3973 22.533 9.1952 24.0077 9.1952H26.782C26.782 9.1952 26.7935 9.19376 26.7992 9.19376C26.8035 9.19376 26.8078 9.19376 26.8121 9.19376C26.8193 9.19376 26.8265 9.19376 26.8322 9.19376C29.357 9.19376 31.404 7.13668 31.404 4.59903C31.404 2.06139 29.3555 0 26.8308 0C26.8193 0 26.8093 0.00143451 26.7978 0.00143451C26.7921 0.00143451 26.7863 0 26.7806 0H24.2243C21.0583 0 18.0817 1.23368 15.841 3.47438C13.5989 5.71078 12.3638 8.68882 12.3638 11.8605C12.3638 12.3755 12.4082 12.8805 12.4728 13.3782C12.8013 13.9779 16.1064 19.7374 21.8502 19.7503H45.1997C45.6329 19.7503 46.0087 19.9841 46.2167 20.3299C46.2268 20.3471 46.2354 20.3643 46.2454 20.3815C46.2669 20.4217 46.2899 20.4618 46.3057 20.5049C46.3229 20.5479 46.3344 20.5924 46.3473 20.6383C46.3544 20.6655 46.3631 20.6913 46.3688 20.7186C46.3702 20.7272 46.3731 20.7344 46.3745 20.7416C46.3788 20.7688 46.3745 20.7932 46.3788 20.8205C46.3831 20.8606 46.3917 20.9008 46.3917 20.9424C46.3917 20.9567 46.3889 20.9682 46.3874 20.9826C46.3874 21.0184 46.3817 21.0528 46.376 21.0887C46.3702 21.1375 46.363 21.1848 46.3516 21.2322C46.343 21.2666 46.3315 21.2996 46.32 21.3326C46.3042 21.377 46.287 21.4201 46.2669 21.4617C46.2512 21.4932 46.2354 21.5234 46.2167 21.5535C46.1923 21.5937 46.1665 21.631 46.1378 21.6668C46.1163 21.6941 46.0962 21.7213 46.0718 21.7457C46.0403 21.7801 46.0059 21.8103 45.97 21.8418C45.9442 21.8633 45.9198 21.8863 45.8925 21.9064C45.8524 21.9351 45.8108 21.958 45.7677 21.9824C45.739 21.9982 45.7132 22.0154 45.6831 22.0283C45.6329 22.0498 45.5812 22.067 45.5282 22.0814C45.5023 22.0886 45.478 22.1 45.4507 22.1058C45.3689 22.123 45.2857 22.1345 45.1982 22.1345H18.3198C14.8856 23.1228 12.3638 26.2874 12.3638 30.0343C12.3638 30.1663 12.3738 30.2954 12.3795 30.4259C12.4255 30.512 14.6289 34.5559 19.7386 34.9088H43.6891C44.1223 34.9088 44.4968 35.1426 44.7062 35.4883C44.7177 35.5055 44.7248 35.5242 44.7349 35.5414C44.7564 35.5815 44.7779 35.6203 44.7951 35.6633C44.8123 35.7063 44.8238 35.7508 44.8367 35.7967C44.8439 35.8225 44.8525 35.8484 44.8583 35.8756C44.8597 35.8842 44.8626 35.8914 44.864 35.8986C44.8683 35.9258 44.864 35.9502 44.8683 35.9775C44.8726 36.0176 44.8812 36.0578 44.8812 36.0994C44.8812 36.1137 44.8783 36.1252 44.8769 36.1396C44.8769 36.1754 44.8712 36.2113 44.8669 36.2457C44.8611 36.2945 44.8539 36.3418 44.8425 36.3892C44.8339 36.4236 44.8224 36.4566 44.8109 36.4896C44.7951 36.5341 44.7779 36.5771 44.7578 36.6187C44.7421 36.6503 44.7263 36.6804 44.7076 36.7105C44.6832 36.7507 44.6574 36.788 44.6287 36.8238C44.6072 36.8511 44.5871 36.8783 44.5627 36.9027C44.5312 36.9372 44.4968 36.9687 44.4609 36.9988C44.4351 37.0204 44.4107 37.0433 44.3834 37.0634C44.3433 37.0921 44.3017 37.115 44.2586 37.1394C44.2299 37.1552 44.2041 37.1724 44.174 37.1853C44.1238 37.2083 44.0721 37.2241 44.0191 37.2384C43.9932 37.2456 43.9689 37.2571 43.9416 37.2628C43.8598 37.28 43.7766 37.2915 43.6891 37.2915H16.8079L16.6529 37.2484C16.6845 37.2657 16.7161 37.2857 16.7476 37.303C16.7476 37.303 16.7476 37.303 16.7462 37.303C14.2631 38.6241 12.5345 41.1747 12.3795 44.1384C12.3795 44.137 12.3767 44.1312 12.3767 44.1312C12.3724 44.2116 12.3752 44.2876 12.3724 44.3665C12.3709 44.4353 12.3652 44.5028 12.3652 44.573H12.3638L12.3666 44.6146C12.3666 44.6175 12.3666 44.6204 12.3666 44.6233C12.3666 46.2113 12.8329 47.5167 13.345 48.4663C13.3521 48.4806 13.3593 48.4936 13.3665 48.5079C13.9675 49.6067 14.6131 50.2193 14.6131 50.2193C14.6561 50.2666 14.7049 50.3139 14.7494 50.3613C14.7623 50.3742 14.7737 50.3871 14.7867 50.4C15.4293 51.0699 16.29 51.7083 17.4979 52.196C17.5223 52.2061 17.5481 52.2147 17.5725 52.2247C17.7561 52.2964 17.944 52.3667 18.1434 52.4313C18.1463 52.4313 18.1491 52.4327 18.152 52.4341C18.3299 52.4915 18.5092 52.5489 18.7 52.6006C18.766 52.6077 18.8205 52.6149 18.8793 52.6221C18.8908 52.6235 18.9023 52.6249 18.9137 52.6264C18.9396 52.6307 18.9639 52.6393 18.9898 52.645C19.0672 52.6608 19.1476 52.668 19.2265 52.6809C19.6712 52.7555 20.1259 52.8014 20.5921 52.8014H25.9113C26.0346 52.8014 26.1566 52.8086 26.2771 52.82C28.0645 53.0022 29.4588 54.5128 29.4588 56.3489V63.7452C29.4588 63.8442 29.4789 63.936 29.5061 64.025C29.5061 64.025 29.5061 64.0264 29.5061 64.0278C29.7012 65.5728 30.4931 66.5167 31.3495 67.0963C31.9577 67.5438 32.6764 67.8494 33.4625 67.9555C33.4654 67.9555 33.4697 67.957 33.4726 67.9584C33.4754 67.9584 33.4769 67.9584 33.4797 67.9598L33.4783 67.957Z" fill="#DFDFDF"/>
<path fill-rule="evenodd" clip-rule="evenodd" d="M45.1995 22.1331H33.8511V22.1288H18.3196C17.2194 21.4933 16.2296 20.6871 15.3875 19.7461L15.3803 19.7389L15.3786 19.7372C15.3175 19.6762 14.4331 18.794 13.6274 17.1683L13.6231 17.1597C13.6073 17.1281 13.5929 17.0965 13.5786 17.0636L13.5485 16.999C13.5456 16.9933 13.5431 16.9879 13.5406 16.9825L13.5406 16.9825L13.5406 16.9825C13.5381 16.9771 13.5356 16.9717 13.5327 16.966C13.4538 16.8025 13.3778 16.6303 13.3032 16.451L13.2989 16.441L13.2946 16.4309C13.1913 16.1856 13.0995 15.936 13.012 15.6836L13.0034 15.6585L12.9947 15.6334C12.9689 15.5616 12.9445 15.4899 12.9202 15.4153C12.9202 15.414 12.9196 15.4124 12.9189 15.4107C12.9182 15.4086 12.9173 15.4062 12.9173 15.4038C12.8656 15.2403 12.8169 15.0753 12.7724 14.9089C12.7717 14.9061 12.7706 14.9028 12.7695 14.8996C12.7685 14.8964 12.7674 14.8931 12.7667 14.8903C12.7652 14.8874 12.7638 14.8845 12.7638 14.8817C12.6992 14.6392 12.6376 14.3896 12.5845 14.13C12.5831 14.1226 12.5812 14.115 12.5792 14.1071C12.5769 14.0982 12.5745 14.089 12.573 14.0798C12.5716 14.0769 12.5716 14.0726 12.5716 14.0683C12.5701 14.064 12.5701 14.0611 12.5701 14.0568C12.5214 13.8201 12.4798 13.5748 12.4439 13.3238C12.4439 13.3238 12.4554 13.3439 12.4726 13.3769C12.8011 13.9765 16.1062 19.736 21.85 19.749H45.2009C45.6341 19.749 46.01 19.9828 46.218 20.3285C46.225 20.3382 46.2305 20.349 46.2359 20.3599C46.2393 20.3667 46.2428 20.3735 46.2467 20.3801L46.2467 20.3802C46.2682 20.4204 46.2897 20.4605 46.3069 20.5035C46.3241 20.5465 46.337 20.591 46.3485 20.6369C46.3502 20.6434 46.352 20.6497 46.3538 20.6561C46.3547 20.6594 46.3557 20.6627 46.3566 20.666C46.3615 20.683 46.3663 20.6998 46.37 20.7172C46.3743 20.7421 46.3762 20.7678 46.3781 20.7938L46.3801 20.8191C46.3815 20.8323 46.3833 20.8455 46.3852 20.8587C46.3891 20.8858 46.393 20.9131 46.393 20.941C46.393 20.9482 46.3919 20.9547 46.3908 20.9611C46.3897 20.9676 46.3887 20.974 46.3887 20.9812C46.3876 21.0075 46.3842 21.0331 46.3808 21.059L46.3772 21.0873C46.3715 21.1361 46.3643 21.1849 46.3528 21.2308C46.3442 21.2652 46.3327 21.2982 46.3212 21.3312C46.3055 21.3757 46.2882 21.4187 46.2682 21.4603C46.2524 21.4918 46.2352 21.5219 46.2181 21.552L46.218 21.5521C46.1936 21.5909 46.1678 21.6296 46.1391 21.6655C46.1175 21.6927 46.096 21.7185 46.0731 21.7444C46.0415 21.7788 46.0071 21.8103 45.9712 21.8405C45.9454 21.8634 45.921 21.8849 45.8938 21.905C45.8571 21.9312 45.8192 21.9526 45.7802 21.9747L45.769 21.981C45.7602 21.9859 45.7515 21.9908 45.743 21.9958C45.7235 22.007 45.7042 22.018 45.6843 22.027C45.6355 22.0485 45.5825 22.0642 45.5294 22.08C45.5187 22.083 45.5082 22.0867 45.4976 22.0905C45.4828 22.0958 45.4678 22.1011 45.4519 22.1044C45.3702 22.1231 45.2855 22.1331 45.1995 22.1331ZM24.0835 27.6516H47.0314V27.653C53.7764 27.653 55.2095 22.6423 55.3271 22.1804L55.3386 22.1344C55.5351 25.5185 53.8008 27.5598 53.7276 27.6444C53.7262 27.6473 53.7205 27.653 53.7205 27.653C52.9917 28.6356 52.0536 29.4533 50.9676 30.0314C50.9662 30.0329 50.9605 30.0357 50.9605 30.0357H24.0821C23.6489 30.0357 23.273 29.8019 23.065 29.4562C23.058 29.4465 23.0525 29.4357 23.0471 29.4248C23.0436 29.418 23.0402 29.4112 23.0363 29.4045L23.029 29.3904C23.01 29.3538 22.9913 29.3179 22.9761 29.2797C22.9589 29.2381 22.946 29.1937 22.9345 29.1478C22.9319 29.1379 22.9291 29.1283 22.9264 29.1187L22.9264 29.1187C22.9215 29.1017 22.9166 29.0849 22.913 29.0674C22.9086 29.0425 22.9068 29.0168 22.9049 28.9909L22.9029 28.9656C22.9015 28.9524 22.8996 28.9392 22.8978 28.926C22.8939 28.8989 22.89 28.8716 22.89 28.8436C22.89 28.8365 22.8911 28.83 22.8922 28.8236C22.8932 28.8171 22.8943 28.8107 22.8943 28.8035C22.8954 28.7771 22.8987 28.7516 22.9022 28.7256L22.9058 28.6973C22.9115 28.6486 22.9187 28.5998 22.9302 28.5539C22.9388 28.5194 22.9503 28.4865 22.9617 28.4535C22.9775 28.409 22.9947 28.366 23.0148 28.3244C23.0306 28.2928 23.0464 28.2627 23.065 28.2325C23.0894 28.1938 23.1152 28.1551 23.1439 28.1192C23.1654 28.092 23.187 28.0661 23.2099 28.0403C23.2415 28.0059 23.2759 27.9743 23.3118 27.9442C23.3376 27.9213 23.362 27.8997 23.3892 27.8797C23.428 27.851 23.471 27.8266 23.514 27.8036L23.5319 27.7932C23.5532 27.7805 23.5748 27.7678 23.5972 27.7577C23.6474 27.7362 23.7005 27.7204 23.7536 27.7047L23.7536 27.7046C23.7643 27.7017 23.7748 27.6979 23.7854 27.6942C23.8002 27.6889 23.8151 27.6836 23.8311 27.6803C23.9128 27.6616 23.9975 27.6516 24.0835 27.6516ZM16.8076 37.293H43.6889C43.775 37.293 43.8596 37.283 43.9414 37.2643C43.9573 37.261 43.9722 37.2557 43.987 37.2504L43.9871 37.2504C43.9976 37.2466 44.0081 37.2429 44.0188 37.2399L44.0189 37.2399C44.072 37.2241 44.125 37.2084 44.1738 37.1869C44.1937 37.1779 44.2129 37.1669 44.2324 37.1557C44.2356 37.1538 44.2388 37.152 44.242 37.1501C44.2474 37.1471 44.2529 37.144 44.2584 37.141L44.2696 37.1346C44.3087 37.1125 44.3465 37.0911 44.3832 37.0649C44.4104 37.0448 44.4348 37.0233 44.4607 37.0004C44.4965 36.9703 44.5309 36.9387 44.5625 36.9043C44.5855 36.8784 44.607 36.8526 44.6285 36.8254C44.6572 36.7895 44.683 36.7508 44.7074 36.712C44.726 36.6819 44.7418 36.6518 44.7576 36.6202C44.7777 36.5786 44.7949 36.5356 44.8107 36.4911L44.8107 36.491L44.8107 36.4909C44.8222 36.458 44.8336 36.4251 44.8422 36.3907C44.8537 36.3448 44.8609 36.296 44.8666 36.2473L44.8695 36.2243C44.8731 36.1965 44.8767 36.1693 44.8767 36.1411C44.8767 36.1358 44.8773 36.1308 44.878 36.126C44.8783 36.1243 44.8785 36.1227 44.8788 36.121C44.8799 36.1146 44.881 36.1081 44.881 36.1009C44.881 36.073 44.8771 36.0457 44.8732 36.0186C44.8713 36.0054 44.8695 35.9922 44.8681 35.979L44.8661 35.9537C44.8642 35.9278 44.8623 35.9021 44.858 35.8772C44.854 35.8582 44.8486 35.8399 44.8433 35.8218L44.8365 35.7983C44.825 35.7524 44.8121 35.7079 44.7949 35.6649C44.7795 35.6263 44.7606 35.5913 44.7414 35.5555L44.7346 35.5429C44.7296 35.5343 44.725 35.5253 44.7203 35.5164C44.7156 35.5074 44.711 35.4984 44.706 35.4898C44.498 35.1441 44.1221 34.9103 43.6889 34.9103H19.7398C14.6286 34.5588 12.4252 30.5135 12.3793 30.4275L12.375 30.4203C12.4123 33.3036 13.9214 34.8572 13.9702 34.906L13.9745 34.9103C14.0181 34.969 14.0655 35.0244 14.1131 35.08L14.1131 35.08L14.1131 35.08C14.1422 35.114 14.1714 35.148 14.1997 35.1829C14.8739 36.0192 15.7002 36.7278 16.6484 37.2485H16.6541L16.8091 37.2945L16.8076 37.293ZM23.174 43.1413H47.268L47.2709 43.1356C52.3734 43.1356 55.2439 38.056 55.3098 37.9384L55.3156 37.9283C55.3147 37.95 55.3123 37.9706 55.3099 37.9912C55.3083 38.0046 55.3067 38.018 55.3055 38.0316V38.0359C55.2984 38.1118 55.2898 38.1876 55.2812 38.2634L55.2812 38.264V38.2712C55.1879 39.1133 54.967 39.8635 54.693 40.5047C54.6916 40.5076 54.6905 40.5105 54.6894 40.5133C54.6883 40.5162 54.6873 40.5191 54.6858 40.5219C54.5854 40.7558 54.4778 40.9724 54.3674 41.1775C54.3652 41.1811 54.3634 41.1843 54.3616 41.1875C54.3598 41.1908 54.3581 41.194 54.3559 41.1976C54.3487 41.2091 54.3416 41.222 54.3358 41.2335C54.3301 41.2449 54.3229 41.2578 54.3157 41.2708C54.3114 41.2765 54.3086 41.2822 54.3057 41.288C54.1838 41.5074 54.059 41.7083 53.937 41.8905C53.9313 41.8976 53.927 41.9062 53.9212 41.9134C53.9205 41.9157 53.9193 41.9175 53.9182 41.9192C53.9172 41.9207 53.9162 41.9221 53.9155 41.9235C53.9134 41.9262 53.9114 41.9293 53.9093 41.9323C53.9071 41.9357 53.9048 41.9391 53.9026 41.9421C53.4149 42.6594 52.9788 43.0711 52.9171 43.127C52.9128 43.1327 52.9042 43.1399 52.9042 43.1399H52.9056C52.8921 43.1543 52.8769 43.1676 52.8618 43.1807C52.8528 43.1886 52.8439 43.1964 52.8353 43.2045C51.9388 44.0738 50.8485 44.7408 49.6335 45.131C49.6235 45.1353 49.6134 45.1368 49.6034 45.1396C49.3638 45.2142 49.1214 45.2816 48.8746 45.3347C48.8531 45.339 48.8316 45.3422 48.8101 45.3455C48.7886 45.3487 48.767 45.3519 48.7455 45.3562C48.5289 45.4007 48.3109 45.4394 48.0885 45.4667C48.0508 45.4718 48.012 45.4739 47.9734 45.476C47.9475 45.4773 47.9217 45.4787 47.8963 45.481C47.8817 45.4824 47.8671 45.4838 47.8525 45.4852C47.6718 45.5026 47.4898 45.5201 47.3053 45.5241H23.174C22.5155 45.5241 21.9819 44.9919 21.9819 44.3334C21.9819 43.675 22.5155 43.1413 23.174 43.1413Z" fill="#C9C9C9"/>
</g>
<defs>
<clipPath id="clip0_558_2865">
<rect width="68" height="68" fill="white"/>
</clipPath>
</defs>
</svg>
