<svg width="68" height="68" viewBox="0 0 68 68" fill="none" xmlns="http://www.w3.org/2000/svg">
<g clip-path="url(#clip0_558_2908)">
<path d="M67.9825 8.63944L64.7938 59.6037C64.5262 63.8881 60.9751 67.2267 56.6861 67.2267H11.3124C7.02346 67.2267 3.47376 63.8881 3.2048 59.6037L0.0161115 8.63944C-0.275861 3.95764 3.4378 0 8.12375 0H59.8763C64.5622 0 68.2759 3.95764 67.9839 8.63944H67.9825Z" fill="#DFDFDF"/>
<path d="M11.3124 60.2572C10.7011 60.2572 10.1919 59.7778 10.1546 59.1688L6.96587 8.20319C6.93998 7.78857 7.1212 7.50207 7.27797 7.33507C7.43475 7.16807 7.70946 6.96796 8.12369 6.96796H59.8762C60.2904 6.96796 60.5651 7.16807 60.7219 7.33507C60.8787 7.50207 61.0599 7.78713 61.034 8.20319L57.8453 59.1674C57.8079 59.7778 57.2988 60.2558 56.6875 60.2558H11.3124V60.2572Z" fill="#EFEFEF"/>
<path d="M52.9856 25.1208L53.5581 15.1511C53.6343 13.8179 52.5757 12.695 51.241 12.695H16.7594C15.4247 12.695 14.3661 13.8179 14.4424 15.1511L15.0148 25.1208C15.0853 26.3503 16.1021 27.3105 17.3319 27.3105H50.6685C51.8983 27.3105 52.9151 26.3503 52.9856 25.1208Z" fill="#C9C9C9"/>
<path d="M45.85 27.3148H22.1499C23.1696 21.6828 28.0828 17.4128 33.9942 17.4128C39.9056 17.4128 44.8303 21.6828 45.85 27.3148Z" fill="#DFDFDF"/>
<path d="M30.6934 40.423V47.3176C30.6934 47.5925 30.6819 47.8776 30.6502 48.1411C30.5625 48.9199 30.3439 49.6556 30.0246 50.3366C28.884 52.8171 26.3828 54.5303 23.4876 54.5303C21.5027 54.5303 19.6934 53.7183 18.3874 52.4226C17.7948 51.8194 17.3015 51.1168 16.9505 50.3366C16.6327 49.6556 16.4126 48.9199 16.3249 48.1411C16.2918 47.8776 16.2817 47.5925 16.2817 47.3176V40.423C16.2817 40.1379 16.2932 39.863 16.3249 39.588C16.7995 35.8434 19.9105 33.2103 23.4861 33.2103C26.3411 33.2103 28.8927 34.9062 30.0116 37.3925C30.341 38.0735 30.5496 38.8091 30.6474 39.588C30.6804 39.863 30.6905 40.1365 30.6905 40.423H30.6934Z" fill="#DDDEE0"/>
<path d="M51.7183 40.423V47.3176C51.7183 47.5925 51.7068 47.8776 51.6737 48.1411C51.586 48.9199 51.3774 49.6556 51.0596 50.3366C49.919 52.8171 47.4178 54.5303 44.5125 54.5303C42.5161 54.5303 40.7183 53.7183 39.4123 52.4226C38.8097 51.8194 38.3264 51.1168 37.9639 50.3366C37.6461 49.6556 37.4375 48.9199 37.3498 48.1411C37.3167 47.8776 37.3066 47.5925 37.3066 47.3176V40.423C37.3066 40.1379 37.3181 39.863 37.3498 39.588C37.4375 38.8091 37.6576 38.0735 37.9754 37.3925C39.116 34.922 41.6172 33.2103 44.5125 33.2103C47.4077 33.2103 49.9406 34.9307 51.0495 37.3925C51.3674 38.0735 51.5874 38.8091 51.6751 39.588C51.7082 39.863 51.7197 40.1365 51.7197 40.423H51.7183Z" fill="#DDDEE0"/>
<path d="M36.6925 23.0117L33.5455 27.3148H30.8257L34.9277 21.716C35.2786 21.2222 35.969 21.1128 36.4638 21.4741C36.947 21.8369 37.0563 22.5164 36.6939 23.0102L36.6925 23.0117Z" fill="#C9C9C9"/>
<path d="M30.6501 39.5894H16.3262C16.4254 38.8106 16.634 38.0749 16.9518 37.3939H30.0144C30.3437 38.0749 30.5523 38.8106 30.6501 39.5894Z" fill="#CECECE"/>
<path d="M30.6934 42.7725H16.2817V44.968H30.6934V42.7725Z" fill="#CECECE"/>
<path d="M30.6501 48.1411C30.5623 48.9199 30.3437 49.6556 30.0244 50.3365H16.9504C16.6325 49.6556 16.4124 48.9199 16.3247 48.1411H30.6486H30.6501Z" fill="#CECECE"/>
<path d="M51.6735 39.5894H37.3496C37.4373 38.8106 37.6574 38.0749 37.9753 37.3939H51.0493C51.3672 38.0749 51.5872 38.8106 51.675 39.5894H51.6735Z" fill="#CECECE"/>
<path d="M51.7183 42.7725H37.3066V44.968H51.7183V42.7725Z" fill="#CECECE"/>
<path d="M51.6735 48.1411C51.5858 48.9199 51.3772 49.6556 51.0594 50.3365H37.9638C37.6459 49.6556 37.4373 48.9199 37.3496 48.1411H51.6735Z" fill="#CECECE"/>
</g>
<defs>
<clipPath id="clip0_558_2908">
<rect width="68" height="68" fill="white"/>
</clipPath>
</defs>
</svg>
