<svg width="68" height="68" viewBox="0 0 68 68" fill="none" xmlns="http://www.w3.org/2000/svg">
<g clip-path="url(#clip0_558_2710)">
<path d="M33.9997 11.5909C33.3374 11.5909 32.7993 12.1262 32.7993 12.787V23.1561C32.7993 23.817 33.3365 24.3522 33.9997 24.3522C34.6629 24.3522 35.2 23.817 35.2 23.1561V12.787C35.2 12.1262 34.6629 11.5909 33.9997 11.5909Z" fill="#48495B"/>
<path d="M57.0702 18.2983C56.5215 17.9273 55.7749 18.0722 55.4035 18.6191L49.5986 27.1717C49.2273 27.7186 49.3717 28.4625 49.9205 28.8326C50.127 28.9717 50.3607 29.0384 50.5915 29.0384C50.9764 29.0384 51.3545 28.8538 51.5872 28.5128L57.3922 19.9602C57.7635 19.4133 57.619 18.6693 57.0702 18.3003V18.2983Z" fill="#48495B"/>
<path d="M12.596 18.6182C12.2247 18.0713 11.4791 17.9274 10.9293 18.2974C10.3805 18.6675 10.2361 19.4105 10.6074 19.9573L16.422 28.5244C16.6537 28.8665 17.0319 29.05 17.4168 29.05C17.6485 29.05 17.8822 28.9834 18.0878 28.8443C18.6366 28.4742 18.781 27.7312 18.4097 27.1834L12.5951 18.6163L12.596 18.6182Z" fill="#48495B"/>
<path d="M62.6334 36.872C59.4929 33.272 56.7888 31.4218 54.264 29.2392C49.0873 24.758 41.512 22.0837 34.0006 22.0837C26.4892 22.0837 19.067 24.6247 13.7372 29.2392C11.2105 31.4237 8.48107 33.2527 5.36676 36.871C4.11987 38.3203 2.66064 37.5329 2.66064 39.2449C2.66064 40.957 4.23234 40.3087 5.36676 41.6198C8.49368 45.2314 11.2114 47.07 13.7362 49.2526C18.9138 53.7338 26.4882 56.4082 33.9996 56.4082C41.511 56.4082 48.9332 53.8671 54.263 49.2526C56.7897 47.0681 59.5085 45.2295 62.6334 41.6208C63.2772 40.8768 65.3396 40.8855 65.3396 39.2469C65.3396 37.4218 63.6302 38.015 62.6334 36.872V36.872Z" fill="#DFDFDF"/>
<path d="M34 54.0909C42.5353 54.0909 49.4545 47.5176 49.4545 39.4091C49.4545 31.3006 42.5353 24.7273 34 24.7273C25.4646 24.7273 18.5454 31.3006 18.5454 39.4091C18.5454 47.5176 25.4646 54.0909 34 54.0909Z" fill="#178BFF"/>
<path d="M34.0002 31.6818C29.7392 31.6818 26.2729 35.1481 26.2729 39.4091C26.2729 43.67 29.7401 47.1364 34.0002 47.1364C38.2603 47.1364 41.7275 43.67 41.7275 39.4091C41.7275 35.1481 38.2603 31.6818 34.0002 31.6818V31.6818Z" fill="#48495B"/>
<path d="M41.7274 37.8636C43.0077 37.8636 44.0455 36.8258 44.0455 35.5455C44.0455 34.2652 43.0077 33.2273 41.7274 33.2273C40.4471 33.2273 39.4092 34.2652 39.4092 35.5455C39.4092 36.8258 40.4471 37.8636 41.7274 37.8636Z" fill="white"/>
</g>
<defs>
<clipPath id="clip0_558_2710">
<rect width="68" height="68" fill="white"/>
</clipPath>
</defs>
</svg>
