<svg width="68" height="68" viewBox="0 0 68 68" fill="none" xmlns="http://www.w3.org/2000/svg">
<g clip-path="url(#clip0_558_2759)">
<path d="M24.5771 33.3105C24.0587 33.3917 23.5709 33.0668 23.4387 32.5694L22.7882 30.1227L12.6752 45.5338C11.4962 47.3612 9.29061 48.214 7.17653 47.7064C3.70048 46.8739 -1.09688 47.148 0.22443 55.5744C0.549674 57.6861 1.65754 59.6353 3.47687 60.7622C5.23522 61.8587 7.25784 62.2039 9.16865 61.8993C9.8293 64.3257 11.5775 66.4678 14.2811 67.4932C17.6148 68.7622 21.4771 67.5846 23.7132 64.813C25.7459 62.3054 25.065 59.9602 23.3066 57.9095C21.8125 56.1734 21.5787 53.6759 22.8289 51.7572L33.3993 35.6455C33.562 35.4018 33.6026 35.1074 33.5315 34.8333L33.0334 32.9348C32.9013 32.4374 32.4134 32.1125 31.8951 32.1937L24.5873 33.3206L24.5771 33.3105Z" fill="url(#paint0_linear_558_2759)"/>
<path d="M61.7159 9.84853C62.2139 7.40183 61.6244 4.72163 59.6933 2.5998C57.3149 -0.0194874 53.3612 -0.699691 50.1392 0.741934C47.212 2.05158 46.7445 4.41706 47.3747 7.00589C47.9134 9.22924 46.9986 11.544 45.0166 12.7013L29.5777 22.1937C29.3439 22.3358 29.1712 22.5795 29.1203 22.8435L28.6833 24.8942C28.5715 25.4018 28.8662 25.9094 29.3643 26.0719L36.3977 28.3663C36.8957 28.5287 37.1803 29.0364 37.0787 29.544L36.5705 31.9094L51.2674 22.8435C53.1477 21.747 55.4956 21.9805 57.1523 23.3815C59.8559 25.6556 64.2061 27.5135 66.8182 19.4932C67.4788 17.4831 67.367 15.2597 66.2795 13.4526C65.2123 11.6759 63.5657 10.4577 61.7261 9.86884L61.7159 9.84853Z" fill="url(#paint1_linear_558_2759)"/>
<path d="M23.9979 19.2293L21.3147 11.1988C21.1317 10.6404 21.457 10.0313 22.0363 9.88915L27.3927 8.54905C28.155 8.35616 28.8359 9.05666 28.6123 9.80793L25.9291 19.1785C25.6546 20.143 24.3028 20.1633 23.9878 19.2191L23.9979 19.2293Z" fill="url(#paint2_linear_558_2759)"/>
<path d="M36.4789 43.2191L39.7313 51.0364C39.9549 51.5846 39.6703 52.2039 39.1113 52.3866L33.8667 54.1125C33.1248 54.3562 32.393 53.7064 32.5556 52.945L34.5477 43.412C34.751 42.4374 36.0926 42.3054 36.4789 43.2293V43.2191Z" fill="url(#paint3_linear_558_2759)"/>
<path d="M17.8995 22.3561L11.0186 22.4982C10.3986 22.5084 9.94119 23.0668 10.0327 23.6759L10.6222 27.3307C10.7136 27.9196 11.293 28.2952 11.8723 28.1531L18.1638 26.5795C18.6211 26.4678 18.9362 26.0617 18.9362 25.5947V23.3612C18.9362 22.7927 18.4687 22.3358 17.8995 22.346V22.3561Z" fill="url(#paint4_linear_558_2759)"/>
<path d="M43.5936 35.9602L50.7084 36.9247C51.1556 36.9856 51.5926 36.7419 51.7756 36.3358L52.8631 33.9196C53.168 33.2495 52.67 32.4881 51.9382 32.4881H44.1222C43.6648 32.4881 43.2582 32.8029 43.1363 33.2394L42.75 34.6912C42.5976 35.28 42.994 35.8688 43.5936 35.9602V35.9602Z" fill="url(#paint5_linear_558_2759)"/>
<path d="M16.3852 17.6455L9.83968 16.0109C9.07738 15.8181 8.81312 14.8637 9.37214 14.3054L12.6449 11.0363C13.1023 10.5795 13.8544 10.6607 14.2101 11.1886L17.4829 16.0922C18.0013 16.8637 17.2898 17.8688 16.3954 17.6353L16.3852 17.6455Z" fill="url(#paint6_linear_558_2759)"/>
<path d="M42.9026 41.1886L49.4278 42.9043C50.1901 43.1074 50.4442 44.0617 49.875 44.6099L46.5616 47.8383C46.1042 48.285 45.3521 48.2038 44.9963 47.6657L41.7846 42.7216C41.2764 41.9399 41.998 40.9551 42.8924 41.1886H42.9026Z" fill="url(#paint7_linear_558_2759)"/>
</g>
<defs>
<linearGradient id="paint0_linear_558_2759" x1="16.7826" y1="30.1227" x2="16.7826" y2="68.0029" gradientUnits="userSpaceOnUse">
<stop stop-color="#F3F3F3"/>
<stop offset="1" stop-color="#CDCDCD"/>
</linearGradient>
<linearGradient id="paint1_linear_558_2759" x1="47.9435" y1="0" x2="47.9435" y2="31.9094" gradientUnits="userSpaceOnUse">
<stop stop-color="#F3F3F3"/>
<stop offset="1" stop-color="#CDCDCD"/>
</linearGradient>
<linearGradient id="paint2_linear_558_2759" x1="22.1481" y1="14.5389" x2="28.0024" y2="14.0912" gradientUnits="userSpaceOnUse">
<stop stop-color="#FF8A73"/>
<stop offset="1" stop-color="#FA3D3D"/>
</linearGradient>
<linearGradient id="paint3_linear_558_2759" x1="37.9628" y1="47.4323" x2="34.1824" y2="48.47" gradientUnits="userSpaceOnUse">
<stop stop-color="#FF8A73"/>
<stop offset="1" stop-color="#FA3D3D"/>
</linearGradient>
<linearGradient id="paint4_linear_558_2759" x1="14.2812" y1="22.6607" x2="15.1736" y2="27.392" gradientUnits="userSpaceOnUse">
<stop stop-color="#FF8A73"/>
<stop offset="1" stop-color="#FA3D3D"/>
</linearGradient>
<linearGradient id="paint5_linear_558_2759" x1="48.0962" y1="32.7216" x2="47.4269" y2="36.4985" gradientUnits="userSpaceOnUse">
<stop stop-color="#FF8A73"/>
<stop offset="1" stop-color="#FA3D3D"/>
</linearGradient>
<linearGradient id="paint6_linear_558_2759" x1="15.3587" y1="12.7521" x2="13.0653" y2="16.2976" gradientUnits="userSpaceOnUse">
<stop stop-color="#FF8A73"/>
<stop offset="1" stop-color="#FA3D3D"/>
</linearGradient>
<linearGradient id="paint7_linear_558_2759" x1="46.4803" y1="42.2444" x2="44.1055" y2="45.5059" gradientUnits="userSpaceOnUse">
<stop stop-color="#FF8A73"/>
<stop offset="1" stop-color="#FA3D3D"/>
</linearGradient>
<clipPath id="clip0_558_2759">
<rect width="68" height="68" fill="white"/>
</clipPath>
</defs>
</svg>
