<svg width="68" height="68" viewBox="0 0 68 68" fill="none" xmlns="http://www.w3.org/2000/svg">
<g clip-path="url(#clip0_558_2345)">
<path d="M27.8002 0.60146C14.3217 3.1036 3.51108 14.045 1.09611 27.5235C-0.307527 35.3438 1.03509 42.763 4.26957 49.0489C4.62701 49.7376 4.70548 50.531 4.46137 51.2633L0.154542 64.1751C-0.603948 66.4418 1.55818 68.604 3.83365 67.8455L16.8152 63.5212C17.5475 63.2771 18.3321 63.3556 19.0209 63.7043C25.298 66.8865 32.6911 68.1855 40.4765 66.7906C53.9463 64.3756 64.8703 53.6173 67.3898 40.1911C71.8274 16.5472 51.479 -3.79255 27.8002 0.60146ZM49.5697 38.7875C49.5697 39.4501 49.0292 39.9819 48.3753 39.9819H39.997V48.3514C39.997 49.014 39.4565 49.5458 38.8026 49.5458H29.2213C28.5587 49.5458 28.0269 49.014 28.0269 48.3514V39.9819H19.6486C18.986 39.9819 18.4542 39.4501 18.4542 38.7875V29.2235C18.4542 28.561 18.986 28.0291 19.6486 28.0291H28.0269V19.6596C28.0269 18.997 28.5587 18.4652 29.2213 18.4652H38.8026C39.4652 18.4652 39.997 18.997 39.997 19.6596V28.0291H48.3753C49.0379 28.0291 49.5697 28.561 49.5697 29.2235V38.7875Z" fill="#DFDFDF"/>
</g>
<defs>
<clipPath id="clip0_558_2345">
<rect width="68" height="68" fill="white"/>
</clipPath>
</defs>
</svg>
