<svg width="68" height="68" viewBox="0 0 68 68" fill="none" xmlns="http://www.w3.org/2000/svg">
<g clip-path="url(#clip0_558_2363)">
<path d="M60.2725 34.1439C60.2725 41.8254 56.5856 48.6699 50.8758 52.9945C48.5113 54.7906 46.6109 57.0576 45.3236 59.6297C44.2377 61.7485 43.5634 64.1026 43.3707 66.5265C43.3094 67.3548 42.6351 68 41.8031 68H23.5614C22.6944 68 21.9938 67.3025 21.9938 66.4393V60.0308C21.9938 58.8189 21.013 57.8423 19.7957 57.8423H16.4592C14.3136 57.8423 12.5796 56.1159 12.5796 53.9885V47.3794C12.5796 46.1762 11.59 45.1997 10.3815 45.1997H9.32187C8.06956 45.1997 7.31642 43.8308 7.96447 42.7758L11.9053 36.4632C12.3432 35.7656 12.5796 34.9635 12.5796 34.1352C12.5796 27.8313 15.058 22.1203 19.0951 17.8654L29.1136 29.9326C29.5165 30.4121 30.2784 29.9675 30.0507 29.392L25.1202 17.0458C24.9714 16.6883 25.2341 16.296 25.6194 16.296H30.4623C30.8651 16.296 31.1366 15.8862 30.9614 15.52L29.0611 11.5964C31.3818 10.8465 33.8426 10.4368 36.4173 10.4368C38.7205 10.4368 40.9536 10.7594 43.0642 11.3697L41.0587 15.52C40.8836 15.8774 41.1551 16.296 41.5579 16.296H46.4008C46.7861 16.296 47.0488 16.6883 46.8999 17.0458L41.9783 29.392C41.7418 29.9675 42.5125 30.4121 42.9065 29.9326L53.3191 17.4033C57.6102 21.7018 60.2725 27.5959 60.2725 34.1352V34.1439Z" fill="#FFD1BE"/>
<path d="M48.897 0H57.0852C57.5231 0 57.7858 0.479549 57.5406 0.84575L51.4717 9.99205C51.2352 10.3583 51.4892 10.8378 51.9271 10.8378H57.6106C58.0748 10.8378 58.3287 11.3697 58.031 11.7271L42.8982 29.9413C42.5041 30.4208 41.7334 29.9674 41.9699 29.392L46.9003 17.0458C47.0404 16.6883 46.7777 16.2959 46.3924 16.2959H41.5495C41.1467 16.2959 40.884 15.8774 41.0591 15.5199L48.4066 0.305167C48.4942 0.113348 48.6868 0 48.897 0V0Z" fill="#F95353"/>
<path d="M23.1236 0H14.9354C14.4975 0 14.2348 0.479549 14.48 0.84575L20.5489 9.99205C20.7853 10.3583 20.5314 10.8378 20.0935 10.8378H14.4099C13.9458 10.8378 13.6918 11.3697 13.9896 11.7271L29.1224 29.9413C29.5165 30.4208 30.2871 29.9674 30.0507 29.392L25.1202 17.0458C24.9801 16.6883 25.2429 16.2959 25.6282 16.2959H30.471C30.8739 16.2959 31.1366 15.8774 30.9614 15.5199L23.6227 0.305167C23.5352 0.113348 23.3425 0 23.1323 0H23.1236Z" fill="#F95353"/>
</g>
<defs>
<clipPath id="clip0_558_2363">
<rect width="68" height="68" fill="white"/>
</clipPath>
</defs>
</svg>
