<svg width="68" height="68" viewBox="0 0 68 68" fill="none" xmlns="http://www.w3.org/2000/svg">
<g clip-path="url(#clip0_558_3174)">
<path d="M23.12 60.3107C33.7733 70.964 51.3574 70.5543 61.479 59.0815C69.9005 49.5353 70.2144 34.9938 62.159 25.1425C53.3451 14.3497 38.1933 12.5451 27.2697 19.7374C26.8338 20.0251 26.2585 19.9815 25.8836 19.6066L17.2528 10.9758C16.5554 10.2784 17.061 9.08404 18.0462 9.10148L21.8036 9.1625C24.2533 9.19738 26.2759 7.23584 26.3195 4.77737C26.3544 2.32763 24.3928 0.305067 21.9344 0.270195L4.50718 -6.10352e-05C4.50718 -6.10352e-05 4.46359 -6.10352e-05 4.42872 -6.10352e-05C2.29282 -6.10352e-05 0.305128 1.56045 0.0174359 4.00148C0 4.46353 0 4.46353 0 4.66404L0.0610256 21.5594C0.0610256 24.0179 2.06615 25.9969 4.52462 25.9881C6.98308 25.9707 8.97077 23.983 8.95333 21.5158L8.9359 17.8805C8.9359 16.904 10.1128 16.4071 10.8103 17.1046L19.5979 25.8835C19.9728 26.2584 20.0164 26.8251 19.7287 27.2697C13.0159 37.4697 14.1579 51.3399 23.12 60.3107Z" fill="#178BFF"/>
<path d="M59.4145 41.9441C59.4432 32.276 51.625 24.4152 41.9521 24.3865C32.2793 24.3578 24.4146 32.1721 24.3859 41.8401C24.3572 51.5082 32.1754 59.369 41.8483 59.3977C51.5211 59.4264 59.3858 51.6121 59.4145 41.9441Z" fill="white"/>
</g>
<defs>
<clipPath id="clip0_558_3174">
<rect width="68" height="68" fill="white"/>
</clipPath>
</defs>
</svg>
