<svg width="68" height="68" viewBox="0 0 68 68" fill="none" xmlns="http://www.w3.org/2000/svg">
<g clip-path="url(#clip0_558_2261)">
<path d="M60.1713 47.4606C57.5297 48.1754 54.8185 48.5329 52.0985 48.5329C35.1246 48.5329 21.3067 34.7672 21.3067 17.8544C21.3067 14.2016 21.9431 10.6272 23.2072 7.22725L23.3292 6.89597L22.9892 6.99186C9.45026 10.6534 0 22.9719 0 36.9554C0 54.0775 13.9749 68.0001 31.1579 68.0001C44.1477 68.0001 55.8995 59.8401 60.3979 47.7047L60.52 47.3734L60.18 47.4693L60.1713 47.4606Z" fill="#DFDFDF"/>
<path d="M63.0482 11.717L61.5661 6.79135L60.0753 11.717L55.1235 13.2078L60.0753 14.6898L61.5661 19.6155L63.0482 14.6898L67.9999 13.2078L63.0482 11.717Z" fill="#C9C9C9"/>
<path d="M43.3716 3.97538L42.1686 0L40.9655 3.97538L36.9727 5.17846L40.9655 6.38154L42.1686 10.3569L43.3716 6.38154L47.3645 5.17846L43.3716 3.97538Z" fill="#C9C9C9"/>
<path d="M48.9162 18.796L46.8413 25.657L39.9541 27.7319L46.8413 29.798L48.9162 36.6591L50.991 29.798L57.8782 27.7319L50.991 25.657L48.9162 18.796Z" fill="#C9C9C9"/>
</g>
<defs>
<clipPath id="clip0_558_2261">
<rect width="68" height="68" fill="white"/>
</clipPath>
</defs>
</svg>
