<svg width="68" height="68" viewBox="0 0 68 68" fill="none" xmlns="http://www.w3.org/2000/svg">
<g clip-path="url(#clip0_558_2866)">
<path d="M33.4783 67.957C33.5142 67.9613 33.5515 67.9613 33.5859 67.9641C33.748 67.99 33.8513 67.9986 33.8513 67.9986V67.9828C33.9244 67.9871 33.9947 67.9986 34.0679 67.9986C34.1468 67.9986 34.2242 67.99 34.3031 67.9871C36.7303 67.8637 38.6626 65.8525 38.6626 63.3809C38.6626 63.2561 38.654 63.1341 38.644 63.0122V54.1599C38.644 53.7367 38.6167 53.3221 38.5694 52.9133C38.5665 52.8903 38.5665 52.8674 38.5636 52.8459C38.5507 52.7469 38.5321 52.6493 38.5177 52.5503C38.5005 52.4356 38.4847 52.3208 38.4646 52.2075C38.4546 52.1501 38.4388 52.0942 38.4274 52.0382C38.3958 51.8847 38.3642 51.7327 38.3269 51.582C38.2882 51.4314 38.2437 51.2822 38.1993 51.133C38.1835 51.0785 38.1706 51.024 38.1534 50.9695C38.1175 50.8562 38.0759 50.7457 38.0357 50.6353C38.0042 50.5478 37.9769 50.4588 37.9439 50.3728C37.9181 50.3053 37.8865 50.2393 37.8593 50.1719C37.8076 50.0443 37.756 49.918 37.7001 49.7932C37.6728 49.733 37.6412 49.6742 37.6126 49.6153C37.5509 49.4862 37.4906 49.3571 37.4232 49.2323C37.3902 49.1706 37.3543 49.1118 37.3199 49.0516C37.2525 48.9296 37.1851 48.8077 37.1133 48.6901C37.0746 48.627 37.0316 48.5653 36.9914 48.5022C36.9197 48.3903 36.8494 48.2769 36.7734 48.1679C36.7088 48.0747 36.6385 47.9843 36.5711 47.8939C36.5152 47.8193 36.4621 47.7419 36.4047 47.6687C36.3344 47.5798 36.2598 47.4951 36.1881 47.4076C36.1278 47.3359 36.069 47.2613 36.0073 47.1896C35.9098 47.0791 35.8065 46.973 35.7047 46.8668C35.6631 46.8238 35.6258 46.7793 35.5842 46.7377C35.4909 46.6445 35.3934 46.5555 35.2973 46.4652C35.2427 46.4135 35.1897 46.359 35.1323 46.3088C35.0419 46.2285 34.9487 46.1524 34.8554 46.075C34.7894 46.019 34.7249 45.9616 34.6575 45.9071C34.57 45.8383 34.4796 45.7737 34.3906 45.7063C34.3132 45.6489 34.2386 45.5901 34.1597 45.5342C34.1597 45.5342 34.1583 45.5342 34.1568 45.5327H47.1176C47.1707 45.5327 47.2209 45.5256 47.274 45.5256H23.1742C22.5158 45.5256 21.9821 44.9919 21.9821 44.3349C21.9821 43.6779 22.5158 43.1428 23.1742 43.1428H47.2682C52.3708 43.1428 55.2412 38.0632 55.3072 37.9456C55.323 37.7347 55.3402 37.5224 55.3402 37.3073C55.3402 34.1599 53.5614 31.4229 50.9592 30.04C50.9592 30.04 50.9592 30.04 50.9578 30.04C50.9578 30.04 50.9578 30.04 50.9592 30.04H24.0837C23.6505 30.04 23.2746 29.8062 23.0666 29.4605C23.0566 29.4433 23.048 29.4261 23.0379 29.4089C23.0164 29.3687 22.9935 29.3285 22.9777 29.2841C22.9605 29.241 22.949 29.1965 22.9361 29.1521C22.9289 29.1248 22.9203 29.099 22.9146 29.0717C22.9131 29.0631 22.9103 29.056 22.9088 29.0488C22.9045 29.0215 22.9088 28.9971 22.9045 28.9699C22.9002 28.9297 22.8916 28.8896 22.8916 28.848C22.8916 28.8336 22.8945 28.8221 22.8959 28.8078C22.8959 28.7719 22.9017 28.7361 22.9074 28.7016C22.9131 28.6529 22.9203 28.6055 22.9318 28.5582C22.9404 28.5238 22.9519 28.4908 22.9634 28.4578C22.9791 28.4133 22.9963 28.3703 23.0164 28.3287C23.0322 28.2971 23.048 28.267 23.0666 28.2369C23.091 28.1967 23.1168 28.1594 23.1455 28.1235C23.1671 28.0963 23.1871 28.069 23.2115 28.0446C23.2431 28.0102 23.2775 27.9786 23.3134 27.9485C23.3392 27.927 23.3636 27.9041 23.3908 27.884C23.431 27.8553 23.4726 27.8309 23.5156 27.8079C23.5443 27.7922 23.5701 27.7749 23.5988 27.762C23.649 27.7391 23.7021 27.7233 23.7552 27.709C23.781 27.7018 23.8054 27.6903 23.8327 27.6846C23.9144 27.6674 23.9976 27.6559 24.0851 27.6559H47.0315C53.7766 27.6559 55.2097 22.6451 55.3273 22.1832C55.1566 17.9299 51.6966 14.5416 47.3672 14.5416H24.3276C24.1999 14.5416 24.0737 14.5287 23.9474 14.5144C23.913 14.5101 23.8786 14.5086 23.8441 14.5043C23.7165 14.4857 23.5902 14.4541 23.4654 14.4197C23.4324 14.4096 23.3994 14.3996 23.3664 14.3896C23.266 14.3566 23.1685 14.315 23.0724 14.2705C23.0021 14.2361 22.9318 14.1988 22.8644 14.1586C22.7998 14.1213 22.7367 14.0811 22.6765 14.0381C22.6492 14.018 22.6176 14.0051 22.5904 13.9836C22.5516 13.9535 22.5244 13.9147 22.4885 13.8832C22.3967 13.8028 22.3107 13.7196 22.2318 13.6307C22.1815 13.5733 22.1328 13.5159 22.0869 13.4557C22.0151 13.361 21.9535 13.2606 21.8961 13.1573C21.8616 13.0942 21.8244 13.0325 21.7942 12.968C21.7412 12.8518 21.7024 12.7313 21.6666 12.6093C21.6493 12.5505 21.6264 12.4946 21.6135 12.4343C21.5733 12.2493 21.5489 12.0599 21.5489 11.8677C21.427 10.3973 22.533 9.1952 24.0077 9.1952H26.782C26.782 9.1952 26.7935 9.19376 26.7992 9.19376C26.8035 9.19376 26.8078 9.19376 26.8121 9.19376C26.8193 9.19376 26.8265 9.19376 26.8322 9.19376C29.357 9.19376 31.404 7.13668 31.404 4.59903C31.404 2.06139 29.3555 0 26.8308 0C26.8193 0 26.8093 0.00143451 26.7978 0.00143451C26.7921 0.00143451 26.7863 0 26.7806 0H24.2243C21.0583 0 18.0817 1.23368 15.841 3.47438C13.5989 5.71078 12.3638 8.68882 12.3638 11.8605C12.3638 12.3755 12.4082 12.8805 12.4728 13.3782C12.8013 13.9778 16.1064 19.7374 21.8502 19.7503H45.1997C45.6329 19.7503 46.0087 19.9841 46.2167 20.3299C46.2268 20.3471 46.2354 20.3643 46.2454 20.3815C46.2669 20.4217 46.2899 20.4618 46.3057 20.5049C46.3229 20.5479 46.3344 20.5924 46.3473 20.6383C46.3544 20.6655 46.3631 20.6913 46.3688 20.7186C46.3702 20.7272 46.3731 20.7344 46.3745 20.7416C46.3788 20.7688 46.3745 20.7932 46.3788 20.8205C46.3831 20.8606 46.3917 20.9008 46.3917 20.9424C46.3917 20.9567 46.3889 20.9682 46.3874 20.9826C46.3874 21.0184 46.3817 21.0528 46.376 21.0887C46.3702 21.1375 46.3631 21.1848 46.3516 21.2322C46.343 21.2666 46.3315 21.2996 46.32 21.3326C46.3042 21.377 46.287 21.4201 46.2669 21.4617C46.2512 21.4932 46.2354 21.5234 46.2167 21.5535C46.1923 21.5937 46.1665 21.6309 46.1378 21.6668C46.1163 21.6941 46.0962 21.7213 46.0718 21.7457C46.0403 21.7801 46.0059 21.8103 45.97 21.8418C45.9442 21.8633 45.9198 21.8863 45.8925 21.9064C45.8524 21.9351 45.8108 21.958 45.7677 21.9824C45.739 21.9982 45.7132 22.0154 45.6831 22.0283C45.6329 22.0498 45.5812 22.067 45.5282 22.0814C45.5023 22.0886 45.478 22.1 45.4507 22.1058C45.3689 22.123 45.2857 22.1345 45.1982 22.1345H18.3198C14.8856 23.1228 12.3638 26.2874 12.3638 30.0343C12.3638 30.1663 12.3738 30.2954 12.3795 30.4259C12.4255 30.512 14.6289 34.5559 19.7386 34.9088H43.6891C44.1224 34.9088 44.4968 35.1426 44.7062 35.4883C44.7177 35.5055 44.7248 35.5242 44.7349 35.5414C44.7564 35.5815 44.7779 35.6203 44.7951 35.6633C44.8124 35.7063 44.8238 35.7508 44.8367 35.7967C44.8439 35.8225 44.8525 35.8484 44.8583 35.8756C44.8597 35.8842 44.8626 35.8914 44.864 35.8986C44.8683 35.9258 44.864 35.9502 44.8683 35.9775C44.8726 36.0176 44.8812 36.0578 44.8812 36.0994C44.8812 36.1137 44.8783 36.1252 44.8769 36.1396C44.8769 36.1754 44.8712 36.2113 44.8669 36.2457C44.8611 36.2945 44.854 36.3418 44.8425 36.3892C44.8339 36.4236 44.8224 36.4566 44.8109 36.4896C44.7951 36.5341 44.7779 36.5771 44.7578 36.6187C44.7421 36.6503 44.7263 36.6804 44.7076 36.7105C44.6832 36.7507 44.6574 36.788 44.6287 36.8238C44.6072 36.8511 44.5871 36.8783 44.5627 36.9027C44.5312 36.9372 44.4968 36.9687 44.4609 36.9988C44.4351 37.0204 44.4107 37.0433 44.3834 37.0634C44.3433 37.0921 44.3017 37.115 44.2586 37.1394C44.2299 37.1552 44.2041 37.1724 44.174 37.1853C44.1238 37.2083 44.0721 37.2241 44.0191 37.2384C43.9932 37.2456 43.9689 37.2571 43.9416 37.2628C43.8598 37.28 43.7766 37.2915 43.6891 37.2915H16.8079L16.6529 37.2484C16.6845 37.2657 16.7161 37.2857 16.7476 37.303C16.7476 37.303 16.7476 37.303 16.7462 37.303C14.2631 38.6241 12.5345 41.1747 12.3795 44.1384C12.3795 44.137 12.3767 44.1312 12.3767 44.1312C12.3724 44.2115 12.3752 44.2876 12.3724 44.3665C12.3709 44.4353 12.3652 44.5028 12.3652 44.573H12.3638L12.3666 44.6146C12.3666 44.6175 12.3666 44.6204 12.3666 44.6232C12.3666 46.2113 12.8329 47.5166 13.345 48.4663C13.3521 48.4806 13.3593 48.4936 13.3665 48.5079C13.9675 49.6067 14.6131 50.2193 14.6131 50.2193C14.6561 50.2666 14.7049 50.3139 14.7494 50.3613C14.7623 50.3742 14.7737 50.3871 14.7867 50.4C15.4293 51.0699 16.29 51.7083 17.4979 52.196C17.5223 52.2061 17.5481 52.2147 17.5725 52.2247C17.7561 52.2964 17.944 52.3667 18.1434 52.4313C18.1463 52.4313 18.1491 52.4327 18.152 52.4341C18.3299 52.4915 18.5092 52.5489 18.7 52.6005C18.766 52.6077 18.8205 52.6149 18.8793 52.6221C18.8908 52.6235 18.9023 52.6249 18.9137 52.6264C18.9396 52.6307 18.9639 52.6393 18.9898 52.645C19.0672 52.6608 19.1476 52.668 19.2265 52.6809C19.6712 52.7555 20.1259 52.8014 20.5921 52.8014H25.9113C26.0346 52.8014 26.1566 52.8086 26.2771 52.82C28.0645 53.0022 29.4588 54.5127 29.4588 56.3489V63.7452C29.4588 63.8442 29.4789 63.936 29.5061 64.025C29.5061 64.025 29.5061 64.0264 29.5061 64.0278C29.7012 65.5728 30.4931 66.5167 31.3495 67.0963C31.9577 67.5438 32.6764 67.8494 33.4625 67.9555C33.4654 67.9555 33.4697 67.957 33.4726 67.9584C33.4754 67.9584 33.4769 67.9584 33.4797 67.9598L33.4783 67.957Z" fill="url(#paint0_linear_558_2866)"/>
<path d="M47.0315 27.6516H24.0836C23.9976 27.6516 23.9129 27.6616 23.8312 27.6803C23.8039 27.686 23.7795 27.6975 23.7537 27.7047C23.7006 27.7204 23.6476 27.7362 23.5973 27.7577C23.5687 27.7706 23.5414 27.7879 23.5141 27.8036C23.4711 27.8266 23.4281 27.851 23.3893 27.8797C23.3621 27.8998 23.3377 27.9213 23.3119 27.9442C23.276 27.9743 23.2416 28.0059 23.21 28.0403C23.1871 28.0662 23.1656 28.092 23.144 28.1192C23.1154 28.1551 23.0895 28.1938 23.0651 28.2326C23.0465 28.2627 23.0307 28.2928 23.0149 28.3244C22.9949 28.366 22.9776 28.409 22.9619 28.4535C22.9504 28.4865 22.9389 28.5195 22.9303 28.5539C22.9188 28.5998 22.9117 28.6486 22.9059 28.6973C22.9016 28.7332 22.8959 28.7676 22.8944 28.8035C22.8944 28.8178 22.8901 28.8293 22.8901 28.8437C22.8901 28.8853 22.8987 28.9254 22.903 28.9656C22.9059 29 22.9074 29.0344 22.9131 29.0674C22.9188 29.0947 22.9274 29.1205 22.9346 29.1478C22.9461 29.1937 22.959 29.2381 22.9762 29.2797C22.9934 29.3228 23.0149 29.3629 23.0365 29.4045C23.0465 29.4218 23.0537 29.4404 23.0651 29.4562C23.2732 29.8019 23.649 30.0357 24.0822 30.0357H50.9606C50.9606 30.0357 50.9663 30.0329 50.9678 30.0314C52.0537 29.4533 52.9919 28.6357 53.7206 27.653C53.7206 27.653 53.7263 27.6473 53.7278 27.6444C53.8009 27.5598 55.5352 25.5185 55.3387 22.1345C55.3387 22.1345 55.333 22.1574 55.3272 22.1804C55.2096 22.6423 53.7765 27.653 47.0315 27.653V27.6516Z" fill="#BB3A36"/>
<path d="M33.8515 22.133H45.1999C45.286 22.133 45.3706 22.1229 45.4524 22.1043C45.4796 22.0986 45.504 22.0871 45.5298 22.0799C45.5829 22.0641 45.636 22.0483 45.6848 22.0268C45.7135 22.0139 45.7407 21.9967 45.7694 21.9809C45.8124 21.9565 45.854 21.9336 45.8942 21.9049C45.9215 21.8848 45.9458 21.8633 45.9717 21.8403C46.0075 21.8102 46.042 21.7787 46.0735 21.7442C46.0965 21.7184 46.118 21.6926 46.1395 21.6653C46.1682 21.6295 46.194 21.5907 46.2184 21.552C46.2356 21.5219 46.2528 21.4918 46.2686 21.4602C46.2887 21.4186 46.3059 21.3756 46.3217 21.3311C46.3332 21.2981 46.3446 21.2651 46.3532 21.2307C46.3647 21.1848 46.3719 21.136 46.3776 21.0872C46.3819 21.0514 46.3877 21.0169 46.3891 20.9811C46.3891 20.9667 46.3934 20.9553 46.3934 20.9409C46.3934 20.8993 46.3848 20.8591 46.3805 20.819C46.3776 20.7845 46.3762 20.7501 46.3705 20.7171C46.3647 20.6899 46.3561 20.664 46.3489 20.6368C46.3375 20.5909 46.3246 20.5464 46.3073 20.5034C46.2901 20.4603 46.2686 20.4202 46.2471 20.38C46.2371 20.3628 46.2299 20.3442 46.2184 20.3284C46.0104 19.9827 45.6346 19.7488 45.2013 19.7488H21.8504C16.1066 19.7359 12.8015 13.9764 12.473 13.3767C12.4558 13.3438 12.4443 13.3237 12.4443 13.3237C12.4802 13.5747 12.5218 13.82 12.5706 14.0567C12.5706 14.061 12.5706 14.0639 12.572 14.0682C12.572 14.0725 12.572 14.0768 12.5734 14.0797C12.5763 14.0969 12.582 14.1141 12.5849 14.1299C12.638 14.3895 12.6997 14.6391 12.7642 14.8815C12.7642 14.8844 12.7657 14.8873 12.7671 14.8902C12.7685 14.8959 12.7714 14.9031 12.7728 14.9088C12.8173 15.0752 12.8661 15.2402 12.9177 15.4037C12.9177 15.408 12.9206 15.4123 12.9206 15.4152C12.945 15.4898 12.9694 15.5615 12.9952 15.6332C13.0009 15.6504 13.0067 15.6662 13.0124 15.6834C13.0999 15.9359 13.1917 16.1855 13.295 16.4308C13.2979 16.438 13.3007 16.4437 13.3036 16.4509C13.3782 16.6302 13.4542 16.8024 13.5331 16.9659C13.5389 16.9774 13.5432 16.9874 13.5489 16.9989C13.5589 17.0204 13.569 17.0419 13.579 17.0634C13.5934 17.0964 13.6077 17.128 13.6235 17.1595C13.6249 17.1624 13.6264 17.1653 13.6278 17.1682C14.4426 18.8121 15.3377 19.6958 15.3808 19.7388L15.3879 19.746C16.23 20.687 17.2198 21.4932 18.3201 22.1287H33.8515V22.133Z" fill="#BB3A36"/>
<path d="M16.8076 37.2929H43.6889C43.775 37.2929 43.8596 37.2829 43.9414 37.2642C43.9686 37.2585 43.993 37.247 44.0188 37.2398C44.0719 37.224 44.125 37.2083 44.1737 37.1867C44.2024 37.1738 44.2297 37.1566 44.2584 37.1408C44.3014 37.1165 44.343 37.0935 44.3832 37.0648C44.4104 37.0447 44.4348 37.0232 44.4606 37.0003C44.4965 36.9701 44.5309 36.9386 44.5625 36.9041C44.5855 36.8783 44.607 36.8525 44.6285 36.8252C44.6572 36.7894 44.683 36.7507 44.7074 36.7119C44.726 36.6818 44.7418 36.6517 44.7576 36.6201C44.7777 36.5785 44.7949 36.5355 44.8107 36.491C44.8221 36.458 44.8336 36.425 44.8422 36.3906C44.8537 36.3447 44.8609 36.2959 44.8666 36.2471C44.8709 36.2113 44.8767 36.1768 44.8767 36.141C44.8767 36.1266 44.881 36.1152 44.881 36.1008C44.881 36.0592 44.8724 36.0191 44.868 35.9789C44.8652 35.9445 44.8637 35.91 44.858 35.877C44.8523 35.8498 44.8437 35.824 44.8365 35.7981C44.825 35.7522 44.8121 35.7078 44.7949 35.6647C44.7777 35.6217 44.7562 35.583 44.7346 35.5428C44.7246 35.5256 44.716 35.5069 44.706 35.4897C44.4979 35.144 44.1221 34.9102 43.6889 34.9102H19.7398C14.6286 34.5587 12.4252 30.5134 12.3793 30.4273L12.375 30.4202C12.4123 33.3035 13.9214 34.8571 13.9702 34.9059L13.9745 34.9102C14.0448 35.0049 14.1251 35.0909 14.1997 35.1827C14.8739 36.0191 15.7002 36.7277 16.6484 37.2484H16.6541L16.8091 37.2943L16.8076 37.2929Z" fill="#BB3A36"/>
<path d="M47.268 43.1414H23.174C22.5156 43.1414 21.9819 43.675 21.9819 44.3335C21.9819 44.9919 22.5156 45.5241 23.174 45.5241H47.3053C47.5047 45.5198 47.7012 45.4997 47.8963 45.4811C47.9594 45.4754 48.0254 45.4754 48.0885 45.4667C48.3109 45.4395 48.5289 45.4008 48.7456 45.3563C48.7886 45.3477 48.8316 45.3434 48.8747 45.3348C49.1214 45.2817 49.3638 45.2143 49.6034 45.1397C49.6134 45.1368 49.6235 45.1354 49.6335 45.1311C50.8485 44.7409 51.9388 44.0738 52.8353 43.2045C52.8583 43.183 52.8841 43.1629 52.9056 43.14H52.9042C52.9042 43.14 52.9128 43.1328 52.9171 43.1271C52.9788 43.0711 53.4149 42.6594 53.9026 41.9422C53.9069 41.9364 53.9112 41.9293 53.9155 41.9235C53.917 41.9206 53.9198 41.9178 53.9213 41.9135C53.927 41.9063 53.9313 41.8977 53.937 41.8905C54.059 41.7083 54.1838 41.5075 54.3057 41.288C54.3086 41.2823 54.3114 41.2766 54.3158 41.2708C54.3229 41.2579 54.3301 41.245 54.3358 41.2335C54.3416 41.222 54.3487 41.2091 54.3559 41.1977C54.3602 41.1905 54.3631 41.1847 54.3674 41.1776C54.4778 40.9724 54.5854 40.7558 54.6859 40.522C54.6887 40.5163 54.6902 40.5105 54.693 40.5048C54.967 39.8636 55.1879 39.1133 55.2812 38.2713C55.2812 38.2684 55.2812 38.2669 55.2812 38.2641C55.2898 38.1881 55.2984 38.112 55.3056 38.036C55.3056 38.036 55.3056 38.0331 55.3056 38.0317C55.3084 37.9973 55.3142 37.9643 55.3156 37.9284L55.3099 37.9384C55.2439 38.0561 52.3734 43.1357 47.2709 43.1357L47.268 43.1414Z" fill="#BB3A36"/>
</g>
<defs>
<linearGradient id="paint0_linear_558_2866" x1="12.3638" y1="0" x2="55.6365" y2="68" gradientUnits="userSpaceOnUse">
<stop stop-color="#FF816D"/>
<stop offset="0.536458" stop-color="#FD6459"/>
<stop offset="1" stop-color="#FB4140"/>
</linearGradient>
<clipPath id="clip0_558_2866">
<rect width="68" height="68" fill="white"/>
</clipPath>
</defs>
</svg>
