<svg width="68" height="68" viewBox="0 0 68 68" fill="none" xmlns="http://www.w3.org/2000/svg">
<g clip-path="url(#clip0_554_2795)">
<path d="M68 34.2086C68 28.3282 63.3559 23.4986 57.4832 23.0504C57.0195 17.2936 52.0973 12.75 46.1086 12.75C44.6482 12.75 43.2341 13.0127 41.8973 13.5382C39.7955 10.4164 36.2177 8.50772 32.3695 8.50772C28.7223 8.50772 25.3377 10.1923 23.1895 13.0514C22.3318 12.8504 21.4509 12.75 20.5623 12.75C14.5195 12.75 9.55091 17.3864 9.17227 23.2282C3.89455 24.2559 0 28.8382 0 34.2086C0 40.3827 5.11545 45.4054 11.4055 45.4054H19.2023C19.6118 48.2336 21.0877 50.8454 23.3286 52.6845C25.4305 54.4077 28.0114 55.3118 30.6232 55.3118C31.5195 55.3118 32.4236 55.2036 33.3045 54.9873C33.8455 55.6827 34.4636 56.3241 35.1514 56.8882C37.2995 58.65 39.8882 59.5077 42.4459 59.5077C45.4595 59.5077 48.4268 58.3177 50.5827 55.9995C52.2982 56.9268 54.1682 57.375 56.0073 57.375C59.2682 57.375 62.4595 55.9764 64.6155 53.3259C67.4668 49.8332 67.8764 44.9186 65.7205 40.9082C67.1809 38.9841 67.9845 36.635 67.9845 34.2164L68 34.2086Z" fill="#FFB79A"/>
<path fill-rule="evenodd" clip-rule="evenodd" d="M29.9354 22.0073C27.3854 22.2778 25.1986 23.9005 24.2249 26.2805C24.0704 26.6591 24.2559 27.0918 24.6345 27.2464C25.0131 27.4009 25.4459 27.2155 25.6004 26.8368C26.4349 24.7737 28.4363 23.4446 30.7081 23.4446C32.9799 23.4446 34.9813 24.7737 35.8159 26.8368C35.9318 27.1228 36.2099 27.3005 36.5036 27.3005C36.5963 27.3005 36.689 27.285 36.7818 27.2464C37.1604 27.0918 37.3459 26.6591 37.1913 26.2805C36.2177 23.8773 33.9999 22.2546 31.419 21.9996C31.3881 17.3709 28.4209 13.4146 24.2636 11.8228C23.8849 12.1937 23.5372 12.6032 23.2127 13.0282C27.0918 14.2646 29.9045 17.8191 29.9431 22.0073H29.9354ZM57.2668 21.5899C53.8745 21.9454 50.6909 23.8077 48.8209 26.8754C47.4454 26.1104 45.7609 26.0949 44.3468 26.8677C43.9836 27.0609 43.8522 27.5168 44.0454 27.8722C44.2386 28.2354 44.6945 28.3668 45.0499 28.1736C46.1781 27.5554 47.5536 27.679 48.5504 28.4749C49.5395 29.2631 49.9259 30.5459 49.5395 31.7281C49.4159 32.1222 49.6245 32.5395 50.0186 32.6631C50.0959 32.6863 50.1731 32.7018 50.2504 32.7018C50.5595 32.7018 50.8531 32.5009 50.9536 32.1918C51.4559 30.6386 51.0849 28.9849 49.9954 27.8027C49.9954 27.8027 50.0031 27.7872 50.0109 27.7795C51.6568 24.9977 54.5236 23.3286 57.5759 23.0504H57.4909C57.4522 22.5559 57.375 22.069 57.2745 21.5977L57.2668 21.5899ZM37.5699 15.5318C38.4895 14.2027 39.6563 13.1286 40.9622 12.3327C41.2945 12.7036 41.6036 13.0977 41.8818 13.515C40.6918 14.2181 39.6254 15.1763 38.7909 16.3818C38.644 16.5904 38.4122 16.6986 38.1804 16.6986C38.0336 16.6986 37.8868 16.66 37.7554 16.5672C37.4231 16.3354 37.3381 15.8718 37.5699 15.5318ZM42.1059 46.1009C41.7195 46.2399 41.5263 46.6649 41.6654 47.0513C41.8045 47.4377 42.2295 47.6386 42.6159 47.4918C45.0113 46.6186 47.6849 47.2986 49.4313 49.2381C51.1236 51.1081 51.564 53.7354 50.5904 55.984C51.0309 56.2236 51.479 56.4245 51.9427 56.6022C53.1636 53.8127 52.6227 50.5518 50.5363 48.2413C48.3804 45.8536 45.0731 45.0113 42.1136 46.0931L42.1059 46.1009ZM59.4536 38.2191C59.3763 37.8095 59.639 37.4232 60.0408 37.3459V37.3536C62.5213 36.8823 64.994 37.7477 66.5936 39.5868C66.3463 40.035 66.0604 40.4755 65.7436 40.8927C64.5149 39.2236 62.4208 38.4123 60.319 38.8141C59.9172 38.8836 59.5309 38.6209 59.4536 38.2191ZM17.7186 21.2577C18.1281 21.2809 18.4759 20.9718 18.499 20.5623C18.5222 20.1527 18.2131 19.7973 17.8036 19.7741C16.0031 19.6659 14.334 20.5932 13.484 22.1386C12.1704 21.7214 10.7795 21.5746 9.38858 21.6827C9.28813 22.185 9.21086 22.695 9.17995 23.2127C10.4549 23.0582 11.7609 23.1586 12.9972 23.545C12.7577 24.9205 13.1827 26.3423 14.1949 27.3932C14.3418 27.5477 14.5349 27.6173 14.7281 27.6173C14.9213 27.6173 15.099 27.5477 15.2459 27.4086C15.5395 27.1227 15.5472 26.6514 15.2613 26.3577C14.3881 25.4536 14.1718 24.1323 14.7049 23.0041C15.2459 21.8682 16.4281 21.1805 17.7186 21.2577ZM34.1004 38.1341C34.9349 37.2841 35.9859 36.6273 37.1913 36.2564H37.1759C37.5699 36.1405 37.9795 36.3568 38.1031 36.7509C38.2268 37.1373 38.0104 37.5546 37.6163 37.6782C35.2518 38.4123 33.629 40.4909 33.4899 42.9868C33.4668 43.3809 33.1345 43.69 32.7481 43.69H32.7018C32.2922 43.6668 31.9831 43.3114 32.0063 42.9018C32.0836 41.5805 32.4931 40.3518 33.1654 39.3009C30.9863 37.4696 27.509 37.1373 24.4722 38.4896C21.3581 39.8727 19.3027 42.6546 19.2331 45.5832C19.2177 45.5214 19.2099 45.4596 19.2022 45.3978L19.2022 45.3977H17.7572C17.904 41.9514 20.2918 38.7136 23.8772 37.1218C27.4704 35.53 31.4577 35.9318 34.1004 38.1341ZM61.6327 49.1918C61.5631 48.79 61.1768 48.5118 60.7749 48.5814C60.3731 48.6509 60.1027 49.0373 60.1722 49.4391C60.5431 51.5795 61.8336 53.3568 63.6495 54.3614C63.9972 54.0368 64.3218 53.6891 64.6309 53.3105C64.638 53.3009 64.6452 53.2921 64.6522 53.2835C64.6677 53.2644 64.682 53.2468 64.6927 53.2255C63.0931 52.4759 61.9418 51 61.6327 49.1918ZM7.34086 37.5545C7.54177 37.1991 7.99768 37.0755 8.35313 37.2764H8.3454C9.88313 38.1495 11.1118 39.4555 11.8845 41.0473C12.549 42.3995 12.8349 43.8909 12.7499 45.3977H11.4054H11.2663C11.4672 42.6005 10.084 39.9655 7.61904 38.5668C7.26359 38.3659 7.13995 37.91 7.34086 37.5545Z" fill="#FB895B"/>
</g>
<defs>
<clipPath id="clip0_554_2795">
<rect width="68" height="68" fill="white"/>
</clipPath>
</defs>
</svg>
