<svg width="68" height="68" viewBox="0 0 68 68" fill="none" xmlns="http://www.w3.org/2000/svg">
<g clip-path="url(#clip0_558_2417)">
<path d="M68 54.7786V38.1959C68 33.8377 64.4609 30.2986 60.1027 30.2986H41.0473C39.8418 30.2986 38.8682 31.3032 38.9377 32.5009C39.0305 33.9923 39.2777 35.4063 39.7259 36.7663C42.1291 44.0686 39.0923 48.3341 35.4527 49.8873C34.4405 50.32 33.3123 50.5518 32.1841 50.5518C28.4286 50.5518 25.2605 48.2104 24.2945 44.7332C23.46 41.735 23.8309 37.8173 25.075 32.9413C25.415 31.6045 24.4182 30.2986 23.035 30.2986H7.89727C3.55455 30.2909 0.0309091 33.7991 0 38.1341V54.8327C0.0309091 59.1677 3.55455 62.6759 7.89727 62.6759H60.1027C64.4609 62.6759 68 59.1368 68 54.7786Z" fill="#FFC39D"/>
<path d="M38.4663 47.7082C38.5204 47.6463 38.5745 47.5845 38.6286 47.515C38.5745 47.5768 38.5204 47.6463 38.4663 47.7082Z" fill="#FF988C"/>
<path d="M37.6162 48.5427C37.6858 48.4886 37.7476 48.4268 37.8094 48.3727C37.7476 48.4345 37.678 48.4886 37.6162 48.5427Z" fill="#FF988C"/>
<path d="M39.1929 46.7345C39.2392 46.6572 39.2856 46.58 39.332 46.5027C39.2856 46.58 39.2392 46.6572 39.1929 46.7345Z" fill="#FF988C"/>
<path d="M38.6748 47.4532C38.8448 47.2445 39.0071 47.0204 39.1539 46.7886C38.9993 47.0204 38.8448 47.2445 38.6748 47.4532Z" fill="#FF988C"/>
<path d="M36.9365 49.0682C37.1683 48.9136 37.3847 48.7436 37.6011 48.5582C37.3847 48.7436 37.1606 48.9136 36.9365 49.0682Z" fill="#FF988C"/>
<path d="M24.1323 44.03C24.171 44.2309 24.2251 44.4318 24.2714 44.625C24.2173 44.4318 24.171 44.2309 24.1323 44.03Z" fill="#FF988C"/>
<path d="M23.8618 41.4259C23.8618 41.7118 23.8773 41.99 23.9005 42.2604C23.885 41.99 23.8695 41.7118 23.8618 41.4259Z" fill="#FF988C"/>
<path d="M24.1633 37.3613C24.001 38.4354 23.9005 39.4554 23.8696 40.4136C23.9005 39.4554 24.001 38.4432 24.171 37.3613H24.1633Z" fill="#FF988C"/>
<path d="M40.5758 41.7736C40.5603 43.2495 40.2744 44.5322 39.7876 45.6295C40.2744 44.5322 40.5603 43.2495 40.5758 41.7736Z" fill="#FF988C"/>
<path d="M24.001 43.2418C24.0242 43.4272 24.0551 43.6204 24.0937 43.7982C24.0628 43.6127 24.0319 43.4272 24.001 43.2418Z" fill="#FF988C"/>
<path d="M23.8926 42.2604C23.908 42.5309 23.9389 42.7936 23.9699 43.0563C23.9389 42.7936 23.908 42.5309 23.8926 42.2604Z" fill="#FF988C"/>
<path d="M39.3628 46.4486C39.5173 46.1859 39.6564 45.9154 39.7801 45.6373C39.6564 45.9232 39.5173 46.1936 39.3628 46.4486Z" fill="#FF988C"/>
<path d="M23.8618 41.2791C23.8618 41.0086 23.8618 40.7304 23.8695 40.4522C23.8618 40.7304 23.8618 41.0086 23.8618 41.2791Z" fill="#FF988C"/>
<path d="M32.1919 50.5441C33.3201 50.5441 34.4483 50.32 35.4606 49.8795C35.9629 49.6632 36.4574 49.3927 36.9288 49.0759C36.4574 49.4004 35.9629 49.6632 35.4606 49.8795C34.4483 50.3122 33.3201 50.5441 32.1919 50.5441C29.4951 50.5441 27.0919 49.3309 25.6006 47.3604C27.0919 49.3309 29.4874 50.5441 32.1919 50.5441Z" fill="#FF988C"/>
<path d="M38.42 47.7545C38.2423 47.9554 38.0569 48.1486 37.856 48.3263C38.0491 48.1486 38.2346 47.9554 38.42 47.7545Z" fill="#FF988C"/>
<path d="M24.0938 43.8059C24.1092 43.8832 24.1247 43.9604 24.1401 44.03C24.1247 43.9527 24.1092 43.8832 24.0938 43.8059Z" fill="#FF988C"/>
<path d="M23.9775 43.0563C23.9853 43.1182 23.993 43.18 24.0007 43.2495C23.993 43.1877 23.9853 43.1259 23.9775 43.0563Z" fill="#FF988C"/>
<path d="M37.6011 48.5582C37.6011 48.5582 37.6088 48.5582 37.6165 48.5504C37.6165 48.5504 37.6088 48.5504 37.6011 48.5582Z" fill="#FF988C"/>
<path d="M39.332 46.5027C39.332 46.5027 39.3552 46.4641 39.3629 46.4486C39.3552 46.4641 39.3398 46.4872 39.332 46.5027Z" fill="#FF988C"/>
<path d="M38.6211 47.515C38.6211 47.515 38.6597 47.4686 38.6752 47.4532C38.6597 47.4763 38.6443 47.4995 38.6211 47.515Z" fill="#FF988C"/>
<path d="M39.1616 46.7809C39.1616 46.7809 39.1848 46.7422 39.1925 46.7268C39.1848 46.7422 39.1693 46.7654 39.1616 46.7809Z" fill="#FF988C"/>
<path d="M37.8096 48.3727C37.8096 48.3727 37.8405 48.3418 37.8559 48.3263C37.8405 48.3418 37.825 48.3572 37.8096 48.3727Z" fill="#FF988C"/>
<path d="M25.6007 47.3604C25.0211 46.5877 24.5729 45.6991 24.3025 44.7254C24.2948 44.6945 24.287 44.6636 24.2793 44.625C24.287 44.6559 24.2948 44.6868 24.3025 44.7177C24.5729 45.6991 25.0211 46.58 25.6007 47.3527V47.3604Z" fill="#FF988C"/>
<path d="M38.4199 47.7545C38.4199 47.7545 38.4508 47.7236 38.4663 47.7082C38.4508 47.7236 38.4354 47.7391 38.4199 47.7545Z" fill="#FF988C"/>
<path d="M68 54.7786V41.7891C60.5973 41.7891 60.5973 37.1604 53.2023 37.1604C45.8073 37.1604 48.8055 41.7891 41.4027 41.7891C41.1091 41.7891 40.8386 41.7813 40.5759 41.7736C40.5605 43.2495 40.2668 44.5322 39.7877 45.6295C39.6641 45.9154 39.525 46.1859 39.3705 46.4409C39.3627 46.4563 39.3473 46.4795 39.3395 46.495C39.2932 46.5722 39.2468 46.6495 39.2005 46.7268C39.1927 46.7423 39.1773 46.7654 39.1695 46.7809C39.015 47.0127 38.8605 47.2368 38.6905 47.4454C38.675 47.4686 38.6595 47.4918 38.6364 47.5072C38.5823 47.5691 38.5282 47.6386 38.4741 47.7004C38.4586 47.7159 38.4432 47.7313 38.4277 47.7468C38.25 47.9477 38.0645 48.1409 37.8636 48.3186C37.8482 48.3341 37.8327 48.3495 37.8173 48.365C37.7555 48.4268 37.6859 48.4809 37.6241 48.535C37.6241 48.535 37.6164 48.535 37.6086 48.5427C37.3923 48.7282 37.1682 48.8982 36.9441 49.0527H36.9286C36.4573 49.385 35.9705 49.6554 35.4605 49.8718C34.4482 50.3045 33.32 50.5363 32.1918 50.5363C29.4873 50.5363 27.0918 49.3232 25.6005 47.3527C25.0209 46.58 24.5727 45.6913 24.3023 44.7177C24.2945 44.6868 24.2868 44.6559 24.2791 44.625C24.225 44.4318 24.1786 44.2309 24.14 44.03C24.1245 43.9527 24.1091 43.8832 24.0936 43.8059C24.0627 43.6204 24.0318 43.435 24.0009 43.2495C23.9932 43.1877 23.9855 43.1259 23.9777 43.0563C23.9468 42.7936 23.9159 42.5309 23.9005 42.2604C23.885 41.99 23.8695 41.7041 23.8618 41.4259C23.8618 41.3795 23.8618 41.3254 23.8618 41.2791C23.8618 41.0086 23.8618 40.7304 23.8695 40.4522C23.8695 40.4368 23.8695 40.4291 23.8695 40.4136C23.9005 39.4554 24.0009 38.4432 24.1632 37.3613C19.0864 38.2422 21.2886 41.7891 14.8055 41.7891C7.42591 41.7891 7.395 37.1913 0.0695455 37.1682C0.0309091 37.485 0 37.8095 0 38.1341V54.8327C0.0309091 59.1445 3.50818 62.6295 7.81227 62.6759H60.18C64.5073 62.6295 68 59.1136 68 54.7786Z" fill="#FD6C5B"/>
<path d="M38.961 6.01179C39.4478 4.86043 41.1787 5.51725 40.7923 6.69952C40.3751 7.96679 37.0369 16.5363 36.6737 17.7572C33.2969 29.0932 33.6987 30.2909 36.2023 37.9177C37.431 41.6422 37.1064 45.1504 33.9923 46.4795C31.7514 47.4377 28.6142 46.4795 27.8569 43.7363C26.1028 37.3922 29.2787 29.8659 34.5642 16.7991C35.0123 15.6863 38.4433 7.20952 38.9533 6.01179H38.961Z" fill="#48495B"/>
<path d="M16.7605 55.4972C16.4978 56.8418 14.4655 57.5759 12.2246 57.1354C9.98371 56.695 8.38417 55.25 8.6469 53.9054C8.90962 52.5609 10.9419 51.8268 13.1828 52.2672C15.4237 52.7077 17.0233 54.1527 16.7605 55.4972Z" fill="#FFC39D"/>
<path d="M62.4905 50.7759C62.8151 51.9736 61.5942 53.3413 59.7628 53.8282C57.9392 54.3227 56.1928 53.7432 55.876 52.5532C55.5514 51.3554 56.7723 49.9877 58.6037 49.5009C60.4351 49.0141 62.1737 49.5859 62.4905 50.7759Z" fill="#FFC39D"/>
<path d="M36.7063 57.2983C37.3251 56.2265 36.4995 54.5913 34.8622 53.646C33.2249 52.7007 31.396 52.8033 30.7772 53.8751C30.1584 54.9469 30.984 56.5821 32.6213 57.5274C34.2586 58.4726 36.0875 58.3701 36.7063 57.2983Z" fill="#FFC39D"/>
</g>
<defs>
<clipPath id="clip0_558_2417">
<rect width="68" height="68" fill="white"/>
</clipPath>
</defs>
</svg>
