<svg width="48" height="48" viewBox="0 0 48 48" fill="none" xmlns="http://www.w3.org/2000/svg">
<g clip-path="url(#clip0_276_1861)">
<path d="M37.8776 10.2082L37.8491 10.2368C39.9022 13.3734 41.1093 17.1183 41.1093 21.1484C41.1093 32.1742 32.1747 41.1088 21.1489 41.1088C17.1093 41.1088 13.3644 39.9017 10.2182 37.8391L10.1992 37.8581C10.2943 38.0007 10.3893 38.1433 10.4844 38.2764C14.0962 43.428 20.0749 46.8023 26.8519 46.8023C37.8776 46.8023 46.8123 37.8676 46.8123 26.8419C46.8123 19.8938 43.2669 13.7726 37.8776 10.1987V10.2082Z" fill="#3C5DF6"/>
<path d="M21.1479 41.109C32.1717 41.109 41.1083 32.1725 41.1083 21.1486C41.1083 10.1248 32.1717 1.18823 21.1479 1.18823C10.1241 1.18823 1.1875 10.1248 1.1875 21.1486C1.1875 32.1725 10.1241 41.109 21.1479 41.109Z" fill="white"/>
<path d="M21.1485 42.297C9.48594 42.297 0 32.8111 0 21.1485C0 9.48594 9.48594 0 21.1485 0C32.8111 0 42.297 9.48594 42.297 21.1485C42.297 32.8111 32.8111 42.297 21.1485 42.297ZM21.1485 2.37624C10.7976 2.37624 2.37624 10.7976 2.37624 21.1485C2.37624 31.4994 10.7976 39.9208 21.1485 39.9208C31.4994 39.9208 39.9208 31.4994 39.9208 21.1485C39.9208 10.7976 31.4994 2.37624 21.1485 2.37624Z" fill="black"/>
<path d="M16.5188 27.8781C15.6253 27.8781 14.8459 27.3458 14.5227 26.4999L10.4641 15.8639C10.2265 15.2555 10.5402 14.5617 11.1485 14.3336C11.7568 14.1054 12.4507 14.4096 12.6788 15.0179L16.4808 24.9886L19.2182 15.3601C19.4843 14.4381 20.3017 13.8203 21.2522 13.8108C22.2408 13.8108 23.0392 14.4096 23.3148 15.3221L26.2328 24.8841L29.5786 15.0654C29.7877 14.4476 30.4625 14.1149 31.0899 14.3241C31.7077 14.5332 32.0404 15.208 31.8313 15.8353L28.2479 26.3573C27.9437 27.2413 27.1168 27.8021 26.1853 27.8021C25.2538 27.7831 24.4459 27.1748 24.1798 26.2908L21.2808 16.7953L18.5623 26.3383C18.3057 27.2413 17.5358 27.8496 16.5948 27.8876C16.5663 27.8876 16.5283 27.8876 16.4998 27.8876L16.5188 27.8781Z" fill="black"/>
<path d="M32.5544 21.5383H9.74256C9.08672 21.5383 8.55444 21.0061 8.55444 20.3502C8.55444 19.6944 9.08672 19.1621 9.74256 19.1621H32.5544C33.2103 19.1621 33.7426 19.6944 33.7426 20.3502C33.7426 21.0061 33.2103 21.5383 32.5544 21.5383Z" fill="black"/>
<path d="M26.8515 48C19.9509 48 13.4685 44.6257 9.51446 38.9608C9.4099 38.8182 9.31485 38.6661 9.2103 38.5141C8.84911 37.9628 9.00119 37.2309 9.54297 36.8697C10.0943 36.5085 10.8261 36.6606 11.1873 37.2024C11.2729 37.3354 11.3584 37.4685 11.4535 37.5921C14.9703 42.6202 20.7208 45.6143 26.8515 45.6143C37.2024 45.6143 45.6238 37.1929 45.6238 26.842C45.6238 20.5307 42.4871 14.6852 37.2214 11.1873C36.6701 10.8261 36.5275 10.0848 36.8887 9.54297C37.2499 9.00119 37.9913 8.84911 38.5331 9.2103C44.4642 13.1453 48 19.7323 48 26.842C48 38.5046 38.5141 47.9905 26.8515 47.9905V48Z" fill="black"/>
</g>
<defs>
<clipPath id="clip0_276_1861">
<rect width="48" height="48" fill="white"/>
</clipPath>
</defs>
</svg>
