<svg width="48" height="48" viewBox="0 0 48 48" fill="none" xmlns="http://www.w3.org/2000/svg">
<g clip-path="url(#clip0_276_1877)">
<path d="M28.1723 34.2884L23.9996 31.1162L19.8269 34.2884C19.1996 34.7619 18.2966 34.3168 18.2966 33.5309V11.7799C18.2966 10.7382 19.1521 9.88599 20.1976 9.88599H27.8016C28.8471 9.88599 29.7026 10.7382 29.7026 11.7799V33.5404C29.7026 34.3263 28.7996 34.7714 28.1723 34.2979V34.2884Z" fill="#FFDC32"/>
<path d="M34.9686 1.95061L28.5433 6.08871C28.1441 5.61524 27.5548 5.31222 26.8894 5.31222H21.1579C20.5116 5.31222 19.9318 5.60577 19.5326 6.05083L13.1548 1.95061C9.71397 -7.01527e-05 6.20664 1.74229 5.5603 7.22502V11.4105C6.55832 10.9275 7.6704 10.6529 8.84902 10.6529H39.2649C40.4815 10.6529 41.6126 10.9465 42.6296 11.4483V8.11514C42.2779 1.93167 38.5805 -0.0852942 34.9591 1.95061H34.9686Z" fill="#3C5DF6"/>
<path d="M29.7024 10.8328H39.2073C43.4085 10.8328 46.8113 14.2228 46.8113 18.4082V39.2407C46.8113 43.4262 43.4085 46.8162 39.2073 46.8162H8.79146C4.59027 46.8162 1.1875 43.4262 1.1875 39.2407V18.4082C1.1875 14.2228 4.59027 10.8328 8.79146 10.8328H18.2964" fill="white"/>
<path d="M39.2079 47.9999H8.79208C3.94455 47.9999 0 44.0702 0 39.2408V18.4083C0 13.5789 3.94455 9.64917 8.79208 9.64917H18.297V12.0165H8.79208C5.25624 12.0165 2.37624 14.8857 2.37624 18.4083V39.2408C2.37624 42.7634 5.25624 45.6326 8.79208 45.6326H39.2079C42.7438 45.6326 45.6238 42.7634 45.6238 39.2408V18.4083C45.6238 14.8857 42.7438 12.0165 39.2079 12.0165H29.703V9.64917H39.2079C44.0554 9.64917 48 13.5789 48 18.4083V39.2408C48 44.0702 44.0554 47.9999 39.2079 47.9999Z" fill="black"/>
<path d="M28.1725 34.2882L23.9998 31.116L19.8272 34.2882C19.1998 34.7617 18.2969 34.3166 18.2969 33.5306V11.7796C18.2969 10.738 19.1523 9.88574 20.1979 9.88574H27.8018C28.8474 9.88574 29.7028 10.738 29.7028 11.7796V33.5401C29.7028 34.3261 28.7998 34.7711 28.1725 34.2977V34.2882Z" fill="#3C5DF6"/>
<path d="M19.248 35.6708C18.9248 35.6708 18.6017 35.595 18.2975 35.4435C17.5656 35.0837 17.1094 34.3451 17.1094 33.5307V11.7797C17.1094 10.0847 18.4971 8.70215 20.1985 8.70215H27.8024C29.5038 8.70215 30.8916 10.0847 30.8916 11.7797V33.5402C30.8916 34.3545 30.4353 35.0837 29.7034 35.453C28.9716 35.8128 28.1066 35.7276 27.4603 35.2352L24.0005 32.6122L20.5407 35.2352C20.1605 35.5287 19.7042 35.6708 19.248 35.6708V35.6708ZM20.1985 11.0695C19.8088 11.0695 19.4856 11.3914 19.4856 11.7797V33.0667L24.0005 29.6388L28.5153 33.0667V11.7797C28.5153 11.3914 28.1921 11.0695 27.8024 11.0695H20.1985V11.0695Z" fill="black"/>
<path d="M18.2964 25.7471H1.1875V28.1144H18.2964V25.7471Z" fill="black"/>
<path d="M46.812 25.7471H29.7031V28.1144H46.812V25.7471Z" fill="black"/>
<path d="M25.1887 31.1919H22.8125V46.6553H25.1887V31.1919Z" fill="black"/>
<path d="M6.63405 11.5904H4.25781V9.05258C4.25781 4.99971 5.52197 2.02635 7.82217 0.691171C9.55207 -0.312577 11.7097 -0.236823 13.7438 0.908966L20.4543 5.23645L19.1616 7.225L12.5081 2.94487C11.2725 2.25361 10.0083 2.16839 9.01979 2.74601C7.50851 3.62666 6.63405 5.92771 6.63405 9.06205V11.5998V11.5904Z" fill="black"/>
<path d="M43.8563 11.5902H41.4801V9.05246C41.4801 5.91812 40.6151 3.61707 39.0944 2.73642C38.0963 2.1588 36.8417 2.24402 35.5395 2.97316L28.9431 7.22488L27.6504 5.23633L34.3039 0.946722C36.3949 -0.236944 38.5526 -0.312698 40.2825 0.69105C42.5827 2.02622 43.8468 4.99012 43.8468 9.05246V11.5902H43.8563Z" fill="black"/>
<path d="M30.2444 10.2645H27.8682V7.48056C27.8682 6.94081 27.431 6.49575 26.8797 6.49575H21.1482C20.6064 6.49575 20.1597 6.93134 20.1597 7.48056V10.2645H17.7834V7.48056C17.7834 5.63404 19.2947 4.12842 21.1482 4.12842H26.8797C28.7332 4.12842 30.2444 5.63404 30.2444 7.48056V10.2645Z" fill="black"/>
</g>
<defs>
<clipPath id="clip0_276_1877">
<rect width="48" height="48" fill="white"/>
</clipPath>
</defs>
</svg>
