<svg width="14" height="14" viewBox="0 0 14 14" fill="none" xmlns="http://www.w3.org/2000/svg">
<path d="M1.06338 6.06457C0.661859 6.44378 0.643775 7.07669 1.02299 7.47821C1.4022 7.87973 2.03511 7.89781 2.43662 7.5186L1.06338 6.06457ZM7 1.83325L7.68662 1.10624C7.30123 0.742256 6.69877 0.742256 6.31338 1.10624L7 1.83325ZM11.5634 7.5186C11.9649 7.89781 12.5978 7.87973 12.977 7.47821C13.3562 7.07669 13.3381 6.44378 12.9366 6.06457L11.5634 7.5186ZM1.06338 11.7312C0.661858 12.1105 0.643775 12.7434 1.02299 13.1449C1.4022 13.5464 2.03511 13.5645 2.43662 13.1853L1.06338 11.7312ZM7 7.49992L7.68662 6.77291C7.30123 6.40892 6.69877 6.40892 6.31338 6.77291L7 7.49992ZM11.5634 13.1853C11.9649 13.5645 12.5978 13.5464 12.977 13.1449C13.3562 12.7434 13.3381 12.1105 12.9366 11.7312L11.5634 13.1853ZM2.43662 7.5186L7.68662 2.56026L6.31338 1.10624L1.06338 6.06457L2.43662 7.5186ZM6.31338 2.56026L11.5634 7.5186L12.9366 6.06457L7.68662 1.10624L6.31338 2.56026ZM2.43662 13.1853L7.68662 8.22693L6.31338 6.77291L1.06338 11.7312L2.43662 13.1853ZM6.31338 8.22693L11.5634 13.1853L12.9366 11.7312L7.68662 6.77291L6.31338 8.22693Z" fill="#B0B0B0"/>
</svg>
