<svg width="80" height="80" viewBox="0 0 80 80" fill="none" xmlns="http://www.w3.org/2000/svg">
<path d="M22.08 50.17V48.79L20.87 49V50.4L22.08 50.17Z" fill="#2E9F7C"/>
<path d="M74.56 40L74.48 42.28C74.53 41.53 74.56 40.77 74.56 40Z" fill="#2E9F7C"/>
<path d="M18.24 49.4399L16.38 49.7499V51.2699L18.24 50.9099V49.4399Z" fill="#2E9F7C"/>
<path d="M54.03 53.5501V54.5101L55.43 53.5201V52.6201L54.03 53.5501Z" fill="#2E9F7C"/>
<path d="M49.27 49.6301L49.3 50.3901L49.57 50.2801L49.35 49.6001L49.27 49.6301Z" fill="#2E9F7C"/>
<path d="M58.06 50.89V51.66L59.4 50.71V50L58.06 50.89Z" fill="#2E9F7C"/>
<path d="M40.17 46.66L40.37 45.73L37.17 46.27C37.25 46.55 37.3 46.87 37.32 47.22L40.17 46.67V46.66Z" fill="#2E9F7C"/>
<path d="M45.26 51.1502L45.44 51.9802L47.01 51.3302V50.4902L45.26 51.1502Z" fill="#2E9F7C"/>
<path d="M24.71 49.2598H25.61C26.31 49.2598 26.51 48.6698 26.54 48.0498L24.71 48.3598V49.2698V49.2598Z" fill="#2E9F7C"/>
<path d="M47.01 45.3401V44.6201L43.95 45.1301L44.11 45.9001L47.01 45.3401Z" fill="#2E9F7C"/>
<path d="M51.73 49.3902L51.7 48.7002L51.14 48.9102L51.35 49.5502L51.73 49.3902Z" fill="#2E9F7C"/>
<path d="M55.43 47.8698V47.2798L54.03 47.8198V48.4398L55.43 47.8698Z" fill="#2E9F7C"/>
<path d="M62.03 48.2698V48.8598L63.87 47.5598C63.87 47.3898 63.85 47.2298 63.82 47.0898L62.03 48.2698V48.2698Z" fill="#2E9F7C"/>
<path d="M30.25 48.5899V47.7999C30.25 47.6699 30.27 47.5499 30.27 47.4199L29.14 47.6099C29.14 48.0699 29.09 48.4699 28.98 48.8299L30.25 48.5799V48.5899Z" fill="#2E9F7C"/>
<path d="M59.65 46.1301C59.72 45.9301 59.8 45.7501 59.9 45.5801L58.06 46.2801V46.7901L59.65 46.1301V46.1301Z" fill="#2E9F7C"/>
<path d="M66.21 45.9L74.56 40L66.06 45.61C66.12 45.7 66.17 45.8 66.21 45.9Z" fill="#2E9F7C"/>
<path d="M63.37 53.8499L63.8 53.3199C63.9 53.0199 63.92 52.6499 63.92 52.3399V52.1099L62.42 53.8199C62.56 53.8999 62.72 53.9499 62.95 53.9499C63.12 53.9499 63.25 53.9099 63.37 53.8499V53.8499Z" fill="#2E9F7C"/>
<path d="M65.41 51.32L74.56 40L64.61 51.32H65.41Z" fill="#2E9F7C"/>
<path d="M34.72 47.6899C34.72 47.2599 34.69 46.9299 34.59 46.6899L32.91 46.9699C32.89 47.0999 32.88 47.2399 32.88 47.3999V48.0699L34.72 47.7099V47.6799V47.6899Z" fill="#2E9F7C"/>
<path d="M49.71 44.5L49.81 44.8L74.56 40L47.72 44.5H49.71Z" fill="#2E9F7C"/>
<path d="M64.02 44.33L74.56 40L63.38 44.26C63.6 44.27 63.82 44.3 64.02 44.34V44.33Z" fill="#2E9F7C"/>
<path d="M60.89 55.5701L44.46 74.2701C45.41 74.1501 46.35 73.9901 47.27 73.7901L61.75 55.8601C61.42 55.7901 61.14 55.6901 60.89 55.5601V55.5701Z" fill="#2E9F7C"/>
<path d="M37.4 54.1399V55.2799L38.37 54.8799L38.64 53.6699L37.4 54.1399Z" fill="#2E9F7C"/>
<path d="M35.61 55.7099L35.51 54.8599L35.33 54.9299C34.82 55.7099 34.24 55.9699 33.2 55.9699C33.03 55.9699 32.88 55.9399 32.73 55.9299L14.2 62.9799C14.61 63.4399 15.02 63.8799 15.45 64.3199L36.36 55.7199H35.62L35.61 55.7099Z" fill="#2E9F7C"/>
<path d="M13.75 50.1899L7.32999 51.2699C7.51999 51.8199 7.71999 52.3699 7.93999 52.9099L13.75 51.7799V50.1899V50.1899Z" fill="#2E9F7C"/>
<path d="M51.34 55.7001L51.24 55.3901L26.4 71.7801C27.07 72.0701 27.76 72.3301 28.45 72.5801L52.34 55.7001H51.34Z" fill="#2E9F7C"/>
<path d="M41.12 53.75L41.69 53.52H41.15L41.12 53.75Z" fill="#2E9F7C"/>
<path d="M33.89 46.24C33.25 46.23 32.99 46.5 32.91 46.97L34.59 46.69C34.48 46.4 34.28 46.24 33.89 46.24V46.24Z" fill="#008052"/>
<path d="M13.75 50.1902V47.5702C13.75 45.4202 15.03 44.2202 17.33 44.2202C19.63 44.2202 20.87 45.4102 20.87 47.5702V48.9902L22.08 48.7902V44.4902H25.92C28.07 44.4902 29.15 45.3602 29.15 47.5802V47.6002L30.28 47.4102C30.4 45.2502 31.51 44.2202 33.78 44.2202C35.57 44.2202 36.77 44.8402 37.18 46.2602L40.38 45.7202L40.65 44.4902H43.82L43.96 45.1202L47.02 44.6102V44.4902H47.74L74.58 39.9902H5.44C5.44 43.9402 6.11 47.7202 7.33 51.2602L13.75 50.1802V50.1902Z" fill="#008052"/>
<path d="M24.71 46.51V48.35L26.54 48.04C26.54 47.98 26.54 47.92 26.54 47.87C26.54 46.54 25.99 46.48 24.7 46.51H24.71Z" fill="#008052"/>
<path d="M18.24 47.7502C18.24 47.0602 18.18 46.2402 17.31 46.2402C16.44 46.2402 16.37 47.0602 16.37 47.7502V49.7502L18.24 49.4402V47.7602V47.7502Z" fill="#008052"/>
<path d="M35.46 54.71C35.42 54.79 35.37 54.86 35.32 54.93L35.5 54.86L35.48 54.71H35.45H35.46Z" fill="#008052"/>
<path d="M42.96 51.5498L42.23 46.5298H42.2L41.44 51.5498H42.96Z" fill="#008052"/>
<path d="M33.85 53.9502C34.75 53.9502 34.78 53.2302 34.78 52.5202V51.6402H33.84V49.6202H37.41V54.1402L38.64 53.6702L40.17 46.6602L37.32 47.2102C37.32 47.3002 37.34 47.3702 37.34 47.4602V48.3002H34.71V47.7102L32.87 48.0702V52.9402C32.87 53.5702 33.15 53.9402 33.84 53.9402L33.85 53.9502Z" fill="#008052"/>
<path d="M49.29 49.4302L49.26 49.4602L49.27 49.6302L49.35 49.6002L49.29 49.4302Z" fill="#008052"/>
<path d="M47.01 50.4898V45.3398L44.11 45.8998L45.26 51.1498L47.01 50.4898Z" fill="#008052"/>
<path d="M51.14 48.9098L51.7 48.6998L51.53 44.4998H54.02V47.8198L55.42 47.2898V44.5098H58.05V46.2898L59.89 45.5898C60.43 44.6798 61.43 44.2398 62.92 44.2398C63.08 44.2398 63.22 44.2598 63.37 44.2698L74.55 40.0098L49.8 44.8098L51.14 48.9298V48.9098Z" fill="#008052"/>
<path d="M30.25 52.3998V48.5898L28.98 48.8398C28.79 49.3998 28.43 49.8398 27.76 50.1498V50.1798C28.49 50.3398 29.01 50.8498 29.06 51.6298C29.13 52.5298 29.15 54.4498 29.3 55.1698C29.36 55.3198 29.43 55.4498 29.55 55.5598V55.7098H26.68C26.6 55.4998 26.55 55.2898 26.53 55.0698C26.48 54.0898 26.54 53.1598 26.47 52.4698C26.39 51.7798 26.19 51.3398 25.57 51.2898H24.7V55.7098H22.07V50.1798L20.86 50.4098V52.1398C20.86 54.6598 19.98 55.9798 17.32 55.9798C14.66 55.9798 13.74 54.6698 13.74 52.1398V51.7898L7.92999 52.9198C9.42999 56.6398 11.55 60.0398 14.18 62.9898L32.71 55.9398C30.87 55.7298 30.24 54.2898 30.24 52.4098L30.25 52.3998Z" fill="#008052"/>
<path d="M17.33 53.9502C18.18 53.9502 18.24 52.9902 18.24 52.3502V50.9102L16.37 51.2702V52.3502C16.37 52.9902 16.48 53.9502 17.33 53.9502Z" fill="#008052"/>
<path d="M59.4 49.9999V47.7999C59.4 47.1499 59.49 46.5999 59.65 46.1299L58.06 46.7899V50.8899L59.4 49.9999V49.9999Z" fill="#008052"/>
<path d="M55.43 52.6201V47.8701L54.03 48.4401V53.5501L55.43 52.6201Z" fill="#008052"/>
<path d="M49.57 50.2798L49.3 50.3898L49.5 55.6998H47.01V51.3298L45.44 51.9798L46.25 55.6998H43.59L43.22 53.5198H41.69L41.12 53.7498L40.84 55.6998H38.2L38.38 54.8798L37.41 55.2798V55.7098H36.35L15.44 64.3098C18.55 67.4598 22.27 70.0098 26.4 71.7798L51.24 55.3898L49.57 50.2798Z" fill="#008052"/>
<path d="M51.78 50.7501L51.73 49.3901L51.35 49.5501L51.74 50.7501H51.78Z" fill="#008052"/>
<path d="M63.04 46.2399C62.22 46.2299 62.03 46.6699 62.03 47.4099V48.2699L63.82 47.0899C63.7 46.5399 63.42 46.2499 63.04 46.2499V46.2399Z" fill="#008052"/>
<path d="M66.06 45.61L74.56 40L64.02 44.33C64.95 44.5 65.64 44.91 66.06 45.61V45.61Z" fill="#008052"/>
<path d="M59.4 52.4V50.71L58.06 51.66V55.7H55.43V53.52L54.03 54.51V55.7H52.34L28.45 72.58C32.06 73.86 35.95 74.56 40 74.56C41.51 74.56 43 74.45 44.46 74.26L60.89 55.56C59.85 55.02 59.41 53.94 59.41 52.39L59.4 52.4Z" fill="#008052"/>
<path d="M66.51 47.4698V48.4098H63.88V47.6898C63.88 47.6398 63.87 47.5998 63.87 47.5498L62.03 48.8498V52.9498C62.02 53.3698 62.15 53.6598 62.43 53.8198L63.93 52.1098V51.3298H64.62L74.57 40.0098L66.22 45.9098C66.41 46.3398 66.52 46.8598 66.52 47.4798L66.51 47.4698Z" fill="#008052"/>
<path d="M63.8 53.3198L63.37 53.8498C63.59 53.7398 63.72 53.5498 63.8 53.3198Z" fill="#008052"/>
<path d="M66.55 51.32V52.69C66.55 54.62 65.45 55.96 62.76 55.96C62.38 55.96 62.05 55.92 61.75 55.86L47.27 73.79C62.15 70.61 73.47 57.85 74.48 42.28L74.56 40L65.41 51.32H66.55V51.32Z" fill="#008052"/>
<path d="M68.28 68.28C75.83 60.73 80 50.68 80 40C80 29.32 75.84 19.27 68.28 11.72C60.73 4.16 50.68 0 40 0C17.94 0 0 17.94 0 40C0 50.68 4.16 60.73 11.72 68.28C19.28 75.84 29.32 80 40 80C50.68 80 60.73 75.84 68.28 68.28ZM3.2 40C3.2 19.71 19.71 3.2 40 3.2C60.29 3.2 76.8 19.71 76.8 40C76.8 60.29 60.29 76.8 40 76.8C19.71 76.8 3.2 60.29 3.2 40Z" fill="#773B00"/>
<path d="M24.09 36.1499C27.67 36.1499 28.81 34.1999 28.81 31.6699V20.8599H25.31V32.0299C25.31 32.6699 25.03 33.4599 24.12 33.4599C23.12 33.4599 22.91 32.8399 22.91 32.1299V20.8599H19.41V31.6699C19.41 34.7399 21.14 36.1499 24.11 36.1499H24.09Z" fill="#008052"/>
<path d="M34.5 36.15C37.41 36.15 39 34.56 39 31.69C39 29.88 38.52 28.88 37.71 28.13C36.89 27.37 35.76 26.86 34.44 26.02C33.74 25.54 33.29 25.08 33.38 24.19C33.46 23.53 33.88 23.13 34.59 23.19C35.75 23.27 35.71 24.46 35.75 25.34H38.98C39.14 22.53 37.59 20.5 34.54 20.5C31.83 20.5 30.14 21.93 30.14 24.74C30.14 26.05 30.52 26.97 31.16 27.73C31.82 28.49 32.73 29.06 33.81 29.68C34.73 30.24 35.76 30.72 35.76 31.97C35.76 32.73 35.4 33.46 34.59 33.46C33.48 33.46 33.2 32.7 33.2 31.85V30.79H29.95V32.38C29.95 34.35 31.3 36.14 34.51 36.14L34.5 36.15Z" fill="#008052"/>
<path d="M48.32 35.0901C49.34 34.4501 49.79 33.3601 49.81 31.8601V25.2301C49.81 23.8001 49.59 22.3401 48.24 21.5501C47.11 20.8901 45.57 20.8501 44.3 20.8501H40.5V35.7801H45.22C46.3 35.7801 47.41 35.6801 48.33 35.0801L48.32 35.0901ZM44 33.1001V23.5401C45.71 23.5801 46.29 23.6801 46.31 25.4301V30.3101C46.37 32.3001 46.35 33.2601 44 33.1001Z" fill="#008052"/>
<path d="M54.77 32.8799H57.52L58.02 35.7899H61.56L58.31 20.8599H54.09L50.82 35.7899H54.34L54.76 32.8799H54.77ZM56.16 23.5599H56.2L57.18 30.2499H55.15L56.17 23.5599H56.16Z" fill="#008052"/>
<path d="M16.38 51.27V49.75L13.75 50.19V51.78L16.38 51.27Z" fill="white"/>
<path d="M18.24 50.91L20.87 50.4V49L18.24 49.44V50.91Z" fill="white"/>
<path d="M16.38 47.7502C16.38 47.0602 16.49 46.2402 17.32 46.2402C18.15 46.2402 18.25 47.0602 18.25 47.7502V49.4302L20.88 48.9902V47.5702C20.88 45.4202 19.64 44.2202 17.34 44.2202C15.04 44.2202 13.76 45.4102 13.76 47.5702V50.1902L16.39 49.7502V47.7502H16.38Z" fill="white"/>
<path d="M18.24 52.3499C18.24 52.9899 18.18 53.9499 17.33 53.9499C16.48 53.9499 16.37 52.9899 16.37 52.3499V51.2699L13.74 51.7799V52.1299C13.74 54.6499 14.67 55.9699 17.32 55.9699C19.97 55.9699 20.86 54.6599 20.86 52.1299V50.3999L18.23 50.9099V52.3499H18.24Z" fill="white"/>
<path d="M28.98 48.8299C29.1 48.4699 29.14 48.0699 29.14 47.6099L26.54 48.0499C26.51 48.6799 26.3 49.2599 25.61 49.2599H24.71V48.3499L22.08 48.7899V50.1599L28.98 48.8199V48.8299Z" fill="white"/>
<path d="M24.71 46.5102C25.99 46.4802 26.55 46.5402 26.55 47.8702C26.55 47.9302 26.55 47.9902 26.55 48.0402L29.15 47.6002V47.5802C29.15 45.3602 28.08 44.4902 25.93 44.4902H22.09V48.7902L24.72 48.3502V46.5102H24.71Z" fill="white"/>
<path d="M22.08 55.7001H24.71V51.2801H25.58C26.19 51.3201 26.4 51.7701 26.48 52.4601C26.55 53.1501 26.49 54.0701 26.54 55.0601C26.55 55.2801 26.61 55.4901 26.69 55.7001H29.56V55.5501C29.44 55.4501 29.37 55.3101 29.31 55.1601C29.16 54.4401 29.15 52.5201 29.07 51.6201C29.03 50.8401 28.5 50.3401 27.77 50.1701V50.1401C28.44 49.8301 28.81 49.3901 28.99 48.8301L22.09 50.1701V55.7001H22.08Z" fill="white"/>
<path d="M35.51 54.8601L35.61 55.7101H36.35L37.4 55.2801V54.1401L35.51 54.8601Z" fill="white"/>
<path d="M30.25 48.59L32.88 48.08V47.41C32.88 47.25 32.89 47.11 32.91 46.98L30.27 47.42C30.27 47.55 30.25 47.66 30.25 47.8V48.59V48.59Z" fill="white"/>
<path d="M34.72 47.6898V47.7198L37.33 47.2098C37.31 46.8598 37.26 46.5398 37.18 46.2598L34.6 46.6898C34.69 46.9298 34.73 47.2498 34.73 47.6898H34.72Z" fill="white"/>
<path d="M33.19 55.9702C34.23 55.9702 34.82 55.7102 35.32 54.9302L32.71 55.9202C32.86 55.9402 33.01 55.9602 33.18 55.9602L33.19 55.9702Z" fill="white"/>
<path d="M33.89 46.2402C34.27 46.2402 34.47 46.4102 34.59 46.6902L37.17 46.2602C36.76 44.8502 35.56 44.2202 33.77 44.2202C31.5 44.2202 30.39 45.2502 30.27 47.4102L32.91 46.9702C32.99 46.5002 33.25 46.2202 33.89 46.2402V46.2402Z" fill="white"/>
<path d="M37.34 48.3102V47.4702C37.34 47.3802 37.32 47.3002 37.32 47.2202L34.71 47.7302V48.3202H37.34V48.3102Z" fill="white"/>
<path d="M37.4 49.6201H33.83V51.6401H34.77V52.5201C34.77 53.2401 34.74 53.9501 33.84 53.9501C33.15 53.9501 32.87 53.5801 32.87 52.9501V48.0801L30.24 48.5901V52.4001C30.24 54.2701 30.87 55.7101 32.71 55.9301L35.32 54.9401C35.37 54.8701 35.41 54.8001 35.46 54.7201H35.49L35.51 54.8701L37.4 54.1501V49.6301V49.6201Z" fill="white"/>
<path d="M37.4 55.7098V55.2798L36.35 55.7098H37.4Z" fill="white"/>
<path d="M38.64 53.6699L38.37 54.8799L41.12 53.7499L41.15 53.5199H41.69L45.44 51.9799L45.26 51.1499L38.64 53.6699Z" fill="white"/>
<path d="M44.11 45.8999L43.95 45.1299L40.38 45.7299L40.17 46.6599L44.11 45.8999Z" fill="white"/>
<path d="M43.81 44.5H40.65L40.38 45.73L43.95 45.13L43.81 44.5Z" fill="white"/>
<path d="M45.26 51.1499L44.12 45.8999L40.18 46.6599L38.65 53.6699L45.27 51.1499H45.26ZM42.23 46.5299L42.96 51.5499H41.44L42.2 46.5299H42.23V46.5299Z" fill="white"/>
<path d="M43.21 53.52L43.59 55.7H46.24L45.44 51.98L41.69 53.52H43.21Z" fill="white"/>
<path d="M38.2 55.7H40.84L41.12 53.75L38.37 54.88L38.2 55.7Z" fill="white"/>
<path d="M49.57 50.2802L51.35 49.5502L51.14 48.9102L49.35 49.6002L49.57 50.2802Z" fill="white"/>
<path d="M51.24 55.3898L51.34 55.6998H52.34L54.03 54.5098V53.5498L51.24 55.3898Z" fill="white"/>
<path d="M49.81 44.8L49.71 44.5H47.72L47.01 44.62V45.34L49.81 44.8Z" fill="white"/>
<path d="M54.03 48.4398V47.8198L51.7 48.6998L51.73 49.3898L54.03 48.4398Z" fill="white"/>
<path d="M47.01 50.4899V51.3299L49.3 50.3899L49.27 49.6299L47.01 50.4899Z" fill="white"/>
<path d="M47.01 44.5V44.62L47.72 44.5H47.01Z" fill="white"/>
<path d="M47.01 50.4898L49.27 49.6298L49.26 49.4598L49.29 49.4298L49.35 49.5998L51.14 48.9098L49.81 44.7998L47.01 45.3398V50.4898Z" fill="white"/>
<path d="M54.03 44.5H51.53L51.7 48.7L54.03 47.82V44.5Z" fill="white"/>
<path d="M47.01 55.7001H49.5L49.3 50.3901L47.01 51.3301V55.7001Z" fill="white"/>
<path d="M54.03 48.4399L51.73 49.3899L51.78 50.7499H51.74L51.35 49.5499L49.57 50.2799L51.24 55.3899L54.03 53.5499V48.4399Z" fill="white"/>
<path d="M54.03 55.6998V54.5098L52.34 55.6998H54.03Z" fill="white"/>
<path d="M55.43 52.6201V53.5201L58.06 51.6601V50.8901L55.43 52.6201Z" fill="white"/>
<path d="M58.06 46.7898V46.2798L55.43 47.2798V47.8698L58.06 46.7898Z" fill="white"/>
<path d="M58.06 44.5H55.43V47.28L58.06 46.28V44.5Z" fill="white"/>
<path d="M58.06 50.89V46.79L55.43 47.87V52.62L58.06 50.89Z" fill="white"/>
<path d="M55.43 55.7002H58.06V51.6602L55.43 53.5202V55.7002Z" fill="white"/>
<path d="M64.02 44.33C63.82 44.29 63.6 44.27 63.38 44.25L59.9 45.58C59.8 45.75 59.72 45.93 59.65 46.13L64.02 44.33Z" fill="white"/>
<path d="M59.4 50V50.71L62.03 48.86V48.27L59.4 50Z" fill="white"/>
<path d="M61.75 55.8598L63.38 53.8498C63.26 53.9098 63.13 53.9498 62.96 53.9498C62.73 53.9498 62.57 53.8898 62.43 53.8198L60.89 55.5698C61.14 55.6998 61.43 55.7998 61.75 55.8698V55.8598Z" fill="white"/>
<path d="M63.87 47.5501L66.21 45.8901C66.16 45.7901 66.11 45.6901 66.06 45.6001L63.82 47.0701C63.85 47.2101 63.86 47.3701 63.87 47.5401V47.5501Z" fill="white"/>
<path d="M63.8 53.3198L65.41 51.3198H64.61L63.92 52.0998V52.3298C63.92 52.6398 63.9 53.0098 63.8 53.3098V53.3198Z" fill="white"/>
<path d="M62.93 44.2302C61.44 44.2302 60.44 44.6702 59.9 45.5802L63.38 44.2502C63.23 44.2502 63.09 44.2202 62.93 44.2202V44.2302Z" fill="white"/>
<path d="M59.4 47.8001V50.0001L62.03 48.2701V47.4101C62.03 46.6801 62.23 46.2301 63.05 46.2401C63.42 46.2401 63.71 46.5301 63.83 47.0801L66.07 45.6101C65.66 44.9201 64.96 44.5001 64.03 44.3301L59.66 46.1301C59.5 46.6001 59.41 47.1501 59.41 47.8001H59.4Z" fill="white"/>
<path d="M59.4 52.4001C59.4 53.9501 59.85 55.0301 60.88 55.5701L62.42 53.8201C62.14 53.6601 62.01 53.3701 62.01 52.9501V48.8501L59.4 50.7001V52.3901V52.4001Z" fill="white"/>
<path d="M63.93 51.3198V52.0998L64.61 51.3198H63.93Z" fill="white"/>
<path d="M63.88 47.6899V48.4099H66.51V47.4699C66.51 46.8499 66.4 46.3299 66.21 45.8999L63.87 47.5599C63.87 47.6099 63.88 47.6499 63.88 47.6999V47.6899Z" fill="white"/>
<path d="M63.37 53.8498L61.74 55.8598C62.05 55.9198 62.38 55.9598 62.75 55.9598C65.44 55.9598 66.54 54.6198 66.54 52.6898V51.3198H65.4L63.79 53.3198C63.71 53.5498 63.58 53.7398 63.36 53.8498H63.37Z" fill="white"/>
</svg>
