<svg width="85" height="80" viewBox="0 0 85 80" fill="none" xmlns="http://www.w3.org/2000/svg">
<g clip-path="url(#clip0_339_2217)">
<path d="M84.32 0H0V80H84.32V0Z" fill="white"/>
<path d="M80.96 5.51023C80.76 4.30023 79.6 3.29023 78.28 3.16023L77.94 3.19023L77.1 3.03023L76.45 3.23023L75.91 2.98023L74.76 3.27023L73.34 2.86023L72.53 3.31023L71.65 2.99023L70.86 3.21023L70.12 2.92023L69.26 3.18023L68.19 2.74023L67.69 3.18023L66.92 2.95023L66.13 3.11023L64.88 2.83023L62.75 3.37023L60.61 2.74023L58.4 3.25023L56.48 2.79023H54.62L53.31 3.00023L51.71 3.02023L51.09 3.29023L50.55 3.12023L49.39 3.09023L48.11 2.74023L46.81 3.10023L45.08 2.98023L43.29 2.74023L41.39 3.10023L39.43 2.74023L37.7 3.16023L35.78 2.75023L33.86 3.09023L31.94 3.19023L29.59 2.74023L27.62 3.20023L26.1 2.78023L24.52 3.11023L23.48 2.74023L22.43 3.11023L21.27 2.74023L19.77 3.07023L18.67 2.74023L17.62 2.99023L16.68 2.76023L16.15 3.04023L15.66 2.74023L15.14 3.07023L14.62 2.74023L13.67 2.96023L12.8 3.16023L11.97 2.90023L10.75 2.85023L9.20999 3.21023L8.21999 2.90023L6.50999 3.06023H6.01999C4.82999 3.14023 3.81999 4.07023 3.52999 5.23023L3.37999 6.26023L3.25999 8.39023L3.42999 9.63023L3.14999 10.8602L3.50999 13.3802L3.56999 15.0202L3.60999 15.6902L3.26999 16.6102L3.58999 17.1602L3.50999 17.6202L3.39999 18.5802L3.22999 19.7302L3.52999 20.4002L3.09999 21.0502L3.30999 21.6802L3.26999 23.9002L3.21999 24.5402L3.56999 25.0502L3.12999 27.0902L3.66999 29.2302L3.23999 30.1002L3.51999 32.0902L3.10999 34.2702L3.02999 36.1302L3.24999 37.8402L3.55999 38.3802L3.33999 39.3202L3.51999 40.6602L3.40999 43.4302L3.63999 45.0702L3.22999 46.2102L3.38999 46.8902L3.03999 48.5502L3.41999 49.7302L3.45999 50.3802L3.70999 52.6002L3.61999 52.7702L3.33999 53.4302L3.51999 54.1402L3.09999 54.8202L3.23999 55.4302L3.37999 56.3902L3.01999 57.2402L3.38999 59.2202L3.17999 61.3402L3.49999 61.8102L3.03999 62.2402L3.06999 62.8702L3.29999 64.1802L3.07999 64.9802L3.09999 66.7202L3.39999 67.1602L2.98999 68.1402L3.31999 69.1602L3.33999 70.0702L2.95999 70.7402L3.01999 71.5502L3.30999 72.5502L3.05999 73.3002L3.17999 74.5402L3.21999 74.7902C3.52999 75.9702 4.61999 76.9002 5.86999 76.9602H6.62999L7.94999 77.1302L9.04999 76.6602L10.2 77.2002L12.14 76.6602L13.59 77.1702L16.2 76.4902L18.13 77.0602L20.78 76.7802L22.19 76.8202L22.7 77.0402L24.25 76.7302L25.07 77.0502L25.85 76.4802L26.24 76.3302L26.82 76.5802L27.29 76.4402L27.86 76.7102L28.37 76.9202L29.4 76.9602L30.17 76.7002L30.64 76.4802L31.06 76.7902L31.5 76.5902L32.3 76.6502L33.25 76.5802L33.83 76.6602L35.82 77.0502L37.74 76.4602L39.66 77.0502L41.29 76.5402L43.21 77.0502L44.71 76.6502L45.44 76.5302L45.92 76.8402L46.63 76.5902H47.74L48.96 77.0602L50.06 76.8902L50.64 76.6102L51.39 76.8802L53.76 76.9202L55.95 76.4302L57.87 76.5702L59.79 77.0502L61.71 76.3302L63.11 76.7302L65.67 77.0502L67.74 76.5102L69.61 77.0502L71.33 76.4802L72.85 77.0502L74.06 76.7102L75.2 76.9202L76.07 76.8102L76.54 76.9402L77.05 76.7602L77.42 76.9802L77.92 76.9302L78.39 76.9502C80.59 76.9702 81.21 75.2902 81.28 74.0702V73.0102L81.42 69.6502L81.11 68.0602L81.42 66.6202L81.08 65.5602L81.03 64.6802L81.27 62.8602L80.95 61.8902L81.07 60.1302L81.27 58.5502L80.7 57.7902L80.95 56.8702L81.27 55.4902L80.85 53.4502L81.27 51.5402L80.98 50.0502L81.27 48.1602L81.05 46.7702L81.27 43.7102L81.08 42.6002L80.81 41.7402L81.28 40.0302L81.01 38.1602L81.28 36.1002L80.9 34.4302L81.28 32.4302L80.99 31.5102L81.27 29.5702L80.88 28.8202L81.27 26.8502L81.13 24.9102L81.08 23.8902L81.27 23.0702L80.9 22.4302L81.27 21.4402L80.93 21.1202L81.27 20.5402L80.88 19.4402L81.27 18.3402L81.15 16.1202L80.96 15.3602L81.15 14.5802L81 13.5602L81.26 11.8202L81.43 9.45023L81.05 6.59023L81.03 5.44023H81.02L80.96 5.51023ZM74.23 13.2802L74.02 14.2302L73.41 15.7102L73.93 17.3502L73.88 18.7502L73.5 19.7902L73.83 20.4502L73.96 21.1702L73.67 22.3202L73.92 23.4802L73.85 24.0602L74.04 24.6402L73.68 26.2602L73.91 27.7802L73.77 29.7202L73.38 30.9702L73.88 32.6902L73.4 33.2902L73.76 34.0002L73.42 35.3602L73.56 37.7302L73.76 40.1802L73.82 43.4202L73.37 44.2602L73.63 44.8302L73.41 45.6502L73.8 46.5602L73.39 48.2402V50.0902L73.27 52.0002L73.82 54.1802L73.47 55.1202L73.84 56.2702L73.4 57.0602L73.72 57.6702L73.49 58.4302L73.52 59.9002L73.44 60.6002C73.41 60.8802 73.72 61.7802 73.3 61.8602C73.2 61.8802 73.1 61.7802 73.03 61.7102C72.91 61.5702 72.44 61.0302 72.32 60.8802C70.53 58.7702 67.49 56.6002 64.22 55.5102C56.12 52.8102 48.39 54.7502 40.7 56.7602C31.21 59.2402 21.18 58.8702 13.98 51.4102C12.94 50.3302 12 49.1202 11.32 47.7802C11.22 47.5802 11.14 47.3802 11.07 47.1602C11.04 47.0702 11.05 46.9702 11.02 46.8802C10.98 46.7602 10.93 46.6502 10.94 46.5102C10.95 46.3902 11 46.3002 11.02 46.1902C11.06 45.9902 11 45.7602 10.98 45.5602V45.0202L11.02 44.1002L10.75 42.7802L10.78 40.5402L11.11 39.4802L10.76 38.6702L10.59 38.2502L10.69 36.8902L10.76 35.2702L10.79 33.6302L11.06 32.0302L10.7 31.3402L10.89 28.9602L11.1 26.3402L11.2 25.9202L11.07 25.1702V24.3802L10.83 23.6802L11.2 22.4102L11.24 21.4102L10.86 20.1802L11.17 19.8502L10.95 18.5902L10.9 16.4902L10.63 14.8902C10.68 14.0802 10.75 13.2602 10.78 12.4502C10.81 11.8402 10.89 11.0902 11.45 10.7102C12.24 10.1702 13.17 10.3802 14.05 10.2302C14.64 10.1302 15.24 10.0302 15.84 9.92023L17.26 10.3002L18.03 10.3902L18.63 10.4602L19.14 9.98023L20.08 10.3702L20.73 9.93023L21.14 9.97023L21.52 10.1102L21.88 10.2202L23.13 10.4902L24.89 10.0502L26.44 10.1002L26.94 9.93023L27.65 10.2502L28.74 10.3002L30.91 10.2502L32.72 10.4102L34.68 10.0602L36.64 10.5702L40.29 9.96023H42.3L44.25 10.1502L46.51 10.0802L47.36 9.95023L48.13 10.0802L49.06 10.0302L49.4 9.95023L51.3 10.2702L52.35 10.3502L54 10.2902L56.02 10.3202L57.98 9.94023L60.24 10.2502L61.13 10.4702L62.64 10.1902L63.22 10.4902L63.99 10.2402L64.96 10.3602L65.86 10.6402L66.42 10.5002L66.65 10.4002L66.86 10.4902L67.6 10.5202L68.55 10.5502L69.07 10.4902L69.67 10.3702L70.59 10.2202C71.52 10.2702 72.82 10.0602 73.47 10.8302C73.62 11.0102 73.78 11.2202 73.87 11.4402C73.98 11.6902 73.91 11.8202 73.91 12.0702C73.91 12.4202 74.29 12.9102 74.22 13.2402" fill="#0AB04B"/>
<path d="M42.47 67.5199C42.56 67.4299 42.94 67.0399 43.05 66.9399C41.79 66.7099 41.1 65.8599 41.1 64.5199V63.3599H39.92V64.5199C39.92 65.8599 39.23 66.7099 37.97 66.9399C38.07 67.0399 38.46 67.4299 38.54 67.5199C39.33 67.4799 40.11 66.8499 40.51 66.1599C40.91 66.8499 41.69 67.4799 42.48 67.5199" fill="white"/>
<path d="M48.98 65.8301C49.38 66.5201 50.16 67.1501 50.95 67.1901C51.04 67.1001 51.42 66.7101 51.53 66.6101C50.27 66.3901 49.58 65.5301 49.58 64.1901V63.3501H48.4V64.1901C48.4 65.5301 47.7 66.3901 46.45 66.6101C46.55 66.7101 46.94 67.1001 47.03 67.1901C47.82 67.1501 48.6 66.5301 49 65.8301" fill="white"/>
<path d="M45.02 63.1299H43.85V68.6099H45.02V65.9699H46.14V65.1699H45.02V63.1299Z" fill="white"/>
<path d="M47.95 68.8198H52.3V70.8198H53.47V68.0098H47.95V68.8198Z" fill="white"/>
<path d="M53.47 63.1299H52.3V67.5299H53.47V63.1299Z" fill="white"/>
<path d="M61.23 65.2601H60.31V64.1601H61.23V63.3501H55.38V64.1601H56.3V65.2601H55.38V66.0601H61.23V65.2601ZM59.14 65.2601H57.47V64.1601H59.14V65.2601Z" fill="white"/>
<path d="M62.55 67.5298V68.3398H65.7V70.8198H66.87V68.3398H70.02V67.5298H62.55Z" fill="white"/>
<path d="M18.04 67.5601C16.82 67.5601 15.98 68.2601 15.98 69.2701C15.98 70.2801 16.83 70.9801 18.04 70.9801C19.25 70.9801 20.1 70.2801 20.1 69.2701C20.1 68.2601 19.25 67.5601 18.04 67.5601ZM18.04 70.1801C17.52 70.1801 17.15 69.8001 17.15 69.2801C17.15 68.7601 17.52 68.3701 18.04 68.3701C18.56 68.3701 18.93 68.7501 18.93 69.2801C18.93 69.8101 18.56 70.1801 18.04 70.1801Z" fill="white"/>
<path d="M54.57 67.4401H57.72V68.0101H55.67V70.2001C55.67 70.5901 55.9 70.8201 56.29 70.8201H60.3C60.7 70.8201 60.92 70.6001 60.92 70.2001V68.0101H58.88V67.4401H62.03V66.6401H54.56V67.4401H54.57ZM59.76 69.8101C59.76 69.9501 59.7 70.0101 59.55 70.0101H57.05C56.91 70.0101 56.85 69.9501 56.85 69.8101V68.8101H59.76V69.8101V69.8101Z" fill="white"/>
<path d="M18.62 65.6699H20.91V64.8699H16.63C16.49 64.8699 16.42 64.8099 16.42 64.6599V63.1299H15.25V65.0599C15.25 65.4499 15.48 65.6699 15.87 65.6699H17.45V66.3199H14.3V67.1199H21.77V66.3199H18.62V65.6699V65.6699Z" fill="white"/>
<path d="M41.24 69.7298V68.0098H40.07V70.1198C40.07 70.5098 40.3 70.7298 40.69 70.7298H45.11V69.9198H41.45C41.3 69.9198 41.24 69.8598 41.24 69.7198" fill="white"/>
<path d="M23.94 70.1998C23.94 70.5898 24.16 70.8198 24.56 70.8198H28.41C28.81 70.8198 29.04 70.5998 29.04 70.1998V68.0098H23.94V70.1998V70.1998ZM25.11 68.8098H27.86V69.8098C27.86 69.9498 27.8 70.0098 27.65 70.0098H25.31C25.17 70.0098 25.1 69.9498 25.1 69.8098V68.8098H25.11Z" fill="white"/>
<path d="M27.86 67.0799V67.5399H29.03V63.1299H27.86V66.2699C27.62 66.3999 27.03 66.4199 26.81 66.4199H24.12C23.98 66.4199 23.91 66.3599 23.91 66.2199V65.6499H26.63V63.3499H22.73V64.1599H25.45V64.8499H22.73V66.6099C22.73 66.9999 22.96 67.2299 23.35 67.2299H26.79C27.01 67.2299 27.6 67.1999 27.84 67.0799" fill="white"/>
<path d="M64.2 66.8601H68.44C68.84 66.8601 69.07 66.6401 69.07 66.2401V63.3501H67.9V64.2501H64.76V63.3501H63.59V66.2401C63.59 66.6301 63.81 66.8601 64.21 66.8601M64.76 65.0601H67.9V65.8501C67.9 65.9901 67.84 66.0501 67.69 66.0501H64.96C64.82 66.0501 64.75 65.9901 64.75 65.8501V65.0601H64.76Z" fill="white"/>
<path d="M34.28 68.0399V67.4499H37.62V66.6299H29.77V67.4499H33.09V68.0399" fill="white"/>
<path d="M30.79 68.8498H35.28V70.8198H36.48V68.0098H30.79V68.8498Z" fill="white"/>
<path d="M34.48 64.4898H36.57V63.6498H34.32V63.0898H33.04V63.6498H30.79V64.4898H32.88C32.62 65.0398 31.83 65.4098 30.51 65.5898C30.69 65.7598 31.11 66.1898 31.28 66.3598C31.67 66.2998 32.05 66.1898 32.43 66.0398C33.01 65.8098 33.43 65.5498 33.67 65.2298C33.92 65.5398 34.34 65.8098 34.92 66.0398C35.3 66.1898 35.68 66.2898 36.07 66.3598C36.24 66.1898 36.66 65.7598 36.84 65.5898C35.52 65.4098 34.73 65.0498 34.47 64.4898" fill="white"/>
<path fill-rule="evenodd" clip-rule="evenodd" d="M58.3 27.7797C55.94 27.7797 53.57 27.7797 51.21 27.7797C50.85 27.7797 50.69 27.7297 50.7 27.3097C50.72 26.0597 50.7 26.0597 51.97 26.0597C53.61 26.0597 55.24 26.0597 56.88 26.0597C57.2 26.0597 57.34 26.0097 57.34 25.6397C57.34 24.4097 57.34 24.4097 56.12 24.4097C55.28 24.4097 54.43 24.3997 53.59 24.4097C53.31 24.4097 53.22 24.3297 53.23 24.0497C53.24 22.4497 53.24 20.8397 53.23 19.2397C53.23 18.9697 53.29 18.8497 53.59 18.8597C54.02 18.8797 54.45 18.8897 54.88 18.8597C55.19 18.8397 55.27 18.9497 55.27 19.2497C55.25 20.2297 55.28 21.1997 55.25 22.1697C55.24 22.5697 55.34 22.6997 55.76 22.6997C58.24 22.6797 60.72 22.6997 63.2 22.6797C63.62 22.6797 63.72 22.7897 63.71 23.1997C63.68 24.3997 63.71 24.3997 62.51 24.3997C61.62 24.3997 60.72 24.3997 59.83 24.3997C59.54 24.3997 59.43 24.4597 59.43 24.7797C59.41 26.0597 59.4 26.0597 60.67 26.0597C62.28 26.0597 63.88 26.0597 65.48 26.0597C65.79 26.0597 65.93 26.1297 65.9 26.4697C65.86 26.8897 66.07 27.4397 65.81 27.7097C65.57 27.9597 65.03 27.7797 64.62 27.7797C62.52 27.7797 60.42 27.7797 58.32 27.7797H58.3Z" fill="#0AAF4B"/>
<path fill-rule="evenodd" clip-rule="evenodd" d="M25.88 28.4799C28.21 28.4799 30.54 28.4799 32.87 28.4799C33.23 28.4799 33.38 28.5599 33.33 28.9399C33.28 29.3599 33.51 29.8999 33.23 30.1699C32.98 30.4199 32.44 30.2299 32.03 30.2399C31.42 30.2499 30.8 30.2699 30.2 30.2399C29.8 30.2199 29.66 30.3299 29.67 30.7499C29.7 32.0399 29.67 33.3299 29.69 34.6199C29.69 34.9699 29.59 35.0799 29.25 35.0499C28.78 35.0099 28.15 35.1999 27.86 34.9599C27.56 34.7099 27.78 34.0599 27.77 33.5899C27.76 32.6299 27.75 31.6699 27.77 30.7099C27.77 30.3599 27.71 30.2199 27.32 30.2399C26.44 30.2699 25.57 30.2699 24.69 30.2399C24.31 30.2299 24.18 30.3199 24.19 30.7199C24.22 31.9599 24.19 33.1999 24.21 34.4399C24.21 34.7899 24.15 34.9599 23.76 34.9199C23.4 34.8799 23.03 34.8999 22.67 34.9199C22.36 34.9399 22.28 34.8299 22.28 34.5299C22.3 33.2599 22.28 31.9799 22.3 30.7099C22.3 30.3299 22.2 30.2299 21.83 30.2399C20.82 30.2699 19.81 30.2399 18.81 30.2499C18.53 30.2499 18.43 30.1699 18.45 29.8799C18.48 29.4399 18.3 28.8599 18.52 28.5799C18.75 28.2799 19.35 28.4899 19.79 28.4899C21.82 28.4799 23.85 28.4899 25.89 28.4899L25.88 28.4799Z" fill="#0AAF4B"/>
<path fill-rule="evenodd" clip-rule="evenodd" d="M25.65 18.7297C27.32 18.7497 28.49 19.1997 29.45 20.1597C31.11 21.8197 31.07 24.3197 29.37 25.9397C27.5 27.7197 24.34 27.7097 22.49 25.9197C20.49 23.9797 20.96 20.7397 23.46 19.3697C24.24 18.9397 25.08 18.7097 25.65 18.7297V18.7297Z" fill="#0AAF4B"/>
<path fill-rule="evenodd" clip-rule="evenodd" d="M35.27 30.1296C37.21 28.9996 38.84 27.6296 40.03 25.7796C40.8 24.5796 41.29 23.2796 41.53 21.8796C41.6 21.4896 41.56 21.3096 41.06 21.3196C39.57 21.3596 38.09 21.3196 36.6 21.3396C36.25 21.3396 36.13 21.2496 36.17 20.8996C36.21 20.4796 35.99 19.9296 36.26 19.6596C36.53 19.3896 37.08 19.5796 37.5 19.5796C39.42 19.5796 41.33 19.5796 43.25 19.5696C43.68 19.5696 43.77 19.6896 43.75 20.0996C43.55 24.2796 41.79 27.6396 38.53 30.2396C38.08 30.5996 37.59 30.9096 37.12 31.2496C36.92 31.3996 36.76 31.3996 36.56 31.2196C36.15 30.8596 35.73 30.5196 35.26 30.1396L35.27 30.1296Z" fill="#0AAF4B"/>
<path fill-rule="evenodd" clip-rule="evenodd" d="M58.26 35.5298C57.05 35.4898 55.83 35.1498 54.87 34.1698C53.55 32.8298 53.59 30.8898 54.96 29.5898C56.77 27.8698 60.11 27.8998 61.86 29.6498C63.35 31.1298 63.19 33.2698 61.48 34.5398C60.56 35.2298 59.51 35.5098 58.26 35.5198V35.5298Z" fill="#0AAF4B"/>
<path fill-rule="evenodd" clip-rule="evenodd" d="M48.43 26.8098C48.43 29.3898 48.43 31.9698 48.43 34.5398C48.43 34.9198 48.34 35.0798 47.95 35.0298C47.48 34.9698 46.85 35.2298 46.58 34.9298C46.35 34.6598 46.51 34.0498 46.51 33.5898C46.51 28.7498 46.51 23.9098 46.5 19.0598C46.5 18.6598 46.58 18.4898 47.01 18.5498C47.32 18.5898 47.64 18.5798 47.95 18.5498C48.33 18.5098 48.45 18.6298 48.44 19.0298C48.42 21.0398 48.43 23.0598 48.43 25.0798V26.8198V26.8098Z" fill="#0AAF4B"/>
<path fill-rule="evenodd" clip-rule="evenodd" d="M51.86 44.9599C51.81 43.5099 51.83 42.0499 51.8 40.5999C51.8 40.1199 51.97 40.0599 52.37 40.0799C52.72 40.0999 52.97 40.0499 52.96 40.5699C52.92 42.4899 52.94 44.3999 52.96 46.3199C52.96 46.6399 52.88 46.7099 52.55 46.7499C51.93 46.8099 51.58 46.6199 51.27 46.0499C50.5 44.6099 49.57 43.2599 48.88 41.7699C48.86 41.7299 48.81 41.7099 48.77 41.6699C48.85 43.2499 48.79 44.8199 48.82 46.3899C48.82 46.6799 48.73 46.8099 48.46 46.7299C48.21 46.6599 47.73 46.9899 47.72 46.4799C47.69 44.4299 47.71 42.3799 47.71 40.3299C47.71 40.2699 47.71 40.1899 47.75 40.1399C47.87 39.9899 49.07 40.0899 49.18 40.2699C50.08 41.8199 51.11 43.2999 51.87 44.9499L51.86 44.9599Z" fill="#0AAF4B"/>
<path fill-rule="evenodd" clip-rule="evenodd" d="M24.03 43.47C24.03 41.88 24.78 40.65 26.03 40.19C28.15 39.4 30.15 40.81 30.25 43.15C30.32 44.75 29.65 46.04 28.45 46.56C26.46 47.42 24.03 46.38 24.03 43.48V43.47Z" fill="#0AAF4B"/>
<path fill-rule="evenodd" clip-rule="evenodd" d="M34.09 43.6001C34.57 43.8701 34.79 44.2901 34.92 44.7601C35.08 45.3301 35.23 45.9101 35.38 46.4801C35.4 46.5601 35.44 46.7001 35.38 46.7001C35.03 46.7301 34.69 46.7401 34.34 46.7301C34.12 46.7301 34.13 46.5101 34.09 46.3601C33.96 45.8801 33.85 45.4001 33.71 44.9301C33.49 44.1701 32.94 43.8701 32.19 44.0301C31.96 44.0801 32 44.2201 32 44.3601C32 45.0201 31.99 45.6801 32 46.3401C32 46.6201 31.96 46.7501 31.63 46.7501C30.77 46.7501 30.77 46.7701 30.77 45.9001C30.77 44.1501 30.77 42.4001 30.77 40.6401C30.77 40.3201 30.83 40.1701 31.18 40.1401C32.02 40.0701 32.86 40.0101 33.7 40.1601C34.49 40.3001 35.04 40.7201 35.2 41.5301C35.37 42.3401 35.03 43.0101 34.26 43.4801C34.22 43.5101 34.18 43.5401 34.09 43.6001V43.6001Z" fill="#0AAF4B"/>
<path fill-rule="evenodd" clip-rule="evenodd" d="M41.19 44.7797C41.19 45.2297 41.19 45.6697 41.19 46.1197C41.19 46.3297 41.15 46.4697 40.93 46.5197C39.83 46.8197 38.72 46.9497 37.61 46.5997C36.2 46.1597 35.39 44.8097 35.54 43.2097C35.72 41.3297 37.02 40.1097 38.91 40.0697C39.49 40.0597 40.06 40.0697 40.63 40.2197C41.18 40.3597 40.84 40.6997 40.81 40.9497C40.78 41.2097 40.69 41.3697 40.36 41.2197C40.01 41.0597 39.62 41.0597 39.24 41.0597C38.33 41.0597 37.53 41.3297 37.09 42.1897C36.63 43.0997 36.67 44.0197 37.21 44.8897C37.68 45.6597 38.87 46.0197 39.77 45.7597C40.06 45.6697 40.02 45.4697 39.99 45.2897C39.94 44.8697 40.18 44.3997 39.83 44.0497C39.74 43.9597 39.48 44.0097 39.3 44.0297C38.92 44.0797 38.84 43.9197 38.83 43.5597C38.81 43.1297 38.95 43.0197 39.36 43.0597C39.84 43.0997 40.32 43.0897 40.8 43.0597C41.09 43.0497 41.22 43.1197 41.19 43.4397C41.16 43.8797 41.19 44.3297 41.19 44.7797V44.7797Z" fill="#0AAF4B"/>
<path fill-rule="evenodd" clip-rule="evenodd" d="M41.44 46.7296C42.14 44.5496 42.82 42.4396 43.49 40.3196C43.53 40.1996 43.55 40.0696 43.74 40.0796C44.13 40.0896 44.53 40.0796 44.93 40.0796C45.07 40.0796 45.12 40.1296 45.17 40.2696C45.86 42.3996 46.56 44.5196 47.28 46.7296C46.86 46.7296 46.49 46.7296 46.12 46.7296C45.92 46.7296 45.93 46.5796 45.89 46.4596C45.75 46.0396 45.6 45.6196 45.49 45.1896C45.42 44.9196 45.28 44.8296 45 44.8396C44.46 44.8696 43.82 44.6796 43.39 44.8996C42.95 45.1296 42.99 45.8496 42.82 46.3596C42.73 46.6096 42.65 46.7596 42.35 46.7296C42.07 46.6996 41.79 46.7296 41.44 46.7296V46.7296Z" fill="#0AAF4B"/>
<path fill-rule="evenodd" clip-rule="evenodd" d="M60.46 45.6C60.78 46.71 60.78 46.6 59.73 46.78C58 47.08 56.51 46.44 55.92 45.08C55.37 43.79 55.41 42.48 56.26 41.32C57.09 40.18 58.31 39.89 59.65 40.02C59.78 40.03 59.91 40.05 60.04 40.07C60.74 40.18 60.77 40.24 60.57 40.92C60.49 41.19 60.4 41.24 60.13 41.15C59.74 41.01 59.33 40.96 58.91 41.01C57.51 41.18 56.7 42.25 56.86 43.71C57 45.1 57.96 45.91 59.35 45.82C59.71 45.8 60.07 45.72 60.45 45.6H60.46Z" fill="#0AAF4B"/>
<path fill-rule="evenodd" clip-rule="evenodd" d="M53.76 43.4196C53.76 42.4496 53.77 41.4696 53.76 40.4996C53.76 40.1896 53.82 40.0796 54.16 40.0796C55.05 40.0896 55.05 40.0796 55.05 40.9796C55.05 42.7496 55.05 44.5096 55.05 46.2796C55.05 46.6396 54.99 46.7596 54.6 46.7496C53.75 46.7196 53.75 46.7496 53.75 45.8996V43.4296L53.76 43.4196Z" fill="#0AAF4B"/>
<path fill-rule="evenodd" clip-rule="evenodd" d="M60.97 47.8298C61.48 46.9698 61.82 46.0698 61.94 45.0898C62.14 43.4898 61.99 41.9298 61.25 40.4698C61.17 40.3098 60.87 40.0598 61.1 39.9598C61.35 39.8498 61.75 39.7698 61.98 40.1498C62.4 40.8298 62.7 41.5598 62.85 42.3498C63.17 44.0598 63 45.6898 62.21 47.2598C61.95 47.7698 61.63 48.0398 60.97 47.8298V47.8298Z" fill="#0BAF4B"/>
<path fill-rule="evenodd" clip-rule="evenodd" d="M23.99 47.8496C23.16 47.9596 23.12 47.9596 22.78 47.2596C21.69 45.0396 21.71 42.8196 22.77 40.5996C23.11 39.8896 23.12 39.8996 23.99 39.9496C22.59 42.5796 22.57 45.1996 23.99 47.8596V47.8496Z" fill="#0BAF4B"/>
<path fill-rule="evenodd" clip-rule="evenodd" d="M25.94 25.4998C24.44 25.4998 23.21 24.3598 23.23 22.9898C23.25 21.6198 24.45 20.5198 25.93 20.5098C27.45 20.5098 28.67 21.6398 28.66 23.0498C28.65 24.3998 27.42 25.5098 25.94 25.4998Z" fill="#FEFEFE"/>
<path fill-rule="evenodd" clip-rule="evenodd" d="M58.24 29.8799C59.37 29.8799 60.31 30.4799 60.62 31.2799C60.89 31.9699 60.7 32.7499 60.15 33.2799C59.32 34.0799 57.97 34.1999 57 33.5699C55.91 32.8599 55.73 31.5499 56.59 30.6399C57.09 30.1199 57.7 29.8899 58.24 29.8799V29.8799Z" fill="#FEFEFE"/>
<path fill-rule="evenodd" clip-rule="evenodd" d="M28.96 43.4497C28.96 44.0597 28.84 44.6297 28.49 45.1397C27.8 46.1197 26.45 46.1197 25.77 45.1397C25.14 44.2197 25.14 42.6297 25.77 41.7097C26.43 40.7397 27.78 40.7297 28.46 41.6797C28.84 42.2097 28.97 42.8197 28.96 43.4597V43.4497Z" fill="#FEFEFE"/>
<path fill-rule="evenodd" clip-rule="evenodd" d="M32 42.09C32 42.03 31.98 41.95 32 41.9C32.13 41.61 31.67 41.08 32.33 41C33.27 40.89 33.88 41.18 34 41.77C34.12 42.37 33.81 42.89 33.2 43.06C32.16 43.35 32 43.22 32 42.09V42.09Z" fill="#FDFEFD"/>
<path fill-rule="evenodd" clip-rule="evenodd" d="M44.29 41.1699C44.58 42.1299 44.85 43.0199 45.13 43.9399H43.47C43.74 43.0199 44 42.1299 44.28 41.1699H44.29Z" fill="#FBFDFC"/>
</g>
<defs>
<clipPath id="clip0_339_2217">
<rect width="84.32" height="80" fill="white"/>
</clipPath>
</defs>
</svg>
