<svg width="85" height="80" viewBox="0 0 85 80" fill="none" xmlns="http://www.w3.org/2000/svg">
<g clip-path="url(#clip0_339_2259)">
<path d="M48.46 31.7598C48.15 31.4198 47.78 31.2598 47.36 31.2598C46.94 31.2598 46.58 31.4298 46.27 31.7598C45.96 32.0898 45.81 32.4998 45.81 32.9898C45.81 33.4798 45.96 33.8898 46.27 34.2198C46.58 34.5498 46.94 34.7098 47.36 34.7098C47.78 34.7098 48.14 34.5498 48.46 34.2198C48.77 33.8898 48.93 33.4798 48.93 32.9898C48.93 32.4998 48.78 32.0998 48.46 31.7598Z" fill="white"/>
<path d="M16.53 27.2898C16.69 27.4798 16.88 27.6198 17.1 27.7298C17.32 27.8298 17.55 27.8798 17.81 27.8798C18.07 27.8798 18.28 27.8298 18.5 27.7298C18.72 27.6298 18.91 27.4798 19.07 27.2898C19.23 27.0998 19.37 26.8898 19.46 26.6498C19.56 26.4098 19.6 26.1498 19.6 25.8598C19.6 25.5698 19.55 25.3198 19.46 25.0798C19.37 24.8298 19.24 24.6198 19.07 24.4298C18.91 24.2498 18.71 24.1098 18.5 23.9998C18.28 23.8898 18.05 23.8398 17.81 23.8398C17.57 23.8398 17.32 23.8898 17.1 23.9998C16.88 24.1098 16.69 24.2498 16.53 24.4298C16.36 24.6198 16.24 24.8298 16.14 25.0798C16.05 25.3198 16 25.5898 16 25.8598C16 26.1298 16.05 26.4098 16.14 26.6498C16.23 26.8898 16.36 27.1098 16.53 27.2898Z" fill="white"/>
<path d="M44.3 40.96H44.28C44.18 41.35 44.08 41.81 43.96 42.21L43.45 43.85H45.16L44.64 42.21C44.51 41.8 44.4 41.35 44.3 40.96V40.96Z" fill="white"/>
<path d="M32.68 40.8601C32.3 40.8601 32.05 40.8901 31.93 40.9201V43.0201H32.65C33.47 43.0201 33.98 42.5801 33.98 41.9201C33.98 41.1901 33.47 40.8501 32.68 40.8501V40.8601Z" fill="white"/>
<path d="M27.05 40.8501C25.85 40.8501 25.21 41.9701 25.21 43.3501C25.21 44.7301 25.89 45.7901 27.05 45.7901C28.21 45.7901 28.89 44.6901 28.89 43.3001C28.89 42.0501 28.27 40.8501 27.05 40.8501V40.8501Z" fill="white"/>
<path d="M65.88 26.2602H67.99L68.03 23.9902H65.84L65.88 26.2602Z" fill="white"/>
<path d="M69.12 32.4199H64.92V34.0599H69.12V32.4199Z" fill="white"/>
<path d="M74.22 13.28C74.29 12.95 73.92 12.46 73.91 12.11C73.91 11.86 73.98 11.73 73.87 11.48C73.78 11.26 73.62 11.05 73.47 10.87C72.82 10.1 71.53 10.31 70.59 10.26L69.67 10.41L69.08 10.53L68.55 10.59L67.6 10.56L66.87 10.53L66.66 10.44L66.43 10.54L65.87 10.68L64.97 10.4L63.99 10.28L63.23 10.53L62.65 10.23L61.13 10.51L60.24 10.29L57.98 9.97998L56.02 10.36L54 10.33L52.35 10.39L51.3 10.31L49.4 9.98998L49.05 10.07L48.13 10.12L47.36 9.99998L46.51 10.13L44.25 10.2L42.3 10.01H40.3L36.65 10.63L34.69 10.12L32.73 10.47L30.92 10.31L28.75 10.36L27.67 10.31L26.96 9.98998L26.46 10.16L24.91 10.11L23.15 10.55L21.9 10.28L21.54 10.18L21.16 10.04L20.75 9.99998L20.09 10.44L19.15 10.05L18.64 10.54L18.04 10.46L17.27 10.37L15.85 9.98998C15.25 10.09 14.66 10.2 14.06 10.3C13.18 10.45 12.24 10.24 11.46 10.78C10.9 11.16 10.82 11.91 10.79 12.52C10.76 13.33 10.69 14.15 10.64 14.96L10.91 16.56L10.96 18.66L11.18 19.92L10.87 20.25L11.25 21.48L11.22 22.48L10.85 23.75L11.09 24.45V25.24L11.22 25.99L11.12 26.41L10.91 29.03L10.72 31.41L11.08 32.1L10.82 33.7L10.79 35.34L10.72 36.96L10.62 38.31L10.79 38.73L11.14 39.53L10.82 40.59L10.79 42.83L11.06 44.15L11.02 45.07V45.61C11.03 45.81 11.1 46.04 11.06 46.24C11.04 46.35 10.99 46.45 10.98 46.56C10.97 46.7 11.02 46.8 11.06 46.93C11.09 47.02 11.08 47.12 11.11 47.21C11.18 47.42 11.26 47.62 11.36 47.82C12.04 49.17 12.97 50.37 14.02 51.46C21.22 58.93 31.25 59.3 40.74 56.81C48.43 54.8 56.16 52.86 64.26 55.56C67.53 56.65 70.57 58.83 72.36 60.93C72.49 61.08 72.96 61.62 73.07 61.76C73.14 61.84 73.24 61.93 73.34 61.91C73.76 61.83 73.45 60.92 73.48 60.65L73.56 59.95L73.54 58.48L73.77 57.72L73.45 57.11L73.88 56.32L73.51 55.17L73.86 54.22L73.3 52.04L73.43 50.13V48.28L73.83 46.6L73.43 45.69L73.65 44.87L73.38 44.3L73.83 43.47L73.77 40.23L73.57 37.77L73.44 35.4L73.78 34.04L73.42 33.33L73.9 32.72L73.4 31L73.79 29.75L73.93 27.81L73.71 26.29L74.07 24.67L73.88 24.09L73.95 23.51L73.7 22.35L73.99 21.2L73.85 20.48L73.52 19.82L73.9 18.78L73.95 17.38L73.43 15.74L74.04 14.27L74.24 13.32L74.22 13.28ZM63.26 26.26H64.61L64.56 23.98H63.41V22.68H70.47V23.98H69.29L69.25 26.26H70.65V27.58H63.26V26.26V26.26ZM60.22 22.27H61.5V29.88H60.22V22.27ZM43.91 22.72H50.78C50.78 23.52 50.74 24.29 50.68 25.03C50.61 25.77 50.52 26.46 50.41 27.11H49.07C49.17 26.66 49.24 26.16 49.31 25.63C49.37 25.1 49.41 24.6 49.41 24.14H43.91V22.72V22.72ZM42.4 27.91H46.01V25.61H47.36V27.91H52.22V29.29H42.41V27.91H42.4ZM39.29 22.27H40.57V27.13H42.02V28.59H40.57V35.56H39.29V22.26V22.27ZM35.13 28.46C35.82 27.23 36.22 25.91 36.32 24.5H32.8V23.08H37.77C37.74 25.21 37.33 27.07 36.55 28.67C35.77 30.27 34.67 31.6 33.24 32.65L32.21 31.62C33.46 30.74 34.44 29.69 35.13 28.46V28.46ZM25.94 28.46C26.65 27.23 27.06 25.91 27.16 24.5H23.58V23.08H28.6C28.57 25.21 28.15 27.07 27.35 28.67C26.55 30.27 25.44 31.6 24.01 32.65L22.98 31.62C24.23 30.74 25.22 29.69 25.93 28.46H25.94ZM14.93 24.52C15.09 24.1 15.31 23.73 15.6 23.42C15.88 23.11 16.2 22.86 16.58 22.67C16.96 22.49 17.37 22.4 17.8 22.4C18.23 22.4 18.63 22.49 19 22.67C19.38 22.85 19.71 23.1 20 23.42C20.28 23.74 20.51 24.1 20.67 24.52C20.83 24.94 20.92 25.39 20.92 25.86C20.92 26.33 20.84 26.78 20.67 27.2C20.5 27.62 20.28 27.99 20 28.3C19.72 28.61 19.38 28.86 19 29.04C18.62 29.22 18.22 29.31 17.8 29.31C17.38 29.31 16.96 29.22 16.58 29.04C16.2 28.86 15.88 28.62 15.6 28.3C15.32 27.98 15.09 27.62 14.93 27.2C14.77 26.78 14.69 26.34 14.69 25.86C14.69 25.38 14.77 24.94 14.93 24.52ZM20.26 35.58H18.99V31.71H16.64V35.48H15.35V31.71H12.83V30.31H22.64V31.71H20.25V35.58H20.26ZM23.06 47.81C22.5 47.02 21.87 45.74 21.87 43.82C21.88 41.89 22.5 40.6 23.06 39.8H23.95C23.32 40.74 22.83 42.04 22.83 43.82C22.83 45.6 23.33 46.86 23.95 47.81H23.06V47.81ZM26.97 46.76C25.09 46.76 23.91 45.33 23.91 43.37C23.91 41.41 25.2 39.88 27.07 39.88C28.94 39.88 30.16 41.35 30.16 43.25C30.16 45.48 28.81 46.75 26.97 46.75V46.76ZM30.42 22.28H31.7V35.58H30.42V22.28ZM34.17 46.65C34.07 46.45 33.91 45.91 33.73 45.08C33.54 44.21 33.23 43.94 32.53 43.92H31.92V46.66H30.71V40.09C31.16 40.01 31.85 39.95 32.55 39.95C33.51 39.95 34.16 40.11 34.6 40.48C34.97 40.78 35.17 41.25 35.17 41.81C35.17 42.67 34.59 43.25 33.97 43.48V43.51C34.44 43.69 34.73 44.15 34.9 44.79C35.11 45.62 35.29 46.39 35.43 46.65H34.18H34.17ZM41.17 46.34C40.74 46.5 39.92 46.71 39.03 46.71C37.91 46.71 37.06 46.42 36.42 45.82C35.83 45.26 35.49 44.38 35.49 43.37C35.49 41.27 36.99 39.92 39.19 39.92C40.01 39.92 40.65 40.09 40.96 40.24L40.69 41.22C40.33 41.06 39.88 40.93 39.18 40.93C37.76 40.93 36.76 41.77 36.76 43.32C36.76 44.87 37.69 45.73 39.07 45.73C39.51 45.73 39.83 45.67 39.99 45.59V43.93H38.81V42.97H41.16V46.34H41.17ZM45.97 46.65L45.37 44.76H43.26L42.69 46.65H41.44L43.57 40H45.12L47.28 46.65H45.98H45.97ZM46.23 35.76C45.88 35.61 45.57 35.39 45.31 35.12C45.05 34.85 44.85 34.54 44.7 34.18C44.55 33.81 44.48 33.42 44.48 33C44.48 32.58 44.56 32.2 44.7 31.83C44.85 31.47 45.05 31.15 45.31 30.88C45.57 30.6 45.88 30.39 46.23 30.23C46.58 30.07 46.96 29.99 47.36 29.99C47.76 29.99 48.14 30.07 48.49 30.23C48.84 30.39 49.15 30.6 49.41 30.88C49.67 31.15 49.88 31.46 50.03 31.83C50.18 32.19 50.26 32.58 50.26 33C50.26 33.42 50.18 33.82 50.03 34.18C49.88 34.54 49.67 34.86 49.41 35.12C49.15 35.4 48.84 35.61 48.49 35.76C48.14 35.91 47.76 35.99 47.36 35.99C46.96 35.99 46.58 35.91 46.23 35.76ZM52.98 46.65H51.73L49.99 43.72C49.57 43 49.12 42.18 48.8 41.43H48.77C48.82 42.3 48.83 43.18 48.83 44.27V46.65H47.71V39.99H49.09L50.81 42.84C51.26 43.58 51.64 44.35 51.95 45.07H51.97C51.89 44.18 51.86 43.32 51.86 42.31V39.99H52.99V46.65H52.98ZM52.5 28.51C53.43 27.98 54.14 27.3 54.63 26.47C55.12 25.64 55.37 24.75 55.37 23.79V22.58H56.7V23.82C56.7 24.26 56.76 24.7 56.89 25.14C57.01 25.58 57.19 25.99 57.41 26.39C57.64 26.78 57.91 27.14 58.24 27.46C58.57 27.78 58.94 28.04 59.34 28.25L58.59 29.4C58.32 29.28 58.06 29.11 57.8 28.9C57.54 28.68 57.29 28.44 57.07 28.16C56.85 27.88 56.65 27.6 56.47 27.3C56.29 27 56.15 26.7 56.05 26.41C55.86 26.99 55.53 27.58 55.04 28.17C54.55 28.76 54 29.23 53.38 29.59L52.48 28.51H52.5ZM55.11 46.65H53.9V39.99H55.11V46.65ZM54.89 32.01V30.64H61.46V35.61H60.13V32.02H54.88L54.89 32.01ZM59.25 45.74C59.75 45.74 60.26 45.64 60.58 45.49L60.78 46.45C60.49 46.59 59.86 46.76 59.06 46.76C56.95 46.76 55.67 45.43 55.67 43.4C55.67 41.2 57.19 39.88 59.22 39.88C60.02 39.88 60.59 40.05 60.84 40.18L60.57 41.15C60.25 41.01 59.82 40.9 59.27 40.9C57.92 40.9 56.94 41.75 56.94 43.35C56.94 44.81 57.8 45.75 59.25 45.75V45.74ZM61.9 47.81H61.02C61.64 46.87 62.13 45.56 62.13 43.8C62.13 42.04 61.65 40.75 61.02 39.8H61.9C62.47 40.59 63.1 41.87 63.1 43.81C63.1 45.74 62.47 47.01 61.9 47.81ZM71.83 29.91H67.64V31.05H70.39V35.42H63.66V31.05H66.3V29.91H62.03V28.53H71.84V29.91H71.83Z" fill="white"/>
<path d="M0 0V80H84.32V0H0ZM81.09 14.67L80.9 15.45L81.09 16.21L81.21 18.43L80.83 19.53L81.21 20.63L80.87 21.21L81.21 21.53L80.84 22.52L81.21 23.16L81.02 23.98L81.07 25L81.21 26.94L80.82 28.91L81.21 29.66L80.93 31.6L81.22 32.52L80.84 34.52L81.22 36.18L80.95 38.24L81.22 40.1L80.75 41.81L81.02 42.67L81.21 43.78L80.99 46.84L81.21 48.23L80.92 50.12L81.21 51.61L80.79 53.52L81.21 55.56L80.89 56.94L80.64 57.86L81.21 58.62L81.01 60.2L80.89 61.96L81.21 62.92L80.97 64.74L81.02 65.62L81.36 66.68L81.05 68.12L81.36 69.71L81.24 73.08V74.13H81.23C81.16 75.34 80.55 77.02 78.34 77L77.87 76.98L77.37 77.03L77 76.81L76.5 77L76.03 76.87L75.16 76.98L74.02 76.77L72.81 77.11L71.29 76.55L69.57 77.12L67.7 76.58L65.63 77.12L63.06 76.8L61.67 76.4L59.75 77.12L57.83 76.64L55.91 76.5L53.72 76.99L51.35 76.96L50.6 76.68L50.02 76.96L48.92 77.13L47.7 76.66H46.59L45.88 76.91L45.4 76.6L44.67 76.73L43.17 77.13L41.25 76.62L39.62 77.13L37.7 76.54L35.78 77.13L33.79 76.74L33.2 76.67L32.25 76.73L31.46 76.67L31.03 76.86L30.61 76.55L30.14 76.77L29.37 77.03L28.34 76.99L27.83 76.78L27.26 76.51L26.79 76.65L26.21 76.4L25.82 76.55L25.04 77.12L24.22 76.8L22.67 77.1L22.16 76.89L20.75 76.85L18.1 77.13L16.17 76.56L13.56 77.23L12.11 76.72L10.17 77.26L9.02 76.72L7.92 77.19L6.6 77.01H5.84C4.59 76.96 3.5 76.04 3.19 74.85L3.16 74.6L3.04 73.36L3.29 72.62L3 71.62L2.94 70.81L3.32 70.14L3.3 69.23L2.98 68.21L3.39 67.23L3.09 66.79L3.07 65.05L3.29 64.25L3.06 62.94L3.03 62.31L3.49 61.88L3.17 61.42L3.38 59.3L3.02 57.32L3.38 56.47L3.24 55.51L3.1 54.9L3.52 54.21L3.34 53.49L3.62 52.83L3.7 52.67L3.45 50.45L3.42 49.8L3.04 48.62L3.39 46.97L3.23 46.29L3.64 45.15L3.42 43.51L3.53 40.73L3.35 39.39L3.56 38.45L3.25 37.91L3.03 36.2L3.11 34.34L3.52 32.16L3.24 30.17L3.68 29.3L3.14 27.16L3.58 25.12L3.23 24.61L3.28 23.97L3.32 21.74L3.11 21.11L3.54 20.46L3.24 19.79L3.41 18.64L3.52 17.68L3.6 17.22L3.29 16.67L3.63 15.75L3.58 15.08L3.52 13.44L3.16 10.92L3.44 9.69L3.27 8.46L3.39 6.33L3.54 5.3C3.83 4.14 4.85 3.22 6.03 3.12H6.52L8.23 2.97L9.22 3.28L10.76 2.92L11.97 2.97L12.8 3.23L13.67 3.03L14.62 2.81L15.14 3.14L15.66 2.81L16.15 3.11L16.68 2.83L17.62 3.06L18.67 2.81L19.77 3.14L21.27 2.81L22.43 3.18L23.48 2.81L24.52 3.18L26.1 2.85L27.62 3.27L29.59 2.81L31.94 3.26L33.86 3.16L35.78 2.82L37.7 3.23L39.43 2.81L41.39 3.17L43.29 2.82L45.08 3.06L46.81 3.18L48.11 2.82L49.39 3.17L50.55 3.19L51.09 3.36L51.71 3.09L53.31 3.07L54.61 2.87H56.47L58.39 3.32L60.6 2.81L62.74 3.44L64.87 2.9L66.12 3.18L66.91 3.02L67.68 3.25L68.18 2.82L69.24 3.26L70.1 3L70.84 3.29L71.63 3.06L72.52 3.38L73.33 2.93L74.75 3.34L75.9 3.05L76.44 3.3L77.09 3.09L77.93 3.25L78.27 3.22C79.59 3.34 80.75 4.36 80.96 5.57H80.97L80.99 6.72L81.37 9.58L81.2 11.95L80.94 13.69L81.1 14.71L81.09 14.67Z" fill="white"/>
<path d="M25.32 70.0101H27.66C27.8 70.0101 27.87 69.9501 27.87 69.8101V68.8101H25.12V69.8101C25.12 69.9501 25.18 70.0101 25.33 70.0101H25.32Z" fill="#0AB04B"/>
<path d="M81.37 9.52977L80.99 6.66977L80.97 5.51977H80.96C80.75 4.30977 79.59 3.28977 78.27 3.16977L77.93 3.19977L77.09 3.03977L76.44 3.24977L75.9 2.99977L74.75 3.28977L73.33 2.87977L72.52 3.32977L71.63 3.00977L70.84 3.23977L70.1 2.94977L69.24 3.20977L68.18 2.76977L67.68 3.19977L66.91 2.96977L66.12 3.12977L64.87 2.84977L62.74 3.38977L60.6 2.75977L58.39 3.26977L56.47 2.80977H54.61L53.31 3.01977L51.71 3.03977L51.09 3.30977L50.55 3.13977L49.39 3.11977L48.11 2.76977L46.81 3.12977L45.08 3.00977L43.29 2.76977L41.39 3.11977L39.43 2.75977L37.7 3.17977L35.78 2.76977L33.86 3.10977L31.94 3.20977L29.59 2.75977L27.62 3.21977L26.1 2.79977L24.52 3.12977L23.48 2.75977L22.43 3.12977L21.27 2.75977L19.77 3.08977L18.67 2.75977L17.62 3.00977L16.68 2.77977L16.15 3.05977L15.66 2.75977L15.14 3.08977L14.62 2.75977L13.67 2.97977L12.8 3.17977L11.97 2.91977L10.76 2.86977L9.22 3.22977L8.23 2.91977L6.52 3.08977H6.03C4.84 3.16977 3.83 4.09977 3.54 5.25977L3.39 6.28977L3.27 8.41977L3.44 9.64977L3.16 10.8798L3.52 13.3998L3.58 15.0398L3.63 15.7098L3.29 16.6298L3.6 17.1798L3.52 17.6398L3.41 18.5998L3.24 19.7498L3.54 20.4198L3.11 21.0698L3.32 21.6998L3.28 23.9298L3.23 24.5698L3.58 25.0798L3.14 27.1198L3.68 29.2598L3.24 30.1298L3.52 32.1198L3.11 34.2998L3.03 36.1598L3.25 37.8698L3.56 38.4098L3.35 39.3498L3.53 40.6898L3.42 43.4698L3.64 45.1098L3.23 46.2498L3.39 46.9298L3.04 48.5798L3.42 49.7598L3.45 50.4098L3.7 52.6298L3.62 52.7898L3.34 53.4498L3.52 54.1698L3.1 54.8598L3.24 55.4698L3.38 56.4298L3.02 57.2798L3.38 59.2598L3.17 61.3798L3.49 61.8398L3.03 62.2698L3.06 62.8998L3.29 64.2098L3.07 65.0098L3.09 66.7498L3.39 67.1898L2.98 68.1698L3.3 69.1898L3.32 70.0998L2.94 70.7698L3 71.5798L3.29 72.5798L3.04 73.3198L3.16 74.5598L3.19 74.8098C3.51 75.9998 4.6 76.9198 5.84 76.9798H6.6L7.92 77.1498L9.02 76.6798L10.17 77.2198L12.11 76.6798L13.56 77.1898L16.17 76.5198L18.1 77.0898L20.75 76.8098L22.16 76.8498L22.67 77.0598L24.22 76.7598L25.04 77.0798L25.82 76.5098L26.21 76.3598L26.79 76.6098L27.26 76.4698L27.83 76.7398L28.34 76.9498L29.37 76.9898L30.14 76.7298L30.61 76.5098L31.03 76.8198L31.46 76.6298L32.25 76.6898L33.2 76.6298L33.79 76.6998L35.78 77.0898L37.7 76.4998L39.62 77.0898L41.25 76.5798L43.17 77.0898L44.67 76.6898L45.4 76.5598L45.88 76.8698L46.59 76.6198H47.7L48.92 77.0898L50.02 76.9198L50.6 76.6398L51.35 76.9198L53.72 76.9498L55.91 76.4598L57.83 76.5998L59.75 77.0798L61.67 76.3598L63.06 76.7598L65.63 77.0798L67.7 76.5398L69.57 77.0798L71.29 76.5098L72.81 77.0698L74.02 76.7298L75.16 76.9398L76.03 76.8298L76.5 76.9598L77 76.7698L77.37 76.9898L77.87 76.9398L78.34 76.9598C80.54 76.9698 81.16 75.2898 81.23 74.0798V73.0298L81.36 69.6598L81.05 68.0698L81.36 66.6298L81.02 65.5698L80.97 64.6898L81.21 62.8698L80.89 61.9098L81.01 60.1498L81.21 58.5698L80.64 57.8098L80.89 56.8898L81.21 55.5098L80.79 53.4698L81.21 51.5598L80.92 50.0698L81.21 48.1798L80.99 46.7898L81.21 43.7298L81.02 42.6198L80.75 41.7598L81.22 40.0498L80.95 38.1898L81.22 36.1298L80.84 34.4698L81.22 32.4698L80.93 31.5498L81.21 29.6098L80.82 28.8598L81.21 26.8898L81.07 24.9498L81.02 23.9298L81.21 23.1098L80.84 22.4698L81.21 21.4798L80.87 21.1598L81.21 20.5798L80.83 19.4798L81.21 18.3798L81.09 16.1598L80.9 15.3998L81.09 14.6198L80.93 13.5998L81.19 11.8598L81.36 9.48977L81.37 9.52977ZM18.04 70.9798C16.82 70.9798 15.98 70.2798 15.98 69.2698C15.98 68.2598 16.83 67.5598 18.04 67.5598C19.25 67.5598 20.1 68.2598 20.1 69.2698C20.1 70.2798 19.25 70.9798 18.04 70.9798ZM21.77 67.1198H14.3V66.3198H17.45V65.6698H15.88C15.48 65.6698 15.26 65.4498 15.26 65.0598V63.1298H16.43V64.6598C16.43 64.7998 16.49 64.8698 16.64 64.8698H20.92V65.6698H18.64V66.3198H21.79V67.1198H21.77ZM22.74 66.6098V64.8498H25.46V64.1598H22.74V63.3498H26.64V65.6498H23.91V66.2198C23.91 66.3598 23.97 66.4198 24.12 66.4198H26.81C27.03 66.4198 27.62 66.3898 27.86 66.2698V63.1298H29.03V67.5398H27.86V67.0798C27.62 67.1998 27.03 67.2298 26.81 67.2298H23.37C22.97 67.2298 22.75 67.0098 22.75 66.6098H22.74ZM29.03 70.1998C29.03 70.5898 28.8 70.8198 28.4 70.8198H24.55C24.15 70.8198 23.93 70.5998 23.93 70.1998V68.0098H29.03V70.1998V70.1998ZM37.62 67.4498H34.28V68.0098H36.48V70.8198H35.28V68.8598H30.79V68.0198H33.08V67.4598H29.76V66.6398H37.61V67.4598L37.62 67.4498ZM30.79 64.4898V63.6498H33.04V63.0898H34.32V63.6498H36.57V64.4898H34.48C34.74 65.0398 35.53 65.4098 36.85 65.5898C36.67 65.7598 36.25 66.1898 36.08 66.3598C35.69 66.2998 35.31 66.1898 34.93 66.0398C34.35 65.8098 33.93 65.5498 33.68 65.2298C33.43 65.5398 33.02 65.8098 32.44 66.0398C32.06 66.1898 31.68 66.2898 31.29 66.3598C31.12 66.1898 30.7 65.7598 30.53 65.5898C31.85 65.4098 32.63 65.0498 32.9 64.4898H30.8H30.79ZM38.53 67.5098C38.44 67.4198 38.05 67.0298 37.96 66.9298C39.22 66.6998 39.91 65.8498 39.91 64.5098V63.3498H41.09V64.5098C41.09 65.8498 41.78 66.6998 43.04 66.9298C42.94 67.0298 42.55 67.4198 42.46 67.5098C41.67 67.4698 40.89 66.8398 40.49 66.1498C40.09 66.8398 39.31 67.4698 38.52 67.5098H38.53ZM45.1 70.7198H40.68C40.28 70.7198 40.06 70.4998 40.06 70.1098V67.9998H41.23V69.7198C41.23 69.8598 41.29 69.9198 41.44 69.9198H45.1V70.7298V70.7198ZM46.14 65.9598H45.02V68.5998H43.85V63.1198H45.02V65.1598H46.14V65.9598ZM47 67.1798C46.91 67.0898 46.53 66.6998 46.42 66.5998C47.68 66.3798 48.37 65.5198 48.37 64.1798V63.3398H49.55V64.1798C49.55 65.5198 50.24 66.3798 51.5 66.5998C51.4 66.6998 51.01 67.0898 50.92 67.1798C50.13 67.1398 49.35 66.5198 48.95 65.8198C48.55 66.5098 47.77 67.1398 46.98 67.1798H47ZM53.46 70.8098H52.29V68.8098H47.94V67.9998H53.47V70.8098H53.46ZM53.46 67.5198H52.29V63.1198H53.46V67.5198ZM62.02 67.4298H58.87V67.9998H60.92V70.1898C60.92 70.5798 60.7 70.8098 60.3 70.8098H56.29C55.89 70.8098 55.67 70.5898 55.67 70.1898V67.9998H57.71V67.4298H54.56V66.6298H62.03V67.4298H62.02ZM55.36 64.1498V63.3398H61.22V64.1498H60.3V65.2498H61.22V66.0498H55.36V65.2498H56.28V64.1498H55.36ZM70 68.3298H66.85V70.8098H65.68V68.3298H62.53V67.5298H70V68.3298ZM67.88 64.2498V63.3498H69.05V66.2398C69.05 66.6298 68.82 66.8598 68.43 66.8598H64.19C63.79 66.8598 63.57 66.6398 63.57 66.2398V63.3498H64.74V64.2498H67.88ZM73.92 17.3498L73.87 18.7498L73.49 19.7898L73.82 20.4498L73.96 21.1698L73.67 22.3198L73.92 23.4798L73.85 24.0598L74.04 24.6398L73.68 26.2598L73.9 27.7798L73.76 29.7198L73.37 30.9698L73.87 32.6898L73.39 33.2998L73.75 34.0098L73.41 35.3698L73.54 37.7398L73.74 40.1998L73.8 43.4398L73.35 44.2698L73.62 44.8398L73.4 45.6598L73.8 46.5698L73.39 48.2498V50.0998L73.27 52.0098L73.83 54.1898L73.48 55.1398L73.85 56.2898L73.42 57.0798L73.74 57.6898L73.51 58.4498L73.53 59.9198L73.45 60.6198C73.42 60.8898 73.73 61.7898 73.31 61.8798C73.21 61.8998 73.11 61.7998 73.04 61.7298C72.93 61.5898 72.46 61.0498 72.33 60.8998C70.54 58.7898 67.5 56.6198 64.23 55.5298C56.13 52.8398 48.39 54.7698 40.71 56.7798C31.22 59.2598 21.19 58.8898 13.99 51.4298C12.94 50.3498 12.01 49.1398 11.33 47.7898C11.23 47.5898 11.15 47.3898 11.08 47.1798C11.05 47.0898 11.05 46.9898 11.03 46.8998C11 46.7698 10.94 46.6698 10.95 46.5298C10.95 46.4098 11.01 46.3198 11.03 46.2098C11.07 46.0098 11.01 45.7798 10.99 45.5798V45.0398L11.03 44.1198L10.76 42.7998L10.79 40.5598L11.11 39.4998L10.76 38.6998L10.59 38.2798L10.69 36.9298L10.76 35.3098L10.79 33.6698L11.05 32.0698L10.69 31.3798L10.88 28.9998L11.09 26.3798L11.19 25.9598L11.06 25.2098V24.4198L10.82 23.7198L11.19 22.4498L11.22 21.4498L10.84 20.2198L11.15 19.8898L10.93 18.6298L10.88 16.5298L10.61 14.9298C10.66 14.1198 10.73 13.2898 10.76 12.4898C10.79 11.8798 10.87 11.1298 11.43 10.7498C12.22 10.2198 13.15 10.4198 14.03 10.2698C14.62 10.1698 15.22 10.0598 15.82 9.95977L17.24 10.3398L18.01 10.4298L18.61 10.5098L19.12 10.0198L20.06 10.4098L20.72 9.96977L21.13 10.0098L21.51 10.1498L21.87 10.2498L23.12 10.5198L24.88 10.0798L26.43 10.1298L26.93 9.95977L27.64 10.2798L28.72 10.3298L30.89 10.2798L32.7 10.4398L34.66 10.0898L36.62 10.5998L40.27 9.98977H42.27L44.22 10.1798L46.48 10.1098L47.33 9.97976L48.1 10.0998L49.02 10.0498L49.37 9.96977L51.27 10.2898L52.32 10.3698L53.97 10.3098L55.99 10.3398L57.95 9.95977L60.21 10.2698L61.1 10.4898L62.62 10.2098L63.2 10.5098L63.96 10.2598L64.94 10.3798L65.84 10.6598L66.4 10.5198L66.63 10.4198L66.84 10.5098L67.57 10.5398L68.52 10.5698L69.05 10.5098L69.64 10.3898L70.56 10.2398C71.5 10.2898 72.79 10.0798 73.44 10.8498C73.59 11.0298 73.75 11.2498 73.84 11.4598C73.95 11.7098 73.87 11.8398 73.88 12.0898C73.88 12.4398 74.26 12.9298 74.19 13.2598L73.99 14.2098L73.38 15.6798L73.9 17.3198L73.92 17.3498Z" fill="#0AB04B"/>
<path d="M18.04 68.3599C17.52 68.3599 17.15 68.7399 17.15 69.2699C17.15 69.7999 17.53 70.1699 18.04 70.1699C18.55 70.1699 18.93 69.7899 18.93 69.2699C18.93 68.7499 18.55 68.3599 18.04 68.3599Z" fill="#0AB04B"/>
<path d="M64.75 65.8501C64.75 65.9901 64.81 66.0501 64.96 66.0501H67.69C67.83 66.0501 67.9 65.9901 67.9 65.8501V65.0601H64.76V65.8501H64.75Z" fill="#0AB04B"/>
<path d="M59.13 64.1602H57.46V65.2602H59.13V64.1602Z" fill="#0AB04B"/>
<path d="M56.84 69.8101C56.84 69.9501 56.9 70.0101 57.04 70.0101H59.54C59.68 70.0101 59.75 69.9501 59.75 69.8101V68.8101H56.84V69.8101Z" fill="#0AB04B"/>
<path d="M22.66 30.3101H12.85V31.7101H15.37V35.4801H16.66V31.7101H19.01V35.5801H20.27V31.7101H22.66V30.3101Z" fill="#0AB04B"/>
<path d="M15.6 28.2999C15.88 28.6099 16.2 28.8599 16.58 29.0399C16.96 29.2199 17.37 29.3099 17.8 29.3099C18.23 29.3099 18.63 29.2199 19 29.0399C19.38 28.8599 19.71 28.6199 20 28.2999C20.28 27.9799 20.51 27.6199 20.67 27.1999C20.83 26.7799 20.92 26.3399 20.92 25.8599C20.92 25.3799 20.84 24.9399 20.67 24.5199C20.5 24.0999 20.28 23.7299 20 23.4199C19.72 23.1099 19.38 22.8599 19 22.6699C18.62 22.4899 18.22 22.3999 17.8 22.3999C17.38 22.3999 16.96 22.4899 16.58 22.6699C16.2 22.8499 15.88 23.0999 15.6 23.4199C15.32 23.7399 15.09 24.0999 14.93 24.5199C14.77 24.9399 14.69 25.3899 14.69 25.8599C14.69 26.3299 14.77 26.7799 14.93 27.1999C15.09 27.6199 15.31 27.9899 15.6 28.2999V28.2999ZM16.14 25.0799C16.23 24.8299 16.36 24.6199 16.53 24.4299C16.69 24.2499 16.88 24.1099 17.1 23.9999C17.32 23.8899 17.55 23.8399 17.81 23.8399C18.07 23.8399 18.28 23.8899 18.5 23.9999C18.72 24.1099 18.91 24.2499 19.07 24.4299C19.23 24.6199 19.37 24.8299 19.46 25.0799C19.56 25.3199 19.6 25.5899 19.6 25.8599C19.6 26.1299 19.55 26.4099 19.46 26.6499C19.37 26.8899 19.24 27.1099 19.07 27.2899C18.91 27.4799 18.71 27.6199 18.5 27.7299C18.28 27.8299 18.05 27.8799 17.81 27.8799C17.57 27.8799 17.32 27.8299 17.1 27.7299C16.88 27.6299 16.69 27.4799 16.53 27.2899C16.36 27.0999 16.24 26.8899 16.14 26.6499C16.05 26.4099 16 26.1499 16 25.8599C16 25.5699 16.05 25.3199 16.14 25.0799Z" fill="#0AB04B"/>
<path d="M31.71 22.2798H30.43V35.5798H31.71V22.2798Z" fill="#0AB04B"/>
<path d="M27.36 28.6798C28.16 27.0798 28.57 25.2198 28.61 23.0898H23.59V24.5098H27.17C27.07 25.9198 26.66 27.2398 25.95 28.4698C25.24 29.6998 24.25 30.7498 23 31.6298L24.03 32.6598C25.46 31.6098 26.57 30.2798 27.37 28.6798H27.36Z" fill="#0AB04B"/>
<path d="M36.55 28.6798C37.33 27.0798 37.74 25.2198 37.77 23.0898H32.8V24.5098H36.32C36.22 25.9198 35.82 27.2398 35.13 28.4698C34.44 29.6998 33.46 30.7598 32.21 31.6298L33.24 32.6598C34.67 31.5998 35.77 30.2798 36.55 28.6798V28.6798Z" fill="#0AB04B"/>
<path d="M40.57 28.5998H42.03V27.1298H40.57V22.2798H39.29V35.5698H40.57V28.5998Z" fill="#0AB04B"/>
<path d="M49.32 25.64C49.25 26.17 49.18 26.66 49.08 27.12H50.42C50.53 26.47 50.62 25.78 50.69 25.04C50.75 24.3 50.79 23.53 50.79 22.73H43.92V24.15H49.42C49.42 24.61 49.39 25.11 49.32 25.64V25.64Z" fill="#0AB04B"/>
<path d="M52.21 27.9099H47.35V25.6099H46.01V27.9099H42.4V29.2899H52.21V27.9099Z" fill="#0AB04B"/>
<path d="M49.41 35.11C49.67 34.84 49.88 34.53 50.03 34.17C50.18 33.8 50.26 33.41 50.26 32.99C50.26 32.57 50.18 32.19 50.03 31.82C49.88 31.46 49.67 31.14 49.41 30.87C49.15 30.59 48.84 30.38 48.49 30.22C48.14 30.06 47.76 29.98 47.36 29.98C46.96 29.98 46.58 30.06 46.23 30.22C45.88 30.38 45.57 30.59 45.31 30.87C45.05 31.14 44.85 31.45 44.7 31.82C44.55 32.18 44.48 32.57 44.48 32.99C44.48 33.41 44.56 33.81 44.7 34.17C44.85 34.53 45.05 34.85 45.31 35.11C45.57 35.39 45.88 35.6 46.23 35.75C46.58 35.9 46.96 35.98 47.36 35.98C47.76 35.98 48.14 35.9 48.49 35.75C48.84 35.6 49.15 35.38 49.41 35.11ZM47.36 34.71C46.94 34.71 46.58 34.55 46.27 34.22C45.96 33.89 45.81 33.48 45.81 32.99C45.81 32.5 45.96 32.1 46.27 31.76C46.58 31.42 46.94 31.26 47.36 31.26C47.78 31.26 48.14 31.43 48.46 31.76C48.77 32.09 48.93 32.5 48.93 32.99C48.93 33.48 48.78 33.89 48.46 34.22C48.15 34.55 47.78 34.71 47.36 34.71Z" fill="#0AB04B"/>
<path d="M61.5 22.27H60.22V29.88H61.5V22.27Z" fill="#0AB04B"/>
<path d="M55.06 28.1701C55.55 27.5801 55.88 26.9901 56.07 26.4101C56.18 26.7001 56.31 27.0001 56.49 27.3001C56.67 27.6001 56.87 27.8901 57.09 28.1601C57.32 28.4401 57.56 28.6801 57.82 28.9001C58.08 29.1201 58.34 29.2801 58.61 29.4001L59.36 28.2501C58.95 28.0401 58.58 27.7801 58.26 27.4601C57.93 27.1401 57.66 26.7801 57.43 26.3901C57.2 26.0001 57.03 25.5801 56.91 25.1401C56.78 24.7001 56.72 24.2601 56.72 23.8201V22.5801H55.39V23.7901C55.39 24.7501 55.14 25.6401 54.65 26.4701C54.16 27.3001 53.45 27.9801 52.52 28.5101L53.42 29.5901C54.04 29.2401 54.59 28.7601 55.08 28.1701H55.06Z" fill="#0AB04B"/>
<path d="M60.14 35.6001H61.46V30.6401H54.89V32.0101H60.14V35.6001Z" fill="#0AB04B"/>
<path d="M62.02 29.9098H66.29V31.0498H63.65V35.4198H70.38V31.0498H67.63V29.9098H71.82V28.5298H62.01V29.9098H62.02ZM69.12 32.4198V34.0598H64.92V32.4198H69.12Z" fill="#0AB04B"/>
<path d="M70.65 26.2602H69.25L69.29 23.9802H70.47V22.6802H63.41V23.9802H64.56L64.61 26.2602H63.26V27.5802H70.65V26.2602ZM67.99 26.2602H65.87L65.83 23.9802H68.02L67.99 26.2602V26.2602Z" fill="#0AB04B"/>
<path d="M23.96 39.7998H23.07C22.51 40.5998 21.89 41.8898 21.88 43.8198C21.88 45.7398 22.51 47.0198 23.07 47.8098H23.96C23.34 46.8598 22.84 45.5698 22.84 43.8198C22.84 42.0698 23.32 40.7398 23.96 39.7998Z" fill="#0AB04B"/>
<path d="M27.08 39.8799C25.21 39.8799 23.92 41.3199 23.92 43.3699C23.92 45.4199 25.11 46.7599 26.98 46.7599C28.85 46.7599 30.17 45.4899 30.17 43.2599C30.17 41.3599 29.02 39.8899 27.08 39.8899V39.8799ZM27.05 45.7799C25.88 45.7799 25.21 44.6899 25.21 43.3399C25.21 41.9899 25.85 40.8399 27.05 40.8399C28.25 40.8399 28.89 42.0299 28.89 43.2899C28.89 44.6799 28.23 45.7799 27.05 45.7799V45.7799Z" fill="#0AB04B"/>
<path d="M33.98 43.5102V43.4802C34.6 43.2502 35.18 42.6702 35.18 41.8102C35.18 41.2502 34.97 40.7802 34.61 40.4802C34.16 40.1002 33.51 39.9502 32.56 39.9502C31.86 39.9502 31.18 40.0102 30.72 40.0902V46.6602H31.93V43.9202H32.54C33.23 43.9402 33.55 44.2202 33.74 45.0802C33.93 45.9102 34.09 46.4602 34.18 46.6502H35.43C35.29 46.3902 35.11 45.6202 34.9 44.7902C34.73 44.1502 34.45 43.6902 33.97 43.5102H33.98ZM32.65 43.0302H31.93V40.9302C32.05 40.9002 32.3 40.8702 32.68 40.8702C33.47 40.8702 33.98 41.2102 33.98 41.9402C33.98 42.6002 33.47 43.0402 32.65 43.0402V43.0302Z" fill="#0AB04B"/>
<path d="M38.83 43.9299H40.01V45.5899C39.85 45.6699 39.53 45.7299 39.09 45.7299C37.71 45.7299 36.78 44.8299 36.78 43.3199C36.78 41.8099 37.78 40.9299 39.2 40.9299C39.9 40.9299 40.35 41.0599 40.71 41.2199L40.98 40.2399C40.67 40.0899 40.03 39.9199 39.21 39.9199C37.01 39.9199 35.51 41.2699 35.51 43.3699C35.51 44.3799 35.85 45.2599 36.44 45.8199C37.07 46.4199 37.92 46.7099 39.05 46.7099C39.94 46.7099 40.77 46.4899 41.19 46.3399V42.9699H38.84V43.9299H38.83Z" fill="#0AB04B"/>
<path d="M43.57 39.9902L41.44 46.6402H42.69L43.26 44.7502H45.37L45.97 46.6402H47.27L45.11 39.9902H43.56H43.57ZM43.46 43.8402L43.97 42.2002C44.09 41.8102 44.19 41.3402 44.29 40.9502H44.31C44.41 41.3402 44.52 41.7902 44.65 42.2002L45.17 43.8402H43.46V43.8402Z" fill="#0AB04B"/>
<path d="M51.86 42.3102C51.86 43.3302 51.89 44.1902 51.97 45.0702H51.95C51.64 44.3502 51.26 43.5802 50.81 42.8402L49.09 39.9902H47.71V46.6502H48.83V44.2702C48.83 43.1702 48.83 42.3002 48.77 41.4402H48.8C49.13 42.1802 49.57 43.0002 49.99 43.7202L51.73 46.6502H52.98V39.9902H51.85V42.3102H51.86Z" fill="#0AB04B"/>
<path d="M55.1 39.9902H53.89V46.6502H55.1V39.9902Z" fill="#0AB04B"/>
<path d="M59.26 40.8901C59.82 40.8901 60.25 41.0101 60.56 41.1401L60.83 40.1701C60.58 40.0401 60.01 39.8701 59.21 39.8701C57.18 39.8701 55.66 41.1901 55.66 43.3901C55.66 45.4101 56.94 46.7501 59.05 46.7501C59.85 46.7501 60.48 46.5901 60.77 46.4401L60.57 45.4801C60.25 45.6301 59.74 45.7301 59.24 45.7301C57.78 45.7301 56.93 44.7901 56.93 43.3301C56.93 41.7301 57.91 40.8801 59.26 40.8801V40.8901Z" fill="#0AB04B"/>
<path d="M61.02 39.7998C61.64 40.7498 62.13 42.0398 62.13 43.7998C62.13 45.5598 61.65 46.8698 61.02 47.8098H61.9C62.47 47.0098 63.1 45.7398 63.1 43.8098C63.1 41.8798 62.47 40.5898 61.9 39.7998H61.02Z" fill="#0AB04B"/>
<path d="M40.5 66.1599C40.9 66.8499 41.68 67.4799 42.47 67.5199C42.56 67.4299 42.94 67.0399 43.05 66.9399C41.79 66.7099 41.1 65.8599 41.1 64.5199V63.3599H39.92V64.5199C39.92 65.8599 39.23 66.7099 37.97 66.9399C38.07 67.0399 38.46 67.4299 38.54 67.5199C39.33 67.4799 40.11 66.8499 40.51 66.1599H40.5Z" fill="white"/>
<path d="M48.97 65.8301C49.37 66.5201 50.15 67.1501 50.94 67.1901C51.03 67.1001 51.42 66.7101 51.52 66.6101C50.26 66.3901 49.57 65.5301 49.57 64.1901V63.3501H48.39V64.1901C48.39 65.5301 47.69 66.3901 46.44 66.6101C46.54 66.7101 46.93 67.1001 47.02 67.1901C47.81 67.1501 48.59 66.5301 48.99 65.8301H48.97Z" fill="white"/>
<path d="M45.02 63.1299H43.85V68.6099H45.02V65.9699H46.14V65.1699H45.02V63.1299Z" fill="white"/>
<path d="M47.94 68.8198H52.3V70.8198H53.47V68.0098H47.94V68.8198Z" fill="white"/>
<path d="M53.47 63.1299H52.3V67.5299H53.47V63.1299Z" fill="white"/>
<path d="M55.37 65.2601V66.0601H61.23V65.2601H60.31V64.1601H61.23V63.3501H55.37V64.1601H56.29V65.2601H55.37ZM57.46 64.1601H59.13V65.2601H57.46V64.1601Z" fill="white"/>
<path d="M62.55 68.3398H65.69V70.8198H66.87V68.3398H70.01V67.5298H62.55V68.3398Z" fill="white"/>
<path d="M18.04 67.5601C16.82 67.5601 15.98 68.2601 15.98 69.2701C15.98 70.2801 16.83 70.9801 18.04 70.9801C19.25 70.9801 20.1 70.2801 20.1 69.2701C20.1 68.2601 19.25 67.5601 18.04 67.5601ZM18.04 70.1801C17.52 70.1801 17.15 69.8001 17.15 69.2801C17.15 68.7601 17.53 68.3701 18.04 68.3701C18.55 68.3701 18.93 68.7501 18.93 69.2801C18.93 69.8101 18.55 70.1801 18.04 70.1801Z" fill="white"/>
<path d="M54.56 67.4401H57.71V68.0101H55.67V70.2001C55.67 70.5901 55.9 70.8201 56.29 70.8201H60.3C60.7 70.8201 60.92 70.6001 60.92 70.2001V68.0101H58.87V67.4401H62.02V66.6401H54.55V67.4401H54.56ZM59.75 68.8201V69.8201C59.75 69.9601 59.69 70.0201 59.54 70.0201H57.04C56.9 70.0201 56.84 69.9601 56.84 69.8201V68.8201H59.75Z" fill="white"/>
<path d="M18.62 65.6699H20.9V64.8699H16.62C16.48 64.8699 16.41 64.8099 16.41 64.6599V63.1299H15.24V65.0599C15.24 65.4499 15.47 65.6699 15.86 65.6699H17.43V66.3199H14.28V67.1199H21.75V66.3199H18.6V65.6699H18.62Z" fill="white"/>
<path d="M41.23 69.7298V68.0098H40.06V70.1198C40.06 70.5098 40.29 70.7298 40.68 70.7298H45.1V69.9198H41.44C41.29 69.9198 41.23 69.8598 41.23 69.7198V69.7298Z" fill="white"/>
<path d="M23.94 70.1998C23.94 70.5898 24.16 70.8198 24.56 70.8198H28.41C28.81 70.8198 29.04 70.5998 29.04 70.1998V68.0098H23.94V70.1998V70.1998ZM25.11 68.8098H27.86V69.8098C27.86 69.9498 27.8 70.0098 27.65 70.0098H25.31C25.17 70.0098 25.1 69.9498 25.1 69.8098V68.8098H25.11Z" fill="white"/>
<path d="M27.86 67.0799V67.5399H29.03V63.1299H27.86V66.2699C27.62 66.3999 27.03 66.4199 26.81 66.4199H24.12C23.98 66.4199 23.91 66.3599 23.91 66.2199V65.6499H26.64V63.3499H22.74V64.1599H25.46V64.8499H22.74V66.6099C22.74 66.9999 22.97 67.2299 23.36 67.2299H26.8C27.02 67.2299 27.61 67.1999 27.85 67.0799H27.86Z" fill="white"/>
<path d="M63.58 63.3599V66.2499C63.58 66.6399 63.8 66.8699 64.2 66.8699H68.44C68.84 66.8699 69.06 66.6499 69.06 66.2499V63.3599H67.89V64.2599H64.75V63.3599H63.58V63.3599ZM67.9 65.0699V65.8599C67.9 65.9999 67.84 66.0599 67.69 66.0599H64.96C64.82 66.0599 64.75 65.9999 64.75 65.8599V65.0699H67.89H67.9Z" fill="white"/>
<path d="M29.77 67.4499H33.09V68.0099H34.28V67.4499H37.62V66.6299H29.77V67.4499Z" fill="white"/>
<path d="M33.09 68.0398V68.0098H30.79V68.8498H35.28V70.8198H36.48V68.0098H34.28V68.0398H33.09Z" fill="white"/>
<path d="M34.28 68.0098H33.09V68.0498H34.28V68.0098Z" fill="white"/>
<path d="M30.52 65.5898C30.7 65.7598 31.12 66.1898 31.28 66.3598C31.67 66.2998 32.05 66.1898 32.43 66.0398C33.01 65.8098 33.43 65.5498 33.67 65.2298C33.92 65.5398 34.33 65.8098 34.92 66.0398C35.3 66.1898 35.68 66.2898 36.07 66.3598C36.24 66.1898 36.66 65.7598 36.84 65.5898C35.52 65.4098 34.73 65.0498 34.47 64.4898H36.56V63.6498H34.31V63.0898H33.03V63.6498H30.78V64.4898H32.88C32.62 65.0398 31.83 65.4098 30.51 65.5898H30.52Z" fill="white"/>
</g>
<defs>
<clipPath id="clip0_339_2259">
<rect width="84.32" height="80" fill="white"/>
</clipPath>
</defs>
</svg>
