<svg width="97" height="80" viewBox="0 0 97 80" fill="none" xmlns="http://www.w3.org/2000/svg">
<g clip-path="url(#clip0_319_1979)">
<path d="M20.4366 23.62V23.9228C20.4366 24.1517 20.338 24.268 20.1408 24.268H17.8834V26.138C17.8834 26.2894 17.8587 26.3951 17.8129 26.462C17.7636 26.5289 17.6791 26.5606 17.5559 26.5606H17.1755V24.268H14.6082V23.62H20.4402H20.4366ZM15.2702 21.4611C15.2702 21.1935 15.3336 20.9646 15.4639 20.7709C15.5942 20.5772 15.7633 20.4222 15.9746 20.299C16.1859 20.1757 16.4289 20.0876 16.7001 20.0313C16.9712 19.975 17.253 19.9468 17.5418 19.9468C17.8306 19.9468 18.0876 19.975 18.3553 20.0313C18.6229 20.0876 18.8624 20.1757 19.0737 20.299C19.285 20.4222 19.4541 20.5772 19.5844 20.7673C19.7147 20.9575 19.7781 21.1864 19.7781 21.4611C19.7781 21.7358 19.7147 21.9507 19.5844 22.1408C19.4541 22.331 19.285 22.486 19.0737 22.6092C18.8624 22.7325 18.6229 22.8205 18.3553 22.8769C18.0876 22.9332 17.8165 22.9614 17.5418 22.9614C17.2671 22.9614 16.9712 22.9332 16.6966 22.8733C16.4219 22.8135 16.1789 22.7254 15.9675 22.6022C15.7562 22.4789 15.5872 22.3275 15.4604 22.1373C15.3336 21.9507 15.2702 21.7253 15.2702 21.4611V21.4611ZM16.0063 21.4611C16.0063 21.6126 16.0521 21.7393 16.1401 21.8485C16.2282 21.9577 16.3444 22.0457 16.4852 22.1162C16.6261 22.1866 16.7916 22.2394 16.9748 22.2711C17.1579 22.3028 17.3481 22.3204 17.5418 22.3204C17.7214 22.3204 17.9045 22.3028 18.0806 22.2711C18.2602 22.2394 18.4187 22.1866 18.5631 22.1162C18.7039 22.0457 18.8202 21.9577 18.9082 21.8485C18.9963 21.7393 19.042 21.6126 19.042 21.4611C19.042 21.3097 18.9963 21.1759 18.9082 21.0632C18.8202 20.954 18.7039 20.8624 18.5666 20.7885C18.4257 20.7145 18.2672 20.6617 18.0876 20.63C17.908 20.5983 17.7284 20.5807 17.5488 20.5807C17.3551 20.5807 17.1649 20.5983 16.9783 20.6335C16.7916 20.6687 16.6296 20.7216 16.4852 20.7955C16.3444 20.8695 16.2282 20.961 16.1401 21.0702C16.0521 21.1794 16.0063 21.3097 16.0063 21.4611V21.4611Z" fill="#27BDBE"/>
<path d="M26.0292 23.5074V23.8173C26.0292 24.0427 25.9305 24.1554 25.7333 24.1554H23.4829V26.1241C23.4829 26.2826 23.4548 26.3953 23.3949 26.4622C23.335 26.5291 23.2505 26.5608 23.1343 26.5608H22.7645V24.1554H20.1971V23.5074H26.0292V23.5074ZM23.4829 20.6407C23.4829 20.7675 23.5217 20.8943 23.6027 21.0246C23.6837 21.1549 23.7858 21.2782 23.9126 21.3979C24.0394 21.5176 24.1838 21.6303 24.3458 21.736C24.5078 21.8416 24.6698 21.9367 24.8388 22.0248C25.0078 22.1128 25.1628 22.1868 25.3178 22.2502C25.4727 22.3136 25.603 22.3629 25.7157 22.3946L25.2755 22.9158C25.11 22.87 24.9268 22.7996 24.7261 22.7045C24.5218 22.6094 24.3246 22.5037 24.1239 22.384C23.9267 22.2643 23.7365 22.1339 23.5604 21.9931C23.3843 21.8522 23.2364 21.7078 23.1202 21.5564C23.004 21.6973 22.8596 21.8346 22.687 21.9755C22.5145 22.1128 22.3313 22.2431 22.1341 22.3629C21.9369 22.4826 21.7397 22.5918 21.5354 22.6869C21.3311 22.7819 21.1445 22.8629 20.9719 22.9228L20.5071 22.3946C20.6374 22.3523 20.7818 22.2959 20.9438 22.229C21.1058 22.1621 21.2713 22.0846 21.4368 21.9966C21.6058 21.9086 21.7678 21.8135 21.9298 21.7078C22.0883 21.6022 22.2327 21.493 22.356 21.3768C22.4792 21.2606 22.5814 21.1443 22.6553 21.0176C22.7293 20.8943 22.768 20.7675 22.768 20.6407V19.9082H23.1765C23.2681 19.9082 23.3421 19.9329 23.3949 19.9857C23.4512 20.0385 23.4794 20.123 23.4794 20.2463V20.6407H23.4829Z" fill="#27BDBE"/>
<path d="M30.3433 24.7224V22.1832H28.8043C28.7233 22.4368 28.5965 22.6586 28.4274 22.8523C28.2584 23.046 28.0612 23.2116 27.8358 23.3524C27.6104 23.4933 27.3709 23.613 27.1103 23.7116C26.8532 23.8103 26.5961 23.8948 26.3391 23.9652L25.9517 23.4651C26.2369 23.3806 26.5116 23.2855 26.7828 23.1834C27.054 23.0813 27.2899 22.958 27.5012 22.8136C27.709 22.6692 27.8781 22.5002 28.0013 22.3029C28.1281 22.1057 28.188 21.8733 28.188 21.5986V21.1901C28.188 21.0105 28.1633 20.8872 28.1175 20.8168C28.0717 20.7463 27.9591 20.7111 27.7865 20.7111H26.1841V20.0842H27.9238C28.0964 20.0842 28.2443 20.0983 28.3676 20.13C28.4908 20.1617 28.5894 20.211 28.6669 20.285C28.7444 20.3589 28.8008 20.4576 28.8395 20.5843C28.8747 20.7111 28.8958 20.8696 28.8958 21.0633V21.5423H30.3433V19.8765H31.0476V24.3103C31.0476 24.4618 31.0265 24.5674 30.9878 24.6273C30.949 24.6872 30.8645 24.7189 30.7342 24.7189H30.3398L30.3433 24.7224ZM27.7055 26.5572C27.54 26.5572 27.4132 26.5044 27.3181 26.4023C27.223 26.3001 27.1772 26.1663 27.1772 26.0008V24.3068H27.8816V25.7824C27.8816 25.8705 27.9062 25.9163 27.9591 25.9163H31.2061V26.2684C31.2061 26.3635 31.185 26.434 31.1427 26.4833C31.1005 26.5326 31.03 26.5572 30.9279 26.5572H27.709H27.7055Z" fill="#27BDBE"/>
<path d="M34.3193 21.433C34.3193 21.7781 34.2524 22.081 34.1151 22.3345C33.9777 22.5916 33.7946 22.81 33.5657 22.9931C33.3333 23.1762 33.0691 23.3312 32.7627 23.458C32.4599 23.5848 32.1359 23.6939 31.7943 23.782L31.4069 23.2819C31.6816 23.2079 31.9527 23.1199 32.2169 23.0213C32.481 22.9227 32.7169 22.8029 32.9247 22.6621C33.1325 22.5212 33.298 22.3557 33.4213 22.1585C33.5446 21.9648 33.608 21.7323 33.608 21.4576V21.19C33.608 21.0104 33.5833 20.8871 33.5375 20.8167C33.4917 20.7462 33.379 20.711 33.2065 20.711H31.6041V20.0841H33.3438C33.5164 20.0841 33.6643 20.0982 33.7876 20.1299C33.9108 20.1616 34.0094 20.2109 34.0869 20.2849C34.1644 20.3588 34.2207 20.4574 34.2595 20.5842C34.2947 20.711 34.3158 20.8695 34.3158 21.0632V21.4295L34.3193 21.433ZM32.4035 25.2928C32.4035 25.004 32.4704 24.7645 32.6078 24.5779C32.7451 24.3912 32.9106 24.2468 33.1114 24.1377C33.3121 24.0285 33.527 23.9545 33.7629 23.9158C33.9953 23.8771 34.2102 23.8559 34.4109 23.8559C34.6116 23.8559 34.83 23.8771 35.0624 23.9158C35.2913 23.9545 35.5062 24.0285 35.6999 24.1377C35.8936 24.2468 36.0556 24.3912 36.1859 24.5779C36.3162 24.7645 36.3796 25.0005 36.3796 25.2928C36.3796 25.5851 36.3162 25.8211 36.1859 26.0042C36.0556 26.1873 35.8936 26.3282 35.6999 26.4339C35.5062 26.536 35.2949 26.6064 35.0624 26.6452C34.8335 26.6839 34.6152 26.7015 34.4109 26.7015C34.2066 26.7015 33.9813 26.6839 33.7488 26.6452C33.5129 26.6064 33.298 26.5395 33.0973 26.4374C32.9001 26.3352 32.7346 26.1944 32.6043 26.0112C32.474 25.8281 32.407 25.5886 32.407 25.2928H32.4035ZM33.1079 25.2928C33.1079 25.4619 33.1536 25.5957 33.2452 25.6978C33.3368 25.7999 33.4495 25.8774 33.5798 25.9338C33.7101 25.9901 33.851 26.0289 34.0024 26.0465C34.1538 26.0641 34.2876 26.0746 34.4039 26.0746C34.5201 26.0746 34.6539 26.0641 34.8018 26.0465C34.9497 26.0289 35.0906 25.9901 35.2174 25.9373C35.3477 25.8845 35.4569 25.8035 35.5449 25.7013C35.633 25.5992 35.6787 25.4619 35.6787 25.2928C35.6787 25.1238 35.633 24.9864 35.5414 24.8808C35.4498 24.7751 35.3407 24.6941 35.2103 24.6342C35.08 24.5744 34.9427 24.5356 34.7983 24.5145C34.6504 24.4934 34.5236 24.4828 34.4109 24.4828C34.2982 24.4828 34.1609 24.4934 34.0094 24.5145C33.858 24.5356 33.7171 24.5744 33.5833 24.6342C33.4495 24.6941 33.3368 24.7751 33.2452 24.8808C33.1536 24.9864 33.1079 25.1238 33.1079 25.2928V25.2928ZM35.6048 23.7397V19.8799H36.3091V21.3203H37.1825V21.9612H36.3091V23.3523C36.3091 23.4897 36.288 23.5883 36.2457 23.6482C36.2035 23.708 36.119 23.7397 35.9922 23.7397H35.6048Z" fill="#27BDBE"/>
<path d="M37.3551 24.5885C37.4854 24.5462 37.6228 24.5004 37.7707 24.4476C37.9186 24.3948 38.063 24.3384 38.2038 24.275C38.3447 24.2116 38.4821 24.1412 38.6124 24.0637C38.7427 23.9862 38.8554 23.9017 38.954 23.8066C39.0491 23.7221 39.1371 23.6305 39.2216 23.5319C39.3062 23.4333 39.3801 23.3312 39.4435 23.222C39.5069 23.1128 39.5597 23.0001 39.5949 22.8769C39.6302 22.7536 39.6513 22.6304 39.6513 22.4965V21.3449C39.6513 21.1724 39.6196 21.0491 39.5597 20.9822C39.4998 20.9153 39.3695 20.8801 39.1723 20.8801H37.5241V20.2391H39.2956C39.4893 20.2391 39.6548 20.2567 39.7886 20.2954C39.9225 20.3342 40.0316 20.3941 40.1162 20.4751C40.2007 20.5561 40.2605 20.6652 40.2993 20.7991C40.338 20.9329 40.3592 21.0949 40.3592 21.2886V22.4895C40.3592 22.8135 40.2922 23.1128 40.1584 23.3911C40.0246 23.6693 39.8415 23.9193 39.609 24.1412C39.3907 24.3525 39.123 24.5427 38.8131 24.7117C38.5032 24.8808 38.144 25.0146 37.739 25.1132L37.3586 24.5849L37.3551 24.5885ZM41.7256 26.5571V19.8799H42.4299V26.1415C42.4299 26.2965 42.4053 26.4057 42.3525 26.4655C42.2996 26.5254 42.2151 26.5571 42.0954 26.5571H41.7256Z" fill="#27BDBE"/>
<path d="M42.5743 22.9088H48.4064V23.2117C48.4064 23.437 48.3077 23.5497 48.1105 23.5497H42.5743V22.9088V22.9088ZM43.3562 25.3494C43.3562 25.1204 43.4125 24.9197 43.5217 24.7471C43.6309 24.5746 43.7823 24.4337 43.976 24.3175C44.1697 24.2013 44.3986 24.1167 44.6592 24.0604C44.9198 24.004 45.2051 23.9759 45.508 23.9759C45.7932 23.9759 46.0644 24.004 46.318 24.0639C46.575 24.1238 46.8004 24.2083 46.9941 24.3245C47.1878 24.4407 47.3393 24.5816 47.452 24.7542C47.5647 24.9267 47.621 25.124 47.621 25.3494C47.621 25.5607 47.5682 25.7473 47.4625 25.9164C47.3569 26.0819 47.209 26.2227 47.0223 26.339C46.8357 26.4552 46.6103 26.5432 46.3532 26.6031C46.0961 26.663 45.8108 26.6947 45.5044 26.6947C45.2157 26.6947 44.941 26.6665 44.6803 26.6137C44.4197 26.5608 44.1908 26.4798 43.9936 26.3707C43.7964 26.2615 43.6414 26.1241 43.5252 25.9551C43.409 25.786 43.3491 25.5853 43.3491 25.3494H43.3562ZM44.0288 22.3488C43.7999 22.3488 43.6379 22.3066 43.5393 22.2185C43.4407 22.1305 43.3949 21.9614 43.3949 21.7008V19.8237H43.726C43.8386 19.8237 43.9302 19.873 44.0006 19.9681C44.0711 20.0632 44.1063 20.1724 44.1063 20.2956V21.56C44.1063 21.6198 44.1133 21.6621 44.1239 21.6832C44.1345 21.7043 44.1626 21.7149 44.2049 21.7149H47.6774V22.053C47.6774 22.1481 47.6562 22.2185 47.6104 22.2713C47.5647 22.3242 47.4907 22.3488 47.3886 22.3488H44.0323H44.0288ZM44.0816 25.3494C44.0816 25.4585 44.1133 25.5536 44.1803 25.6417C44.2472 25.7297 44.3423 25.8037 44.469 25.8635C44.5958 25.9234 44.7437 25.9727 44.9233 26.0079C45.0994 26.0431 45.2966 26.0607 45.5115 26.0607C45.7263 26.0607 45.9094 26.0431 46.082 26.0114C46.2546 25.9797 46.4025 25.9304 46.5257 25.867C46.649 25.8037 46.7441 25.7297 46.811 25.6417C46.8779 25.5536 46.9096 25.4585 46.9096 25.3494C46.9096 25.2402 46.8744 25.1345 46.8075 25.0465C46.737 24.9584 46.642 24.881 46.5152 24.8176C46.3884 24.7542 46.244 24.7049 46.0714 24.6697C45.9024 24.6344 45.7157 24.6168 45.5185 24.6168C45.0607 24.6168 44.7085 24.6837 44.4585 24.814C44.2084 24.9443 44.0852 25.124 44.0852 25.3494H44.0816Z" fill="#27BDBE"/>
<path d="M50.2729 21.271C50.2729 21.4682 50.3152 21.6513 50.3997 21.8204C50.4842 21.9894 50.6004 22.1444 50.7448 22.2923C50.8927 22.4367 51.0618 22.574 51.252 22.7008C51.4421 22.8276 51.6464 22.9508 51.8648 23.0671L51.4633 23.546C51.333 23.4862 51.1956 23.4087 51.0512 23.3136C50.9068 23.2185 50.766 23.1199 50.6286 23.0107C50.4913 22.9015 50.361 22.7888 50.2377 22.6726C50.1144 22.5564 50.0123 22.4437 49.9313 22.3345C49.7764 22.5599 49.5686 22.7924 49.3115 23.0389C49.0544 23.2819 48.7515 23.5002 48.4064 23.6939L47.9415 23.2079C48.1387 23.1058 48.336 22.9825 48.5261 22.8452C48.7163 22.7078 48.8889 22.5564 49.0438 22.3874C49.1953 22.2218 49.3185 22.0458 49.4136 21.8556C49.5052 21.6689 49.551 21.4717 49.551 21.2639V19.9714H50.0088C50.125 19.9714 50.199 19.9996 50.2271 20.0595C50.2553 20.1194 50.2729 20.1968 50.2729 20.2954V21.271V21.271ZM52.6994 26.5571V24.8632C52.6994 24.7962 52.6712 24.7645 52.6149 24.7645H49.4347V24.1306H52.8825C53.0375 24.1306 53.1643 24.1729 53.2594 24.2609C53.3545 24.349 53.4038 24.4722 53.4038 24.6378V26.1275C53.4038 26.2859 53.3791 26.3986 53.3263 26.462C53.2735 26.5254 53.1925 26.5571 53.0727 26.5571H52.6959H52.6994ZM52.7205 23.7679V19.8799H53.4249V23.3242C53.4249 23.4756 53.4038 23.5848 53.3615 23.6587C53.3192 23.7327 53.2312 23.7679 53.0974 23.7679H52.7241H52.7205Z" fill="#27BDBE"/>
<path d="M53.7594 22.9088H59.5914V23.2116C59.5914 23.437 59.4928 23.5497 59.2956 23.5497H57.0311V24.2048H58.7849V25.6522C58.7849 25.948 58.718 26.177 58.5842 26.339C58.4504 26.501 58.2355 26.582 57.9362 26.582H55.1892C55.0237 26.582 54.8828 26.5221 54.7666 26.3988C54.6469 26.2756 54.5905 26.0995 54.5905 25.8635V24.2048H56.3373V23.5497H53.7629V22.9088H53.7594ZM55.0836 20.5527H54.3581V19.9399H58.9962V20.5527H58.2708V21.4789C58.2708 21.5318 58.2672 21.5811 58.2567 21.6304C58.2496 21.6797 58.2391 21.729 58.225 21.7818H59.1371V22.0565C59.1371 22.2819 59.035 22.3946 58.8342 22.3946H54.2419V21.7818H55.1294C55.1153 21.736 55.1047 21.6867 55.0977 21.6339C55.0871 21.5811 55.0836 21.5283 55.0836 21.4719V20.5527ZM57.7812 25.9445C57.8798 25.9445 57.9573 25.9304 58.0102 25.8987C58.063 25.867 58.0911 25.8001 58.0911 25.691V24.8246H55.2773V25.772C55.2773 25.8847 55.3266 25.941 55.4252 25.941H57.7777L57.7812 25.9445ZM57.3692 21.7818C57.4502 21.7818 57.5065 21.7572 57.5347 21.7043C57.5629 21.6515 57.577 21.5811 57.577 21.486V20.5527H55.7844V21.493C55.7844 21.5811 55.7985 21.6515 55.8302 21.7043C55.8619 21.7572 55.9112 21.7818 55.9851 21.7818H57.3692V21.7818Z" fill="#27BDBE"/>
<path d="M61.2889 20.8696V22.3804C61.2889 22.5812 61.3242 22.7713 61.3946 22.9509C61.465 23.1306 61.5601 23.2961 61.6763 23.451C61.7926 23.606 61.9264 23.7504 62.0813 23.8807C62.2328 24.011 62.3913 24.1307 62.5568 24.2329L62.1377 24.74C61.9053 24.5745 61.6834 24.3808 61.4791 24.1483C61.2713 23.9194 61.1023 23.7011 60.9685 23.4933C60.8346 23.7328 60.6585 23.9758 60.4402 24.2258C60.2219 24.4759 59.9824 24.6942 59.7182 24.8879L59.2217 24.4019C59.6408 24.1166 59.9718 23.7962 60.2148 23.4475C60.4578 23.0953 60.5811 22.722 60.5811 22.3241V20.8766H59.4893V20.2568H62.3877V20.5315C62.3877 20.6548 62.356 20.7428 62.2891 20.7956C62.2257 20.8485 62.1482 20.8766 62.0637 20.8766H61.2925L61.2889 20.8696ZM61.8595 21.8381H62.8878V19.8765H63.5851V26.1311C63.5851 26.286 63.557 26.3952 63.5041 26.4586C63.4513 26.522 63.3668 26.5537 63.2541 26.5537H62.8843V22.4826H61.8559V21.8346L61.8595 21.8381ZM64.1345 26.5537V19.8765H64.8318V26.1452C64.8318 26.2966 64.8036 26.4023 64.7473 26.4621C64.691 26.522 64.6064 26.5537 64.4902 26.5537H64.1345V26.5537Z" fill="#27BDBE"/>
<path d="M68.2338 23.2399V24.6733H70.7836V24.9973C70.7836 25.2191 70.6849 25.3283 70.4877 25.3283H64.9515V24.6733H67.5189V23.2399H68.2373H68.2338ZM65.7827 20.1689H69.9876V20.4718C69.9876 20.7007 69.889 20.8169 69.6918 20.8169H68.2549C68.262 20.9895 68.3078 21.1586 68.3852 21.3241C68.4627 21.4896 68.5613 21.6446 68.6846 21.7925C68.8079 21.9404 68.9452 22.0777 69.1002 22.208C69.2516 22.3383 69.4136 22.4546 69.5791 22.5602C69.7446 22.6659 69.9102 22.7574 70.0757 22.8384C70.2412 22.9194 70.3962 22.9828 70.537 23.0286L70.0898 23.5428C69.9031 23.4829 69.7059 23.3913 69.4946 23.2751C69.2833 23.1589 69.079 23.0251 68.8783 22.8736C68.6775 22.7222 68.4909 22.5602 68.3183 22.3841C68.1458 22.208 68.0014 22.0355 67.8852 21.8594C67.7725 22.0425 67.6281 22.2221 67.4485 22.4017C67.2689 22.5813 67.0787 22.7433 66.8779 22.8948C66.6737 23.0462 66.4694 23.1765 66.2616 23.2927C66.0538 23.409 65.8637 23.497 65.6911 23.5569L65.2333 23.0356C65.4798 22.9476 65.7334 22.8279 66.001 22.6835C66.2652 22.5391 66.5082 22.37 66.73 22.1763C66.9484 21.9826 67.1315 21.7749 67.2794 21.5424C67.4273 21.3135 67.5048 21.0705 67.5118 20.8169H65.7862V20.1689H65.7827Z" fill="#27BDBE"/>
<path d="M70.9174 24.5885C71.0477 24.5462 71.185 24.5004 71.3294 24.4476C71.4738 24.3948 71.6217 24.3384 71.7626 24.275C71.9035 24.2116 72.0408 24.1412 72.1711 24.0637C72.3014 23.9862 72.4141 23.9017 72.5127 23.8066C72.6078 23.7221 72.6958 23.6305 72.7804 23.5319C72.8649 23.4333 72.9388 23.3312 73.0022 23.222C73.0656 23.1128 73.1185 23.0001 73.1537 22.8769C73.1889 22.7536 73.21 22.6304 73.21 22.4965V21.3449C73.21 21.1724 73.1783 21.0491 73.1185 20.9822C73.0586 20.9153 72.9283 20.8801 72.7311 20.8801H71.0829V20.2391H72.8543C73.048 20.2391 73.2135 20.2567 73.3474 20.2954C73.4812 20.3342 73.5904 20.3941 73.6749 20.4751C73.7594 20.5561 73.8193 20.6652 73.858 20.7991C73.8968 20.9329 73.9179 21.0949 73.9179 21.2886V22.4895C73.9179 22.8135 73.851 23.1128 73.7172 23.3911C73.5833 23.6693 73.4002 23.9193 73.1678 24.1412C72.9494 24.3525 72.6818 24.5427 72.3718 24.7117C72.0619 24.8808 71.7027 25.0146 71.2977 25.1132L70.9174 24.5849V24.5885ZM75.2878 26.5571V19.8799H75.9922V26.1415C75.9922 26.2965 75.9675 26.4057 75.9147 26.4655C75.8619 26.5254 75.7774 26.5571 75.6576 26.5571H75.2878Z" fill="#27BDBE"/>
<path d="M81.9686 23.1693V23.4792C81.9686 23.7081 81.87 23.8243 81.6728 23.8243H79.5527V24.7928C79.5527 24.9372 79.5175 25.0499 79.4435 25.1309C79.3696 25.2119 79.278 25.2506 79.1653 25.2506H78.8343V23.8243H76.1366V23.1693H81.9686ZM79.4611 20.5632C79.5386 20.771 79.6654 20.9576 79.838 21.1337C80.014 21.3063 80.2042 21.4648 80.412 21.6021C80.6198 21.7395 80.8346 21.8557 81.0494 21.9508C81.2643 22.0458 81.4509 22.1128 81.6059 22.155L81.2255 22.6974C81.067 22.6516 80.8839 22.5776 80.6832 22.4825C80.4789 22.3875 80.2782 22.2748 80.0774 22.1445C79.8767 22.0141 79.6865 21.8768 79.5069 21.7254C79.3273 21.5739 79.1829 21.4225 79.0702 21.2675C78.9681 21.4225 78.8307 21.5704 78.6617 21.7148C78.4926 21.8592 78.313 21.993 78.1158 22.1163C77.9186 22.2395 77.7179 22.3522 77.5136 22.4544C77.3093 22.5565 77.1156 22.6375 76.936 22.6974L76.5275 22.1621C76.7247 22.0951 76.9396 22.0106 77.1649 21.9085C77.3903 21.8064 77.6052 21.6831 77.8129 21.5458C78.0172 21.4084 78.2003 21.257 78.3553 21.0914C78.5138 20.9259 78.6229 20.7534 78.6828 20.5632H76.9677V19.9434H81.1727V20.2251C81.1727 20.4505 81.0741 20.5632 80.8769 20.5632H79.4611V20.5632ZM77.4361 26.5678C77.2812 26.5678 77.1509 26.5149 77.0522 26.4128C76.9501 26.3107 76.9008 26.1769 76.9008 26.0113V24.4864H77.6052V25.7859C77.6052 25.874 77.6333 25.9198 77.6967 25.9198H81.2607V26.279C81.2607 26.3741 81.2396 26.4445 81.1973 26.4938C81.1551 26.5431 81.0811 26.5678 80.9825 26.5678H77.4396H77.4361Z" fill="#27BDBE"/>
<path d="M36.7706 45.6139C35.619 46.0083 33.4355 46.5472 31.2556 46.5472C28.2409 46.5472 26.0575 45.7865 24.5396 44.3109C23.0182 42.8846 22.1871 40.7222 22.2117 38.2887C22.2364 32.7807 26.2336 29.6357 31.65 29.6357C33.7842 29.6357 35.4253 30.0548 36.2353 30.4457L35.45 33.4463C34.5414 33.0518 33.4144 32.7349 31.6007 32.7349C28.4875 32.7349 26.1349 34.5063 26.1349 38.095C26.1349 41.6836 28.2691 43.529 31.333 43.529C32.1923 43.529 32.8791 43.4304 33.1714 43.2825V39.8171H30.6216V36.8905H36.7741V45.6174L36.7706 45.6139Z" fill="#27BDBE"/>
<path d="M54.64 40.0318C54.566 38.0421 54.4921 35.6297 54.4921 33.2208H54.4181C53.9039 35.3338 53.2172 37.6969 52.5798 39.6374L50.5688 46.1033H47.6528L45.8884 39.6867C45.3496 37.7462 44.7861 35.3831 44.3917 33.2208H44.3424C44.2438 35.4571 44.1698 38.0139 44.0466 40.0811L43.7507 46.3745H40.2959L41.3489 29.8047H46.3251L47.9416 35.3374C48.4558 37.2567 48.97 39.3204 49.3397 41.2609H49.4137C49.8786 39.3451 50.4421 37.1546 50.9844 35.3127L52.7488 29.8047H57.6264L58.535 46.3745H54.883L54.6365 40.0318H54.64Z" fill="#27BDBE"/>
<path d="M62.3878 30.0268C63.5394 29.8296 65.1594 29.6816 67.438 29.6816C69.7166 29.6816 71.3859 30.1254 72.4882 31.0093C73.5412 31.844 74.2526 33.221 74.2526 34.8445C74.2526 36.468 73.7138 37.8451 72.7312 38.7783C71.4563 39.9828 69.5687 40.5251 67.364 40.5251C66.8745 40.5251 66.4308 40.5004 66.0892 40.4511V46.3747H62.3878V30.0268ZM66.0892 37.5492C66.4097 37.6232 66.8006 37.6478 67.3394 37.6478C69.3257 37.6478 70.5512 36.6406 70.5512 34.9431C70.5512 33.4182 69.4982 32.5096 67.6352 32.5096C66.8745 32.5096 66.3604 32.5836 66.0892 32.6575V37.5492V37.5492Z" fill="#27BDBE"/>
<path d="M81.5813 38.3906C81.6623 38.7252 81.7116 39.0598 81.7116 39.4014C81.7116 45.8743 66.7019 51.1217 48.1916 51.1217C29.6813 51.1217 14.6716 45.8743 14.6716 39.4014C14.6716 39.0598 14.7245 38.7252 14.8019 38.3941C12.4318 40.1409 11.1006 42.099 11.1006 44.1733C11.1006 51.495 27.7056 57.4292 48.1916 57.4292C68.6776 57.4292 85.2827 51.495 85.2827 44.1733C85.2827 42.099 83.9514 40.1374 81.5813 38.3906V38.3906Z" fill="#FBB03F"/>
<path d="M48.1916 0C21.5777 0 0 17.9081 0 40C0 62.0919 21.5777 80 48.1916 80C74.8054 80 96.3832 62.0919 96.3832 40C96.3832 17.9081 74.8089 0 48.1916 0ZM48.1916 2.77161C72.9635 2.77161 93.0445 19.44 93.0445 40C93.0445 47.3252 90.4948 54.1539 86.0961 59.912H10.2905C5.89188 54.1539 3.34214 47.3252 3.34214 40C3.33862 19.44 23.4231 2.77161 48.1916 2.77161Z" fill="#27BDBE"/>
<path d="M23.3668 66.0501C23.0956 66.5431 22.113 67.3883 21.3347 67.6102L20.9579 66.8953C21.8911 66.4339 22.9089 65.6838 22.9089 64.5709V63.8067H23.9162V64.5639C23.9162 65.638 24.8424 66.4339 25.8602 66.9129L25.4904 67.6137C24.6874 67.3355 23.8915 66.6981 23.3668 66.0536V66.0501ZM26.1701 68.7653H21.7327V68.0821H27.1773V70.5966H26.1701V68.7653ZM26.1701 63.6553H27.1773V67.6982H26.1701V63.6553Z" fill="white"/>
<path d="M31.583 68.1666H33.8052V70.6036H28.3606V68.1666H30.5828V67.6031H28.0331V66.9199H34.1327V67.6031H31.583V68.1666V68.1666ZM28.3606 65.7154H29.1143V64.4899H28.3606V63.8066H33.8052V64.4899H33.041V65.7154H33.8052V66.3986H28.3606V65.7154ZM29.3678 68.8498V69.9169H32.7945V68.8498H29.3678ZM30.1215 64.4899V65.7154H32.0408V64.4899H30.1215Z" fill="white"/>
<path d="M39.9753 69.6704C39.4435 69.9029 39.0315 69.9099 38.4575 69.9099H34.8723V69.2337H38.7181C39.1688 69.2337 39.5069 69.1633 39.9331 69.0189C39.9753 68.9802 39.9753 63.6553 39.9753 63.6553H40.9755V70.5966H39.9753V69.6739V69.6704ZM37.0065 63.7081C39.7112 63.7081 39.7464 68.3709 37.0065 68.3709C34.2666 68.3709 34.3088 63.7081 37.0065 63.7081ZM37.0065 67.6947C38.3765 67.6947 38.3765 64.4089 37.0065 64.4089C35.6365 64.4089 35.6436 67.6947 37.0065 67.6947Z" fill="white"/>
<path d="M43.5921 63.7257C46.3567 63.7257 46.3461 67.5468 43.5921 67.5468C40.8381 67.5468 40.8134 63.7257 43.5921 63.7257ZM46.6032 68.6914H42.1658V68.0152H47.6034V70.5931H46.6032V68.6914ZM43.5921 66.7896C44.9621 66.7896 44.955 64.4829 43.5921 64.4829C42.2292 64.4829 42.1658 66.7896 43.5921 66.7896ZM47.6034 67.6172H46.6032V63.6553H47.6034V64.5005H48.3993V65.2577H47.6034V65.9515H48.3993V66.7086H47.6034V67.6243V67.6172Z" fill="white"/>
<path d="M52.2416 68.1666H54.4638V70.6036H49.0192V68.1666H51.2414V67.6031H48.6917V66.9199H54.7913V67.6031H52.2416V68.1666V68.1666ZM49.0192 65.7154H49.7728V64.4899H49.0192V63.8066H54.4638V64.4899H53.7031V65.7154H54.4638V66.3986H49.0192V65.7154ZM50.0264 68.8498V69.9169H53.4531V68.8498H50.0264ZM50.78 64.4899V65.7154H52.6994V64.4899H50.78Z" fill="white"/>
<path d="M57.4361 63.7258C60.1091 63.7258 60.1021 67.8498 57.4432 67.8498C54.7843 67.8498 54.8019 63.7258 57.4361 63.7258ZM56.1894 68.3956H57.1896V69.9065H61.4545V70.5897H56.1894V68.3921V68.3956ZM57.4432 67.0891C58.7885 67.0891 58.7568 64.4795 57.4361 64.4795C56.1155 64.4795 56.1155 67.0891 57.4432 67.0891ZM61.3699 68.6809H60.3698V63.6519H61.3699V65.4022H62.1658V66.1664H61.3699V68.6809V68.6809Z" fill="white"/>
<path d="M64.7155 66.385C64.3704 66.8147 63.3878 67.6599 62.6412 67.8888L62.2644 67.1739C63.1977 66.6738 64.2154 66.0047 64.2154 64.8425V64.4938H62.6483V63.8106H66.7476V64.4938H65.2227V64.8354C65.2227 65.9096 66.2299 66.7442 67.1596 67.1845L66.8004 67.8853C66.0291 67.6211 65.1698 66.9943 64.7191 66.3885L64.7155 66.385ZM63.2153 68.3114H64.1345V69.9103H68.5719V70.5935H63.2188V68.3079L63.2153 68.3114ZM67.4801 65.9413H66.4799V65.2581H67.4801V63.6592H68.4803V68.6178H67.4801V65.9448V65.9413Z" fill="white"/>
<path d="M71.5196 68.3499C71.1745 68.9627 70.2976 69.6776 69.6566 69.9735L69.2622 69.2902C70.4103 68.5331 71.016 67.7688 71.016 66.3707V64.7965H69.6813V64.1133H71.016V63.5005H72.0162V64.1133H73.3615V64.7965H72.0162V66.3813C72.0162 67.6702 72.6396 68.6317 73.77 69.2938L73.3756 69.977C72.6607 69.6671 71.9563 68.9733 71.5126 68.3535L71.5196 68.3499ZM74.2842 66.6243H73.1115V65.9411H74.2842V63.6484H75.2844V70.5968H74.2842V66.6243Z" fill="white"/>
</g>
<defs>
<clipPath id="clip0_319_1979">
<rect width="96.3867" height="80" fill="white"/>
</clipPath>
</defs>
</svg>
