<svg width="80" height="80" viewBox="0 0 80 80" fill="none" xmlns="http://www.w3.org/2000/svg">
<path d="M37.6105 26.8864V22.6782H34.9388C34.7977 23.0984 34.5782 23.4684 34.2834 23.7851C33.9887 24.1018 33.6437 24.3809 33.2549 24.613C32.8661 24.845 32.4459 25.0457 31.9975 25.2088C31.549 25.3718 31.1038 25.5129 30.6616 25.629L29.9874 24.8011C30.4829 24.66 30.9627 24.5063 31.4299 24.3339C31.8971 24.1645 32.3142 23.9576 32.6779 23.7224C33.0417 23.4841 33.3302 23.205 33.5497 22.8757C33.766 22.5496 33.8758 22.1608 33.8758 21.7092V21.0319C33.8758 20.7371 33.835 20.5302 33.7535 20.4142C33.672 20.2981 33.4807 20.2386 33.1797 20.2386H30.3951V19.2006H33.4148C33.7127 19.2006 33.9699 19.2257 34.1831 19.2759C34.3963 19.326 34.5719 19.4107 34.7068 19.533C34.8416 19.6522 34.942 19.8184 35.0047 20.0285C35.0674 20.2386 35.0987 20.502 35.0987 20.8218V21.6152H37.6136V18.8525H38.8366V26.2091C38.8366 26.4568 38.8021 26.6324 38.7363 26.7328C38.6704 26.8331 38.523 26.8833 38.2972 26.8833H37.6136L37.6105 26.8864ZM33.0291 29.9312C32.7438 29.9312 32.5211 29.8466 32.3549 29.6741C32.1887 29.5048 32.1072 29.2821 32.1072 29.0093V26.1997H33.3302V28.6487C33.3302 28.7961 33.3741 28.8714 33.465 28.8714H39.1031V29.4546C39.1031 29.6114 39.0655 29.7274 38.9902 29.809C38.915 29.8905 38.7927 29.9312 38.6202 29.9312H33.026H33.0291Z" fill="#27BDBE" stroke="#27BDBE" stroke-width="0.7"/>
<path d="M44.7977 21.4301C44.7977 22.004 44.6786 22.5057 44.4434 22.9291C44.2082 23.3524 43.8883 23.7161 43.4901 24.0203C43.0887 24.3245 42.6246 24.5816 42.0978 24.7886C41.571 24.9987 41.0097 25.1774 40.4202 25.3248L39.746 24.4969C40.2257 24.3715 40.6961 24.2304 41.1539 24.0642C41.6149 23.9011 42.0257 23.7036 42.3832 23.4684C42.7438 23.2364 43.0323 22.9573 43.2486 22.6343C43.465 22.3113 43.5748 21.9256 43.5748 21.4741V21.0319C43.5748 20.7371 43.534 20.5302 43.4525 20.4142C43.3709 20.2981 43.1797 20.2386 42.8786 20.2386H40.094V19.2006H43.1138C43.4148 19.2006 43.6688 19.2257 43.8821 19.2759C44.0953 19.326 44.2709 19.4107 44.4057 19.533C44.5406 19.6522 44.6409 19.8184 44.7036 20.0285C44.7664 20.2386 44.7977 20.502 44.7977 20.8218V21.427V21.4301ZM41.4738 27.8303C41.4738 27.3474 41.5929 26.9554 41.8281 26.6481C42.0633 26.3408 42.3549 26.0993 42.703 25.9206C43.0511 25.7418 43.4274 25.6196 43.8319 25.5537C44.2364 25.4878 44.6096 25.4534 44.9545 25.4534C45.2994 25.4534 45.682 25.4878 46.0834 25.5537C46.4848 25.6196 46.8516 25.7418 47.1903 25.9206C47.5258 26.0993 47.8081 26.3408 48.0338 26.6481C48.2596 26.9554 48.3694 27.3505 48.3694 27.8303C48.3694 28.3101 48.2565 28.7052 48.0338 29.0093C47.8081 29.3135 47.529 29.5487 47.1903 29.7212C46.8548 29.8905 46.4848 30.0096 46.0834 30.0724C45.682 30.1351 45.3057 30.1664 44.9545 30.1664C44.6033 30.1664 44.2113 30.1351 43.8037 30.0724C43.396 30.0096 43.0197 29.8968 42.6748 29.7274C42.3299 29.5612 42.0445 29.326 41.8156 29.0219C41.5867 28.7177 41.4738 28.3226 41.4738 27.8334V27.8303ZM42.6967 27.8303C42.6967 28.1094 42.7783 28.3351 42.9382 28.5013C43.0981 28.6675 43.2925 28.7992 43.5214 28.8933C43.7504 28.9874 43.995 29.0501 44.2584 29.0783C44.5218 29.1097 44.7538 29.1254 44.9545 29.1254C45.1552 29.1254 45.3872 29.1097 45.6444 29.0783C45.9015 29.047 46.143 28.9874 46.3687 28.8964C46.5945 28.8055 46.7827 28.6769 46.9363 28.5045C47.09 28.332 47.1652 28.1094 47.1652 27.8271C47.1652 27.5449 47.0868 27.3191 46.93 27.1467C46.7733 26.9711 46.582 26.8362 46.3562 26.739C46.1304 26.6418 45.8921 26.576 45.6381 26.5415C45.3841 26.507 45.1583 26.4882 44.9639 26.4882C44.7695 26.4882 44.528 26.507 44.2678 26.5415C44.0044 26.576 43.7598 26.6418 43.5277 26.739C43.2957 26.8362 43.0981 26.9711 42.9382 27.1467C42.7783 27.3223 42.6967 27.5481 42.6967 27.8271V27.8303ZM47.0335 25.2527V18.8525H48.2565V21.242H49.7711V22.3019H48.2565V24.6098C48.2565 24.8356 48.2188 24.9987 48.1436 25.099C48.0683 25.1994 47.9209 25.2495 47.7046 25.2495H47.0304L47.0335 25.2527Z" fill="#27BDBE" stroke="#27BDBE" stroke-width="0.7"/>
<path d="M20.3606 40.6557C20.5864 40.5867 20.8247 40.5083 21.0787 40.4236C21.3327 40.339 21.5836 40.2417 21.8313 40.1383C22.079 40.0348 22.3142 39.9156 22.54 39.7871C22.7657 39.6585 22.9633 39.5174 23.1358 39.3606C23.2988 39.2195 23.4556 39.069 23.603 38.9059C23.7504 38.7428 23.8789 38.5704 23.9918 38.3916C24.1047 38.2129 24.1925 38.0216 24.2552 37.8209C24.3179 37.6202 24.3493 37.4101 24.3493 37.1906V35.2778C24.3493 34.9893 24.296 34.7918 24.1925 34.6757C24.089 34.5629 23.8633 34.5064 23.5183 34.5064H20.6554V33.4465H23.7316C24.0671 33.4465 24.3524 33.4779 24.5845 33.5406C24.8165 33.6033 25.0047 33.7005 25.1521 33.8385C25.2994 33.9733 25.4061 34.1521 25.4719 34.3747C25.5378 34.5973 25.5723 34.867 25.5723 35.1837V37.1781C25.5723 37.7143 25.4562 38.2129 25.2242 38.677C24.9921 39.138 24.6754 39.5519 24.2709 39.9188C23.8883 40.27 23.4274 40.5835 22.888 40.8626C22.3487 41.1417 21.7278 41.3644 21.0222 41.5274L20.3606 40.6525V40.6557ZM27.9523 43.92V32.8413H29.1753V43.2301C29.1753 43.4873 29.1314 43.666 29.0404 43.7664C28.9495 43.8667 28.8021 43.9169 28.592 43.9169H27.9523V43.92Z" fill="#27BDBE" stroke="#27BDBE" stroke-width="0.7"/>
<path d="M29.7052 37.8712H39.8369V38.3729C39.8369 38.7461 39.6644 38.9311 39.3195 38.9311H29.7052V37.8712ZM31.063 41.9164C31.063 41.5369 31.1571 41.2045 31.3483 40.9192C31.5396 40.637 31.803 40.3987 32.1386 40.2074C32.4772 40.0161 32.8692 39.875 33.3239 39.7809C33.7754 39.6868 34.2678 39.6398 34.8008 39.6398C35.2963 39.6398 35.7635 39.69 36.2119 39.784C36.6572 39.8813 37.0492 40.0255 37.3847 40.2168C37.7203 40.4081 37.9868 40.6432 38.1812 40.9286C38.3756 41.214 38.4728 41.5401 38.4728 41.9132C38.4728 42.2644 38.3819 42.5749 38.1969 42.8508C38.0119 43.1268 37.7579 43.3588 37.4318 43.5501C37.1056 43.7414 36.7199 43.8856 36.2684 43.986C35.82 44.0863 35.3277 44.1365 34.7977 44.1365C34.296 44.1365 33.8193 44.0926 33.3647 44.0017C32.9131 43.9107 32.5149 43.779 32.1731 43.6003C31.8313 43.4215 31.5616 43.1926 31.3578 42.9135C31.1571 42.6345 31.0536 42.2989 31.0536 41.9101L31.063 41.9164ZM32.2295 36.9368C31.8313 36.9368 31.549 36.8646 31.3828 36.7204C31.2135 36.5761 31.1288 36.2908 31.1288 35.8643V32.7505H31.7027C31.8971 32.7505 32.057 32.8289 32.1793 32.9888C32.3016 33.1487 32.3643 33.3306 32.3643 33.5313V35.6291C32.3643 35.7295 32.3737 35.7985 32.3926 35.833C32.4114 35.8675 32.4584 35.8863 32.5337 35.8863H38.5638V36.4476C38.5638 36.6044 38.523 36.7235 38.4446 36.8082C38.3662 36.8929 38.2377 36.9368 38.0558 36.9368H32.2264H32.2295ZM32.3204 41.9164C32.3204 42.0951 32.3769 42.255 32.496 42.3993C32.6121 42.5435 32.7783 42.6658 32.9946 42.7662C33.211 42.8665 33.4744 42.948 33.7817 43.0045C34.089 43.0641 34.4277 43.0923 34.804 43.0923C35.1803 43.0923 35.4938 43.0641 35.7917 43.0108C36.0896 42.9574 36.3468 42.8759 36.56 42.7724C36.7732 42.6658 36.9394 42.5435 37.0555 42.3993C37.1715 42.255 37.2279 42.0951 37.2279 41.9164C37.2279 41.7376 37.1684 41.562 37.0492 41.4146C36.93 41.2673 36.7607 41.1418 36.5443 41.0352C36.328 40.9317 36.0708 40.8502 35.7761 40.7906C35.4813 40.731 35.1615 40.7028 34.8165 40.7028C34.0232 40.7028 33.4086 40.8126 32.9758 41.0289C32.5431 41.2453 32.3236 41.5432 32.3236 41.9164H32.3204Z" fill="#27BDBE" stroke="#27BDBE" stroke-width="0.7"/>
<path d="M43.3616 35.1522C43.3616 35.4783 43.4337 35.7825 43.5811 36.0615C43.7285 36.3406 43.926 36.6009 44.1831 36.8424C44.4371 37.0838 44.7319 37.3096 45.0643 37.5197C45.3967 37.7298 45.751 37.9305 46.1242 38.1249L45.428 38.9182C45.2023 38.8179 44.9671 38.6893 44.7162 38.5325C44.4654 38.3758 44.2208 38.2096 43.9793 38.0308C43.741 37.8521 43.5121 37.6671 43.2989 37.4726C43.0856 37.2782 42.9069 37.0932 42.7658 36.9113C42.4961 37.2845 42.1355 37.6733 41.6871 38.0779C41.2386 38.4824 40.715 38.843 40.116 39.1628L39.307 38.3569C39.6519 38.1845 39.9906 37.9869 40.323 37.7549C40.6554 37.526 40.9564 37.272 41.223 36.996C41.4895 36.7201 41.7027 36.4253 41.8627 36.1149C42.0226 35.8044 42.1041 35.4783 42.1041 35.1365V32.9916H42.9006C43.1013 32.9916 43.2299 33.0418 43.2832 33.1359C43.3365 33.2331 43.3616 33.3648 43.3616 33.5278V35.149V35.1522ZM47.5729 43.9198V41.1102C47.5729 41.0004 47.5228 40.9471 47.4255 40.9471H41.9003V39.8966H47.8865C48.1562 39.8966 48.3757 39.9687 48.545 40.113C48.7143 40.2572 48.799 40.4642 48.799 40.737V43.208C48.799 43.4714 48.7551 43.6564 48.6642 43.763C48.5732 43.8696 48.429 43.9198 48.2252 43.9198H47.5729V43.9198ZM47.6074 39.2914V32.8442H48.8304V38.5576C48.8304 38.8054 48.7927 38.9904 48.7175 39.1127C48.6422 39.2318 48.4886 39.2945 48.2565 39.2945H47.6043L47.6074 39.2914Z" fill="#27BDBE" stroke="#27BDBE" stroke-width="0.7"/>
<path d="M49.6958 37.8709H59.8275V38.3727C59.8275 38.7458 59.655 38.9308 59.3101 38.9308H55.3778V40.0158H58.4227V42.4178C58.4227 42.907 58.3067 43.2864 58.0746 43.5561C57.8426 43.8226 57.4694 43.9575 56.952 43.9575H52.1793C51.894 43.9575 51.6494 43.8571 51.4424 43.6533C51.2355 43.4526 51.132 43.1547 51.132 42.7659V40.0127H54.1643V38.9277H49.6958V37.8678V37.8709ZM51.9975 33.9637H50.74V32.9478H58.7927V33.9637H57.5352V35.5034C57.5352 35.5881 57.529 35.6727 57.5133 35.7543C57.4976 35.8358 57.4788 35.9205 57.4569 36.0051H59.0404V36.4598C59.0404 36.833 58.8648 37.0211 58.5136 37.0211H50.5393V36.0051H52.079C52.057 35.9267 52.0382 35.8452 52.0225 35.7605C52.0069 35.6759 52.0006 35.5849 52.0006 35.4909V33.9637H51.9975ZM56.6823 42.907C56.8548 42.907 56.9865 42.8819 57.0806 42.8317C57.1746 42.7816 57.2217 42.6655 57.2217 42.4868V41.0537H52.3361V42.6279C52.3361 42.8129 52.4208 42.907 52.5933 42.907H56.6823V42.907ZM55.9642 36.0051C56.1053 36.0051 56.2025 35.9612 56.2496 35.8766C56.2998 35.7919 56.3217 35.6696 56.3217 35.516V33.9637H53.211V35.5254C53.211 35.6727 53.2361 35.7888 53.2894 35.8766C53.3427 35.9612 53.4305 36.0051 53.5591 36.0051H55.9611H55.9642Z" fill="#27BDBE" stroke="#27BDBE" stroke-width="0.7"/>
<path d="M67.7108 37.9333C67.7767 38.2093 67.8206 38.4883 67.8206 38.7706C67.8206 44.1422 55.3653 48.4978 40 48.4978C24.6347 48.4978 12.1793 44.1422 12.1793 38.7706C12.1793 38.4883 12.2232 38.2093 12.286 37.9333C10.3198 39.382 9.21289 41.0095 9.21289 42.7279C9.21289 48.8051 22.9946 53.7282 39.9968 53.7282C56.999 53.7282 70.7839 48.8019 70.7839 42.7279C70.7839 41.0095 69.6801 39.3789 67.7108 37.9302V37.9333Z" fill="#FBB03F"/>
<path d="M40 0C17.9084 0 0 17.9084 0 40C0 62.0916 17.9084 80 40 80C62.0916 80 80 62.0916 80 40C80 17.9084 62.0916 0 40 0ZM40 2.77203C60.5613 2.77203 77.228 19.4387 77.228 40C77.228 47.322 75.1113 54.1518 71.4613 59.9091H8.53873C4.88868 54.1518 2.77203 47.322 2.77203 40C2.77203 19.4387 19.4387 2.77203 40 2.77203Z" fill="#27BDBE"/>
<path d="M19.3948 65.431C19.169 65.8417 18.3537 66.541 17.7077 66.726L17.3942 66.1302C18.1687 65.7477 19.0122 65.1268 19.0122 64.2017V63.5683H19.8495V64.1955C19.8495 65.086 20.6177 65.7477 21.4613 66.1459L21.154 66.726C20.486 66.494 19.8275 65.9672 19.3917 65.431H19.3948ZM21.7215 67.6856H18.0401V67.118H22.5588V69.2064H21.7215V67.6856ZM21.7215 63.4429H22.5588V66.7982H21.7215V63.4429Z" fill="white"/>
<path d="M26.212 67.1902H28.0559V69.2128H23.5372V67.1902H25.3811V66.7198H23.2644V66.1522H28.3256V66.7198H26.2089V67.1902H26.212ZM23.5372 65.1551H24.1644V64.1359H23.5372V63.5684H28.0559V64.1359H27.4224V65.1551H28.0559V65.7226H23.5372V65.1551ZM24.3745 67.7578V68.642H27.2186V67.7578H24.3745V67.7578ZM25.0016 64.1359V65.1551H26.5946V64.1359H25.0016Z" fill="white"/>
<path d="M33.1796 68.4382C32.7375 68.6294 32.3957 68.6357 31.9222 68.6357H28.9495V68.0744H32.1417C32.5148 68.0744 32.7939 68.0148 33.1483 67.8957C33.1828 67.8612 33.1828 63.4429 33.1828 63.4429H34.0137V69.2064H33.1828V68.4413L33.1796 68.4382ZM30.718 63.4899C32.9633 63.4899 32.9915 67.3626 30.718 67.3626C28.4446 67.3626 28.4791 63.4899 30.718 63.4899ZM30.718 66.8013C31.8532 66.8013 31.8532 64.0732 30.718 64.0732C29.5829 64.0732 29.5892 66.8013 30.718 66.8013Z" fill="white"/>
<path d="M36.1806 63.5024C38.4729 63.5024 38.4666 66.6727 36.1806 66.6727C33.8946 66.6727 33.8727 63.5024 36.1806 63.5024ZM38.6767 67.626H34.9953V67.0647H39.5077V69.2064H38.6767V67.626V67.626ZM36.1806 66.0456C37.3158 66.0456 37.3095 64.1296 36.1806 64.1296C35.0517 64.1296 34.9953 66.0456 36.1806 66.0456ZM39.5077 66.7323H38.6767V63.4429H39.5077V64.1421H40.1662V64.7693H39.5077V65.3432H40.1662V65.9703H39.5077V66.7292V66.7323Z" fill="white"/>
<path d="M43.3584 67.1902H45.2022V69.2128H40.6836V67.1902H42.5274V66.7198H40.4108V66.1522H45.4719V66.7198H43.3553V67.1902H43.3584ZM40.6836 65.1551H41.3107V64.1359H40.6836V63.5684H45.2022V64.1359H44.5688V65.1551H45.2022V65.7226H40.6836V65.1551ZM41.5208 67.7578V68.642H44.365V67.7578H41.5208ZM42.148 64.1359V65.1551H43.741V64.1359H42.148Z" fill="white"/>
<path d="M47.6733 63.5027C49.8903 63.5027 49.884 66.9269 47.6796 66.9269C45.4751 66.9269 45.4877 63.5027 47.6733 63.5027ZM46.6385 67.3816H47.4695V68.6359H51.0066V69.2035H46.6385V67.3785V67.3816ZM47.6796 66.2966C48.7959 66.2966 48.7677 64.1298 47.6733 64.1298C46.5789 64.1298 46.5789 66.2966 47.6796 66.2966ZM50.9376 67.6168H50.1067V63.4399H50.9376V64.8949H51.5962V65.5284H50.9376V67.6168Z" fill="white"/>
<path d="M53.7127 65.71C53.4274 66.0675 52.6121 66.7668 51.9912 66.9581L51.6776 66.3623C52.4521 65.9452 53.2957 65.3902 53.2957 64.4275V64.1359H51.9975V63.5683H55.3998V64.1359H54.1329V64.4212C54.1329 65.3118 54.9702 66.0079 55.7384 66.3717L55.4405 66.9518C54.8008 66.7323 54.0859 66.2118 53.7127 65.71V65.71ZM52.4678 67.3093H53.2298V68.6389H56.9112V69.2064H52.4678V67.3093V67.3093ZM56.005 65.34H55.174V64.7724H56.005V63.4429H56.836V67.5601H56.005V65.34V65.34Z" fill="white"/>
<path d="M59.3603 67.3408C59.075 67.8488 58.3475 68.4446 57.8144 68.6892L57.4883 68.1216C58.4416 67.4944 58.9433 66.8579 58.9433 65.6976V64.39H57.8332V63.8224H58.9433V63.3145H59.7743V63.8224H60.8906V64.39H59.7743V65.7039C59.7743 66.7732 60.2917 67.5728 61.2293 68.1216L60.9031 68.6892C60.3105 68.432 59.7272 67.8551 59.3572 67.3408H59.3603ZM61.6526 65.9077H60.6805V65.3402H61.6526V63.4367H62.4836V69.2066H61.6526V65.9077Z" fill="white"/>
</svg>
