<svg width="22" height="15" viewBox="0 0 22 15" fill="none" xmlns="http://www.w3.org/2000/svg">
<path d="M20.9501 3.721L20.9251 3.553L20.8991 3.559C20.7214 2.72804 20.312 1.96437 19.7184 1.35635C19.1248 0.748335 18.3711 0.320824 17.5446 0.123283C16.7182 -0.0742571 15.8527 -0.0337537 15.0483 0.240108C14.2438 0.513969 13.5334 1.00999 12.9992 1.67079C12.4649 2.33159 12.1287 3.13015 12.0294 3.97408C11.9301 4.818 12.0717 5.6728 12.438 6.43957C12.8042 7.20634 13.3801 7.85373 14.099 8.30685C14.8178 8.75997 15.6503 9.00029 16.5001 9C16.7231 9 16.9371 8.966 17.1501 8.935C17.0811 9.167 17.0101 9.403 16.8961 9.615C16.7821 9.923 16.6041 10.19 16.4271 10.459C16.2791 10.75 16.0181 10.947 15.8261 11.196C15.6251 11.438 15.3511 11.599 15.1341 11.8C14.9211 12.01 14.6421 12.115 14.4201 12.263C14.1881 12.396 13.9861 12.543 13.7701 12.613L13.2311 12.835L12.7571 13.032L13.2411 14.971L13.8381 14.827C14.0291 14.779 14.2621 14.723 14.5271 14.656C14.7981 14.606 15.0871 14.469 15.4091 14.344C15.7261 14.201 16.0951 14.106 16.4371 13.877C16.7811 13.659 17.1781 13.477 17.5281 13.185C17.8671 12.884 18.2761 12.623 18.5781 12.241C18.9081 11.883 19.2341 11.507 19.4871 11.079C19.7801 10.671 19.9791 10.223 20.1891 9.78C20.3791 9.337 20.5321 8.884 20.6571 8.444C20.8941 7.562 21.0001 6.724 21.0411 6.007C21.0751 5.289 21.0551 4.692 21.0131 4.26C20.999 4.07959 20.978 3.89979 20.9501 3.721V3.721ZM9.95005 3.721L9.92505 3.553L9.89905 3.559C9.72136 2.72804 9.31202 1.96437 8.71839 1.35635C8.12477 0.748335 7.37112 0.320824 6.54465 0.123283C5.71818 -0.0742571 4.85267 -0.0337537 4.04826 0.240108C3.24385 0.513969 2.53342 1.00999 1.99917 1.67079C1.46492 2.33159 1.12869 3.13015 1.02938 3.97408C0.930064 4.818 1.07173 5.6728 1.43799 6.43957C1.80424 7.20634 2.38012 7.85373 3.09898 8.30685C3.81784 8.75997 4.6503 9.00029 5.50005 9C5.72305 9 5.93705 8.966 6.15005 8.935C6.08105 9.167 6.01005 9.403 5.89605 9.615C5.78205 9.923 5.60405 10.19 5.42705 10.459C5.27905 10.75 5.01805 10.947 4.82605 11.196C4.62505 11.438 4.35105 11.599 4.13405 11.8C3.92105 12.01 3.64205 12.115 3.42005 12.263C3.18805 12.396 2.98605 12.543 2.77005 12.613L2.23105 12.835C1.93005 12.958 1.75805 13.03 1.75805 13.03L2.24205 14.969L2.83905 14.825C3.03005 14.777 3.26305 14.721 3.52805 14.654C3.79905 14.604 4.08805 14.467 4.41005 14.342C4.72705 14.199 5.09605 14.104 5.43805 13.875C5.78205 13.657 6.17905 13.475 6.52905 13.183C6.86805 12.882 7.27705 12.621 7.57905 12.239C7.90905 11.881 8.23505 11.505 8.48805 11.077C8.78105 10.669 8.98005 10.221 9.19005 9.778C9.38005 9.335 9.53305 8.882 9.65805 8.442C9.89505 7.56 10.0011 6.722 10.0421 6.005C10.0761 5.287 10.0561 4.69 10.0141 4.258C9.99912 4.0783 9.97777 3.89918 9.95005 3.721V3.721Z" fill="#686868"/>
</svg>
