<svg width="75" height="69" viewBox="0 0 75 69" fill="none" xmlns="http://www.w3.org/2000/svg">
<path d="M37.5 0C58.2107 0 75 13.0857 75 29.2321C75 45.375 58.2107 58.4607 37.5 58.4607C35.4378 58.4618 33.3776 58.3306 31.3321 58.0679L15.5893 68.3643C13.8 69.3107 13.1679 69.2071 13.9036 66.8893L17.0893 53.7536C6.80357 48.5393 0 39.5036 0 29.2321C0 13.0893 16.7893 0 37.5 0ZM58.5964 28.7857L63.8464 23.7C64.1494 23.3854 64.3184 22.9655 64.3178 22.5287C64.3173 22.092 64.1473 21.6725 63.8436 21.3586C63.5399 21.0447 63.1262 20.861 62.6897 20.846C62.2533 20.8311 61.828 20.9862 61.5036 21.2786L54.6179 27.9429V22.4357C54.6179 21.9886 54.4403 21.5599 54.1241 21.2437C53.808 20.9276 53.3792 20.75 52.9321 20.75C52.4851 20.75 52.0563 20.9276 51.7402 21.2437C51.424 21.5599 51.2464 21.9886 51.2464 22.4357V31.5679C51.1833 31.8284 51.1833 32.1002 51.2464 32.3607V37.5C51.2464 37.9471 51.424 38.3758 51.7402 38.692C52.0563 39.0081 52.4851 39.1857 52.9321 39.1857C53.3792 39.1857 53.808 39.0081 54.1241 38.692C54.4403 38.3758 54.6179 37.9471 54.6179 37.5V32.6321L56.1429 31.1571L61.2429 38.4179C61.3702 38.5991 61.532 38.7535 61.719 38.8723C61.906 38.991 62.1146 39.0718 62.3328 39.1099C62.551 39.1481 62.7746 39.1428 62.9908 39.0946C63.207 39.0463 63.4116 38.9559 63.5929 38.8286C63.7741 38.7012 63.9285 38.5394 64.0473 38.3524C64.166 38.1654 64.2468 37.9569 64.2849 37.7386C64.3231 37.5204 64.3178 37.2968 64.2696 37.0806C64.2213 36.8644 64.1309 36.6598 64.0036 36.4786L58.5964 28.7821V28.7857ZM48.0321 35.6571H42.8179V22.4893C42.7979 22.0561 42.6118 21.6473 42.2982 21.3478C41.9845 21.0483 41.5676 20.8811 41.1339 20.8811C40.7003 20.8811 40.2833 21.0483 39.9697 21.3478C39.6561 21.6473 39.47 22.0561 39.45 22.4893V37.3429C39.45 38.2714 40.2 39.0286 41.1321 39.0286H48.0321C48.4792 39.0286 48.908 38.851 49.2241 38.5348C49.5403 38.2187 49.7179 37.7899 49.7179 37.3429C49.7179 36.8958 49.5403 36.467 49.2241 36.1509C48.908 35.8347 48.4792 35.6571 48.0321 35.6571ZM27.1143 31.7571L29.6 25.6607L31.8786 31.7571H27.1143ZM36.125 33.5L36.1321 33.4429C36.1313 33.0182 35.9692 32.6097 35.6786 32.3L31.9429 22.3C31.7863 21.8235 31.488 21.4061 31.0878 21.1036C30.6877 20.8011 30.2048 20.6279 29.7036 20.6071C29.1987 20.6049 28.7051 20.7565 28.2885 21.0417C27.8719 21.3268 27.552 21.7321 27.3714 22.2036L21.4393 36.7571C21.3556 36.9621 21.313 37.1815 21.3141 37.4029C21.3152 37.6243 21.3599 37.8433 21.4456 38.0475C21.5314 38.2516 21.6564 38.4368 21.8138 38.5926C21.9711 38.7484 22.1575 38.8716 22.3625 38.9554C22.5675 39.0391 22.7869 39.0816 23.0083 39.0805C23.2297 39.0794 23.4487 39.0347 23.6528 38.949C23.8569 38.8633 24.0422 38.7382 24.198 38.5809C24.3537 38.4236 24.477 38.2371 24.5607 38.0321L25.7393 35.1286H33.1321L34.2 37.9857C34.2726 38.1993 34.3873 38.3961 34.5374 38.5645C34.6874 38.7329 34.8698 38.8695 35.0736 38.9662C35.2774 39.0629 35.4985 39.1177 35.7239 39.1273C35.9492 39.137 36.1742 39.1013 36.3856 39.0224C36.5969 38.9435 36.7902 38.823 36.9541 38.6681C37.118 38.5131 37.2492 38.3268 37.3398 38.1202C37.4304 37.9136 37.4786 37.691 37.4816 37.4654C37.4846 37.2399 37.4422 37.016 37.3571 36.8071L36.125 33.5ZM24.2607 22.5071C24.2607 22.0607 24.0836 21.6325 23.7682 21.3164C23.4529 21.0004 23.025 20.8224 22.5786 20.8214H10.9893C10.5422 20.8214 10.1134 20.999 9.79731 21.3152C9.48117 21.6313 9.30357 22.0601 9.30357 22.5071C9.30357 22.9542 9.48117 23.383 9.79731 23.6991C10.1134 24.0153 10.5422 24.1929 10.9893 24.1929H15.1321V37.5357C15.1321 37.9828 15.3097 38.4116 15.6259 38.7277C15.942 39.0438 16.3708 39.2214 16.8179 39.2214C17.2649 39.2214 17.6937 39.0438 18.0098 38.7277C18.326 38.4116 18.5036 37.9828 18.5036 37.5357V24.1929H22.575C23.5071 24.1929 24.2607 23.4357 24.2607 22.5071Z" fill="#9F9F9F"/>
</svg>
