<svg width="60" height="60" viewBox="0 0 60 60" fill="none" xmlns="http://www.w3.org/2000/svg">
<path d="M30.1445 40.4262L18.4261 52.1446C17.0073 53.5139 15.1125 54.2792 13.1407 54.2792C11.169 54.2792 9.27415 53.5139 7.85537 52.1446C7.15952 51.4515 6.60739 50.6279 6.23065 49.7209C5.85391 48.8139 5.65997 47.8414 5.65997 46.8593C5.65997 45.8771 5.85391 44.9047 6.23065 43.9977C6.60739 43.0907 7.15952 42.267 7.85537 41.5739L19.5738 29.8555C20.1425 29.2867 20.462 28.5154 20.462 27.7111C20.462 26.9068 20.1425 26.1355 19.5738 25.5668C19.0051 24.998 18.2337 24.6785 17.4294 24.6785C16.6252 24.6785 15.8538 24.998 15.2851 25.5668L3.56666 37.3154C1.20593 39.885 -0.0708218 43.2672 0.00303452 46.7558C0.0768908 50.2444 1.49565 53.5696 3.96301 56.037C6.43038 58.5044 9.75557 59.9231 13.2442 59.997C16.7328 60.0708 20.115 58.7941 22.6846 56.4333L34.4333 44.7149C35.002 44.1462 35.3215 43.3749 35.3215 42.5706C35.3215 41.7663 35.002 40.9949 34.4333 40.4262C33.8645 39.8575 33.0932 39.538 32.2889 39.538C31.4846 39.538 30.7133 39.8575 30.1445 40.4262ZM56.058 3.94202C53.5173 1.41714 50.0809 0 46.499 0C42.9171 0 39.4807 1.41714 36.94 3.94202L25.1914 15.6605C24.9098 15.9421 24.6864 16.2764 24.534 16.6443C24.3816 17.0122 24.3032 17.4066 24.3032 17.8048C24.3032 18.203 24.3816 18.5974 24.534 18.9653C24.6864 19.3332 24.9098 19.6676 25.1914 19.9492C25.473 20.2308 25.8073 20.4541 26.1752 20.6065C26.5432 20.7589 26.9375 20.8374 27.3357 20.8374C27.734 20.8374 28.1283 20.7589 28.4963 20.6065C28.8642 20.4541 29.1985 20.2308 29.4801 19.9492L41.1985 8.23072C42.6173 6.86144 44.5121 6.09621 46.4839 6.09621C48.4557 6.09621 50.3505 6.86144 51.7693 8.23072C52.4651 8.92382 53.0173 9.7475 53.394 10.6545C53.7707 11.5615 53.9647 12.534 53.9647 13.5161C53.9647 14.4982 53.7707 15.4707 53.394 16.3777C53.0173 17.2847 52.4651 18.1084 51.7693 18.8015L40.0508 30.5199C39.7678 30.8007 39.5431 31.1347 39.3897 31.5028C39.2364 31.8708 39.1575 32.2656 39.1575 32.6643C39.1575 33.063 39.2364 33.4577 39.3897 33.8258C39.5431 34.1938 39.7678 34.5278 40.0508 34.8086C40.3316 35.0917 40.6657 35.3164 41.0337 35.4697C41.4017 35.623 41.7965 35.702 42.1952 35.702C42.5939 35.702 42.9887 35.623 43.3567 35.4697C43.7247 35.3164 44.0588 35.0917 44.3395 34.8086L56.058 23.06C58.5829 20.5193 60 17.0829 60 13.501C60 9.9191 58.5829 6.48268 56.058 3.94202ZM20.2382 39.7618C20.5205 40.0417 20.8551 40.2631 21.2231 40.4134C21.5911 40.5637 21.9851 40.6399 22.3826 40.6376C22.7801 40.6399 23.1741 40.5637 23.5421 40.4134C23.91 40.2631 24.2447 40.0417 24.5269 39.7618L39.3864 24.9023C39.9551 24.3336 40.2746 23.5622 40.2746 22.758C40.2746 21.9537 39.9551 21.1823 39.3864 20.6136C38.8177 20.0449 38.0463 19.7254 37.242 19.7254C36.4378 19.7254 35.6664 20.0449 35.0977 20.6136L20.2382 35.4731C19.9552 35.7538 19.7305 36.0879 19.5771 36.4559C19.4238 36.8239 19.3449 37.2187 19.3449 37.6174C19.3449 38.0161 19.4238 38.4109 19.5771 38.7789C19.7305 39.147 19.9552 39.481 20.2382 39.7618Z" fill="#9F9F9F"/>
</svg>
