<svg width="860" height="20" viewBox="0 0 860 20" fill="none" xmlns="http://www.w3.org/2000/svg">
<rect y="8" width="20" height="4" fill="#424347"/>
<rect x="12" width="20" height="4" transform="rotate(90 12 0)" fill="#424347"/>
<rect x="120" y="8" width="20" height="4" fill="#424347"/>
<rect x="132" width="20" height="4" transform="rotate(90 132 0)" fill="#424347"/>
<rect x="240" y="8" width="20" height="4" fill="#424347"/>
<rect x="252" width="20" height="4" transform="rotate(90 252 0)" fill="#424347"/>
<rect x="360" y="8" width="20" height="4" fill="#424347"/>
<rect x="372" width="20" height="4" transform="rotate(90 372 0)" fill="#424347"/>
<rect x="480" y="8" width="20" height="4" fill="#424347"/>
<rect x="492" width="20" height="4" transform="rotate(90 492 0)" fill="#424347"/>
<rect x="600" y="8" width="20" height="4" fill="#424347"/>
<rect x="612" width="20" height="4" transform="rotate(90 612 0)" fill="#424347"/>
<rect x="720" y="8" width="20" height="4" fill="#424347"/>
<rect x="732" width="20" height="4" transform="rotate(90 732 0)" fill="#424347"/>
<rect x="840" y="8" width="20" height="4" fill="#424347"/>
<rect x="852" width="20" height="4" transform="rotate(90 852 0)" fill="#424347"/>
</svg>
