<svg width="1770" height="10" viewBox="0 0 1770 10" fill="none" xmlns="http://www.w3.org/2000/svg">
<rect y="4" width="10" height="2" fill="#2DCD6F"/>
<rect x="6" width="10" height="2" transform="rotate(90 6 0)" fill="#2DCD6F"/>
<rect x="110" y="4" width="10" height="2" fill="#2DCD6F"/>
<rect x="116" width="10" height="2" transform="rotate(90 116 0)" fill="#2DCD6F"/>
<rect x="220" y="4" width="10" height="2" fill="#2DCD6F"/>
<rect x="226" width="10" height="2" transform="rotate(90 226 0)" fill="#2DCD6F"/>
<rect x="330" y="4" width="10" height="2" fill="#2DCD6F"/>
<rect x="336" width="10" height="2" transform="rotate(90 336 0)" fill="#2DCD6F"/>
<rect x="440" y="4" width="10" height="2" fill="#2DCD6F"/>
<rect x="446" width="10" height="2" transform="rotate(90 446 0)" fill="#2DCD6F"/>
<rect x="550" y="4" width="10" height="2" fill="#2DCD6F"/>
<rect x="556" width="10" height="2" transform="rotate(90 556 0)" fill="#2DCD6F"/>
<rect x="660" y="4" width="10" height="2" fill="#2DCD6F"/>
<rect x="666" width="10" height="2" transform="rotate(90 666 0)" fill="#2DCD6F"/>
<rect x="770" y="4" width="10" height="2" fill="#2DCD6F"/>
<rect x="776" width="10" height="2" transform="rotate(90 776 0)" fill="#2DCD6F"/>
<rect x="880" y="4" width="10" height="2" fill="#2DCD6F"/>
<rect x="886" width="10" height="2" transform="rotate(90 886 0)" fill="#2DCD6F"/>
<rect x="990" y="4" width="10" height="2" fill="#2DCD6F"/>
<rect x="996" width="10" height="2" transform="rotate(90 996 0)" fill="#2DCD6F"/>
<rect x="1100" y="4" width="10" height="2" fill="#2DCD6F"/>
<rect x="1106" width="10" height="2" transform="rotate(90 1106 0)" fill="#2DCD6F"/>
<rect x="1210" y="4" width="10" height="2" fill="#2DCD6F"/>
<rect x="1216" width="10" height="2" transform="rotate(90 1216 0)" fill="#2DCD6F"/>
<rect x="1320" y="4" width="10" height="2" fill="#2DCD6F"/>
<rect x="1326" width="10" height="2" transform="rotate(90 1326 0)" fill="#2DCD6F"/>
<rect x="1430" y="4" width="10" height="2" fill="#2DCD6F"/>
<rect x="1436" width="10" height="2" transform="rotate(90 1436 0)" fill="#2DCD6F"/>
<rect x="1540" y="4" width="10" height="2" fill="#2DCD6F"/>
<rect x="1546" width="10" height="2" transform="rotate(90 1546 0)" fill="#2DCD6F"/>
<rect x="1650" y="4" width="10" height="2" fill="#2DCD6F"/>
<rect x="1656" width="10" height="2" transform="rotate(90 1656 0)" fill="#2DCD6F"/>
<rect x="1760" y="4" width="10" height="2" fill="#2DCD6F"/>
<rect x="1766" width="10" height="2" transform="rotate(90 1766 0)" fill="#2DCD6F"/>
</svg>
