<svg width="323" height="5" viewBox="0 0 323 5" fill="none" xmlns="http://www.w3.org/2000/svg">
<g clip-path="url(#clip0_501_11367)">
<path d="M2.5 0L2.5 5" stroke="#2DCD6F" stroke-width="0.5"/>
<path d="M5 2.5L-2.38419e-07 2.5" stroke="#2DCD6F" stroke-width="0.5"/>
</g>
<g clip-path="url(#clip1_501_11367)">
<path d="M55.5 0L55.5 5" stroke="#2DCD6F" stroke-width="0.5"/>
<path d="M58 2.5L53 2.5" stroke="#2DCD6F" stroke-width="0.5"/>
</g>
<g clip-path="url(#clip2_501_11367)">
<path d="M108.5 0L108.5 5" stroke="#2DCD6F" stroke-width="0.5"/>
<path d="M111 2.5L106 2.5" stroke="#2DCD6F" stroke-width="0.5"/>
</g>
<g clip-path="url(#clip3_501_11367)">
<path d="M161.5 0L161.5 5" stroke="#2DCD6F" stroke-width="0.5"/>
<path d="M164 2.5L159 2.5" stroke="#2DCD6F" stroke-width="0.5"/>
</g>
<g clip-path="url(#clip4_501_11367)">
<path d="M214.5 0L214.5 5" stroke="#2DCD6F" stroke-width="0.5"/>
<path d="M217 2.5L212 2.5" stroke="#2DCD6F" stroke-width="0.5"/>
</g>
<g clip-path="url(#clip5_501_11367)">
<path d="M267.5 0L267.5 5" stroke="#2DCD6F" stroke-width="0.5"/>
<path d="M270 2.5L265 2.5" stroke="#2DCD6F" stroke-width="0.5"/>
</g>
<g clip-path="url(#clip6_501_11367)">
<path d="M320.5 0L320.5 5" stroke="#2DCD6F" stroke-width="0.5"/>
<path d="M323 2.5L318 2.5" stroke="#2DCD6F" stroke-width="0.5"/>
</g>
<defs>
<clipPath id="clip0_501_11367">
<rect width="5" height="5" fill="white"/>
</clipPath>
<clipPath id="clip1_501_11367">
<rect width="5" height="5" fill="white" transform="translate(53)"/>
</clipPath>
<clipPath id="clip2_501_11367">
<rect width="5" height="5" fill="white" transform="translate(106)"/>
</clipPath>
<clipPath id="clip3_501_11367">
<rect width="5" height="5" fill="white" transform="translate(159)"/>
</clipPath>
<clipPath id="clip4_501_11367">
<rect width="5" height="5" fill="white" transform="translate(212)"/>
</clipPath>
<clipPath id="clip5_501_11367">
<rect width="5" height="5" fill="white" transform="translate(265)"/>
</clipPath>
<clipPath id="clip6_501_11367">
<rect width="5" height="5" fill="white" transform="translate(318)"/>
</clipPath>
</defs>
</svg>
