<svg width="42" height="42" viewBox="0 0 42 42" fill="none" xmlns="http://www.w3.org/2000/svg">
<g id="cca3 1">
<path id="Vector" fill-rule="evenodd" clip-rule="evenodd" d="M28.0312 8C25.5501 8 23.3949 9.1744 21.7969 11.3971C21.4805 11.8359 21.2173 12.2747 21 12.6817C20.7827 12.2747 20.5185 11.8359 20.2031 11.3971C18.6051 9.1744 16.4489 8 13.9687 8C9.375 8 6 11.8041 6 16.4678C6 21.6667 10.2454 25.2238 16.6715 30.6093C17.869 31.613 19.1058 32.6497 20.4247 33.7859C20.5888 33.929 20.7944 34 21 34C21.2045 34 21.4102 33.929 21.5753 33.7859C22.8931 32.6497 24.131 31.613 25.3285 30.6093C31.7546 25.2238 36 21.6667 36 16.4678C36 11.8051 32.6261 8 28.0312 8ZM24.196 29.2717C23.169 30.1323 22.1133 31.0174 21 31.9702C19.8867 31.0174 18.8299 30.1323 17.804 29.2717C14.3501 26.377 11.5653 24.0431 9.81179 21.7578H13.9687C14.3011 21.7578 14.6058 21.5702 14.755 21.2745L15.7266 19.3412L18.456 24.7723C18.6051 25.068 18.9087 25.2556 19.2422 25.2556C19.5746 25.2556 19.8793 25.068 20.0284 24.7723L21 22.839L21.9716 24.7723C22.1197 25.068 22.4244 25.2556 22.7578 25.2556C23.0902 25.2556 23.3949 25.068 23.544 24.7723L26.2734 19.3412L27.245 21.2745C27.3942 21.5702 27.6978 21.7515 28.0312 21.7515H32.1882C30.4336 24.0378 27.6499 26.377 24.196 29.2717ZM28.5746 20.009L27.0597 16.9945C26.9105 16.6978 26.6069 16.5112 26.2734 16.5112C25.94 16.5112 25.6364 16.6978 25.4872 16.9945L22.7578 22.4256L21.7862 20.4923C21.6371 20.1955 21.3324 20.009 21 20.009C20.6665 20.009 20.3629 20.1955 20.2138 20.4923L19.2422 22.4256L16.5128 16.9945C16.3636 16.6978 16.0589 16.5112 15.7266 16.5112C15.3931 16.5112 15.0895 16.6978 14.9403 16.9945L13.4254 20.009H8.67614C8.07848 18.8695 7.75781 17.71 7.75781 16.4678C7.75781 12.6372 10.4276 9.74888 13.9687 9.74888C15.8693 9.74888 17.4769 10.6318 18.7447 12.3743C19.7418 13.7459 20.1488 15.1545 20.1531 15.1725C20.2596 15.5499 20.6048 15.8117 21 15.8117C21.3942 15.8117 21.7415 15.5488 21.8469 15.1704C21.8619 15.1163 23.4087 9.74888 28.0312 9.74888C31.5714 9.74888 34.2422 12.6372 34.2422 16.4678C34.2422 17.711 33.9205 18.8695 33.3228 20.009H28.5746Z" fill="#FF6B00"/>
</g>
</svg>
