<svg width="42" height="42" viewBox="0 0 42 42" fill="none" xmlns="http://www.w3.org/2000/svg">
<g id="cca6 1">
<path id="Vector" fill-rule="evenodd" clip-rule="evenodd" d="M33.5652 24.8813C32.7961 22.8577 31.7668 20.9938 30.5059 19.3414C28.9244 17.2716 26.9754 15.5314 24.7115 14.1715L24.7012 14.1501L24.6282 14.1254C24.6191 14.1186 24.61 14.1119 24.6042 14.1051C24.6202 13.9971 24.8462 13.1535 27.8324 11.4999L27.8814 11.4729C28.2272 11.2817 28.3858 10.8745 28.258 10.5044L27.2025 7.46055C27.0758 7.09497 26.7061 6.86887 26.317 6.91949L26.2622 6.92624C26.2349 6.92961 26.0055 6.96111 25.6369 7.0466L25.6814 5.94423C25.7134 5.1602 25.1679 4.46616 24.3897 4.29856L23.171 4.03759C22.5138 3.89586 21.836 4.16245 21.4583 4.71026L21.1753 5.12083C20.9927 5.38405 20.5808 5.31656 20.4975 5.00835C20.38 4.5764 19.9292 4.31993 19.4899 4.43579L17.3846 4.9926C16.5653 5.20857 16.0461 6.00385 16.1876 6.82725L16.4923 8.60004C16.3736 8.7114 16.2607 8.82163 16.1534 8.933L14.8206 8.59104C13.3361 8.20971 11.8595 9.24233 11.7363 10.7485L11.7123 11.0376L10.4776 10.0129C10.1319 9.72715 9.61613 9.76877 9.32173 10.1074L7.21415 12.5382C6.87524 12.9274 6.94713 13.5191 7.36933 13.8183C8.0905 14.3301 10.2175 16.0725 10.5358 17.3357C10.6157 17.6518 10.6922 17.9364 10.7583 18.1872C11.0824 19.3953 11.2296 19.951 11.0425 21.1445C10.9854 21.3987 10.9329 21.6597 10.885 21.9274C10.8143 22.2806 10.0429 26.4584 12.8659 30.5956C15.3775 34.275 19.8767 36.7171 26.2337 37.8544C26.3581 37.878 28.4805 38.2559 30.6143 37.6912C31.5021 37.4573 32.3921 37.0602 33.1407 36.4067C34.5111 35.2109 35.1285 33.4359 34.9778 31.131C34.9676 30.8746 34.8352 28.2267 33.5652 24.8813ZM18.0328 9.59329L18.415 9.26933L18.0282 7.01848C17.9928 6.81263 18.1229 6.61353 18.3283 6.55953L18.6261 6.48079C18.8452 6.4223 19.0711 6.55053 19.1293 6.76651L19.531 8.24345C19.7136 8.91275 20.6105 9.06123 21.0064 8.48755L22.7237 5.9971C22.8185 5.86099 22.9873 5.7935 23.1516 5.8295L23.559 5.91611C23.7541 5.95886 23.8899 6.13209 23.8819 6.32781L23.8295 7.63603C23.3993 7.81713 22.9394 8.0421 22.4738 8.32107C20.9414 9.23671 19.0871 10.8981 18.3169 13.7755C18.2245 14.1197 17.9118 14.3627 17.5512 14.3728C17.064 14.3863 16.5003 14.4606 15.9058 14.6496C15.6958 13.5618 15.7312 11.5416 18.0328 9.59329ZM9.44154 12.6698L9.79299 12.266C9.93905 12.0961 10.1969 12.0759 10.3704 12.2187L11.9896 13.5607C12.5008 13.9859 13.2858 13.663 13.3395 13.0061L13.4992 11.0489C13.5414 10.546 14.0333 10.203 14.5273 10.3289L14.9838 10.4459C14.2832 11.627 14.0721 12.7407 14.0469 13.5956C14.0241 14.3661 14.1451 15.0118 14.274 15.4718C13.5551 15.9881 12.9378 16.6709 12.4232 17.5168C12.373 17.3278 12.3205 17.1299 12.2657 16.9116C11.9154 15.5236 10.505 14.1107 9.48376 13.2378C9.31374 13.0927 9.29434 12.8396 9.44154 12.6698ZM33.1966 31.2042L33.1977 31.2345C33.3141 32.9736 32.8999 34.2705 31.9642 35.0894C30.0735 36.7452 26.5989 36.1367 26.5601 36.1288C25.3323 35.9095 24.182 35.6395 23.1106 35.3212L23.2543 35.2852C24.0622 35.0714 24.8633 34.6811 25.5171 34.0039L25.5491 33.9758L25.5753 33.9286C25.6301 33.8521 26.3284 32.9218 28.5661 32.8307L28.5273 31.887C26.3512 31.9758 25.3208 32.8003 24.9409 33.2075C24.9694 32.932 24.9671 32.6249 24.918 32.2863L24.9123 32.257C24.9021 32.2053 24.8245 31.7463 25.2273 31.446L24.6465 30.6935C23.9367 31.2255 23.8854 32.0287 23.9698 32.4359C24.1079 33.4123 23.7347 33.9916 23.591 34.1727C22.6918 34.5428 21.6899 34.5934 20.8957 34.5473C17.9803 33.3605 15.7917 31.7216 14.3653 29.644C13.7069 28.6856 13.2756 27.7182 12.9972 26.8138C13.9043 27.2221 15.309 27.6136 17.4508 27.7418L17.4713 27.743C17.5512 27.7452 19.4374 27.8161 20.6481 30.0096L21.4914 29.5585C20.0468 26.9387 17.7292 26.806 17.5021 26.7992C17.1313 26.7767 16.7867 26.7452 16.4649 26.7081C16.8494 26.4415 17.6322 26.1558 19.2206 26.1985L19.248 25.2536C16.5893 25.1828 15.6559 25.9803 15.3272 26.5337C13.9191 26.257 13.1181 25.8521 12.6936 25.5574C12.357 23.671 12.6286 22.2907 12.6331 22.2694L12.64 22.239C13.1272 19.473 14.1166 17.6158 15.5817 16.717C15.9457 16.4932 16.3109 16.3492 16.6555 16.2581C17.7326 15.9735 18.6101 16.2165 18.6535 16.2289L18.7322 16.2536C19.2252 16.4032 19.7341 16.0736 19.7923 15.5697L19.8014 15.4887C20.0867 13.005 21.2791 11.1085 23.3445 9.85201C23.9219 9.50105 24.4936 9.24908 24.9877 9.07023C25.4213 8.91275 25.9005 9.13772 26.0489 9.56854L26.1048 9.72827C26.2269 10.0804 26.0899 10.4696 25.7716 10.6698C23.7153 11.9668 22.7717 13.1017 22.8219 14.1974C22.8561 14.9578 23.3673 15.4685 23.8203 15.6923C24.5563 16.1366 25.2524 16.6226 25.9085 17.1467C26.1618 17.7036 26.5669 18.7238 26.8727 19.8183C26.8944 20.1681 26.9355 22.2143 25.0858 22.9004L25.4235 23.7846C26.3318 23.4471 26.9195 22.8498 27.2892 22.1918C27.2995 22.5765 27.2687 22.9308 27.1797 23.2289C26.4551 25.6721 27.7753 27.7868 28.3995 28.1783L28.9164 27.3808C28.6699 27.2266 27.4889 25.5551 28.1005 23.4932C28.5113 22.1119 27.9944 20.0511 27.4889 18.5618C29.3785 20.4606 30.8471 22.7598 31.8729 25.4381C33.0939 28.6249 33.1955 31.1805 33.1966 31.2042Z" fill="#FF6B00"/>
</g>
</svg>
