<svg width="42" height="42" viewBox="0 0 42 42" fill="none" xmlns="http://www.w3.org/2000/svg">
<g id="cca4 1">
<path id="Vector" fill-rule="evenodd" clip-rule="evenodd" d="M35.7023 9.4136H33.4886L28.4705 25.1849C28.7955 25.4679 29.1284 25.7602 29.4682 26.0607C31.1966 27.5885 31.8034 29.9106 31.0511 32.1209C30.8182 32.8068 30.475 33.4182 30.0455 33.9376H34.2045V35.9464H23.5841C22.3239 35.9825 21.1659 36 20.1102 36C19.0557 36 18.1011 35.9825 17.2466 35.9464H5V33.9376H10.0682C8.95455 33.0665 8.04886 31.9346 7.42273 30.6047C6.37386 28.3781 6.23409 25.8662 7.02841 23.5313C7.82273 21.1976 9.45568 19.3203 11.6284 18.2455C12.1455 17.9893 12.6795 17.7866 13.2227 17.6364L9.17273 11.6227H6.7875V9.61273H13.475V11.6227H11.5545L15.3932 17.322C16.4455 17.3033 17.5045 17.4745 18.5284 17.8414C20.0716 18.3922 22.808 20.3463 26.8534 23.7898L31.4261 9.4136H30.2807V7.40361H34.3193L35.1523 5L37 5.6731L35.7023 9.4136ZM17.883 19.7384C17.1205 19.4659 16.333 19.3308 15.5489 19.3308C14.4989 19.3308 13.4545 19.573 12.4807 20.0551C10.7807 20.8959 9.50114 22.3656 8.87954 24.1939C8.25682 26.0211 8.36704 27.988 9.1875 29.7313C10.0091 31.4734 11.4432 32.7847 13.2261 33.4229C13.7341 33.6045 14.8705 33.8375 17.4057 33.9376H23.5261C24.3102 33.9166 25.1511 33.8875 26.0545 33.8503C27.7989 33.7781 28.8239 32.5681 29.2 31.4595C29.5773 30.3508 29.5091 28.7507 28.1875 27.5816C21.3125 21.505 18.7807 20.0598 17.883 19.7384ZM16.117 28.6704V30.1284H17.5705V32.1372H12.6705V30.1284H14.1568V28.6704C12.4705 28.2232 11.2205 26.6499 11.2205 24.7832C11.2205 22.5694 12.9773 20.769 15.1375 20.769C17.2966 20.769 19.0534 22.5705 19.0534 24.7832C19.0534 26.6499 17.8045 28.2232 16.117 28.6704ZM15.1375 22.779C14.0591 22.779 13.1818 23.678 13.1818 24.7832C13.1818 25.8895 14.0591 26.7885 15.1375 26.7885C16.2159 26.7885 17.0932 25.8895 17.0932 24.7832C17.0932 23.678 16.2159 22.779 15.1375 22.779Z" fill="#FF6B00"/>
</g>
</svg>
