<svg width="42" height="42" viewBox="0 0 42 42" fill="none" xmlns="http://www.w3.org/2000/svg">
<g id="cca1 1">
<path id="Vector" fill-rule="evenodd" clip-rule="evenodd" d="M31.1707 32.7763C28.5726 35.3744 25.1192 36.8049 21.4457 36.8049C17.7723 36.8049 14.3189 35.3744 11.7208 32.7763C9.1227 30.1782 7.69226 26.7239 7.69226 23.0494C7.69226 20.3072 8.49067 17.6867 9.97487 15.4539L7.19922 12.6762L11.0746 8.80081L13.8502 11.5775C15.1518 10.7121 16.5843 10.0801 18.0969 9.70371V7.46574H16.2688V5.63965H26.6227V7.46574H24.7956V9.70371C27.1878 10.2992 29.3821 11.5349 31.1707 13.3234C33.7678 15.9215 35.1992 19.3759 35.1992 23.0494C35.1992 26.7239 33.7678 30.1782 31.1707 32.7763ZM11.0746 11.3837L9.7811 12.6762L11.0959 13.992C11.2968 13.7637 11.5037 13.5405 11.7208 13.3234C11.9379 13.1063 12.1601 12.8983 12.3894 12.6985L11.0746 11.3837ZM22.9695 7.46574H19.922V9.37805C20.4252 9.32327 20.9324 9.29487 21.4457 9.29487C21.9581 9.29487 22.4673 9.32327 22.9695 9.37805V7.46574ZM21.4457 11.121C14.8688 11.121 9.51835 16.4724 9.51835 23.0494C9.51835 29.6273 14.8688 34.9788 21.4457 34.9788C28.0227 34.9788 33.3731 29.6273 33.3731 23.0494C33.3731 16.4724 28.0227 11.121 21.4457 11.121ZM28.8039 23.9624V22.1363H31.545V23.9624H28.8039ZM26.0039 17.1998L27.9415 15.2611L29.232 16.5525L27.2943 18.4912L26.0039 17.1998ZM29.232 29.5462L27.9415 30.8376L26.0028 28.8989L27.2933 27.6085L29.232 29.5462ZM24.1849 23.0494C24.1849 24.5599 22.9553 25.7885 21.4457 25.7885C19.9352 25.7885 18.7066 24.5599 18.7066 23.0494C18.7066 21.5398 19.9352 20.3102 21.4457 20.3102C21.8678 20.3102 22.2685 20.4066 22.6256 20.5781L24.7114 18.4923L26.0018 19.7837L23.917 21.8695C24.0885 22.2276 24.1849 22.6273 24.1849 23.0494ZM21.4457 22.1363C20.9426 22.1363 20.5327 22.5462 20.5327 23.0494C20.5327 23.5525 20.9426 23.9624 21.4457 23.9624C21.9499 23.9624 22.3588 23.5536 22.3588 23.0494C22.3588 22.5462 21.9489 22.1363 21.4457 22.1363ZM20.5327 12.9491H22.3588V15.6902H20.5327V12.9491ZM13.6585 29.5462L15.5972 27.6085L16.8886 28.8989L14.9499 30.8376L13.6585 29.5462ZM13.6585 16.5525L14.9499 15.2621L16.8876 17.1998L15.5972 18.4912L13.6585 16.5525ZM14.0876 23.9624H11.3465V22.1363H14.0876V23.9624ZM22.3588 33.1507H20.5327V30.4095H22.3588V33.1507Z" fill="#FF6B00"/>
</g>
</svg>
