<svg width="42" height="42" viewBox="0 0 42 42" fill="none" xmlns="http://www.w3.org/2000/svg">
<g id="cca2 1">
<path id="Vector" fill-rule="evenodd" clip-rule="evenodd" d="M31.2033 17.2294C29.9008 17.6388 28.532 17.6191 27.2447 17.1714C26.2518 16.8258 25.3532 16.2285 24.649 15.456C23.7516 15.8306 22.7937 16.1786 21.7903 16.4941C20.8126 16.8014 19.8523 17.0589 18.9247 17.263C18.7955 18.2999 18.4079 19.2858 17.784 20.1487C16.9878 21.2493 15.8797 22.0461 14.5784 22.4556C13.951 22.6527 13.3155 22.7467 12.6916 22.7467C10.0215 22.7467 7.53992 21.0383 6.69489 18.3718C5.65197 15.0802 7.4922 11.5578 10.7967 10.5198C13.0245 9.81926 15.406 10.3945 17.053 11.9847C17.9795 11.5938 18.9747 11.2308 20.0188 10.9025C21.0885 10.5662 22.136 10.289 23.1429 10.0779C23.3291 9.11293 23.74 8.20478 24.3534 7.41842C25.1367 6.41285 26.1983 5.67752 27.4216 5.29362C29.022 4.79026 30.7238 4.93756 32.2125 5.70884C33.7012 6.48128 34.7988 7.78377 35.3051 9.37737C35.8103 10.9721 35.6613 12.6666 34.8872 14.15C34.112 15.6323 32.8038 16.726 31.2033 17.2294ZM33.4858 9.94916C32.7595 7.65735 30.2966 6.38038 27.9954 7.10411C26.2751 7.64459 25.0785 9.15352 24.947 10.9466L24.8935 11.6773L24.1706 11.8107C23.0521 12.0171 21.8148 12.3291 20.5926 12.7142C19.3786 13.0946 18.2391 13.5249 17.2055 13.9912L16.5385 14.2915L16.0753 13.7279C15.2256 12.6933 13.9836 12.125 12.6974 12.125C12.2551 12.125 11.8082 12.1923 11.3705 12.3303C9.06821 13.054 7.78668 15.507 8.513 17.8C9.23931 20.0918 11.7034 21.3688 14.0046 20.6451C15.8378 20.0686 17.0681 18.395 17.0646 16.4825L17.0635 15.6984L17.8375 15.5488C18.9142 15.34 20.0514 15.0489 21.2165 14.6836C22.4061 14.3089 23.527 13.8879 24.5466 13.431L25.2683 13.1074L25.7199 13.7545C26.8198 15.3273 28.7927 15.9965 30.6295 15.4189C31.7445 15.0686 32.6559 14.3066 33.1948 13.2732C33.7349 12.2398 33.8385 11.0603 33.4858 9.94916ZM12.2831 23.482C14.6203 23.482 16.7166 24.7462 17.8061 26.7562C18.8083 26.6611 19.8675 26.6124 20.9628 26.6124C22.0848 26.6124 23.1673 26.6634 24.1904 26.7632C24.6595 25.8979 25.3265 25.1556 26.1482 24.5896C27.2004 23.8659 28.4342 23.482 29.7169 23.482C33.1809 23.482 36 26.2899 36 29.7416C36 33.1921 33.1809 36 29.7169 36C28.3504 36 27.0503 35.5697 25.9585 34.7578C25.1169 34.1304 24.4395 33.2906 24.0019 32.3442C23.0334 32.4312 22.0138 32.4765 20.9616 32.4765C19.9373 32.4765 18.9433 32.4335 17.997 32.35C17.5605 33.3011 16.8924 34.1246 16.0369 34.7601C14.9451 35.5709 13.6472 36 12.2831 36C8.81796 36 6 33.1921 6 29.7416C6 26.2899 8.81796 23.482 12.2831 23.482ZM12.2831 34.1002C14.2059 34.1002 15.8844 32.8743 16.4594 31.0487L16.6957 30.2995L17.4778 30.3888C18.5685 30.514 19.7406 30.5767 20.9628 30.5767C22.2105 30.5767 23.4059 30.5105 24.5163 30.3806L25.302 30.289L25.5371 31.0417C26.111 32.8708 27.7906 34.1002 29.7169 34.1002C32.1298 34.1002 34.0934 32.1447 34.0934 29.7404C34.0934 27.3373 32.1298 25.3818 29.7169 25.3818C27.9128 25.3818 26.317 26.4604 25.6489 28.1317L25.3765 28.8126L24.6467 28.7233C23.5188 28.5852 22.2443 28.5122 20.9628 28.5122C19.6894 28.5122 18.473 28.5806 17.3463 28.7151L16.62 28.8021L16.3476 28.1248C15.6795 26.4581 14.0837 25.3818 12.2831 25.3818C9.87018 25.3818 7.90657 27.3373 7.90657 29.7404C7.90657 32.1447 9.86902 34.1002 12.2831 34.1002Z" fill="#FF6B00"/>
</g>
</svg>
