<svg xmlns="http://www.w3.org/2000/svg" width="33.73" height="21.36" viewBox="0 0 33.73 21.36">
    <g data-name="그룹 738">
        <g data-name="그룹 737">
            <path data-name="사각형 26" style="fill:#fff;stroke:#cecece;stroke-miterlimit:10;stroke-width:.5px" d="M0 0h33.23v20.86H0z" transform="translate(.25 .25)"/>
        </g>
    </g>
    <g data-name="그룹 773">
        <g data-name="그룹 745">
            <g data-name="그룹 740">
                <g data-name="그룹 739">
                    <path data-name="사각형 27" transform="rotate(-45.17 8.417 -3.037)" style="fill:#28292b" d="M0 0h4.93v1.1H0z"/>
                </g>
            </g>
            <g data-name="그룹 742">
                <g data-name="그룹 741">
                    <path data-name="사각형 28" transform="rotate(-45.17 10.396 -3.797)" style="fill:#28292b" d="M0 0h4.93v1.1H0z"/>
                </g>
            </g>
            <g data-name="그룹 744">
                <g data-name="그룹 743">
                    <path data-name="사각형 29" transform="rotate(-45.17 12.2 -4.581)" style="fill:#28292b" d="M0 0h4.93v1.1H0z"/>
                </g>
            </g>
        </g>
        <g data-name="그룹 755">
            <g data-name="그룹 748">
                <g data-name="그룹 746">
                    <path data-name="사각형 30" transform="rotate(-45.203 30.176 -22.018)" style="fill:#28292b" d="M0 0h1.94v1.1H0z"/>
                </g>
                <g data-name="그룹 747">
                    <path data-name="사각형 31" transform="rotate(-45.25 31.622 -18.411)" style="fill:#28292b" d="M0 0h1.9v1.1H0z"/>
                </g>
            </g>
            <g data-name="그룹 751">
                <g data-name="그룹 749">
                    <path data-name="사각형 32" transform="rotate(-45.207 32.085 -22.855)" style="fill:#28292b" d="M0 0h1.92v1.1H0z"/>
                </g>
                <g data-name="그룹 750">
                    <path data-name="사각형 33" transform="rotate(-45.17 33.628 -19.217)" style="fill:#28292b" d="M0 0h1.91v1.1H0z"/>
                </g>
            </g>
            <g data-name="그룹 754">
                <g data-name="그룹 752">
                    <path data-name="사각형 34" transform="rotate(-45 34.047 -23.73)" style="fill:#28292b" d="M0 0h1.92v1.1H0z"/>
                </g>
                <g data-name="그룹 753">
                    <path data-name="사각형 35" transform="rotate(-45.17 35.458 -19.993)" style="fill:#28292b" d="M0 0h1.92v1.1H0z"/>
                </g>
            </g>
        </g>
        <g data-name="그룹 764">
            <g data-name="그룹 758">
                <g data-name="그룹 756">
                    <path data-name="사각형 36" transform="rotate(-45.203 18.68 -30.063)" style="fill:#28292b" d="M0 0h1.1v1.94H0z"/>
                </g>
                <g data-name="그룹 757">
                    <path data-name="사각형 37" transform="rotate(-45.17 15.057 -28.614)" style="fill:#28292b" d="M0 0h1.1v1.9H0z"/>
                </g>
            </g>
            <g data-name="그룹 760">
                <g data-name="그룹 759">
                    <path data-name="패스 75" d="m338.46 319.7.77-.78 1.36 1.35.77.77 1.37 1.35-.78.78-1.36-1.35-.78-.78z" transform="translate(-314.86 -316.33)" style="fill:#28292b"/>
                </g>
            </g>
            <g data-name="그룹 763">
                <g data-name="그룹 761">
                    <path data-name="사각형 38" transform="rotate(-44.968 20.26 -26.485)" style="fill:#28292b" d="M0 0h1.1v1.92H0z"/>
                </g>
                <g data-name="그룹 762">
                    <path data-name="사각형 39" transform="rotate(-45.203 16.57 -24.81)" style="fill:#28292b" d="M0 0h1.1v1.92H0z"/>
                </g>
            </g>
        </g>
        <g data-name="그룹 772">
            <g data-name="그룹 766">
                <g data-name="그룹 765">
                    <path data-name="패스 76" d="m321.75 330.57.77-.78 1.35 1.33.78.78 1.37 1.37-.77.77-1.38-1.36-.78-.78z" transform="translate(-314.86 -316.33)" style="fill:#28292b"/>
                </g>
            </g>
            <g data-name="그룹 769">
                <g data-name="그룹 767">
                    <path data-name="사각형 40" transform="rotate(-45.207 24.943 -.772)" style="fill:#28292b" d="M0 0h1.1v1.92H0z"/>
                </g>
                <g data-name="그룹 768">
                    <path data-name="사각형 41" transform="rotate(-45.194 21.328 .774)" style="fill:#28292b" d="M0 0h1.1v1.91H0z"/>
                </g>
            </g>
            <g data-name="그룹 771">
                <g data-name="그룹 770">
                    <path data-name="패스 77" d="m319.52 332.77.78-.78 1.36 1.36.78.77 1.36 1.35-.78.78-1.36-1.35-.78-.78z" transform="translate(-314.86 -316.33)" style="fill:#28292b"/>
                </g>
            </g>
        </g>
    </g>
    <g data-name="그룹 776">
        <g data-name="그룹 774">
            <path data-name="패스 78" d="M337.72 326.84a5.91 5.91 0 1 1-5.91-5.91 5.909 5.909 0 0 1 5.91 5.91z" transform="translate(-314.86 -316.33)" style="fill:#2b438b"/>
        </g>
        <g data-name="그룹 775">
            <path data-name="패스 79" d="M337.69 326.84a5.689 5.689 0 0 1-.06.83c-.17-1.17-.81-3.29-3.23-3.33a2.532 2.532 0 0 0-2.75 1.72c-.54 1.34-.6 2.98-2.98 2.98a2.624 2.624 0 0 1-2.8-2.11v-.09a5.91 5.91 0 1 1 11.82 0z" transform="translate(-314.86 -316.33)" style="fill:#ce322e"/>
        </g>
    </g>
</svg>
