<svg width="60" height="60" viewBox="0 0 60 60" fill="none" xmlns="http://www.w3.org/2000/svg">
<path d="M8 16.0007H23C23.552 16.0007 24 15.5537 24 15.0007C24 14.4477 23.552 14.0007 23 14.0007H8C7.448 14.0007 7 14.4477 7 15.0007C7 15.5537 7.448 16.0007 8 16.0007Z" fill="#7367F0"/>
<path d="M8 13.0007H17C17.552 13.0007 18 12.5537 18 12.0007C18 11.4477 17.552 11.0007 17 11.0007H8C7.448 11.0007 7 11.4477 7 12.0007C7 12.5537 7.448 13.0007 8 13.0007Z" fill="#7367F0"/>
<path d="M24 18.0007C24 17.4477 23.552 17.0007 23 17.0007H8C7.448 17.0007 7 17.4477 7 18.0007C7 18.5537 7.448 19.0007 8 19.0007H23C23.552 19.0007 24 18.5537 24 18.0007Z" fill="#7367F0"/>
<path d="M60 4.00073H31V1.00073C31 0.447732 30.552 0.000732422 30 0.000732422C29.448 0.000732422 29 0.447732 29 1.00073V4.00073H0V46.0007H27.586L15.293 58.2937C14.902 58.6847 14.902 59.3167 15.293 59.7077C15.488 59.9027 15.744 60.0007 16 60.0007C16.256 60.0007 16.512 59.9027 16.707 59.7077L29 47.4147V57.0007C29 57.5537 29.448 58.0007 30 58.0007C30.552 58.0007 31 57.5537 31 57.0007V47.4147L43.293 59.7077C43.488 59.9027 43.744 60.0007 44 60.0007C44.256 60.0007 44.512 59.9027 44.707 59.7077C45.098 59.3167 45.098 58.6847 44.707 58.2937L32.414 46.0007H60V4.00073ZM58 44.0007H2V6.00073H58V44.0007Z" fill="#7367F0"/>
<path d="M41 20.0007H45.586L33.6 31.9867L25.307 23.6937C24.916 23.3027 24.284 23.3027 23.893 23.6937L11.293 36.2937C10.902 36.6847 10.902 37.3167 11.293 37.7077C11.488 37.9027 11.744 38.0007 12 38.0007C12.256 38.0007 12.512 37.9027 12.707 37.7077L24.6 25.8147L32.893 34.1077C33.088 34.3027 33.344 34.4007 33.6 34.4007C33.856 34.4007 34.112 34.3027 34.307 34.1077L47 21.4147V26.0007C47 26.5537 47.447 27.0007 48 27.0007C48.553 27.0007 49 26.5537 49 26.0007V19.0007C49 18.8707 48.974 18.7407 48.923 18.6187C48.822 18.3737 48.627 18.1787 48.382 18.0777C48.26 18.0267 48.13 18.0007 48 18.0007H41C40.448 18.0007 40 18.4477 40 19.0007C40 19.5537 40.448 20.0007 41 20.0007Z" fill="#7367F0"/>
</svg>
