<svg width="60" height="56" viewBox="0 0 60 56" fill="none" xmlns="http://www.w3.org/2000/svg">
<path d="M9 24.0007H17V14.0007H9V24.0007ZM11 16.0007H15V22.0007H11V16.0007Z" fill="#7367F0"/>
<path d="M9 36.0007H17V26.0007H9V36.0007ZM11 28.0007H15V34.0007H11V28.0007Z" fill="#7367F0"/>
<path d="M9 48.0007H17V38.0007H9V48.0007ZM11 40.0007H15V46.0007H11V40.0007Z" fill="#7367F0"/>
<path d="M36 23.0007C35.447 23.0007 35 23.4477 35 24.0007V33.0007C35 33.5537 35.447 34.0007 36 34.0007C36.553 34.0007 37 33.5537 37 33.0007V24.0007C37 23.4477 36.553 23.0007 36 23.0007Z" fill="#7367F0"/>
<path d="M36 36.0007C35.447 36.0007 35 36.4477 35 37.0007V46.0007C35 46.5537 35.447 47.0007 36 47.0007C36.553 47.0007 37 46.5537 37 46.0007V37.0007C37 36.4477 36.553 36.0007 36 36.0007Z" fill="#7367F0"/>
<path d="M31 23.0007C30.447 23.0007 30 23.4477 30 24.0007V25.0007C30 25.5537 30.447 26.0007 31 26.0007C31.553 26.0007 32 25.5537 32 25.0007V24.0007C32 23.4477 31.553 23.0007 31 23.0007Z" fill="#7367F0"/>
<path d="M31 28.0007C30.447 28.0007 30 28.4477 30 29.0007V31.0007C30 31.5537 30.447 32.0007 31 32.0007C31.553 32.0007 32 31.5537 32 31.0007V29.0007C32 28.4477 31.553 28.0007 31 28.0007Z" fill="#7367F0"/>
<path d="M31 34.0007C30.447 34.0007 30 34.4477 30 35.0007V36.0007C30 36.5537 30.447 37.0007 31 37.0007C31.553 37.0007 32 36.5537 32 36.0007V35.0007C32 34.4477 31.553 34.0007 31 34.0007Z" fill="#7367F0"/>
<path d="M31 39.0007C30.447 39.0007 30 39.4477 30 40.0007V42.0007C30 42.5537 30.447 43.0007 31 43.0007C31.553 43.0007 32 42.5537 32 42.0007V40.0007C32 39.4477 31.553 39.0007 31 39.0007Z" fill="#7367F0"/>
<path d="M30.29 45.2908C30.109 45.4798 30 45.7408 30 46.0008C30 46.2708 30.109 46.5208 30.29 46.7108C30.479 46.8908 30.74 47.0008 31 47.0008C31.26 47.0008 31.52 46.8908 31.71 46.7108C31.89 46.5208 32 46.2708 32 46.0008C32 45.7408 31.89 45.4798 31.71 45.2908C31.33 44.9208 30.68 44.9108 30.29 45.2908Z" fill="#7367F0"/>
<path d="M48 0.000732422H0V7.00073H3V51.7837C3 54.1087 4.892 56.0007 7.217 56.0007H40.783C43.108 56.0007 45 54.1087 45 51.7837V7.00073H48V0.000732422ZM43 51.7837C43 53.0067 42.006 54.0007 40.783 54.0007H7.217C5.994 54.0007 5 53.0067 5 51.7837V5.00073H9V12.0007H17V5.00073H26V9.25573V10.7457V16.7457C26 17.9887 27.012 19.0007 28.255 19.0007H36.255H37.745C38.988 19.0007 40 17.9887 40 16.7457V9.25573V5.00073H43V51.7837ZM11 5.00073H15V10.0007H11V5.00073ZM34 5.00073V7.00073H32V5.00073H34ZM38 5.00073V7.02673C37.915 7.01673 37.832 7.00073 37.745 7.00073H36V5.00073H38ZM28.255 17.0007C28.114 17.0007 28 16.8867 28 16.7457V12.9747C28.085 12.9847 28.168 13.0007 28.255 13.0007H30V17.0007H28.255ZM32 13.0007H33.745C33.886 13.0007 34 13.1147 34 13.2557V16.7457C34 16.8327 34.016 16.9157 34.026 17.0007H32V13.0007ZM36 16.7457V13.2557C36 12.0127 34.988 11.0007 33.745 11.0007H28.255C28.114 11.0007 28 10.8867 28 10.7457V9.25573C28 9.11473 28.114 9.00073 28.255 9.00073H37.745C37.886 9.00073 38 9.11473 38 9.25573V16.7457C38 16.8867 37.886 17.0007 37.745 17.0007H36.255C36.114 17.0007 36 16.8867 36 16.7457ZM30 7.00073H28.255C28.168 7.00073 28.085 7.01673 28 7.02673V5.00073H30V7.00073ZM46 5.00073H45V3.00073H40H26H17H9H3V5.00073H2V2.00073H46V5.00073Z" fill="#7367F0"/>
<path d="M59.707 32.2937L53.708 26.2947C53.616 26.2017 53.505 26.1287 53.382 26.0777C53.138 25.9767 52.863 25.9767 52.618 26.0777C52.495 26.1287 52.384 26.2027 52.292 26.2947L46.293 32.2937C45.902 32.6847 45.902 33.3167 46.293 33.7077C46.488 33.9027 46.744 34.0007 47 34.0007C47.256 34.0007 47.512 33.9027 47.707 33.7077L52 29.4147V55.0007C52 55.5537 52.447 56.0007 53 56.0007C53.553 56.0007 54 55.5537 54 55.0007V29.4147L58.293 33.7077C58.488 33.9027 58.744 34.0007 59 34.0007C59.256 34.0007 59.512 33.9027 59.707 33.7077C60.098 33.3167 60.098 32.6847 59.707 32.2937Z" fill="#7367F0"/>
</svg>
