<svg width="60" height="60" viewBox="0 0 60 60" fill="none" xmlns="http://www.w3.org/2000/svg">
<path d="M60 8.00024V0.000244141H0V8.00024H2V48.0002H1C0.448 48.0002 0 48.4472 0 49.0002C0 49.5532 0.448 50.0002 1 50.0002H2H29V52.0002C29 52.0472 29.021 52.0882 29.027 52.1342C27.293 52.5712 26 54.1312 26 56.0002C26 58.2062 27.794 60.0002 30 60.0002C32.206 60.0002 34 58.2062 34 56.0002C34 54.1312 32.707 52.5712 30.973 52.1342C30.979 52.0882 31 52.0472 31 52.0002V50.0002H58H59C59.552 50.0002 60 49.5532 60 49.0002C60 48.4472 59.552 48.0002 59 48.0002H58V8.00024H60ZM32 56.0002C32 57.1032 31.103 58.0002 30 58.0002C28.897 58.0002 28 57.1032 28 56.0002C28 54.8972 28.897 54.0002 30 54.0002C31.103 54.0002 32 54.8972 32 56.0002ZM2 2.00024H58V6.00024H2V2.00024ZM56 48.0002H4V8.00024H56V48.0002Z" fill="#7367F0"/>
<path d="M50 41.0002H35C34.448 41.0002 34 41.4472 34 42.0002C34 42.5532 34.448 43.0002 35 43.0002H50C50.552 43.0002 51 42.5532 51 42.0002C51 41.4472 50.552 41.0002 50 41.0002Z" fill="#7367F0"/>
<path d="M10 36.0002H20C20.552 36.0002 21 35.5532 21 35.0002C21 34.4472 20.552 34.0002 20 34.0002H10C9.448 34.0002 9 34.4472 9 35.0002C9 35.5532 9.448 36.0002 10 36.0002Z" fill="#7367F0"/>
<path d="M30 36.0002H45C45.552 36.0002 46 35.5532 46 35.0002C46 34.4472 45.552 34.0002 45 34.0002H30C29.448 34.0002 29 34.4472 29 35.0002C29 35.5532 29.448 36.0002 30 36.0002Z" fill="#7367F0"/>
<path d="M24.29 34.2902C24.11 34.4792 24 34.7292 24 35.0002C24 35.2602 24.11 35.5202 24.29 35.7102C24.48 35.8902 24.74 36.0002 25 36.0002C25.26 36.0002 25.52 35.8902 25.71 35.7102C25.89 35.5202 26 35.2602 26 35.0002C26 34.7402 25.89 34.4792 25.71 34.2902C25.34 33.9202 24.66 33.9202 24.29 34.2902Z" fill="#7367F0"/>
<path d="M30 41.0002H15C14.448 41.0002 14 41.4472 14 42.0002C14 42.5532 14.448 43.0002 15 43.0002H30C30.552 43.0002 31 42.5532 31 42.0002C31 41.4472 30.552 41.0002 30 41.0002Z" fill="#7367F0"/>
<path d="M10 43.0003C10.26 43.0003 10.52 42.8903 10.71 42.7103C10.89 42.5203 11 42.2603 11 42.0003C11 41.7403 10.89 41.4793 10.71 41.3003C10.34 40.9203 9.67 40.9203 9.29 41.2903C9.11 41.4793 9 41.7403 9 42.0003C9 42.2603 9.11 42.5203 9.29 42.7103C9.48 42.8903 9.74 43.0003 10 43.0003Z" fill="#7367F0"/>
<path d="M49.29 34.2902C49.11 34.4792 49 34.7292 49 35.0002C49 35.2602 49.11 35.5202 49.29 35.7102C49.48 35.8902 49.74 36.0002 50 36.0002C50.26 36.0002 50.52 35.8902 50.71 35.7102C50.89 35.5202 51 35.2602 51 35.0002C51 34.7402 50.89 34.4792 50.71 34.2902C50.34 33.9202 49.67 33.9202 49.29 34.2902Z" fill="#7367F0"/>
<path d="M50 20.0002H35C34.448 20.0002 34 20.4472 34 21.0002C34 21.5532 34.448 22.0002 35 22.0002H50C50.552 22.0002 51 21.5532 51 21.0002C51 20.4472 50.552 20.0002 50 20.0002Z" fill="#7367F0"/>
<path d="M50 27.0002H40C39.448 27.0002 39 27.4472 39 28.0002C39 28.5532 39.448 29.0002 40 29.0002H50C50.552 29.0002 51 28.5532 51 28.0002C51 27.4472 50.552 27.0002 50 27.0002Z" fill="#7367F0"/>
<path d="M30 29.0002H32C32.552 29.0002 33 28.5532 33 28.0002C33 27.4472 32.552 27.0002 32 27.0002H30C29.448 27.0002 29 27.4472 29 28.0002C29 28.5532 29.448 29.0002 30 29.0002Z" fill="#7367F0"/>
<path d="M30 15.0002H45C45.552 15.0002 46 14.5532 46 14.0002C46 13.4472 45.552 13.0002 45 13.0002H30C29.448 13.0002 29 13.4472 29 14.0002C29 14.5532 29.448 15.0002 30 15.0002Z" fill="#7367F0"/>
<path d="M50 15.0002C50.26 15.0002 50.52 14.8902 50.71 14.7102C50.9 14.5202 51 14.2602 51 14.0002C51 13.7402 50.9 13.4792 50.71 13.2902C50.33 12.9202 49.66 12.9202 49.29 13.2902C49.11 13.4792 49 13.7402 49 14.0002C49 14.2602 49.11 14.5202 49.29 14.7102C49.48 14.8902 49.74 15.0002 50 15.0002Z" fill="#7367F0"/>
<path d="M30.29 20.2902C30.11 20.4792 30 20.7292 30 21.0002C30 21.2602 30.11 21.5202 30.29 21.7102C30.48 21.8902 30.74 22.0002 31 22.0002C31.26 22.0002 31.52 21.8902 31.71 21.7102C31.89 21.5202 32 21.2602 32 21.0002C32 20.7292 31.89 20.4792 31.71 20.2902C31.33 19.9202 30.67 19.9202 30.29 20.2902Z" fill="#7367F0"/>
<path d="M35.29 27.2902C35.11 27.4792 35 27.7402 35 28.0002C35 28.2602 35.11 28.5202 35.29 28.7102C35.48 28.8902 35.74 29.0002 36 29.0002C36.26 29.0002 36.52 28.8902 36.71 28.7102C36.89 28.5202 37 28.2602 37 28.0002C37 27.7402 36.89 27.4792 36.71 27.2902C36.34 26.9202 35.66 26.9202 35.29 27.2902Z" fill="#7367F0"/>
<path d="M25 13.0002H9V29.0002H25V13.0002ZM23 27.0002H11V15.0002H23V27.0002Z" fill="#7367F0"/>
</svg>
