<svg width="65" height="65" viewBox="0 0 65 65" fill="none" xmlns="http://www.w3.org/2000/svg">
<path opacity="0.2" d="M32.5002 8.75684C27.6439 8.75542 22.9014 10.2273 18.8993 12.9779C14.8971 15.7286 11.8236 19.6286 10.0846 24.1629C8.34566 28.6971 8.02315 33.6522 9.15969 38.3737C10.2962 43.0951 12.8383 47.3606 16.4502 50.6068C17.9552 47.6432 20.2514 45.1541 23.0843 43.4155C25.9173 41.6769 29.1763 40.7567 32.5002 40.7568C30.5224 40.7568 28.589 40.1703 26.9445 39.0715C25.3 37.9727 24.0183 36.4109 23.2614 34.5837C22.5045 32.7564 22.3065 30.7457 22.6923 28.8059C23.0782 26.8661 24.0306 25.0843 25.4291 23.6858C26.8276 22.2872 28.6095 21.3348 30.5493 20.949C32.4891 20.5631 34.4998 20.7612 36.327 21.518C38.1543 22.2749 39.7161 23.5566 40.8149 25.2011C41.9137 26.8456 42.5002 28.779 42.5002 30.7568C42.5002 33.409 41.4466 35.9525 39.5713 37.8279C37.6959 39.7033 35.1523 40.7568 32.5002 40.7568C35.8241 40.7567 39.0831 41.6769 41.916 43.4155C44.749 45.1541 47.0452 47.6432 48.5502 50.6068C52.162 47.3606 54.7041 43.0951 55.8407 38.3737C56.9772 33.6522 56.6547 28.6971 54.9158 24.1629C53.1768 19.6286 50.1033 15.7286 46.1011 12.9779C42.0989 10.2273 37.3565 8.75542 32.5002 8.75684Z" fill="#28C76F"/>
<path d="M32.5 40.7568C38.0228 40.7568 42.5 36.2797 42.5 30.7568C42.5 25.234 38.0228 20.7568 32.5 20.7568C26.9772 20.7568 22.5 25.234 22.5 30.7568C22.5 36.2797 26.9772 40.7568 32.5 40.7568ZM32.5 40.7568C29.1759 40.7568 25.9168 41.6758 23.0839 43.4146C20.2509 45.1535 17.9548 47.6429 16.45 50.6068M32.5 40.7568C35.8241 40.7568 39.0832 41.6758 41.9161 43.4146C44.7491 45.1535 47.0452 47.6429 48.55 50.6068M56.5 32.7568C56.5 46.0117 45.7548 56.7568 32.5 56.7568C19.2452 56.7568 8.5 46.0117 8.5 32.7568C8.5 19.502 19.2452 8.75684 32.5 8.75684C45.7548 8.75684 56.5 19.502 56.5 32.7568Z" stroke="#28C76F" stroke-width="2" stroke-linecap="round" stroke-linejoin="round"/>
</svg>
