<svg width="65" height="65" viewBox="0 0 65 65" fill="none" xmlns="http://www.w3.org/2000/svg">
<path opacity="0.2" d="M14.125 51.1318C11.825 48.8318 13.35 44.0068 12.175 41.1818C11 38.3568 6.5 35.8818 6.5 32.7568C6.5 29.6318 10.95 27.2568 12.175 24.3318C13.4 21.4068 11.825 16.6818 14.125 14.3818C16.425 12.0818 21.25 13.6068 24.075 12.4318C26.9 11.2568 29.375 6.75684 32.5 6.75684C35.625 6.75684 38 11.2068 40.925 12.4318C43.85 13.6568 48.575 12.0818 50.875 14.3818C53.175 16.6818 51.65 21.5068 52.825 24.3318C54 27.1568 58.5 29.6318 58.5 32.7568C58.5 35.8818 54.05 38.2568 52.825 41.1818C51.6 44.1068 53.175 48.8318 50.875 51.1318C48.575 53.4318 43.75 51.9068 40.925 53.0818C38.1 54.2568 35.625 58.7568 32.5 58.7568C29.375 58.7568 27 54.3068 24.075 53.0818C21.15 51.8568 16.425 53.4318 14.125 51.1318Z" fill="#FF9F43"/>
<path d="M43.5 26.7568L28.825 40.7568L21.5 33.7568M14.125 51.1318C11.825 48.8318 13.35 44.0068 12.175 41.1818C11 38.3568 6.5 35.8818 6.5 32.7568C6.5 29.6318 10.95 27.2568 12.175 24.3318C13.4 21.4068 11.825 16.6818 14.125 14.3818C16.425 12.0818 21.25 13.6068 24.075 12.4318C26.9 11.2568 29.375 6.75684 32.5 6.75684C35.625 6.75684 38 11.2068 40.925 12.4318C43.85 13.6568 48.575 12.0818 50.875 14.3818C53.175 16.6818 51.65 21.5068 52.825 24.3318C54 27.1568 58.5 29.6318 58.5 32.7568C58.5 35.8818 54.05 38.2568 52.825 41.1818C51.6 44.1068 53.175 48.8318 50.875 51.1318C48.575 53.4318 43.75 51.9068 40.925 53.0818C38.1 54.2568 35.625 58.7568 32.5 58.7568C29.375 58.7568 27 54.3068 24.075 53.0818C21.15 51.8568 16.425 53.4318 14.125 51.1318Z" stroke="#FF9F43" stroke-width="2" stroke-linecap="round" stroke-linejoin="round"/>
</svg>
