<svg width="65" height="65" viewBox="0 0 65 65" fill="none" xmlns="http://www.w3.org/2000/svg">
<path opacity="0.2" d="M10.5 44.7568V18.7568C10.5 17.696 10.9214 16.6786 11.6716 15.9284C12.4217 15.1783 13.4391 14.7568 14.5 14.7568H50.5C51.5609 14.7568 52.5783 15.1783 53.3284 15.9284C54.0786 16.6786 54.5 17.696 54.5 18.7568V44.7568H10.5Z" fill="#7367F0"/>
<path d="M10.5 44.7568V18.7568C10.5 17.696 10.9214 16.6786 11.6716 15.9284C12.4217 15.1783 13.4391 14.7568 14.5 14.7568H50.5C51.5609 14.7568 52.5783 15.1783 53.3284 15.9284C54.0786 16.6786 54.5 17.696 54.5 18.7568V44.7568M36.5 22.7568H28.5M6.5 44.7568H58.5V48.7568C58.5 49.8177 58.0786 50.8351 57.3284 51.5853C56.5783 52.3354 55.5609 52.7568 54.5 52.7568H10.5C9.43913 52.7568 8.42172 52.3354 7.67157 51.5853C6.92143 50.8351 6.5 49.8177 6.5 48.7568V44.7568Z" stroke="#7367F0" stroke-width="2" stroke-linecap="round" stroke-linejoin="round"/>
</svg>
