<svg width="16" height="20" viewBox="0 0 16 20" fill="none" xmlns="http://www.w3.org/2000/svg">
<g id="774684_pdf_document_extension_file_format_icon 1" clip-path="url(#clip0_4_339322)">
<g id="Group">
<path id="Vector" fill-rule="evenodd" clip-rule="evenodd" d="M15.3125 5.26312V18.4209C15.3125 19.2931 14.6031 20 13.7284 20H1.58406C0.709062 20 0 19.2931 0 18.4209V1.57906C0 0.706875 0.709062 0 1.58406 0H10.0322L15.3125 5.26312Z" fill="#CB0606"/>
<path id="Vector_2" fill-rule="evenodd" clip-rule="evenodd" d="M15.3125 4.96844V5.62344H10.9959C10.1022 5.62344 9.69 4.89844 9.69 4.00437V0H10.3438L15.3125 4.96844Z" fill="#FB8D8D"/>
<path id="Vector_3" fill-rule="evenodd" clip-rule="evenodd" d="M11.7519 10.6397C11.6156 10.5947 11.4844 10.5719 11.3578 10.5719C11.2141 10.5719 11.1153 10.6015 11.0612 10.6609C11.0075 10.7203 10.9806 10.8253 10.9806 10.9762V11.2647H11.5847V11.844H10.9806V14.23H10.2487V11.844H9.87156V11.2647H10.2487V10.9762C10.2487 10.6087 10.34 10.3431 10.5225 10.179C10.705 10.015 10.9794 9.93311 11.3462 9.93311C11.5184 9.93311 11.7009 9.95654 11.8937 10.0037L11.7519 10.6397ZM8.68625 13.9415C8.55 14.0565 8.40625 14.1481 8.255 14.2159C8.10375 14.2837 7.93187 14.3175 7.73906 14.3175C7.36469 14.3175 7.07812 14.1828 6.87969 13.9134C6.68094 13.6437 6.58187 13.2631 6.58187 12.7712C6.58187 12.2681 6.69094 11.8772 6.90937 11.5981C7.12781 11.3194 7.43437 11.1797 7.82969 11.1797C7.96969 11.1797 8.11312 11.2084 8.26062 11.2659C8.40812 11.3234 8.53031 11.3965 8.62656 11.485V10.0206H9.35844V14.23H8.68625V13.9415ZM8.62656 12.0872C8.54906 12.0175 8.45312 11.9556 8.33875 11.9019C8.22437 11.8484 8.1075 11.8215 7.98844 11.8215C7.79187 11.8215 7.63406 11.9059 7.515 12.0744C7.39562 12.2431 7.33625 12.4715 7.33625 12.76C7.33625 13.0447 7.385 13.2678 7.48219 13.43C7.57969 13.5922 7.73031 13.6731 7.93469 13.6731C8.05562 13.6731 8.17906 13.6453 8.30469 13.5897C8.43031 13.534 8.53781 13.4656 8.62656 13.3847V12.0872ZM5.49844 14.1253C5.31875 14.2534 5.10437 14.3175 4.85469 14.3175C4.52562 14.3175 4.245 14.215 4.0125 14.0094V15.3465H3.28062V11.2647H3.95562V11.5556C4.09187 11.4387 4.235 11.3469 4.38531 11.28C4.53562 11.2131 4.70812 11.1797 4.90281 11.1797C5.27906 11.1797 5.56562 11.3115 5.76219 11.5756C5.95875 11.8394 6.05719 12.2228 6.05719 12.7259C6.05719 13.0447 6.00906 13.3253 5.9125 13.5684C5.81594 13.8115 5.67812 13.9972 5.49844 14.1253ZM5.1525 12.0631C5.05219 11.9019 4.90281 11.8215 4.70437 11.8215C4.58531 11.8215 4.46281 11.8494 4.33719 11.9047C4.21125 11.9603 4.10312 12.0287 4.0125 12.1097V13.4072C4.09 13.4772 4.18594 13.5387 4.30031 13.5925C4.41469 13.6462 4.53219 13.6731 4.65344 13.6731C4.85375 13.6731 5.01219 13.5878 5.12844 13.4172C5.24469 13.2465 5.30281 13.02 5.30281 12.7375C5.30281 12.449 5.2525 12.2244 5.1525 12.0631Z" fill="white"/>
</g>
</g>
<defs>
<clipPath id="clip0_4_339322">
<rect width="15.3125" height="20" fill="white"/>
</clipPath>
</defs>
</svg>
