<svg width="107" height="39" viewBox="0 0 107 39" fill="none" xmlns="http://www.w3.org/2000/svg">
<g id="logo-1">
<path id="Vector" d="M55.8332 12.2681C55.8332 13.3464 54.9644 14.2145 53.8862 14.2145C52.808 14.2145 51.9398 13.3464 51.9398 12.2681C51.9398 11.1899 52.7784 10.3217 53.8862 10.3217C54.9949 10.3517 55.8332 11.2202 55.8332 12.2681ZM47.807 16.1915V16.6708C47.807 16.6708 46.8789 15.4723 44.9023 15.4723C41.6383 15.4723 39.0924 17.9581 39.0924 21.4019C39.0924 24.816 41.6084 27.3315 44.9023 27.3315C46.9088 27.3315 47.807 26.1037 47.807 26.1037V26.6126C47.807 26.8523 47.9871 27.0314 48.2264 27.0314H50.6518V15.7709H48.2264C47.9871 15.7718 47.807 15.9818 47.807 16.1915ZM47.807 23.4084C47.3582 24.0676 46.4595 24.6366 45.3816 24.6366C43.4651 24.6366 41.9973 23.4387 41.9973 21.4019C41.9973 19.3654 43.4651 18.1675 45.3816 18.1675C46.4299 18.1675 47.3881 18.7665 47.807 19.3954V23.4084ZM52.4489 15.7718H55.3237V27.0324H52.4489V15.7718ZM95.3937 15.472C93.4171 15.472 92.4884 16.6705 92.4884 16.6705V10.3517H89.6137V27.0324H92.0397C92.2794 27.0324 92.4585 26.8226 92.4585 26.6129V26.104C92.4585 26.104 93.3872 27.3318 95.3632 27.3318C98.6278 27.3318 101.173 24.817 101.173 21.4028C101.173 17.9886 98.6278 15.472 95.3937 15.472ZM94.9144 24.6063C93.806 24.6063 92.9378 24.0379 92.4884 23.3785V19.3654C92.9378 18.7665 93.8961 18.1376 94.9144 18.1376C96.8309 18.1376 98.2984 19.3355 98.2984 21.372C98.2984 23.4085 96.8313 24.6063 94.9144 24.6063ZM88.1166 20.3542V27.0623H85.2413V20.6833C85.2413 18.8269 84.6423 18.0778 83.0262 18.0778C82.158 18.0778 81.2593 18.5272 80.6894 19.1862V27.0326H77.8152V15.7721H80.0904C80.3301 15.7721 80.5099 15.9818 80.5099 16.1915V16.6709C81.3485 15.802 82.4563 15.4723 83.5641 15.4723C84.8222 15.4723 85.8705 15.8322 86.709 16.5508C87.7268 17.3894 88.1167 18.4673 88.1167 20.3542L88.1166 20.3542ZM70.8364 15.472C68.8604 15.472 67.9317 16.6705 67.9317 16.6705V10.3517H65.057V27.0324H67.4824C67.722 27.0324 67.9018 26.8226 67.9018 26.6129V26.104C67.9018 26.104 68.8305 27.3318 70.8065 27.3318C74.0711 27.3318 76.6164 24.817 76.6164 21.4028C76.6464 17.9884 74.101 15.472 70.8364 15.472ZM70.3571 24.6063C69.2493 24.6063 68.3811 24.0379 67.9317 23.3785V19.3654C68.3811 18.7665 69.3393 18.1376 70.3571 18.1376C72.2742 18.1376 73.7414 19.3355 73.7414 21.372C73.7414 23.4085 72.2742 24.6063 70.3571 24.6063ZM62.5712 15.472C63.4393 15.472 63.8887 15.6222 63.8887 15.6222V18.2872C63.8887 18.2872 61.4929 17.4786 59.9959 19.1859V27.062H57.1205V15.7717H59.5465C59.7861 15.7717 59.9653 15.9814 59.9653 16.1912V16.6705C60.505 16.0413 61.673 15.472 62.5711 15.472L62.5712 15.472ZM32.714 26.014C32.5644 25.6547 32.4145 25.2655 32.265 24.9357C32.025 24.3969 31.7854 23.8874 31.5763 23.4084L31.5463 23.3785C29.4796 18.8862 27.2639 14.3345 24.9277 9.84274L24.838 9.66267C24.5923 9.19669 24.3528 8.72743 24.1196 8.25502C23.8199 7.71562 23.5207 7.14723 23.0414 6.60779C22.0832 5.40989 20.7055 4.75085 19.2384 4.75085C17.7407 4.75085 16.3932 5.40993 15.4054 6.54767C14.956 7.08649 14.6263 7.6555 14.3271 8.1949C14.0934 8.66701 13.854 9.13626 13.6088 9.60255L13.5188 9.78262C11.2128 14.2744 8.96685 18.8263 6.90047 23.3184L6.87025 23.378C6.66081 23.8578 6.42089 24.3667 6.18127 24.9052C6.03168 25.2349 5.88206 25.5942 5.73248 25.9834C5.34297 27.0913 5.22299 28.1396 5.37318 29.2181C5.70257 31.4643 7.19964 33.3503 9.26633 34.1894C10.0451 34.5191 10.8537 34.6687 11.692 34.6687C11.9317 34.6687 12.2308 34.6388 12.4708 34.6086C13.4592 34.489 14.4774 34.1598 15.4658 33.5908C16.6936 32.9018 17.8616 31.914 19.1791 30.4764C20.4967 31.914 21.6946 32.9018 22.8925 33.5908C23.8812 34.1598 24.899 34.4889 25.8872 34.6086C26.1268 34.6391 26.4266 34.6687 26.6662 34.6687C27.5048 34.6687 28.3431 34.5192 29.0916 34.1894C31.1882 33.3503 32.6553 31.4343 32.985 29.2181C33.2229 28.1701 33.1032 27.1224 32.714 26.014ZM19.2081 27.5711C17.5908 25.5347 16.5425 23.6181 16.1835 22.0014C16.0339 21.3125 16.0037 20.7135 16.0937 20.1744C16.1533 19.6951 16.3334 19.2757 16.573 18.9164C17.1421 18.1083 18.1003 17.5988 19.2084 17.5988C20.3169 17.5988 21.305 18.0781 21.8441 18.9164C22.0838 19.2757 22.2633 19.6954 22.3237 20.1744C22.4132 20.7138 22.3833 21.3424 22.2337 22.0014C21.8732 23.5883 20.8249 25.505 19.2081 27.5711ZM31.1565 28.9788C30.9471 30.536 29.8988 31.884 28.4317 32.483C27.713 32.7821 26.934 32.8722 26.1558 32.7821C25.4073 32.6921 24.6582 32.4524 23.88 32.0037C22.8018 31.4042 21.7239 30.4764 20.4659 29.0984C22.4422 26.673 23.6401 24.4564 24.0895 22.4804C24.2992 21.5518 24.3294 20.7135 24.239 19.9344C24.1196 19.186 23.8498 18.4969 23.4307 17.898C22.5017 16.5499 20.9443 15.7717 19.2078 15.7717C17.4715 15.7717 15.9139 16.5804 14.9856 17.898C14.5665 18.4969 14.2966 19.1859 14.1769 19.9345C14.0573 20.7135 14.0869 21.5817 14.3265 22.4804C14.7756 24.4564 16.0034 26.7027 17.9498 29.1283C16.722 30.506 15.6139 31.4347 14.5357 32.0336C13.7569 32.483 13.0087 32.7226 12.2602 32.8121C11.4884 32.8983 10.7073 32.7956 9.98403 32.5129C8.51691 31.9139 7.46859 30.5659 7.25919 29.0087C7.16942 28.2602 7.22897 27.5116 7.52875 26.6731C7.61818 26.3732 7.76837 26.0741 7.91796 25.7148C8.12771 25.2355 8.36671 24.726 8.60664 24.2171L8.63685 24.1576C10.703 19.6951 12.9189 15.1432 15.2249 10.7113L15.3147 10.5312C15.5547 10.0824 15.7943 9.60312 16.0336 9.15379C16.2733 8.67448 16.5425 8.22511 16.8722 7.8356C17.5011 7.11759 18.3393 6.72778 19.268 6.72778C20.1966 6.72778 21.0349 7.11759 21.6638 7.8356C21.9935 8.22603 22.2627 8.67536 22.5024 9.15376C22.7423 9.60312 22.9819 10.0824 23.221 10.5312L23.311 10.7113C25.5819 15.1616 27.7684 19.6545 29.8695 24.1875V24.2174C30.1094 24.6973 30.3188 25.2358 30.5584 25.7157C30.708 26.0744 30.8579 26.3736 30.9477 26.6733C31.1867 27.4512 31.2765 28.2003 31.1565 28.9788L31.1565 28.9788Z" fill="#2F2B3D" fill-opacity="0.7"/>
</g>
</svg>
