<svg width="107" height="39" viewBox="0 0 107 39" fill="none" xmlns="http://www.w3.org/2000/svg">
<g id="logo-3">
<path id="Vector" d="M82.2766 29.4152C83.4236 29.5263 84.5702 29.6456 85.714 29.769L88.2393 23.5413L90.6397 30.3434C91.8707 30.4974 93.1008 30.659 94.3298 30.8282L90.1214 18.9001L94.3311 8.51765H90.7658L90.7287 8.56865L88.4546 14.1775L86.458 8.51849H82.9377L86.572 18.8189L82.2768 29.4152H82.2766ZM79.6142 29.1712V8.51761H76.0952V28.8813C77.2687 28.972 78.4417 29.0685 79.6142 29.1709V29.1712ZM53.18 28.0162C54.13 28.0162 55.0789 28.0234 56.0261 28.031V20.4433H60.2534V17.2121H56.0264V11.7527H60.895V8.51765H52.4937V28.019C52.7218 28.019 52.9511 28.0154 53.18 28.0162ZM42.2544 28.2137C43.4279 28.172 44.6015 28.1369 45.7753 28.1084V11.7532H49.0645V8.51846H38.9653V11.7532H42.255V28.2136L42.2544 28.2137ZM15.3415 30.3914V18.0866L19.5081 29.8945C20.7911 29.7508 22.0749 29.6153 23.3596 29.4879V8.518H19.9831V21.2638L15.487 8.518H11.9658V30.8337H11.9869C13.1025 30.6796 14.2219 30.5332 15.3415 30.3914ZM35.572 11.7524V8.51792H27.1699V29.1383C29.9653 28.8973 32.7641 28.6952 35.5652 28.532V25.2945C33.9435 25.3889 32.3227 25.4969 30.7028 25.6183V20.4447H34.9301V17.2116H30.7028V11.7524H35.572ZM67.869 25.1398V8.51685H64.3347V28.2255C67.1461 28.3286 69.9466 28.4722 72.7377 28.6532V25.4138C71.1156 25.3095 69.4926 25.2181 67.869 25.1396V25.1399L67.869 25.1398Z" fill="#2F2B3D" fill-opacity="0.7"/>
</g>
</svg>
