<svg width="106" height="39" viewBox="0 0 106 39" fill="none" xmlns="http://www.w3.org/2000/svg">
<g id="logo-2">
<path id="Vector" d="M36.5393 17.6762C37.5092 17.6762 38.2954 16.8909 38.2954 15.9224C38.2954 14.9536 37.5092 14.1685 36.5393 14.1685C35.5694 14.1685 34.7832 14.9536 34.7832 15.9224C34.7832 16.891 35.5694 17.6762 36.5393 17.6762ZM94.4953 23.6685C94.2282 23.4809 94.022 23.4498 93.8508 23.8141C90.9014 30.1921 85.931 27.0093 86.4248 27.2895C87.5272 26.7859 90.4268 24.4642 89.9886 21.2582C89.7224 19.299 88.0382 18.4299 86.2504 18.7411C83.1299 19.2843 81.9819 22.6449 82.5663 25.6201C82.6686 26.1311 82.8513 26.5525 83.0339 26.9653C79.5075 29.8284 78.1071 24.4022 77.9482 23.7537C77.9419 23.719 80.671 21.4478 81.4301 16.0356C82.2257 10.3633 80.4133 9.33042 78.5601 9.36266C75.1306 9.42233 74.2039 16.5763 75.4489 22.5386C75.3446 22.5657 74.8594 22.8341 74.0796 22.8642C73.5186 21.1014 71.1211 19.5563 70.4936 20.1517C68.9232 21.6411 70.8745 24.553 72.2474 24.7814C71.4226 29.8532 66.2648 28.5971 67.2249 22.243C68.9045 19.1288 70.182 14.4982 69.954 11.7028C69.8733 10.7131 69.1404 9.38713 67.483 9.45289C64.295 9.57881 63.9484 16.7348 64.3222 21.8137C64.3036 21.6885 64.1262 22.4307 62.8198 22.7997C62.5108 21.0872 59.749 19.3682 59.0989 20.1947C57.8819 21.7414 59.991 24.4994 60.9901 24.6917C60.1653 29.7633 55.0076 28.5072 55.9677 22.1531C57.6473 19.0391 58.9246 14.4085 58.6967 11.6131C58.6159 10.6232 57.8832 9.29721 56.2256 9.36282C53.0376 9.4889 52.6911 16.6449 53.0648 21.7237C53.0461 21.5967 52.8645 22.3633 51.5048 22.7262C51.4593 20.5044 48.6875 19.4856 48.0216 20.1945C46.8349 21.4582 48.2934 24.051 49.6426 24.6917C48.8179 29.7633 43.6602 28.5072 44.6203 22.1531C46.2999 19.0391 47.5774 14.4085 47.3493 11.6131C47.2687 10.6232 46.5358 9.29721 44.8782 9.36282C41.6904 9.4889 41.4339 17.0046 41.8076 22.0833C40.7576 26.5751 37.2363 32.1844 37.6938 20.9477C37.739 20.1595 37.7883 19.8602 37.3947 19.5651C37.0998 19.3357 36.4291 19.4461 36.0625 19.4552C35.6169 19.473 35.5052 19.7333 35.4067 20.1267C35.1773 21.1427 35.1361 22.1276 35.1033 23.4715C35.0818 24.1001 35.0313 24.3934 34.7889 25.2506C34.5467 26.1076 33.1652 27.674 32.4088 27.4121C31.3594 27.0518 31.7037 24.0942 31.9003 22.062C32.0642 20.4561 31.5395 19.7349 30.1952 19.4727C29.4082 19.3089 28.93 19.334 28.1104 19.0761C27.3353 18.8322 27.16 17.3684 25.5069 17.8562C24.6027 18.1232 25.184 20.036 24.9666 21.4537C23.8983 28.4276 21.6753 28.6191 20.644 25.2314C25.2887 13.8734 21.9876 9.39572 20.0552 9.39572C18.0426 9.39572 15.742 10.7799 16.7161 19.6361C16.2425 19.4981 16.0968 19.4238 15.5783 19.4238C12.6455 19.4238 10.6475 21.7908 10.6475 24.7109C10.6475 27.6309 12.6457 29.9982 15.5785 29.9982C17.3097 29.9982 18.5252 29.212 19.4458 27.9959C20.0465 28.8547 20.7779 30.0113 22.1154 29.9593C26.1021 29.8043 27.2615 21.6393 27.3984 21.1839C27.8246 21.2495 28.2278 21.3736 28.6213 21.4392C29.2771 21.5375 29.3248 21.7966 29.3099 22.4552C29.1361 28.0083 30.1624 29.9527 32.4905 29.9527C33.7877 29.9527 34.9438 28.6802 35.7402 27.7704C36.3351 28.9962 37.283 29.9152 38.5546 29.9525C41.6359 30.0291 42.8158 25.1255 42.7082 25.7708C42.6238 26.2771 43.7078 29.9249 46.8801 29.9381C50.8095 29.9547 51.5399 25.6402 51.627 24.9176C51.6379 24.7738 51.6427 24.7887 51.627 24.9176L51.624 24.9614C52.8715 24.7297 53.5152 24.0619 53.5152 24.0619C53.5152 24.0619 54.5168 30.0053 58.2273 29.9383C62.0804 29.8686 62.807 25.9686 62.9024 25.2081C62.915 25.0277 62.9224 25.0488 62.9024 25.2081L62.9009 25.2304C64.3827 24.6922 64.7725 24.152 64.7725 24.152C64.7725 24.152 65.5686 29.9771 69.4847 30.0281C72.9743 30.0737 74.2677 26.5057 74.2753 25.0123C74.8639 25.0186 75.9526 24.6636 75.9271 24.6434C75.9271 24.6434 77.2053 29.7366 80.775 29.9982C82.4509 30.1209 83.7082 29.0565 84.4249 28.571C86.1091 29.9329 91.7175 31.6723 95.2588 25.6778C95.7587 24.8175 94.684 23.8012 94.4953 23.6685ZM15.4369 28.0207C13.7258 28.0207 12.6287 26.4411 12.6287 24.7378C12.6287 23.0347 13.6358 21.4551 15.3469 21.4551C16.1169 21.4551 16.5452 21.5396 17.1448 22.0604C17.2536 22.4882 17.5618 23.4751 17.7117 23.9233C17.9127 24.523 18.1517 25.0335 18.3926 25.589C18.0484 27.014 16.9198 28.0207 15.4369 28.0207ZM19.6065 22.1105C19.5354 21.9973 19.5502 22.0668 19.4706 21.9599C19.157 21.108 18.5525 19.2066 18.4825 17.0469C18.4034 14.6038 18.8112 11.7401 20.0135 11.7401C20.8282 11.7401 21.694 17.5439 19.6063 22.1105H19.6065ZM43.6988 19.5649C43.5058 18.1151 43.4956 11.6521 45.0497 11.8301C45.9077 12.1771 44.5056 18.2758 43.6988 19.5649ZM55.0462 19.5649C54.8532 18.1151 54.8431 11.6521 56.397 11.8301C57.2551 12.1771 55.853 18.2758 55.0462 19.5649ZM66.3035 19.6549C66.1104 18.205 66.1004 11.742 67.6543 11.92C68.5123 12.267 67.1102 18.3658 66.3035 19.6549ZM78.7315 11.4518C80.1523 11.3047 80.0937 17.4994 77.2419 21.4103C76.8742 19.9967 76.3102 11.9371 78.7315 11.4516V11.4518ZM84.7033 24.7814C84.2469 22.4799 85.4261 20.9684 86.6416 20.8026C87.0665 20.7349 87.6821 21.0097 87.805 21.5235C88.0069 22.4917 87.7757 23.9279 85.0551 25.7501C85.0591 25.7657 84.805 25.2941 84.7034 24.7814H84.7033Z" fill="#2F2B3D" fill-opacity="0.7"/>
</g>
</svg>
