<svg width="107" height="39" viewBox="0 0 107 39" fill="none" xmlns="http://www.w3.org/2000/svg">
<g id="logo-5">
<path id="Vector" d="M27.8409 16.0306C28.8811 16.0306 29.8791 15.1646 30.0527 14.0963C30.2578 13.0564 29.5527 12.1904 28.5133 12.1904C27.4736 12.1904 26.4755 13.0564 26.2993 14.0963C26.0964 15.1646 26.7725 16.0306 27.8409 16.0306ZM98.4287 19.1215H100.756C101.074 19.1215 101.261 18.992 101.333 18.6944C101.444 18.2336 101.559 17.7735 101.677 17.3142C101.745 17.0464 101.59 16.8434 101.293 16.8434H98.9965C99.1619 16.1853 99.8059 14.0489 99.8059 12.6561C99.8059 9.87453 97.4439 7.50849 94.0925 7.50849C90.3075 7.50849 87.8451 10.0486 87.8451 13.6228C87.8451 14.6653 88.2341 15.8805 88.7162 16.6343C88.5087 16.6225 88.3009 16.6166 88.0931 16.6167C85.2171 16.6167 83.4056 18.1767 83.4056 20.4469C83.4056 22.5774 85.0851 23.4053 86.6664 23.9563C88.071 24.4458 89.3644 24.6736 89.3644 25.7708C89.3644 26.5107 88.6527 26.9449 87.2599 26.9449C85.6073 26.9449 84.6991 26.1666 84.4683 25.8714C84.6248 25.7484 84.8577 25.4555 84.8577 24.9675C84.8577 24.2849 84.3782 23.7277 83.4876 23.7277C82.7341 23.7277 82.0971 24.3423 81.9371 25.1507C80.7269 26.1408 79.406 26.7824 77.5327 26.7824C75.6881 26.7824 74.7306 25.823 74.7306 23.7814C75.1631 23.9131 76.2892 24.0712 77.0334 24.0712C80.1568 24.0712 82.2854 22.6521 82.2854 19.8102C82.2854 18.282 80.9438 16.677 78.2897 16.677H78.2837C74.7928 16.677 72.8374 18.8883 71.9837 21.3205C71.7445 21.2629 71.5049 21.207 71.2648 21.1528C71.4558 20.6133 71.5928 19.9881 71.5928 19.2949C71.5928 18.0937 70.8489 16.677 68.8583 16.677C67.4717 16.677 66.1564 17.5852 65.2448 18.9465C65.4716 18.0585 65.622 17.4672 65.6317 17.4276C65.6911 17.1953 65.5944 16.9367 65.2322 16.9367H63.1891C62.8979 16.9367 62.6924 17.0395 62.6097 17.3711C62.5541 17.5922 61.8521 20.3466 61.1688 23.0286C60.7383 24.7008 58.5115 26.7824 55.7127 26.7824C53.8678 26.7824 52.9112 25.7599 52.9112 23.7175C53.3939 23.9097 54.4696 24.071 55.2135 24.071C58.4639 24.071 60.4655 22.652 60.4655 19.81C60.4655 18.2818 59.1241 16.6769 56.4697 16.6769H56.4639C52.5331 16.6769 50.1251 19.73 49.7171 23.1918C49.5474 24.6309 48.3328 26.607 47.0161 26.607C46.3746 26.607 46.0169 26.2041 46.0169 25.52C46.0169 24.9293 46.4328 23.4848 46.8886 21.6745C47.0413 21.069 47.2731 20.1451 47.5301 19.1215H49.6671C49.9853 19.1215 50.1718 18.992 50.2441 18.6944C50.3464 18.266 50.534 17.5186 50.5873 17.3142C50.6561 17.0464 50.5011 16.8434 50.2032 16.8434H48.1018C48.1018 16.8434 49.0693 12.983 49.0923 12.8839C49.1855 12.4913 48.857 12.2648 48.5133 12.3371C48.5133 12.3371 46.8891 12.655 46.5878 12.7178C46.2851 12.7791 46.05 12.9454 45.9406 13.3819L45.0804 16.8433H43.393C43.0749 16.8433 42.8878 16.9732 42.8165 17.2701C42.7044 17.7309 42.59 18.191 42.4733 18.6507C42.4035 18.9185 42.5593 19.1215 42.8569 19.1215H44.5116C44.4999 19.1688 43.914 21.3978 43.44 23.3938C43.2169 24.3537 42.4698 26.5999 41.2462 26.5999C40.5153 26.5999 40.2065 26.2311 40.2065 25.4403C40.2065 24.195 41.4324 21.0775 41.4324 19.6629C41.4324 17.7732 40.4186 16.6784 38.3418 16.6784C37.0327 16.6784 35.6752 17.5237 35.1 18.2656C35.1 18.2656 35.2745 17.6583 35.3343 17.4248C35.398 17.1782 35.2657 16.9359 34.9419 16.9359H32.9113C32.4792 16.9359 32.3597 17.1669 32.2963 17.421C32.2709 17.5229 31.5392 20.3961 30.8368 23.1543C30.3564 25.043 29.189 26.6212 27.9408 26.6212C27.2991 26.6212 27.0133 26.2184 27.0133 25.5344C27.0133 24.9434 27.3951 23.485 27.8508 21.6749C28.4052 19.4712 28.8942 17.6564 28.9466 17.4445C29.0148 17.1728 28.8933 16.936 28.5432 16.936H26.5004C26.1303 16.936 25.9982 17.1302 25.9202 17.4001C25.9202 17.4001 25.3452 19.5765 24.7364 21.9995C24.2942 23.7579 23.8059 25.549 23.8059 26.3905C23.8059 27.8922 24.4802 29.0242 26.3339 29.0242C27.7646 29.0242 28.8969 28.2987 29.7615 27.3742C29.6345 27.8746 29.5534 28.1913 29.5452 28.2237C29.4706 28.5097 29.5609 28.7626 29.898 28.7626H31.9884C32.3523 28.7626 32.4922 28.6162 32.5682 28.2989C32.6413 27.996 34.2026 21.855 34.2026 21.855C34.6153 20.2054 35.636 19.113 37.072 19.113C37.7529 19.113 38.3422 19.5638 38.274 20.44C38.1982 21.4039 37.0358 24.8668 37.0358 26.3866C37.0358 27.537 37.4623 29.0253 39.6278 29.0253C41.1039 29.0253 42.1905 28.3176 42.9806 27.4042C43.27 28.3736 44.0365 29.0253 45.4424 29.0253C47.7791 29.0253 49.1875 27.6394 50.015 26.2474C50.7016 27.8647 52.3098 29.0245 54.6681 29.0245C57.0717 29.0245 58.9318 28.0112 60.25 26.6337L59.8389 28.2462C59.7641 28.5367 59.8906 28.7651 60.2316 28.7651H62.3006C62.5838 28.7651 62.7854 28.621 62.8589 28.3234C62.8953 28.1774 63.1942 27.0221 63.6164 25.3804C64.424 22.2391 65.7217 18.9801 67.6719 18.9801C68.3596 18.9801 68.6416 19.3646 68.6416 19.9703C68.6416 20.2559 68.5588 20.5027 68.4871 20.635C67.5419 20.4472 66.7814 20.9138 66.7814 21.9231C66.7814 22.5806 67.4734 23.1783 68.4073 23.1783C69.1209 23.1783 69.7108 23.0033 70.1813 22.6866C70.6444 22.7821 71.1065 22.8826 71.5675 22.988C71.4966 23.4435 71.4603 23.9037 71.459 24.3647C71.459 26.8861 73.2594 29.0243 76.4864 29.0243C79.0152 29.0243 80.7506 28.0993 82.2486 26.9133C82.9687 28.0915 84.7868 29.0437 87.1722 29.0437C90.4415 29.0437 92.2956 27.3438 92.2956 25.0967C92.2956 23.0629 90.6261 22.3143 88.9043 21.6911C87.5047 21.1855 86.3373 20.9106 86.3373 19.9214C86.3373 19.1106 86.9755 18.7398 88.0694 18.7398C88.7791 18.7398 89.312 18.8926 89.5965 18.9725C89.8788 19.6788 90.4627 20.4609 91.4595 20.4609C92.3031 20.4609 92.6819 19.7938 92.6819 19.1794C92.6819 17.4304 89.7684 17.247 89.7684 13.4961C89.7684 11.1637 91.0882 9.23954 93.8215 9.23954C95.7208 9.23954 96.961 10.4439 96.961 12.3877C96.961 13.9903 95.989 16.8432 95.989 16.8432H94.3369C94.0194 16.8432 93.8321 16.973 93.7603 17.2699C93.6485 17.7308 93.5338 18.191 93.4165 18.6505C93.347 18.9183 93.5028 19.1213 93.8005 19.1213H95.4136C95.4136 19.1213 93.746 25.2715 93.746 26.39C93.746 27.8918 94.5924 29.0234 96.4468 29.0234C99.0699 29.0234 100.709 27.3188 101.422 24.8402C101.477 24.6485 101.368 24.4924 101.174 24.4924H100.173C99.9738 24.4924 99.8579 24.6063 99.8075 24.8015C99.5814 25.6814 99.0211 26.6071 97.918 26.6071C97.2765 26.6071 96.9189 26.2042 96.9189 25.5203C96.9189 24.9294 97.31 23.5461 97.7913 21.6749C98.0206 20.7838 98.4287 19.1215 98.4287 19.1215ZM77.7463 19.0164C78.6739 19.0164 79.1145 19.6335 79.1145 20.3689C79.1145 21.6127 78.1499 22.3711 76.641 22.3711C76.101 22.3711 75.3461 22.2432 74.9004 22.0947C75.0877 20.9508 75.9156 19.0164 77.7463 19.0164ZM55.9266 19.0164C56.9419 19.0164 57.2944 19.6335 57.2944 20.3689C57.2944 21.6127 56.3301 22.3711 54.8214 22.3711C54.2813 22.3711 53.5264 22.2432 53.0808 22.0947C53.2671 20.9508 54.0012 19.0164 55.9266 19.0164ZM15.786 7.48157C9.16725 7.48157 5.83008 12.2269 5.83008 16.1841C5.83008 18.5801 6.73721 20.7117 8.68284 21.5059C9.00187 21.6365 9.28766 21.5104 9.38018 21.1572C9.44457 20.9127 9.5968 20.2962 9.66471 20.0392C9.75819 19.6898 9.72184 19.5673 9.46435 19.2628C8.90336 18.601 8.54484 17.7443 8.54484 16.5308C8.54484 13.0103 11.1788 9.85858 15.4037 9.85858C19.1449 9.85858 21.2001 12.1444 21.2001 15.1973C21.2001 19.214 19.4226 22.6041 16.7835 22.6041C15.3262 22.6041 14.2352 21.3988 14.5849 19.9206C15.0036 18.1559 15.8146 16.2512 15.8146 14.9774C15.8146 13.8371 15.2025 12.886 13.9359 12.886C12.446 12.886 11.2492 14.4272 11.2492 16.4918C11.2492 17.8068 11.6936 18.6962 11.6936 18.6962C11.6936 18.6962 10.169 25.156 9.90175 26.2873C9.36952 28.5404 9.82161 31.3023 9.85984 31.5813C9.88243 31.7465 10.0949 31.7858 10.1911 31.6611C10.3285 31.4818 12.1027 29.2912 12.7061 27.1023C12.8768 26.4824 13.686 23.2732 13.686 23.2732C14.1699 24.1964 15.5845 25.0096 17.0889 25.0096C21.5671 25.0096 24.6055 20.9269 24.6055 15.4621C24.6055 11.33 21.1055 7.48157 15.786 7.48157Z" fill="#2F2B3D" fill-opacity="0.7"/>
</g>
</svg>
