<svg width="91" height="23" viewBox="0 0 91 23" fill="none" xmlns="http://www.w3.org/2000/svg">
<path id="Vector" d="M27.5605 9.54613C28.5929 9.54613 29.4297 8.71021 29.4297 7.67923C29.4297 6.64809 28.5929 5.81238 27.5605 5.81238C26.5281 5.81238 25.6912 6.64809 25.6912 7.67923C25.6912 8.71025 26.5281 9.54613 27.5605 9.54613ZM89.2515 15.9245C88.9672 15.7249 88.7477 15.6918 88.5655 16.0795C85.4259 22.8687 80.1353 19.4807 80.6608 19.7789C81.8344 19.2429 84.9208 16.7715 84.4543 13.359C84.1711 11.2735 82.3782 10.3484 80.4753 10.6796C77.1536 11.2578 75.9316 14.835 76.5537 18.002C76.6626 18.5458 76.8571 18.9944 77.0514 19.4338C73.2977 22.4815 71.8071 16.7056 71.638 16.0153C71.6313 15.9784 74.5363 13.5607 75.3443 7.79976C76.1911 1.76189 74.262 0.662462 72.2893 0.696789C68.6389 0.760299 67.6524 8.37531 68.9777 14.7219C68.8666 14.7507 68.3501 15.0364 67.5201 15.0684C66.9229 13.1921 64.3709 11.5474 63.703 12.1811C62.0314 13.7665 64.1084 16.8661 65.5698 17.1092C64.6919 22.5079 59.2016 21.1709 60.2236 14.4072C62.0115 11.0923 63.3713 6.16331 63.1287 3.18773C63.0427 2.13426 62.2626 0.722829 60.4983 0.792829C57.1049 0.92687 56.736 8.54401 57.1338 13.9502C57.1141 13.817 56.9252 14.607 55.5347 14.9998C55.2057 13.1769 52.266 11.3471 51.5739 12.2269C50.2785 13.8733 52.5236 16.809 53.587 17.0137C52.709 22.4122 47.2189 21.0751 48.241 14.3115C50.0288 10.9968 51.3884 6.0678 51.1458 3.09222C51.0598 2.03858 50.2799 0.627115 48.5155 0.696952C45.1221 0.831156 44.7532 8.44829 45.151 13.8545C45.131 13.7192 44.9378 14.5353 43.4905 14.9215C43.442 12.5565 40.4915 11.4721 39.7827 12.2267C38.5196 13.5718 40.0721 16.3318 41.5083 17.0137C40.6304 22.4122 35.1403 21.0751 36.1623 14.3115C37.9501 10.9968 39.3099 6.0678 39.0672 3.09222C38.9813 2.03858 38.2012 0.627115 36.4368 0.696952C33.0435 0.831156 32.7705 8.83123 33.1683 14.2373C32.0506 19.0185 28.3024 24.9893 28.7893 13.0285C28.8375 12.1894 28.8899 11.8709 28.471 11.5567C28.157 11.3125 27.4432 11.43 27.0529 11.4397C26.5786 11.4587 26.4597 11.7358 26.3549 12.1546C26.1107 13.236 26.0668 14.2844 26.0319 15.7149C26.0091 16.384 25.9553 16.6962 25.6972 17.6086C25.4395 18.5209 23.9689 20.1882 23.1637 19.9094C22.0468 19.526 22.4132 16.3777 22.6225 14.2146C22.7969 12.5052 22.2384 11.7375 20.8075 11.4584C19.9698 11.284 19.4608 11.3108 18.5884 11.0362C17.7633 10.7766 17.5767 9.21841 15.8171 9.73768C14.8546 10.0219 15.4733 12.058 15.242 13.5671C14.1048 20.9904 11.7385 21.1942 10.6407 17.5882C15.5848 5.49821 12.0709 0.731972 10.0141 0.731972C7.87171 0.731972 5.42281 2.20532 6.45979 11.6323C5.95559 11.4854 5.80053 11.4063 5.24857 11.4063C2.12686 11.4063 0 13.9259 0 17.0341C0 20.1423 2.12702 22.6622 5.24877 22.6622C7.09163 22.6622 8.38546 21.8254 9.36538 20.5309C10.0047 21.4451 10.7833 22.6762 12.207 22.6208C16.4506 22.4558 17.6847 13.7646 17.8304 13.2798C18.2841 13.3496 18.7133 13.4818 19.1322 13.5516C19.8303 13.6562 19.881 13.9321 19.8651 14.6331C19.6801 20.5441 20.7726 22.6138 23.2508 22.6138C24.6315 22.6138 25.8621 21.2593 26.7099 20.2908C27.3431 21.5956 28.3521 22.5738 29.7057 22.6136C32.9856 22.6951 34.2414 17.4755 34.1269 18.1624C34.037 18.7013 35.191 22.5842 38.5677 22.5983C42.7503 22.6159 43.5278 18.0234 43.6205 17.2542C43.6321 17.1011 43.6372 17.117 43.6205 17.2542L43.6173 17.3008C44.9452 17.0542 45.6304 16.3433 45.6304 16.3433C45.6304 16.3433 46.6966 22.6697 50.6462 22.5984C54.7476 22.5242 55.5211 18.3729 55.6225 17.5634C55.6359 17.3713 55.6438 17.3938 55.6225 17.5634L55.6209 17.5872C57.1983 17.0142 57.6132 16.4392 57.6132 16.4392C57.6132 16.4392 58.4606 22.6398 62.629 22.694C66.3436 22.7426 67.7203 18.9446 67.7284 17.355C68.3549 17.3617 69.5138 16.9838 69.4866 16.9623C69.4866 16.9623 70.8473 22.3837 74.6469 22.6622C76.4309 22.7929 77.7692 21.6598 78.5321 21.1431C80.3249 22.5927 86.2947 24.4442 90.0642 18.0633C90.5963 17.1476 89.4524 16.0658 89.2515 15.9245ZM5.09812 20.5573C3.27677 20.5573 2.1089 18.8758 2.1089 17.0628C2.1089 15.25 3.18094 13.5685 5.00228 13.5685C5.82187 13.5685 6.27779 13.6585 6.91612 14.2128C7.03187 14.6682 7.35991 15.7187 7.51955 16.1958C7.73342 16.8341 7.98783 17.3775 8.24432 17.9689C7.87787 19.4857 6.67653 20.5573 5.09812 20.5573ZM9.53644 14.2661C9.46069 14.1456 9.47652 14.2197 9.39179 14.1059C9.05791 13.1991 8.41452 11.1751 8.33999 8.87625C8.25579 6.27572 8.68987 3.22748 9.96967 3.22748C10.8368 3.22748 11.7584 9.40523 9.53624 14.2661H9.53644ZM35.1813 11.5565C34.9759 10.0133 34.9651 3.13373 36.6193 3.32319C37.5326 3.69258 36.0402 10.1843 35.1813 11.5565ZM47.26 11.5565C47.0546 10.0133 47.0438 3.13373 48.698 3.32319C49.6113 3.69258 48.1189 10.1843 47.26 11.5565ZM59.2429 11.6524C59.0373 10.109 59.0267 3.22944 60.6807 3.41891C61.594 3.7883 60.1016 10.2801 59.2429 11.6524ZM72.4718 2.92054C73.9842 2.76401 73.9218 9.35788 70.8862 13.5208C70.4948 12.0161 69.8945 3.43715 72.4718 2.92038V2.92054ZM78.8284 17.1092C78.3427 14.6594 79.5978 13.0505 80.8917 12.874C81.3439 12.8019 81.9993 13.0944 82.13 13.6413C82.3449 14.6719 82.0988 16.2007 79.2029 18.1404C79.2072 18.1569 78.9367 17.6549 78.8286 17.1092H78.8284Z" fill="#EA4C89"/>
</svg>
