<svg width="107" height="39" viewBox="0 0 107 39" fill="none" xmlns="http://www.w3.org/2000/svg">
<g id="logo-4">
<path id="Vector" d="M13.4573 29.7984C10.4236 29.7984 7.4541 27.6145 7.4541 22.6845C7.4541 17.7385 10.4236 15.5866 13.4573 15.5866C14.9501 15.5866 16.1219 15.972 16.9566 16.518L16.0416 18.5254C15.4798 18.1239 14.6451 17.867 13.8105 17.867C11.9806 17.867 10.3113 19.3122 10.3113 22.6524C10.3113 25.9926 12.0287 27.4699 13.8105 27.4699C14.6452 27.4699 15.4798 27.213 16.0416 26.8115L16.9566 28.867C16.0898 29.4452 14.9501 29.7984 13.4573 29.7984ZM23.9068 29.7984C20.0384 29.7984 17.9036 26.7312 17.9036 22.6845C17.9036 18.6377 20.0224 15.5866 23.9068 15.5866C27.7752 15.5866 29.9101 18.6217 29.9101 22.6845C29.9101 26.7312 27.7752 29.7984 23.9068 29.7984ZM23.9068 17.7866C21.7559 17.7866 20.6965 19.7137 20.6965 22.6524C20.6965 25.5911 21.7559 27.5342 23.9068 27.5342C26.0577 27.5342 27.1171 25.5911 27.1171 22.6524C27.1171 19.7137 26.0577 17.7866 23.9068 17.7866ZM33.634 13.3866C32.7191 13.3866 31.9807 12.68 31.9807 11.8129C31.9807 10.9457 32.7191 10.2391 33.634 10.2391C34.5489 10.2391 35.2873 10.9457 35.2873 11.8129C35.2873 12.68 34.5329 13.3866 33.634 13.3866ZM32.2375 15.8596H35.0305V29.5094H32.2375V15.8596ZM45.9776 29.5094V20.4042C45.9776 18.8144 45.0145 17.8188 43.1204 17.8188C42.1091 17.8188 41.1782 17.9954 40.6164 18.2202V29.5254H37.8555V16.5501C39.2199 15.9881 40.9695 15.5866 43.1044 15.5866C46.9246 15.5866 48.7705 17.2567 48.7705 20.1472V29.5255H45.9776V29.5094ZM56.106 29.7984C54.3404 29.7984 52.5907 29.3649 51.5153 28.8349V9.62891H54.2762V16.2129C54.9343 15.9078 55.9936 15.6509 56.9407 15.6509C60.456 15.6509 62.8476 18.1881 62.8476 22.3633C62.8476 27.5181 60.1831 29.7984 56.106 29.7984ZM56.4592 17.8188C55.7048 17.8188 54.8059 17.9954 54.2762 18.2684V27.2291C54.6774 27.4057 55.464 27.5824 56.2505 27.5824C58.4495 27.5824 60.0707 26.0568 60.0707 22.5721C60.0868 19.5852 58.6742 17.8188 56.4592 17.8188ZM70.3597 29.7984C66.4431 29.7984 64.4528 28.2086 64.4528 25.5108C64.4528 21.7049 68.4977 21.0305 72.623 20.8057V19.9385C72.623 18.2202 71.4833 17.61 69.7337 17.61C68.4496 17.61 66.8765 18.0115 65.9616 18.4451L65.2553 16.5501C66.3468 16.0684 68.1928 15.5866 70.0226 15.5866C73.2811 15.5866 75.2715 16.8552 75.2715 20.2275V28.8349C74.2923 29.3649 72.2859 29.7984 70.3597 29.7984ZM72.639 22.6524C69.846 22.7969 67.0692 23.0378 67.0692 25.4626C67.0692 26.9079 68.1767 27.7911 70.2794 27.7911C71.1623 27.7911 72.2056 27.6466 72.639 27.4378V22.6524ZM81.4994 29.7984C79.9103 29.7984 78.241 29.3649 77.2458 28.8349L78.1768 26.7152C78.883 27.1488 80.3758 27.5984 81.4191 27.5984C82.9119 27.5984 83.9071 26.8597 83.9071 25.7195C83.9071 24.4831 82.8637 24.0013 81.4833 23.4874C79.6535 22.7969 77.615 21.9619 77.615 19.4086C77.615 17.1604 79.3646 15.5866 82.3983 15.5866C84.0516 15.5866 85.416 15.9881 86.379 16.5501L85.5122 18.4772C84.9023 18.0918 83.6824 17.6742 82.7033 17.6742C81.2586 17.6742 80.4561 18.429 80.4561 19.4246C80.4561 20.6611 81.4673 21.0947 82.8156 21.6086C84.7097 22.3152 86.8124 23.102 86.8124 25.7677C86.7964 28.1925 84.9184 29.7984 81.4994 29.7984ZM100.264 22.6203L91.1945 23.8889C91.4674 26.3458 93.0725 27.5824 95.3679 27.5824C96.7322 27.5824 98.209 27.2451 99.1399 26.7473L99.9425 28.8189C98.8831 29.3809 97.0532 29.7824 95.1752 29.7824C90.8734 29.7824 88.4657 27.0203 88.4657 22.6684C88.4657 18.4932 90.7932 15.5706 94.6134 15.5706C98.1608 15.5706 100.264 17.8991 100.264 21.5765C100.296 21.9137 100.296 22.267 100.264 22.6203ZM94.5974 17.61C92.4786 17.61 91.0821 19.2319 91.034 22.0743L97.6472 21.159C97.615 18.7823 96.4112 17.61 94.5974 17.61Z" fill="#2F2B3D" fill-opacity="0.7"/>
</g>
</svg>
