<svg width="58" height="34" viewBox="0 0 58 34" fill="none" xmlns="http://www.w3.org/2000/svg">
<rect width="58" height="34" rx="6" fill="#2F2B3D" fill-opacity="0.06"/>
<path d="M25.3398 26.3235L25.6865 24.1217L24.9143 24.1038H21.2271L23.7895 7.85634C23.7971 7.8067 23.8223 7.76145 23.8605 7.72885C23.8987 7.69624 23.9474 7.67845 23.9976 7.67871H30.2148C32.2787 7.67871 33.7031 8.10821 34.4468 8.95595C34.7954 9.35363 35.0175 9.76922 35.1249 10.2266C35.2375 10.7064 35.2395 11.2798 35.1295 11.979L35.1215 12.03V12.4781L35.4702 12.6757C35.7363 12.8105 35.9756 12.9929 36.1761 13.2139C36.4743 13.5538 36.6672 13.986 36.7488 14.4984C36.8329 15.0253 36.8051 15.6523 36.6672 16.3622C36.5081 17.1788 36.251 17.89 35.9036 18.4719C35.5972 18.9932 35.1852 19.4448 34.694 19.7975C34.2327 20.1249 33.6845 20.3735 33.0649 20.5326C32.4643 20.689 31.7796 20.7679 31.0287 20.7679H30.5449C30.1989 20.7679 29.8628 20.8925 29.599 21.1158C29.3356 21.3416 29.1608 21.6535 29.1059 21.9961L29.0694 22.1942L28.457 26.075L28.4291 26.2175C28.4218 26.2625 28.4093 26.2851 28.3907 26.3004C28.3727 26.3151 28.3503 26.3232 28.3271 26.3235H25.3398Z" fill="#253B80"/>
<path d="M35.8007 12.0798C35.7822 12.1984 35.761 12.3198 35.7371 12.4444C34.9172 16.6539 32.1122 18.1081 28.5297 18.1081H26.7056C26.2676 18.1081 25.8983 18.4262 25.8301 18.8584L24.8962 24.7812L24.6317 26.4602C24.6212 26.5268 24.6252 26.5948 24.6435 26.6597C24.6618 26.7246 24.694 26.7848 24.7378 26.836C24.7815 26.8873 24.8359 26.9285 24.8971 26.9567C24.9583 26.985 25.025 26.9996 25.0923 26.9997H28.3275C28.7107 26.9997 29.0361 26.7213 29.0964 26.3435L29.1282 26.1791L29.7373 22.3136L29.7764 22.1015C29.8361 21.7224 30.1622 21.444 30.5453 21.444H31.0291C34.1636 21.444 36.6173 20.1714 37.3344 16.4888C37.6341 14.9505 37.479 13.6659 36.6862 12.7625C36.435 12.4831 36.1349 12.2517 35.8007 12.0798Z" fill="#179BD7"/>
<path d="M34.9435 11.7396C34.6818 11.6639 34.4154 11.6048 34.1462 11.5626C33.6142 11.4809 33.0765 11.4416 32.5382 11.4453H27.6652C27.4798 11.4452 27.3004 11.5114 27.1595 11.632C27.0186 11.7525 26.9255 11.9196 26.8971 12.1028L25.8604 18.6686L25.8306 18.8602C25.8629 18.6512 25.9689 18.4606 26.1295 18.323C26.2901 18.1854 26.4946 18.1098 26.7062 18.1099H28.5302C32.1127 18.1099 34.9177 16.655 35.7376 12.4462C35.7621 12.3215 35.7827 12.2002 35.8012 12.0816C35.5849 11.9681 35.3594 11.873 35.1271 11.7973C35.0662 11.7771 35.0051 11.7578 34.9435 11.7396Z" fill="#222D65"/>
<path d="M26.8961 12.103C26.9244 11.9197 27.0174 11.7526 27.1584 11.6321C27.2994 11.5115 27.4789 11.4456 27.6643 11.4461H32.5373C33.1146 11.4461 33.6535 11.4839 34.1453 11.5634C34.4781 11.6158 34.8063 11.694 35.1269 11.7974C35.3688 11.8776 35.5935 11.9724 35.801 12.0818C36.0449 10.5261 35.799 9.46698 34.9579 8.50789C34.0306 7.45204 32.357 7 30.2155 7H23.9983C23.5609 7 23.1877 7.31815 23.1201 7.75096L20.5305 24.1654C20.5184 24.2417 20.523 24.3196 20.5439 24.3939C20.5649 24.4681 20.6016 24.5369 20.6517 24.5957C20.7018 24.6544 20.764 24.7015 20.834 24.7339C20.9041 24.7663 20.9803 24.7831 21.0574 24.7832H24.8958L25.8595 18.6688L26.8961 12.103Z" fill="#253B80"/>
</svg>
