<svg width="71" height="23" viewBox="0 0 71 23" fill="none" xmlns="http://www.w3.org/2000/svg">
<path id="Logo" d="M37.1516 6.22227C37.1516 7.01514 36.5127 7.65354 35.7199 7.65354C34.927 7.65354 34.2886 7.01514 34.2886 6.22227C34.2886 5.4294 34.9053 4.79099 35.7199 4.79099C36.5352 4.81299 37.1516 5.45164 37.1516 6.22227ZM31.2496 9.10729V9.45975C31.2496 9.45975 30.5671 8.57843 29.1136 8.57843C26.7135 8.57843 24.8413 10.4064 24.8413 12.9387C24.8413 15.4493 26.6915 17.2991 29.1136 17.2991C30.5891 17.2991 31.2496 16.3962 31.2496 16.3962V16.7704C31.2496 16.9466 31.382 17.0784 31.558 17.0784H33.3415V8.79797H31.558C31.382 8.79865 31.2496 8.95305 31.2496 9.10729ZM31.2496 14.4142C30.9196 14.8989 30.2587 15.3173 29.4661 15.3173C28.0568 15.3173 26.9775 14.4365 26.9775 12.9387C26.9775 11.4412 28.0568 10.5604 29.4661 10.5604C30.2369 10.5604 30.9416 11.0008 31.2496 11.4632V14.4142ZM34.663 8.79865H36.7769V17.0791H34.663V8.79865ZM66.2423 8.57821C64.7888 8.57821 64.1059 9.4595 64.1059 9.4595V4.81299H61.992V17.0791H63.7759C63.9521 17.0791 64.0839 16.9248 64.0839 16.7706V16.3964C64.0839 16.3964 64.7668 17.2993 66.2198 17.2993C68.6204 17.2993 70.4922 15.45 70.4922 12.9394C70.4922 10.4288 68.6205 8.57821 66.2423 8.57821ZM65.8898 15.2951C65.0748 15.2951 64.4363 14.8771 64.1059 14.3922V11.4412C64.4363 11.0008 65.141 10.5384 65.8898 10.5384C67.2991 10.5384 68.3782 11.4192 68.3782 12.9168C68.3782 14.4143 67.2994 15.2951 65.8898 15.2951ZM60.8911 12.1683V17.1011H58.7767V12.4103C58.7767 11.0452 58.3363 10.4944 57.1479 10.4944C56.5095 10.4944 55.8486 10.8248 55.4295 11.3094V17.0793H53.316V8.7989H54.9891C55.1653 8.7989 55.2975 8.95311 55.2975 9.10732V9.45978C55.9142 8.8209 56.7288 8.57846 57.5434 8.57846C58.4685 8.57846 59.2394 8.84312 59.856 9.37153C60.6045 9.98819 60.8911 10.7808 60.8911 12.1683L60.8911 12.1683ZM48.1841 8.57821C46.7311 8.57821 46.0482 9.4595 46.0482 9.4595V4.81299H43.9343V17.0791H45.7178C45.894 17.0791 46.0262 16.9248 46.0262 16.7706V16.3964C46.0262 16.3964 46.7091 17.2993 48.1622 17.2993C50.5628 17.2993 52.4345 15.45 52.4345 12.9394C52.4565 10.4286 50.5847 8.57821 48.1841 8.57821ZM47.8317 15.2951C47.0171 15.2951 46.3787 14.8771 46.0482 14.3922V11.4412C46.3787 11.0008 47.0833 10.5384 47.8317 10.5384C49.2415 10.5384 50.3203 11.4192 50.3203 12.9168C50.3203 14.4143 49.2415 15.2951 47.8317 15.2951ZM42.1064 8.57821C42.7448 8.57821 43.0752 8.68865 43.0752 8.68865V10.6483C43.0752 10.6483 41.3135 10.0537 40.2127 11.3092V17.1008H38.0982V8.79862H39.8822C40.0584 8.79862 40.1902 8.95283 40.1902 9.10704V9.4595C40.587 8.99682 41.4459 8.57818 42.1063 8.57818L42.1064 8.57821ZM20.151 16.3302C20.041 16.066 19.9308 15.7798 19.8208 15.5373C19.6444 15.1411 19.4682 14.7665 19.3144 14.4142L19.2924 14.3922C17.7726 11.0888 16.1433 7.74177 14.4254 4.43876L14.3594 4.30634C14.1787 3.96368 14.0026 3.61862 13.8312 3.27123C13.6108 2.87459 13.3908 2.45662 13.0383 2.05995C12.3337 1.17908 11.3206 0.694458 10.2418 0.694458C9.14047 0.694458 8.1496 1.17911 7.42319 2.01574C7.09272 2.41196 6.85031 2.83037 6.63029 3.22702C6.45843 3.57418 6.28236 3.91925 6.10211 4.26213L6.03588 4.39454C4.34017 7.69756 2.68865 11.0448 1.16914 14.3481L1.14692 14.3918C0.992913 14.7447 0.816485 15.1189 0.640282 15.5149C0.530286 15.7573 0.420261 16.0215 0.310265 16.3077C0.0238408 17.1224 -0.0643872 17.8933 0.0460601 18.6864C0.288272 20.3381 1.38914 21.7249 2.90887 22.342C3.48152 22.5844 4.07616 22.6945 4.6926 22.6945C4.8688 22.6945 5.0888 22.6725 5.26523 22.6502C5.99211 22.5622 6.74077 22.3202 7.4676 21.9018C8.37047 21.3951 9.22935 20.6687 10.1982 19.6116C11.167 20.6687 12.0479 21.3951 12.9288 21.9018C13.6559 22.3202 14.4043 22.5622 15.131 22.6502C15.3072 22.6727 15.5276 22.6944 15.7038 22.6944C16.3205 22.6944 16.9369 22.5845 17.4873 22.342C19.029 21.7249 20.1079 20.316 20.3503 18.6864C20.5252 17.9157 20.4372 17.1452 20.151 16.3302ZM10.2195 17.4753C9.03025 15.9778 8.25937 14.5684 7.99536 13.3796C7.8854 12.873 7.86318 12.4325 7.92938 12.0361C7.97317 11.6836 8.10561 11.3752 8.28182 11.111C8.70026 10.5168 9.4049 10.1422 10.2198 10.1422C11.0349 10.1422 11.7615 10.4946 12.1579 11.111C12.3341 11.3752 12.4661 11.6839 12.5106 12.0361C12.5763 12.4328 12.5544 12.895 12.4444 13.3796C12.1792 14.5465 11.4084 15.956 10.2195 17.4753ZM19.0057 18.5104C18.8517 19.6555 18.0808 20.6467 17.002 21.0872C16.4736 21.3071 15.9007 21.3733 15.3285 21.3071C14.7781 21.2409 14.2272 21.0647 13.655 20.7347C12.8621 20.2939 12.0695 19.6117 11.1444 18.5983C12.5977 16.8148 13.4785 15.1849 13.809 13.7318C13.9632 13.049 13.9854 12.4325 13.919 11.8596C13.8312 11.3092 13.6328 10.8026 13.3246 10.3621C12.6415 9.37085 11.4962 8.79862 10.2193 8.79862C8.94247 8.79862 7.79717 9.39329 7.11452 10.3621C6.80633 10.8026 6.60788 11.3092 6.51985 11.8597C6.43187 12.4325 6.45364 13.071 6.62987 13.7318C6.96006 15.1849 7.86292 16.8366 9.29423 18.6203C8.39136 19.6334 7.5765 20.3163 6.78366 20.7567C6.21098 21.0872 5.6608 21.2634 5.11037 21.3292C4.54287 21.3925 3.96847 21.317 3.43663 21.1091C2.35778 20.6687 1.58691 19.6774 1.43293 18.5323C1.36692 17.9819 1.41071 17.4315 1.63115 16.8149C1.6969 16.5944 1.80735 16.3744 1.91735 16.1102C2.07159 15.7578 2.24734 15.3831 2.42377 15.0089L2.44598 14.9651C3.96529 11.6837 5.59479 8.33644 7.2905 5.07742L7.35651 4.94497C7.53296 4.61499 7.70916 4.26255 7.88517 3.93214C8.0614 3.57968 8.25937 3.24924 8.50184 2.96282C8.96427 2.43483 9.58065 2.14818 10.2635 2.14818C10.9464 2.14818 11.5628 2.43483 12.0253 2.96282C12.2677 3.24992 12.4657 3.58033 12.6419 3.93211C12.8183 4.26255 12.9946 4.61499 13.1703 4.94497L13.2366 5.07742C14.9064 8.34997 16.5143 11.6538 18.0593 14.9871V15.0091C18.2357 15.362 18.3897 15.758 18.5659 16.1108C18.6759 16.3746 18.7862 16.5946 18.8521 16.8151C19.0279 17.387 19.0939 17.9379 19.0057 18.5103L19.0057 18.5104Z" fill="#FF5A60"/>
</svg>
