<svg width="20" height="20" viewBox="0 0 20 20" fill="none" xmlns="http://www.w3.org/2000/svg">
<path d="M19.6885 3.89399C18.9647 4.21572 18.1857 4.43273 17.3684 4.52985C18.2029 4.03027 18.8428 3.23895 19.1445 2.29495C18.364 2.75816 17.4999 3.09427 16.5795 3.27572C15.8429 2.49078 14.793 2 13.6312 2C11.4007 2 9.59224 3.80846 9.59224 6.03937C9.59224 6.3555 9.62781 6.66364 9.69695 6.95978C6.33981 6.79113 3.36314 5.18329 1.37083 2.73937C1.02313 3.33566 0.824099 4.02947 0.824099 4.77044C0.824099 6.17165 1.53709 7.4082 2.62097 8.13239C1.95913 8.11121 1.33606 7.92936 0.791327 7.62682C0.790927 7.6436 0.790928 7.66079 0.790928 7.67797C0.790928 9.63471 2.18334 11.2669 4.03137 11.6386C3.69246 11.7305 3.33556 11.7801 2.96708 11.7801C2.7065 11.7801 2.45351 11.7549 2.20692 11.7073C2.72129 13.312 4.21282 14.4802 5.98012 14.5126C4.59769 15.596 2.85637 16.2419 0.963581 16.2419C0.637858 16.2419 0.316131 16.2227 0 16.1851C1.78808 17.3318 3.91107 18 6.19194 18C13.622 18 17.6846 11.8452 17.6846 6.50737C17.6846 6.33232 17.681 6.15767 17.6734 5.98421C18.4623 5.4159 19.1473 4.7041 19.6885 3.89399Z" fill="white"/>
</svg>
