<svg width="20" height="20" viewBox="0 0 20 20" fill="none" xmlns="http://www.w3.org/2000/svg">
<path fill-rule="evenodd" clip-rule="evenodd" d="M10.0004 2C5.58233 2 2 5.67162 2 10.204C2 13.8292 4.29298 16.9008 7.47172 17.9866C7.87174 18.0616 8.01818 17.808 8.01818 17.5901C8.01818 17.3937 8.01103 16.8794 8.00746 16.1936C5.78234 16.6901 5.31089 15.0935 5.31089 15.0935C4.94658 14.1471 4.42156 13.8935 4.42156 13.8935C3.69652 13.3827 4.47513 13.3935 4.47513 13.3935C5.27874 13.4506 5.7002 14.2399 5.7002 14.2399C6.41452 15.4936 7.57172 15.1328 8.02889 14.9221C8.10032 14.3935 8.30748 14.0292 8.53606 13.8256C6.76097 13.6185 4.89301 12.9149 4.89301 9.77184C4.89301 8.87536 5.20374 8.14318 5.71448 7.57172C5.63233 7.36457 5.35732 6.52881 5.79306 5.40018C5.79306 5.40018 6.46452 5.17874 7.99317 6.23951C8.63249 6.05736 9.31467 5.96807 9.99685 5.9645C10.6755 5.96807 11.3612 6.05736 12.0005 6.23951C13.5292 5.17874 14.1971 5.40018 14.1971 5.40018C14.6328 6.52881 14.3578 7.36457 14.2756 7.57172C14.7864 8.14675 15.0971 8.87894 15.0971 9.77184C15.0971 12.922 13.2256 13.6149 11.4434 13.8185C11.7291 14.0721 11.9862 14.5721 11.9862 15.3364C11.9862 16.4329 11.9755 17.3187 11.9755 17.5865C11.9755 17.8044 12.1184 18.0616 12.5256 17.9794C15.7114 16.8972 18.0008 13.8256 18.0008 10.204C18.0008 5.67162 14.4185 2 10.0004 2Z" fill="white"/>
</svg>
