<svg width="20" height="20" viewBox="0 0 20 20" fill="none" xmlns="http://www.w3.org/2000/svg">
<path d="M17.5281 8.50111C15.0187 8.49987 12.5093 8.50049 9.99985 8.50078C10.0002 9.54162 9.99861 10.5825 10.0005 11.623C11.4538 11.6227 12.907 11.6224 14.36 11.623C14.1916 12.6204 13.5989 13.5325 12.7583 14.094C12.2299 14.4493 11.6228 14.6799 10.9969 14.7895C10.367 14.897 9.7161 14.9108 9.08774 14.7836C8.44875 14.6561 7.83879 14.3899 7.30669 14.0146C6.45584 13.4168 5.80651 12.5422 5.47311 11.5579C5.1322 10.5568 5.1297 9.44284 5.47467 8.44264C5.71403 7.73771 6.11243 7.08652 6.63579 6.55659C7.28135 5.89571 8.12065 5.42327 9.02492 5.22953C9.79922 5.06425 10.6157 5.09579 11.3738 5.32513C12.0181 5.52076 12.6121 5.87383 13.0986 6.33846C13.5904 5.84944 14.0797 5.35762 14.5706 4.86768C14.8281 4.60397 15.0987 4.3518 15.3481 4.0809C14.6025 3.39095 13.7285 2.83634 12.7736 2.48574C11.0544 1.85303 9.11555 1.8396 7.38479 2.43863C5.43435 3.10636 3.77357 4.56495 2.85276 6.40854C2.53217 7.04379 2.29811 7.72184 2.15751 8.41926C1.80379 10.1569 2.05033 12.0095 2.85181 13.5922C3.3727 14.6252 4.11949 15.5435 5.02535 16.2635C5.87997 16.945 6.87609 17.4483 7.93225 17.7293C9.26493 18.0867 10.6835 18.0786 12.025 17.7733C13.2373 17.4943 14.3844 16.915 15.3003 16.0694C16.2683 15.1798 16.9588 14.0077 17.3244 12.7482C17.7231 11.3743 17.7781 9.90754 17.5281 8.50111Z" fill="white"/>
</svg>
