<svg width="30" height="30" viewBox="0 0 30 30" fill="none" xmlns="http://www.w3.org/2000/svg">
<path fill-rule="evenodd" clip-rule="evenodd" d="M21.8185 24.0231H18.223C18.223 25.6641 16.8625 26.9986 15.1905 26.9986C13.518 26.9986 12.158 25.6641 12.158 24.0231H8.52998C6.65798 24.0231 5.43598 22.0956 6.26348 20.4476L7.44598 18.0931C7.85698 17.2751 8.07048 16.3751 8.07048 15.4626V12.3226C8.07048 8.58859 10.989 5.37109 14.79 5.18709C18.853 4.99059 22.222 8.17709 22.222 12.1211V15.4201C22.222 16.3556 22.447 17.2781 22.8785 18.1126L24.072 20.4221C24.925 22.0711 23.7035 24.0231 21.8185 24.0231ZM15.1905 25.0151C15.748 25.0151 16.201 24.5701 16.201 24.0231H14.1795C14.1795 24.5701 14.633 25.0151 15.1905 25.0151ZM21.897 20.5991L21.0755 19.0096C20.5 17.8971 20.2005 16.6671 20.2005 15.4201V12.2961C20.2005 9.65759 18.1755 7.34959 15.4925 7.17359C12.5495 6.98009 10.092 9.27409 10.092 12.1211V15.4626C10.092 16.6786 9.80698 17.8786 9.25948 18.9696L8.43598 20.6091C8.10498 21.2686 8.59398 22.0396 9.34248 22.0396H20.9955C21.7495 22.0396 22.238 21.2586 21.897 20.5991Z" fill="#555555"/>
</svg>
