<svg width="25" height="24" viewBox="0 0 25 24" fill="none" xmlns="http://www.w3.org/2000/svg">
<g id="ic_cashsum">
<g id="Group 109">
<circle id="Ellipse 29" cx="19" cy="17" r="3.25" stroke="#333333" stroke-width="1.5"/>
<path id="Vector" d="M13.4585 20.6247H6.75016C6.24225 20.6247 5.75445 20.4225 5.39508 20.0631C5.0357 19.7037 4.8335 19.2159 4.8335 18.708V9.12467C4.8335 8.61676 5.0357 8.12897 5.39508 7.76959C5.75445 7.41022 6.24225 7.20801 6.75016 7.20801H8.66683M20.1668 10.198V9.12467C20.1668 8.61676 19.9646 8.12897 19.6052 7.76959C19.2459 7.41022 18.7581 7.20801 18.2502 7.20801H16.3335" stroke="#333333" stroke-width="1.5" stroke-linecap="round" stroke-linejoin="round"/>
<path id="Vector_2" d="M16.3335 10.0837V4.33366C16.3335 3.82574 16.1313 3.33795 15.7719 2.97858C15.4125 2.6192 14.9247 2.41699 14.4168 2.41699H10.5835C10.0756 2.41699 9.58779 2.6192 9.22841 2.97858C8.86904 3.33795 8.66683 3.82574 8.66683 4.33366V10.0837M16.3335 10.0837H8.66683M16.3335 10.0837H17.2918M8.66683 10.0837H7.7085" stroke="#333333" stroke-width="1.5" stroke-linecap="round" stroke-linejoin="round"/>
<path id="Vector_3" d="M8.66675 13.917V13.9266" stroke="#333333" stroke-width="1.5" stroke-linecap="round" stroke-linejoin="round"/>
<path id="Vector_4" d="M8.66675 16.792V16.8016" stroke="#333333" stroke-width="1.5" stroke-linecap="round" stroke-linejoin="round"/>
<path id="Vector_5" d="M12.5 13.9072V13.9168" stroke="#333333" stroke-width="1.5" stroke-linecap="round" stroke-linejoin="round"/>
<path id="Vector_6" d="M12.5 16.792V16.8016" stroke="#333333" stroke-width="1.5" stroke-linecap="round" stroke-linejoin="round"/>
</g>
</g>
</svg>
