<svg width="30" height="30" viewBox="0 0 30 30" fill="none" xmlns="http://www.w3.org/2000/svg">
<path d="M21.9697 25.5657V16.5657C21.9697 12.8377 18.6718 9.81567 14.6035 9.81567C10.5352 9.81567 7.22949 12.8377 7.22949 16.5657V25.5657H21.9697Z" fill="white"/>
<path d="M21.4685 25.5676H8.47717V16.5426C8.44396 14.7837 9.1091 13.0834 10.3268 11.8145C11.5444 10.5456 13.2152 9.81165 14.9728 9.77357C16.7305 9.81191 18.4014 10.5461 19.619 11.8151C20.8366 13.0842 21.5017 14.7846 21.4685 16.5436V25.5676ZM10.6547 19.8316V22.1486C10.6463 22.221 10.6532 22.2945 10.6751 22.3641C10.6971 22.4337 10.7334 22.4978 10.7819 22.5523C10.8304 22.6068 10.8898 22.6504 10.9564 22.6803C11.0229 22.7102 11.095 22.7256 11.1679 22.7256C11.2408 22.7256 11.3129 22.7102 11.3794 22.6803C11.4459 22.6504 11.5054 22.6068 11.5538 22.5523C11.6023 22.4978 11.6387 22.4337 11.6606 22.3641C11.6826 22.2945 11.6895 22.221 11.681 22.1486V19.8316C11.6895 19.7591 11.6826 19.6857 11.6606 19.6161C11.6387 19.5465 11.6023 19.4823 11.5538 19.4278C11.5054 19.3733 11.4459 19.3297 11.3794 19.2998C11.3129 19.27 11.2408 19.2545 11.1679 19.2545C11.095 19.2545 11.0229 19.27 10.9564 19.2998C10.8898 19.3297 10.8304 19.3733 10.7819 19.4278C10.7334 19.4823 10.6971 19.5465 10.6751 19.6161C10.6532 19.6857 10.6463 19.7591 10.6547 19.8316ZM13.174 12.7156C12.6772 12.9554 12.2326 13.2912 11.8659 13.7036C11.4814 14.1339 11.1795 14.6316 10.9755 15.1716C10.7596 15.7453 10.6498 16.3535 10.6517 16.9666C10.6433 17.039 10.6502 17.1125 10.6721 17.1821C10.6941 17.2517 10.7304 17.3158 10.7789 17.3703C10.8274 17.4248 10.8868 17.4684 10.9534 17.4983C11.0199 17.5282 11.092 17.5436 11.1649 17.5436C11.2378 17.5436 11.3099 17.5282 11.3764 17.4983C11.4429 17.4684 11.5024 17.4248 11.5508 17.3703C11.5993 17.3158 11.6357 17.2517 11.6576 17.1821C11.6796 17.1125 11.6865 17.039 11.678 16.9666C11.6783 16.5055 11.7612 16.0483 11.9229 15.6166C12.0747 15.2118 12.3004 14.8388 12.5884 14.5166C12.8608 14.2048 13.195 13.9531 13.5698 13.7776C13.6989 13.7061 13.7977 13.5902 13.8481 13.4514C13.8984 13.3126 13.8968 13.1603 13.8436 13.0226C13.8106 12.9212 13.7469 12.8327 13.6613 12.7692C13.5757 12.7058 13.4724 12.6706 13.3659 12.6686C13.2994 12.6709 13.2341 12.6869 13.174 12.7156ZM25.266 17.6706C24.9752 17.6583 24.7005 17.5341 24.4991 17.3239C24.2977 17.1137 24.1852 16.8338 24.1852 16.5426C24.1852 16.2514 24.2977 15.9714 24.4991 15.7612C24.7005 15.551 24.9752 15.4268 25.266 15.4146H26.8899C27.1807 15.4268 27.4554 15.551 27.6568 15.7612C27.8582 15.9714 27.9707 16.2514 27.9707 16.5426C27.9707 16.8338 27.8582 17.1137 27.6568 17.3239C27.4554 17.5341 27.1807 17.6583 26.8899 17.6706H25.266ZM3.08077 17.6706C2.79002 17.6583 2.51524 17.5341 2.31384 17.3239C2.11244 17.1137 2 16.8338 2 16.5426C2 16.2514 2.11244 15.9714 2.31384 15.7612C2.51524 15.551 2.79002 15.4268 3.08077 15.4146H4.6887C4.97945 15.4268 5.25423 15.551 5.45563 15.7612C5.65703 15.9714 5.76947 16.2514 5.76947 16.5426C5.76947 16.8338 5.65703 17.1137 5.45563 17.3239C5.25423 17.5341 4.97945 17.6583 4.6887 17.6706H3.08077ZM21.4775 9.76157C21.274 9.54496 21.1607 9.25886 21.1607 8.96157C21.1607 8.66428 21.274 8.37818 21.4775 8.16157L22.6267 6.96157C22.7252 6.85719 22.8439 6.77403 22.9756 6.71719C23.1074 6.66035 23.2493 6.63103 23.3927 6.63103C23.5362 6.63103 23.6781 6.66035 23.8098 6.71719C23.9415 6.77403 24.0603 6.85719 24.1587 6.96157C24.364 7.17727 24.4785 7.46371 24.4785 7.76157C24.4785 8.05943 24.364 8.34588 24.1587 8.56157L23.0115 9.76157C22.9129 9.86586 22.794 9.94892 22.6622 10.0057C22.5304 10.0625 22.3885 10.0917 22.245 10.0917C22.1015 10.0917 21.9595 10.0625 21.8278 10.0057C21.696 9.94892 21.5761 9.86586 21.4775 9.76157ZM6.9352 9.76157L5.78797 8.56157C5.58268 8.34588 5.46818 8.05943 5.46818 7.76157C5.46818 7.46371 5.58268 7.17727 5.78797 6.96157C5.88625 6.85724 6.0048 6.77412 6.13636 6.7173C6.26791 6.66049 6.40968 6.63118 6.55296 6.63118C6.69624 6.63118 6.83801 6.66049 6.96956 6.7173C7.10111 6.77412 7.21967 6.85724 7.31795 6.96157L8.46518 8.16157C8.67024 8.37738 8.78459 8.66378 8.78459 8.96157C8.78459 9.25936 8.67024 9.54576 8.46518 9.76157C8.3669 9.8659 8.24834 9.94903 8.11679 10.0058C7.98524 10.0627 7.84347 10.092 7.70019 10.092C7.55691 10.092 7.41514 10.0627 7.28359 10.0058C7.15204 9.94903 7.03348 9.8659 6.9352 9.76157ZM13.8886 5.82457V4.13157C13.8823 3.9853 13.9057 3.83927 13.9573 3.70228C14.0089 3.56528 14.0877 3.44016 14.1889 3.33444C14.2901 3.22871 14.4116 3.14458 14.5462 3.08711C14.6807 3.02963 14.8255 3 14.9718 3C15.1182 3 15.2629 3.02963 15.3975 3.08711C15.5321 3.14458 15.6536 3.22871 15.7548 3.33444C15.856 3.44016 15.9348 3.56528 15.9864 3.70228C16.038 3.83927 16.0614 3.9853 16.0551 4.13157V5.82457C16.0614 5.97084 16.038 6.11687 15.9864 6.25387C15.9348 6.39086 15.856 6.51599 15.7548 6.62171C15.6536 6.72743 15.5321 6.81156 15.3975 6.86904C15.2629 6.92652 15.1182 6.95615 14.9718 6.95615C14.8255 6.95615 14.6807 6.92652 14.5462 6.86904C14.4116 6.81156 14.2901 6.72743 14.1889 6.62171C14.0877 6.51599 14.0089 6.39086 13.9573 6.25387C13.9057 6.11687 13.8823 5.97084 13.8886 5.82457Z" fill="#4ED75A"/>
<path d="M6.53449 27.0027C6.26945 27.0027 6.01527 26.8973 5.82785 26.7098C5.64044 26.5223 5.53516 26.2679 5.53516 26.0027C5.53516 25.7375 5.64044 25.4831 5.82785 25.2956C6.01527 25.108 6.26945 25.0027 6.53449 25.0027H6.95621V16.5657C6.90491 14.384 7.71982 12.271 9.22243 10.6894C10.725 9.10778 12.7928 8.18662 14.9729 8.12769C17.1523 8.18766 19.2191 9.10924 20.7211 10.6907C22.223 12.2721 23.0376 14.3846 22.9865 16.5657V25.0037H23.4102C23.6753 25.0037 23.9295 25.109 24.1169 25.2966C24.3043 25.4841 24.4096 25.7385 24.4096 26.0037C24.4096 26.2689 24.3043 26.5233 24.1169 26.7108C23.9295 26.8983 23.6753 27.0037 23.4102 27.0037L6.53449 27.0027ZM20.9549 25.0027V16.5657C20.9549 13.1537 18.6434 10.1357 14.9729 10.1357C11.3023 10.1357 9.00684 13.1537 9.00684 16.5657V25.0037L20.9549 25.0027Z" fill="#3C3C3C"/>
</svg>
