<svg xmlns="http://www.w3.org/2000/svg" width="30.02" height="30" viewBox="0 0 30.02 30">
    <g>
        <g>
            <path fill="#fff" d="M18267.752 2090.25v-9c0-3.728-3.3-6.75-7.371-6.75s-7.379 3.022-7.379 6.75v9z" transform="translate(-1340 -89) translate(2 1) translate(-16907.75 -1977.875)"/>
            <path fill="#bababa" d="M19.5 22.565h-13V13.54A6.645 6.645 0 0 1 13 6.771a6.646 6.646 0 0 1 6.5 6.77v9.024zM8.679 16.829v2.317a.517.517 0 1 0 1.027 0v-2.317a.517.517 0 1 0-1.027 0zM11.2 9.713a4.186 4.186 0 0 0-1.309.988A4.692 4.692 0 0 0 9 12.169a5.048 5.048 0 0 0-.324 1.795.517.517 0 1 0 1.027 0 3.855 3.855 0 0 1 .245-1.35 3.487 3.487 0 0 1 .666-1.1 2.986 2.986 0 0 1 .982-.739.611.611 0 0 0 .274-.755.513.513 0 0 0-.478-.354.486.486 0 0 0-.192.047zm12.1 4.955a1.129 1.129 0 0 1 0-2.256h1.625a1.129 1.129 0 0 1 0 2.256zm-22.2 0a1.129 1.129 0 0 1 0-2.256h1.609a1.129 1.129 0 0 1 0 2.256zm18.409-7.909a1.168 1.168 0 0 1 0-1.6l1.15-1.2a1.054 1.054 0 0 1 1.533 0 1.16 1.16 0 0 1 0 1.6l-1.148 1.2a1.056 1.056 0 0 1-1.534 0zm-14.552 0l-1.148-1.2a1.16 1.16 0 0 1 0-1.6 1.052 1.052 0 0 1 1.531 0l1.148 1.2a1.161 1.161 0 0 1 0 1.6 1.052 1.052 0 0 1-1.531 0zm6.958-3.937V1.129a1.085 1.085 0 1 1 2.168 0v1.693a1.085 1.085 0 1 1-2.168 0z" transform="translate(-1340 -89) translate(2 1) translate(1340 89.812)"/>
            <path fill="#3c3c3c" d="M1.056 18.875a1 1 0 1 1 0-2h.422V8.438A8.247 8.247 0 0 1 9.5 0a8.248 8.248 0 0 1 8.019 8.438v8.438h.424a1 1 0 1 1 0 2zm14.43-2V8.438c0-3.412-2.313-6.43-5.986-6.43s-5.97 3.018-5.97 6.43v8.438z" transform="translate(-1340 -89) translate(2 1) translate(1343.5 94.937)"/>
        </g>
    </g>
</svg>
