<svg width="25" height="24" viewBox="0 0 25 24" fill="none" xmlns="http://www.w3.org/2000/svg">
<g id="ic_approvecoin" clip-path="url(#clip0_818_61459)">
<path id="Vector" d="M1.74023 4.96973C1.74023 5.96429 2.67857 6.91812 4.34881 7.62138C6.01906 8.32464 8.2844 8.71973 10.6465 8.71973C13.0086 8.71973 15.2739 8.32464 16.9442 7.62138C18.6144 6.91812 19.5527 5.96429 19.5527 4.96973C19.5527 3.97516 18.6144 3.02134 16.9442 2.31808C15.2739 1.61481 13.0086 1.21973 10.6465 1.21973C8.2844 1.21973 6.01906 1.61481 4.34881 2.31808C2.67857 3.02134 1.74023 3.97516 1.74023 4.96973Z" stroke="#333333" stroke-width="1.5" stroke-linecap="round" stroke-linejoin="round"/>
<path id="Vector_2" d="M10.6465 12.4688C5.72836 12.4688 1.74023 10.7906 1.74023 8.71875" stroke="#333333" stroke-width="1.5" stroke-linecap="round" stroke-linejoin="round"/>
<path id="Vector_3" d="M9.24023 16.6407C4.99055 16.3594 1.74023 14.8079 1.74023 12.9385" stroke="#333333" stroke-width="1.5" stroke-linecap="round" stroke-linejoin="round"/>
<path id="Vector_4" d="M9.70898 20.8866C5.23148 20.6897 1.74023 19.095 1.74023 17.1572V4.96875" stroke="#333333" stroke-width="1.5" stroke-linecap="round" stroke-linejoin="round"/>
<path id="Vector_5" d="M19.5527 4.96973V9.18848" stroke="#333333" stroke-width="1.5" stroke-linecap="round" stroke-linejoin="round"/>
<path id="Vector_6" d="M12.0488 17.1572C12.0488 17.8959 12.1943 18.6274 12.477 19.3098C12.7597 19.9923 13.174 20.6124 13.6964 21.1347C14.2187 21.657 14.8388 22.0714 15.5212 22.354C16.2037 22.6367 16.9351 22.7822 17.6738 22.7822C18.4125 22.7822 19.144 22.6367 19.8264 22.354C20.5089 22.0714 21.129 21.657 21.6513 21.1347C22.1736 20.6124 22.588 19.9923 22.8706 19.3098C23.1533 18.6274 23.2988 17.8959 23.2988 17.1572C23.2988 15.6654 22.7062 14.2346 21.6513 13.1798C20.5964 12.1249 19.1657 11.5322 17.6738 11.5322C16.182 11.5322 14.7512 12.1249 13.6964 13.1798C12.6415 14.2346 12.0488 15.6654 12.0488 17.1572Z" stroke="#333333" stroke-width="1.5" stroke-linecap="round" stroke-linejoin="round"/>
<path id="Vector_7" d="M20.1812 15.522L17.4578 19.1538C17.3973 19.2344 17.3203 19.301 17.2319 19.3491C17.1434 19.3973 17.0457 19.4259 16.9452 19.433C16.8448 19.4401 16.744 19.4256 16.6497 19.3903C16.5553 19.3551 16.4696 19.3 16.3984 19.2288L14.9922 17.8226" stroke="#333333" stroke-width="1.5" stroke-linecap="round" stroke-linejoin="round"/>
</g>
<defs>
<clipPath id="clip0_818_61459">
<rect width="24" height="24" fill="white" transform="translate(0.5)"/>
</clipPath>
</defs>
</svg>
