<svg width="25" height="24" viewBox="0 0 25 24" fill="none" xmlns="http://www.w3.org/2000/svg">
<g id="Coin--Streamline-Plump">
<g id="coin--accounting-billing-payment-cash-coin-currency-money-finance">
<path id="Ellipse 24" d="M12.5 1.6875C18.1955 1.6875 22.8125 6.30455 22.8125 12C22.8125 17.6955 18.1954 22.3125 12.5 22.3125C6.80455 22.3125 2.1875 17.6955 2.1875 12C2.1875 6.30455 6.80455 1.6875 12.5 1.6875Z" stroke="#333333" stroke-width="1.5" stroke-linecap="round" stroke-linejoin="round"/>
<path id="Ellipse 21" d="M12.5 4.5C16.6422 4.5 20 7.85784 20 12C20 16.1422 16.6422 19.5 12.5 19.5C8.35784 19.5 5 16.1422 5 12C5 7.85784 8.35784 4.5 12.5 4.5Z" stroke="#333333" stroke-width="1.5" stroke-linecap="round" stroke-linejoin="round"/>
<path id="Ellipse 22" d="M12.5 7.78125C14.83 7.78125 16.7188 9.67003 16.7188 12" stroke="#333333" stroke-width="1.5" stroke-linecap="round" stroke-linejoin="round"/>
<path id="Ellipse 20" d="M12.5 16.2188C10.17 16.2188 8.28125 14.33 8.28125 12" stroke="#333333" stroke-width="1.5" stroke-linecap="round" stroke-linejoin="round"/>
</g>
</g>
</svg>
