<svg width="25" height="24" viewBox="0 0 25 24" fill="none" xmlns="http://www.w3.org/2000/svg">
<g id="Coin-Share--Streamline-Plump">
<g id="coin-share--payment-cash-money-finance-receive-give-coin-hand">
<path id="Ellipse 18" d="M22.8213 7.07472C22.8213 9.92481 20.5107 12.2353 17.6607 12.2353C14.8106 12.2353 12.5 9.92481 12.5 7.07472C12.5 4.22458 14.8105 1.91406 17.6607 1.91406C20.5108 1.91406 22.8213 4.22458 22.8213 7.07472Z" stroke="#333333" stroke-width="1.5" stroke-linecap="round" stroke-linejoin="round"/>
<path id="Ellipse 20" d="M17.6606 4.25977C19.2153 4.25977 20.4755 5.52 20.4755 7.07466" stroke="#333333" stroke-width="1.5" stroke-linecap="round" stroke-linejoin="round"/>
<path id="Ellipse 19" d="M17.6606 9.88911C16.1059 9.88911 14.8457 8.62883 14.8457 7.07422" stroke="#333333" stroke-width="1.5" stroke-linecap="round" stroke-linejoin="round"/>
<path id="Union" d="M2.17871 13.908C2.17871 13.908 4.9936 12.7051 7.33932 12.7051C8.9942 12.7051 10.8112 13.3703 12.0278 13.9186C12.9613 14.3393 13.4987 14.6048 13.7125 15.6063C13.861 16.302 13.3611 17.462 12.652 17.519L12.1525 17.5593M12.1525 17.5593C11.0068 17.5593 9.23335 17.2197 9.23335 17.2197M12.1525 17.5593C13.7413 17.5593 17.9245 16.8046 19.4068 16.5276C19.7604 16.4615 20.1267 16.413 20.4633 16.5401C20.8866 16.6999 21.454 17.0858 21.7254 18.0179C21.9374 18.7459 21.4284 19.4463 20.7212 19.7199C18.6477 20.5224 14.3236 22.088 12.1525 22.088C6.40102 22.088 2.17871 20.6445 2.17871 20.6445" stroke="#333333" stroke-width="1.5" stroke-linecap="round" stroke-linejoin="round"/>
</g>
</g>
</svg>
