<svg width="14" height="18" viewBox="0 0 14 18" fill="none" xmlns="http://www.w3.org/2000/svg">
<g id="ic_download">
<path id="Line 53" d="M7.75 1C7.75 0.585786 7.41421 0.25 7 0.25C6.58579 0.25 6.25 0.585786 6.25 1L7.75 1ZM6.46967 13.5303C6.76256 13.8232 7.23744 13.8232 7.53033 13.5303L12.3033 8.75736C12.5962 8.46447 12.5962 7.98959 12.3033 7.6967C12.0104 7.40381 11.5355 7.40381 11.2426 7.6967L7 11.9393L2.75736 7.6967C2.46447 7.40381 1.98959 7.40381 1.6967 7.6967C1.40381 7.98959 1.40381 8.46447 1.6967 8.75736L6.46967 13.5303ZM6.25 1L6.25 13L7.75 13L7.75 1L6.25 1Z" fill="#BBBBBB"/>
<path id="Line 54" d="M1 17H13" stroke="#BBBBBB" stroke-width="1.5" stroke-linecap="round"/>
</g>
</svg>
