<svg width="30" height="30" viewBox="0 0 30 30" fill="none" xmlns="http://www.w3.org/2000/svg">
<g id="ic_excel 1">
<g id="Group">
<path id="Vector" d="M26.2001 4C26.4769 4.00685 26.7406 4.11988 26.9364 4.3157C27.1322 4.51153 27.2452 4.77515 27.2521 5.052V25.052C27.2442 25.3281 27.1308 25.5908 26.935 25.7857C26.7393 25.9807 26.4763 26.0932 26.2001 26.1H9.36709C9.09023 26.0932 8.82661 25.9801 8.63079 25.7843C8.43496 25.5885 8.32193 25.3249 8.31509 25.048V21.364H3.05209C2.91397 21.3658 2.777 21.3387 2.65005 21.2842C2.5231 21.2298 2.40898 21.1493 2.31509 21.048C2.21433 20.9544 2.13427 20.8407 2.08002 20.7143C2.02577 20.5879 1.99855 20.4515 2.00009 20.314V9.788C1.99825 9.64988 2.02543 9.51292 2.07987 9.38596C2.1343 9.25901 2.21478 9.1449 2.31609 9.051C2.40914 8.94863 2.5231 8.86743 2.65025 8.81292C2.7774 8.7584 2.91478 8.73183 3.05309 8.735H8.31409V5.052C8.32093 4.77515 8.43396 4.51153 8.62979 4.3157C8.82561 4.11988 9.08923 4.00685 9.36609 4H26.2001ZM8.31009 16.4L9.80409 19.2H12.0561L9.55609 15.127L12.0191 11.127H9.85109L8.48309 13.65L8.43009 13.734L8.38809 13.829L7.71409 12.482L7.02009 11.124H4.72609L7.11509 15.144L4.50009 19.196H6.77809L8.31009 16.4ZM17.0001 24.521V21.364H9.90009V24.521H17.0001ZM17.0001 19.785V15.839H14.6291V19.785H17.0001ZM17.0001 14.26V10.314H14.6291V14.26H17.0001ZM17.0001 8.735V5.578H9.90009V8.735H17.0001ZM25.6821 24.521V21.364H18.5821V24.521H25.6821ZM25.6821 19.785V15.839H18.5821V19.785H25.6821ZM25.6821 14.26V10.314H18.5821V14.26H25.6821ZM25.6821 8.735V5.578H18.5821V8.735H25.6821Z" fill="#3C3C3C"/>
</g>
</g>
</svg>
