<svg width="30" height="30" viewBox="0 0 30 30" fill="none" xmlns="http://www.w3.org/2000/svg">
<g id="ic_cash 1">
<g id="_-e-ic_excel_2">
<path id="&#237;&#140;&#168;&#236;&#138;&#164;_23" d="M27.2433 4H9.67905C9.38939 4.00661 9.11341 4.12447 8.90854 4.32935C8.70367 4.53422 8.58581 4.81019 8.57919 5.09985V8.94189H3.09116C2.94706 8.93857 2.80397 8.96619 2.67148 9.02295C2.53898 9.07971 2.4201 9.16439 2.32309 9.271C2.21729 9.36891 2.13336 9.48789 2.07651 9.62036C2.01966 9.75284 1.99133 9.89565 1.99326 10.0398V21.02C1.99987 21.3097 2.11773 21.5857 2.3226 21.7905C2.52748 21.9954 2.80345 22.1133 3.09311 22.1199H8.5831V25.9619C8.58972 26.2516 8.70782 26.5275 8.91269 26.7324C9.11756 26.9373 9.39354 27.0554 9.6832 27.062H27.242C27.5305 27.0555 27.8057 26.9382 28.0103 26.7349C28.215 26.5315 28.3337 26.2574 28.3421 25.969V5.09692C28.335 4.80788 28.2169 4.53263 28.0123 4.32837C27.8077 4.12411 27.5323 4.00659 27.2433 4ZM8.58212 16.9338L6.98203 19.8508H4.60703L7.33505 15.625L4.84311 11.4309H7.23618L7.96005 12.8469L8.66025 14.2529L8.70419 14.1528L8.75913 14.0659L10.1871 11.4338H12.4481L9.87924 15.606L12.4872 19.855H10.138L8.58212 16.9338ZM26.7821 25.396L10.2372 25.405V22.1118H14.044C14.3252 22.1118 14.595 22.0003 14.7938 21.8015C14.9926 21.6027 15.1041 21.3331 15.1041 21.052V9.9978C15.1041 9.71667 14.9926 9.44708 14.7938 9.24829C14.595 9.0495 14.3252 8.93799 14.044 8.93799H10.2372V5.64502H26.7821V25.396Z" fill="#3C3C3C"/>
<path id="&#237;&#140;&#168;&#236;&#138;&#164;_24" d="M20.2879 21.895C20.2142 21.895 20.1436 21.8656 20.0914 21.8135C20.0393 21.7613 20.0101 21.6907 20.0101 21.6169V20.0168C19.3463 19.9384 18.7295 19.6347 18.2626 19.1565C17.7956 18.6783 17.5066 18.0544 17.444 17.3889C17.4391 17.3498 17.4428 17.3101 17.4545 17.2725C17.4661 17.2348 17.4855 17.2 17.5116 17.1704C17.5377 17.1408 17.5699 17.1171 17.6058 17.1008C17.6417 17.0845 17.6806 17.0761 17.7201 17.0759H19.026C19.0895 17.076 19.1511 17.0979 19.2005 17.1377C19.25 17.1775 19.2843 17.2329 19.298 17.2949C19.352 17.6724 19.5514 18.0139 19.8534 18.2466C20.1554 18.4793 20.5364 18.585 20.9151 18.541C21.5851 18.541 22.3832 18.3408 22.3832 17.4128C22.3832 16.7878 22.0961 16.3198 20.6651 15.9128C18.8601 15.3938 17.6571 14.7059 17.6571 13.0259C17.6522 12.3895 17.8841 11.774 18.3077 11.2991C18.7313 10.8241 19.3163 10.5238 19.9491 10.4561V9.06787C19.9491 9.03128 19.9563 8.99522 19.9703 8.96143C19.9844 8.92763 20.0049 8.89692 20.0309 8.8711C20.0568 8.84527 20.0876 8.8247 20.1214 8.81079C20.1553 8.79688 20.1915 8.78991 20.2281 8.79004H21.359C21.4327 8.79004 21.5034 8.8192 21.5555 8.87134C21.6077 8.92347 21.6371 8.99414 21.6371 9.06787V10.4561C22.2473 10.5091 22.8199 10.773 23.2565 11.2026C23.693 11.6323 23.9663 12.2008 24.0292 12.8101C24.0347 12.8492 24.0315 12.8889 24.0201 12.9268C24.0087 12.9646 23.9892 12.9995 23.963 13.0291C23.9369 13.0588 23.9048 13.0824 23.8688 13.0986C23.8327 13.1149 23.7936 13.1233 23.754 13.123H22.411C22.3477 13.1231 22.2865 13.1014 22.2372 13.0618C22.1879 13.0221 22.1535 12.9669 22.14 12.905C22.05 12.493 21.8052 11.9448 20.7272 11.9448C19.7402 11.9448 19.5331 12.473 19.5331 12.915C19.5331 13.486 19.768 13.732 21.233 14.165C23.351 14.789 24.255 15.7189 24.255 17.2749C24.2564 17.9714 23.9934 18.6423 23.5189 19.1521C23.0444 19.6619 22.3939 19.9726 21.6991 20.021V21.6089C21.6991 21.6826 21.6697 21.7533 21.6175 21.8054C21.5654 21.8576 21.4947 21.887 21.421 21.887L20.2879 21.895Z" fill="#3C3C3C"/>
</g>
</g>
</svg>
