<svg width="48" height="48" viewBox="0 0 48 48" fill="none" xmlns="http://www.w3.org/2000/svg">
<g clip-path="url(#clip0_833_42962)">
<path d="M23.8225 1.61125L24 1.79027L24.1775 1.61125C25.011 0.770791 26.1646 0.25 27.4378 0.25H43.1559C45.6889 0.25 47.75 2.3111 47.75 4.84406V43.1559C47.75 45.6889 45.6889 47.75 43.1559 47.75H27.4378C26.1646 47.75 25.011 47.2292 24.1775 46.3887L24 46.2097L23.8225 46.3887C22.989 47.2292 21.8354 47.75 20.5622 47.75H4.84406C2.3111 47.75 0.25 45.6889 0.25 43.1559V4.84406C0.25 2.3111 2.3111 0.25 4.84406 0.25H20.5622C21.8354 0.25 22.989 0.770791 23.8225 1.61125ZM4.84406 45.4375H20.5622C21.8205 45.4375 22.8438 44.4142 22.8438 43.1559V4.84406C22.8438 3.58577 21.8205 2.5625 20.5622 2.5625H4.84406C3.58577 2.5625 2.5625 3.58577 2.5625 4.84406V43.1559C2.5625 44.4142 3.58577 45.4375 4.84406 45.4375ZM43.1559 45.4375C44.4142 45.4375 45.4375 44.4142 45.4375 43.1559V4.84406C45.4375 3.58577 44.4142 2.5625 43.1559 2.5625H27.4378C26.1795 2.5625 25.1562 3.58577 25.1562 4.84406V43.1559C25.1562 44.4142 26.1795 45.4375 27.4378 45.4375H43.1559Z" fill="#666666" stroke="white" stroke-width="0.5"/>
<path d="M5.89844 24C5.89844 23.3614 6.41613 22.8438 7.05469 22.8438C7.69324 22.8438 8.21094 23.3614 8.21094 24V29.6484C8.21094 30.287 7.69324 30.8047 7.05469 30.8047C6.41613 30.8047 5.89844 30.287 5.89844 29.6484V24Z" fill="#666666" stroke="white" stroke-width="0.5"/>
<path d="M28.4922 24C28.4922 23.3614 29.0099 22.8438 29.6484 22.8438C30.287 22.8438 30.8047 23.3614 30.8047 24V29.6484C30.8047 30.287 30.287 30.8047 29.6484 30.8047C29.0099 30.8047 28.4922 30.287 28.4922 29.6484V24Z" fill="#666666" stroke="white" stroke-width="0.5"/>
<path d="M9.87891 11.5469H15.5273C16.1659 11.5469 16.6836 12.0646 16.6836 12.7031C16.6836 13.3417 16.1659 13.8594 15.5273 13.8594H9.87891C9.24035 13.8594 8.72266 13.3417 8.72266 12.7031C8.72266 12.0646 9.24035 11.5469 9.87891 11.5469Z" fill="#666666" stroke="white" stroke-width="0.5"/>
<path d="M32.4727 11.5469H38.1211C38.7596 11.5469 39.2773 12.0646 39.2773 12.7031C39.2773 13.3417 38.7596 13.8594 38.1211 13.8594H32.4727C31.8341 13.8594 31.3164 13.3417 31.3164 12.7031C31.3164 12.0646 31.8341 11.5469 32.4727 11.5469Z" fill="#666666" stroke="white" stroke-width="0.5"/>
<path d="M9.87891 39.7891H15.5273C16.1659 39.7891 16.6836 40.3068 16.6836 40.9453C16.6836 41.5839 16.1659 42.1016 15.5273 42.1016H9.87891C9.24035 42.1016 8.72266 41.5839 8.72266 40.9453C8.72266 40.3068 9.24035 39.7891 9.87891 39.7891Z" fill="#666666" stroke="white" stroke-width="0.5"/>
<path d="M32.4727 39.7891H38.1211C38.7596 39.7891 39.2773 40.3068 39.2773 40.9453C39.2773 41.5839 38.7596 42.1016 38.1211 42.1016H32.4727C31.8341 42.1016 31.3164 41.5839 31.3164 40.9453C31.3164 40.3068 31.8341 39.7891 32.4727 39.7891Z" fill="#666666" stroke="white" stroke-width="0.5"/>
<path d="M9.87891 5.89844H15.5273C16.1659 5.89844 16.6836 6.41613 16.6836 7.05469C16.6836 7.69324 16.1659 8.21094 15.5273 8.21094H9.87891C9.24035 8.21094 8.72266 7.69324 8.72266 7.05469C8.72266 6.41613 9.24035 5.89844 9.87891 5.89844Z" fill="#666666" stroke="white" stroke-width="0.5"/>
<path d="M32.4727 5.89844H38.1211C38.7596 5.89844 39.2773 6.41613 39.2773 7.05469C39.2773 7.69324 38.7596 8.21094 38.1211 8.21094H32.4727C31.8341 8.21094 31.3164 7.69324 31.3164 7.05469C31.3164 6.41613 31.8341 5.89844 32.4727 5.89844Z" fill="#666666" stroke="white" stroke-width="0.5"/>
</g>
<defs>
<clipPath id="clip0_833_42962">
<rect width="48" height="48" fill="white"/>
</clipPath>
</defs>
</svg>
