<svg width="48" height="36" viewBox="0 0 48 36" fill="none" xmlns="http://www.w3.org/2000/svg">
<g id="Group">
<rect id="Rectangle 22" x="2" y="2" width="44" height="32" fill="white"/>
<path id="Vector" d="M23.8225 1.61125L24 1.79027L24.1775 1.61125C25.011 0.770791 26.1646 0.25 27.4378 0.25H43.1559C45.6889 0.25 47.75 2.3111 47.75 4.84406V31.1559C47.75 33.6889 45.6889 35.75 43.1559 35.75H27.4378C26.1646 35.75 25.011 35.2292 24.1775 34.3887L24 34.2097L23.8225 34.3887C22.989 35.2292 21.8354 35.75 20.5622 35.75H4.84406C2.3111 35.75 0.25 33.6889 0.25 31.1559V4.84406C0.25 2.3111 2.3111 0.25 4.84406 0.25H20.5622C21.8354 0.25 22.989 0.770791 23.8225 1.61125ZM4.84406 33.4375H20.5622C21.8205 33.4375 22.8438 32.4142 22.8438 31.1559V4.84406C22.8438 3.58577 21.8205 2.5625 20.5622 2.5625H4.84406C3.58577 2.5625 2.5625 3.58577 2.5625 4.84406V31.1559C2.5625 32.4142 3.58577 33.4375 4.84406 33.4375ZM43.1559 33.4375C44.4142 33.4375 45.4375 32.4142 45.4375 31.1559V4.84406C45.4375 3.58577 44.4142 2.5625 43.1559 2.5625H27.4378C26.1795 2.5625 25.1562 3.58577 25.1562 4.84406V31.1559C25.1562 32.4142 26.1795 33.4375 27.4378 33.4375H43.1559Z" fill="#333333" stroke="#F4F4F4" stroke-width="0.5"/>
<path id="Vector (Stroke)" fill-rule="evenodd" clip-rule="evenodd" d="M7.05469 14.0938C6.5542 14.0938 6.14844 14.4995 6.14844 15V20.6484C6.14844 21.1489 6.5542 21.5547 7.05469 21.5547C7.55517 21.5547 7.96094 21.1489 7.96094 20.6484V15C7.96094 14.4995 7.55517 14.0938 7.05469 14.0938Z" fill="#333333"/>
<path id="Vector (Stroke)_2" fill-rule="evenodd" clip-rule="evenodd" d="M29.6484 14.0938C29.148 14.0938 28.7422 14.4995 28.7422 15V20.6484C28.7422 21.1489 29.148 21.5547 29.6484 21.5547C30.1489 21.5547 30.5547 21.1489 30.5547 20.6484V15C30.5547 14.4995 30.1489 14.0938 29.6484 14.0938Z" fill="#333333"/>
<path id="Vector (Stroke)_3" fill-rule="evenodd" clip-rule="evenodd" d="M15.5273 9.79688H9.87891C9.37842 9.79688 8.97266 10.2026 8.97266 10.7031C8.97266 11.2036 9.37842 11.6094 9.87891 11.6094H15.5273C16.0278 11.6094 16.4336 11.2036 16.4336 10.7031C16.4336 10.2026 16.0278 9.79688 15.5273 9.79688Z" fill="#333333"/>
<path id="Vector (Stroke)_4" fill-rule="evenodd" clip-rule="evenodd" d="M38.1211 9.79688H32.4727C31.9722 9.79688 31.5664 10.2026 31.5664 10.7031C31.5664 11.2036 31.9722 11.6094 32.4727 11.6094H38.1211C38.6216 11.6094 39.0273 11.2036 39.0273 10.7031C39.0273 10.2026 38.6216 9.79688 38.1211 9.79688Z" fill="#333333"/>
<path id="Vector (Stroke)_5" fill-rule="evenodd" clip-rule="evenodd" d="M15.5273 28.0391H9.87891C9.37842 28.0391 8.97266 28.4448 8.97266 28.9453C8.97266 29.4458 9.37842 29.8516 9.87891 29.8516H15.5273C16.0278 29.8516 16.4336 29.4458 16.4336 28.9453C16.4336 28.4448 16.0278 28.0391 15.5273 28.0391Z" fill="#333333"/>
<path id="Vector (Stroke)_6" fill-rule="evenodd" clip-rule="evenodd" d="M38.1211 28.0391H32.4727C31.9722 28.0391 31.5664 28.4448 31.5664 28.9453C31.5664 29.4458 31.9722 29.8516 32.4727 29.8516H38.1211C38.6216 29.8516 39.0273 29.4458 39.0273 28.9453C39.0273 28.4448 38.6216 28.0391 38.1211 28.0391Z" fill="#333333"/>
<path id="Vector (Stroke)_7" fill-rule="evenodd" clip-rule="evenodd" d="M15.5273 6.14844H9.87891C9.37842 6.14844 8.97266 6.5542 8.97266 7.05469C8.97266 7.55517 9.37842 7.96094 9.87891 7.96094H15.5273C16.0278 7.96094 16.4336 7.55517 16.4336 7.05469C16.4336 6.5542 16.0278 6.14844 15.5273 6.14844Z" fill="#333333"/>
<path id="Vector (Stroke)_8" fill-rule="evenodd" clip-rule="evenodd" d="M38.1211 6.14844H32.4727C31.9722 6.14844 31.5664 6.5542 31.5664 7.05469C31.5664 7.55517 31.9722 7.96094 32.4727 7.96094H38.1211C38.6216 7.96094 39.0273 7.55517 39.0273 7.05469C39.0273 6.5542 38.6216 6.14844 38.1211 6.14844Z" fill="#333333"/>
</g>
</svg>
