<svg width="48" height="36" viewBox="0 0 48 36" fill="none" xmlns="http://www.w3.org/2000/svg">
<g id="ic/s_locker">
<rect id="Rectangle 22" x="2" y="2" width="44" height="32" fill="white"/>
<rect id="Rectangle 23" x="27" y="4" width="16.5" height="11" rx="2" fill="#333333"/>
<path id="Vector" d="M23.8225 1.61125L24 1.79027L24.1775 1.61125C25.011 0.770791 26.1646 0.25 27.4378 0.25H43.1559C45.6889 0.25 47.75 2.3111 47.75 4.84406V31.1559C47.75 33.6889 45.6889 35.75 43.1559 35.75H27.4378C26.1646 35.75 25.011 35.2292 24.1775 34.3887L24 34.2097L23.8225 34.3887C22.989 35.2292 21.8354 35.75 20.5622 35.75H4.84406C2.3111 35.75 0.25 33.6889 0.25 31.1559V4.84406C0.25 2.3111 2.3111 0.25 4.84406 0.25H20.5622C21.8354 0.25 22.989 0.770791 23.8225 1.61125ZM4.84406 33.4375H20.5622C21.8205 33.4375 22.8438 32.4142 22.8438 31.1559V4.84406C22.8438 3.58577 21.8205 2.5625 20.5622 2.5625H4.84406C3.58577 2.5625 2.5625 3.58577 2.5625 4.84406V31.1559C2.5625 32.4142 3.58577 33.4375 4.84406 33.4375ZM43.1559 33.4375C44.4142 33.4375 45.4375 32.4142 45.4375 31.1559V4.84406C45.4375 3.58577 44.4142 2.5625 43.1559 2.5625H27.4378C26.1795 2.5625 25.1562 3.58577 25.1562 4.84406V31.1559C25.1562 32.4142 26.1795 33.4375 27.4378 33.4375H43.1559Z" fill="#333333" stroke="#F4F4F4" stroke-width="0.5"/>
<path id="Vector (Stroke)" fill-rule="evenodd" clip-rule="evenodd" d="M7.05469 14.0938C6.5542 14.0938 6.14844 14.4995 6.14844 15V20.6484C6.14844 21.1489 6.5542 21.5547 7.05469 21.5547C7.55517 21.5547 7.96094 21.1489 7.96094 20.6484V15C7.96094 14.4995 7.55517 14.0938 7.05469 14.0938Z" fill="#333333"/>
<path id="Vector (Stroke)_2" fill-rule="evenodd" clip-rule="evenodd" d="M15.5273 9.79688H9.87891C9.37842 9.79688 8.97266 10.2026 8.97266 10.7031C8.97266 11.2036 9.37842 11.6094 9.87891 11.6094H15.5273C16.0278 11.6094 16.4336 11.2036 16.4336 10.7031C16.4336 10.2026 16.0278 9.79688 15.5273 9.79688Z" fill="#333333"/>
<path id="Vector (Stroke)_3" fill-rule="evenodd" clip-rule="evenodd" d="M38.1211 9.79688H32.4727C31.9722 9.79688 31.5664 10.2026 31.5664 10.7031C31.5664 11.2036 31.9722 11.6094 32.4727 11.6094H38.1211C38.6216 11.6094 39.0273 11.2036 39.0273 10.7031C39.0273 10.2026 38.6216 9.79688 38.1211 9.79688Z" fill="white"/>
<path id="Vector (Stroke)_4" fill-rule="evenodd" clip-rule="evenodd" d="M15.5273 28.0391H9.87891C9.37842 28.0391 8.97266 28.4448 8.97266 28.9453C8.97266 29.4458 9.37842 29.8516 9.87891 29.8516H15.5273C16.0278 29.8516 16.4336 29.4458 16.4336 28.9453C16.4336 28.4448 16.0278 28.0391 15.5273 28.0391Z" fill="#333333"/>
<path id="Vector (Stroke)_5" fill-rule="evenodd" clip-rule="evenodd" d="M15.5273 6.14844H9.87891C9.37842 6.14844 8.97266 6.5542 8.97266 7.05469C8.97266 7.55517 9.37842 7.96094 9.87891 7.96094H15.5273C16.0278 7.96094 16.4336 7.55517 16.4336 7.05469C16.4336 6.5542 16.0278 6.14844 15.5273 6.14844Z" fill="#333333"/>
<path id="Vector (Stroke)_6" fill-rule="evenodd" clip-rule="evenodd" d="M38.1211 6.14844H32.4727C31.9722 6.14844 31.5664 6.5542 31.5664 7.05469C31.5664 7.55517 31.9722 7.96094 32.4727 7.96094H38.1211C38.6216 7.96094 39.0273 7.55517 39.0273 7.05469C39.0273 6.5542 38.6216 6.14844 38.1211 6.14844Z" fill="white"/>
<path id="&#237;&#140;&#168;&#236;&#138;&#164; 92" d="M43.3839 30.9961H27.7598C27.3369 30.9902 26.9331 30.8171 26.6352 30.514C26.3274 30.2265 26.118 29.8478 26.0372 29.4324C25.9563 29.0171 26.0081 28.5866 26.1852 28.2029C26.3819 27.7091 26.7549 27.3076 27.2306 27.078L34.8665 23.2367C35.0207 23.1625 35.1894 23.124 35.3603 23.1241H35.4372L37.4218 22.0901C37.5415 22.0308 37.673 22 37.8064 22C37.9829 21.9993 38.1553 22.0536 38.3002 22.1553L39.1532 22.7624C39.2689 22.8431 39.3617 22.9526 39.4228 23.0804C39.4839 23.2082 39.5111 23.3498 39.5017 23.4913C39.5008 23.6473 39.4581 23.8001 39.378 23.9335C39.298 24.0669 39.1836 24.176 39.0471 24.249L38.4317 24.5518C38.6268 24.6114 38.8295 24.6418 39.0333 24.6419C39.3529 24.642 39.6681 24.5671 39.9541 24.4231C40.24 24.279 40.4889 24.0698 40.6809 23.812C40.926 23.5849 41.222 23.4213 41.5436 23.3353C41.8652 23.2493 42.2027 23.2435 42.527 23.3182C43.3369 23.5434 43.8346 24.3205 44 25.6293V30.3789C44 30.4605 43.9841 30.5413 43.9532 30.6166C43.9222 30.692 43.8769 30.7604 43.8198 30.8181C43.7626 30.8758 43.6948 30.9215 43.6201 30.9527C43.5455 30.9839 43.4654 31 43.3846 31M27.1252 28.73C27.0754 28.9031 27.0777 29.0873 27.1318 29.2591C27.1859 29.4309 27.2894 29.5826 27.429 29.695C27.4756 29.7435 27.5313 29.7822 27.5929 29.8089C27.6544 29.8355 27.7205 29.8496 27.7875 29.8503H42.87V28.7277H27.1252V28.73ZM35.3349 24.2514L34.1988 24.8134L36.9226 27.616H42.8716V25.7466C42.7839 25.044 42.5639 24.5487 42.277 24.4268C42.1492 24.4001 42.0173 24.4002 41.8895 24.4269C41.7618 24.4536 41.6407 24.5064 41.5339 24.5821C41.2444 24.9574 40.8737 25.261 40.4502 25.4697C40.0266 25.6783 39.5615 25.7866 39.0902 25.7862C37.7729 25.6591 36.5189 25.1558 35.4749 24.3352L35.3349 24.2514ZM33.1535 25.3732L32.3073 25.766L34.1065 27.6168H35.3995L33.1535 25.3732ZM31.2543 26.3048L28.6675 27.6168H32.5473L31.2543 26.3048ZM37.7694 23.1218L36.6564 23.7041C36.7415 23.761 36.8299 23.8128 36.921 23.8593L37.0618 23.9369L38.1187 23.3648L37.7694 23.1218Z" fill="#333333"/>
</g>
</svg>
