<svg width="25" height="24" viewBox="0 0 25 24" fill="none" xmlns="http://www.w3.org/2000/svg">
<g id="ic/orderset_p">
<path id="Vector" d="M2.5 18C2.5 17.4696 2.71071 16.9609 3.08579 16.5858C3.46086 16.2107 3.96957 16 4.5 16H20.5C21.0304 16 21.5391 16.2107 21.9142 16.5858C22.2893 16.9609 22.5 17.4696 22.5 18V20H2.5V18Z" stroke="#FF6B00" stroke-width="2" stroke-linecap="round" stroke-linejoin="round"/>
<path id="Vector_2" d="M20.5 16C20.5 13.8783 19.6571 11.8434 18.1569 10.3431C16.6566 8.84285 14.6217 8 12.5 8C10.3783 8 8.34344 8.84285 6.84315 10.3431C5.34285 11.8434 4.5 13.8783 4.5 16" stroke="#FF6B00" stroke-width="2" stroke-linecap="round" stroke-linejoin="round"/>
<path id="Vector_3" d="M12.5 4V8" stroke="#FF6B00" stroke-width="2" stroke-linecap="round" stroke-linejoin="round"/>
<path id="Vector_4" d="M10.5 4H14.5" stroke="#FF6B00" stroke-width="2" stroke-linecap="round" stroke-linejoin="round"/>
</g>
</svg>
