<svg width="25" height="24" viewBox="0 0 25 24" fill="none" xmlns="http://www.w3.org/2000/svg">
<g id="ic/orderset_p">
<path id="Vector" d="M18.5 11V6C18.5 5.46957 18.2893 4.96086 17.9142 4.58579C17.5391 4.21071 17.0304 4 16.5 4C15.9696 4 15.4609 4.21071 15.0858 4.58579C14.7107 4.96086 14.5 5.46957 14.5 6" stroke="#FF6B00" stroke-width="2" stroke-linecap="round" stroke-linejoin="round"/>
<path id="Vector_2" d="M14.5 10V4C14.5 3.46957 14.2893 2.96086 13.9142 2.58579C13.5391 2.21071 13.0304 2 12.5 2C11.9696 2 11.4609 2.21071 11.0858 2.58579C10.7107 2.96086 10.5 3.46957 10.5 4V6" stroke="#FF6B00" stroke-width="2" stroke-linecap="round" stroke-linejoin="round"/>
<path id="Vector_3" d="M10.5 10.5V6C10.5 5.46957 10.2893 4.96086 9.91421 4.58579C9.53914 4.21071 9.03043 4 8.5 4C7.96957 4 7.46086 4.21071 7.08579 4.58579C6.71071 4.96086 6.5 5.46957 6.5 6V14" stroke="#FF6B00" stroke-width="2" stroke-linecap="round" stroke-linejoin="round"/>
<path id="Vector_4" d="M18.5001 8C18.5001 7.46957 18.7108 6.96086 19.0859 6.58579C19.461 6.21071 19.9697 6 20.5001 6C21.0305 6 21.5392 6.21071 21.9143 6.58579C22.2894 6.96086 22.5001 7.46957 22.5001 8V14C22.5001 16.1217 21.6572 18.1566 20.157 19.6569C18.6567 21.1571 16.6218 22 14.5001 22H12.5001C9.7001 22 8.0001 21.14 6.5101 19.66L2.9101 16.06C2.56604 15.6789 2.38169 15.1802 2.39523 14.6669C2.40876 14.1537 2.61915 13.6653 2.98282 13.303C3.3465 12.9406 3.8356 12.7319 4.34888 12.7202C4.86215 12.7085 5.36027 12.8946 5.7401 13.24L7.5001 15" stroke="#FF6B00" stroke-width="2" stroke-linecap="round" stroke-linejoin="round"/>
</g>
</svg>
