<svg xmlns="http://www.w3.org/2000/svg" width="30" height="30" viewBox="0 0 30 30">
    <defs>
        <clipPath id="dy0dapyl2a">
            <path data-name="사각형 3" style="fill:#3c3c3c" d="M0 0h20.874v11.854H0z"/>
        </clipPath>
    </defs>
    <g transform="translate(4.563 5.147)" style="clip-path:url(#dy0dapyl2a)">
        <path data-name="패스 83" d="M20.331 0H.8a.545.545 0 0 0-.527.56V8.4a.545.545 0 0 0 .527.56h19.53a.545.545 0 0 0 .528-.56V.56a.545.545 0 0 0-.527-.56M6.754 5.345 6.182 6.4l-1.194-.964.152 1.284H4.084l.151-1.284-1.194.964-.572-1.055 1.367-.612-1.367-.612.572-1.051 1.187.953L4.084 2.8H5.14L5 4.024l1.187-.953.572 1.051-1.367.612zm5.954 0L12.137 6.4l-1.194-.959.151 1.284h-1.056l.151-1.284L9 6.4l-.576-1.055 1.367-.612-1.367-.612L9 3.071l1.187.953-.149-1.224h1.056l-.144 1.224 1.187-.953.571 1.051-1.367.612zm5.955 0L18.091 6.4 16.9 5.436l.151 1.284h-1.058l.151-1.284-1.194.964-.572-1.051 1.367-.612-1.367-.612.572-1.051 1.187.953-.144-1.227h1.056L16.9 4.024l1.187-.953.572 1.051-1.359.611z" transform="translate(-.129)" style="fill:#3c3c3c"/>
        <path data-name="패스 84" d="M20.353 19.193H.521a.553.553 0 0 0 0 1.1h19.832a.553.553 0 0 0 0-1.1" transform="translate(0 -8.444)" style="fill:#3c3c3c"/>
    </g>
    <text transform="translate(7 26)" style="font-size:8px;font-family:NotoSansCJKkr-Bold,Noto Sans CJK KR;font-weight:700;letter-spacing:.01em;fill:#3c3c3c"><tspan x="0" y="0">OTP</tspan></text>
</svg>
