<svg width="16" height="16" viewBox="0 0 16 16" fill="none" xmlns="http://www.w3.org/2000/svg">
<g id="ic_plus">
<path id="Union" fill-rule="evenodd" clip-rule="evenodd" d="M6.99927 13.3337C6.99927 13.8859 7.44698 14.3337 7.99927 14.3337C8.55155 14.3337 8.99927 13.8859 8.99927 13.3337V8.99967H13.3327C13.885 8.99967 14.3327 8.55196 14.3327 7.99967C14.3327 7.44739 13.885 6.99967 13.3327 6.99967H8.99927V2.66699C8.99927 2.11471 8.55155 1.66699 7.99927 1.66699C7.44698 1.66699 6.99927 2.11471 6.99927 2.66699V6.99967H2.66602C2.11373 6.99967 1.66602 7.44739 1.66602 7.99967C1.66602 8.55196 2.11373 8.99967 2.66602 8.99967H6.99927V13.3337Z" fill="#333333"/>
</g>
</svg>
