<svg width="26" height="26" viewBox="0 0 26 26" fill="none" xmlns="http://www.w3.org/2000/svg">
<g id="ic/print24">
<path id="Vector" d="M5.80078 9.4V1H20.2008V9.4" stroke="#333333" stroke-width="1.5" stroke-linecap="round" stroke-linejoin="round"/>
<path id="Vector_2" d="M5.8 20.1999H3.4C2.76348 20.1999 2.15303 19.947 1.70294 19.497C1.25286 19.0469 1 18.4364 1 17.7999V11.7999C1 11.1634 1.25286 10.5529 1.70294 10.1028C2.15303 9.65276 2.76348 9.3999 3.4 9.3999H22.6C23.2365 9.3999 23.847 9.65276 24.2971 10.1028C24.7471 10.5529 25 11.1634 25 11.7999V17.7999C25 18.4364 24.7471 19.0469 24.2971 19.497C23.847 19.947 23.2365 20.1999 22.6 20.1999H20.2" stroke="#333333" stroke-width="1.5" stroke-linecap="round" stroke-linejoin="round"/>
<path id="Vector_3" d="M20.2008 15.3999H5.80078V24.9999H20.2008V15.3999Z" stroke="#333333" stroke-width="1.5" stroke-linecap="round" stroke-linejoin="round"/>
</g>
</svg>
