<svg width="30" height="31" viewBox="0 0 30 31" fill="none" xmlns="http://www.w3.org/2000/svg">
<g clip-path="url(#clip0_161_3720)">
<path d="M2.8999 5.00301V10.1052H4.35075V5.72843H7.46201V4.27759H3.62533C3.22231 4.27759 2.8999 4.6 2.8999 5.00301Z" fill="#231815"/>
<path d="M26.2668 4.27759H22.4382V5.72843H25.5494V10.1132H27.0003V5.00301C27.0003 4.6 26.6779 4.27759 26.2749 4.27759H26.2668Z" fill="#231815"/>
<path d="M4.35075 20.3621H2.8999V25.4642C2.8999 25.8672 3.22231 26.1896 3.62533 26.1896H7.45395V24.7388H4.35075V20.354V20.3621Z" fill="#231815"/>
<path d="M25.5412 24.7468H22.4299V26.1977H26.2586C26.6616 26.1977 26.984 25.8753 26.984 25.4723V20.3701H25.5331V24.7549L25.5412 24.7468Z" fill="#231815"/>
<g clip-path="url(#clip1_161_3720)">
<path d="M13.2496 9.40552H8.90332V13.8698H13.2496V9.40552Z" fill="white"/>
<path d="M14.1529 14.7977H8V8.47778H14.1529V14.7977ZM9.80663 12.9421H12.3463V10.3335H9.80663V12.9421Z" fill="black"/>
<path d="M21.0967 9.28174H16.7504V13.746H21.0967V9.28174Z" fill="white"/>
<path d="M22 14.6735H15.8471V8.354H22V14.6735ZM17.6537 12.8178H20.1934V10.2097H17.6537V12.8178Z" fill="black"/>
<path d="M13.3702 17.2817H9.02386V21.746H13.3702V17.2817Z" fill="white"/>
<path d="M14.2735 22.674H8.12054V16.354H14.2735V22.674ZM9.92717 20.8183H12.4668V18.2097H9.92717V20.8183Z" fill="black"/>
<path d="M17.9382 16.3594H15.9031V18.4498H17.9382V16.3594Z" fill="black"/>
<path d="M19.9657 18.4421H17.9306V20.5325H19.9657V18.4421Z" fill="black"/>
<path d="M21.9678 16.3594H19.9326V18.4498H21.9678V16.3594Z" fill="black"/>
<path d="M17.9638 20.4985H15.9286V22.5889H17.9638V20.4985Z" fill="black"/>
<path d="M21.9678 20.4985H19.9326V22.5889H21.9678V20.4985Z" fill="black"/>
</g>
</g>
<defs>
<clipPath id="clip0_161_3720">
<rect width="30" height="30" fill="white" transform="translate(0 0.5)"/>
</clipPath>
<clipPath id="clip1_161_3720">
<rect width="14" height="15" fill="white" transform="translate(8 8.354)"/>
</clipPath>
</defs>
</svg>
