<svg width="24" height="24" viewBox="0 0 24 24" fill="none" xmlns="http://www.w3.org/2000/svg">
<path d="M5 22C3.91 22.01 3.01 21.14 3 20.05V3.93C3.01 2.84 3.91 1.96 5 1.98H7.5V3.93H5.5C5.23 3.93 5 4.15 5 4.42V19.56C5 19.83 5.23 20.05 5.5 20.05H18.5C18.77 20.05 19 19.83 19 19.56V4.42C19 4.15 18.77 3.93 18.5 3.93H16.5V1.98H19C20.09 1.97 20.99 2.84 21 3.93V20.05C20.99 21.14 20.09 22.02 19 22H5ZM9.86 16.62C9.54 16.58 9.26 16.38 9.11 16.09L6.61 11.2C6.37 10.72 6.56 10.14 7.04 9.9C7.04 9.9 7.05 9.9 7.06 9.89C7.55 9.65 8.15 9.84 8.4 10.33L10.25 13.95L15.77 8.15C16.15 7.75 16.78 7.73 17.19 8.1C17.59 8.45 17.62 9.06 17.27 9.46C17.27 9.46 17.26 9.48 17.25 9.48L10.75 16.32C10.56 16.52 10.29 16.63 10.02 16.63C9.97 16.63 9.93 16.63 9.88 16.63L9.86 16.62ZM9.5 4.91C8.95 4.91 8.51 4.48 8.5 3.93V1.98C8.51 1.43 8.95 1 9.5 1H14.5C15.05 1 15.49 1.43 15.5 1.98V3.93C15.5 4.48 15.05 4.91 14.5 4.91H9.5Z" fill="#C8C8C8"/>
</svg>
