<svg width="25" height="24" viewBox="0 0 25 24" fill="none" xmlns="http://www.w3.org/2000/svg">
<path d="M20 4V9H15" stroke="white" stroke-width="1.5" stroke-linecap="round" stroke-linejoin="round"/>
<path d="M6 12C6.00123 10.648 6.39324 9.32526 7.12875 8.19128C7.86426 7.05731 8.91186 6.16054 10.1452 5.60916C11.3785 5.05778 12.7448 4.87532 14.0794 5.08381C15.414 5.2923 16.6599 5.88282 17.6667 6.78414L20 8.88605" stroke="white" stroke-width="1.5" stroke-linecap="round" stroke-linejoin="round"/>
<path d="M6 20V15H11" stroke="white" stroke-width="1.5" stroke-linecap="round" stroke-linejoin="round"/>
<path d="M20 12C19.9988 13.352 19.6068 14.6747 18.8712 15.8087C18.1357 16.9427 17.0881 17.8395 15.8548 18.3908C14.6215 18.9422 13.2552 19.1247 11.9206 18.9162C10.586 18.7077 9.34013 18.1172 8.33333 17.2159L6 15.1139" stroke="white" stroke-width="1.5" stroke-linecap="round" stroke-linejoin="round"/>
</svg>
