<svg width="24" height="24" viewBox="0 0 24 24" fill="none" xmlns="http://www.w3.org/2000/svg">
<path fill-rule="evenodd" clip-rule="evenodd" d="M18.629 11.7596C18.6326 11.8416 18.6342 11.9216 18.6342 12C18.6342 12.0784 18.6326 12.158 18.629 12.2404L20.1442 13.714C20.683 14.2384 20.797 15.0601 20.4226 15.7128L19.4046 17.4868C19.0306 18.1392 18.267 18.452 17.545 18.2436L15.5234 17.6616C15.5214 17.662 15.505 17.6644 15.4814 17.6792C15.3698 17.7488 15.2558 17.8148 15.139 17.878C15.1154 17.8908 15.105 17.904 15.103 17.9076L14.5938 19.9576C14.4122 20.6892 13.7622 21.2 13.0126 21.2H10.977C10.2278 21.2 9.57741 20.6892 9.39541 19.9576L8.88541 17.9056C8.88461 17.904 8.87381 17.8908 8.84981 17.8776C8.73381 17.8148 8.61941 17.7488 8.50701 17.6788C8.48501 17.6652 8.46901 17.662 8.46421 17.662L6.44461 18.2436C5.72301 18.4512 4.95901 18.1392 4.58461 17.4868L3.56661 15.7128C3.19221 15.0601 3.30661 14.2384 3.84501 13.714L5.36021 12.2404C5.35701 12.1584 5.35541 12.0788 5.35541 12C5.35541 11.9212 5.35701 11.8412 5.36021 11.7596L3.84501 10.286C3.30661 9.76205 3.19221 8.94005 3.56621 8.28725L4.58461 6.51285C4.95941 5.86005 5.72421 5.54805 6.44421 5.75605L8.46621 6.33845C8.46781 6.33805 8.48421 6.33525 8.50781 6.32085C8.62021 6.25085 8.73501 6.18405 8.85221 6.12125C8.87381 6.10925 8.88461 6.09605 8.88621 6.09245L9.39501 4.04205C9.57701 3.31085 10.2274 2.80005 10.977 2.80005H13.0126C13.7622 2.80005 14.4126 3.31085 14.5938 4.04245L15.1038 6.09445C15.105 6.09605 15.1154 6.10885 15.1394 6.12245C15.2542 6.18405 15.369 6.25085 15.4822 6.32125C15.505 6.33525 15.5198 6.33485 15.5254 6.33805L17.545 5.75605C18.2646 5.54805 19.0302 5.86005 19.4046 6.51285L20.4226 8.28685C20.797 8.94045 20.6826 9.76205 20.1442 10.286L18.629 11.7596ZM18.0274 7.31285C18.0182 7.29725 17.9994 7.29045 17.9822 7.29445L15.961 7.87645C15.5254 8.00245 15.0466 7.93085 14.6466 7.68245C14.5614 7.62965 14.4754 7.57925 14.3878 7.53205C13.9718 7.30685 13.671 6.92485 13.561 6.48285L13.051 4.43045C13.0466 4.41245 13.031 4.40005 13.0126 4.40005H10.977C10.9586 4.40005 10.9426 4.41245 10.9382 4.43045L10.4286 6.48285C10.3182 6.92445 10.0178 7.30645 9.60381 7.53085C9.51381 7.57925 9.42781 7.62965 9.34341 7.68205C8.94301 7.93085 8.46341 8.00205 8.02861 7.87645L6.00701 7.29445C5.98981 7.28845 5.97061 7.29685 5.96141 7.31325L4.94381 9.08685C4.93461 9.10285 4.93741 9.12325 4.95061 9.13605L6.73101 10.868C6.90501 11.0368 6.99261 11.276 6.96981 11.5184C6.95501 11.6768 6.94541 11.8372 6.94541 12C6.94541 12.1628 6.95501 12.3232 6.96981 12.4816C6.99261 12.7236 6.90501 12.9633 6.73101 13.132L4.95061 14.864C4.93781 14.8764 4.93461 14.8972 4.94381 14.9128L5.96181 16.6868C5.97101 16.7032 5.98981 16.7092 6.00741 16.7056L8.02861 16.1236C8.16981 16.0828 8.31541 16.0628 8.46141 16.0628C8.76621 16.0628 9.07261 16.1496 9.34301 16.3176C9.42821 16.3708 9.51541 16.4212 9.60341 16.4688C10.0178 16.6932 10.3182 17.0752 10.4282 17.5172L10.9382 19.5696C10.9426 19.5876 10.9586 19.6 10.977 19.6H13.0126C13.0306 19.6 13.0466 19.5876 13.051 19.57L13.561 17.5172C13.671 17.0748 13.9718 16.6928 14.3854 16.4692C14.4742 16.4212 14.5606 16.3708 14.6458 16.318C15.0462 16.0688 15.5254 15.998 15.9602 16.1236L17.9822 16.7056C18.0006 16.7108 18.0178 16.7028 18.0274 16.6872L19.0454 14.9128C19.0546 14.8972 19.0514 14.8764 19.0386 14.864L17.2582 13.132C17.0846 12.9633 16.997 12.724 17.0194 12.4824C17.0342 12.3236 17.0438 12.1628 17.0438 12C17.0438 11.8372 17.0342 11.6764 17.0194 11.5176C16.997 11.2756 17.0846 11.0368 17.2582 10.868L19.0386 9.13605C19.0518 9.12325 19.0546 9.10285 19.0454 9.08645L18.0274 7.31285ZM12.0002 15.6C10.0118 15.6 8.40021 13.988 8.40021 12C8.40021 10.0116 10.0118 8.40005 12.0002 8.40005C13.9882 8.40005 15.6002 10.0116 15.6002 12C15.6002 13.988 13.9882 15.6 12.0002 15.6ZM12.0002 10C10.8954 10 10.0002 10.8956 10.0002 12C10.0002 13.1044 10.8954 14 12.0002 14C13.1046 14 14.0002 13.1044 14.0002 12C14.0002 10.8956 13.1046 10 12.0002 10Z" fill="#333333" stroke="#333333" stroke-width="0.3"/>
</svg>
