<svg width="10" height="10" viewBox="0 0 10 10" fill="none" xmlns="http://www.w3.org/2000/svg">
<g clip-path="url(#clip0_116_644)">
<mask id="mask0_116_644" style="mask-type:luminance" maskUnits="userSpaceOnUse" x="0" y="0" width="10" height="10">
<path d="M10 0H0V10H10V0Z" fill="white"/>
</mask>
<g mask="url(#mask0_116_644)">
<path d="M9.77555 4.56019C9.98154 4.34808 10.0564 4.04239 9.96281 3.76166C9.88166 3.48716 9.6507 3.28129 9.36356 3.23138L6.89165 2.85706C6.84171 2.85083 6.79802 2.81963 6.77929 2.76972L5.66818 0.436498C5.50588 0.0684225 5.06893 -0.100019 4.70064 0.0684225C4.53834 0.143285 4.40101 0.274295 4.33235 0.436498L3.22748 2.77596C3.20876 2.81963 3.16506 2.85083 3.11512 2.8633L0.643213 3.23762C0.356072 3.28129 0.12511 3.48716 0.0439619 3.7679C-0.0434289 4.04863 0.0252353 4.35432 0.231228 4.56643L2.02274 6.3881C2.06019 6.42553 2.07268 6.47544 2.06643 6.52535L1.64196 9.09564C1.59203 9.38261 1.70439 9.6758 1.93535 9.85048C2.16007 10.0252 2.47218 10.0501 2.72186 9.91287L4.9316 8.70261C4.9753 8.67765 5.02523 8.67765 5.06893 8.70261L7.27867 9.91287C7.52835 10.0501 7.84046 10.0314 8.06518 9.85048C8.29615 9.66957 8.41475 9.37637 8.36481 9.0894L7.94034 6.51911C7.9341 6.4692 7.94658 6.41929 7.98404 6.38186L9.77555 4.56019Z" fill="#FFB800"/>
</g>
</g>
<defs>
<clipPath id="clip0_116_644">
<rect width="10" height="10" fill="white"/>
</clipPath>
</defs>
</svg>
