<svg width="16" height="16" viewBox="0 0 16 16" fill="none" xmlns="http://www.w3.org/2000/svg">
<g id="ic/female1" clip-path="url(#clip0_833_43503)">
<path id="Vector" d="M14.2734 16.0001C14.518 16.0001 14.678 15.7454 14.558 15.5321C13.28 13.2561 10.878 11.7334 8.06669 11.7334C5.25536 11.7334 2.85336 13.2561 1.57536 15.5321C1.45536 15.7454 1.61536 16.0001 1.86002 16.0001H14.2734Z" fill="#333333"/>
<path id="Vector_2" fill-rule="evenodd" clip-rule="evenodd" d="M14.6 12.2667C15.1333 12 15.4 11.4 15.1333 10.8667L14.1333 8.6C13.9333 8.2 13.8667 7.8 13.8667 7.33333V5.86667C13.8667 2.66667 11.2667 0 8 0C4.8 0 2.13333 2.6 2.13333 5.86667V7.33333C2.13333 7.73333 2.06666 8.2 1.86666 8.6L0.866664 10.8667C0.666664 11.4 0.866664 12 1.4 12.2667C1.4 12.2667 1.76 12.4527 2.47733 12.6733C4.014 11.3747 5.97 10.6 8.06666 10.6C10.15 10.6 12.0707 11.3647 13.5967 12.648C14.2667 12.438 14.6 12.2667 14.6 12.2667ZM8.06933 3.18C7.9182 3.41283 7.75114 3.63492 7.56933 3.84467C6.95866 4.54733 6.00933 5.29133 4.66133 5.46667C4.636 5.64667 4.63333 5.864 4.63333 6.13333C4.63333 8.05733 6.20933 9.63333 8.13333 9.63333C10.0573 9.63333 11.6333 8.05733 11.6333 6.13333C11.6333 5.91133 11.6093 5.684 11.5753 5.46467C10.186 5.28667 9.21266 4.55133 8.58533 3.85C8.39749 3.63909 8.22505 3.41562 8.06933 3.18Z" fill="#333333"/>
</g>
<defs>
<clipPath id="clip0_833_43503">
<rect width="16" height="16" fill="white"/>
</clipPath>
</defs>
</svg>
