<svg width="16" height="16" viewBox="0 0 16 16" fill="none" xmlns="http://www.w3.org/2000/svg">
<path d="M14.0722 16.0001C14.3168 16.0001 14.4769 15.7454 14.3568 15.5321C13.0788 13.2561 10.6769 11.7334 7.86552 11.7334C5.05418 11.7334 2.65218 13.2561 1.37418 15.5321C1.25418 15.7454 1.41418 16.0001 1.65885 16.0001H14.0722Z" fill="#333333"/>
<mask id="mask0_833_43605" style="mask-type:alpha" maskUnits="userSpaceOnUse" x="0" y="0" width="16" height="13">
<path fill-rule="evenodd" clip-rule="evenodd" d="M14.4761 12.2667C15.0094 12 15.2761 11.4 15.0094 10.8667L14.0094 8.6C13.8094 8.2 13.7428 7.8 13.7428 7.33333V5.86667C13.7428 2.66667 11.1428 0 7.8761 0C4.6761 0 2.00943 2.6 2.00943 5.86667V7.33333C2.00943 7.73333 1.94276 8.2 1.74276 8.6L0.742763 10.8667C0.542763 11.4 0.742763 12 1.2761 12.2667C1.2761 12.2667 1.6361 12.4527 2.35343 12.6733C3.8901 11.3747 5.8461 10.6 7.94276 10.6C10.0261 10.6 11.9468 11.3647 13.4728 12.648C14.1428 12.438 14.4761 12.2667 14.4761 12.2667ZM7.94543 3.18C7.7943 3.41283 7.62724 3.63492 7.44543 3.84467C6.83476 4.54733 5.88543 5.29133 4.53743 5.46667C4.5121 5.64667 4.50943 5.864 4.50943 6.13333C4.50943 8.05733 6.08543 9.63333 8.00943 9.63333C9.93343 9.63333 11.5094 8.05733 11.5094 6.13333C11.5094 5.91133 11.4854 5.684 11.4514 5.46467C10.0621 5.28667 9.08876 4.55133 8.46143 3.85C8.27359 3.63909 8.10115 3.41562 7.94543 3.18Z" fill="#333333"/>
</mask>
<g mask="url(#mask0_833_43605)">
<ellipse cx="8" cy="3.93327" rx="6" ry="6.66667" fill="#333333"/>
</g>
</svg>
