<svg width="18" height="14" viewBox="0 0 18 14" fill="none" xmlns="http://www.w3.org/2000/svg">
<g id="icon_common">
<g id="Clip path group">
<mask id="mask0_723_3020" style="mask-type:luminance" maskUnits="userSpaceOnUse" x="0" y="1" width="18" height="13">
<g id="clip-path">
<path id="&#236;&#130;&#172;&#234;&#176;&#129;&#237;&#152;&#149; 1" d="M17.7403 1.6499H0.642822V13.9999H17.7403V1.6499Z" fill="white"/>
</g>
</mask>
<g mask="url(#mask0_723_3020)">
<g id="&#234;&#183;&#184;&#235;&#163;&#185; 8">
<path id="&#237;&#140;&#168;&#236;&#138;&#164; 29" fill-rule="evenodd" clip-rule="evenodd" d="M5.76642 1.80526C5.32298 1.79904 4.88274 1.88199 4.47127 2.04927C4.0598 2.21656 3.68531 2.46485 3.36956 2.77972C3.0538 3.09459 2.80307 3.46976 2.63194 3.88345C2.46081 4.29713 2.37268 4.74107 2.37268 5.18948C2.37268 5.63789 2.46081 6.08184 2.63194 6.49552C2.80307 6.9092 3.0538 7.28438 3.36956 7.59925C3.68531 7.91412 4.0598 8.16241 4.47127 8.32969C4.88274 8.49698 5.32298 8.57992 5.76642 8.57371C6.20987 8.57992 6.65011 8.49698 7.06158 8.32969C7.47305 8.16241 7.84754 7.91412 8.16329 7.59925C8.47905 7.28438 8.72978 6.9092 8.90091 6.49552C9.07204 6.08184 9.16017 5.63789 9.16017 5.18948C9.16017 4.74107 9.07204 4.29713 8.90091 3.88345C8.72978 3.46976 8.47905 3.09459 8.16329 2.77972C7.84754 2.46485 7.47305 2.21656 7.06158 2.04927C6.65011 1.88199 6.20987 1.79904 5.76642 1.80526Z" fill="#BBBBBB"/>
<path id="&#237;&#140;&#168;&#236;&#138;&#164; 30" fill-rule="evenodd" clip-rule="evenodd" d="M5.76125 9.43237C0.740537 9.43237 0.642822 13.1055 0.642822 13.1055V14.2755H10.8803V13.1055C10.8803 13.1055 10.7833 9.43237 5.76125 9.43237Z" fill="#BBBBBB"/>
<path id="&#237;&#140;&#168;&#236;&#138;&#164; 31" fill-rule="evenodd" clip-rule="evenodd" d="M17.1822 7.98545L16.7611 7.5896C16.4464 7.13872 16.2775 6.60033 16.2777 6.04845L16.2963 4.61845C16.3077 4.23952 16.2449 3.86206 16.1118 3.50767C15.9786 3.15329 15.7776 2.82894 15.5203 2.5532C15.263 2.27746 14.9544 2.05574 14.6123 1.90074C14.2701 1.74574 13.9011 1.6605 13.5263 1.6499L13.3836 1.6499C13.0084 1.66041 12.6391 1.74569 12.2966 1.90086C11.9541 2.05603 11.6454 2.27803 11.3879 2.55412C11.1305 2.83022 10.9296 3.15498 10.7965 3.50979C10.6635 3.86459 10.6011 4.24245 10.6128 4.6217L10.6315 6.0517C10.6315 6.60325 10.4629 7.14131 10.1487 7.5922L9.8562 7.9172C9.8562 7.9172 10.7781 8.6504 13.4703 8.6504C16.1626 8.6504 17.1822 7.99065 17.1822 7.99065" fill="#BBBBBB"/>
<path id="&#237;&#140;&#168;&#236;&#138;&#164; 32" fill-rule="evenodd" clip-rule="evenodd" d="M13.5193 9.43237C12.5273 9.3855 11.5485 9.67715 10.7402 10.2605C11.4496 11.0373 11.8869 12.0282 11.9848 13.0808V14.2768H17.7429V13.1068C17.7429 13.1068 17.6625 9.43367 13.5219 9.43367" fill="#BBBBBB"/>
</g>
</g>
</g>
</g>
</svg>
