<svg width="12" height="14" viewBox="0 0 12 14" fill="none" xmlns="http://www.w3.org/2000/svg">
<mask id="mask0_723_2992" style="mask-type:luminance" maskUnits="userSpaceOnUse" x="0" y="1" width="12" height="13">
<path d="M11.7403 1.6499H0V13.9999H11.7403V1.6499Z" fill="white"/>
</mask>
<g mask="url(#mask0_723_2992)">
<path fill-rule="evenodd" clip-rule="evenodd" d="M5.76642 1.80526C5.32298 1.79904 4.88274 1.88199 4.47127 2.04927C4.0598 2.21656 3.68531 2.46485 3.36956 2.77972C3.0538 3.09459 2.80307 3.46976 2.63194 3.88345C2.46081 4.29713 2.37268 4.74107 2.37268 5.18948C2.37268 5.63789 2.46081 6.08184 2.63194 6.49552C2.80307 6.9092 3.0538 7.28438 3.36956 7.59925C3.68531 7.91412 4.0598 8.16241 4.47127 8.32969C4.88274 8.49698 5.32298 8.57992 5.76642 8.57371C6.20987 8.57992 6.65011 8.49698 7.06158 8.32969C7.47305 8.16241 7.84754 7.91412 8.16329 7.59925C8.47905 7.28438 8.72978 6.9092 8.90091 6.49552C9.07204 6.08184 9.16017 5.63789 9.16017 5.18948C9.16017 4.74107 9.07204 4.29713 8.90091 3.88345C8.72978 3.46976 8.47905 3.09459 8.16329 2.77972C7.84754 2.46485 7.47305 2.21656 7.06158 2.04927C6.65011 1.88199 6.20987 1.79904 5.76642 1.80526Z" fill="white"/>
<path fill-rule="evenodd" clip-rule="evenodd" d="M5.76125 9.43237C0.740537 9.43237 0.642822 13.1055 0.642822 13.1055V14.2755H10.8803V13.1055C10.8803 13.1055 10.7833 9.43237 5.76125 9.43237Z" fill="white"/>
</g>
</svg>
