<svg width="10" height="10" viewBox="0 0 10 10" fill="none" xmlns="http://www.w3.org/2000/svg">
<g clip-path="url(#clip0_116_650)">
<mask id="mask0_116_650" style="mask-type:luminance" maskUnits="userSpaceOnUse" x="0" y="0" width="10" height="10">
<path d="M10 0H0V10H10V0Z" fill="white"/>
</mask>
<g mask="url(#mask0_116_650)">
<path d="M9.99394 10H0V8.75076C0 8.22923 0.321213 7.48332 1.86667 6.86477C2.86668 6.47665 3.92729 6.27047 5.00002 6.24621C6.07275 6.27047 7.13336 6.47665 8.13336 6.86477C9.67276 7.47726 10 8.22923 10 8.74469V9.99394L9.99394 10ZM5.00002 5.00303C3.61819 5.00303 2.50304 3.88114 2.50304 2.50455C2.50304 1.12795 3.61819 0 4.99396 0C6.36972 0 7.49093 1.12189 7.49093 2.49848C7.49093 3.88114 6.36972 4.99697 4.99396 4.99697L5.00002 5.00303Z" fill="#0DCC74"/>
</g>
</g>
<defs>
<clipPath id="clip0_116_650">
<rect width="10" height="10" fill="white"/>
</clipPath>
</defs>
</svg>
