<svg width="12" height="13" viewBox="0 0 12 13" fill="none" xmlns="http://www.w3.org/2000/svg">
<mask id="mask0_723_20520" style="mask-type:luminance" maskUnits="userSpaceOnUse" x="0" y="0" width="12" height="13">
<path d="M11.7403 0.649902H0V12.9999H11.7403V0.649902Z" fill="white"/>
</mask>
<g mask="url(#mask0_723_20520)">
<path fill-rule="evenodd" clip-rule="evenodd" d="M9.62581 7.23557L9.20473 6.83972C8.88999 6.38885 8.7211 5.85045 8.7213 5.29857L8.73995 3.86857C8.75125 3.48965 8.68853 3.11218 8.55537 2.7578C8.4222 2.40341 8.22121 2.07906 7.96391 1.80332C7.7066 1.52758 7.39804 1.30586 7.05587 1.15086C6.71371 0.995862 6.34467 0.910622 5.96988 0.900024L5.82716 0.900024C5.45204 0.910533 5.08266 0.995817 4.7402 1.15098C4.39775 1.30615 4.08896 1.52815 3.83155 1.80425C3.57413 2.08034 3.37316 2.4051 3.24015 2.75991C3.10714 3.11471 3.04471 3.49257 3.05645 3.87182L3.07509 5.30182C3.0751 5.85337 2.90647 6.39144 2.5923 6.84232L2.2998 7.16732C2.2998 7.16732 3.22166 7.90052 5.91395 7.90052C8.60623 7.90052 9.62581 7.24077 9.62581 7.24077" fill="#666666"/>
<path fill-rule="evenodd" clip-rule="evenodd" d="M5.89951 9C1.38749 9 1.2998 12.4873 1.2998 12.4873V13.6H10.4998V12.4873C10.4998 12.4873 10.4115 9 5.89951 9Z" fill="#666666"/>
</g>
</svg>
