<svg width="18" height="14" viewBox="0 0 18 14" fill="none" xmlns="http://www.w3.org/2000/svg">
<g id="icon_common">
<g id="Clip path group">
<mask id="mask0_723_3" style="mask-type:luminance" maskUnits="userSpaceOnUse" x="0" y="1" width="18" height="13">
<g id="clip-path">
<path id="&#236;&#130;&#172;&#234;&#176;&#129;&#237;&#152;&#149; 1" d="M17.7403 1.6499H0.642822V13.9999H17.7403V1.6499Z" fill="white"/>
</g>
</mask>
<g mask="url(#mask0_723_3)">
<g id="&#234;&#183;&#184;&#235;&#163;&#185; 8">
<path id="&#237;&#140;&#168;&#236;&#138;&#164; 29" fill-rule="evenodd" clip-rule="evenodd" d="M5.7663 1.80526C5.32286 1.79904 4.88262 1.88199 4.47115 2.04927C4.05968 2.21656 3.68519 2.46485 3.36943 2.77972C3.05368 3.09459 2.80295 3.46976 2.63182 3.88345C2.46068 4.29713 2.37256 4.74107 2.37256 5.18948C2.37256 5.63789 2.46068 6.08184 2.63182 6.49552C2.80295 6.9092 3.05368 7.28438 3.36943 7.59925C3.68519 7.91412 4.05968 8.16241 4.47115 8.32969C4.88262 8.49698 5.32286 8.57992 5.7663 8.57371C6.20974 8.57992 6.64999 8.49698 7.06146 8.32969C7.47292 8.16241 7.84741 7.91412 8.16317 7.59925C8.47893 7.28438 8.72966 6.9092 8.90079 6.49552C9.07192 6.08184 9.16005 5.63789 9.16005 5.18948C9.16005 4.74107 9.07192 4.29713 8.90079 3.88345C8.72966 3.46976 8.47893 3.09459 8.16317 2.77972C7.84741 2.46485 7.47292 2.21656 7.06146 2.04927C6.64999 1.88199 6.20974 1.79904 5.7663 1.80526Z" fill="#666666"/>
<path id="&#237;&#140;&#168;&#236;&#138;&#164; 30" fill-rule="evenodd" clip-rule="evenodd" d="M5.76125 9.43237C0.740537 9.43237 0.642822 13.1055 0.642822 13.1055V14.2755H10.8803V13.1055C10.8803 13.1055 10.7833 9.43237 5.76125 9.43237Z" fill="#666666"/>
<path id="&#237;&#140;&#168;&#236;&#138;&#164; 31" fill-rule="evenodd" clip-rule="evenodd" d="M17.3262 8.33555L16.9052 7.9397C16.5904 7.48882 16.4215 6.95043 16.4217 6.39855L16.4404 4.96855C16.4517 4.58962 16.389 4.21216 16.2558 3.85777C16.1226 3.50339 15.9217 3.17904 15.6643 2.9033C15.407 2.62756 15.0985 2.40584 14.7563 2.25084C14.4141 2.09584 14.0451 2.0106 13.6703 2L13.5276 2C13.1525 2.01051 12.7831 2.09579 12.4406 2.25096C12.0982 2.40613 11.7894 2.62812 11.532 2.90422C11.2746 3.18032 11.0736 3.50508 10.9406 3.85988C10.8076 4.21469 10.7452 4.59255 10.7569 4.9718L10.7755 6.4018C10.7755 6.95335 10.6069 7.49141 10.2927 7.9423L10.0002 8.2673C10.0002 8.2673 10.9221 9.0005 13.6144 9.0005C16.3067 9.0005 17.3262 8.34075 17.3262 8.34075" fill="#666666"/>
<path id="&#237;&#140;&#168;&#236;&#138;&#164; 32" fill-rule="evenodd" clip-rule="evenodd" d="M13.5193 9.43237C12.5273 9.3855 11.5485 9.67715 10.7402 10.2605C11.4496 11.0373 11.8869 12.0282 11.9848 13.0808V14.2768H17.7429V13.1068C17.7429 13.1068 17.6625 9.43367 13.5219 9.43367" fill="#666666"/>
</g>
</g>
</g>
</g>
</svg>
