<svg width="22" height="20" viewBox="0 0 22 20" fill="none" xmlns="http://www.w3.org/2000/svg">
<g id="Eat-Vending-Machine 1" clip-path="url(#clip0_850_34925)">
<g id="Group">
<path id="Vector" d="M20.0013 1.25069C20.0014 1.08298 19.9677 0.916955 19.9023 0.762517C19.8369 0.608078 19.7411 0.468382 19.6206 0.351747C19.5001 0.235113 19.3573 0.143925 19.2008 0.0836142C19.0443 0.0233037 18.8773 -0.00489594 18.7096 0.000694685H10.8346C10.6551 0.00184477 10.4779 0.041927 10.3153 0.118177C10.1528 0.194427 10.0087 0.305031 9.89297 0.442361C10.4068 1.07673 10.6659 1.87977 10.6196 2.69483C10.5734 3.50988 10.2252 4.27848 9.64297 4.8507C9.60696 4.89256 9.58637 4.9455 9.58464 5.00069V5.20903C9.58655 5.24396 9.59659 5.27797 9.61394 5.30835C9.6313 5.33873 9.65551 5.36464 9.68464 5.38403C10.1369 5.65466 10.5238 6.02171 10.818 6.45903L14.4346 11.6007C14.6147 11.8789 14.7376 12.1902 14.7963 12.5164C14.8549 12.8426 14.8481 13.1772 14.7763 13.5007C14.7688 13.5621 14.7836 13.6242 14.818 13.6757C14.8382 13.7 14.8638 13.7195 14.8926 13.7324C14.9215 13.7454 14.953 13.7517 14.9846 13.7507H17.2513C17.4723 13.7507 17.6843 13.8385 17.8406 13.9948C17.9968 14.1511 18.0846 14.363 18.0846 14.584V17.084C18.0846 17.305 17.9968 17.517 17.8406 17.6733C17.6843 17.8296 17.4723 17.9174 17.2513 17.9174H12.2513C12.0303 17.9174 11.8183 17.8296 11.662 17.6733C11.5058 17.517 11.418 17.305 11.418 17.084V15.4174C11.4176 15.3779 11.4055 15.3394 11.3832 15.3068C11.361 15.2741 11.3296 15.2488 11.293 15.234C10.8644 15.0446 10.4977 14.7385 10.2346 14.3507L9.91797 13.909C9.89119 13.8744 9.85457 13.8488 9.81293 13.8354C9.77128 13.822 9.72655 13.8215 9.68464 13.834C9.64359 13.8492 9.60809 13.8764 9.58281 13.9121C9.55752 13.9478 9.54363 13.9903 9.54297 14.034V18.7507C9.54288 18.9184 9.57654 19.0844 9.64194 19.2389C9.70735 19.3933 9.80317 19.533 9.92369 19.6496C10.0442 19.7663 10.187 19.8575 10.3435 19.9178C10.5 19.9781 10.667 20.0063 10.8346 20.0007H18.7513C19.0828 20.0007 19.4008 19.869 19.6352 19.6346C19.8696 19.4002 20.0013 19.0822 20.0013 18.7507V1.25069ZM13.918 6.66736C13.918 6.77787 13.8741 6.88385 13.7959 6.96199C13.7178 7.04013 13.6118 7.08403 13.5013 7.08403H11.8346C11.7241 7.08403 11.6181 7.04013 11.54 6.96199C11.4619 6.88385 11.418 6.77787 11.418 6.66736V5.83403C11.418 5.72352 11.4619 5.61754 11.54 5.5394C11.6181 5.46126 11.7241 5.41736 11.8346 5.41736H13.5013C13.6118 5.41736 13.7178 5.46126 13.7959 5.5394C13.8741 5.61754 13.918 5.72352 13.918 5.83403V6.66736ZM13.918 3.33403C13.918 3.44454 13.8741 3.55052 13.7959 3.62866C13.7178 3.7068 13.6118 3.75069 13.5013 3.75069H11.8346C11.7241 3.75069 11.6181 3.7068 11.54 3.62866C11.4619 3.55052 11.418 3.44454 11.418 3.33403V2.50069C11.418 2.39019 11.4619 2.28421 11.54 2.20607C11.6181 2.12793 11.7241 2.08403 11.8346 2.08403H13.5013C13.6118 2.08403 13.7178 2.12793 13.7959 2.20607C13.8741 2.28421 13.918 2.39019 13.918 2.50069V3.33403ZM18.0846 10.0007C18.0846 10.1112 18.0407 10.2172 17.9626 10.2953C17.8845 10.3735 17.7785 10.4174 17.668 10.4174H16.0013C15.8908 10.4174 15.7848 10.3735 15.7067 10.2953C15.6285 10.2172 15.5846 10.1112 15.5846 10.0007V9.16736C15.5846 9.05686 15.6285 8.95087 15.7067 8.87273C15.7848 8.79459 15.8908 8.7507 16.0013 8.7507H17.668C17.7785 8.7507 17.8845 8.79459 17.9626 8.87273C18.0407 8.95087 18.0846 9.05686 18.0846 9.16736V10.0007ZM18.0846 6.66736C18.0846 6.77787 18.0407 6.88385 17.9626 6.96199C17.8845 7.04013 17.7785 7.08403 17.668 7.08403H16.0013C15.8908 7.08403 15.7848 7.04013 15.7067 6.96199C15.6285 6.88385 15.5846 6.77787 15.5846 6.66736V5.83403C15.5846 5.72352 15.6285 5.61754 15.7067 5.5394C15.7848 5.46126 15.8908 5.41736 16.0013 5.41736H17.668C17.7785 5.41736 17.8845 5.46126 17.9626 5.5394C18.0407 5.61754 18.0846 5.72352 18.0846 5.83403V6.66736ZM18.0846 3.33403C18.0846 3.44454 18.0407 3.55052 17.9626 3.62866C17.8845 3.7068 17.7785 3.75069 17.668 3.75069H16.0013C15.8908 3.75069 15.7848 3.7068 15.7067 3.62866C15.6285 3.55052 15.5846 3.44454 15.5846 3.33403V2.50069C15.5846 2.39019 15.6285 2.28421 15.7067 2.20607C15.7848 2.12793 15.8908 2.08403 16.0013 2.08403H17.668C17.7785 2.08403 17.8845 2.12793 17.9626 2.20607C18.0407 2.28421 18.0846 2.39019 18.0846 2.50069V3.33403Z" fill="#FF6B00"/>
<path id="Vector_2" d="M0.875976 12.1583C0.945177 12.1665 1.01511 12.1665 1.08431 12.1583C1.32415 12.1589 1.55675 12.0762 1.74224 11.9241C1.92773 11.7721 2.05456 11.5602 2.10098 11.3249L2.74264 8.17494C2.76326 8.08154 2.81479 7.99782 2.88889 7.93733C2.96299 7.87684 3.05533 7.84311 3.15098 7.84161H3.23431C3.28794 7.85254 3.33889 7.87393 3.38425 7.90456C3.4296 7.93519 3.46848 7.97446 3.49867 8.02011C3.52885 8.06577 3.54974 8.11693 3.56014 8.17066C3.57055 8.2244 3.57026 8.27965 3.55931 8.33328L2.72598 12.3916V18.9333C2.72598 19.2095 2.83572 19.4745 3.03107 19.6698C3.22642 19.8652 3.49138 19.9749 3.76764 19.9749C4.04391 19.9749 4.30886 19.8652 4.50421 19.6698C4.69956 19.4745 4.80931 19.2095 4.80931 18.9333V13.7499C4.80931 13.6394 4.85321 13.5335 4.93135 13.4553C5.00949 13.3772 5.11547 13.3333 5.22598 13.3333C5.33648 13.3333 5.44246 13.3772 5.5206 13.4553C5.59874 13.5335 5.64264 13.6394 5.64264 13.7499V18.9583C5.64264 19.2345 5.75239 19.4995 5.94774 19.6948C6.14309 19.8902 6.40804 19.9999 6.68431 19.9999C6.96058 19.9999 7.22553 19.8902 7.42088 19.6948C7.61623 19.4995 7.72598 19.2345 7.72598 18.9583V12.9166L8.33431 10.1249C8.34289 10.0862 8.36235 10.0507 8.3904 10.0227C8.41844 9.99465 8.45392 9.97519 8.49264 9.96661C8.53172 9.95807 8.57246 9.96145 8.6096 9.97631C8.64673 9.99116 8.67856 10.0168 8.70098 10.0499L11.2843 13.6666C11.381 13.8062 11.5045 13.9253 11.6475 14.0168C11.7906 14.1084 11.9504 14.1706 12.1176 14.1999C12.198 14.2086 12.279 14.2086 12.3593 14.1999C12.5758 14.1859 12.7849 14.1158 12.9661 13.9965C13.1473 13.8771 13.2943 13.7127 13.3927 13.5193C13.4911 13.3259 13.5374 13.1103 13.5272 12.8936C13.5169 12.6768 13.4505 12.4665 13.3343 12.2833L9.75098 7.17494C9.38508 6.62393 8.81574 6.24038 8.16764 6.10828L4.59264 5.38328C4.37359 5.33637 4.14998 5.31401 3.92598 5.31661C3.15754 5.31645 2.41265 5.5818 1.81737 6.06774C1.2221 6.55368 0.812996 7.23037 0.659309 7.98328L0.0593094 10.9249C0.00516459 11.1967 0.0606231 11.4788 0.213598 11.7098C0.366573 11.9409 0.604662 12.102 0.875976 12.1583Z" fill="#FF6B00"/>
<path id="Vector_3" d="M5.16797 2.5013C5.16797 2.77489 5.22186 3.0458 5.32655 3.29856C5.43125 3.55132 5.58471 3.78099 5.77816 3.97444C5.97162 4.1679 6.20128 4.32135 6.45405 4.42605C6.70681 4.53075 6.97771 4.58464 7.2513 4.58464C7.52489 4.58464 7.7958 4.53075 8.04856 4.42605C8.30132 4.32135 8.53099 4.1679 8.72444 3.97444C8.9179 3.78099 9.07135 3.55132 9.17605 3.29856C9.28075 3.0458 9.33464 2.77489 9.33464 2.5013C9.33464 2.22771 9.28075 1.95681 9.17605 1.70404C9.07135 1.45128 8.9179 1.22162 8.72444 1.02816C8.53099 0.834708 8.30132 0.68125 8.04856 0.576553C7.7958 0.471856 7.52489 0.417969 7.2513 0.417969C6.97771 0.417969 6.70681 0.471856 6.45405 0.576553C6.20128 0.68125 5.97162 0.834708 5.77816 1.02816C5.58471 1.22162 5.43125 1.45128 5.32655 1.70404C5.22186 1.95681 5.16797 2.22771 5.16797 2.5013Z" fill="#FF6B00"/>
</g>
</g>
<defs>
<clipPath id="clip0_850_34925">
<rect width="22" height="20" fill="white"/>
</clipPath>
</defs>
</svg>
