<svg width="25" height="24" viewBox="0 0 25 24" fill="none" xmlns="http://www.w3.org/2000/svg">
<path d="M14.7013 6.80364C14.5181 6.99057 14.4155 7.24189 14.4155 7.50364C14.4155 7.76539 14.5181 8.01671 14.7013 8.20364L16.3013 9.80364C16.4882 9.98687 16.7396 10.0895 17.0013 10.0895C17.2631 10.0895 17.5144 9.98687 17.7013 9.80364L21.4713 6.03364C21.9742 7.14483 22.1264 8.38288 21.9078 9.58279C21.6892 10.7827 21.11 11.8875 20.2476 12.7499C19.3852 13.6124 18.2804 14.1915 17.0805 14.4101C15.8806 14.6287 14.6425 14.4765 13.5313 13.9736L6.62132 20.8836C6.2235 21.2815 5.68393 21.505 5.12132 21.505C4.55871 21.505 4.01914 21.2815 3.62132 20.8836C3.2235 20.4858 3 19.9462 3 19.3836C3 18.821 3.2235 18.2815 3.62132 17.8836L10.5313 10.9736C10.0285 9.86245 9.87624 8.62441 10.0949 7.4245C10.3135 6.22459 10.8926 5.1198 11.755 4.25736C12.6175 3.39493 13.7223 2.81581 14.9222 2.59718C16.1221 2.37856 17.3601 2.53081 18.4713 3.03364L14.7113 6.79364L14.7013 6.80364Z" stroke="white" stroke-width="1.5" stroke-linecap="round" stroke-linejoin="round"/>
</svg>
